%TF.GenerationSoftware,KiCad,Pcbnew,6.0.11-2627ca5db0~126~ubuntu20.04.1*%
%TF.CreationDate,2024-02-24T21:37:21-05:00*%
%TF.ProjectId,hil00,68696c30-302e-46b6-9963-61645f706362,rev?*%
%TF.SameCoordinates,Original*%
%TF.FileFunction,Legend,Top*%
%TF.FilePolarity,Positive*%
%FSLAX46Y46*%
G04 Gerber Fmt 4.6, Leading zero omitted, Abs format (unit mm)*
G04 Created by KiCad (PCBNEW 6.0.11-2627ca5db0~126~ubuntu20.04.1) date 2024-02-24 21:37:21*
%MOMM*%
%LPD*%
G01*
G04 APERTURE LIST*
%ADD10C,0.150000*%
%TA.AperFunction,Profile*%
%ADD11C,0.100000*%
%TD*%
%ADD12C,0.212500*%
%ADD13C,0.250000*%
%ADD14C,0.120000*%
G04 APERTURE END LIST*
D10*
X100150000Y-125000000D02*
X181850000Y-125000000D01*
D11*
X100000000Y-130500000D02*
X182000000Y-130500000D01*
X100000000Y-100000000D02*
X100000000Y-130500000D01*
X182000000Y-130500000D02*
X182000000Y-100000000D01*
X100000000Y-100000000D02*
X182000000Y-100000000D01*
D12*
X178816000Y-101073223D02*
X178816000Y-100223223D01*
X178735047Y-101591723D02*
X178896952Y-101591723D01*
X178977904Y-101632200D01*
X179058857Y-101713152D01*
X179099333Y-101875057D01*
X179099333Y-102158390D01*
X179058857Y-102320295D01*
X178977904Y-102401247D01*
X178896952Y-102441723D01*
X178735047Y-102441723D01*
X178654095Y-102401247D01*
X178573142Y-102320295D01*
X178532666Y-102158390D01*
X178532666Y-101875057D01*
X178573142Y-101713152D01*
X178654095Y-101632200D01*
X178735047Y-101591723D01*
X178775523Y-102960223D02*
X178856476Y-102960223D01*
X178937428Y-103000700D01*
X178977904Y-103041176D01*
X179018380Y-103122128D01*
X179058857Y-103284033D01*
X179058857Y-103486414D01*
X179018380Y-103648319D01*
X178977904Y-103729271D01*
X178937428Y-103769747D01*
X178856476Y-103810223D01*
X178775523Y-103810223D01*
X178694571Y-103769747D01*
X178654095Y-103729271D01*
X178613619Y-103648319D01*
X178573142Y-103486414D01*
X178573142Y-103284033D01*
X178613619Y-103122128D01*
X178654095Y-103041176D01*
X178694571Y-103000700D01*
X178775523Y-102960223D01*
X179140219Y-120939300D02*
X179059266Y-120898823D01*
X178937838Y-120898823D01*
X178816409Y-120939300D01*
X178735457Y-121020252D01*
X178694980Y-121101204D01*
X178654504Y-121263109D01*
X178654504Y-121384538D01*
X178694980Y-121546442D01*
X178735457Y-121627395D01*
X178816409Y-121708347D01*
X178937838Y-121748823D01*
X179018790Y-121748823D01*
X179140219Y-121708347D01*
X179180695Y-121667871D01*
X179180695Y-121384538D01*
X179018790Y-121384538D01*
X178674742Y-123117323D02*
X178674742Y-122267323D01*
X179160457Y-123117323D01*
X179160457Y-122267323D01*
X178694980Y-124485823D02*
X178694980Y-123635823D01*
X178897361Y-123635823D01*
X179018790Y-123676300D01*
X179099742Y-123757252D01*
X179140219Y-123838204D01*
X179180695Y-124000109D01*
X179180695Y-124121538D01*
X179140219Y-124283442D01*
X179099742Y-124364395D01*
X179018790Y-124445347D01*
X178897361Y-124485823D01*
X178694980Y-124485823D01*
D13*
X101660000Y-123868571D02*
X101660000Y-122368571D01*
X101660000Y-123082857D02*
X102517142Y-123082857D01*
X102517142Y-123868571D02*
X102517142Y-122368571D01*
X103231428Y-123868571D02*
X103231428Y-122368571D01*
X104660000Y-123868571D02*
X103945714Y-123868571D01*
X103945714Y-122368571D01*
X105160000Y-123297142D02*
X106302857Y-123297142D01*
X107302857Y-122368571D02*
X107445714Y-122368571D01*
X107588571Y-122440000D01*
X107660000Y-122511428D01*
X107731428Y-122654285D01*
X107802857Y-122940000D01*
X107802857Y-123297142D01*
X107731428Y-123582857D01*
X107660000Y-123725714D01*
X107588571Y-123797142D01*
X107445714Y-123868571D01*
X107302857Y-123868571D01*
X107160000Y-123797142D01*
X107088571Y-123725714D01*
X107017142Y-123582857D01*
X106945714Y-123297142D01*
X106945714Y-122940000D01*
X107017142Y-122654285D01*
X107088571Y-122511428D01*
X107160000Y-122440000D01*
X107302857Y-122368571D01*
X108731428Y-122368571D02*
X108874285Y-122368571D01*
X109017142Y-122440000D01*
X109088571Y-122511428D01*
X109160000Y-122654285D01*
X109231428Y-122940000D01*
X109231428Y-123297142D01*
X109160000Y-123582857D01*
X109088571Y-123725714D01*
X109017142Y-123797142D01*
X108874285Y-123868571D01*
X108731428Y-123868571D01*
X108588571Y-123797142D01*
X108517142Y-123725714D01*
X108445714Y-123582857D01*
X108374285Y-123297142D01*
X108374285Y-122940000D01*
X108445714Y-122654285D01*
X108517142Y-122511428D01*
X108588571Y-122440000D01*
X108731428Y-122368571D01*
D12*
X168766695Y-121671073D02*
X168483361Y-121266311D01*
X168280980Y-121671073D02*
X168280980Y-120821073D01*
X168604790Y-120821073D01*
X168685742Y-120861550D01*
X168726219Y-120902026D01*
X168766695Y-120982978D01*
X168766695Y-121104407D01*
X168726219Y-121185359D01*
X168685742Y-121225835D01*
X168604790Y-121266311D01*
X168280980Y-121266311D01*
X168220266Y-122189573D02*
X168786933Y-123039573D01*
X168786933Y-122189573D02*
X168220266Y-123039573D01*
X165210695Y-101174823D02*
X164927361Y-100770061D01*
X164724980Y-101174823D02*
X164724980Y-100324823D01*
X165048790Y-100324823D01*
X165129742Y-100365300D01*
X165170219Y-100405776D01*
X165210695Y-100486728D01*
X165210695Y-100608157D01*
X165170219Y-100689109D01*
X165129742Y-100729585D01*
X165048790Y-100770061D01*
X164724980Y-100770061D01*
X164704742Y-101693323D02*
X165190457Y-101693323D01*
X164947600Y-102543323D02*
X164947600Y-101693323D01*
X164704742Y-103871347D02*
X164826171Y-103911823D01*
X165028552Y-103911823D01*
X165109504Y-103871347D01*
X165149980Y-103830871D01*
X165190457Y-103749919D01*
X165190457Y-103668966D01*
X165149980Y-103588014D01*
X165109504Y-103547538D01*
X165028552Y-103507061D01*
X164866647Y-103466585D01*
X164785695Y-103426109D01*
X164745219Y-103385633D01*
X164704742Y-103304680D01*
X164704742Y-103223728D01*
X164745219Y-103142776D01*
X164785695Y-103102300D01*
X164866647Y-103061823D01*
X165069028Y-103061823D01*
X165190457Y-103102300D01*
X168280980Y-101124023D02*
X168280980Y-100274023D01*
X168483361Y-100274023D01*
X168604790Y-100314500D01*
X168685742Y-100395452D01*
X168726219Y-100476404D01*
X168766695Y-100638309D01*
X168766695Y-100759738D01*
X168726219Y-100921642D01*
X168685742Y-101002595D01*
X168604790Y-101083547D01*
X168483361Y-101124023D01*
X168280980Y-101124023D01*
X168260742Y-101642523D02*
X168746457Y-101642523D01*
X168503600Y-102492523D02*
X168503600Y-101642523D01*
X168766695Y-103861023D02*
X168483361Y-103456261D01*
X168280980Y-103861023D02*
X168280980Y-103011023D01*
X168604790Y-103011023D01*
X168685742Y-103051500D01*
X168726219Y-103091976D01*
X168766695Y-103172928D01*
X168766695Y-103294357D01*
X168726219Y-103375309D01*
X168685742Y-103415785D01*
X168604790Y-103456261D01*
X168280980Y-103456261D01*
X164603142Y-120770273D02*
X165088857Y-120770273D01*
X164846000Y-121620273D02*
X164846000Y-120770273D01*
X164562666Y-122138773D02*
X165129333Y-122988773D01*
X165129333Y-122138773D02*
X164562666Y-122988773D01*
X175077857Y-100651835D02*
X175361190Y-100651835D01*
X175482619Y-101097073D02*
X175077857Y-101097073D01*
X175077857Y-100247073D01*
X175482619Y-100247073D01*
X175017142Y-102465573D02*
X175017142Y-101615573D01*
X175502857Y-102465573D01*
X175502857Y-101615573D01*
X175179866Y-120898823D02*
X175706057Y-120898823D01*
X175422723Y-121222633D01*
X175544152Y-121222633D01*
X175625104Y-121263109D01*
X175665580Y-121303585D01*
X175706057Y-121384538D01*
X175706057Y-121586919D01*
X175665580Y-121667871D01*
X175625104Y-121708347D01*
X175544152Y-121748823D01*
X175301295Y-121748823D01*
X175220342Y-121708347D01*
X175179866Y-121667871D01*
X175179866Y-122267323D02*
X175463200Y-123117323D01*
X175746533Y-122267323D01*
X175179866Y-123635823D02*
X175706057Y-123635823D01*
X175422723Y-123959633D01*
X175544152Y-123959633D01*
X175625104Y-124000109D01*
X175665580Y-124040585D01*
X175706057Y-124121538D01*
X175706057Y-124323919D01*
X175665580Y-124404871D01*
X175625104Y-124445347D01*
X175544152Y-124485823D01*
X175301295Y-124485823D01*
X175220342Y-124445347D01*
X175179866Y-124404871D01*
X172160380Y-120848023D02*
X171755619Y-120848023D01*
X171715142Y-121252785D01*
X171755619Y-121212309D01*
X171836571Y-121171833D01*
X172038952Y-121171833D01*
X172119904Y-121212309D01*
X172160380Y-121252785D01*
X172200857Y-121333738D01*
X172200857Y-121536119D01*
X172160380Y-121617071D01*
X172119904Y-121657547D01*
X172038952Y-121698023D01*
X171836571Y-121698023D01*
X171755619Y-121657547D01*
X171715142Y-121617071D01*
X171674666Y-122216523D02*
X171958000Y-123066523D01*
X172241333Y-122216523D01*
X171917523Y-123585023D02*
X171998476Y-123585023D01*
X172079428Y-123625500D01*
X172119904Y-123665976D01*
X172160380Y-123746928D01*
X172200857Y-123908833D01*
X172200857Y-124111214D01*
X172160380Y-124273119D01*
X172119904Y-124354071D01*
X172079428Y-124394547D01*
X171998476Y-124435023D01*
X171917523Y-124435023D01*
X171836571Y-124394547D01*
X171796095Y-124354071D01*
X171755619Y-124273119D01*
X171715142Y-124111214D01*
X171715142Y-123908833D01*
X171755619Y-123746928D01*
X171796095Y-123665976D01*
X171836571Y-123625500D01*
X171917523Y-123585023D01*
X172221095Y-100992271D02*
X172180619Y-101032747D01*
X172059190Y-101073223D01*
X171978238Y-101073223D01*
X171856809Y-101032747D01*
X171775857Y-100951795D01*
X171735380Y-100870842D01*
X171694904Y-100708938D01*
X171694904Y-100587509D01*
X171735380Y-100425604D01*
X171775857Y-100344652D01*
X171856809Y-100263700D01*
X171978238Y-100223223D01*
X172059190Y-100223223D01*
X172180619Y-100263700D01*
X172221095Y-100304176D01*
X171715142Y-101591723D02*
X172200857Y-101591723D01*
X171958000Y-102441723D02*
X171958000Y-101591723D01*
X171715142Y-103769747D02*
X171836571Y-103810223D01*
X172038952Y-103810223D01*
X172119904Y-103769747D01*
X172160380Y-103729271D01*
X172200857Y-103648319D01*
X172200857Y-103567366D01*
X172160380Y-103486414D01*
X172119904Y-103445938D01*
X172038952Y-103405461D01*
X171877047Y-103364985D01*
X171796095Y-103324509D01*
X171755619Y-103284033D01*
X171715142Y-103203080D01*
X171715142Y-103122128D01*
X171755619Y-103041176D01*
X171796095Y-103000700D01*
X171877047Y-102960223D01*
X172079428Y-102960223D01*
X172200857Y-103000700D01*
D10*
%TO.C,R6*%
X128103333Y-122680380D02*
X127770000Y-122204190D01*
X127531904Y-122680380D02*
X127531904Y-121680380D01*
X127912857Y-121680380D01*
X128008095Y-121728000D01*
X128055714Y-121775619D01*
X128103333Y-121870857D01*
X128103333Y-122013714D01*
X128055714Y-122108952D01*
X128008095Y-122156571D01*
X127912857Y-122204190D01*
X127531904Y-122204190D01*
X128960476Y-121680380D02*
X128770000Y-121680380D01*
X128674761Y-121728000D01*
X128627142Y-121775619D01*
X128531904Y-121918476D01*
X128484285Y-122108952D01*
X128484285Y-122489904D01*
X128531904Y-122585142D01*
X128579523Y-122632761D01*
X128674761Y-122680380D01*
X128865238Y-122680380D01*
X128960476Y-122632761D01*
X129008095Y-122585142D01*
X129055714Y-122489904D01*
X129055714Y-122251809D01*
X129008095Y-122156571D01*
X128960476Y-122108952D01*
X128865238Y-122061333D01*
X128674761Y-122061333D01*
X128579523Y-122108952D01*
X128531904Y-122156571D01*
X128484285Y-122251809D01*
%TO.C,R7*%
X128033333Y-101352380D02*
X127700000Y-100876190D01*
X127461904Y-101352380D02*
X127461904Y-100352380D01*
X127842857Y-100352380D01*
X127938095Y-100400000D01*
X127985714Y-100447619D01*
X128033333Y-100542857D01*
X128033333Y-100685714D01*
X127985714Y-100780952D01*
X127938095Y-100828571D01*
X127842857Y-100876190D01*
X127461904Y-100876190D01*
X128366666Y-100352380D02*
X129033333Y-100352380D01*
X128604761Y-101352380D01*
%TO.C,R5*%
X128103333Y-124404380D02*
X127770000Y-123928190D01*
X127531904Y-124404380D02*
X127531904Y-123404380D01*
X127912857Y-123404380D01*
X128008095Y-123452000D01*
X128055714Y-123499619D01*
X128103333Y-123594857D01*
X128103333Y-123737714D01*
X128055714Y-123832952D01*
X128008095Y-123880571D01*
X127912857Y-123928190D01*
X127531904Y-123928190D01*
X129008095Y-123404380D02*
X128531904Y-123404380D01*
X128484285Y-123880571D01*
X128531904Y-123832952D01*
X128627142Y-123785333D01*
X128865238Y-123785333D01*
X128960476Y-123832952D01*
X129008095Y-123880571D01*
X129055714Y-123975809D01*
X129055714Y-124213904D01*
X129008095Y-124309142D01*
X128960476Y-124356761D01*
X128865238Y-124404380D01*
X128627142Y-124404380D01*
X128531904Y-124356761D01*
X128484285Y-124309142D01*
%TO.C,C4*%
X128033333Y-103957142D02*
X127985714Y-104004761D01*
X127842857Y-104052380D01*
X127747619Y-104052380D01*
X127604761Y-104004761D01*
X127509523Y-103909523D01*
X127461904Y-103814285D01*
X127414285Y-103623809D01*
X127414285Y-103480952D01*
X127461904Y-103290476D01*
X127509523Y-103195238D01*
X127604761Y-103100000D01*
X127747619Y-103052380D01*
X127842857Y-103052380D01*
X127985714Y-103100000D01*
X128033333Y-103147619D01*
X128890476Y-103385714D02*
X128890476Y-104052380D01*
X128652380Y-103004761D02*
X128414285Y-103719047D01*
X129033333Y-103719047D01*
%TO.C,D2*%
X156183104Y-113228380D02*
X156183104Y-112228380D01*
X156421200Y-112228380D01*
X156564057Y-112276000D01*
X156659295Y-112371238D01*
X156706914Y-112466476D01*
X156754533Y-112656952D01*
X156754533Y-112799809D01*
X156706914Y-112990285D01*
X156659295Y-113085523D01*
X156564057Y-113180761D01*
X156421200Y-113228380D01*
X156183104Y-113228380D01*
X157135485Y-112323619D02*
X157183104Y-112276000D01*
X157278342Y-112228380D01*
X157516438Y-112228380D01*
X157611676Y-112276000D01*
X157659295Y-112323619D01*
X157706914Y-112418857D01*
X157706914Y-112514095D01*
X157659295Y-112656952D01*
X157087866Y-113228380D01*
X157706914Y-113228380D01*
%TO.C,Y1*%
X131040190Y-119856190D02*
X131516380Y-119856190D01*
X130516380Y-120189523D02*
X131040190Y-119856190D01*
X130516380Y-119522857D01*
X131516380Y-118665714D02*
X131516380Y-119237142D01*
X131516380Y-118951428D02*
X130516380Y-118951428D01*
X130659238Y-119046666D01*
X130754476Y-119141904D01*
X130802095Y-119237142D01*
%TO.C,R3*%
X111593333Y-120848380D02*
X111260000Y-120372190D01*
X111021904Y-120848380D02*
X111021904Y-119848380D01*
X111402857Y-119848380D01*
X111498095Y-119896000D01*
X111545714Y-119943619D01*
X111593333Y-120038857D01*
X111593333Y-120181714D01*
X111545714Y-120276952D01*
X111498095Y-120324571D01*
X111402857Y-120372190D01*
X111021904Y-120372190D01*
X111926666Y-119848380D02*
X112545714Y-119848380D01*
X112212380Y-120229333D01*
X112355238Y-120229333D01*
X112450476Y-120276952D01*
X112498095Y-120324571D01*
X112545714Y-120419809D01*
X112545714Y-120657904D01*
X112498095Y-120753142D01*
X112450476Y-120800761D01*
X112355238Y-120848380D01*
X112069523Y-120848380D01*
X111974285Y-120800761D01*
X111926666Y-120753142D01*
%TO.C,R1*%
X111593333Y-117292380D02*
X111260000Y-116816190D01*
X111021904Y-117292380D02*
X111021904Y-116292380D01*
X111402857Y-116292380D01*
X111498095Y-116340000D01*
X111545714Y-116387619D01*
X111593333Y-116482857D01*
X111593333Y-116625714D01*
X111545714Y-116720952D01*
X111498095Y-116768571D01*
X111402857Y-116816190D01*
X111021904Y-116816190D01*
X112545714Y-117292380D02*
X111974285Y-117292380D01*
X112260000Y-117292380D02*
X112260000Y-116292380D01*
X112164761Y-116435238D01*
X112069523Y-116530476D01*
X111974285Y-116578095D01*
%TO.C,U1*%
X123698095Y-112736380D02*
X123698095Y-113545904D01*
X123745714Y-113641142D01*
X123793333Y-113688761D01*
X123888571Y-113736380D01*
X124079047Y-113736380D01*
X124174285Y-113688761D01*
X124221904Y-113641142D01*
X124269523Y-113545904D01*
X124269523Y-112736380D01*
X125269523Y-113736380D02*
X124698095Y-113736380D01*
X124983809Y-113736380D02*
X124983809Y-112736380D01*
X124888571Y-112879238D01*
X124793333Y-112974476D01*
X124698095Y-113022095D01*
%TO.C,C1*%
X105497333Y-104157142D02*
X105449714Y-104204761D01*
X105306857Y-104252380D01*
X105211619Y-104252380D01*
X105068761Y-104204761D01*
X104973523Y-104109523D01*
X104925904Y-104014285D01*
X104878285Y-103823809D01*
X104878285Y-103680952D01*
X104925904Y-103490476D01*
X104973523Y-103395238D01*
X105068761Y-103300000D01*
X105211619Y-103252380D01*
X105306857Y-103252380D01*
X105449714Y-103300000D01*
X105497333Y-103347619D01*
X106449714Y-104252380D02*
X105878285Y-104252380D01*
X106164000Y-104252380D02*
X106164000Y-103252380D01*
X106068761Y-103395238D01*
X105973523Y-103490476D01*
X105878285Y-103538095D01*
%TO.C,J1*%
X106346666Y-118832380D02*
X106346666Y-119546666D01*
X106299047Y-119689523D01*
X106203809Y-119784761D01*
X106060952Y-119832380D01*
X105965714Y-119832380D01*
X107346666Y-119832380D02*
X106775238Y-119832380D01*
X107060952Y-119832380D02*
X107060952Y-118832380D01*
X106965714Y-118975238D01*
X106870476Y-119070476D01*
X106775238Y-119118095D01*
%TO.C,C2*%
X105497333Y-101857142D02*
X105449714Y-101904761D01*
X105306857Y-101952380D01*
X105211619Y-101952380D01*
X105068761Y-101904761D01*
X104973523Y-101809523D01*
X104925904Y-101714285D01*
X104878285Y-101523809D01*
X104878285Y-101380952D01*
X104925904Y-101190476D01*
X104973523Y-101095238D01*
X105068761Y-101000000D01*
X105211619Y-100952380D01*
X105306857Y-100952380D01*
X105449714Y-101000000D01*
X105497333Y-101047619D01*
X105878285Y-101047619D02*
X105925904Y-101000000D01*
X106021142Y-100952380D01*
X106259238Y-100952380D01*
X106354476Y-101000000D01*
X106402095Y-101047619D01*
X106449714Y-101142857D01*
X106449714Y-101238095D01*
X106402095Y-101380952D01*
X105830666Y-101952380D01*
X106449714Y-101952380D01*
%TO.C,Q2*%
X140253161Y-123767619D02*
X140157923Y-123720000D01*
X140062685Y-123624761D01*
X139919828Y-123481904D01*
X139824590Y-123434285D01*
X139729352Y-123434285D01*
X139776971Y-123672380D02*
X139681733Y-123624761D01*
X139586495Y-123529523D01*
X139538876Y-123339047D01*
X139538876Y-123005714D01*
X139586495Y-122815238D01*
X139681733Y-122720000D01*
X139776971Y-122672380D01*
X139967447Y-122672380D01*
X140062685Y-122720000D01*
X140157923Y-122815238D01*
X140205542Y-123005714D01*
X140205542Y-123339047D01*
X140157923Y-123529523D01*
X140062685Y-123624761D01*
X139967447Y-123672380D01*
X139776971Y-123672380D01*
X140586495Y-122767619D02*
X140634114Y-122720000D01*
X140729352Y-122672380D01*
X140967447Y-122672380D01*
X141062685Y-122720000D01*
X141110304Y-122767619D01*
X141157923Y-122862857D01*
X141157923Y-122958095D01*
X141110304Y-123100952D01*
X140538876Y-123672380D01*
X141157923Y-123672380D01*
%TO.C,D1*%
X127461904Y-102652380D02*
X127461904Y-101652380D01*
X127700000Y-101652380D01*
X127842857Y-101700000D01*
X127938095Y-101795238D01*
X127985714Y-101890476D01*
X128033333Y-102080952D01*
X128033333Y-102223809D01*
X127985714Y-102414285D01*
X127938095Y-102509523D01*
X127842857Y-102604761D01*
X127700000Y-102652380D01*
X127461904Y-102652380D01*
X128985714Y-102652380D02*
X128414285Y-102652380D01*
X128700000Y-102652380D02*
X128700000Y-101652380D01*
X128604761Y-101795238D01*
X128509523Y-101890476D01*
X128414285Y-101938095D01*
%TO.C,C5*%
X156652933Y-108510342D02*
X156605314Y-108557961D01*
X156462457Y-108605580D01*
X156367219Y-108605580D01*
X156224361Y-108557961D01*
X156129123Y-108462723D01*
X156081504Y-108367485D01*
X156033885Y-108177009D01*
X156033885Y-108034152D01*
X156081504Y-107843676D01*
X156129123Y-107748438D01*
X156224361Y-107653200D01*
X156367219Y-107605580D01*
X156462457Y-107605580D01*
X156605314Y-107653200D01*
X156652933Y-107700819D01*
X157557695Y-107605580D02*
X157081504Y-107605580D01*
X157033885Y-108081771D01*
X157081504Y-108034152D01*
X157176742Y-107986533D01*
X157414838Y-107986533D01*
X157510076Y-108034152D01*
X157557695Y-108081771D01*
X157605314Y-108177009D01*
X157605314Y-108415104D01*
X157557695Y-108510342D01*
X157510076Y-108557961D01*
X157414838Y-108605580D01*
X157176742Y-108605580D01*
X157081504Y-108557961D01*
X157033885Y-108510342D01*
%TO.C,J3*%
X161119466Y-104049580D02*
X161119466Y-104763866D01*
X161071847Y-104906723D01*
X160976609Y-105001961D01*
X160833752Y-105049580D01*
X160738514Y-105049580D01*
X161500419Y-104049580D02*
X162119466Y-104049580D01*
X161786133Y-104430533D01*
X161928990Y-104430533D01*
X162024228Y-104478152D01*
X162071847Y-104525771D01*
X162119466Y-104621009D01*
X162119466Y-104859104D01*
X162071847Y-104954342D01*
X162024228Y-105001961D01*
X161928990Y-105049580D01*
X161643276Y-105049580D01*
X161548038Y-105001961D01*
X161500419Y-104954342D01*
%TO.C,R9*%
X153757333Y-119832380D02*
X153424000Y-119356190D01*
X153185904Y-119832380D02*
X153185904Y-118832380D01*
X153566857Y-118832380D01*
X153662095Y-118880000D01*
X153709714Y-118927619D01*
X153757333Y-119022857D01*
X153757333Y-119165714D01*
X153709714Y-119260952D01*
X153662095Y-119308571D01*
X153566857Y-119356190D01*
X153185904Y-119356190D01*
X154233523Y-119832380D02*
X154424000Y-119832380D01*
X154519238Y-119784761D01*
X154566857Y-119737142D01*
X154662095Y-119594285D01*
X154709714Y-119403809D01*
X154709714Y-119022857D01*
X154662095Y-118927619D01*
X154614476Y-118880000D01*
X154519238Y-118832380D01*
X154328761Y-118832380D01*
X154233523Y-118880000D01*
X154185904Y-118927619D01*
X154138285Y-119022857D01*
X154138285Y-119260952D01*
X154185904Y-119356190D01*
X154233523Y-119403809D01*
X154328761Y-119451428D01*
X154519238Y-119451428D01*
X154614476Y-119403809D01*
X154662095Y-119356190D01*
X154709714Y-119260952D01*
%TO.C,U3*%
X140665295Y-104804380D02*
X140665295Y-105613904D01*
X140712914Y-105709142D01*
X140760533Y-105756761D01*
X140855771Y-105804380D01*
X141046247Y-105804380D01*
X141141485Y-105756761D01*
X141189104Y-105709142D01*
X141236723Y-105613904D01*
X141236723Y-104804380D01*
X141617676Y-104804380D02*
X142236723Y-104804380D01*
X141903390Y-105185333D01*
X142046247Y-105185333D01*
X142141485Y-105232952D01*
X142189104Y-105280571D01*
X142236723Y-105375809D01*
X142236723Y-105613904D01*
X142189104Y-105709142D01*
X142141485Y-105756761D01*
X142046247Y-105804380D01*
X141760533Y-105804380D01*
X141665295Y-105756761D01*
X141617676Y-105709142D01*
%TO.C,R2*%
X105497333Y-106524380D02*
X105164000Y-106048190D01*
X104925904Y-106524380D02*
X104925904Y-105524380D01*
X105306857Y-105524380D01*
X105402095Y-105572000D01*
X105449714Y-105619619D01*
X105497333Y-105714857D01*
X105497333Y-105857714D01*
X105449714Y-105952952D01*
X105402095Y-106000571D01*
X105306857Y-106048190D01*
X104925904Y-106048190D01*
X105878285Y-105619619D02*
X105925904Y-105572000D01*
X106021142Y-105524380D01*
X106259238Y-105524380D01*
X106354476Y-105572000D01*
X106402095Y-105619619D01*
X106449714Y-105714857D01*
X106449714Y-105810095D01*
X106402095Y-105952952D01*
X105830666Y-106524380D01*
X106449714Y-106524380D01*
%TO.C,J2*%
X160956666Y-119391180D02*
X160956666Y-120105466D01*
X160909047Y-120248323D01*
X160813809Y-120343561D01*
X160670952Y-120391180D01*
X160575714Y-120391180D01*
X161385238Y-119486419D02*
X161432857Y-119438800D01*
X161528095Y-119391180D01*
X161766190Y-119391180D01*
X161861428Y-119438800D01*
X161909047Y-119486419D01*
X161956666Y-119581657D01*
X161956666Y-119676895D01*
X161909047Y-119819752D01*
X161337619Y-120391180D01*
X161956666Y-120391180D01*
%TO.C,RJ3*%
X147026380Y-107127380D02*
X146693047Y-106651190D01*
X146454952Y-107127380D02*
X146454952Y-106127380D01*
X146835904Y-106127380D01*
X146931142Y-106175000D01*
X146978761Y-106222619D01*
X147026380Y-106317857D01*
X147026380Y-106460714D01*
X146978761Y-106555952D01*
X146931142Y-106603571D01*
X146835904Y-106651190D01*
X146454952Y-106651190D01*
X147740666Y-106127380D02*
X147740666Y-106841666D01*
X147693047Y-106984523D01*
X147597809Y-107079761D01*
X147454952Y-107127380D01*
X147359714Y-107127380D01*
X148121619Y-106127380D02*
X148740666Y-106127380D01*
X148407333Y-106508333D01*
X148550190Y-106508333D01*
X148645428Y-106555952D01*
X148693047Y-106603571D01*
X148740666Y-106698809D01*
X148740666Y-106936904D01*
X148693047Y-107032142D01*
X148645428Y-107079761D01*
X148550190Y-107127380D01*
X148264476Y-107127380D01*
X148169238Y-107079761D01*
X148121619Y-107032142D01*
%TO.C,U2*%
X153974895Y-116495580D02*
X153974895Y-117305104D01*
X154022514Y-117400342D01*
X154070133Y-117447961D01*
X154165371Y-117495580D01*
X154355847Y-117495580D01*
X154451085Y-117447961D01*
X154498704Y-117400342D01*
X154546323Y-117305104D01*
X154546323Y-116495580D01*
X154974895Y-116590819D02*
X155022514Y-116543200D01*
X155117752Y-116495580D01*
X155355847Y-116495580D01*
X155451085Y-116543200D01*
X155498704Y-116590819D01*
X155546323Y-116686057D01*
X155546323Y-116781295D01*
X155498704Y-116924152D01*
X154927276Y-117495580D01*
X155546323Y-117495580D01*
%TO.C,RJ2*%
X151801580Y-107081580D02*
X151468247Y-106605390D01*
X151230152Y-107081580D02*
X151230152Y-106081580D01*
X151611104Y-106081580D01*
X151706342Y-106129200D01*
X151753961Y-106176819D01*
X151801580Y-106272057D01*
X151801580Y-106414914D01*
X151753961Y-106510152D01*
X151706342Y-106557771D01*
X151611104Y-106605390D01*
X151230152Y-106605390D01*
X152515866Y-106081580D02*
X152515866Y-106795866D01*
X152468247Y-106938723D01*
X152373009Y-107033961D01*
X152230152Y-107081580D01*
X152134914Y-107081580D01*
X152944438Y-106176819D02*
X152992057Y-106129200D01*
X153087295Y-106081580D01*
X153325390Y-106081580D01*
X153420628Y-106129200D01*
X153468247Y-106176819D01*
X153515866Y-106272057D01*
X153515866Y-106367295D01*
X153468247Y-106510152D01*
X152896819Y-107081580D01*
X153515866Y-107081580D01*
%TO.C,C3*%
X128103333Y-120753142D02*
X128055714Y-120800761D01*
X127912857Y-120848380D01*
X127817619Y-120848380D01*
X127674761Y-120800761D01*
X127579523Y-120705523D01*
X127531904Y-120610285D01*
X127484285Y-120419809D01*
X127484285Y-120276952D01*
X127531904Y-120086476D01*
X127579523Y-119991238D01*
X127674761Y-119896000D01*
X127817619Y-119848380D01*
X127912857Y-119848380D01*
X128055714Y-119896000D01*
X128103333Y-119943619D01*
X128436666Y-119848380D02*
X129055714Y-119848380D01*
X128722380Y-120229333D01*
X128865238Y-120229333D01*
X128960476Y-120276952D01*
X129008095Y-120324571D01*
X129055714Y-120419809D01*
X129055714Y-120657904D01*
X129008095Y-120753142D01*
X128960476Y-120800761D01*
X128865238Y-120848380D01*
X128579523Y-120848380D01*
X128484285Y-120800761D01*
X128436666Y-120753142D01*
%TO.C,C8*%
X133437333Y-123918142D02*
X133389714Y-123965761D01*
X133246857Y-124013380D01*
X133151619Y-124013380D01*
X133008761Y-123965761D01*
X132913523Y-123870523D01*
X132865904Y-123775285D01*
X132818285Y-123584809D01*
X132818285Y-123441952D01*
X132865904Y-123251476D01*
X132913523Y-123156238D01*
X133008761Y-123061000D01*
X133151619Y-123013380D01*
X133246857Y-123013380D01*
X133389714Y-123061000D01*
X133437333Y-123108619D01*
X134008761Y-123441952D02*
X133913523Y-123394333D01*
X133865904Y-123346714D01*
X133818285Y-123251476D01*
X133818285Y-123203857D01*
X133865904Y-123108619D01*
X133913523Y-123061000D01*
X134008761Y-123013380D01*
X134199238Y-123013380D01*
X134294476Y-123061000D01*
X134342095Y-123108619D01*
X134389714Y-123203857D01*
X134389714Y-123251476D01*
X134342095Y-123346714D01*
X134294476Y-123394333D01*
X134199238Y-123441952D01*
X134008761Y-123441952D01*
X133913523Y-123489571D01*
X133865904Y-123537190D01*
X133818285Y-123632428D01*
X133818285Y-123822904D01*
X133865904Y-123918142D01*
X133913523Y-123965761D01*
X134008761Y-124013380D01*
X134199238Y-124013380D01*
X134294476Y-123965761D01*
X134342095Y-123918142D01*
X134389714Y-123822904D01*
X134389714Y-123632428D01*
X134342095Y-123537190D01*
X134294476Y-123489571D01*
X134199238Y-123441952D01*
%TO.C,RJ1*%
X156932380Y-107132380D02*
X156599047Y-106656190D01*
X156360952Y-107132380D02*
X156360952Y-106132380D01*
X156741904Y-106132380D01*
X156837142Y-106180000D01*
X156884761Y-106227619D01*
X156932380Y-106322857D01*
X156932380Y-106465714D01*
X156884761Y-106560952D01*
X156837142Y-106608571D01*
X156741904Y-106656190D01*
X156360952Y-106656190D01*
X157646666Y-106132380D02*
X157646666Y-106846666D01*
X157599047Y-106989523D01*
X157503809Y-107084761D01*
X157360952Y-107132380D01*
X157265714Y-107132380D01*
X158646666Y-107132380D02*
X158075238Y-107132380D01*
X158360952Y-107132380D02*
X158360952Y-106132380D01*
X158265714Y-106275238D01*
X158170476Y-106370476D01*
X158075238Y-106418095D01*
%TO.C,R4*%
X111633333Y-124647380D02*
X111300000Y-124171190D01*
X111061904Y-124647380D02*
X111061904Y-123647380D01*
X111442857Y-123647380D01*
X111538095Y-123695000D01*
X111585714Y-123742619D01*
X111633333Y-123837857D01*
X111633333Y-123980714D01*
X111585714Y-124075952D01*
X111538095Y-124123571D01*
X111442857Y-124171190D01*
X111061904Y-124171190D01*
X112490476Y-123980714D02*
X112490476Y-124647380D01*
X112252380Y-123599761D02*
X112014285Y-124314047D01*
X112633333Y-124314047D01*
%TO.C,C7*%
X133437333Y-101840142D02*
X133389714Y-101887761D01*
X133246857Y-101935380D01*
X133151619Y-101935380D01*
X133008761Y-101887761D01*
X132913523Y-101792523D01*
X132865904Y-101697285D01*
X132818285Y-101506809D01*
X132818285Y-101363952D01*
X132865904Y-101173476D01*
X132913523Y-101078238D01*
X133008761Y-100983000D01*
X133151619Y-100935380D01*
X133246857Y-100935380D01*
X133389714Y-100983000D01*
X133437333Y-101030619D01*
X133770666Y-100935380D02*
X134437333Y-100935380D01*
X134008761Y-101935380D01*
%TO.C,PS1*%
X124261714Y-102560380D02*
X124261714Y-101560380D01*
X124642666Y-101560380D01*
X124737904Y-101608000D01*
X124785523Y-101655619D01*
X124833142Y-101750857D01*
X124833142Y-101893714D01*
X124785523Y-101988952D01*
X124737904Y-102036571D01*
X124642666Y-102084190D01*
X124261714Y-102084190D01*
X125214095Y-102512761D02*
X125356952Y-102560380D01*
X125595047Y-102560380D01*
X125690285Y-102512761D01*
X125737904Y-102465142D01*
X125785523Y-102369904D01*
X125785523Y-102274666D01*
X125737904Y-102179428D01*
X125690285Y-102131809D01*
X125595047Y-102084190D01*
X125404571Y-102036571D01*
X125309333Y-101988952D01*
X125261714Y-101941333D01*
X125214095Y-101846095D01*
X125214095Y-101750857D01*
X125261714Y-101655619D01*
X125309333Y-101608000D01*
X125404571Y-101560380D01*
X125642666Y-101560380D01*
X125785523Y-101608000D01*
X126737904Y-102560380D02*
X126166476Y-102560380D01*
X126452190Y-102560380D02*
X126452190Y-101560380D01*
X126356952Y-101703238D01*
X126261714Y-101798476D01*
X126166476Y-101846095D01*
%TO.C,R10*%
X145102342Y-119883180D02*
X144769009Y-119406990D01*
X144530914Y-119883180D02*
X144530914Y-118883180D01*
X144911866Y-118883180D01*
X145007104Y-118930800D01*
X145054723Y-118978419D01*
X145102342Y-119073657D01*
X145102342Y-119216514D01*
X145054723Y-119311752D01*
X145007104Y-119359371D01*
X144911866Y-119406990D01*
X144530914Y-119406990D01*
X146054723Y-119883180D02*
X145483295Y-119883180D01*
X145769009Y-119883180D02*
X145769009Y-118883180D01*
X145673771Y-119026038D01*
X145578533Y-119121276D01*
X145483295Y-119168895D01*
X146673771Y-118883180D02*
X146769009Y-118883180D01*
X146864247Y-118930800D01*
X146911866Y-118978419D01*
X146959485Y-119073657D01*
X147007104Y-119264133D01*
X147007104Y-119502228D01*
X146959485Y-119692704D01*
X146911866Y-119787942D01*
X146864247Y-119835561D01*
X146769009Y-119883180D01*
X146673771Y-119883180D01*
X146578533Y-119835561D01*
X146530914Y-119787942D01*
X146483295Y-119692704D01*
X146435676Y-119502228D01*
X146435676Y-119264133D01*
X146483295Y-119073657D01*
X146530914Y-118978419D01*
X146578533Y-118930800D01*
X146673771Y-118883180D01*
%TO.C,R11*%
X156430742Y-115819180D02*
X156097409Y-115342990D01*
X155859314Y-115819180D02*
X155859314Y-114819180D01*
X156240266Y-114819180D01*
X156335504Y-114866800D01*
X156383123Y-114914419D01*
X156430742Y-115009657D01*
X156430742Y-115152514D01*
X156383123Y-115247752D01*
X156335504Y-115295371D01*
X156240266Y-115342990D01*
X155859314Y-115342990D01*
X157383123Y-115819180D02*
X156811695Y-115819180D01*
X157097409Y-115819180D02*
X157097409Y-114819180D01*
X157002171Y-114962038D01*
X156906933Y-115057276D01*
X156811695Y-115104895D01*
X158335504Y-115819180D02*
X157764076Y-115819180D01*
X158049790Y-115819180D02*
X158049790Y-114819180D01*
X157954552Y-114962038D01*
X157859314Y-115057276D01*
X157764076Y-115104895D01*
%TO.C,C6*%
X146442133Y-108459542D02*
X146394514Y-108507161D01*
X146251657Y-108554780D01*
X146156419Y-108554780D01*
X146013561Y-108507161D01*
X145918323Y-108411923D01*
X145870704Y-108316685D01*
X145823085Y-108126209D01*
X145823085Y-107983352D01*
X145870704Y-107792876D01*
X145918323Y-107697638D01*
X146013561Y-107602400D01*
X146156419Y-107554780D01*
X146251657Y-107554780D01*
X146394514Y-107602400D01*
X146442133Y-107650019D01*
X147299276Y-107554780D02*
X147108800Y-107554780D01*
X147013561Y-107602400D01*
X146965942Y-107650019D01*
X146870704Y-107792876D01*
X146823085Y-107983352D01*
X146823085Y-108364304D01*
X146870704Y-108459542D01*
X146918323Y-108507161D01*
X147013561Y-108554780D01*
X147204038Y-108554780D01*
X147299276Y-108507161D01*
X147346895Y-108459542D01*
X147394514Y-108364304D01*
X147394514Y-108126209D01*
X147346895Y-108030971D01*
X147299276Y-107983352D01*
X147204038Y-107935733D01*
X147013561Y-107935733D01*
X146918323Y-107983352D01*
X146870704Y-108030971D01*
X146823085Y-108126209D01*
%TO.C,R8*%
X156856133Y-110434380D02*
X156522800Y-109958190D01*
X156284704Y-110434380D02*
X156284704Y-109434380D01*
X156665657Y-109434380D01*
X156760895Y-109482000D01*
X156808514Y-109529619D01*
X156856133Y-109624857D01*
X156856133Y-109767714D01*
X156808514Y-109862952D01*
X156760895Y-109910571D01*
X156665657Y-109958190D01*
X156284704Y-109958190D01*
X157427561Y-109862952D02*
X157332323Y-109815333D01*
X157284704Y-109767714D01*
X157237085Y-109672476D01*
X157237085Y-109624857D01*
X157284704Y-109529619D01*
X157332323Y-109482000D01*
X157427561Y-109434380D01*
X157618038Y-109434380D01*
X157713276Y-109482000D01*
X157760895Y-109529619D01*
X157808514Y-109624857D01*
X157808514Y-109672476D01*
X157760895Y-109767714D01*
X157713276Y-109815333D01*
X157618038Y-109862952D01*
X157427561Y-109862952D01*
X157332323Y-109910571D01*
X157284704Y-109958190D01*
X157237085Y-110053428D01*
X157237085Y-110243904D01*
X157284704Y-110339142D01*
X157332323Y-110386761D01*
X157427561Y-110434380D01*
X157618038Y-110434380D01*
X157713276Y-110386761D01*
X157760895Y-110339142D01*
X157808514Y-110243904D01*
X157808514Y-110053428D01*
X157760895Y-109958190D01*
X157713276Y-109910571D01*
X157618038Y-109862952D01*
%TO.C,D3*%
X156183104Y-118460780D02*
X156183104Y-117460780D01*
X156421200Y-117460780D01*
X156564057Y-117508400D01*
X156659295Y-117603638D01*
X156706914Y-117698876D01*
X156754533Y-117889352D01*
X156754533Y-118032209D01*
X156706914Y-118222685D01*
X156659295Y-118317923D01*
X156564057Y-118413161D01*
X156421200Y-118460780D01*
X156183104Y-118460780D01*
X157087866Y-117460780D02*
X157706914Y-117460780D01*
X157373580Y-117841733D01*
X157516438Y-117841733D01*
X157611676Y-117889352D01*
X157659295Y-117936971D01*
X157706914Y-118032209D01*
X157706914Y-118270304D01*
X157659295Y-118365542D01*
X157611676Y-118413161D01*
X157516438Y-118460780D01*
X157230723Y-118460780D01*
X157135485Y-118413161D01*
X157087866Y-118365542D01*
%TO.C,Q1*%
X148893561Y-123737619D02*
X148798323Y-123690000D01*
X148703085Y-123594761D01*
X148560228Y-123451904D01*
X148464990Y-123404285D01*
X148369752Y-123404285D01*
X148417371Y-123642380D02*
X148322133Y-123594761D01*
X148226895Y-123499523D01*
X148179276Y-123309047D01*
X148179276Y-122975714D01*
X148226895Y-122785238D01*
X148322133Y-122690000D01*
X148417371Y-122642380D01*
X148607847Y-122642380D01*
X148703085Y-122690000D01*
X148798323Y-122785238D01*
X148845942Y-122975714D01*
X148845942Y-123309047D01*
X148798323Y-123499523D01*
X148703085Y-123594761D01*
X148607847Y-123642380D01*
X148417371Y-123642380D01*
X149798323Y-123642380D02*
X149226895Y-123642380D01*
X149512609Y-123642380D02*
X149512609Y-122642380D01*
X149417371Y-122785238D01*
X149322133Y-122880476D01*
X149226895Y-122928095D01*
D14*
%TO.C,R6*%
X128751064Y-116305000D02*
X128296936Y-116305000D01*
X128751064Y-114835000D02*
X128296936Y-114835000D01*
%TO.C,R7*%
X128735064Y-104675000D02*
X128280936Y-104675000D01*
X128735064Y-106145000D02*
X128280936Y-106145000D01*
%TO.C,R5*%
X128751064Y-118591000D02*
X128296936Y-118591000D01*
X128751064Y-117121000D02*
X128296936Y-117121000D01*
%TO.C,C4*%
X128262748Y-109755000D02*
X128785252Y-109755000D01*
X128262748Y-111225000D02*
X128785252Y-111225000D01*
%TO.C,D2*%
X161880000Y-111340000D02*
X159020000Y-111340000D01*
X161880000Y-113260000D02*
X161880000Y-111340000D01*
X159020000Y-113260000D02*
X161880000Y-113260000D01*
%TO.C,Y1*%
X131054000Y-104850000D02*
X131054000Y-118450000D01*
X136154000Y-104850000D02*
X131054000Y-104850000D01*
X136154000Y-118450000D02*
X136154000Y-104850000D01*
%TO.C,R3*%
X111987064Y-119490000D02*
X111532936Y-119490000D01*
X111987064Y-118020000D02*
X111532936Y-118020000D01*
%TO.C,R1*%
X111532936Y-115543000D02*
X111987064Y-115543000D01*
X111532936Y-114073000D02*
X111987064Y-114073000D01*
%TO.C,U1*%
X116140000Y-114495000D02*
X114325000Y-114495000D01*
X120000000Y-114240000D02*
X116140000Y-114240000D01*
X116140000Y-124760000D02*
X116140000Y-124505000D01*
X123860000Y-124760000D02*
X123860000Y-124505000D01*
X116140000Y-114240000D02*
X116140000Y-114495000D01*
X120000000Y-124760000D02*
X116140000Y-124760000D01*
X123860000Y-114240000D02*
X123860000Y-114495000D01*
X120000000Y-124760000D02*
X123860000Y-124760000D01*
X120000000Y-114240000D02*
X123860000Y-114240000D01*
%TO.C,C1*%
X109481252Y-104535000D02*
X108958748Y-104535000D01*
X109481252Y-103065000D02*
X108958748Y-103065000D01*
%TO.C,J1*%
X102140000Y-117200000D02*
X100240000Y-117200000D01*
X106040000Y-117200000D02*
X104040000Y-117200000D01*
X100240000Y-107800000D02*
X100240000Y-117200000D01*
X102140000Y-107800000D02*
X100240000Y-107800000D01*
X106040000Y-107800000D02*
X104040000Y-107800000D01*
%TO.C,C2*%
X109481252Y-102235000D02*
X108958748Y-102235000D01*
X109481252Y-100765000D02*
X108958748Y-100765000D01*
%TO.C,Q2*%
X142138400Y-120360000D02*
X141488400Y-120360000D01*
X142138400Y-123480000D02*
X143813400Y-123480000D01*
X142138400Y-123480000D02*
X141488400Y-123480000D01*
X142138400Y-120360000D02*
X142788400Y-120360000D01*
%TO.C,D1*%
X130368000Y-108910000D02*
X130368000Y-106990000D01*
X130368000Y-106990000D02*
X127508000Y-106990000D01*
X127508000Y-108910000D02*
X130368000Y-108910000D01*
%TO.C,C5*%
X154083652Y-107723000D02*
X153561148Y-107723000D01*
X154083652Y-109193000D02*
X153561148Y-109193000D01*
%TO.C,J3*%
X162859200Y-119892000D02*
X181179200Y-119892000D01*
X162859200Y-118332000D02*
X181179200Y-118332000D01*
X162619200Y-118392000D02*
X162619200Y-120132000D01*
X162859200Y-112772000D02*
X181179200Y-112772000D01*
X162859200Y-112772000D02*
X162859200Y-119892000D01*
X181179200Y-112772000D02*
X181179200Y-119892000D01*
X162619200Y-120132000D02*
X164119200Y-120132000D01*
X165019200Y-117787000D02*
G75*
G03*
X165626787Y-117663385I0J1555000D01*
G01*
X165627200Y-114800000D02*
G75*
G03*
X164411458Y-114799891I-608000J-1432000D01*
G01*
X166451200Y-116840000D02*
G75*
G03*
X166451309Y-115624258I-1432003J607999D01*
G01*
X163587200Y-115624000D02*
G75*
G03*
X163587091Y-116839742I1432000J-608000D01*
G01*
X164411200Y-117664000D02*
G75*
G03*
X165046211Y-117787493I607998J1431988D01*
G01*
X173574200Y-116232000D02*
G75*
G03*
X173574200Y-116232000I-1555000J0D01*
G01*
X180574200Y-116232000D02*
G75*
G03*
X180574200Y-116232000I-1555000J0D01*
G01*
X177074200Y-116232000D02*
G75*
G03*
X177074200Y-116232000I-1555000J0D01*
G01*
X170074200Y-116232000D02*
G75*
G03*
X170074200Y-116232000I-1555000J0D01*
G01*
%TO.C,R9*%
X153087400Y-121692936D02*
X153087400Y-122147064D01*
X154557400Y-121692936D02*
X154557400Y-122147064D01*
%TO.C,U3*%
X141427200Y-106192000D02*
X143377200Y-106192000D01*
X141427200Y-106192000D02*
X137977200Y-106192000D01*
X141427200Y-116312000D02*
X139477200Y-116312000D01*
X141427200Y-116312000D02*
X143377200Y-116312000D01*
%TO.C,R2*%
X109447064Y-106807000D02*
X108992936Y-106807000D01*
X109447064Y-105337000D02*
X108992936Y-105337000D01*
%TO.C,J2*%
X181419200Y-105790000D02*
X181419200Y-104050000D01*
X181179200Y-111410000D02*
X181179200Y-104290000D01*
X181179200Y-111410000D02*
X162859200Y-111410000D01*
X181179200Y-105850000D02*
X162859200Y-105850000D01*
X162859200Y-111410000D02*
X162859200Y-104290000D01*
X181179200Y-104290000D02*
X162859200Y-104290000D01*
X181419200Y-104050000D02*
X179919200Y-104050000D01*
X177587200Y-107342000D02*
G75*
G03*
X177587091Y-108557742I1432003J-607999D01*
G01*
X179627200Y-106518000D02*
G75*
G03*
X178992189Y-106394507I-607998J-1431988D01*
G01*
X180451200Y-108558000D02*
G75*
G03*
X180451309Y-107342258I-1432000J608000D01*
G01*
X178411200Y-109382000D02*
G75*
G03*
X179626942Y-109382109I608000J1432000D01*
G01*
X179019200Y-106395000D02*
G75*
G03*
X178411613Y-106518615I0J-1555000D01*
G01*
X166574200Y-107950000D02*
G75*
G03*
X166574200Y-107950000I-1555000J0D01*
G01*
X170074200Y-107950000D02*
G75*
G03*
X170074200Y-107950000I-1555000J0D01*
G01*
X177074200Y-107950000D02*
G75*
G03*
X177074200Y-107950000I-1555000J0D01*
G01*
X173574200Y-107950000D02*
G75*
G03*
X173574200Y-107950000I-1555000J0D01*
G01*
%TO.C,RJ3*%
X146193200Y-102814200D02*
X146193200Y-105414200D01*
X146193200Y-105414200D02*
X148853200Y-105414200D01*
X146193200Y-100214200D02*
X147523200Y-100214200D01*
X146193200Y-102814200D02*
X148853200Y-102814200D01*
X146193200Y-101544200D02*
X146193200Y-100214200D01*
X148853200Y-102814200D02*
X148853200Y-105414200D01*
%TO.C,U2*%
X153344800Y-117405200D02*
X153344800Y-116145200D01*
X149584800Y-117405200D02*
X153344800Y-117405200D01*
X153344800Y-110585200D02*
X153344800Y-111845200D01*
X147334800Y-110585200D02*
X153344800Y-110585200D01*
%TO.C,RJ2*%
X153780800Y-102819200D02*
X153780800Y-105419200D01*
X151120800Y-101549200D02*
X151120800Y-100219200D01*
X151120800Y-102819200D02*
X151120800Y-105419200D01*
X151120800Y-102819200D02*
X153780800Y-102819200D01*
X151120800Y-105419200D02*
X153780800Y-105419200D01*
X151120800Y-100219200D02*
X152450800Y-100219200D01*
%TO.C,C3*%
X128262748Y-112275000D02*
X128785252Y-112275000D01*
X128262748Y-113745000D02*
X128785252Y-113745000D01*
%TO.C,C8*%
X133865252Y-121302000D02*
X133342748Y-121302000D01*
X133865252Y-122772000D02*
X133342748Y-122772000D01*
%TO.C,RJ1*%
X158759200Y-102865000D02*
X158759200Y-105465000D01*
X156099200Y-105465000D02*
X158759200Y-105465000D01*
X156099200Y-102865000D02*
X156099200Y-105465000D01*
X156099200Y-101595000D02*
X156099200Y-100265000D01*
X156099200Y-102865000D02*
X158759200Y-102865000D01*
X156099200Y-100265000D02*
X157429200Y-100265000D01*
%TO.C,R4*%
X112027064Y-121810000D02*
X111572936Y-121810000D01*
X112027064Y-123280000D02*
X111572936Y-123280000D01*
%TO.C,C7*%
X133865252Y-103742000D02*
X133342748Y-103742000D01*
X133865252Y-102272000D02*
X133342748Y-102272000D01*
%TO.C,PS1*%
X125500000Y-110175000D02*
X125500000Y-104225000D01*
X112000000Y-113300000D02*
X112000000Y-103225000D01*
%TO.C,R10*%
X144654600Y-121692936D02*
X144654600Y-122147064D01*
X146124600Y-121692936D02*
X146124600Y-122147064D01*
%TO.C,R11*%
X159792936Y-114165000D02*
X160247064Y-114165000D01*
X159792936Y-115635000D02*
X160247064Y-115635000D01*
%TO.C,C6*%
X149395548Y-107672200D02*
X149918052Y-107672200D01*
X149395548Y-109142200D02*
X149918052Y-109142200D01*
%TO.C,R8*%
X160247064Y-110335000D02*
X159792936Y-110335000D01*
X160247064Y-108865000D02*
X159792936Y-108865000D01*
%TO.C,D3*%
X159020000Y-118460000D02*
X161880000Y-118460000D01*
X161880000Y-116540000D02*
X159020000Y-116540000D01*
X161880000Y-118460000D02*
X161880000Y-116540000D01*
%TO.C,Q1*%
X150418800Y-120360000D02*
X151068800Y-120360000D01*
X150418800Y-123480000D02*
X149768800Y-123480000D01*
X150418800Y-123480000D02*
X152093800Y-123480000D01*
X150418800Y-120360000D02*
X149768800Y-120360000D01*
%TD*%
M02*
