%TF.GenerationSoftware,KiCad,Pcbnew,7.0.11+dfsg-1build4*%
%TF.CreationDate,2026-05-15T19:55:37-05:00*%
%TF.ProjectId,,58585858-5858-4585-9858-585858585858,rev?*%
%TF.SameCoordinates,Original*%
%TF.FileFunction,Legend,Bot*%
%TF.FilePolarity,Positive*%
%FSLAX46Y46*%
G04 Gerber Fmt 4.6, Leading zero omitted, Abs format (unit mm)*
G04 Created by KiCad (PCBNEW 7.0.11+dfsg-1build4) date 2026-05-15 19:55:37*
%MOMM*%
%LPD*%
G01*
G04 APERTURE LIST*
%ADD10C,0.100000*%
%ADD11C,0.400000*%
%ADD12C,0.300000*%
%ADD13C,0.375000*%
%TA.AperFunction,Profile*%
%ADD14C,0.050000*%
%TD*%
G04 APERTURE END LIST*
D10*
X160082068Y-101264942D02*
X160139211Y-101236371D01*
X160139211Y-101236371D02*
X160224925Y-101236371D01*
X160224925Y-101236371D02*
X160310639Y-101264942D01*
X160310639Y-101264942D02*
X160367782Y-101322085D01*
X160367782Y-101322085D02*
X160396353Y-101379228D01*
X160396353Y-101379228D02*
X160424925Y-101493514D01*
X160424925Y-101493514D02*
X160424925Y-101579228D01*
X160424925Y-101579228D02*
X160396353Y-101693514D01*
X160396353Y-101693514D02*
X160367782Y-101750657D01*
X160367782Y-101750657D02*
X160310639Y-101807800D01*
X160310639Y-101807800D02*
X160224925Y-101836371D01*
X160224925Y-101836371D02*
X160167782Y-101836371D01*
X160167782Y-101836371D02*
X160082068Y-101807800D01*
X160082068Y-101807800D02*
X160053496Y-101779228D01*
X160053496Y-101779228D02*
X160053496Y-101579228D01*
X160053496Y-101579228D02*
X160167782Y-101579228D01*
X159796353Y-101836371D02*
X159796353Y-101236371D01*
X159796353Y-101236371D02*
X159453496Y-101836371D01*
X159453496Y-101836371D02*
X159453496Y-101236371D01*
X159167782Y-101836371D02*
X159167782Y-101236371D01*
X159167782Y-101236371D02*
X159024925Y-101236371D01*
X159024925Y-101236371D02*
X158939211Y-101264942D01*
X158939211Y-101264942D02*
X158882068Y-101322085D01*
X158882068Y-101322085D02*
X158853497Y-101379228D01*
X158853497Y-101379228D02*
X158824925Y-101493514D01*
X158824925Y-101493514D02*
X158824925Y-101579228D01*
X158824925Y-101579228D02*
X158853497Y-101693514D01*
X158853497Y-101693514D02*
X158882068Y-101750657D01*
X158882068Y-101750657D02*
X158939211Y-101807800D01*
X158939211Y-101807800D02*
X159024925Y-101836371D01*
X159024925Y-101836371D02*
X159167782Y-101836371D01*
D11*
X80540652Y-118904438D02*
X80540652Y-116904438D01*
X80540652Y-116904438D02*
X79778747Y-116904438D01*
X79778747Y-116904438D02*
X79588271Y-116999676D01*
X79588271Y-116999676D02*
X79493033Y-117094914D01*
X79493033Y-117094914D02*
X79397795Y-117285390D01*
X79397795Y-117285390D02*
X79397795Y-117571104D01*
X79397795Y-117571104D02*
X79493033Y-117761580D01*
X79493033Y-117761580D02*
X79588271Y-117856819D01*
X79588271Y-117856819D02*
X79778747Y-117952057D01*
X79778747Y-117952057D02*
X80540652Y-117952057D01*
X78159700Y-116904438D02*
X77778747Y-116904438D01*
X77778747Y-116904438D02*
X77588271Y-116999676D01*
X77588271Y-116999676D02*
X77397795Y-117190152D01*
X77397795Y-117190152D02*
X77302557Y-117571104D01*
X77302557Y-117571104D02*
X77302557Y-118237771D01*
X77302557Y-118237771D02*
X77397795Y-118618723D01*
X77397795Y-118618723D02*
X77588271Y-118809200D01*
X77588271Y-118809200D02*
X77778747Y-118904438D01*
X77778747Y-118904438D02*
X78159700Y-118904438D01*
X78159700Y-118904438D02*
X78350176Y-118809200D01*
X78350176Y-118809200D02*
X78540652Y-118618723D01*
X78540652Y-118618723D02*
X78635890Y-118237771D01*
X78635890Y-118237771D02*
X78635890Y-117571104D01*
X78635890Y-117571104D02*
X78540652Y-117190152D01*
X78540652Y-117190152D02*
X78350176Y-116999676D01*
X78350176Y-116999676D02*
X78159700Y-116904438D01*
X76635890Y-116904438D02*
X76159700Y-118904438D01*
X76159700Y-118904438D02*
X75778747Y-117475866D01*
X75778747Y-117475866D02*
X75397795Y-118904438D01*
X75397795Y-118904438D02*
X74921605Y-116904438D01*
X74159700Y-117856819D02*
X73493033Y-117856819D01*
X73207319Y-118904438D02*
X74159700Y-118904438D01*
X74159700Y-118904438D02*
X74159700Y-116904438D01*
X74159700Y-116904438D02*
X73207319Y-116904438D01*
X71207319Y-118904438D02*
X71873986Y-117952057D01*
X72350176Y-118904438D02*
X72350176Y-116904438D01*
X72350176Y-116904438D02*
X71588271Y-116904438D01*
X71588271Y-116904438D02*
X71397795Y-116999676D01*
X71397795Y-116999676D02*
X71302557Y-117094914D01*
X71302557Y-117094914D02*
X71207319Y-117285390D01*
X71207319Y-117285390D02*
X71207319Y-117571104D01*
X71207319Y-117571104D02*
X71302557Y-117761580D01*
X71302557Y-117761580D02*
X71397795Y-117856819D01*
X71397795Y-117856819D02*
X71588271Y-117952057D01*
X71588271Y-117952057D02*
X72350176Y-117952057D01*
X80540652Y-122124438D02*
X80540652Y-120124438D01*
X79588271Y-122124438D02*
X79588271Y-120124438D01*
X79588271Y-120124438D02*
X78445414Y-122124438D01*
X78445414Y-122124438D02*
X78445414Y-120124438D01*
X77493033Y-122124438D02*
X77493033Y-120124438D01*
X77493033Y-120124438D02*
X76731128Y-120124438D01*
X76731128Y-120124438D02*
X76540652Y-120219676D01*
X76540652Y-120219676D02*
X76445414Y-120314914D01*
X76445414Y-120314914D02*
X76350176Y-120505390D01*
X76350176Y-120505390D02*
X76350176Y-120791104D01*
X76350176Y-120791104D02*
X76445414Y-120981580D01*
X76445414Y-120981580D02*
X76540652Y-121076819D01*
X76540652Y-121076819D02*
X76731128Y-121172057D01*
X76731128Y-121172057D02*
X77493033Y-121172057D01*
X75493033Y-120124438D02*
X75493033Y-121743485D01*
X75493033Y-121743485D02*
X75397795Y-121933961D01*
X75397795Y-121933961D02*
X75302557Y-122029200D01*
X75302557Y-122029200D02*
X75112081Y-122124438D01*
X75112081Y-122124438D02*
X74731128Y-122124438D01*
X74731128Y-122124438D02*
X74540652Y-122029200D01*
X74540652Y-122029200D02*
X74445414Y-121933961D01*
X74445414Y-121933961D02*
X74350176Y-121743485D01*
X74350176Y-121743485D02*
X74350176Y-120124438D01*
X73683509Y-120124438D02*
X72540652Y-120124438D01*
X73112081Y-122124438D02*
X73112081Y-120124438D01*
D10*
X160082068Y-87449942D02*
X160139211Y-87421371D01*
X160139211Y-87421371D02*
X160224925Y-87421371D01*
X160224925Y-87421371D02*
X160310639Y-87449942D01*
X160310639Y-87449942D02*
X160367782Y-87507085D01*
X160367782Y-87507085D02*
X160396353Y-87564228D01*
X160396353Y-87564228D02*
X160424925Y-87678514D01*
X160424925Y-87678514D02*
X160424925Y-87764228D01*
X160424925Y-87764228D02*
X160396353Y-87878514D01*
X160396353Y-87878514D02*
X160367782Y-87935657D01*
X160367782Y-87935657D02*
X160310639Y-87992800D01*
X160310639Y-87992800D02*
X160224925Y-88021371D01*
X160224925Y-88021371D02*
X160167782Y-88021371D01*
X160167782Y-88021371D02*
X160082068Y-87992800D01*
X160082068Y-87992800D02*
X160053496Y-87964228D01*
X160053496Y-87964228D02*
X160053496Y-87764228D01*
X160053496Y-87764228D02*
X160167782Y-87764228D01*
X159796353Y-88021371D02*
X159796353Y-87421371D01*
X159796353Y-87421371D02*
X159453496Y-88021371D01*
X159453496Y-88021371D02*
X159453496Y-87421371D01*
X159167782Y-88021371D02*
X159167782Y-87421371D01*
X159167782Y-87421371D02*
X159024925Y-87421371D01*
X159024925Y-87421371D02*
X158939211Y-87449942D01*
X158939211Y-87449942D02*
X158882068Y-87507085D01*
X158882068Y-87507085D02*
X158853497Y-87564228D01*
X158853497Y-87564228D02*
X158824925Y-87678514D01*
X158824925Y-87678514D02*
X158824925Y-87764228D01*
X158824925Y-87764228D02*
X158853497Y-87878514D01*
X158853497Y-87878514D02*
X158882068Y-87935657D01*
X158882068Y-87935657D02*
X158939211Y-87992800D01*
X158939211Y-87992800D02*
X159024925Y-88021371D01*
X159024925Y-88021371D02*
X159167782Y-88021371D01*
D12*
X165180489Y-124095828D02*
X165180489Y-122595828D01*
X165180489Y-123310114D02*
X164323346Y-123310114D01*
X164323346Y-124095828D02*
X164323346Y-122595828D01*
X163609060Y-124095828D02*
X163609060Y-122595828D01*
X162180488Y-124095828D02*
X162894774Y-124095828D01*
X162894774Y-124095828D02*
X162894774Y-122595828D01*
X161680488Y-123524400D02*
X160537631Y-123524400D01*
X159537630Y-122595828D02*
X159394773Y-122595828D01*
X159394773Y-122595828D02*
X159251916Y-122667257D01*
X159251916Y-122667257D02*
X159180488Y-122738685D01*
X159180488Y-122738685D02*
X159109059Y-122881542D01*
X159109059Y-122881542D02*
X159037630Y-123167257D01*
X159037630Y-123167257D02*
X159037630Y-123524400D01*
X159037630Y-123524400D02*
X159109059Y-123810114D01*
X159109059Y-123810114D02*
X159180488Y-123952971D01*
X159180488Y-123952971D02*
X159251916Y-124024400D01*
X159251916Y-124024400D02*
X159394773Y-124095828D01*
X159394773Y-124095828D02*
X159537630Y-124095828D01*
X159537630Y-124095828D02*
X159680488Y-124024400D01*
X159680488Y-124024400D02*
X159751916Y-123952971D01*
X159751916Y-123952971D02*
X159823345Y-123810114D01*
X159823345Y-123810114D02*
X159894773Y-123524400D01*
X159894773Y-123524400D02*
X159894773Y-123167257D01*
X159894773Y-123167257D02*
X159823345Y-122881542D01*
X159823345Y-122881542D02*
X159751916Y-122738685D01*
X159751916Y-122738685D02*
X159680488Y-122667257D01*
X159680488Y-122667257D02*
X159537630Y-122595828D01*
X157751917Y-122595828D02*
X158037631Y-122595828D01*
X158037631Y-122595828D02*
X158180488Y-122667257D01*
X158180488Y-122667257D02*
X158251917Y-122738685D01*
X158251917Y-122738685D02*
X158394774Y-122952971D01*
X158394774Y-122952971D02*
X158466202Y-123238685D01*
X158466202Y-123238685D02*
X158466202Y-123810114D01*
X158466202Y-123810114D02*
X158394774Y-123952971D01*
X158394774Y-123952971D02*
X158323345Y-124024400D01*
X158323345Y-124024400D02*
X158180488Y-124095828D01*
X158180488Y-124095828D02*
X157894774Y-124095828D01*
X157894774Y-124095828D02*
X157751917Y-124024400D01*
X157751917Y-124024400D02*
X157680488Y-123952971D01*
X157680488Y-123952971D02*
X157609059Y-123810114D01*
X157609059Y-123810114D02*
X157609059Y-123452971D01*
X157609059Y-123452971D02*
X157680488Y-123310114D01*
X157680488Y-123310114D02*
X157751917Y-123238685D01*
X157751917Y-123238685D02*
X157894774Y-123167257D01*
X157894774Y-123167257D02*
X158180488Y-123167257D01*
X158180488Y-123167257D02*
X158323345Y-123238685D01*
X158323345Y-123238685D02*
X158394774Y-123310114D01*
X158394774Y-123310114D02*
X158466202Y-123452971D01*
D10*
X160082068Y-84274942D02*
X160139211Y-84246371D01*
X160139211Y-84246371D02*
X160224925Y-84246371D01*
X160224925Y-84246371D02*
X160310639Y-84274942D01*
X160310639Y-84274942D02*
X160367782Y-84332085D01*
X160367782Y-84332085D02*
X160396353Y-84389228D01*
X160396353Y-84389228D02*
X160424925Y-84503514D01*
X160424925Y-84503514D02*
X160424925Y-84589228D01*
X160424925Y-84589228D02*
X160396353Y-84703514D01*
X160396353Y-84703514D02*
X160367782Y-84760657D01*
X160367782Y-84760657D02*
X160310639Y-84817800D01*
X160310639Y-84817800D02*
X160224925Y-84846371D01*
X160224925Y-84846371D02*
X160167782Y-84846371D01*
X160167782Y-84846371D02*
X160082068Y-84817800D01*
X160082068Y-84817800D02*
X160053496Y-84789228D01*
X160053496Y-84789228D02*
X160053496Y-84589228D01*
X160053496Y-84589228D02*
X160167782Y-84589228D01*
X159796353Y-84846371D02*
X159796353Y-84246371D01*
X159796353Y-84246371D02*
X159453496Y-84846371D01*
X159453496Y-84846371D02*
X159453496Y-84246371D01*
X159167782Y-84846371D02*
X159167782Y-84246371D01*
X159167782Y-84246371D02*
X159024925Y-84246371D01*
X159024925Y-84246371D02*
X158939211Y-84274942D01*
X158939211Y-84274942D02*
X158882068Y-84332085D01*
X158882068Y-84332085D02*
X158853497Y-84389228D01*
X158853497Y-84389228D02*
X158824925Y-84503514D01*
X158824925Y-84503514D02*
X158824925Y-84589228D01*
X158824925Y-84589228D02*
X158853497Y-84703514D01*
X158853497Y-84703514D02*
X158882068Y-84760657D01*
X158882068Y-84760657D02*
X158939211Y-84817800D01*
X158939211Y-84817800D02*
X159024925Y-84846371D01*
X159024925Y-84846371D02*
X159167782Y-84846371D01*
X159176353Y-100086371D02*
X159176353Y-99486371D01*
X159176353Y-99486371D02*
X159033496Y-99486371D01*
X159033496Y-99486371D02*
X158947782Y-99514942D01*
X158947782Y-99514942D02*
X158890639Y-99572085D01*
X158890639Y-99572085D02*
X158862068Y-99629228D01*
X158862068Y-99629228D02*
X158833496Y-99743514D01*
X158833496Y-99743514D02*
X158833496Y-99829228D01*
X158833496Y-99829228D02*
X158862068Y-99943514D01*
X158862068Y-99943514D02*
X158890639Y-100000657D01*
X158890639Y-100000657D02*
X158947782Y-100057800D01*
X158947782Y-100057800D02*
X159033496Y-100086371D01*
X159033496Y-100086371D02*
X159176353Y-100086371D01*
X158576353Y-99772085D02*
X158376353Y-99772085D01*
X158290639Y-100086371D02*
X158576353Y-100086371D01*
X158576353Y-100086371D02*
X158576353Y-99486371D01*
X158576353Y-99486371D02*
X158290639Y-99486371D01*
X157833496Y-99772085D02*
X158033496Y-99772085D01*
X158033496Y-100086371D02*
X158033496Y-99486371D01*
X158033496Y-99486371D02*
X157747782Y-99486371D01*
X157547782Y-99914942D02*
X157262068Y-99914942D01*
X157604925Y-100086371D02*
X157404925Y-99486371D01*
X157404925Y-99486371D02*
X157204925Y-100086371D01*
X157004924Y-99486371D02*
X157004924Y-99972085D01*
X157004924Y-99972085D02*
X156976353Y-100029228D01*
X156976353Y-100029228D02*
X156947782Y-100057800D01*
X156947782Y-100057800D02*
X156890639Y-100086371D01*
X156890639Y-100086371D02*
X156776353Y-100086371D01*
X156776353Y-100086371D02*
X156719210Y-100057800D01*
X156719210Y-100057800D02*
X156690639Y-100029228D01*
X156690639Y-100029228D02*
X156662067Y-99972085D01*
X156662067Y-99972085D02*
X156662067Y-99486371D01*
X156090639Y-100086371D02*
X156376353Y-100086371D01*
X156376353Y-100086371D02*
X156376353Y-99486371D01*
X155976354Y-99486371D02*
X155633497Y-99486371D01*
X155804925Y-100086371D02*
X155804925Y-99486371D01*
X155576354Y-100143514D02*
X155119211Y-100143514D01*
X155004925Y-100057800D02*
X154919211Y-100086371D01*
X154919211Y-100086371D02*
X154776353Y-100086371D01*
X154776353Y-100086371D02*
X154719211Y-100057800D01*
X154719211Y-100057800D02*
X154690639Y-100029228D01*
X154690639Y-100029228D02*
X154662068Y-99972085D01*
X154662068Y-99972085D02*
X154662068Y-99914942D01*
X154662068Y-99914942D02*
X154690639Y-99857800D01*
X154690639Y-99857800D02*
X154719211Y-99829228D01*
X154719211Y-99829228D02*
X154776353Y-99800657D01*
X154776353Y-99800657D02*
X154890639Y-99772085D01*
X154890639Y-99772085D02*
X154947782Y-99743514D01*
X154947782Y-99743514D02*
X154976353Y-99714942D01*
X154976353Y-99714942D02*
X155004925Y-99657800D01*
X155004925Y-99657800D02*
X155004925Y-99600657D01*
X155004925Y-99600657D02*
X154976353Y-99543514D01*
X154976353Y-99543514D02*
X154947782Y-99514942D01*
X154947782Y-99514942D02*
X154890639Y-99486371D01*
X154890639Y-99486371D02*
X154747782Y-99486371D01*
X154747782Y-99486371D02*
X154662068Y-99514942D01*
X154462067Y-99486371D02*
X154319210Y-100086371D01*
X154319210Y-100086371D02*
X154204924Y-99657800D01*
X154204924Y-99657800D02*
X154090639Y-100086371D01*
X154090639Y-100086371D02*
X153947782Y-99486371D01*
X157856353Y-107086371D02*
X157856353Y-106486371D01*
X157856353Y-106486371D02*
X157713496Y-106486371D01*
X157713496Y-106486371D02*
X157627782Y-106514942D01*
X157627782Y-106514942D02*
X157570639Y-106572085D01*
X157570639Y-106572085D02*
X157542068Y-106629228D01*
X157542068Y-106629228D02*
X157513496Y-106743514D01*
X157513496Y-106743514D02*
X157513496Y-106829228D01*
X157513496Y-106829228D02*
X157542068Y-106943514D01*
X157542068Y-106943514D02*
X157570639Y-107000657D01*
X157570639Y-107000657D02*
X157627782Y-107057800D01*
X157627782Y-107057800D02*
X157713496Y-107086371D01*
X157713496Y-107086371D02*
X157856353Y-107086371D01*
X157256353Y-107086371D02*
X157256353Y-106486371D01*
X156999211Y-107057800D02*
X156913497Y-107086371D01*
X156913497Y-107086371D02*
X156770639Y-107086371D01*
X156770639Y-107086371D02*
X156713497Y-107057800D01*
X156713497Y-107057800D02*
X156684925Y-107029228D01*
X156684925Y-107029228D02*
X156656354Y-106972085D01*
X156656354Y-106972085D02*
X156656354Y-106914942D01*
X156656354Y-106914942D02*
X156684925Y-106857800D01*
X156684925Y-106857800D02*
X156713497Y-106829228D01*
X156713497Y-106829228D02*
X156770639Y-106800657D01*
X156770639Y-106800657D02*
X156884925Y-106772085D01*
X156884925Y-106772085D02*
X156942068Y-106743514D01*
X156942068Y-106743514D02*
X156970639Y-106714942D01*
X156970639Y-106714942D02*
X156999211Y-106657800D01*
X156999211Y-106657800D02*
X156999211Y-106600657D01*
X156999211Y-106600657D02*
X156970639Y-106543514D01*
X156970639Y-106543514D02*
X156942068Y-106514942D01*
X156942068Y-106514942D02*
X156884925Y-106486371D01*
X156884925Y-106486371D02*
X156742068Y-106486371D01*
X156742068Y-106486371D02*
X156656354Y-106514942D01*
X156399210Y-107086371D02*
X156399210Y-106486371D01*
X156399210Y-106486371D02*
X156170639Y-106486371D01*
X156170639Y-106486371D02*
X156113496Y-106514942D01*
X156113496Y-106514942D02*
X156084925Y-106543514D01*
X156084925Y-106543514D02*
X156056353Y-106600657D01*
X156056353Y-106600657D02*
X156056353Y-106686371D01*
X156056353Y-106686371D02*
X156084925Y-106743514D01*
X156084925Y-106743514D02*
X156113496Y-106772085D01*
X156113496Y-106772085D02*
X156170639Y-106800657D01*
X156170639Y-106800657D02*
X156399210Y-106800657D01*
X155942068Y-107143514D02*
X155484925Y-107143514D01*
X155370639Y-107057800D02*
X155284925Y-107086371D01*
X155284925Y-107086371D02*
X155142067Y-107086371D01*
X155142067Y-107086371D02*
X155084925Y-107057800D01*
X155084925Y-107057800D02*
X155056353Y-107029228D01*
X155056353Y-107029228D02*
X155027782Y-106972085D01*
X155027782Y-106972085D02*
X155027782Y-106914942D01*
X155027782Y-106914942D02*
X155056353Y-106857800D01*
X155056353Y-106857800D02*
X155084925Y-106829228D01*
X155084925Y-106829228D02*
X155142067Y-106800657D01*
X155142067Y-106800657D02*
X155256353Y-106772085D01*
X155256353Y-106772085D02*
X155313496Y-106743514D01*
X155313496Y-106743514D02*
X155342067Y-106714942D01*
X155342067Y-106714942D02*
X155370639Y-106657800D01*
X155370639Y-106657800D02*
X155370639Y-106600657D01*
X155370639Y-106600657D02*
X155342067Y-106543514D01*
X155342067Y-106543514D02*
X155313496Y-106514942D01*
X155313496Y-106514942D02*
X155256353Y-106486371D01*
X155256353Y-106486371D02*
X155113496Y-106486371D01*
X155113496Y-106486371D02*
X155027782Y-106514942D01*
X154427781Y-107029228D02*
X154456353Y-107057800D01*
X154456353Y-107057800D02*
X154542067Y-107086371D01*
X154542067Y-107086371D02*
X154599210Y-107086371D01*
X154599210Y-107086371D02*
X154684924Y-107057800D01*
X154684924Y-107057800D02*
X154742067Y-107000657D01*
X154742067Y-107000657D02*
X154770638Y-106943514D01*
X154770638Y-106943514D02*
X154799210Y-106829228D01*
X154799210Y-106829228D02*
X154799210Y-106743514D01*
X154799210Y-106743514D02*
X154770638Y-106629228D01*
X154770638Y-106629228D02*
X154742067Y-106572085D01*
X154742067Y-106572085D02*
X154684924Y-106514942D01*
X154684924Y-106514942D02*
X154599210Y-106486371D01*
X154599210Y-106486371D02*
X154542067Y-106486371D01*
X154542067Y-106486371D02*
X154456353Y-106514942D01*
X154456353Y-106514942D02*
X154427781Y-106543514D01*
X153884924Y-107086371D02*
X154170638Y-107086371D01*
X154170638Y-107086371D02*
X154170638Y-106486371D01*
X159562068Y-85516371D02*
X159447782Y-85516371D01*
X159447782Y-85516371D02*
X159390639Y-85544942D01*
X159390639Y-85544942D02*
X159333496Y-85602085D01*
X159333496Y-85602085D02*
X159304925Y-85716371D01*
X159304925Y-85716371D02*
X159304925Y-85916371D01*
X159304925Y-85916371D02*
X159333496Y-86030657D01*
X159333496Y-86030657D02*
X159390639Y-86087800D01*
X159390639Y-86087800D02*
X159447782Y-86116371D01*
X159447782Y-86116371D02*
X159562068Y-86116371D01*
X159562068Y-86116371D02*
X159619211Y-86087800D01*
X159619211Y-86087800D02*
X159676353Y-86030657D01*
X159676353Y-86030657D02*
X159704925Y-85916371D01*
X159704925Y-85916371D02*
X159704925Y-85716371D01*
X159704925Y-85716371D02*
X159676353Y-85602085D01*
X159676353Y-85602085D02*
X159619211Y-85544942D01*
X159619211Y-85544942D02*
X159562068Y-85516371D01*
X159047782Y-85516371D02*
X159047782Y-86002085D01*
X159047782Y-86002085D02*
X159019211Y-86059228D01*
X159019211Y-86059228D02*
X158990640Y-86087800D01*
X158990640Y-86087800D02*
X158933497Y-86116371D01*
X158933497Y-86116371D02*
X158819211Y-86116371D01*
X158819211Y-86116371D02*
X158762068Y-86087800D01*
X158762068Y-86087800D02*
X158733497Y-86059228D01*
X158733497Y-86059228D02*
X158704925Y-86002085D01*
X158704925Y-86002085D02*
X158704925Y-85516371D01*
X158504926Y-85516371D02*
X158162069Y-85516371D01*
X158333497Y-86116371D02*
X158333497Y-85516371D01*
X158104926Y-86173514D02*
X157647783Y-86173514D01*
X157504925Y-86116371D02*
X157504925Y-85516371D01*
X157504925Y-85516371D02*
X157276354Y-85516371D01*
X157276354Y-85516371D02*
X157219211Y-85544942D01*
X157219211Y-85544942D02*
X157190640Y-85573514D01*
X157190640Y-85573514D02*
X157162068Y-85630657D01*
X157162068Y-85630657D02*
X157162068Y-85716371D01*
X157162068Y-85716371D02*
X157190640Y-85773514D01*
X157190640Y-85773514D02*
X157219211Y-85802085D01*
X157219211Y-85802085D02*
X157276354Y-85830657D01*
X157276354Y-85830657D02*
X157504925Y-85830657D01*
X156962068Y-85516371D02*
X156819211Y-86116371D01*
X156819211Y-86116371D02*
X156704925Y-85687800D01*
X156704925Y-85687800D02*
X156590640Y-86116371D01*
X156590640Y-86116371D02*
X156447783Y-85516371D01*
X156362069Y-86173514D02*
X155904926Y-86173514D01*
X155476354Y-86116371D02*
X155762068Y-86116371D01*
X155762068Y-86116371D02*
X155762068Y-85516371D01*
X155276354Y-85802085D02*
X155076354Y-85802085D01*
X154990640Y-86116371D02*
X155276354Y-86116371D01*
X155276354Y-86116371D02*
X155276354Y-85516371D01*
X155276354Y-85516371D02*
X154990640Y-85516371D01*
X154733497Y-86116371D02*
X154733497Y-85516371D01*
X154733497Y-85516371D02*
X154590640Y-85516371D01*
X154590640Y-85516371D02*
X154504926Y-85544942D01*
X154504926Y-85544942D02*
X154447783Y-85602085D01*
X154447783Y-85602085D02*
X154419212Y-85659228D01*
X154419212Y-85659228D02*
X154390640Y-85773514D01*
X154390640Y-85773514D02*
X154390640Y-85859228D01*
X154390640Y-85859228D02*
X154419212Y-85973514D01*
X154419212Y-85973514D02*
X154447783Y-86030657D01*
X154447783Y-86030657D02*
X154504926Y-86087800D01*
X154504926Y-86087800D02*
X154590640Y-86116371D01*
X154590640Y-86116371D02*
X154733497Y-86116371D01*
X154190640Y-85516371D02*
X153819212Y-85516371D01*
X153819212Y-85516371D02*
X154019212Y-85744942D01*
X154019212Y-85744942D02*
X153933497Y-85744942D01*
X153933497Y-85744942D02*
X153876355Y-85773514D01*
X153876355Y-85773514D02*
X153847783Y-85802085D01*
X153847783Y-85802085D02*
X153819212Y-85859228D01*
X153819212Y-85859228D02*
X153819212Y-86002085D01*
X153819212Y-86002085D02*
X153847783Y-86059228D01*
X153847783Y-86059228D02*
X153876355Y-86087800D01*
X153876355Y-86087800D02*
X153933497Y-86116371D01*
X153933497Y-86116371D02*
X154104926Y-86116371D01*
X154104926Y-86116371D02*
X154162069Y-86087800D01*
X154162069Y-86087800D02*
X154190640Y-86059228D01*
D13*
X77850432Y-96556928D02*
X77564718Y-96556928D01*
X77564718Y-96556928D02*
X77421861Y-96628357D01*
X77421861Y-96628357D02*
X77279004Y-96771214D01*
X77279004Y-96771214D02*
X77207575Y-97056928D01*
X77207575Y-97056928D02*
X77207575Y-97556928D01*
X77207575Y-97556928D02*
X77279004Y-97842642D01*
X77279004Y-97842642D02*
X77421861Y-97985500D01*
X77421861Y-97985500D02*
X77564718Y-98056928D01*
X77564718Y-98056928D02*
X77850432Y-98056928D01*
X77850432Y-98056928D02*
X77993290Y-97985500D01*
X77993290Y-97985500D02*
X78136147Y-97842642D01*
X78136147Y-97842642D02*
X78207575Y-97556928D01*
X78207575Y-97556928D02*
X78207575Y-97056928D01*
X78207575Y-97056928D02*
X78136147Y-96771214D01*
X78136147Y-96771214D02*
X77993290Y-96628357D01*
X77993290Y-96628357D02*
X77850432Y-96556928D01*
X76564718Y-96556928D02*
X76564718Y-97771214D01*
X76564718Y-97771214D02*
X76493289Y-97914071D01*
X76493289Y-97914071D02*
X76421861Y-97985500D01*
X76421861Y-97985500D02*
X76279003Y-98056928D01*
X76279003Y-98056928D02*
X75993289Y-98056928D01*
X75993289Y-98056928D02*
X75850432Y-97985500D01*
X75850432Y-97985500D02*
X75779003Y-97914071D01*
X75779003Y-97914071D02*
X75707575Y-97771214D01*
X75707575Y-97771214D02*
X75707575Y-96556928D01*
X75207574Y-96556928D02*
X74350432Y-96556928D01*
X74779003Y-98056928D02*
X74779003Y-96556928D01*
X72779003Y-96699785D02*
X72707575Y-96628357D01*
X72707575Y-96628357D02*
X72564718Y-96556928D01*
X72564718Y-96556928D02*
X72207575Y-96556928D01*
X72207575Y-96556928D02*
X72064718Y-96628357D01*
X72064718Y-96628357D02*
X71993289Y-96699785D01*
X71993289Y-96699785D02*
X71921860Y-96842642D01*
X71921860Y-96842642D02*
X71921860Y-96985500D01*
X71921860Y-96985500D02*
X71993289Y-97199785D01*
X71993289Y-97199785D02*
X72850432Y-98056928D01*
X72850432Y-98056928D02*
X71921860Y-98056928D01*
D10*
X160482068Y-94236371D02*
X160282068Y-94836371D01*
X160282068Y-94836371D02*
X160082068Y-94236371D01*
X159539210Y-94779228D02*
X159567782Y-94807800D01*
X159567782Y-94807800D02*
X159653496Y-94836371D01*
X159653496Y-94836371D02*
X159710639Y-94836371D01*
X159710639Y-94836371D02*
X159796353Y-94807800D01*
X159796353Y-94807800D02*
X159853496Y-94750657D01*
X159853496Y-94750657D02*
X159882067Y-94693514D01*
X159882067Y-94693514D02*
X159910639Y-94579228D01*
X159910639Y-94579228D02*
X159910639Y-94493514D01*
X159910639Y-94493514D02*
X159882067Y-94379228D01*
X159882067Y-94379228D02*
X159853496Y-94322085D01*
X159853496Y-94322085D02*
X159796353Y-94264942D01*
X159796353Y-94264942D02*
X159710639Y-94236371D01*
X159710639Y-94236371D02*
X159653496Y-94236371D01*
X159653496Y-94236371D02*
X159567782Y-94264942D01*
X159567782Y-94264942D02*
X159539210Y-94293514D01*
X158939210Y-94779228D02*
X158967782Y-94807800D01*
X158967782Y-94807800D02*
X159053496Y-94836371D01*
X159053496Y-94836371D02*
X159110639Y-94836371D01*
X159110639Y-94836371D02*
X159196353Y-94807800D01*
X159196353Y-94807800D02*
X159253496Y-94750657D01*
X159253496Y-94750657D02*
X159282067Y-94693514D01*
X159282067Y-94693514D02*
X159310639Y-94579228D01*
X159310639Y-94579228D02*
X159310639Y-94493514D01*
X159310639Y-94493514D02*
X159282067Y-94379228D01*
X159282067Y-94379228D02*
X159253496Y-94322085D01*
X159253496Y-94322085D02*
X159196353Y-94264942D01*
X159196353Y-94264942D02*
X159110639Y-94236371D01*
X159110639Y-94236371D02*
X159053496Y-94236371D01*
X159053496Y-94236371D02*
X158967782Y-94264942D01*
X158967782Y-94264942D02*
X158939210Y-94293514D01*
X159562068Y-92501371D02*
X159447782Y-92501371D01*
X159447782Y-92501371D02*
X159390639Y-92529942D01*
X159390639Y-92529942D02*
X159333496Y-92587085D01*
X159333496Y-92587085D02*
X159304925Y-92701371D01*
X159304925Y-92701371D02*
X159304925Y-92901371D01*
X159304925Y-92901371D02*
X159333496Y-93015657D01*
X159333496Y-93015657D02*
X159390639Y-93072800D01*
X159390639Y-93072800D02*
X159447782Y-93101371D01*
X159447782Y-93101371D02*
X159562068Y-93101371D01*
X159562068Y-93101371D02*
X159619211Y-93072800D01*
X159619211Y-93072800D02*
X159676353Y-93015657D01*
X159676353Y-93015657D02*
X159704925Y-92901371D01*
X159704925Y-92901371D02*
X159704925Y-92701371D01*
X159704925Y-92701371D02*
X159676353Y-92587085D01*
X159676353Y-92587085D02*
X159619211Y-92529942D01*
X159619211Y-92529942D02*
X159562068Y-92501371D01*
X159047782Y-92501371D02*
X159047782Y-92987085D01*
X159047782Y-92987085D02*
X159019211Y-93044228D01*
X159019211Y-93044228D02*
X158990640Y-93072800D01*
X158990640Y-93072800D02*
X158933497Y-93101371D01*
X158933497Y-93101371D02*
X158819211Y-93101371D01*
X158819211Y-93101371D02*
X158762068Y-93072800D01*
X158762068Y-93072800D02*
X158733497Y-93044228D01*
X158733497Y-93044228D02*
X158704925Y-92987085D01*
X158704925Y-92987085D02*
X158704925Y-92501371D01*
X158504926Y-92501371D02*
X158162069Y-92501371D01*
X158333497Y-93101371D02*
X158333497Y-92501371D01*
X158104926Y-93158514D02*
X157647783Y-93158514D01*
X157504925Y-93101371D02*
X157504925Y-92501371D01*
X157504925Y-92501371D02*
X157276354Y-92501371D01*
X157276354Y-92501371D02*
X157219211Y-92529942D01*
X157219211Y-92529942D02*
X157190640Y-92558514D01*
X157190640Y-92558514D02*
X157162068Y-92615657D01*
X157162068Y-92615657D02*
X157162068Y-92701371D01*
X157162068Y-92701371D02*
X157190640Y-92758514D01*
X157190640Y-92758514D02*
X157219211Y-92787085D01*
X157219211Y-92787085D02*
X157276354Y-92815657D01*
X157276354Y-92815657D02*
X157504925Y-92815657D01*
X156962068Y-92501371D02*
X156819211Y-93101371D01*
X156819211Y-93101371D02*
X156704925Y-92672800D01*
X156704925Y-92672800D02*
X156590640Y-93101371D01*
X156590640Y-93101371D02*
X156447783Y-92501371D01*
X156362069Y-93158514D02*
X155904926Y-93158514D01*
X155476354Y-93101371D02*
X155762068Y-93101371D01*
X155762068Y-93101371D02*
X155762068Y-92501371D01*
X155276354Y-92787085D02*
X155076354Y-92787085D01*
X154990640Y-93101371D02*
X155276354Y-93101371D01*
X155276354Y-93101371D02*
X155276354Y-92501371D01*
X155276354Y-92501371D02*
X154990640Y-92501371D01*
X154733497Y-93101371D02*
X154733497Y-92501371D01*
X154733497Y-92501371D02*
X154590640Y-92501371D01*
X154590640Y-92501371D02*
X154504926Y-92529942D01*
X154504926Y-92529942D02*
X154447783Y-92587085D01*
X154447783Y-92587085D02*
X154419212Y-92644228D01*
X154419212Y-92644228D02*
X154390640Y-92758514D01*
X154390640Y-92758514D02*
X154390640Y-92844228D01*
X154390640Y-92844228D02*
X154419212Y-92958514D01*
X154419212Y-92958514D02*
X154447783Y-93015657D01*
X154447783Y-93015657D02*
X154504926Y-93072800D01*
X154504926Y-93072800D02*
X154590640Y-93101371D01*
X154590640Y-93101371D02*
X154733497Y-93101371D01*
X153819212Y-93101371D02*
X154162069Y-93101371D01*
X153990640Y-93101371D02*
X153990640Y-92501371D01*
X153990640Y-92501371D02*
X154047783Y-92587085D01*
X154047783Y-92587085D02*
X154104926Y-92644228D01*
X154104926Y-92644228D02*
X154162069Y-92672800D01*
X159676353Y-96272085D02*
X159476353Y-96272085D01*
X159390639Y-96586371D02*
X159676353Y-96586371D01*
X159676353Y-96586371D02*
X159676353Y-95986371D01*
X159676353Y-95986371D02*
X159390639Y-95986371D01*
X158790639Y-96586371D02*
X158990639Y-96300657D01*
X159133496Y-96586371D02*
X159133496Y-95986371D01*
X159133496Y-95986371D02*
X158904925Y-95986371D01*
X158904925Y-95986371D02*
X158847782Y-96014942D01*
X158847782Y-96014942D02*
X158819211Y-96043514D01*
X158819211Y-96043514D02*
X158790639Y-96100657D01*
X158790639Y-96100657D02*
X158790639Y-96186371D01*
X158790639Y-96186371D02*
X158819211Y-96243514D01*
X158819211Y-96243514D02*
X158847782Y-96272085D01*
X158847782Y-96272085D02*
X158904925Y-96300657D01*
X158904925Y-96300657D02*
X159133496Y-96300657D01*
X158190639Y-96586371D02*
X158390639Y-96300657D01*
X158533496Y-96586371D02*
X158533496Y-95986371D01*
X158533496Y-95986371D02*
X158304925Y-95986371D01*
X158304925Y-95986371D02*
X158247782Y-96014942D01*
X158247782Y-96014942D02*
X158219211Y-96043514D01*
X158219211Y-96043514D02*
X158190639Y-96100657D01*
X158190639Y-96100657D02*
X158190639Y-96186371D01*
X158190639Y-96186371D02*
X158219211Y-96243514D01*
X158219211Y-96243514D02*
X158247782Y-96272085D01*
X158247782Y-96272085D02*
X158304925Y-96300657D01*
X158304925Y-96300657D02*
X158533496Y-96300657D01*
X158076354Y-96643514D02*
X157619211Y-96643514D01*
X157190639Y-96586371D02*
X157476353Y-96586371D01*
X157476353Y-96586371D02*
X157476353Y-95986371D01*
X156990639Y-96272085D02*
X156790639Y-96272085D01*
X156704925Y-96586371D02*
X156990639Y-96586371D01*
X156990639Y-96586371D02*
X156990639Y-95986371D01*
X156990639Y-95986371D02*
X156704925Y-95986371D01*
X156447782Y-96586371D02*
X156447782Y-95986371D01*
X156447782Y-95986371D02*
X156304925Y-95986371D01*
X156304925Y-95986371D02*
X156219211Y-96014942D01*
X156219211Y-96014942D02*
X156162068Y-96072085D01*
X156162068Y-96072085D02*
X156133497Y-96129228D01*
X156133497Y-96129228D02*
X156104925Y-96243514D01*
X156104925Y-96243514D02*
X156104925Y-96329228D01*
X156104925Y-96329228D02*
X156133497Y-96443514D01*
X156133497Y-96443514D02*
X156162068Y-96500657D01*
X156162068Y-96500657D02*
X156219211Y-96557800D01*
X156219211Y-96557800D02*
X156304925Y-96586371D01*
X156304925Y-96586371D02*
X156447782Y-96586371D01*
X155990640Y-96643514D02*
X155533497Y-96643514D01*
X155390639Y-96272085D02*
X155190639Y-96272085D01*
X155104925Y-96586371D02*
X155390639Y-96586371D01*
X155390639Y-96586371D02*
X155390639Y-95986371D01*
X155390639Y-95986371D02*
X155104925Y-95986371D01*
X154904925Y-95986371D02*
X154504925Y-96586371D01*
X154504925Y-95986371D02*
X154904925Y-96586371D01*
X154362068Y-95986371D02*
X154019211Y-95986371D01*
X154190639Y-96586371D02*
X154190639Y-95986371D01*
X157856353Y-103586371D02*
X157856353Y-102986371D01*
X157856353Y-102986371D02*
X157713496Y-102986371D01*
X157713496Y-102986371D02*
X157627782Y-103014942D01*
X157627782Y-103014942D02*
X157570639Y-103072085D01*
X157570639Y-103072085D02*
X157542068Y-103129228D01*
X157542068Y-103129228D02*
X157513496Y-103243514D01*
X157513496Y-103243514D02*
X157513496Y-103329228D01*
X157513496Y-103329228D02*
X157542068Y-103443514D01*
X157542068Y-103443514D02*
X157570639Y-103500657D01*
X157570639Y-103500657D02*
X157627782Y-103557800D01*
X157627782Y-103557800D02*
X157713496Y-103586371D01*
X157713496Y-103586371D02*
X157856353Y-103586371D01*
X157256353Y-103586371D02*
X157256353Y-102986371D01*
X156999211Y-103557800D02*
X156913497Y-103586371D01*
X156913497Y-103586371D02*
X156770639Y-103586371D01*
X156770639Y-103586371D02*
X156713497Y-103557800D01*
X156713497Y-103557800D02*
X156684925Y-103529228D01*
X156684925Y-103529228D02*
X156656354Y-103472085D01*
X156656354Y-103472085D02*
X156656354Y-103414942D01*
X156656354Y-103414942D02*
X156684925Y-103357800D01*
X156684925Y-103357800D02*
X156713497Y-103329228D01*
X156713497Y-103329228D02*
X156770639Y-103300657D01*
X156770639Y-103300657D02*
X156884925Y-103272085D01*
X156884925Y-103272085D02*
X156942068Y-103243514D01*
X156942068Y-103243514D02*
X156970639Y-103214942D01*
X156970639Y-103214942D02*
X156999211Y-103157800D01*
X156999211Y-103157800D02*
X156999211Y-103100657D01*
X156999211Y-103100657D02*
X156970639Y-103043514D01*
X156970639Y-103043514D02*
X156942068Y-103014942D01*
X156942068Y-103014942D02*
X156884925Y-102986371D01*
X156884925Y-102986371D02*
X156742068Y-102986371D01*
X156742068Y-102986371D02*
X156656354Y-103014942D01*
X156399210Y-103586371D02*
X156399210Y-102986371D01*
X156399210Y-102986371D02*
X156170639Y-102986371D01*
X156170639Y-102986371D02*
X156113496Y-103014942D01*
X156113496Y-103014942D02*
X156084925Y-103043514D01*
X156084925Y-103043514D02*
X156056353Y-103100657D01*
X156056353Y-103100657D02*
X156056353Y-103186371D01*
X156056353Y-103186371D02*
X156084925Y-103243514D01*
X156084925Y-103243514D02*
X156113496Y-103272085D01*
X156113496Y-103272085D02*
X156170639Y-103300657D01*
X156170639Y-103300657D02*
X156399210Y-103300657D01*
X155942068Y-103643514D02*
X155484925Y-103643514D01*
X155370639Y-103557800D02*
X155284925Y-103586371D01*
X155284925Y-103586371D02*
X155142067Y-103586371D01*
X155142067Y-103586371D02*
X155084925Y-103557800D01*
X155084925Y-103557800D02*
X155056353Y-103529228D01*
X155056353Y-103529228D02*
X155027782Y-103472085D01*
X155027782Y-103472085D02*
X155027782Y-103414942D01*
X155027782Y-103414942D02*
X155056353Y-103357800D01*
X155056353Y-103357800D02*
X155084925Y-103329228D01*
X155084925Y-103329228D02*
X155142067Y-103300657D01*
X155142067Y-103300657D02*
X155256353Y-103272085D01*
X155256353Y-103272085D02*
X155313496Y-103243514D01*
X155313496Y-103243514D02*
X155342067Y-103214942D01*
X155342067Y-103214942D02*
X155370639Y-103157800D01*
X155370639Y-103157800D02*
X155370639Y-103100657D01*
X155370639Y-103100657D02*
X155342067Y-103043514D01*
X155342067Y-103043514D02*
X155313496Y-103014942D01*
X155313496Y-103014942D02*
X155256353Y-102986371D01*
X155256353Y-102986371D02*
X155113496Y-102986371D01*
X155113496Y-102986371D02*
X155027782Y-103014942D01*
X154770638Y-103586371D02*
X154770638Y-102986371D01*
X154770638Y-102986371D02*
X154627781Y-102986371D01*
X154627781Y-102986371D02*
X154542067Y-103014942D01*
X154542067Y-103014942D02*
X154484924Y-103072085D01*
X154484924Y-103072085D02*
X154456353Y-103129228D01*
X154456353Y-103129228D02*
X154427781Y-103243514D01*
X154427781Y-103243514D02*
X154427781Y-103329228D01*
X154427781Y-103329228D02*
X154456353Y-103443514D01*
X154456353Y-103443514D02*
X154484924Y-103500657D01*
X154484924Y-103500657D02*
X154542067Y-103557800D01*
X154542067Y-103557800D02*
X154627781Y-103586371D01*
X154627781Y-103586371D02*
X154770638Y-103586371D01*
X154199210Y-103414942D02*
X153913496Y-103414942D01*
X154256353Y-103586371D02*
X154056353Y-102986371D01*
X154056353Y-102986371D02*
X153856353Y-103586371D01*
X160482068Y-104736371D02*
X160282068Y-105336371D01*
X160282068Y-105336371D02*
X160082068Y-104736371D01*
X159539210Y-105279228D02*
X159567782Y-105307800D01*
X159567782Y-105307800D02*
X159653496Y-105336371D01*
X159653496Y-105336371D02*
X159710639Y-105336371D01*
X159710639Y-105336371D02*
X159796353Y-105307800D01*
X159796353Y-105307800D02*
X159853496Y-105250657D01*
X159853496Y-105250657D02*
X159882067Y-105193514D01*
X159882067Y-105193514D02*
X159910639Y-105079228D01*
X159910639Y-105079228D02*
X159910639Y-104993514D01*
X159910639Y-104993514D02*
X159882067Y-104879228D01*
X159882067Y-104879228D02*
X159853496Y-104822085D01*
X159853496Y-104822085D02*
X159796353Y-104764942D01*
X159796353Y-104764942D02*
X159710639Y-104736371D01*
X159710639Y-104736371D02*
X159653496Y-104736371D01*
X159653496Y-104736371D02*
X159567782Y-104764942D01*
X159567782Y-104764942D02*
X159539210Y-104793514D01*
X158939210Y-105279228D02*
X158967782Y-105307800D01*
X158967782Y-105307800D02*
X159053496Y-105336371D01*
X159053496Y-105336371D02*
X159110639Y-105336371D01*
X159110639Y-105336371D02*
X159196353Y-105307800D01*
X159196353Y-105307800D02*
X159253496Y-105250657D01*
X159253496Y-105250657D02*
X159282067Y-105193514D01*
X159282067Y-105193514D02*
X159310639Y-105079228D01*
X159310639Y-105079228D02*
X159310639Y-104993514D01*
X159310639Y-104993514D02*
X159282067Y-104879228D01*
X159282067Y-104879228D02*
X159253496Y-104822085D01*
X159253496Y-104822085D02*
X159196353Y-104764942D01*
X159196353Y-104764942D02*
X159110639Y-104736371D01*
X159110639Y-104736371D02*
X159053496Y-104736371D01*
X159053496Y-104736371D02*
X158967782Y-104764942D01*
X158967782Y-104764942D02*
X158939210Y-104793514D01*
X159562068Y-88691371D02*
X159447782Y-88691371D01*
X159447782Y-88691371D02*
X159390639Y-88719942D01*
X159390639Y-88719942D02*
X159333496Y-88777085D01*
X159333496Y-88777085D02*
X159304925Y-88891371D01*
X159304925Y-88891371D02*
X159304925Y-89091371D01*
X159304925Y-89091371D02*
X159333496Y-89205657D01*
X159333496Y-89205657D02*
X159390639Y-89262800D01*
X159390639Y-89262800D02*
X159447782Y-89291371D01*
X159447782Y-89291371D02*
X159562068Y-89291371D01*
X159562068Y-89291371D02*
X159619211Y-89262800D01*
X159619211Y-89262800D02*
X159676353Y-89205657D01*
X159676353Y-89205657D02*
X159704925Y-89091371D01*
X159704925Y-89091371D02*
X159704925Y-88891371D01*
X159704925Y-88891371D02*
X159676353Y-88777085D01*
X159676353Y-88777085D02*
X159619211Y-88719942D01*
X159619211Y-88719942D02*
X159562068Y-88691371D01*
X159047782Y-88691371D02*
X159047782Y-89177085D01*
X159047782Y-89177085D02*
X159019211Y-89234228D01*
X159019211Y-89234228D02*
X158990640Y-89262800D01*
X158990640Y-89262800D02*
X158933497Y-89291371D01*
X158933497Y-89291371D02*
X158819211Y-89291371D01*
X158819211Y-89291371D02*
X158762068Y-89262800D01*
X158762068Y-89262800D02*
X158733497Y-89234228D01*
X158733497Y-89234228D02*
X158704925Y-89177085D01*
X158704925Y-89177085D02*
X158704925Y-88691371D01*
X158504926Y-88691371D02*
X158162069Y-88691371D01*
X158333497Y-89291371D02*
X158333497Y-88691371D01*
X158104926Y-89348514D02*
X157647783Y-89348514D01*
X157504925Y-89291371D02*
X157504925Y-88691371D01*
X157504925Y-88691371D02*
X157276354Y-88691371D01*
X157276354Y-88691371D02*
X157219211Y-88719942D01*
X157219211Y-88719942D02*
X157190640Y-88748514D01*
X157190640Y-88748514D02*
X157162068Y-88805657D01*
X157162068Y-88805657D02*
X157162068Y-88891371D01*
X157162068Y-88891371D02*
X157190640Y-88948514D01*
X157190640Y-88948514D02*
X157219211Y-88977085D01*
X157219211Y-88977085D02*
X157276354Y-89005657D01*
X157276354Y-89005657D02*
X157504925Y-89005657D01*
X156962068Y-88691371D02*
X156819211Y-89291371D01*
X156819211Y-89291371D02*
X156704925Y-88862800D01*
X156704925Y-88862800D02*
X156590640Y-89291371D01*
X156590640Y-89291371D02*
X156447783Y-88691371D01*
X156362069Y-89348514D02*
X155904926Y-89348514D01*
X155476354Y-89291371D02*
X155762068Y-89291371D01*
X155762068Y-89291371D02*
X155762068Y-88691371D01*
X155276354Y-88977085D02*
X155076354Y-88977085D01*
X154990640Y-89291371D02*
X155276354Y-89291371D01*
X155276354Y-89291371D02*
X155276354Y-88691371D01*
X155276354Y-88691371D02*
X154990640Y-88691371D01*
X154733497Y-89291371D02*
X154733497Y-88691371D01*
X154733497Y-88691371D02*
X154590640Y-88691371D01*
X154590640Y-88691371D02*
X154504926Y-88719942D01*
X154504926Y-88719942D02*
X154447783Y-88777085D01*
X154447783Y-88777085D02*
X154419212Y-88834228D01*
X154419212Y-88834228D02*
X154390640Y-88948514D01*
X154390640Y-88948514D02*
X154390640Y-89034228D01*
X154390640Y-89034228D02*
X154419212Y-89148514D01*
X154419212Y-89148514D02*
X154447783Y-89205657D01*
X154447783Y-89205657D02*
X154504926Y-89262800D01*
X154504926Y-89262800D02*
X154590640Y-89291371D01*
X154590640Y-89291371D02*
X154733497Y-89291371D01*
X154162069Y-88748514D02*
X154133497Y-88719942D01*
X154133497Y-88719942D02*
X154076355Y-88691371D01*
X154076355Y-88691371D02*
X153933497Y-88691371D01*
X153933497Y-88691371D02*
X153876355Y-88719942D01*
X153876355Y-88719942D02*
X153847783Y-88748514D01*
X153847783Y-88748514D02*
X153819212Y-88805657D01*
X153819212Y-88805657D02*
X153819212Y-88862800D01*
X153819212Y-88862800D02*
X153847783Y-88948514D01*
X153847783Y-88948514D02*
X154190640Y-89291371D01*
X154190640Y-89291371D02*
X153819212Y-89291371D01*
X160082068Y-97874942D02*
X160139211Y-97846371D01*
X160139211Y-97846371D02*
X160224925Y-97846371D01*
X160224925Y-97846371D02*
X160310639Y-97874942D01*
X160310639Y-97874942D02*
X160367782Y-97932085D01*
X160367782Y-97932085D02*
X160396353Y-97989228D01*
X160396353Y-97989228D02*
X160424925Y-98103514D01*
X160424925Y-98103514D02*
X160424925Y-98189228D01*
X160424925Y-98189228D02*
X160396353Y-98303514D01*
X160396353Y-98303514D02*
X160367782Y-98360657D01*
X160367782Y-98360657D02*
X160310639Y-98417800D01*
X160310639Y-98417800D02*
X160224925Y-98446371D01*
X160224925Y-98446371D02*
X160167782Y-98446371D01*
X160167782Y-98446371D02*
X160082068Y-98417800D01*
X160082068Y-98417800D02*
X160053496Y-98389228D01*
X160053496Y-98389228D02*
X160053496Y-98189228D01*
X160053496Y-98189228D02*
X160167782Y-98189228D01*
X159796353Y-98446371D02*
X159796353Y-97846371D01*
X159796353Y-97846371D02*
X159453496Y-98446371D01*
X159453496Y-98446371D02*
X159453496Y-97846371D01*
X159167782Y-98446371D02*
X159167782Y-97846371D01*
X159167782Y-97846371D02*
X159024925Y-97846371D01*
X159024925Y-97846371D02*
X158939211Y-97874942D01*
X158939211Y-97874942D02*
X158882068Y-97932085D01*
X158882068Y-97932085D02*
X158853497Y-97989228D01*
X158853497Y-97989228D02*
X158824925Y-98103514D01*
X158824925Y-98103514D02*
X158824925Y-98189228D01*
X158824925Y-98189228D02*
X158853497Y-98303514D01*
X158853497Y-98303514D02*
X158882068Y-98360657D01*
X158882068Y-98360657D02*
X158939211Y-98417800D01*
X158939211Y-98417800D02*
X159024925Y-98446371D01*
X159024925Y-98446371D02*
X159167782Y-98446371D01*
D13*
X77850432Y-107351928D02*
X77564718Y-107351928D01*
X77564718Y-107351928D02*
X77421861Y-107423357D01*
X77421861Y-107423357D02*
X77279004Y-107566214D01*
X77279004Y-107566214D02*
X77207575Y-107851928D01*
X77207575Y-107851928D02*
X77207575Y-108351928D01*
X77207575Y-108351928D02*
X77279004Y-108637642D01*
X77279004Y-108637642D02*
X77421861Y-108780500D01*
X77421861Y-108780500D02*
X77564718Y-108851928D01*
X77564718Y-108851928D02*
X77850432Y-108851928D01*
X77850432Y-108851928D02*
X77993290Y-108780500D01*
X77993290Y-108780500D02*
X78136147Y-108637642D01*
X78136147Y-108637642D02*
X78207575Y-108351928D01*
X78207575Y-108351928D02*
X78207575Y-107851928D01*
X78207575Y-107851928D02*
X78136147Y-107566214D01*
X78136147Y-107566214D02*
X77993290Y-107423357D01*
X77993290Y-107423357D02*
X77850432Y-107351928D01*
X76564718Y-107351928D02*
X76564718Y-108566214D01*
X76564718Y-108566214D02*
X76493289Y-108709071D01*
X76493289Y-108709071D02*
X76421861Y-108780500D01*
X76421861Y-108780500D02*
X76279003Y-108851928D01*
X76279003Y-108851928D02*
X75993289Y-108851928D01*
X75993289Y-108851928D02*
X75850432Y-108780500D01*
X75850432Y-108780500D02*
X75779003Y-108709071D01*
X75779003Y-108709071D02*
X75707575Y-108566214D01*
X75707575Y-108566214D02*
X75707575Y-107351928D01*
X75207574Y-107351928D02*
X74350432Y-107351928D01*
X74779003Y-108851928D02*
X74779003Y-107351928D01*
X71921860Y-108851928D02*
X72779003Y-108851928D01*
X72350432Y-108851928D02*
X72350432Y-107351928D01*
X72350432Y-107351928D02*
X72493289Y-107566214D01*
X72493289Y-107566214D02*
X72636146Y-107709071D01*
X72636146Y-107709071D02*
X72779003Y-107780500D01*
X77850432Y-85761928D02*
X77564718Y-85761928D01*
X77564718Y-85761928D02*
X77421861Y-85833357D01*
X77421861Y-85833357D02*
X77279004Y-85976214D01*
X77279004Y-85976214D02*
X77207575Y-86261928D01*
X77207575Y-86261928D02*
X77207575Y-86761928D01*
X77207575Y-86761928D02*
X77279004Y-87047642D01*
X77279004Y-87047642D02*
X77421861Y-87190500D01*
X77421861Y-87190500D02*
X77564718Y-87261928D01*
X77564718Y-87261928D02*
X77850432Y-87261928D01*
X77850432Y-87261928D02*
X77993290Y-87190500D01*
X77993290Y-87190500D02*
X78136147Y-87047642D01*
X78136147Y-87047642D02*
X78207575Y-86761928D01*
X78207575Y-86761928D02*
X78207575Y-86261928D01*
X78207575Y-86261928D02*
X78136147Y-85976214D01*
X78136147Y-85976214D02*
X77993290Y-85833357D01*
X77993290Y-85833357D02*
X77850432Y-85761928D01*
X76564718Y-85761928D02*
X76564718Y-86976214D01*
X76564718Y-86976214D02*
X76493289Y-87119071D01*
X76493289Y-87119071D02*
X76421861Y-87190500D01*
X76421861Y-87190500D02*
X76279003Y-87261928D01*
X76279003Y-87261928D02*
X75993289Y-87261928D01*
X75993289Y-87261928D02*
X75850432Y-87190500D01*
X75850432Y-87190500D02*
X75779003Y-87119071D01*
X75779003Y-87119071D02*
X75707575Y-86976214D01*
X75707575Y-86976214D02*
X75707575Y-85761928D01*
X75207574Y-85761928D02*
X74350432Y-85761928D01*
X74779003Y-87261928D02*
X74779003Y-85761928D01*
X72850432Y-85761928D02*
X71921860Y-85761928D01*
X71921860Y-85761928D02*
X72421860Y-86333357D01*
X72421860Y-86333357D02*
X72207575Y-86333357D01*
X72207575Y-86333357D02*
X72064718Y-86404785D01*
X72064718Y-86404785D02*
X71993289Y-86476214D01*
X71993289Y-86476214D02*
X71921860Y-86619071D01*
X71921860Y-86619071D02*
X71921860Y-86976214D01*
X71921860Y-86976214D02*
X71993289Y-87119071D01*
X71993289Y-87119071D02*
X72064718Y-87190500D01*
X72064718Y-87190500D02*
X72207575Y-87261928D01*
X72207575Y-87261928D02*
X72636146Y-87261928D01*
X72636146Y-87261928D02*
X72779003Y-87190500D01*
X72779003Y-87190500D02*
X72850432Y-87119071D01*
D10*
X160082068Y-90624942D02*
X160139211Y-90596371D01*
X160139211Y-90596371D02*
X160224925Y-90596371D01*
X160224925Y-90596371D02*
X160310639Y-90624942D01*
X160310639Y-90624942D02*
X160367782Y-90682085D01*
X160367782Y-90682085D02*
X160396353Y-90739228D01*
X160396353Y-90739228D02*
X160424925Y-90853514D01*
X160424925Y-90853514D02*
X160424925Y-90939228D01*
X160424925Y-90939228D02*
X160396353Y-91053514D01*
X160396353Y-91053514D02*
X160367782Y-91110657D01*
X160367782Y-91110657D02*
X160310639Y-91167800D01*
X160310639Y-91167800D02*
X160224925Y-91196371D01*
X160224925Y-91196371D02*
X160167782Y-91196371D01*
X160167782Y-91196371D02*
X160082068Y-91167800D01*
X160082068Y-91167800D02*
X160053496Y-91139228D01*
X160053496Y-91139228D02*
X160053496Y-90939228D01*
X160053496Y-90939228D02*
X160167782Y-90939228D01*
X159796353Y-91196371D02*
X159796353Y-90596371D01*
X159796353Y-90596371D02*
X159453496Y-91196371D01*
X159453496Y-91196371D02*
X159453496Y-90596371D01*
X159167782Y-91196371D02*
X159167782Y-90596371D01*
X159167782Y-90596371D02*
X159024925Y-90596371D01*
X159024925Y-90596371D02*
X158939211Y-90624942D01*
X158939211Y-90624942D02*
X158882068Y-90682085D01*
X158882068Y-90682085D02*
X158853497Y-90739228D01*
X158853497Y-90739228D02*
X158824925Y-90853514D01*
X158824925Y-90853514D02*
X158824925Y-90939228D01*
X158824925Y-90939228D02*
X158853497Y-91053514D01*
X158853497Y-91053514D02*
X158882068Y-91110657D01*
X158882068Y-91110657D02*
X158939211Y-91167800D01*
X158939211Y-91167800D02*
X159024925Y-91196371D01*
X159024925Y-91196371D02*
X159167782Y-91196371D01*
X67150000Y-124825000D02*
X166970000Y-124825000D01*
X67310000Y-114135000D02*
X68410000Y-114135000D01*
X68810000Y-114135000D02*
X69910000Y-114135000D01*
X70310000Y-114135000D02*
X71410000Y-114135000D01*
X71810000Y-114135000D02*
X72910000Y-114135000D01*
X73310000Y-114135000D02*
X74410000Y-114135000D01*
X74810000Y-114135000D02*
X75910000Y-114135000D01*
X76310000Y-114135000D02*
X77410000Y-114135000D01*
X77810000Y-114135000D02*
X78910000Y-114135000D01*
X79310000Y-114135000D02*
X80410000Y-114135000D01*
X80810000Y-114135000D02*
X81910000Y-114135000D01*
X82310000Y-114135000D02*
X83410000Y-114135000D01*
X83810000Y-114135000D02*
X84910000Y-114135000D01*
X85310000Y-114135000D02*
X85725000Y-114135000D01*
X85725000Y-114135000D02*
X85725000Y-115235000D01*
X85725000Y-115635000D02*
X85725000Y-116735000D01*
X85725000Y-117135000D02*
X85725000Y-118235000D01*
X85725000Y-118635000D02*
X85725000Y-119735000D01*
X85725000Y-120135000D02*
X85725000Y-121235000D01*
X85725000Y-121635000D02*
X85725000Y-122735000D01*
X85725000Y-123135000D02*
X85725000Y-124235000D01*
X85725000Y-124635000D02*
X85725000Y-124930000D01*
X85725000Y-124930000D02*
X84625000Y-124930000D01*
X84225000Y-124930000D02*
X83125000Y-124930000D01*
X82725000Y-124930000D02*
X81625000Y-124930000D01*
X81225000Y-124930000D02*
X80125000Y-124930000D01*
X79725000Y-124930000D02*
X78625000Y-124930000D01*
X78225000Y-124930000D02*
X77125000Y-124930000D01*
X76725000Y-124930000D02*
X75625000Y-124930000D01*
X75225000Y-124930000D02*
X74125000Y-124930000D01*
X73725000Y-124930000D02*
X72625000Y-124930000D01*
X72225000Y-124930000D02*
X71125000Y-124930000D01*
X70725000Y-124930000D02*
X69625000Y-124930000D01*
X69225000Y-124930000D02*
X68125000Y-124930000D01*
X67725000Y-124930000D02*
X67310000Y-124930000D01*
X67310000Y-124930000D02*
X67310000Y-123830000D01*
X67310000Y-123430000D02*
X67310000Y-122330000D01*
X67310000Y-121930000D02*
X67310000Y-120830000D01*
X67310000Y-120430000D02*
X67310000Y-119330000D01*
X67310000Y-118930000D02*
X67310000Y-117830000D01*
X67310000Y-117430000D02*
X67310000Y-116330000D01*
X67310000Y-115930000D02*
X67310000Y-114830000D01*
X67310000Y-114430000D02*
X67310000Y-114135000D01*
X67310000Y-64135000D02*
X68410000Y-64135000D01*
X68810000Y-64135000D02*
X69910000Y-64135000D01*
X70310000Y-64135000D02*
X71410000Y-64135000D01*
X71810000Y-64135000D02*
X72910000Y-64135000D01*
X73310000Y-64135000D02*
X74410000Y-64135000D01*
X74810000Y-64135000D02*
X75910000Y-64135000D01*
X76310000Y-64135000D02*
X77410000Y-64135000D01*
X77810000Y-64135000D02*
X78910000Y-64135000D01*
X79310000Y-64135000D02*
X80410000Y-64135000D01*
X80810000Y-64135000D02*
X81910000Y-64135000D01*
X82310000Y-64135000D02*
X83410000Y-64135000D01*
X83810000Y-64135000D02*
X84910000Y-64135000D01*
X85310000Y-64135000D02*
X85725000Y-64135000D01*
X85725000Y-64135000D02*
X85725000Y-65235000D01*
X85725000Y-65635000D02*
X85725000Y-66735000D01*
X85725000Y-67135000D02*
X85725000Y-68235000D01*
X85725000Y-68635000D02*
X85725000Y-69735000D01*
X85725000Y-70135000D02*
X85725000Y-71235000D01*
X85725000Y-71635000D02*
X85725000Y-72735000D01*
X85725000Y-73135000D02*
X85725000Y-74235000D01*
X85725000Y-74635000D02*
X85725000Y-74930000D01*
X85725000Y-74930000D02*
X84625000Y-74930000D01*
X84225000Y-74930000D02*
X83125000Y-74930000D01*
X82725000Y-74930000D02*
X81625000Y-74930000D01*
X81225000Y-74930000D02*
X80125000Y-74930000D01*
X79725000Y-74930000D02*
X78625000Y-74930000D01*
X78225000Y-74930000D02*
X77125000Y-74930000D01*
X76725000Y-74930000D02*
X75625000Y-74930000D01*
X75225000Y-74930000D02*
X74125000Y-74930000D01*
X73725000Y-74930000D02*
X72625000Y-74930000D01*
X72225000Y-74930000D02*
X71125000Y-74930000D01*
X70725000Y-74930000D02*
X69625000Y-74930000D01*
X69225000Y-74930000D02*
X68125000Y-74930000D01*
X67725000Y-74930000D02*
X67310000Y-74930000D01*
X67310000Y-74930000D02*
X67310000Y-73830000D01*
X67310000Y-73430000D02*
X67310000Y-72330000D01*
X67310000Y-71930000D02*
X67310000Y-70830000D01*
X67310000Y-70430000D02*
X67310000Y-69330000D01*
X67310000Y-68930000D02*
X67310000Y-67830000D01*
X67310000Y-67430000D02*
X67310000Y-66330000D01*
X67310000Y-65930000D02*
X67310000Y-64830000D01*
X67310000Y-64430000D02*
X67310000Y-64135000D01*
X67150000Y-74825000D02*
X166970000Y-74825000D01*
X160082068Y-40624942D02*
X160139211Y-40596371D01*
X160139211Y-40596371D02*
X160224925Y-40596371D01*
X160224925Y-40596371D02*
X160310639Y-40624942D01*
X160310639Y-40624942D02*
X160367782Y-40682085D01*
X160367782Y-40682085D02*
X160396353Y-40739228D01*
X160396353Y-40739228D02*
X160424925Y-40853514D01*
X160424925Y-40853514D02*
X160424925Y-40939228D01*
X160424925Y-40939228D02*
X160396353Y-41053514D01*
X160396353Y-41053514D02*
X160367782Y-41110657D01*
X160367782Y-41110657D02*
X160310639Y-41167800D01*
X160310639Y-41167800D02*
X160224925Y-41196371D01*
X160224925Y-41196371D02*
X160167782Y-41196371D01*
X160167782Y-41196371D02*
X160082068Y-41167800D01*
X160082068Y-41167800D02*
X160053496Y-41139228D01*
X160053496Y-41139228D02*
X160053496Y-40939228D01*
X160053496Y-40939228D02*
X160167782Y-40939228D01*
X159796353Y-41196371D02*
X159796353Y-40596371D01*
X159796353Y-40596371D02*
X159453496Y-41196371D01*
X159453496Y-41196371D02*
X159453496Y-40596371D01*
X159167782Y-41196371D02*
X159167782Y-40596371D01*
X159167782Y-40596371D02*
X159024925Y-40596371D01*
X159024925Y-40596371D02*
X158939211Y-40624942D01*
X158939211Y-40624942D02*
X158882068Y-40682085D01*
X158882068Y-40682085D02*
X158853497Y-40739228D01*
X158853497Y-40739228D02*
X158824925Y-40853514D01*
X158824925Y-40853514D02*
X158824925Y-40939228D01*
X158824925Y-40939228D02*
X158853497Y-41053514D01*
X158853497Y-41053514D02*
X158882068Y-41110657D01*
X158882068Y-41110657D02*
X158939211Y-41167800D01*
X158939211Y-41167800D02*
X159024925Y-41196371D01*
X159024925Y-41196371D02*
X159167782Y-41196371D01*
D13*
X77850432Y-35761928D02*
X77564718Y-35761928D01*
X77564718Y-35761928D02*
X77421861Y-35833357D01*
X77421861Y-35833357D02*
X77279004Y-35976214D01*
X77279004Y-35976214D02*
X77207575Y-36261928D01*
X77207575Y-36261928D02*
X77207575Y-36761928D01*
X77207575Y-36761928D02*
X77279004Y-37047642D01*
X77279004Y-37047642D02*
X77421861Y-37190500D01*
X77421861Y-37190500D02*
X77564718Y-37261928D01*
X77564718Y-37261928D02*
X77850432Y-37261928D01*
X77850432Y-37261928D02*
X77993290Y-37190500D01*
X77993290Y-37190500D02*
X78136147Y-37047642D01*
X78136147Y-37047642D02*
X78207575Y-36761928D01*
X78207575Y-36761928D02*
X78207575Y-36261928D01*
X78207575Y-36261928D02*
X78136147Y-35976214D01*
X78136147Y-35976214D02*
X77993290Y-35833357D01*
X77993290Y-35833357D02*
X77850432Y-35761928D01*
X76564718Y-35761928D02*
X76564718Y-36976214D01*
X76564718Y-36976214D02*
X76493289Y-37119071D01*
X76493289Y-37119071D02*
X76421861Y-37190500D01*
X76421861Y-37190500D02*
X76279003Y-37261928D01*
X76279003Y-37261928D02*
X75993289Y-37261928D01*
X75993289Y-37261928D02*
X75850432Y-37190500D01*
X75850432Y-37190500D02*
X75779003Y-37119071D01*
X75779003Y-37119071D02*
X75707575Y-36976214D01*
X75707575Y-36976214D02*
X75707575Y-35761928D01*
X75207574Y-35761928D02*
X74350432Y-35761928D01*
X74779003Y-37261928D02*
X74779003Y-35761928D01*
X72850432Y-35761928D02*
X71921860Y-35761928D01*
X71921860Y-35761928D02*
X72421860Y-36333357D01*
X72421860Y-36333357D02*
X72207575Y-36333357D01*
X72207575Y-36333357D02*
X72064718Y-36404785D01*
X72064718Y-36404785D02*
X71993289Y-36476214D01*
X71993289Y-36476214D02*
X71921860Y-36619071D01*
X71921860Y-36619071D02*
X71921860Y-36976214D01*
X71921860Y-36976214D02*
X71993289Y-37119071D01*
X71993289Y-37119071D02*
X72064718Y-37190500D01*
X72064718Y-37190500D02*
X72207575Y-37261928D01*
X72207575Y-37261928D02*
X72636146Y-37261928D01*
X72636146Y-37261928D02*
X72779003Y-37190500D01*
X72779003Y-37190500D02*
X72850432Y-37119071D01*
X77850432Y-57351928D02*
X77564718Y-57351928D01*
X77564718Y-57351928D02*
X77421861Y-57423357D01*
X77421861Y-57423357D02*
X77279004Y-57566214D01*
X77279004Y-57566214D02*
X77207575Y-57851928D01*
X77207575Y-57851928D02*
X77207575Y-58351928D01*
X77207575Y-58351928D02*
X77279004Y-58637642D01*
X77279004Y-58637642D02*
X77421861Y-58780500D01*
X77421861Y-58780500D02*
X77564718Y-58851928D01*
X77564718Y-58851928D02*
X77850432Y-58851928D01*
X77850432Y-58851928D02*
X77993290Y-58780500D01*
X77993290Y-58780500D02*
X78136147Y-58637642D01*
X78136147Y-58637642D02*
X78207575Y-58351928D01*
X78207575Y-58351928D02*
X78207575Y-57851928D01*
X78207575Y-57851928D02*
X78136147Y-57566214D01*
X78136147Y-57566214D02*
X77993290Y-57423357D01*
X77993290Y-57423357D02*
X77850432Y-57351928D01*
X76564718Y-57351928D02*
X76564718Y-58566214D01*
X76564718Y-58566214D02*
X76493289Y-58709071D01*
X76493289Y-58709071D02*
X76421861Y-58780500D01*
X76421861Y-58780500D02*
X76279003Y-58851928D01*
X76279003Y-58851928D02*
X75993289Y-58851928D01*
X75993289Y-58851928D02*
X75850432Y-58780500D01*
X75850432Y-58780500D02*
X75779003Y-58709071D01*
X75779003Y-58709071D02*
X75707575Y-58566214D01*
X75707575Y-58566214D02*
X75707575Y-57351928D01*
X75207574Y-57351928D02*
X74350432Y-57351928D01*
X74779003Y-58851928D02*
X74779003Y-57351928D01*
X71921860Y-58851928D02*
X72779003Y-58851928D01*
X72350432Y-58851928D02*
X72350432Y-57351928D01*
X72350432Y-57351928D02*
X72493289Y-57566214D01*
X72493289Y-57566214D02*
X72636146Y-57709071D01*
X72636146Y-57709071D02*
X72779003Y-57780500D01*
D10*
X160082068Y-51264942D02*
X160139211Y-51236371D01*
X160139211Y-51236371D02*
X160224925Y-51236371D01*
X160224925Y-51236371D02*
X160310639Y-51264942D01*
X160310639Y-51264942D02*
X160367782Y-51322085D01*
X160367782Y-51322085D02*
X160396353Y-51379228D01*
X160396353Y-51379228D02*
X160424925Y-51493514D01*
X160424925Y-51493514D02*
X160424925Y-51579228D01*
X160424925Y-51579228D02*
X160396353Y-51693514D01*
X160396353Y-51693514D02*
X160367782Y-51750657D01*
X160367782Y-51750657D02*
X160310639Y-51807800D01*
X160310639Y-51807800D02*
X160224925Y-51836371D01*
X160224925Y-51836371D02*
X160167782Y-51836371D01*
X160167782Y-51836371D02*
X160082068Y-51807800D01*
X160082068Y-51807800D02*
X160053496Y-51779228D01*
X160053496Y-51779228D02*
X160053496Y-51579228D01*
X160053496Y-51579228D02*
X160167782Y-51579228D01*
X159796353Y-51836371D02*
X159796353Y-51236371D01*
X159796353Y-51236371D02*
X159453496Y-51836371D01*
X159453496Y-51836371D02*
X159453496Y-51236371D01*
X159167782Y-51836371D02*
X159167782Y-51236371D01*
X159167782Y-51236371D02*
X159024925Y-51236371D01*
X159024925Y-51236371D02*
X158939211Y-51264942D01*
X158939211Y-51264942D02*
X158882068Y-51322085D01*
X158882068Y-51322085D02*
X158853497Y-51379228D01*
X158853497Y-51379228D02*
X158824925Y-51493514D01*
X158824925Y-51493514D02*
X158824925Y-51579228D01*
X158824925Y-51579228D02*
X158853497Y-51693514D01*
X158853497Y-51693514D02*
X158882068Y-51750657D01*
X158882068Y-51750657D02*
X158939211Y-51807800D01*
X158939211Y-51807800D02*
X159024925Y-51836371D01*
X159024925Y-51836371D02*
X159167782Y-51836371D01*
X160082068Y-47874942D02*
X160139211Y-47846371D01*
X160139211Y-47846371D02*
X160224925Y-47846371D01*
X160224925Y-47846371D02*
X160310639Y-47874942D01*
X160310639Y-47874942D02*
X160367782Y-47932085D01*
X160367782Y-47932085D02*
X160396353Y-47989228D01*
X160396353Y-47989228D02*
X160424925Y-48103514D01*
X160424925Y-48103514D02*
X160424925Y-48189228D01*
X160424925Y-48189228D02*
X160396353Y-48303514D01*
X160396353Y-48303514D02*
X160367782Y-48360657D01*
X160367782Y-48360657D02*
X160310639Y-48417800D01*
X160310639Y-48417800D02*
X160224925Y-48446371D01*
X160224925Y-48446371D02*
X160167782Y-48446371D01*
X160167782Y-48446371D02*
X160082068Y-48417800D01*
X160082068Y-48417800D02*
X160053496Y-48389228D01*
X160053496Y-48389228D02*
X160053496Y-48189228D01*
X160053496Y-48189228D02*
X160167782Y-48189228D01*
X159796353Y-48446371D02*
X159796353Y-47846371D01*
X159796353Y-47846371D02*
X159453496Y-48446371D01*
X159453496Y-48446371D02*
X159453496Y-47846371D01*
X159167782Y-48446371D02*
X159167782Y-47846371D01*
X159167782Y-47846371D02*
X159024925Y-47846371D01*
X159024925Y-47846371D02*
X158939211Y-47874942D01*
X158939211Y-47874942D02*
X158882068Y-47932085D01*
X158882068Y-47932085D02*
X158853497Y-47989228D01*
X158853497Y-47989228D02*
X158824925Y-48103514D01*
X158824925Y-48103514D02*
X158824925Y-48189228D01*
X158824925Y-48189228D02*
X158853497Y-48303514D01*
X158853497Y-48303514D02*
X158882068Y-48360657D01*
X158882068Y-48360657D02*
X158939211Y-48417800D01*
X158939211Y-48417800D02*
X159024925Y-48446371D01*
X159024925Y-48446371D02*
X159167782Y-48446371D01*
X159562068Y-38691371D02*
X159447782Y-38691371D01*
X159447782Y-38691371D02*
X159390639Y-38719942D01*
X159390639Y-38719942D02*
X159333496Y-38777085D01*
X159333496Y-38777085D02*
X159304925Y-38891371D01*
X159304925Y-38891371D02*
X159304925Y-39091371D01*
X159304925Y-39091371D02*
X159333496Y-39205657D01*
X159333496Y-39205657D02*
X159390639Y-39262800D01*
X159390639Y-39262800D02*
X159447782Y-39291371D01*
X159447782Y-39291371D02*
X159562068Y-39291371D01*
X159562068Y-39291371D02*
X159619211Y-39262800D01*
X159619211Y-39262800D02*
X159676353Y-39205657D01*
X159676353Y-39205657D02*
X159704925Y-39091371D01*
X159704925Y-39091371D02*
X159704925Y-38891371D01*
X159704925Y-38891371D02*
X159676353Y-38777085D01*
X159676353Y-38777085D02*
X159619211Y-38719942D01*
X159619211Y-38719942D02*
X159562068Y-38691371D01*
X159047782Y-38691371D02*
X159047782Y-39177085D01*
X159047782Y-39177085D02*
X159019211Y-39234228D01*
X159019211Y-39234228D02*
X158990640Y-39262800D01*
X158990640Y-39262800D02*
X158933497Y-39291371D01*
X158933497Y-39291371D02*
X158819211Y-39291371D01*
X158819211Y-39291371D02*
X158762068Y-39262800D01*
X158762068Y-39262800D02*
X158733497Y-39234228D01*
X158733497Y-39234228D02*
X158704925Y-39177085D01*
X158704925Y-39177085D02*
X158704925Y-38691371D01*
X158504926Y-38691371D02*
X158162069Y-38691371D01*
X158333497Y-39291371D02*
X158333497Y-38691371D01*
X158104926Y-39348514D02*
X157647783Y-39348514D01*
X157504925Y-39291371D02*
X157504925Y-38691371D01*
X157504925Y-38691371D02*
X157276354Y-38691371D01*
X157276354Y-38691371D02*
X157219211Y-38719942D01*
X157219211Y-38719942D02*
X157190640Y-38748514D01*
X157190640Y-38748514D02*
X157162068Y-38805657D01*
X157162068Y-38805657D02*
X157162068Y-38891371D01*
X157162068Y-38891371D02*
X157190640Y-38948514D01*
X157190640Y-38948514D02*
X157219211Y-38977085D01*
X157219211Y-38977085D02*
X157276354Y-39005657D01*
X157276354Y-39005657D02*
X157504925Y-39005657D01*
X156962068Y-38691371D02*
X156819211Y-39291371D01*
X156819211Y-39291371D02*
X156704925Y-38862800D01*
X156704925Y-38862800D02*
X156590640Y-39291371D01*
X156590640Y-39291371D02*
X156447783Y-38691371D01*
X156362069Y-39348514D02*
X155904926Y-39348514D01*
X155476354Y-39291371D02*
X155762068Y-39291371D01*
X155762068Y-39291371D02*
X155762068Y-38691371D01*
X155276354Y-38977085D02*
X155076354Y-38977085D01*
X154990640Y-39291371D02*
X155276354Y-39291371D01*
X155276354Y-39291371D02*
X155276354Y-38691371D01*
X155276354Y-38691371D02*
X154990640Y-38691371D01*
X154733497Y-39291371D02*
X154733497Y-38691371D01*
X154733497Y-38691371D02*
X154590640Y-38691371D01*
X154590640Y-38691371D02*
X154504926Y-38719942D01*
X154504926Y-38719942D02*
X154447783Y-38777085D01*
X154447783Y-38777085D02*
X154419212Y-38834228D01*
X154419212Y-38834228D02*
X154390640Y-38948514D01*
X154390640Y-38948514D02*
X154390640Y-39034228D01*
X154390640Y-39034228D02*
X154419212Y-39148514D01*
X154419212Y-39148514D02*
X154447783Y-39205657D01*
X154447783Y-39205657D02*
X154504926Y-39262800D01*
X154504926Y-39262800D02*
X154590640Y-39291371D01*
X154590640Y-39291371D02*
X154733497Y-39291371D01*
X154162069Y-38748514D02*
X154133497Y-38719942D01*
X154133497Y-38719942D02*
X154076355Y-38691371D01*
X154076355Y-38691371D02*
X153933497Y-38691371D01*
X153933497Y-38691371D02*
X153876355Y-38719942D01*
X153876355Y-38719942D02*
X153847783Y-38748514D01*
X153847783Y-38748514D02*
X153819212Y-38805657D01*
X153819212Y-38805657D02*
X153819212Y-38862800D01*
X153819212Y-38862800D02*
X153847783Y-38948514D01*
X153847783Y-38948514D02*
X154190640Y-39291371D01*
X154190640Y-39291371D02*
X153819212Y-39291371D01*
X160482068Y-54736371D02*
X160282068Y-55336371D01*
X160282068Y-55336371D02*
X160082068Y-54736371D01*
X159539210Y-55279228D02*
X159567782Y-55307800D01*
X159567782Y-55307800D02*
X159653496Y-55336371D01*
X159653496Y-55336371D02*
X159710639Y-55336371D01*
X159710639Y-55336371D02*
X159796353Y-55307800D01*
X159796353Y-55307800D02*
X159853496Y-55250657D01*
X159853496Y-55250657D02*
X159882067Y-55193514D01*
X159882067Y-55193514D02*
X159910639Y-55079228D01*
X159910639Y-55079228D02*
X159910639Y-54993514D01*
X159910639Y-54993514D02*
X159882067Y-54879228D01*
X159882067Y-54879228D02*
X159853496Y-54822085D01*
X159853496Y-54822085D02*
X159796353Y-54764942D01*
X159796353Y-54764942D02*
X159710639Y-54736371D01*
X159710639Y-54736371D02*
X159653496Y-54736371D01*
X159653496Y-54736371D02*
X159567782Y-54764942D01*
X159567782Y-54764942D02*
X159539210Y-54793514D01*
X158939210Y-55279228D02*
X158967782Y-55307800D01*
X158967782Y-55307800D02*
X159053496Y-55336371D01*
X159053496Y-55336371D02*
X159110639Y-55336371D01*
X159110639Y-55336371D02*
X159196353Y-55307800D01*
X159196353Y-55307800D02*
X159253496Y-55250657D01*
X159253496Y-55250657D02*
X159282067Y-55193514D01*
X159282067Y-55193514D02*
X159310639Y-55079228D01*
X159310639Y-55079228D02*
X159310639Y-54993514D01*
X159310639Y-54993514D02*
X159282067Y-54879228D01*
X159282067Y-54879228D02*
X159253496Y-54822085D01*
X159253496Y-54822085D02*
X159196353Y-54764942D01*
X159196353Y-54764942D02*
X159110639Y-54736371D01*
X159110639Y-54736371D02*
X159053496Y-54736371D01*
X159053496Y-54736371D02*
X158967782Y-54764942D01*
X158967782Y-54764942D02*
X158939210Y-54793514D01*
X157856353Y-53586371D02*
X157856353Y-52986371D01*
X157856353Y-52986371D02*
X157713496Y-52986371D01*
X157713496Y-52986371D02*
X157627782Y-53014942D01*
X157627782Y-53014942D02*
X157570639Y-53072085D01*
X157570639Y-53072085D02*
X157542068Y-53129228D01*
X157542068Y-53129228D02*
X157513496Y-53243514D01*
X157513496Y-53243514D02*
X157513496Y-53329228D01*
X157513496Y-53329228D02*
X157542068Y-53443514D01*
X157542068Y-53443514D02*
X157570639Y-53500657D01*
X157570639Y-53500657D02*
X157627782Y-53557800D01*
X157627782Y-53557800D02*
X157713496Y-53586371D01*
X157713496Y-53586371D02*
X157856353Y-53586371D01*
X157256353Y-53586371D02*
X157256353Y-52986371D01*
X156999211Y-53557800D02*
X156913497Y-53586371D01*
X156913497Y-53586371D02*
X156770639Y-53586371D01*
X156770639Y-53586371D02*
X156713497Y-53557800D01*
X156713497Y-53557800D02*
X156684925Y-53529228D01*
X156684925Y-53529228D02*
X156656354Y-53472085D01*
X156656354Y-53472085D02*
X156656354Y-53414942D01*
X156656354Y-53414942D02*
X156684925Y-53357800D01*
X156684925Y-53357800D02*
X156713497Y-53329228D01*
X156713497Y-53329228D02*
X156770639Y-53300657D01*
X156770639Y-53300657D02*
X156884925Y-53272085D01*
X156884925Y-53272085D02*
X156942068Y-53243514D01*
X156942068Y-53243514D02*
X156970639Y-53214942D01*
X156970639Y-53214942D02*
X156999211Y-53157800D01*
X156999211Y-53157800D02*
X156999211Y-53100657D01*
X156999211Y-53100657D02*
X156970639Y-53043514D01*
X156970639Y-53043514D02*
X156942068Y-53014942D01*
X156942068Y-53014942D02*
X156884925Y-52986371D01*
X156884925Y-52986371D02*
X156742068Y-52986371D01*
X156742068Y-52986371D02*
X156656354Y-53014942D01*
X156399210Y-53586371D02*
X156399210Y-52986371D01*
X156399210Y-52986371D02*
X156170639Y-52986371D01*
X156170639Y-52986371D02*
X156113496Y-53014942D01*
X156113496Y-53014942D02*
X156084925Y-53043514D01*
X156084925Y-53043514D02*
X156056353Y-53100657D01*
X156056353Y-53100657D02*
X156056353Y-53186371D01*
X156056353Y-53186371D02*
X156084925Y-53243514D01*
X156084925Y-53243514D02*
X156113496Y-53272085D01*
X156113496Y-53272085D02*
X156170639Y-53300657D01*
X156170639Y-53300657D02*
X156399210Y-53300657D01*
X155942068Y-53643514D02*
X155484925Y-53643514D01*
X155370639Y-53557800D02*
X155284925Y-53586371D01*
X155284925Y-53586371D02*
X155142067Y-53586371D01*
X155142067Y-53586371D02*
X155084925Y-53557800D01*
X155084925Y-53557800D02*
X155056353Y-53529228D01*
X155056353Y-53529228D02*
X155027782Y-53472085D01*
X155027782Y-53472085D02*
X155027782Y-53414942D01*
X155027782Y-53414942D02*
X155056353Y-53357800D01*
X155056353Y-53357800D02*
X155084925Y-53329228D01*
X155084925Y-53329228D02*
X155142067Y-53300657D01*
X155142067Y-53300657D02*
X155256353Y-53272085D01*
X155256353Y-53272085D02*
X155313496Y-53243514D01*
X155313496Y-53243514D02*
X155342067Y-53214942D01*
X155342067Y-53214942D02*
X155370639Y-53157800D01*
X155370639Y-53157800D02*
X155370639Y-53100657D01*
X155370639Y-53100657D02*
X155342067Y-53043514D01*
X155342067Y-53043514D02*
X155313496Y-53014942D01*
X155313496Y-53014942D02*
X155256353Y-52986371D01*
X155256353Y-52986371D02*
X155113496Y-52986371D01*
X155113496Y-52986371D02*
X155027782Y-53014942D01*
X154770638Y-53586371D02*
X154770638Y-52986371D01*
X154770638Y-52986371D02*
X154627781Y-52986371D01*
X154627781Y-52986371D02*
X154542067Y-53014942D01*
X154542067Y-53014942D02*
X154484924Y-53072085D01*
X154484924Y-53072085D02*
X154456353Y-53129228D01*
X154456353Y-53129228D02*
X154427781Y-53243514D01*
X154427781Y-53243514D02*
X154427781Y-53329228D01*
X154427781Y-53329228D02*
X154456353Y-53443514D01*
X154456353Y-53443514D02*
X154484924Y-53500657D01*
X154484924Y-53500657D02*
X154542067Y-53557800D01*
X154542067Y-53557800D02*
X154627781Y-53586371D01*
X154627781Y-53586371D02*
X154770638Y-53586371D01*
X154199210Y-53414942D02*
X153913496Y-53414942D01*
X154256353Y-53586371D02*
X154056353Y-52986371D01*
X154056353Y-52986371D02*
X153856353Y-53586371D01*
X159676353Y-46272085D02*
X159476353Y-46272085D01*
X159390639Y-46586371D02*
X159676353Y-46586371D01*
X159676353Y-46586371D02*
X159676353Y-45986371D01*
X159676353Y-45986371D02*
X159390639Y-45986371D01*
X158790639Y-46586371D02*
X158990639Y-46300657D01*
X159133496Y-46586371D02*
X159133496Y-45986371D01*
X159133496Y-45986371D02*
X158904925Y-45986371D01*
X158904925Y-45986371D02*
X158847782Y-46014942D01*
X158847782Y-46014942D02*
X158819211Y-46043514D01*
X158819211Y-46043514D02*
X158790639Y-46100657D01*
X158790639Y-46100657D02*
X158790639Y-46186371D01*
X158790639Y-46186371D02*
X158819211Y-46243514D01*
X158819211Y-46243514D02*
X158847782Y-46272085D01*
X158847782Y-46272085D02*
X158904925Y-46300657D01*
X158904925Y-46300657D02*
X159133496Y-46300657D01*
X158190639Y-46586371D02*
X158390639Y-46300657D01*
X158533496Y-46586371D02*
X158533496Y-45986371D01*
X158533496Y-45986371D02*
X158304925Y-45986371D01*
X158304925Y-45986371D02*
X158247782Y-46014942D01*
X158247782Y-46014942D02*
X158219211Y-46043514D01*
X158219211Y-46043514D02*
X158190639Y-46100657D01*
X158190639Y-46100657D02*
X158190639Y-46186371D01*
X158190639Y-46186371D02*
X158219211Y-46243514D01*
X158219211Y-46243514D02*
X158247782Y-46272085D01*
X158247782Y-46272085D02*
X158304925Y-46300657D01*
X158304925Y-46300657D02*
X158533496Y-46300657D01*
X158076354Y-46643514D02*
X157619211Y-46643514D01*
X157190639Y-46586371D02*
X157476353Y-46586371D01*
X157476353Y-46586371D02*
X157476353Y-45986371D01*
X156990639Y-46272085D02*
X156790639Y-46272085D01*
X156704925Y-46586371D02*
X156990639Y-46586371D01*
X156990639Y-46586371D02*
X156990639Y-45986371D01*
X156990639Y-45986371D02*
X156704925Y-45986371D01*
X156447782Y-46586371D02*
X156447782Y-45986371D01*
X156447782Y-45986371D02*
X156304925Y-45986371D01*
X156304925Y-45986371D02*
X156219211Y-46014942D01*
X156219211Y-46014942D02*
X156162068Y-46072085D01*
X156162068Y-46072085D02*
X156133497Y-46129228D01*
X156133497Y-46129228D02*
X156104925Y-46243514D01*
X156104925Y-46243514D02*
X156104925Y-46329228D01*
X156104925Y-46329228D02*
X156133497Y-46443514D01*
X156133497Y-46443514D02*
X156162068Y-46500657D01*
X156162068Y-46500657D02*
X156219211Y-46557800D01*
X156219211Y-46557800D02*
X156304925Y-46586371D01*
X156304925Y-46586371D02*
X156447782Y-46586371D01*
X155990640Y-46643514D02*
X155533497Y-46643514D01*
X155390639Y-46272085D02*
X155190639Y-46272085D01*
X155104925Y-46586371D02*
X155390639Y-46586371D01*
X155390639Y-46586371D02*
X155390639Y-45986371D01*
X155390639Y-45986371D02*
X155104925Y-45986371D01*
X154904925Y-45986371D02*
X154504925Y-46586371D01*
X154504925Y-45986371D02*
X154904925Y-46586371D01*
X154362068Y-45986371D02*
X154019211Y-45986371D01*
X154190639Y-46586371D02*
X154190639Y-45986371D01*
X159562068Y-42501371D02*
X159447782Y-42501371D01*
X159447782Y-42501371D02*
X159390639Y-42529942D01*
X159390639Y-42529942D02*
X159333496Y-42587085D01*
X159333496Y-42587085D02*
X159304925Y-42701371D01*
X159304925Y-42701371D02*
X159304925Y-42901371D01*
X159304925Y-42901371D02*
X159333496Y-43015657D01*
X159333496Y-43015657D02*
X159390639Y-43072800D01*
X159390639Y-43072800D02*
X159447782Y-43101371D01*
X159447782Y-43101371D02*
X159562068Y-43101371D01*
X159562068Y-43101371D02*
X159619211Y-43072800D01*
X159619211Y-43072800D02*
X159676353Y-43015657D01*
X159676353Y-43015657D02*
X159704925Y-42901371D01*
X159704925Y-42901371D02*
X159704925Y-42701371D01*
X159704925Y-42701371D02*
X159676353Y-42587085D01*
X159676353Y-42587085D02*
X159619211Y-42529942D01*
X159619211Y-42529942D02*
X159562068Y-42501371D01*
X159047782Y-42501371D02*
X159047782Y-42987085D01*
X159047782Y-42987085D02*
X159019211Y-43044228D01*
X159019211Y-43044228D02*
X158990640Y-43072800D01*
X158990640Y-43072800D02*
X158933497Y-43101371D01*
X158933497Y-43101371D02*
X158819211Y-43101371D01*
X158819211Y-43101371D02*
X158762068Y-43072800D01*
X158762068Y-43072800D02*
X158733497Y-43044228D01*
X158733497Y-43044228D02*
X158704925Y-42987085D01*
X158704925Y-42987085D02*
X158704925Y-42501371D01*
X158504926Y-42501371D02*
X158162069Y-42501371D01*
X158333497Y-43101371D02*
X158333497Y-42501371D01*
X158104926Y-43158514D02*
X157647783Y-43158514D01*
X157504925Y-43101371D02*
X157504925Y-42501371D01*
X157504925Y-42501371D02*
X157276354Y-42501371D01*
X157276354Y-42501371D02*
X157219211Y-42529942D01*
X157219211Y-42529942D02*
X157190640Y-42558514D01*
X157190640Y-42558514D02*
X157162068Y-42615657D01*
X157162068Y-42615657D02*
X157162068Y-42701371D01*
X157162068Y-42701371D02*
X157190640Y-42758514D01*
X157190640Y-42758514D02*
X157219211Y-42787085D01*
X157219211Y-42787085D02*
X157276354Y-42815657D01*
X157276354Y-42815657D02*
X157504925Y-42815657D01*
X156962068Y-42501371D02*
X156819211Y-43101371D01*
X156819211Y-43101371D02*
X156704925Y-42672800D01*
X156704925Y-42672800D02*
X156590640Y-43101371D01*
X156590640Y-43101371D02*
X156447783Y-42501371D01*
X156362069Y-43158514D02*
X155904926Y-43158514D01*
X155476354Y-43101371D02*
X155762068Y-43101371D01*
X155762068Y-43101371D02*
X155762068Y-42501371D01*
X155276354Y-42787085D02*
X155076354Y-42787085D01*
X154990640Y-43101371D02*
X155276354Y-43101371D01*
X155276354Y-43101371D02*
X155276354Y-42501371D01*
X155276354Y-42501371D02*
X154990640Y-42501371D01*
X154733497Y-43101371D02*
X154733497Y-42501371D01*
X154733497Y-42501371D02*
X154590640Y-42501371D01*
X154590640Y-42501371D02*
X154504926Y-42529942D01*
X154504926Y-42529942D02*
X154447783Y-42587085D01*
X154447783Y-42587085D02*
X154419212Y-42644228D01*
X154419212Y-42644228D02*
X154390640Y-42758514D01*
X154390640Y-42758514D02*
X154390640Y-42844228D01*
X154390640Y-42844228D02*
X154419212Y-42958514D01*
X154419212Y-42958514D02*
X154447783Y-43015657D01*
X154447783Y-43015657D02*
X154504926Y-43072800D01*
X154504926Y-43072800D02*
X154590640Y-43101371D01*
X154590640Y-43101371D02*
X154733497Y-43101371D01*
X153819212Y-43101371D02*
X154162069Y-43101371D01*
X153990640Y-43101371D02*
X153990640Y-42501371D01*
X153990640Y-42501371D02*
X154047783Y-42587085D01*
X154047783Y-42587085D02*
X154104926Y-42644228D01*
X154104926Y-42644228D02*
X154162069Y-42672800D01*
X160482068Y-44236371D02*
X160282068Y-44836371D01*
X160282068Y-44836371D02*
X160082068Y-44236371D01*
X159539210Y-44779228D02*
X159567782Y-44807800D01*
X159567782Y-44807800D02*
X159653496Y-44836371D01*
X159653496Y-44836371D02*
X159710639Y-44836371D01*
X159710639Y-44836371D02*
X159796353Y-44807800D01*
X159796353Y-44807800D02*
X159853496Y-44750657D01*
X159853496Y-44750657D02*
X159882067Y-44693514D01*
X159882067Y-44693514D02*
X159910639Y-44579228D01*
X159910639Y-44579228D02*
X159910639Y-44493514D01*
X159910639Y-44493514D02*
X159882067Y-44379228D01*
X159882067Y-44379228D02*
X159853496Y-44322085D01*
X159853496Y-44322085D02*
X159796353Y-44264942D01*
X159796353Y-44264942D02*
X159710639Y-44236371D01*
X159710639Y-44236371D02*
X159653496Y-44236371D01*
X159653496Y-44236371D02*
X159567782Y-44264942D01*
X159567782Y-44264942D02*
X159539210Y-44293514D01*
X158939210Y-44779228D02*
X158967782Y-44807800D01*
X158967782Y-44807800D02*
X159053496Y-44836371D01*
X159053496Y-44836371D02*
X159110639Y-44836371D01*
X159110639Y-44836371D02*
X159196353Y-44807800D01*
X159196353Y-44807800D02*
X159253496Y-44750657D01*
X159253496Y-44750657D02*
X159282067Y-44693514D01*
X159282067Y-44693514D02*
X159310639Y-44579228D01*
X159310639Y-44579228D02*
X159310639Y-44493514D01*
X159310639Y-44493514D02*
X159282067Y-44379228D01*
X159282067Y-44379228D02*
X159253496Y-44322085D01*
X159253496Y-44322085D02*
X159196353Y-44264942D01*
X159196353Y-44264942D02*
X159110639Y-44236371D01*
X159110639Y-44236371D02*
X159053496Y-44236371D01*
X159053496Y-44236371D02*
X158967782Y-44264942D01*
X158967782Y-44264942D02*
X158939210Y-44293514D01*
D13*
X77850432Y-46556928D02*
X77564718Y-46556928D01*
X77564718Y-46556928D02*
X77421861Y-46628357D01*
X77421861Y-46628357D02*
X77279004Y-46771214D01*
X77279004Y-46771214D02*
X77207575Y-47056928D01*
X77207575Y-47056928D02*
X77207575Y-47556928D01*
X77207575Y-47556928D02*
X77279004Y-47842642D01*
X77279004Y-47842642D02*
X77421861Y-47985500D01*
X77421861Y-47985500D02*
X77564718Y-48056928D01*
X77564718Y-48056928D02*
X77850432Y-48056928D01*
X77850432Y-48056928D02*
X77993290Y-47985500D01*
X77993290Y-47985500D02*
X78136147Y-47842642D01*
X78136147Y-47842642D02*
X78207575Y-47556928D01*
X78207575Y-47556928D02*
X78207575Y-47056928D01*
X78207575Y-47056928D02*
X78136147Y-46771214D01*
X78136147Y-46771214D02*
X77993290Y-46628357D01*
X77993290Y-46628357D02*
X77850432Y-46556928D01*
X76564718Y-46556928D02*
X76564718Y-47771214D01*
X76564718Y-47771214D02*
X76493289Y-47914071D01*
X76493289Y-47914071D02*
X76421861Y-47985500D01*
X76421861Y-47985500D02*
X76279003Y-48056928D01*
X76279003Y-48056928D02*
X75993289Y-48056928D01*
X75993289Y-48056928D02*
X75850432Y-47985500D01*
X75850432Y-47985500D02*
X75779003Y-47914071D01*
X75779003Y-47914071D02*
X75707575Y-47771214D01*
X75707575Y-47771214D02*
X75707575Y-46556928D01*
X75207574Y-46556928D02*
X74350432Y-46556928D01*
X74779003Y-48056928D02*
X74779003Y-46556928D01*
X72779003Y-46699785D02*
X72707575Y-46628357D01*
X72707575Y-46628357D02*
X72564718Y-46556928D01*
X72564718Y-46556928D02*
X72207575Y-46556928D01*
X72207575Y-46556928D02*
X72064718Y-46628357D01*
X72064718Y-46628357D02*
X71993289Y-46699785D01*
X71993289Y-46699785D02*
X71921860Y-46842642D01*
X71921860Y-46842642D02*
X71921860Y-46985500D01*
X71921860Y-46985500D02*
X71993289Y-47199785D01*
X71993289Y-47199785D02*
X72850432Y-48056928D01*
X72850432Y-48056928D02*
X71921860Y-48056928D01*
D10*
X159562068Y-35516371D02*
X159447782Y-35516371D01*
X159447782Y-35516371D02*
X159390639Y-35544942D01*
X159390639Y-35544942D02*
X159333496Y-35602085D01*
X159333496Y-35602085D02*
X159304925Y-35716371D01*
X159304925Y-35716371D02*
X159304925Y-35916371D01*
X159304925Y-35916371D02*
X159333496Y-36030657D01*
X159333496Y-36030657D02*
X159390639Y-36087800D01*
X159390639Y-36087800D02*
X159447782Y-36116371D01*
X159447782Y-36116371D02*
X159562068Y-36116371D01*
X159562068Y-36116371D02*
X159619211Y-36087800D01*
X159619211Y-36087800D02*
X159676353Y-36030657D01*
X159676353Y-36030657D02*
X159704925Y-35916371D01*
X159704925Y-35916371D02*
X159704925Y-35716371D01*
X159704925Y-35716371D02*
X159676353Y-35602085D01*
X159676353Y-35602085D02*
X159619211Y-35544942D01*
X159619211Y-35544942D02*
X159562068Y-35516371D01*
X159047782Y-35516371D02*
X159047782Y-36002085D01*
X159047782Y-36002085D02*
X159019211Y-36059228D01*
X159019211Y-36059228D02*
X158990640Y-36087800D01*
X158990640Y-36087800D02*
X158933497Y-36116371D01*
X158933497Y-36116371D02*
X158819211Y-36116371D01*
X158819211Y-36116371D02*
X158762068Y-36087800D01*
X158762068Y-36087800D02*
X158733497Y-36059228D01*
X158733497Y-36059228D02*
X158704925Y-36002085D01*
X158704925Y-36002085D02*
X158704925Y-35516371D01*
X158504926Y-35516371D02*
X158162069Y-35516371D01*
X158333497Y-36116371D02*
X158333497Y-35516371D01*
X158104926Y-36173514D02*
X157647783Y-36173514D01*
X157504925Y-36116371D02*
X157504925Y-35516371D01*
X157504925Y-35516371D02*
X157276354Y-35516371D01*
X157276354Y-35516371D02*
X157219211Y-35544942D01*
X157219211Y-35544942D02*
X157190640Y-35573514D01*
X157190640Y-35573514D02*
X157162068Y-35630657D01*
X157162068Y-35630657D02*
X157162068Y-35716371D01*
X157162068Y-35716371D02*
X157190640Y-35773514D01*
X157190640Y-35773514D02*
X157219211Y-35802085D01*
X157219211Y-35802085D02*
X157276354Y-35830657D01*
X157276354Y-35830657D02*
X157504925Y-35830657D01*
X156962068Y-35516371D02*
X156819211Y-36116371D01*
X156819211Y-36116371D02*
X156704925Y-35687800D01*
X156704925Y-35687800D02*
X156590640Y-36116371D01*
X156590640Y-36116371D02*
X156447783Y-35516371D01*
X156362069Y-36173514D02*
X155904926Y-36173514D01*
X155476354Y-36116371D02*
X155762068Y-36116371D01*
X155762068Y-36116371D02*
X155762068Y-35516371D01*
X155276354Y-35802085D02*
X155076354Y-35802085D01*
X154990640Y-36116371D02*
X155276354Y-36116371D01*
X155276354Y-36116371D02*
X155276354Y-35516371D01*
X155276354Y-35516371D02*
X154990640Y-35516371D01*
X154733497Y-36116371D02*
X154733497Y-35516371D01*
X154733497Y-35516371D02*
X154590640Y-35516371D01*
X154590640Y-35516371D02*
X154504926Y-35544942D01*
X154504926Y-35544942D02*
X154447783Y-35602085D01*
X154447783Y-35602085D02*
X154419212Y-35659228D01*
X154419212Y-35659228D02*
X154390640Y-35773514D01*
X154390640Y-35773514D02*
X154390640Y-35859228D01*
X154390640Y-35859228D02*
X154419212Y-35973514D01*
X154419212Y-35973514D02*
X154447783Y-36030657D01*
X154447783Y-36030657D02*
X154504926Y-36087800D01*
X154504926Y-36087800D02*
X154590640Y-36116371D01*
X154590640Y-36116371D02*
X154733497Y-36116371D01*
X154190640Y-35516371D02*
X153819212Y-35516371D01*
X153819212Y-35516371D02*
X154019212Y-35744942D01*
X154019212Y-35744942D02*
X153933497Y-35744942D01*
X153933497Y-35744942D02*
X153876355Y-35773514D01*
X153876355Y-35773514D02*
X153847783Y-35802085D01*
X153847783Y-35802085D02*
X153819212Y-35859228D01*
X153819212Y-35859228D02*
X153819212Y-36002085D01*
X153819212Y-36002085D02*
X153847783Y-36059228D01*
X153847783Y-36059228D02*
X153876355Y-36087800D01*
X153876355Y-36087800D02*
X153933497Y-36116371D01*
X153933497Y-36116371D02*
X154104926Y-36116371D01*
X154104926Y-36116371D02*
X154162069Y-36087800D01*
X154162069Y-36087800D02*
X154190640Y-36059228D01*
X157856353Y-57086371D02*
X157856353Y-56486371D01*
X157856353Y-56486371D02*
X157713496Y-56486371D01*
X157713496Y-56486371D02*
X157627782Y-56514942D01*
X157627782Y-56514942D02*
X157570639Y-56572085D01*
X157570639Y-56572085D02*
X157542068Y-56629228D01*
X157542068Y-56629228D02*
X157513496Y-56743514D01*
X157513496Y-56743514D02*
X157513496Y-56829228D01*
X157513496Y-56829228D02*
X157542068Y-56943514D01*
X157542068Y-56943514D02*
X157570639Y-57000657D01*
X157570639Y-57000657D02*
X157627782Y-57057800D01*
X157627782Y-57057800D02*
X157713496Y-57086371D01*
X157713496Y-57086371D02*
X157856353Y-57086371D01*
X157256353Y-57086371D02*
X157256353Y-56486371D01*
X156999211Y-57057800D02*
X156913497Y-57086371D01*
X156913497Y-57086371D02*
X156770639Y-57086371D01*
X156770639Y-57086371D02*
X156713497Y-57057800D01*
X156713497Y-57057800D02*
X156684925Y-57029228D01*
X156684925Y-57029228D02*
X156656354Y-56972085D01*
X156656354Y-56972085D02*
X156656354Y-56914942D01*
X156656354Y-56914942D02*
X156684925Y-56857800D01*
X156684925Y-56857800D02*
X156713497Y-56829228D01*
X156713497Y-56829228D02*
X156770639Y-56800657D01*
X156770639Y-56800657D02*
X156884925Y-56772085D01*
X156884925Y-56772085D02*
X156942068Y-56743514D01*
X156942068Y-56743514D02*
X156970639Y-56714942D01*
X156970639Y-56714942D02*
X156999211Y-56657800D01*
X156999211Y-56657800D02*
X156999211Y-56600657D01*
X156999211Y-56600657D02*
X156970639Y-56543514D01*
X156970639Y-56543514D02*
X156942068Y-56514942D01*
X156942068Y-56514942D02*
X156884925Y-56486371D01*
X156884925Y-56486371D02*
X156742068Y-56486371D01*
X156742068Y-56486371D02*
X156656354Y-56514942D01*
X156399210Y-57086371D02*
X156399210Y-56486371D01*
X156399210Y-56486371D02*
X156170639Y-56486371D01*
X156170639Y-56486371D02*
X156113496Y-56514942D01*
X156113496Y-56514942D02*
X156084925Y-56543514D01*
X156084925Y-56543514D02*
X156056353Y-56600657D01*
X156056353Y-56600657D02*
X156056353Y-56686371D01*
X156056353Y-56686371D02*
X156084925Y-56743514D01*
X156084925Y-56743514D02*
X156113496Y-56772085D01*
X156113496Y-56772085D02*
X156170639Y-56800657D01*
X156170639Y-56800657D02*
X156399210Y-56800657D01*
X155942068Y-57143514D02*
X155484925Y-57143514D01*
X155370639Y-57057800D02*
X155284925Y-57086371D01*
X155284925Y-57086371D02*
X155142067Y-57086371D01*
X155142067Y-57086371D02*
X155084925Y-57057800D01*
X155084925Y-57057800D02*
X155056353Y-57029228D01*
X155056353Y-57029228D02*
X155027782Y-56972085D01*
X155027782Y-56972085D02*
X155027782Y-56914942D01*
X155027782Y-56914942D02*
X155056353Y-56857800D01*
X155056353Y-56857800D02*
X155084925Y-56829228D01*
X155084925Y-56829228D02*
X155142067Y-56800657D01*
X155142067Y-56800657D02*
X155256353Y-56772085D01*
X155256353Y-56772085D02*
X155313496Y-56743514D01*
X155313496Y-56743514D02*
X155342067Y-56714942D01*
X155342067Y-56714942D02*
X155370639Y-56657800D01*
X155370639Y-56657800D02*
X155370639Y-56600657D01*
X155370639Y-56600657D02*
X155342067Y-56543514D01*
X155342067Y-56543514D02*
X155313496Y-56514942D01*
X155313496Y-56514942D02*
X155256353Y-56486371D01*
X155256353Y-56486371D02*
X155113496Y-56486371D01*
X155113496Y-56486371D02*
X155027782Y-56514942D01*
X154427781Y-57029228D02*
X154456353Y-57057800D01*
X154456353Y-57057800D02*
X154542067Y-57086371D01*
X154542067Y-57086371D02*
X154599210Y-57086371D01*
X154599210Y-57086371D02*
X154684924Y-57057800D01*
X154684924Y-57057800D02*
X154742067Y-57000657D01*
X154742067Y-57000657D02*
X154770638Y-56943514D01*
X154770638Y-56943514D02*
X154799210Y-56829228D01*
X154799210Y-56829228D02*
X154799210Y-56743514D01*
X154799210Y-56743514D02*
X154770638Y-56629228D01*
X154770638Y-56629228D02*
X154742067Y-56572085D01*
X154742067Y-56572085D02*
X154684924Y-56514942D01*
X154684924Y-56514942D02*
X154599210Y-56486371D01*
X154599210Y-56486371D02*
X154542067Y-56486371D01*
X154542067Y-56486371D02*
X154456353Y-56514942D01*
X154456353Y-56514942D02*
X154427781Y-56543514D01*
X153884924Y-57086371D02*
X154170638Y-57086371D01*
X154170638Y-57086371D02*
X154170638Y-56486371D01*
X159176353Y-50086371D02*
X159176353Y-49486371D01*
X159176353Y-49486371D02*
X159033496Y-49486371D01*
X159033496Y-49486371D02*
X158947782Y-49514942D01*
X158947782Y-49514942D02*
X158890639Y-49572085D01*
X158890639Y-49572085D02*
X158862068Y-49629228D01*
X158862068Y-49629228D02*
X158833496Y-49743514D01*
X158833496Y-49743514D02*
X158833496Y-49829228D01*
X158833496Y-49829228D02*
X158862068Y-49943514D01*
X158862068Y-49943514D02*
X158890639Y-50000657D01*
X158890639Y-50000657D02*
X158947782Y-50057800D01*
X158947782Y-50057800D02*
X159033496Y-50086371D01*
X159033496Y-50086371D02*
X159176353Y-50086371D01*
X158576353Y-49772085D02*
X158376353Y-49772085D01*
X158290639Y-50086371D02*
X158576353Y-50086371D01*
X158576353Y-50086371D02*
X158576353Y-49486371D01*
X158576353Y-49486371D02*
X158290639Y-49486371D01*
X157833496Y-49772085D02*
X158033496Y-49772085D01*
X158033496Y-50086371D02*
X158033496Y-49486371D01*
X158033496Y-49486371D02*
X157747782Y-49486371D01*
X157547782Y-49914942D02*
X157262068Y-49914942D01*
X157604925Y-50086371D02*
X157404925Y-49486371D01*
X157404925Y-49486371D02*
X157204925Y-50086371D01*
X157004924Y-49486371D02*
X157004924Y-49972085D01*
X157004924Y-49972085D02*
X156976353Y-50029228D01*
X156976353Y-50029228D02*
X156947782Y-50057800D01*
X156947782Y-50057800D02*
X156890639Y-50086371D01*
X156890639Y-50086371D02*
X156776353Y-50086371D01*
X156776353Y-50086371D02*
X156719210Y-50057800D01*
X156719210Y-50057800D02*
X156690639Y-50029228D01*
X156690639Y-50029228D02*
X156662067Y-49972085D01*
X156662067Y-49972085D02*
X156662067Y-49486371D01*
X156090639Y-50086371D02*
X156376353Y-50086371D01*
X156376353Y-50086371D02*
X156376353Y-49486371D01*
X155976354Y-49486371D02*
X155633497Y-49486371D01*
X155804925Y-50086371D02*
X155804925Y-49486371D01*
X155576354Y-50143514D02*
X155119211Y-50143514D01*
X155004925Y-50057800D02*
X154919211Y-50086371D01*
X154919211Y-50086371D02*
X154776353Y-50086371D01*
X154776353Y-50086371D02*
X154719211Y-50057800D01*
X154719211Y-50057800D02*
X154690639Y-50029228D01*
X154690639Y-50029228D02*
X154662068Y-49972085D01*
X154662068Y-49972085D02*
X154662068Y-49914942D01*
X154662068Y-49914942D02*
X154690639Y-49857800D01*
X154690639Y-49857800D02*
X154719211Y-49829228D01*
X154719211Y-49829228D02*
X154776353Y-49800657D01*
X154776353Y-49800657D02*
X154890639Y-49772085D01*
X154890639Y-49772085D02*
X154947782Y-49743514D01*
X154947782Y-49743514D02*
X154976353Y-49714942D01*
X154976353Y-49714942D02*
X155004925Y-49657800D01*
X155004925Y-49657800D02*
X155004925Y-49600657D01*
X155004925Y-49600657D02*
X154976353Y-49543514D01*
X154976353Y-49543514D02*
X154947782Y-49514942D01*
X154947782Y-49514942D02*
X154890639Y-49486371D01*
X154890639Y-49486371D02*
X154747782Y-49486371D01*
X154747782Y-49486371D02*
X154662068Y-49514942D01*
X154462067Y-49486371D02*
X154319210Y-50086371D01*
X154319210Y-50086371D02*
X154204924Y-49657800D01*
X154204924Y-49657800D02*
X154090639Y-50086371D01*
X154090639Y-50086371D02*
X153947782Y-49486371D01*
X160082068Y-34274942D02*
X160139211Y-34246371D01*
X160139211Y-34246371D02*
X160224925Y-34246371D01*
X160224925Y-34246371D02*
X160310639Y-34274942D01*
X160310639Y-34274942D02*
X160367782Y-34332085D01*
X160367782Y-34332085D02*
X160396353Y-34389228D01*
X160396353Y-34389228D02*
X160424925Y-34503514D01*
X160424925Y-34503514D02*
X160424925Y-34589228D01*
X160424925Y-34589228D02*
X160396353Y-34703514D01*
X160396353Y-34703514D02*
X160367782Y-34760657D01*
X160367782Y-34760657D02*
X160310639Y-34817800D01*
X160310639Y-34817800D02*
X160224925Y-34846371D01*
X160224925Y-34846371D02*
X160167782Y-34846371D01*
X160167782Y-34846371D02*
X160082068Y-34817800D01*
X160082068Y-34817800D02*
X160053496Y-34789228D01*
X160053496Y-34789228D02*
X160053496Y-34589228D01*
X160053496Y-34589228D02*
X160167782Y-34589228D01*
X159796353Y-34846371D02*
X159796353Y-34246371D01*
X159796353Y-34246371D02*
X159453496Y-34846371D01*
X159453496Y-34846371D02*
X159453496Y-34246371D01*
X159167782Y-34846371D02*
X159167782Y-34246371D01*
X159167782Y-34246371D02*
X159024925Y-34246371D01*
X159024925Y-34246371D02*
X158939211Y-34274942D01*
X158939211Y-34274942D02*
X158882068Y-34332085D01*
X158882068Y-34332085D02*
X158853497Y-34389228D01*
X158853497Y-34389228D02*
X158824925Y-34503514D01*
X158824925Y-34503514D02*
X158824925Y-34589228D01*
X158824925Y-34589228D02*
X158853497Y-34703514D01*
X158853497Y-34703514D02*
X158882068Y-34760657D01*
X158882068Y-34760657D02*
X158939211Y-34817800D01*
X158939211Y-34817800D02*
X159024925Y-34846371D01*
X159024925Y-34846371D02*
X159167782Y-34846371D01*
D12*
X165180489Y-74095828D02*
X165180489Y-72595828D01*
X165180489Y-73310114D02*
X164323346Y-73310114D01*
X164323346Y-74095828D02*
X164323346Y-72595828D01*
X163609060Y-74095828D02*
X163609060Y-72595828D01*
X162180488Y-74095828D02*
X162894774Y-74095828D01*
X162894774Y-74095828D02*
X162894774Y-72595828D01*
X161680488Y-73524400D02*
X160537631Y-73524400D01*
X159537630Y-72595828D02*
X159394773Y-72595828D01*
X159394773Y-72595828D02*
X159251916Y-72667257D01*
X159251916Y-72667257D02*
X159180488Y-72738685D01*
X159180488Y-72738685D02*
X159109059Y-72881542D01*
X159109059Y-72881542D02*
X159037630Y-73167257D01*
X159037630Y-73167257D02*
X159037630Y-73524400D01*
X159037630Y-73524400D02*
X159109059Y-73810114D01*
X159109059Y-73810114D02*
X159180488Y-73952971D01*
X159180488Y-73952971D02*
X159251916Y-74024400D01*
X159251916Y-74024400D02*
X159394773Y-74095828D01*
X159394773Y-74095828D02*
X159537630Y-74095828D01*
X159537630Y-74095828D02*
X159680488Y-74024400D01*
X159680488Y-74024400D02*
X159751916Y-73952971D01*
X159751916Y-73952971D02*
X159823345Y-73810114D01*
X159823345Y-73810114D02*
X159894773Y-73524400D01*
X159894773Y-73524400D02*
X159894773Y-73167257D01*
X159894773Y-73167257D02*
X159823345Y-72881542D01*
X159823345Y-72881542D02*
X159751916Y-72738685D01*
X159751916Y-72738685D02*
X159680488Y-72667257D01*
X159680488Y-72667257D02*
X159537630Y-72595828D01*
X157751917Y-72595828D02*
X158037631Y-72595828D01*
X158037631Y-72595828D02*
X158180488Y-72667257D01*
X158180488Y-72667257D02*
X158251917Y-72738685D01*
X158251917Y-72738685D02*
X158394774Y-72952971D01*
X158394774Y-72952971D02*
X158466202Y-73238685D01*
X158466202Y-73238685D02*
X158466202Y-73810114D01*
X158466202Y-73810114D02*
X158394774Y-73952971D01*
X158394774Y-73952971D02*
X158323345Y-74024400D01*
X158323345Y-74024400D02*
X158180488Y-74095828D01*
X158180488Y-74095828D02*
X157894774Y-74095828D01*
X157894774Y-74095828D02*
X157751917Y-74024400D01*
X157751917Y-74024400D02*
X157680488Y-73952971D01*
X157680488Y-73952971D02*
X157609059Y-73810114D01*
X157609059Y-73810114D02*
X157609059Y-73452971D01*
X157609059Y-73452971D02*
X157680488Y-73310114D01*
X157680488Y-73310114D02*
X157751917Y-73238685D01*
X157751917Y-73238685D02*
X157894774Y-73167257D01*
X157894774Y-73167257D02*
X158180488Y-73167257D01*
X158180488Y-73167257D02*
X158323345Y-73238685D01*
X158323345Y-73238685D02*
X158394774Y-73310114D01*
X158394774Y-73310114D02*
X158466202Y-73452971D01*
D10*
X160082068Y-37449942D02*
X160139211Y-37421371D01*
X160139211Y-37421371D02*
X160224925Y-37421371D01*
X160224925Y-37421371D02*
X160310639Y-37449942D01*
X160310639Y-37449942D02*
X160367782Y-37507085D01*
X160367782Y-37507085D02*
X160396353Y-37564228D01*
X160396353Y-37564228D02*
X160424925Y-37678514D01*
X160424925Y-37678514D02*
X160424925Y-37764228D01*
X160424925Y-37764228D02*
X160396353Y-37878514D01*
X160396353Y-37878514D02*
X160367782Y-37935657D01*
X160367782Y-37935657D02*
X160310639Y-37992800D01*
X160310639Y-37992800D02*
X160224925Y-38021371D01*
X160224925Y-38021371D02*
X160167782Y-38021371D01*
X160167782Y-38021371D02*
X160082068Y-37992800D01*
X160082068Y-37992800D02*
X160053496Y-37964228D01*
X160053496Y-37964228D02*
X160053496Y-37764228D01*
X160053496Y-37764228D02*
X160167782Y-37764228D01*
X159796353Y-38021371D02*
X159796353Y-37421371D01*
X159796353Y-37421371D02*
X159453496Y-38021371D01*
X159453496Y-38021371D02*
X159453496Y-37421371D01*
X159167782Y-38021371D02*
X159167782Y-37421371D01*
X159167782Y-37421371D02*
X159024925Y-37421371D01*
X159024925Y-37421371D02*
X158939211Y-37449942D01*
X158939211Y-37449942D02*
X158882068Y-37507085D01*
X158882068Y-37507085D02*
X158853497Y-37564228D01*
X158853497Y-37564228D02*
X158824925Y-37678514D01*
X158824925Y-37678514D02*
X158824925Y-37764228D01*
X158824925Y-37764228D02*
X158853497Y-37878514D01*
X158853497Y-37878514D02*
X158882068Y-37935657D01*
X158882068Y-37935657D02*
X158939211Y-37992800D01*
X158939211Y-37992800D02*
X159024925Y-38021371D01*
X159024925Y-38021371D02*
X159167782Y-38021371D01*
D11*
X80540652Y-68904438D02*
X80540652Y-66904438D01*
X80540652Y-66904438D02*
X79778747Y-66904438D01*
X79778747Y-66904438D02*
X79588271Y-66999676D01*
X79588271Y-66999676D02*
X79493033Y-67094914D01*
X79493033Y-67094914D02*
X79397795Y-67285390D01*
X79397795Y-67285390D02*
X79397795Y-67571104D01*
X79397795Y-67571104D02*
X79493033Y-67761580D01*
X79493033Y-67761580D02*
X79588271Y-67856819D01*
X79588271Y-67856819D02*
X79778747Y-67952057D01*
X79778747Y-67952057D02*
X80540652Y-67952057D01*
X78159700Y-66904438D02*
X77778747Y-66904438D01*
X77778747Y-66904438D02*
X77588271Y-66999676D01*
X77588271Y-66999676D02*
X77397795Y-67190152D01*
X77397795Y-67190152D02*
X77302557Y-67571104D01*
X77302557Y-67571104D02*
X77302557Y-68237771D01*
X77302557Y-68237771D02*
X77397795Y-68618723D01*
X77397795Y-68618723D02*
X77588271Y-68809200D01*
X77588271Y-68809200D02*
X77778747Y-68904438D01*
X77778747Y-68904438D02*
X78159700Y-68904438D01*
X78159700Y-68904438D02*
X78350176Y-68809200D01*
X78350176Y-68809200D02*
X78540652Y-68618723D01*
X78540652Y-68618723D02*
X78635890Y-68237771D01*
X78635890Y-68237771D02*
X78635890Y-67571104D01*
X78635890Y-67571104D02*
X78540652Y-67190152D01*
X78540652Y-67190152D02*
X78350176Y-66999676D01*
X78350176Y-66999676D02*
X78159700Y-66904438D01*
X76635890Y-66904438D02*
X76159700Y-68904438D01*
X76159700Y-68904438D02*
X75778747Y-67475866D01*
X75778747Y-67475866D02*
X75397795Y-68904438D01*
X75397795Y-68904438D02*
X74921605Y-66904438D01*
X74159700Y-67856819D02*
X73493033Y-67856819D01*
X73207319Y-68904438D02*
X74159700Y-68904438D01*
X74159700Y-68904438D02*
X74159700Y-66904438D01*
X74159700Y-66904438D02*
X73207319Y-66904438D01*
X71207319Y-68904438D02*
X71873986Y-67952057D01*
X72350176Y-68904438D02*
X72350176Y-66904438D01*
X72350176Y-66904438D02*
X71588271Y-66904438D01*
X71588271Y-66904438D02*
X71397795Y-66999676D01*
X71397795Y-66999676D02*
X71302557Y-67094914D01*
X71302557Y-67094914D02*
X71207319Y-67285390D01*
X71207319Y-67285390D02*
X71207319Y-67571104D01*
X71207319Y-67571104D02*
X71302557Y-67761580D01*
X71302557Y-67761580D02*
X71397795Y-67856819D01*
X71397795Y-67856819D02*
X71588271Y-67952057D01*
X71588271Y-67952057D02*
X72350176Y-67952057D01*
X80540652Y-72124438D02*
X80540652Y-70124438D01*
X79588271Y-72124438D02*
X79588271Y-70124438D01*
X79588271Y-70124438D02*
X78445414Y-72124438D01*
X78445414Y-72124438D02*
X78445414Y-70124438D01*
X77493033Y-72124438D02*
X77493033Y-70124438D01*
X77493033Y-70124438D02*
X76731128Y-70124438D01*
X76731128Y-70124438D02*
X76540652Y-70219676D01*
X76540652Y-70219676D02*
X76445414Y-70314914D01*
X76445414Y-70314914D02*
X76350176Y-70505390D01*
X76350176Y-70505390D02*
X76350176Y-70791104D01*
X76350176Y-70791104D02*
X76445414Y-70981580D01*
X76445414Y-70981580D02*
X76540652Y-71076819D01*
X76540652Y-71076819D02*
X76731128Y-71172057D01*
X76731128Y-71172057D02*
X77493033Y-71172057D01*
X75493033Y-70124438D02*
X75493033Y-71743485D01*
X75493033Y-71743485D02*
X75397795Y-71933961D01*
X75397795Y-71933961D02*
X75302557Y-72029200D01*
X75302557Y-72029200D02*
X75112081Y-72124438D01*
X75112081Y-72124438D02*
X74731128Y-72124438D01*
X74731128Y-72124438D02*
X74540652Y-72029200D01*
X74540652Y-72029200D02*
X74445414Y-71933961D01*
X74445414Y-71933961D02*
X74350176Y-71743485D01*
X74350176Y-71743485D02*
X74350176Y-70124438D01*
X73683509Y-70124438D02*
X72540652Y-70124438D01*
X73112081Y-72124438D02*
X73112081Y-70124438D01*
D14*
X67060000Y-81325000D02*
X167060000Y-81325000D01*
X167060000Y-131325000D01*
X67060000Y-131325000D01*
X67060000Y-81325000D01*
X67060000Y-31325000D02*
X167060000Y-31325000D01*
X167060000Y-81325000D01*
X67060000Y-81325000D01*
X67060000Y-31325000D01*
M02*
