%TF.GenerationSoftware,KiCad,Pcbnew,7.0.11+dfsg-1build4*%
%TF.CreationDate,2026-05-15T19:55:37-05:00*%
%TF.ProjectId,,58585858-5858-4585-9858-585858585858,rev?*%
%TF.SameCoordinates,Original*%
%TF.FileFunction,Soldermask,Top*%
%TF.FilePolarity,Negative*%
%FSLAX46Y46*%
G04 Gerber Fmt 4.6, Leading zero omitted, Abs format (unit mm)*
G04 Created by KiCad (PCBNEW 7.0.11+dfsg-1build4) date 2026-05-15 19:55:37*
%MOMM*%
%LPD*%
G01*
G04 APERTURE LIST*
G04 Aperture macros list*
%AMRoundRect*
0 Rectangle with rounded corners*
0 $1 Rounding radius*
0 $2 $3 $4 $5 $6 $7 $8 $9 X,Y pos of 4 corners*
0 Add a 4 corners polygon primitive as box body*
4,1,4,$2,$3,$4,$5,$6,$7,$8,$9,$2,$3,0*
0 Add four circle primitives for the rounded corners*
1,1,$1+$1,$2,$3*
1,1,$1+$1,$4,$5*
1,1,$1+$1,$6,$7*
1,1,$1+$1,$8,$9*
0 Add four rect primitives between the rounded corners*
20,1,$1+$1,$2,$3,$4,$5,0*
20,1,$1+$1,$4,$5,$6,$7,0*
20,1,$1+$1,$6,$7,$8,$9,0*
20,1,$1+$1,$8,$9,$2,$3,0*%
G04 Aperture macros list end*
%ADD10RoundRect,0.249999X-1.425001X0.450001X-1.425001X-0.450001X1.425001X-0.450001X1.425001X0.450001X0*%
%ADD11RoundRect,0.250000X-0.325000X-0.450000X0.325000X-0.450000X0.325000X0.450000X-0.325000X0.450000X0*%
%ADD12C,3.200000*%
%ADD13R,1.700000X1.700000*%
%ADD14C,1.700000*%
%ADD15RoundRect,0.250000X-0.350000X-0.450000X0.350000X-0.450000X0.350000X0.450000X-0.350000X0.450000X0*%
%ADD16R,1.600000X1.600000*%
%ADD17O,1.600000X1.600000*%
%ADD18RoundRect,0.250001X0.624999X-0.462499X0.624999X0.462499X-0.624999X0.462499X-0.624999X-0.462499X0*%
%ADD19RoundRect,0.250000X0.337500X0.475000X-0.337500X0.475000X-0.337500X-0.475000X0.337500X-0.475000X0*%
%ADD20RoundRect,0.250000X0.325000X0.450000X-0.325000X0.450000X-0.325000X-0.450000X0.325000X-0.450000X0*%
%ADD21RoundRect,0.250000X0.350000X0.450000X-0.350000X0.450000X-0.350000X-0.450000X0.350000X-0.450000X0*%
%ADD22R,1.550000X1.300000*%
%ADD23RoundRect,0.150000X0.825000X0.150000X-0.825000X0.150000X-0.825000X-0.150000X0.825000X-0.150000X0*%
%ADD24RoundRect,0.250000X-0.337500X-0.475000X0.337500X-0.475000X0.337500X0.475000X-0.337500X0.475000X0*%
%ADD25RoundRect,0.250000X-0.450000X0.350000X-0.450000X-0.350000X0.450000X-0.350000X0.450000X0.350000X0*%
%ADD26RoundRect,0.250000X1.000000X-1.950000X1.000000X1.950000X-1.000000X1.950000X-1.000000X-1.950000X0*%
%ADD27C,0.650000*%
%ADD28R,1.450000X0.600000*%
%ADD29R,1.450000X0.300000*%
%ADD30O,2.100000X1.000000*%
%ADD31O,1.600000X1.000000*%
%ADD32R,2.400000X2.400000*%
%ADD33C,2.400000*%
%TA.AperFunction,Profile*%
%ADD34C,0.050000*%
%TD*%
G04 APERTURE END LIST*
D10*
%TO.C,R5*%
X78740000Y-95275000D03*
X78740000Y-101375000D03*
%TD*%
D11*
%TO.C,D3*%
X134620000Y-121755000D03*
X136670000Y-121755000D03*
%TD*%
D12*
%TO.C,MH01*%
X158060000Y-128825000D03*
%TD*%
D13*
%TO.C,U5*%
X131445000Y-88196500D03*
D14*
X133985000Y-88196500D03*
X136525000Y-88196500D03*
X139065000Y-88196500D03*
%TD*%
D12*
%TO.C,MH07*%
X97100000Y-128825000D03*
%TD*%
D15*
%TO.C,R15*%
X130175000Y-121755000D03*
X132175000Y-121755000D03*
%TD*%
D16*
%TO.C,U4*%
X104765000Y-84675000D03*
D17*
X104765000Y-87215000D03*
X104765000Y-89755000D03*
X104765000Y-92295000D03*
X104765000Y-94835000D03*
X104765000Y-97375000D03*
X104765000Y-99915000D03*
X104765000Y-102455000D03*
X120005000Y-102455000D03*
X120005000Y-99915000D03*
X120005000Y-97375000D03*
X120005000Y-94835000D03*
X120005000Y-92295000D03*
X120005000Y-89755000D03*
X120005000Y-87215000D03*
X120005000Y-84675000D03*
%TD*%
D10*
%TO.C,R8*%
X78740000Y-108075000D03*
X78740000Y-114175000D03*
%TD*%
D18*
%TO.C,F1*%
X100965000Y-85995000D03*
X100965000Y-83020000D03*
%TD*%
D19*
%TO.C,C4*%
X88900000Y-100800000D03*
X86825000Y-100800000D03*
%TD*%
D20*
%TO.C,D4*%
X88655000Y-116040000D03*
X86605000Y-116040000D03*
%TD*%
D21*
%TO.C,R9*%
X141065000Y-121755000D03*
X139065000Y-121755000D03*
%TD*%
D10*
%TO.C,R6*%
X78740000Y-82575000D03*
X78740000Y-88675000D03*
%TD*%
D12*
%TO.C,MH09*%
X76780000Y-128825000D03*
%TD*%
%TO.C,MH08*%
X86940000Y-128825000D03*
%TD*%
%TO.C,MH06*%
X107260000Y-128825000D03*
%TD*%
D22*
%TO.C,SW1*%
X109055000Y-115405000D03*
X117005000Y-115405000D03*
X109055000Y-119905000D03*
X117005000Y-119905000D03*
%TD*%
D23*
%TO.C,U1*%
X88200000Y-86195000D03*
X88200000Y-84925000D03*
X88200000Y-83655000D03*
X88200000Y-82385000D03*
X83250000Y-82385000D03*
X83250000Y-83655000D03*
X83250000Y-84925000D03*
X83250000Y-86195000D03*
%TD*%
D18*
%TO.C,F3*%
X100965000Y-111395000D03*
X100965000Y-108420000D03*
%TD*%
D21*
%TO.C,R14*%
X79740000Y-116675000D03*
X77740000Y-116675000D03*
%TD*%
D24*
%TO.C,C8*%
X82782500Y-100800000D03*
X84857500Y-100800000D03*
%TD*%
D25*
%TO.C,R1*%
X121285000Y-116580000D03*
X121285000Y-118580000D03*
%TD*%
D21*
%TO.C,R16*%
X127635000Y-121755000D03*
X125635000Y-121755000D03*
%TD*%
D23*
%TO.C,U2*%
X88135000Y-98895000D03*
X88135000Y-97625000D03*
X88135000Y-96355000D03*
X88135000Y-95085000D03*
X83185000Y-95085000D03*
X83185000Y-96355000D03*
X83185000Y-97625000D03*
X83185000Y-98895000D03*
%TD*%
D26*
%TO.C,C5*%
X94615000Y-117200000D03*
X94615000Y-109800000D03*
%TD*%
D24*
%TO.C,C7*%
X82550000Y-88100000D03*
X84625000Y-88100000D03*
%TD*%
D12*
%TO.C,MH05*%
X117420000Y-128825000D03*
%TD*%
D20*
%TO.C,D1*%
X88655000Y-90640000D03*
X86605000Y-90640000D03*
%TD*%
D15*
%TO.C,R3*%
X79375000Y-121120000D03*
X81375000Y-121120000D03*
%TD*%
%TO.C,R11*%
X82550000Y-116040000D03*
X84550000Y-116040000D03*
%TD*%
D19*
%TO.C,C6*%
X88435000Y-113500000D03*
X86360000Y-113500000D03*
%TD*%
D15*
%TO.C,R2*%
X79375000Y-123660000D03*
X81375000Y-123660000D03*
%TD*%
D27*
%TO.C,J2*%
X73850000Y-105535000D03*
X73850000Y-111315000D03*
D28*
X75295000Y-105175000D03*
X75295000Y-105975000D03*
D29*
X75295000Y-107175000D03*
X75295000Y-108175000D03*
X75295000Y-108675000D03*
X75295000Y-109675000D03*
D28*
X75295000Y-110875000D03*
X75295000Y-111675000D03*
X75295000Y-111675000D03*
X75295000Y-110875000D03*
D29*
X75295000Y-110175000D03*
X75295000Y-109175000D03*
X75295000Y-107675000D03*
X75295000Y-106675000D03*
D28*
X75295000Y-105975000D03*
X75295000Y-105175000D03*
D30*
X74380000Y-104105000D03*
D31*
X70200000Y-104105000D03*
D30*
X74380000Y-112745000D03*
D31*
X70200000Y-112745000D03*
%TD*%
D12*
%TO.C,MH04*%
X127580000Y-128825000D03*
%TD*%
D27*
%TO.C,J4*%
X73850000Y-83835000D03*
X73850000Y-89615000D03*
D28*
X75295000Y-83475000D03*
X75295000Y-84275000D03*
D29*
X75295000Y-85475000D03*
X75295000Y-86475000D03*
X75295000Y-86975000D03*
X75295000Y-87975000D03*
D28*
X75295000Y-89175000D03*
X75295000Y-89975000D03*
X75295000Y-89975000D03*
X75295000Y-89175000D03*
D29*
X75295000Y-88475000D03*
X75295000Y-87475000D03*
X75295000Y-85975000D03*
X75295000Y-84975000D03*
D28*
X75295000Y-84275000D03*
X75295000Y-83475000D03*
D30*
X74380000Y-82405000D03*
D31*
X70200000Y-82405000D03*
D30*
X74380000Y-91045000D03*
D31*
X70200000Y-91045000D03*
%TD*%
D19*
%TO.C,C2*%
X88435000Y-88100000D03*
X86360000Y-88100000D03*
%TD*%
D20*
%TO.C,D2*%
X88900000Y-103340000D03*
X86850000Y-103340000D03*
%TD*%
D27*
%TO.C,J1*%
X73850000Y-116435000D03*
X73850000Y-122215000D03*
D28*
X75295000Y-116075000D03*
X75295000Y-116875000D03*
D29*
X75295000Y-118075000D03*
X75295000Y-119075000D03*
X75295000Y-119575000D03*
X75295000Y-120575000D03*
D28*
X75295000Y-121775000D03*
X75295000Y-122575000D03*
X75295000Y-122575000D03*
X75295000Y-121775000D03*
D29*
X75295000Y-121075000D03*
X75295000Y-120075000D03*
X75295000Y-118575000D03*
X75295000Y-117575000D03*
D28*
X75295000Y-116875000D03*
X75295000Y-116075000D03*
D30*
X74380000Y-115005000D03*
D31*
X70200000Y-115005000D03*
D30*
X74380000Y-123645000D03*
D31*
X70200000Y-123645000D03*
%TD*%
D21*
%TO.C,R12*%
X80375000Y-91275000D03*
X78375000Y-91275000D03*
%TD*%
D32*
%TO.C,J5*%
X162900000Y-105025000D03*
D33*
X151470000Y-106775000D03*
X162900000Y-101525000D03*
X151470000Y-103275000D03*
X162900000Y-98025000D03*
X151470000Y-99775000D03*
X162900000Y-94525000D03*
X151470000Y-96275000D03*
X162900000Y-91025000D03*
X151470000Y-92775000D03*
X162900000Y-87525000D03*
X151470000Y-89275000D03*
X162900000Y-84025000D03*
X151470000Y-85775000D03*
%TD*%
D12*
%TO.C,MH02*%
X147900000Y-128825000D03*
%TD*%
%TO.C,MH03*%
X137740000Y-128825000D03*
%TD*%
D26*
%TO.C,C1*%
X94615000Y-91690000D03*
X94615000Y-84290000D03*
%TD*%
D27*
%TO.C,J3*%
X73850000Y-94685000D03*
X73850000Y-100465000D03*
D28*
X75295000Y-94325000D03*
X75295000Y-95125000D03*
D29*
X75295000Y-96325000D03*
X75295000Y-97325000D03*
X75295000Y-97825000D03*
X75295000Y-98825000D03*
D28*
X75295000Y-100025000D03*
X75295000Y-100825000D03*
X75295000Y-100825000D03*
X75295000Y-100025000D03*
D29*
X75295000Y-99325000D03*
X75295000Y-98325000D03*
X75295000Y-96825000D03*
X75295000Y-95825000D03*
D28*
X75295000Y-95125000D03*
X75295000Y-94325000D03*
D30*
X74380000Y-93255000D03*
D31*
X70200000Y-93255000D03*
D30*
X74380000Y-101895000D03*
D31*
X70200000Y-101895000D03*
%TD*%
D24*
%TO.C,C9*%
X82380000Y-113500000D03*
X84455000Y-113500000D03*
%TD*%
D21*
%TO.C,R10*%
X145510000Y-121755000D03*
X143510000Y-121755000D03*
%TD*%
%TO.C,R13*%
X80010000Y-103975000D03*
X78010000Y-103975000D03*
%TD*%
D15*
%TO.C,R4*%
X82820000Y-90640000D03*
X84820000Y-90640000D03*
%TD*%
%TO.C,R7*%
X82550000Y-103340000D03*
X84550000Y-103340000D03*
%TD*%
D23*
%TO.C,U3*%
X88135000Y-111595000D03*
X88135000Y-110325000D03*
X88135000Y-109055000D03*
X88135000Y-107785000D03*
X83185000Y-107785000D03*
X83185000Y-109055000D03*
X83185000Y-110325000D03*
X83185000Y-111595000D03*
%TD*%
D18*
%TO.C,F2*%
X100965000Y-98695000D03*
X100965000Y-95720000D03*
%TD*%
D26*
%TO.C,C3*%
X94615000Y-104390000D03*
X94615000Y-96990000D03*
%TD*%
D21*
%TO.C,R10*%
X145510000Y-71755000D03*
X143510000Y-71755000D03*
%TD*%
D32*
%TO.C,J5*%
X162900000Y-55025000D03*
D33*
X151470000Y-56775000D03*
X162900000Y-51525000D03*
X151470000Y-53275000D03*
X162900000Y-48025000D03*
X151470000Y-49775000D03*
X162900000Y-44525000D03*
X151470000Y-46275000D03*
X162900000Y-41025000D03*
X151470000Y-42775000D03*
X162900000Y-37525000D03*
X151470000Y-39275000D03*
X162900000Y-34025000D03*
X151470000Y-35775000D03*
%TD*%
D19*
%TO.C,C6*%
X88435000Y-63500000D03*
X86360000Y-63500000D03*
%TD*%
D10*
%TO.C,R5*%
X78740000Y-45275000D03*
X78740000Y-51375000D03*
%TD*%
D12*
%TO.C,MH05*%
X117420000Y-78825000D03*
%TD*%
D27*
%TO.C,J4*%
X73850000Y-33835000D03*
X73850000Y-39615000D03*
D28*
X75295000Y-33475000D03*
X75295000Y-34275000D03*
D29*
X75295000Y-35475000D03*
X75295000Y-36475000D03*
X75295000Y-36975000D03*
X75295000Y-37975000D03*
D28*
X75295000Y-39175000D03*
X75295000Y-39975000D03*
X75295000Y-39975000D03*
X75295000Y-39175000D03*
D29*
X75295000Y-38475000D03*
X75295000Y-37475000D03*
X75295000Y-35975000D03*
X75295000Y-34975000D03*
D28*
X75295000Y-34275000D03*
X75295000Y-33475000D03*
D30*
X74380000Y-32405000D03*
D31*
X70200000Y-32405000D03*
D30*
X74380000Y-41045000D03*
D31*
X70200000Y-41045000D03*
%TD*%
D21*
%TO.C,R16*%
X127635000Y-71755000D03*
X125635000Y-71755000D03*
%TD*%
D26*
%TO.C,C1*%
X94615000Y-41690000D03*
X94615000Y-34290000D03*
%TD*%
D27*
%TO.C,J2*%
X73850000Y-55535000D03*
X73850000Y-61315000D03*
D28*
X75295000Y-55175000D03*
X75295000Y-55975000D03*
D29*
X75295000Y-57175000D03*
X75295000Y-58175000D03*
X75295000Y-58675000D03*
X75295000Y-59675000D03*
D28*
X75295000Y-60875000D03*
X75295000Y-61675000D03*
X75295000Y-61675000D03*
X75295000Y-60875000D03*
D29*
X75295000Y-60175000D03*
X75295000Y-59175000D03*
X75295000Y-57675000D03*
X75295000Y-56675000D03*
D28*
X75295000Y-55975000D03*
X75295000Y-55175000D03*
D30*
X74380000Y-54105000D03*
D31*
X70200000Y-54105000D03*
D30*
X74380000Y-62745000D03*
D31*
X70200000Y-62745000D03*
%TD*%
D12*
%TO.C,MH01*%
X158060000Y-78825000D03*
%TD*%
%TO.C,MH03*%
X137740000Y-78825000D03*
%TD*%
D15*
%TO.C,R11*%
X82550000Y-66040000D03*
X84550000Y-66040000D03*
%TD*%
%TO.C,R3*%
X79375000Y-71120000D03*
X81375000Y-71120000D03*
%TD*%
D16*
%TO.C,U4*%
X104765000Y-34675000D03*
D17*
X104765000Y-37215000D03*
X104765000Y-39755000D03*
X104765000Y-42295000D03*
X104765000Y-44835000D03*
X104765000Y-47375000D03*
X104765000Y-49915000D03*
X104765000Y-52455000D03*
X120005000Y-52455000D03*
X120005000Y-49915000D03*
X120005000Y-47375000D03*
X120005000Y-44835000D03*
X120005000Y-42295000D03*
X120005000Y-39755000D03*
X120005000Y-37215000D03*
X120005000Y-34675000D03*
%TD*%
D21*
%TO.C,R9*%
X141065000Y-71755000D03*
X139065000Y-71755000D03*
%TD*%
D26*
%TO.C,C5*%
X94615000Y-67200000D03*
X94615000Y-59800000D03*
%TD*%
D10*
%TO.C,R8*%
X78740000Y-58075000D03*
X78740000Y-64175000D03*
%TD*%
D15*
%TO.C,R2*%
X79375000Y-73660000D03*
X81375000Y-73660000D03*
%TD*%
D11*
%TO.C,D3*%
X134620000Y-71755000D03*
X136670000Y-71755000D03*
%TD*%
D15*
%TO.C,R15*%
X130175000Y-71755000D03*
X132175000Y-71755000D03*
%TD*%
D23*
%TO.C,U2*%
X88135000Y-48895000D03*
X88135000Y-47625000D03*
X88135000Y-46355000D03*
X88135000Y-45085000D03*
X83185000Y-45085000D03*
X83185000Y-46355000D03*
X83185000Y-47625000D03*
X83185000Y-48895000D03*
%TD*%
D18*
%TO.C,F2*%
X100965000Y-48695000D03*
X100965000Y-45720000D03*
%TD*%
D12*
%TO.C,MH09*%
X76780000Y-78825000D03*
%TD*%
D21*
%TO.C,R12*%
X80375000Y-41275000D03*
X78375000Y-41275000D03*
%TD*%
D12*
%TO.C,MH02*%
X147900000Y-78825000D03*
%TD*%
D20*
%TO.C,D4*%
X88655000Y-66040000D03*
X86605000Y-66040000D03*
%TD*%
D15*
%TO.C,R7*%
X82550000Y-53340000D03*
X84550000Y-53340000D03*
%TD*%
D12*
%TO.C,MH07*%
X97100000Y-78825000D03*
%TD*%
D24*
%TO.C,C9*%
X82380000Y-63500000D03*
X84455000Y-63500000D03*
%TD*%
D27*
%TO.C,J3*%
X73850000Y-44685000D03*
X73850000Y-50465000D03*
D28*
X75295000Y-44325000D03*
X75295000Y-45125000D03*
D29*
X75295000Y-46325000D03*
X75295000Y-47325000D03*
X75295000Y-47825000D03*
X75295000Y-48825000D03*
D28*
X75295000Y-50025000D03*
X75295000Y-50825000D03*
X75295000Y-50825000D03*
X75295000Y-50025000D03*
D29*
X75295000Y-49325000D03*
X75295000Y-48325000D03*
X75295000Y-46825000D03*
X75295000Y-45825000D03*
D28*
X75295000Y-45125000D03*
X75295000Y-44325000D03*
D30*
X74380000Y-43255000D03*
D31*
X70200000Y-43255000D03*
D30*
X74380000Y-51895000D03*
D31*
X70200000Y-51895000D03*
%TD*%
D12*
%TO.C,MH08*%
X86940000Y-78825000D03*
%TD*%
D15*
%TO.C,R4*%
X82820000Y-40640000D03*
X84820000Y-40640000D03*
%TD*%
D24*
%TO.C,C8*%
X82782500Y-50800000D03*
X84857500Y-50800000D03*
%TD*%
D27*
%TO.C,J1*%
X73850000Y-66435000D03*
X73850000Y-72215000D03*
D28*
X75295000Y-66075000D03*
X75295000Y-66875000D03*
D29*
X75295000Y-68075000D03*
X75295000Y-69075000D03*
X75295000Y-69575000D03*
X75295000Y-70575000D03*
D28*
X75295000Y-71775000D03*
X75295000Y-72575000D03*
X75295000Y-72575000D03*
X75295000Y-71775000D03*
D29*
X75295000Y-71075000D03*
X75295000Y-70075000D03*
X75295000Y-68575000D03*
X75295000Y-67575000D03*
D28*
X75295000Y-66875000D03*
X75295000Y-66075000D03*
D30*
X74380000Y-65005000D03*
D31*
X70200000Y-65005000D03*
D30*
X74380000Y-73645000D03*
D31*
X70200000Y-73645000D03*
%TD*%
D13*
%TO.C,U5*%
X131445000Y-38196500D03*
D14*
X133985000Y-38196500D03*
X136525000Y-38196500D03*
X139065000Y-38196500D03*
%TD*%
D19*
%TO.C,C2*%
X88435000Y-38100000D03*
X86360000Y-38100000D03*
%TD*%
D25*
%TO.C,R1*%
X121285000Y-66580000D03*
X121285000Y-68580000D03*
%TD*%
D21*
%TO.C,R13*%
X80010000Y-53975000D03*
X78010000Y-53975000D03*
%TD*%
D24*
%TO.C,C7*%
X82550000Y-38100000D03*
X84625000Y-38100000D03*
%TD*%
D18*
%TO.C,F1*%
X100965000Y-35995000D03*
X100965000Y-33020000D03*
%TD*%
D23*
%TO.C,U1*%
X88200000Y-36195000D03*
X88200000Y-34925000D03*
X88200000Y-33655000D03*
X88200000Y-32385000D03*
X83250000Y-32385000D03*
X83250000Y-33655000D03*
X83250000Y-34925000D03*
X83250000Y-36195000D03*
%TD*%
D22*
%TO.C,SW1*%
X109055000Y-65405000D03*
X117005000Y-65405000D03*
X109055000Y-69905000D03*
X117005000Y-69905000D03*
%TD*%
D10*
%TO.C,R6*%
X78740000Y-32575000D03*
X78740000Y-38675000D03*
%TD*%
D23*
%TO.C,U3*%
X88135000Y-61595000D03*
X88135000Y-60325000D03*
X88135000Y-59055000D03*
X88135000Y-57785000D03*
X83185000Y-57785000D03*
X83185000Y-59055000D03*
X83185000Y-60325000D03*
X83185000Y-61595000D03*
%TD*%
D20*
%TO.C,D2*%
X88900000Y-53340000D03*
X86850000Y-53340000D03*
%TD*%
D19*
%TO.C,C4*%
X88900000Y-50800000D03*
X86825000Y-50800000D03*
%TD*%
D20*
%TO.C,D1*%
X88655000Y-40640000D03*
X86605000Y-40640000D03*
%TD*%
D12*
%TO.C,MH06*%
X107260000Y-78825000D03*
%TD*%
D26*
%TO.C,C3*%
X94615000Y-54390000D03*
X94615000Y-46990000D03*
%TD*%
D12*
%TO.C,MH04*%
X127580000Y-78825000D03*
%TD*%
D21*
%TO.C,R14*%
X79740000Y-66675000D03*
X77740000Y-66675000D03*
%TD*%
D18*
%TO.C,F3*%
X100965000Y-61395000D03*
X100965000Y-58420000D03*
%TD*%
D34*
X67060000Y-81325000D02*
X167060000Y-81325000D01*
X167060000Y-131325000D01*
X67060000Y-131325000D01*
X67060000Y-81325000D01*
X67060000Y-31325000D02*
X167060000Y-31325000D01*
X167060000Y-81325000D01*
X67060000Y-81325000D01*
X67060000Y-31325000D01*
M02*
