%TF.GenerationSoftware,KiCad,Pcbnew,7.0.11+dfsg-1build4*%
%TF.CreationDate,2026-02-23T17:24:03-05:00*%
%TF.ProjectId,b02,6230322e-6b69-4636-9164-5f7063625858,rev?*%
%TF.SameCoordinates,Original*%
%TF.FileFunction,Legend,Bot*%
%TF.FilePolarity,Positive*%
%FSLAX46Y46*%
G04 Gerber Fmt 4.6, Leading zero omitted, Abs format (unit mm)*
G04 Created by KiCad (PCBNEW 7.0.11+dfsg-1build4) date 2026-02-23 17:24:03*
%MOMM*%
%LPD*%
G01*
G04 APERTURE LIST*
%ADD10C,0.200000*%
%ADD11C,0.100000*%
%ADD12C,0.150000*%
%TA.AperFunction,Profile*%
%ADD13C,0.050000*%
%TD*%
G04 APERTURE END LIST*
D10*
X171070000Y-51080000D02*
G75*
G03*
X170870000Y-51080000I-100000J0D01*
G01*
X170870000Y-51080000D02*
G75*
G03*
X171070000Y-51080000I100000J0D01*
G01*
D11*
X170620000Y-44100000D02*
X179255000Y-44100000D01*
X179255000Y-51600000D01*
X170620000Y-51600000D01*
X170620000Y-44100000D01*
D10*
X171070000Y-46000000D02*
G75*
G03*
X170870000Y-46000000I-100000J0D01*
G01*
X170870000Y-46000000D02*
G75*
G03*
X171070000Y-46000000I100000J0D01*
G01*
X179005000Y-44730000D02*
G75*
G03*
X178805000Y-44730000I-100000J0D01*
G01*
X178805000Y-44730000D02*
G75*
G03*
X179005000Y-44730000I100000J0D01*
G01*
X179005000Y-47270000D02*
G75*
G03*
X178805000Y-47270000I-100000J0D01*
G01*
X178805000Y-47270000D02*
G75*
G03*
X179005000Y-47270000I100000J0D01*
G01*
D11*
X171320000Y-51600000D02*
X171320000Y-44100000D01*
D10*
X171070000Y-48540000D02*
G75*
G03*
X170870000Y-48540000I-100000J0D01*
G01*
X170870000Y-48540000D02*
G75*
G03*
X171070000Y-48540000I100000J0D01*
G01*
D11*
X178555000Y-51600000D02*
X178555000Y-44100000D01*
D10*
X179005000Y-49810000D02*
G75*
G03*
X178805000Y-49810000I-100000J0D01*
G01*
X178805000Y-49810000D02*
G75*
G03*
X179005000Y-49810000I100000J0D01*
G01*
D11*
X79850000Y-78000000D02*
X179670000Y-78000000D01*
D12*
X176580601Y-46273771D02*
X176780601Y-45988057D01*
X176923458Y-46273771D02*
X176923458Y-45673771D01*
X176923458Y-45673771D02*
X176694887Y-45673771D01*
X176694887Y-45673771D02*
X176637744Y-45702342D01*
X176637744Y-45702342D02*
X176609173Y-45730914D01*
X176609173Y-45730914D02*
X176580601Y-45788057D01*
X176580601Y-45788057D02*
X176580601Y-45873771D01*
X176580601Y-45873771D02*
X176609173Y-45930914D01*
X176609173Y-45930914D02*
X176637744Y-45959485D01*
X176637744Y-45959485D02*
X176694887Y-45988057D01*
X176694887Y-45988057D02*
X176923458Y-45988057D01*
X176352030Y-46245200D02*
X176266316Y-46273771D01*
X176266316Y-46273771D02*
X176123458Y-46273771D01*
X176123458Y-46273771D02*
X176066316Y-46245200D01*
X176066316Y-46245200D02*
X176037744Y-46216628D01*
X176037744Y-46216628D02*
X176009173Y-46159485D01*
X176009173Y-46159485D02*
X176009173Y-46102342D01*
X176009173Y-46102342D02*
X176037744Y-46045200D01*
X176037744Y-46045200D02*
X176066316Y-46016628D01*
X176066316Y-46016628D02*
X176123458Y-45988057D01*
X176123458Y-45988057D02*
X176237744Y-45959485D01*
X176237744Y-45959485D02*
X176294887Y-45930914D01*
X176294887Y-45930914D02*
X176323458Y-45902342D01*
X176323458Y-45902342D02*
X176352030Y-45845200D01*
X176352030Y-45845200D02*
X176352030Y-45788057D01*
X176352030Y-45788057D02*
X176323458Y-45730914D01*
X176323458Y-45730914D02*
X176294887Y-45702342D01*
X176294887Y-45702342D02*
X176237744Y-45673771D01*
X176237744Y-45673771D02*
X176094887Y-45673771D01*
X176094887Y-45673771D02*
X176009173Y-45702342D01*
X175494887Y-45873771D02*
X175494887Y-46273771D01*
X175637744Y-45645200D02*
X175780601Y-46073771D01*
X175780601Y-46073771D02*
X175409172Y-46073771D01*
X175094886Y-45930914D02*
X175152029Y-45902342D01*
X175152029Y-45902342D02*
X175180600Y-45873771D01*
X175180600Y-45873771D02*
X175209172Y-45816628D01*
X175209172Y-45816628D02*
X175209172Y-45788057D01*
X175209172Y-45788057D02*
X175180600Y-45730914D01*
X175180600Y-45730914D02*
X175152029Y-45702342D01*
X175152029Y-45702342D02*
X175094886Y-45673771D01*
X175094886Y-45673771D02*
X174980600Y-45673771D01*
X174980600Y-45673771D02*
X174923458Y-45702342D01*
X174923458Y-45702342D02*
X174894886Y-45730914D01*
X174894886Y-45730914D02*
X174866315Y-45788057D01*
X174866315Y-45788057D02*
X174866315Y-45816628D01*
X174866315Y-45816628D02*
X174894886Y-45873771D01*
X174894886Y-45873771D02*
X174923458Y-45902342D01*
X174923458Y-45902342D02*
X174980600Y-45930914D01*
X174980600Y-45930914D02*
X175094886Y-45930914D01*
X175094886Y-45930914D02*
X175152029Y-45959485D01*
X175152029Y-45959485D02*
X175180600Y-45988057D01*
X175180600Y-45988057D02*
X175209172Y-46045200D01*
X175209172Y-46045200D02*
X175209172Y-46159485D01*
X175209172Y-46159485D02*
X175180600Y-46216628D01*
X175180600Y-46216628D02*
X175152029Y-46245200D01*
X175152029Y-46245200D02*
X175094886Y-46273771D01*
X175094886Y-46273771D02*
X174980600Y-46273771D01*
X174980600Y-46273771D02*
X174923458Y-46245200D01*
X174923458Y-46245200D02*
X174894886Y-46216628D01*
X174894886Y-46216628D02*
X174866315Y-46159485D01*
X174866315Y-46159485D02*
X174866315Y-46045200D01*
X174866315Y-46045200D02*
X174894886Y-45988057D01*
X174894886Y-45988057D02*
X174923458Y-45959485D01*
X174923458Y-45959485D02*
X174980600Y-45930914D01*
X174323457Y-45673771D02*
X174609171Y-45673771D01*
X174609171Y-45673771D02*
X174637743Y-45959485D01*
X174637743Y-45959485D02*
X174609171Y-45930914D01*
X174609171Y-45930914D02*
X174552029Y-45902342D01*
X174552029Y-45902342D02*
X174409171Y-45902342D01*
X174409171Y-45902342D02*
X174352029Y-45930914D01*
X174352029Y-45930914D02*
X174323457Y-45959485D01*
X174323457Y-45959485D02*
X174294886Y-46016628D01*
X174294886Y-46016628D02*
X174294886Y-46159485D01*
X174294886Y-46159485D02*
X174323457Y-46216628D01*
X174323457Y-46216628D02*
X174352029Y-46245200D01*
X174352029Y-46245200D02*
X174409171Y-46273771D01*
X174409171Y-46273771D02*
X174552029Y-46273771D01*
X174552029Y-46273771D02*
X174609171Y-46245200D01*
X174609171Y-46245200D02*
X174637743Y-46216628D01*
X173380599Y-45959485D02*
X173294885Y-45988057D01*
X173294885Y-45988057D02*
X173266314Y-46016628D01*
X173266314Y-46016628D02*
X173237742Y-46073771D01*
X173237742Y-46073771D02*
X173237742Y-46159485D01*
X173237742Y-46159485D02*
X173266314Y-46216628D01*
X173266314Y-46216628D02*
X173294885Y-46245200D01*
X173294885Y-46245200D02*
X173352028Y-46273771D01*
X173352028Y-46273771D02*
X173580599Y-46273771D01*
X173580599Y-46273771D02*
X173580599Y-45673771D01*
X173580599Y-45673771D02*
X173380599Y-45673771D01*
X173380599Y-45673771D02*
X173323457Y-45702342D01*
X173323457Y-45702342D02*
X173294885Y-45730914D01*
X173294885Y-45730914D02*
X173266314Y-45788057D01*
X173266314Y-45788057D02*
X173266314Y-45845200D01*
X173266314Y-45845200D02*
X173294885Y-45902342D01*
X173294885Y-45902342D02*
X173323457Y-45930914D01*
X173323457Y-45930914D02*
X173380599Y-45959485D01*
X173380599Y-45959485D02*
X173580599Y-45959485D01*
D11*
X96535057Y-37577068D02*
X96563628Y-37634211D01*
X96563628Y-37634211D02*
X96563628Y-37719925D01*
X96563628Y-37719925D02*
X96535057Y-37805639D01*
X96535057Y-37805639D02*
X96477914Y-37862782D01*
X96477914Y-37862782D02*
X96420771Y-37891353D01*
X96420771Y-37891353D02*
X96306485Y-37919925D01*
X96306485Y-37919925D02*
X96220771Y-37919925D01*
X96220771Y-37919925D02*
X96106485Y-37891353D01*
X96106485Y-37891353D02*
X96049342Y-37862782D01*
X96049342Y-37862782D02*
X95992200Y-37805639D01*
X95992200Y-37805639D02*
X95963628Y-37719925D01*
X95963628Y-37719925D02*
X95963628Y-37662782D01*
X95963628Y-37662782D02*
X95992200Y-37577068D01*
X95992200Y-37577068D02*
X96020771Y-37548496D01*
X96020771Y-37548496D02*
X96220771Y-37548496D01*
X96220771Y-37548496D02*
X96220771Y-37662782D01*
X95963628Y-37291353D02*
X96563628Y-37291353D01*
X96563628Y-37291353D02*
X95963628Y-36948496D01*
X95963628Y-36948496D02*
X96563628Y-36948496D01*
X95963628Y-36662782D02*
X96563628Y-36662782D01*
X96563628Y-36662782D02*
X96563628Y-36519925D01*
X96563628Y-36519925D02*
X96535057Y-36434211D01*
X96535057Y-36434211D02*
X96477914Y-36377068D01*
X96477914Y-36377068D02*
X96420771Y-36348497D01*
X96420771Y-36348497D02*
X96306485Y-36319925D01*
X96306485Y-36319925D02*
X96220771Y-36319925D01*
X96220771Y-36319925D02*
X96106485Y-36348497D01*
X96106485Y-36348497D02*
X96049342Y-36377068D01*
X96049342Y-36377068D02*
X95992200Y-36434211D01*
X95992200Y-36434211D02*
X95963628Y-36519925D01*
X95963628Y-36519925D02*
X95963628Y-36662782D01*
D12*
X177850601Y-45003771D02*
X178050601Y-44718057D01*
X178193458Y-45003771D02*
X178193458Y-44403771D01*
X178193458Y-44403771D02*
X177964887Y-44403771D01*
X177964887Y-44403771D02*
X177907744Y-44432342D01*
X177907744Y-44432342D02*
X177879173Y-44460914D01*
X177879173Y-44460914D02*
X177850601Y-44518057D01*
X177850601Y-44518057D02*
X177850601Y-44603771D01*
X177850601Y-44603771D02*
X177879173Y-44660914D01*
X177879173Y-44660914D02*
X177907744Y-44689485D01*
X177907744Y-44689485D02*
X177964887Y-44718057D01*
X177964887Y-44718057D02*
X178193458Y-44718057D01*
X177622030Y-44975200D02*
X177536316Y-45003771D01*
X177536316Y-45003771D02*
X177393458Y-45003771D01*
X177393458Y-45003771D02*
X177336316Y-44975200D01*
X177336316Y-44975200D02*
X177307744Y-44946628D01*
X177307744Y-44946628D02*
X177279173Y-44889485D01*
X177279173Y-44889485D02*
X177279173Y-44832342D01*
X177279173Y-44832342D02*
X177307744Y-44775200D01*
X177307744Y-44775200D02*
X177336316Y-44746628D01*
X177336316Y-44746628D02*
X177393458Y-44718057D01*
X177393458Y-44718057D02*
X177507744Y-44689485D01*
X177507744Y-44689485D02*
X177564887Y-44660914D01*
X177564887Y-44660914D02*
X177593458Y-44632342D01*
X177593458Y-44632342D02*
X177622030Y-44575200D01*
X177622030Y-44575200D02*
X177622030Y-44518057D01*
X177622030Y-44518057D02*
X177593458Y-44460914D01*
X177593458Y-44460914D02*
X177564887Y-44432342D01*
X177564887Y-44432342D02*
X177507744Y-44403771D01*
X177507744Y-44403771D02*
X177364887Y-44403771D01*
X177364887Y-44403771D02*
X177279173Y-44432342D01*
X176764887Y-44603771D02*
X176764887Y-45003771D01*
X176907744Y-44375200D02*
X177050601Y-44803771D01*
X177050601Y-44803771D02*
X176679172Y-44803771D01*
X176364886Y-44660914D02*
X176422029Y-44632342D01*
X176422029Y-44632342D02*
X176450600Y-44603771D01*
X176450600Y-44603771D02*
X176479172Y-44546628D01*
X176479172Y-44546628D02*
X176479172Y-44518057D01*
X176479172Y-44518057D02*
X176450600Y-44460914D01*
X176450600Y-44460914D02*
X176422029Y-44432342D01*
X176422029Y-44432342D02*
X176364886Y-44403771D01*
X176364886Y-44403771D02*
X176250600Y-44403771D01*
X176250600Y-44403771D02*
X176193458Y-44432342D01*
X176193458Y-44432342D02*
X176164886Y-44460914D01*
X176164886Y-44460914D02*
X176136315Y-44518057D01*
X176136315Y-44518057D02*
X176136315Y-44546628D01*
X176136315Y-44546628D02*
X176164886Y-44603771D01*
X176164886Y-44603771D02*
X176193458Y-44632342D01*
X176193458Y-44632342D02*
X176250600Y-44660914D01*
X176250600Y-44660914D02*
X176364886Y-44660914D01*
X176364886Y-44660914D02*
X176422029Y-44689485D01*
X176422029Y-44689485D02*
X176450600Y-44718057D01*
X176450600Y-44718057D02*
X176479172Y-44775200D01*
X176479172Y-44775200D02*
X176479172Y-44889485D01*
X176479172Y-44889485D02*
X176450600Y-44946628D01*
X176450600Y-44946628D02*
X176422029Y-44975200D01*
X176422029Y-44975200D02*
X176364886Y-45003771D01*
X176364886Y-45003771D02*
X176250600Y-45003771D01*
X176250600Y-45003771D02*
X176193458Y-44975200D01*
X176193458Y-44975200D02*
X176164886Y-44946628D01*
X176164886Y-44946628D02*
X176136315Y-44889485D01*
X176136315Y-44889485D02*
X176136315Y-44775200D01*
X176136315Y-44775200D02*
X176164886Y-44718057D01*
X176164886Y-44718057D02*
X176193458Y-44689485D01*
X176193458Y-44689485D02*
X176250600Y-44660914D01*
X175593457Y-44403771D02*
X175879171Y-44403771D01*
X175879171Y-44403771D02*
X175907743Y-44689485D01*
X175907743Y-44689485D02*
X175879171Y-44660914D01*
X175879171Y-44660914D02*
X175822029Y-44632342D01*
X175822029Y-44632342D02*
X175679171Y-44632342D01*
X175679171Y-44632342D02*
X175622029Y-44660914D01*
X175622029Y-44660914D02*
X175593457Y-44689485D01*
X175593457Y-44689485D02*
X175564886Y-44746628D01*
X175564886Y-44746628D02*
X175564886Y-44889485D01*
X175564886Y-44889485D02*
X175593457Y-44946628D01*
X175593457Y-44946628D02*
X175622029Y-44975200D01*
X175622029Y-44975200D02*
X175679171Y-45003771D01*
X175679171Y-45003771D02*
X175822029Y-45003771D01*
X175822029Y-45003771D02*
X175879171Y-44975200D01*
X175879171Y-44975200D02*
X175907743Y-44946628D01*
X174879171Y-44832342D02*
X174593457Y-44832342D01*
X174936314Y-45003771D02*
X174736314Y-44403771D01*
X174736314Y-44403771D02*
X174536314Y-45003771D01*
D11*
X93360057Y-37577068D02*
X93388628Y-37634211D01*
X93388628Y-37634211D02*
X93388628Y-37719925D01*
X93388628Y-37719925D02*
X93360057Y-37805639D01*
X93360057Y-37805639D02*
X93302914Y-37862782D01*
X93302914Y-37862782D02*
X93245771Y-37891353D01*
X93245771Y-37891353D02*
X93131485Y-37919925D01*
X93131485Y-37919925D02*
X93045771Y-37919925D01*
X93045771Y-37919925D02*
X92931485Y-37891353D01*
X92931485Y-37891353D02*
X92874342Y-37862782D01*
X92874342Y-37862782D02*
X92817200Y-37805639D01*
X92817200Y-37805639D02*
X92788628Y-37719925D01*
X92788628Y-37719925D02*
X92788628Y-37662782D01*
X92788628Y-37662782D02*
X92817200Y-37577068D01*
X92817200Y-37577068D02*
X92845771Y-37548496D01*
X92845771Y-37548496D02*
X93045771Y-37548496D01*
X93045771Y-37548496D02*
X93045771Y-37662782D01*
X92788628Y-37291353D02*
X93388628Y-37291353D01*
X93388628Y-37291353D02*
X92788628Y-36948496D01*
X92788628Y-36948496D02*
X93388628Y-36948496D01*
X92788628Y-36662782D02*
X93388628Y-36662782D01*
X93388628Y-36662782D02*
X93388628Y-36519925D01*
X93388628Y-36519925D02*
X93360057Y-36434211D01*
X93360057Y-36434211D02*
X93302914Y-36377068D01*
X93302914Y-36377068D02*
X93245771Y-36348497D01*
X93245771Y-36348497D02*
X93131485Y-36319925D01*
X93131485Y-36319925D02*
X93045771Y-36319925D01*
X93045771Y-36319925D02*
X92931485Y-36348497D01*
X92931485Y-36348497D02*
X92874342Y-36377068D01*
X92874342Y-36377068D02*
X92817200Y-36434211D01*
X92817200Y-36434211D02*
X92788628Y-36519925D01*
X92788628Y-36519925D02*
X92788628Y-36662782D01*
X100373628Y-37977068D02*
X99773628Y-37777068D01*
X99773628Y-37777068D02*
X100373628Y-37577068D01*
X99830771Y-37034210D02*
X99802200Y-37062782D01*
X99802200Y-37062782D02*
X99773628Y-37148496D01*
X99773628Y-37148496D02*
X99773628Y-37205639D01*
X99773628Y-37205639D02*
X99802200Y-37291353D01*
X99802200Y-37291353D02*
X99859342Y-37348496D01*
X99859342Y-37348496D02*
X99916485Y-37377067D01*
X99916485Y-37377067D02*
X100030771Y-37405639D01*
X100030771Y-37405639D02*
X100116485Y-37405639D01*
X100116485Y-37405639D02*
X100230771Y-37377067D01*
X100230771Y-37377067D02*
X100287914Y-37348496D01*
X100287914Y-37348496D02*
X100345057Y-37291353D01*
X100345057Y-37291353D02*
X100373628Y-37205639D01*
X100373628Y-37205639D02*
X100373628Y-37148496D01*
X100373628Y-37148496D02*
X100345057Y-37062782D01*
X100345057Y-37062782D02*
X100316485Y-37034210D01*
X99830771Y-36434210D02*
X99802200Y-36462782D01*
X99802200Y-36462782D02*
X99773628Y-36548496D01*
X99773628Y-36548496D02*
X99773628Y-36605639D01*
X99773628Y-36605639D02*
X99802200Y-36691353D01*
X99802200Y-36691353D02*
X99859342Y-36748496D01*
X99859342Y-36748496D02*
X99916485Y-36777067D01*
X99916485Y-36777067D02*
X100030771Y-36805639D01*
X100030771Y-36805639D02*
X100116485Y-36805639D01*
X100116485Y-36805639D02*
X100230771Y-36777067D01*
X100230771Y-36777067D02*
X100287914Y-36748496D01*
X100287914Y-36748496D02*
X100345057Y-36691353D01*
X100345057Y-36691353D02*
X100373628Y-36605639D01*
X100373628Y-36605639D02*
X100373628Y-36548496D01*
X100373628Y-36548496D02*
X100345057Y-36462782D01*
X100345057Y-36462782D02*
X100316485Y-36434210D01*
D12*
X178193458Y-49483771D02*
X178193458Y-49969485D01*
X178193458Y-49969485D02*
X178164887Y-50026628D01*
X178164887Y-50026628D02*
X178136316Y-50055200D01*
X178136316Y-50055200D02*
X178079173Y-50083771D01*
X178079173Y-50083771D02*
X177964887Y-50083771D01*
X177964887Y-50083771D02*
X177907744Y-50055200D01*
X177907744Y-50055200D02*
X177879173Y-50026628D01*
X177879173Y-50026628D02*
X177850601Y-49969485D01*
X177850601Y-49969485D02*
X177850601Y-49483771D01*
X177593459Y-49912342D02*
X177307745Y-49912342D01*
X177650602Y-50083771D02*
X177450602Y-49483771D01*
X177450602Y-49483771D02*
X177250602Y-50083771D01*
X176707744Y-50083771D02*
X176907744Y-49798057D01*
X177050601Y-50083771D02*
X177050601Y-49483771D01*
X177050601Y-49483771D02*
X176822030Y-49483771D01*
X176822030Y-49483771D02*
X176764887Y-49512342D01*
X176764887Y-49512342D02*
X176736316Y-49540914D01*
X176736316Y-49540914D02*
X176707744Y-49598057D01*
X176707744Y-49598057D02*
X176707744Y-49683771D01*
X176707744Y-49683771D02*
X176736316Y-49740914D01*
X176736316Y-49740914D02*
X176764887Y-49769485D01*
X176764887Y-49769485D02*
X176822030Y-49798057D01*
X176822030Y-49798057D02*
X177050601Y-49798057D01*
X176536316Y-49483771D02*
X176193459Y-49483771D01*
X176364887Y-50083771D02*
X176364887Y-49483771D01*
X176136316Y-50140914D02*
X175679173Y-50140914D01*
X175622030Y-49483771D02*
X175279173Y-49483771D01*
X175450601Y-50083771D02*
X175450601Y-49483771D01*
X175164887Y-49483771D02*
X174822030Y-49483771D01*
X174993458Y-50083771D02*
X174993458Y-49483771D01*
X174336315Y-50083771D02*
X174622029Y-50083771D01*
X174622029Y-50083771D02*
X174622029Y-49483771D01*
X174279173Y-50140914D02*
X173822030Y-50140914D01*
X173764887Y-49483771D02*
X173422030Y-49483771D01*
X173593458Y-50083771D02*
X173593458Y-49483771D01*
X173279172Y-49483771D02*
X172879172Y-50083771D01*
X172879172Y-49483771D02*
X173279172Y-50083771D01*
D11*
X97868628Y-49321353D02*
X98468628Y-49321353D01*
X98468628Y-49321353D02*
X98468628Y-49178496D01*
X98468628Y-49178496D02*
X98440057Y-49092782D01*
X98440057Y-49092782D02*
X98382914Y-49035639D01*
X98382914Y-49035639D02*
X98325771Y-49007068D01*
X98325771Y-49007068D02*
X98211485Y-48978496D01*
X98211485Y-48978496D02*
X98125771Y-48978496D01*
X98125771Y-48978496D02*
X98011485Y-49007068D01*
X98011485Y-49007068D02*
X97954342Y-49035639D01*
X97954342Y-49035639D02*
X97897200Y-49092782D01*
X97897200Y-49092782D02*
X97868628Y-49178496D01*
X97868628Y-49178496D02*
X97868628Y-49321353D01*
X97868628Y-48721353D02*
X98468628Y-48721353D01*
X97897200Y-48464211D02*
X97868628Y-48378497D01*
X97868628Y-48378497D02*
X97868628Y-48235639D01*
X97868628Y-48235639D02*
X97897200Y-48178497D01*
X97897200Y-48178497D02*
X97925771Y-48149925D01*
X97925771Y-48149925D02*
X97982914Y-48121354D01*
X97982914Y-48121354D02*
X98040057Y-48121354D01*
X98040057Y-48121354D02*
X98097200Y-48149925D01*
X98097200Y-48149925D02*
X98125771Y-48178497D01*
X98125771Y-48178497D02*
X98154342Y-48235639D01*
X98154342Y-48235639D02*
X98182914Y-48349925D01*
X98182914Y-48349925D02*
X98211485Y-48407068D01*
X98211485Y-48407068D02*
X98240057Y-48435639D01*
X98240057Y-48435639D02*
X98297200Y-48464211D01*
X98297200Y-48464211D02*
X98354342Y-48464211D01*
X98354342Y-48464211D02*
X98411485Y-48435639D01*
X98411485Y-48435639D02*
X98440057Y-48407068D01*
X98440057Y-48407068D02*
X98468628Y-48349925D01*
X98468628Y-48349925D02*
X98468628Y-48207068D01*
X98468628Y-48207068D02*
X98440057Y-48121354D01*
X97868628Y-47864210D02*
X98468628Y-47864210D01*
X98468628Y-47864210D02*
X98468628Y-47635639D01*
X98468628Y-47635639D02*
X98440057Y-47578496D01*
X98440057Y-47578496D02*
X98411485Y-47549925D01*
X98411485Y-47549925D02*
X98354342Y-47521353D01*
X98354342Y-47521353D02*
X98268628Y-47521353D01*
X98268628Y-47521353D02*
X98211485Y-47549925D01*
X98211485Y-47549925D02*
X98182914Y-47578496D01*
X98182914Y-47578496D02*
X98154342Y-47635639D01*
X98154342Y-47635639D02*
X98154342Y-47864210D01*
X97811485Y-47407068D02*
X97811485Y-46949925D01*
X97897200Y-46835639D02*
X97868628Y-46749925D01*
X97868628Y-46749925D02*
X97868628Y-46607067D01*
X97868628Y-46607067D02*
X97897200Y-46549925D01*
X97897200Y-46549925D02*
X97925771Y-46521353D01*
X97925771Y-46521353D02*
X97982914Y-46492782D01*
X97982914Y-46492782D02*
X98040057Y-46492782D01*
X98040057Y-46492782D02*
X98097200Y-46521353D01*
X98097200Y-46521353D02*
X98125771Y-46549925D01*
X98125771Y-46549925D02*
X98154342Y-46607067D01*
X98154342Y-46607067D02*
X98182914Y-46721353D01*
X98182914Y-46721353D02*
X98211485Y-46778496D01*
X98211485Y-46778496D02*
X98240057Y-46807067D01*
X98240057Y-46807067D02*
X98297200Y-46835639D01*
X98297200Y-46835639D02*
X98354342Y-46835639D01*
X98354342Y-46835639D02*
X98411485Y-46807067D01*
X98411485Y-46807067D02*
X98440057Y-46778496D01*
X98440057Y-46778496D02*
X98468628Y-46721353D01*
X98468628Y-46721353D02*
X98468628Y-46578496D01*
X98468628Y-46578496D02*
X98440057Y-46492782D01*
X97868628Y-46235638D02*
X98468628Y-46235638D01*
X98468628Y-46235638D02*
X98468628Y-46092781D01*
X98468628Y-46092781D02*
X98440057Y-46007067D01*
X98440057Y-46007067D02*
X98382914Y-45949924D01*
X98382914Y-45949924D02*
X98325771Y-45921353D01*
X98325771Y-45921353D02*
X98211485Y-45892781D01*
X98211485Y-45892781D02*
X98125771Y-45892781D01*
X98125771Y-45892781D02*
X98011485Y-45921353D01*
X98011485Y-45921353D02*
X97954342Y-45949924D01*
X97954342Y-45949924D02*
X97897200Y-46007067D01*
X97897200Y-46007067D02*
X97868628Y-46092781D01*
X97868628Y-46092781D02*
X97868628Y-46235638D01*
X98040057Y-45664210D02*
X98040057Y-45378496D01*
X97868628Y-45721353D02*
X98468628Y-45521353D01*
X98468628Y-45521353D02*
X97868628Y-45321353D01*
X89550057Y-37577068D02*
X89578628Y-37634211D01*
X89578628Y-37634211D02*
X89578628Y-37719925D01*
X89578628Y-37719925D02*
X89550057Y-37805639D01*
X89550057Y-37805639D02*
X89492914Y-37862782D01*
X89492914Y-37862782D02*
X89435771Y-37891353D01*
X89435771Y-37891353D02*
X89321485Y-37919925D01*
X89321485Y-37919925D02*
X89235771Y-37919925D01*
X89235771Y-37919925D02*
X89121485Y-37891353D01*
X89121485Y-37891353D02*
X89064342Y-37862782D01*
X89064342Y-37862782D02*
X89007200Y-37805639D01*
X89007200Y-37805639D02*
X88978628Y-37719925D01*
X88978628Y-37719925D02*
X88978628Y-37662782D01*
X88978628Y-37662782D02*
X89007200Y-37577068D01*
X89007200Y-37577068D02*
X89035771Y-37548496D01*
X89035771Y-37548496D02*
X89235771Y-37548496D01*
X89235771Y-37548496D02*
X89235771Y-37662782D01*
X88978628Y-37291353D02*
X89578628Y-37291353D01*
X89578628Y-37291353D02*
X88978628Y-36948496D01*
X88978628Y-36948496D02*
X89578628Y-36948496D01*
X88978628Y-36662782D02*
X89578628Y-36662782D01*
X89578628Y-36662782D02*
X89578628Y-36519925D01*
X89578628Y-36519925D02*
X89550057Y-36434211D01*
X89550057Y-36434211D02*
X89492914Y-36377068D01*
X89492914Y-36377068D02*
X89435771Y-36348497D01*
X89435771Y-36348497D02*
X89321485Y-36319925D01*
X89321485Y-36319925D02*
X89235771Y-36319925D01*
X89235771Y-36319925D02*
X89121485Y-36348497D01*
X89121485Y-36348497D02*
X89064342Y-36377068D01*
X89064342Y-36377068D02*
X89007200Y-36434211D01*
X89007200Y-36434211D02*
X88978628Y-36519925D01*
X88978628Y-36519925D02*
X88978628Y-36662782D01*
X84212914Y-49321353D02*
X84212914Y-49121353D01*
X83898628Y-49035639D02*
X83898628Y-49321353D01*
X83898628Y-49321353D02*
X84498628Y-49321353D01*
X84498628Y-49321353D02*
X84498628Y-49035639D01*
X83898628Y-48435639D02*
X84184342Y-48635639D01*
X83898628Y-48778496D02*
X84498628Y-48778496D01*
X84498628Y-48778496D02*
X84498628Y-48549925D01*
X84498628Y-48549925D02*
X84470057Y-48492782D01*
X84470057Y-48492782D02*
X84441485Y-48464211D01*
X84441485Y-48464211D02*
X84384342Y-48435639D01*
X84384342Y-48435639D02*
X84298628Y-48435639D01*
X84298628Y-48435639D02*
X84241485Y-48464211D01*
X84241485Y-48464211D02*
X84212914Y-48492782D01*
X84212914Y-48492782D02*
X84184342Y-48549925D01*
X84184342Y-48549925D02*
X84184342Y-48778496D01*
X83898628Y-47835639D02*
X84184342Y-48035639D01*
X83898628Y-48178496D02*
X84498628Y-48178496D01*
X84498628Y-48178496D02*
X84498628Y-47949925D01*
X84498628Y-47949925D02*
X84470057Y-47892782D01*
X84470057Y-47892782D02*
X84441485Y-47864211D01*
X84441485Y-47864211D02*
X84384342Y-47835639D01*
X84384342Y-47835639D02*
X84298628Y-47835639D01*
X84298628Y-47835639D02*
X84241485Y-47864211D01*
X84241485Y-47864211D02*
X84212914Y-47892782D01*
X84212914Y-47892782D02*
X84184342Y-47949925D01*
X84184342Y-47949925D02*
X84184342Y-48178496D01*
X83841485Y-47721354D02*
X83841485Y-47264211D01*
X83898628Y-46835639D02*
X83898628Y-47121353D01*
X83898628Y-47121353D02*
X84498628Y-47121353D01*
X84212914Y-46635639D02*
X84212914Y-46435639D01*
X83898628Y-46349925D02*
X83898628Y-46635639D01*
X83898628Y-46635639D02*
X84498628Y-46635639D01*
X84498628Y-46635639D02*
X84498628Y-46349925D01*
X83898628Y-46092782D02*
X84498628Y-46092782D01*
X84498628Y-46092782D02*
X84498628Y-45949925D01*
X84498628Y-45949925D02*
X84470057Y-45864211D01*
X84470057Y-45864211D02*
X84412914Y-45807068D01*
X84412914Y-45807068D02*
X84355771Y-45778497D01*
X84355771Y-45778497D02*
X84241485Y-45749925D01*
X84241485Y-45749925D02*
X84155771Y-45749925D01*
X84155771Y-45749925D02*
X84041485Y-45778497D01*
X84041485Y-45778497D02*
X83984342Y-45807068D01*
X83984342Y-45807068D02*
X83927200Y-45864211D01*
X83927200Y-45864211D02*
X83898628Y-45949925D01*
X83898628Y-45949925D02*
X83898628Y-46092782D01*
X83841485Y-45635640D02*
X83841485Y-45178497D01*
X84212914Y-45035639D02*
X84212914Y-44835639D01*
X83898628Y-44749925D02*
X83898628Y-45035639D01*
X83898628Y-45035639D02*
X84498628Y-45035639D01*
X84498628Y-45035639D02*
X84498628Y-44749925D01*
X84498628Y-44549925D02*
X83898628Y-44149925D01*
X84498628Y-44149925D02*
X83898628Y-44549925D01*
X84498628Y-44007068D02*
X84498628Y-43664211D01*
X83898628Y-43835639D02*
X84498628Y-43835639D01*
X82593628Y-37977068D02*
X81993628Y-37777068D01*
X81993628Y-37777068D02*
X82593628Y-37577068D01*
X82050771Y-37034210D02*
X82022200Y-37062782D01*
X82022200Y-37062782D02*
X81993628Y-37148496D01*
X81993628Y-37148496D02*
X81993628Y-37205639D01*
X81993628Y-37205639D02*
X82022200Y-37291353D01*
X82022200Y-37291353D02*
X82079342Y-37348496D01*
X82079342Y-37348496D02*
X82136485Y-37377067D01*
X82136485Y-37377067D02*
X82250771Y-37405639D01*
X82250771Y-37405639D02*
X82336485Y-37405639D01*
X82336485Y-37405639D02*
X82450771Y-37377067D01*
X82450771Y-37377067D02*
X82507914Y-37348496D01*
X82507914Y-37348496D02*
X82565057Y-37291353D01*
X82565057Y-37291353D02*
X82593628Y-37205639D01*
X82593628Y-37205639D02*
X82593628Y-37148496D01*
X82593628Y-37148496D02*
X82565057Y-37062782D01*
X82565057Y-37062782D02*
X82536485Y-37034210D01*
X82050771Y-36434210D02*
X82022200Y-36462782D01*
X82022200Y-36462782D02*
X81993628Y-36548496D01*
X81993628Y-36548496D02*
X81993628Y-36605639D01*
X81993628Y-36605639D02*
X82022200Y-36691353D01*
X82022200Y-36691353D02*
X82079342Y-36748496D01*
X82079342Y-36748496D02*
X82136485Y-36777067D01*
X82136485Y-36777067D02*
X82250771Y-36805639D01*
X82250771Y-36805639D02*
X82336485Y-36805639D01*
X82336485Y-36805639D02*
X82450771Y-36777067D01*
X82450771Y-36777067D02*
X82507914Y-36748496D01*
X82507914Y-36748496D02*
X82565057Y-36691353D01*
X82565057Y-36691353D02*
X82593628Y-36605639D01*
X82593628Y-36605639D02*
X82593628Y-36548496D01*
X82593628Y-36548496D02*
X82565057Y-36462782D01*
X82565057Y-36462782D02*
X82536485Y-36434210D01*
D12*
X177879173Y-46972342D02*
X177936316Y-46943771D01*
X177936316Y-46943771D02*
X178022030Y-46943771D01*
X178022030Y-46943771D02*
X178107744Y-46972342D01*
X178107744Y-46972342D02*
X178164887Y-47029485D01*
X178164887Y-47029485D02*
X178193458Y-47086628D01*
X178193458Y-47086628D02*
X178222030Y-47200914D01*
X178222030Y-47200914D02*
X178222030Y-47286628D01*
X178222030Y-47286628D02*
X178193458Y-47400914D01*
X178193458Y-47400914D02*
X178164887Y-47458057D01*
X178164887Y-47458057D02*
X178107744Y-47515200D01*
X178107744Y-47515200D02*
X178022030Y-47543771D01*
X178022030Y-47543771D02*
X177964887Y-47543771D01*
X177964887Y-47543771D02*
X177879173Y-47515200D01*
X177879173Y-47515200D02*
X177850601Y-47486628D01*
X177850601Y-47486628D02*
X177850601Y-47286628D01*
X177850601Y-47286628D02*
X177964887Y-47286628D01*
X177593458Y-47543771D02*
X177593458Y-46943771D01*
X177593458Y-46943771D02*
X177250601Y-47543771D01*
X177250601Y-47543771D02*
X177250601Y-46943771D01*
X176964887Y-47543771D02*
X176964887Y-46943771D01*
X176964887Y-46943771D02*
X176822030Y-46943771D01*
X176822030Y-46943771D02*
X176736316Y-46972342D01*
X176736316Y-46972342D02*
X176679173Y-47029485D01*
X176679173Y-47029485D02*
X176650602Y-47086628D01*
X176650602Y-47086628D02*
X176622030Y-47200914D01*
X176622030Y-47200914D02*
X176622030Y-47286628D01*
X176622030Y-47286628D02*
X176650602Y-47400914D01*
X176650602Y-47400914D02*
X176679173Y-47458057D01*
X176679173Y-47458057D02*
X176736316Y-47515200D01*
X176736316Y-47515200D02*
X176822030Y-47543771D01*
X176822030Y-47543771D02*
X176964887Y-47543771D01*
X176923458Y-50753771D02*
X176923458Y-51239485D01*
X176923458Y-51239485D02*
X176894887Y-51296628D01*
X176894887Y-51296628D02*
X176866316Y-51325200D01*
X176866316Y-51325200D02*
X176809173Y-51353771D01*
X176809173Y-51353771D02*
X176694887Y-51353771D01*
X176694887Y-51353771D02*
X176637744Y-51325200D01*
X176637744Y-51325200D02*
X176609173Y-51296628D01*
X176609173Y-51296628D02*
X176580601Y-51239485D01*
X176580601Y-51239485D02*
X176580601Y-50753771D01*
X176323459Y-51182342D02*
X176037745Y-51182342D01*
X176380602Y-51353771D02*
X176180602Y-50753771D01*
X176180602Y-50753771D02*
X175980602Y-51353771D01*
X175437744Y-51353771D02*
X175637744Y-51068057D01*
X175780601Y-51353771D02*
X175780601Y-50753771D01*
X175780601Y-50753771D02*
X175552030Y-50753771D01*
X175552030Y-50753771D02*
X175494887Y-50782342D01*
X175494887Y-50782342D02*
X175466316Y-50810914D01*
X175466316Y-50810914D02*
X175437744Y-50868057D01*
X175437744Y-50868057D02*
X175437744Y-50953771D01*
X175437744Y-50953771D02*
X175466316Y-51010914D01*
X175466316Y-51010914D02*
X175494887Y-51039485D01*
X175494887Y-51039485D02*
X175552030Y-51068057D01*
X175552030Y-51068057D02*
X175780601Y-51068057D01*
X175266316Y-50753771D02*
X174923459Y-50753771D01*
X175094887Y-51353771D02*
X175094887Y-50753771D01*
X174866316Y-51410914D02*
X174409173Y-51410914D01*
X174352030Y-50753771D02*
X174009173Y-50753771D01*
X174180601Y-51353771D02*
X174180601Y-50753771D01*
X173894887Y-50753771D02*
X173552030Y-50753771D01*
X173723458Y-51353771D02*
X173723458Y-50753771D01*
X173066315Y-51353771D02*
X173352029Y-51353771D01*
X173352029Y-51353771D02*
X173352029Y-50753771D01*
X173009173Y-51410914D02*
X172552030Y-51410914D01*
X172066315Y-51353771D02*
X172266315Y-51068057D01*
X172409172Y-51353771D02*
X172409172Y-50753771D01*
X172409172Y-50753771D02*
X172180601Y-50753771D01*
X172180601Y-50753771D02*
X172123458Y-50782342D01*
X172123458Y-50782342D02*
X172094887Y-50810914D01*
X172094887Y-50810914D02*
X172066315Y-50868057D01*
X172066315Y-50868057D02*
X172066315Y-50953771D01*
X172066315Y-50953771D02*
X172094887Y-51010914D01*
X172094887Y-51010914D02*
X172123458Y-51039485D01*
X172123458Y-51039485D02*
X172180601Y-51068057D01*
X172180601Y-51068057D02*
X172409172Y-51068057D01*
X171866315Y-50753771D02*
X171466315Y-51353771D01*
X171466315Y-50753771D02*
X171866315Y-51353771D01*
D11*
X101378628Y-49321353D02*
X101978628Y-49321353D01*
X101978628Y-49321353D02*
X101978628Y-49178496D01*
X101978628Y-49178496D02*
X101950057Y-49092782D01*
X101950057Y-49092782D02*
X101892914Y-49035639D01*
X101892914Y-49035639D02*
X101835771Y-49007068D01*
X101835771Y-49007068D02*
X101721485Y-48978496D01*
X101721485Y-48978496D02*
X101635771Y-48978496D01*
X101635771Y-48978496D02*
X101521485Y-49007068D01*
X101521485Y-49007068D02*
X101464342Y-49035639D01*
X101464342Y-49035639D02*
X101407200Y-49092782D01*
X101407200Y-49092782D02*
X101378628Y-49178496D01*
X101378628Y-49178496D02*
X101378628Y-49321353D01*
X101378628Y-48721353D02*
X101978628Y-48721353D01*
X101407200Y-48464211D02*
X101378628Y-48378497D01*
X101378628Y-48378497D02*
X101378628Y-48235639D01*
X101378628Y-48235639D02*
X101407200Y-48178497D01*
X101407200Y-48178497D02*
X101435771Y-48149925D01*
X101435771Y-48149925D02*
X101492914Y-48121354D01*
X101492914Y-48121354D02*
X101550057Y-48121354D01*
X101550057Y-48121354D02*
X101607200Y-48149925D01*
X101607200Y-48149925D02*
X101635771Y-48178497D01*
X101635771Y-48178497D02*
X101664342Y-48235639D01*
X101664342Y-48235639D02*
X101692914Y-48349925D01*
X101692914Y-48349925D02*
X101721485Y-48407068D01*
X101721485Y-48407068D02*
X101750057Y-48435639D01*
X101750057Y-48435639D02*
X101807200Y-48464211D01*
X101807200Y-48464211D02*
X101864342Y-48464211D01*
X101864342Y-48464211D02*
X101921485Y-48435639D01*
X101921485Y-48435639D02*
X101950057Y-48407068D01*
X101950057Y-48407068D02*
X101978628Y-48349925D01*
X101978628Y-48349925D02*
X101978628Y-48207068D01*
X101978628Y-48207068D02*
X101950057Y-48121354D01*
X101378628Y-47864210D02*
X101978628Y-47864210D01*
X101978628Y-47864210D02*
X101978628Y-47635639D01*
X101978628Y-47635639D02*
X101950057Y-47578496D01*
X101950057Y-47578496D02*
X101921485Y-47549925D01*
X101921485Y-47549925D02*
X101864342Y-47521353D01*
X101864342Y-47521353D02*
X101778628Y-47521353D01*
X101778628Y-47521353D02*
X101721485Y-47549925D01*
X101721485Y-47549925D02*
X101692914Y-47578496D01*
X101692914Y-47578496D02*
X101664342Y-47635639D01*
X101664342Y-47635639D02*
X101664342Y-47864210D01*
X101321485Y-47407068D02*
X101321485Y-46949925D01*
X101407200Y-46835639D02*
X101378628Y-46749925D01*
X101378628Y-46749925D02*
X101378628Y-46607067D01*
X101378628Y-46607067D02*
X101407200Y-46549925D01*
X101407200Y-46549925D02*
X101435771Y-46521353D01*
X101435771Y-46521353D02*
X101492914Y-46492782D01*
X101492914Y-46492782D02*
X101550057Y-46492782D01*
X101550057Y-46492782D02*
X101607200Y-46521353D01*
X101607200Y-46521353D02*
X101635771Y-46549925D01*
X101635771Y-46549925D02*
X101664342Y-46607067D01*
X101664342Y-46607067D02*
X101692914Y-46721353D01*
X101692914Y-46721353D02*
X101721485Y-46778496D01*
X101721485Y-46778496D02*
X101750057Y-46807067D01*
X101750057Y-46807067D02*
X101807200Y-46835639D01*
X101807200Y-46835639D02*
X101864342Y-46835639D01*
X101864342Y-46835639D02*
X101921485Y-46807067D01*
X101921485Y-46807067D02*
X101950057Y-46778496D01*
X101950057Y-46778496D02*
X101978628Y-46721353D01*
X101978628Y-46721353D02*
X101978628Y-46578496D01*
X101978628Y-46578496D02*
X101950057Y-46492782D01*
X101435771Y-45892781D02*
X101407200Y-45921353D01*
X101407200Y-45921353D02*
X101378628Y-46007067D01*
X101378628Y-46007067D02*
X101378628Y-46064210D01*
X101378628Y-46064210D02*
X101407200Y-46149924D01*
X101407200Y-46149924D02*
X101464342Y-46207067D01*
X101464342Y-46207067D02*
X101521485Y-46235638D01*
X101521485Y-46235638D02*
X101635771Y-46264210D01*
X101635771Y-46264210D02*
X101721485Y-46264210D01*
X101721485Y-46264210D02*
X101835771Y-46235638D01*
X101835771Y-46235638D02*
X101892914Y-46207067D01*
X101892914Y-46207067D02*
X101950057Y-46149924D01*
X101950057Y-46149924D02*
X101978628Y-46064210D01*
X101978628Y-46064210D02*
X101978628Y-46007067D01*
X101978628Y-46007067D02*
X101950057Y-45921353D01*
X101950057Y-45921353D02*
X101921485Y-45892781D01*
X101378628Y-45349924D02*
X101378628Y-45635638D01*
X101378628Y-45635638D02*
X101978628Y-45635638D01*
X94378628Y-49321353D02*
X94978628Y-49321353D01*
X94978628Y-49321353D02*
X94978628Y-49178496D01*
X94978628Y-49178496D02*
X94950057Y-49092782D01*
X94950057Y-49092782D02*
X94892914Y-49035639D01*
X94892914Y-49035639D02*
X94835771Y-49007068D01*
X94835771Y-49007068D02*
X94721485Y-48978496D01*
X94721485Y-48978496D02*
X94635771Y-48978496D01*
X94635771Y-48978496D02*
X94521485Y-49007068D01*
X94521485Y-49007068D02*
X94464342Y-49035639D01*
X94464342Y-49035639D02*
X94407200Y-49092782D01*
X94407200Y-49092782D02*
X94378628Y-49178496D01*
X94378628Y-49178496D02*
X94378628Y-49321353D01*
X94692914Y-48721353D02*
X94692914Y-48521353D01*
X94378628Y-48435639D02*
X94378628Y-48721353D01*
X94378628Y-48721353D02*
X94978628Y-48721353D01*
X94978628Y-48721353D02*
X94978628Y-48435639D01*
X94692914Y-47978496D02*
X94692914Y-48178496D01*
X94378628Y-48178496D02*
X94978628Y-48178496D01*
X94978628Y-48178496D02*
X94978628Y-47892782D01*
X94550057Y-47692782D02*
X94550057Y-47407068D01*
X94378628Y-47749925D02*
X94978628Y-47549925D01*
X94978628Y-47549925D02*
X94378628Y-47349925D01*
X94978628Y-47149924D02*
X94492914Y-47149924D01*
X94492914Y-47149924D02*
X94435771Y-47121353D01*
X94435771Y-47121353D02*
X94407200Y-47092782D01*
X94407200Y-47092782D02*
X94378628Y-47035639D01*
X94378628Y-47035639D02*
X94378628Y-46921353D01*
X94378628Y-46921353D02*
X94407200Y-46864210D01*
X94407200Y-46864210D02*
X94435771Y-46835639D01*
X94435771Y-46835639D02*
X94492914Y-46807067D01*
X94492914Y-46807067D02*
X94978628Y-46807067D01*
X94378628Y-46235639D02*
X94378628Y-46521353D01*
X94378628Y-46521353D02*
X94978628Y-46521353D01*
X94978628Y-46121354D02*
X94978628Y-45778497D01*
X94378628Y-45949925D02*
X94978628Y-45949925D01*
X94321485Y-45721354D02*
X94321485Y-45264211D01*
X94407200Y-45149925D02*
X94378628Y-45064211D01*
X94378628Y-45064211D02*
X94378628Y-44921353D01*
X94378628Y-44921353D02*
X94407200Y-44864211D01*
X94407200Y-44864211D02*
X94435771Y-44835639D01*
X94435771Y-44835639D02*
X94492914Y-44807068D01*
X94492914Y-44807068D02*
X94550057Y-44807068D01*
X94550057Y-44807068D02*
X94607200Y-44835639D01*
X94607200Y-44835639D02*
X94635771Y-44864211D01*
X94635771Y-44864211D02*
X94664342Y-44921353D01*
X94664342Y-44921353D02*
X94692914Y-45035639D01*
X94692914Y-45035639D02*
X94721485Y-45092782D01*
X94721485Y-45092782D02*
X94750057Y-45121353D01*
X94750057Y-45121353D02*
X94807200Y-45149925D01*
X94807200Y-45149925D02*
X94864342Y-45149925D01*
X94864342Y-45149925D02*
X94921485Y-45121353D01*
X94921485Y-45121353D02*
X94950057Y-45092782D01*
X94950057Y-45092782D02*
X94978628Y-45035639D01*
X94978628Y-45035639D02*
X94978628Y-44892782D01*
X94978628Y-44892782D02*
X94950057Y-44807068D01*
X94978628Y-44607067D02*
X94378628Y-44464210D01*
X94378628Y-44464210D02*
X94807200Y-44349924D01*
X94807200Y-44349924D02*
X94378628Y-44235639D01*
X94378628Y-44235639D02*
X94978628Y-44092782D01*
X86375057Y-37577068D02*
X86403628Y-37634211D01*
X86403628Y-37634211D02*
X86403628Y-37719925D01*
X86403628Y-37719925D02*
X86375057Y-37805639D01*
X86375057Y-37805639D02*
X86317914Y-37862782D01*
X86317914Y-37862782D02*
X86260771Y-37891353D01*
X86260771Y-37891353D02*
X86146485Y-37919925D01*
X86146485Y-37919925D02*
X86060771Y-37919925D01*
X86060771Y-37919925D02*
X85946485Y-37891353D01*
X85946485Y-37891353D02*
X85889342Y-37862782D01*
X85889342Y-37862782D02*
X85832200Y-37805639D01*
X85832200Y-37805639D02*
X85803628Y-37719925D01*
X85803628Y-37719925D02*
X85803628Y-37662782D01*
X85803628Y-37662782D02*
X85832200Y-37577068D01*
X85832200Y-37577068D02*
X85860771Y-37548496D01*
X85860771Y-37548496D02*
X86060771Y-37548496D01*
X86060771Y-37548496D02*
X86060771Y-37662782D01*
X85803628Y-37291353D02*
X86403628Y-37291353D01*
X86403628Y-37291353D02*
X85803628Y-36948496D01*
X85803628Y-36948496D02*
X86403628Y-36948496D01*
X85803628Y-36662782D02*
X86403628Y-36662782D01*
X86403628Y-36662782D02*
X86403628Y-36519925D01*
X86403628Y-36519925D02*
X86375057Y-36434211D01*
X86375057Y-36434211D02*
X86317914Y-36377068D01*
X86317914Y-36377068D02*
X86260771Y-36348497D01*
X86260771Y-36348497D02*
X86146485Y-36319925D01*
X86146485Y-36319925D02*
X86060771Y-36319925D01*
X86060771Y-36319925D02*
X85946485Y-36348497D01*
X85946485Y-36348497D02*
X85889342Y-36377068D01*
X85889342Y-36377068D02*
X85832200Y-36434211D01*
X85832200Y-36434211D02*
X85803628Y-36519925D01*
X85803628Y-36519925D02*
X85803628Y-36662782D01*
D12*
X177009173Y-48213771D02*
X176666316Y-48213771D01*
X176837744Y-48813771D02*
X176837744Y-48213771D01*
X176552030Y-48213771D02*
X176209173Y-48213771D01*
X176380601Y-48813771D02*
X176380601Y-48213771D01*
X175723458Y-48813771D02*
X176009172Y-48813771D01*
X176009172Y-48813771D02*
X176009172Y-48213771D01*
X175666316Y-48870914D02*
X175209173Y-48870914D01*
X175094887Y-48642342D02*
X174809173Y-48642342D01*
X175152030Y-48813771D02*
X174952030Y-48213771D01*
X174952030Y-48213771D02*
X174752030Y-48813771D01*
X174552029Y-48213771D02*
X174552029Y-48699485D01*
X174552029Y-48699485D02*
X174523458Y-48756628D01*
X174523458Y-48756628D02*
X174494887Y-48785200D01*
X174494887Y-48785200D02*
X174437744Y-48813771D01*
X174437744Y-48813771D02*
X174323458Y-48813771D01*
X174323458Y-48813771D02*
X174266315Y-48785200D01*
X174266315Y-48785200D02*
X174237744Y-48756628D01*
X174237744Y-48756628D02*
X174209172Y-48699485D01*
X174209172Y-48699485D02*
X174209172Y-48213771D01*
X173980601Y-48213771D02*
X173580601Y-48813771D01*
X173580601Y-48213771D02*
X173980601Y-48813771D01*
X173494887Y-48870914D02*
X173037744Y-48870914D01*
X172894886Y-48813771D02*
X172894886Y-48213771D01*
X172609172Y-48813771D02*
X172609172Y-48213771D01*
X172609172Y-48213771D02*
X172266315Y-48813771D01*
X172266315Y-48813771D02*
X172266315Y-48213771D01*
D11*
X87378628Y-48978496D02*
X87664342Y-49178496D01*
X87378628Y-49321353D02*
X87978628Y-49321353D01*
X87978628Y-49321353D02*
X87978628Y-49092782D01*
X87978628Y-49092782D02*
X87950057Y-49035639D01*
X87950057Y-49035639D02*
X87921485Y-49007068D01*
X87921485Y-49007068D02*
X87864342Y-48978496D01*
X87864342Y-48978496D02*
X87778628Y-48978496D01*
X87778628Y-48978496D02*
X87721485Y-49007068D01*
X87721485Y-49007068D02*
X87692914Y-49035639D01*
X87692914Y-49035639D02*
X87664342Y-49092782D01*
X87664342Y-49092782D02*
X87664342Y-49321353D01*
X87978628Y-48778496D02*
X87378628Y-48378496D01*
X87978628Y-48378496D02*
X87378628Y-48778496D01*
X87321485Y-48292782D02*
X87321485Y-47835639D01*
X87378628Y-47407067D02*
X87378628Y-47692781D01*
X87378628Y-47692781D02*
X87978628Y-47692781D01*
X87692914Y-47207067D02*
X87692914Y-47007067D01*
X87378628Y-46921353D02*
X87378628Y-47207067D01*
X87378628Y-47207067D02*
X87978628Y-47207067D01*
X87978628Y-47207067D02*
X87978628Y-46921353D01*
X87378628Y-46664210D02*
X87978628Y-46664210D01*
X87978628Y-46664210D02*
X87978628Y-46521353D01*
X87978628Y-46521353D02*
X87950057Y-46435639D01*
X87950057Y-46435639D02*
X87892914Y-46378496D01*
X87892914Y-46378496D02*
X87835771Y-46349925D01*
X87835771Y-46349925D02*
X87721485Y-46321353D01*
X87721485Y-46321353D02*
X87635771Y-46321353D01*
X87635771Y-46321353D02*
X87521485Y-46349925D01*
X87521485Y-46349925D02*
X87464342Y-46378496D01*
X87464342Y-46378496D02*
X87407200Y-46435639D01*
X87407200Y-46435639D02*
X87378628Y-46521353D01*
X87378628Y-46521353D02*
X87378628Y-46664210D01*
X87321485Y-46207068D02*
X87321485Y-45749925D01*
X87692914Y-45607067D02*
X87692914Y-45407067D01*
X87378628Y-45321353D02*
X87378628Y-45607067D01*
X87378628Y-45607067D02*
X87978628Y-45607067D01*
X87978628Y-45607067D02*
X87978628Y-45321353D01*
X87978628Y-45121353D02*
X87378628Y-44721353D01*
X87978628Y-44721353D02*
X87378628Y-45121353D01*
X87978628Y-44578496D02*
X87978628Y-44235639D01*
X87378628Y-44407067D02*
X87978628Y-44407067D01*
X91483628Y-49407068D02*
X91483628Y-49064211D01*
X90883628Y-49235639D02*
X91483628Y-49235639D01*
X91483628Y-48921353D02*
X90883628Y-48521353D01*
X91483628Y-48521353D02*
X90883628Y-48921353D01*
X90826485Y-48435639D02*
X90826485Y-47978496D01*
X90883628Y-47549924D02*
X90883628Y-47835638D01*
X90883628Y-47835638D02*
X91483628Y-47835638D01*
X91197914Y-47349924D02*
X91197914Y-47149924D01*
X90883628Y-47064210D02*
X90883628Y-47349924D01*
X90883628Y-47349924D02*
X91483628Y-47349924D01*
X91483628Y-47349924D02*
X91483628Y-47064210D01*
X90883628Y-46807067D02*
X91483628Y-46807067D01*
X91483628Y-46807067D02*
X91483628Y-46664210D01*
X91483628Y-46664210D02*
X91455057Y-46578496D01*
X91455057Y-46578496D02*
X91397914Y-46521353D01*
X91397914Y-46521353D02*
X91340771Y-46492782D01*
X91340771Y-46492782D02*
X91226485Y-46464210D01*
X91226485Y-46464210D02*
X91140771Y-46464210D01*
X91140771Y-46464210D02*
X91026485Y-46492782D01*
X91026485Y-46492782D02*
X90969342Y-46521353D01*
X90969342Y-46521353D02*
X90912200Y-46578496D01*
X90912200Y-46578496D02*
X90883628Y-46664210D01*
X90883628Y-46664210D02*
X90883628Y-46807067D01*
X90826485Y-46349925D02*
X90826485Y-45892782D01*
X91197914Y-45749924D02*
X91197914Y-45549924D01*
X90883628Y-45464210D02*
X90883628Y-45749924D01*
X90883628Y-45749924D02*
X91483628Y-45749924D01*
X91483628Y-45749924D02*
X91483628Y-45464210D01*
X91483628Y-45264210D02*
X90883628Y-44864210D01*
X91483628Y-44864210D02*
X90883628Y-45264210D01*
X91483628Y-44721353D02*
X91483628Y-44378496D01*
X90883628Y-44549924D02*
X91483628Y-44549924D01*
D13*
X79760000Y-34500000D02*
X179760000Y-34500000D01*
X179760000Y-84500000D01*
X79760000Y-84500000D01*
X79760000Y-34500000D01*
M02*
