<?xml version="1.0" standalone="no"?>
 <!DOCTYPE svg PUBLIC "-//W3C//DTD SVG 1.1//EN" 
 "http://www.w3.org/Graphics/SVG/1.1/DTD/svg11.dtd"> 
<svg
  xmlns:svg="http://www.w3.org/2000/svg"
  xmlns="http://www.w3.org/2000/svg"
  xmlns:xlink="http://www.w3.org/1999/xlink"
  version="1.1"
  width="297.0022mm" height="210.0072mm" viewBox="0.0000 0.0000 297.0022 210.0072">
<title>SVG Image created as b02-F_Silkscreen.svg date 2026/02/16 12:38:54 </title>
  <desc>Image generated by PCBNEW </desc>
<g style="fill:#000000; fill-opacity:1.0000;stroke:#000000; stroke-opacity:1.0000;
stroke-linecap:round; stroke-linejoin:round;"
 transform="translate(0 0) scale(1 1)">
</g>
<g style="fill:#000000; fill-opacity:0.0; 
stroke:#000000; stroke-width:0.0000; stroke-opacity:1; 
stroke-linecap:round; stroke-linejoin:round;">
</g>
<g style="fill:#000000; fill-opacity:0.0; 
stroke:#000000; stroke-width:0.1500; stroke-opacity:1; 
stroke-linecap:round; stroke-linejoin:round;">
<text x="160.1750" y="103.3550"
textLength="1.9643" font-size="1.3333" lengthAdjust="spacingAndGlyphs"
text-anchor="middle" opacity="0">J1</text>
<g class="stroked-text"><desc>J1</desc>
<path d="M159.8417 102.3098
L159.8417 103.0241
" />
<path d="M159.8417 103.0241
L159.7940 103.1670
" />
<path d="M159.7940 103.1670
L159.6988 103.2622
" />
<path d="M159.6988 103.2622
L159.5560 103.3098
" />
<path d="M159.5560 103.3098
L159.4607 103.3098
" />
<path d="M160.8417 103.3098
L160.2702 103.3098
" />
<path d="M160.5560 103.3098
L160.5560 102.3098
" />
<path d="M160.5560 102.3098
L160.4607 102.4527
" />
<path d="M160.4607 102.4527
L160.3655 102.5479
" />
<path d="M160.3655 102.5479
L160.2702 102.5955
" />
</g></g>
<g style="fill:#000000; fill-opacity:0.0; 
stroke:#000000; stroke-width:0.1200; stroke-opacity:1; 
stroke-linecap:round; stroke-linejoin:round;">
<path d="M154.4650 94.3550
L154.4650 103.5750
" />
<path d="M154.4650 94.3550
L161.9850 94.3550
" />
<path d="M154.4650 103.5750
L156.2650 103.5750
" />
<path d="M156.0250 109.4750
L156.0250 111.2150
" />
<path d="M156.0250 111.2150
L157.5250 111.2150
" />
<path d="M156.2650 103.5750
L156.2650 110.9750
" />
<path d="M156.2650 109.4150
L164.0850 109.4150
" />
<path d="M156.2650 110.9750
L164.0850 110.9750
" />
<path d="M161.9850 94.3550
L161.9850 103.4550
" />
<path d="M161.9850 103.4550
L164.0850 103.4550
" />
<path d="M164.0850 103.4550
L164.0850 110.9750
" />
<path d="M156.9930 106.7070 A1.5557 1.5557 0.0 0 0 156.9929 107.9227" />
<path d="M159.0330 105.8830 A1.5557 1.5557 0.0 0 0 157.8173 105.8829" />
<path d="M157.8170 108.7470 A1.5557 1.5557 0.0 0 0 158.4520 108.8705" />
<path d="M158.4250 108.8700 A1.5550 1.5550 0.0 0 0 159.0326 108.7464" />
<path d="M159.8570 107.9230 A1.5557 1.5557 0.0 0 0 159.8571 106.7073" />
<circle cx="161.9250" cy="107.3150" r="1.5550" /> 
<g >
</g>
<g >
</g>
<g >
</g>
<g >
</g>
</g>
<g style="fill:#FFFFFF; fill-opacity:0.0; 
stroke:#FFFFFF; stroke-width:0.1200; stroke-opacity:1; 
stroke-linecap:round; stroke-linejoin:round;">
</g>
<g style="fill:#FFFFFF; fill-opacity:1.0000; 
stroke:#FFFFFF; stroke-width:0.0000; stroke-opacity:1; 
stroke-linecap:round; stroke-linejoin:round;">
<circle cx="158.4250" cy="107.3150" r="0.6000" /> 
</g>
<g style="fill:#FFFFFF; fill-opacity:1.0000; 
stroke:#FFFFFF; stroke-width:0.0212; stroke-opacity:1; 
stroke-linecap:round; stroke-linejoin:round;">
</g>
<g style="fill:#FFFFFF; fill-opacity:1.0000; 
stroke:#FFFFFF; stroke-width:0.0000; stroke-opacity:1; 
stroke-linecap:round; stroke-linejoin:round;">
<circle cx="156.6750" cy="95.8850" r="0.6000" /> 
</g>
<g style="fill:#FFFFFF; fill-opacity:1.0000; 
stroke:#FFFFFF; stroke-width:0.0212; stroke-opacity:1; 
stroke-linecap:round; stroke-linejoin:round;">
</g>
<g style="fill:#FFFFFF; fill-opacity:1.0000; 
stroke:#FFFFFF; stroke-width:0.0000; stroke-opacity:1; 
stroke-linecap:round; stroke-linejoin:round;">
<circle cx="161.9250" cy="107.3150" r="0.6000" /> 
</g>
<g style="fill:#FFFFFF; fill-opacity:1.0000; 
stroke:#FFFFFF; stroke-width:0.0212; stroke-opacity:1; 
stroke-linecap:round; stroke-linejoin:round;">
</g>
<g style="fill:#FFFFFF; fill-opacity:1.0000; 
stroke:#FFFFFF; stroke-width:0.0000; stroke-opacity:1; 
stroke-linecap:round; stroke-linejoin:round;">
<circle cx="160.1750" cy="95.8850" r="0.6000" /> 
</g>
<g style="fill:#FFFFFF; fill-opacity:1.0000; 
stroke:#FFFFFF; stroke-width:0.0212; stroke-opacity:1; 
stroke-linecap:round; stroke-linejoin:round;">
</g>
<g style="fill:#000000; fill-opacity:1.0000; 
stroke:#000000; stroke-width:0.0212; stroke-opacity:1; 
stroke-linecap:round; stroke-linejoin:round;">
</g>
<g style="fill:#000000; fill-opacity:0.0; 
stroke:#000000; stroke-width:0.0500; stroke-opacity:1; 
stroke-linecap:round; stroke-linejoin:round;">
<path style="fill:#000000; fill-opacity:0.0; 
stroke:#000000; stroke-width:0.0500; stroke-opacity:1; 
stroke-linecap:round; stroke-linejoin:round;fill:none"
d="M 151.1300,90.8050
168.9100,90.8050
168.9100,115.5700
151.1300,115.5700
Z" /> 
<g >
</g>
<g >
</g>
<g >
</g>
<g >
</g>
</g> 
</svg>
