%TF.GenerationSoftware,KiCad,Pcbnew,7.0.11+dfsg-1build4*%
%TF.CreationDate,2026-05-24T20:01:26-05:00*%
%TF.ProjectId,b02,6230322e-6b69-4636-9164-5f7063625858,rev?*%
%TF.SameCoordinates,Original*%
%TF.FileFunction,Paste,Top*%
%TF.FilePolarity,Positive*%
%FSLAX46Y46*%
G04 Gerber Fmt 4.6, Leading zero omitted, Abs format (unit mm)*
G04 Created by KiCad (PCBNEW 7.0.11+dfsg-1build4) date 2026-05-24 20:01:26*
%MOMM*%
%LPD*%
G01*
G04 APERTURE LIST*
G04 Aperture macros list*
%AMRoundRect*
0 Rectangle with rounded corners*
0 $1 Rounding radius*
0 $2 $3 $4 $5 $6 $7 $8 $9 X,Y pos of 4 corners*
0 Add a 4 corners polygon primitive as box body*
4,1,4,$2,$3,$4,$5,$6,$7,$8,$9,$2,$3,0*
0 Add four circle primitives for the rounded corners*
1,1,$1+$1,$2,$3*
1,1,$1+$1,$4,$5*
1,1,$1+$1,$6,$7*
1,1,$1+$1,$8,$9*
0 Add four rect primitives between the rounded corners*
20,1,$1+$1,$2,$3,$4,$5,0*
20,1,$1+$1,$4,$5,$6,$7,0*
20,1,$1+$1,$6,$7,$8,$9,0*
20,1,$1+$1,$8,$9,$2,$3,0*%
G04 Aperture macros list end*
%ADD10RoundRect,0.250000X-0.337500X-0.475000X0.337500X-0.475000X0.337500X0.475000X-0.337500X0.475000X0*%
%ADD11RoundRect,0.250000X-0.475000X0.337500X-0.475000X-0.337500X0.475000X-0.337500X0.475000X0.337500X0*%
%ADD12RoundRect,0.250000X0.350000X0.450000X-0.350000X0.450000X-0.350000X-0.450000X0.350000X-0.450000X0*%
%ADD13RoundRect,0.162500X-0.617500X-0.162500X0.617500X-0.162500X0.617500X0.162500X-0.617500X0.162500X0*%
%ADD14RoundRect,0.250000X-0.350000X-0.450000X0.350000X-0.450000X0.350000X0.450000X-0.350000X0.450000X0*%
%ADD15RoundRect,0.150000X-0.512500X-0.150000X0.512500X-0.150000X0.512500X0.150000X-0.512500X0.150000X0*%
%ADD16RoundRect,0.250000X0.337500X0.475000X-0.337500X0.475000X-0.337500X-0.475000X0.337500X-0.475000X0*%
%ADD17RoundRect,0.250000X-0.325000X-0.450000X0.325000X-0.450000X0.325000X0.450000X-0.325000X0.450000X0*%
%ADD18R,1.800000X0.800000*%
%ADD19RoundRect,0.150000X-0.875000X-0.150000X0.875000X-0.150000X0.875000X0.150000X-0.875000X0.150000X0*%
%ADD20RoundRect,0.150000X-0.825000X-0.150000X0.825000X-0.150000X0.825000X0.150000X-0.825000X0.150000X0*%
%ADD21RoundRect,0.375000X-0.625000X-0.375000X0.625000X-0.375000X0.625000X0.375000X-0.625000X0.375000X0*%
%ADD22RoundRect,0.500000X-0.500000X-1.400000X0.500000X-1.400000X0.500000X1.400000X-0.500000X1.400000X0*%
%ADD23R,0.800000X1.800000*%
%ADD24R,1.300000X1.550000*%
%ADD25RoundRect,0.100000X-0.637500X-0.100000X0.637500X-0.100000X0.637500X0.100000X-0.637500X0.100000X0*%
%ADD26R,1.000000X3.100000*%
%TA.AperFunction,Profile*%
%ADD27C,0.050000*%
%TD*%
G04 APERTURE END LIST*
D10*
%TO.C,C3*%
X133299200Y-36728400D03*
X135374200Y-36728400D03*
%TD*%
D11*
%TO.C,C2*%
X148590000Y-67310000D03*
X148590000Y-69385000D03*
%TD*%
D12*
%TO.C,R13*%
X152825200Y-38608000D03*
X150825200Y-38608000D03*
%TD*%
%TO.C,R10*%
X99212400Y-75930000D03*
X97212400Y-75930000D03*
%TD*%
%TO.C,R11*%
X152806400Y-36423600D03*
X150806400Y-36423600D03*
%TD*%
%TO.C,R16*%
X83185000Y-75930000D03*
X81185000Y-75930000D03*
%TD*%
D13*
%TO.C,U6*%
X141978400Y-36525200D03*
X141978400Y-37475200D03*
X141978400Y-38425200D03*
X144678400Y-38425200D03*
X144678400Y-37475200D03*
X144678400Y-36525200D03*
%TD*%
D14*
%TO.C,R14*%
X154736800Y-38608000D03*
X156736800Y-38608000D03*
%TD*%
%TO.C,R8*%
X166640000Y-74930000D03*
X168640000Y-74930000D03*
%TD*%
D12*
%TO.C,R9*%
X95234000Y-75930000D03*
X93234000Y-75930000D03*
%TD*%
D14*
%TO.C,R3*%
X151765000Y-71120000D03*
X153765000Y-71120000D03*
%TD*%
D15*
%TO.C,D4*%
X174255000Y-66360000D03*
X174255000Y-68260000D03*
X176530000Y-67310000D03*
%TD*%
D16*
%TO.C,C1*%
X157015000Y-57150000D03*
X154940000Y-57150000D03*
%TD*%
D17*
%TO.C,D3*%
X89186800Y-75930000D03*
X91236800Y-75930000D03*
%TD*%
D14*
%TO.C,R15*%
X85258400Y-75930000D03*
X87258400Y-75930000D03*
%TD*%
D18*
%TO.C,K3*%
X168290000Y-46675000D03*
X168290000Y-44475000D03*
X168290000Y-48875000D03*
X161290000Y-46675000D03*
X161290000Y-44475000D03*
X161290000Y-48875000D03*
X168290000Y-41275000D03*
X161290000Y-41275000D03*
%TD*%
D11*
%TO.C,C5*%
X105867200Y-46765300D03*
X105867200Y-48840300D03*
%TD*%
D18*
%TO.C,K2*%
X158115000Y-46695000D03*
X158115000Y-44495000D03*
X158115000Y-48895000D03*
X151115000Y-46695000D03*
X151115000Y-44495000D03*
X151115000Y-48895000D03*
X158115000Y-41295000D03*
X151115000Y-41295000D03*
%TD*%
D11*
%TO.C,C4*%
X108254800Y-46743800D03*
X108254800Y-48818800D03*
%TD*%
D16*
%TO.C,C8*%
X144395100Y-40690800D03*
X142320100Y-40690800D03*
%TD*%
D10*
%TO.C,C6*%
X109778800Y-36728400D03*
X111853800Y-36728400D03*
%TD*%
D17*
%TO.C,D2*%
X158681200Y-38658800D03*
X160731200Y-38658800D03*
%TD*%
D16*
%TO.C,C9*%
X126687400Y-36728400D03*
X124612400Y-36728400D03*
%TD*%
D14*
%TO.C,R2*%
X151670000Y-68580000D03*
X153670000Y-68580000D03*
%TD*%
%TO.C,R12*%
X154718000Y-36423600D03*
X156718000Y-36423600D03*
%TD*%
%TO.C,R17*%
X125187200Y-48463200D03*
X127187200Y-48463200D03*
%TD*%
%TO.C,R6*%
X166640000Y-69030000D03*
X168640000Y-69030000D03*
%TD*%
D19*
%TO.C,U3*%
X136115000Y-67310000D03*
X136115000Y-68580000D03*
X136115000Y-69850000D03*
X136115000Y-71120000D03*
X136115000Y-72390000D03*
X136115000Y-73660000D03*
X136115000Y-74930000D03*
X136115000Y-76200000D03*
X145415000Y-76200000D03*
X145415000Y-74930000D03*
X145415000Y-73660000D03*
X145415000Y-72390000D03*
X145415000Y-71120000D03*
X145415000Y-69850000D03*
X145415000Y-68580000D03*
X145415000Y-67310000D03*
%TD*%
D14*
%TO.C,R5*%
X151765000Y-76200000D03*
X153765000Y-76200000D03*
%TD*%
D18*
%TO.C,K4*%
X178300000Y-46675000D03*
X178300000Y-44475000D03*
X178300000Y-48875000D03*
X171300000Y-46675000D03*
X171300000Y-44475000D03*
X171300000Y-48875000D03*
X178300000Y-41275000D03*
X171300000Y-41275000D03*
%TD*%
D16*
%TO.C,C7*%
X107971500Y-36728400D03*
X105896500Y-36728400D03*
%TD*%
D20*
%TO.C,U1*%
X153670000Y-60325000D03*
X153670000Y-61595000D03*
X153670000Y-62865000D03*
X153670000Y-64135000D03*
X158620000Y-64135000D03*
X158620000Y-62865000D03*
X158620000Y-61595000D03*
X158620000Y-60325000D03*
%TD*%
D21*
%TO.C,U7*%
X106120400Y-39800000D03*
X106120400Y-42100000D03*
D22*
X112420400Y-42100000D03*
D21*
X106120400Y-44400000D03*
%TD*%
D14*
%TO.C,R1*%
X116449600Y-36728400D03*
X118449600Y-36728400D03*
%TD*%
D23*
%TO.C,K1*%
X145415000Y-45085000D03*
X143215000Y-45085000D03*
X147615000Y-45085000D03*
X145415000Y-52085000D03*
X143215000Y-52085000D03*
X147615000Y-52085000D03*
X140015000Y-45085000D03*
X140015000Y-52085000D03*
%TD*%
D17*
%TO.C,D1*%
X158681200Y-36525200D03*
X160731200Y-36525200D03*
%TD*%
D24*
%TO.C,SW1*%
X115250400Y-47510600D03*
X115250400Y-39560600D03*
X119750400Y-47510600D03*
X119750400Y-39560600D03*
%TD*%
D25*
%TO.C,U8*%
X122715100Y-39239000D03*
X122715100Y-39889000D03*
X122715100Y-40539000D03*
X122715100Y-41189000D03*
X122715100Y-41839000D03*
X122715100Y-42489000D03*
X122715100Y-43139000D03*
X122715100Y-43789000D03*
X122715100Y-44439000D03*
X122715100Y-45089000D03*
X128440100Y-45089000D03*
X128440100Y-44439000D03*
X128440100Y-43789000D03*
X128440100Y-43139000D03*
X128440100Y-42489000D03*
X128440100Y-41839000D03*
X128440100Y-41189000D03*
X128440100Y-40539000D03*
X128440100Y-39889000D03*
X128440100Y-39239000D03*
%TD*%
D14*
%TO.C,R18*%
X101244400Y-75930000D03*
X103244400Y-75930000D03*
%TD*%
%TO.C,R7*%
X166640000Y-71980000D03*
X168640000Y-71980000D03*
%TD*%
D20*
%TO.C,U2*%
X131445000Y-39370000D03*
X131445000Y-40640000D03*
X131445000Y-41910000D03*
X131445000Y-43180000D03*
X131445000Y-44450000D03*
X131445000Y-45720000D03*
X131445000Y-46990000D03*
X131445000Y-48260000D03*
X136395000Y-48260000D03*
X136395000Y-46990000D03*
X136395000Y-45720000D03*
X136395000Y-44450000D03*
X136395000Y-43180000D03*
X136395000Y-41910000D03*
X136395000Y-40640000D03*
X136395000Y-39370000D03*
%TD*%
D26*
%TO.C,PS1*%
X136525000Y-64240000D03*
X139065000Y-64240000D03*
X144145000Y-64240000D03*
X144145000Y-55140000D03*
X136525000Y-55140000D03*
%TD*%
D14*
%TO.C,R4*%
X151765000Y-73660000D03*
X153765000Y-73660000D03*
%TD*%
D27*
X79760000Y-34500000D02*
X179760000Y-34500000D01*
X179760000Y-84500000D01*
X79760000Y-84500000D01*
X79760000Y-34500000D01*
M02*
