M48
; DRILL file {KiCad 7.0.11+dfsg-1build4} date jue 19 mar 2026 18:44:04
; FORMAT={-:-/ absolute / metric / decimal}
; #@! TF.CreationDate,2026-03-19T18:44:04-05:00
; #@! TF.GenerationSoftware,Kicad,Pcbnew,7.0.11+dfsg-1build4
; #@! TF.FileFunction,Plated,1,2,PTH
FMAT,2
METRIC
; #@! TA.AperFunction,Plated,PTH,ViaDrill
T1C0.300
; #@! TA.AperFunction,Plated,PTH,ComponentDrill
T2C1.000
; #@! TA.AperFunction,Plated,PTH,ComponentDrill
T3C1.200
%
G90
G05
T1
X80.645Y-35.56
X80.645Y-56.515
X80.645Y-77.47
X83.818Y-77.368
X83.892Y-74.008
X95.074Y-38.24
X95.824Y-65.653
X99.06Y-74.008
X100.33Y-74.591
X100.965Y-43.347
X100.965Y-48.26
X113.665Y-47.625
X113.665Y-77.47
X114.712Y-38.815
X115.887Y-41.904
X116.499Y-62.453
X116.515Y-58.377
X117.512Y-41.847
X118.11Y-75.066
X119.446Y-42.524
X119.447Y-74.465
X123.825Y-45.085
X124.02Y-50.8
X124.408Y-46.99
X124.46Y-43.815
X124.62Y-68.375
X125.095Y-69.215
X125.095Y-71.755
X126.338Y-67.637
X127.088Y-46.99
X128.287Y-68.375
X129.31Y-42.641
X129.433Y-38.207
X129.904Y-45.085
X129.93Y-41.32
X129.97Y-47.625
X130.175Y-36.195
X131.445Y-35.56
X132.08Y-51.435
X133.257Y-70.543
X133.474Y-44.386
X133.985Y-36.195
X134.064Y-43.486
X134.332Y-71.011
X134.843Y-40.426
X135.255Y-35.56
X136.525Y-36.195
X137.16Y-38.1
X137.795Y-47.625
X137.795Y-67.31
X137.795Y-77.47
X138.512Y-43.897
X138.749Y-40.589
X139.065Y-49.53
X139.527Y-41.531
X139.7Y-54.61
X139.7Y-61.595
X140.335Y-43.18
X140.335Y-50.165
X143.51Y-48.895
X143.51Y-59.69
X143.51Y-77.47
X146.515Y-45.013
X147.029Y-50.174
X147.955Y-35.56
X149.115Y-45.013
X149.225Y-71.755
X150.477Y-70.51
X150.895Y-53.975
X151.13Y-66.675
X151.765Y-61.595
X152.4Y-65.405
X154.305Y-41.275
X154.305Y-44.45
X154.305Y-48.659
X154.94Y-35.56
X155.059Y-59.086
X155.575Y-66.675
X156.21Y-41.043
X156.845Y-60.325
X159.539Y-50.64
X161.126Y-66.675
X161.925Y-50.165
X162.56Y-52.07
X162.56Y-68.58
X163.195Y-53.34
X163.83Y-50.8
X164.465Y-44.45
X165.1Y-41.275
X165.1Y-71.755
X165.1Y-74.475
X166.37Y-41.275
X168.275Y-76.835
X168.91Y-73.025
X169.545Y-73.66
X169.795Y-49.53
X170.207Y-72.577
X170.286Y-70.592
X171.45Y-38.1
X172.72Y-61.314
X175.26Y-41.275
X175.26Y-44.45
X178.435Y-35.56
X178.435Y-64.77
X178.435Y-77.47
T2
X83.185Y-56.515
X83.185Y-71.755
X85.725Y-56.515
X85.725Y-71.755
X88.265Y-56.515
X88.265Y-71.755
X90.805Y-56.515
X90.805Y-71.755
X93.345Y-56.515
X93.345Y-71.755
X95.885Y-56.515
X95.885Y-71.755
X98.425Y-56.515
X98.425Y-71.755
X100.965Y-56.515
X100.965Y-71.755
X114.935Y-51.7
X117.475Y-51.7
X120.015Y-51.7
X122.555Y-51.7
T3
X82.425Y-39.8
X84.175Y-51.23
X85.925Y-39.8
X87.675Y-51.23
X89.425Y-39.8
X91.175Y-51.23
X92.925Y-39.8
X94.675Y-51.23
X96.425Y-39.8
X98.175Y-51.23
X99.925Y-39.8
X101.675Y-51.23
X163.83Y-56.515
X163.83Y-60.015
X163.83Y-63.515
X175.26Y-54.765
X175.26Y-58.265
X175.26Y-61.765
M30
