M48
; DRILL file {KiCad 7.0.11+dfsg-1build4} date dom 24 may 2026 20:01:22
; FORMAT={-:-/ absolute / metric / decimal}
; #@! TF.CreationDate,2026-05-24T20:01:22-05:00
; #@! TF.GenerationSoftware,Kicad,Pcbnew,7.0.11+dfsg-1build4
; #@! TF.FileFunction,Plated,1,2,PTH
FMAT,2
METRIC
; #@! TA.AperFunction,Plated,PTH,ViaDrill
T1C0.300
; #@! TA.AperFunction,Plated,PTH,ComponentDrill
T2C1.000
; #@! TA.AperFunction,Plated,PTH,ComponentDrill
T3C1.200
%
G90
G05
T1
X80.924Y-77.47
X81.026Y-35.611
X84.081Y-74.008
X89.103Y-36.068
X96.012Y-77.673
X96.164Y-74.219
X99.822Y-67.208
X99.924Y-74.383
X103.53Y-36.627
X104.606Y-53.39
X105.858Y-50.394
X106.076Y-45.664
X108.015Y-44.528
X108.814Y-43.383
X109.545Y-40.89
X110.298Y-41.775
X110.605Y-47.688
X112.116Y-46.076
X112.211Y-74.008
X112.319Y-76.708
X114.96Y-74.676
X116.535Y-54.813
X116.941Y-73.858
X122.393Y-71.755
X123.311Y-38.343
X124.377Y-42.875
X125.425Y-43.84
X125.527Y-41.351
X128.287Y-68.358
X133.149Y-70.619
X134.112Y-72.39
X134.112Y-77.572
X134.468Y-43.84
X137.953Y-38.355
X138.938Y-42.52
X139.954Y-36.83
X140.599Y-38.776
X140.647Y-40.718
X143.154Y-39.421
X146.355Y-38.456
X146.507Y-47.549
X147.472Y-46.685
X147.625Y-54.051
X148.438Y-77.267
X148.692Y-35.306
X148.918Y-59.499
X149.047Y-44.45
X149.149Y-54.458
X149.25Y-37.541
X149.606Y-35.306
X150.063Y-63.764
X152.676Y-48.829
X154.178Y-67.056
X155.143Y-41.3
X155.325Y-71.311
X155.325Y-73.809
X155.647Y-67.375
X156.312Y-48.87
X157.074Y-63.535
X159.548Y-68.673
X160.705Y-69.586
X161.802Y-69.344
X162.458Y-35.865
X162.966Y-48.87
X162.966Y-75.946
X164.033Y-52.324
X164.49Y-47.955
X164.897Y-39.862
X166.472Y-53.391
X169.926Y-74.625
X171.298Y-50.19
X173.78Y-67.421
X175.108Y-41.504
X175.819Y-44.602
X178.359Y-77.419
X178.765Y-35.509
X178.765Y-39.37
T2
X83.185Y-56.515
X83.185Y-71.755
X85.725Y-56.515
X85.725Y-71.755
X88.265Y-56.515
X88.265Y-71.755
X90.805Y-56.515
X90.805Y-71.755
X93.345Y-56.515
X93.345Y-71.755
X95.885Y-56.515
X95.885Y-71.755
X98.425Y-56.515
X98.425Y-71.755
X100.965Y-56.515
X100.965Y-71.755
X114.935Y-51.7
X117.475Y-51.7
X120.015Y-51.7
X122.555Y-51.7
T3
X82.425Y-39.8
X84.175Y-51.23
X85.925Y-39.8
X87.675Y-51.23
X89.425Y-39.8
X91.175Y-51.23
X92.925Y-39.8
X94.675Y-51.23
X96.425Y-39.8
X98.175Y-51.23
X99.925Y-39.8
X101.675Y-51.23
X163.83Y-56.515
X163.83Y-60.015
X163.83Y-63.515
X175.26Y-54.765
X175.26Y-58.265
X175.26Y-61.765
M30
