M48
; DRILL file {KiCad 7.0.11+dfsg-1build4} date jue 30 jul 2026 18:01:17
; FORMAT={-:-/ absolute / metric / decimal}
; #@! TF.CreationDate,2026-07-30T18:01:17-05:00
; #@! TF.GenerationSoftware,Kicad,Pcbnew,7.0.11+dfsg-1build4
; #@! TF.FileFunction,Plated,1,2,PTH
FMAT,2
METRIC
; #@! TA.AperFunction,Plated,PTH,ViaDrill
T1C0.300
; #@! TA.AperFunction,Plated,PTH,ComponentDrill
T2C1.150
%
G90
G05
T1
X102.235Y-119.38
X102.235Y-146.05
X123.75Y-104.8
X123.75Y-119.38
X123.75Y-146.05
X123.75Y-159.2
X145.593Y-119.38
X145.593Y-146.05
T2
X102.15Y-109.0
X102.15Y-134.1
X102.15Y-159.2
X103.65Y-104.8
X103.65Y-129.9
X103.65Y-155.0
X143.85Y-109.0
X143.85Y-134.1
X143.85Y-159.2
X145.35Y-104.8
X145.35Y-129.9
X145.35Y-155.0
M30
