%TF.GenerationSoftware,KiCad,Pcbnew,7.0.11+dfsg-1build4*%
%TF.CreationDate,2026-05-13T15:46:40-05:00*%
%TF.ProjectId,d01_hil_faceplate,6430315f-6869-46c5-9f66-616365706c61,rev?*%
%TF.SameCoordinates,Original*%
%TF.FileFunction,Copper,L1,Top*%
%TF.FilePolarity,Positive*%
%FSLAX46Y46*%
G04 Gerber Fmt 4.6, Leading zero omitted, Abs format (unit mm)*
G04 Created by KiCad (PCBNEW 7.0.11+dfsg-1build4) date 2026-05-13 15:46:40*
%MOMM*%
%LPD*%
G01*
G04 APERTURE LIST*
%TA.AperFunction,ComponentPad*%
%ADD10C,1.400000*%
%TD*%
%TA.AperFunction,ViaPad*%
%ADD11C,0.600000*%
%TD*%
%TA.AperFunction,Conductor*%
%ADD12C,0.200000*%
%TD*%
G04 APERTURE END LIST*
D10*
%TO.P,H3,1,1*%
%TO.N,GND*%
X103650000Y-129900000D03*
%TD*%
%TO.P,H10,1,1*%
%TO.N,GND*%
X120100000Y-134100000D03*
%TD*%
%TO.P,H9,1,1*%
%TO.N,GND*%
X121600000Y-129900000D03*
%TD*%
%TO.P,H7,1,1*%
%TO.N,GND*%
X121600000Y-104800000D03*
%TD*%
%TO.P,H6,1,1*%
%TO.N,GND*%
X102150000Y-159200000D03*
%TD*%
%TO.P,H11,1,1*%
%TO.N,GND*%
X121600000Y-155000000D03*
%TD*%
%TO.P,H1,1,1*%
%TO.N,GND*%
X103650000Y-104800000D03*
%TD*%
%TO.P,H4,1,1*%
%TO.N,GND*%
X102150000Y-134100000D03*
%TD*%
%TO.P,H2,1,1*%
%TO.N,GND*%
X102150000Y-109000000D03*
%TD*%
%TO.P,H8,1,1*%
%TO.N,GND*%
X120100000Y-109000000D03*
%TD*%
%TO.P,H12,1,1*%
%TO.N,GND*%
X120100000Y-159200000D03*
%TD*%
%TO.P,H5,1,1*%
%TO.N,GND*%
X103650000Y-155000000D03*
%TD*%
D11*
%TO.N,GND*%
X121920000Y-119380000D03*
X111760000Y-160655000D03*
X111760000Y-119380000D03*
X121920000Y-146050000D03*
X111760000Y-146050000D03*
X102235000Y-146050000D03*
X102235000Y-119380000D03*
X111760000Y-104775000D03*
%TD*%
D12*
%TO.N,GND*%
X120100000Y-134100000D02*
X120100000Y-153500000D01*
X120100000Y-159200000D02*
X102150000Y-159200000D01*
X103650000Y-135600000D02*
X102150000Y-134100000D01*
X120100000Y-153500000D02*
X121600000Y-155000000D01*
X102150000Y-109000000D02*
X103650000Y-107500000D01*
X121600000Y-107500000D02*
X120100000Y-109000000D01*
X121600000Y-157700000D02*
X120100000Y-159200000D01*
X102150000Y-131400000D02*
X103650000Y-129900000D01*
X120100000Y-109000000D02*
X120100000Y-128400000D01*
X120100000Y-109000000D02*
X102150000Y-109000000D01*
X103650000Y-129900000D02*
X103650000Y-110500000D01*
X121600000Y-155000000D02*
X121600000Y-157700000D01*
X103650000Y-107500000D02*
X103650000Y-104800000D01*
X102150000Y-156500000D02*
X103650000Y-155000000D01*
X102150000Y-134100000D02*
X102150000Y-131400000D01*
X121600000Y-104800000D02*
X121600000Y-107500000D01*
X121600000Y-129900000D02*
X121600000Y-132600000D01*
X121600000Y-132600000D02*
X120100000Y-134100000D01*
X120100000Y-128400000D02*
X121600000Y-129900000D01*
X102150000Y-159200000D02*
X102150000Y-156500000D01*
X103650000Y-110500000D02*
X102150000Y-109000000D01*
X103650000Y-155000000D02*
X103650000Y-135600000D01*
%TD*%
%TA.AperFunction,Conductor*%
%TO.N,GND*%
G36*
X123192539Y-100520185D02*
G01*
X123238294Y-100572989D01*
X123249500Y-100624500D01*
X123249500Y-163375500D01*
X123229815Y-163442539D01*
X123177011Y-163488294D01*
X123125500Y-163499500D01*
X100624500Y-163499500D01*
X100557461Y-163479815D01*
X100511706Y-163427011D01*
X100500500Y-163375500D01*
X100500500Y-159200000D01*
X100944859Y-159200000D01*
X100965378Y-159421439D01*
X101026240Y-159635350D01*
X101125369Y-159834428D01*
X101141137Y-159855308D01*
X101141138Y-159855308D01*
X101606360Y-159390086D01*
X101647738Y-159489981D01*
X101739905Y-159610095D01*
X101860019Y-159702262D01*
X101959913Y-159743639D01*
X101496672Y-160206879D01*
X101496672Y-160206880D01*
X101612821Y-160278797D01*
X101612822Y-160278798D01*
X101820195Y-160359134D01*
X102038807Y-160400000D01*
X102261193Y-160400000D01*
X102479809Y-160359133D01*
X102687168Y-160278801D01*
X102687181Y-160278795D01*
X102803326Y-160206879D01*
X102340086Y-159743639D01*
X102439981Y-159702262D01*
X102560095Y-159610095D01*
X102652262Y-159489981D01*
X102693639Y-159390086D01*
X103158861Y-159855308D01*
X103174631Y-159834425D01*
X103174633Y-159834422D01*
X103273759Y-159635350D01*
X103334621Y-159421439D01*
X103355141Y-159200000D01*
X118894859Y-159200000D01*
X118915378Y-159421439D01*
X118976240Y-159635350D01*
X119075369Y-159834428D01*
X119091137Y-159855308D01*
X119091138Y-159855308D01*
X119556360Y-159390086D01*
X119597738Y-159489981D01*
X119689905Y-159610095D01*
X119810019Y-159702262D01*
X119909913Y-159743639D01*
X119446672Y-160206879D01*
X119446672Y-160206880D01*
X119562821Y-160278797D01*
X119562822Y-160278798D01*
X119770195Y-160359134D01*
X119988807Y-160400000D01*
X120211193Y-160400000D01*
X120429809Y-160359133D01*
X120637168Y-160278801D01*
X120637181Y-160278795D01*
X120753326Y-160206879D01*
X120290086Y-159743639D01*
X120389981Y-159702262D01*
X120510095Y-159610095D01*
X120602262Y-159489981D01*
X120643639Y-159390086D01*
X121108861Y-159855308D01*
X121124631Y-159834425D01*
X121124633Y-159834422D01*
X121223759Y-159635350D01*
X121284621Y-159421439D01*
X121305141Y-159200000D01*
X121305141Y-159199999D01*
X121284621Y-158978560D01*
X121223759Y-158764649D01*
X121124635Y-158565580D01*
X121124630Y-158565572D01*
X121108860Y-158544690D01*
X120643638Y-159009912D01*
X120602262Y-158910019D01*
X120510095Y-158789905D01*
X120389981Y-158697738D01*
X120290086Y-158656360D01*
X120753327Y-158193119D01*
X120637178Y-158121202D01*
X120637177Y-158121201D01*
X120429804Y-158040865D01*
X120211193Y-158000000D01*
X119988807Y-158000000D01*
X119770195Y-158040865D01*
X119562824Y-158121200D01*
X119562823Y-158121201D01*
X119446671Y-158193119D01*
X119909913Y-158656360D01*
X119810019Y-158697738D01*
X119689905Y-158789905D01*
X119597738Y-158910019D01*
X119556360Y-159009913D01*
X119091138Y-158544691D01*
X119091137Y-158544691D01*
X119075368Y-158565574D01*
X118976240Y-158764649D01*
X118915378Y-158978560D01*
X118894859Y-159199999D01*
X118894859Y-159200000D01*
X103355141Y-159200000D01*
X103355141Y-159199999D01*
X103334621Y-158978560D01*
X103273759Y-158764649D01*
X103174635Y-158565580D01*
X103174630Y-158565572D01*
X103158860Y-158544690D01*
X102693638Y-159009912D01*
X102652262Y-158910019D01*
X102560095Y-158789905D01*
X102439981Y-158697738D01*
X102340086Y-158656360D01*
X102803327Y-158193119D01*
X102687178Y-158121202D01*
X102687177Y-158121201D01*
X102479804Y-158040865D01*
X102261193Y-158000000D01*
X102038807Y-158000000D01*
X101820195Y-158040865D01*
X101612824Y-158121200D01*
X101612823Y-158121201D01*
X101496671Y-158193119D01*
X101959913Y-158656360D01*
X101860019Y-158697738D01*
X101739905Y-158789905D01*
X101647738Y-158910019D01*
X101606360Y-159009913D01*
X101141138Y-158544691D01*
X101141137Y-158544691D01*
X101125368Y-158565574D01*
X101026240Y-158764649D01*
X100965378Y-158978560D01*
X100944859Y-159199999D01*
X100944859Y-159200000D01*
X100500500Y-159200000D01*
X100500500Y-155000000D01*
X102444859Y-155000000D01*
X102465378Y-155221439D01*
X102526240Y-155435350D01*
X102625369Y-155634428D01*
X102641137Y-155655308D01*
X102641138Y-155655308D01*
X103106360Y-155190086D01*
X103147738Y-155289981D01*
X103239905Y-155410095D01*
X103360019Y-155502262D01*
X103459913Y-155543639D01*
X102996672Y-156006879D01*
X102996672Y-156006880D01*
X103112821Y-156078797D01*
X103112822Y-156078798D01*
X103320195Y-156159134D01*
X103538807Y-156200000D01*
X103761193Y-156200000D01*
X103979809Y-156159133D01*
X104187168Y-156078801D01*
X104187181Y-156078795D01*
X104303326Y-156006879D01*
X103840086Y-155543639D01*
X103939981Y-155502262D01*
X104060095Y-155410095D01*
X104152262Y-155289981D01*
X104193639Y-155190086D01*
X104658861Y-155655308D01*
X104674631Y-155634425D01*
X104674633Y-155634422D01*
X104773759Y-155435350D01*
X104834621Y-155221439D01*
X104855141Y-155000000D01*
X120394859Y-155000000D01*
X120415378Y-155221439D01*
X120476240Y-155435350D01*
X120575369Y-155634428D01*
X120591137Y-155655308D01*
X120591138Y-155655308D01*
X121056360Y-155190086D01*
X121097738Y-155289981D01*
X121189905Y-155410095D01*
X121310019Y-155502262D01*
X121409913Y-155543639D01*
X120946672Y-156006879D01*
X120946672Y-156006880D01*
X121062821Y-156078797D01*
X121062822Y-156078798D01*
X121270195Y-156159134D01*
X121488807Y-156200000D01*
X121711193Y-156200000D01*
X121929809Y-156159133D01*
X122137168Y-156078801D01*
X122137181Y-156078795D01*
X122253326Y-156006879D01*
X121790086Y-155543639D01*
X121889981Y-155502262D01*
X122010095Y-155410095D01*
X122102262Y-155289981D01*
X122143639Y-155190086D01*
X122608861Y-155655308D01*
X122624631Y-155634425D01*
X122624633Y-155634422D01*
X122723759Y-155435350D01*
X122784621Y-155221439D01*
X122805141Y-155000000D01*
X122805141Y-154999999D01*
X122784621Y-154778560D01*
X122723759Y-154564649D01*
X122624635Y-154365580D01*
X122624630Y-154365572D01*
X122608860Y-154344690D01*
X122143638Y-154809912D01*
X122102262Y-154710019D01*
X122010095Y-154589905D01*
X121889981Y-154497738D01*
X121790086Y-154456360D01*
X122253327Y-153993119D01*
X122137178Y-153921202D01*
X122137177Y-153921201D01*
X121929804Y-153840865D01*
X121711193Y-153800000D01*
X121488807Y-153800000D01*
X121270195Y-153840865D01*
X121062824Y-153921200D01*
X121062823Y-153921201D01*
X120946671Y-153993119D01*
X121409913Y-154456360D01*
X121310019Y-154497738D01*
X121189905Y-154589905D01*
X121097738Y-154710019D01*
X121056360Y-154809913D01*
X120591138Y-154344691D01*
X120591137Y-154344691D01*
X120575368Y-154365574D01*
X120476240Y-154564649D01*
X120415378Y-154778560D01*
X120394859Y-154999999D01*
X120394859Y-155000000D01*
X104855141Y-155000000D01*
X104855141Y-154999999D01*
X104834621Y-154778560D01*
X104773759Y-154564649D01*
X104674635Y-154365580D01*
X104674630Y-154365572D01*
X104658860Y-154344690D01*
X104193638Y-154809912D01*
X104152262Y-154710019D01*
X104060095Y-154589905D01*
X103939981Y-154497738D01*
X103840086Y-154456360D01*
X104303327Y-153993119D01*
X104187178Y-153921202D01*
X104187177Y-153921201D01*
X103979804Y-153840865D01*
X103761193Y-153800000D01*
X103538807Y-153800000D01*
X103320195Y-153840865D01*
X103112824Y-153921200D01*
X103112823Y-153921201D01*
X102996671Y-153993119D01*
X103459913Y-154456360D01*
X103360019Y-154497738D01*
X103239905Y-154589905D01*
X103147738Y-154710019D01*
X103106360Y-154809913D01*
X102641138Y-154344691D01*
X102641137Y-154344691D01*
X102625368Y-154365574D01*
X102526240Y-154564649D01*
X102465378Y-154778560D01*
X102444859Y-154999999D01*
X102444859Y-155000000D01*
X100500500Y-155000000D01*
X100500500Y-134100000D01*
X100944859Y-134100000D01*
X100965378Y-134321439D01*
X101026240Y-134535350D01*
X101125369Y-134734428D01*
X101141137Y-134755308D01*
X101141138Y-134755308D01*
X101606360Y-134290086D01*
X101647738Y-134389981D01*
X101739905Y-134510095D01*
X101860019Y-134602262D01*
X101959913Y-134643639D01*
X101496672Y-135106879D01*
X101496672Y-135106880D01*
X101612821Y-135178797D01*
X101612822Y-135178798D01*
X101820195Y-135259134D01*
X102038807Y-135300000D01*
X102261193Y-135300000D01*
X102479809Y-135259133D01*
X102687168Y-135178801D01*
X102687181Y-135178795D01*
X102803326Y-135106879D01*
X102340086Y-134643639D01*
X102439981Y-134602262D01*
X102560095Y-134510095D01*
X102652262Y-134389981D01*
X102693639Y-134290086D01*
X103158861Y-134755308D01*
X103174631Y-134734425D01*
X103174633Y-134734422D01*
X103273759Y-134535350D01*
X103334621Y-134321439D01*
X103355141Y-134100000D01*
X118894859Y-134100000D01*
X118915378Y-134321439D01*
X118976240Y-134535350D01*
X119075369Y-134734428D01*
X119091137Y-134755308D01*
X119091138Y-134755308D01*
X119556360Y-134290086D01*
X119597738Y-134389981D01*
X119689905Y-134510095D01*
X119810019Y-134602262D01*
X119909913Y-134643639D01*
X119446672Y-135106879D01*
X119446672Y-135106880D01*
X119562821Y-135178797D01*
X119562822Y-135178798D01*
X119770195Y-135259134D01*
X119988807Y-135300000D01*
X120211193Y-135300000D01*
X120429809Y-135259133D01*
X120637168Y-135178801D01*
X120637181Y-135178795D01*
X120753326Y-135106879D01*
X120290086Y-134643639D01*
X120389981Y-134602262D01*
X120510095Y-134510095D01*
X120602262Y-134389981D01*
X120643639Y-134290086D01*
X121108861Y-134755308D01*
X121124631Y-134734425D01*
X121124633Y-134734422D01*
X121223759Y-134535350D01*
X121284621Y-134321439D01*
X121305141Y-134100000D01*
X121305141Y-134099999D01*
X121284621Y-133878560D01*
X121223759Y-133664649D01*
X121124635Y-133465580D01*
X121124630Y-133465572D01*
X121108860Y-133444690D01*
X120643638Y-133909912D01*
X120602262Y-133810019D01*
X120510095Y-133689905D01*
X120389981Y-133597738D01*
X120290086Y-133556360D01*
X120753327Y-133093119D01*
X120637178Y-133021202D01*
X120637177Y-133021201D01*
X120429804Y-132940865D01*
X120211193Y-132900000D01*
X119988807Y-132900000D01*
X119770195Y-132940865D01*
X119562824Y-133021200D01*
X119562823Y-133021201D01*
X119446671Y-133093119D01*
X119909913Y-133556360D01*
X119810019Y-133597738D01*
X119689905Y-133689905D01*
X119597738Y-133810019D01*
X119556360Y-133909913D01*
X119091138Y-133444691D01*
X119091137Y-133444691D01*
X119075368Y-133465574D01*
X118976240Y-133664649D01*
X118915378Y-133878560D01*
X118894859Y-134099999D01*
X118894859Y-134100000D01*
X103355141Y-134100000D01*
X103355141Y-134099999D01*
X103334621Y-133878560D01*
X103273759Y-133664649D01*
X103174635Y-133465580D01*
X103174630Y-133465572D01*
X103158860Y-133444690D01*
X102693638Y-133909912D01*
X102652262Y-133810019D01*
X102560095Y-133689905D01*
X102439981Y-133597738D01*
X102340086Y-133556360D01*
X102803327Y-133093119D01*
X102687178Y-133021202D01*
X102687177Y-133021201D01*
X102479804Y-132940865D01*
X102261193Y-132900000D01*
X102038807Y-132900000D01*
X101820195Y-132940865D01*
X101612824Y-133021200D01*
X101612823Y-133021201D01*
X101496671Y-133093119D01*
X101959913Y-133556360D01*
X101860019Y-133597738D01*
X101739905Y-133689905D01*
X101647738Y-133810019D01*
X101606360Y-133909913D01*
X101141138Y-133444691D01*
X101141137Y-133444691D01*
X101125368Y-133465574D01*
X101026240Y-133664649D01*
X100965378Y-133878560D01*
X100944859Y-134099999D01*
X100944859Y-134100000D01*
X100500500Y-134100000D01*
X100500500Y-129900000D01*
X102444859Y-129900000D01*
X102465378Y-130121439D01*
X102526240Y-130335350D01*
X102625369Y-130534428D01*
X102641137Y-130555308D01*
X102641138Y-130555308D01*
X103106360Y-130090086D01*
X103147738Y-130189981D01*
X103239905Y-130310095D01*
X103360019Y-130402262D01*
X103459913Y-130443639D01*
X102996672Y-130906879D01*
X102996672Y-130906880D01*
X103112821Y-130978797D01*
X103112822Y-130978798D01*
X103320195Y-131059134D01*
X103538807Y-131100000D01*
X103761193Y-131100000D01*
X103979809Y-131059133D01*
X104187168Y-130978801D01*
X104187181Y-130978795D01*
X104303326Y-130906879D01*
X103840086Y-130443639D01*
X103939981Y-130402262D01*
X104060095Y-130310095D01*
X104152262Y-130189981D01*
X104193639Y-130090086D01*
X104658861Y-130555308D01*
X104674631Y-130534425D01*
X104674633Y-130534422D01*
X104773759Y-130335350D01*
X104834621Y-130121439D01*
X104855141Y-129900000D01*
X120394859Y-129900000D01*
X120415378Y-130121439D01*
X120476240Y-130335350D01*
X120575369Y-130534428D01*
X120591137Y-130555308D01*
X120591138Y-130555308D01*
X121056360Y-130090086D01*
X121097738Y-130189981D01*
X121189905Y-130310095D01*
X121310019Y-130402262D01*
X121409913Y-130443639D01*
X120946672Y-130906879D01*
X120946672Y-130906880D01*
X121062821Y-130978797D01*
X121062822Y-130978798D01*
X121270195Y-131059134D01*
X121488807Y-131100000D01*
X121711193Y-131100000D01*
X121929809Y-131059133D01*
X122137168Y-130978801D01*
X122137181Y-130978795D01*
X122253326Y-130906879D01*
X121790086Y-130443639D01*
X121889981Y-130402262D01*
X122010095Y-130310095D01*
X122102262Y-130189981D01*
X122143639Y-130090086D01*
X122608861Y-130555308D01*
X122624631Y-130534425D01*
X122624633Y-130534422D01*
X122723759Y-130335350D01*
X122784621Y-130121439D01*
X122805141Y-129900000D01*
X122805141Y-129899999D01*
X122784621Y-129678560D01*
X122723759Y-129464649D01*
X122624635Y-129265580D01*
X122624630Y-129265572D01*
X122608860Y-129244690D01*
X122143638Y-129709912D01*
X122102262Y-129610019D01*
X122010095Y-129489905D01*
X121889981Y-129397738D01*
X121790086Y-129356360D01*
X122253327Y-128893119D01*
X122137178Y-128821202D01*
X122137177Y-128821201D01*
X121929804Y-128740865D01*
X121711193Y-128700000D01*
X121488807Y-128700000D01*
X121270195Y-128740865D01*
X121062824Y-128821200D01*
X121062823Y-128821201D01*
X120946671Y-128893119D01*
X121409913Y-129356360D01*
X121310019Y-129397738D01*
X121189905Y-129489905D01*
X121097738Y-129610019D01*
X121056360Y-129709913D01*
X120591138Y-129244691D01*
X120591137Y-129244691D01*
X120575368Y-129265574D01*
X120476240Y-129464649D01*
X120415378Y-129678560D01*
X120394859Y-129899999D01*
X120394859Y-129900000D01*
X104855141Y-129900000D01*
X104855141Y-129899999D01*
X104834621Y-129678560D01*
X104773759Y-129464649D01*
X104674635Y-129265580D01*
X104674630Y-129265572D01*
X104658860Y-129244690D01*
X104193638Y-129709912D01*
X104152262Y-129610019D01*
X104060095Y-129489905D01*
X103939981Y-129397738D01*
X103840086Y-129356360D01*
X104303327Y-128893119D01*
X104187178Y-128821202D01*
X104187177Y-128821201D01*
X103979804Y-128740865D01*
X103761193Y-128700000D01*
X103538807Y-128700000D01*
X103320195Y-128740865D01*
X103112824Y-128821200D01*
X103112823Y-128821201D01*
X102996671Y-128893119D01*
X103459913Y-129356360D01*
X103360019Y-129397738D01*
X103239905Y-129489905D01*
X103147738Y-129610019D01*
X103106360Y-129709913D01*
X102641138Y-129244691D01*
X102641137Y-129244691D01*
X102625368Y-129265574D01*
X102526240Y-129464649D01*
X102465378Y-129678560D01*
X102444859Y-129899999D01*
X102444859Y-129900000D01*
X100500500Y-129900000D01*
X100500500Y-109000000D01*
X100944859Y-109000000D01*
X100965378Y-109221439D01*
X101026240Y-109435350D01*
X101125369Y-109634428D01*
X101141137Y-109655308D01*
X101141138Y-109655308D01*
X101606360Y-109190086D01*
X101647738Y-109289981D01*
X101739905Y-109410095D01*
X101860019Y-109502262D01*
X101959913Y-109543639D01*
X101496672Y-110006879D01*
X101496672Y-110006880D01*
X101612821Y-110078797D01*
X101612822Y-110078798D01*
X101820195Y-110159134D01*
X102038807Y-110200000D01*
X102261193Y-110200000D01*
X102479809Y-110159133D01*
X102687168Y-110078801D01*
X102687181Y-110078795D01*
X102803326Y-110006879D01*
X102340086Y-109543639D01*
X102439981Y-109502262D01*
X102560095Y-109410095D01*
X102652262Y-109289981D01*
X102693639Y-109190086D01*
X103158861Y-109655308D01*
X103174631Y-109634425D01*
X103174633Y-109634422D01*
X103273759Y-109435350D01*
X103334621Y-109221439D01*
X103355141Y-109000000D01*
X118894859Y-109000000D01*
X118915378Y-109221439D01*
X118976240Y-109435350D01*
X119075369Y-109634428D01*
X119091137Y-109655308D01*
X119091138Y-109655308D01*
X119556360Y-109190086D01*
X119597738Y-109289981D01*
X119689905Y-109410095D01*
X119810019Y-109502262D01*
X119909913Y-109543639D01*
X119446672Y-110006879D01*
X119446672Y-110006880D01*
X119562821Y-110078797D01*
X119562822Y-110078798D01*
X119770195Y-110159134D01*
X119988807Y-110200000D01*
X120211193Y-110200000D01*
X120429809Y-110159133D01*
X120637168Y-110078801D01*
X120637181Y-110078795D01*
X120753326Y-110006879D01*
X120290086Y-109543639D01*
X120389981Y-109502262D01*
X120510095Y-109410095D01*
X120602262Y-109289981D01*
X120643639Y-109190086D01*
X121108861Y-109655308D01*
X121124631Y-109634425D01*
X121124633Y-109634422D01*
X121223759Y-109435350D01*
X121284621Y-109221439D01*
X121305141Y-109000000D01*
X121305141Y-108999999D01*
X121284621Y-108778560D01*
X121223759Y-108564649D01*
X121124635Y-108365580D01*
X121124630Y-108365572D01*
X121108860Y-108344690D01*
X120643638Y-108809912D01*
X120602262Y-108710019D01*
X120510095Y-108589905D01*
X120389981Y-108497738D01*
X120290086Y-108456360D01*
X120753327Y-107993119D01*
X120637178Y-107921202D01*
X120637177Y-107921201D01*
X120429804Y-107840865D01*
X120211193Y-107800000D01*
X119988807Y-107800000D01*
X119770195Y-107840865D01*
X119562824Y-107921200D01*
X119562823Y-107921201D01*
X119446671Y-107993119D01*
X119909913Y-108456360D01*
X119810019Y-108497738D01*
X119689905Y-108589905D01*
X119597738Y-108710019D01*
X119556360Y-108809913D01*
X119091138Y-108344691D01*
X119091137Y-108344691D01*
X119075368Y-108365574D01*
X118976240Y-108564649D01*
X118915378Y-108778560D01*
X118894859Y-108999999D01*
X118894859Y-109000000D01*
X103355141Y-109000000D01*
X103355141Y-108999999D01*
X103334621Y-108778560D01*
X103273759Y-108564649D01*
X103174635Y-108365580D01*
X103174630Y-108365572D01*
X103158860Y-108344690D01*
X102693638Y-108809912D01*
X102652262Y-108710019D01*
X102560095Y-108589905D01*
X102439981Y-108497738D01*
X102340086Y-108456360D01*
X102803327Y-107993119D01*
X102687178Y-107921202D01*
X102687177Y-107921201D01*
X102479804Y-107840865D01*
X102261193Y-107800000D01*
X102038807Y-107800000D01*
X101820195Y-107840865D01*
X101612824Y-107921200D01*
X101612823Y-107921201D01*
X101496671Y-107993119D01*
X101959913Y-108456360D01*
X101860019Y-108497738D01*
X101739905Y-108589905D01*
X101647738Y-108710019D01*
X101606360Y-108809913D01*
X101141138Y-108344691D01*
X101141137Y-108344691D01*
X101125368Y-108365574D01*
X101026240Y-108564649D01*
X100965378Y-108778560D01*
X100944859Y-108999999D01*
X100944859Y-109000000D01*
X100500500Y-109000000D01*
X100500500Y-104800000D01*
X102444859Y-104800000D01*
X102465378Y-105021439D01*
X102526240Y-105235350D01*
X102625369Y-105434428D01*
X102641137Y-105455308D01*
X102641138Y-105455308D01*
X103106360Y-104990086D01*
X103147738Y-105089981D01*
X103239905Y-105210095D01*
X103360019Y-105302262D01*
X103459913Y-105343639D01*
X102996672Y-105806879D01*
X102996672Y-105806880D01*
X103112821Y-105878797D01*
X103112822Y-105878798D01*
X103320195Y-105959134D01*
X103538807Y-106000000D01*
X103761193Y-106000000D01*
X103979809Y-105959133D01*
X104187168Y-105878801D01*
X104187181Y-105878795D01*
X104303326Y-105806879D01*
X103840086Y-105343639D01*
X103939981Y-105302262D01*
X104060095Y-105210095D01*
X104152262Y-105089981D01*
X104193639Y-104990086D01*
X104658861Y-105455308D01*
X104674631Y-105434425D01*
X104674633Y-105434422D01*
X104773759Y-105235350D01*
X104834621Y-105021439D01*
X104855141Y-104800000D01*
X120394859Y-104800000D01*
X120415378Y-105021439D01*
X120476240Y-105235350D01*
X120575369Y-105434428D01*
X120591137Y-105455308D01*
X120591138Y-105455308D01*
X121056360Y-104990086D01*
X121097738Y-105089981D01*
X121189905Y-105210095D01*
X121310019Y-105302262D01*
X121409913Y-105343639D01*
X120946672Y-105806879D01*
X120946672Y-105806880D01*
X121062821Y-105878797D01*
X121062822Y-105878798D01*
X121270195Y-105959134D01*
X121488807Y-106000000D01*
X121711193Y-106000000D01*
X121929809Y-105959133D01*
X122137168Y-105878801D01*
X122137181Y-105878795D01*
X122253326Y-105806879D01*
X121790086Y-105343639D01*
X121889981Y-105302262D01*
X122010095Y-105210095D01*
X122102262Y-105089981D01*
X122143639Y-104990086D01*
X122608861Y-105455308D01*
X122624631Y-105434425D01*
X122624633Y-105434422D01*
X122723759Y-105235350D01*
X122784621Y-105021439D01*
X122805141Y-104800000D01*
X122805141Y-104799999D01*
X122784621Y-104578560D01*
X122723759Y-104364649D01*
X122624635Y-104165580D01*
X122624630Y-104165572D01*
X122608860Y-104144690D01*
X122143638Y-104609912D01*
X122102262Y-104510019D01*
X122010095Y-104389905D01*
X121889981Y-104297738D01*
X121790086Y-104256360D01*
X122253327Y-103793119D01*
X122137178Y-103721202D01*
X122137177Y-103721201D01*
X121929804Y-103640865D01*
X121711193Y-103600000D01*
X121488807Y-103600000D01*
X121270195Y-103640865D01*
X121062824Y-103721200D01*
X121062823Y-103721201D01*
X120946671Y-103793119D01*
X121409913Y-104256360D01*
X121310019Y-104297738D01*
X121189905Y-104389905D01*
X121097738Y-104510019D01*
X121056360Y-104609913D01*
X120591138Y-104144691D01*
X120591137Y-104144691D01*
X120575368Y-104165574D01*
X120476240Y-104364649D01*
X120415378Y-104578560D01*
X120394859Y-104799999D01*
X120394859Y-104800000D01*
X104855141Y-104800000D01*
X104855141Y-104799999D01*
X104834621Y-104578560D01*
X104773759Y-104364649D01*
X104674635Y-104165580D01*
X104674630Y-104165572D01*
X104658860Y-104144690D01*
X104193638Y-104609912D01*
X104152262Y-104510019D01*
X104060095Y-104389905D01*
X103939981Y-104297738D01*
X103840086Y-104256360D01*
X104303327Y-103793119D01*
X104187178Y-103721202D01*
X104187177Y-103721201D01*
X103979804Y-103640865D01*
X103761193Y-103600000D01*
X103538807Y-103600000D01*
X103320195Y-103640865D01*
X103112824Y-103721200D01*
X103112823Y-103721201D01*
X102996671Y-103793119D01*
X103459913Y-104256360D01*
X103360019Y-104297738D01*
X103239905Y-104389905D01*
X103147738Y-104510019D01*
X103106360Y-104609913D01*
X102641138Y-104144691D01*
X102641137Y-104144691D01*
X102625368Y-104165574D01*
X102526240Y-104364649D01*
X102465378Y-104578560D01*
X102444859Y-104799999D01*
X102444859Y-104800000D01*
X100500500Y-104800000D01*
X100500500Y-100624500D01*
X100520185Y-100557461D01*
X100572989Y-100511706D01*
X100624500Y-100500500D01*
X123125500Y-100500500D01*
X123192539Y-100520185D01*
G37*
%TD.AperFunction*%
%TD*%
M02*
