%TF.GenerationSoftware,KiCad,Pcbnew,7.0.11+dfsg-1build4*%
%TF.CreationDate,2026-05-13T15:46:40-05:00*%
%TF.ProjectId,d01_hil_faceplate,6430315f-6869-46c5-9f66-616365706c61,rev?*%
%TF.SameCoordinates,Original*%
%TF.FileFunction,Legend,Bot*%
%TF.FilePolarity,Positive*%
%FSLAX46Y46*%
G04 Gerber Fmt 4.6, Leading zero omitted, Abs format (unit mm)*
G04 Created by KiCad (PCBNEW 7.0.11+dfsg-1build4) date 2026-05-13 15:46:40*
%MOMM*%
%LPD*%
G01*
G04 APERTURE LIST*
%ADD10C,0.150000*%
G04 APERTURE END LIST*
D10*
X117773220Y-162429819D02*
X117773220Y-161429819D01*
X117773220Y-161429819D02*
X117535125Y-161429819D01*
X117535125Y-161429819D02*
X117392268Y-161477438D01*
X117392268Y-161477438D02*
X117297030Y-161572676D01*
X117297030Y-161572676D02*
X117249411Y-161667914D01*
X117249411Y-161667914D02*
X117201792Y-161858390D01*
X117201792Y-161858390D02*
X117201792Y-162001247D01*
X117201792Y-162001247D02*
X117249411Y-162191723D01*
X117249411Y-162191723D02*
X117297030Y-162286961D01*
X117297030Y-162286961D02*
X117392268Y-162382200D01*
X117392268Y-162382200D02*
X117535125Y-162429819D01*
X117535125Y-162429819D02*
X117773220Y-162429819D01*
X116582744Y-161429819D02*
X116487506Y-161429819D01*
X116487506Y-161429819D02*
X116392268Y-161477438D01*
X116392268Y-161477438D02*
X116344649Y-161525057D01*
X116344649Y-161525057D02*
X116297030Y-161620295D01*
X116297030Y-161620295D02*
X116249411Y-161810771D01*
X116249411Y-161810771D02*
X116249411Y-162048866D01*
X116249411Y-162048866D02*
X116297030Y-162239342D01*
X116297030Y-162239342D02*
X116344649Y-162334580D01*
X116344649Y-162334580D02*
X116392268Y-162382200D01*
X116392268Y-162382200D02*
X116487506Y-162429819D01*
X116487506Y-162429819D02*
X116582744Y-162429819D01*
X116582744Y-162429819D02*
X116677982Y-162382200D01*
X116677982Y-162382200D02*
X116725601Y-162334580D01*
X116725601Y-162334580D02*
X116773220Y-162239342D01*
X116773220Y-162239342D02*
X116820839Y-162048866D01*
X116820839Y-162048866D02*
X116820839Y-161810771D01*
X116820839Y-161810771D02*
X116773220Y-161620295D01*
X116773220Y-161620295D02*
X116725601Y-161525057D01*
X116725601Y-161525057D02*
X116677982Y-161477438D01*
X116677982Y-161477438D02*
X116582744Y-161429819D01*
X115297030Y-162429819D02*
X115868458Y-162429819D01*
X115582744Y-162429819D02*
X115582744Y-161429819D01*
X115582744Y-161429819D02*
X115677982Y-161572676D01*
X115677982Y-161572676D02*
X115773220Y-161667914D01*
X115773220Y-161667914D02*
X115868458Y-161715533D01*
X115106554Y-162525057D02*
X114344649Y-162525057D01*
X114106553Y-162429819D02*
X114106553Y-161429819D01*
X113677982Y-162429819D02*
X113677982Y-161906009D01*
X113677982Y-161906009D02*
X113725601Y-161810771D01*
X113725601Y-161810771D02*
X113820839Y-161763152D01*
X113820839Y-161763152D02*
X113963696Y-161763152D01*
X113963696Y-161763152D02*
X114058934Y-161810771D01*
X114058934Y-161810771D02*
X114106553Y-161858390D01*
X113201791Y-162429819D02*
X113201791Y-161763152D01*
X113201791Y-161429819D02*
X113249410Y-161477438D01*
X113249410Y-161477438D02*
X113201791Y-161525057D01*
X113201791Y-161525057D02*
X113154172Y-161477438D01*
X113154172Y-161477438D02*
X113201791Y-161429819D01*
X113201791Y-161429819D02*
X113201791Y-161525057D01*
X112582744Y-162429819D02*
X112677982Y-162382200D01*
X112677982Y-162382200D02*
X112725601Y-162286961D01*
X112725601Y-162286961D02*
X112725601Y-161429819D01*
X112439887Y-162525057D02*
X111677982Y-162525057D01*
X111582743Y-161763152D02*
X111201791Y-161763152D01*
X111439886Y-162429819D02*
X111439886Y-161572676D01*
X111439886Y-161572676D02*
X111392267Y-161477438D01*
X111392267Y-161477438D02*
X111297029Y-161429819D01*
X111297029Y-161429819D02*
X111201791Y-161429819D01*
X110439886Y-162429819D02*
X110439886Y-161906009D01*
X110439886Y-161906009D02*
X110487505Y-161810771D01*
X110487505Y-161810771D02*
X110582743Y-161763152D01*
X110582743Y-161763152D02*
X110773219Y-161763152D01*
X110773219Y-161763152D02*
X110868457Y-161810771D01*
X110439886Y-162382200D02*
X110535124Y-162429819D01*
X110535124Y-162429819D02*
X110773219Y-162429819D01*
X110773219Y-162429819D02*
X110868457Y-162382200D01*
X110868457Y-162382200D02*
X110916076Y-162286961D01*
X110916076Y-162286961D02*
X110916076Y-162191723D01*
X110916076Y-162191723D02*
X110868457Y-162096485D01*
X110868457Y-162096485D02*
X110773219Y-162048866D01*
X110773219Y-162048866D02*
X110535124Y-162048866D01*
X110535124Y-162048866D02*
X110439886Y-162001247D01*
X109535124Y-162382200D02*
X109630362Y-162429819D01*
X109630362Y-162429819D02*
X109820838Y-162429819D01*
X109820838Y-162429819D02*
X109916076Y-162382200D01*
X109916076Y-162382200D02*
X109963695Y-162334580D01*
X109963695Y-162334580D02*
X110011314Y-162239342D01*
X110011314Y-162239342D02*
X110011314Y-161953628D01*
X110011314Y-161953628D02*
X109963695Y-161858390D01*
X109963695Y-161858390D02*
X109916076Y-161810771D01*
X109916076Y-161810771D02*
X109820838Y-161763152D01*
X109820838Y-161763152D02*
X109630362Y-161763152D01*
X109630362Y-161763152D02*
X109535124Y-161810771D01*
X108725600Y-162382200D02*
X108820838Y-162429819D01*
X108820838Y-162429819D02*
X109011314Y-162429819D01*
X109011314Y-162429819D02*
X109106552Y-162382200D01*
X109106552Y-162382200D02*
X109154171Y-162286961D01*
X109154171Y-162286961D02*
X109154171Y-161906009D01*
X109154171Y-161906009D02*
X109106552Y-161810771D01*
X109106552Y-161810771D02*
X109011314Y-161763152D01*
X109011314Y-161763152D02*
X108820838Y-161763152D01*
X108820838Y-161763152D02*
X108725600Y-161810771D01*
X108725600Y-161810771D02*
X108677981Y-161906009D01*
X108677981Y-161906009D02*
X108677981Y-162001247D01*
X108677981Y-162001247D02*
X109154171Y-162096485D01*
X108249409Y-161763152D02*
X108249409Y-162763152D01*
X108249409Y-161810771D02*
X108154171Y-161763152D01*
X108154171Y-161763152D02*
X107963695Y-161763152D01*
X107963695Y-161763152D02*
X107868457Y-161810771D01*
X107868457Y-161810771D02*
X107820838Y-161858390D01*
X107820838Y-161858390D02*
X107773219Y-161953628D01*
X107773219Y-161953628D02*
X107773219Y-162239342D01*
X107773219Y-162239342D02*
X107820838Y-162334580D01*
X107820838Y-162334580D02*
X107868457Y-162382200D01*
X107868457Y-162382200D02*
X107963695Y-162429819D01*
X107963695Y-162429819D02*
X108154171Y-162429819D01*
X108154171Y-162429819D02*
X108249409Y-162382200D01*
X107201790Y-162429819D02*
X107297028Y-162382200D01*
X107297028Y-162382200D02*
X107344647Y-162286961D01*
X107344647Y-162286961D02*
X107344647Y-161429819D01*
X106392266Y-162429819D02*
X106392266Y-161906009D01*
X106392266Y-161906009D02*
X106439885Y-161810771D01*
X106439885Y-161810771D02*
X106535123Y-161763152D01*
X106535123Y-161763152D02*
X106725599Y-161763152D01*
X106725599Y-161763152D02*
X106820837Y-161810771D01*
X106392266Y-162382200D02*
X106487504Y-162429819D01*
X106487504Y-162429819D02*
X106725599Y-162429819D01*
X106725599Y-162429819D02*
X106820837Y-162382200D01*
X106820837Y-162382200D02*
X106868456Y-162286961D01*
X106868456Y-162286961D02*
X106868456Y-162191723D01*
X106868456Y-162191723D02*
X106820837Y-162096485D01*
X106820837Y-162096485D02*
X106725599Y-162048866D01*
X106725599Y-162048866D02*
X106487504Y-162048866D01*
X106487504Y-162048866D02*
X106392266Y-162001247D01*
X106058932Y-161763152D02*
X105677980Y-161763152D01*
X105916075Y-161429819D02*
X105916075Y-162286961D01*
X105916075Y-162286961D02*
X105868456Y-162382200D01*
X105868456Y-162382200D02*
X105773218Y-162429819D01*
X105773218Y-162429819D02*
X105677980Y-162429819D01*
X104963694Y-162382200D02*
X105058932Y-162429819D01*
X105058932Y-162429819D02*
X105249408Y-162429819D01*
X105249408Y-162429819D02*
X105344646Y-162382200D01*
X105344646Y-162382200D02*
X105392265Y-162286961D01*
X105392265Y-162286961D02*
X105392265Y-161906009D01*
X105392265Y-161906009D02*
X105344646Y-161810771D01*
X105344646Y-161810771D02*
X105249408Y-161763152D01*
X105249408Y-161763152D02*
X105058932Y-161763152D01*
X105058932Y-161763152D02*
X104963694Y-161810771D01*
X104963694Y-161810771D02*
X104916075Y-161906009D01*
X104916075Y-161906009D02*
X104916075Y-162001247D01*
X104916075Y-162001247D02*
X105392265Y-162096485D01*
M02*
