%TF.GenerationSoftware,KiCad,Pcbnew,6.0.11-2627ca5db0~126~ubuntu20.04.1*%
%TF.CreationDate,2024-02-25T19:14:14-05:00*%
%TF.ProjectId,,58585858-5858-4585-9858-585858585858,rev?*%
%TF.SameCoordinates,Original*%
%TF.FileFunction,Soldermask,Top*%
%TF.FilePolarity,Negative*%
%FSLAX46Y46*%
G04 Gerber Fmt 4.6, Leading zero omitted, Abs format (unit mm)*
G04 Created by KiCad (PCBNEW 6.0.11-2627ca5db0~126~ubuntu20.04.1) date 2024-02-25 19:14:14*
%MOMM*%
%LPD*%
G01*
G04 APERTURE LIST*
G04 Aperture macros list*
%AMRoundRect*
0 Rectangle with rounded corners*
0 $1 Rounding radius*
0 $2 $3 $4 $5 $6 $7 $8 $9 X,Y pos of 4 corners*
0 Add a 4 corners polygon primitive as box body*
4,1,4,$2,$3,$4,$5,$6,$7,$8,$9,$2,$3,0*
0 Add four circle primitives for the rounded corners*
1,1,$1+$1,$2,$3*
1,1,$1+$1,$4,$5*
1,1,$1+$1,$6,$7*
1,1,$1+$1,$8,$9*
0 Add four rect primitives between the rounded corners*
20,1,$1+$1,$2,$3,$4,$5,0*
20,1,$1+$1,$4,$5,$6,$7,0*
20,1,$1+$1,$6,$7,$8,$9,0*
20,1,$1+$1,$8,$9,$2,$3,0*%
G04 Aperture macros list end*
%TA.AperFunction,Profile*%
%ADD10C,0.100000*%
%TD*%
%ADD11R,1.700000X1.700000*%
%ADD12O,1.700000X1.700000*%
%ADD13RoundRect,0.150000X-0.675000X-0.150000X0.675000X-0.150000X0.675000X0.150000X-0.675000X0.150000X0*%
%ADD14RoundRect,0.250000X0.325000X0.450000X-0.325000X0.450000X-0.325000X-0.450000X0.325000X-0.450000X0*%
%ADD15C,3.200000*%
%ADD16RoundRect,0.250000X-0.337500X-0.475000X0.337500X-0.475000X0.337500X0.475000X-0.337500X0.475000X0*%
%ADD17RoundRect,0.250000X0.350000X0.450000X-0.350000X0.450000X-0.350000X-0.450000X0.350000X-0.450000X0*%
%ADD18RoundRect,0.250000X-0.350000X-0.450000X0.350000X-0.450000X0.350000X0.450000X-0.350000X0.450000X0*%
%ADD19R,1.000000X3.100000*%
%ADD20RoundRect,0.250000X0.337500X0.475000X-0.337500X0.475000X-0.337500X-0.475000X0.337500X-0.475000X0*%
%ADD21C,0.650000*%
%ADD22R,1.450000X0.600000*%
%ADD23R,1.450000X0.300000*%
%ADD24O,1.600000X1.000000*%
%ADD25O,2.100000X1.000000*%
%ADD26R,2.000000X5.500000*%
%ADD27R,2.400000X2.400000*%
%ADD28C,2.400000*%
%ADD29RoundRect,0.150000X-0.875000X-0.150000X0.875000X-0.150000X0.875000X0.150000X-0.875000X0.150000X0*%
%ADD30RoundRect,0.150000X-0.825000X-0.150000X0.825000X-0.150000X0.825000X0.150000X-0.825000X0.150000X0*%
G04 APERTURE END LIST*
D10*
X65735200Y-102656000D02*
X127415200Y-102656000D01*
X127415200Y-133156000D02*
X127415200Y-102656000D01*
X65735200Y-102656000D02*
X65735200Y-133156000D01*
X65735200Y-133156000D02*
X127415200Y-133156000D01*
X65735200Y-72156000D02*
X127415200Y-72156000D01*
X127415200Y-102656000D02*
X127415200Y-72156000D01*
X65735200Y-72156000D02*
X65735200Y-102656000D01*
X65735200Y-102656000D02*
X127415200Y-102656000D01*
X65735200Y-72156000D02*
X127415200Y-72156000D01*
X65735200Y-41656000D02*
X65735200Y-72156000D01*
X127415200Y-72156000D02*
X127415200Y-41656000D01*
X65735200Y-41656000D02*
X127415200Y-41656000D01*
D11*
%TO.C,JP3*%
X120878400Y-104510000D03*
D12*
X120878400Y-107050000D03*
%TD*%
D13*
%TO.C,U2*%
X104588200Y-121248600D03*
X104588200Y-122518600D03*
X104588200Y-123788600D03*
X104588200Y-125058600D03*
X109838200Y-125058600D03*
X109838200Y-123788600D03*
X109838200Y-122518600D03*
X109838200Y-121248600D03*
%TD*%
D14*
%TO.C,D3*%
X116823400Y-118734000D03*
X114773400Y-118734000D03*
%TD*%
D15*
%TO.C,REF\u002A\u002A5*%
X91935200Y-131156000D03*
%TD*%
D16*
%TO.C,C9*%
X112953600Y-122696400D03*
X115028600Y-122696400D03*
%TD*%
D17*
%TO.C,R8*%
X116798400Y-110910800D03*
X114798400Y-110910800D03*
%TD*%
D16*
%TO.C,C6*%
X103534100Y-106338800D03*
X105609100Y-106338800D03*
%TD*%
D18*
%TO.C,R9*%
X114798400Y-116134000D03*
X116798400Y-116134000D03*
%TD*%
%TO.C,R11*%
X112969600Y-124830000D03*
X114969600Y-124830000D03*
%TD*%
D19*
%TO.C,PS1*%
X80675200Y-114406000D03*
X83215200Y-114406000D03*
X88295200Y-114406000D03*
X88295200Y-105306000D03*
X80675200Y-105306000D03*
%TD*%
D20*
%TO.C,C7*%
X100376700Y-105663000D03*
X98301700Y-105663000D03*
%TD*%
D17*
%TO.C,R4*%
X78535200Y-125201000D03*
X76535200Y-125201000D03*
%TD*%
D20*
%TO.C,C8*%
X100376700Y-124693000D03*
X98301700Y-124693000D03*
%TD*%
D16*
%TO.C,C3*%
X93221700Y-115666000D03*
X95296700Y-115666000D03*
%TD*%
D15*
%TO.C,REF\u002A\u002A4*%
X102095200Y-131156000D03*
%TD*%
D11*
%TO.C,JP2*%
X117220800Y-104510000D03*
D12*
X117220800Y-107050000D03*
%TD*%
D15*
%TO.C,REF\u002A\u002A6*%
X81775200Y-131156000D03*
%TD*%
%TO.C,REF\u002A\u002A7*%
X71615200Y-131156000D03*
%TD*%
D11*
%TO.C,JP1*%
X113563200Y-104510000D03*
D12*
X113563200Y-107050000D03*
%TD*%
D21*
%TO.C,J1*%
X72475200Y-112266000D03*
X72475200Y-118046000D03*
D22*
X73920200Y-111906000D03*
X73920200Y-112706000D03*
D23*
X73920200Y-113906000D03*
X73920200Y-114906000D03*
X73920200Y-115406000D03*
X73920200Y-116406000D03*
D22*
X73920200Y-117606000D03*
X73920200Y-118406000D03*
X73920200Y-118406000D03*
X73920200Y-117606000D03*
D23*
X73920200Y-116906000D03*
X73920200Y-115906000D03*
X73920200Y-114406000D03*
X73920200Y-113406000D03*
D22*
X73920200Y-112706000D03*
X73920200Y-111906000D03*
D24*
X68825200Y-110836000D03*
D25*
X73005200Y-110836000D03*
X73005200Y-119476000D03*
D24*
X68825200Y-119476000D03*
%TD*%
D15*
%TO.C,REF\u002A\u002A3*%
X112255200Y-131156000D03*
%TD*%
D18*
%TO.C,R12*%
X117948000Y-125947600D03*
X119948000Y-125947600D03*
%TD*%
D17*
%TO.C,R2*%
X75955200Y-108728000D03*
X73955200Y-108728000D03*
%TD*%
D26*
%TO.C,Y1*%
X99339200Y-110456000D03*
X99339200Y-119956000D03*
%TD*%
D16*
%TO.C,C4*%
X93221700Y-113146000D03*
X95296700Y-113146000D03*
%TD*%
D17*
%TO.C,R3*%
X78495200Y-121411000D03*
X76495200Y-121411000D03*
%TD*%
D18*
%TO.C,R1*%
X76495200Y-117464000D03*
X78495200Y-117464000D03*
%TD*%
D14*
%TO.C,D2*%
X116823400Y-113534000D03*
X114773400Y-113534000D03*
%TD*%
D20*
%TO.C,C1*%
X75992700Y-106456000D03*
X73917700Y-106456000D03*
%TD*%
%TO.C,C2*%
X75992700Y-104156000D03*
X73917700Y-104156000D03*
%TD*%
D27*
%TO.C,J2*%
X123267600Y-119795600D03*
D28*
X123267600Y-116295600D03*
X123267600Y-112795600D03*
%TD*%
D18*
%TO.C,R10*%
X117897200Y-123560000D03*
X119897200Y-123560000D03*
%TD*%
D17*
%TO.C,R6*%
X95259200Y-118226000D03*
X93259200Y-118226000D03*
%TD*%
%TO.C,R7*%
X95243200Y-108066000D03*
X93243200Y-108066000D03*
%TD*%
D29*
%TO.C,U1*%
X81085200Y-117711000D03*
X81085200Y-118981000D03*
X81085200Y-120251000D03*
X81085200Y-121521000D03*
X81085200Y-122791000D03*
X81085200Y-124061000D03*
X81085200Y-125331000D03*
X81085200Y-126601000D03*
X90385200Y-126601000D03*
X90385200Y-125331000D03*
X90385200Y-124061000D03*
X90385200Y-122791000D03*
X90385200Y-121521000D03*
X90385200Y-120251000D03*
X90385200Y-118981000D03*
X90385200Y-117711000D03*
%TD*%
D30*
%TO.C,U3*%
X104687400Y-109463000D03*
X104687400Y-110733000D03*
X104687400Y-112003000D03*
X104687400Y-113273000D03*
X104687400Y-114543000D03*
X104687400Y-115813000D03*
X104687400Y-117083000D03*
X104687400Y-118353000D03*
X109637400Y-118353000D03*
X109637400Y-117083000D03*
X109637400Y-115813000D03*
X109637400Y-114543000D03*
X109637400Y-113273000D03*
X109637400Y-112003000D03*
X109637400Y-110733000D03*
X109637400Y-109463000D03*
%TD*%
D15*
%TO.C,REF\u002A\u002A2*%
X122415200Y-131156000D03*
%TD*%
D17*
%TO.C,R5*%
X95259200Y-120512000D03*
X93259200Y-120512000D03*
%TD*%
D14*
%TO.C,D1*%
X95268200Y-110606000D03*
X93218200Y-110606000D03*
%TD*%
D20*
%TO.C,C5*%
X109876300Y-106338800D03*
X107801300Y-106338800D03*
%TD*%
D11*
%TO.C,JP3*%
X120878400Y-74010000D03*
D12*
X120878400Y-76550000D03*
%TD*%
D13*
%TO.C,U2*%
X104588200Y-90748600D03*
X104588200Y-92018600D03*
X104588200Y-93288600D03*
X104588200Y-94558600D03*
X109838200Y-94558600D03*
X109838200Y-93288600D03*
X109838200Y-92018600D03*
X109838200Y-90748600D03*
%TD*%
D14*
%TO.C,D3*%
X116823400Y-88234000D03*
X114773400Y-88234000D03*
%TD*%
D15*
%TO.C,REF\u002A\u002A5*%
X91935200Y-100656000D03*
%TD*%
D16*
%TO.C,C9*%
X112953600Y-92196400D03*
X115028600Y-92196400D03*
%TD*%
D17*
%TO.C,R8*%
X116798400Y-80410800D03*
X114798400Y-80410800D03*
%TD*%
D16*
%TO.C,C6*%
X103534100Y-75838800D03*
X105609100Y-75838800D03*
%TD*%
D18*
%TO.C,R9*%
X114798400Y-85634000D03*
X116798400Y-85634000D03*
%TD*%
%TO.C,R11*%
X112969600Y-94330000D03*
X114969600Y-94330000D03*
%TD*%
D19*
%TO.C,PS1*%
X80675200Y-83906000D03*
X83215200Y-83906000D03*
X88295200Y-83906000D03*
X88295200Y-74806000D03*
X80675200Y-74806000D03*
%TD*%
D20*
%TO.C,C7*%
X100376700Y-75163000D03*
X98301700Y-75163000D03*
%TD*%
D17*
%TO.C,R4*%
X78535200Y-94701000D03*
X76535200Y-94701000D03*
%TD*%
D20*
%TO.C,C8*%
X100376700Y-94193000D03*
X98301700Y-94193000D03*
%TD*%
D16*
%TO.C,C3*%
X93221700Y-85166000D03*
X95296700Y-85166000D03*
%TD*%
D15*
%TO.C,REF\u002A\u002A4*%
X102095200Y-100656000D03*
%TD*%
D11*
%TO.C,JP2*%
X117220800Y-74010000D03*
D12*
X117220800Y-76550000D03*
%TD*%
D15*
%TO.C,REF\u002A\u002A6*%
X81775200Y-100656000D03*
%TD*%
%TO.C,REF\u002A\u002A7*%
X71615200Y-100656000D03*
%TD*%
D11*
%TO.C,JP1*%
X113563200Y-74010000D03*
D12*
X113563200Y-76550000D03*
%TD*%
D21*
%TO.C,J1*%
X72475200Y-81766000D03*
X72475200Y-87546000D03*
D22*
X73920200Y-81406000D03*
X73920200Y-82206000D03*
D23*
X73920200Y-83406000D03*
X73920200Y-84406000D03*
X73920200Y-84906000D03*
X73920200Y-85906000D03*
D22*
X73920200Y-87106000D03*
X73920200Y-87906000D03*
X73920200Y-87906000D03*
X73920200Y-87106000D03*
D23*
X73920200Y-86406000D03*
X73920200Y-85406000D03*
X73920200Y-83906000D03*
X73920200Y-82906000D03*
D22*
X73920200Y-82206000D03*
X73920200Y-81406000D03*
D24*
X68825200Y-80336000D03*
D25*
X73005200Y-80336000D03*
X73005200Y-88976000D03*
D24*
X68825200Y-88976000D03*
%TD*%
D15*
%TO.C,REF\u002A\u002A3*%
X112255200Y-100656000D03*
%TD*%
D18*
%TO.C,R12*%
X117948000Y-95447600D03*
X119948000Y-95447600D03*
%TD*%
D17*
%TO.C,R2*%
X75955200Y-78228000D03*
X73955200Y-78228000D03*
%TD*%
D26*
%TO.C,Y1*%
X99339200Y-79956000D03*
X99339200Y-89456000D03*
%TD*%
D16*
%TO.C,C4*%
X93221700Y-82646000D03*
X95296700Y-82646000D03*
%TD*%
D17*
%TO.C,R3*%
X78495200Y-90911000D03*
X76495200Y-90911000D03*
%TD*%
D18*
%TO.C,R1*%
X76495200Y-86964000D03*
X78495200Y-86964000D03*
%TD*%
D14*
%TO.C,D2*%
X116823400Y-83034000D03*
X114773400Y-83034000D03*
%TD*%
D20*
%TO.C,C1*%
X75992700Y-75956000D03*
X73917700Y-75956000D03*
%TD*%
%TO.C,C2*%
X75992700Y-73656000D03*
X73917700Y-73656000D03*
%TD*%
D27*
%TO.C,J2*%
X123267600Y-89295600D03*
D28*
X123267600Y-85795600D03*
X123267600Y-82295600D03*
%TD*%
D18*
%TO.C,R10*%
X117897200Y-93060000D03*
X119897200Y-93060000D03*
%TD*%
D17*
%TO.C,R6*%
X95259200Y-87726000D03*
X93259200Y-87726000D03*
%TD*%
%TO.C,R7*%
X95243200Y-77566000D03*
X93243200Y-77566000D03*
%TD*%
D29*
%TO.C,U1*%
X81085200Y-87211000D03*
X81085200Y-88481000D03*
X81085200Y-89751000D03*
X81085200Y-91021000D03*
X81085200Y-92291000D03*
X81085200Y-93561000D03*
X81085200Y-94831000D03*
X81085200Y-96101000D03*
X90385200Y-96101000D03*
X90385200Y-94831000D03*
X90385200Y-93561000D03*
X90385200Y-92291000D03*
X90385200Y-91021000D03*
X90385200Y-89751000D03*
X90385200Y-88481000D03*
X90385200Y-87211000D03*
%TD*%
D30*
%TO.C,U3*%
X104687400Y-78963000D03*
X104687400Y-80233000D03*
X104687400Y-81503000D03*
X104687400Y-82773000D03*
X104687400Y-84043000D03*
X104687400Y-85313000D03*
X104687400Y-86583000D03*
X104687400Y-87853000D03*
X109637400Y-87853000D03*
X109637400Y-86583000D03*
X109637400Y-85313000D03*
X109637400Y-84043000D03*
X109637400Y-82773000D03*
X109637400Y-81503000D03*
X109637400Y-80233000D03*
X109637400Y-78963000D03*
%TD*%
D15*
%TO.C,REF\u002A\u002A2*%
X122415200Y-100656000D03*
%TD*%
D17*
%TO.C,R5*%
X95259200Y-90012000D03*
X93259200Y-90012000D03*
%TD*%
D14*
%TO.C,D1*%
X95268200Y-80106000D03*
X93218200Y-80106000D03*
%TD*%
D20*
%TO.C,C5*%
X109876300Y-75838800D03*
X107801300Y-75838800D03*
%TD*%
D17*
%TO.C,R6*%
X95259200Y-57226000D03*
X93259200Y-57226000D03*
%TD*%
%TO.C,R7*%
X95243200Y-47066000D03*
X93243200Y-47066000D03*
%TD*%
%TO.C,R5*%
X95259200Y-59512000D03*
X93259200Y-59512000D03*
%TD*%
D16*
%TO.C,C4*%
X93221700Y-52146000D03*
X95296700Y-52146000D03*
%TD*%
D14*
%TO.C,D2*%
X116823400Y-52534000D03*
X114773400Y-52534000D03*
%TD*%
D26*
%TO.C,Y1*%
X99339200Y-49456000D03*
X99339200Y-58956000D03*
%TD*%
D17*
%TO.C,R3*%
X78495200Y-60411000D03*
X76495200Y-60411000D03*
%TD*%
D15*
%TO.C,REF\u002A\u002A2*%
X122415200Y-70156000D03*
%TD*%
D27*
%TO.C,J2*%
X123267600Y-58795600D03*
D28*
X123267600Y-55295600D03*
X123267600Y-51795600D03*
%TD*%
D18*
%TO.C,R1*%
X76495200Y-56464000D03*
X78495200Y-56464000D03*
%TD*%
D29*
%TO.C,U1*%
X81085200Y-56711000D03*
X81085200Y-57981000D03*
X81085200Y-59251000D03*
X81085200Y-60521000D03*
X81085200Y-61791000D03*
X81085200Y-63061000D03*
X81085200Y-64331000D03*
X81085200Y-65601000D03*
X90385200Y-65601000D03*
X90385200Y-64331000D03*
X90385200Y-63061000D03*
X90385200Y-61791000D03*
X90385200Y-60521000D03*
X90385200Y-59251000D03*
X90385200Y-57981000D03*
X90385200Y-56711000D03*
%TD*%
D15*
%TO.C,REF\u002A\u002A3*%
X112255200Y-70156000D03*
%TD*%
D20*
%TO.C,C1*%
X75992700Y-45456000D03*
X73917700Y-45456000D03*
%TD*%
D21*
%TO.C,J1*%
X72475200Y-51266000D03*
X72475200Y-57046000D03*
D22*
X73920200Y-50906000D03*
X73920200Y-51706000D03*
D23*
X73920200Y-52906000D03*
X73920200Y-53906000D03*
X73920200Y-54406000D03*
X73920200Y-55406000D03*
D22*
X73920200Y-56606000D03*
X73920200Y-57406000D03*
X73920200Y-57406000D03*
X73920200Y-56606000D03*
D23*
X73920200Y-55906000D03*
X73920200Y-54906000D03*
X73920200Y-53406000D03*
X73920200Y-52406000D03*
D22*
X73920200Y-51706000D03*
X73920200Y-50906000D03*
D24*
X68825200Y-49836000D03*
D25*
X73005200Y-49836000D03*
X73005200Y-58476000D03*
D24*
X68825200Y-58476000D03*
%TD*%
D20*
%TO.C,C2*%
X75992700Y-43156000D03*
X73917700Y-43156000D03*
%TD*%
D14*
%TO.C,D1*%
X95268200Y-49606000D03*
X93218200Y-49606000D03*
%TD*%
D18*
%TO.C,R10*%
X117897200Y-62560000D03*
X119897200Y-62560000D03*
%TD*%
D20*
%TO.C,C5*%
X109876300Y-45338800D03*
X107801300Y-45338800D03*
%TD*%
D30*
%TO.C,U3*%
X104687400Y-48463000D03*
X104687400Y-49733000D03*
X104687400Y-51003000D03*
X104687400Y-52273000D03*
X104687400Y-53543000D03*
X104687400Y-54813000D03*
X104687400Y-56083000D03*
X104687400Y-57353000D03*
X109637400Y-57353000D03*
X109637400Y-56083000D03*
X109637400Y-54813000D03*
X109637400Y-53543000D03*
X109637400Y-52273000D03*
X109637400Y-51003000D03*
X109637400Y-49733000D03*
X109637400Y-48463000D03*
%TD*%
D17*
%TO.C,R2*%
X75955200Y-47728000D03*
X73955200Y-47728000D03*
%TD*%
D18*
%TO.C,R12*%
X117948000Y-64947600D03*
X119948000Y-64947600D03*
%TD*%
D11*
%TO.C,JP1*%
X113563200Y-43510000D03*
D12*
X113563200Y-46050000D03*
%TD*%
D15*
%TO.C,REF\u002A\u002A7*%
X71615200Y-70156000D03*
%TD*%
%TO.C,REF\u002A\u002A6*%
X81775200Y-70156000D03*
%TD*%
D11*
%TO.C,JP2*%
X117220800Y-43510000D03*
D12*
X117220800Y-46050000D03*
%TD*%
D15*
%TO.C,REF\u002A\u002A4*%
X102095200Y-70156000D03*
%TD*%
D16*
%TO.C,C3*%
X93221700Y-54666000D03*
X95296700Y-54666000D03*
%TD*%
D20*
%TO.C,C8*%
X100376700Y-63693000D03*
X98301700Y-63693000D03*
%TD*%
D17*
%TO.C,R4*%
X78535200Y-64201000D03*
X76535200Y-64201000D03*
%TD*%
D20*
%TO.C,C7*%
X100376700Y-44663000D03*
X98301700Y-44663000D03*
%TD*%
D19*
%TO.C,PS1*%
X80675200Y-53406000D03*
X83215200Y-53406000D03*
X88295200Y-53406000D03*
X88295200Y-44306000D03*
X80675200Y-44306000D03*
%TD*%
D18*
%TO.C,R11*%
X112969600Y-63830000D03*
X114969600Y-63830000D03*
%TD*%
%TO.C,R9*%
X114798400Y-55134000D03*
X116798400Y-55134000D03*
%TD*%
D16*
%TO.C,C6*%
X103534100Y-45338800D03*
X105609100Y-45338800D03*
%TD*%
D17*
%TO.C,R8*%
X116798400Y-49910800D03*
X114798400Y-49910800D03*
%TD*%
D16*
%TO.C,C9*%
X112953600Y-61696400D03*
X115028600Y-61696400D03*
%TD*%
D15*
%TO.C,REF\u002A\u002A5*%
X91935200Y-70156000D03*
%TD*%
D14*
%TO.C,D3*%
X116823400Y-57734000D03*
X114773400Y-57734000D03*
%TD*%
D13*
%TO.C,U2*%
X104588200Y-60248600D03*
X104588200Y-61518600D03*
X104588200Y-62788600D03*
X104588200Y-64058600D03*
X109838200Y-64058600D03*
X109838200Y-62788600D03*
X109838200Y-61518600D03*
X109838200Y-60248600D03*
%TD*%
D11*
%TO.C,JP3*%
X120878400Y-43510000D03*
D12*
X120878400Y-46050000D03*
%TD*%
M02*
