M48
; DRILL file {KiCad 6.0.11-2627ca5db0~126~ubuntu20.04.1} date dom 25 feb 2024 19:14:09
; FORMAT={-:-/ absolute / metric / decimal}
; #@! TF.CreationDate,2024-02-25T19:14:09-05:00
; #@! TF.GenerationSoftware,Kicad,Pcbnew,6.0.11-2627ca5db0~126~ubuntu20.04.1
; #@! TF.FileFunction,NonPlated,1,2,NPTH
FMAT,2
METRIC
; #@! TA.AperFunction,NonPlated,NPTH,ComponentDrill
T1C0.650
; #@! TA.AperFunction,NonPlated,NPTH,ComponentDrill
T2C3.200
%
G90
G05
T1
X72.475Y-51.266
X72.475Y-57.046
X72.475Y-81.766
X72.475Y-87.546
X72.475Y-112.266
X72.475Y-118.046
T2
X71.615Y-70.156
X71.615Y-100.656
X71.615Y-131.156
X81.775Y-70.156
X81.775Y-100.656
X81.775Y-131.156
X91.935Y-70.156
X91.935Y-100.656
X91.935Y-131.156
X102.095Y-70.156
X102.095Y-100.656
X102.095Y-131.156
X112.255Y-70.156
X112.255Y-100.656
X112.255Y-131.156
X122.415Y-70.156
X122.415Y-100.656
X122.415Y-131.156
T0
M30
