%TF.GenerationSoftware,KiCad,Pcbnew,7.0.11+dfsg-1build4*%
%TF.CreationDate,2026-05-14T22:43:28-05:00*%
%TF.ProjectId,,58585858-5858-4585-9858-585858585858,rev?*%
%TF.SameCoordinates,Original*%
%TF.FileFunction,Profile,NP*%
%FSLAX46Y46*%
G04 Gerber Fmt 4.6, Leading zero omitted, Abs format (unit mm)*
G04 Created by KiCad (PCBNEW 7.0.11+dfsg-1build4) date 2026-05-14 22:43:28*
%MOMM*%
%LPD*%
G01*
G04 APERTURE LIST*
%TA.AperFunction,Profile*%
%ADD10C,0.050000*%
%TD*%
G04 APERTURE END LIST*
D10*
X175485000Y-134315000D02*
X187085000Y-134315000D01*
X187085000Y-142715000D01*
X175485000Y-142715000D01*
X175485000Y-134315000D01*
X163885000Y-134315000D02*
X175485000Y-134315000D01*
X175485000Y-142715000D01*
X163885000Y-142715000D01*
X163885000Y-134315000D01*
X152285000Y-134315000D02*
X163885000Y-134315000D01*
X163885000Y-142715000D01*
X152285000Y-142715000D01*
X152285000Y-134315000D01*
X140685000Y-134315000D02*
X152285000Y-134315000D01*
X152285000Y-142715000D01*
X140685000Y-142715000D01*
X140685000Y-134315000D01*
X129085000Y-134315000D02*
X140685000Y-134315000D01*
X140685000Y-142715000D01*
X129085000Y-142715000D01*
X129085000Y-134315000D01*
X117485000Y-134315000D02*
X129085000Y-134315000D01*
X129085000Y-142715000D01*
X117485000Y-142715000D01*
X117485000Y-134315000D01*
X105885000Y-134315000D02*
X117485000Y-134315000D01*
X117485000Y-142715000D01*
X105885000Y-142715000D01*
X105885000Y-134315000D01*
X94285000Y-134315000D02*
X105885000Y-134315000D01*
X105885000Y-142715000D01*
X94285000Y-142715000D01*
X94285000Y-134315000D01*
X175485000Y-125915000D02*
X187085000Y-125915000D01*
X187085000Y-134315000D01*
X175485000Y-134315000D01*
X175485000Y-125915000D01*
X163885000Y-125915000D02*
X175485000Y-125915000D01*
X175485000Y-134315000D01*
X163885000Y-134315000D01*
X163885000Y-125915000D01*
X152285000Y-125915000D02*
X163885000Y-125915000D01*
X163885000Y-134315000D01*
X152285000Y-134315000D01*
X152285000Y-125915000D01*
X140685000Y-125915000D02*
X152285000Y-125915000D01*
X152285000Y-134315000D01*
X140685000Y-134315000D01*
X140685000Y-125915000D01*
X129085000Y-125915000D02*
X140685000Y-125915000D01*
X140685000Y-134315000D01*
X129085000Y-134315000D01*
X129085000Y-125915000D01*
X117485000Y-125915000D02*
X129085000Y-125915000D01*
X129085000Y-134315000D01*
X117485000Y-134315000D01*
X117485000Y-125915000D01*
X105885000Y-125915000D02*
X117485000Y-125915000D01*
X117485000Y-134315000D01*
X105885000Y-134315000D01*
X105885000Y-125915000D01*
X94285000Y-125915000D02*
X105885000Y-125915000D01*
X105885000Y-134315000D01*
X94285000Y-134315000D01*
X94285000Y-125915000D01*
X175485000Y-117515000D02*
X187085000Y-117515000D01*
X187085000Y-125915000D01*
X175485000Y-125915000D01*
X175485000Y-117515000D01*
X163885000Y-117515000D02*
X175485000Y-117515000D01*
X175485000Y-125915000D01*
X163885000Y-125915000D01*
X163885000Y-117515000D01*
X152285000Y-117515000D02*
X163885000Y-117515000D01*
X163885000Y-125915000D01*
X152285000Y-125915000D01*
X152285000Y-117515000D01*
X140685000Y-117515000D02*
X152285000Y-117515000D01*
X152285000Y-125915000D01*
X140685000Y-125915000D01*
X140685000Y-117515000D01*
X129085000Y-117515000D02*
X140685000Y-117515000D01*
X140685000Y-125915000D01*
X129085000Y-125915000D01*
X129085000Y-117515000D01*
X117485000Y-117515000D02*
X129085000Y-117515000D01*
X129085000Y-125915000D01*
X117485000Y-125915000D01*
X117485000Y-117515000D01*
X105885000Y-117515000D02*
X117485000Y-117515000D01*
X117485000Y-125915000D01*
X105885000Y-125915000D01*
X105885000Y-117515000D01*
X94285000Y-117515000D02*
X105885000Y-117515000D01*
X105885000Y-125915000D01*
X94285000Y-125915000D01*
X94285000Y-117515000D01*
X175485000Y-109115000D02*
X187085000Y-109115000D01*
X187085000Y-117515000D01*
X175485000Y-117515000D01*
X175485000Y-109115000D01*
X163885000Y-109115000D02*
X175485000Y-109115000D01*
X175485000Y-117515000D01*
X163885000Y-117515000D01*
X163885000Y-109115000D01*
X152285000Y-109115000D02*
X163885000Y-109115000D01*
X163885000Y-117515000D01*
X152285000Y-117515000D01*
X152285000Y-109115000D01*
X140685000Y-109115000D02*
X152285000Y-109115000D01*
X152285000Y-117515000D01*
X140685000Y-117515000D01*
X140685000Y-109115000D01*
X129085000Y-109115000D02*
X140685000Y-109115000D01*
X140685000Y-117515000D01*
X129085000Y-117515000D01*
X129085000Y-109115000D01*
X117485000Y-109115000D02*
X129085000Y-109115000D01*
X129085000Y-117515000D01*
X117485000Y-117515000D01*
X117485000Y-109115000D01*
X105885000Y-109115000D02*
X117485000Y-109115000D01*
X117485000Y-117515000D01*
X105885000Y-117515000D01*
X105885000Y-109115000D01*
X94285000Y-109115000D02*
X105885000Y-109115000D01*
X105885000Y-117515000D01*
X94285000Y-117515000D01*
X94285000Y-109115000D01*
X175485000Y-100715000D02*
X187085000Y-100715000D01*
X187085000Y-109115000D01*
X175485000Y-109115000D01*
X175485000Y-100715000D01*
X163885000Y-100715000D02*
X175485000Y-100715000D01*
X175485000Y-109115000D01*
X163885000Y-109115000D01*
X163885000Y-100715000D01*
X152285000Y-100715000D02*
X163885000Y-100715000D01*
X163885000Y-109115000D01*
X152285000Y-109115000D01*
X152285000Y-100715000D01*
X140685000Y-100715000D02*
X152285000Y-100715000D01*
X152285000Y-109115000D01*
X140685000Y-109115000D01*
X140685000Y-100715000D01*
X129085000Y-100715000D02*
X140685000Y-100715000D01*
X140685000Y-109115000D01*
X129085000Y-109115000D01*
X129085000Y-100715000D01*
X117485000Y-100715000D02*
X129085000Y-100715000D01*
X129085000Y-109115000D01*
X117485000Y-109115000D01*
X117485000Y-100715000D01*
X105885000Y-100715000D02*
X117485000Y-100715000D01*
X117485000Y-109115000D01*
X105885000Y-109115000D01*
X105885000Y-100715000D01*
X94285000Y-100715000D02*
X105885000Y-100715000D01*
X105885000Y-109115000D01*
X94285000Y-109115000D01*
X94285000Y-100715000D01*
X175485000Y-92315000D02*
X187085000Y-92315000D01*
X187085000Y-100715000D01*
X175485000Y-100715000D01*
X175485000Y-92315000D01*
X163885000Y-92315000D02*
X175485000Y-92315000D01*
X175485000Y-100715000D01*
X163885000Y-100715000D01*
X163885000Y-92315000D01*
X152285000Y-92315000D02*
X163885000Y-92315000D01*
X163885000Y-100715000D01*
X152285000Y-100715000D01*
X152285000Y-92315000D01*
X140685000Y-92315000D02*
X152285000Y-92315000D01*
X152285000Y-100715000D01*
X140685000Y-100715000D01*
X140685000Y-92315000D01*
X129085000Y-92315000D02*
X140685000Y-92315000D01*
X140685000Y-100715000D01*
X129085000Y-100715000D01*
X129085000Y-92315000D01*
X117485000Y-92315000D02*
X129085000Y-92315000D01*
X129085000Y-100715000D01*
X117485000Y-100715000D01*
X117485000Y-92315000D01*
X105885000Y-92315000D02*
X117485000Y-92315000D01*
X117485000Y-100715000D01*
X105885000Y-100715000D01*
X105885000Y-92315000D01*
X94285000Y-92315000D02*
X105885000Y-92315000D01*
X105885000Y-100715000D01*
X94285000Y-100715000D01*
X94285000Y-92315000D01*
X175485000Y-83915000D02*
X187085000Y-83915000D01*
X187085000Y-92315000D01*
X175485000Y-92315000D01*
X175485000Y-83915000D01*
X163885000Y-83915000D02*
X175485000Y-83915000D01*
X175485000Y-92315000D01*
X163885000Y-92315000D01*
X163885000Y-83915000D01*
X152285000Y-83915000D02*
X163885000Y-83915000D01*
X163885000Y-92315000D01*
X152285000Y-92315000D01*
X152285000Y-83915000D01*
X140685000Y-83915000D02*
X152285000Y-83915000D01*
X152285000Y-92315000D01*
X140685000Y-92315000D01*
X140685000Y-83915000D01*
X129085000Y-83915000D02*
X140685000Y-83915000D01*
X140685000Y-92315000D01*
X129085000Y-92315000D01*
X129085000Y-83915000D01*
X117485000Y-83915000D02*
X129085000Y-83915000D01*
X129085000Y-92315000D01*
X117485000Y-92315000D01*
X117485000Y-83915000D01*
X105885000Y-83915000D02*
X117485000Y-83915000D01*
X117485000Y-92315000D01*
X105885000Y-92315000D01*
X105885000Y-83915000D01*
X94285000Y-83915000D02*
X105885000Y-83915000D01*
X105885000Y-92315000D01*
X94285000Y-92315000D01*
X94285000Y-83915000D01*
X175485000Y-75515000D02*
X187085000Y-75515000D01*
X187085000Y-83915000D01*
X175485000Y-83915000D01*
X175485000Y-75515000D01*
X163885000Y-75515000D02*
X175485000Y-75515000D01*
X175485000Y-83915000D01*
X163885000Y-83915000D01*
X163885000Y-75515000D01*
X152285000Y-75515000D02*
X163885000Y-75515000D01*
X163885000Y-83915000D01*
X152285000Y-83915000D01*
X152285000Y-75515000D01*
X140685000Y-75515000D02*
X152285000Y-75515000D01*
X152285000Y-83915000D01*
X140685000Y-83915000D01*
X140685000Y-75515000D01*
X129085000Y-75515000D02*
X140685000Y-75515000D01*
X140685000Y-83915000D01*
X129085000Y-83915000D01*
X129085000Y-75515000D01*
X117485000Y-75515000D02*
X129085000Y-75515000D01*
X129085000Y-83915000D01*
X117485000Y-83915000D01*
X117485000Y-75515000D01*
X105885000Y-75515000D02*
X117485000Y-75515000D01*
X117485000Y-83915000D01*
X105885000Y-83915000D01*
X105885000Y-75515000D01*
X94285000Y-75515000D02*
X105885000Y-75515000D01*
X105885000Y-83915000D01*
X94285000Y-83915000D01*
X94285000Y-75515000D01*
X175485000Y-67115000D02*
X187085000Y-67115000D01*
X187085000Y-75515000D01*
X175485000Y-75515000D01*
X175485000Y-67115000D01*
X163885000Y-67115000D02*
X175485000Y-67115000D01*
X175485000Y-75515000D01*
X163885000Y-75515000D01*
X163885000Y-67115000D01*
X152285000Y-67115000D02*
X163885000Y-67115000D01*
X163885000Y-75515000D01*
X152285000Y-75515000D01*
X152285000Y-67115000D01*
X140685000Y-67115000D02*
X152285000Y-67115000D01*
X152285000Y-75515000D01*
X140685000Y-75515000D01*
X140685000Y-67115000D01*
X129085000Y-67115000D02*
X140685000Y-67115000D01*
X140685000Y-75515000D01*
X129085000Y-75515000D01*
X129085000Y-67115000D01*
X117485000Y-67115000D02*
X129085000Y-67115000D01*
X129085000Y-75515000D01*
X117485000Y-75515000D01*
X117485000Y-67115000D01*
X105885000Y-67115000D02*
X117485000Y-67115000D01*
X117485000Y-75515000D01*
X105885000Y-75515000D01*
X105885000Y-67115000D01*
X94285000Y-67115000D02*
X105885000Y-67115000D01*
X105885000Y-75515000D01*
X94285000Y-75515000D01*
X94285000Y-67115000D01*
M02*
