M48
; DRILL file {KiCad 7.0.11+dfsg-1build4} date jue 14 may 2026 22:43:24
; FORMAT={-:-/ absolute / metric / decimal}
; #@! TF.CreationDate,2026-05-14T22:43:24-05:00
; #@! TF.GenerationSoftware,Kicad,Pcbnew,7.0.11+dfsg-1build4
; #@! TF.FileFunction,Plated,1,2,PTH
FMAT,2
METRIC
; #@! TA.AperFunction,Plated,PTH,ViaDrill
T1C0.300
; #@! TA.AperFunction,Plated,PTH,ComponentDrill
T2C0.400
; #@! TA.AperFunction,Plated,PTH,ComponentDrill
T3C1.150
%
G90
G05
T1
X95.25Y-68.08
X95.25Y-76.48
X95.25Y-84.88
X95.25Y-93.28
X95.25Y-101.68
X95.25Y-110.08
X95.25Y-118.48
X95.25Y-126.88
X95.25Y-135.28
X99.06Y-74.43
X99.06Y-82.83
X99.06Y-91.23
X99.06Y-99.63
X99.06Y-108.03
X99.06Y-116.43
X99.06Y-124.83
X99.06Y-133.23
X99.06Y-141.63
X100.085Y-71.315
X100.085Y-79.715
X100.085Y-88.115
X100.085Y-96.515
X100.085Y-104.915
X100.085Y-113.315
X100.085Y-121.715
X100.085Y-130.115
X100.085Y-138.515
X100.965Y-68.08
X100.965Y-76.48
X100.965Y-84.88
X100.965Y-93.28
X100.965Y-101.68
X100.965Y-110.08
X100.965Y-118.48
X100.965Y-126.88
X100.965Y-135.28
X104.775Y-74.43
X104.775Y-82.83
X104.775Y-91.23
X104.775Y-99.63
X104.775Y-108.03
X104.775Y-116.43
X104.775Y-124.83
X104.775Y-133.23
X104.775Y-141.63
X106.85Y-68.08
X106.85Y-76.48
X106.85Y-84.88
X106.85Y-93.28
X106.85Y-101.68
X106.85Y-110.08
X106.85Y-118.48
X106.85Y-126.88
X106.85Y-135.28
X110.66Y-74.43
X110.66Y-82.83
X110.66Y-91.23
X110.66Y-99.63
X110.66Y-108.03
X110.66Y-116.43
X110.66Y-124.83
X110.66Y-133.23
X110.66Y-141.63
X111.685Y-71.315
X111.685Y-79.715
X111.685Y-88.115
X111.685Y-96.515
X111.685Y-104.915
X111.685Y-113.315
X111.685Y-121.715
X111.685Y-130.115
X111.685Y-138.515
X112.565Y-68.08
X112.565Y-76.48
X112.565Y-84.88
X112.565Y-93.28
X112.565Y-101.68
X112.565Y-110.08
X112.565Y-118.48
X112.565Y-126.88
X112.565Y-135.28
X116.375Y-74.43
X116.375Y-82.83
X116.375Y-91.23
X116.375Y-99.63
X116.375Y-108.03
X116.375Y-116.43
X116.375Y-124.83
X116.375Y-133.23
X116.375Y-141.63
X118.45Y-68.08
X118.45Y-76.48
X118.45Y-84.88
X118.45Y-93.28
X118.45Y-101.68
X118.45Y-110.08
X118.45Y-118.48
X118.45Y-126.88
X118.45Y-135.28
X122.26Y-74.43
X122.26Y-82.83
X122.26Y-91.23
X122.26Y-99.63
X122.26Y-108.03
X122.26Y-116.43
X122.26Y-124.83
X122.26Y-133.23
X122.26Y-141.63
X123.285Y-71.315
X123.285Y-79.715
X123.285Y-88.115
X123.285Y-96.515
X123.285Y-104.915
X123.285Y-113.315
X123.285Y-121.715
X123.285Y-130.115
X123.285Y-138.515
X124.165Y-68.08
X124.165Y-76.48
X124.165Y-84.88
X124.165Y-93.28
X124.165Y-101.68
X124.165Y-110.08
X124.165Y-118.48
X124.165Y-126.88
X124.165Y-135.28
X127.975Y-74.43
X127.975Y-82.83
X127.975Y-91.23
X127.975Y-99.63
X127.975Y-108.03
X127.975Y-116.43
X127.975Y-124.83
X127.975Y-133.23
X127.975Y-141.63
X130.05Y-68.08
X130.05Y-76.48
X130.05Y-84.88
X130.05Y-93.28
X130.05Y-101.68
X130.05Y-110.08
X130.05Y-118.48
X130.05Y-126.88
X130.05Y-135.28
X133.86Y-74.43
X133.86Y-82.83
X133.86Y-91.23
X133.86Y-99.63
X133.86Y-108.03
X133.86Y-116.43
X133.86Y-124.83
X133.86Y-133.23
X133.86Y-141.63
X134.885Y-71.315
X134.885Y-79.715
X134.885Y-88.115
X134.885Y-96.515
X134.885Y-104.915
X134.885Y-113.315
X134.885Y-121.715
X134.885Y-130.115
X134.885Y-138.515
X135.765Y-68.08
X135.765Y-76.48
X135.765Y-84.88
X135.765Y-93.28
X135.765Y-101.68
X135.765Y-110.08
X135.765Y-118.48
X135.765Y-126.88
X135.765Y-135.28
X139.575Y-74.43
X139.575Y-82.83
X139.575Y-91.23
X139.575Y-99.63
X139.575Y-108.03
X139.575Y-116.43
X139.575Y-124.83
X139.575Y-133.23
X139.575Y-141.63
X141.65Y-68.08
X141.65Y-76.48
X141.65Y-84.88
X141.65Y-93.28
X141.65Y-101.68
X141.65Y-110.08
X141.65Y-118.48
X141.65Y-126.88
X141.65Y-135.28
X145.46Y-74.43
X145.46Y-82.83
X145.46Y-91.23
X145.46Y-99.63
X145.46Y-108.03
X145.46Y-116.43
X145.46Y-124.83
X145.46Y-133.23
X145.46Y-141.63
X146.485Y-71.315
X146.485Y-79.715
X146.485Y-88.115
X146.485Y-96.515
X146.485Y-104.915
X146.485Y-113.315
X146.485Y-121.715
X146.485Y-130.115
X146.485Y-138.515
X147.365Y-68.08
X147.365Y-76.48
X147.365Y-84.88
X147.365Y-93.28
X147.365Y-101.68
X147.365Y-110.08
X147.365Y-118.48
X147.365Y-126.88
X147.365Y-135.28
X151.175Y-74.43
X151.175Y-82.83
X151.175Y-91.23
X151.175Y-99.63
X151.175Y-108.03
X151.175Y-116.43
X151.175Y-124.83
X151.175Y-133.23
X151.175Y-141.63
X153.25Y-68.08
X153.25Y-76.48
X153.25Y-84.88
X153.25Y-93.28
X153.25Y-101.68
X153.25Y-110.08
X153.25Y-118.48
X153.25Y-126.88
X153.25Y-135.28
X157.06Y-74.43
X157.06Y-82.83
X157.06Y-91.23
X157.06Y-99.63
X157.06Y-108.03
X157.06Y-116.43
X157.06Y-124.83
X157.06Y-133.23
X157.06Y-141.63
X158.085Y-71.315
X158.085Y-79.715
X158.085Y-88.115
X158.085Y-96.515
X158.085Y-104.915
X158.085Y-113.315
X158.085Y-121.715
X158.085Y-130.115
X158.085Y-138.515
X158.965Y-68.08
X158.965Y-76.48
X158.965Y-84.88
X158.965Y-93.28
X158.965Y-101.68
X158.965Y-110.08
X158.965Y-118.48
X158.965Y-126.88
X158.965Y-135.28
X162.775Y-74.43
X162.775Y-82.83
X162.775Y-91.23
X162.775Y-99.63
X162.775Y-108.03
X162.775Y-116.43
X162.775Y-124.83
X162.775Y-133.23
X162.775Y-141.63
X164.85Y-68.08
X164.85Y-76.48
X164.85Y-84.88
X164.85Y-93.28
X164.85Y-101.68
X164.85Y-110.08
X164.85Y-118.48
X164.85Y-126.88
X164.85Y-135.28
X168.66Y-74.43
X168.66Y-82.83
X168.66Y-91.23
X168.66Y-99.63
X168.66Y-108.03
X168.66Y-116.43
X168.66Y-124.83
X168.66Y-133.23
X168.66Y-141.63
X169.685Y-71.315
X169.685Y-79.715
X169.685Y-88.115
X169.685Y-96.515
X169.685Y-104.915
X169.685Y-113.315
X169.685Y-121.715
X169.685Y-130.115
X169.685Y-138.515
X170.565Y-68.08
X170.565Y-76.48
X170.565Y-84.88
X170.565Y-93.28
X170.565Y-101.68
X170.565Y-110.08
X170.565Y-118.48
X170.565Y-126.88
X170.565Y-135.28
X174.375Y-74.43
X174.375Y-82.83
X174.375Y-91.23
X174.375Y-99.63
X174.375Y-108.03
X174.375Y-116.43
X174.375Y-124.83
X174.375Y-133.23
X174.375Y-141.63
X176.45Y-68.08
X176.45Y-76.48
X176.45Y-84.88
X176.45Y-93.28
X176.45Y-101.68
X176.45Y-110.08
X176.45Y-118.48
X176.45Y-126.88
X176.45Y-135.28
X180.26Y-74.43
X180.26Y-82.83
X180.26Y-91.23
X180.26Y-99.63
X180.26Y-108.03
X180.26Y-116.43
X180.26Y-124.83
X180.26Y-133.23
X180.26Y-141.63
X181.285Y-71.315
X181.285Y-79.715
X181.285Y-88.115
X181.285Y-96.515
X181.285Y-104.915
X181.285Y-113.315
X181.285Y-121.715
X181.285Y-130.115
X181.285Y-138.515
X182.165Y-68.08
X182.165Y-76.48
X182.165Y-84.88
X182.165Y-93.28
X182.165Y-101.68
X182.165Y-110.08
X182.165Y-118.48
X182.165Y-126.88
X182.165Y-135.28
X185.975Y-74.43
X185.975Y-82.83
X185.975Y-91.23
X185.975Y-99.63
X185.975Y-108.03
X185.975Y-116.43
X185.975Y-124.83
X185.975Y-133.23
X185.975Y-141.63
T2
X95.385Y-73.415
X95.385Y-81.815
X95.385Y-90.215
X95.385Y-98.615
X95.385Y-107.015
X95.385Y-115.415
X95.385Y-123.815
X95.385Y-132.215
X95.385Y-140.615
X96.435Y-72.365
X96.435Y-74.465
X96.435Y-80.765
X96.435Y-82.865
X96.435Y-89.165
X96.435Y-91.265
X96.435Y-97.565
X96.435Y-99.665
X96.435Y-105.965
X96.435Y-108.065
X96.435Y-114.365
X96.435Y-116.465
X96.435Y-122.765
X96.435Y-124.865
X96.435Y-131.165
X96.435Y-133.265
X96.435Y-139.565
X96.435Y-141.665
X96.885Y-69.215
X96.885Y-77.615
X96.885Y-86.015
X96.885Y-94.415
X96.885Y-102.815
X96.885Y-111.215
X96.885Y-119.615
X96.885Y-128.015
X96.885Y-136.415
X97.485Y-73.415
X97.485Y-81.815
X97.485Y-90.215
X97.485Y-98.615
X97.485Y-107.015
X97.485Y-115.415
X97.485Y-123.815
X97.485Y-132.215
X97.485Y-140.615
X97.935Y-68.165
X97.935Y-70.265
X97.935Y-76.565
X97.935Y-78.665
X97.935Y-84.965
X97.935Y-87.065
X97.935Y-93.365
X97.935Y-95.465
X97.935Y-101.765
X97.935Y-103.865
X97.935Y-110.165
X97.935Y-112.265
X97.935Y-118.565
X97.935Y-120.665
X97.935Y-126.965
X97.935Y-129.065
X97.935Y-135.365
X97.935Y-137.465
X98.985Y-69.215
X98.985Y-77.615
X98.985Y-86.015
X98.985Y-94.415
X98.985Y-102.815
X98.985Y-111.215
X98.985Y-119.615
X98.985Y-128.015
X98.985Y-136.415
X101.185Y-73.415
X101.185Y-81.815
X101.185Y-90.215
X101.185Y-98.615
X101.185Y-107.015
X101.185Y-115.415
X101.185Y-123.815
X101.185Y-132.215
X101.185Y-140.615
X102.235Y-72.365
X102.235Y-74.465
X102.235Y-80.765
X102.235Y-82.865
X102.235Y-89.165
X102.235Y-91.265
X102.235Y-97.565
X102.235Y-99.665
X102.235Y-105.965
X102.235Y-108.065
X102.235Y-114.365
X102.235Y-116.465
X102.235Y-122.765
X102.235Y-124.865
X102.235Y-131.165
X102.235Y-133.265
X102.235Y-139.565
X102.235Y-141.665
X102.685Y-69.215
X102.685Y-77.615
X102.685Y-86.015
X102.685Y-94.415
X102.685Y-102.815
X102.685Y-111.215
X102.685Y-119.615
X102.685Y-128.015
X102.685Y-136.415
X103.285Y-73.415
X103.285Y-81.815
X103.285Y-90.215
X103.285Y-98.615
X103.285Y-107.015
X103.285Y-115.415
X103.285Y-123.815
X103.285Y-132.215
X103.285Y-140.615
X103.735Y-68.165
X103.735Y-70.265
X103.735Y-76.565
X103.735Y-78.665
X103.735Y-84.965
X103.735Y-87.065
X103.735Y-93.365
X103.735Y-95.465
X103.735Y-101.765
X103.735Y-103.865
X103.735Y-110.165
X103.735Y-112.265
X103.735Y-118.565
X103.735Y-120.665
X103.735Y-126.965
X103.735Y-129.065
X103.735Y-135.365
X103.735Y-137.465
X104.785Y-69.215
X104.785Y-77.615
X104.785Y-86.015
X104.785Y-94.415
X104.785Y-102.815
X104.785Y-111.215
X104.785Y-119.615
X104.785Y-128.015
X104.785Y-136.415
X106.985Y-73.415
X106.985Y-81.815
X106.985Y-90.215
X106.985Y-98.615
X106.985Y-107.015
X106.985Y-115.415
X106.985Y-123.815
X106.985Y-132.215
X106.985Y-140.615
X108.035Y-72.365
X108.035Y-74.465
X108.035Y-80.765
X108.035Y-82.865
X108.035Y-89.165
X108.035Y-91.265
X108.035Y-97.565
X108.035Y-99.665
X108.035Y-105.965
X108.035Y-108.065
X108.035Y-114.365
X108.035Y-116.465
X108.035Y-122.765
X108.035Y-124.865
X108.035Y-131.165
X108.035Y-133.265
X108.035Y-139.565
X108.035Y-141.665
X108.485Y-69.215
X108.485Y-77.615
X108.485Y-86.015
X108.485Y-94.415
X108.485Y-102.815
X108.485Y-111.215
X108.485Y-119.615
X108.485Y-128.015
X108.485Y-136.415
X109.085Y-73.415
X109.085Y-81.815
X109.085Y-90.215
X109.085Y-98.615
X109.085Y-107.015
X109.085Y-115.415
X109.085Y-123.815
X109.085Y-132.215
X109.085Y-140.615
X109.535Y-68.165
X109.535Y-70.265
X109.535Y-76.565
X109.535Y-78.665
X109.535Y-84.965
X109.535Y-87.065
X109.535Y-93.365
X109.535Y-95.465
X109.535Y-101.765
X109.535Y-103.865
X109.535Y-110.165
X109.535Y-112.265
X109.535Y-118.565
X109.535Y-120.665
X109.535Y-126.965
X109.535Y-129.065
X109.535Y-135.365
X109.535Y-137.465
X110.585Y-69.215
X110.585Y-77.615
X110.585Y-86.015
X110.585Y-94.415
X110.585Y-102.815
X110.585Y-111.215
X110.585Y-119.615
X110.585Y-128.015
X110.585Y-136.415
X112.785Y-73.415
X112.785Y-81.815
X112.785Y-90.215
X112.785Y-98.615
X112.785Y-107.015
X112.785Y-115.415
X112.785Y-123.815
X112.785Y-132.215
X112.785Y-140.615
X113.835Y-72.365
X113.835Y-74.465
X113.835Y-80.765
X113.835Y-82.865
X113.835Y-89.165
X113.835Y-91.265
X113.835Y-97.565
X113.835Y-99.665
X113.835Y-105.965
X113.835Y-108.065
X113.835Y-114.365
X113.835Y-116.465
X113.835Y-122.765
X113.835Y-124.865
X113.835Y-131.165
X113.835Y-133.265
X113.835Y-139.565
X113.835Y-141.665
X114.285Y-69.215
X114.285Y-77.615
X114.285Y-86.015
X114.285Y-94.415
X114.285Y-102.815
X114.285Y-111.215
X114.285Y-119.615
X114.285Y-128.015
X114.285Y-136.415
X114.885Y-73.415
X114.885Y-81.815
X114.885Y-90.215
X114.885Y-98.615
X114.885Y-107.015
X114.885Y-115.415
X114.885Y-123.815
X114.885Y-132.215
X114.885Y-140.615
X115.335Y-68.165
X115.335Y-70.265
X115.335Y-76.565
X115.335Y-78.665
X115.335Y-84.965
X115.335Y-87.065
X115.335Y-93.365
X115.335Y-95.465
X115.335Y-101.765
X115.335Y-103.865
X115.335Y-110.165
X115.335Y-112.265
X115.335Y-118.565
X115.335Y-120.665
X115.335Y-126.965
X115.335Y-129.065
X115.335Y-135.365
X115.335Y-137.465
X116.385Y-69.215
X116.385Y-77.615
X116.385Y-86.015
X116.385Y-94.415
X116.385Y-102.815
X116.385Y-111.215
X116.385Y-119.615
X116.385Y-128.015
X116.385Y-136.415
X118.585Y-73.415
X118.585Y-81.815
X118.585Y-90.215
X118.585Y-98.615
X118.585Y-107.015
X118.585Y-115.415
X118.585Y-123.815
X118.585Y-132.215
X118.585Y-140.615
X119.635Y-72.365
X119.635Y-74.465
X119.635Y-80.765
X119.635Y-82.865
X119.635Y-89.165
X119.635Y-91.265
X119.635Y-97.565
X119.635Y-99.665
X119.635Y-105.965
X119.635Y-108.065
X119.635Y-114.365
X119.635Y-116.465
X119.635Y-122.765
X119.635Y-124.865
X119.635Y-131.165
X119.635Y-133.265
X119.635Y-139.565
X119.635Y-141.665
X120.085Y-69.215
X120.085Y-77.615
X120.085Y-86.015
X120.085Y-94.415
X120.085Y-102.815
X120.085Y-111.215
X120.085Y-119.615
X120.085Y-128.015
X120.085Y-136.415
X120.685Y-73.415
X120.685Y-81.815
X120.685Y-90.215
X120.685Y-98.615
X120.685Y-107.015
X120.685Y-115.415
X120.685Y-123.815
X120.685Y-132.215
X120.685Y-140.615
X121.135Y-68.165
X121.135Y-70.265
X121.135Y-76.565
X121.135Y-78.665
X121.135Y-84.965
X121.135Y-87.065
X121.135Y-93.365
X121.135Y-95.465
X121.135Y-101.765
X121.135Y-103.865
X121.135Y-110.165
X121.135Y-112.265
X121.135Y-118.565
X121.135Y-120.665
X121.135Y-126.965
X121.135Y-129.065
X121.135Y-135.365
X121.135Y-137.465
X122.185Y-69.215
X122.185Y-77.615
X122.185Y-86.015
X122.185Y-94.415
X122.185Y-102.815
X122.185Y-111.215
X122.185Y-119.615
X122.185Y-128.015
X122.185Y-136.415
X124.385Y-73.415
X124.385Y-81.815
X124.385Y-90.215
X124.385Y-98.615
X124.385Y-107.015
X124.385Y-115.415
X124.385Y-123.815
X124.385Y-132.215
X124.385Y-140.615
X125.435Y-72.365
X125.435Y-74.465
X125.435Y-80.765
X125.435Y-82.865
X125.435Y-89.165
X125.435Y-91.265
X125.435Y-97.565
X125.435Y-99.665
X125.435Y-105.965
X125.435Y-108.065
X125.435Y-114.365
X125.435Y-116.465
X125.435Y-122.765
X125.435Y-124.865
X125.435Y-131.165
X125.435Y-133.265
X125.435Y-139.565
X125.435Y-141.665
X125.885Y-69.215
X125.885Y-77.615
X125.885Y-86.015
X125.885Y-94.415
X125.885Y-102.815
X125.885Y-111.215
X125.885Y-119.615
X125.885Y-128.015
X125.885Y-136.415
X126.485Y-73.415
X126.485Y-81.815
X126.485Y-90.215
X126.485Y-98.615
X126.485Y-107.015
X126.485Y-115.415
X126.485Y-123.815
X126.485Y-132.215
X126.485Y-140.615
X126.935Y-68.165
X126.935Y-70.265
X126.935Y-76.565
X126.935Y-78.665
X126.935Y-84.965
X126.935Y-87.065
X126.935Y-93.365
X126.935Y-95.465
X126.935Y-101.765
X126.935Y-103.865
X126.935Y-110.165
X126.935Y-112.265
X126.935Y-118.565
X126.935Y-120.665
X126.935Y-126.965
X126.935Y-129.065
X126.935Y-135.365
X126.935Y-137.465
X127.985Y-69.215
X127.985Y-77.615
X127.985Y-86.015
X127.985Y-94.415
X127.985Y-102.815
X127.985Y-111.215
X127.985Y-119.615
X127.985Y-128.015
X127.985Y-136.415
X130.185Y-73.415
X130.185Y-81.815
X130.185Y-90.215
X130.185Y-98.615
X130.185Y-107.015
X130.185Y-115.415
X130.185Y-123.815
X130.185Y-132.215
X130.185Y-140.615
X131.235Y-72.365
X131.235Y-74.465
X131.235Y-80.765
X131.235Y-82.865
X131.235Y-89.165
X131.235Y-91.265
X131.235Y-97.565
X131.235Y-99.665
X131.235Y-105.965
X131.235Y-108.065
X131.235Y-114.365
X131.235Y-116.465
X131.235Y-122.765
X131.235Y-124.865
X131.235Y-131.165
X131.235Y-133.265
X131.235Y-139.565
X131.235Y-141.665
X131.685Y-69.215
X131.685Y-77.615
X131.685Y-86.015
X131.685Y-94.415
X131.685Y-102.815
X131.685Y-111.215
X131.685Y-119.615
X131.685Y-128.015
X131.685Y-136.415
X132.285Y-73.415
X132.285Y-81.815
X132.285Y-90.215
X132.285Y-98.615
X132.285Y-107.015
X132.285Y-115.415
X132.285Y-123.815
X132.285Y-132.215
X132.285Y-140.615
X132.735Y-68.165
X132.735Y-70.265
X132.735Y-76.565
X132.735Y-78.665
X132.735Y-84.965
X132.735Y-87.065
X132.735Y-93.365
X132.735Y-95.465
X132.735Y-101.765
X132.735Y-103.865
X132.735Y-110.165
X132.735Y-112.265
X132.735Y-118.565
X132.735Y-120.665
X132.735Y-126.965
X132.735Y-129.065
X132.735Y-135.365
X132.735Y-137.465
X133.785Y-69.215
X133.785Y-77.615
X133.785Y-86.015
X133.785Y-94.415
X133.785Y-102.815
X133.785Y-111.215
X133.785Y-119.615
X133.785Y-128.015
X133.785Y-136.415
X135.985Y-73.415
X135.985Y-81.815
X135.985Y-90.215
X135.985Y-98.615
X135.985Y-107.015
X135.985Y-115.415
X135.985Y-123.815
X135.985Y-132.215
X135.985Y-140.615
X137.035Y-72.365
X137.035Y-74.465
X137.035Y-80.765
X137.035Y-82.865
X137.035Y-89.165
X137.035Y-91.265
X137.035Y-97.565
X137.035Y-99.665
X137.035Y-105.965
X137.035Y-108.065
X137.035Y-114.365
X137.035Y-116.465
X137.035Y-122.765
X137.035Y-124.865
X137.035Y-131.165
X137.035Y-133.265
X137.035Y-139.565
X137.035Y-141.665
X137.485Y-69.215
X137.485Y-77.615
X137.485Y-86.015
X137.485Y-94.415
X137.485Y-102.815
X137.485Y-111.215
X137.485Y-119.615
X137.485Y-128.015
X137.485Y-136.415
X138.085Y-73.415
X138.085Y-81.815
X138.085Y-90.215
X138.085Y-98.615
X138.085Y-107.015
X138.085Y-115.415
X138.085Y-123.815
X138.085Y-132.215
X138.085Y-140.615
X138.535Y-68.165
X138.535Y-70.265
X138.535Y-76.565
X138.535Y-78.665
X138.535Y-84.965
X138.535Y-87.065
X138.535Y-93.365
X138.535Y-95.465
X138.535Y-101.765
X138.535Y-103.865
X138.535Y-110.165
X138.535Y-112.265
X138.535Y-118.565
X138.535Y-120.665
X138.535Y-126.965
X138.535Y-129.065
X138.535Y-135.365
X138.535Y-137.465
X139.585Y-69.215
X139.585Y-77.615
X139.585Y-86.015
X139.585Y-94.415
X139.585Y-102.815
X139.585Y-111.215
X139.585Y-119.615
X139.585Y-128.015
X139.585Y-136.415
X141.785Y-73.415
X141.785Y-81.815
X141.785Y-90.215
X141.785Y-98.615
X141.785Y-107.015
X141.785Y-115.415
X141.785Y-123.815
X141.785Y-132.215
X141.785Y-140.615
X142.835Y-72.365
X142.835Y-74.465
X142.835Y-80.765
X142.835Y-82.865
X142.835Y-89.165
X142.835Y-91.265
X142.835Y-97.565
X142.835Y-99.665
X142.835Y-105.965
X142.835Y-108.065
X142.835Y-114.365
X142.835Y-116.465
X142.835Y-122.765
X142.835Y-124.865
X142.835Y-131.165
X142.835Y-133.265
X142.835Y-139.565
X142.835Y-141.665
X143.285Y-69.215
X143.285Y-77.615
X143.285Y-86.015
X143.285Y-94.415
X143.285Y-102.815
X143.285Y-111.215
X143.285Y-119.615
X143.285Y-128.015
X143.285Y-136.415
X143.885Y-73.415
X143.885Y-81.815
X143.885Y-90.215
X143.885Y-98.615
X143.885Y-107.015
X143.885Y-115.415
X143.885Y-123.815
X143.885Y-132.215
X143.885Y-140.615
X144.335Y-68.165
X144.335Y-70.265
X144.335Y-76.565
X144.335Y-78.665
X144.335Y-84.965
X144.335Y-87.065
X144.335Y-93.365
X144.335Y-95.465
X144.335Y-101.765
X144.335Y-103.865
X144.335Y-110.165
X144.335Y-112.265
X144.335Y-118.565
X144.335Y-120.665
X144.335Y-126.965
X144.335Y-129.065
X144.335Y-135.365
X144.335Y-137.465
X145.385Y-69.215
X145.385Y-77.615
X145.385Y-86.015
X145.385Y-94.415
X145.385Y-102.815
X145.385Y-111.215
X145.385Y-119.615
X145.385Y-128.015
X145.385Y-136.415
X147.585Y-73.415
X147.585Y-81.815
X147.585Y-90.215
X147.585Y-98.615
X147.585Y-107.015
X147.585Y-115.415
X147.585Y-123.815
X147.585Y-132.215
X147.585Y-140.615
X148.635Y-72.365
X148.635Y-74.465
X148.635Y-80.765
X148.635Y-82.865
X148.635Y-89.165
X148.635Y-91.265
X148.635Y-97.565
X148.635Y-99.665
X148.635Y-105.965
X148.635Y-108.065
X148.635Y-114.365
X148.635Y-116.465
X148.635Y-122.765
X148.635Y-124.865
X148.635Y-131.165
X148.635Y-133.265
X148.635Y-139.565
X148.635Y-141.665
X149.085Y-69.215
X149.085Y-77.615
X149.085Y-86.015
X149.085Y-94.415
X149.085Y-102.815
X149.085Y-111.215
X149.085Y-119.615
X149.085Y-128.015
X149.085Y-136.415
X149.685Y-73.415
X149.685Y-81.815
X149.685Y-90.215
X149.685Y-98.615
X149.685Y-107.015
X149.685Y-115.415
X149.685Y-123.815
X149.685Y-132.215
X149.685Y-140.615
X150.135Y-68.165
X150.135Y-70.265
X150.135Y-76.565
X150.135Y-78.665
X150.135Y-84.965
X150.135Y-87.065
X150.135Y-93.365
X150.135Y-95.465
X150.135Y-101.765
X150.135Y-103.865
X150.135Y-110.165
X150.135Y-112.265
X150.135Y-118.565
X150.135Y-120.665
X150.135Y-126.965
X150.135Y-129.065
X150.135Y-135.365
X150.135Y-137.465
X151.185Y-69.215
X151.185Y-77.615
X151.185Y-86.015
X151.185Y-94.415
X151.185Y-102.815
X151.185Y-111.215
X151.185Y-119.615
X151.185Y-128.015
X151.185Y-136.415
X153.385Y-73.415
X153.385Y-81.815
X153.385Y-90.215
X153.385Y-98.615
X153.385Y-107.015
X153.385Y-115.415
X153.385Y-123.815
X153.385Y-132.215
X153.385Y-140.615
X154.435Y-72.365
X154.435Y-74.465
X154.435Y-80.765
X154.435Y-82.865
X154.435Y-89.165
X154.435Y-91.265
X154.435Y-97.565
X154.435Y-99.665
X154.435Y-105.965
X154.435Y-108.065
X154.435Y-114.365
X154.435Y-116.465
X154.435Y-122.765
X154.435Y-124.865
X154.435Y-131.165
X154.435Y-133.265
X154.435Y-139.565
X154.435Y-141.665
X154.885Y-69.215
X154.885Y-77.615
X154.885Y-86.015
X154.885Y-94.415
X154.885Y-102.815
X154.885Y-111.215
X154.885Y-119.615
X154.885Y-128.015
X154.885Y-136.415
X155.485Y-73.415
X155.485Y-81.815
X155.485Y-90.215
X155.485Y-98.615
X155.485Y-107.015
X155.485Y-115.415
X155.485Y-123.815
X155.485Y-132.215
X155.485Y-140.615
X155.935Y-68.165
X155.935Y-70.265
X155.935Y-76.565
X155.935Y-78.665
X155.935Y-84.965
X155.935Y-87.065
X155.935Y-93.365
X155.935Y-95.465
X155.935Y-101.765
X155.935Y-103.865
X155.935Y-110.165
X155.935Y-112.265
X155.935Y-118.565
X155.935Y-120.665
X155.935Y-126.965
X155.935Y-129.065
X155.935Y-135.365
X155.935Y-137.465
X156.985Y-69.215
X156.985Y-77.615
X156.985Y-86.015
X156.985Y-94.415
X156.985Y-102.815
X156.985Y-111.215
X156.985Y-119.615
X156.985Y-128.015
X156.985Y-136.415
X159.185Y-73.415
X159.185Y-81.815
X159.185Y-90.215
X159.185Y-98.615
X159.185Y-107.015
X159.185Y-115.415
X159.185Y-123.815
X159.185Y-132.215
X159.185Y-140.615
X160.235Y-72.365
X160.235Y-74.465
X160.235Y-80.765
X160.235Y-82.865
X160.235Y-89.165
X160.235Y-91.265
X160.235Y-97.565
X160.235Y-99.665
X160.235Y-105.965
X160.235Y-108.065
X160.235Y-114.365
X160.235Y-116.465
X160.235Y-122.765
X160.235Y-124.865
X160.235Y-131.165
X160.235Y-133.265
X160.235Y-139.565
X160.235Y-141.665
X160.685Y-69.215
X160.685Y-77.615
X160.685Y-86.015
X160.685Y-94.415
X160.685Y-102.815
X160.685Y-111.215
X160.685Y-119.615
X160.685Y-128.015
X160.685Y-136.415
X161.285Y-73.415
X161.285Y-81.815
X161.285Y-90.215
X161.285Y-98.615
X161.285Y-107.015
X161.285Y-115.415
X161.285Y-123.815
X161.285Y-132.215
X161.285Y-140.615
X161.735Y-68.165
X161.735Y-70.265
X161.735Y-76.565
X161.735Y-78.665
X161.735Y-84.965
X161.735Y-87.065
X161.735Y-93.365
X161.735Y-95.465
X161.735Y-101.765
X161.735Y-103.865
X161.735Y-110.165
X161.735Y-112.265
X161.735Y-118.565
X161.735Y-120.665
X161.735Y-126.965
X161.735Y-129.065
X161.735Y-135.365
X161.735Y-137.465
X162.785Y-69.215
X162.785Y-77.615
X162.785Y-86.015
X162.785Y-94.415
X162.785Y-102.815
X162.785Y-111.215
X162.785Y-119.615
X162.785Y-128.015
X162.785Y-136.415
X164.985Y-73.415
X164.985Y-81.815
X164.985Y-90.215
X164.985Y-98.615
X164.985Y-107.015
X164.985Y-115.415
X164.985Y-123.815
X164.985Y-132.215
X164.985Y-140.615
X166.035Y-72.365
X166.035Y-74.465
X166.035Y-80.765
X166.035Y-82.865
X166.035Y-89.165
X166.035Y-91.265
X166.035Y-97.565
X166.035Y-99.665
X166.035Y-105.965
X166.035Y-108.065
X166.035Y-114.365
X166.035Y-116.465
X166.035Y-122.765
X166.035Y-124.865
X166.035Y-131.165
X166.035Y-133.265
X166.035Y-139.565
X166.035Y-141.665
X166.485Y-69.215
X166.485Y-77.615
X166.485Y-86.015
X166.485Y-94.415
X166.485Y-102.815
X166.485Y-111.215
X166.485Y-119.615
X166.485Y-128.015
X166.485Y-136.415
X167.085Y-73.415
X167.085Y-81.815
X167.085Y-90.215
X167.085Y-98.615
X167.085Y-107.015
X167.085Y-115.415
X167.085Y-123.815
X167.085Y-132.215
X167.085Y-140.615
X167.535Y-68.165
X167.535Y-70.265
X167.535Y-76.565
X167.535Y-78.665
X167.535Y-84.965
X167.535Y-87.065
X167.535Y-93.365
X167.535Y-95.465
X167.535Y-101.765
X167.535Y-103.865
X167.535Y-110.165
X167.535Y-112.265
X167.535Y-118.565
X167.535Y-120.665
X167.535Y-126.965
X167.535Y-129.065
X167.535Y-135.365
X167.535Y-137.465
X168.585Y-69.215
X168.585Y-77.615
X168.585Y-86.015
X168.585Y-94.415
X168.585Y-102.815
X168.585Y-111.215
X168.585Y-119.615
X168.585Y-128.015
X168.585Y-136.415
X170.785Y-73.415
X170.785Y-81.815
X170.785Y-90.215
X170.785Y-98.615
X170.785Y-107.015
X170.785Y-115.415
X170.785Y-123.815
X170.785Y-132.215
X170.785Y-140.615
X171.835Y-72.365
X171.835Y-74.465
X171.835Y-80.765
X171.835Y-82.865
X171.835Y-89.165
X171.835Y-91.265
X171.835Y-97.565
X171.835Y-99.665
X171.835Y-105.965
X171.835Y-108.065
X171.835Y-114.365
X171.835Y-116.465
X171.835Y-122.765
X171.835Y-124.865
X171.835Y-131.165
X171.835Y-133.265
X171.835Y-139.565
X171.835Y-141.665
X172.285Y-69.215
X172.285Y-77.615
X172.285Y-86.015
X172.285Y-94.415
X172.285Y-102.815
X172.285Y-111.215
X172.285Y-119.615
X172.285Y-128.015
X172.285Y-136.415
X172.885Y-73.415
X172.885Y-81.815
X172.885Y-90.215
X172.885Y-98.615
X172.885Y-107.015
X172.885Y-115.415
X172.885Y-123.815
X172.885Y-132.215
X172.885Y-140.615
X173.335Y-68.165
X173.335Y-70.265
X173.335Y-76.565
X173.335Y-78.665
X173.335Y-84.965
X173.335Y-87.065
X173.335Y-93.365
X173.335Y-95.465
X173.335Y-101.765
X173.335Y-103.865
X173.335Y-110.165
X173.335Y-112.265
X173.335Y-118.565
X173.335Y-120.665
X173.335Y-126.965
X173.335Y-129.065
X173.335Y-135.365
X173.335Y-137.465
X174.385Y-69.215
X174.385Y-77.615
X174.385Y-86.015
X174.385Y-94.415
X174.385Y-102.815
X174.385Y-111.215
X174.385Y-119.615
X174.385Y-128.015
X174.385Y-136.415
X176.585Y-73.415
X176.585Y-81.815
X176.585Y-90.215
X176.585Y-98.615
X176.585Y-107.015
X176.585Y-115.415
X176.585Y-123.815
X176.585Y-132.215
X176.585Y-140.615
X177.635Y-72.365
X177.635Y-74.465
X177.635Y-80.765
X177.635Y-82.865
X177.635Y-89.165
X177.635Y-91.265
X177.635Y-97.565
X177.635Y-99.665
X177.635Y-105.965
X177.635Y-108.065
X177.635Y-114.365
X177.635Y-116.465
X177.635Y-122.765
X177.635Y-124.865
X177.635Y-131.165
X177.635Y-133.265
X177.635Y-139.565
X177.635Y-141.665
X178.085Y-69.215
X178.085Y-77.615
X178.085Y-86.015
X178.085Y-94.415
X178.085Y-102.815
X178.085Y-111.215
X178.085Y-119.615
X178.085Y-128.015
X178.085Y-136.415
X178.685Y-73.415
X178.685Y-81.815
X178.685Y-90.215
X178.685Y-98.615
X178.685Y-107.015
X178.685Y-115.415
X178.685Y-123.815
X178.685Y-132.215
X178.685Y-140.615
X179.135Y-68.165
X179.135Y-70.265
X179.135Y-76.565
X179.135Y-78.665
X179.135Y-84.965
X179.135Y-87.065
X179.135Y-93.365
X179.135Y-95.465
X179.135Y-101.765
X179.135Y-103.865
X179.135Y-110.165
X179.135Y-112.265
X179.135Y-118.565
X179.135Y-120.665
X179.135Y-126.965
X179.135Y-129.065
X179.135Y-135.365
X179.135Y-137.465
X180.185Y-69.215
X180.185Y-77.615
X180.185Y-86.015
X180.185Y-94.415
X180.185Y-102.815
X180.185Y-111.215
X180.185Y-119.615
X180.185Y-128.015
X180.185Y-136.415
X182.385Y-73.415
X182.385Y-81.815
X182.385Y-90.215
X182.385Y-98.615
X182.385Y-107.015
X182.385Y-115.415
X182.385Y-123.815
X182.385Y-132.215
X182.385Y-140.615
X183.435Y-72.365
X183.435Y-74.465
X183.435Y-80.765
X183.435Y-82.865
X183.435Y-89.165
X183.435Y-91.265
X183.435Y-97.565
X183.435Y-99.665
X183.435Y-105.965
X183.435Y-108.065
X183.435Y-114.365
X183.435Y-116.465
X183.435Y-122.765
X183.435Y-124.865
X183.435Y-131.165
X183.435Y-133.265
X183.435Y-139.565
X183.435Y-141.665
X183.885Y-69.215
X183.885Y-77.615
X183.885Y-86.015
X183.885Y-94.415
X183.885Y-102.815
X183.885Y-111.215
X183.885Y-119.615
X183.885Y-128.015
X183.885Y-136.415
X184.485Y-73.415
X184.485Y-81.815
X184.485Y-90.215
X184.485Y-98.615
X184.485Y-107.015
X184.485Y-115.415
X184.485Y-123.815
X184.485Y-132.215
X184.485Y-140.615
X184.935Y-68.165
X184.935Y-70.265
X184.935Y-76.565
X184.935Y-78.665
X184.935Y-84.965
X184.935Y-87.065
X184.935Y-93.365
X184.935Y-95.465
X184.935Y-101.765
X184.935Y-103.865
X184.935Y-110.165
X184.935Y-112.265
X184.935Y-118.565
X184.935Y-120.665
X184.935Y-126.965
X184.935Y-129.065
X184.935Y-135.365
X184.935Y-137.465
X185.985Y-69.215
X185.985Y-77.615
X185.985Y-86.015
X185.985Y-94.415
X185.985Y-102.815
X185.985Y-111.215
X185.985Y-119.615
X185.985Y-128.015
X185.985Y-136.415
T3
X96.435Y-73.415
X96.435Y-81.815
X96.435Y-90.215
X96.435Y-98.615
X96.435Y-107.015
X96.435Y-115.415
X96.435Y-123.815
X96.435Y-132.215
X96.435Y-140.615
X97.935Y-69.215
X97.935Y-77.615
X97.935Y-86.015
X97.935Y-94.415
X97.935Y-102.815
X97.935Y-111.215
X97.935Y-119.615
X97.935Y-128.015
X97.935Y-136.415
X102.235Y-73.415
X102.235Y-81.815
X102.235Y-90.215
X102.235Y-98.615
X102.235Y-107.015
X102.235Y-115.415
X102.235Y-123.815
X102.235Y-132.215
X102.235Y-140.615
X103.735Y-69.215
X103.735Y-77.615
X103.735Y-86.015
X103.735Y-94.415
X103.735Y-102.815
X103.735Y-111.215
X103.735Y-119.615
X103.735Y-128.015
X103.735Y-136.415
X108.035Y-73.415
X108.035Y-81.815
X108.035Y-90.215
X108.035Y-98.615
X108.035Y-107.015
X108.035Y-115.415
X108.035Y-123.815
X108.035Y-132.215
X108.035Y-140.615
X109.535Y-69.215
X109.535Y-77.615
X109.535Y-86.015
X109.535Y-94.415
X109.535Y-102.815
X109.535Y-111.215
X109.535Y-119.615
X109.535Y-128.015
X109.535Y-136.415
X113.835Y-73.415
X113.835Y-81.815
X113.835Y-90.215
X113.835Y-98.615
X113.835Y-107.015
X113.835Y-115.415
X113.835Y-123.815
X113.835Y-132.215
X113.835Y-140.615
X115.335Y-69.215
X115.335Y-77.615
X115.335Y-86.015
X115.335Y-94.415
X115.335Y-102.815
X115.335Y-111.215
X115.335Y-119.615
X115.335Y-128.015
X115.335Y-136.415
X119.635Y-73.415
X119.635Y-81.815
X119.635Y-90.215
X119.635Y-98.615
X119.635Y-107.015
X119.635Y-115.415
X119.635Y-123.815
X119.635Y-132.215
X119.635Y-140.615
X121.135Y-69.215
X121.135Y-77.615
X121.135Y-86.015
X121.135Y-94.415
X121.135Y-102.815
X121.135Y-111.215
X121.135Y-119.615
X121.135Y-128.015
X121.135Y-136.415
X125.435Y-73.415
X125.435Y-81.815
X125.435Y-90.215
X125.435Y-98.615
X125.435Y-107.015
X125.435Y-115.415
X125.435Y-123.815
X125.435Y-132.215
X125.435Y-140.615
X126.935Y-69.215
X126.935Y-77.615
X126.935Y-86.015
X126.935Y-94.415
X126.935Y-102.815
X126.935Y-111.215
X126.935Y-119.615
X126.935Y-128.015
X126.935Y-136.415
X131.235Y-73.415
X131.235Y-81.815
X131.235Y-90.215
X131.235Y-98.615
X131.235Y-107.015
X131.235Y-115.415
X131.235Y-123.815
X131.235Y-132.215
X131.235Y-140.615
X132.735Y-69.215
X132.735Y-77.615
X132.735Y-86.015
X132.735Y-94.415
X132.735Y-102.815
X132.735Y-111.215
X132.735Y-119.615
X132.735Y-128.015
X132.735Y-136.415
X137.035Y-73.415
X137.035Y-81.815
X137.035Y-90.215
X137.035Y-98.615
X137.035Y-107.015
X137.035Y-115.415
X137.035Y-123.815
X137.035Y-132.215
X137.035Y-140.615
X138.535Y-69.215
X138.535Y-77.615
X138.535Y-86.015
X138.535Y-94.415
X138.535Y-102.815
X138.535Y-111.215
X138.535Y-119.615
X138.535Y-128.015
X138.535Y-136.415
X142.835Y-73.415
X142.835Y-81.815
X142.835Y-90.215
X142.835Y-98.615
X142.835Y-107.015
X142.835Y-115.415
X142.835Y-123.815
X142.835Y-132.215
X142.835Y-140.615
X144.335Y-69.215
X144.335Y-77.615
X144.335Y-86.015
X144.335Y-94.415
X144.335Y-102.815
X144.335Y-111.215
X144.335Y-119.615
X144.335Y-128.015
X144.335Y-136.415
X148.635Y-73.415
X148.635Y-81.815
X148.635Y-90.215
X148.635Y-98.615
X148.635Y-107.015
X148.635Y-115.415
X148.635Y-123.815
X148.635Y-132.215
X148.635Y-140.615
X150.135Y-69.215
X150.135Y-77.615
X150.135Y-86.015
X150.135Y-94.415
X150.135Y-102.815
X150.135Y-111.215
X150.135Y-119.615
X150.135Y-128.015
X150.135Y-136.415
X154.435Y-73.415
X154.435Y-81.815
X154.435Y-90.215
X154.435Y-98.615
X154.435Y-107.015
X154.435Y-115.415
X154.435Y-123.815
X154.435Y-132.215
X154.435Y-140.615
X155.935Y-69.215
X155.935Y-77.615
X155.935Y-86.015
X155.935Y-94.415
X155.935Y-102.815
X155.935Y-111.215
X155.935Y-119.615
X155.935Y-128.015
X155.935Y-136.415
X160.235Y-73.415
X160.235Y-81.815
X160.235Y-90.215
X160.235Y-98.615
X160.235Y-107.015
X160.235Y-115.415
X160.235Y-123.815
X160.235Y-132.215
X160.235Y-140.615
X161.735Y-69.215
X161.735Y-77.615
X161.735Y-86.015
X161.735Y-94.415
X161.735Y-102.815
X161.735Y-111.215
X161.735Y-119.615
X161.735Y-128.015
X161.735Y-136.415
X166.035Y-73.415
X166.035Y-81.815
X166.035Y-90.215
X166.035Y-98.615
X166.035Y-107.015
X166.035Y-115.415
X166.035Y-123.815
X166.035Y-132.215
X166.035Y-140.615
X167.535Y-69.215
X167.535Y-77.615
X167.535Y-86.015
X167.535Y-94.415
X167.535Y-102.815
X167.535Y-111.215
X167.535Y-119.615
X167.535Y-128.015
X167.535Y-136.415
X171.835Y-73.415
X171.835Y-81.815
X171.835Y-90.215
X171.835Y-98.615
X171.835Y-107.015
X171.835Y-115.415
X171.835Y-123.815
X171.835Y-132.215
X171.835Y-140.615
X173.335Y-69.215
X173.335Y-77.615
X173.335Y-86.015
X173.335Y-94.415
X173.335Y-102.815
X173.335Y-111.215
X173.335Y-119.615
X173.335Y-128.015
X173.335Y-136.415
X177.635Y-73.415
X177.635Y-81.815
X177.635Y-90.215
X177.635Y-98.615
X177.635Y-107.015
X177.635Y-115.415
X177.635Y-123.815
X177.635Y-132.215
X177.635Y-140.615
X179.135Y-69.215
X179.135Y-77.615
X179.135Y-86.015
X179.135Y-94.415
X179.135Y-102.815
X179.135Y-111.215
X179.135Y-119.615
X179.135Y-128.015
X179.135Y-136.415
X183.435Y-73.415
X183.435Y-81.815
X183.435Y-90.215
X183.435Y-98.615
X183.435Y-107.015
X183.435Y-115.415
X183.435Y-123.815
X183.435Y-132.215
X183.435Y-140.615
X184.935Y-69.215
X184.935Y-77.615
X184.935Y-86.015
X184.935Y-94.415
X184.935Y-102.815
X184.935Y-111.215
X184.935Y-119.615
X184.935Y-128.015
X184.935Y-136.415
M30
