%TF.GenerationSoftware,KiCad,Pcbnew,7.0.11+dfsg-1build4*%
%TF.CreationDate,2026-05-15T19:03:11-05:00*%
%TF.ProjectId,b06,6230362e-6b69-4636-9164-5f7063625858,rev?*%
%TF.SameCoordinates,Original*%
%TF.FileFunction,Soldermask,Top*%
%TF.FilePolarity,Negative*%
%FSLAX46Y46*%
G04 Gerber Fmt 4.6, Leading zero omitted, Abs format (unit mm)*
G04 Created by KiCad (PCBNEW 7.0.11+dfsg-1build4) date 2026-05-15 19:03:11*
%MOMM*%
%LPD*%
G01*
G04 APERTURE LIST*
G04 Aperture macros list*
%AMRoundRect*
0 Rectangle with rounded corners*
0 $1 Rounding radius*
0 $2 $3 $4 $5 $6 $7 $8 $9 X,Y pos of 4 corners*
0 Add a 4 corners polygon primitive as box body*
4,1,4,$2,$3,$4,$5,$6,$7,$8,$9,$2,$3,0*
0 Add four circle primitives for the rounded corners*
1,1,$1+$1,$2,$3*
1,1,$1+$1,$4,$5*
1,1,$1+$1,$6,$7*
1,1,$1+$1,$8,$9*
0 Add four rect primitives between the rounded corners*
20,1,$1+$1,$2,$3,$4,$5,0*
20,1,$1+$1,$4,$5,$6,$7,0*
20,1,$1+$1,$6,$7,$8,$9,0*
20,1,$1+$1,$8,$9,$2,$3,0*%
G04 Aperture macros list end*
%ADD10RoundRect,0.250000X0.350000X0.450000X-0.350000X0.450000X-0.350000X-0.450000X0.350000X-0.450000X0*%
%ADD11R,2.400000X2.400000*%
%ADD12C,2.400000*%
%ADD13RoundRect,0.250000X0.337500X0.475000X-0.337500X0.475000X-0.337500X-0.475000X0.337500X-0.475000X0*%
%ADD14RoundRect,0.249999X-1.425001X0.450001X-1.425001X-0.450001X1.425001X-0.450001X1.425001X0.450001X0*%
%ADD15C,3.200000*%
%ADD16C,0.650000*%
%ADD17R,1.450000X0.600000*%
%ADD18R,1.450000X0.300000*%
%ADD19O,2.100000X1.000000*%
%ADD20O,1.600000X1.000000*%
%ADD21RoundRect,0.250000X1.000000X-1.950000X1.000000X1.950000X-1.000000X1.950000X-1.000000X-1.950000X0*%
%ADD22RoundRect,0.250000X-0.350000X-0.450000X0.350000X-0.450000X0.350000X0.450000X-0.350000X0.450000X0*%
%ADD23R,1.600000X1.600000*%
%ADD24O,1.600000X1.600000*%
%ADD25RoundRect,0.250000X-0.325000X-0.450000X0.325000X-0.450000X0.325000X0.450000X-0.325000X0.450000X0*%
%ADD26RoundRect,0.150000X0.825000X0.150000X-0.825000X0.150000X-0.825000X-0.150000X0.825000X-0.150000X0*%
%ADD27RoundRect,0.250001X0.624999X-0.462499X0.624999X0.462499X-0.624999X0.462499X-0.624999X-0.462499X0*%
%ADD28RoundRect,0.250000X0.325000X0.450000X-0.325000X0.450000X-0.325000X-0.450000X0.325000X-0.450000X0*%
%ADD29RoundRect,0.250000X-0.337500X-0.475000X0.337500X-0.475000X0.337500X0.475000X-0.337500X0.475000X0*%
%ADD30R,1.700000X1.700000*%
%ADD31C,1.700000*%
%ADD32RoundRect,0.250000X-0.450000X0.350000X-0.450000X-0.350000X0.450000X-0.350000X0.450000X0.350000X0*%
%ADD33R,1.550000X1.300000*%
%TA.AperFunction,Profile*%
%ADD34C,0.050000*%
%TD*%
G04 APERTURE END LIST*
D10*
%TO.C,R10*%
X158210000Y-74930000D03*
X156210000Y-74930000D03*
%TD*%
D11*
%TO.C,J5*%
X175600000Y-58200000D03*
D12*
X164170000Y-59950000D03*
X175600000Y-54700000D03*
X164170000Y-56450000D03*
X175600000Y-51200000D03*
X164170000Y-52950000D03*
X175600000Y-47700000D03*
X164170000Y-49450000D03*
X175600000Y-44200000D03*
X164170000Y-45950000D03*
X175600000Y-40700000D03*
X164170000Y-42450000D03*
X175600000Y-37200000D03*
X164170000Y-38950000D03*
%TD*%
D13*
%TO.C,C6*%
X101135000Y-66675000D03*
X99060000Y-66675000D03*
%TD*%
D14*
%TO.C,R5*%
X91440000Y-48450000D03*
X91440000Y-54550000D03*
%TD*%
D15*
%TO.C,MH05*%
X130120000Y-82000000D03*
%TD*%
D16*
%TO.C,J4*%
X86550000Y-37010000D03*
X86550000Y-42790000D03*
D17*
X87995000Y-36650000D03*
X87995000Y-37450000D03*
D18*
X87995000Y-38650000D03*
X87995000Y-39650000D03*
X87995000Y-40150000D03*
X87995000Y-41150000D03*
D17*
X87995000Y-42350000D03*
X87995000Y-43150000D03*
X87995000Y-43150000D03*
X87995000Y-42350000D03*
D18*
X87995000Y-41650000D03*
X87995000Y-40650000D03*
X87995000Y-39150000D03*
X87995000Y-38150000D03*
D17*
X87995000Y-37450000D03*
X87995000Y-36650000D03*
D19*
X87080000Y-35580000D03*
D20*
X82900000Y-35580000D03*
D19*
X87080000Y-44220000D03*
D20*
X82900000Y-44220000D03*
%TD*%
D10*
%TO.C,R16*%
X140335000Y-74930000D03*
X138335000Y-74930000D03*
%TD*%
D21*
%TO.C,C1*%
X107315000Y-44865000D03*
X107315000Y-37465000D03*
%TD*%
D16*
%TO.C,J2*%
X86550000Y-58710000D03*
X86550000Y-64490000D03*
D17*
X87995000Y-58350000D03*
X87995000Y-59150000D03*
D18*
X87995000Y-60350000D03*
X87995000Y-61350000D03*
X87995000Y-61850000D03*
X87995000Y-62850000D03*
D17*
X87995000Y-64050000D03*
X87995000Y-64850000D03*
X87995000Y-64850000D03*
X87995000Y-64050000D03*
D18*
X87995000Y-63350000D03*
X87995000Y-62350000D03*
X87995000Y-60850000D03*
X87995000Y-59850000D03*
D17*
X87995000Y-59150000D03*
X87995000Y-58350000D03*
D19*
X87080000Y-57280000D03*
D20*
X82900000Y-57280000D03*
D19*
X87080000Y-65920000D03*
D20*
X82900000Y-65920000D03*
%TD*%
D15*
%TO.C,MH01*%
X170760000Y-82000000D03*
%TD*%
%TO.C,MH03*%
X150440000Y-82000000D03*
%TD*%
D22*
%TO.C,R11*%
X95250000Y-69215000D03*
X97250000Y-69215000D03*
%TD*%
%TO.C,R3*%
X92075000Y-74295000D03*
X94075000Y-74295000D03*
%TD*%
D23*
%TO.C,U4*%
X117465000Y-37850000D03*
D24*
X117465000Y-40390000D03*
X117465000Y-42930000D03*
X117465000Y-45470000D03*
X117465000Y-48010000D03*
X117465000Y-50550000D03*
X117465000Y-53090000D03*
X117465000Y-55630000D03*
X132705000Y-55630000D03*
X132705000Y-53090000D03*
X132705000Y-50550000D03*
X132705000Y-48010000D03*
X132705000Y-45470000D03*
X132705000Y-42930000D03*
X132705000Y-40390000D03*
X132705000Y-37850000D03*
%TD*%
D10*
%TO.C,R9*%
X153765000Y-74930000D03*
X151765000Y-74930000D03*
%TD*%
D21*
%TO.C,C5*%
X107315000Y-70375000D03*
X107315000Y-62975000D03*
%TD*%
D14*
%TO.C,R8*%
X91440000Y-61250000D03*
X91440000Y-67350000D03*
%TD*%
D22*
%TO.C,R2*%
X92075000Y-76835000D03*
X94075000Y-76835000D03*
%TD*%
D25*
%TO.C,D3*%
X147320000Y-74930000D03*
X149370000Y-74930000D03*
%TD*%
D22*
%TO.C,R15*%
X142875000Y-74930000D03*
X144875000Y-74930000D03*
%TD*%
D26*
%TO.C,U2*%
X100835000Y-52070000D03*
X100835000Y-50800000D03*
X100835000Y-49530000D03*
X100835000Y-48260000D03*
X95885000Y-48260000D03*
X95885000Y-49530000D03*
X95885000Y-50800000D03*
X95885000Y-52070000D03*
%TD*%
D27*
%TO.C,F2*%
X113665000Y-51870000D03*
X113665000Y-48895000D03*
%TD*%
D15*
%TO.C,MH09*%
X89480000Y-82000000D03*
%TD*%
D10*
%TO.C,R12*%
X93075000Y-44450000D03*
X91075000Y-44450000D03*
%TD*%
D15*
%TO.C,MH02*%
X160600000Y-82000000D03*
%TD*%
D28*
%TO.C,D4*%
X101355000Y-69215000D03*
X99305000Y-69215000D03*
%TD*%
D22*
%TO.C,R7*%
X95250000Y-56515000D03*
X97250000Y-56515000D03*
%TD*%
D15*
%TO.C,MH07*%
X109800000Y-82000000D03*
%TD*%
D29*
%TO.C,C9*%
X95080000Y-66675000D03*
X97155000Y-66675000D03*
%TD*%
D16*
%TO.C,J3*%
X86550000Y-47860000D03*
X86550000Y-53640000D03*
D17*
X87995000Y-47500000D03*
X87995000Y-48300000D03*
D18*
X87995000Y-49500000D03*
X87995000Y-50500000D03*
X87995000Y-51000000D03*
X87995000Y-52000000D03*
D17*
X87995000Y-53200000D03*
X87995000Y-54000000D03*
X87995000Y-54000000D03*
X87995000Y-53200000D03*
D18*
X87995000Y-52500000D03*
X87995000Y-51500000D03*
X87995000Y-50000000D03*
X87995000Y-49000000D03*
D17*
X87995000Y-48300000D03*
X87995000Y-47500000D03*
D19*
X87080000Y-46430000D03*
D20*
X82900000Y-46430000D03*
D19*
X87080000Y-55070000D03*
D20*
X82900000Y-55070000D03*
%TD*%
D15*
%TO.C,MH08*%
X99640000Y-82000000D03*
%TD*%
D22*
%TO.C,R4*%
X95520000Y-43815000D03*
X97520000Y-43815000D03*
%TD*%
D29*
%TO.C,C8*%
X95482500Y-53975000D03*
X97557500Y-53975000D03*
%TD*%
D16*
%TO.C,J1*%
X86550000Y-69610000D03*
X86550000Y-75390000D03*
D17*
X87995000Y-69250000D03*
X87995000Y-70050000D03*
D18*
X87995000Y-71250000D03*
X87995000Y-72250000D03*
X87995000Y-72750000D03*
X87995000Y-73750000D03*
D17*
X87995000Y-74950000D03*
X87995000Y-75750000D03*
X87995000Y-75750000D03*
X87995000Y-74950000D03*
D18*
X87995000Y-74250000D03*
X87995000Y-73250000D03*
X87995000Y-71750000D03*
X87995000Y-70750000D03*
D17*
X87995000Y-70050000D03*
X87995000Y-69250000D03*
D19*
X87080000Y-68180000D03*
D20*
X82900000Y-68180000D03*
D19*
X87080000Y-76820000D03*
D20*
X82900000Y-76820000D03*
%TD*%
D30*
%TO.C,U5*%
X144145000Y-41371500D03*
D31*
X146685000Y-41371500D03*
X149225000Y-41371500D03*
X151765000Y-41371500D03*
%TD*%
D13*
%TO.C,C2*%
X101135000Y-41275000D03*
X99060000Y-41275000D03*
%TD*%
D32*
%TO.C,R1*%
X133985000Y-69755000D03*
X133985000Y-71755000D03*
%TD*%
D10*
%TO.C,R13*%
X92710000Y-57150000D03*
X90710000Y-57150000D03*
%TD*%
D29*
%TO.C,C7*%
X95250000Y-41275000D03*
X97325000Y-41275000D03*
%TD*%
D27*
%TO.C,F1*%
X113665000Y-39170000D03*
X113665000Y-36195000D03*
%TD*%
D26*
%TO.C,U1*%
X100900000Y-39370000D03*
X100900000Y-38100000D03*
X100900000Y-36830000D03*
X100900000Y-35560000D03*
X95950000Y-35560000D03*
X95950000Y-36830000D03*
X95950000Y-38100000D03*
X95950000Y-39370000D03*
%TD*%
D33*
%TO.C,SW1*%
X121755000Y-68580000D03*
X129705000Y-68580000D03*
X121755000Y-73080000D03*
X129705000Y-73080000D03*
%TD*%
D14*
%TO.C,R6*%
X91440000Y-35750000D03*
X91440000Y-41850000D03*
%TD*%
D26*
%TO.C,U3*%
X100835000Y-64770000D03*
X100835000Y-63500000D03*
X100835000Y-62230000D03*
X100835000Y-60960000D03*
X95885000Y-60960000D03*
X95885000Y-62230000D03*
X95885000Y-63500000D03*
X95885000Y-64770000D03*
%TD*%
D28*
%TO.C,D2*%
X101600000Y-56515000D03*
X99550000Y-56515000D03*
%TD*%
D13*
%TO.C,C4*%
X101600000Y-53975000D03*
X99525000Y-53975000D03*
%TD*%
D28*
%TO.C,D1*%
X101355000Y-43815000D03*
X99305000Y-43815000D03*
%TD*%
D15*
%TO.C,MH06*%
X119960000Y-82000000D03*
%TD*%
D21*
%TO.C,C3*%
X107315000Y-57565000D03*
X107315000Y-50165000D03*
%TD*%
D15*
%TO.C,MH04*%
X140280000Y-82000000D03*
%TD*%
D10*
%TO.C,R14*%
X92440000Y-69850000D03*
X90440000Y-69850000D03*
%TD*%
D27*
%TO.C,F3*%
X113665000Y-64570000D03*
X113665000Y-61595000D03*
%TD*%
D34*
X79760000Y-34500000D02*
X179760000Y-34500000D01*
X179760000Y-84500000D01*
X79760000Y-84500000D01*
X79760000Y-34500000D01*
M02*
