M48
; DRILL file {KiCad 7.0.11+dfsg-1build4} date jue 21 may 2026 22:20:38
; FORMAT={-:-/ absolute / metric / decimal}
; #@! TF.CreationDate,2026-05-21T22:20:38-05:00
; #@! TF.GenerationSoftware,Kicad,Pcbnew,7.0.11+dfsg-1build4
; #@! TF.FileFunction,Plated,1,2,PTH
FMAT,2
METRIC
; #@! TA.AperFunction,Plated,PTH,ViaDrill
T1C0.300
; #@! TA.AperFunction,Plated,PTH,ComponentDrill
T2C1.000
; #@! TA.AperFunction,Plated,PTH,ComponentDrill
T3C1.200
%
G90
G05
T1
X80.569Y-35.408
X80.874Y-69.444
X80.975Y-77.521
X82.138Y-74.055
X89.616Y-58.273
X89.987Y-53.606
X97.902Y-73.48
X99.67Y-35.509
X100.381Y-65.532
X105.232Y-70.643
X105.891Y-72.892
X106.056Y-76.809
X106.324Y-68.224
X106.426Y-70.561
X106.477Y-69.342
X106.484Y-76.041
X106.985Y-57.353
X111.505Y-73.066
X111.557Y-63.551
X111.6Y-71.921
X111.744Y-69.757
X111.76Y-60.147
X111.855Y-70.559
X113.099Y-67.631
X115.308Y-70.156
X115.316Y-73.457
X115.481Y-67.236
X115.519Y-74.473
X115.722Y-76.606
X115.773Y-56.896
X116.036Y-68.856
X116.14Y-65.406
X116.697Y-60.633
X116.738Y-76.86
X116.84Y-56.642
X117.399Y-35.357
X117.652Y-68.302
X117.693Y-60.052
X117.752Y-70.815
X118.882Y-63.322
X118.923Y-56.439
X119.583Y-67.412
X119.876Y-60.496
X120.752Y-68.58
X121.187Y-54.803
X121.249Y-73.975
X121.491Y-62.453
X121.92Y-55.982
X122.123Y-68.021
X122.174Y-71.73
X122.377Y-47.701
X122.733Y-51.918
X123.041Y-72.121
X125.832Y-40.183
X126.289Y-77.521
X128.321Y-74.219
X129.134Y-58.776
X129.438Y-47.041
X129.692Y-72.644
X130.505Y-37.084
X130.881Y-41.687
X130.912Y-38.557
X131.065Y-48.1
X131.724Y-35.306
X135.077Y-56.896
X136.181Y-54.297
X137.312Y-41.554
X137.516Y-70.104
X137.617Y-37.236
X138.582Y-67.158
X138.633Y-44.602
X138.735Y-41.707
X138.836Y-39.116
X140.411Y-68.123
X142.138Y-44.399
X142.193Y-38.608
X142.84Y-43.739
X143.053Y-36.83
X143.104Y-35.496
X143.764Y-52.934
X143.815Y-44.298
X143.866Y-42.469
X143.89Y-40.124
X143.916Y-36.627
X144.018Y-49.327
X146.914Y-41.046
X147.777Y-54.458
X148.387Y-77.368
X150.063Y-71.018
X150.114Y-51.105
X150.216Y-60.554
X151.943Y-36.687
X154.127Y-42.672
X160.579Y-35.814
X165.354Y-42.824
X165.811Y-36.78
X168.097Y-46.533
X169.316Y-41.097
X170.129Y-48.006
X170.383Y-46.533
X174.447Y-36.728
T2
X83.185Y-56.515
X83.185Y-71.755
X85.725Y-56.515
X85.725Y-71.755
X88.265Y-56.515
X88.265Y-71.755
X90.805Y-56.515
X90.805Y-71.755
X93.345Y-56.515
X93.345Y-71.755
X95.885Y-56.515
X95.885Y-71.755
X98.425Y-56.515
X98.425Y-71.755
X100.965Y-56.515
X100.965Y-71.755
X131.445Y-51.404
X133.985Y-51.404
X136.525Y-51.404
X139.065Y-51.404
T3
X82.673Y-38.989
X84.423Y-50.419
X86.173Y-38.989
X87.923Y-50.419
X89.673Y-38.989
X91.423Y-50.419
X93.173Y-38.989
X94.923Y-50.419
X96.673Y-38.989
X98.423Y-50.419
X100.173Y-38.989
X101.923Y-50.419
X103.673Y-38.989
X105.423Y-50.419
X107.173Y-38.989
X108.923Y-50.419
X110.673Y-38.989
X112.423Y-50.419
X114.173Y-38.989
X115.923Y-50.419
X163.83Y-52.38
X163.83Y-55.88
X163.83Y-59.38
X163.83Y-62.88
X163.83Y-66.38
X163.83Y-69.88
X163.83Y-73.38
X175.26Y-50.63
X175.26Y-54.13
X175.26Y-57.63
X175.26Y-61.13
X175.26Y-64.63
X175.26Y-68.13
X175.26Y-71.63
M30
