%TF.GenerationSoftware,KiCad,Pcbnew,7.0.11+dfsg-1build4*%
%TF.CreationDate,2026-05-21T22:20:41-05:00*%
%TF.ProjectId,b03,6230332e-6b69-4636-9164-5f7063625858,rev?*%
%TF.SameCoordinates,Original*%
%TF.FileFunction,Copper,L2,Bot*%
%TF.FilePolarity,Positive*%
%FSLAX46Y46*%
G04 Gerber Fmt 4.6, Leading zero omitted, Abs format (unit mm)*
G04 Created by KiCad (PCBNEW 7.0.11+dfsg-1build4) date 2026-05-21 22:20:41*
%MOMM*%
%LPD*%
G01*
G04 APERTURE LIST*
%ADD10C,0.300000*%
%TA.AperFunction,NonConductor*%
%ADD11C,0.300000*%
%TD*%
%TA.AperFunction,ComponentPad*%
%ADD12R,1.600000X1.600000*%
%TD*%
%TA.AperFunction,ComponentPad*%
%ADD13O,1.600000X1.600000*%
%TD*%
%TA.AperFunction,ComponentPad*%
%ADD14R,1.700000X1.700000*%
%TD*%
%TA.AperFunction,ComponentPad*%
%ADD15C,1.700000*%
%TD*%
%TA.AperFunction,ComponentPad*%
%ADD16R,2.400000X2.400000*%
%TD*%
%TA.AperFunction,ComponentPad*%
%ADD17C,2.400000*%
%TD*%
%TA.AperFunction,ViaPad*%
%ADD18C,0.600000*%
%TD*%
%TA.AperFunction,Conductor*%
%ADD19C,0.200000*%
%TD*%
%TA.AperFunction,Profile*%
%ADD20C,0.050000*%
%TD*%
G04 APERTURE END LIST*
D10*
D11*
X143844489Y-77524828D02*
X143844489Y-76024828D01*
X143844489Y-76739114D02*
X142987346Y-76739114D01*
X142987346Y-77524828D02*
X142987346Y-76024828D01*
X142273060Y-77524828D02*
X142273060Y-76024828D01*
X140844488Y-77524828D02*
X141558774Y-77524828D01*
X141558774Y-77524828D02*
X141558774Y-76024828D01*
X140344488Y-76953400D02*
X139201631Y-76953400D01*
X138201630Y-76024828D02*
X138058773Y-76024828D01*
X138058773Y-76024828D02*
X137915916Y-76096257D01*
X137915916Y-76096257D02*
X137844488Y-76167685D01*
X137844488Y-76167685D02*
X137773059Y-76310542D01*
X137773059Y-76310542D02*
X137701630Y-76596257D01*
X137701630Y-76596257D02*
X137701630Y-76953400D01*
X137701630Y-76953400D02*
X137773059Y-77239114D01*
X137773059Y-77239114D02*
X137844488Y-77381971D01*
X137844488Y-77381971D02*
X137915916Y-77453400D01*
X137915916Y-77453400D02*
X138058773Y-77524828D01*
X138058773Y-77524828D02*
X138201630Y-77524828D01*
X138201630Y-77524828D02*
X138344488Y-77453400D01*
X138344488Y-77453400D02*
X138415916Y-77381971D01*
X138415916Y-77381971D02*
X138487345Y-77239114D01*
X138487345Y-77239114D02*
X138558773Y-76953400D01*
X138558773Y-76953400D02*
X138558773Y-76596257D01*
X138558773Y-76596257D02*
X138487345Y-76310542D01*
X138487345Y-76310542D02*
X138415916Y-76167685D01*
X138415916Y-76167685D02*
X138344488Y-76096257D01*
X138344488Y-76096257D02*
X138201630Y-76024828D01*
X137201631Y-76024828D02*
X136273059Y-76024828D01*
X136273059Y-76024828D02*
X136773059Y-76596257D01*
X136773059Y-76596257D02*
X136558774Y-76596257D01*
X136558774Y-76596257D02*
X136415917Y-76667685D01*
X136415917Y-76667685D02*
X136344488Y-76739114D01*
X136344488Y-76739114D02*
X136273059Y-76881971D01*
X136273059Y-76881971D02*
X136273059Y-77239114D01*
X136273059Y-77239114D02*
X136344488Y-77381971D01*
X136344488Y-77381971D02*
X136415917Y-77453400D01*
X136415917Y-77453400D02*
X136558774Y-77524828D01*
X136558774Y-77524828D02*
X136987345Y-77524828D01*
X136987345Y-77524828D02*
X137130202Y-77453400D01*
X137130202Y-77453400D02*
X137201631Y-77381971D01*
D12*
%TO.P,U4,1,GPIO5*%
%TO.N,unconnected-(U4-GPIO5-Pad1)*%
X83185000Y-71755000D03*
D13*
%TO.P,U4,2,GPIO6*%
%TO.N,unconnected-(U4-GPIO6-Pad2)*%
X85725000Y-71755000D03*
%TO.P,U4,3,GPIO7*%
%TO.N,/DEFAULTS*%
X88265000Y-71755000D03*
%TO.P,U4,4,GPIO8*%
%TO.N,/ERR_LED*%
X90805000Y-71755000D03*
%TO.P,U4,5,GPIO9*%
%TO.N,/K2CTR*%
X93345000Y-71755000D03*
%TO.P,U4,6,GPIO10*%
%TO.N,/K5CTR*%
X95885000Y-71755000D03*
%TO.P,U4,7,GPIO20*%
%TO.N,/K6CTR*%
X98425000Y-71755000D03*
%TO.P,U4,8,GPIO21*%
%TO.N,/K1CTR*%
X100965000Y-71755000D03*
%TO.P,U4,9,GPIO0*%
%TO.N,/DISP_SCL*%
X100965000Y-56515000D03*
%TO.P,U4,10,GPIO1*%
%TO.N,/DISP_SDA*%
X98425000Y-56515000D03*
%TO.P,U4,11,GPIO2*%
%TO.N,/{slash}KOE*%
X95885000Y-56515000D03*
%TO.P,U4,12,GPIO3*%
%TO.N,/K3CTR*%
X93345000Y-56515000D03*
%TO.P,U4,13,GPIO4*%
%TO.N,/K4CTR*%
X90805000Y-56515000D03*
%TO.P,U4,14,3V3*%
%TO.N,unconnected-(U4-3V3-Pad14)*%
X88265000Y-56515000D03*
%TO.P,U4,15,GND*%
%TO.N,GND*%
X85725000Y-56515000D03*
%TO.P,U4,16,5V*%
%TO.N,+5V*%
X83185000Y-56515000D03*
%TD*%
D14*
%TO.P,U5,1,GND*%
%TO.N,GND*%
X131445000Y-51404500D03*
D15*
%TO.P,U5,2,VDD*%
%TO.N,+3V3*%
X133985000Y-51404500D03*
%TO.P,U5,3,SCL*%
%TO.N,Net-(U5-SCL)*%
X136525000Y-51404500D03*
%TO.P,U5,4,SDA*%
%TO.N,Net-(U5-SDA)*%
X139065000Y-51404500D03*
%TD*%
D16*
%TO.P,J2,1,Pin_1*%
%TO.N,/K1NO*%
X175260000Y-71630000D03*
D17*
%TO.P,J2,2,Pin_2*%
%TO.N,/K1C*%
X163830000Y-73380000D03*
%TO.P,J2,3,Pin_3*%
%TO.N,/K2NO*%
X175260000Y-68130000D03*
%TO.P,J2,4,Pin_4*%
%TO.N,/K2C*%
X163830000Y-69880000D03*
%TO.P,J2,5,Pin_5*%
%TO.N,/K3NO*%
X175260000Y-64630000D03*
%TO.P,J2,6,Pin_6*%
%TO.N,/K3C*%
X163830000Y-66380000D03*
%TO.P,J2,7,Pin_7*%
%TO.N,/K4NO*%
X175260000Y-61130000D03*
%TO.P,J2,8,Pin_8*%
%TO.N,/K4C*%
X163830000Y-62880000D03*
%TO.P,J2,9,Pin_9*%
%TO.N,/K5NC*%
X175260000Y-57630000D03*
%TO.P,J2,10,Pin_10*%
%TO.N,/K5C*%
X163830000Y-59380000D03*
%TO.P,J2,11,Pin_11*%
%TO.N,/K5NO*%
X175260000Y-54130000D03*
%TO.P,J2,12,Pin_12*%
%TO.N,/K6NC*%
X163830000Y-55880000D03*
%TO.P,J2,13,Pin_13*%
%TO.N,/K6NO*%
X175260000Y-50630000D03*
%TO.P,J2,14,Pin_14*%
%TO.N,/K6C*%
X163830000Y-52380000D03*
%TD*%
D16*
%TO.P,J1,1,Pin_1*%
%TO.N,+3V3*%
X114173000Y-38989000D03*
D17*
%TO.P,J1,2,Pin_2*%
%TO.N,/DISP_SCL*%
X115923000Y-50419000D03*
%TO.P,J1,3,Pin_3*%
%TO.N,GND*%
X110673000Y-38989000D03*
%TO.P,J1,4,Pin_4*%
%TO.N,/DISP_SDA*%
X112423000Y-50419000D03*
%TO.P,J1,5,Pin_5*%
%TO.N,GND*%
X107173000Y-38989000D03*
%TO.P,J1,6,Pin_6*%
%TO.N,/DEFAULTS*%
X108923000Y-50419000D03*
%TO.P,J1,7,Pin_7*%
%TO.N,GND*%
X103673000Y-38989000D03*
%TO.P,J1,8,Pin_8*%
%TO.N,/K1_LED_EXT*%
X105423000Y-50419000D03*
%TO.P,J1,9,Pin_9*%
%TO.N,GND*%
X100173000Y-38989000D03*
%TO.P,J1,10,Pin_10*%
%TO.N,/K2_LED_EXT*%
X101923000Y-50419000D03*
%TO.P,J1,11,Pin_11*%
%TO.N,GND*%
X96673000Y-38989000D03*
%TO.P,J1,12,Pin_12*%
%TO.N,/K3_LED_EXT*%
X98423000Y-50419000D03*
%TO.P,J1,13,Pin_13*%
%TO.N,GND*%
X93173000Y-38989000D03*
%TO.P,J1,14,Pin_14*%
%TO.N,/K4_LED_EXT*%
X94923000Y-50419000D03*
%TO.P,J1,15,Pin_15*%
%TO.N,GND*%
X89673000Y-38989000D03*
%TO.P,J1,16,Pin_16*%
%TO.N,/K5_LED_EXT*%
X91423000Y-50419000D03*
%TO.P,J1,17,Pin_17*%
%TO.N,GND*%
X86173000Y-38989000D03*
%TO.P,J1,18,Pin_18*%
%TO.N,/K6_LED_EXT*%
X87923000Y-50419000D03*
%TO.P,J1,19,Pin_19*%
%TO.N,+3V3*%
X82673000Y-38989000D03*
%TO.P,J1,20,Pin_20*%
%TO.N,/ERR_LED_EXT*%
X84423000Y-50419000D03*
%TD*%
D18*
%TO.N,GND*%
X130505200Y-37084000D03*
X150114000Y-51104800D03*
X174447200Y-36728400D03*
X80568800Y-35407600D03*
X128320800Y-74218800D03*
X143052800Y-36830000D03*
X137312400Y-41554400D03*
X148386800Y-77368400D03*
X131064700Y-48100500D03*
X80975200Y-77520800D03*
X117398800Y-35356800D03*
X131724400Y-35306000D03*
X138633200Y-44602400D03*
X126288800Y-77520800D03*
X99669600Y-35509200D03*
X160578800Y-35814000D03*
%TO.N,+3V3*%
X151942800Y-36687200D03*
X143916400Y-36626800D03*
X80873600Y-69443600D03*
X130881200Y-41687200D03*
%TO.N,Net-(U2-O5)*%
X165811200Y-36780000D03*
X146913600Y-41046400D03*
%TO.N,Net-(U2-O6)*%
X143865600Y-42468800D03*
X143103600Y-35496200D03*
%TO.N,/K5CTR*%
X106056100Y-76809000D03*
X115316000Y-73456800D03*
%TO.N,/K3DRV*%
X115480700Y-67236000D03*
X138582400Y-67157600D03*
X113099200Y-67631200D03*
X142193300Y-38608000D03*
X122123200Y-68021200D03*
X122174000Y-71729600D03*
X120751600Y-68580000D03*
X119583200Y-67411600D03*
%TO.N,Net-(U2-O4)*%
X150063200Y-71018400D03*
X143890100Y-40124100D03*
%TO.N,Net-(U2-O3)*%
X143814800Y-44297600D03*
X147777200Y-54457600D03*
X150215600Y-60553600D03*
X143764000Y-52933600D03*
%TO.N,Net-(U2-O2)*%
X142840000Y-43738800D03*
X144018000Y-49326800D03*
%TO.N,Net-(U5-SCL)*%
X106476800Y-69342000D03*
X121920000Y-55981600D03*
X136181100Y-54297400D03*
%TO.N,Net-(U5-SDA)*%
X118881600Y-63321600D03*
X106483800Y-76040900D03*
X135077200Y-56896000D03*
%TO.N,Net-(D1-A)*%
X116738400Y-76860400D03*
X121490700Y-62452700D03*
%TO.N,Net-(D2-A)*%
X111505100Y-73066200D03*
X116697200Y-60633200D03*
%TO.N,/K4DRV*%
X130911600Y-38557200D03*
X123041100Y-72120600D03*
X117692800Y-60051700D03*
X125831600Y-40182800D03*
X137617200Y-37236400D03*
%TO.N,/K5DRV*%
X129692400Y-72644000D03*
X138734800Y-41706800D03*
X118922800Y-56438800D03*
X116840000Y-56642000D03*
X129133600Y-58775600D03*
%TO.N,/DEFAULTS*%
X89987000Y-53605600D03*
X129438400Y-47040800D03*
X122377200Y-47701200D03*
%TO.N,/DISP_SCL*%
X97902100Y-73480400D03*
%TO.N,/DISP_SDA*%
X105890649Y-72892237D03*
%TO.N,Net-(D3-A)*%
X119876100Y-60496500D03*
X117651600Y-68302400D03*
%TO.N,/ERR_LED_EXT*%
X82138500Y-74055000D03*
%TO.N,/K6NC*%
X170129200Y-48006000D03*
%TO.N,/K5C*%
X165354000Y-42824400D03*
%TO.N,/K1_LED_EXT*%
X106324400Y-68224400D03*
%TO.N,/K2_LED_EXT*%
X106426000Y-70561200D03*
%TO.N,/K2CTR*%
X111855500Y-70558700D03*
%TO.N,/K1CTR*%
X115308000Y-70156000D03*
X105231700Y-70643200D03*
%TO.N,Net-(D4-A)*%
X111556800Y-63550800D03*
X111760000Y-60147200D03*
%TO.N,/K6DRV*%
X121249200Y-73975500D03*
X122732800Y-51917600D03*
%TO.N,/K3_LED_EXT*%
X100380800Y-65532000D03*
%TO.N,/K3CTR*%
X111599900Y-71921300D03*
%TO.N,Net-(D5-A)*%
X115773200Y-56896000D03*
X121186600Y-54802800D03*
%TO.N,/K1DRV*%
X117751865Y-70815000D03*
X115722400Y-76606400D03*
X142138400Y-44399200D03*
X140411200Y-68122800D03*
%TO.N,/K4CTR*%
X115519200Y-74472800D03*
%TO.N,/K2DRV*%
X137515600Y-70104000D03*
X138836400Y-39116000D03*
%TO.N,/K5_LED_EXT*%
X106984800Y-57353200D03*
%TO.N,/{slash}KOE*%
X116036200Y-68856300D03*
X116139700Y-65405500D03*
X111743700Y-69756700D03*
%TO.N,/K6_LED_EXT*%
X89616185Y-58272585D03*
%TO.N,/K4NO*%
X168097200Y-46532800D03*
%TO.N,/K4C*%
X154127200Y-42672000D03*
%TO.N,/K5NC*%
X169316400Y-41097200D03*
%TO.N,/K5NO*%
X170383200Y-46532800D03*
%TD*%
D19*
%TO.N,GND*%
X131064700Y-49872300D02*
X131064700Y-48100500D01*
X110673000Y-38989000D02*
X107173000Y-38989000D01*
X86173000Y-54136600D02*
X86173000Y-38989000D01*
X131445000Y-51404500D02*
X131445000Y-50252600D01*
X137312400Y-41554400D02*
X138633200Y-42875200D01*
X131445000Y-50252600D02*
X131064700Y-49872300D01*
X85725000Y-56515000D02*
X85725000Y-54584600D01*
X128320800Y-74218800D02*
X128320800Y-56642000D01*
X130505200Y-37084000D02*
X130255100Y-37334100D01*
X130255100Y-47290900D02*
X131064700Y-48100500D01*
X131445000Y-53517800D02*
X131445000Y-51404500D01*
X138633200Y-42875200D02*
X138633200Y-44602400D01*
X85725000Y-54584600D02*
X86173000Y-54136600D01*
X128320800Y-56642000D02*
X131445000Y-53517800D01*
X130255100Y-37334100D02*
X130255100Y-47290900D01*
%TO.N,+3V3*%
X133985000Y-44791000D02*
X130881200Y-41687200D01*
X133985000Y-51404500D02*
X133985000Y-44791000D01*
X148691600Y-36474400D02*
X151730000Y-36474400D01*
X144170400Y-36880800D02*
X148285200Y-36880800D01*
X80866700Y-69436700D02*
X80866700Y-40795300D01*
X148285200Y-36880800D02*
X148691600Y-36474400D01*
X80873600Y-69443600D02*
X80866700Y-69436700D01*
X151730000Y-36474400D02*
X151942800Y-36687200D01*
X80866700Y-40795300D02*
X82673000Y-38989000D01*
X143916400Y-36626800D02*
X144170400Y-36880800D01*
%TO.N,Net-(U2-O5)*%
X165811200Y-36780000D02*
X165226200Y-37365000D01*
X147227800Y-37365000D02*
X146913600Y-37679200D01*
X165226200Y-37365000D02*
X147227800Y-37365000D01*
X146913600Y-37679200D02*
X146913600Y-41046400D01*
%TO.N,Net-(U2-O6)*%
X143865600Y-42468800D02*
X143002000Y-41605200D01*
X143002000Y-37896800D02*
X142290800Y-37185600D01*
X142290800Y-37185600D02*
X142290800Y-36309000D01*
X142290800Y-36309000D02*
X143103600Y-35496200D01*
X143002000Y-41605200D02*
X143002000Y-37896800D01*
%TO.N,/K5CTR*%
X111103000Y-76809000D02*
X106056100Y-76809000D01*
X113794800Y-74117200D02*
X111103000Y-76809000D01*
X114655600Y-74117200D02*
X113794800Y-74117200D01*
X115316000Y-73456800D02*
X114655600Y-74117200D01*
%TO.N,/K3DRV*%
X138582400Y-64640900D02*
X142138400Y-61084900D01*
X122174000Y-68072000D02*
X122123200Y-68021200D01*
X141538400Y-45732286D02*
X141538400Y-39262900D01*
X138582400Y-67157600D02*
X138582400Y-64640900D01*
X115026900Y-67689800D02*
X113157800Y-67689800D01*
X142138400Y-61084900D02*
X142138400Y-46332286D01*
X141538400Y-39262900D02*
X142193300Y-38608000D01*
X120751600Y-68580000D02*
X119583200Y-67411600D01*
X122174000Y-71729600D02*
X122174000Y-68072000D01*
X115480700Y-67236000D02*
X115026900Y-67689800D01*
X142138400Y-46332286D02*
X141538400Y-45732286D01*
X113157800Y-67689800D02*
X113099200Y-67631200D01*
%TO.N,Net-(U2-O4)*%
X150063200Y-71018400D02*
X149482700Y-71018400D01*
X146761200Y-47142400D02*
X146761200Y-42995200D01*
X143934000Y-40124100D02*
X143890100Y-40124100D01*
X146761200Y-42995200D02*
X143890100Y-40124100D01*
X146567600Y-68103300D02*
X146567600Y-53990800D01*
X148183600Y-52374800D02*
X148183600Y-48564800D01*
X148183600Y-48564800D02*
X146761200Y-47142400D01*
X149482700Y-71018400D02*
X146567600Y-68103300D01*
X143890100Y-40124100D02*
X143934000Y-40124100D01*
X146567600Y-53990800D02*
X148183600Y-52374800D01*
%TO.N,Net-(U2-O3)*%
X144618000Y-45100800D02*
X143814800Y-44297600D01*
X148132800Y-59334400D02*
X148132800Y-54813200D01*
X148132800Y-54813200D02*
X147777200Y-54457600D01*
X143764000Y-51003200D02*
X144618000Y-50149200D01*
X143764000Y-52933600D02*
X143764000Y-51003200D01*
X150215600Y-60553600D02*
X149352000Y-60553600D01*
X144618000Y-50149200D02*
X144618000Y-45100800D01*
X149352000Y-60553600D02*
X148132800Y-59334400D01*
%TO.N,Net-(U2-O2)*%
X143459200Y-48768000D02*
X143459200Y-45212000D01*
X144018000Y-49326800D02*
X143459200Y-48768000D01*
X142849600Y-44602400D02*
X142849600Y-43748400D01*
X142849600Y-43748400D02*
X142840000Y-43738800D01*
X143459200Y-45212000D02*
X142849600Y-44602400D01*
%TO.N,Net-(U5-SCL)*%
X136525000Y-53953500D02*
X136525000Y-51404500D01*
X136181100Y-54297400D02*
X136090900Y-54387600D01*
X136090900Y-54387600D02*
X136181100Y-54297400D01*
X136181100Y-54297400D02*
X136525000Y-53953500D01*
X117655300Y-58824000D02*
X107137300Y-69342000D01*
X107137300Y-69342000D02*
X106476800Y-69342000D01*
X118236000Y-58824000D02*
X117655300Y-58824000D01*
X121078400Y-55981600D02*
X118236000Y-58824000D01*
X121920000Y-55981600D02*
X121078400Y-55981600D01*
%TO.N,Net-(U5-SDA)*%
X139065000Y-52908200D02*
X139065000Y-51404500D01*
X118881600Y-68133000D02*
X110973700Y-76040900D01*
X135077200Y-56896000D02*
X139065000Y-52908200D01*
X118881600Y-63321600D02*
X118881600Y-68133000D01*
X110973700Y-76040900D02*
X106483800Y-76040900D01*
%TO.N,Net-(D1-A)*%
X117957600Y-75641200D02*
X117957600Y-74860300D01*
X121490700Y-71327200D02*
X121490700Y-62452700D01*
X121490700Y-62452700D02*
X121268000Y-62230000D01*
X117957600Y-74860300D02*
X121490700Y-71327200D01*
X121268000Y-62230000D02*
X121490700Y-62452700D01*
X116738400Y-76860400D02*
X117957600Y-75641200D01*
%TO.N,Net-(D2-A)*%
X113334300Y-73066200D02*
X111505100Y-73066200D01*
X117230900Y-67872000D02*
X117049700Y-68053200D01*
X117049700Y-68053200D02*
X117049700Y-69350800D01*
X117049700Y-69350800D02*
X113334300Y-73066200D01*
X117230900Y-61166900D02*
X117230900Y-67872000D01*
X116697200Y-60633200D02*
X117230900Y-61166900D01*
%TO.N,/K4DRV*%
X131419600Y-38557200D02*
X131826000Y-38150800D01*
X117849900Y-59894600D02*
X117692800Y-60051700D01*
X121259600Y-52273200D02*
X122901900Y-53915500D01*
X122901900Y-53915500D02*
X122901900Y-59894600D01*
X131826000Y-38150800D02*
X136702800Y-38150800D01*
X122901900Y-59894600D02*
X117849900Y-59894600D01*
X123041100Y-72120600D02*
X123041100Y-60033800D01*
X121259600Y-46329600D02*
X121259600Y-52273200D01*
X130911600Y-38557200D02*
X131419600Y-38557200D01*
X123041100Y-60033800D02*
X122901900Y-59894600D01*
X125831600Y-41757600D02*
X121259600Y-46329600D01*
X136702800Y-38150800D02*
X137617200Y-37236400D01*
X125831600Y-40182800D02*
X125831600Y-41757600D01*
%TO.N,/K5DRV*%
X139649200Y-49834800D02*
X139649200Y-42875200D01*
X118922800Y-56438800D02*
X118719600Y-56642000D01*
X135918800Y-58674000D02*
X140215000Y-54377800D01*
X130708400Y-71628000D02*
X130708400Y-60248800D01*
X139649200Y-42875200D02*
X138734800Y-41960800D01*
X129692400Y-72644000D02*
X130708400Y-71628000D01*
X118719600Y-56642000D02*
X116840000Y-56642000D01*
X140215000Y-54377800D02*
X140215000Y-50400600D01*
X140215000Y-50400600D02*
X139649200Y-49834800D01*
X129133600Y-58775600D02*
X129235200Y-58674000D01*
X130708400Y-60248800D02*
X132283200Y-58674000D01*
X138734800Y-41960800D02*
X138734800Y-41706800D01*
X132283200Y-58674000D02*
X135940800Y-58674000D01*
X129235200Y-58674000D02*
X135918800Y-58674000D01*
%TO.N,/DEFAULTS*%
X88265000Y-63525400D02*
X92100400Y-59690000D01*
X88265000Y-71755000D02*
X88265000Y-63525400D01*
X129438400Y-47040800D02*
X123037600Y-47040800D01*
X92100400Y-59690000D02*
X92100400Y-55016400D01*
X92100400Y-55016400D02*
X90689600Y-53605600D01*
X90689600Y-53605600D02*
X89987000Y-53605600D01*
X123037600Y-47040800D02*
X122377200Y-47701200D01*
%TO.N,/DISP_SCL*%
X99212400Y-48361600D02*
X97434400Y-48361600D01*
X96673000Y-52712600D02*
X94538800Y-54846800D01*
X94538800Y-54846800D02*
X94538800Y-65074800D01*
X94538800Y-65074800D02*
X97129600Y-67665600D01*
X100965000Y-56515000D02*
X100965000Y-54533800D01*
X96673000Y-49123000D02*
X96673000Y-52712600D01*
X97129600Y-72707900D02*
X97902100Y-73480400D01*
X97434400Y-48361600D02*
X96673000Y-49123000D01*
X100126800Y-49276000D02*
X99212400Y-48361600D01*
X100126800Y-53695600D02*
X100126800Y-49276000D01*
X97129600Y-67665600D02*
X97129600Y-72707900D01*
X100965000Y-54533800D02*
X100126800Y-53695600D01*
%TO.N,/DISP_SDA*%
X105562400Y-72186800D02*
X104868500Y-72186800D01*
X105890649Y-72515049D02*
X105562400Y-72186800D01*
X105890649Y-72892237D02*
X105890649Y-72515049D01*
X98425000Y-65743300D02*
X98425000Y-56515000D01*
X104868500Y-72186800D02*
X98425000Y-65743300D01*
%TO.N,Net-(D3-A)*%
X117651600Y-62721000D02*
X117651600Y-68302400D01*
X119876100Y-60496500D02*
X117651600Y-62721000D01*
%TO.N,/ERR_LED_EXT*%
X82063300Y-52778700D02*
X82063300Y-73979800D01*
X84423000Y-50419000D02*
X82063300Y-52778700D01*
X82063300Y-73979800D02*
X82138500Y-74055000D01*
%TO.N,/K6NC*%
X176987200Y-55880000D02*
X177901600Y-56794400D01*
X162560000Y-61163200D02*
X161544000Y-60147200D01*
X170129200Y-48006000D02*
X170129200Y-52273200D01*
X161544000Y-60147200D02*
X161544000Y-56540400D01*
X177901600Y-56794400D02*
X177901600Y-62026800D01*
X177901600Y-62026800D02*
X177038000Y-62890400D01*
X177038000Y-62890400D02*
X171856400Y-62890400D01*
X162204400Y-55880000D02*
X163830000Y-55880000D01*
X170129200Y-61163200D02*
X162560000Y-61163200D01*
X170129200Y-52273200D02*
X173736000Y-55880000D01*
X171856400Y-62890400D02*
X170129200Y-61163200D01*
X161544000Y-56540400D02*
X162204400Y-55880000D01*
X173736000Y-55880000D02*
X176987200Y-55880000D01*
%TO.N,/K5C*%
X167361200Y-48336800D02*
X167361200Y-55848800D01*
X167361200Y-55848800D02*
X163830000Y-59380000D01*
X165354000Y-46329600D02*
X167361200Y-48336800D01*
X165354000Y-42824400D02*
X165354000Y-46329600D01*
%TO.N,/K1_LED_EXT*%
X106324400Y-68224400D02*
X106324400Y-64465200D01*
X105423000Y-50609800D02*
X105423000Y-50419000D01*
X110439200Y-55626000D02*
X105423000Y-50609800D01*
X106324400Y-64465200D02*
X110439200Y-60350400D01*
X110439200Y-60350400D02*
X110439200Y-55626000D01*
%TO.N,/K2_LED_EXT*%
X106426000Y-70561200D02*
X106000900Y-70561200D01*
X105432700Y-57994900D02*
X101923000Y-54485200D01*
X105432700Y-69993100D02*
X105432700Y-57994900D01*
X101923000Y-54485200D02*
X101923000Y-50419000D01*
X106000900Y-70561200D02*
X105432800Y-69993100D01*
X105432800Y-69993100D02*
X105432700Y-69993100D01*
%TO.N,/K2CTR*%
X93345000Y-73025000D02*
X94402300Y-74082300D01*
X94402300Y-74082300D02*
X108331900Y-74082300D01*
X108331900Y-74082300D02*
X111855500Y-70558700D01*
X93345000Y-71755000D02*
X93345000Y-73025000D01*
%TO.N,/K1CTR*%
X116647800Y-69131500D02*
X115623300Y-70156000D01*
X113565750Y-64160400D02*
X115809700Y-64160400D01*
X105714800Y-71526400D02*
X106680000Y-71526400D01*
X107779000Y-69947150D02*
X113565750Y-64160400D01*
X116780700Y-67753900D02*
X116647800Y-67886800D01*
X115623300Y-70156000D02*
X115308000Y-70156000D01*
X106680000Y-71526400D02*
X107779000Y-70427400D01*
X105231700Y-71043300D02*
X105714800Y-71526400D01*
X105231700Y-70643200D02*
X105231700Y-71043300D01*
X107779000Y-70427400D02*
X107779000Y-69947150D01*
X115809700Y-64160400D02*
X116780700Y-65131400D01*
X116780700Y-65131400D02*
X116780700Y-67753900D01*
X116647800Y-67886800D02*
X116647800Y-69131500D01*
%TO.N,Net-(D4-A)*%
X111556800Y-60350400D02*
X111760000Y-60147200D01*
X111556800Y-63550800D02*
X111556800Y-60350400D01*
%TO.N,/K6DRV*%
X122732800Y-51917600D02*
X122732800Y-52578000D01*
X122732800Y-52578000D02*
X123655300Y-53500500D01*
X122129200Y-73975500D02*
X121249200Y-73975500D01*
X123655300Y-53500500D02*
X123655300Y-72449400D01*
X123655300Y-72449400D02*
X122129200Y-73975500D01*
%TO.N,/K3_LED_EXT*%
X98348800Y-50493200D02*
X98348800Y-53594000D01*
X100380800Y-65532000D02*
X99720400Y-64871600D01*
X98348800Y-53594000D02*
X99720400Y-54965600D01*
X98423000Y-50419000D02*
X98348800Y-50493200D01*
X99720400Y-54965600D02*
X99720400Y-64820800D01*
X99720400Y-64871600D02*
X99720400Y-64820800D01*
%TO.N,/K3CTR*%
X109037000Y-74484200D02*
X93534200Y-74484200D01*
X92172900Y-62919500D02*
X93345000Y-61747400D01*
X93345000Y-61747400D02*
X93345000Y-56515000D01*
X111599900Y-71921300D02*
X109037000Y-74484200D01*
X92172900Y-73122900D02*
X92172900Y-62919500D01*
X93534200Y-74484200D02*
X92172900Y-73122900D01*
%TO.N,Net-(D5-A)*%
X115773200Y-56671300D02*
X117641700Y-54802800D01*
X117641700Y-54802800D02*
X121186600Y-54802800D01*
X115773200Y-56896000D02*
X115773200Y-56671300D01*
%TO.N,/K1DRV*%
X115722400Y-76606400D02*
X115722400Y-76529814D01*
X142849600Y-65866000D02*
X142849600Y-45466000D01*
X117751865Y-74500349D02*
X117751865Y-70815000D01*
X140592800Y-68122800D02*
X142849600Y-65866000D01*
X140411200Y-68122800D02*
X140592800Y-68122800D01*
X142138400Y-44754800D02*
X142138400Y-44399200D01*
X115722400Y-76529814D02*
X117751865Y-74500349D01*
X142849600Y-45466000D02*
X142138400Y-44754800D01*
%TO.N,/K4CTR*%
X86969600Y-72745600D02*
X86969600Y-62433200D01*
X115128100Y-74472800D02*
X112190000Y-77410900D01*
X86969600Y-62433200D02*
X90805000Y-58597800D01*
X115519200Y-74472800D02*
X115128100Y-74472800D01*
X90805000Y-58597800D02*
X90805000Y-56515000D01*
X91634900Y-77410900D02*
X86969600Y-72745600D01*
X112190000Y-77410900D02*
X91634900Y-77410900D01*
%TO.N,/K2DRV*%
X141224000Y-58724800D02*
X141224000Y-47091600D01*
X137530900Y-70088700D02*
X137530900Y-62417900D01*
X137515600Y-70104000D02*
X137530900Y-70088700D01*
X137530900Y-62417900D02*
X141224000Y-58724800D01*
X140258800Y-40538400D02*
X138836400Y-39116000D01*
X141224000Y-47091600D02*
X140258800Y-46126400D01*
X140258800Y-46126400D02*
X140258800Y-40538400D01*
%TO.N,/K5_LED_EXT*%
X103634100Y-53285600D02*
X103634100Y-48871700D01*
X102057200Y-47294800D02*
X92913200Y-47294800D01*
X106984800Y-56636300D02*
X103634100Y-53285600D01*
X103634100Y-48871700D02*
X102057200Y-47294800D01*
X92913200Y-47294800D02*
X91423000Y-48785000D01*
X106984800Y-57353200D02*
X106984800Y-56636300D01*
X91423000Y-48785000D02*
X91423000Y-50419000D01*
%TO.N,/{slash}KOE*%
X111743700Y-69756700D02*
X112644100Y-68856300D01*
X95885000Y-59766200D02*
X95885000Y-56515000D01*
X108325400Y-73175000D02*
X106629300Y-73175000D01*
X116036200Y-68856300D02*
X116139700Y-68752800D01*
X106266800Y-73537600D02*
X104678000Y-73537600D01*
X106629300Y-73175000D02*
X106629300Y-73175100D01*
X96824800Y-60706000D02*
X95885000Y-59766200D01*
X104678000Y-73537600D02*
X96824800Y-65684400D01*
X96824800Y-65684400D02*
X96824800Y-60706000D01*
X116139700Y-68752800D02*
X116139700Y-65405500D01*
X106629300Y-73175100D02*
X106266800Y-73537600D01*
X111743700Y-69756700D02*
X108325400Y-73175000D01*
X112644100Y-68856300D02*
X116036200Y-68856300D01*
%TO.N,/K6_LED_EXT*%
X89593300Y-55252500D02*
X87923000Y-53582200D01*
X89616185Y-58272585D02*
X89593300Y-58249700D01*
X89593300Y-58249700D02*
X89593300Y-55252500D01*
X87923000Y-53582200D02*
X87923000Y-50419000D01*
%TO.N,/K4NO*%
X168314000Y-56706400D02*
X172737600Y-61130000D01*
X172737600Y-61130000D02*
X175260000Y-61130000D01*
X168314000Y-46749600D02*
X168314000Y-56706400D01*
X168097200Y-46532800D02*
X168314000Y-46749600D01*
%TO.N,/K4C*%
X160629600Y-61061600D02*
X162448000Y-62880000D01*
X162448000Y-62880000D02*
X163830000Y-62880000D01*
X154127200Y-42672000D02*
X154803800Y-43348600D01*
X154803800Y-49597000D02*
X160629600Y-55422800D01*
X160629600Y-55422800D02*
X160629600Y-61061600D01*
X154803800Y-43348600D02*
X154803800Y-49597000D01*
%TO.N,/K5NC*%
X169316400Y-41097200D02*
X169390000Y-41170800D01*
X172742800Y-57630000D02*
X175260000Y-57630000D01*
X169390000Y-41170800D02*
X169390000Y-54277200D01*
X169390000Y-54277200D02*
X172742800Y-57630000D01*
%TO.N,/K5NO*%
X172847800Y-48997400D02*
X172847800Y-51717800D01*
X172847800Y-51717800D02*
X175260000Y-54130000D01*
X170383200Y-46532800D02*
X172847800Y-48997400D01*
%TD*%
%TA.AperFunction,Conductor*%
%TO.N,GND*%
G36*
X142666387Y-35020185D02*
G01*
X142712142Y-35072989D01*
X142722086Y-35142147D01*
X142693061Y-35205702D01*
X142678225Y-35222822D01*
X142678222Y-35222828D01*
X142618434Y-35353743D01*
X142597953Y-35496200D01*
X142597953Y-35496201D01*
X142599261Y-35505303D01*
X142589313Y-35574461D01*
X142564203Y-35610624D01*
X142125786Y-36049041D01*
X142112835Y-36060312D01*
X142106567Y-36065044D01*
X142075322Y-36099318D01*
X142071374Y-36103453D01*
X142058627Y-36116200D01*
X142055546Y-36119911D01*
X142048885Y-36128319D01*
X142030883Y-36148066D01*
X142030883Y-36148067D01*
X142028378Y-36154533D01*
X142015059Y-36179802D01*
X142011145Y-36185515D01*
X142011143Y-36185520D01*
X142005028Y-36211517D01*
X141999951Y-36227913D01*
X141990300Y-36252826D01*
X141990300Y-36259751D01*
X141987006Y-36288141D01*
X141985421Y-36294877D01*
X141985421Y-36294882D01*
X141989111Y-36321333D01*
X141990300Y-36338464D01*
X141990300Y-37118461D01*
X141989112Y-37135588D01*
X141988027Y-37143365D01*
X141990168Y-37189679D01*
X141990300Y-37195404D01*
X141990300Y-37213442D01*
X141990747Y-37218271D01*
X141991981Y-37228905D01*
X141993215Y-37255592D01*
X141993216Y-37255597D01*
X141996014Y-37261934D01*
X142004464Y-37289220D01*
X142005737Y-37296029D01*
X142005737Y-37296030D01*
X142005739Y-37296033D01*
X142019801Y-37318746D01*
X142027797Y-37333915D01*
X142038594Y-37358365D01*
X142038595Y-37358366D01*
X142038596Y-37358368D01*
X142043489Y-37363261D01*
X142061235Y-37385665D01*
X142064877Y-37391548D01*
X142064879Y-37391550D01*
X142064880Y-37391551D01*
X142064881Y-37391552D01*
X142078820Y-37402078D01*
X142086196Y-37407648D01*
X142099150Y-37418921D01*
X142665181Y-37984952D01*
X142698666Y-38046275D01*
X142701500Y-38072633D01*
X142701500Y-38112565D01*
X142681815Y-38179604D01*
X142629011Y-38225359D01*
X142559853Y-38235303D01*
X142510461Y-38216881D01*
X142469139Y-38190325D01*
X142403353Y-38148047D01*
X142403351Y-38148046D01*
X142403349Y-38148045D01*
X142403350Y-38148045D01*
X142265263Y-38107500D01*
X142265261Y-38107500D01*
X142121339Y-38107500D01*
X142121336Y-38107500D01*
X141983249Y-38148045D01*
X141862173Y-38225856D01*
X141767923Y-38334626D01*
X141767922Y-38334628D01*
X141708134Y-38465543D01*
X141687653Y-38608000D01*
X141687653Y-38608001D01*
X141688961Y-38617103D01*
X141679013Y-38686261D01*
X141653903Y-38722424D01*
X141373386Y-39002941D01*
X141360435Y-39014212D01*
X141354167Y-39018944D01*
X141322922Y-39053218D01*
X141318974Y-39057353D01*
X141306227Y-39070100D01*
X141303146Y-39073811D01*
X141296485Y-39082219D01*
X141278483Y-39101966D01*
X141278483Y-39101967D01*
X141275978Y-39108433D01*
X141262659Y-39133702D01*
X141258745Y-39139415D01*
X141258743Y-39139420D01*
X141252628Y-39165417D01*
X141247551Y-39181813D01*
X141237900Y-39206726D01*
X141237900Y-39213651D01*
X141234606Y-39242041D01*
X141233021Y-39248777D01*
X141233021Y-39248782D01*
X141236711Y-39275233D01*
X141237900Y-39292364D01*
X141237900Y-45665147D01*
X141236712Y-45682274D01*
X141235627Y-45690051D01*
X141237768Y-45736365D01*
X141237900Y-45742090D01*
X141237900Y-45760128D01*
X141238347Y-45764957D01*
X141239581Y-45775591D01*
X141240815Y-45802278D01*
X141240816Y-45802283D01*
X141243614Y-45808620D01*
X141252064Y-45835906D01*
X141253337Y-45842715D01*
X141253337Y-45842716D01*
X141253339Y-45842719D01*
X141267401Y-45865432D01*
X141275397Y-45880601D01*
X141286194Y-45905051D01*
X141286195Y-45905052D01*
X141286196Y-45905054D01*
X141291089Y-45909947D01*
X141308835Y-45932351D01*
X141312477Y-45938234D01*
X141312479Y-45938236D01*
X141312480Y-45938237D01*
X141312481Y-45938238D01*
X141333796Y-45954334D01*
X141346750Y-45965607D01*
X141801581Y-46420438D01*
X141835066Y-46481761D01*
X141837900Y-46508119D01*
X141837900Y-60909066D01*
X141818215Y-60976105D01*
X141801581Y-60996747D01*
X138417386Y-64380941D01*
X138404435Y-64392212D01*
X138398167Y-64396944D01*
X138366922Y-64431218D01*
X138362974Y-64435353D01*
X138350227Y-64448100D01*
X138347146Y-64451811D01*
X138340485Y-64460219D01*
X138322483Y-64479966D01*
X138322483Y-64479967D01*
X138319978Y-64486433D01*
X138306659Y-64511702D01*
X138302745Y-64517415D01*
X138302743Y-64517420D01*
X138296628Y-64543417D01*
X138291551Y-64559813D01*
X138281900Y-64584726D01*
X138281900Y-64591651D01*
X138278606Y-64620041D01*
X138277021Y-64626777D01*
X138277021Y-64626782D01*
X138280711Y-64653233D01*
X138281900Y-64670364D01*
X138281900Y-66693860D01*
X138262215Y-66760899D01*
X138251613Y-66775062D01*
X138157025Y-66884222D01*
X138157022Y-66884228D01*
X138097234Y-67015143D01*
X138078138Y-67147967D01*
X138075299Y-67154183D01*
X138078138Y-67167232D01*
X138097234Y-67300056D01*
X138149232Y-67413913D01*
X138157023Y-67430973D01*
X138251272Y-67539743D01*
X138372347Y-67617553D01*
X138372350Y-67617554D01*
X138372349Y-67617554D01*
X138510436Y-67658099D01*
X138510438Y-67658100D01*
X138510439Y-67658100D01*
X138654362Y-67658100D01*
X138654362Y-67658099D01*
X138792453Y-67617553D01*
X138913528Y-67539743D01*
X139007777Y-67430973D01*
X139067565Y-67300057D01*
X139088047Y-67157600D01*
X139067565Y-67015143D01*
X139007777Y-66884227D01*
X139007775Y-66884225D01*
X139007774Y-66884222D01*
X138913187Y-66775062D01*
X138884162Y-66711506D01*
X138882900Y-66693860D01*
X138882900Y-64816732D01*
X138902585Y-64749693D01*
X138919214Y-64729056D01*
X142303411Y-61344858D01*
X142316363Y-61333588D01*
X142322623Y-61328860D01*
X142322628Y-61328858D01*
X142333462Y-61316973D01*
X142393171Y-61280691D01*
X142463019Y-61282450D01*
X142520827Y-61321692D01*
X142548243Y-61385958D01*
X142549100Y-61400510D01*
X142549100Y-65690166D01*
X142529415Y-65757205D01*
X142512781Y-65777847D01*
X140678323Y-67612304D01*
X140617000Y-67645789D01*
X140555709Y-67643601D01*
X140483161Y-67622300D01*
X140339239Y-67622300D01*
X140339236Y-67622300D01*
X140201149Y-67662845D01*
X140080073Y-67740656D01*
X139985823Y-67849426D01*
X139985822Y-67849428D01*
X139926034Y-67980343D01*
X139905553Y-68122800D01*
X139926034Y-68265256D01*
X139979208Y-68381688D01*
X139985823Y-68396173D01*
X140080072Y-68504943D01*
X140201147Y-68582753D01*
X140201150Y-68582754D01*
X140201149Y-68582754D01*
X140339236Y-68623299D01*
X140339238Y-68623300D01*
X140339239Y-68623300D01*
X140483162Y-68623300D01*
X140483162Y-68623299D01*
X140590321Y-68591835D01*
X140621250Y-68582754D01*
X140621250Y-68582753D01*
X140621253Y-68582753D01*
X140742328Y-68504943D01*
X140836577Y-68396173D01*
X140891429Y-68276065D01*
X140900050Y-68257189D01*
X140901050Y-68257645D01*
X140927494Y-68213075D01*
X143014611Y-66125958D01*
X143027563Y-66114688D01*
X143033823Y-66109960D01*
X143033828Y-66109958D01*
X143065088Y-66075666D01*
X143069002Y-66071567D01*
X143081774Y-66058797D01*
X143081775Y-66058796D01*
X143084882Y-66055054D01*
X143091516Y-66046676D01*
X143109516Y-66026933D01*
X143112016Y-66020478D01*
X143125349Y-65995182D01*
X143129256Y-65989481D01*
X143135370Y-65963481D01*
X143140446Y-65947089D01*
X143150100Y-65922173D01*
X143150100Y-65915248D01*
X143153395Y-65886855D01*
X143154978Y-65880123D01*
X143154979Y-65880119D01*
X143152145Y-65859806D01*
X143151289Y-65853665D01*
X143150100Y-65836535D01*
X143150100Y-53321862D01*
X143169785Y-53254823D01*
X143222589Y-53209068D01*
X143291747Y-53199124D01*
X143355303Y-53228149D01*
X143367810Y-53240657D01*
X143432872Y-53315743D01*
X143553947Y-53393553D01*
X143553950Y-53393554D01*
X143553949Y-53393554D01*
X143692036Y-53434099D01*
X143692038Y-53434100D01*
X143692039Y-53434100D01*
X143835962Y-53434100D01*
X143835962Y-53434099D01*
X143965617Y-53396030D01*
X143974050Y-53393554D01*
X143974050Y-53393553D01*
X143974053Y-53393553D01*
X144095128Y-53315743D01*
X144189377Y-53206973D01*
X144249165Y-53076057D01*
X144269647Y-52933600D01*
X144249165Y-52791143D01*
X144189377Y-52660227D01*
X144189375Y-52660225D01*
X144189374Y-52660222D01*
X144094787Y-52551062D01*
X144065762Y-52487506D01*
X144064500Y-52469860D01*
X144064500Y-51179032D01*
X144084185Y-51111993D01*
X144100815Y-51091355D01*
X144783011Y-50409158D01*
X144795963Y-50397888D01*
X144802223Y-50393160D01*
X144802228Y-50393158D01*
X144833488Y-50358866D01*
X144837402Y-50354767D01*
X144850174Y-50341997D01*
X144850175Y-50341996D01*
X144853282Y-50338254D01*
X144859916Y-50329876D01*
X144877916Y-50310133D01*
X144880416Y-50303678D01*
X144893749Y-50278382D01*
X144897656Y-50272681D01*
X144903770Y-50246681D01*
X144908846Y-50230289D01*
X144918500Y-50205373D01*
X144918500Y-50198448D01*
X144921795Y-50170055D01*
X144923378Y-50163323D01*
X144923379Y-50163319D01*
X144919689Y-50136865D01*
X144918500Y-50119735D01*
X144918500Y-45167936D01*
X144919689Y-45150805D01*
X144920771Y-45143039D01*
X144920773Y-45143035D01*
X144918632Y-45096720D01*
X144918500Y-45090995D01*
X144918500Y-45072959D01*
X144918046Y-45068066D01*
X144916817Y-45057480D01*
X144915974Y-45039233D01*
X144915585Y-45030808D01*
X144912786Y-45024470D01*
X144904333Y-44997173D01*
X144903061Y-44990367D01*
X144889002Y-44967662D01*
X144880998Y-44952476D01*
X144875699Y-44940475D01*
X144870206Y-44928034D01*
X144865309Y-44923137D01*
X144847561Y-44900731D01*
X144843919Y-44894848D01*
X144822609Y-44878756D01*
X144809652Y-44867481D01*
X144354195Y-44412024D01*
X144320710Y-44350701D01*
X144319139Y-44306694D01*
X144320447Y-44297600D01*
X144299965Y-44155143D01*
X144240177Y-44024227D01*
X144145928Y-43915457D01*
X144024853Y-43837647D01*
X144024851Y-43837646D01*
X144024849Y-43837645D01*
X144024850Y-43837645D01*
X143886763Y-43797100D01*
X143886761Y-43797100D01*
X143742839Y-43797100D01*
X143742836Y-43797100D01*
X143604749Y-43837645D01*
X143532028Y-43884380D01*
X143464988Y-43904064D01*
X143397949Y-43884379D01*
X143352194Y-43831575D01*
X143342251Y-43762417D01*
X143345647Y-43738800D01*
X143325165Y-43596343D01*
X143265377Y-43465427D01*
X143171128Y-43356657D01*
X143050053Y-43278847D01*
X143050051Y-43278846D01*
X143050049Y-43278845D01*
X143050050Y-43278845D01*
X142911963Y-43238300D01*
X142911961Y-43238300D01*
X142768039Y-43238300D01*
X142768036Y-43238300D01*
X142629949Y-43278845D01*
X142508873Y-43356656D01*
X142414623Y-43465426D01*
X142414622Y-43465428D01*
X142354834Y-43596343D01*
X142334353Y-43738800D01*
X142334353Y-43738802D01*
X142336977Y-43757055D01*
X142327032Y-43826213D01*
X142281277Y-43879017D01*
X142214239Y-43898700D01*
X142066435Y-43898700D01*
X141997834Y-43918843D01*
X141927964Y-43918843D01*
X141869186Y-43881068D01*
X141840162Y-43817512D01*
X141838900Y-43799866D01*
X141838900Y-39438732D01*
X141858585Y-39371693D01*
X141875215Y-39351055D01*
X142081451Y-39144818D01*
X142142774Y-39111334D01*
X142169132Y-39108500D01*
X142265262Y-39108500D01*
X142265262Y-39108499D01*
X142372421Y-39077035D01*
X142403350Y-39067954D01*
X142403351Y-39067954D01*
X142403353Y-39067953D01*
X142510461Y-38999118D01*
X142577500Y-38979434D01*
X142644539Y-38999118D01*
X142690294Y-39051922D01*
X142701500Y-39103434D01*
X142701500Y-41538061D01*
X142700312Y-41555188D01*
X142699227Y-41562965D01*
X142701368Y-41609279D01*
X142701500Y-41615004D01*
X142701500Y-41633042D01*
X142701947Y-41637871D01*
X142703181Y-41648505D01*
X142704415Y-41675192D01*
X142704416Y-41675197D01*
X142707214Y-41681534D01*
X142715664Y-41708820D01*
X142716937Y-41715629D01*
X142716937Y-41715630D01*
X142716939Y-41715633D01*
X142731001Y-41738346D01*
X142738997Y-41753515D01*
X142749794Y-41777965D01*
X142749795Y-41777966D01*
X142749796Y-41777968D01*
X142754689Y-41782861D01*
X142772435Y-41805265D01*
X142776077Y-41811148D01*
X142776079Y-41811150D01*
X142776080Y-41811151D01*
X142776081Y-41811152D01*
X142779552Y-41813773D01*
X142797396Y-41827248D01*
X142810350Y-41838521D01*
X143326204Y-42354375D01*
X143359689Y-42415698D01*
X143361261Y-42459702D01*
X143359953Y-42468799D01*
X143380434Y-42611256D01*
X143415193Y-42687366D01*
X143440223Y-42742173D01*
X143534472Y-42850943D01*
X143655547Y-42928753D01*
X143655550Y-42928754D01*
X143655549Y-42928754D01*
X143712150Y-42945373D01*
X143787018Y-42967356D01*
X143793636Y-42969299D01*
X143793638Y-42969300D01*
X143793639Y-42969300D01*
X143937562Y-42969300D01*
X143937562Y-42969299D01*
X144075653Y-42928753D01*
X144196728Y-42850943D01*
X144290977Y-42742173D01*
X144350765Y-42611257D01*
X144371247Y-42468800D01*
X144350765Y-42326343D01*
X144290977Y-42195427D01*
X144196728Y-42086657D01*
X144075653Y-42008847D01*
X144075651Y-42008846D01*
X144075649Y-42008845D01*
X144075650Y-42008845D01*
X143937563Y-41968300D01*
X143937561Y-41968300D01*
X143841433Y-41968300D01*
X143774394Y-41948615D01*
X143753752Y-41931981D01*
X143338819Y-41517048D01*
X143305334Y-41455725D01*
X143302500Y-41429367D01*
X143302500Y-40542714D01*
X143322185Y-40475675D01*
X143374989Y-40429920D01*
X143444147Y-40419976D01*
X143507703Y-40449001D01*
X143520204Y-40461502D01*
X143558472Y-40505666D01*
X143558973Y-40506244D01*
X143592634Y-40527876D01*
X143680047Y-40584053D01*
X143680050Y-40584054D01*
X143680049Y-40584054D01*
X143753212Y-40605536D01*
X143815380Y-40623790D01*
X143818136Y-40624599D01*
X143818138Y-40624600D01*
X143914267Y-40624600D01*
X143981306Y-40644285D01*
X144001948Y-40660919D01*
X146424381Y-43083352D01*
X146457866Y-43144675D01*
X146460700Y-43171033D01*
X146460700Y-47075261D01*
X146459512Y-47092388D01*
X146458427Y-47100165D01*
X146460568Y-47146479D01*
X146460700Y-47152204D01*
X146460700Y-47170242D01*
X146461147Y-47175071D01*
X146462381Y-47185705D01*
X146463615Y-47212392D01*
X146463616Y-47212397D01*
X146466414Y-47218734D01*
X146474864Y-47246020D01*
X146476137Y-47252829D01*
X146476137Y-47252830D01*
X146476139Y-47252833D01*
X146490201Y-47275546D01*
X146498197Y-47290715D01*
X146508994Y-47315165D01*
X146508995Y-47315166D01*
X146508996Y-47315168D01*
X146513889Y-47320061D01*
X146531635Y-47342465D01*
X146535277Y-47348348D01*
X146535279Y-47348350D01*
X146535280Y-47348351D01*
X146535281Y-47348352D01*
X146542236Y-47353604D01*
X146556596Y-47364448D01*
X146569550Y-47375721D01*
X147846781Y-48652952D01*
X147880266Y-48714275D01*
X147883100Y-48740633D01*
X147883100Y-52198966D01*
X147863415Y-52266005D01*
X147846781Y-52286647D01*
X146402586Y-53730841D01*
X146389635Y-53742112D01*
X146383367Y-53746844D01*
X146352122Y-53781118D01*
X146348174Y-53785253D01*
X146335427Y-53798000D01*
X146332346Y-53801711D01*
X146325685Y-53810119D01*
X146307683Y-53829866D01*
X146307683Y-53829867D01*
X146305178Y-53836333D01*
X146291859Y-53861602D01*
X146287945Y-53867315D01*
X146287943Y-53867320D01*
X146281828Y-53893317D01*
X146276751Y-53909713D01*
X146267100Y-53934626D01*
X146267100Y-53941551D01*
X146263806Y-53969941D01*
X146262221Y-53976677D01*
X146262221Y-53976682D01*
X146265911Y-54003133D01*
X146267100Y-54020264D01*
X146267100Y-68036161D01*
X146265912Y-68053288D01*
X146264827Y-68061065D01*
X146266968Y-68107379D01*
X146267100Y-68113104D01*
X146267100Y-68131142D01*
X146267547Y-68135971D01*
X146268781Y-68146605D01*
X146270015Y-68173292D01*
X146270016Y-68173297D01*
X146272814Y-68179634D01*
X146281264Y-68206920D01*
X146282537Y-68213729D01*
X146282537Y-68213730D01*
X146282539Y-68213733D01*
X146296601Y-68236446D01*
X146304597Y-68251615D01*
X146315394Y-68276065D01*
X146315395Y-68276066D01*
X146315396Y-68276068D01*
X146320289Y-68280961D01*
X146338035Y-68303365D01*
X146341677Y-68309248D01*
X146341679Y-68309250D01*
X146341680Y-68309251D01*
X146341681Y-68309252D01*
X146362996Y-68325348D01*
X146375950Y-68336621D01*
X149222739Y-71183410D01*
X149234010Y-71196362D01*
X149238739Y-71202625D01*
X149238741Y-71202627D01*
X149238742Y-71202628D01*
X149256050Y-71218406D01*
X149273017Y-71233874D01*
X149277158Y-71237829D01*
X149289903Y-71250574D01*
X149293631Y-71253670D01*
X149302024Y-71260318D01*
X149302872Y-71261091D01*
X149321765Y-71278315D01*
X149321766Y-71278315D01*
X149321767Y-71278316D01*
X149328221Y-71280816D01*
X149353506Y-71294144D01*
X149359218Y-71298057D01*
X149366443Y-71299756D01*
X149385221Y-71304172D01*
X149401609Y-71309246D01*
X149426527Y-71318900D01*
X149433452Y-71318900D01*
X149461840Y-71322193D01*
X149468581Y-71323779D01*
X149495033Y-71320089D01*
X149512164Y-71318900D01*
X149604699Y-71318900D01*
X149671738Y-71338585D01*
X149698411Y-71361696D01*
X149732072Y-71400543D01*
X149853147Y-71478353D01*
X149853150Y-71478354D01*
X149853149Y-71478354D01*
X149991236Y-71518899D01*
X149991238Y-71518900D01*
X149991239Y-71518900D01*
X150135162Y-71518900D01*
X150135162Y-71518899D01*
X150273253Y-71478353D01*
X150394328Y-71400543D01*
X150488577Y-71291773D01*
X150548365Y-71160857D01*
X150568847Y-71018400D01*
X150548365Y-70875943D01*
X150488577Y-70745027D01*
X150394328Y-70636257D01*
X150273253Y-70558447D01*
X150273251Y-70558446D01*
X150273249Y-70558445D01*
X150273250Y-70558445D01*
X150135163Y-70517900D01*
X150135161Y-70517900D01*
X149991239Y-70517900D01*
X149991236Y-70517900D01*
X149853149Y-70558445D01*
X149732072Y-70636257D01*
X149732069Y-70636259D01*
X149723403Y-70646261D01*
X149664625Y-70684035D01*
X149594755Y-70684035D01*
X149542010Y-70652739D01*
X146904419Y-68015148D01*
X146870934Y-67953825D01*
X146868100Y-67927467D01*
X146868100Y-54457600D01*
X147271553Y-54457600D01*
X147292034Y-54600056D01*
X147346136Y-54718521D01*
X147351823Y-54730973D01*
X147446072Y-54839743D01*
X147567147Y-54917553D01*
X147567150Y-54917554D01*
X147567149Y-54917554D01*
X147635963Y-54937759D01*
X147696704Y-54955594D01*
X147705236Y-54958099D01*
X147705238Y-54958100D01*
X147705239Y-54958100D01*
X147708300Y-54958100D01*
X147711237Y-54958962D01*
X147714016Y-54959362D01*
X147713958Y-54959761D01*
X147775339Y-54977785D01*
X147821094Y-55030589D01*
X147832300Y-55082100D01*
X147832300Y-59267261D01*
X147831112Y-59284388D01*
X147830027Y-59292165D01*
X147832168Y-59338479D01*
X147832300Y-59344204D01*
X147832300Y-59362242D01*
X147832747Y-59367071D01*
X147833981Y-59377705D01*
X147835215Y-59404392D01*
X147835216Y-59404397D01*
X147838014Y-59410734D01*
X147846464Y-59438020D01*
X147847737Y-59444829D01*
X147847737Y-59444830D01*
X147847739Y-59444833D01*
X147861801Y-59467546D01*
X147869797Y-59482715D01*
X147880594Y-59507165D01*
X147880595Y-59507166D01*
X147880596Y-59507168D01*
X147885489Y-59512061D01*
X147903235Y-59534465D01*
X147906877Y-59540348D01*
X147906879Y-59540350D01*
X147906880Y-59540351D01*
X147906881Y-59540352D01*
X147928196Y-59556448D01*
X147941150Y-59567721D01*
X149092039Y-60718610D01*
X149103310Y-60731562D01*
X149108039Y-60737825D01*
X149108041Y-60737827D01*
X149108042Y-60737828D01*
X149118788Y-60747624D01*
X149142317Y-60769074D01*
X149146458Y-60773029D01*
X149159203Y-60785774D01*
X149162931Y-60788870D01*
X149171324Y-60795518D01*
X149180124Y-60803540D01*
X149191064Y-60813514D01*
X149191065Y-60813514D01*
X149191067Y-60813516D01*
X149197530Y-60816019D01*
X149222807Y-60829343D01*
X149228519Y-60833256D01*
X149254514Y-60839369D01*
X149270910Y-60844446D01*
X149295827Y-60854100D01*
X149302751Y-60854100D01*
X149331141Y-60857393D01*
X149337881Y-60858979D01*
X149360655Y-60855801D01*
X149364334Y-60855289D01*
X149381464Y-60854100D01*
X149757099Y-60854100D01*
X149824138Y-60873785D01*
X149850811Y-60896896D01*
X149884472Y-60935743D01*
X150005547Y-61013553D01*
X150005550Y-61013554D01*
X150005549Y-61013554D01*
X150143636Y-61054099D01*
X150143638Y-61054100D01*
X150143639Y-61054100D01*
X150287562Y-61054100D01*
X150287562Y-61054099D01*
X150405859Y-61019365D01*
X150425650Y-61013554D01*
X150425650Y-61013553D01*
X150425653Y-61013553D01*
X150546728Y-60935743D01*
X150640977Y-60826973D01*
X150700765Y-60696057D01*
X150721247Y-60553600D01*
X150700765Y-60411143D01*
X150640977Y-60280227D01*
X150546728Y-60171457D01*
X150425653Y-60093647D01*
X150425651Y-60093646D01*
X150425649Y-60093645D01*
X150425650Y-60093645D01*
X150287563Y-60053100D01*
X150287561Y-60053100D01*
X150143639Y-60053100D01*
X150143636Y-60053100D01*
X150005549Y-60093645D01*
X149884473Y-60171456D01*
X149884472Y-60171456D01*
X149884472Y-60171457D01*
X149860129Y-60199551D01*
X149850812Y-60210303D01*
X149792033Y-60248077D01*
X149757099Y-60253100D01*
X149527833Y-60253100D01*
X149460794Y-60233415D01*
X149440152Y-60216781D01*
X148469619Y-59246248D01*
X148436134Y-59184925D01*
X148433300Y-59158567D01*
X148433300Y-54880336D01*
X148434489Y-54863205D01*
X148435571Y-54855439D01*
X148435573Y-54855435D01*
X148433432Y-54809120D01*
X148433300Y-54803395D01*
X148433300Y-54785359D01*
X148432846Y-54780466D01*
X148431617Y-54769880D01*
X148430385Y-54743208D01*
X148427586Y-54736870D01*
X148419133Y-54709573D01*
X148417861Y-54702767D01*
X148403802Y-54680062D01*
X148395798Y-54664876D01*
X148394908Y-54662861D01*
X148385006Y-54640434D01*
X148380109Y-54635537D01*
X148362361Y-54613131D01*
X148358719Y-54607248D01*
X148358717Y-54607246D01*
X148337404Y-54591151D01*
X148324451Y-54579879D01*
X148316596Y-54572024D01*
X148283111Y-54510701D01*
X148281539Y-54466694D01*
X148281954Y-54463809D01*
X148282847Y-54457600D01*
X148262365Y-54315143D01*
X148202577Y-54184227D01*
X148108328Y-54075457D01*
X147987253Y-53997647D01*
X147987251Y-53997646D01*
X147987249Y-53997645D01*
X147987250Y-53997645D01*
X147849163Y-53957100D01*
X147849161Y-53957100D01*
X147705239Y-53957100D01*
X147705236Y-53957100D01*
X147567149Y-53997645D01*
X147446073Y-54075456D01*
X147446072Y-54075456D01*
X147446072Y-54075457D01*
X147439814Y-54082679D01*
X147351823Y-54184226D01*
X147351822Y-54184228D01*
X147292034Y-54315143D01*
X147271553Y-54457600D01*
X146868100Y-54457600D01*
X146868100Y-54166632D01*
X146887785Y-54099593D01*
X146904414Y-54078956D01*
X148348611Y-52634758D01*
X148361563Y-52623488D01*
X148367823Y-52618760D01*
X148367828Y-52618758D01*
X148399088Y-52584466D01*
X148403002Y-52580367D01*
X148415774Y-52567597D01*
X148415775Y-52567596D01*
X148418882Y-52563854D01*
X148425516Y-52555476D01*
X148443516Y-52535733D01*
X148446016Y-52529278D01*
X148459349Y-52503982D01*
X148463256Y-52498281D01*
X148469370Y-52472281D01*
X148474446Y-52455889D01*
X148484100Y-52430973D01*
X148484100Y-52424048D01*
X148487395Y-52395655D01*
X148488978Y-52388923D01*
X148488979Y-52388919D01*
X148485289Y-52362465D01*
X148484100Y-52345335D01*
X148484100Y-48631936D01*
X148485289Y-48614805D01*
X148486371Y-48607039D01*
X148486373Y-48607035D01*
X148484232Y-48560720D01*
X148484100Y-48554995D01*
X148484100Y-48536959D01*
X148483646Y-48532066D01*
X148482417Y-48521480D01*
X148481185Y-48494808D01*
X148478386Y-48488470D01*
X148469933Y-48461173D01*
X148468661Y-48454367D01*
X148454602Y-48431662D01*
X148446598Y-48416476D01*
X148442779Y-48407826D01*
X148435806Y-48392034D01*
X148430909Y-48387137D01*
X148413161Y-48364731D01*
X148409519Y-48358848D01*
X148388206Y-48342753D01*
X148375253Y-48331481D01*
X147626453Y-47582681D01*
X147592968Y-47521358D01*
X147597952Y-47451666D01*
X147639824Y-47395733D01*
X147705288Y-47371316D01*
X147714134Y-47371000D01*
X151133000Y-47371000D01*
X151200039Y-47390685D01*
X151245794Y-47443489D01*
X151257000Y-47495000D01*
X151257000Y-77853916D01*
X151237315Y-77920955D01*
X151184511Y-77966710D01*
X151132916Y-77977916D01*
X144324196Y-77973313D01*
X144257170Y-77953583D01*
X144211451Y-77900748D01*
X144200280Y-77849313D01*
X144200280Y-75669037D01*
X135917268Y-75669037D01*
X135917268Y-77843547D01*
X135897583Y-77910586D01*
X135844779Y-77956341D01*
X135793184Y-77967547D01*
X112294788Y-77951664D01*
X112227762Y-77931934D01*
X112182043Y-77879099D01*
X112172146Y-77809934D01*
X112201214Y-77746398D01*
X112250267Y-77714920D01*
X112249476Y-77713129D01*
X112259992Y-77708485D01*
X112266322Y-77705689D01*
X112293629Y-77697232D01*
X112300433Y-77695961D01*
X112300435Y-77695959D01*
X112300437Y-77695959D01*
X112323138Y-77681903D01*
X112338325Y-77673896D01*
X112362765Y-77663106D01*
X112367661Y-77658209D01*
X112390069Y-77640461D01*
X112395952Y-77636819D01*
X112412053Y-77615495D01*
X112423314Y-77602555D01*
X115106978Y-74918891D01*
X115168299Y-74885408D01*
X115237991Y-74890392D01*
X115261694Y-74902257D01*
X115309147Y-74932753D01*
X115309150Y-74932754D01*
X115309149Y-74932754D01*
X115447236Y-74973299D01*
X115447238Y-74973300D01*
X115447239Y-74973300D01*
X115591162Y-74973300D01*
X115591162Y-74973299D01*
X115729253Y-74932753D01*
X115850328Y-74854943D01*
X115944577Y-74746173D01*
X116004365Y-74615257D01*
X116024847Y-74472800D01*
X116004365Y-74330343D01*
X115944577Y-74199427D01*
X115850328Y-74090657D01*
X115796573Y-74056111D01*
X115729252Y-74012846D01*
X115728793Y-74012712D01*
X115728387Y-74012451D01*
X115721183Y-74009161D01*
X115721655Y-74008125D01*
X115670014Y-73974938D01*
X115640988Y-73911383D01*
X115650931Y-73842224D01*
X115670010Y-73812535D01*
X115741377Y-73730173D01*
X115801165Y-73599257D01*
X115821647Y-73456800D01*
X115801165Y-73314343D01*
X115741377Y-73183427D01*
X115647128Y-73074657D01*
X115526053Y-72996847D01*
X115526051Y-72996846D01*
X115526049Y-72996845D01*
X115526050Y-72996845D01*
X115387963Y-72956300D01*
X115387961Y-72956300D01*
X115244039Y-72956300D01*
X115244036Y-72956300D01*
X115105949Y-72996845D01*
X114984873Y-73074656D01*
X114890623Y-73183426D01*
X114890622Y-73183428D01*
X114830834Y-73314343D01*
X114810353Y-73456800D01*
X114810353Y-73456801D01*
X114811661Y-73465903D01*
X114801713Y-73535061D01*
X114776603Y-73571224D01*
X114567446Y-73780382D01*
X114506126Y-73813866D01*
X114479767Y-73816700D01*
X113922232Y-73816700D01*
X113855193Y-73797015D01*
X113809438Y-73744211D01*
X113799494Y-73675053D01*
X113828519Y-73611497D01*
X113834551Y-73605019D01*
X116436268Y-71003302D01*
X119046611Y-68392958D01*
X119059563Y-68381688D01*
X119065823Y-68376960D01*
X119065828Y-68376958D01*
X119097088Y-68342666D01*
X119101002Y-68338567D01*
X119113774Y-68325797D01*
X119113775Y-68325796D01*
X119116882Y-68322054D01*
X119123516Y-68313676D01*
X119141516Y-68293933D01*
X119144016Y-68287478D01*
X119157349Y-68262182D01*
X119161256Y-68256481D01*
X119167370Y-68230481D01*
X119172446Y-68214089D01*
X119182100Y-68189173D01*
X119182100Y-68182248D01*
X119185395Y-68153855D01*
X119186978Y-68147123D01*
X119186979Y-68147119D01*
X119183289Y-68120665D01*
X119182100Y-68103535D01*
X119182100Y-67975863D01*
X119201785Y-67908824D01*
X119254589Y-67863069D01*
X119323747Y-67853125D01*
X119364819Y-67868445D01*
X119365082Y-67867870D01*
X119373127Y-67871544D01*
X119373142Y-67871549D01*
X119373147Y-67871553D01*
X119511236Y-67912099D01*
X119511238Y-67912100D01*
X119607367Y-67912100D01*
X119674406Y-67931785D01*
X119695048Y-67948419D01*
X120212204Y-68465575D01*
X120245689Y-68526898D01*
X120247261Y-68570902D01*
X120245953Y-68579999D01*
X120266434Y-68722456D01*
X120326222Y-68853371D01*
X120326223Y-68853373D01*
X120420472Y-68962143D01*
X120541547Y-69039953D01*
X120541550Y-69039954D01*
X120541549Y-69039954D01*
X120679636Y-69080499D01*
X120679638Y-69080500D01*
X120679639Y-69080500D01*
X120823562Y-69080500D01*
X120823562Y-69080499D01*
X120961653Y-69039953D01*
X120999163Y-69015846D01*
X121066198Y-68996163D01*
X121133238Y-69015847D01*
X121178994Y-69068650D01*
X121190200Y-69120163D01*
X121190200Y-71151367D01*
X121170515Y-71218406D01*
X121153881Y-71239048D01*
X118264046Y-74128883D01*
X118202723Y-74162368D01*
X118133031Y-74157384D01*
X118077098Y-74115512D01*
X118052681Y-74050048D01*
X118052365Y-74041202D01*
X118052365Y-71278738D01*
X118072050Y-71211699D01*
X118082652Y-71197535D01*
X118082989Y-71197144D01*
X118082993Y-71197143D01*
X118177242Y-71088373D01*
X118237030Y-70957457D01*
X118257512Y-70815000D01*
X118237030Y-70672543D01*
X118177242Y-70541627D01*
X118082993Y-70432857D01*
X117961918Y-70355047D01*
X117961916Y-70355046D01*
X117961914Y-70355045D01*
X117961915Y-70355045D01*
X117823828Y-70314500D01*
X117823826Y-70314500D01*
X117679904Y-70314500D01*
X117679901Y-70314500D01*
X117541814Y-70355045D01*
X117420738Y-70432856D01*
X117326488Y-70541626D01*
X117326487Y-70541628D01*
X117266699Y-70672543D01*
X117246218Y-70815000D01*
X117266699Y-70957456D01*
X117318620Y-71071144D01*
X117326488Y-71088373D01*
X117420737Y-71197143D01*
X117420740Y-71197144D01*
X117421078Y-71197535D01*
X117450103Y-71261091D01*
X117451365Y-71278738D01*
X117451365Y-74324516D01*
X117431680Y-74391555D01*
X117415046Y-74412197D01*
X115757662Y-76069581D01*
X115696339Y-76103066D01*
X115669981Y-76105900D01*
X115650436Y-76105900D01*
X115512349Y-76146445D01*
X115391273Y-76224256D01*
X115297023Y-76333026D01*
X115297022Y-76333028D01*
X115237234Y-76463943D01*
X115216753Y-76606400D01*
X115237234Y-76748856D01*
X115297022Y-76879771D01*
X115297023Y-76879773D01*
X115391272Y-76988543D01*
X115512347Y-77066353D01*
X115512350Y-77066354D01*
X115512349Y-77066354D01*
X115595317Y-77090715D01*
X115649366Y-77106585D01*
X115650436Y-77106899D01*
X115650438Y-77106900D01*
X115650439Y-77106900D01*
X115794362Y-77106900D01*
X115794362Y-77106899D01*
X115932453Y-77066353D01*
X116053528Y-76988543D01*
X116053670Y-76988378D01*
X116053853Y-76988260D01*
X116060228Y-76982737D01*
X116061021Y-76983653D01*
X116112444Y-76950602D01*
X116182313Y-76950598D01*
X116241094Y-76988368D01*
X116260180Y-77018065D01*
X116301351Y-77108215D01*
X116313023Y-77133773D01*
X116407272Y-77242543D01*
X116528347Y-77320353D01*
X116528350Y-77320354D01*
X116528349Y-77320354D01*
X116666436Y-77360899D01*
X116666438Y-77360900D01*
X116666439Y-77360900D01*
X116810362Y-77360900D01*
X116810362Y-77360899D01*
X116948453Y-77320353D01*
X117069528Y-77242543D01*
X117163777Y-77133773D01*
X117223565Y-77002857D01*
X117244047Y-76860400D01*
X117242739Y-76851305D01*
X117252679Y-76782149D01*
X117277792Y-76745977D01*
X118122611Y-75901158D01*
X118135563Y-75889888D01*
X118141823Y-75885160D01*
X118141828Y-75885158D01*
X118173088Y-75850866D01*
X118177002Y-75846767D01*
X118189774Y-75833997D01*
X118189775Y-75833996D01*
X118192882Y-75830254D01*
X118199516Y-75821876D01*
X118217516Y-75802133D01*
X118220016Y-75795678D01*
X118233349Y-75770382D01*
X118237256Y-75764681D01*
X118243370Y-75738681D01*
X118248446Y-75722289D01*
X118258100Y-75697373D01*
X118258100Y-75690448D01*
X118261395Y-75662055D01*
X118262978Y-75655323D01*
X118262979Y-75655319D01*
X118259289Y-75628865D01*
X118258100Y-75611735D01*
X118258100Y-75036132D01*
X118277785Y-74969093D01*
X118294414Y-74948456D01*
X121473695Y-71769174D01*
X121535016Y-71735691D01*
X121604708Y-71740675D01*
X121660641Y-71782547D01*
X121684112Y-71839209D01*
X121688834Y-71872056D01*
X121726543Y-71954626D01*
X121748623Y-72002973D01*
X121842872Y-72111743D01*
X121963947Y-72189553D01*
X121963950Y-72189554D01*
X121963949Y-72189554D01*
X122102036Y-72230099D01*
X122102038Y-72230100D01*
X122102039Y-72230100D01*
X122245962Y-72230100D01*
X122245962Y-72230099D01*
X122384053Y-72189553D01*
X122384059Y-72189548D01*
X122386400Y-72188481D01*
X122388961Y-72188112D01*
X122392563Y-72187055D01*
X122392714Y-72187572D01*
X122455558Y-72178532D01*
X122519115Y-72207552D01*
X122550210Y-72255921D01*
X122552251Y-72254990D01*
X122555934Y-72263056D01*
X122555935Y-72263057D01*
X122615723Y-72393973D01*
X122709972Y-72502743D01*
X122831047Y-72580553D01*
X122837787Y-72582532D01*
X122896566Y-72620305D01*
X122925592Y-72683860D01*
X122915651Y-72753019D01*
X122890536Y-72789191D01*
X122041048Y-73638681D01*
X121979725Y-73672166D01*
X121953367Y-73675000D01*
X121707701Y-73675000D01*
X121640662Y-73655315D01*
X121613988Y-73632203D01*
X121605908Y-73622878D01*
X121580328Y-73593357D01*
X121459253Y-73515547D01*
X121459251Y-73515546D01*
X121459249Y-73515545D01*
X121459250Y-73515545D01*
X121321163Y-73475000D01*
X121321161Y-73475000D01*
X121177239Y-73475000D01*
X121177236Y-73475000D01*
X121039149Y-73515545D01*
X120918073Y-73593356D01*
X120823823Y-73702126D01*
X120823822Y-73702128D01*
X120764034Y-73833043D01*
X120743553Y-73975500D01*
X120764034Y-74117956D01*
X120807274Y-74212637D01*
X120823823Y-74248873D01*
X120918072Y-74357643D01*
X121039147Y-74435453D01*
X121039150Y-74435454D01*
X121039149Y-74435454D01*
X121177236Y-74475999D01*
X121177238Y-74476000D01*
X121177239Y-74476000D01*
X121321162Y-74476000D01*
X121321162Y-74475999D01*
X121452673Y-74437385D01*
X121459250Y-74435454D01*
X121459250Y-74435453D01*
X121459253Y-74435453D01*
X121580328Y-74357643D01*
X121613988Y-74318796D01*
X121672767Y-74281023D01*
X121707701Y-74276000D01*
X122062062Y-74276000D01*
X122079190Y-74277189D01*
X122086961Y-74278272D01*
X122086961Y-74278271D01*
X122086965Y-74278273D01*
X122133280Y-74276132D01*
X122139005Y-74276000D01*
X122157043Y-74276000D01*
X122157044Y-74276000D01*
X122157044Y-74275999D01*
X122161931Y-74275546D01*
X122172518Y-74274317D01*
X122199192Y-74273085D01*
X122205522Y-74270289D01*
X122232829Y-74261832D01*
X122239633Y-74260561D01*
X122239635Y-74260559D01*
X122239637Y-74260559D01*
X122262338Y-74246503D01*
X122277525Y-74238496D01*
X122301965Y-74227706D01*
X122306861Y-74222809D01*
X122329269Y-74205061D01*
X122335152Y-74201419D01*
X122351253Y-74180095D01*
X122362514Y-74167155D01*
X123820311Y-72709358D01*
X123833263Y-72698088D01*
X123839523Y-72693360D01*
X123839528Y-72693358D01*
X123870788Y-72659066D01*
X123874702Y-72654967D01*
X123887474Y-72642197D01*
X123887475Y-72642196D01*
X123890582Y-72638454D01*
X123897216Y-72630076D01*
X123915216Y-72610333D01*
X123917716Y-72603878D01*
X123931049Y-72578582D01*
X123934956Y-72572881D01*
X123941070Y-72546881D01*
X123946146Y-72530489D01*
X123955800Y-72505573D01*
X123955800Y-72498648D01*
X123959095Y-72470255D01*
X123960678Y-72463523D01*
X123960679Y-72463519D01*
X123957845Y-72443206D01*
X123956989Y-72437065D01*
X123955800Y-72419935D01*
X123955800Y-58775600D01*
X128627953Y-58775600D01*
X128648434Y-58918056D01*
X128707315Y-59046985D01*
X128708223Y-59048973D01*
X128802472Y-59157743D01*
X128923547Y-59235553D01*
X128923550Y-59235554D01*
X128923549Y-59235554D01*
X129061636Y-59276099D01*
X129061638Y-59276100D01*
X129061639Y-59276100D01*
X129205562Y-59276100D01*
X129205562Y-59276099D01*
X129343653Y-59235553D01*
X129464728Y-59157743D01*
X129558977Y-59048973D01*
X129559885Y-59046985D01*
X129561314Y-59045335D01*
X129563771Y-59041513D01*
X129564320Y-59041866D01*
X129605642Y-58994182D01*
X129672678Y-58974500D01*
X131258367Y-58974500D01*
X131325406Y-58994185D01*
X131371161Y-59046989D01*
X131381105Y-59116147D01*
X131352080Y-59179703D01*
X131346048Y-59186181D01*
X130543386Y-59988841D01*
X130530435Y-60000112D01*
X130524167Y-60004844D01*
X130492922Y-60039118D01*
X130488974Y-60043253D01*
X130476227Y-60056000D01*
X130473146Y-60059711D01*
X130466485Y-60068119D01*
X130448483Y-60087866D01*
X130448483Y-60087867D01*
X130445978Y-60094333D01*
X130432659Y-60119602D01*
X130428745Y-60125315D01*
X130428743Y-60125320D01*
X130422628Y-60151317D01*
X130417551Y-60167713D01*
X130407900Y-60192626D01*
X130407900Y-60199551D01*
X130404606Y-60227941D01*
X130403021Y-60234677D01*
X130403021Y-60234682D01*
X130406711Y-60261133D01*
X130407900Y-60278264D01*
X130407900Y-71452166D01*
X130388215Y-71519205D01*
X130371581Y-71539847D01*
X129804247Y-72107181D01*
X129742924Y-72140666D01*
X129716566Y-72143500D01*
X129620436Y-72143500D01*
X129482349Y-72184045D01*
X129361273Y-72261856D01*
X129267023Y-72370626D01*
X129267022Y-72370628D01*
X129207234Y-72501543D01*
X129186753Y-72644000D01*
X129207234Y-72786456D01*
X129262726Y-72907965D01*
X129267023Y-72917373D01*
X129361272Y-73026143D01*
X129482347Y-73103953D01*
X129482350Y-73103954D01*
X129482349Y-73103954D01*
X129620436Y-73144499D01*
X129620438Y-73144500D01*
X129620439Y-73144500D01*
X129764362Y-73144500D01*
X129764362Y-73144499D01*
X129902453Y-73103953D01*
X130023528Y-73026143D01*
X130117777Y-72917373D01*
X130177565Y-72786457D01*
X130198047Y-72644000D01*
X130196739Y-72634905D01*
X130206679Y-72565749D01*
X130231792Y-72529577D01*
X130873411Y-71887958D01*
X130886363Y-71876688D01*
X130892623Y-71871960D01*
X130892628Y-71871958D01*
X130923888Y-71837666D01*
X130927802Y-71833567D01*
X130940574Y-71820797D01*
X130940575Y-71820796D01*
X130943682Y-71817054D01*
X130950316Y-71808676D01*
X130968316Y-71788933D01*
X130970817Y-71782476D01*
X130984150Y-71757184D01*
X130985646Y-71755000D01*
X130988057Y-71751481D01*
X130994172Y-71725478D01*
X130999254Y-71709071D01*
X131008900Y-71684173D01*
X131008900Y-71677248D01*
X131012194Y-71648856D01*
X131013779Y-71642119D01*
X131010089Y-71615665D01*
X131008900Y-71598535D01*
X131008900Y-60424633D01*
X131028585Y-60357594D01*
X131045219Y-60336952D01*
X132371353Y-59010819D01*
X132432676Y-58977334D01*
X132459034Y-58974500D01*
X135851662Y-58974500D01*
X135868790Y-58975689D01*
X135876561Y-58976772D01*
X135876561Y-58976771D01*
X135876565Y-58976773D01*
X135922880Y-58974632D01*
X135928605Y-58974500D01*
X135968643Y-58974500D01*
X135968644Y-58974500D01*
X135974268Y-58973448D01*
X135987296Y-58971937D01*
X135999984Y-58968953D01*
X136000085Y-58969384D01*
X136006278Y-58967464D01*
X136051233Y-58959061D01*
X136146752Y-58899919D01*
X136214456Y-58810264D01*
X136214455Y-58810264D01*
X136221382Y-58801093D01*
X136221783Y-58801395D01*
X136235650Y-58782119D01*
X140380011Y-54637758D01*
X140392963Y-54626488D01*
X140399223Y-54621760D01*
X140399228Y-54621758D01*
X140430488Y-54587466D01*
X140434402Y-54583367D01*
X140447174Y-54570597D01*
X140447175Y-54570596D01*
X140450282Y-54566854D01*
X140456916Y-54558476D01*
X140474916Y-54538733D01*
X140477416Y-54532278D01*
X140490749Y-54506982D01*
X140494656Y-54501281D01*
X140500770Y-54475281D01*
X140505846Y-54458889D01*
X140515500Y-54433973D01*
X140515500Y-54427048D01*
X140518795Y-54398655D01*
X140520378Y-54391923D01*
X140520379Y-54391919D01*
X140517545Y-54371606D01*
X140516689Y-54365465D01*
X140515500Y-54348335D01*
X140515500Y-50467736D01*
X140516689Y-50450605D01*
X140517771Y-50442839D01*
X140517773Y-50442835D01*
X140515632Y-50396520D01*
X140515500Y-50390795D01*
X140515500Y-50372759D01*
X140515046Y-50367866D01*
X140513817Y-50357280D01*
X140513700Y-50354742D01*
X140512585Y-50330608D01*
X140509788Y-50324275D01*
X140501332Y-50296968D01*
X140500061Y-50290167D01*
X140485999Y-50267456D01*
X140477998Y-50252278D01*
X140467206Y-50227835D01*
X140462309Y-50222938D01*
X140444563Y-50200534D01*
X140443271Y-50198448D01*
X140440919Y-50194648D01*
X140440918Y-50194647D01*
X140440917Y-50194646D01*
X140419602Y-50178550D01*
X140406648Y-50167277D01*
X139986019Y-49746648D01*
X139952534Y-49685325D01*
X139949700Y-49658967D01*
X139949700Y-46541633D01*
X139969385Y-46474594D01*
X140022189Y-46428839D01*
X140091347Y-46418895D01*
X140154903Y-46447920D01*
X140161381Y-46453952D01*
X140887181Y-47179752D01*
X140920666Y-47241075D01*
X140923500Y-47267433D01*
X140923500Y-58548966D01*
X140903815Y-58616005D01*
X140887181Y-58636647D01*
X137365886Y-62157941D01*
X137352935Y-62169212D01*
X137346667Y-62173944D01*
X137315422Y-62208218D01*
X137311474Y-62212353D01*
X137298727Y-62225100D01*
X137295646Y-62228811D01*
X137288985Y-62237219D01*
X137270983Y-62256966D01*
X137270983Y-62256967D01*
X137268478Y-62263433D01*
X137255159Y-62288702D01*
X137251245Y-62294415D01*
X137251243Y-62294420D01*
X137245128Y-62320417D01*
X137240051Y-62336813D01*
X137230400Y-62361726D01*
X137230400Y-62368651D01*
X137227106Y-62397041D01*
X137225521Y-62403777D01*
X137225521Y-62403782D01*
X137229211Y-62430233D01*
X137230400Y-62447364D01*
X137230400Y-69625431D01*
X137210715Y-69692470D01*
X137187602Y-69719145D01*
X137184467Y-69721861D01*
X137090225Y-69830622D01*
X137090222Y-69830628D01*
X137030434Y-69961543D01*
X137009953Y-70104000D01*
X137030434Y-70246456D01*
X137078530Y-70351769D01*
X137090223Y-70377373D01*
X137184472Y-70486143D01*
X137305547Y-70563953D01*
X137305550Y-70563954D01*
X137305549Y-70563954D01*
X137443636Y-70604499D01*
X137443638Y-70604500D01*
X137443639Y-70604500D01*
X137587562Y-70604500D01*
X137587562Y-70604499D01*
X137725653Y-70563953D01*
X137846728Y-70486143D01*
X137940977Y-70377373D01*
X138000765Y-70246457D01*
X138021247Y-70104000D01*
X138000765Y-69961543D01*
X137940977Y-69830627D01*
X137884759Y-69765747D01*
X137861686Y-69739119D01*
X137832662Y-69675563D01*
X137831400Y-69657917D01*
X137831400Y-67184879D01*
X137838490Y-67160730D01*
X137832662Y-67147967D01*
X137831400Y-67130320D01*
X137831400Y-62593732D01*
X137851085Y-62526693D01*
X137867714Y-62506056D01*
X141389011Y-58984758D01*
X141401963Y-58973488D01*
X141408223Y-58968760D01*
X141408228Y-58968758D01*
X141439488Y-58934466D01*
X141443402Y-58930367D01*
X141456174Y-58917597D01*
X141456175Y-58917596D01*
X141459282Y-58913854D01*
X141465916Y-58905476D01*
X141483916Y-58885733D01*
X141486416Y-58879278D01*
X141499749Y-58853982D01*
X141503656Y-58848281D01*
X141509770Y-58822281D01*
X141514846Y-58805889D01*
X141524500Y-58780973D01*
X141524500Y-58774048D01*
X141527795Y-58745655D01*
X141529378Y-58738923D01*
X141529379Y-58738919D01*
X141525689Y-58712465D01*
X141524500Y-58695335D01*
X141524500Y-47158737D01*
X141525689Y-47141606D01*
X141526771Y-47133840D01*
X141526773Y-47133836D01*
X141524632Y-47087520D01*
X141524500Y-47081795D01*
X141524500Y-47063759D01*
X141524046Y-47058866D01*
X141522817Y-47048280D01*
X141522781Y-47047493D01*
X141521585Y-47021608D01*
X141518788Y-47015275D01*
X141510332Y-46987968D01*
X141509061Y-46981167D01*
X141494999Y-46958456D01*
X141486998Y-46943278D01*
X141476206Y-46918835D01*
X141471309Y-46913938D01*
X141453563Y-46891534D01*
X141449918Y-46885647D01*
X141449917Y-46885646D01*
X141428602Y-46869550D01*
X141415648Y-46858277D01*
X140595619Y-46038248D01*
X140562134Y-45976925D01*
X140559300Y-45950567D01*
X140559300Y-40605536D01*
X140560489Y-40588405D01*
X140561571Y-40580639D01*
X140561573Y-40580635D01*
X140559432Y-40534320D01*
X140559300Y-40528595D01*
X140559300Y-40510559D01*
X140558846Y-40505666D01*
X140557617Y-40495080D01*
X140556385Y-40468408D01*
X140553586Y-40462070D01*
X140545133Y-40434773D01*
X140543861Y-40427967D01*
X140529802Y-40405262D01*
X140521798Y-40390076D01*
X140521543Y-40389499D01*
X140511006Y-40365634D01*
X140506109Y-40360737D01*
X140488361Y-40338331D01*
X140484719Y-40332448D01*
X140463406Y-40316353D01*
X140450453Y-40305081D01*
X139375795Y-39230424D01*
X139342310Y-39169101D01*
X139340739Y-39125094D01*
X139342047Y-39116000D01*
X139321565Y-38973543D01*
X139261777Y-38842627D01*
X139167528Y-38733857D01*
X139046453Y-38656047D01*
X139046451Y-38656046D01*
X139046449Y-38656045D01*
X139046450Y-38656045D01*
X138908363Y-38615500D01*
X138908361Y-38615500D01*
X138764439Y-38615500D01*
X138764436Y-38615500D01*
X138626349Y-38656045D01*
X138505273Y-38733856D01*
X138411023Y-38842626D01*
X138411022Y-38842628D01*
X138351234Y-38973543D01*
X138330753Y-39116000D01*
X138351234Y-39258456D01*
X138402949Y-39371693D01*
X138411023Y-39389373D01*
X138505272Y-39498143D01*
X138626347Y-39575953D01*
X138626350Y-39575954D01*
X138626349Y-39575954D01*
X138733507Y-39607417D01*
X138761680Y-39615690D01*
X138764436Y-39616499D01*
X138764438Y-39616500D01*
X138860567Y-39616500D01*
X138927606Y-39636185D01*
X138948248Y-39652819D01*
X139921981Y-40626552D01*
X139955466Y-40687875D01*
X139958300Y-40714233D01*
X139958300Y-42459967D01*
X139938615Y-42527006D01*
X139885811Y-42572761D01*
X139816653Y-42582705D01*
X139753097Y-42553680D01*
X139746619Y-42547648D01*
X139227001Y-42028030D01*
X139193516Y-41966707D01*
X139198500Y-41897015D01*
X139201879Y-41888857D01*
X139219965Y-41849257D01*
X139240447Y-41706800D01*
X139219965Y-41564343D01*
X139160177Y-41433427D01*
X139065928Y-41324657D01*
X138944853Y-41246847D01*
X138944851Y-41246846D01*
X138944849Y-41246845D01*
X138944850Y-41246845D01*
X138806763Y-41206300D01*
X138806761Y-41206300D01*
X138662839Y-41206300D01*
X138662836Y-41206300D01*
X138524749Y-41246845D01*
X138403673Y-41324656D01*
X138309423Y-41433426D01*
X138309422Y-41433428D01*
X138249634Y-41564343D01*
X138229153Y-41706800D01*
X138249634Y-41849256D01*
X138300471Y-41960571D01*
X138309423Y-41980173D01*
X138403672Y-42088943D01*
X138469711Y-42131383D01*
X138474783Y-42134643D01*
X138499489Y-42159765D01*
X138501140Y-42158261D01*
X138508881Y-42166753D01*
X138530196Y-42182849D01*
X138543151Y-42194122D01*
X139312381Y-42963352D01*
X139345866Y-43024675D01*
X139348700Y-43051033D01*
X139348700Y-49767661D01*
X139347512Y-49784788D01*
X139346427Y-49792565D01*
X139348568Y-49838879D01*
X139348700Y-49844604D01*
X139348700Y-49862642D01*
X139349147Y-49867471D01*
X139350381Y-49878105D01*
X139351615Y-49904792D01*
X139351616Y-49904797D01*
X139354414Y-49911134D01*
X139362864Y-49938420D01*
X139364137Y-49945229D01*
X139364137Y-49945230D01*
X139364139Y-49945233D01*
X139378201Y-49967946D01*
X139386197Y-49983115D01*
X139396994Y-50007565D01*
X139396995Y-50007566D01*
X139396996Y-50007568D01*
X139401889Y-50012461D01*
X139419635Y-50034865D01*
X139423277Y-50040748D01*
X139423279Y-50040750D01*
X139423280Y-50040751D01*
X139423281Y-50040752D01*
X139441487Y-50054500D01*
X139444596Y-50056848D01*
X139457550Y-50068121D01*
X139629201Y-50239772D01*
X139662686Y-50301095D01*
X139657702Y-50370787D01*
X139615830Y-50426720D01*
X139550366Y-50451137D01*
X139483067Y-50436811D01*
X139468958Y-50429269D01*
X139283329Y-50372960D01*
X139270934Y-50369200D01*
X139270932Y-50369199D01*
X139270934Y-50369199D01*
X139065000Y-50348917D01*
X138859067Y-50369199D01*
X138694895Y-50419000D01*
X138661050Y-50429267D01*
X138661043Y-50429269D01*
X138620132Y-50451137D01*
X138478550Y-50526815D01*
X138478548Y-50526816D01*
X138478547Y-50526817D01*
X138318589Y-50658089D01*
X138188861Y-50816166D01*
X138187315Y-50818050D01*
X138164195Y-50861305D01*
X138089769Y-51000543D01*
X138029699Y-51198567D01*
X138009417Y-51404500D01*
X138029699Y-51610432D01*
X138047308Y-51668482D01*
X138089768Y-51808454D01*
X138187315Y-51990950D01*
X138215499Y-52025293D01*
X138318589Y-52150910D01*
X138407874Y-52224183D01*
X138478550Y-52282185D01*
X138661046Y-52379732D01*
X138676496Y-52384418D01*
X138734932Y-52422712D01*
X138763390Y-52486524D01*
X138764500Y-52503078D01*
X138764500Y-52732366D01*
X138744815Y-52799405D01*
X138728181Y-52820047D01*
X135189047Y-56359181D01*
X135127724Y-56392666D01*
X135101366Y-56395500D01*
X135005236Y-56395500D01*
X134867149Y-56436045D01*
X134746073Y-56513856D01*
X134651823Y-56622626D01*
X134651822Y-56622628D01*
X134592034Y-56753543D01*
X134571553Y-56896000D01*
X134592034Y-57038456D01*
X134649985Y-57165349D01*
X134651823Y-57169373D01*
X134746072Y-57278143D01*
X134867147Y-57355953D01*
X134867150Y-57355954D01*
X134867149Y-57355954D01*
X135005236Y-57396499D01*
X135005238Y-57396500D01*
X135005239Y-57396500D01*
X135149162Y-57396500D01*
X135149162Y-57396499D01*
X135287253Y-57355953D01*
X135408328Y-57278143D01*
X135502577Y-57169373D01*
X135562365Y-57038457D01*
X135582847Y-56896000D01*
X135581539Y-56886905D01*
X135591479Y-56817749D01*
X135616592Y-56781577D01*
X139230011Y-53168158D01*
X139242963Y-53156888D01*
X139249223Y-53152160D01*
X139249228Y-53152158D01*
X139280488Y-53117866D01*
X139284402Y-53113767D01*
X139297174Y-53100997D01*
X139297175Y-53100996D01*
X139300282Y-53097254D01*
X139306916Y-53088876D01*
X139324916Y-53069133D01*
X139327417Y-53062676D01*
X139340750Y-53037384D01*
X139340766Y-53037359D01*
X139344657Y-53031681D01*
X139350772Y-53005678D01*
X139355854Y-52989271D01*
X139365500Y-52964373D01*
X139365500Y-52957448D01*
X139368794Y-52929056D01*
X139370379Y-52922319D01*
X139366689Y-52895865D01*
X139365500Y-52878735D01*
X139365500Y-52503078D01*
X139385185Y-52436039D01*
X139437989Y-52390284D01*
X139453488Y-52384423D01*
X139468954Y-52379732D01*
X139651450Y-52282185D01*
X139711835Y-52232629D01*
X139776145Y-52205316D01*
X139845013Y-52217107D01*
X139896573Y-52264260D01*
X139914500Y-52328482D01*
X139914500Y-54201967D01*
X139894815Y-54269006D01*
X139878181Y-54289648D01*
X135830648Y-58337181D01*
X135769325Y-58370666D01*
X135742967Y-58373500D01*
X132350346Y-58373500D01*
X132333218Y-58372311D01*
X132325439Y-58371226D01*
X132325436Y-58371226D01*
X132284722Y-58373108D01*
X132279100Y-58373368D01*
X132273375Y-58373500D01*
X129470083Y-58373500D01*
X129403044Y-58353815D01*
X129377161Y-58337181D01*
X129343651Y-58315645D01*
X129205563Y-58275100D01*
X129205561Y-58275100D01*
X129061639Y-58275100D01*
X129061636Y-58275100D01*
X128923549Y-58315645D01*
X128802473Y-58393456D01*
X128708223Y-58502226D01*
X128708222Y-58502228D01*
X128648434Y-58633143D01*
X128627953Y-58775600D01*
X123955800Y-58775600D01*
X123955800Y-53567636D01*
X123956989Y-53550505D01*
X123958071Y-53542739D01*
X123958073Y-53542735D01*
X123955932Y-53496420D01*
X123955800Y-53490695D01*
X123955800Y-53472659D01*
X123955346Y-53467766D01*
X123954117Y-53457180D01*
X123952885Y-53430508D01*
X123950088Y-53424175D01*
X123941632Y-53396868D01*
X123940361Y-53390067D01*
X123926299Y-53367356D01*
X123918298Y-53352178D01*
X123907506Y-53327735D01*
X123902609Y-53322838D01*
X123884863Y-53300434D01*
X123884731Y-53300221D01*
X123881219Y-53294548D01*
X123881218Y-53294547D01*
X123881217Y-53294546D01*
X123859902Y-53278450D01*
X123846948Y-53267177D01*
X123069619Y-52489848D01*
X123036134Y-52428525D01*
X123033300Y-52402167D01*
X123033300Y-52381338D01*
X123052985Y-52314299D01*
X123061934Y-52302344D01*
X130095000Y-52302344D01*
X130101401Y-52361872D01*
X130101403Y-52361879D01*
X130151645Y-52496586D01*
X130151649Y-52496593D01*
X130237809Y-52611687D01*
X130237812Y-52611690D01*
X130352906Y-52697850D01*
X130352913Y-52697854D01*
X130487620Y-52748096D01*
X130487627Y-52748098D01*
X130547155Y-52754499D01*
X130547172Y-52754500D01*
X131195000Y-52754500D01*
X131195000Y-51840001D01*
X131302685Y-51889180D01*
X131409237Y-51904500D01*
X131480763Y-51904500D01*
X131587315Y-51889180D01*
X131695000Y-51840001D01*
X131695000Y-52754500D01*
X132342828Y-52754500D01*
X132342844Y-52754499D01*
X132402372Y-52748098D01*
X132402379Y-52748096D01*
X132537086Y-52697854D01*
X132537093Y-52697850D01*
X132652187Y-52611690D01*
X132652190Y-52611687D01*
X132738350Y-52496593D01*
X132738354Y-52496586D01*
X132788596Y-52361879D01*
X132788598Y-52361872D01*
X132794999Y-52302344D01*
X132795000Y-52302327D01*
X132795000Y-51901686D01*
X132814685Y-51834647D01*
X132867489Y-51788892D01*
X132936647Y-51778948D01*
X133000203Y-51807973D01*
X133028356Y-51843229D01*
X133107315Y-51990950D01*
X133135499Y-52025293D01*
X133238589Y-52150910D01*
X133327874Y-52224183D01*
X133398550Y-52282185D01*
X133581046Y-52379732D01*
X133779066Y-52439800D01*
X133779065Y-52439800D01*
X133797529Y-52441618D01*
X133985000Y-52460083D01*
X134190934Y-52439800D01*
X134388954Y-52379732D01*
X134571450Y-52282185D01*
X134731410Y-52150910D01*
X134862685Y-51990950D01*
X134960232Y-51808454D01*
X135020300Y-51610434D01*
X135040583Y-51404500D01*
X135469417Y-51404500D01*
X135489699Y-51610432D01*
X135507308Y-51668482D01*
X135549768Y-51808454D01*
X135647315Y-51990950D01*
X135675499Y-52025293D01*
X135778589Y-52150910D01*
X135867874Y-52224183D01*
X135938550Y-52282185D01*
X136121046Y-52379732D01*
X136136496Y-52384418D01*
X136194932Y-52422712D01*
X136223390Y-52486524D01*
X136224500Y-52503078D01*
X136224500Y-53672900D01*
X136204815Y-53739939D01*
X136152011Y-53785694D01*
X136117563Y-53793187D01*
X136117916Y-53795638D01*
X136109136Y-53796900D01*
X135971049Y-53837445D01*
X135849973Y-53915256D01*
X135755723Y-54024026D01*
X135755722Y-54024028D01*
X135695934Y-54154943D01*
X135675453Y-54297400D01*
X135695934Y-54439856D01*
X135748745Y-54555493D01*
X135755723Y-54570773D01*
X135849972Y-54679543D01*
X135971047Y-54757353D01*
X135971050Y-54757354D01*
X135971049Y-54757354D01*
X136066428Y-54785359D01*
X136107950Y-54797551D01*
X136109136Y-54797899D01*
X136109138Y-54797900D01*
X136109139Y-54797900D01*
X136253062Y-54797900D01*
X136253062Y-54797899D01*
X136363301Y-54765531D01*
X136391150Y-54757354D01*
X136391150Y-54757353D01*
X136391153Y-54757353D01*
X136512228Y-54679543D01*
X136606477Y-54570773D01*
X136666265Y-54439857D01*
X136686747Y-54297400D01*
X136685727Y-54290309D01*
X136695667Y-54221154D01*
X136716823Y-54189126D01*
X136740487Y-54163167D01*
X136744402Y-54159067D01*
X136757174Y-54146297D01*
X136757175Y-54146296D01*
X136760282Y-54142554D01*
X136766916Y-54134176D01*
X136784916Y-54114433D01*
X136787416Y-54107978D01*
X136800749Y-54082682D01*
X136804656Y-54076981D01*
X136810770Y-54050981D01*
X136815846Y-54034589D01*
X136825500Y-54009673D01*
X136825500Y-54002748D01*
X136828795Y-53974355D01*
X136830378Y-53967623D01*
X136830379Y-53967619D01*
X136826689Y-53941165D01*
X136825500Y-53924035D01*
X136825500Y-52503078D01*
X136845185Y-52436039D01*
X136897989Y-52390284D01*
X136913488Y-52384423D01*
X136928954Y-52379732D01*
X137111450Y-52282185D01*
X137271410Y-52150910D01*
X137402685Y-51990950D01*
X137500232Y-51808454D01*
X137560300Y-51610434D01*
X137580583Y-51404500D01*
X137560300Y-51198566D01*
X137500232Y-51000546D01*
X137402685Y-50818050D01*
X137341291Y-50743241D01*
X137271410Y-50658089D01*
X137111452Y-50526817D01*
X137111453Y-50526817D01*
X137111450Y-50526815D01*
X136928954Y-50429268D01*
X136730934Y-50369200D01*
X136730932Y-50369199D01*
X136730934Y-50369199D01*
X136525000Y-50348917D01*
X136319067Y-50369199D01*
X136154895Y-50419000D01*
X136121050Y-50429267D01*
X136121043Y-50429269D01*
X136080132Y-50451137D01*
X135938550Y-50526815D01*
X135938548Y-50526816D01*
X135938547Y-50526817D01*
X135778589Y-50658089D01*
X135648861Y-50816166D01*
X135647315Y-50818050D01*
X135624195Y-50861305D01*
X135549769Y-51000543D01*
X135489699Y-51198567D01*
X135469417Y-51404500D01*
X135040583Y-51404500D01*
X135020300Y-51198566D01*
X134960232Y-51000546D01*
X134862685Y-50818050D01*
X134801291Y-50743241D01*
X134731410Y-50658089D01*
X134571452Y-50526817D01*
X134571453Y-50526817D01*
X134571450Y-50526815D01*
X134429868Y-50451137D01*
X134388953Y-50429267D01*
X134373504Y-50424581D01*
X134315066Y-50386284D01*
X134286609Y-50322471D01*
X134285500Y-50305921D01*
X134285500Y-44858136D01*
X134286689Y-44841005D01*
X134287771Y-44833239D01*
X134287773Y-44833235D01*
X134285632Y-44786920D01*
X134285500Y-44781195D01*
X134285500Y-44763159D01*
X134285046Y-44758266D01*
X134283817Y-44747680D01*
X134283594Y-44742855D01*
X134282585Y-44721008D01*
X134279788Y-44714675D01*
X134271332Y-44687368D01*
X134270061Y-44680567D01*
X134255999Y-44657856D01*
X134247998Y-44642678D01*
X134237206Y-44618235D01*
X134232309Y-44613338D01*
X134214563Y-44590934D01*
X134210918Y-44585047D01*
X134210917Y-44585046D01*
X134189602Y-44568950D01*
X134176648Y-44557677D01*
X131420595Y-41801624D01*
X131387110Y-41740301D01*
X131385539Y-41696294D01*
X131386847Y-41687200D01*
X131366365Y-41544743D01*
X131306577Y-41413827D01*
X131212328Y-41305057D01*
X131091253Y-41227247D01*
X131091251Y-41227246D01*
X131091249Y-41227245D01*
X131091250Y-41227245D01*
X130953163Y-41186700D01*
X130953161Y-41186700D01*
X130809239Y-41186700D01*
X130809236Y-41186700D01*
X130671149Y-41227245D01*
X130550073Y-41305056D01*
X130455823Y-41413826D01*
X130455822Y-41413828D01*
X130396034Y-41544743D01*
X130375553Y-41687200D01*
X130396034Y-41829656D01*
X130427547Y-41898658D01*
X130455823Y-41960573D01*
X130550072Y-42069343D01*
X130671147Y-42147153D01*
X130671150Y-42147154D01*
X130671149Y-42147154D01*
X130737899Y-42166753D01*
X130806480Y-42186890D01*
X130809236Y-42187699D01*
X130809238Y-42187700D01*
X130905367Y-42187700D01*
X130972406Y-42207385D01*
X130993048Y-42224019D01*
X133648181Y-44879152D01*
X133681666Y-44940475D01*
X133684500Y-44966833D01*
X133684500Y-50305921D01*
X133664815Y-50372960D01*
X133612011Y-50418715D01*
X133596496Y-50424581D01*
X133581046Y-50429267D01*
X133450358Y-50499122D01*
X133398550Y-50526815D01*
X133398548Y-50526816D01*
X133398547Y-50526817D01*
X133238589Y-50658089D01*
X133108861Y-50816166D01*
X133107315Y-50818050D01*
X133061106Y-50904500D01*
X133028358Y-50965767D01*
X132979395Y-51015611D01*
X132911257Y-51031071D01*
X132845578Y-51007239D01*
X132803209Y-50951681D01*
X132795000Y-50907313D01*
X132795000Y-50506672D01*
X132794999Y-50506655D01*
X132788598Y-50447127D01*
X132788596Y-50447120D01*
X132738354Y-50312413D01*
X132738350Y-50312406D01*
X132652190Y-50197312D01*
X132652187Y-50197309D01*
X132537093Y-50111149D01*
X132537086Y-50111145D01*
X132402379Y-50060903D01*
X132402372Y-50060901D01*
X132342844Y-50054500D01*
X131695000Y-50054500D01*
X131695000Y-50968998D01*
X131587315Y-50919820D01*
X131480763Y-50904500D01*
X131409237Y-50904500D01*
X131302685Y-50919820D01*
X131195000Y-50968998D01*
X131195000Y-50054500D01*
X130547155Y-50054500D01*
X130487627Y-50060901D01*
X130487620Y-50060903D01*
X130352913Y-50111145D01*
X130352906Y-50111149D01*
X130237812Y-50197309D01*
X130237809Y-50197312D01*
X130151649Y-50312406D01*
X130151645Y-50312413D01*
X130101403Y-50447120D01*
X130101401Y-50447127D01*
X130095000Y-50506655D01*
X130095000Y-51154500D01*
X131011314Y-51154500D01*
X130985507Y-51194656D01*
X130945000Y-51332611D01*
X130945000Y-51476389D01*
X130985507Y-51614344D01*
X131011314Y-51654500D01*
X130095000Y-51654500D01*
X130095000Y-52302344D01*
X123061934Y-52302344D01*
X123063587Y-52300135D01*
X123063924Y-52299744D01*
X123063928Y-52299743D01*
X123158177Y-52190973D01*
X123217965Y-52060057D01*
X123238447Y-51917600D01*
X123217965Y-51775143D01*
X123158177Y-51644227D01*
X123063928Y-51535457D01*
X122942853Y-51457647D01*
X122942851Y-51457646D01*
X122942849Y-51457645D01*
X122942850Y-51457645D01*
X122804763Y-51417100D01*
X122804761Y-51417100D01*
X122660839Y-51417100D01*
X122660836Y-51417100D01*
X122522749Y-51457645D01*
X122401673Y-51535456D01*
X122307423Y-51644226D01*
X122307422Y-51644228D01*
X122247634Y-51775143D01*
X122227153Y-51917600D01*
X122247634Y-52060056D01*
X122304717Y-52185048D01*
X122307423Y-52190973D01*
X122401672Y-52299743D01*
X122401675Y-52299744D01*
X122402013Y-52300135D01*
X122431038Y-52363691D01*
X122432300Y-52381338D01*
X122432300Y-52510861D01*
X122431112Y-52527988D01*
X122430027Y-52535765D01*
X122432168Y-52582079D01*
X122432300Y-52587804D01*
X122432300Y-52605842D01*
X122432747Y-52610671D01*
X122433981Y-52621305D01*
X122435215Y-52647992D01*
X122435216Y-52647997D01*
X122438014Y-52654334D01*
X122446464Y-52681620D01*
X122447737Y-52688429D01*
X122447738Y-52688432D01*
X122450779Y-52693343D01*
X122469332Y-52760704D01*
X122448522Y-52827403D01*
X122394956Y-52872262D01*
X122325640Y-52881040D01*
X122262582Y-52850950D01*
X122257669Y-52846298D01*
X121596419Y-52185048D01*
X121562934Y-52123725D01*
X121560100Y-52097367D01*
X121560100Y-47701200D01*
X121871553Y-47701200D01*
X121892034Y-47843656D01*
X121951822Y-47974571D01*
X121951823Y-47974573D01*
X122046072Y-48083343D01*
X122167147Y-48161153D01*
X122167150Y-48161154D01*
X122167149Y-48161154D01*
X122305236Y-48201699D01*
X122305238Y-48201700D01*
X122305239Y-48201700D01*
X122449162Y-48201700D01*
X122449162Y-48201699D01*
X122587253Y-48161153D01*
X122708328Y-48083343D01*
X122802577Y-47974573D01*
X122862365Y-47843657D01*
X122882847Y-47701200D01*
X122881539Y-47692106D01*
X122891479Y-47622950D01*
X122916592Y-47586778D01*
X123125754Y-47377618D01*
X123187078Y-47344134D01*
X123213435Y-47341300D01*
X128979899Y-47341300D01*
X129046938Y-47360985D01*
X129073611Y-47384096D01*
X129107272Y-47422943D01*
X129228347Y-47500753D01*
X129228350Y-47500754D01*
X129228349Y-47500754D01*
X129366436Y-47541299D01*
X129366438Y-47541300D01*
X129366439Y-47541300D01*
X129510362Y-47541300D01*
X129510362Y-47541299D01*
X129648453Y-47500753D01*
X129769528Y-47422943D01*
X129863777Y-47314173D01*
X129923565Y-47183257D01*
X129944047Y-47040800D01*
X129923565Y-46898343D01*
X129863777Y-46767427D01*
X129769528Y-46658657D01*
X129648453Y-46580847D01*
X129648451Y-46580846D01*
X129648449Y-46580845D01*
X129648450Y-46580845D01*
X129510363Y-46540300D01*
X129510361Y-46540300D01*
X129366439Y-46540300D01*
X129366436Y-46540300D01*
X129228349Y-46580845D01*
X129107273Y-46658656D01*
X129073612Y-46697503D01*
X129014833Y-46735277D01*
X128979899Y-46740300D01*
X123104739Y-46740300D01*
X123087611Y-46739111D01*
X123079839Y-46738027D01*
X123079836Y-46738027D01*
X123039573Y-46739888D01*
X123033521Y-46740168D01*
X123027796Y-46740300D01*
X123009756Y-46740300D01*
X123009751Y-46740300D01*
X123004932Y-46740747D01*
X122994296Y-46741981D01*
X122967607Y-46743215D01*
X122967606Y-46743215D01*
X122961265Y-46746015D01*
X122933979Y-46754464D01*
X122927172Y-46755736D01*
X122927166Y-46755739D01*
X122904454Y-46769800D01*
X122889274Y-46777801D01*
X122864837Y-46788592D01*
X122859936Y-46793493D01*
X122837542Y-46811231D01*
X122831648Y-46814880D01*
X122815549Y-46836198D01*
X122804279Y-46849148D01*
X122489047Y-47164381D01*
X122427724Y-47197866D01*
X122401366Y-47200700D01*
X122305236Y-47200700D01*
X122167149Y-47241245D01*
X122046073Y-47319056D01*
X121951823Y-47427826D01*
X121951822Y-47427828D01*
X121892034Y-47558743D01*
X121871553Y-47701200D01*
X121560100Y-47701200D01*
X121560100Y-46505432D01*
X121579785Y-46438393D01*
X121596414Y-46417756D01*
X125996611Y-42017558D01*
X126009563Y-42006288D01*
X126015823Y-42001560D01*
X126015828Y-42001558D01*
X126047088Y-41967266D01*
X126051002Y-41963167D01*
X126063774Y-41950397D01*
X126063775Y-41950396D01*
X126066882Y-41946654D01*
X126073516Y-41938276D01*
X126091516Y-41918533D01*
X126094016Y-41912078D01*
X126107349Y-41886782D01*
X126111256Y-41881081D01*
X126117370Y-41855081D01*
X126122446Y-41838689D01*
X126132100Y-41813773D01*
X126132100Y-41806848D01*
X126135395Y-41778455D01*
X126136978Y-41771723D01*
X126136979Y-41771719D01*
X126133289Y-41745265D01*
X126132100Y-41728135D01*
X126132100Y-40646538D01*
X126151785Y-40579499D01*
X126162387Y-40565335D01*
X126162724Y-40564944D01*
X126162728Y-40564943D01*
X126256977Y-40456173D01*
X126316765Y-40325257D01*
X126337247Y-40182800D01*
X126316765Y-40040343D01*
X126256977Y-39909427D01*
X126162728Y-39800657D01*
X126041653Y-39722847D01*
X126041651Y-39722846D01*
X126041649Y-39722845D01*
X126041650Y-39722845D01*
X125903563Y-39682300D01*
X125903561Y-39682300D01*
X125759639Y-39682300D01*
X125759636Y-39682300D01*
X125621549Y-39722845D01*
X125500473Y-39800656D01*
X125406223Y-39909426D01*
X125406222Y-39909428D01*
X125346434Y-40040343D01*
X125325953Y-40182800D01*
X125346434Y-40325256D01*
X125396448Y-40434769D01*
X125406223Y-40456173D01*
X125500472Y-40564943D01*
X125500475Y-40564944D01*
X125500813Y-40565335D01*
X125529838Y-40628891D01*
X125531100Y-40646538D01*
X125531100Y-41581766D01*
X125511415Y-41648805D01*
X125494781Y-41669447D01*
X121094586Y-46069641D01*
X121081635Y-46080912D01*
X121075367Y-46085644D01*
X121044122Y-46119918D01*
X121040174Y-46124053D01*
X121027427Y-46136800D01*
X121024346Y-46140511D01*
X121017685Y-46148919D01*
X120999683Y-46168666D01*
X120999683Y-46168667D01*
X120997178Y-46175133D01*
X120983859Y-46200402D01*
X120979945Y-46206115D01*
X120979943Y-46206120D01*
X120973828Y-46232117D01*
X120968751Y-46248513D01*
X120959100Y-46273426D01*
X120959100Y-46280351D01*
X120955806Y-46308741D01*
X120954221Y-46315477D01*
X120954221Y-46315482D01*
X120957911Y-46341933D01*
X120959100Y-46359064D01*
X120959100Y-52206061D01*
X120957912Y-52223188D01*
X120956827Y-52230965D01*
X120958968Y-52277279D01*
X120959100Y-52283004D01*
X120959100Y-52301042D01*
X120959547Y-52305871D01*
X120960781Y-52316505D01*
X120962015Y-52343192D01*
X120962016Y-52343197D01*
X120964814Y-52349534D01*
X120973264Y-52376820D01*
X120974537Y-52383629D01*
X120974537Y-52383630D01*
X120974539Y-52383633D01*
X120988601Y-52406346D01*
X120996597Y-52421515D01*
X121007394Y-52445965D01*
X121007395Y-52445966D01*
X121007396Y-52445968D01*
X121012289Y-52450861D01*
X121030035Y-52473265D01*
X121033677Y-52479148D01*
X121033679Y-52479150D01*
X121033680Y-52479151D01*
X121033681Y-52479152D01*
X121044744Y-52487506D01*
X121054996Y-52495248D01*
X121067950Y-52506521D01*
X122565081Y-54003652D01*
X122598566Y-54064975D01*
X122601400Y-54091333D01*
X122601400Y-55698820D01*
X122581715Y-55765859D01*
X122528911Y-55811614D01*
X122459753Y-55821558D01*
X122396197Y-55792533D01*
X122364606Y-55750332D01*
X122354557Y-55728328D01*
X122345377Y-55708227D01*
X122251128Y-55599457D01*
X122130053Y-55521647D01*
X122130051Y-55521646D01*
X122130049Y-55521645D01*
X122130050Y-55521645D01*
X121991963Y-55481100D01*
X121991961Y-55481100D01*
X121848039Y-55481100D01*
X121848036Y-55481100D01*
X121709949Y-55521645D01*
X121588873Y-55599456D01*
X121588872Y-55599456D01*
X121588872Y-55599457D01*
X121574369Y-55616195D01*
X121555212Y-55638303D01*
X121496433Y-55676077D01*
X121461499Y-55681100D01*
X121145539Y-55681100D01*
X121128411Y-55679911D01*
X121120639Y-55678827D01*
X121120636Y-55678827D01*
X121080373Y-55680688D01*
X121074321Y-55680968D01*
X121068596Y-55681100D01*
X121050556Y-55681100D01*
X121050551Y-55681100D01*
X121045732Y-55681547D01*
X121035096Y-55682781D01*
X121008407Y-55684015D01*
X121008406Y-55684015D01*
X121002065Y-55686815D01*
X120974779Y-55695264D01*
X120967972Y-55696536D01*
X120967966Y-55696539D01*
X120945254Y-55710600D01*
X120930074Y-55718601D01*
X120905637Y-55729392D01*
X120900736Y-55734293D01*
X120878342Y-55752031D01*
X120872448Y-55755680D01*
X120856349Y-55776998D01*
X120845079Y-55789948D01*
X118147848Y-58487181D01*
X118086525Y-58520666D01*
X118060167Y-58523500D01*
X117722438Y-58523500D01*
X117705310Y-58522311D01*
X117697538Y-58521227D01*
X117697535Y-58521227D01*
X117657272Y-58523088D01*
X117651220Y-58523368D01*
X117645495Y-58523500D01*
X117627456Y-58523500D01*
X117627451Y-58523500D01*
X117622626Y-58523948D01*
X117611997Y-58525181D01*
X117585308Y-58526415D01*
X117578963Y-58529215D01*
X117551680Y-58537665D01*
X117544868Y-58538938D01*
X117544867Y-58538939D01*
X117522157Y-58552999D01*
X117506978Y-58561000D01*
X117482535Y-58571793D01*
X117477636Y-58576693D01*
X117455242Y-58594431D01*
X117449348Y-58598080D01*
X117433249Y-58619398D01*
X117421979Y-58632348D01*
X112251819Y-63802508D01*
X112190496Y-63835993D01*
X112120804Y-63831009D01*
X112064871Y-63789137D01*
X112040454Y-63723673D01*
X112041400Y-63697179D01*
X112041963Y-63693260D01*
X112041965Y-63693257D01*
X112062447Y-63550800D01*
X112041965Y-63408343D01*
X111982177Y-63277427D01*
X111982175Y-63277425D01*
X111982174Y-63277422D01*
X111887587Y-63168262D01*
X111858562Y-63104706D01*
X111857300Y-63087060D01*
X111857300Y-60733085D01*
X111876985Y-60666046D01*
X111929789Y-60620291D01*
X111946359Y-60614109D01*
X111970053Y-60607153D01*
X112091128Y-60529343D01*
X112185377Y-60420573D01*
X112245165Y-60289657D01*
X112265647Y-60147200D01*
X112245165Y-60004743D01*
X112185377Y-59873827D01*
X112091128Y-59765057D01*
X111970053Y-59687247D01*
X111970051Y-59687246D01*
X111970049Y-59687245D01*
X111970050Y-59687245D01*
X111831963Y-59646700D01*
X111831961Y-59646700D01*
X111688039Y-59646700D01*
X111688036Y-59646700D01*
X111549949Y-59687245D01*
X111428873Y-59765056D01*
X111334623Y-59873826D01*
X111334622Y-59873828D01*
X111274834Y-60004743D01*
X111254353Y-60147200D01*
X111265674Y-60225945D01*
X111258564Y-60288381D01*
X111256300Y-60294225D01*
X111256300Y-60301151D01*
X111253006Y-60329541D01*
X111251421Y-60336277D01*
X111251421Y-60336282D01*
X111255111Y-60362733D01*
X111256300Y-60379864D01*
X111256300Y-63087060D01*
X111236615Y-63154099D01*
X111226013Y-63168262D01*
X111131425Y-63277422D01*
X111131422Y-63277428D01*
X111071634Y-63408343D01*
X111051153Y-63550800D01*
X111071634Y-63693256D01*
X111094422Y-63743153D01*
X111131423Y-63824173D01*
X111225672Y-63932943D01*
X111346747Y-64010753D01*
X111346750Y-64010754D01*
X111346749Y-64010754D01*
X111484836Y-64051299D01*
X111484838Y-64051300D01*
X111484839Y-64051300D01*
X111628761Y-64051300D01*
X111692458Y-64032597D01*
X111762325Y-64032597D01*
X111821103Y-64070370D01*
X111850129Y-64133926D01*
X111840186Y-64203084D01*
X111815072Y-64239255D01*
X107049148Y-69005181D01*
X106987825Y-69038666D01*
X106961467Y-69041500D01*
X106935301Y-69041500D01*
X106868262Y-69021815D01*
X106841588Y-68998703D01*
X106836779Y-68993153D01*
X106807928Y-68959857D01*
X106686853Y-68882047D01*
X106686851Y-68882046D01*
X106686849Y-68882045D01*
X106686850Y-68882045D01*
X106631624Y-68865830D01*
X106572846Y-68828056D01*
X106543820Y-68764501D01*
X106553763Y-68695342D01*
X106599517Y-68642538D01*
X106655528Y-68606543D01*
X106749777Y-68497773D01*
X106809565Y-68366857D01*
X106830047Y-68224400D01*
X106809565Y-68081943D01*
X106749777Y-67951027D01*
X106749775Y-67951025D01*
X106749774Y-67951022D01*
X106655187Y-67841862D01*
X106626162Y-67778306D01*
X106624900Y-67760660D01*
X106624900Y-64641032D01*
X106644585Y-64573993D01*
X106661214Y-64553356D01*
X110604211Y-60610358D01*
X110617163Y-60599088D01*
X110623423Y-60594360D01*
X110623428Y-60594358D01*
X110654688Y-60560066D01*
X110658602Y-60555967D01*
X110671374Y-60543197D01*
X110671375Y-60543196D01*
X110674482Y-60539454D01*
X110681116Y-60531076D01*
X110699116Y-60511333D01*
X110701617Y-60504876D01*
X110714950Y-60479584D01*
X110715510Y-60478766D01*
X110718857Y-60473881D01*
X110724972Y-60447878D01*
X110730054Y-60431471D01*
X110737930Y-60411143D01*
X110739700Y-60406573D01*
X110739700Y-60399648D01*
X110742994Y-60371256D01*
X110744579Y-60364519D01*
X110740889Y-60338065D01*
X110739700Y-60320935D01*
X110739700Y-56896000D01*
X115267553Y-56896000D01*
X115288034Y-57038456D01*
X115345985Y-57165349D01*
X115347823Y-57169373D01*
X115442072Y-57278143D01*
X115563147Y-57355953D01*
X115563150Y-57355954D01*
X115563149Y-57355954D01*
X115701236Y-57396499D01*
X115701238Y-57396500D01*
X115701239Y-57396500D01*
X115845162Y-57396500D01*
X115845162Y-57396499D01*
X115983253Y-57355953D01*
X116104328Y-57278143D01*
X116198577Y-57169373D01*
X116258365Y-57038457D01*
X116258365Y-57038453D01*
X116260865Y-57029944D01*
X116264473Y-57031003D01*
X116286001Y-56983613D01*
X116344704Y-56945721D01*
X116414573Y-56945581D01*
X116473427Y-56983238D01*
X116473578Y-56983411D01*
X116508872Y-57024143D01*
X116629947Y-57101953D01*
X116629950Y-57101954D01*
X116629949Y-57101954D01*
X116768036Y-57142499D01*
X116768038Y-57142500D01*
X116768039Y-57142500D01*
X116911962Y-57142500D01*
X116911962Y-57142499D01*
X117019121Y-57111035D01*
X117050050Y-57101954D01*
X117050050Y-57101953D01*
X117050053Y-57101953D01*
X117171128Y-57024143D01*
X117204788Y-56985296D01*
X117263567Y-56947523D01*
X117298501Y-56942500D01*
X118652462Y-56942500D01*
X118669590Y-56943689D01*
X118677361Y-56944772D01*
X118677361Y-56944771D01*
X118677365Y-56944773D01*
X118723680Y-56942632D01*
X118729405Y-56942500D01*
X118747443Y-56942500D01*
X118747444Y-56942500D01*
X118747444Y-56942499D01*
X118752331Y-56942046D01*
X118762918Y-56940817D01*
X118789592Y-56939585D01*
X118789603Y-56939579D01*
X118792238Y-56938961D01*
X118799049Y-56939147D01*
X118801071Y-56939054D01*
X118801077Y-56939202D01*
X118841730Y-56940315D01*
X118842058Y-56938038D01*
X118850837Y-56939300D01*
X118850839Y-56939300D01*
X118994762Y-56939300D01*
X118994762Y-56939299D01*
X119104405Y-56907106D01*
X119132850Y-56898754D01*
X119132850Y-56898753D01*
X119132853Y-56898753D01*
X119253928Y-56820943D01*
X119348177Y-56712173D01*
X119407965Y-56581257D01*
X119428447Y-56438800D01*
X119407965Y-56296343D01*
X119348177Y-56165427D01*
X119253928Y-56056657D01*
X119132853Y-55978847D01*
X119132851Y-55978846D01*
X119132849Y-55978845D01*
X119132850Y-55978845D01*
X118994763Y-55938300D01*
X118994761Y-55938300D01*
X118850839Y-55938300D01*
X118850836Y-55938300D01*
X118712749Y-55978845D01*
X118591673Y-56056656D01*
X118497423Y-56165426D01*
X118497422Y-56165428D01*
X118463370Y-56239991D01*
X118451950Y-56264999D01*
X118450117Y-56269012D01*
X118404362Y-56321816D01*
X118337323Y-56341500D01*
X117298501Y-56341500D01*
X117231462Y-56321815D01*
X117204788Y-56298703D01*
X117202743Y-56296343D01*
X117171128Y-56259857D01*
X117050053Y-56182047D01*
X117050050Y-56182045D01*
X116970257Y-56158616D01*
X116911479Y-56120841D01*
X116882454Y-56057286D01*
X116892398Y-55988127D01*
X116917508Y-55951961D01*
X117729852Y-55139619D01*
X117791175Y-55106134D01*
X117817533Y-55103300D01*
X120728099Y-55103300D01*
X120795138Y-55122985D01*
X120821811Y-55146096D01*
X120855472Y-55184943D01*
X120976547Y-55262753D01*
X120976550Y-55262754D01*
X120976549Y-55262754D01*
X121114636Y-55303299D01*
X121114638Y-55303300D01*
X121114639Y-55303300D01*
X121258562Y-55303300D01*
X121258562Y-55303299D01*
X121396653Y-55262753D01*
X121517728Y-55184943D01*
X121611977Y-55076173D01*
X121671765Y-54945257D01*
X121692247Y-54802800D01*
X121671765Y-54660343D01*
X121611977Y-54529427D01*
X121517728Y-54420657D01*
X121396653Y-54342847D01*
X121396651Y-54342846D01*
X121396649Y-54342845D01*
X121396650Y-54342845D01*
X121258563Y-54302300D01*
X121258561Y-54302300D01*
X121114639Y-54302300D01*
X121114636Y-54302300D01*
X120976549Y-54342845D01*
X120855473Y-54420656D01*
X120855472Y-54420656D01*
X120855472Y-54420657D01*
X120823568Y-54457477D01*
X120821812Y-54459503D01*
X120763033Y-54497277D01*
X120728099Y-54502300D01*
X117708838Y-54502300D01*
X117691710Y-54501111D01*
X117683938Y-54500027D01*
X117683935Y-54500027D01*
X117643672Y-54501888D01*
X117637620Y-54502168D01*
X117631895Y-54502300D01*
X117613856Y-54502300D01*
X117613851Y-54502300D01*
X117609026Y-54502748D01*
X117598397Y-54503981D01*
X117571708Y-54505215D01*
X117565363Y-54508015D01*
X117538080Y-54516465D01*
X117531268Y-54517738D01*
X117531267Y-54517739D01*
X117508557Y-54531799D01*
X117493378Y-54539800D01*
X117468935Y-54550593D01*
X117464036Y-54555493D01*
X117441642Y-54573231D01*
X117435748Y-54576880D01*
X117419649Y-54598198D01*
X117408379Y-54611148D01*
X115614313Y-56405214D01*
X115570647Y-56431126D01*
X115571213Y-56432364D01*
X115563145Y-56436048D01*
X115442073Y-56513856D01*
X115347823Y-56622626D01*
X115347822Y-56622628D01*
X115288034Y-56753543D01*
X115267553Y-56896000D01*
X110739700Y-56896000D01*
X110739700Y-55693136D01*
X110740889Y-55676005D01*
X110741971Y-55668239D01*
X110741973Y-55668235D01*
X110739832Y-55621920D01*
X110739700Y-55616195D01*
X110739700Y-55598159D01*
X110739246Y-55593266D01*
X110738017Y-55582680D01*
X110737961Y-55581465D01*
X110736785Y-55556008D01*
X110733988Y-55549675D01*
X110725532Y-55522368D01*
X110724261Y-55515567D01*
X110710199Y-55492856D01*
X110702198Y-55477678D01*
X110691406Y-55453235D01*
X110686509Y-55448338D01*
X110668763Y-55425934D01*
X110665118Y-55420047D01*
X110665117Y-55420046D01*
X110643802Y-55403950D01*
X110630848Y-55392677D01*
X106598576Y-51360405D01*
X106565091Y-51299082D01*
X106570075Y-51229390D01*
X106582447Y-51204905D01*
X106658924Y-51087849D01*
X106752157Y-50875300D01*
X106809134Y-50650305D01*
X106809135Y-50650297D01*
X106828300Y-50419006D01*
X107517700Y-50419006D01*
X107536864Y-50650297D01*
X107536866Y-50650308D01*
X107593842Y-50875300D01*
X107687075Y-51087848D01*
X107814016Y-51282147D01*
X107814019Y-51282151D01*
X107814021Y-51282153D01*
X107971216Y-51452913D01*
X107971219Y-51452915D01*
X107971222Y-51452918D01*
X108154365Y-51595464D01*
X108154371Y-51595468D01*
X108154374Y-51595470D01*
X108358497Y-51705936D01*
X108413254Y-51724734D01*
X108578015Y-51781297D01*
X108578017Y-51781297D01*
X108578019Y-51781298D01*
X108806951Y-51819500D01*
X108806952Y-51819500D01*
X109039048Y-51819500D01*
X109039049Y-51819500D01*
X109267981Y-51781298D01*
X109487503Y-51705936D01*
X109691626Y-51595470D01*
X109874784Y-51452913D01*
X110031979Y-51282153D01*
X110158924Y-51087849D01*
X110252157Y-50875300D01*
X110309134Y-50650305D01*
X110309135Y-50650297D01*
X110328300Y-50419006D01*
X111017700Y-50419006D01*
X111036864Y-50650297D01*
X111036866Y-50650308D01*
X111093842Y-50875300D01*
X111187075Y-51087848D01*
X111314016Y-51282147D01*
X111314019Y-51282151D01*
X111314021Y-51282153D01*
X111471216Y-51452913D01*
X111471219Y-51452915D01*
X111471222Y-51452918D01*
X111654365Y-51595464D01*
X111654371Y-51595468D01*
X111654374Y-51595470D01*
X111858497Y-51705936D01*
X111913254Y-51724734D01*
X112078015Y-51781297D01*
X112078017Y-51781297D01*
X112078019Y-51781298D01*
X112306951Y-51819500D01*
X112306952Y-51819500D01*
X112539048Y-51819500D01*
X112539049Y-51819500D01*
X112767981Y-51781298D01*
X112987503Y-51705936D01*
X113191626Y-51595470D01*
X113374784Y-51452913D01*
X113531979Y-51282153D01*
X113658924Y-51087849D01*
X113752157Y-50875300D01*
X113809134Y-50650305D01*
X113809135Y-50650297D01*
X113828300Y-50419006D01*
X114517700Y-50419006D01*
X114536864Y-50650297D01*
X114536866Y-50650308D01*
X114593842Y-50875300D01*
X114687075Y-51087848D01*
X114814016Y-51282147D01*
X114814019Y-51282151D01*
X114814021Y-51282153D01*
X114971216Y-51452913D01*
X114971219Y-51452915D01*
X114971222Y-51452918D01*
X115154365Y-51595464D01*
X115154371Y-51595468D01*
X115154374Y-51595470D01*
X115358497Y-51705936D01*
X115413254Y-51724734D01*
X115578015Y-51781297D01*
X115578017Y-51781297D01*
X115578019Y-51781298D01*
X115806951Y-51819500D01*
X115806952Y-51819500D01*
X116039048Y-51819500D01*
X116039049Y-51819500D01*
X116267981Y-51781298D01*
X116487503Y-51705936D01*
X116691626Y-51595470D01*
X116874784Y-51452913D01*
X117031979Y-51282153D01*
X117158924Y-51087849D01*
X117252157Y-50875300D01*
X117309134Y-50650305D01*
X117309135Y-50650297D01*
X117328300Y-50419006D01*
X117328300Y-50418993D01*
X117309135Y-50187702D01*
X117309133Y-50187691D01*
X117252157Y-49962699D01*
X117158924Y-49750151D01*
X117031983Y-49555852D01*
X117031980Y-49555849D01*
X117031979Y-49555847D01*
X116874784Y-49385087D01*
X116874779Y-49385083D01*
X116874777Y-49385081D01*
X116691634Y-49242535D01*
X116691628Y-49242531D01*
X116487504Y-49132064D01*
X116487495Y-49132061D01*
X116267984Y-49056702D01*
X116096282Y-49028050D01*
X116039049Y-49018500D01*
X115806951Y-49018500D01*
X115761164Y-49026140D01*
X115578015Y-49056702D01*
X115358504Y-49132061D01*
X115358495Y-49132064D01*
X115154371Y-49242531D01*
X115154365Y-49242535D01*
X114971222Y-49385081D01*
X114971219Y-49385084D01*
X114814016Y-49555852D01*
X114687075Y-49750151D01*
X114593842Y-49962699D01*
X114536866Y-50187691D01*
X114536864Y-50187702D01*
X114517700Y-50418993D01*
X114517700Y-50419006D01*
X113828300Y-50419006D01*
X113828300Y-50418993D01*
X113809135Y-50187702D01*
X113809133Y-50187691D01*
X113752157Y-49962699D01*
X113658924Y-49750151D01*
X113531983Y-49555852D01*
X113531980Y-49555849D01*
X113531979Y-49555847D01*
X113374784Y-49385087D01*
X113374779Y-49385083D01*
X113374777Y-49385081D01*
X113191634Y-49242535D01*
X113191628Y-49242531D01*
X112987504Y-49132064D01*
X112987495Y-49132061D01*
X112767984Y-49056702D01*
X112596282Y-49028050D01*
X112539049Y-49018500D01*
X112306951Y-49018500D01*
X112261164Y-49026140D01*
X112078015Y-49056702D01*
X111858504Y-49132061D01*
X111858495Y-49132064D01*
X111654371Y-49242531D01*
X111654365Y-49242535D01*
X111471222Y-49385081D01*
X111471219Y-49385084D01*
X111314016Y-49555852D01*
X111187075Y-49750151D01*
X111093842Y-49962699D01*
X111036866Y-50187691D01*
X111036864Y-50187702D01*
X111017700Y-50418993D01*
X111017700Y-50419006D01*
X110328300Y-50419006D01*
X110328300Y-50418993D01*
X110309135Y-50187702D01*
X110309133Y-50187691D01*
X110252157Y-49962699D01*
X110158924Y-49750151D01*
X110031983Y-49555852D01*
X110031980Y-49555849D01*
X110031979Y-49555847D01*
X109874784Y-49385087D01*
X109874779Y-49385083D01*
X109874777Y-49385081D01*
X109691634Y-49242535D01*
X109691628Y-49242531D01*
X109487504Y-49132064D01*
X109487495Y-49132061D01*
X109267984Y-49056702D01*
X109096282Y-49028050D01*
X109039049Y-49018500D01*
X108806951Y-49018500D01*
X108761164Y-49026140D01*
X108578015Y-49056702D01*
X108358504Y-49132061D01*
X108358495Y-49132064D01*
X108154371Y-49242531D01*
X108154365Y-49242535D01*
X107971222Y-49385081D01*
X107971219Y-49385084D01*
X107814016Y-49555852D01*
X107687075Y-49750151D01*
X107593842Y-49962699D01*
X107536866Y-50187691D01*
X107536864Y-50187702D01*
X107517700Y-50418993D01*
X107517700Y-50419006D01*
X106828300Y-50419006D01*
X106828300Y-50418993D01*
X106809135Y-50187702D01*
X106809133Y-50187691D01*
X106752157Y-49962699D01*
X106658924Y-49750151D01*
X106531983Y-49555852D01*
X106531980Y-49555849D01*
X106531979Y-49555847D01*
X106374784Y-49385087D01*
X106374779Y-49385083D01*
X106374777Y-49385081D01*
X106191634Y-49242535D01*
X106191628Y-49242531D01*
X105987504Y-49132064D01*
X105987495Y-49132061D01*
X105767984Y-49056702D01*
X105596282Y-49028050D01*
X105539049Y-49018500D01*
X105306951Y-49018500D01*
X105261164Y-49026140D01*
X105078015Y-49056702D01*
X104858504Y-49132061D01*
X104858495Y-49132064D01*
X104654371Y-49242531D01*
X104654365Y-49242535D01*
X104471222Y-49385081D01*
X104471219Y-49385084D01*
X104314016Y-49555852D01*
X104187076Y-49750149D01*
X104172156Y-49784165D01*
X104127199Y-49837650D01*
X104060463Y-49858340D01*
X103993136Y-49839665D01*
X103946592Y-49787555D01*
X103934600Y-49734354D01*
X103934600Y-48938836D01*
X103935789Y-48921705D01*
X103936871Y-48913939D01*
X103936873Y-48913935D01*
X103934732Y-48867620D01*
X103934600Y-48861895D01*
X103934600Y-48843859D01*
X103934146Y-48838966D01*
X103932917Y-48828380D01*
X103931685Y-48801708D01*
X103928886Y-48795370D01*
X103920433Y-48768073D01*
X103919161Y-48761267D01*
X103905102Y-48738562D01*
X103897098Y-48723376D01*
X103895158Y-48718983D01*
X103886306Y-48698934D01*
X103881409Y-48694037D01*
X103863661Y-48671631D01*
X103860019Y-48665748D01*
X103838706Y-48649653D01*
X103825753Y-48638381D01*
X102317162Y-47129791D01*
X102305887Y-47116835D01*
X102301155Y-47110568D01*
X102266883Y-47079325D01*
X102262760Y-47075389D01*
X102249997Y-47062626D01*
X102249996Y-47062625D01*
X102249994Y-47062623D01*
X102246277Y-47059537D01*
X102237879Y-47052884D01*
X102218133Y-47034884D01*
X102211670Y-47032380D01*
X102186392Y-47019056D01*
X102180681Y-47015144D01*
X102180678Y-47015143D01*
X102180679Y-47015143D01*
X102154683Y-47009028D01*
X102138289Y-47003951D01*
X102113374Y-46994300D01*
X102113373Y-46994300D01*
X102106449Y-46994300D01*
X102078058Y-46991006D01*
X102071319Y-46989421D01*
X102044866Y-46993111D01*
X102027736Y-46994300D01*
X92980338Y-46994300D01*
X92963210Y-46993111D01*
X92955438Y-46992027D01*
X92955435Y-46992027D01*
X92915172Y-46993888D01*
X92909120Y-46994168D01*
X92903395Y-46994300D01*
X92885356Y-46994300D01*
X92885351Y-46994300D01*
X92880526Y-46994748D01*
X92869897Y-46995981D01*
X92843208Y-46997215D01*
X92836863Y-47000015D01*
X92809580Y-47008465D01*
X92802768Y-47009738D01*
X92802767Y-47009739D01*
X92780057Y-47023799D01*
X92764878Y-47031800D01*
X92740435Y-47042593D01*
X92735536Y-47047493D01*
X92713142Y-47065231D01*
X92707248Y-47068880D01*
X92691149Y-47090198D01*
X92679879Y-47103148D01*
X91257986Y-48525041D01*
X91245035Y-48536312D01*
X91238767Y-48541044D01*
X91207522Y-48575318D01*
X91203574Y-48579453D01*
X91190827Y-48592200D01*
X91187746Y-48595911D01*
X91181085Y-48604319D01*
X91163083Y-48624066D01*
X91163083Y-48624067D01*
X91160578Y-48630533D01*
X91147259Y-48655802D01*
X91143345Y-48661515D01*
X91143343Y-48661520D01*
X91137228Y-48687517D01*
X91132151Y-48703913D01*
X91122500Y-48728826D01*
X91122500Y-48735751D01*
X91119206Y-48764141D01*
X91117621Y-48770877D01*
X91117621Y-48770882D01*
X91121311Y-48797333D01*
X91122500Y-48814464D01*
X91122500Y-48952897D01*
X91102815Y-49019936D01*
X91050011Y-49065691D01*
X91038763Y-49070178D01*
X90858504Y-49132061D01*
X90858495Y-49132064D01*
X90654371Y-49242531D01*
X90654365Y-49242535D01*
X90471222Y-49385081D01*
X90471219Y-49385084D01*
X90314016Y-49555852D01*
X90187075Y-49750151D01*
X90093842Y-49962699D01*
X90036866Y-50187691D01*
X90036864Y-50187702D01*
X90017700Y-50418993D01*
X90017700Y-50419006D01*
X90036864Y-50650297D01*
X90036866Y-50650308D01*
X90093842Y-50875300D01*
X90187075Y-51087848D01*
X90314016Y-51282147D01*
X90314019Y-51282151D01*
X90314021Y-51282153D01*
X90471216Y-51452913D01*
X90471219Y-51452915D01*
X90471222Y-51452918D01*
X90654365Y-51595464D01*
X90654371Y-51595468D01*
X90654374Y-51595470D01*
X90858497Y-51705936D01*
X90913254Y-51724734D01*
X91078015Y-51781297D01*
X91078017Y-51781297D01*
X91078019Y-51781298D01*
X91306951Y-51819500D01*
X91306952Y-51819500D01*
X91539048Y-51819500D01*
X91539049Y-51819500D01*
X91767981Y-51781298D01*
X91987503Y-51705936D01*
X92191626Y-51595470D01*
X92374784Y-51452913D01*
X92531979Y-51282153D01*
X92658924Y-51087849D01*
X92752157Y-50875300D01*
X92809134Y-50650305D01*
X92809135Y-50650297D01*
X92828300Y-50419006D01*
X92828300Y-50418993D01*
X92809135Y-50187702D01*
X92809133Y-50187691D01*
X92752157Y-49962699D01*
X92658924Y-49750151D01*
X92531983Y-49555852D01*
X92531980Y-49555849D01*
X92531979Y-49555847D01*
X92374784Y-49385087D01*
X92374779Y-49385083D01*
X92374777Y-49385081D01*
X92191634Y-49242535D01*
X92191628Y-49242531D01*
X91987504Y-49132064D01*
X91987495Y-49132061D01*
X91813144Y-49072206D01*
X91756129Y-49031821D01*
X91729998Y-48967021D01*
X91743049Y-48898381D01*
X91765723Y-48867247D01*
X93001352Y-47631619D01*
X93062675Y-47598134D01*
X93089033Y-47595300D01*
X101881367Y-47595300D01*
X101948406Y-47614985D01*
X101969048Y-47631619D01*
X103297281Y-48959852D01*
X103330766Y-49021175D01*
X103333600Y-49047533D01*
X103333600Y-49601003D01*
X103313915Y-49668042D01*
X103261111Y-49713797D01*
X103191953Y-49723741D01*
X103128397Y-49694716D01*
X103105791Y-49668825D01*
X103105279Y-49668042D01*
X103031979Y-49555847D01*
X102874784Y-49385087D01*
X102874779Y-49385083D01*
X102874777Y-49385081D01*
X102691634Y-49242535D01*
X102691628Y-49242531D01*
X102487504Y-49132064D01*
X102487495Y-49132061D01*
X102267984Y-49056702D01*
X102096282Y-49028050D01*
X102039049Y-49018500D01*
X101806951Y-49018500D01*
X101761164Y-49026140D01*
X101578015Y-49056702D01*
X101358504Y-49132061D01*
X101358495Y-49132064D01*
X101154371Y-49242531D01*
X101154365Y-49242535D01*
X100971222Y-49385081D01*
X100971219Y-49385084D01*
X100814016Y-49555852D01*
X100687076Y-49750149D01*
X100664856Y-49800807D01*
X100619899Y-49854292D01*
X100553163Y-49874982D01*
X100485835Y-49856307D01*
X100439292Y-49804196D01*
X100427300Y-49750996D01*
X100427300Y-49343137D01*
X100428489Y-49326006D01*
X100429571Y-49318240D01*
X100429573Y-49318236D01*
X100427432Y-49271921D01*
X100427300Y-49266196D01*
X100427300Y-49248159D01*
X100426846Y-49243266D01*
X100425617Y-49232680D01*
X100425470Y-49229500D01*
X100424385Y-49206009D01*
X100421588Y-49199676D01*
X100413132Y-49172370D01*
X100411861Y-49165567D01*
X100397803Y-49142862D01*
X100389795Y-49127670D01*
X100379007Y-49103237D01*
X100379006Y-49103236D01*
X100379006Y-49103235D01*
X100374109Y-49098338D01*
X100356363Y-49075934D01*
X100355011Y-49073751D01*
X100352719Y-49070048D01*
X100352718Y-49070047D01*
X100352717Y-49070046D01*
X100331402Y-49053950D01*
X100318448Y-49042677D01*
X99472362Y-48196591D01*
X99461087Y-48183635D01*
X99456355Y-48177368D01*
X99422083Y-48146125D01*
X99417960Y-48142189D01*
X99405197Y-48129426D01*
X99405196Y-48129425D01*
X99405194Y-48129423D01*
X99401477Y-48126337D01*
X99393079Y-48119684D01*
X99373333Y-48101684D01*
X99366870Y-48099180D01*
X99341592Y-48085856D01*
X99335881Y-48081944D01*
X99335878Y-48081943D01*
X99335879Y-48081943D01*
X99309883Y-48075828D01*
X99293489Y-48070751D01*
X99268574Y-48061100D01*
X99268573Y-48061100D01*
X99261649Y-48061100D01*
X99233258Y-48057806D01*
X99226519Y-48056221D01*
X99200066Y-48059911D01*
X99182936Y-48061100D01*
X97501538Y-48061100D01*
X97484410Y-48059911D01*
X97476638Y-48058827D01*
X97476635Y-48058827D01*
X97436372Y-48060688D01*
X97430320Y-48060968D01*
X97424595Y-48061100D01*
X97406556Y-48061100D01*
X97406551Y-48061100D01*
X97401726Y-48061548D01*
X97391097Y-48062781D01*
X97364408Y-48064015D01*
X97358063Y-48066815D01*
X97330780Y-48075265D01*
X97323968Y-48076538D01*
X97323967Y-48076539D01*
X97301257Y-48090599D01*
X97286078Y-48098600D01*
X97261635Y-48109393D01*
X97256736Y-48114293D01*
X97234342Y-48132031D01*
X97228448Y-48135680D01*
X97212349Y-48156998D01*
X97201079Y-48169948D01*
X96507986Y-48863041D01*
X96495035Y-48874312D01*
X96488767Y-48879044D01*
X96457522Y-48913318D01*
X96453574Y-48917453D01*
X96440827Y-48930200D01*
X96437746Y-48933911D01*
X96431085Y-48942319D01*
X96413083Y-48962066D01*
X96413083Y-48962067D01*
X96410578Y-48968533D01*
X96397259Y-48993802D01*
X96393345Y-48999515D01*
X96393343Y-48999520D01*
X96387228Y-49025517D01*
X96382151Y-49041913D01*
X96372500Y-49066826D01*
X96372500Y-49073751D01*
X96369206Y-49102141D01*
X96367621Y-49108877D01*
X96367621Y-49108882D01*
X96371311Y-49135333D01*
X96372500Y-49152464D01*
X96372500Y-49660544D01*
X96352815Y-49727583D01*
X96300011Y-49773338D01*
X96230853Y-49783282D01*
X96167297Y-49754257D01*
X96144691Y-49728366D01*
X96144179Y-49727583D01*
X96031979Y-49555847D01*
X95874784Y-49385087D01*
X95874779Y-49385083D01*
X95874777Y-49385081D01*
X95691634Y-49242535D01*
X95691628Y-49242531D01*
X95487504Y-49132064D01*
X95487495Y-49132061D01*
X95267984Y-49056702D01*
X95096282Y-49028050D01*
X95039049Y-49018500D01*
X94806951Y-49018500D01*
X94761164Y-49026140D01*
X94578015Y-49056702D01*
X94358504Y-49132061D01*
X94358495Y-49132064D01*
X94154371Y-49242531D01*
X94154365Y-49242535D01*
X93971222Y-49385081D01*
X93971219Y-49385084D01*
X93814016Y-49555852D01*
X93687075Y-49750151D01*
X93593842Y-49962699D01*
X93536866Y-50187691D01*
X93536864Y-50187702D01*
X93517700Y-50418993D01*
X93517700Y-50419006D01*
X93536864Y-50650297D01*
X93536866Y-50650308D01*
X93593842Y-50875300D01*
X93687075Y-51087848D01*
X93814016Y-51282147D01*
X93814019Y-51282151D01*
X93814021Y-51282153D01*
X93971216Y-51452913D01*
X93971219Y-51452915D01*
X93971222Y-51452918D01*
X94154365Y-51595464D01*
X94154371Y-51595468D01*
X94154374Y-51595470D01*
X94358497Y-51705936D01*
X94413254Y-51724734D01*
X94578015Y-51781297D01*
X94578017Y-51781297D01*
X94578019Y-51781298D01*
X94806951Y-51819500D01*
X94806952Y-51819500D01*
X95039048Y-51819500D01*
X95039049Y-51819500D01*
X95267981Y-51781298D01*
X95487503Y-51705936D01*
X95691626Y-51595470D01*
X95874784Y-51452913D01*
X96031979Y-51282153D01*
X96144691Y-51109633D01*
X96197837Y-51064277D01*
X96267069Y-51054853D01*
X96330404Y-51084355D01*
X96367736Y-51143415D01*
X96372500Y-51177455D01*
X96372500Y-52536766D01*
X96352815Y-52603805D01*
X96336181Y-52624447D01*
X94373786Y-54586841D01*
X94360835Y-54598112D01*
X94354567Y-54602844D01*
X94323322Y-54637118D01*
X94319374Y-54641253D01*
X94306627Y-54654000D01*
X94303546Y-54657711D01*
X94296885Y-54666119D01*
X94278883Y-54685866D01*
X94278883Y-54685867D01*
X94276378Y-54692333D01*
X94263059Y-54717602D01*
X94259145Y-54723315D01*
X94259143Y-54723320D01*
X94253028Y-54749317D01*
X94247951Y-54765713D01*
X94238300Y-54790626D01*
X94238300Y-54797551D01*
X94235006Y-54825941D01*
X94233421Y-54832677D01*
X94233421Y-54832682D01*
X94237111Y-54859133D01*
X94238300Y-54876264D01*
X94238300Y-55691646D01*
X94218615Y-55758685D01*
X94165811Y-55804440D01*
X94096653Y-55814384D01*
X94035635Y-55787499D01*
X93903539Y-55679090D01*
X93903532Y-55679086D01*
X93729733Y-55586188D01*
X93729727Y-55586186D01*
X93601442Y-55547271D01*
X93541129Y-55528975D01*
X93345000Y-55509659D01*
X93148870Y-55528975D01*
X92960266Y-55586188D01*
X92786467Y-55679086D01*
X92786460Y-55679090D01*
X92634119Y-55804114D01*
X92620753Y-55820401D01*
X92563006Y-55859735D01*
X92493162Y-55861604D01*
X92433394Y-55825417D01*
X92402678Y-55762661D01*
X92400900Y-55741735D01*
X92400900Y-55083536D01*
X92402089Y-55066405D01*
X92403171Y-55058639D01*
X92403173Y-55058635D01*
X92401032Y-55012320D01*
X92400900Y-55006595D01*
X92400900Y-54988559D01*
X92400446Y-54983666D01*
X92399217Y-54973080D01*
X92397985Y-54946408D01*
X92397476Y-54945256D01*
X92395187Y-54940071D01*
X92386733Y-54912773D01*
X92385461Y-54905967D01*
X92371402Y-54883262D01*
X92363398Y-54868076D01*
X92361247Y-54863205D01*
X92352606Y-54843634D01*
X92347709Y-54838737D01*
X92329961Y-54816331D01*
X92326319Y-54810448D01*
X92305006Y-54794353D01*
X92292053Y-54783081D01*
X90949562Y-53440591D01*
X90938287Y-53427635D01*
X90933555Y-53421368D01*
X90899283Y-53390125D01*
X90895160Y-53386189D01*
X90882397Y-53373426D01*
X90882396Y-53373425D01*
X90882394Y-53373423D01*
X90878677Y-53370337D01*
X90870279Y-53363684D01*
X90850533Y-53345684D01*
X90844070Y-53343180D01*
X90818792Y-53329856D01*
X90813081Y-53325944D01*
X90813078Y-53325943D01*
X90813079Y-53325943D01*
X90787083Y-53319828D01*
X90770689Y-53314751D01*
X90745774Y-53305100D01*
X90745773Y-53305100D01*
X90738849Y-53305100D01*
X90710458Y-53301806D01*
X90703719Y-53300221D01*
X90677266Y-53303911D01*
X90660136Y-53305100D01*
X90445501Y-53305100D01*
X90378462Y-53285415D01*
X90351788Y-53262303D01*
X90318128Y-53223457D01*
X90197053Y-53145647D01*
X90197051Y-53145646D01*
X90197049Y-53145645D01*
X90197050Y-53145645D01*
X90058963Y-53105100D01*
X90058961Y-53105100D01*
X89915039Y-53105100D01*
X89915036Y-53105100D01*
X89776949Y-53145645D01*
X89655873Y-53223456D01*
X89561623Y-53332226D01*
X89561622Y-53332228D01*
X89501834Y-53463143D01*
X89481353Y-53605600D01*
X89501834Y-53748056D01*
X89542658Y-53837447D01*
X89561623Y-53878973D01*
X89655872Y-53987743D01*
X89776947Y-54065553D01*
X89776950Y-54065554D01*
X89776949Y-54065554D01*
X89915036Y-54106099D01*
X89915038Y-54106100D01*
X89915039Y-54106100D01*
X90058962Y-54106100D01*
X90058962Y-54106099D01*
X90197053Y-54065553D01*
X90318128Y-53987743D01*
X90351788Y-53948896D01*
X90410567Y-53911123D01*
X90445501Y-53906100D01*
X90513767Y-53906100D01*
X90580806Y-53925785D01*
X90601448Y-53942419D01*
X91763581Y-55104552D01*
X91797066Y-55165875D01*
X91799900Y-55192233D01*
X91799900Y-55803635D01*
X91780215Y-55870674D01*
X91727411Y-55916429D01*
X91658253Y-55926373D01*
X91594697Y-55897348D01*
X91580047Y-55882300D01*
X91515883Y-55804116D01*
X91363539Y-55679090D01*
X91363532Y-55679086D01*
X91189733Y-55586188D01*
X91189727Y-55586186D01*
X91061442Y-55547271D01*
X91001129Y-55528975D01*
X90805000Y-55509659D01*
X90608870Y-55528975D01*
X90420266Y-55586188D01*
X90246467Y-55679086D01*
X90246460Y-55679090D01*
X90096465Y-55802189D01*
X90032155Y-55829502D01*
X89963287Y-55817711D01*
X89911727Y-55770559D01*
X89893800Y-55706336D01*
X89893800Y-55319637D01*
X89894989Y-55302506D01*
X89896071Y-55294740D01*
X89896073Y-55294736D01*
X89893932Y-55248421D01*
X89893800Y-55242696D01*
X89893800Y-55224659D01*
X89893346Y-55219766D01*
X89892117Y-55209180D01*
X89890997Y-55184943D01*
X89890885Y-55182509D01*
X89888088Y-55176176D01*
X89879632Y-55148870D01*
X89878361Y-55142067D01*
X89864303Y-55119362D01*
X89856295Y-55104170D01*
X89845507Y-55079737D01*
X89845506Y-55079736D01*
X89845506Y-55079735D01*
X89840609Y-55074838D01*
X89822863Y-55052434D01*
X89819218Y-55046547D01*
X89819217Y-55046546D01*
X89797902Y-55030450D01*
X89784948Y-55019177D01*
X88259819Y-53494048D01*
X88226334Y-53432725D01*
X88223500Y-53406367D01*
X88223500Y-51885102D01*
X88243185Y-51818063D01*
X88295989Y-51772308D01*
X88307238Y-51767821D01*
X88487492Y-51705940D01*
X88487495Y-51705938D01*
X88487503Y-51705936D01*
X88691626Y-51595470D01*
X88874784Y-51452913D01*
X89031979Y-51282153D01*
X89158924Y-51087849D01*
X89252157Y-50875300D01*
X89309134Y-50650305D01*
X89309135Y-50650297D01*
X89328300Y-50419006D01*
X89328300Y-50418993D01*
X89309135Y-50187702D01*
X89309133Y-50187691D01*
X89252157Y-49962699D01*
X89158924Y-49750151D01*
X89031983Y-49555852D01*
X89031980Y-49555849D01*
X89031979Y-49555847D01*
X88874784Y-49385087D01*
X88874779Y-49385083D01*
X88874777Y-49385081D01*
X88691634Y-49242535D01*
X88691628Y-49242531D01*
X88487504Y-49132064D01*
X88487495Y-49132061D01*
X88267984Y-49056702D01*
X88096282Y-49028050D01*
X88039049Y-49018500D01*
X87806951Y-49018500D01*
X87761164Y-49026140D01*
X87578015Y-49056702D01*
X87358504Y-49132061D01*
X87358495Y-49132064D01*
X87154371Y-49242531D01*
X87154365Y-49242535D01*
X86971222Y-49385081D01*
X86971219Y-49385084D01*
X86814016Y-49555852D01*
X86687075Y-49750151D01*
X86593842Y-49962699D01*
X86536866Y-50187691D01*
X86536864Y-50187702D01*
X86517700Y-50418993D01*
X86517700Y-50419006D01*
X86536864Y-50650297D01*
X86536866Y-50650308D01*
X86593842Y-50875300D01*
X86687075Y-51087848D01*
X86814016Y-51282147D01*
X86814019Y-51282151D01*
X86814021Y-51282153D01*
X86971216Y-51452913D01*
X86971219Y-51452915D01*
X86971222Y-51452918D01*
X87154365Y-51595464D01*
X87154371Y-51595468D01*
X87154374Y-51595470D01*
X87289288Y-51668482D01*
X87358495Y-51705935D01*
X87358507Y-51705940D01*
X87538762Y-51767821D01*
X87595778Y-51808206D01*
X87621909Y-51873005D01*
X87622500Y-51885102D01*
X87622500Y-53515061D01*
X87621312Y-53532188D01*
X87620227Y-53539965D01*
X87622368Y-53586279D01*
X87622500Y-53592004D01*
X87622500Y-53610042D01*
X87622947Y-53614871D01*
X87624181Y-53625505D01*
X87625415Y-53652192D01*
X87625416Y-53652197D01*
X87628214Y-53658534D01*
X87636664Y-53685820D01*
X87637937Y-53692629D01*
X87637937Y-53692630D01*
X87637939Y-53692633D01*
X87652001Y-53715346D01*
X87659997Y-53730515D01*
X87670794Y-53754965D01*
X87670795Y-53754966D01*
X87670796Y-53754968D01*
X87675689Y-53759861D01*
X87693435Y-53782265D01*
X87697077Y-53788148D01*
X87697079Y-53788150D01*
X87697080Y-53788151D01*
X87697081Y-53788152D01*
X87717758Y-53803766D01*
X87718396Y-53804248D01*
X87731350Y-53815521D01*
X89256481Y-55340652D01*
X89289966Y-55401975D01*
X89292800Y-55428333D01*
X89292800Y-55843723D01*
X89273115Y-55910762D01*
X89220311Y-55956517D01*
X89151153Y-55966461D01*
X89087597Y-55937436D01*
X89072947Y-55922388D01*
X88975883Y-55804116D01*
X88823539Y-55679090D01*
X88823532Y-55679086D01*
X88649733Y-55586188D01*
X88649727Y-55586186D01*
X88521442Y-55547271D01*
X88461129Y-55528975D01*
X88265000Y-55509659D01*
X88068870Y-55528975D01*
X87880266Y-55586188D01*
X87706467Y-55679086D01*
X87706460Y-55679090D01*
X87554116Y-55804116D01*
X87429090Y-55956460D01*
X87429086Y-55956467D01*
X87336188Y-56130266D01*
X87278975Y-56318870D01*
X87259659Y-56515000D01*
X87278975Y-56711129D01*
X87291841Y-56753543D01*
X87335055Y-56896000D01*
X87336188Y-56899733D01*
X87429086Y-57073532D01*
X87429090Y-57073539D01*
X87554116Y-57225883D01*
X87706460Y-57350909D01*
X87706467Y-57350913D01*
X87880266Y-57443811D01*
X87880269Y-57443811D01*
X87880273Y-57443814D01*
X88068868Y-57501024D01*
X88265000Y-57520341D01*
X88461132Y-57501024D01*
X88649727Y-57443814D01*
X88823538Y-57350910D01*
X88975883Y-57225883D01*
X89022260Y-57169373D01*
X89072947Y-57107611D01*
X89130693Y-57068277D01*
X89200537Y-57066406D01*
X89260305Y-57102594D01*
X89291021Y-57165349D01*
X89292800Y-57186276D01*
X89292800Y-57835256D01*
X89273115Y-57902295D01*
X89262513Y-57916458D01*
X89190810Y-57999207D01*
X89190807Y-57999213D01*
X89131019Y-58130128D01*
X89110538Y-58272585D01*
X89131019Y-58415041D01*
X89185814Y-58535023D01*
X89190808Y-58545958D01*
X89285057Y-58654728D01*
X89406132Y-58732538D01*
X89406135Y-58732539D01*
X89406134Y-58732539D01*
X89544221Y-58773084D01*
X89544223Y-58773085D01*
X89544224Y-58773085D01*
X89688147Y-58773085D01*
X89688147Y-58773084D01*
X89795306Y-58741620D01*
X89826235Y-58732539D01*
X89826235Y-58732538D01*
X89826238Y-58732538D01*
X89947313Y-58654728D01*
X90041562Y-58545958D01*
X90101350Y-58415042D01*
X90121832Y-58272585D01*
X90101350Y-58130128D01*
X90041562Y-57999212D01*
X90041560Y-57999210D01*
X90041559Y-57999207D01*
X89947318Y-57890447D01*
X89947315Y-57890444D01*
X89947313Y-57890442D01*
X89947310Y-57890440D01*
X89940613Y-57884637D01*
X89942211Y-57882792D01*
X89905002Y-57839846D01*
X89893800Y-57788342D01*
X89893800Y-57323663D01*
X89913485Y-57256624D01*
X89966289Y-57210869D01*
X90035447Y-57200925D01*
X90096465Y-57227810D01*
X90246460Y-57350909D01*
X90246467Y-57350913D01*
X90420273Y-57443814D01*
X90425897Y-57446144D01*
X90425020Y-57448260D01*
X90474917Y-57480945D01*
X90503387Y-57544751D01*
X90504500Y-57561328D01*
X90504500Y-58421966D01*
X90484815Y-58489005D01*
X90468181Y-58509647D01*
X86804586Y-62173241D01*
X86791635Y-62184512D01*
X86785367Y-62189244D01*
X86754122Y-62223518D01*
X86750174Y-62227653D01*
X86737427Y-62240400D01*
X86734346Y-62244111D01*
X86727685Y-62252519D01*
X86709683Y-62272266D01*
X86709683Y-62272267D01*
X86707178Y-62278733D01*
X86693859Y-62304002D01*
X86689945Y-62309715D01*
X86689943Y-62309720D01*
X86683828Y-62335717D01*
X86678751Y-62352113D01*
X86669100Y-62377026D01*
X86669100Y-62383951D01*
X86665806Y-62412341D01*
X86664221Y-62419077D01*
X86664221Y-62419082D01*
X86667911Y-62445533D01*
X86669100Y-62462664D01*
X86669100Y-70981735D01*
X86649415Y-71048774D01*
X86596611Y-71094529D01*
X86527453Y-71104473D01*
X86463897Y-71075448D01*
X86449247Y-71060401D01*
X86448261Y-71059200D01*
X86435883Y-71044117D01*
X86435881Y-71044115D01*
X86435880Y-71044114D01*
X86283539Y-70919090D01*
X86283532Y-70919086D01*
X86109733Y-70826188D01*
X86109727Y-70826186D01*
X85943331Y-70775710D01*
X85921129Y-70768975D01*
X85725000Y-70749659D01*
X85528870Y-70768975D01*
X85340266Y-70826188D01*
X85166467Y-70919086D01*
X85166460Y-70919090D01*
X85014116Y-71044116D01*
X84889090Y-71196460D01*
X84889086Y-71196467D01*
X84796188Y-71370266D01*
X84738975Y-71558870D01*
X84719659Y-71755000D01*
X84738975Y-71951129D01*
X84796188Y-72139733D01*
X84889086Y-72313532D01*
X84889090Y-72313539D01*
X85014116Y-72465883D01*
X85166460Y-72590909D01*
X85166467Y-72590913D01*
X85340266Y-72683811D01*
X85340269Y-72683811D01*
X85340273Y-72683814D01*
X85528868Y-72741024D01*
X85725000Y-72760341D01*
X85921132Y-72741024D01*
X86109727Y-72683814D01*
X86143682Y-72665665D01*
X86227002Y-72621129D01*
X86283538Y-72590910D01*
X86435883Y-72465883D01*
X86445295Y-72454415D01*
X86449246Y-72449601D01*
X86506991Y-72410265D01*
X86576835Y-72408394D01*
X86636604Y-72444580D01*
X86667321Y-72507336D01*
X86669100Y-72528264D01*
X86669100Y-72678461D01*
X86667912Y-72695588D01*
X86666827Y-72703365D01*
X86668968Y-72749679D01*
X86669100Y-72755404D01*
X86669100Y-72773442D01*
X86669547Y-72778271D01*
X86670781Y-72788905D01*
X86672015Y-72815592D01*
X86672016Y-72815597D01*
X86674814Y-72821934D01*
X86683264Y-72849220D01*
X86684537Y-72856029D01*
X86684537Y-72856030D01*
X86684539Y-72856033D01*
X86698601Y-72878746D01*
X86706597Y-72893915D01*
X86717394Y-72918365D01*
X86717395Y-72918366D01*
X86717396Y-72918368D01*
X86722289Y-72923261D01*
X86740035Y-72945665D01*
X86743677Y-72951548D01*
X86743679Y-72951550D01*
X86743680Y-72951551D01*
X86743681Y-72951552D01*
X86752036Y-72957861D01*
X86764996Y-72967648D01*
X86777950Y-72978921D01*
X91374942Y-77575914D01*
X91386213Y-77588866D01*
X91390939Y-77595125D01*
X91390941Y-77595127D01*
X91390942Y-77595128D01*
X91405761Y-77608637D01*
X91425206Y-77626364D01*
X91429347Y-77630319D01*
X91442101Y-77643073D01*
X91445842Y-77646179D01*
X91454234Y-77652827D01*
X91473962Y-77670812D01*
X91473965Y-77670814D01*
X91473967Y-77670816D01*
X91480423Y-77673317D01*
X91505707Y-77686643D01*
X91511420Y-77690557D01*
X91521371Y-77692897D01*
X91582123Y-77727407D01*
X91614574Y-77789283D01*
X91608421Y-77858881D01*
X91565617Y-77914104D01*
X91499752Y-77937419D01*
X91492899Y-77937604D01*
X80384416Y-77930095D01*
X80317390Y-77910365D01*
X80271671Y-77857530D01*
X80260500Y-77806095D01*
X80260500Y-74055000D01*
X81632853Y-74055000D01*
X81653334Y-74197456D01*
X81713122Y-74328371D01*
X81713123Y-74328373D01*
X81807372Y-74437143D01*
X81928447Y-74514953D01*
X81928450Y-74514954D01*
X81928449Y-74514954D01*
X82066536Y-74555499D01*
X82066538Y-74555500D01*
X82066539Y-74555500D01*
X82210462Y-74555500D01*
X82210462Y-74555499D01*
X82348553Y-74514953D01*
X82469628Y-74437143D01*
X82563877Y-74328373D01*
X82623665Y-74197457D01*
X82644147Y-74055000D01*
X82623665Y-73912543D01*
X82563877Y-73781627D01*
X82563875Y-73781625D01*
X82563874Y-73781622D01*
X82469633Y-73672862D01*
X82469630Y-73672859D01*
X82469628Y-73672857D01*
X82420760Y-73641451D01*
X82375005Y-73588647D01*
X82363800Y-73537136D01*
X82363800Y-72879500D01*
X82383485Y-72812461D01*
X82436289Y-72766706D01*
X82487800Y-72755500D01*
X84004750Y-72755500D01*
X84004751Y-72755499D01*
X84019659Y-72752534D01*
X84063229Y-72743868D01*
X84063229Y-72743867D01*
X84063231Y-72743867D01*
X84129552Y-72699552D01*
X84173867Y-72633231D01*
X84173867Y-72633229D01*
X84173868Y-72633229D01*
X84185499Y-72574752D01*
X84185500Y-72574750D01*
X84185500Y-70935249D01*
X84185499Y-70935247D01*
X84173868Y-70876770D01*
X84173867Y-70876769D01*
X84129552Y-70810447D01*
X84063230Y-70766132D01*
X84063229Y-70766131D01*
X84004752Y-70754500D01*
X84004748Y-70754500D01*
X82487800Y-70754500D01*
X82420761Y-70734815D01*
X82375006Y-70682011D01*
X82363800Y-70630500D01*
X82363800Y-57397524D01*
X82383485Y-57330485D01*
X82436289Y-57284730D01*
X82505447Y-57274786D01*
X82566466Y-57301672D01*
X82626459Y-57350908D01*
X82626467Y-57350913D01*
X82800266Y-57443811D01*
X82800269Y-57443811D01*
X82800273Y-57443814D01*
X82988868Y-57501024D01*
X83185000Y-57520341D01*
X83381132Y-57501024D01*
X83569727Y-57443814D01*
X83743538Y-57350910D01*
X83895883Y-57225883D01*
X84020910Y-57073538D01*
X84086209Y-56951373D01*
X84113811Y-56899733D01*
X84113811Y-56899732D01*
X84113814Y-56899727D01*
X84171024Y-56711132D01*
X84190341Y-56515000D01*
X84171024Y-56318868D01*
X84154683Y-56264999D01*
X84446127Y-56264999D01*
X84446128Y-56265000D01*
X85291314Y-56265000D01*
X85265507Y-56305156D01*
X85225000Y-56443111D01*
X85225000Y-56586889D01*
X85265507Y-56724844D01*
X85291314Y-56765000D01*
X84446128Y-56765000D01*
X84498730Y-56961317D01*
X84498734Y-56961326D01*
X84594865Y-57167482D01*
X84725342Y-57353820D01*
X84886179Y-57514657D01*
X85072517Y-57645134D01*
X85278673Y-57741265D01*
X85278682Y-57741269D01*
X85474999Y-57793872D01*
X85475000Y-57793871D01*
X85475000Y-56950501D01*
X85582685Y-56999680D01*
X85689237Y-57015000D01*
X85760763Y-57015000D01*
X85867315Y-56999680D01*
X85975000Y-56950501D01*
X85975000Y-57793872D01*
X86171317Y-57741269D01*
X86171326Y-57741265D01*
X86377482Y-57645134D01*
X86563820Y-57514657D01*
X86724657Y-57353820D01*
X86855134Y-57167482D01*
X86951265Y-56961326D01*
X86951269Y-56961317D01*
X87003872Y-56765000D01*
X86158686Y-56765000D01*
X86184493Y-56724844D01*
X86225000Y-56586889D01*
X86225000Y-56443111D01*
X86184493Y-56305156D01*
X86158686Y-56265000D01*
X87003872Y-56265000D01*
X87003872Y-56264999D01*
X86951269Y-56068682D01*
X86951265Y-56068673D01*
X86855134Y-55862517D01*
X86724657Y-55676179D01*
X86563820Y-55515342D01*
X86377482Y-55384865D01*
X86171328Y-55288734D01*
X85975000Y-55236127D01*
X85975000Y-56079498D01*
X85867315Y-56030320D01*
X85760763Y-56015000D01*
X85689237Y-56015000D01*
X85582685Y-56030320D01*
X85475000Y-56079498D01*
X85475000Y-55236127D01*
X85278671Y-55288734D01*
X85072517Y-55384865D01*
X84886179Y-55515342D01*
X84725342Y-55676179D01*
X84594865Y-55862517D01*
X84498734Y-56068673D01*
X84498730Y-56068682D01*
X84446127Y-56264999D01*
X84154683Y-56264999D01*
X84113814Y-56130273D01*
X84113811Y-56130269D01*
X84113811Y-56130266D01*
X84020913Y-55956467D01*
X84020909Y-55956460D01*
X83895883Y-55804116D01*
X83743539Y-55679090D01*
X83743532Y-55679086D01*
X83569733Y-55586188D01*
X83569727Y-55586186D01*
X83441442Y-55547271D01*
X83381129Y-55528975D01*
X83185000Y-55509659D01*
X82988870Y-55528975D01*
X82800266Y-55586188D01*
X82626467Y-55679086D01*
X82626460Y-55679090D01*
X82566465Y-55728328D01*
X82502155Y-55755641D01*
X82433287Y-55743850D01*
X82381727Y-55696698D01*
X82363800Y-55632475D01*
X82363800Y-52954532D01*
X82383485Y-52887493D01*
X82400114Y-52866856D01*
X83600107Y-51666862D01*
X83661428Y-51633379D01*
X83731120Y-51638363D01*
X83746792Y-51645484D01*
X83858497Y-51705936D01*
X83913254Y-51724734D01*
X84078015Y-51781297D01*
X84078017Y-51781297D01*
X84078019Y-51781298D01*
X84306951Y-51819500D01*
X84306952Y-51819500D01*
X84539048Y-51819500D01*
X84539049Y-51819500D01*
X84767981Y-51781298D01*
X84987503Y-51705936D01*
X85191626Y-51595470D01*
X85374784Y-51452913D01*
X85531979Y-51282153D01*
X85658924Y-51087849D01*
X85752157Y-50875300D01*
X85809134Y-50650305D01*
X85809135Y-50650297D01*
X85828300Y-50419006D01*
X85828300Y-50418993D01*
X85809135Y-50187702D01*
X85809133Y-50187691D01*
X85752157Y-49962699D01*
X85658924Y-49750151D01*
X85531983Y-49555852D01*
X85531980Y-49555849D01*
X85531979Y-49555847D01*
X85374784Y-49385087D01*
X85374779Y-49385083D01*
X85374777Y-49385081D01*
X85191634Y-49242535D01*
X85191628Y-49242531D01*
X84987504Y-49132064D01*
X84987495Y-49132061D01*
X84767984Y-49056702D01*
X84596282Y-49028050D01*
X84539049Y-49018500D01*
X84306951Y-49018500D01*
X84261164Y-49026140D01*
X84078015Y-49056702D01*
X83858504Y-49132061D01*
X83858495Y-49132064D01*
X83654371Y-49242531D01*
X83654365Y-49242535D01*
X83471222Y-49385081D01*
X83471219Y-49385084D01*
X83314016Y-49555852D01*
X83187075Y-49750151D01*
X83093842Y-49962699D01*
X83036866Y-50187691D01*
X83036864Y-50187702D01*
X83017700Y-50418993D01*
X83017700Y-50419006D01*
X83036864Y-50650297D01*
X83036866Y-50650308D01*
X83093842Y-50875300D01*
X83186705Y-51087003D01*
X83187076Y-51087849D01*
X83188157Y-51089503D01*
X83188390Y-51090277D01*
X83189514Y-51092353D01*
X83189086Y-51092584D01*
X83208342Y-51156394D01*
X83189158Y-51223579D01*
X83172026Y-51245001D01*
X81898286Y-52518741D01*
X81885335Y-52530012D01*
X81879067Y-52534744D01*
X81847822Y-52569018D01*
X81843874Y-52573153D01*
X81831127Y-52585900D01*
X81828046Y-52589611D01*
X81821385Y-52598019D01*
X81803383Y-52617766D01*
X81803383Y-52617767D01*
X81800878Y-52624233D01*
X81787559Y-52649502D01*
X81783645Y-52655215D01*
X81783643Y-52655220D01*
X81777528Y-52681217D01*
X81772451Y-52697613D01*
X81762800Y-52722526D01*
X81762800Y-52729451D01*
X81759506Y-52757841D01*
X81757921Y-52764577D01*
X81757921Y-52764582D01*
X81761611Y-52791033D01*
X81762800Y-52808164D01*
X81762800Y-73678047D01*
X81743115Y-73745086D01*
X81732515Y-73759246D01*
X81723394Y-73769774D01*
X81713123Y-73781627D01*
X81713122Y-73781628D01*
X81653334Y-73912543D01*
X81632853Y-74055000D01*
X80260500Y-74055000D01*
X80260500Y-69832786D01*
X80280185Y-69765747D01*
X80332989Y-69719992D01*
X80402147Y-69710048D01*
X80465703Y-69739073D01*
X80478209Y-69751579D01*
X80542472Y-69825743D01*
X80663547Y-69903553D01*
X80663550Y-69903554D01*
X80663549Y-69903554D01*
X80801636Y-69944099D01*
X80801638Y-69944100D01*
X80801639Y-69944100D01*
X80945562Y-69944100D01*
X80945562Y-69944099D01*
X81053907Y-69912287D01*
X81083650Y-69903554D01*
X81083650Y-69903553D01*
X81083653Y-69903553D01*
X81204728Y-69825743D01*
X81298977Y-69716973D01*
X81358765Y-69586057D01*
X81379247Y-69443600D01*
X81358765Y-69301143D01*
X81298977Y-69170227D01*
X81298975Y-69170225D01*
X81298974Y-69170222D01*
X81198921Y-69054754D01*
X81201381Y-69052621D01*
X81172217Y-69007223D01*
X81167200Y-68972309D01*
X81167200Y-40971132D01*
X81186885Y-40904093D01*
X81203515Y-40883455D01*
X81850107Y-40236862D01*
X81911428Y-40203379D01*
X81981119Y-40208363D01*
X81996792Y-40215484D01*
X82108497Y-40275936D01*
X82211127Y-40311169D01*
X82328015Y-40351297D01*
X82328017Y-40351297D01*
X82328019Y-40351298D01*
X82556951Y-40389500D01*
X82556952Y-40389500D01*
X82789048Y-40389500D01*
X82789049Y-40389500D01*
X83017981Y-40351298D01*
X83237503Y-40275936D01*
X83441626Y-40165470D01*
X83624784Y-40022913D01*
X83781979Y-39852153D01*
X83908924Y-39657849D01*
X84002157Y-39445300D01*
X84059134Y-39220305D01*
X84059135Y-39220297D01*
X84078300Y-38989006D01*
X84078300Y-38989004D01*
X84468233Y-38989004D01*
X84487273Y-39243079D01*
X84543968Y-39491477D01*
X84543973Y-39491494D01*
X84637058Y-39728671D01*
X84637057Y-39728671D01*
X84764454Y-39949327D01*
X84764461Y-39949338D01*
X84806452Y-40001991D01*
X84806453Y-40001992D01*
X85610226Y-39198219D01*
X85648901Y-39291588D01*
X85745075Y-39416925D01*
X85870412Y-39513099D01*
X85963779Y-39551772D01*
X85159813Y-40355738D01*
X85320616Y-40465371D01*
X85320624Y-40465376D01*
X85550176Y-40575921D01*
X85550174Y-40575921D01*
X85793652Y-40651024D01*
X85793658Y-40651026D01*
X86045595Y-40688999D01*
X86045604Y-40689000D01*
X86300396Y-40689000D01*
X86300404Y-40688999D01*
X86552341Y-40651026D01*
X86552347Y-40651024D01*
X86795824Y-40575921D01*
X87025376Y-40465376D01*
X87025377Y-40465375D01*
X87186185Y-40355738D01*
X86382220Y-39551772D01*
X86475588Y-39513099D01*
X86600925Y-39416925D01*
X86697099Y-39291589D01*
X86735773Y-39198220D01*
X87539544Y-40001992D01*
X87539546Y-40001991D01*
X87581544Y-39949330D01*
X87708941Y-39728671D01*
X87802026Y-39491494D01*
X87802032Y-39491475D01*
X87802108Y-39491145D01*
X87802167Y-39491038D01*
X87803400Y-39487044D01*
X87804254Y-39487307D01*
X87836214Y-39430165D01*
X87897874Y-39397304D01*
X87967511Y-39402996D01*
X88023017Y-39445433D01*
X88042090Y-39487201D01*
X88042600Y-39487044D01*
X88043809Y-39490965D01*
X88043892Y-39491145D01*
X88043967Y-39491475D01*
X88043973Y-39491494D01*
X88137058Y-39728671D01*
X88137057Y-39728671D01*
X88264454Y-39949327D01*
X88264461Y-39949338D01*
X88306452Y-40001991D01*
X88306453Y-40001992D01*
X89110226Y-39198219D01*
X89148901Y-39291588D01*
X89245075Y-39416925D01*
X89370412Y-39513099D01*
X89463779Y-39551772D01*
X88659813Y-40355738D01*
X88820616Y-40465371D01*
X88820624Y-40465376D01*
X89050176Y-40575921D01*
X89050174Y-40575921D01*
X89293652Y-40651024D01*
X89293658Y-40651026D01*
X89545595Y-40688999D01*
X89545604Y-40689000D01*
X89800396Y-40689000D01*
X89800404Y-40688999D01*
X90052341Y-40651026D01*
X90052347Y-40651024D01*
X90295824Y-40575921D01*
X90525376Y-40465376D01*
X90525377Y-40465375D01*
X90686185Y-40355738D01*
X89882220Y-39551772D01*
X89975588Y-39513099D01*
X90100925Y-39416925D01*
X90197099Y-39291589D01*
X90235773Y-39198220D01*
X91039545Y-40001992D01*
X91039546Y-40001991D01*
X91081544Y-39949330D01*
X91208941Y-39728671D01*
X91302026Y-39491494D01*
X91302032Y-39491475D01*
X91302108Y-39491145D01*
X91302167Y-39491038D01*
X91303400Y-39487044D01*
X91304254Y-39487307D01*
X91336214Y-39430165D01*
X91397874Y-39397304D01*
X91467511Y-39402996D01*
X91523017Y-39445433D01*
X91542090Y-39487201D01*
X91542600Y-39487044D01*
X91543809Y-39490965D01*
X91543892Y-39491145D01*
X91543967Y-39491475D01*
X91543973Y-39491494D01*
X91637058Y-39728671D01*
X91637057Y-39728671D01*
X91764454Y-39949327D01*
X91764461Y-39949338D01*
X91806452Y-40001991D01*
X91806453Y-40001992D01*
X92610226Y-39198219D01*
X92648901Y-39291588D01*
X92745075Y-39416925D01*
X92870412Y-39513099D01*
X92963779Y-39551772D01*
X92159813Y-40355738D01*
X92320616Y-40465371D01*
X92320624Y-40465376D01*
X92550176Y-40575921D01*
X92550174Y-40575921D01*
X92793652Y-40651024D01*
X92793658Y-40651026D01*
X93045595Y-40688999D01*
X93045604Y-40689000D01*
X93300396Y-40689000D01*
X93300404Y-40688999D01*
X93552341Y-40651026D01*
X93552347Y-40651024D01*
X93795824Y-40575921D01*
X94025376Y-40465376D01*
X94025377Y-40465375D01*
X94186185Y-40355738D01*
X93382220Y-39551772D01*
X93475588Y-39513099D01*
X93600925Y-39416925D01*
X93697099Y-39291589D01*
X93735773Y-39198220D01*
X94539544Y-40001992D01*
X94539546Y-40001991D01*
X94581544Y-39949330D01*
X94708941Y-39728671D01*
X94802026Y-39491494D01*
X94802032Y-39491475D01*
X94802108Y-39491145D01*
X94802167Y-39491038D01*
X94803400Y-39487044D01*
X94804254Y-39487307D01*
X94836214Y-39430165D01*
X94897874Y-39397304D01*
X94967511Y-39402996D01*
X95023017Y-39445433D01*
X95042090Y-39487201D01*
X95042600Y-39487044D01*
X95043809Y-39490965D01*
X95043892Y-39491145D01*
X95043967Y-39491475D01*
X95043973Y-39491494D01*
X95137058Y-39728671D01*
X95137057Y-39728671D01*
X95264454Y-39949327D01*
X95264461Y-39949338D01*
X95306452Y-40001991D01*
X95306453Y-40001992D01*
X96110226Y-39198219D01*
X96148901Y-39291588D01*
X96245075Y-39416925D01*
X96370412Y-39513099D01*
X96463779Y-39551772D01*
X95659813Y-40355738D01*
X95820616Y-40465371D01*
X95820624Y-40465376D01*
X96050176Y-40575921D01*
X96050174Y-40575921D01*
X96293652Y-40651024D01*
X96293658Y-40651026D01*
X96545595Y-40688999D01*
X96545604Y-40689000D01*
X96800396Y-40689000D01*
X96800404Y-40688999D01*
X97052341Y-40651026D01*
X97052347Y-40651024D01*
X97295824Y-40575921D01*
X97525376Y-40465376D01*
X97525377Y-40465375D01*
X97686185Y-40355738D01*
X96882220Y-39551772D01*
X96975588Y-39513099D01*
X97100925Y-39416925D01*
X97197099Y-39291589D01*
X97235773Y-39198220D01*
X98039544Y-40001992D01*
X98039546Y-40001991D01*
X98081544Y-39949330D01*
X98208941Y-39728671D01*
X98302026Y-39491494D01*
X98302032Y-39491475D01*
X98302108Y-39491145D01*
X98302167Y-39491038D01*
X98303400Y-39487044D01*
X98304254Y-39487307D01*
X98336214Y-39430165D01*
X98397874Y-39397304D01*
X98467511Y-39402996D01*
X98523017Y-39445433D01*
X98542090Y-39487201D01*
X98542600Y-39487044D01*
X98543809Y-39490965D01*
X98543892Y-39491145D01*
X98543967Y-39491475D01*
X98543973Y-39491494D01*
X98637058Y-39728671D01*
X98637057Y-39728671D01*
X98764454Y-39949327D01*
X98764461Y-39949338D01*
X98806452Y-40001991D01*
X98806453Y-40001992D01*
X99610226Y-39198219D01*
X99648901Y-39291588D01*
X99745075Y-39416925D01*
X99870412Y-39513099D01*
X99963779Y-39551772D01*
X99159813Y-40355738D01*
X99320616Y-40465371D01*
X99320624Y-40465376D01*
X99550176Y-40575921D01*
X99550174Y-40575921D01*
X99793652Y-40651024D01*
X99793658Y-40651026D01*
X100045595Y-40688999D01*
X100045604Y-40689000D01*
X100300396Y-40689000D01*
X100300404Y-40688999D01*
X100552341Y-40651026D01*
X100552347Y-40651024D01*
X100795824Y-40575921D01*
X101025376Y-40465376D01*
X101025377Y-40465375D01*
X101186185Y-40355738D01*
X100382220Y-39551772D01*
X100475588Y-39513099D01*
X100600925Y-39416925D01*
X100697099Y-39291589D01*
X100735773Y-39198220D01*
X101539544Y-40001992D01*
X101539546Y-40001991D01*
X101581544Y-39949330D01*
X101708941Y-39728671D01*
X101802026Y-39491494D01*
X101802032Y-39491475D01*
X101802108Y-39491145D01*
X101802167Y-39491038D01*
X101803400Y-39487044D01*
X101804254Y-39487307D01*
X101836214Y-39430165D01*
X101897874Y-39397304D01*
X101967511Y-39402996D01*
X102023017Y-39445433D01*
X102042090Y-39487201D01*
X102042600Y-39487044D01*
X102043809Y-39490965D01*
X102043892Y-39491145D01*
X102043967Y-39491475D01*
X102043973Y-39491494D01*
X102137058Y-39728671D01*
X102137057Y-39728671D01*
X102264454Y-39949327D01*
X102264461Y-39949338D01*
X102306452Y-40001991D01*
X102306453Y-40001992D01*
X103110226Y-39198219D01*
X103148901Y-39291588D01*
X103245075Y-39416925D01*
X103370412Y-39513099D01*
X103463779Y-39551772D01*
X102659813Y-40355738D01*
X102820616Y-40465371D01*
X102820624Y-40465376D01*
X103050176Y-40575921D01*
X103050174Y-40575921D01*
X103293652Y-40651024D01*
X103293658Y-40651026D01*
X103545595Y-40688999D01*
X103545604Y-40689000D01*
X103800396Y-40689000D01*
X103800404Y-40688999D01*
X104052341Y-40651026D01*
X104052347Y-40651024D01*
X104295824Y-40575921D01*
X104525376Y-40465376D01*
X104525377Y-40465375D01*
X104686185Y-40355738D01*
X103882220Y-39551772D01*
X103975588Y-39513099D01*
X104100925Y-39416925D01*
X104197099Y-39291589D01*
X104235773Y-39198220D01*
X105039545Y-40001992D01*
X105039546Y-40001991D01*
X105081544Y-39949330D01*
X105208941Y-39728671D01*
X105302026Y-39491494D01*
X105302032Y-39491475D01*
X105302108Y-39491145D01*
X105302167Y-39491038D01*
X105303400Y-39487044D01*
X105304254Y-39487307D01*
X105336214Y-39430165D01*
X105397874Y-39397304D01*
X105467511Y-39402996D01*
X105523017Y-39445433D01*
X105542090Y-39487201D01*
X105542600Y-39487044D01*
X105543809Y-39490965D01*
X105543892Y-39491145D01*
X105543967Y-39491475D01*
X105543973Y-39491494D01*
X105637058Y-39728671D01*
X105637057Y-39728671D01*
X105764454Y-39949327D01*
X105764461Y-39949338D01*
X105806452Y-40001991D01*
X105806453Y-40001992D01*
X106610226Y-39198219D01*
X106648901Y-39291588D01*
X106745075Y-39416925D01*
X106870412Y-39513099D01*
X106963779Y-39551772D01*
X106159813Y-40355738D01*
X106320616Y-40465371D01*
X106320624Y-40465376D01*
X106550176Y-40575921D01*
X106550174Y-40575921D01*
X106793652Y-40651024D01*
X106793658Y-40651026D01*
X107045595Y-40688999D01*
X107045604Y-40689000D01*
X107300396Y-40689000D01*
X107300404Y-40688999D01*
X107552341Y-40651026D01*
X107552347Y-40651024D01*
X107795824Y-40575921D01*
X108025376Y-40465376D01*
X108025377Y-40465375D01*
X108186185Y-40355738D01*
X107382220Y-39551772D01*
X107475588Y-39513099D01*
X107600925Y-39416925D01*
X107697099Y-39291589D01*
X107735773Y-39198220D01*
X108539544Y-40001992D01*
X108539546Y-40001991D01*
X108581544Y-39949330D01*
X108708941Y-39728671D01*
X108802026Y-39491494D01*
X108802032Y-39491475D01*
X108802108Y-39491145D01*
X108802167Y-39491038D01*
X108803400Y-39487044D01*
X108804254Y-39487307D01*
X108836214Y-39430165D01*
X108897874Y-39397304D01*
X108967511Y-39402996D01*
X109023017Y-39445433D01*
X109042090Y-39487201D01*
X109042600Y-39487044D01*
X109043809Y-39490965D01*
X109043892Y-39491145D01*
X109043967Y-39491475D01*
X109043973Y-39491494D01*
X109137058Y-39728671D01*
X109137057Y-39728671D01*
X109264454Y-39949327D01*
X109264461Y-39949338D01*
X109306452Y-40001991D01*
X109306453Y-40001992D01*
X110110226Y-39198219D01*
X110148901Y-39291588D01*
X110245075Y-39416925D01*
X110370412Y-39513099D01*
X110463779Y-39551772D01*
X109659813Y-40355738D01*
X109820616Y-40465371D01*
X109820624Y-40465376D01*
X110050176Y-40575921D01*
X110050174Y-40575921D01*
X110293652Y-40651024D01*
X110293658Y-40651026D01*
X110545595Y-40688999D01*
X110545604Y-40689000D01*
X110800396Y-40689000D01*
X110800404Y-40688999D01*
X111052341Y-40651026D01*
X111052347Y-40651024D01*
X111295824Y-40575921D01*
X111525376Y-40465376D01*
X111525377Y-40465375D01*
X111686185Y-40355738D01*
X111539199Y-40208752D01*
X112772500Y-40208752D01*
X112784131Y-40267229D01*
X112784132Y-40267230D01*
X112828447Y-40333552D01*
X112894769Y-40377867D01*
X112894770Y-40377868D01*
X112953247Y-40389499D01*
X112953250Y-40389500D01*
X112953252Y-40389500D01*
X115392750Y-40389500D01*
X115392751Y-40389499D01*
X115407568Y-40386552D01*
X115451229Y-40377868D01*
X115451229Y-40377867D01*
X115451231Y-40377867D01*
X115517552Y-40333552D01*
X115561867Y-40267231D01*
X115561867Y-40267229D01*
X115561868Y-40267229D01*
X115573499Y-40208752D01*
X115573500Y-40208750D01*
X115573500Y-38557200D01*
X130405953Y-38557200D01*
X130426434Y-38699656D01*
X130469674Y-38794337D01*
X130486223Y-38830573D01*
X130580472Y-38939343D01*
X130701547Y-39017153D01*
X130701550Y-39017154D01*
X130701549Y-39017154D01*
X130808707Y-39048617D01*
X130838457Y-39057353D01*
X130839636Y-39057699D01*
X130839638Y-39057700D01*
X130839639Y-39057700D01*
X130983562Y-39057700D01*
X130983562Y-39057699D01*
X131090721Y-39026235D01*
X131121650Y-39017154D01*
X131121650Y-39017153D01*
X131121653Y-39017153D01*
X131242728Y-38939343D01*
X131274486Y-38902691D01*
X131333263Y-38864917D01*
X131365981Y-38862510D01*
X131365889Y-38860503D01*
X131377363Y-38859972D01*
X131377365Y-38859973D01*
X131423680Y-38857832D01*
X131429405Y-38857700D01*
X131447443Y-38857700D01*
X131447444Y-38857700D01*
X131447444Y-38857699D01*
X131452331Y-38857246D01*
X131462918Y-38856017D01*
X131489592Y-38854785D01*
X131495922Y-38851989D01*
X131523229Y-38843532D01*
X131530033Y-38842261D01*
X131530035Y-38842259D01*
X131530037Y-38842259D01*
X131552738Y-38828203D01*
X131567925Y-38820196D01*
X131592365Y-38809406D01*
X131597261Y-38804509D01*
X131619669Y-38786761D01*
X131625552Y-38783119D01*
X131641653Y-38761795D01*
X131652907Y-38748862D01*
X131914153Y-38487616D01*
X131975475Y-38454134D01*
X132001833Y-38451300D01*
X136635662Y-38451300D01*
X136652790Y-38452489D01*
X136660561Y-38453572D01*
X136660561Y-38453571D01*
X136660565Y-38453573D01*
X136706880Y-38451432D01*
X136712605Y-38451300D01*
X136730643Y-38451300D01*
X136730644Y-38451300D01*
X136730644Y-38451299D01*
X136735531Y-38450846D01*
X136746118Y-38449617D01*
X136772792Y-38448385D01*
X136779122Y-38445589D01*
X136806429Y-38437132D01*
X136813233Y-38435861D01*
X136813235Y-38435859D01*
X136813237Y-38435859D01*
X136835938Y-38421803D01*
X136851125Y-38413796D01*
X136875565Y-38403006D01*
X136880461Y-38398109D01*
X136902869Y-38380361D01*
X136908752Y-38376719D01*
X136924853Y-38355395D01*
X136936114Y-38342455D01*
X137505351Y-37773219D01*
X137566674Y-37739734D01*
X137593032Y-37736900D01*
X137689162Y-37736900D01*
X137689162Y-37736899D01*
X137814642Y-37700056D01*
X137827250Y-37696354D01*
X137827250Y-37696353D01*
X137827253Y-37696353D01*
X137948328Y-37618543D01*
X138042577Y-37509773D01*
X138102365Y-37378857D01*
X138122847Y-37236400D01*
X138102365Y-37093943D01*
X138042577Y-36963027D01*
X137948328Y-36854257D01*
X137827253Y-36776447D01*
X137827251Y-36776446D01*
X137827249Y-36776445D01*
X137827250Y-36776445D01*
X137689163Y-36735900D01*
X137689161Y-36735900D01*
X137545239Y-36735900D01*
X137545236Y-36735900D01*
X137407149Y-36776445D01*
X137286073Y-36854256D01*
X137191823Y-36963026D01*
X137191822Y-36963028D01*
X137132034Y-37093943D01*
X137111553Y-37236400D01*
X137111553Y-37236401D01*
X137112861Y-37245503D01*
X137102913Y-37314661D01*
X137077803Y-37350824D01*
X136614648Y-37813981D01*
X136553325Y-37847466D01*
X136526967Y-37850300D01*
X131893138Y-37850300D01*
X131876010Y-37849111D01*
X131868238Y-37848027D01*
X131868235Y-37848027D01*
X131827972Y-37849888D01*
X131821920Y-37850168D01*
X131816195Y-37850300D01*
X131798156Y-37850300D01*
X131798151Y-37850300D01*
X131793332Y-37850747D01*
X131782696Y-37851981D01*
X131756005Y-37853215D01*
X131756004Y-37853215D01*
X131749658Y-37856017D01*
X131722385Y-37864463D01*
X131715570Y-37865737D01*
X131715565Y-37865739D01*
X131692856Y-37879799D01*
X131677673Y-37887802D01*
X131653234Y-37898593D01*
X131648329Y-37903498D01*
X131625939Y-37921233D01*
X131620049Y-37924880D01*
X131620044Y-37924884D01*
X131603948Y-37946198D01*
X131592678Y-37959148D01*
X131394987Y-38156840D01*
X131333664Y-38190325D01*
X131263973Y-38185341D01*
X131240267Y-38173475D01*
X131166163Y-38125852D01*
X131121653Y-38097247D01*
X131121651Y-38097246D01*
X131121649Y-38097245D01*
X131121650Y-38097245D01*
X130983563Y-38056700D01*
X130983561Y-38056700D01*
X130839639Y-38056700D01*
X130839636Y-38056700D01*
X130701549Y-38097245D01*
X130580473Y-38175056D01*
X130486223Y-38283826D01*
X130486222Y-38283828D01*
X130426434Y-38414743D01*
X130405953Y-38557200D01*
X115573500Y-38557200D01*
X115573500Y-37769249D01*
X115573499Y-37769247D01*
X115561868Y-37710770D01*
X115561867Y-37710769D01*
X115517552Y-37644447D01*
X115451230Y-37600132D01*
X115451229Y-37600131D01*
X115392752Y-37588500D01*
X115392748Y-37588500D01*
X112953252Y-37588500D01*
X112953247Y-37588500D01*
X112894770Y-37600131D01*
X112894769Y-37600132D01*
X112828447Y-37644447D01*
X112784132Y-37710769D01*
X112784131Y-37710770D01*
X112772500Y-37769247D01*
X112772500Y-40208752D01*
X111539199Y-40208752D01*
X110882220Y-39551772D01*
X110975588Y-39513099D01*
X111100925Y-39416925D01*
X111197099Y-39291589D01*
X111235773Y-39198220D01*
X112039544Y-40001992D01*
X112039546Y-40001991D01*
X112081544Y-39949330D01*
X112208941Y-39728671D01*
X112302026Y-39491494D01*
X112302031Y-39491477D01*
X112358726Y-39243079D01*
X112377767Y-38989004D01*
X112377767Y-38988995D01*
X112358726Y-38734920D01*
X112302031Y-38486522D01*
X112302026Y-38486505D01*
X112208941Y-38249328D01*
X112208942Y-38249328D01*
X112081545Y-38028672D01*
X112039545Y-37976006D01*
X111235772Y-38779779D01*
X111197099Y-38686412D01*
X111100925Y-38561075D01*
X110975588Y-38464901D01*
X110882219Y-38426226D01*
X111686185Y-37622260D01*
X111525384Y-37512628D01*
X111525376Y-37512623D01*
X111295823Y-37402078D01*
X111295825Y-37402078D01*
X111052347Y-37326975D01*
X111052341Y-37326973D01*
X110800404Y-37289000D01*
X110545595Y-37289000D01*
X110293658Y-37326973D01*
X110293652Y-37326975D01*
X110050175Y-37402078D01*
X109820622Y-37512625D01*
X109820609Y-37512632D01*
X109659813Y-37622259D01*
X110463780Y-38426226D01*
X110370412Y-38464901D01*
X110245075Y-38561075D01*
X110148901Y-38686411D01*
X110110226Y-38779780D01*
X109306452Y-37976006D01*
X109264457Y-38028667D01*
X109137058Y-38249328D01*
X109043973Y-38486505D01*
X109043968Y-38486522D01*
X109043891Y-38486860D01*
X109043830Y-38486968D01*
X109042600Y-38490956D01*
X109041747Y-38490692D01*
X109009782Y-38547838D01*
X108948121Y-38580696D01*
X108878484Y-38575001D01*
X108822980Y-38532561D01*
X108803907Y-38490799D01*
X108803400Y-38490956D01*
X108802192Y-38487043D01*
X108802109Y-38486860D01*
X108802031Y-38486522D01*
X108802026Y-38486505D01*
X108708941Y-38249328D01*
X108708942Y-38249328D01*
X108581545Y-38028672D01*
X108539545Y-37976006D01*
X107735772Y-38779779D01*
X107697099Y-38686412D01*
X107600925Y-38561075D01*
X107475588Y-38464901D01*
X107382219Y-38426226D01*
X108186185Y-37622260D01*
X108025384Y-37512628D01*
X108025376Y-37512623D01*
X107795823Y-37402078D01*
X107795825Y-37402078D01*
X107552347Y-37326975D01*
X107552341Y-37326973D01*
X107300404Y-37289000D01*
X107045595Y-37289000D01*
X106793658Y-37326973D01*
X106793652Y-37326975D01*
X106550175Y-37402078D01*
X106320622Y-37512625D01*
X106320609Y-37512632D01*
X106159813Y-37622259D01*
X106963780Y-38426226D01*
X106870412Y-38464901D01*
X106745075Y-38561075D01*
X106648901Y-38686411D01*
X106610226Y-38779780D01*
X105806452Y-37976006D01*
X105764457Y-38028667D01*
X105637058Y-38249328D01*
X105543973Y-38486505D01*
X105543968Y-38486522D01*
X105543891Y-38486860D01*
X105543830Y-38486968D01*
X105542600Y-38490956D01*
X105541747Y-38490692D01*
X105509782Y-38547838D01*
X105448121Y-38580696D01*
X105378484Y-38575001D01*
X105322980Y-38532561D01*
X105303907Y-38490799D01*
X105303400Y-38490956D01*
X105302192Y-38487043D01*
X105302109Y-38486860D01*
X105302031Y-38486522D01*
X105302026Y-38486505D01*
X105208941Y-38249328D01*
X105208942Y-38249328D01*
X105081545Y-38028672D01*
X105039545Y-37976006D01*
X104235772Y-38779779D01*
X104197099Y-38686412D01*
X104100925Y-38561075D01*
X103975588Y-38464901D01*
X103882219Y-38426226D01*
X104686185Y-37622260D01*
X104525384Y-37512628D01*
X104525376Y-37512623D01*
X104295823Y-37402078D01*
X104295825Y-37402078D01*
X104052347Y-37326975D01*
X104052341Y-37326973D01*
X103800404Y-37289000D01*
X103545595Y-37289000D01*
X103293658Y-37326973D01*
X103293652Y-37326975D01*
X103050175Y-37402078D01*
X102820622Y-37512625D01*
X102820609Y-37512632D01*
X102659813Y-37622259D01*
X103463780Y-38426226D01*
X103370412Y-38464901D01*
X103245075Y-38561075D01*
X103148901Y-38686411D01*
X103110226Y-38779780D01*
X102306452Y-37976006D01*
X102264457Y-38028667D01*
X102137058Y-38249328D01*
X102043973Y-38486505D01*
X102043968Y-38486522D01*
X102043891Y-38486860D01*
X102043830Y-38486968D01*
X102042600Y-38490956D01*
X102041747Y-38490692D01*
X102009782Y-38547838D01*
X101948121Y-38580696D01*
X101878484Y-38575001D01*
X101822980Y-38532561D01*
X101803907Y-38490799D01*
X101803400Y-38490956D01*
X101802192Y-38487043D01*
X101802109Y-38486860D01*
X101802031Y-38486522D01*
X101802026Y-38486505D01*
X101708941Y-38249328D01*
X101708942Y-38249328D01*
X101581545Y-38028672D01*
X101539545Y-37976006D01*
X100735772Y-38779779D01*
X100697099Y-38686412D01*
X100600925Y-38561075D01*
X100475588Y-38464901D01*
X100382219Y-38426226D01*
X101186185Y-37622260D01*
X101025384Y-37512628D01*
X101025376Y-37512623D01*
X100795823Y-37402078D01*
X100795825Y-37402078D01*
X100552347Y-37326975D01*
X100552341Y-37326973D01*
X100300404Y-37289000D01*
X100045595Y-37289000D01*
X99793658Y-37326973D01*
X99793652Y-37326975D01*
X99550175Y-37402078D01*
X99320622Y-37512625D01*
X99320609Y-37512632D01*
X99159813Y-37622259D01*
X99963780Y-38426226D01*
X99870412Y-38464901D01*
X99745075Y-38561075D01*
X99648901Y-38686411D01*
X99610226Y-38779780D01*
X98806452Y-37976006D01*
X98764457Y-38028667D01*
X98637058Y-38249328D01*
X98543973Y-38486505D01*
X98543968Y-38486522D01*
X98543891Y-38486860D01*
X98543830Y-38486968D01*
X98542600Y-38490956D01*
X98541747Y-38490692D01*
X98509782Y-38547838D01*
X98448121Y-38580696D01*
X98378484Y-38575001D01*
X98322980Y-38532561D01*
X98303907Y-38490799D01*
X98303400Y-38490956D01*
X98302192Y-38487043D01*
X98302109Y-38486860D01*
X98302031Y-38486522D01*
X98302026Y-38486505D01*
X98208941Y-38249328D01*
X98208942Y-38249328D01*
X98081545Y-38028672D01*
X98039545Y-37976006D01*
X97235772Y-38779779D01*
X97197099Y-38686412D01*
X97100925Y-38561075D01*
X96975588Y-38464901D01*
X96882219Y-38426226D01*
X97686185Y-37622260D01*
X97525384Y-37512628D01*
X97525376Y-37512623D01*
X97295823Y-37402078D01*
X97295825Y-37402078D01*
X97052347Y-37326975D01*
X97052341Y-37326973D01*
X96800404Y-37289000D01*
X96545595Y-37289000D01*
X96293658Y-37326973D01*
X96293652Y-37326975D01*
X96050175Y-37402078D01*
X95820622Y-37512625D01*
X95820609Y-37512632D01*
X95659813Y-37622259D01*
X96463780Y-38426226D01*
X96370412Y-38464901D01*
X96245075Y-38561075D01*
X96148901Y-38686411D01*
X96110226Y-38779780D01*
X95306452Y-37976006D01*
X95264457Y-38028667D01*
X95137058Y-38249328D01*
X95043973Y-38486505D01*
X95043968Y-38486522D01*
X95043891Y-38486860D01*
X95043830Y-38486968D01*
X95042600Y-38490956D01*
X95041747Y-38490692D01*
X95009782Y-38547838D01*
X94948121Y-38580696D01*
X94878484Y-38575001D01*
X94822980Y-38532561D01*
X94803907Y-38490799D01*
X94803400Y-38490956D01*
X94802192Y-38487043D01*
X94802109Y-38486860D01*
X94802031Y-38486522D01*
X94802026Y-38486505D01*
X94708941Y-38249328D01*
X94708942Y-38249328D01*
X94581545Y-38028672D01*
X94539545Y-37976006D01*
X93735772Y-38779779D01*
X93697099Y-38686412D01*
X93600925Y-38561075D01*
X93475588Y-38464901D01*
X93382219Y-38426226D01*
X94186185Y-37622260D01*
X94025384Y-37512628D01*
X94025376Y-37512623D01*
X93795823Y-37402078D01*
X93795825Y-37402078D01*
X93552347Y-37326975D01*
X93552341Y-37326973D01*
X93300404Y-37289000D01*
X93045595Y-37289000D01*
X92793658Y-37326973D01*
X92793652Y-37326975D01*
X92550175Y-37402078D01*
X92320622Y-37512625D01*
X92320609Y-37512632D01*
X92159813Y-37622259D01*
X92963780Y-38426226D01*
X92870412Y-38464901D01*
X92745075Y-38561075D01*
X92648901Y-38686411D01*
X92610226Y-38779780D01*
X91806452Y-37976006D01*
X91764457Y-38028667D01*
X91637058Y-38249328D01*
X91543973Y-38486505D01*
X91543968Y-38486522D01*
X91543891Y-38486860D01*
X91543830Y-38486968D01*
X91542600Y-38490956D01*
X91541747Y-38490692D01*
X91509782Y-38547838D01*
X91448121Y-38580696D01*
X91378484Y-38575001D01*
X91322980Y-38532561D01*
X91303907Y-38490799D01*
X91303400Y-38490956D01*
X91302192Y-38487043D01*
X91302109Y-38486860D01*
X91302031Y-38486522D01*
X91302026Y-38486505D01*
X91208941Y-38249328D01*
X91208942Y-38249328D01*
X91081545Y-38028672D01*
X91039545Y-37976006D01*
X90235772Y-38779779D01*
X90197099Y-38686412D01*
X90100925Y-38561075D01*
X89975588Y-38464901D01*
X89882219Y-38426226D01*
X90686185Y-37622260D01*
X90525384Y-37512628D01*
X90525376Y-37512623D01*
X90295823Y-37402078D01*
X90295825Y-37402078D01*
X90052347Y-37326975D01*
X90052341Y-37326973D01*
X89800404Y-37289000D01*
X89545595Y-37289000D01*
X89293658Y-37326973D01*
X89293652Y-37326975D01*
X89050175Y-37402078D01*
X88820622Y-37512625D01*
X88820609Y-37512632D01*
X88659813Y-37622259D01*
X89463780Y-38426226D01*
X89370412Y-38464901D01*
X89245075Y-38561075D01*
X89148901Y-38686411D01*
X89110226Y-38779780D01*
X88306452Y-37976006D01*
X88264457Y-38028667D01*
X88137058Y-38249328D01*
X88043973Y-38486505D01*
X88043968Y-38486522D01*
X88043891Y-38486860D01*
X88043830Y-38486968D01*
X88042600Y-38490956D01*
X88041747Y-38490692D01*
X88009782Y-38547838D01*
X87948121Y-38580696D01*
X87878484Y-38575001D01*
X87822980Y-38532561D01*
X87803907Y-38490799D01*
X87803400Y-38490956D01*
X87802192Y-38487043D01*
X87802109Y-38486860D01*
X87802031Y-38486522D01*
X87802026Y-38486505D01*
X87708941Y-38249328D01*
X87708942Y-38249328D01*
X87581545Y-38028672D01*
X87539545Y-37976006D01*
X86735772Y-38779779D01*
X86697099Y-38686412D01*
X86600925Y-38561075D01*
X86475588Y-38464901D01*
X86382219Y-38426226D01*
X87186185Y-37622260D01*
X87025384Y-37512628D01*
X87025376Y-37512623D01*
X86795823Y-37402078D01*
X86795825Y-37402078D01*
X86552347Y-37326975D01*
X86552341Y-37326973D01*
X86300404Y-37289000D01*
X86045595Y-37289000D01*
X85793658Y-37326973D01*
X85793652Y-37326975D01*
X85550175Y-37402078D01*
X85320622Y-37512625D01*
X85320609Y-37512632D01*
X85159813Y-37622259D01*
X85963780Y-38426226D01*
X85870412Y-38464901D01*
X85745075Y-38561075D01*
X85648901Y-38686411D01*
X85610226Y-38779780D01*
X84806452Y-37976006D01*
X84764457Y-38028667D01*
X84637058Y-38249328D01*
X84543973Y-38486505D01*
X84543968Y-38486522D01*
X84487273Y-38734920D01*
X84468233Y-38988995D01*
X84468233Y-38989004D01*
X84078300Y-38989004D01*
X84078300Y-38988993D01*
X84059135Y-38757702D01*
X84059133Y-38757691D01*
X84002157Y-38532699D01*
X83908924Y-38320151D01*
X83781983Y-38125852D01*
X83781980Y-38125849D01*
X83781979Y-38125847D01*
X83624784Y-37955087D01*
X83624779Y-37955083D01*
X83624777Y-37955081D01*
X83441634Y-37812535D01*
X83441628Y-37812531D01*
X83237504Y-37702064D01*
X83237495Y-37702061D01*
X83017984Y-37626702D01*
X82798583Y-37590091D01*
X82789049Y-37588500D01*
X82556951Y-37588500D01*
X82547417Y-37590091D01*
X82328015Y-37626702D01*
X82108504Y-37702061D01*
X82108495Y-37702064D01*
X81904371Y-37812531D01*
X81904365Y-37812535D01*
X81721222Y-37955081D01*
X81721219Y-37955084D01*
X81721216Y-37955086D01*
X81721216Y-37955087D01*
X81662267Y-38019122D01*
X81564016Y-38125852D01*
X81437075Y-38320151D01*
X81343842Y-38532699D01*
X81286866Y-38757691D01*
X81286864Y-38757702D01*
X81267700Y-38988993D01*
X81267700Y-38989006D01*
X81286864Y-39220297D01*
X81286866Y-39220308D01*
X81343842Y-39445300D01*
X81437073Y-39657843D01*
X81437076Y-39657849D01*
X81438157Y-39659503D01*
X81438390Y-39660277D01*
X81439514Y-39662353D01*
X81439086Y-39662584D01*
X81458342Y-39726394D01*
X81439158Y-39793579D01*
X81422026Y-39815001D01*
X80701686Y-40535341D01*
X80688735Y-40546612D01*
X80682467Y-40551344D01*
X80651222Y-40585618D01*
X80647274Y-40589753D01*
X80634527Y-40602500D01*
X80631446Y-40606211D01*
X80624785Y-40614619D01*
X80606783Y-40634366D01*
X80606783Y-40634367D01*
X80604278Y-40640833D01*
X80590959Y-40666102D01*
X80587045Y-40671815D01*
X80587043Y-40671820D01*
X80580928Y-40697817D01*
X80575851Y-40714213D01*
X80566200Y-40739126D01*
X80566200Y-40746051D01*
X80562906Y-40774441D01*
X80561321Y-40781177D01*
X80561321Y-40781182D01*
X80565011Y-40807633D01*
X80566200Y-40824764D01*
X80566200Y-68987824D01*
X80546515Y-69054863D01*
X80535915Y-69069023D01*
X80506130Y-69103397D01*
X80478213Y-69135616D01*
X80419435Y-69173390D01*
X80349565Y-69173390D01*
X80290787Y-69135615D01*
X80261762Y-69072060D01*
X80260500Y-69054413D01*
X80260500Y-35124500D01*
X80280185Y-35057461D01*
X80332989Y-35011706D01*
X80384500Y-35000500D01*
X142599348Y-35000500D01*
X142666387Y-35020185D01*
G37*
%TD.AperFunction*%
%TA.AperFunction,Conductor*%
G36*
X179202539Y-35020185D02*
G01*
X179248294Y-35072989D01*
X179259500Y-35124500D01*
X179259500Y-37341000D01*
X179239815Y-37408039D01*
X179187011Y-37453794D01*
X179135500Y-37465000D01*
X166093378Y-37465000D01*
X166026339Y-37445315D01*
X165980584Y-37392511D01*
X165970640Y-37323353D01*
X165999665Y-37259797D01*
X166026337Y-37236685D01*
X166142328Y-37162143D01*
X166236577Y-37053373D01*
X166296365Y-36922457D01*
X166316847Y-36780000D01*
X166296365Y-36637543D01*
X166236577Y-36506627D01*
X166142328Y-36397857D01*
X166021253Y-36320047D01*
X166021251Y-36320046D01*
X166021249Y-36320045D01*
X166021250Y-36320045D01*
X165883163Y-36279500D01*
X165883161Y-36279500D01*
X165739239Y-36279500D01*
X165739236Y-36279500D01*
X165601149Y-36320045D01*
X165480073Y-36397856D01*
X165385823Y-36506626D01*
X165385822Y-36506628D01*
X165326034Y-36637543D01*
X165305553Y-36780000D01*
X165305553Y-36780001D01*
X165306861Y-36789103D01*
X165296913Y-36858261D01*
X165271803Y-36894424D01*
X165138046Y-37028182D01*
X165076726Y-37061666D01*
X165050367Y-37064500D01*
X152513663Y-37064500D01*
X152446624Y-37044815D01*
X152400869Y-36992011D01*
X152390925Y-36922853D01*
X152400869Y-36888988D01*
X152427965Y-36829657D01*
X152448447Y-36687200D01*
X152427965Y-36544743D01*
X152368177Y-36413827D01*
X152273928Y-36305057D01*
X152152853Y-36227247D01*
X152152851Y-36227246D01*
X152152849Y-36227245D01*
X152152850Y-36227245D01*
X152014763Y-36186700D01*
X152014761Y-36186700D01*
X151870839Y-36186700D01*
X151870835Y-36186700D01*
X151865331Y-36187491D01*
X151802903Y-36180380D01*
X151786175Y-36173900D01*
X151786173Y-36173900D01*
X151779249Y-36173900D01*
X151750858Y-36170606D01*
X151744119Y-36169021D01*
X151717666Y-36172711D01*
X151700536Y-36173900D01*
X148758738Y-36173900D01*
X148741610Y-36172711D01*
X148733838Y-36171627D01*
X148733835Y-36171627D01*
X148693572Y-36173488D01*
X148687520Y-36173768D01*
X148681795Y-36173900D01*
X148663756Y-36173900D01*
X148663751Y-36173900D01*
X148658932Y-36174347D01*
X148648296Y-36175581D01*
X148621605Y-36176815D01*
X148621604Y-36176815D01*
X148615258Y-36179617D01*
X148587985Y-36188063D01*
X148581170Y-36189337D01*
X148581165Y-36189339D01*
X148558456Y-36203399D01*
X148543273Y-36211402D01*
X148518834Y-36222193D01*
X148513929Y-36227098D01*
X148491539Y-36244833D01*
X148485649Y-36248480D01*
X148485647Y-36248482D01*
X148469551Y-36269795D01*
X148458282Y-36282744D01*
X148197048Y-36543981D01*
X148135725Y-36577466D01*
X148109366Y-36580300D01*
X144522566Y-36580300D01*
X144455527Y-36560615D01*
X144409772Y-36507811D01*
X144403591Y-36491241D01*
X144401565Y-36484344D01*
X144341779Y-36353430D01*
X144341776Y-36353426D01*
X144247528Y-36244657D01*
X144126453Y-36166847D01*
X144126451Y-36166846D01*
X144126449Y-36166845D01*
X144126450Y-36166845D01*
X143988363Y-36126300D01*
X143988361Y-36126300D01*
X143844439Y-36126300D01*
X143844436Y-36126300D01*
X143706349Y-36166845D01*
X143585273Y-36244656D01*
X143585272Y-36244656D01*
X143585272Y-36244657D01*
X143581959Y-36248480D01*
X143491023Y-36353426D01*
X143491022Y-36353428D01*
X143431234Y-36484343D01*
X143410753Y-36626800D01*
X143431234Y-36769256D01*
X143471882Y-36858261D01*
X143491023Y-36900173D01*
X143585272Y-37008943D01*
X143706347Y-37086753D01*
X143706350Y-37086754D01*
X143706349Y-37086754D01*
X143844436Y-37127299D01*
X143844438Y-37127300D01*
X143952518Y-37127300D01*
X143997395Y-37140066D01*
X143998752Y-37136565D01*
X144015926Y-37143218D01*
X144041211Y-37156546D01*
X144046919Y-37160456D01*
X144072914Y-37166569D01*
X144089310Y-37171646D01*
X144114227Y-37181300D01*
X144121151Y-37181300D01*
X144149541Y-37184593D01*
X144156281Y-37186179D01*
X144179055Y-37183001D01*
X144182734Y-37182489D01*
X144199864Y-37181300D01*
X146687166Y-37181300D01*
X146754205Y-37200985D01*
X146799960Y-37253789D01*
X146809904Y-37322947D01*
X146780879Y-37386503D01*
X146774857Y-37392970D01*
X146760180Y-37407648D01*
X146748585Y-37419243D01*
X146735635Y-37430512D01*
X146729367Y-37435244D01*
X146698122Y-37469518D01*
X146694174Y-37473653D01*
X146681427Y-37486400D01*
X146678346Y-37490111D01*
X146671685Y-37498519D01*
X146653683Y-37518266D01*
X146653683Y-37518267D01*
X146651178Y-37524733D01*
X146637859Y-37550002D01*
X146633945Y-37555715D01*
X146633943Y-37555720D01*
X146627828Y-37581717D01*
X146622751Y-37598113D01*
X146613100Y-37623026D01*
X146613100Y-37629951D01*
X146609806Y-37658341D01*
X146608221Y-37665077D01*
X146608221Y-37665082D01*
X146611911Y-37691533D01*
X146613100Y-37708664D01*
X146613100Y-40582660D01*
X146593415Y-40649699D01*
X146582813Y-40663862D01*
X146488225Y-40773022D01*
X146488222Y-40773028D01*
X146428434Y-40903943D01*
X146407953Y-41046400D01*
X146428434Y-41188856D01*
X146465879Y-41270847D01*
X146488223Y-41319773D01*
X146582472Y-41428543D01*
X146703547Y-41506353D01*
X146703550Y-41506354D01*
X146703549Y-41506354D01*
X146841636Y-41546899D01*
X146841638Y-41546900D01*
X146841639Y-41546900D01*
X146985562Y-41546900D01*
X146985562Y-41546899D01*
X147123653Y-41506353D01*
X147244728Y-41428543D01*
X147338977Y-41319773D01*
X147338979Y-41319767D01*
X147343771Y-41312313D01*
X147345864Y-41313658D01*
X147382959Y-41270848D01*
X147449999Y-41251163D01*
X147517038Y-41270847D01*
X147562794Y-41323650D01*
X147574000Y-41375163D01*
X147574000Y-47230866D01*
X147554315Y-47297905D01*
X147501511Y-47343660D01*
X147432353Y-47353604D01*
X147368797Y-47324579D01*
X147362319Y-47318547D01*
X147098019Y-47054247D01*
X147064534Y-46992924D01*
X147061700Y-46966566D01*
X147061700Y-43062343D01*
X147062889Y-43045212D01*
X147063972Y-43037440D01*
X147063974Y-43037436D01*
X147061832Y-42991108D01*
X147061700Y-42985382D01*
X147061700Y-42967354D01*
X147061250Y-42962502D01*
X147060018Y-42951889D01*
X147059717Y-42945373D01*
X147058785Y-42925209D01*
X147055984Y-42918866D01*
X147047532Y-42891570D01*
X147046261Y-42884767D01*
X147032203Y-42862062D01*
X147024195Y-42846870D01*
X147013407Y-42822437D01*
X147013406Y-42822436D01*
X147013406Y-42822435D01*
X147008509Y-42817538D01*
X146990763Y-42795134D01*
X146987118Y-42789247D01*
X146987117Y-42789246D01*
X146965802Y-42773150D01*
X146952848Y-42761877D01*
X144429495Y-40238524D01*
X144396010Y-40177201D01*
X144394439Y-40133194D01*
X144395747Y-40124100D01*
X144375265Y-39981643D01*
X144315477Y-39850727D01*
X144221228Y-39741957D01*
X144100153Y-39664147D01*
X144100151Y-39664146D01*
X144100149Y-39664145D01*
X144100150Y-39664145D01*
X143962063Y-39623600D01*
X143962061Y-39623600D01*
X143818139Y-39623600D01*
X143818136Y-39623600D01*
X143680049Y-39664145D01*
X143558973Y-39741956D01*
X143520213Y-39786688D01*
X143461435Y-39824462D01*
X143391565Y-39824462D01*
X143332787Y-39786688D01*
X143303762Y-39723132D01*
X143302500Y-39705485D01*
X143302500Y-37963937D01*
X143303689Y-37946806D01*
X143304771Y-37939040D01*
X143304773Y-37939036D01*
X143302632Y-37892721D01*
X143302500Y-37886996D01*
X143302500Y-37868959D01*
X143302046Y-37864066D01*
X143300817Y-37853480D01*
X143300748Y-37851981D01*
X143299585Y-37826809D01*
X143296788Y-37820476D01*
X143288332Y-37793170D01*
X143287061Y-37786367D01*
X143276461Y-37769247D01*
X143273003Y-37763662D01*
X143264995Y-37748470D01*
X143254207Y-37724037D01*
X143254206Y-37724036D01*
X143254206Y-37724035D01*
X143249309Y-37719138D01*
X143231563Y-37696734D01*
X143227918Y-37690847D01*
X143227917Y-37690846D01*
X143206602Y-37674750D01*
X143193648Y-37663477D01*
X142627619Y-37097448D01*
X142594134Y-37036125D01*
X142591300Y-37009767D01*
X142591300Y-36484832D01*
X142610985Y-36417793D01*
X142627615Y-36397155D01*
X142991751Y-36033018D01*
X143053074Y-35999534D01*
X143079432Y-35996700D01*
X143175562Y-35996700D01*
X143175562Y-35996699D01*
X143313653Y-35956153D01*
X143434728Y-35878343D01*
X143528977Y-35769573D01*
X143588765Y-35638657D01*
X143609247Y-35496200D01*
X143588765Y-35353743D01*
X143528977Y-35222827D01*
X143528975Y-35222825D01*
X143528974Y-35222822D01*
X143514139Y-35205702D01*
X143485114Y-35142146D01*
X143495058Y-35072988D01*
X143540813Y-35020184D01*
X143607852Y-35000500D01*
X179135500Y-35000500D01*
X179202539Y-35020185D01*
G37*
%TD.AperFunction*%
%TD*%
D20*
X79760000Y-34500000D02*
X179760000Y-34500000D01*
X179760000Y-84500000D01*
X79760000Y-84500000D01*
X79760000Y-34500000D01*
M02*
