M48
; DRILL file {KiCad 7.0.11+dfsg-1build4} date mié 25 feb 2026 12:42:05
; FORMAT={-:-/ absolute / metric / decimal}
; #@! TF.CreationDate,2026-02-25T12:42:05-05:00
; #@! TF.GenerationSoftware,Kicad,Pcbnew,7.0.11+dfsg-1build4
; #@! TF.FileFunction,Plated,1,2,PTH
FMAT,2
METRIC
; #@! TA.AperFunction,Plated,PTH,ViaDrill
T1C0.300
; #@! TA.AperFunction,Plated,PTH,ComponentDrill
T2C1.000
; #@! TA.AperFunction,Plated,PTH,ComponentDrill
T3C1.200
%
G90
G05
T1
X80.772Y-35.56
X80.772Y-77.47
X83.892Y-74.008
X92.876Y-47.48
X95.375Y-59.485
X95.869Y-44.557
X95.962Y-74.21
X96.509Y-59.499
X100.093Y-58.144
X100.838Y-65.278
X102.096Y-73.867
X102.846Y-76.957
X103.433Y-74.104
X104.735Y-73.597
X105.092Y-76.701
X105.51Y-71.311
X105.565Y-53.538
X105.772Y-56.552
X106.957Y-62.271
X107.08Y-57.57
X107.095Y-76.757
X110.673Y-49.076
X111.263Y-63.03
X112.005Y-62.205
X114.08Y-53.881
X115.04Y-57.807
X115.062Y-66.421
X115.316Y-73.535
X115.478Y-63.373
X115.63Y-59.936
X115.697Y-54.228
X115.697Y-55.499
X116.026Y-72.451
X116.061Y-68.199
X116.061Y-71.045
X116.08Y-75.406
X116.332Y-62.011
X116.352Y-44.557
X116.67Y-67.006
X116.84Y-52.275
X117.821Y-55.471
X118.507Y-56.299
X118.618Y-38.354
X118.792Y-73.968
X118.917Y-46.721
X118.962Y-64.145
X119.542Y-52.875
X121.227Y-60.058
X121.447Y-73.152
X123.19Y-73.66
X127.762Y-55.626
X128.287Y-52.273
X129.286Y-49.628
X129.413Y-48.133
X129.54Y-75.692
X130.683Y-38.354
X130.683Y-59.944
X130.81Y-67.31
X131.008Y-53.436
X131.064Y-40.386
X131.064Y-43.815
X131.271Y-35.902
X132.374Y-41.4
X133.985Y-43.053
X134.62Y-53.975
X136.645Y-49.859
X137.922Y-53.975
X138.273Y-40.73
X138.303Y-42.291
X138.311Y-43.815
X138.684Y-35.56
X142.494Y-59.817
X142.748Y-67.818
X143.221Y-38.608
X143.221Y-39.878
X143.764Y-50.8
X143.891Y-40.513
X145.796Y-56.388
X146.429Y-59.04
X146.547Y-46.751
X147.065Y-36.958
X147.32Y-67.564
X148.59Y-77.47
X153.67Y-36.708
X155.575Y-36.195
X156.337Y-45.882
X163.652Y-36.78
X165.608Y-42.164
X169.164Y-49.911
X172.212Y-49.022
X173.482Y-43.815
X176.53Y-42.291
X178.816Y-35.306
T2
X83.185Y-56.515
X83.185Y-71.755
X85.725Y-56.515
X85.725Y-71.755
X88.265Y-56.515
X88.265Y-71.755
X90.805Y-56.515
X90.805Y-71.755
X93.345Y-56.515
X93.345Y-71.755
X95.885Y-56.515
X95.885Y-71.755
X98.425Y-56.515
X98.425Y-71.755
X100.965Y-56.515
X100.965Y-71.755
X131.445Y-51.404
X133.985Y-51.404
X136.525Y-51.404
X139.065Y-51.404
T3
X82.673Y-38.989
X84.423Y-50.419
X86.173Y-38.989
X87.923Y-50.419
X89.673Y-38.989
X91.423Y-50.419
X93.173Y-38.989
X94.923Y-50.419
X96.673Y-38.989
X98.423Y-50.419
X100.173Y-38.989
X101.923Y-50.419
X103.673Y-38.989
X105.423Y-50.419
X107.173Y-38.989
X108.923Y-50.419
X110.673Y-38.989
X112.423Y-50.419
X114.173Y-38.989
X115.923Y-50.419
X163.83Y-52.38
X163.83Y-55.88
X163.83Y-59.38
X163.83Y-62.88
X163.83Y-66.38
X163.83Y-69.88
X163.83Y-73.38
X175.26Y-50.63
X175.26Y-54.13
X175.26Y-57.63
X175.26Y-61.13
X175.26Y-64.63
X175.26Y-68.13
X175.26Y-71.63
M30
