%TF.GenerationSoftware,KiCad,Pcbnew,7.0.11+dfsg-1build4*%
%TF.CreationDate,2026-03-19T18:52:13-05:00*%
%TF.ProjectId,b03,6230332e-6b69-4636-9164-5f7063625858,rev?*%
%TF.SameCoordinates,Original*%
%TF.FileFunction,Soldermask,Top*%
%TF.FilePolarity,Negative*%
%FSLAX46Y46*%
G04 Gerber Fmt 4.6, Leading zero omitted, Abs format (unit mm)*
G04 Created by KiCad (PCBNEW 7.0.11+dfsg-1build4) date 2026-03-19 18:52:13*
%MOMM*%
%LPD*%
G01*
G04 APERTURE LIST*
G04 Aperture macros list*
%AMRoundRect*
0 Rectangle with rounded corners*
0 $1 Rounding radius*
0 $2 $3 $4 $5 $6 $7 $8 $9 X,Y pos of 4 corners*
0 Add a 4 corners polygon primitive as box body*
4,1,4,$2,$3,$4,$5,$6,$7,$8,$9,$2,$3,0*
0 Add four circle primitives for the rounded corners*
1,1,$1+$1,$2,$3*
1,1,$1+$1,$4,$5*
1,1,$1+$1,$6,$7*
1,1,$1+$1,$8,$9*
0 Add four rect primitives between the rounded corners*
20,1,$1+$1,$2,$3,$4,$5,0*
20,1,$1+$1,$4,$5,$6,$7,0*
20,1,$1+$1,$6,$7,$8,$9,0*
20,1,$1+$1,$8,$9,$2,$3,0*%
G04 Aperture macros list end*
%ADD10RoundRect,0.250000X0.337500X0.475000X-0.337500X0.475000X-0.337500X-0.475000X0.337500X-0.475000X0*%
%ADD11RoundRect,0.250000X0.350000X0.450000X-0.350000X0.450000X-0.350000X-0.450000X0.350000X-0.450000X0*%
%ADD12RoundRect,0.162500X-0.617500X-0.162500X0.617500X-0.162500X0.617500X0.162500X-0.617500X0.162500X0*%
%ADD13C,3.200000*%
%ADD14RoundRect,0.250000X-0.350000X-0.450000X0.350000X-0.450000X0.350000X0.450000X-0.350000X0.450000X0*%
%ADD15R,1.800000X0.800000*%
%ADD16RoundRect,0.250000X0.325000X0.450000X-0.325000X0.450000X-0.325000X-0.450000X0.325000X-0.450000X0*%
%ADD17R,1.600000X1.600000*%
%ADD18O,1.600000X1.600000*%
%ADD19RoundRect,0.250000X-0.325000X-0.450000X0.325000X-0.450000X0.325000X0.450000X-0.325000X0.450000X0*%
%ADD20R,0.800000X1.800000*%
%ADD21RoundRect,0.250000X-0.475000X0.337500X-0.475000X-0.337500X0.475000X-0.337500X0.475000X0.337500X0*%
%ADD22RoundRect,0.250000X-0.337500X-0.475000X0.337500X-0.475000X0.337500X0.475000X-0.337500X0.475000X0*%
%ADD23R,1.700000X1.700000*%
%ADD24C,1.700000*%
%ADD25RoundRect,0.375000X-0.625000X-0.375000X0.625000X-0.375000X0.625000X0.375000X-0.625000X0.375000X0*%
%ADD26RoundRect,0.500000X-0.500000X-1.400000X0.500000X-1.400000X0.500000X1.400000X-0.500000X1.400000X0*%
%ADD27R,1.300000X1.550000*%
%ADD28RoundRect,0.150000X-0.825000X-0.150000X0.825000X-0.150000X0.825000X0.150000X-0.825000X0.150000X0*%
%ADD29R,2.400000X2.400000*%
%ADD30C,2.400000*%
%TA.AperFunction,Profile*%
%ADD31C,0.050000*%
%TD*%
G04 APERTURE END LIST*
D10*
%TO.C,C3*%
X119761000Y-75565000D03*
X117686000Y-75565000D03*
%TD*%
D11*
%TO.C,R13*%
X110331000Y-70335000D03*
X108331000Y-70335000D03*
%TD*%
%TO.C,R10*%
X101965000Y-75930000D03*
X99965000Y-75930000D03*
%TD*%
D12*
%TO.C,U3*%
X117442000Y-57150000D03*
X117442000Y-58100000D03*
X117442000Y-59050000D03*
X120142000Y-59050000D03*
X120142000Y-58100000D03*
X120142000Y-57150000D03*
%TD*%
D11*
%TO.C,R11*%
X110331000Y-74535000D03*
X108331000Y-74535000D03*
%TD*%
D10*
%TO.C,C2*%
X119888000Y-61087000D03*
X117813000Y-61087000D03*
%TD*%
D13*
%TO.C,MH05*%
X130120000Y-82000000D03*
%TD*%
D14*
%TO.C,R8*%
X108331000Y-53884000D03*
X110331000Y-53884000D03*
%TD*%
D15*
%TO.C,K6*%
X178125000Y-42210000D03*
X178125000Y-40010000D03*
X178125000Y-44410000D03*
X171125000Y-42210000D03*
X171125000Y-40010000D03*
X171125000Y-44410000D03*
X178125000Y-36810000D03*
X171125000Y-36810000D03*
%TD*%
D11*
%TO.C,R16*%
X83185000Y-75930000D03*
X81185000Y-75930000D03*
%TD*%
D12*
%TO.C,U1*%
X117569000Y-64262000D03*
X117569000Y-65212000D03*
X117569000Y-66162000D03*
X120269000Y-66162000D03*
X120269000Y-65212000D03*
X120269000Y-64262000D03*
%TD*%
D15*
%TO.C,K5*%
X167655000Y-42210000D03*
X167655000Y-40010000D03*
X167655000Y-44410000D03*
X160655000Y-42210000D03*
X160655000Y-40010000D03*
X160655000Y-44410000D03*
X167655000Y-36810000D03*
X160655000Y-36810000D03*
%TD*%
D16*
%TO.C,D5*%
X114411000Y-59980000D03*
X112361000Y-59980000D03*
%TD*%
D13*
%TO.C,MH01*%
X170760000Y-82000000D03*
%TD*%
D10*
%TO.C,C1*%
X119761000Y-68199000D03*
X117686000Y-68199000D03*
%TD*%
D13*
%TO.C,MH03*%
X150440000Y-82000000D03*
%TD*%
D12*
%TO.C,U6*%
X117442000Y-71501000D03*
X117442000Y-72451000D03*
X117442000Y-73401000D03*
X120142000Y-73401000D03*
X120142000Y-72451000D03*
X120142000Y-71501000D03*
%TD*%
D14*
%TO.C,R14*%
X108331000Y-72435000D03*
X110331000Y-72435000D03*
%TD*%
%TO.C,R4*%
X108331000Y-62035000D03*
X110331000Y-62035000D03*
%TD*%
D17*
%TO.C,U4*%
X83185000Y-71755000D03*
D18*
X85725000Y-71755000D03*
X88265000Y-71755000D03*
X90805000Y-71755000D03*
X93345000Y-71755000D03*
X95885000Y-71755000D03*
X98425000Y-71755000D03*
X100965000Y-71755000D03*
X100965000Y-56515000D03*
X98425000Y-56515000D03*
X95885000Y-56515000D03*
X93345000Y-56515000D03*
X90805000Y-56515000D03*
X88265000Y-56515000D03*
X85725000Y-56515000D03*
X83185000Y-56515000D03*
%TD*%
D11*
%TO.C,R9*%
X98155000Y-75930000D03*
X96155000Y-75930000D03*
%TD*%
D14*
%TO.C,R5*%
X108331000Y-64135000D03*
X110331000Y-64135000D03*
%TD*%
D19*
%TO.C,D7*%
X90025000Y-75930000D03*
X92075000Y-75930000D03*
%TD*%
D14*
%TO.C,R15*%
X85630000Y-75930000D03*
X87630000Y-75930000D03*
%TD*%
D16*
%TO.C,D6*%
X114429000Y-55916000D03*
X112379000Y-55916000D03*
%TD*%
D20*
%TO.C,K3*%
X156020000Y-48570000D03*
X153820000Y-48570000D03*
X158220000Y-48570000D03*
X156020000Y-55570000D03*
X153820000Y-55570000D03*
X158220000Y-55570000D03*
X150620000Y-48570000D03*
X150620000Y-55570000D03*
%TD*%
D21*
%TO.C,C5*%
X124460000Y-46101000D03*
X124460000Y-48176000D03*
%TD*%
D20*
%TO.C,K2*%
X156020000Y-59040000D03*
X153820000Y-59040000D03*
X158220000Y-59040000D03*
X156020000Y-66040000D03*
X153820000Y-66040000D03*
X158220000Y-66040000D03*
X150620000Y-59040000D03*
X150620000Y-66040000D03*
%TD*%
D13*
%TO.C,MH09*%
X89480000Y-82000000D03*
%TD*%
D21*
%TO.C,C4*%
X127000000Y-46101000D03*
X127000000Y-48176000D03*
%TD*%
D13*
%TO.C,MH02*%
X160600000Y-82000000D03*
%TD*%
%TO.C,MH07*%
X109800000Y-82000000D03*
%TD*%
D14*
%TO.C,R17*%
X108347000Y-55916000D03*
X110347000Y-55916000D03*
%TD*%
D10*
%TO.C,C8*%
X143658500Y-47244000D03*
X141583500Y-47244000D03*
%TD*%
D22*
%TO.C,C6*%
X126873000Y-36703000D03*
X128948000Y-36703000D03*
%TD*%
D16*
%TO.C,D4*%
X114411000Y-64135000D03*
X112361000Y-64135000D03*
%TD*%
%TO.C,D2*%
X114411000Y-72435000D03*
X112361000Y-72435000D03*
%TD*%
D13*
%TO.C,MH08*%
X99640000Y-82000000D03*
%TD*%
D14*
%TO.C,R12*%
X108331000Y-76570000D03*
X110331000Y-76570000D03*
%TD*%
%TO.C,R6*%
X108331000Y-57948000D03*
X110331000Y-57948000D03*
%TD*%
D23*
%TO.C,U5*%
X131445000Y-51404500D03*
D24*
X133985000Y-51404500D03*
X136525000Y-51404500D03*
X139065000Y-51404500D03*
%TD*%
D14*
%TO.C,R2*%
X108331000Y-66135000D03*
X110331000Y-66135000D03*
%TD*%
D15*
%TO.C,K4*%
X157170000Y-42210000D03*
X157170000Y-40010000D03*
X157170000Y-44410000D03*
X150170000Y-42210000D03*
X150170000Y-40010000D03*
X150170000Y-44410000D03*
X157170000Y-36810000D03*
X150170000Y-36810000D03*
%TD*%
D10*
%TO.C,C7*%
X124968000Y-36703000D03*
X122893000Y-36703000D03*
%TD*%
D25*
%TO.C,U7*%
X122478000Y-39229000D03*
X122478000Y-41529000D03*
D26*
X128778000Y-41529000D03*
D25*
X122478000Y-43829000D03*
%TD*%
D14*
%TO.C,R1*%
X134017000Y-36957000D03*
X136017000Y-36957000D03*
%TD*%
D20*
%TO.C,K1*%
X156020000Y-69200000D03*
X153820000Y-69200000D03*
X158220000Y-69200000D03*
X156020000Y-76200000D03*
X153820000Y-76200000D03*
X158220000Y-76200000D03*
X150620000Y-69200000D03*
X150620000Y-76200000D03*
%TD*%
D16*
%TO.C,D1*%
X114411000Y-76570000D03*
X112361000Y-76570000D03*
%TD*%
D14*
%TO.C,R7*%
X108331000Y-59980000D03*
X110331000Y-59980000D03*
%TD*%
D27*
%TO.C,SW1*%
X132842000Y-47447000D03*
X132842000Y-39497000D03*
X137342000Y-47447000D03*
X137342000Y-39497000D03*
%TD*%
D28*
%TO.C,U2*%
X140465000Y-36195000D03*
X140465000Y-37465000D03*
X140465000Y-38735000D03*
X140465000Y-40005000D03*
X140465000Y-41275000D03*
X140465000Y-42545000D03*
X140465000Y-43815000D03*
X140465000Y-45085000D03*
X145415000Y-45085000D03*
X145415000Y-43815000D03*
X145415000Y-42545000D03*
X145415000Y-41275000D03*
X145415000Y-40005000D03*
X145415000Y-38735000D03*
X145415000Y-37465000D03*
X145415000Y-36195000D03*
%TD*%
D13*
%TO.C,MH06*%
X119960000Y-82000000D03*
%TD*%
D16*
%TO.C,D3*%
X114411000Y-68235000D03*
X112361000Y-68235000D03*
%TD*%
D29*
%TO.C,J2*%
X175260000Y-71630000D03*
D30*
X163830000Y-73380000D03*
X175260000Y-68130000D03*
X163830000Y-69880000D03*
X175260000Y-64630000D03*
X163830000Y-66380000D03*
X175260000Y-61130000D03*
X163830000Y-62880000D03*
X175260000Y-57630000D03*
X163830000Y-59380000D03*
X175260000Y-54130000D03*
X163830000Y-55880000D03*
X175260000Y-50630000D03*
X163830000Y-52380000D03*
%TD*%
D13*
%TO.C,MH04*%
X140280000Y-82000000D03*
%TD*%
D29*
%TO.C,J1*%
X114173000Y-38989000D03*
D30*
X115923000Y-50419000D03*
X110673000Y-38989000D03*
X112423000Y-50419000D03*
X107173000Y-38989000D03*
X108923000Y-50419000D03*
X103673000Y-38989000D03*
X105423000Y-50419000D03*
X100173000Y-38989000D03*
X101923000Y-50419000D03*
X96673000Y-38989000D03*
X98423000Y-50419000D03*
X93173000Y-38989000D03*
X94923000Y-50419000D03*
X89673000Y-38989000D03*
X91423000Y-50419000D03*
X86173000Y-38989000D03*
X87923000Y-50419000D03*
X82673000Y-38989000D03*
X84423000Y-50419000D03*
%TD*%
D14*
%TO.C,R3*%
X108331000Y-68235000D03*
X110331000Y-68235000D03*
%TD*%
D31*
X79760000Y-34500000D02*
X179760000Y-34500000D01*
X179760000Y-84500000D01*
X79760000Y-84500000D01*
X79760000Y-34500000D01*
M02*
