%TF.GenerationSoftware,KiCad,Pcbnew,7.0.11+dfsg-1build4*%
%TF.CreationDate,2026-07-30T18:07:14-05:00*%
%TF.ProjectId,,58585858-5858-4585-9858-585858585858,rev?*%
%TF.SameCoordinates,Original*%
%TF.FileFunction,Legend,Bot*%
%TF.FilePolarity,Positive*%
%FSLAX46Y46*%
G04 Gerber Fmt 4.6, Leading zero omitted, Abs format (unit mm)*
G04 Created by KiCad (PCBNEW 7.0.11+dfsg-1build4) date 2026-07-30 18:07:14*
%MOMM*%
%LPD*%
G01*
G04 APERTURE LIST*
%ADD10C,0.150000*%
%TA.AperFunction,Profile*%
%ADD11C,0.050000*%
%TD*%
G04 APERTURE END LIST*
D10*
X112273220Y-100029819D02*
X112273220Y-99029819D01*
X112273220Y-99029819D02*
X112035125Y-99029819D01*
X112035125Y-99029819D02*
X111892268Y-99077438D01*
X111892268Y-99077438D02*
X111797030Y-99172676D01*
X111797030Y-99172676D02*
X111749411Y-99267914D01*
X111749411Y-99267914D02*
X111701792Y-99458390D01*
X111701792Y-99458390D02*
X111701792Y-99601247D01*
X111701792Y-99601247D02*
X111749411Y-99791723D01*
X111749411Y-99791723D02*
X111797030Y-99886961D01*
X111797030Y-99886961D02*
X111892268Y-99982200D01*
X111892268Y-99982200D02*
X112035125Y-100029819D01*
X112035125Y-100029819D02*
X112273220Y-100029819D01*
X111082744Y-99029819D02*
X110987506Y-99029819D01*
X110987506Y-99029819D02*
X110892268Y-99077438D01*
X110892268Y-99077438D02*
X110844649Y-99125057D01*
X110844649Y-99125057D02*
X110797030Y-99220295D01*
X110797030Y-99220295D02*
X110749411Y-99410771D01*
X110749411Y-99410771D02*
X110749411Y-99648866D01*
X110749411Y-99648866D02*
X110797030Y-99839342D01*
X110797030Y-99839342D02*
X110844649Y-99934580D01*
X110844649Y-99934580D02*
X110892268Y-99982200D01*
X110892268Y-99982200D02*
X110987506Y-100029819D01*
X110987506Y-100029819D02*
X111082744Y-100029819D01*
X111082744Y-100029819D02*
X111177982Y-99982200D01*
X111177982Y-99982200D02*
X111225601Y-99934580D01*
X111225601Y-99934580D02*
X111273220Y-99839342D01*
X111273220Y-99839342D02*
X111320839Y-99648866D01*
X111320839Y-99648866D02*
X111320839Y-99410771D01*
X111320839Y-99410771D02*
X111273220Y-99220295D01*
X111273220Y-99220295D02*
X111225601Y-99125057D01*
X111225601Y-99125057D02*
X111177982Y-99077438D01*
X111177982Y-99077438D02*
X111082744Y-99029819D01*
X110368458Y-99125057D02*
X110320839Y-99077438D01*
X110320839Y-99077438D02*
X110225601Y-99029819D01*
X110225601Y-99029819D02*
X109987506Y-99029819D01*
X109987506Y-99029819D02*
X109892268Y-99077438D01*
X109892268Y-99077438D02*
X109844649Y-99125057D01*
X109844649Y-99125057D02*
X109797030Y-99220295D01*
X109797030Y-99220295D02*
X109797030Y-99315533D01*
X109797030Y-99315533D02*
X109844649Y-99458390D01*
X109844649Y-99458390D02*
X110416077Y-100029819D01*
X110416077Y-100029819D02*
X109797030Y-100029819D01*
X109606554Y-100125057D02*
X108844649Y-100125057D01*
X108606553Y-100029819D02*
X108606553Y-99029819D01*
X108177982Y-100029819D02*
X108177982Y-99506009D01*
X108177982Y-99506009D02*
X108225601Y-99410771D01*
X108225601Y-99410771D02*
X108320839Y-99363152D01*
X108320839Y-99363152D02*
X108463696Y-99363152D01*
X108463696Y-99363152D02*
X108558934Y-99410771D01*
X108558934Y-99410771D02*
X108606553Y-99458390D01*
X107701791Y-100029819D02*
X107701791Y-99363152D01*
X107701791Y-99029819D02*
X107749410Y-99077438D01*
X107749410Y-99077438D02*
X107701791Y-99125057D01*
X107701791Y-99125057D02*
X107654172Y-99077438D01*
X107654172Y-99077438D02*
X107701791Y-99029819D01*
X107701791Y-99029819D02*
X107701791Y-99125057D01*
X107082744Y-100029819D02*
X107177982Y-99982200D01*
X107177982Y-99982200D02*
X107225601Y-99886961D01*
X107225601Y-99886961D02*
X107225601Y-99029819D01*
X106939887Y-100125057D02*
X106177982Y-100125057D01*
X106082743Y-99363152D02*
X105701791Y-99363152D01*
X105939886Y-100029819D02*
X105939886Y-99172676D01*
X105939886Y-99172676D02*
X105892267Y-99077438D01*
X105892267Y-99077438D02*
X105797029Y-99029819D01*
X105797029Y-99029819D02*
X105701791Y-99029819D01*
X104939886Y-100029819D02*
X104939886Y-99506009D01*
X104939886Y-99506009D02*
X104987505Y-99410771D01*
X104987505Y-99410771D02*
X105082743Y-99363152D01*
X105082743Y-99363152D02*
X105273219Y-99363152D01*
X105273219Y-99363152D02*
X105368457Y-99410771D01*
X104939886Y-99982200D02*
X105035124Y-100029819D01*
X105035124Y-100029819D02*
X105273219Y-100029819D01*
X105273219Y-100029819D02*
X105368457Y-99982200D01*
X105368457Y-99982200D02*
X105416076Y-99886961D01*
X105416076Y-99886961D02*
X105416076Y-99791723D01*
X105416076Y-99791723D02*
X105368457Y-99696485D01*
X105368457Y-99696485D02*
X105273219Y-99648866D01*
X105273219Y-99648866D02*
X105035124Y-99648866D01*
X105035124Y-99648866D02*
X104939886Y-99601247D01*
X104035124Y-99982200D02*
X104130362Y-100029819D01*
X104130362Y-100029819D02*
X104320838Y-100029819D01*
X104320838Y-100029819D02*
X104416076Y-99982200D01*
X104416076Y-99982200D02*
X104463695Y-99934580D01*
X104463695Y-99934580D02*
X104511314Y-99839342D01*
X104511314Y-99839342D02*
X104511314Y-99553628D01*
X104511314Y-99553628D02*
X104463695Y-99458390D01*
X104463695Y-99458390D02*
X104416076Y-99410771D01*
X104416076Y-99410771D02*
X104320838Y-99363152D01*
X104320838Y-99363152D02*
X104130362Y-99363152D01*
X104130362Y-99363152D02*
X104035124Y-99410771D01*
X103225600Y-99982200D02*
X103320838Y-100029819D01*
X103320838Y-100029819D02*
X103511314Y-100029819D01*
X103511314Y-100029819D02*
X103606552Y-99982200D01*
X103606552Y-99982200D02*
X103654171Y-99886961D01*
X103654171Y-99886961D02*
X103654171Y-99506009D01*
X103654171Y-99506009D02*
X103606552Y-99410771D01*
X103606552Y-99410771D02*
X103511314Y-99363152D01*
X103511314Y-99363152D02*
X103320838Y-99363152D01*
X103320838Y-99363152D02*
X103225600Y-99410771D01*
X103225600Y-99410771D02*
X103177981Y-99506009D01*
X103177981Y-99506009D02*
X103177981Y-99601247D01*
X103177981Y-99601247D02*
X103654171Y-99696485D01*
X102749409Y-99363152D02*
X102749409Y-100363152D01*
X102749409Y-99410771D02*
X102654171Y-99363152D01*
X102654171Y-99363152D02*
X102463695Y-99363152D01*
X102463695Y-99363152D02*
X102368457Y-99410771D01*
X102368457Y-99410771D02*
X102320838Y-99458390D01*
X102320838Y-99458390D02*
X102273219Y-99553628D01*
X102273219Y-99553628D02*
X102273219Y-99839342D01*
X102273219Y-99839342D02*
X102320838Y-99934580D01*
X102320838Y-99934580D02*
X102368457Y-99982200D01*
X102368457Y-99982200D02*
X102463695Y-100029819D01*
X102463695Y-100029819D02*
X102654171Y-100029819D01*
X102654171Y-100029819D02*
X102749409Y-99982200D01*
X101701790Y-100029819D02*
X101797028Y-99982200D01*
X101797028Y-99982200D02*
X101844647Y-99886961D01*
X101844647Y-99886961D02*
X101844647Y-99029819D01*
X100892266Y-100029819D02*
X100892266Y-99506009D01*
X100892266Y-99506009D02*
X100939885Y-99410771D01*
X100939885Y-99410771D02*
X101035123Y-99363152D01*
X101035123Y-99363152D02*
X101225599Y-99363152D01*
X101225599Y-99363152D02*
X101320837Y-99410771D01*
X100892266Y-99982200D02*
X100987504Y-100029819D01*
X100987504Y-100029819D02*
X101225599Y-100029819D01*
X101225599Y-100029819D02*
X101320837Y-99982200D01*
X101320837Y-99982200D02*
X101368456Y-99886961D01*
X101368456Y-99886961D02*
X101368456Y-99791723D01*
X101368456Y-99791723D02*
X101320837Y-99696485D01*
X101320837Y-99696485D02*
X101225599Y-99648866D01*
X101225599Y-99648866D02*
X100987504Y-99648866D01*
X100987504Y-99648866D02*
X100892266Y-99601247D01*
X100558932Y-99363152D02*
X100177980Y-99363152D01*
X100416075Y-99029819D02*
X100416075Y-99886961D01*
X100416075Y-99886961D02*
X100368456Y-99982200D01*
X100368456Y-99982200D02*
X100273218Y-100029819D01*
X100273218Y-100029819D02*
X100177980Y-100029819D01*
X99463694Y-99982200D02*
X99558932Y-100029819D01*
X99558932Y-100029819D02*
X99749408Y-100029819D01*
X99749408Y-100029819D02*
X99844646Y-99982200D01*
X99844646Y-99982200D02*
X99892265Y-99886961D01*
X99892265Y-99886961D02*
X99892265Y-99506009D01*
X99892265Y-99506009D02*
X99844646Y-99410771D01*
X99844646Y-99410771D02*
X99749408Y-99363152D01*
X99749408Y-99363152D02*
X99558932Y-99363152D01*
X99558932Y-99363152D02*
X99463694Y-99410771D01*
X99463694Y-99410771D02*
X99416075Y-99506009D01*
X99416075Y-99506009D02*
X99416075Y-99601247D01*
X99416075Y-99601247D02*
X99892265Y-99696485D01*
X64773220Y-100029819D02*
X64773220Y-99029819D01*
X64773220Y-99029819D02*
X64535125Y-99029819D01*
X64535125Y-99029819D02*
X64392268Y-99077438D01*
X64392268Y-99077438D02*
X64297030Y-99172676D01*
X64297030Y-99172676D02*
X64249411Y-99267914D01*
X64249411Y-99267914D02*
X64201792Y-99458390D01*
X64201792Y-99458390D02*
X64201792Y-99601247D01*
X64201792Y-99601247D02*
X64249411Y-99791723D01*
X64249411Y-99791723D02*
X64297030Y-99886961D01*
X64297030Y-99886961D02*
X64392268Y-99982200D01*
X64392268Y-99982200D02*
X64535125Y-100029819D01*
X64535125Y-100029819D02*
X64773220Y-100029819D01*
X63582744Y-99029819D02*
X63487506Y-99029819D01*
X63487506Y-99029819D02*
X63392268Y-99077438D01*
X63392268Y-99077438D02*
X63344649Y-99125057D01*
X63344649Y-99125057D02*
X63297030Y-99220295D01*
X63297030Y-99220295D02*
X63249411Y-99410771D01*
X63249411Y-99410771D02*
X63249411Y-99648866D01*
X63249411Y-99648866D02*
X63297030Y-99839342D01*
X63297030Y-99839342D02*
X63344649Y-99934580D01*
X63344649Y-99934580D02*
X63392268Y-99982200D01*
X63392268Y-99982200D02*
X63487506Y-100029819D01*
X63487506Y-100029819D02*
X63582744Y-100029819D01*
X63582744Y-100029819D02*
X63677982Y-99982200D01*
X63677982Y-99982200D02*
X63725601Y-99934580D01*
X63725601Y-99934580D02*
X63773220Y-99839342D01*
X63773220Y-99839342D02*
X63820839Y-99648866D01*
X63820839Y-99648866D02*
X63820839Y-99410771D01*
X63820839Y-99410771D02*
X63773220Y-99220295D01*
X63773220Y-99220295D02*
X63725601Y-99125057D01*
X63725601Y-99125057D02*
X63677982Y-99077438D01*
X63677982Y-99077438D02*
X63582744Y-99029819D01*
X62868458Y-99125057D02*
X62820839Y-99077438D01*
X62820839Y-99077438D02*
X62725601Y-99029819D01*
X62725601Y-99029819D02*
X62487506Y-99029819D01*
X62487506Y-99029819D02*
X62392268Y-99077438D01*
X62392268Y-99077438D02*
X62344649Y-99125057D01*
X62344649Y-99125057D02*
X62297030Y-99220295D01*
X62297030Y-99220295D02*
X62297030Y-99315533D01*
X62297030Y-99315533D02*
X62344649Y-99458390D01*
X62344649Y-99458390D02*
X62916077Y-100029819D01*
X62916077Y-100029819D02*
X62297030Y-100029819D01*
X62106554Y-100125057D02*
X61344649Y-100125057D01*
X61106553Y-100029819D02*
X61106553Y-99029819D01*
X60677982Y-100029819D02*
X60677982Y-99506009D01*
X60677982Y-99506009D02*
X60725601Y-99410771D01*
X60725601Y-99410771D02*
X60820839Y-99363152D01*
X60820839Y-99363152D02*
X60963696Y-99363152D01*
X60963696Y-99363152D02*
X61058934Y-99410771D01*
X61058934Y-99410771D02*
X61106553Y-99458390D01*
X60201791Y-100029819D02*
X60201791Y-99363152D01*
X60201791Y-99029819D02*
X60249410Y-99077438D01*
X60249410Y-99077438D02*
X60201791Y-99125057D01*
X60201791Y-99125057D02*
X60154172Y-99077438D01*
X60154172Y-99077438D02*
X60201791Y-99029819D01*
X60201791Y-99029819D02*
X60201791Y-99125057D01*
X59582744Y-100029819D02*
X59677982Y-99982200D01*
X59677982Y-99982200D02*
X59725601Y-99886961D01*
X59725601Y-99886961D02*
X59725601Y-99029819D01*
X59439887Y-100125057D02*
X58677982Y-100125057D01*
X58582743Y-99363152D02*
X58201791Y-99363152D01*
X58439886Y-100029819D02*
X58439886Y-99172676D01*
X58439886Y-99172676D02*
X58392267Y-99077438D01*
X58392267Y-99077438D02*
X58297029Y-99029819D01*
X58297029Y-99029819D02*
X58201791Y-99029819D01*
X57439886Y-100029819D02*
X57439886Y-99506009D01*
X57439886Y-99506009D02*
X57487505Y-99410771D01*
X57487505Y-99410771D02*
X57582743Y-99363152D01*
X57582743Y-99363152D02*
X57773219Y-99363152D01*
X57773219Y-99363152D02*
X57868457Y-99410771D01*
X57439886Y-99982200D02*
X57535124Y-100029819D01*
X57535124Y-100029819D02*
X57773219Y-100029819D01*
X57773219Y-100029819D02*
X57868457Y-99982200D01*
X57868457Y-99982200D02*
X57916076Y-99886961D01*
X57916076Y-99886961D02*
X57916076Y-99791723D01*
X57916076Y-99791723D02*
X57868457Y-99696485D01*
X57868457Y-99696485D02*
X57773219Y-99648866D01*
X57773219Y-99648866D02*
X57535124Y-99648866D01*
X57535124Y-99648866D02*
X57439886Y-99601247D01*
X56535124Y-99982200D02*
X56630362Y-100029819D01*
X56630362Y-100029819D02*
X56820838Y-100029819D01*
X56820838Y-100029819D02*
X56916076Y-99982200D01*
X56916076Y-99982200D02*
X56963695Y-99934580D01*
X56963695Y-99934580D02*
X57011314Y-99839342D01*
X57011314Y-99839342D02*
X57011314Y-99553628D01*
X57011314Y-99553628D02*
X56963695Y-99458390D01*
X56963695Y-99458390D02*
X56916076Y-99410771D01*
X56916076Y-99410771D02*
X56820838Y-99363152D01*
X56820838Y-99363152D02*
X56630362Y-99363152D01*
X56630362Y-99363152D02*
X56535124Y-99410771D01*
X55725600Y-99982200D02*
X55820838Y-100029819D01*
X55820838Y-100029819D02*
X56011314Y-100029819D01*
X56011314Y-100029819D02*
X56106552Y-99982200D01*
X56106552Y-99982200D02*
X56154171Y-99886961D01*
X56154171Y-99886961D02*
X56154171Y-99506009D01*
X56154171Y-99506009D02*
X56106552Y-99410771D01*
X56106552Y-99410771D02*
X56011314Y-99363152D01*
X56011314Y-99363152D02*
X55820838Y-99363152D01*
X55820838Y-99363152D02*
X55725600Y-99410771D01*
X55725600Y-99410771D02*
X55677981Y-99506009D01*
X55677981Y-99506009D02*
X55677981Y-99601247D01*
X55677981Y-99601247D02*
X56154171Y-99696485D01*
X55249409Y-99363152D02*
X55249409Y-100363152D01*
X55249409Y-99410771D02*
X55154171Y-99363152D01*
X55154171Y-99363152D02*
X54963695Y-99363152D01*
X54963695Y-99363152D02*
X54868457Y-99410771D01*
X54868457Y-99410771D02*
X54820838Y-99458390D01*
X54820838Y-99458390D02*
X54773219Y-99553628D01*
X54773219Y-99553628D02*
X54773219Y-99839342D01*
X54773219Y-99839342D02*
X54820838Y-99934580D01*
X54820838Y-99934580D02*
X54868457Y-99982200D01*
X54868457Y-99982200D02*
X54963695Y-100029819D01*
X54963695Y-100029819D02*
X55154171Y-100029819D01*
X55154171Y-100029819D02*
X55249409Y-99982200D01*
X54201790Y-100029819D02*
X54297028Y-99982200D01*
X54297028Y-99982200D02*
X54344647Y-99886961D01*
X54344647Y-99886961D02*
X54344647Y-99029819D01*
X53392266Y-100029819D02*
X53392266Y-99506009D01*
X53392266Y-99506009D02*
X53439885Y-99410771D01*
X53439885Y-99410771D02*
X53535123Y-99363152D01*
X53535123Y-99363152D02*
X53725599Y-99363152D01*
X53725599Y-99363152D02*
X53820837Y-99410771D01*
X53392266Y-99982200D02*
X53487504Y-100029819D01*
X53487504Y-100029819D02*
X53725599Y-100029819D01*
X53725599Y-100029819D02*
X53820837Y-99982200D01*
X53820837Y-99982200D02*
X53868456Y-99886961D01*
X53868456Y-99886961D02*
X53868456Y-99791723D01*
X53868456Y-99791723D02*
X53820837Y-99696485D01*
X53820837Y-99696485D02*
X53725599Y-99648866D01*
X53725599Y-99648866D02*
X53487504Y-99648866D01*
X53487504Y-99648866D02*
X53392266Y-99601247D01*
X53058932Y-99363152D02*
X52677980Y-99363152D01*
X52916075Y-99029819D02*
X52916075Y-99886961D01*
X52916075Y-99886961D02*
X52868456Y-99982200D01*
X52868456Y-99982200D02*
X52773218Y-100029819D01*
X52773218Y-100029819D02*
X52677980Y-100029819D01*
X51963694Y-99982200D02*
X52058932Y-100029819D01*
X52058932Y-100029819D02*
X52249408Y-100029819D01*
X52249408Y-100029819D02*
X52344646Y-99982200D01*
X52344646Y-99982200D02*
X52392265Y-99886961D01*
X52392265Y-99886961D02*
X52392265Y-99506009D01*
X52392265Y-99506009D02*
X52344646Y-99410771D01*
X52344646Y-99410771D02*
X52249408Y-99363152D01*
X52249408Y-99363152D02*
X52058932Y-99363152D01*
X52058932Y-99363152D02*
X51963694Y-99410771D01*
X51963694Y-99410771D02*
X51916075Y-99506009D01*
X51916075Y-99506009D02*
X51916075Y-99601247D01*
X51916075Y-99601247D02*
X52392265Y-99696485D01*
D11*
X94500000Y-37600000D02*
X142000000Y-37600000D01*
X142000000Y-101600000D01*
X94500000Y-101600000D01*
X94500000Y-37600000D01*
X47000000Y-37600000D02*
X94500000Y-37600000D01*
X94500000Y-101600000D01*
X47000000Y-101600000D01*
X47000000Y-37600000D01*
M02*
