M48
; DRILL file {KiCad 7.0.11+dfsg-1build4} date jue 30 jul 2026 18:07:11
; FORMAT={-:-/ absolute / metric / decimal}
; #@! TF.CreationDate,2026-07-30T18:07:11-05:00
; #@! TF.GenerationSoftware,Kicad,Pcbnew,7.0.11+dfsg-1build4
; #@! TF.FileFunction,Plated,1,2,PTH
FMAT,2
METRIC
; #@! TA.AperFunction,Plated,PTH,ViaDrill
T1C0.300
; #@! TA.AperFunction,Plated,PTH,ComponentDrill
T2C1.150
%
G90
G05
T1
X49.235Y-56.98
X49.235Y-83.65
X70.75Y-42.4
X70.75Y-56.98
X70.75Y-83.65
X70.75Y-96.8
X92.593Y-56.98
X92.593Y-83.65
X96.735Y-56.98
X96.735Y-83.65
X118.25Y-42.4
X118.25Y-56.98
X118.25Y-83.65
X118.25Y-96.8
X140.093Y-56.98
X140.093Y-83.65
T2
X49.15Y-46.6
X49.15Y-71.7
X49.15Y-96.8
X50.65Y-42.4
X50.65Y-67.5
X50.65Y-92.6
X90.85Y-46.6
X90.85Y-71.7
X90.85Y-96.8
X92.35Y-42.4
X92.35Y-67.5
X92.35Y-92.6
X96.65Y-46.6
X96.65Y-71.7
X96.65Y-96.8
X98.15Y-42.4
X98.15Y-67.5
X98.15Y-92.6
X138.35Y-46.6
X138.35Y-71.7
X138.35Y-96.8
X139.85Y-42.4
X139.85Y-67.5
X139.85Y-92.6
M30
