%TF.GenerationSoftware,KiCad,Pcbnew,6.0.11-2627ca5db0~126~ubuntu20.04.1*%
%TF.CreationDate,2024-02-25T19:04:41-05:00*%
%TF.ProjectId,hil01,68696c30-312e-46b6-9963-61645f706362,rev?*%
%TF.SameCoordinates,Original*%
%TF.FileFunction,Legend,Top*%
%TF.FilePolarity,Positive*%
%FSLAX46Y46*%
G04 Gerber Fmt 4.6, Leading zero omitted, Abs format (unit mm)*
G04 Created by KiCad (PCBNEW 6.0.11-2627ca5db0~126~ubuntu20.04.1) date 2024-02-25 19:04:41*
%MOMM*%
%LPD*%
G01*
G04 APERTURE LIST*
%ADD10C,0.150000*%
%TA.AperFunction,Profile*%
%ADD11C,0.100000*%
%TD*%
%ADD12C,0.300000*%
%ADD13C,0.250000*%
%ADD14C,0.120000*%
G04 APERTURE END LIST*
D10*
X100150000Y-125000000D02*
X161480000Y-125000000D01*
D11*
X100000000Y-130500000D02*
X161680000Y-130500000D01*
X100000000Y-100000000D02*
X100000000Y-130500000D01*
X161680000Y-130500000D02*
X161680000Y-100000000D01*
X100000000Y-100000000D02*
X161680000Y-100000000D01*
D12*
X152449257Y-113838800D02*
X153163542Y-113838800D01*
X152306400Y-114267371D02*
X152806400Y-112767371D01*
X153306400Y-114267371D01*
D13*
X101660000Y-123868571D02*
X101660000Y-122368571D01*
X101660000Y-123082857D02*
X102517142Y-123082857D01*
X102517142Y-123868571D02*
X102517142Y-122368571D01*
X103231428Y-123868571D02*
X103231428Y-122368571D01*
X104660000Y-123868571D02*
X103945714Y-123868571D01*
X103945714Y-122368571D01*
X105160000Y-123297142D02*
X106302857Y-123297142D01*
X107302857Y-122368571D02*
X107445714Y-122368571D01*
X107588571Y-122440000D01*
X107660000Y-122511428D01*
X107731428Y-122654285D01*
X107802857Y-122940000D01*
X107802857Y-123297142D01*
X107731428Y-123582857D01*
X107660000Y-123725714D01*
X107588571Y-123797142D01*
X107445714Y-123868571D01*
X107302857Y-123868571D01*
X107160000Y-123797142D01*
X107088571Y-123725714D01*
X107017142Y-123582857D01*
X106945714Y-123297142D01*
X106945714Y-122940000D01*
X107017142Y-122654285D01*
X107088571Y-122511428D01*
X107160000Y-122440000D01*
X107302857Y-122368571D01*
X109231428Y-123868571D02*
X108374285Y-123868571D01*
X108802857Y-123868571D02*
X108802857Y-122368571D01*
X108660000Y-122582857D01*
X108517142Y-122725714D01*
X108374285Y-122797142D01*
D12*
X152913542Y-110027257D02*
X153127828Y-110098685D01*
X153199257Y-110170114D01*
X153270685Y-110312971D01*
X153270685Y-110527257D01*
X153199257Y-110670114D01*
X153127828Y-110741542D01*
X152984971Y-110812971D01*
X152413542Y-110812971D01*
X152413542Y-109312971D01*
X152913542Y-109312971D01*
X153056400Y-109384400D01*
X153127828Y-109455828D01*
X153199257Y-109598685D01*
X153199257Y-109741542D01*
X153127828Y-109884400D01*
X153056400Y-109955828D01*
X152913542Y-110027257D01*
X152413542Y-110027257D01*
X153199257Y-116598000D02*
X153056400Y-116526571D01*
X152842114Y-116526571D01*
X152627828Y-116598000D01*
X152484971Y-116740857D01*
X152413542Y-116883714D01*
X152342114Y-117169428D01*
X152342114Y-117383714D01*
X152413542Y-117669428D01*
X152484971Y-117812285D01*
X152627828Y-117955142D01*
X152842114Y-118026571D01*
X152984971Y-118026571D01*
X153199257Y-117955142D01*
X153270685Y-117883714D01*
X153270685Y-117383714D01*
X152984971Y-117383714D01*
D10*
%TO.C,R6*%
X128103333Y-122680380D02*
X127770000Y-122204190D01*
X127531904Y-122680380D02*
X127531904Y-121680380D01*
X127912857Y-121680380D01*
X128008095Y-121728000D01*
X128055714Y-121775619D01*
X128103333Y-121870857D01*
X128103333Y-122013714D01*
X128055714Y-122108952D01*
X128008095Y-122156571D01*
X127912857Y-122204190D01*
X127531904Y-122204190D01*
X128960476Y-121680380D02*
X128770000Y-121680380D01*
X128674761Y-121728000D01*
X128627142Y-121775619D01*
X128531904Y-121918476D01*
X128484285Y-122108952D01*
X128484285Y-122489904D01*
X128531904Y-122585142D01*
X128579523Y-122632761D01*
X128674761Y-122680380D01*
X128865238Y-122680380D01*
X128960476Y-122632761D01*
X129008095Y-122585142D01*
X129055714Y-122489904D01*
X129055714Y-122251809D01*
X129008095Y-122156571D01*
X128960476Y-122108952D01*
X128865238Y-122061333D01*
X128674761Y-122061333D01*
X128579523Y-122108952D01*
X128531904Y-122156571D01*
X128484285Y-122251809D01*
%TO.C,R7*%
X128033333Y-101352380D02*
X127700000Y-100876190D01*
X127461904Y-101352380D02*
X127461904Y-100352380D01*
X127842857Y-100352380D01*
X127938095Y-100400000D01*
X127985714Y-100447619D01*
X128033333Y-100542857D01*
X128033333Y-100685714D01*
X127985714Y-100780952D01*
X127938095Y-100828571D01*
X127842857Y-100876190D01*
X127461904Y-100876190D01*
X128366666Y-100352380D02*
X129033333Y-100352380D01*
X128604761Y-101352380D01*
%TO.C,R5*%
X128103333Y-124404380D02*
X127770000Y-123928190D01*
X127531904Y-124404380D02*
X127531904Y-123404380D01*
X127912857Y-123404380D01*
X128008095Y-123452000D01*
X128055714Y-123499619D01*
X128103333Y-123594857D01*
X128103333Y-123737714D01*
X128055714Y-123832952D01*
X128008095Y-123880571D01*
X127912857Y-123928190D01*
X127531904Y-123928190D01*
X129008095Y-123404380D02*
X128531904Y-123404380D01*
X128484285Y-123880571D01*
X128531904Y-123832952D01*
X128627142Y-123785333D01*
X128865238Y-123785333D01*
X128960476Y-123832952D01*
X129008095Y-123880571D01*
X129055714Y-123975809D01*
X129055714Y-124213904D01*
X129008095Y-124309142D01*
X128960476Y-124356761D01*
X128865238Y-124404380D01*
X128627142Y-124404380D01*
X128531904Y-124356761D01*
X128484285Y-124309142D01*
%TO.C,C4*%
X128033333Y-103957142D02*
X127985714Y-104004761D01*
X127842857Y-104052380D01*
X127747619Y-104052380D01*
X127604761Y-104004761D01*
X127509523Y-103909523D01*
X127461904Y-103814285D01*
X127414285Y-103623809D01*
X127414285Y-103480952D01*
X127461904Y-103290476D01*
X127509523Y-103195238D01*
X127604761Y-103100000D01*
X127747619Y-103052380D01*
X127842857Y-103052380D01*
X127985714Y-103100000D01*
X128033333Y-103147619D01*
X128890476Y-103385714D02*
X128890476Y-104052380D01*
X128652380Y-103004761D02*
X128414285Y-103719047D01*
X129033333Y-103719047D01*
%TO.C,D2*%
X146226304Y-111806380D02*
X146226304Y-110806380D01*
X146464400Y-110806380D01*
X146607257Y-110854000D01*
X146702495Y-110949238D01*
X146750114Y-111044476D01*
X146797733Y-111234952D01*
X146797733Y-111377809D01*
X146750114Y-111568285D01*
X146702495Y-111663523D01*
X146607257Y-111758761D01*
X146464400Y-111806380D01*
X146226304Y-111806380D01*
X147178685Y-110901619D02*
X147226304Y-110854000D01*
X147321542Y-110806380D01*
X147559638Y-110806380D01*
X147654876Y-110854000D01*
X147702495Y-110901619D01*
X147750114Y-110996857D01*
X147750114Y-111092095D01*
X147702495Y-111234952D01*
X147131066Y-111806380D01*
X147750114Y-111806380D01*
%TO.C,Y1*%
X130587809Y-119356190D02*
X130587809Y-119832380D01*
X130254476Y-118832380D02*
X130587809Y-119356190D01*
X130921142Y-118832380D01*
X131778285Y-119832380D02*
X131206857Y-119832380D01*
X131492571Y-119832380D02*
X131492571Y-118832380D01*
X131397333Y-118975238D01*
X131302095Y-119070476D01*
X131206857Y-119118095D01*
%TO.C,R3*%
X111593333Y-120848380D02*
X111260000Y-120372190D01*
X111021904Y-120848380D02*
X111021904Y-119848380D01*
X111402857Y-119848380D01*
X111498095Y-119896000D01*
X111545714Y-119943619D01*
X111593333Y-120038857D01*
X111593333Y-120181714D01*
X111545714Y-120276952D01*
X111498095Y-120324571D01*
X111402857Y-120372190D01*
X111021904Y-120372190D01*
X111926666Y-119848380D02*
X112545714Y-119848380D01*
X112212380Y-120229333D01*
X112355238Y-120229333D01*
X112450476Y-120276952D01*
X112498095Y-120324571D01*
X112545714Y-120419809D01*
X112545714Y-120657904D01*
X112498095Y-120753142D01*
X112450476Y-120800761D01*
X112355238Y-120848380D01*
X112069523Y-120848380D01*
X111974285Y-120800761D01*
X111926666Y-120753142D01*
%TO.C,J2*%
X159839066Y-106030780D02*
X159839066Y-106745066D01*
X159791447Y-106887923D01*
X159696209Y-106983161D01*
X159553352Y-107030780D01*
X159458114Y-107030780D01*
X160267638Y-106126019D02*
X160315257Y-106078400D01*
X160410495Y-106030780D01*
X160648590Y-106030780D01*
X160743828Y-106078400D01*
X160791447Y-106126019D01*
X160839066Y-106221257D01*
X160839066Y-106316495D01*
X160791447Y-106459352D01*
X160220019Y-107030780D01*
X160839066Y-107030780D01*
%TO.C,R1*%
X111593333Y-117292380D02*
X111260000Y-116816190D01*
X111021904Y-117292380D02*
X111021904Y-116292380D01*
X111402857Y-116292380D01*
X111498095Y-116340000D01*
X111545714Y-116387619D01*
X111593333Y-116482857D01*
X111593333Y-116625714D01*
X111545714Y-116720952D01*
X111498095Y-116768571D01*
X111402857Y-116816190D01*
X111021904Y-116816190D01*
X112545714Y-117292380D02*
X111974285Y-117292380D01*
X112260000Y-117292380D02*
X112260000Y-116292380D01*
X112164761Y-116435238D01*
X112069523Y-116530476D01*
X111974285Y-116578095D01*
%TO.C,U1*%
X123698095Y-112736380D02*
X123698095Y-113545904D01*
X123745714Y-113641142D01*
X123793333Y-113688761D01*
X123888571Y-113736380D01*
X124079047Y-113736380D01*
X124174285Y-113688761D01*
X124221904Y-113641142D01*
X124269523Y-113545904D01*
X124269523Y-112736380D01*
X125269523Y-113736380D02*
X124698095Y-113736380D01*
X124983809Y-113736380D02*
X124983809Y-112736380D01*
X124888571Y-112879238D01*
X124793333Y-112974476D01*
X124698095Y-113022095D01*
%TO.C,C1*%
X105497333Y-104157142D02*
X105449714Y-104204761D01*
X105306857Y-104252380D01*
X105211619Y-104252380D01*
X105068761Y-104204761D01*
X104973523Y-104109523D01*
X104925904Y-104014285D01*
X104878285Y-103823809D01*
X104878285Y-103680952D01*
X104925904Y-103490476D01*
X104973523Y-103395238D01*
X105068761Y-103300000D01*
X105211619Y-103252380D01*
X105306857Y-103252380D01*
X105449714Y-103300000D01*
X105497333Y-103347619D01*
X106449714Y-104252380D02*
X105878285Y-104252380D01*
X106164000Y-104252380D02*
X106164000Y-103252380D01*
X106068761Y-103395238D01*
X105973523Y-103490476D01*
X105878285Y-103538095D01*
%TO.C,J1*%
X106346666Y-118832380D02*
X106346666Y-119546666D01*
X106299047Y-119689523D01*
X106203809Y-119784761D01*
X106060952Y-119832380D01*
X105965714Y-119832380D01*
X107346666Y-119832380D02*
X106775238Y-119832380D01*
X107060952Y-119832380D02*
X107060952Y-118832380D01*
X106965714Y-118975238D01*
X106870476Y-119070476D01*
X106775238Y-119118095D01*
%TO.C,C2*%
X105497333Y-101857142D02*
X105449714Y-101904761D01*
X105306857Y-101952380D01*
X105211619Y-101952380D01*
X105068761Y-101904761D01*
X104973523Y-101809523D01*
X104925904Y-101714285D01*
X104878285Y-101523809D01*
X104878285Y-101380952D01*
X104925904Y-101190476D01*
X104973523Y-101095238D01*
X105068761Y-101000000D01*
X105211619Y-100952380D01*
X105306857Y-100952380D01*
X105449714Y-101000000D01*
X105497333Y-101047619D01*
X105878285Y-101047619D02*
X105925904Y-101000000D01*
X106021142Y-100952380D01*
X106259238Y-100952380D01*
X106354476Y-101000000D01*
X106402095Y-101047619D01*
X106449714Y-101142857D01*
X106449714Y-101238095D01*
X106402095Y-101380952D01*
X105830666Y-101952380D01*
X106449714Y-101952380D01*
%TO.C,D1*%
X127461904Y-102652380D02*
X127461904Y-101652380D01*
X127700000Y-101652380D01*
X127842857Y-101700000D01*
X127938095Y-101795238D01*
X127985714Y-101890476D01*
X128033333Y-102080952D01*
X128033333Y-102223809D01*
X127985714Y-102414285D01*
X127938095Y-102509523D01*
X127842857Y-102604761D01*
X127700000Y-102652380D01*
X127461904Y-102652380D01*
X128985714Y-102652380D02*
X128414285Y-102652380D01*
X128700000Y-102652380D02*
X128700000Y-101652380D01*
X128604761Y-101795238D01*
X128509523Y-101890476D01*
X128414285Y-101938095D01*
%TO.C,R10*%
X155973542Y-121457980D02*
X155640209Y-120981790D01*
X155402114Y-121457980D02*
X155402114Y-120457980D01*
X155783066Y-120457980D01*
X155878304Y-120505600D01*
X155925923Y-120553219D01*
X155973542Y-120648457D01*
X155973542Y-120791314D01*
X155925923Y-120886552D01*
X155878304Y-120934171D01*
X155783066Y-120981790D01*
X155402114Y-120981790D01*
X156925923Y-121457980D02*
X156354495Y-121457980D01*
X156640209Y-121457980D02*
X156640209Y-120457980D01*
X156544971Y-120600838D01*
X156449733Y-120696076D01*
X156354495Y-120743695D01*
X157544971Y-120457980D02*
X157640209Y-120457980D01*
X157735447Y-120505600D01*
X157783066Y-120553219D01*
X157830685Y-120648457D01*
X157878304Y-120838933D01*
X157878304Y-121077028D01*
X157830685Y-121267504D01*
X157783066Y-121362742D01*
X157735447Y-121410361D01*
X157640209Y-121457980D01*
X157544971Y-121457980D01*
X157449733Y-121410361D01*
X157402114Y-121362742D01*
X157354495Y-121267504D01*
X157306876Y-121077028D01*
X157306876Y-120838933D01*
X157354495Y-120648457D01*
X157402114Y-120553219D01*
X157449733Y-120505600D01*
X157544971Y-120457980D01*
%TO.C,C5*%
X142835333Y-102414342D02*
X142787714Y-102461961D01*
X142644857Y-102509580D01*
X142549619Y-102509580D01*
X142406761Y-102461961D01*
X142311523Y-102366723D01*
X142263904Y-102271485D01*
X142216285Y-102081009D01*
X142216285Y-101938152D01*
X142263904Y-101747676D01*
X142311523Y-101652438D01*
X142406761Y-101557200D01*
X142549619Y-101509580D01*
X142644857Y-101509580D01*
X142787714Y-101557200D01*
X142835333Y-101604819D01*
X143740095Y-101509580D02*
X143263904Y-101509580D01*
X143216285Y-101985771D01*
X143263904Y-101938152D01*
X143359142Y-101890533D01*
X143597238Y-101890533D01*
X143692476Y-101938152D01*
X143740095Y-101985771D01*
X143787714Y-102081009D01*
X143787714Y-102319104D01*
X143740095Y-102414342D01*
X143692476Y-102461961D01*
X143597238Y-102509580D01*
X143359142Y-102509580D01*
X143263904Y-102461961D01*
X143216285Y-102414342D01*
%TO.C,U3*%
X140665295Y-104804380D02*
X140665295Y-105613904D01*
X140712914Y-105709142D01*
X140760533Y-105756761D01*
X140855771Y-105804380D01*
X141046247Y-105804380D01*
X141141485Y-105756761D01*
X141189104Y-105709142D01*
X141236723Y-105613904D01*
X141236723Y-104804380D01*
X141617676Y-104804380D02*
X142236723Y-104804380D01*
X141903390Y-105185333D01*
X142046247Y-105185333D01*
X142141485Y-105232952D01*
X142189104Y-105280571D01*
X142236723Y-105375809D01*
X142236723Y-105613904D01*
X142189104Y-105709142D01*
X142141485Y-105756761D01*
X142046247Y-105804380D01*
X141760533Y-105804380D01*
X141665295Y-105756761D01*
X141617676Y-105709142D01*
%TO.C,R2*%
X105497333Y-106524380D02*
X105164000Y-106048190D01*
X104925904Y-106524380D02*
X104925904Y-105524380D01*
X105306857Y-105524380D01*
X105402095Y-105572000D01*
X105449714Y-105619619D01*
X105497333Y-105714857D01*
X105497333Y-105857714D01*
X105449714Y-105952952D01*
X105402095Y-106000571D01*
X105306857Y-106048190D01*
X104925904Y-106048190D01*
X105878285Y-105619619D02*
X105925904Y-105572000D01*
X106021142Y-105524380D01*
X106259238Y-105524380D01*
X106354476Y-105572000D01*
X106402095Y-105619619D01*
X106449714Y-105714857D01*
X106449714Y-105810095D01*
X106402095Y-105952952D01*
X105830666Y-106524380D01*
X106449714Y-106524380D01*
%TO.C,R12*%
X155973542Y-123896380D02*
X155640209Y-123420190D01*
X155402114Y-123896380D02*
X155402114Y-122896380D01*
X155783066Y-122896380D01*
X155878304Y-122944000D01*
X155925923Y-122991619D01*
X155973542Y-123086857D01*
X155973542Y-123229714D01*
X155925923Y-123324952D01*
X155878304Y-123372571D01*
X155783066Y-123420190D01*
X155402114Y-123420190D01*
X156925923Y-123896380D02*
X156354495Y-123896380D01*
X156640209Y-123896380D02*
X156640209Y-122896380D01*
X156544971Y-123039238D01*
X156449733Y-123134476D01*
X156354495Y-123182095D01*
X157306876Y-122991619D02*
X157354495Y-122944000D01*
X157449733Y-122896380D01*
X157687828Y-122896380D01*
X157783066Y-122944000D01*
X157830685Y-122991619D01*
X157878304Y-123086857D01*
X157878304Y-123182095D01*
X157830685Y-123324952D01*
X157259257Y-123896380D01*
X157878304Y-123896380D01*
%TO.C,JP1*%
X147096266Y-106335580D02*
X147096266Y-107049866D01*
X147048647Y-107192723D01*
X146953409Y-107287961D01*
X146810552Y-107335580D01*
X146715314Y-107335580D01*
X147572457Y-107335580D02*
X147572457Y-106335580D01*
X147953409Y-106335580D01*
X148048647Y-106383200D01*
X148096266Y-106430819D01*
X148143885Y-106526057D01*
X148143885Y-106668914D01*
X148096266Y-106764152D01*
X148048647Y-106811771D01*
X147953409Y-106859390D01*
X147572457Y-106859390D01*
X149096266Y-107335580D02*
X148524838Y-107335580D01*
X148810552Y-107335580D02*
X148810552Y-106335580D01*
X148715314Y-106478438D01*
X148620076Y-106573676D01*
X148524838Y-106621295D01*
%TO.C,JP2*%
X150601466Y-106335580D02*
X150601466Y-107049866D01*
X150553847Y-107192723D01*
X150458609Y-107287961D01*
X150315752Y-107335580D01*
X150220514Y-107335580D01*
X151077657Y-107335580D02*
X151077657Y-106335580D01*
X151458609Y-106335580D01*
X151553847Y-106383200D01*
X151601466Y-106430819D01*
X151649085Y-106526057D01*
X151649085Y-106668914D01*
X151601466Y-106764152D01*
X151553847Y-106811771D01*
X151458609Y-106859390D01*
X151077657Y-106859390D01*
X152030038Y-106430819D02*
X152077657Y-106383200D01*
X152172895Y-106335580D01*
X152410990Y-106335580D01*
X152506228Y-106383200D01*
X152553847Y-106430819D01*
X152601466Y-106526057D01*
X152601466Y-106621295D01*
X152553847Y-106764152D01*
X151982419Y-107335580D01*
X152601466Y-107335580D01*
%TO.C,C3*%
X128103333Y-120753142D02*
X128055714Y-120800761D01*
X127912857Y-120848380D01*
X127817619Y-120848380D01*
X127674761Y-120800761D01*
X127579523Y-120705523D01*
X127531904Y-120610285D01*
X127484285Y-120419809D01*
X127484285Y-120276952D01*
X127531904Y-120086476D01*
X127579523Y-119991238D01*
X127674761Y-119896000D01*
X127817619Y-119848380D01*
X127912857Y-119848380D01*
X128055714Y-119896000D01*
X128103333Y-119943619D01*
X128436666Y-119848380D02*
X129055714Y-119848380D01*
X128722380Y-120229333D01*
X128865238Y-120229333D01*
X128960476Y-120276952D01*
X129008095Y-120324571D01*
X129055714Y-120419809D01*
X129055714Y-120657904D01*
X129008095Y-120753142D01*
X128960476Y-120800761D01*
X128865238Y-120848380D01*
X128579523Y-120848380D01*
X128484285Y-120800761D01*
X128436666Y-120753142D01*
%TO.C,C8*%
X133437333Y-123918142D02*
X133389714Y-123965761D01*
X133246857Y-124013380D01*
X133151619Y-124013380D01*
X133008761Y-123965761D01*
X132913523Y-123870523D01*
X132865904Y-123775285D01*
X132818285Y-123584809D01*
X132818285Y-123441952D01*
X132865904Y-123251476D01*
X132913523Y-123156238D01*
X133008761Y-123061000D01*
X133151619Y-123013380D01*
X133246857Y-123013380D01*
X133389714Y-123061000D01*
X133437333Y-123108619D01*
X134008761Y-123441952D02*
X133913523Y-123394333D01*
X133865904Y-123346714D01*
X133818285Y-123251476D01*
X133818285Y-123203857D01*
X133865904Y-123108619D01*
X133913523Y-123061000D01*
X134008761Y-123013380D01*
X134199238Y-123013380D01*
X134294476Y-123061000D01*
X134342095Y-123108619D01*
X134389714Y-123203857D01*
X134389714Y-123251476D01*
X134342095Y-123346714D01*
X134294476Y-123394333D01*
X134199238Y-123441952D01*
X134008761Y-123441952D01*
X133913523Y-123489571D01*
X133865904Y-123537190D01*
X133818285Y-123632428D01*
X133818285Y-123822904D01*
X133865904Y-123918142D01*
X133913523Y-123965761D01*
X134008761Y-124013380D01*
X134199238Y-124013380D01*
X134294476Y-123965761D01*
X134342095Y-123918142D01*
X134389714Y-123822904D01*
X134389714Y-123632428D01*
X134342095Y-123537190D01*
X134294476Y-123489571D01*
X134199238Y-123441952D01*
%TO.C,R4*%
X111633333Y-124647380D02*
X111300000Y-124171190D01*
X111061904Y-124647380D02*
X111061904Y-123647380D01*
X111442857Y-123647380D01*
X111538095Y-123695000D01*
X111585714Y-123742619D01*
X111633333Y-123837857D01*
X111633333Y-123980714D01*
X111585714Y-124075952D01*
X111538095Y-124123571D01*
X111442857Y-124171190D01*
X111061904Y-124171190D01*
X112490476Y-123980714D02*
X112490476Y-124647380D01*
X112252380Y-123599761D02*
X112014285Y-124314047D01*
X112633333Y-124314047D01*
%TO.C,C7*%
X133437333Y-101840142D02*
X133389714Y-101887761D01*
X133246857Y-101935380D01*
X133151619Y-101935380D01*
X133008761Y-101887761D01*
X132913523Y-101792523D01*
X132865904Y-101697285D01*
X132818285Y-101506809D01*
X132818285Y-101363952D01*
X132865904Y-101173476D01*
X132913523Y-101078238D01*
X133008761Y-100983000D01*
X133151619Y-100935380D01*
X133246857Y-100935380D01*
X133389714Y-100983000D01*
X133437333Y-101030619D01*
X133770666Y-100935380D02*
X134437333Y-100935380D01*
X134008761Y-101935380D01*
%TO.C,PS1*%
X124261714Y-102560380D02*
X124261714Y-101560380D01*
X124642666Y-101560380D01*
X124737904Y-101608000D01*
X124785523Y-101655619D01*
X124833142Y-101750857D01*
X124833142Y-101893714D01*
X124785523Y-101988952D01*
X124737904Y-102036571D01*
X124642666Y-102084190D01*
X124261714Y-102084190D01*
X125214095Y-102512761D02*
X125356952Y-102560380D01*
X125595047Y-102560380D01*
X125690285Y-102512761D01*
X125737904Y-102465142D01*
X125785523Y-102369904D01*
X125785523Y-102274666D01*
X125737904Y-102179428D01*
X125690285Y-102131809D01*
X125595047Y-102084190D01*
X125404571Y-102036571D01*
X125309333Y-101988952D01*
X125261714Y-101941333D01*
X125214095Y-101846095D01*
X125214095Y-101750857D01*
X125261714Y-101655619D01*
X125309333Y-101608000D01*
X125404571Y-101560380D01*
X125642666Y-101560380D01*
X125785523Y-101608000D01*
X126737904Y-102560380D02*
X126166476Y-102560380D01*
X126452190Y-102560380D02*
X126452190Y-101560380D01*
X126356952Y-101703238D01*
X126261714Y-101798476D01*
X126166476Y-101846095D01*
%TO.C,R11*%
X147591542Y-124302780D02*
X147258209Y-123826590D01*
X147020114Y-124302780D02*
X147020114Y-123302780D01*
X147401066Y-123302780D01*
X147496304Y-123350400D01*
X147543923Y-123398019D01*
X147591542Y-123493257D01*
X147591542Y-123636114D01*
X147543923Y-123731352D01*
X147496304Y-123778971D01*
X147401066Y-123826590D01*
X147020114Y-123826590D01*
X148543923Y-124302780D02*
X147972495Y-124302780D01*
X148258209Y-124302780D02*
X148258209Y-123302780D01*
X148162971Y-123445638D01*
X148067733Y-123540876D01*
X147972495Y-123588495D01*
X149496304Y-124302780D02*
X148924876Y-124302780D01*
X149210590Y-124302780D02*
X149210590Y-123302780D01*
X149115352Y-123445638D01*
X149020114Y-123540876D01*
X148924876Y-123588495D01*
%TO.C,R9*%
X146950133Y-114397180D02*
X146616800Y-113920990D01*
X146378704Y-114397180D02*
X146378704Y-113397180D01*
X146759657Y-113397180D01*
X146854895Y-113444800D01*
X146902514Y-113492419D01*
X146950133Y-113587657D01*
X146950133Y-113730514D01*
X146902514Y-113825752D01*
X146854895Y-113873371D01*
X146759657Y-113920990D01*
X146378704Y-113920990D01*
X147426323Y-114397180D02*
X147616800Y-114397180D01*
X147712038Y-114349561D01*
X147759657Y-114301942D01*
X147854895Y-114159085D01*
X147902514Y-113968609D01*
X147902514Y-113587657D01*
X147854895Y-113492419D01*
X147807276Y-113444800D01*
X147712038Y-113397180D01*
X147521561Y-113397180D01*
X147426323Y-113444800D01*
X147378704Y-113492419D01*
X147331085Y-113587657D01*
X147331085Y-113825752D01*
X147378704Y-113920990D01*
X147426323Y-113968609D01*
X147521561Y-114016228D01*
X147712038Y-114016228D01*
X147807276Y-113968609D01*
X147854895Y-113920990D01*
X147902514Y-113825752D01*
%TO.C,C6*%
X138720533Y-102363542D02*
X138672914Y-102411161D01*
X138530057Y-102458780D01*
X138434819Y-102458780D01*
X138291961Y-102411161D01*
X138196723Y-102315923D01*
X138149104Y-102220685D01*
X138101485Y-102030209D01*
X138101485Y-101887352D01*
X138149104Y-101696876D01*
X138196723Y-101601638D01*
X138291961Y-101506400D01*
X138434819Y-101458780D01*
X138530057Y-101458780D01*
X138672914Y-101506400D01*
X138720533Y-101554019D01*
X139577676Y-101458780D02*
X139387200Y-101458780D01*
X139291961Y-101506400D01*
X139244342Y-101554019D01*
X139149104Y-101696876D01*
X139101485Y-101887352D01*
X139101485Y-102268304D01*
X139149104Y-102363542D01*
X139196723Y-102411161D01*
X139291961Y-102458780D01*
X139482438Y-102458780D01*
X139577676Y-102411161D01*
X139625295Y-102363542D01*
X139672914Y-102268304D01*
X139672914Y-102030209D01*
X139625295Y-101934971D01*
X139577676Y-101887352D01*
X139482438Y-101839733D01*
X139291961Y-101839733D01*
X139196723Y-101887352D01*
X139149104Y-101934971D01*
X139101485Y-102030209D01*
%TO.C,R8*%
X146899333Y-109089180D02*
X146566000Y-108612990D01*
X146327904Y-109089180D02*
X146327904Y-108089180D01*
X146708857Y-108089180D01*
X146804095Y-108136800D01*
X146851714Y-108184419D01*
X146899333Y-108279657D01*
X146899333Y-108422514D01*
X146851714Y-108517752D01*
X146804095Y-108565371D01*
X146708857Y-108612990D01*
X146327904Y-108612990D01*
X147470761Y-108517752D02*
X147375523Y-108470133D01*
X147327904Y-108422514D01*
X147280285Y-108327276D01*
X147280285Y-108279657D01*
X147327904Y-108184419D01*
X147375523Y-108136800D01*
X147470761Y-108089180D01*
X147661238Y-108089180D01*
X147756476Y-108136800D01*
X147804095Y-108184419D01*
X147851714Y-108279657D01*
X147851714Y-108327276D01*
X147804095Y-108422514D01*
X147756476Y-108470133D01*
X147661238Y-108517752D01*
X147470761Y-108517752D01*
X147375523Y-108565371D01*
X147327904Y-108612990D01*
X147280285Y-108708228D01*
X147280285Y-108898704D01*
X147327904Y-108993942D01*
X147375523Y-109041561D01*
X147470761Y-109089180D01*
X147661238Y-109089180D01*
X147756476Y-109041561D01*
X147804095Y-108993942D01*
X147851714Y-108898704D01*
X147851714Y-108708228D01*
X147804095Y-108612990D01*
X147756476Y-108565371D01*
X147661238Y-108517752D01*
%TO.C,C9*%
X148089233Y-118717542D02*
X148041614Y-118765161D01*
X147898757Y-118812780D01*
X147803519Y-118812780D01*
X147660661Y-118765161D01*
X147565423Y-118669923D01*
X147517804Y-118574685D01*
X147470185Y-118384209D01*
X147470185Y-118241352D01*
X147517804Y-118050876D01*
X147565423Y-117955638D01*
X147660661Y-117860400D01*
X147803519Y-117812780D01*
X147898757Y-117812780D01*
X148041614Y-117860400D01*
X148089233Y-117908019D01*
X148565423Y-118812780D02*
X148755900Y-118812780D01*
X148851138Y-118765161D01*
X148898757Y-118717542D01*
X148993995Y-118574685D01*
X149041614Y-118384209D01*
X149041614Y-118003257D01*
X148993995Y-117908019D01*
X148946376Y-117860400D01*
X148851138Y-117812780D01*
X148660661Y-117812780D01*
X148565423Y-117860400D01*
X148517804Y-117908019D01*
X148470185Y-118003257D01*
X148470185Y-118241352D01*
X148517804Y-118336590D01*
X148565423Y-118384209D01*
X148660661Y-118431828D01*
X148851138Y-118431828D01*
X148946376Y-118384209D01*
X148993995Y-118336590D01*
X149041614Y-118241352D01*
%TO.C,D3*%
X146226304Y-117038780D02*
X146226304Y-116038780D01*
X146464400Y-116038780D01*
X146607257Y-116086400D01*
X146702495Y-116181638D01*
X146750114Y-116276876D01*
X146797733Y-116467352D01*
X146797733Y-116610209D01*
X146750114Y-116800685D01*
X146702495Y-116895923D01*
X146607257Y-116991161D01*
X146464400Y-117038780D01*
X146226304Y-117038780D01*
X147131066Y-116038780D02*
X147750114Y-116038780D01*
X147416780Y-116419733D01*
X147559638Y-116419733D01*
X147654876Y-116467352D01*
X147702495Y-116514971D01*
X147750114Y-116610209D01*
X147750114Y-116848304D01*
X147702495Y-116943542D01*
X147654876Y-116991161D01*
X147559638Y-117038780D01*
X147273923Y-117038780D01*
X147178685Y-116991161D01*
X147131066Y-116943542D01*
%TO.C,U2*%
X141376495Y-116546380D02*
X141376495Y-117355904D01*
X141424114Y-117451142D01*
X141471733Y-117498761D01*
X141566971Y-117546380D01*
X141757447Y-117546380D01*
X141852685Y-117498761D01*
X141900304Y-117451142D01*
X141947923Y-117355904D01*
X141947923Y-116546380D01*
X142376495Y-116641619D02*
X142424114Y-116594000D01*
X142519352Y-116546380D01*
X142757447Y-116546380D01*
X142852685Y-116594000D01*
X142900304Y-116641619D01*
X142947923Y-116736857D01*
X142947923Y-116832095D01*
X142900304Y-116974952D01*
X142328876Y-117546380D01*
X142947923Y-117546380D01*
%TO.C,JP3*%
X154157466Y-106335580D02*
X154157466Y-107049866D01*
X154109847Y-107192723D01*
X154014609Y-107287961D01*
X153871752Y-107335580D01*
X153776514Y-107335580D01*
X154633657Y-107335580D02*
X154633657Y-106335580D01*
X155014609Y-106335580D01*
X155109847Y-106383200D01*
X155157466Y-106430819D01*
X155205085Y-106526057D01*
X155205085Y-106668914D01*
X155157466Y-106764152D01*
X155109847Y-106811771D01*
X155014609Y-106859390D01*
X154633657Y-106859390D01*
X155538419Y-106335580D02*
X156157466Y-106335580D01*
X155824133Y-106716533D01*
X155966990Y-106716533D01*
X156062228Y-106764152D01*
X156109847Y-106811771D01*
X156157466Y-106907009D01*
X156157466Y-107145104D01*
X156109847Y-107240342D01*
X156062228Y-107287961D01*
X155966990Y-107335580D01*
X155681276Y-107335580D01*
X155586038Y-107287961D01*
X155538419Y-107240342D01*
D14*
%TO.C,R6*%
X128751064Y-116305000D02*
X128296936Y-116305000D01*
X128751064Y-114835000D02*
X128296936Y-114835000D01*
%TO.C,R7*%
X128735064Y-104675000D02*
X128280936Y-104675000D01*
X128735064Y-106145000D02*
X128280936Y-106145000D01*
%TO.C,R5*%
X128751064Y-118591000D02*
X128296936Y-118591000D01*
X128751064Y-117121000D02*
X128296936Y-117121000D01*
%TO.C,C4*%
X128262748Y-109755000D02*
X128785252Y-109755000D01*
X128262748Y-111225000D02*
X128785252Y-111225000D01*
%TO.C,D2*%
X151923200Y-109918000D02*
X149063200Y-109918000D01*
X151923200Y-111838000D02*
X151923200Y-109918000D01*
X149063200Y-111838000D02*
X151923200Y-111838000D01*
%TO.C,Y1*%
X131054000Y-104850000D02*
X131054000Y-118450000D01*
X136154000Y-104850000D02*
X131054000Y-104850000D01*
X136154000Y-118450000D02*
X136154000Y-104850000D01*
%TO.C,R3*%
X111987064Y-119490000D02*
X111532936Y-119490000D01*
X111987064Y-118020000D02*
X111532936Y-118020000D01*
%TO.C,J2*%
X159692400Y-119539600D02*
X161432400Y-119539600D01*
X154072400Y-107979600D02*
X161192400Y-107979600D01*
X161192400Y-119299600D02*
X161192400Y-107979600D01*
X154072400Y-119299600D02*
X161192400Y-119299600D01*
X161432400Y-119539600D02*
X161432400Y-118039600D01*
X154072400Y-119299600D02*
X154072400Y-107979600D01*
X159632400Y-119299600D02*
X159632400Y-107979600D01*
X158140400Y-115707600D02*
G75*
G03*
X156924658Y-115707491I-607999J-1432003D01*
G01*
X158964400Y-117747600D02*
G75*
G03*
X159087893Y-117112589I-1431988J607998D01*
G01*
X156100400Y-116531600D02*
G75*
G03*
X156100291Y-117747342I1432000J-608000D01*
G01*
X159087400Y-117139600D02*
G75*
G03*
X158963785Y-116532013I-1555000J0D01*
G01*
X156924400Y-118571600D02*
G75*
G03*
X158140142Y-118571709I608000J1432000D01*
G01*
X159087400Y-110139600D02*
G75*
G03*
X159087400Y-110139600I-1555000J0D01*
G01*
X159087400Y-113639600D02*
G75*
G03*
X159087400Y-113639600I-1555000J0D01*
G01*
%TO.C,R1*%
X111532936Y-115543000D02*
X111987064Y-115543000D01*
X111532936Y-114073000D02*
X111987064Y-114073000D01*
%TO.C,U1*%
X116140000Y-114495000D02*
X114325000Y-114495000D01*
X120000000Y-114240000D02*
X116140000Y-114240000D01*
X116140000Y-124760000D02*
X116140000Y-124505000D01*
X123860000Y-124760000D02*
X123860000Y-124505000D01*
X116140000Y-114240000D02*
X116140000Y-114495000D01*
X120000000Y-124760000D02*
X116140000Y-124760000D01*
X123860000Y-114240000D02*
X123860000Y-114495000D01*
X120000000Y-124760000D02*
X123860000Y-124760000D01*
X120000000Y-114240000D02*
X123860000Y-114240000D01*
%TO.C,C1*%
X109481252Y-104535000D02*
X108958748Y-104535000D01*
X109481252Y-103065000D02*
X108958748Y-103065000D01*
%TO.C,J1*%
X102140000Y-117200000D02*
X100240000Y-117200000D01*
X106040000Y-117200000D02*
X104040000Y-117200000D01*
X100240000Y-107800000D02*
X100240000Y-117200000D01*
X102140000Y-107800000D02*
X100240000Y-107800000D01*
X106040000Y-107800000D02*
X104040000Y-107800000D01*
%TO.C,C2*%
X109481252Y-102235000D02*
X108958748Y-102235000D01*
X109481252Y-100765000D02*
X108958748Y-100765000D01*
%TO.C,D1*%
X130368000Y-108910000D02*
X130368000Y-106990000D01*
X130368000Y-106990000D02*
X127508000Y-106990000D01*
X127508000Y-108910000D02*
X130368000Y-108910000D01*
%TO.C,R10*%
X152934936Y-121639000D02*
X153389064Y-121639000D01*
X152934936Y-120169000D02*
X153389064Y-120169000D01*
%TO.C,C5*%
X143364852Y-102947800D02*
X142842348Y-102947800D01*
X143364852Y-104417800D02*
X142842348Y-104417800D01*
%TO.C,U3*%
X141427200Y-106192000D02*
X143377200Y-106192000D01*
X141427200Y-106192000D02*
X137977200Y-106192000D01*
X141427200Y-116312000D02*
X139477200Y-116312000D01*
X141427200Y-116312000D02*
X143377200Y-116312000D01*
%TO.C,R2*%
X109447064Y-106807000D02*
X108992936Y-106807000D01*
X109447064Y-105337000D02*
X108992936Y-105337000D01*
%TO.C,R12*%
X152985736Y-122556600D02*
X153439864Y-122556600D01*
X152985736Y-124026600D02*
X153439864Y-124026600D01*
%TO.C,JP1*%
X146498000Y-101854000D02*
X146498000Y-100524000D01*
X146498000Y-103124000D02*
X146498000Y-105724000D01*
X146498000Y-105724000D02*
X149158000Y-105724000D01*
X146498000Y-100524000D02*
X147828000Y-100524000D01*
X149158000Y-103124000D02*
X149158000Y-105724000D01*
X146498000Y-103124000D02*
X149158000Y-103124000D01*
%TO.C,JP2*%
X150155600Y-101854000D02*
X150155600Y-100524000D01*
X150155600Y-103124000D02*
X150155600Y-105724000D01*
X150155600Y-103124000D02*
X152815600Y-103124000D01*
X150155600Y-100524000D02*
X151485600Y-100524000D01*
X150155600Y-105724000D02*
X152815600Y-105724000D01*
X152815600Y-103124000D02*
X152815600Y-105724000D01*
%TO.C,C3*%
X128262748Y-112275000D02*
X128785252Y-112275000D01*
X128262748Y-113745000D02*
X128785252Y-113745000D01*
%TO.C,C8*%
X133865252Y-121302000D02*
X133342748Y-121302000D01*
X133865252Y-122772000D02*
X133342748Y-122772000D01*
%TO.C,R4*%
X112027064Y-121810000D02*
X111572936Y-121810000D01*
X112027064Y-123280000D02*
X111572936Y-123280000D01*
%TO.C,C7*%
X133865252Y-103742000D02*
X133342748Y-103742000D01*
X133865252Y-102272000D02*
X133342748Y-102272000D01*
%TO.C,PS1*%
X125500000Y-110175000D02*
X125500000Y-104225000D01*
X112000000Y-113300000D02*
X112000000Y-103225000D01*
%TO.C,R11*%
X148007336Y-122909000D02*
X148461464Y-122909000D01*
X148007336Y-121439000D02*
X148461464Y-121439000D01*
%TO.C,R9*%
X149836136Y-112743000D02*
X150290264Y-112743000D01*
X149836136Y-114213000D02*
X150290264Y-114213000D01*
%TO.C,C6*%
X138575148Y-102947800D02*
X139097652Y-102947800D01*
X138575148Y-104417800D02*
X139097652Y-104417800D01*
%TO.C,R8*%
X150290264Y-108989800D02*
X149836136Y-108989800D01*
X150290264Y-107519800D02*
X149836136Y-107519800D01*
%TO.C,C9*%
X147994648Y-120775400D02*
X148517152Y-120775400D01*
X147994648Y-119305400D02*
X148517152Y-119305400D01*
%TO.C,D3*%
X149063200Y-117038000D02*
X151923200Y-117038000D01*
X151923200Y-115118000D02*
X149063200Y-115118000D01*
X151923200Y-117038000D02*
X151923200Y-115118000D01*
%TO.C,U2*%
X141478000Y-117937600D02*
X143428000Y-117937600D01*
X141478000Y-117937600D02*
X138028000Y-117937600D01*
X141478000Y-123057600D02*
X143428000Y-123057600D01*
X141478000Y-123057600D02*
X139528000Y-123057600D01*
%TO.C,JP3*%
X153813200Y-103124000D02*
X153813200Y-105724000D01*
X153813200Y-100524000D02*
X155143200Y-100524000D01*
X156473200Y-103124000D02*
X156473200Y-105724000D01*
X153813200Y-101854000D02*
X153813200Y-100524000D01*
X153813200Y-103124000D02*
X156473200Y-103124000D01*
X153813200Y-105724000D02*
X156473200Y-105724000D01*
%TD*%
M02*
