%TF.GenerationSoftware,KiCad,Pcbnew,6.0.11-2627ca5db0~126~ubuntu20.04.1*%
%TF.CreationDate,2024-02-25T19:04:41-05:00*%
%TF.ProjectId,hil01,68696c30-312e-46b6-9963-61645f706362,rev?*%
%TF.SameCoordinates,Original*%
%TF.FileFunction,Copper,L2,Bot*%
%TF.FilePolarity,Positive*%
%FSLAX46Y46*%
G04 Gerber Fmt 4.6, Leading zero omitted, Abs format (unit mm)*
G04 Created by KiCad (PCBNEW 6.0.11-2627ca5db0~126~ubuntu20.04.1) date 2024-02-25 19:04:41*
%MOMM*%
%LPD*%
G01*
G04 APERTURE LIST*
%TA.AperFunction,Profile*%
%ADD10C,0.100000*%
%TD*%
%ADD11C,0.250000*%
%TA.AperFunction,NonConductor*%
%ADD12C,0.250000*%
%TD*%
%TA.AperFunction,ComponentPad*%
%ADD13R,2.400000X2.400000*%
%TD*%
%TA.AperFunction,ComponentPad*%
%ADD14C,2.400000*%
%TD*%
%TA.AperFunction,ComponentPad*%
%ADD15O,1.600000X1.000000*%
%TD*%
%TA.AperFunction,ComponentPad*%
%ADD16O,2.100000X1.000000*%
%TD*%
%TA.AperFunction,ComponentPad*%
%ADD17R,1.700000X1.700000*%
%TD*%
%TA.AperFunction,ComponentPad*%
%ADD18O,1.700000X1.700000*%
%TD*%
%TA.AperFunction,ViaPad*%
%ADD19C,0.800000*%
%TD*%
%TA.AperFunction,Conductor*%
%ADD20C,0.250000*%
%TD*%
G04 APERTURE END LIST*
D10*
X100000000Y-130500000D02*
X161680000Y-130500000D01*
X100000000Y-100000000D02*
X100000000Y-130500000D01*
X161680000Y-130500000D02*
X161680000Y-100000000D01*
X100000000Y-100000000D02*
X161680000Y-100000000D01*
D11*
D12*
X109160000Y-123868571D02*
X109160000Y-122368571D01*
X109160000Y-123082857D02*
X108302857Y-123082857D01*
X108302857Y-123868571D02*
X108302857Y-122368571D01*
X107588571Y-123868571D02*
X107588571Y-122368571D01*
X106160000Y-123868571D02*
X106874285Y-123868571D01*
X106874285Y-122368571D01*
X105660000Y-123297142D02*
X104517142Y-123297142D01*
X103517142Y-122368571D02*
X103374285Y-122368571D01*
X103231428Y-122440000D01*
X103160000Y-122511428D01*
X103088571Y-122654285D01*
X103017142Y-122940000D01*
X103017142Y-123297142D01*
X103088571Y-123582857D01*
X103160000Y-123725714D01*
X103231428Y-123797142D01*
X103374285Y-123868571D01*
X103517142Y-123868571D01*
X103660000Y-123797142D01*
X103731428Y-123725714D01*
X103802857Y-123582857D01*
X103874285Y-123297142D01*
X103874285Y-122940000D01*
X103802857Y-122654285D01*
X103731428Y-122511428D01*
X103660000Y-122440000D01*
X103517142Y-122368571D01*
X101588571Y-123868571D02*
X102445714Y-123868571D01*
X102017142Y-123868571D02*
X102017142Y-122368571D01*
X102160000Y-122582857D01*
X102302857Y-122725714D01*
X102445714Y-122797142D01*
D13*
%TO.P,J2,1,Pin_1*%
%TO.N,GND2*%
X157532400Y-117139600D03*
D14*
%TO.P,J2,2,Pin_2*%
%TO.N,/RS485_A*%
X157532400Y-113639600D03*
%TO.P,J2,3,Pin_3*%
%TO.N,/RS485_B*%
X157532400Y-110139600D03*
%TD*%
D15*
%TO.P,J1,S1,SHIELD*%
%TO.N,unconnected-(J1-PadS1)*%
X103090000Y-108180000D03*
D16*
X107270000Y-108180000D03*
X107270000Y-116820000D03*
D15*
X103090000Y-116820000D03*
%TD*%
D17*
%TO.P,JP1,1,A*%
%TO.N,/RS485_A*%
X147828000Y-101854000D03*
D18*
%TO.P,JP1,2,B*%
%TO.N,Net-(JP1-Pad2)*%
X147828000Y-104394000D03*
%TD*%
D17*
%TO.P,JP2,1,A*%
%TO.N,Net-(JP2-Pad1)*%
X151485600Y-101854000D03*
D18*
%TO.P,JP2,2,B*%
%TO.N,/RS485_A*%
X151485600Y-104394000D03*
%TD*%
D17*
%TO.P,JP3,1,A*%
%TO.N,/RS485_B*%
X155143200Y-101854000D03*
D18*
%TO.P,JP3,2,B*%
%TO.N,Net-(JP3-Pad2)*%
X155143200Y-104394000D03*
%TD*%
D19*
%TO.N,Net-(C1-Pad1)*%
X109867100Y-109474000D03*
X111316100Y-107848400D03*
%TO.N,GND1*%
X117703600Y-100482400D03*
X117703600Y-108813600D03*
X117652800Y-115671600D03*
X100482400Y-100482400D03*
X109169200Y-117805200D03*
X109169200Y-119532400D03*
X100482400Y-124510800D03*
X100482400Y-118313200D03*
X100482400Y-106680000D03*
X110286800Y-124510800D03*
X106781600Y-100482400D03*
X117703600Y-124510800D03*
%TO.N,Net-(C2-Pad1)*%
X112532200Y-116728200D03*
X111607600Y-101498400D03*
%TO.N,GND2*%
X135534400Y-124460000D03*
X161188400Y-100482400D03*
X161188400Y-124460000D03*
X135534400Y-100482400D03*
X145542000Y-124460000D03*
X122377200Y-100431600D03*
X122428000Y-108864400D03*
X161188400Y-107035600D03*
X122377200Y-124460000D03*
X122428000Y-115671600D03*
X161188400Y-120192800D03*
X145542000Y-100482400D03*
%TO.N,Net-(C7-Pad1)*%
X136956800Y-113995200D03*
X136753600Y-110998000D03*
%TO.N,Net-(J1-PadA6)*%
X111121300Y-121205900D03*
X110339900Y-113494100D03*
%TO.N,Net-(J1-PadA7)*%
X106527600Y-111252000D03*
X105918000Y-118719600D03*
%TO.N,/TX*%
X146253200Y-112471200D03*
X142392400Y-112522000D03*
X140919099Y-117551099D03*
X137109200Y-120192800D03*
%TO.N,/RX*%
X145897600Y-107645200D03*
X137122500Y-107950000D03*
%TO.N,Net-(R5-Pad1)*%
X131437738Y-112631986D03*
X130708400Y-116789200D03*
%TO.N,Net-(JP1-Pad2)*%
X148157800Y-117602000D03*
X150354700Y-121970800D03*
X150774400Y-119545700D03*
%TO.N,/RS485_B*%
X145997900Y-120784900D03*
%TO.N,/RS485_A*%
X145450800Y-121706100D03*
%TD*%
D20*
%TO.N,Net-(C1-Pad1)*%
X109867100Y-109474000D02*
X109867100Y-109297400D01*
X109867100Y-109297400D02*
X111316100Y-107848400D01*
%TO.N,GND1*%
X109169200Y-119532400D02*
X109169200Y-117805200D01*
%TO.N,Net-(C2-Pad1)*%
X112532200Y-116728200D02*
X108958200Y-113154200D01*
X108958200Y-113154200D02*
X108958200Y-105367000D01*
X108958200Y-105367000D02*
X111607600Y-102717600D01*
X111607600Y-102717600D02*
X111607600Y-101498400D01*
%TO.N,Net-(C7-Pad1)*%
X136956800Y-111201200D02*
X136753600Y-110998000D01*
X136956800Y-113995200D02*
X136956800Y-111201200D01*
%TO.N,Net-(J1-PadA6)*%
X111121300Y-121205900D02*
X113965200Y-118362000D01*
X113965200Y-118362000D02*
X113965200Y-117119400D01*
X113965200Y-117119400D02*
X110339900Y-113494100D01*
%TO.N,Net-(J1-PadA7)*%
X105918000Y-118719600D02*
X105359200Y-118160800D01*
X105359200Y-118160800D02*
X105359200Y-112420400D01*
X105359200Y-112420400D02*
X106527600Y-111252000D01*
%TO.N,/TX*%
X140919099Y-117551099D02*
X138379301Y-117551099D01*
X146202400Y-112522000D02*
X146253200Y-112471200D01*
X137109200Y-118821200D02*
X137109200Y-120192800D01*
X142392400Y-112522000D02*
X146202400Y-112522000D01*
X138379301Y-117551099D02*
X137109200Y-118821200D01*
%TO.N,/RX*%
X145592800Y-107950000D02*
X145897600Y-107645200D01*
X137122500Y-107950000D02*
X145592800Y-107950000D01*
%TO.N,Net-(R5-Pad1)*%
X131437738Y-116059862D02*
X130708400Y-116789200D01*
X131437738Y-112631986D02*
X131437738Y-116059862D01*
%TO.N,Net-(JP1-Pad2)*%
X147726400Y-105670900D02*
X147828000Y-105569300D01*
X147726400Y-117170600D02*
X147726400Y-105670900D01*
X150354700Y-120968100D02*
X150774400Y-120548400D01*
X147828000Y-105569300D02*
X147828000Y-104394000D01*
X150354700Y-121970800D02*
X150354700Y-120968100D01*
X148157800Y-117602000D02*
X147726400Y-117170600D01*
X150774400Y-120548400D02*
X150774400Y-119545700D01*
%TO.N,/RS485_B*%
X160121600Y-118160800D02*
X160121600Y-112728800D01*
X147168100Y-118820700D02*
X152145500Y-118820700D01*
X160121600Y-112728800D02*
X157532400Y-110139600D01*
X159054800Y-119227600D02*
X160121600Y-118160800D01*
X145997900Y-119990900D02*
X147168100Y-118820700D01*
X152552400Y-119227600D02*
X159054800Y-119227600D01*
X152145500Y-118820700D02*
X152552400Y-119227600D01*
X145997900Y-120784900D02*
X145997900Y-119990900D01*
%TO.N,/RS485_A*%
X151485600Y-104394000D02*
X151485600Y-112237900D01*
X145260700Y-121516000D02*
X145450800Y-121706100D01*
X148931400Y-118327000D02*
X146747400Y-118327000D01*
X145260700Y-119813700D02*
X145260700Y-121516000D01*
X151485600Y-112237900D02*
X152887300Y-113639600D01*
X152887300Y-114371100D02*
X148931400Y-118327000D01*
X146747400Y-118327000D02*
X145260700Y-119813700D01*
X151485600Y-104394000D02*
X150310300Y-104394000D01*
X152887300Y-113639600D02*
X152887300Y-114371100D01*
X152887300Y-113639600D02*
X157532400Y-113639600D01*
X147828000Y-101911700D02*
X147828000Y-101854000D01*
X150310300Y-104394000D02*
X147828000Y-101911700D01*
%TD*%
%TA.AperFunction,Conductor*%
%TO.N,GND1*%
G36*
X118052121Y-100021002D02*
G01*
X118098614Y-100074658D01*
X118110000Y-100127000D01*
X118110000Y-124864749D01*
X118089998Y-124932870D01*
X118036342Y-124979363D01*
X117984066Y-124990749D01*
X115352660Y-124992102D01*
X109930418Y-124994891D01*
X109862287Y-124974924D01*
X109815766Y-124921292D01*
X109805626Y-124851023D01*
X109835128Y-124786379D01*
X109835890Y-124785500D01*
X109842643Y-124785500D01*
X109842643Y-121594500D01*
X100977357Y-121594500D01*
X100977357Y-124785500D01*
X100982676Y-124785500D01*
X100983685Y-124788938D01*
X101015242Y-124838040D01*
X101015242Y-124909036D01*
X100976859Y-124968763D01*
X100912279Y-124998256D01*
X100894411Y-124999539D01*
X100127065Y-124999934D01*
X100058934Y-124979967D01*
X100012413Y-124926335D01*
X100001000Y-124873934D01*
X100001000Y-118189607D01*
X105029936Y-118189607D01*
X105032790Y-118200256D01*
X105039691Y-118226010D01*
X105042070Y-118236742D01*
X105048612Y-118273845D01*
X105054123Y-118283390D01*
X105055315Y-118286666D01*
X105056792Y-118289834D01*
X105059646Y-118300484D01*
X105065970Y-118309515D01*
X105081255Y-118331344D01*
X105087161Y-118340615D01*
X105094469Y-118353272D01*
X105106006Y-118373255D01*
X105134882Y-118397485D01*
X105142985Y-118404911D01*
X105285291Y-118547217D01*
X105319317Y-118609529D01*
X105321118Y-118652757D01*
X105312318Y-118719600D01*
X105332956Y-118876362D01*
X105393464Y-119022441D01*
X105489718Y-119147882D01*
X105615159Y-119244136D01*
X105761238Y-119304644D01*
X105918000Y-119325282D01*
X105926188Y-119324204D01*
X106066574Y-119305722D01*
X106074762Y-119304644D01*
X106220841Y-119244136D01*
X106346282Y-119147882D01*
X106442536Y-119022441D01*
X106503044Y-118876362D01*
X106523682Y-118719600D01*
X106503044Y-118562838D01*
X106442536Y-118416759D01*
X106346282Y-118291318D01*
X106220841Y-118195064D01*
X106074762Y-118134556D01*
X105918000Y-118113918D01*
X105851157Y-118122718D01*
X105781010Y-118111779D01*
X105745617Y-118086891D01*
X105721605Y-118062879D01*
X105687579Y-118000567D01*
X105684700Y-117973784D01*
X105684700Y-116901105D01*
X106019031Y-116901105D01*
X106020805Y-116908492D01*
X106020805Y-116908496D01*
X106037904Y-116979716D01*
X106058612Y-117065968D01*
X106062093Y-117072712D01*
X106062094Y-117072715D01*
X106096357Y-117139098D01*
X106136375Y-117216631D01*
X106141367Y-117222353D01*
X106141368Y-117222355D01*
X106163486Y-117247709D01*
X106247831Y-117344396D01*
X106254045Y-117348763D01*
X106380330Y-117437518D01*
X106380332Y-117437519D01*
X106386547Y-117441887D01*
X106544513Y-117503476D01*
X106552046Y-117504468D01*
X106552047Y-117504468D01*
X106669739Y-117519962D01*
X106673826Y-117520500D01*
X107862516Y-117520500D01*
X107988320Y-117505276D01*
X108146923Y-117445345D01*
X108286651Y-117349312D01*
X108301359Y-117332804D01*
X108394388Y-117228392D01*
X108394390Y-117228388D01*
X108399440Y-117222721D01*
X108406238Y-117209883D01*
X108449531Y-117128116D01*
X108478776Y-117072881D01*
X108520081Y-116908441D01*
X108520149Y-116895576D01*
X108520929Y-116746495D01*
X108520969Y-116738895D01*
X108518402Y-116728200D01*
X108483161Y-116581417D01*
X108481388Y-116574032D01*
X108403625Y-116423369D01*
X108398313Y-116417279D01*
X108297163Y-116301329D01*
X108292169Y-116295604D01*
X108233649Y-116254475D01*
X108159670Y-116202482D01*
X108159668Y-116202481D01*
X108153453Y-116198113D01*
X107995487Y-116136524D01*
X107987954Y-116135532D01*
X107987953Y-116135532D01*
X107870261Y-116120038D01*
X107870260Y-116120038D01*
X107866174Y-116119500D01*
X107105482Y-116119500D01*
X107037361Y-116099498D01*
X106990868Y-116045842D01*
X106980764Y-115975568D01*
X107010258Y-115910988D01*
X107031077Y-115893798D01*
X107030233Y-115892698D01*
X107143901Y-115805477D01*
X107150451Y-115800451D01*
X107242698Y-115680233D01*
X107300687Y-115540236D01*
X107320466Y-115390000D01*
X107300687Y-115239764D01*
X107242698Y-115099767D01*
X107150451Y-114979549D01*
X107030233Y-114887302D01*
X106890236Y-114829313D01*
X106777720Y-114814500D01*
X106702280Y-114814500D01*
X106589764Y-114829313D01*
X106449767Y-114887302D01*
X106329549Y-114979549D01*
X106237302Y-115099767D01*
X106179313Y-115239764D01*
X106159534Y-115390000D01*
X106179313Y-115540236D01*
X106237302Y-115680233D01*
X106329549Y-115800451D01*
X106449767Y-115892698D01*
X106509928Y-115917617D01*
X106565207Y-115962166D01*
X106587628Y-116029529D01*
X106570069Y-116098321D01*
X106518107Y-116146699D01*
X106506245Y-116151892D01*
X106393077Y-116194655D01*
X106253349Y-116290688D01*
X106248297Y-116296358D01*
X106248296Y-116296359D01*
X106145612Y-116411608D01*
X106145610Y-116411612D01*
X106140560Y-116417279D01*
X106137008Y-116423988D01*
X106137007Y-116423989D01*
X106104746Y-116484920D01*
X106061224Y-116567119D01*
X106019919Y-116731559D01*
X106019879Y-116739157D01*
X106019879Y-116739159D01*
X106019475Y-116816332D01*
X106019031Y-116901105D01*
X105684700Y-116901105D01*
X105684700Y-112607416D01*
X105704702Y-112539295D01*
X105721605Y-112518321D01*
X106355217Y-111884709D01*
X106417529Y-111850683D01*
X106460757Y-111848882D01*
X106527600Y-111857682D01*
X106535788Y-111856604D01*
X106676174Y-111838122D01*
X106684362Y-111837044D01*
X106830441Y-111776536D01*
X106955882Y-111680282D01*
X107052136Y-111554841D01*
X107112644Y-111408762D01*
X107133282Y-111252000D01*
X107112644Y-111095238D01*
X107052136Y-110949159D01*
X106955882Y-110823718D01*
X106830441Y-110727464D01*
X106684362Y-110666956D01*
X106527600Y-110646318D01*
X106370838Y-110666956D01*
X106224759Y-110727464D01*
X106099318Y-110823718D01*
X106003064Y-110949159D01*
X105942556Y-111095238D01*
X105921918Y-111252000D01*
X105922996Y-111260188D01*
X105930718Y-111318842D01*
X105919779Y-111388990D01*
X105894891Y-111424383D01*
X105142985Y-112176289D01*
X105134881Y-112183716D01*
X105106006Y-112207945D01*
X105100493Y-112217494D01*
X105087161Y-112240585D01*
X105081255Y-112249856D01*
X105059646Y-112280716D01*
X105056792Y-112291366D01*
X105055315Y-112294534D01*
X105054123Y-112297810D01*
X105048612Y-112307355D01*
X105042662Y-112341099D01*
X105042070Y-112344458D01*
X105039692Y-112355185D01*
X105029936Y-112391593D01*
X105030897Y-112402578D01*
X105030897Y-112402580D01*
X105033220Y-112429128D01*
X105033700Y-112440110D01*
X105033700Y-118141090D01*
X105033220Y-118152072D01*
X105029936Y-118189607D01*
X100001000Y-118189607D01*
X100001000Y-116901105D01*
X102089031Y-116901105D01*
X102090805Y-116908492D01*
X102090805Y-116908496D01*
X102107904Y-116979716D01*
X102128612Y-117065968D01*
X102132093Y-117072712D01*
X102132094Y-117072715D01*
X102166357Y-117139098D01*
X102206375Y-117216631D01*
X102211367Y-117222353D01*
X102211368Y-117222355D01*
X102233486Y-117247709D01*
X102317831Y-117344396D01*
X102324045Y-117348763D01*
X102450330Y-117437518D01*
X102450332Y-117437519D01*
X102456547Y-117441887D01*
X102614513Y-117503476D01*
X102622046Y-117504468D01*
X102622047Y-117504468D01*
X102739739Y-117519962D01*
X102743826Y-117520500D01*
X103432516Y-117520500D01*
X103558320Y-117505276D01*
X103716923Y-117445345D01*
X103856651Y-117349312D01*
X103871359Y-117332804D01*
X103964388Y-117228392D01*
X103964390Y-117228388D01*
X103969440Y-117222721D01*
X103976238Y-117209883D01*
X104019531Y-117128116D01*
X104048776Y-117072881D01*
X104090081Y-116908441D01*
X104090149Y-116895576D01*
X104090929Y-116746495D01*
X104090969Y-116738895D01*
X104088402Y-116728200D01*
X104053161Y-116581417D01*
X104051388Y-116574032D01*
X103973625Y-116423369D01*
X103968313Y-116417279D01*
X103867163Y-116301329D01*
X103862169Y-116295604D01*
X103803649Y-116254475D01*
X103729670Y-116202482D01*
X103729668Y-116202481D01*
X103723453Y-116198113D01*
X103565487Y-116136524D01*
X103557954Y-116135532D01*
X103557953Y-116135532D01*
X103440261Y-116120038D01*
X103440260Y-116120038D01*
X103436174Y-116119500D01*
X102747484Y-116119500D01*
X102621680Y-116134724D01*
X102463077Y-116194655D01*
X102323349Y-116290688D01*
X102318297Y-116296358D01*
X102318296Y-116296359D01*
X102215612Y-116411608D01*
X102215610Y-116411612D01*
X102210560Y-116417279D01*
X102207008Y-116423988D01*
X102207007Y-116423989D01*
X102174746Y-116484920D01*
X102131224Y-116567119D01*
X102089919Y-116731559D01*
X102089879Y-116739157D01*
X102089879Y-116739159D01*
X102089475Y-116816332D01*
X102089031Y-116901105D01*
X100001000Y-116901105D01*
X100001000Y-108261105D01*
X102089031Y-108261105D01*
X102090805Y-108268492D01*
X102090805Y-108268496D01*
X102125220Y-108411838D01*
X102128612Y-108425968D01*
X102132093Y-108432712D01*
X102132094Y-108432715D01*
X102157072Y-108481109D01*
X102206375Y-108576631D01*
X102211367Y-108582353D01*
X102211368Y-108582355D01*
X102216637Y-108588395D01*
X102317831Y-108704396D01*
X102324045Y-108708763D01*
X102450330Y-108797518D01*
X102450332Y-108797519D01*
X102456547Y-108801887D01*
X102614513Y-108863476D01*
X102622046Y-108864468D01*
X102622047Y-108864468D01*
X102729682Y-108878638D01*
X102743826Y-108880500D01*
X103432516Y-108880500D01*
X103558320Y-108865276D01*
X103716923Y-108805345D01*
X103856651Y-108709312D01*
X103911660Y-108647572D01*
X103964388Y-108588392D01*
X103964390Y-108588388D01*
X103969440Y-108582721D01*
X103976238Y-108569883D01*
X104023241Y-108481109D01*
X104048776Y-108432881D01*
X104090081Y-108268441D01*
X104090119Y-108261105D01*
X106019031Y-108261105D01*
X106020805Y-108268492D01*
X106020805Y-108268496D01*
X106055220Y-108411838D01*
X106058612Y-108425968D01*
X106062093Y-108432712D01*
X106062094Y-108432715D01*
X106087072Y-108481109D01*
X106136375Y-108576631D01*
X106141367Y-108582353D01*
X106141368Y-108582355D01*
X106146637Y-108588395D01*
X106247831Y-108704396D01*
X106254045Y-108708763D01*
X106380330Y-108797518D01*
X106380332Y-108797519D01*
X106386547Y-108801887D01*
X106393623Y-108804646D01*
X106393627Y-108804648D01*
X106506912Y-108848816D01*
X106563114Y-108892197D01*
X106586940Y-108959076D01*
X106570826Y-109028220D01*
X106519889Y-109077676D01*
X106509367Y-109082615D01*
X106449767Y-109107302D01*
X106329549Y-109199549D01*
X106237302Y-109319767D01*
X106179313Y-109459764D01*
X106159534Y-109610000D01*
X106179313Y-109760236D01*
X106237302Y-109900233D01*
X106329549Y-110020451D01*
X106449767Y-110112698D01*
X106589764Y-110170687D01*
X106702280Y-110185500D01*
X106777720Y-110185500D01*
X106890236Y-110170687D01*
X107030233Y-110112698D01*
X107150451Y-110020451D01*
X107242698Y-109900233D01*
X107300687Y-109760236D01*
X107320466Y-109610000D01*
X107300687Y-109459764D01*
X107242698Y-109319767D01*
X107150451Y-109199549D01*
X107030233Y-109107302D01*
X107032159Y-109104792D01*
X106993490Y-109064239D01*
X106980052Y-108994526D01*
X107006438Y-108928614D01*
X107064269Y-108887431D01*
X107105482Y-108880500D01*
X107862516Y-108880500D01*
X107988320Y-108865276D01*
X108146923Y-108805345D01*
X108286651Y-108709312D01*
X108399440Y-108582721D01*
X108402994Y-108576009D01*
X108403237Y-108575659D01*
X108458541Y-108531139D01*
X108529135Y-108523585D01*
X108592605Y-108555397D01*
X108628802Y-108616473D01*
X108632700Y-108647572D01*
X108632700Y-113134490D01*
X108632220Y-113145472D01*
X108628936Y-113183007D01*
X108631790Y-113193656D01*
X108638691Y-113219410D01*
X108641070Y-113230142D01*
X108647612Y-113267245D01*
X108653123Y-113276790D01*
X108654315Y-113280066D01*
X108655792Y-113283234D01*
X108658646Y-113293884D01*
X108680255Y-113324744D01*
X108686161Y-113334015D01*
X108688080Y-113337338D01*
X108705006Y-113366655D01*
X108713451Y-113373741D01*
X108733882Y-113390885D01*
X108741985Y-113398311D01*
X111899491Y-116555818D01*
X111933517Y-116618130D01*
X111935318Y-116661358D01*
X111926518Y-116728200D01*
X111947156Y-116884962D01*
X112007664Y-117031041D01*
X112103918Y-117156482D01*
X112229359Y-117252736D01*
X112375438Y-117313244D01*
X112532200Y-117333882D01*
X112540388Y-117332804D01*
X112680774Y-117314322D01*
X112688962Y-117313244D01*
X112835041Y-117252736D01*
X112960482Y-117156482D01*
X113056736Y-117031041D01*
X113089950Y-116950856D01*
X113134497Y-116895576D01*
X113201860Y-116873155D01*
X113270652Y-116890713D01*
X113295453Y-116909979D01*
X113450991Y-117065518D01*
X113602796Y-117217323D01*
X113636821Y-117279635D01*
X113639700Y-117306418D01*
X113639700Y-118174984D01*
X113619698Y-118243105D01*
X113602795Y-118264079D01*
X111293683Y-120573191D01*
X111231371Y-120607217D01*
X111188143Y-120609018D01*
X111121300Y-120600218D01*
X110964538Y-120620856D01*
X110818459Y-120681364D01*
X110693018Y-120777618D01*
X110596764Y-120903059D01*
X110536256Y-121049138D01*
X110515618Y-121205900D01*
X110536256Y-121362662D01*
X110596764Y-121508741D01*
X110693018Y-121634182D01*
X110818459Y-121730436D01*
X110964538Y-121790944D01*
X111121300Y-121811582D01*
X111129488Y-121810504D01*
X111269874Y-121792022D01*
X111278062Y-121790944D01*
X111424141Y-121730436D01*
X111549582Y-121634182D01*
X111645836Y-121508741D01*
X111706344Y-121362662D01*
X111726982Y-121205900D01*
X111718182Y-121139057D01*
X111729121Y-121068910D01*
X111754009Y-121033517D01*
X114181415Y-118606111D01*
X114189519Y-118598684D01*
X114209949Y-118581541D01*
X114218394Y-118574455D01*
X114225101Y-118562838D01*
X114237239Y-118541815D01*
X114243145Y-118532544D01*
X114258430Y-118510715D01*
X114264754Y-118501684D01*
X114267608Y-118491034D01*
X114269085Y-118487866D01*
X114270277Y-118484590D01*
X114275788Y-118475045D01*
X114282330Y-118437942D01*
X114284709Y-118427210D01*
X114285465Y-118424389D01*
X114294464Y-118390807D01*
X114292929Y-118373255D01*
X114291180Y-118353272D01*
X114290700Y-118342290D01*
X114290700Y-117139098D01*
X114291180Y-117128116D01*
X114293502Y-117101580D01*
X114293502Y-117101578D01*
X114294463Y-117090593D01*
X114291515Y-117079589D01*
X114284712Y-117054204D01*
X114282332Y-117043469D01*
X114277702Y-117017212D01*
X114275788Y-117006355D01*
X114270276Y-116996807D01*
X114269083Y-116993530D01*
X114267606Y-116990362D01*
X114264753Y-116979716D01*
X114243142Y-116948852D01*
X114237238Y-116939584D01*
X114218394Y-116906945D01*
X114189531Y-116882726D01*
X114181427Y-116875300D01*
X110972609Y-113666483D01*
X110938583Y-113604171D01*
X110936782Y-113560942D01*
X110944504Y-113502288D01*
X110945582Y-113494100D01*
X110928804Y-113366655D01*
X110926022Y-113345526D01*
X110924944Y-113337338D01*
X110921596Y-113329254D01*
X110914581Y-113312320D01*
X110864436Y-113191259D01*
X110768182Y-113065818D01*
X110755751Y-113056279D01*
X110707655Y-113019374D01*
X110642741Y-112969564D01*
X110496662Y-112909056D01*
X110339900Y-112888418D01*
X110183138Y-112909056D01*
X110037059Y-112969564D01*
X109972145Y-113019374D01*
X109924050Y-113056279D01*
X109911618Y-113065818D01*
X109815364Y-113191259D01*
X109812204Y-113198888D01*
X109812201Y-113198893D01*
X109782149Y-113271444D01*
X109737601Y-113326725D01*
X109670237Y-113349145D01*
X109601446Y-113331586D01*
X109576646Y-113312320D01*
X109320605Y-113056279D01*
X109286579Y-112993967D01*
X109283700Y-112967184D01*
X109283700Y-110038759D01*
X109303702Y-109970638D01*
X109357358Y-109924145D01*
X109427632Y-109914041D01*
X109486404Y-109938796D01*
X109564259Y-109998536D01*
X109710338Y-110059044D01*
X109867100Y-110079682D01*
X109875288Y-110078604D01*
X110015674Y-110060122D01*
X110023862Y-110059044D01*
X110169941Y-109998536D01*
X110295382Y-109902282D01*
X110391636Y-109776841D01*
X110452144Y-109630762D01*
X110472782Y-109474000D01*
X110452144Y-109317238D01*
X110448984Y-109309610D01*
X110448983Y-109309605D01*
X110442023Y-109292802D01*
X110434434Y-109222212D01*
X110469337Y-109155490D01*
X111143718Y-108481109D01*
X111206030Y-108447083D01*
X111249258Y-108445282D01*
X111316100Y-108454082D01*
X111324288Y-108453004D01*
X111464674Y-108434522D01*
X111472862Y-108433444D01*
X111618941Y-108372936D01*
X111744382Y-108276682D01*
X111840636Y-108151241D01*
X111901144Y-108005162D01*
X111921782Y-107848400D01*
X111901144Y-107691638D01*
X111840636Y-107545559D01*
X111744382Y-107420118D01*
X111618941Y-107323864D01*
X111472862Y-107263356D01*
X111316100Y-107242718D01*
X111159338Y-107263356D01*
X111013259Y-107323864D01*
X110887818Y-107420118D01*
X110791564Y-107545559D01*
X110731056Y-107691638D01*
X110710418Y-107848400D01*
X110719218Y-107915241D01*
X110708279Y-107985388D01*
X110683392Y-108020781D01*
X109861363Y-108842811D01*
X109799050Y-108876836D01*
X109788717Y-108878637D01*
X109730281Y-108886330D01*
X109721922Y-108887431D01*
X109710338Y-108888956D01*
X109702709Y-108892116D01*
X109692047Y-108896532D01*
X109564259Y-108949464D01*
X109505533Y-108994526D01*
X109486404Y-109009204D01*
X109420183Y-109034804D01*
X109350635Y-109020539D01*
X109299839Y-108970938D01*
X109283700Y-108909241D01*
X109283700Y-105554016D01*
X109303702Y-105485895D01*
X109320605Y-105464921D01*
X111823822Y-102961705D01*
X111831926Y-102954278D01*
X111852349Y-102937141D01*
X111860794Y-102930055D01*
X111879639Y-102897415D01*
X111885543Y-102888147D01*
X111900831Y-102866313D01*
X111907153Y-102857284D01*
X111910006Y-102846638D01*
X111911483Y-102843470D01*
X111912676Y-102840193D01*
X111918188Y-102830645D01*
X111924732Y-102793531D01*
X111927112Y-102782796D01*
X111934010Y-102757054D01*
X111936863Y-102746407D01*
X111933579Y-102708869D01*
X111933100Y-102697888D01*
X111933100Y-102067686D01*
X111953102Y-101999565D01*
X111982396Y-101967723D01*
X112029336Y-101931705D01*
X112035882Y-101926682D01*
X112132136Y-101801241D01*
X112192644Y-101655162D01*
X112213282Y-101498400D01*
X112192644Y-101341638D01*
X112132136Y-101195559D01*
X112035882Y-101070118D01*
X111910441Y-100973864D01*
X111764362Y-100913356D01*
X111607600Y-100892718D01*
X111450838Y-100913356D01*
X111304759Y-100973864D01*
X111179318Y-101070118D01*
X111083064Y-101195559D01*
X111022556Y-101341638D01*
X111001918Y-101498400D01*
X111022556Y-101655162D01*
X111083064Y-101801241D01*
X111179318Y-101926682D01*
X111185864Y-101931705D01*
X111232804Y-101967723D01*
X111274671Y-102025061D01*
X111282100Y-102067686D01*
X111282100Y-102530583D01*
X111262098Y-102598704D01*
X111245195Y-102619678D01*
X108741984Y-105122890D01*
X108733881Y-105130316D01*
X108705006Y-105154545D01*
X108699493Y-105164094D01*
X108686161Y-105187185D01*
X108680255Y-105196456D01*
X108658646Y-105227316D01*
X108655792Y-105237966D01*
X108654315Y-105241134D01*
X108653123Y-105244410D01*
X108647612Y-105253955D01*
X108641662Y-105287699D01*
X108641070Y-105291058D01*
X108638692Y-105301785D01*
X108628936Y-105338193D01*
X108629897Y-105349178D01*
X108629897Y-105349180D01*
X108632220Y-105375728D01*
X108632700Y-105386710D01*
X108632700Y-107712497D01*
X108612698Y-107780618D01*
X108559042Y-107827111D01*
X108488768Y-107837215D01*
X108424188Y-107807721D01*
X108405137Y-107786299D01*
X108403625Y-107783369D01*
X108292169Y-107655604D01*
X108233649Y-107614475D01*
X108159670Y-107562482D01*
X108159668Y-107562481D01*
X108153453Y-107558113D01*
X107995487Y-107496524D01*
X107987954Y-107495532D01*
X107987953Y-107495532D01*
X107870261Y-107480038D01*
X107870260Y-107480038D01*
X107866174Y-107479500D01*
X106677484Y-107479500D01*
X106551680Y-107494724D01*
X106393077Y-107554655D01*
X106253349Y-107650688D01*
X106248297Y-107656358D01*
X106248296Y-107656359D01*
X106145612Y-107771608D01*
X106145610Y-107771612D01*
X106140560Y-107777279D01*
X106137008Y-107783988D01*
X106137007Y-107783989D01*
X106124442Y-107807721D01*
X106061224Y-107927119D01*
X106019919Y-108091559D01*
X106019031Y-108261105D01*
X104090119Y-108261105D01*
X104090969Y-108098895D01*
X104066500Y-107996974D01*
X104053161Y-107941417D01*
X104051388Y-107934032D01*
X104041689Y-107915239D01*
X103977108Y-107790117D01*
X103977108Y-107790116D01*
X103973625Y-107783369D01*
X103968313Y-107777279D01*
X103867163Y-107661329D01*
X103862169Y-107655604D01*
X103803649Y-107614475D01*
X103729670Y-107562482D01*
X103729668Y-107562481D01*
X103723453Y-107558113D01*
X103565487Y-107496524D01*
X103557954Y-107495532D01*
X103557953Y-107495532D01*
X103440261Y-107480038D01*
X103440260Y-107480038D01*
X103436174Y-107479500D01*
X102747484Y-107479500D01*
X102621680Y-107494724D01*
X102463077Y-107554655D01*
X102323349Y-107650688D01*
X102318297Y-107656358D01*
X102318296Y-107656359D01*
X102215612Y-107771608D01*
X102215610Y-107771612D01*
X102210560Y-107777279D01*
X102207008Y-107783988D01*
X102207007Y-107783989D01*
X102194442Y-107807721D01*
X102131224Y-107927119D01*
X102089919Y-108091559D01*
X102089031Y-108261105D01*
X100001000Y-108261105D01*
X100001000Y-100127000D01*
X100021002Y-100058879D01*
X100074658Y-100012386D01*
X100127000Y-100001000D01*
X117984000Y-100001000D01*
X118052121Y-100021002D01*
G37*
%TD.AperFunction*%
%TD*%
%TA.AperFunction,Conductor*%
%TO.N,GND2*%
G36*
X161621121Y-100021002D02*
G01*
X161667614Y-100074658D01*
X161679000Y-100127000D01*
X161679000Y-124842335D01*
X161658998Y-124910456D01*
X161605342Y-124956949D01*
X161553066Y-124968335D01*
X138116705Y-124980392D01*
X122046065Y-124988659D01*
X121977934Y-124968692D01*
X121931413Y-124915060D01*
X121920000Y-124862659D01*
X121920000Y-121706100D01*
X144845118Y-121706100D01*
X144865756Y-121862862D01*
X144926264Y-122008941D01*
X145022518Y-122134382D01*
X145147959Y-122230636D01*
X145294038Y-122291144D01*
X145450800Y-122311782D01*
X145458988Y-122310704D01*
X145599374Y-122292222D01*
X145607562Y-122291144D01*
X145753641Y-122230636D01*
X145879082Y-122134382D01*
X145975336Y-122008941D01*
X146035844Y-121862862D01*
X146056482Y-121706100D01*
X146035844Y-121549338D01*
X146032684Y-121541709D01*
X146030546Y-121533730D01*
X146033000Y-121533073D01*
X146026771Y-121475182D01*
X146058545Y-121411692D01*
X146119600Y-121375460D01*
X146134325Y-121372621D01*
X146154662Y-121369944D01*
X146300741Y-121309436D01*
X146426182Y-121213182D01*
X146522436Y-121087741D01*
X146582944Y-120941662D01*
X146603582Y-120784900D01*
X146582944Y-120628138D01*
X146576921Y-120613596D01*
X146530775Y-120502192D01*
X146522436Y-120482059D01*
X146426182Y-120356618D01*
X146416987Y-120349562D01*
X146372696Y-120315577D01*
X146330829Y-120258239D01*
X146323400Y-120215614D01*
X146323400Y-120177916D01*
X146343402Y-120109795D01*
X146360305Y-120088821D01*
X147266021Y-119183105D01*
X147328333Y-119149079D01*
X147355116Y-119146200D01*
X150101329Y-119146200D01*
X150169450Y-119166202D01*
X150215943Y-119219858D01*
X150226047Y-119290132D01*
X150217738Y-119320418D01*
X150189356Y-119388938D01*
X150188278Y-119397126D01*
X150181065Y-119451918D01*
X150168718Y-119545700D01*
X150189356Y-119702462D01*
X150249864Y-119848541D01*
X150346118Y-119973982D01*
X150352664Y-119979005D01*
X150399604Y-120015023D01*
X150441471Y-120072361D01*
X150448900Y-120114986D01*
X150448900Y-120361382D01*
X150428898Y-120429503D01*
X150411996Y-120450477D01*
X150138478Y-120723996D01*
X150130374Y-120731422D01*
X150101506Y-120755645D01*
X150095993Y-120765194D01*
X150082661Y-120788285D01*
X150076755Y-120797556D01*
X150055146Y-120828416D01*
X150052292Y-120839066D01*
X150050815Y-120842234D01*
X150049623Y-120845510D01*
X150044112Y-120855055D01*
X150038162Y-120888799D01*
X150037570Y-120892158D01*
X150035192Y-120902885D01*
X150025436Y-120939293D01*
X150026397Y-120950278D01*
X150026397Y-120950280D01*
X150028720Y-120976828D01*
X150029200Y-120987810D01*
X150029200Y-121401514D01*
X150009198Y-121469635D01*
X149979904Y-121501477D01*
X149926418Y-121542518D01*
X149830164Y-121667959D01*
X149769656Y-121814038D01*
X149749018Y-121970800D01*
X149769656Y-122127562D01*
X149830164Y-122273641D01*
X149926418Y-122399082D01*
X150051859Y-122495336D01*
X150197938Y-122555844D01*
X150354700Y-122576482D01*
X150362888Y-122575404D01*
X150503274Y-122556922D01*
X150511462Y-122555844D01*
X150657541Y-122495336D01*
X150782982Y-122399082D01*
X150879236Y-122273641D01*
X150939744Y-122127562D01*
X150960382Y-121970800D01*
X150939744Y-121814038D01*
X150879236Y-121667959D01*
X150782982Y-121542518D01*
X150729496Y-121501477D01*
X150687629Y-121444139D01*
X150680200Y-121401514D01*
X150680200Y-121155117D01*
X150700202Y-121086996D01*
X150717105Y-121066021D01*
X150841465Y-120941662D01*
X150990628Y-120792499D01*
X150998732Y-120785073D01*
X150998938Y-120784900D01*
X151027594Y-120760855D01*
X151046439Y-120728215D01*
X151052343Y-120718947D01*
X151067631Y-120697113D01*
X151073953Y-120688084D01*
X151076806Y-120677438D01*
X151078283Y-120674270D01*
X151079476Y-120670993D01*
X151084988Y-120661445D01*
X151091532Y-120624331D01*
X151093912Y-120613596D01*
X151100810Y-120587854D01*
X151103663Y-120577207D01*
X151100379Y-120539669D01*
X151099900Y-120528688D01*
X151099900Y-120114986D01*
X151119902Y-120046865D01*
X151149196Y-120015023D01*
X151196136Y-119979005D01*
X151202682Y-119973982D01*
X151298936Y-119848541D01*
X151359444Y-119702462D01*
X151380082Y-119545700D01*
X151367735Y-119451918D01*
X151360522Y-119397126D01*
X151359444Y-119388938D01*
X151331062Y-119320418D01*
X151323473Y-119249828D01*
X151355252Y-119186341D01*
X151416310Y-119150114D01*
X151447471Y-119146200D01*
X151958483Y-119146200D01*
X152026604Y-119166202D01*
X152047579Y-119183105D01*
X152308301Y-119443828D01*
X152315727Y-119451931D01*
X152339945Y-119480794D01*
X152372584Y-119499638D01*
X152381852Y-119505542D01*
X152412716Y-119527153D01*
X152423362Y-119530006D01*
X152426530Y-119531483D01*
X152429807Y-119532676D01*
X152439355Y-119538188D01*
X152468908Y-119543399D01*
X152476469Y-119544732D01*
X152487203Y-119547112D01*
X152523593Y-119556863D01*
X152534569Y-119555903D01*
X152534572Y-119555903D01*
X152561131Y-119553579D01*
X152572112Y-119553100D01*
X159035090Y-119553100D01*
X159046072Y-119553580D01*
X159072620Y-119555903D01*
X159072622Y-119555903D01*
X159083607Y-119556864D01*
X159120015Y-119547108D01*
X159130742Y-119544730D01*
X159134101Y-119544138D01*
X159167845Y-119538188D01*
X159177390Y-119532677D01*
X159180666Y-119531485D01*
X159183834Y-119530008D01*
X159194484Y-119527154D01*
X159225347Y-119505543D01*
X159234615Y-119499639D01*
X159257706Y-119486307D01*
X159267255Y-119480794D01*
X159291485Y-119451917D01*
X159298911Y-119443815D01*
X160337815Y-118404911D01*
X160345919Y-118397484D01*
X160366349Y-118380341D01*
X160374794Y-118373255D01*
X160387488Y-118351268D01*
X160393639Y-118340615D01*
X160399545Y-118331344D01*
X160414830Y-118309515D01*
X160421154Y-118300484D01*
X160424008Y-118289834D01*
X160425485Y-118286666D01*
X160426677Y-118283390D01*
X160432188Y-118273845D01*
X160438730Y-118236742D01*
X160441109Y-118226010D01*
X160448010Y-118200256D01*
X160450864Y-118189607D01*
X160447580Y-118152072D01*
X160447100Y-118141090D01*
X160447100Y-112748510D01*
X160447580Y-112737528D01*
X160449903Y-112710980D01*
X160449903Y-112710978D01*
X160450864Y-112699993D01*
X160441108Y-112663585D01*
X160438730Y-112652858D01*
X160435685Y-112635591D01*
X160432188Y-112615755D01*
X160426677Y-112606210D01*
X160425485Y-112602934D01*
X160424008Y-112599766D01*
X160421154Y-112589116D01*
X160399545Y-112558256D01*
X160393639Y-112548985D01*
X160380307Y-112525894D01*
X160374794Y-112516345D01*
X160345917Y-112492115D01*
X160337815Y-112484689D01*
X158794111Y-110940985D01*
X158760085Y-110878673D01*
X158765150Y-110807858D01*
X158770249Y-110796063D01*
X158807648Y-110720391D01*
X158839015Y-110656925D01*
X158893228Y-110478491D01*
X158904459Y-110441527D01*
X158904460Y-110441521D01*
X158905963Y-110436575D01*
X158936022Y-110208249D01*
X158937700Y-110139600D01*
X158918830Y-109910078D01*
X158862726Y-109686720D01*
X158770896Y-109475524D01*
X158645805Y-109282163D01*
X158625174Y-109259489D01*
X158494290Y-109115651D01*
X158494289Y-109115650D01*
X158490812Y-109111829D01*
X158486761Y-109108630D01*
X158486757Y-109108626D01*
X158314135Y-108972297D01*
X158314130Y-108972293D01*
X158310081Y-108969096D01*
X158305565Y-108966603D01*
X158305562Y-108966601D01*
X158112989Y-108860295D01*
X158112985Y-108860293D01*
X158108465Y-108857798D01*
X158103596Y-108856074D01*
X158103592Y-108856072D01*
X157896253Y-108782649D01*
X157896249Y-108782648D01*
X157891378Y-108780923D01*
X157886285Y-108780016D01*
X157886282Y-108780015D01*
X157790107Y-108762884D01*
X157664650Y-108740537D01*
X157578202Y-108739481D01*
X157439541Y-108737786D01*
X157439539Y-108737786D01*
X157434371Y-108737723D01*
X157206725Y-108772558D01*
X156987824Y-108844106D01*
X156783549Y-108950445D01*
X156599384Y-109088719D01*
X156440277Y-109255216D01*
X156310499Y-109445463D01*
X156308323Y-109450152D01*
X156308319Y-109450158D01*
X156296545Y-109475524D01*
X156213536Y-109654352D01*
X156151992Y-109876273D01*
X156127519Y-110105265D01*
X156127816Y-110110417D01*
X156127816Y-110110421D01*
X156133264Y-110204896D01*
X156140776Y-110335180D01*
X156141913Y-110340226D01*
X156141914Y-110340232D01*
X156163626Y-110436575D01*
X156191406Y-110559842D01*
X156193348Y-110564624D01*
X156193349Y-110564628D01*
X156276105Y-110768431D01*
X156278049Y-110773218D01*
X156398379Y-110969578D01*
X156549163Y-111143648D01*
X156726353Y-111290754D01*
X156925190Y-111406945D01*
X157140334Y-111489101D01*
X157145400Y-111490132D01*
X157145401Y-111490132D01*
X157246097Y-111510618D01*
X157366007Y-111535014D01*
X157495752Y-111539772D01*
X157590985Y-111543264D01*
X157590989Y-111543264D01*
X157596149Y-111543453D01*
X157601269Y-111542797D01*
X157601271Y-111542797D01*
X157670672Y-111533907D01*
X157824578Y-111514191D01*
X157829526Y-111512706D01*
X157829533Y-111512705D01*
X158040211Y-111449498D01*
X158040210Y-111449498D01*
X158045161Y-111448013D01*
X158189369Y-111377366D01*
X158259342Y-111365359D01*
X158324700Y-111393089D01*
X158333896Y-111401422D01*
X159759195Y-112826721D01*
X159793221Y-112889033D01*
X159796100Y-112915816D01*
X159796100Y-117973784D01*
X159776098Y-118041905D01*
X159759195Y-118062879D01*
X159455495Y-118366579D01*
X159393183Y-118400605D01*
X159322368Y-118395540D01*
X159265532Y-118352993D01*
X159240721Y-118286473D01*
X159240400Y-118277484D01*
X159240400Y-117411715D01*
X159235925Y-117396476D01*
X159234535Y-117395271D01*
X159226852Y-117393600D01*
X155842516Y-117393600D01*
X155827277Y-117398075D01*
X155826072Y-117399465D01*
X155824401Y-117407148D01*
X155824401Y-118384269D01*
X155824771Y-118391090D01*
X155830295Y-118441952D01*
X155833921Y-118457204D01*
X155879076Y-118577654D01*
X155887611Y-118593244D01*
X155968021Y-118700535D01*
X155992868Y-118767042D01*
X155977815Y-118836424D01*
X155927640Y-118886654D01*
X155867194Y-118902100D01*
X152739418Y-118902100D01*
X152671297Y-118882098D01*
X152650323Y-118865196D01*
X152389604Y-118604478D01*
X152382177Y-118596373D01*
X152357955Y-118567506D01*
X152348406Y-118561993D01*
X152325315Y-118548661D01*
X152316044Y-118542755D01*
X152294215Y-118527470D01*
X152285184Y-118521146D01*
X152274534Y-118518292D01*
X152271366Y-118516815D01*
X152268090Y-118515623D01*
X152258545Y-118510112D01*
X152224801Y-118504162D01*
X152221442Y-118503570D01*
X152210715Y-118501192D01*
X152174307Y-118491436D01*
X152163322Y-118492397D01*
X152163320Y-118492397D01*
X152136772Y-118494720D01*
X152125790Y-118495200D01*
X149527716Y-118495200D01*
X149459595Y-118475198D01*
X149413102Y-118421542D01*
X149402998Y-118351268D01*
X149432492Y-118286688D01*
X149438621Y-118280105D01*
X150851242Y-116867485D01*
X155824400Y-116867485D01*
X155828875Y-116882724D01*
X155830265Y-116883929D01*
X155837948Y-116885600D01*
X157260285Y-116885600D01*
X157275524Y-116881125D01*
X157276729Y-116879735D01*
X157278400Y-116872052D01*
X157278400Y-116867485D01*
X157786400Y-116867485D01*
X157790875Y-116882724D01*
X157792265Y-116883929D01*
X157799948Y-116885600D01*
X159222284Y-116885600D01*
X159237523Y-116881125D01*
X159238728Y-116879735D01*
X159240399Y-116872052D01*
X159240399Y-115894931D01*
X159240029Y-115888110D01*
X159234505Y-115837248D01*
X159230879Y-115821996D01*
X159185724Y-115701546D01*
X159177186Y-115685951D01*
X159100685Y-115583876D01*
X159088124Y-115571315D01*
X158986049Y-115494814D01*
X158970454Y-115486276D01*
X158850006Y-115441122D01*
X158834751Y-115437495D01*
X158783886Y-115431969D01*
X158777072Y-115431600D01*
X157804515Y-115431600D01*
X157789276Y-115436075D01*
X157788071Y-115437465D01*
X157786400Y-115445148D01*
X157786400Y-116867485D01*
X157278400Y-116867485D01*
X157278400Y-115449716D01*
X157273925Y-115434477D01*
X157272535Y-115433272D01*
X157264852Y-115431601D01*
X156287731Y-115431601D01*
X156280910Y-115431971D01*
X156230048Y-115437495D01*
X156214796Y-115441121D01*
X156094346Y-115486276D01*
X156078751Y-115494814D01*
X155976676Y-115571315D01*
X155964115Y-115583876D01*
X155887614Y-115685951D01*
X155879076Y-115701546D01*
X155833922Y-115821994D01*
X155830295Y-115837249D01*
X155824769Y-115888114D01*
X155824400Y-115894928D01*
X155824400Y-116867485D01*
X150851242Y-116867485D01*
X151224738Y-116493989D01*
X153103522Y-114615205D01*
X153111626Y-114607778D01*
X153132049Y-114590641D01*
X153140494Y-114583555D01*
X153159339Y-114550915D01*
X153165243Y-114541647D01*
X153180531Y-114519813D01*
X153186853Y-114510784D01*
X153189706Y-114500138D01*
X153191183Y-114496970D01*
X153192376Y-114493693D01*
X153197888Y-114484145D01*
X153204432Y-114447031D01*
X153206812Y-114436296D01*
X153213710Y-114410554D01*
X153216563Y-114399907D01*
X153213279Y-114362369D01*
X153212800Y-114351388D01*
X153212800Y-114091100D01*
X153232802Y-114022979D01*
X153286458Y-113976486D01*
X153338800Y-113965100D01*
X156069604Y-113965100D01*
X156137725Y-113985102D01*
X156184218Y-114038758D01*
X156189840Y-114053427D01*
X156190269Y-114054795D01*
X156191406Y-114059842D01*
X156193349Y-114064628D01*
X156193350Y-114064630D01*
X156225487Y-114143774D01*
X156278049Y-114273218D01*
X156398379Y-114469578D01*
X156549163Y-114643648D01*
X156726353Y-114790754D01*
X156925190Y-114906945D01*
X157140334Y-114989101D01*
X157145400Y-114990132D01*
X157145401Y-114990132D01*
X157246097Y-115010618D01*
X157366007Y-115035014D01*
X157495752Y-115039772D01*
X157590985Y-115043264D01*
X157590989Y-115043264D01*
X157596149Y-115043453D01*
X157601269Y-115042797D01*
X157601271Y-115042797D01*
X157670672Y-115033907D01*
X157824578Y-115014191D01*
X157829526Y-115012706D01*
X157829533Y-115012705D01*
X158040211Y-114949498D01*
X158040210Y-114949498D01*
X158045161Y-114948013D01*
X158251974Y-114846696D01*
X158439462Y-114712963D01*
X158602590Y-114550403D01*
X158624627Y-114519736D01*
X158733959Y-114367583D01*
X158736977Y-114363383D01*
X158742906Y-114351388D01*
X158799799Y-114236273D01*
X158839015Y-114156925D01*
X158868511Y-114059842D01*
X158904459Y-113941527D01*
X158904460Y-113941521D01*
X158905963Y-113936575D01*
X158927310Y-113774426D01*
X158935585Y-113711571D01*
X158935585Y-113711565D01*
X158936022Y-113708249D01*
X158937700Y-113639600D01*
X158918830Y-113410078D01*
X158862726Y-113186720D01*
X158799587Y-113041509D01*
X158772956Y-112980261D01*
X158772954Y-112980258D01*
X158770896Y-112975524D01*
X158694364Y-112857224D01*
X158648615Y-112786506D01*
X158648613Y-112786503D01*
X158645805Y-112782163D01*
X158625174Y-112759489D01*
X158494290Y-112615651D01*
X158494289Y-112615650D01*
X158490812Y-112611829D01*
X158486761Y-112608630D01*
X158486757Y-112608626D01*
X158314135Y-112472297D01*
X158314130Y-112472293D01*
X158310081Y-112469096D01*
X158305565Y-112466603D01*
X158305562Y-112466601D01*
X158112989Y-112360295D01*
X158112985Y-112360293D01*
X158108465Y-112357798D01*
X158103596Y-112356074D01*
X158103592Y-112356072D01*
X157896253Y-112282649D01*
X157896249Y-112282648D01*
X157891378Y-112280923D01*
X157886285Y-112280016D01*
X157886282Y-112280015D01*
X157790107Y-112262884D01*
X157664650Y-112240537D01*
X157578202Y-112239481D01*
X157439541Y-112237786D01*
X157439539Y-112237786D01*
X157434371Y-112237723D01*
X157206725Y-112272558D01*
X156987824Y-112344106D01*
X156783549Y-112450445D01*
X156599384Y-112588719D01*
X156440277Y-112755216D01*
X156437363Y-112759488D01*
X156437362Y-112759489D01*
X156350318Y-112887091D01*
X156310499Y-112945463D01*
X156308323Y-112950152D01*
X156308319Y-112950158D01*
X156223377Y-113133151D01*
X156213536Y-113154352D01*
X156194838Y-113221775D01*
X156157361Y-113282070D01*
X156093232Y-113312533D01*
X156073422Y-113314100D01*
X153074316Y-113314100D01*
X153006195Y-113294098D01*
X152985221Y-113277195D01*
X151848005Y-112139979D01*
X151813979Y-112077667D01*
X151811100Y-112050884D01*
X151811100Y-105484062D01*
X151831102Y-105415941D01*
X151880290Y-105371596D01*
X152045713Y-105288035D01*
X152045716Y-105288033D01*
X152051210Y-105285258D01*
X152213551Y-105158424D01*
X152348164Y-105002472D01*
X152368987Y-104965818D01*
X152446876Y-104828707D01*
X152449923Y-104823344D01*
X152514951Y-104627863D01*
X152540771Y-104423474D01*
X152541183Y-104394000D01*
X152539738Y-104379262D01*
X154087720Y-104379262D01*
X154104959Y-104584553D01*
X154106658Y-104590478D01*
X154143916Y-104720411D01*
X154161744Y-104782586D01*
X154164559Y-104788063D01*
X154164560Y-104788066D01*
X154185447Y-104828707D01*
X154255912Y-104965818D01*
X154383877Y-105127270D01*
X154540764Y-105260791D01*
X154720598Y-105361297D01*
X154815438Y-105392113D01*
X154910671Y-105423056D01*
X154910675Y-105423057D01*
X154916529Y-105424959D01*
X155121094Y-105449351D01*
X155127229Y-105448879D01*
X155127231Y-105448879D01*
X155183239Y-105444569D01*
X155326500Y-105433546D01*
X155332430Y-105431890D01*
X155332432Y-105431890D01*
X155518997Y-105379800D01*
X155518996Y-105379800D01*
X155524925Y-105378145D01*
X155530414Y-105375372D01*
X155530420Y-105375370D01*
X155703316Y-105288033D01*
X155708810Y-105285258D01*
X155871151Y-105158424D01*
X156005764Y-105002472D01*
X156026587Y-104965818D01*
X156104476Y-104828707D01*
X156107523Y-104823344D01*
X156172551Y-104627863D01*
X156198371Y-104423474D01*
X156198783Y-104394000D01*
X156178680Y-104188970D01*
X156119135Y-103991749D01*
X156022418Y-103809849D01*
X155949059Y-103719902D01*
X155896106Y-103654975D01*
X155896103Y-103654972D01*
X155892211Y-103650200D01*
X155874986Y-103635950D01*
X155738225Y-103522811D01*
X155738221Y-103522809D01*
X155733475Y-103518882D01*
X155552255Y-103420897D01*
X155355454Y-103359977D01*
X155349329Y-103359333D01*
X155349328Y-103359333D01*
X155156698Y-103339087D01*
X155156696Y-103339087D01*
X155150569Y-103338443D01*
X155063729Y-103346346D01*
X154951542Y-103356555D01*
X154951539Y-103356556D01*
X154945403Y-103357114D01*
X154747772Y-103415280D01*
X154565202Y-103510726D01*
X154560401Y-103514586D01*
X154560398Y-103514588D01*
X154550171Y-103522811D01*
X154404647Y-103639815D01*
X154272224Y-103797630D01*
X154269256Y-103803028D01*
X154269253Y-103803033D01*
X154181246Y-103963119D01*
X154172976Y-103978162D01*
X154110684Y-104174532D01*
X154109998Y-104180649D01*
X154109997Y-104180653D01*
X154088407Y-104373137D01*
X154087720Y-104379262D01*
X152539738Y-104379262D01*
X152521080Y-104188970D01*
X152461535Y-103991749D01*
X152364818Y-103809849D01*
X152291459Y-103719902D01*
X152238506Y-103654975D01*
X152238503Y-103654972D01*
X152234611Y-103650200D01*
X152217386Y-103635950D01*
X152080625Y-103522811D01*
X152080621Y-103522809D01*
X152075875Y-103518882D01*
X151894655Y-103420897D01*
X151697854Y-103359977D01*
X151691729Y-103359333D01*
X151691728Y-103359333D01*
X151499098Y-103339087D01*
X151499096Y-103339087D01*
X151492969Y-103338443D01*
X151406129Y-103346346D01*
X151293942Y-103356555D01*
X151293939Y-103356556D01*
X151287803Y-103357114D01*
X151090172Y-103415280D01*
X150907602Y-103510726D01*
X150902801Y-103514586D01*
X150902798Y-103514588D01*
X150892571Y-103522811D01*
X150747047Y-103639815D01*
X150614624Y-103797630D01*
X150604916Y-103815290D01*
X150539256Y-103934725D01*
X150488911Y-103984783D01*
X150419494Y-103999677D01*
X150353045Y-103974676D01*
X150339746Y-103963119D01*
X149100374Y-102723748D01*
X150435100Y-102723748D01*
X150446733Y-102782231D01*
X150491048Y-102848552D01*
X150557369Y-102892867D01*
X150569538Y-102895288D01*
X150569539Y-102895288D01*
X150609784Y-102903293D01*
X150615852Y-102904500D01*
X152355348Y-102904500D01*
X152361416Y-102903293D01*
X152401661Y-102895288D01*
X152401662Y-102895288D01*
X152413831Y-102892867D01*
X152480152Y-102848552D01*
X152524467Y-102782231D01*
X152536100Y-102723748D01*
X154092700Y-102723748D01*
X154104333Y-102782231D01*
X154148648Y-102848552D01*
X154214969Y-102892867D01*
X154227138Y-102895288D01*
X154227139Y-102895288D01*
X154267384Y-102903293D01*
X154273452Y-102904500D01*
X156012948Y-102904500D01*
X156019016Y-102903293D01*
X156059261Y-102895288D01*
X156059262Y-102895288D01*
X156071431Y-102892867D01*
X156137752Y-102848552D01*
X156182067Y-102782231D01*
X156193700Y-102723748D01*
X156193700Y-100984252D01*
X156182067Y-100925769D01*
X156137752Y-100859448D01*
X156071431Y-100815133D01*
X156059262Y-100812712D01*
X156059261Y-100812712D01*
X156019016Y-100804707D01*
X156012948Y-100803500D01*
X154273452Y-100803500D01*
X154267384Y-100804707D01*
X154227139Y-100812712D01*
X154227138Y-100812712D01*
X154214969Y-100815133D01*
X154148648Y-100859448D01*
X154104333Y-100925769D01*
X154092700Y-100984252D01*
X154092700Y-102723748D01*
X152536100Y-102723748D01*
X152536100Y-100984252D01*
X152524467Y-100925769D01*
X152480152Y-100859448D01*
X152413831Y-100815133D01*
X152401662Y-100812712D01*
X152401661Y-100812712D01*
X152361416Y-100804707D01*
X152355348Y-100803500D01*
X150615852Y-100803500D01*
X150609784Y-100804707D01*
X150569539Y-100812712D01*
X150569538Y-100812712D01*
X150557369Y-100815133D01*
X150491048Y-100859448D01*
X150446733Y-100925769D01*
X150435100Y-100984252D01*
X150435100Y-102723748D01*
X149100374Y-102723748D01*
X148915405Y-102538779D01*
X148881380Y-102476467D01*
X148878500Y-102449684D01*
X148878500Y-100984252D01*
X148866867Y-100925769D01*
X148822552Y-100859448D01*
X148756231Y-100815133D01*
X148744062Y-100812712D01*
X148744061Y-100812712D01*
X148703816Y-100804707D01*
X148697748Y-100803500D01*
X146958252Y-100803500D01*
X146952184Y-100804707D01*
X146911939Y-100812712D01*
X146911938Y-100812712D01*
X146899769Y-100815133D01*
X146833448Y-100859448D01*
X146789133Y-100925769D01*
X146777500Y-100984252D01*
X146777500Y-102723748D01*
X146789133Y-102782231D01*
X146833448Y-102848552D01*
X146899769Y-102892867D01*
X146911938Y-102895288D01*
X146911939Y-102895288D01*
X146952184Y-102903293D01*
X146958252Y-102904500D01*
X148308284Y-102904500D01*
X148376405Y-102924502D01*
X148397379Y-102941405D01*
X150066195Y-104610222D01*
X150073621Y-104618325D01*
X150097845Y-104647194D01*
X150107388Y-104652704D01*
X150107392Y-104652707D01*
X150130479Y-104666036D01*
X150139748Y-104671940D01*
X150170616Y-104693554D01*
X150181264Y-104696407D01*
X150184435Y-104697886D01*
X150187711Y-104699078D01*
X150197255Y-104704588D01*
X150234376Y-104711134D01*
X150245083Y-104713508D01*
X150281493Y-104723263D01*
X150292468Y-104722303D01*
X150292470Y-104722303D01*
X150319031Y-104719979D01*
X150330012Y-104719500D01*
X150394811Y-104719500D01*
X150462932Y-104739502D01*
X150506878Y-104787906D01*
X150598312Y-104965818D01*
X150726277Y-105127270D01*
X150883164Y-105260791D01*
X151062998Y-105361297D01*
X151068855Y-105363200D01*
X151073041Y-105364560D01*
X151131645Y-105404636D01*
X151159279Y-105470034D01*
X151160100Y-105484392D01*
X151160100Y-112218190D01*
X151159620Y-112229172D01*
X151156336Y-112266707D01*
X151160608Y-112282649D01*
X151166091Y-112303110D01*
X151168470Y-112313842D01*
X151175012Y-112350945D01*
X151180523Y-112360490D01*
X151181715Y-112363766D01*
X151183192Y-112366934D01*
X151186046Y-112377584D01*
X151192370Y-112386615D01*
X151207655Y-112408444D01*
X151213561Y-112417715D01*
X151226893Y-112440806D01*
X151232406Y-112450355D01*
X151257248Y-112471200D01*
X151261282Y-112474585D01*
X151269385Y-112482011D01*
X152524895Y-113737521D01*
X152558921Y-113799833D01*
X152561800Y-113826616D01*
X152561800Y-114184083D01*
X152541798Y-114252204D01*
X152524895Y-114273178D01*
X150698761Y-116099313D01*
X148960362Y-117837712D01*
X148898050Y-117871738D01*
X148827235Y-117866673D01*
X148770399Y-117824126D01*
X148745588Y-117757606D01*
X148746345Y-117732171D01*
X148762404Y-117610188D01*
X148763482Y-117602000D01*
X148742844Y-117445238D01*
X148682336Y-117299159D01*
X148586082Y-117173718D01*
X148460641Y-117077464D01*
X148314562Y-117016956D01*
X148161454Y-116996799D01*
X148096527Y-116968077D01*
X148057435Y-116908811D01*
X148051900Y-116871877D01*
X148051900Y-105859548D01*
X148071902Y-105791427D01*
X148075515Y-105786520D01*
X148081194Y-105781755D01*
X148086707Y-105772206D01*
X148100039Y-105749115D01*
X148105945Y-105739844D01*
X148127554Y-105708984D01*
X148130408Y-105698333D01*
X148131888Y-105695160D01*
X148133079Y-105691888D01*
X148138588Y-105682345D01*
X148145134Y-105645224D01*
X148147508Y-105634517D01*
X148157263Y-105598107D01*
X148153979Y-105560569D01*
X148153500Y-105549588D01*
X148153500Y-105484062D01*
X148173502Y-105415941D01*
X148222690Y-105371596D01*
X148388113Y-105288035D01*
X148388116Y-105288033D01*
X148393610Y-105285258D01*
X148555951Y-105158424D01*
X148690564Y-105002472D01*
X148711387Y-104965818D01*
X148789276Y-104828707D01*
X148792323Y-104823344D01*
X148857351Y-104627863D01*
X148883171Y-104423474D01*
X148883583Y-104394000D01*
X148863480Y-104188970D01*
X148803935Y-103991749D01*
X148707218Y-103809849D01*
X148633859Y-103719902D01*
X148580906Y-103654975D01*
X148580903Y-103654972D01*
X148577011Y-103650200D01*
X148559786Y-103635950D01*
X148423025Y-103522811D01*
X148423021Y-103522809D01*
X148418275Y-103518882D01*
X148237055Y-103420897D01*
X148040254Y-103359977D01*
X148034129Y-103359333D01*
X148034128Y-103359333D01*
X147841498Y-103339087D01*
X147841496Y-103339087D01*
X147835369Y-103338443D01*
X147748529Y-103346346D01*
X147636342Y-103356555D01*
X147636339Y-103356556D01*
X147630203Y-103357114D01*
X147432572Y-103415280D01*
X147250002Y-103510726D01*
X147245201Y-103514586D01*
X147245198Y-103514588D01*
X147234971Y-103522811D01*
X147089447Y-103639815D01*
X146957024Y-103797630D01*
X146954056Y-103803028D01*
X146954053Y-103803033D01*
X146866046Y-103963119D01*
X146857776Y-103978162D01*
X146795484Y-104174532D01*
X146794798Y-104180649D01*
X146794797Y-104180653D01*
X146773207Y-104373137D01*
X146772520Y-104379262D01*
X146789759Y-104584553D01*
X146791458Y-104590478D01*
X146828716Y-104720411D01*
X146846544Y-104782586D01*
X146849359Y-104788063D01*
X146849360Y-104788066D01*
X146870247Y-104828707D01*
X146940712Y-104965818D01*
X147068677Y-105127270D01*
X147225564Y-105260791D01*
X147363215Y-105337721D01*
X147384735Y-105349749D01*
X147434440Y-105400443D01*
X147448848Y-105469962D01*
X147437459Y-105512987D01*
X147433170Y-105522185D01*
X147426846Y-105531216D01*
X147423992Y-105541866D01*
X147422515Y-105545034D01*
X147421323Y-105548310D01*
X147415812Y-105557855D01*
X147410650Y-105587130D01*
X147409270Y-105594958D01*
X147406892Y-105605685D01*
X147397136Y-105642093D01*
X147398097Y-105653078D01*
X147398097Y-105653080D01*
X147400420Y-105679628D01*
X147400900Y-105690610D01*
X147400900Y-117150890D01*
X147400420Y-117161872D01*
X147399384Y-117173718D01*
X147397136Y-117199407D01*
X147406891Y-117235810D01*
X147409270Y-117246542D01*
X147409573Y-117248258D01*
X147415812Y-117283645D01*
X147421323Y-117293190D01*
X147422515Y-117296466D01*
X147423992Y-117299634D01*
X147426846Y-117310284D01*
X147433170Y-117319315D01*
X147448455Y-117341144D01*
X147454361Y-117350415D01*
X147466295Y-117371084D01*
X147473206Y-117383055D01*
X147491106Y-117398075D01*
X147502082Y-117407285D01*
X147510185Y-117414711D01*
X147525091Y-117429617D01*
X147559117Y-117491929D01*
X147560918Y-117535157D01*
X147552118Y-117602000D01*
X147572756Y-117758762D01*
X147575916Y-117766391D01*
X147601138Y-117827282D01*
X147608727Y-117897872D01*
X147576948Y-117961359D01*
X147515890Y-117997586D01*
X147484729Y-118001500D01*
X146767110Y-118001500D01*
X146756128Y-118001020D01*
X146729575Y-117998697D01*
X146729570Y-117998697D01*
X146718593Y-117997737D01*
X146682183Y-118007492D01*
X146671476Y-118009866D01*
X146634355Y-118016412D01*
X146624811Y-118021922D01*
X146621535Y-118023114D01*
X146618364Y-118024593D01*
X146607716Y-118027446D01*
X146598687Y-118033768D01*
X146576849Y-118049059D01*
X146567579Y-118054964D01*
X146544492Y-118068293D01*
X146544488Y-118068296D01*
X146534945Y-118073806D01*
X146527860Y-118082250D01*
X146510720Y-118102676D01*
X146503294Y-118110779D01*
X145044484Y-119569590D01*
X145036381Y-119577016D01*
X145007506Y-119601245D01*
X145001993Y-119610794D01*
X144988661Y-119633885D01*
X144982755Y-119643156D01*
X144961146Y-119674016D01*
X144958292Y-119684666D01*
X144956815Y-119687834D01*
X144955623Y-119691110D01*
X144950112Y-119700655D01*
X144946088Y-119723477D01*
X144943570Y-119737758D01*
X144941192Y-119748485D01*
X144931436Y-119784893D01*
X144932397Y-119795878D01*
X144932397Y-119795880D01*
X144934720Y-119822428D01*
X144935200Y-119833410D01*
X144935200Y-121356622D01*
X144925609Y-121404840D01*
X144868916Y-121541709D01*
X144865756Y-121549338D01*
X144845118Y-121706100D01*
X121920000Y-121706100D01*
X121920000Y-120192800D01*
X136503518Y-120192800D01*
X136524156Y-120349562D01*
X136584664Y-120495641D01*
X136680918Y-120621082D01*
X136687464Y-120626105D01*
X136700784Y-120636326D01*
X136806359Y-120717336D01*
X136952438Y-120777844D01*
X137109200Y-120798482D01*
X137117388Y-120797404D01*
X137257774Y-120778922D01*
X137265962Y-120777844D01*
X137412041Y-120717336D01*
X137517616Y-120636326D01*
X137530936Y-120626105D01*
X137537482Y-120621082D01*
X137633736Y-120495641D01*
X137694244Y-120349562D01*
X137714882Y-120192800D01*
X137694244Y-120036038D01*
X137633736Y-119889959D01*
X137537482Y-119764518D01*
X137483996Y-119723477D01*
X137442129Y-119666139D01*
X137434700Y-119623514D01*
X137434700Y-119008216D01*
X137454702Y-118940095D01*
X137471605Y-118919121D01*
X138477222Y-117913504D01*
X138539534Y-117879478D01*
X138566317Y-117876599D01*
X140349813Y-117876599D01*
X140417934Y-117896601D01*
X140449776Y-117925895D01*
X140490817Y-117979381D01*
X140616258Y-118075635D01*
X140762337Y-118136143D01*
X140919099Y-118156781D01*
X140927287Y-118155703D01*
X140954868Y-118152072D01*
X141075861Y-118136143D01*
X141221940Y-118075635D01*
X141347381Y-117979381D01*
X141443635Y-117853940D01*
X141504143Y-117707861D01*
X141524781Y-117551099D01*
X141506431Y-117411715D01*
X141505221Y-117402525D01*
X141504143Y-117394337D01*
X141443635Y-117248258D01*
X141347381Y-117122817D01*
X141221940Y-117026563D01*
X141075861Y-116966055D01*
X140919099Y-116945417D01*
X140762337Y-116966055D01*
X140616258Y-117026563D01*
X140490817Y-117122817D01*
X140451760Y-117173718D01*
X140449776Y-117176303D01*
X140392438Y-117218170D01*
X140349813Y-117225599D01*
X138399011Y-117225599D01*
X138388029Y-117225119D01*
X138361481Y-117222796D01*
X138361479Y-117222796D01*
X138350494Y-117221835D01*
X138314086Y-117231591D01*
X138303359Y-117233969D01*
X138300000Y-117234561D01*
X138266256Y-117240511D01*
X138256711Y-117246022D01*
X138253435Y-117247214D01*
X138250267Y-117248691D01*
X138239617Y-117251545D01*
X138230586Y-117257869D01*
X138208757Y-117273154D01*
X138199486Y-117279060D01*
X138176395Y-117292392D01*
X138166846Y-117297905D01*
X138156459Y-117310284D01*
X138142616Y-117326781D01*
X138135190Y-117334884D01*
X136892985Y-118577089D01*
X136884881Y-118584516D01*
X136856006Y-118608745D01*
X136850493Y-118618294D01*
X136837161Y-118641385D01*
X136831255Y-118650656D01*
X136809646Y-118681516D01*
X136806792Y-118692166D01*
X136805315Y-118695334D01*
X136804123Y-118698610D01*
X136798612Y-118708155D01*
X136792662Y-118741899D01*
X136792070Y-118745258D01*
X136789692Y-118755985D01*
X136779936Y-118792393D01*
X136780897Y-118803378D01*
X136780897Y-118803380D01*
X136783220Y-118829928D01*
X136783700Y-118840910D01*
X136783700Y-119623514D01*
X136763698Y-119691635D01*
X136734404Y-119723477D01*
X136680918Y-119764518D01*
X136584664Y-119889959D01*
X136524156Y-120036038D01*
X136503518Y-120192800D01*
X121920000Y-120192800D01*
X121920000Y-116789200D01*
X130102718Y-116789200D01*
X130123356Y-116945962D01*
X130183864Y-117092041D01*
X130280118Y-117217482D01*
X130405559Y-117313736D01*
X130551638Y-117374244D01*
X130559826Y-117375322D01*
X130630019Y-117384563D01*
X130708400Y-117394882D01*
X130716588Y-117393804D01*
X130744412Y-117390141D01*
X130786781Y-117384563D01*
X130856974Y-117375322D01*
X130865162Y-117374244D01*
X131011241Y-117313736D01*
X131136682Y-117217482D01*
X131232936Y-117092041D01*
X131293444Y-116945962D01*
X131314082Y-116789200D01*
X131305282Y-116722357D01*
X131316221Y-116652210D01*
X131341109Y-116616817D01*
X131653953Y-116303973D01*
X131662057Y-116296546D01*
X131682487Y-116279403D01*
X131690932Y-116272317D01*
X131697175Y-116261504D01*
X131709777Y-116239677D01*
X131715683Y-116230406D01*
X131730968Y-116208577D01*
X131737292Y-116199546D01*
X131740146Y-116188896D01*
X131741623Y-116185728D01*
X131742815Y-116182452D01*
X131748326Y-116172907D01*
X131754868Y-116135804D01*
X131757247Y-116125072D01*
X131767002Y-116088669D01*
X131763717Y-116051119D01*
X131763238Y-116040138D01*
X131763238Y-113201272D01*
X131783240Y-113133151D01*
X131812534Y-113101309D01*
X131859474Y-113065291D01*
X131866020Y-113060268D01*
X131871533Y-113053084D01*
X131950510Y-112950158D01*
X131962274Y-112934827D01*
X132022782Y-112788748D01*
X132043420Y-112631986D01*
X132022782Y-112475224D01*
X131962274Y-112329145D01*
X131877879Y-112219159D01*
X131871043Y-112210250D01*
X131866020Y-112203704D01*
X131740579Y-112107450D01*
X131594500Y-112046942D01*
X131437738Y-112026304D01*
X131280976Y-112046942D01*
X131134897Y-112107450D01*
X131009456Y-112203704D01*
X131004433Y-112210250D01*
X130997597Y-112219159D01*
X130913202Y-112329145D01*
X130852694Y-112475224D01*
X130832056Y-112631986D01*
X130852694Y-112788748D01*
X130913202Y-112934827D01*
X130924966Y-112950158D01*
X131003944Y-113053084D01*
X131009456Y-113060268D01*
X131016002Y-113065291D01*
X131062942Y-113101309D01*
X131104809Y-113158647D01*
X131112238Y-113201272D01*
X131112238Y-115872846D01*
X131092236Y-115940967D01*
X131075333Y-115961941D01*
X130880783Y-116156491D01*
X130818471Y-116190517D01*
X130775243Y-116192318D01*
X130708400Y-116183518D01*
X130655237Y-116190517D01*
X130586655Y-116199546D01*
X130551638Y-116204156D01*
X130405559Y-116264664D01*
X130280118Y-116360918D01*
X130183864Y-116486359D01*
X130123356Y-116632438D01*
X130102718Y-116789200D01*
X121920000Y-116789200D01*
X121920000Y-110998000D01*
X136147918Y-110998000D01*
X136168556Y-111154762D01*
X136229064Y-111300841D01*
X136325318Y-111426282D01*
X136450759Y-111522536D01*
X136553519Y-111565100D01*
X136608799Y-111609648D01*
X136631300Y-111681509D01*
X136631300Y-113425914D01*
X136611298Y-113494035D01*
X136582004Y-113525877D01*
X136528518Y-113566918D01*
X136432264Y-113692359D01*
X136371756Y-113838438D01*
X136351118Y-113995200D01*
X136371756Y-114151962D01*
X136432264Y-114298041D01*
X136528518Y-114423482D01*
X136535064Y-114428505D01*
X136552148Y-114441614D01*
X136653959Y-114519736D01*
X136800038Y-114580244D01*
X136808226Y-114581322D01*
X136878419Y-114590563D01*
X136956800Y-114600882D01*
X136964988Y-114599804D01*
X137105374Y-114581322D01*
X137113562Y-114580244D01*
X137259641Y-114519736D01*
X137361452Y-114441614D01*
X137378536Y-114428505D01*
X137385082Y-114423482D01*
X137481336Y-114298041D01*
X137541844Y-114151962D01*
X137562482Y-113995200D01*
X137541844Y-113838438D01*
X137481336Y-113692359D01*
X137385082Y-113566918D01*
X137331596Y-113525877D01*
X137289729Y-113468539D01*
X137282300Y-113425914D01*
X137282300Y-112522000D01*
X141786718Y-112522000D01*
X141807356Y-112678762D01*
X141867864Y-112824841D01*
X141964118Y-112950282D01*
X142089559Y-113046536D01*
X142162821Y-113076882D01*
X142221793Y-113101309D01*
X142235638Y-113107044D01*
X142392400Y-113127682D01*
X142400588Y-113126604D01*
X142540974Y-113108122D01*
X142549162Y-113107044D01*
X142563008Y-113101309D01*
X142621979Y-113076882D01*
X142695241Y-113046536D01*
X142820682Y-112950282D01*
X142861723Y-112896796D01*
X142919061Y-112854929D01*
X142961686Y-112847500D01*
X145722894Y-112847500D01*
X145791015Y-112867502D01*
X145813215Y-112887926D01*
X145814050Y-112887091D01*
X145819895Y-112892936D01*
X145824918Y-112899482D01*
X145950359Y-112995736D01*
X146096438Y-113056244D01*
X146253200Y-113076882D01*
X146261388Y-113075804D01*
X146401774Y-113057322D01*
X146409962Y-113056244D01*
X146556041Y-112995736D01*
X146681482Y-112899482D01*
X146777736Y-112774041D01*
X146838244Y-112627962D01*
X146858882Y-112471200D01*
X146843050Y-112350945D01*
X146839322Y-112322626D01*
X146838244Y-112314438D01*
X146777736Y-112168359D01*
X146687595Y-112050884D01*
X146686505Y-112049464D01*
X146681482Y-112042918D01*
X146556041Y-111946664D01*
X146409962Y-111886156D01*
X146253200Y-111865518D01*
X146096438Y-111886156D01*
X145950359Y-111946664D01*
X145824918Y-112042918D01*
X145819895Y-112049464D01*
X145744897Y-112147204D01*
X145687559Y-112189071D01*
X145644934Y-112196500D01*
X142961686Y-112196500D01*
X142893565Y-112176498D01*
X142861723Y-112147204D01*
X142825705Y-112100264D01*
X142820682Y-112093718D01*
X142695241Y-111997464D01*
X142549162Y-111936956D01*
X142392400Y-111916318D01*
X142235638Y-111936956D01*
X142089559Y-111997464D01*
X141964118Y-112093718D01*
X141867864Y-112219159D01*
X141807356Y-112365238D01*
X141786718Y-112522000D01*
X137282300Y-112522000D01*
X137282300Y-111315851D01*
X137291891Y-111267633D01*
X137335484Y-111162391D01*
X137338644Y-111154762D01*
X137359282Y-110998000D01*
X137338644Y-110841238D01*
X137278136Y-110695159D01*
X137181882Y-110569718D01*
X137056441Y-110473464D01*
X136910362Y-110412956D01*
X136753600Y-110392318D01*
X136596838Y-110412956D01*
X136450759Y-110473464D01*
X136325318Y-110569718D01*
X136229064Y-110695159D01*
X136168556Y-110841238D01*
X136147918Y-110998000D01*
X121920000Y-110998000D01*
X121920000Y-107950000D01*
X136516818Y-107950000D01*
X136537456Y-108106762D01*
X136597964Y-108252841D01*
X136694218Y-108378282D01*
X136819659Y-108474536D01*
X136965738Y-108535044D01*
X137122500Y-108555682D01*
X137130688Y-108554604D01*
X137271074Y-108536122D01*
X137279262Y-108535044D01*
X137425341Y-108474536D01*
X137550782Y-108378282D01*
X137591823Y-108324796D01*
X137649161Y-108282929D01*
X137691786Y-108275500D01*
X145573090Y-108275500D01*
X145584072Y-108275980D01*
X145610620Y-108278303D01*
X145610622Y-108278303D01*
X145621607Y-108279264D01*
X145658015Y-108269508D01*
X145668742Y-108267130D01*
X145672101Y-108266538D01*
X145705845Y-108260588D01*
X145715390Y-108255077D01*
X145718666Y-108253885D01*
X145721833Y-108252408D01*
X145732484Y-108249554D01*
X145734815Y-108247922D01*
X145799495Y-108237966D01*
X145897600Y-108250882D01*
X145905788Y-108249804D01*
X145914220Y-108248694D01*
X146054362Y-108230244D01*
X146200441Y-108169736D01*
X146325882Y-108073482D01*
X146422136Y-107948041D01*
X146482644Y-107801962D01*
X146503282Y-107645200D01*
X146482644Y-107488438D01*
X146422136Y-107342359D01*
X146325882Y-107216918D01*
X146200441Y-107120664D01*
X146054362Y-107060156D01*
X145897600Y-107039518D01*
X145740838Y-107060156D01*
X145594759Y-107120664D01*
X145469318Y-107216918D01*
X145373064Y-107342359D01*
X145312556Y-107488438D01*
X145311478Y-107496626D01*
X145309066Y-107514947D01*
X145280343Y-107579874D01*
X145221078Y-107618965D01*
X145184144Y-107624500D01*
X137691786Y-107624500D01*
X137623665Y-107604498D01*
X137591823Y-107575204D01*
X137555805Y-107528264D01*
X137550782Y-107521718D01*
X137425341Y-107425464D01*
X137279262Y-107364956D01*
X137122500Y-107344318D01*
X136965738Y-107364956D01*
X136819659Y-107425464D01*
X136694218Y-107521718D01*
X136597964Y-107647159D01*
X136537456Y-107793238D01*
X136516818Y-107950000D01*
X121920000Y-107950000D01*
X121920000Y-100127000D01*
X121940002Y-100058879D01*
X121993658Y-100012386D01*
X122046000Y-100001000D01*
X161553000Y-100001000D01*
X161621121Y-100021002D01*
G37*
%TD.AperFunction*%
%TD*%
M02*
