%TF.GenerationSoftware,KiCad,Pcbnew,6.0.11-2627ca5db0~126~ubuntu20.04.1*%
%TF.CreationDate,2024-02-25T19:04:41-05:00*%
%TF.ProjectId,hil01,68696c30-312e-46b6-9963-61645f706362,rev?*%
%TF.SameCoordinates,Original*%
%TF.FileFunction,Soldermask,Top*%
%TF.FilePolarity,Negative*%
%FSLAX46Y46*%
G04 Gerber Fmt 4.6, Leading zero omitted, Abs format (unit mm)*
G04 Created by KiCad (PCBNEW 6.0.11-2627ca5db0~126~ubuntu20.04.1) date 2024-02-25 19:04:41*
%MOMM*%
%LPD*%
G01*
G04 APERTURE LIST*
G04 Aperture macros list*
%AMRoundRect*
0 Rectangle with rounded corners*
0 $1 Rounding radius*
0 $2 $3 $4 $5 $6 $7 $8 $9 X,Y pos of 4 corners*
0 Add a 4 corners polygon primitive as box body*
4,1,4,$2,$3,$4,$5,$6,$7,$8,$9,$2,$3,0*
0 Add four circle primitives for the rounded corners*
1,1,$1+$1,$2,$3*
1,1,$1+$1,$4,$5*
1,1,$1+$1,$6,$7*
1,1,$1+$1,$8,$9*
0 Add four rect primitives between the rounded corners*
20,1,$1+$1,$2,$3,$4,$5,0*
20,1,$1+$1,$4,$5,$6,$7,0*
20,1,$1+$1,$6,$7,$8,$9,0*
20,1,$1+$1,$8,$9,$2,$3,0*%
G04 Aperture macros list end*
%TA.AperFunction,Profile*%
%ADD10C,0.100000*%
%TD*%
%ADD11RoundRect,0.250000X0.350000X0.450000X-0.350000X0.450000X-0.350000X-0.450000X0.350000X-0.450000X0*%
%ADD12RoundRect,0.250000X-0.337500X-0.475000X0.337500X-0.475000X0.337500X0.475000X-0.337500X0.475000X0*%
%ADD13RoundRect,0.250000X0.325000X0.450000X-0.325000X0.450000X-0.325000X-0.450000X0.325000X-0.450000X0*%
%ADD14R,2.000000X5.500000*%
%ADD15C,3.200000*%
%ADD16R,2.400000X2.400000*%
%ADD17C,2.400000*%
%ADD18RoundRect,0.250000X-0.350000X-0.450000X0.350000X-0.450000X0.350000X0.450000X-0.350000X0.450000X0*%
%ADD19RoundRect,0.150000X-0.875000X-0.150000X0.875000X-0.150000X0.875000X0.150000X-0.875000X0.150000X0*%
%ADD20RoundRect,0.250000X0.337500X0.475000X-0.337500X0.475000X-0.337500X-0.475000X0.337500X-0.475000X0*%
%ADD21C,0.650000*%
%ADD22R,1.450000X0.600000*%
%ADD23R,1.450000X0.300000*%
%ADD24O,1.600000X1.000000*%
%ADD25O,2.100000X1.000000*%
%ADD26RoundRect,0.150000X-0.825000X-0.150000X0.825000X-0.150000X0.825000X0.150000X-0.825000X0.150000X0*%
%ADD27R,1.700000X1.700000*%
%ADD28O,1.700000X1.700000*%
%ADD29R,1.000000X3.100000*%
%ADD30RoundRect,0.150000X-0.675000X-0.150000X0.675000X-0.150000X0.675000X0.150000X-0.675000X0.150000X0*%
G04 APERTURE END LIST*
D10*
X100000000Y-130500000D02*
X161680000Y-130500000D01*
X100000000Y-100000000D02*
X100000000Y-130500000D01*
X161680000Y-130500000D02*
X161680000Y-100000000D01*
X100000000Y-100000000D02*
X161680000Y-100000000D01*
D11*
%TO.C,R6*%
X129524000Y-115570000D03*
X127524000Y-115570000D03*
%TD*%
%TO.C,R7*%
X129508000Y-105410000D03*
X127508000Y-105410000D03*
%TD*%
%TO.C,R5*%
X129524000Y-117856000D03*
X127524000Y-117856000D03*
%TD*%
D12*
%TO.C,C4*%
X127486500Y-110490000D03*
X129561500Y-110490000D03*
%TD*%
D13*
%TO.C,D2*%
X151088200Y-110878000D03*
X149038200Y-110878000D03*
%TD*%
D14*
%TO.C,Y1*%
X133604000Y-107800000D03*
X133604000Y-117300000D03*
%TD*%
D11*
%TO.C,R3*%
X112760000Y-118755000D03*
X110760000Y-118755000D03*
%TD*%
D15*
%TO.C,REF\u002A\u002A2*%
X156680000Y-128500000D03*
%TD*%
D16*
%TO.C,J2*%
X157532400Y-117139600D03*
D17*
X157532400Y-113639600D03*
X157532400Y-110139600D03*
%TD*%
D18*
%TO.C,R1*%
X110760000Y-114808000D03*
X112760000Y-114808000D03*
%TD*%
D19*
%TO.C,U1*%
X115350000Y-115055000D03*
X115350000Y-116325000D03*
X115350000Y-117595000D03*
X115350000Y-118865000D03*
X115350000Y-120135000D03*
X115350000Y-121405000D03*
X115350000Y-122675000D03*
X115350000Y-123945000D03*
X124650000Y-123945000D03*
X124650000Y-122675000D03*
X124650000Y-121405000D03*
X124650000Y-120135000D03*
X124650000Y-118865000D03*
X124650000Y-117595000D03*
X124650000Y-116325000D03*
X124650000Y-115055000D03*
%TD*%
D15*
%TO.C,REF\u002A\u002A3*%
X146520000Y-128500000D03*
%TD*%
D20*
%TO.C,C1*%
X110257500Y-103800000D03*
X108182500Y-103800000D03*
%TD*%
D21*
%TO.C,J1*%
X106740000Y-109610000D03*
X106740000Y-115390000D03*
D22*
X108185000Y-109250000D03*
X108185000Y-110050000D03*
D23*
X108185000Y-111250000D03*
X108185000Y-112250000D03*
X108185000Y-112750000D03*
X108185000Y-113750000D03*
D22*
X108185000Y-114950000D03*
X108185000Y-115750000D03*
X108185000Y-115750000D03*
X108185000Y-114950000D03*
D23*
X108185000Y-114250000D03*
X108185000Y-113250000D03*
X108185000Y-111750000D03*
X108185000Y-110750000D03*
D22*
X108185000Y-110050000D03*
X108185000Y-109250000D03*
D24*
X103090000Y-108180000D03*
D25*
X107270000Y-108180000D03*
X107270000Y-116820000D03*
D24*
X103090000Y-116820000D03*
%TD*%
D20*
%TO.C,C2*%
X110257500Y-101500000D03*
X108182500Y-101500000D03*
%TD*%
D13*
%TO.C,D1*%
X129533000Y-107950000D03*
X127483000Y-107950000D03*
%TD*%
D18*
%TO.C,R10*%
X152162000Y-120904000D03*
X154162000Y-120904000D03*
%TD*%
D20*
%TO.C,C5*%
X144141100Y-103682800D03*
X142066100Y-103682800D03*
%TD*%
D26*
%TO.C,U3*%
X138952200Y-106807000D03*
X138952200Y-108077000D03*
X138952200Y-109347000D03*
X138952200Y-110617000D03*
X138952200Y-111887000D03*
X138952200Y-113157000D03*
X138952200Y-114427000D03*
X138952200Y-115697000D03*
X143902200Y-115697000D03*
X143902200Y-114427000D03*
X143902200Y-113157000D03*
X143902200Y-111887000D03*
X143902200Y-110617000D03*
X143902200Y-109347000D03*
X143902200Y-108077000D03*
X143902200Y-106807000D03*
%TD*%
D11*
%TO.C,R2*%
X110220000Y-106072000D03*
X108220000Y-106072000D03*
%TD*%
D18*
%TO.C,R12*%
X152212800Y-123291600D03*
X154212800Y-123291600D03*
%TD*%
D27*
%TO.C,JP1*%
X147828000Y-101854000D03*
D28*
X147828000Y-104394000D03*
%TD*%
D15*
%TO.C,REF\u002A\u002A7*%
X105880000Y-128500000D03*
%TD*%
%TO.C,REF\u002A\u002A6*%
X116040000Y-128500000D03*
%TD*%
D27*
%TO.C,JP2*%
X151485600Y-101854000D03*
D28*
X151485600Y-104394000D03*
%TD*%
D15*
%TO.C,REF\u002A\u002A4*%
X136360000Y-128500000D03*
%TD*%
D12*
%TO.C,C3*%
X127486500Y-113010000D03*
X129561500Y-113010000D03*
%TD*%
D20*
%TO.C,C8*%
X134641500Y-122037000D03*
X132566500Y-122037000D03*
%TD*%
D11*
%TO.C,R4*%
X112800000Y-122545000D03*
X110800000Y-122545000D03*
%TD*%
D20*
%TO.C,C7*%
X134641500Y-103007000D03*
X132566500Y-103007000D03*
%TD*%
D29*
%TO.C,PS1*%
X114940000Y-111750000D03*
X117480000Y-111750000D03*
X122560000Y-111750000D03*
X122560000Y-102650000D03*
X114940000Y-102650000D03*
%TD*%
D18*
%TO.C,R11*%
X147234400Y-122174000D03*
X149234400Y-122174000D03*
%TD*%
%TO.C,R9*%
X149063200Y-113478000D03*
X151063200Y-113478000D03*
%TD*%
D12*
%TO.C,C6*%
X137798900Y-103682800D03*
X139873900Y-103682800D03*
%TD*%
D11*
%TO.C,R8*%
X151063200Y-108254800D03*
X149063200Y-108254800D03*
%TD*%
D12*
%TO.C,C9*%
X147218400Y-120040400D03*
X149293400Y-120040400D03*
%TD*%
D15*
%TO.C,REF\u002A\u002A5*%
X126200000Y-128500000D03*
%TD*%
D13*
%TO.C,D3*%
X151088200Y-116078000D03*
X149038200Y-116078000D03*
%TD*%
D30*
%TO.C,U2*%
X138853000Y-118592600D03*
X138853000Y-119862600D03*
X138853000Y-121132600D03*
X138853000Y-122402600D03*
X144103000Y-122402600D03*
X144103000Y-121132600D03*
X144103000Y-119862600D03*
X144103000Y-118592600D03*
%TD*%
D27*
%TO.C,JP3*%
X155143200Y-101854000D03*
D28*
X155143200Y-104394000D03*
%TD*%
M02*
