%TF.GenerationSoftware,KiCad,Pcbnew,6.0.11-2627ca5db0~126~ubuntu20.04.1*%
%TF.CreationDate,2024-08-15T22:57:33-05:00*%
%TF.ProjectId,,58585858-5858-4585-9858-585858585858,rev?*%
%TF.SameCoordinates,Original*%
%TF.FileFunction,Legend,Bot*%
%TF.FilePolarity,Positive*%
%FSLAX46Y46*%
G04 Gerber Fmt 4.6, Leading zero omitted, Abs format (unit mm)*
G04 Created by KiCad (PCBNEW 6.0.11-2627ca5db0~126~ubuntu20.04.1) date 2024-08-15 22:57:33*
%MOMM*%
%LPD*%
G01*
G04 APERTURE LIST*
%ADD10C,0.150000*%
%ADD11C,0.120000*%
G04 APERTURE END LIST*
D10*
X136840904Y-147805666D02*
X136364714Y-147805666D01*
X136936142Y-148091380D02*
X136602809Y-147091380D01*
X136269476Y-148091380D01*
X135745666Y-147091380D02*
X135650428Y-147091380D01*
X135555190Y-147139000D01*
X135507571Y-147186619D01*
X135459952Y-147281857D01*
X135412333Y-147472333D01*
X135412333Y-147710428D01*
X135459952Y-147900904D01*
X135507571Y-147996142D01*
X135555190Y-148043761D01*
X135650428Y-148091380D01*
X135745666Y-148091380D01*
X135840904Y-148043761D01*
X135888523Y-147996142D01*
X135936142Y-147900904D01*
X135983761Y-147710428D01*
X135983761Y-147472333D01*
X135936142Y-147281857D01*
X135888523Y-147186619D01*
X135840904Y-147139000D01*
X135745666Y-147091380D01*
X134793285Y-147091380D02*
X134698047Y-147091380D01*
X134602809Y-147139000D01*
X134555190Y-147186619D01*
X134507571Y-147281857D01*
X134459952Y-147472333D01*
X134459952Y-147710428D01*
X134507571Y-147900904D01*
X134555190Y-147996142D01*
X134602809Y-148043761D01*
X134698047Y-148091380D01*
X134793285Y-148091380D01*
X134888523Y-148043761D01*
X134936142Y-147996142D01*
X134983761Y-147900904D01*
X135031380Y-147710428D01*
X135031380Y-147472333D01*
X134983761Y-147281857D01*
X134936142Y-147186619D01*
X134888523Y-147139000D01*
X134793285Y-147091380D01*
X134269476Y-148186619D02*
X133507571Y-148186619D01*
X133269476Y-148091380D02*
X133269476Y-147091380D01*
X132840904Y-148091380D02*
X132840904Y-147567571D01*
X132888523Y-147472333D01*
X132983761Y-147424714D01*
X133126619Y-147424714D01*
X133221857Y-147472333D01*
X133269476Y-147519952D01*
X132364714Y-148091380D02*
X132364714Y-147424714D01*
X132364714Y-147091380D02*
X132412333Y-147139000D01*
X132364714Y-147186619D01*
X132317095Y-147139000D01*
X132364714Y-147091380D01*
X132364714Y-147186619D01*
X131745666Y-148091380D02*
X131840904Y-148043761D01*
X131888523Y-147948523D01*
X131888523Y-147091380D01*
X131221857Y-148091380D02*
X131317095Y-148043761D01*
X131364714Y-147948523D01*
X131364714Y-147091380D01*
X130412333Y-148091380D02*
X130412333Y-147567571D01*
X130459952Y-147472333D01*
X130555190Y-147424714D01*
X130745666Y-147424714D01*
X130840904Y-147472333D01*
X130412333Y-148043761D02*
X130507571Y-148091380D01*
X130745666Y-148091380D01*
X130840904Y-148043761D01*
X130888523Y-147948523D01*
X130888523Y-147853285D01*
X130840904Y-147758047D01*
X130745666Y-147710428D01*
X130507571Y-147710428D01*
X130412333Y-147662809D01*
X129936142Y-148091380D02*
X129936142Y-147091380D01*
X129936142Y-147472333D02*
X129840904Y-147424714D01*
X129650428Y-147424714D01*
X129555190Y-147472333D01*
X129507571Y-147519952D01*
X129459952Y-147615190D01*
X129459952Y-147900904D01*
X129507571Y-147996142D01*
X129555190Y-148043761D01*
X129650428Y-148091380D01*
X129840904Y-148091380D01*
X129936142Y-148043761D01*
X128650428Y-148043761D02*
X128745666Y-148091380D01*
X128936142Y-148091380D01*
X129031380Y-148043761D01*
X129079000Y-147948523D01*
X129079000Y-147567571D01*
X129031380Y-147472333D01*
X128936142Y-147424714D01*
X128745666Y-147424714D01*
X128650428Y-147472333D01*
X128602809Y-147567571D01*
X128602809Y-147662809D01*
X129079000Y-147758047D01*
X128031380Y-148091380D02*
X128126619Y-148043761D01*
X128174238Y-147948523D01*
X128174238Y-147091380D01*
X127650428Y-147424714D02*
X127650428Y-148424714D01*
X127650428Y-147472333D02*
X127555190Y-147424714D01*
X127364714Y-147424714D01*
X127269476Y-147472333D01*
X127221857Y-147519952D01*
X127174238Y-147615190D01*
X127174238Y-147900904D01*
X127221857Y-147996142D01*
X127269476Y-148043761D01*
X127364714Y-148091380D01*
X127555190Y-148091380D01*
X127650428Y-148043761D01*
X126602809Y-148091380D02*
X126698047Y-148043761D01*
X126745666Y-147948523D01*
X126745666Y-147091380D01*
X125793285Y-148091380D02*
X125793285Y-147567571D01*
X125840904Y-147472333D01*
X125936142Y-147424714D01*
X126126619Y-147424714D01*
X126221857Y-147472333D01*
X125793285Y-148043761D02*
X125888523Y-148091380D01*
X126126619Y-148091380D01*
X126221857Y-148043761D01*
X126269476Y-147948523D01*
X126269476Y-147853285D01*
X126221857Y-147758047D01*
X126126619Y-147710428D01*
X125888523Y-147710428D01*
X125793285Y-147662809D01*
X125459952Y-147424714D02*
X125079000Y-147424714D01*
X125317095Y-147091380D02*
X125317095Y-147948523D01*
X125269476Y-148043761D01*
X125174238Y-148091380D01*
X125079000Y-148091380D01*
X124364714Y-148043761D02*
X124459952Y-148091380D01*
X124650428Y-148091380D01*
X124745666Y-148043761D01*
X124793285Y-147948523D01*
X124793285Y-147567571D01*
X124745666Y-147472333D01*
X124650428Y-147424714D01*
X124459952Y-147424714D01*
X124364714Y-147472333D01*
X124317095Y-147567571D01*
X124317095Y-147662809D01*
X124793285Y-147758047D01*
X93840904Y-147805666D02*
X93364714Y-147805666D01*
X93936142Y-148091380D02*
X93602809Y-147091380D01*
X93269476Y-148091380D01*
X92745666Y-147091380D02*
X92650428Y-147091380D01*
X92555190Y-147139000D01*
X92507571Y-147186619D01*
X92459952Y-147281857D01*
X92412333Y-147472333D01*
X92412333Y-147710428D01*
X92459952Y-147900904D01*
X92507571Y-147996142D01*
X92555190Y-148043761D01*
X92650428Y-148091380D01*
X92745666Y-148091380D01*
X92840904Y-148043761D01*
X92888523Y-147996142D01*
X92936142Y-147900904D01*
X92983761Y-147710428D01*
X92983761Y-147472333D01*
X92936142Y-147281857D01*
X92888523Y-147186619D01*
X92840904Y-147139000D01*
X92745666Y-147091380D01*
X91793285Y-147091380D02*
X91698047Y-147091380D01*
X91602809Y-147139000D01*
X91555190Y-147186619D01*
X91507571Y-147281857D01*
X91459952Y-147472333D01*
X91459952Y-147710428D01*
X91507571Y-147900904D01*
X91555190Y-147996142D01*
X91602809Y-148043761D01*
X91698047Y-148091380D01*
X91793285Y-148091380D01*
X91888523Y-148043761D01*
X91936142Y-147996142D01*
X91983761Y-147900904D01*
X92031380Y-147710428D01*
X92031380Y-147472333D01*
X91983761Y-147281857D01*
X91936142Y-147186619D01*
X91888523Y-147139000D01*
X91793285Y-147091380D01*
X91269476Y-148186619D02*
X90507571Y-148186619D01*
X90269476Y-148091380D02*
X90269476Y-147091380D01*
X89840904Y-148091380D02*
X89840904Y-147567571D01*
X89888523Y-147472333D01*
X89983761Y-147424714D01*
X90126619Y-147424714D01*
X90221857Y-147472333D01*
X90269476Y-147519952D01*
X89364714Y-148091380D02*
X89364714Y-147424714D01*
X89364714Y-147091380D02*
X89412333Y-147139000D01*
X89364714Y-147186619D01*
X89317095Y-147139000D01*
X89364714Y-147091380D01*
X89364714Y-147186619D01*
X88745666Y-148091380D02*
X88840904Y-148043761D01*
X88888523Y-147948523D01*
X88888523Y-147091380D01*
X88221857Y-148091380D02*
X88317095Y-148043761D01*
X88364714Y-147948523D01*
X88364714Y-147091380D01*
X87412333Y-148091380D02*
X87412333Y-147567571D01*
X87459952Y-147472333D01*
X87555190Y-147424714D01*
X87745666Y-147424714D01*
X87840904Y-147472333D01*
X87412333Y-148043761D02*
X87507571Y-148091380D01*
X87745666Y-148091380D01*
X87840904Y-148043761D01*
X87888523Y-147948523D01*
X87888523Y-147853285D01*
X87840904Y-147758047D01*
X87745666Y-147710428D01*
X87507571Y-147710428D01*
X87412333Y-147662809D01*
X86936142Y-148091380D02*
X86936142Y-147091380D01*
X86936142Y-147472333D02*
X86840904Y-147424714D01*
X86650428Y-147424714D01*
X86555190Y-147472333D01*
X86507571Y-147519952D01*
X86459952Y-147615190D01*
X86459952Y-147900904D01*
X86507571Y-147996142D01*
X86555190Y-148043761D01*
X86650428Y-148091380D01*
X86840904Y-148091380D01*
X86936142Y-148043761D01*
X85650428Y-148043761D02*
X85745666Y-148091380D01*
X85936142Y-148091380D01*
X86031380Y-148043761D01*
X86079000Y-147948523D01*
X86079000Y-147567571D01*
X86031380Y-147472333D01*
X85936142Y-147424714D01*
X85745666Y-147424714D01*
X85650428Y-147472333D01*
X85602809Y-147567571D01*
X85602809Y-147662809D01*
X86079000Y-147758047D01*
X85031380Y-148091380D02*
X85126619Y-148043761D01*
X85174238Y-147948523D01*
X85174238Y-147091380D01*
X84650428Y-147424714D02*
X84650428Y-148424714D01*
X84650428Y-147472333D02*
X84555190Y-147424714D01*
X84364714Y-147424714D01*
X84269476Y-147472333D01*
X84221857Y-147519952D01*
X84174238Y-147615190D01*
X84174238Y-147900904D01*
X84221857Y-147996142D01*
X84269476Y-148043761D01*
X84364714Y-148091380D01*
X84555190Y-148091380D01*
X84650428Y-148043761D01*
X83602809Y-148091380D02*
X83698047Y-148043761D01*
X83745666Y-147948523D01*
X83745666Y-147091380D01*
X82793285Y-148091380D02*
X82793285Y-147567571D01*
X82840904Y-147472333D01*
X82936142Y-147424714D01*
X83126619Y-147424714D01*
X83221857Y-147472333D01*
X82793285Y-148043761D02*
X82888523Y-148091380D01*
X83126619Y-148091380D01*
X83221857Y-148043761D01*
X83269476Y-147948523D01*
X83269476Y-147853285D01*
X83221857Y-147758047D01*
X83126619Y-147710428D01*
X82888523Y-147710428D01*
X82793285Y-147662809D01*
X82459952Y-147424714D02*
X82079000Y-147424714D01*
X82317095Y-147091380D02*
X82317095Y-147948523D01*
X82269476Y-148043761D01*
X82174238Y-148091380D01*
X82079000Y-148091380D01*
X81364714Y-148043761D02*
X81459952Y-148091380D01*
X81650428Y-148091380D01*
X81745666Y-148043761D01*
X81793285Y-147948523D01*
X81793285Y-147567571D01*
X81745666Y-147472333D01*
X81650428Y-147424714D01*
X81459952Y-147424714D01*
X81364714Y-147472333D01*
X81317095Y-147567571D01*
X81317095Y-147662809D01*
X81793285Y-147758047D01*
X136840904Y-139805666D02*
X136364714Y-139805666D01*
X136936142Y-140091380D02*
X136602809Y-139091380D01*
X136269476Y-140091380D01*
X135745666Y-139091380D02*
X135650428Y-139091380D01*
X135555190Y-139139000D01*
X135507571Y-139186619D01*
X135459952Y-139281857D01*
X135412333Y-139472333D01*
X135412333Y-139710428D01*
X135459952Y-139900904D01*
X135507571Y-139996142D01*
X135555190Y-140043761D01*
X135650428Y-140091380D01*
X135745666Y-140091380D01*
X135840904Y-140043761D01*
X135888523Y-139996142D01*
X135936142Y-139900904D01*
X135983761Y-139710428D01*
X135983761Y-139472333D01*
X135936142Y-139281857D01*
X135888523Y-139186619D01*
X135840904Y-139139000D01*
X135745666Y-139091380D01*
X134793285Y-139091380D02*
X134698047Y-139091380D01*
X134602809Y-139139000D01*
X134555190Y-139186619D01*
X134507571Y-139281857D01*
X134459952Y-139472333D01*
X134459952Y-139710428D01*
X134507571Y-139900904D01*
X134555190Y-139996142D01*
X134602809Y-140043761D01*
X134698047Y-140091380D01*
X134793285Y-140091380D01*
X134888523Y-140043761D01*
X134936142Y-139996142D01*
X134983761Y-139900904D01*
X135031380Y-139710428D01*
X135031380Y-139472333D01*
X134983761Y-139281857D01*
X134936142Y-139186619D01*
X134888523Y-139139000D01*
X134793285Y-139091380D01*
X134269476Y-140186619D02*
X133507571Y-140186619D01*
X133269476Y-140091380D02*
X133269476Y-139091380D01*
X132840904Y-140091380D02*
X132840904Y-139567571D01*
X132888523Y-139472333D01*
X132983761Y-139424714D01*
X133126619Y-139424714D01*
X133221857Y-139472333D01*
X133269476Y-139519952D01*
X132364714Y-140091380D02*
X132364714Y-139424714D01*
X132364714Y-139091380D02*
X132412333Y-139139000D01*
X132364714Y-139186619D01*
X132317095Y-139139000D01*
X132364714Y-139091380D01*
X132364714Y-139186619D01*
X131745666Y-140091380D02*
X131840904Y-140043761D01*
X131888523Y-139948523D01*
X131888523Y-139091380D01*
X131221857Y-140091380D02*
X131317095Y-140043761D01*
X131364714Y-139948523D01*
X131364714Y-139091380D01*
X130412333Y-140091380D02*
X130412333Y-139567571D01*
X130459952Y-139472333D01*
X130555190Y-139424714D01*
X130745666Y-139424714D01*
X130840904Y-139472333D01*
X130412333Y-140043761D02*
X130507571Y-140091380D01*
X130745666Y-140091380D01*
X130840904Y-140043761D01*
X130888523Y-139948523D01*
X130888523Y-139853285D01*
X130840904Y-139758047D01*
X130745666Y-139710428D01*
X130507571Y-139710428D01*
X130412333Y-139662809D01*
X129936142Y-140091380D02*
X129936142Y-139091380D01*
X129936142Y-139472333D02*
X129840904Y-139424714D01*
X129650428Y-139424714D01*
X129555190Y-139472333D01*
X129507571Y-139519952D01*
X129459952Y-139615190D01*
X129459952Y-139900904D01*
X129507571Y-139996142D01*
X129555190Y-140043761D01*
X129650428Y-140091380D01*
X129840904Y-140091380D01*
X129936142Y-140043761D01*
X128650428Y-140043761D02*
X128745666Y-140091380D01*
X128936142Y-140091380D01*
X129031380Y-140043761D01*
X129079000Y-139948523D01*
X129079000Y-139567571D01*
X129031380Y-139472333D01*
X128936142Y-139424714D01*
X128745666Y-139424714D01*
X128650428Y-139472333D01*
X128602809Y-139567571D01*
X128602809Y-139662809D01*
X129079000Y-139758047D01*
X128031380Y-140091380D02*
X128126619Y-140043761D01*
X128174238Y-139948523D01*
X128174238Y-139091380D01*
X127650428Y-139424714D02*
X127650428Y-140424714D01*
X127650428Y-139472333D02*
X127555190Y-139424714D01*
X127364714Y-139424714D01*
X127269476Y-139472333D01*
X127221857Y-139519952D01*
X127174238Y-139615190D01*
X127174238Y-139900904D01*
X127221857Y-139996142D01*
X127269476Y-140043761D01*
X127364714Y-140091380D01*
X127555190Y-140091380D01*
X127650428Y-140043761D01*
X126602809Y-140091380D02*
X126698047Y-140043761D01*
X126745666Y-139948523D01*
X126745666Y-139091380D01*
X125793285Y-140091380D02*
X125793285Y-139567571D01*
X125840904Y-139472333D01*
X125936142Y-139424714D01*
X126126619Y-139424714D01*
X126221857Y-139472333D01*
X125793285Y-140043761D02*
X125888523Y-140091380D01*
X126126619Y-140091380D01*
X126221857Y-140043761D01*
X126269476Y-139948523D01*
X126269476Y-139853285D01*
X126221857Y-139758047D01*
X126126619Y-139710428D01*
X125888523Y-139710428D01*
X125793285Y-139662809D01*
X125459952Y-139424714D02*
X125079000Y-139424714D01*
X125317095Y-139091380D02*
X125317095Y-139948523D01*
X125269476Y-140043761D01*
X125174238Y-140091380D01*
X125079000Y-140091380D01*
X124364714Y-140043761D02*
X124459952Y-140091380D01*
X124650428Y-140091380D01*
X124745666Y-140043761D01*
X124793285Y-139948523D01*
X124793285Y-139567571D01*
X124745666Y-139472333D01*
X124650428Y-139424714D01*
X124459952Y-139424714D01*
X124364714Y-139472333D01*
X124317095Y-139567571D01*
X124317095Y-139662809D01*
X124793285Y-139758047D01*
X93840904Y-139805666D02*
X93364714Y-139805666D01*
X93936142Y-140091380D02*
X93602809Y-139091380D01*
X93269476Y-140091380D01*
X92745666Y-139091380D02*
X92650428Y-139091380D01*
X92555190Y-139139000D01*
X92507571Y-139186619D01*
X92459952Y-139281857D01*
X92412333Y-139472333D01*
X92412333Y-139710428D01*
X92459952Y-139900904D01*
X92507571Y-139996142D01*
X92555190Y-140043761D01*
X92650428Y-140091380D01*
X92745666Y-140091380D01*
X92840904Y-140043761D01*
X92888523Y-139996142D01*
X92936142Y-139900904D01*
X92983761Y-139710428D01*
X92983761Y-139472333D01*
X92936142Y-139281857D01*
X92888523Y-139186619D01*
X92840904Y-139139000D01*
X92745666Y-139091380D01*
X91793285Y-139091380D02*
X91698047Y-139091380D01*
X91602809Y-139139000D01*
X91555190Y-139186619D01*
X91507571Y-139281857D01*
X91459952Y-139472333D01*
X91459952Y-139710428D01*
X91507571Y-139900904D01*
X91555190Y-139996142D01*
X91602809Y-140043761D01*
X91698047Y-140091380D01*
X91793285Y-140091380D01*
X91888523Y-140043761D01*
X91936142Y-139996142D01*
X91983761Y-139900904D01*
X92031380Y-139710428D01*
X92031380Y-139472333D01*
X91983761Y-139281857D01*
X91936142Y-139186619D01*
X91888523Y-139139000D01*
X91793285Y-139091380D01*
X91269476Y-140186619D02*
X90507571Y-140186619D01*
X90269476Y-140091380D02*
X90269476Y-139091380D01*
X89840904Y-140091380D02*
X89840904Y-139567571D01*
X89888523Y-139472333D01*
X89983761Y-139424714D01*
X90126619Y-139424714D01*
X90221857Y-139472333D01*
X90269476Y-139519952D01*
X89364714Y-140091380D02*
X89364714Y-139424714D01*
X89364714Y-139091380D02*
X89412333Y-139139000D01*
X89364714Y-139186619D01*
X89317095Y-139139000D01*
X89364714Y-139091380D01*
X89364714Y-139186619D01*
X88745666Y-140091380D02*
X88840904Y-140043761D01*
X88888523Y-139948523D01*
X88888523Y-139091380D01*
X88221857Y-140091380D02*
X88317095Y-140043761D01*
X88364714Y-139948523D01*
X88364714Y-139091380D01*
X87412333Y-140091380D02*
X87412333Y-139567571D01*
X87459952Y-139472333D01*
X87555190Y-139424714D01*
X87745666Y-139424714D01*
X87840904Y-139472333D01*
X87412333Y-140043761D02*
X87507571Y-140091380D01*
X87745666Y-140091380D01*
X87840904Y-140043761D01*
X87888523Y-139948523D01*
X87888523Y-139853285D01*
X87840904Y-139758047D01*
X87745666Y-139710428D01*
X87507571Y-139710428D01*
X87412333Y-139662809D01*
X86936142Y-140091380D02*
X86936142Y-139091380D01*
X86936142Y-139472333D02*
X86840904Y-139424714D01*
X86650428Y-139424714D01*
X86555190Y-139472333D01*
X86507571Y-139519952D01*
X86459952Y-139615190D01*
X86459952Y-139900904D01*
X86507571Y-139996142D01*
X86555190Y-140043761D01*
X86650428Y-140091380D01*
X86840904Y-140091380D01*
X86936142Y-140043761D01*
X85650428Y-140043761D02*
X85745666Y-140091380D01*
X85936142Y-140091380D01*
X86031380Y-140043761D01*
X86079000Y-139948523D01*
X86079000Y-139567571D01*
X86031380Y-139472333D01*
X85936142Y-139424714D01*
X85745666Y-139424714D01*
X85650428Y-139472333D01*
X85602809Y-139567571D01*
X85602809Y-139662809D01*
X86079000Y-139758047D01*
X85031380Y-140091380D02*
X85126619Y-140043761D01*
X85174238Y-139948523D01*
X85174238Y-139091380D01*
X84650428Y-139424714D02*
X84650428Y-140424714D01*
X84650428Y-139472333D02*
X84555190Y-139424714D01*
X84364714Y-139424714D01*
X84269476Y-139472333D01*
X84221857Y-139519952D01*
X84174238Y-139615190D01*
X84174238Y-139900904D01*
X84221857Y-139996142D01*
X84269476Y-140043761D01*
X84364714Y-140091380D01*
X84555190Y-140091380D01*
X84650428Y-140043761D01*
X83602809Y-140091380D02*
X83698047Y-140043761D01*
X83745666Y-139948523D01*
X83745666Y-139091380D01*
X82793285Y-140091380D02*
X82793285Y-139567571D01*
X82840904Y-139472333D01*
X82936142Y-139424714D01*
X83126619Y-139424714D01*
X83221857Y-139472333D01*
X82793285Y-140043761D02*
X82888523Y-140091380D01*
X83126619Y-140091380D01*
X83221857Y-140043761D01*
X83269476Y-139948523D01*
X83269476Y-139853285D01*
X83221857Y-139758047D01*
X83126619Y-139710428D01*
X82888523Y-139710428D01*
X82793285Y-139662809D01*
X82459952Y-139424714D02*
X82079000Y-139424714D01*
X82317095Y-139091380D02*
X82317095Y-139948523D01*
X82269476Y-140043761D01*
X82174238Y-140091380D01*
X82079000Y-140091380D01*
X81364714Y-140043761D02*
X81459952Y-140091380D01*
X81650428Y-140091380D01*
X81745666Y-140043761D01*
X81793285Y-139948523D01*
X81793285Y-139567571D01*
X81745666Y-139472333D01*
X81650428Y-139424714D01*
X81459952Y-139424714D01*
X81364714Y-139472333D01*
X81317095Y-139567571D01*
X81317095Y-139662809D01*
X81793285Y-139758047D01*
X136840904Y-131805666D02*
X136364714Y-131805666D01*
X136936142Y-132091380D02*
X136602809Y-131091380D01*
X136269476Y-132091380D01*
X135745666Y-131091380D02*
X135650428Y-131091380D01*
X135555190Y-131139000D01*
X135507571Y-131186619D01*
X135459952Y-131281857D01*
X135412333Y-131472333D01*
X135412333Y-131710428D01*
X135459952Y-131900904D01*
X135507571Y-131996142D01*
X135555190Y-132043761D01*
X135650428Y-132091380D01*
X135745666Y-132091380D01*
X135840904Y-132043761D01*
X135888523Y-131996142D01*
X135936142Y-131900904D01*
X135983761Y-131710428D01*
X135983761Y-131472333D01*
X135936142Y-131281857D01*
X135888523Y-131186619D01*
X135840904Y-131139000D01*
X135745666Y-131091380D01*
X134793285Y-131091380D02*
X134698047Y-131091380D01*
X134602809Y-131139000D01*
X134555190Y-131186619D01*
X134507571Y-131281857D01*
X134459952Y-131472333D01*
X134459952Y-131710428D01*
X134507571Y-131900904D01*
X134555190Y-131996142D01*
X134602809Y-132043761D01*
X134698047Y-132091380D01*
X134793285Y-132091380D01*
X134888523Y-132043761D01*
X134936142Y-131996142D01*
X134983761Y-131900904D01*
X135031380Y-131710428D01*
X135031380Y-131472333D01*
X134983761Y-131281857D01*
X134936142Y-131186619D01*
X134888523Y-131139000D01*
X134793285Y-131091380D01*
X134269476Y-132186619D02*
X133507571Y-132186619D01*
X133269476Y-132091380D02*
X133269476Y-131091380D01*
X132840904Y-132091380D02*
X132840904Y-131567571D01*
X132888523Y-131472333D01*
X132983761Y-131424714D01*
X133126619Y-131424714D01*
X133221857Y-131472333D01*
X133269476Y-131519952D01*
X132364714Y-132091380D02*
X132364714Y-131424714D01*
X132364714Y-131091380D02*
X132412333Y-131139000D01*
X132364714Y-131186619D01*
X132317095Y-131139000D01*
X132364714Y-131091380D01*
X132364714Y-131186619D01*
X131745666Y-132091380D02*
X131840904Y-132043761D01*
X131888523Y-131948523D01*
X131888523Y-131091380D01*
X131221857Y-132091380D02*
X131317095Y-132043761D01*
X131364714Y-131948523D01*
X131364714Y-131091380D01*
X130412333Y-132091380D02*
X130412333Y-131567571D01*
X130459952Y-131472333D01*
X130555190Y-131424714D01*
X130745666Y-131424714D01*
X130840904Y-131472333D01*
X130412333Y-132043761D02*
X130507571Y-132091380D01*
X130745666Y-132091380D01*
X130840904Y-132043761D01*
X130888523Y-131948523D01*
X130888523Y-131853285D01*
X130840904Y-131758047D01*
X130745666Y-131710428D01*
X130507571Y-131710428D01*
X130412333Y-131662809D01*
X129936142Y-132091380D02*
X129936142Y-131091380D01*
X129936142Y-131472333D02*
X129840904Y-131424714D01*
X129650428Y-131424714D01*
X129555190Y-131472333D01*
X129507571Y-131519952D01*
X129459952Y-131615190D01*
X129459952Y-131900904D01*
X129507571Y-131996142D01*
X129555190Y-132043761D01*
X129650428Y-132091380D01*
X129840904Y-132091380D01*
X129936142Y-132043761D01*
X128650428Y-132043761D02*
X128745666Y-132091380D01*
X128936142Y-132091380D01*
X129031380Y-132043761D01*
X129079000Y-131948523D01*
X129079000Y-131567571D01*
X129031380Y-131472333D01*
X128936142Y-131424714D01*
X128745666Y-131424714D01*
X128650428Y-131472333D01*
X128602809Y-131567571D01*
X128602809Y-131662809D01*
X129079000Y-131758047D01*
X128031380Y-132091380D02*
X128126619Y-132043761D01*
X128174238Y-131948523D01*
X128174238Y-131091380D01*
X127650428Y-131424714D02*
X127650428Y-132424714D01*
X127650428Y-131472333D02*
X127555190Y-131424714D01*
X127364714Y-131424714D01*
X127269476Y-131472333D01*
X127221857Y-131519952D01*
X127174238Y-131615190D01*
X127174238Y-131900904D01*
X127221857Y-131996142D01*
X127269476Y-132043761D01*
X127364714Y-132091380D01*
X127555190Y-132091380D01*
X127650428Y-132043761D01*
X126602809Y-132091380D02*
X126698047Y-132043761D01*
X126745666Y-131948523D01*
X126745666Y-131091380D01*
X125793285Y-132091380D02*
X125793285Y-131567571D01*
X125840904Y-131472333D01*
X125936142Y-131424714D01*
X126126619Y-131424714D01*
X126221857Y-131472333D01*
X125793285Y-132043761D02*
X125888523Y-132091380D01*
X126126619Y-132091380D01*
X126221857Y-132043761D01*
X126269476Y-131948523D01*
X126269476Y-131853285D01*
X126221857Y-131758047D01*
X126126619Y-131710428D01*
X125888523Y-131710428D01*
X125793285Y-131662809D01*
X125459952Y-131424714D02*
X125079000Y-131424714D01*
X125317095Y-131091380D02*
X125317095Y-131948523D01*
X125269476Y-132043761D01*
X125174238Y-132091380D01*
X125079000Y-132091380D01*
X124364714Y-132043761D02*
X124459952Y-132091380D01*
X124650428Y-132091380D01*
X124745666Y-132043761D01*
X124793285Y-131948523D01*
X124793285Y-131567571D01*
X124745666Y-131472333D01*
X124650428Y-131424714D01*
X124459952Y-131424714D01*
X124364714Y-131472333D01*
X124317095Y-131567571D01*
X124317095Y-131662809D01*
X124793285Y-131758047D01*
X93840904Y-131805666D02*
X93364714Y-131805666D01*
X93936142Y-132091380D02*
X93602809Y-131091380D01*
X93269476Y-132091380D01*
X92745666Y-131091380D02*
X92650428Y-131091380D01*
X92555190Y-131139000D01*
X92507571Y-131186619D01*
X92459952Y-131281857D01*
X92412333Y-131472333D01*
X92412333Y-131710428D01*
X92459952Y-131900904D01*
X92507571Y-131996142D01*
X92555190Y-132043761D01*
X92650428Y-132091380D01*
X92745666Y-132091380D01*
X92840904Y-132043761D01*
X92888523Y-131996142D01*
X92936142Y-131900904D01*
X92983761Y-131710428D01*
X92983761Y-131472333D01*
X92936142Y-131281857D01*
X92888523Y-131186619D01*
X92840904Y-131139000D01*
X92745666Y-131091380D01*
X91793285Y-131091380D02*
X91698047Y-131091380D01*
X91602809Y-131139000D01*
X91555190Y-131186619D01*
X91507571Y-131281857D01*
X91459952Y-131472333D01*
X91459952Y-131710428D01*
X91507571Y-131900904D01*
X91555190Y-131996142D01*
X91602809Y-132043761D01*
X91698047Y-132091380D01*
X91793285Y-132091380D01*
X91888523Y-132043761D01*
X91936142Y-131996142D01*
X91983761Y-131900904D01*
X92031380Y-131710428D01*
X92031380Y-131472333D01*
X91983761Y-131281857D01*
X91936142Y-131186619D01*
X91888523Y-131139000D01*
X91793285Y-131091380D01*
X91269476Y-132186619D02*
X90507571Y-132186619D01*
X90269476Y-132091380D02*
X90269476Y-131091380D01*
X89840904Y-132091380D02*
X89840904Y-131567571D01*
X89888523Y-131472333D01*
X89983761Y-131424714D01*
X90126619Y-131424714D01*
X90221857Y-131472333D01*
X90269476Y-131519952D01*
X89364714Y-132091380D02*
X89364714Y-131424714D01*
X89364714Y-131091380D02*
X89412333Y-131139000D01*
X89364714Y-131186619D01*
X89317095Y-131139000D01*
X89364714Y-131091380D01*
X89364714Y-131186619D01*
X88745666Y-132091380D02*
X88840904Y-132043761D01*
X88888523Y-131948523D01*
X88888523Y-131091380D01*
X88221857Y-132091380D02*
X88317095Y-132043761D01*
X88364714Y-131948523D01*
X88364714Y-131091380D01*
X87412333Y-132091380D02*
X87412333Y-131567571D01*
X87459952Y-131472333D01*
X87555190Y-131424714D01*
X87745666Y-131424714D01*
X87840904Y-131472333D01*
X87412333Y-132043761D02*
X87507571Y-132091380D01*
X87745666Y-132091380D01*
X87840904Y-132043761D01*
X87888523Y-131948523D01*
X87888523Y-131853285D01*
X87840904Y-131758047D01*
X87745666Y-131710428D01*
X87507571Y-131710428D01*
X87412333Y-131662809D01*
X86936142Y-132091380D02*
X86936142Y-131091380D01*
X86936142Y-131472333D02*
X86840904Y-131424714D01*
X86650428Y-131424714D01*
X86555190Y-131472333D01*
X86507571Y-131519952D01*
X86459952Y-131615190D01*
X86459952Y-131900904D01*
X86507571Y-131996142D01*
X86555190Y-132043761D01*
X86650428Y-132091380D01*
X86840904Y-132091380D01*
X86936142Y-132043761D01*
X85650428Y-132043761D02*
X85745666Y-132091380D01*
X85936142Y-132091380D01*
X86031380Y-132043761D01*
X86079000Y-131948523D01*
X86079000Y-131567571D01*
X86031380Y-131472333D01*
X85936142Y-131424714D01*
X85745666Y-131424714D01*
X85650428Y-131472333D01*
X85602809Y-131567571D01*
X85602809Y-131662809D01*
X86079000Y-131758047D01*
X85031380Y-132091380D02*
X85126619Y-132043761D01*
X85174238Y-131948523D01*
X85174238Y-131091380D01*
X84650428Y-131424714D02*
X84650428Y-132424714D01*
X84650428Y-131472333D02*
X84555190Y-131424714D01*
X84364714Y-131424714D01*
X84269476Y-131472333D01*
X84221857Y-131519952D01*
X84174238Y-131615190D01*
X84174238Y-131900904D01*
X84221857Y-131996142D01*
X84269476Y-132043761D01*
X84364714Y-132091380D01*
X84555190Y-132091380D01*
X84650428Y-132043761D01*
X83602809Y-132091380D02*
X83698047Y-132043761D01*
X83745666Y-131948523D01*
X83745666Y-131091380D01*
X82793285Y-132091380D02*
X82793285Y-131567571D01*
X82840904Y-131472333D01*
X82936142Y-131424714D01*
X83126619Y-131424714D01*
X83221857Y-131472333D01*
X82793285Y-132043761D02*
X82888523Y-132091380D01*
X83126619Y-132091380D01*
X83221857Y-132043761D01*
X83269476Y-131948523D01*
X83269476Y-131853285D01*
X83221857Y-131758047D01*
X83126619Y-131710428D01*
X82888523Y-131710428D01*
X82793285Y-131662809D01*
X82459952Y-131424714D02*
X82079000Y-131424714D01*
X82317095Y-131091380D02*
X82317095Y-131948523D01*
X82269476Y-132043761D01*
X82174238Y-132091380D01*
X82079000Y-132091380D01*
X81364714Y-132043761D02*
X81459952Y-132091380D01*
X81650428Y-132091380D01*
X81745666Y-132043761D01*
X81793285Y-131948523D01*
X81793285Y-131567571D01*
X81745666Y-131472333D01*
X81650428Y-131424714D01*
X81459952Y-131424714D01*
X81364714Y-131472333D01*
X81317095Y-131567571D01*
X81317095Y-131662809D01*
X81793285Y-131758047D01*
X136840904Y-123805666D02*
X136364714Y-123805666D01*
X136936142Y-124091380D02*
X136602809Y-123091380D01*
X136269476Y-124091380D01*
X135745666Y-123091380D02*
X135650428Y-123091380D01*
X135555190Y-123139000D01*
X135507571Y-123186619D01*
X135459952Y-123281857D01*
X135412333Y-123472333D01*
X135412333Y-123710428D01*
X135459952Y-123900904D01*
X135507571Y-123996142D01*
X135555190Y-124043761D01*
X135650428Y-124091380D01*
X135745666Y-124091380D01*
X135840904Y-124043761D01*
X135888523Y-123996142D01*
X135936142Y-123900904D01*
X135983761Y-123710428D01*
X135983761Y-123472333D01*
X135936142Y-123281857D01*
X135888523Y-123186619D01*
X135840904Y-123139000D01*
X135745666Y-123091380D01*
X134793285Y-123091380D02*
X134698047Y-123091380D01*
X134602809Y-123139000D01*
X134555190Y-123186619D01*
X134507571Y-123281857D01*
X134459952Y-123472333D01*
X134459952Y-123710428D01*
X134507571Y-123900904D01*
X134555190Y-123996142D01*
X134602809Y-124043761D01*
X134698047Y-124091380D01*
X134793285Y-124091380D01*
X134888523Y-124043761D01*
X134936142Y-123996142D01*
X134983761Y-123900904D01*
X135031380Y-123710428D01*
X135031380Y-123472333D01*
X134983761Y-123281857D01*
X134936142Y-123186619D01*
X134888523Y-123139000D01*
X134793285Y-123091380D01*
X134269476Y-124186619D02*
X133507571Y-124186619D01*
X133269476Y-124091380D02*
X133269476Y-123091380D01*
X132840904Y-124091380D02*
X132840904Y-123567571D01*
X132888523Y-123472333D01*
X132983761Y-123424714D01*
X133126619Y-123424714D01*
X133221857Y-123472333D01*
X133269476Y-123519952D01*
X132364714Y-124091380D02*
X132364714Y-123424714D01*
X132364714Y-123091380D02*
X132412333Y-123139000D01*
X132364714Y-123186619D01*
X132317095Y-123139000D01*
X132364714Y-123091380D01*
X132364714Y-123186619D01*
X131745666Y-124091380D02*
X131840904Y-124043761D01*
X131888523Y-123948523D01*
X131888523Y-123091380D01*
X131221857Y-124091380D02*
X131317095Y-124043761D01*
X131364714Y-123948523D01*
X131364714Y-123091380D01*
X130412333Y-124091380D02*
X130412333Y-123567571D01*
X130459952Y-123472333D01*
X130555190Y-123424714D01*
X130745666Y-123424714D01*
X130840904Y-123472333D01*
X130412333Y-124043761D02*
X130507571Y-124091380D01*
X130745666Y-124091380D01*
X130840904Y-124043761D01*
X130888523Y-123948523D01*
X130888523Y-123853285D01*
X130840904Y-123758047D01*
X130745666Y-123710428D01*
X130507571Y-123710428D01*
X130412333Y-123662809D01*
X129936142Y-124091380D02*
X129936142Y-123091380D01*
X129936142Y-123472333D02*
X129840904Y-123424714D01*
X129650428Y-123424714D01*
X129555190Y-123472333D01*
X129507571Y-123519952D01*
X129459952Y-123615190D01*
X129459952Y-123900904D01*
X129507571Y-123996142D01*
X129555190Y-124043761D01*
X129650428Y-124091380D01*
X129840904Y-124091380D01*
X129936142Y-124043761D01*
X128650428Y-124043761D02*
X128745666Y-124091380D01*
X128936142Y-124091380D01*
X129031380Y-124043761D01*
X129079000Y-123948523D01*
X129079000Y-123567571D01*
X129031380Y-123472333D01*
X128936142Y-123424714D01*
X128745666Y-123424714D01*
X128650428Y-123472333D01*
X128602809Y-123567571D01*
X128602809Y-123662809D01*
X129079000Y-123758047D01*
X128031380Y-124091380D02*
X128126619Y-124043761D01*
X128174238Y-123948523D01*
X128174238Y-123091380D01*
X127650428Y-123424714D02*
X127650428Y-124424714D01*
X127650428Y-123472333D02*
X127555190Y-123424714D01*
X127364714Y-123424714D01*
X127269476Y-123472333D01*
X127221857Y-123519952D01*
X127174238Y-123615190D01*
X127174238Y-123900904D01*
X127221857Y-123996142D01*
X127269476Y-124043761D01*
X127364714Y-124091380D01*
X127555190Y-124091380D01*
X127650428Y-124043761D01*
X126602809Y-124091380D02*
X126698047Y-124043761D01*
X126745666Y-123948523D01*
X126745666Y-123091380D01*
X125793285Y-124091380D02*
X125793285Y-123567571D01*
X125840904Y-123472333D01*
X125936142Y-123424714D01*
X126126619Y-123424714D01*
X126221857Y-123472333D01*
X125793285Y-124043761D02*
X125888523Y-124091380D01*
X126126619Y-124091380D01*
X126221857Y-124043761D01*
X126269476Y-123948523D01*
X126269476Y-123853285D01*
X126221857Y-123758047D01*
X126126619Y-123710428D01*
X125888523Y-123710428D01*
X125793285Y-123662809D01*
X125459952Y-123424714D02*
X125079000Y-123424714D01*
X125317095Y-123091380D02*
X125317095Y-123948523D01*
X125269476Y-124043761D01*
X125174238Y-124091380D01*
X125079000Y-124091380D01*
X124364714Y-124043761D02*
X124459952Y-124091380D01*
X124650428Y-124091380D01*
X124745666Y-124043761D01*
X124793285Y-123948523D01*
X124793285Y-123567571D01*
X124745666Y-123472333D01*
X124650428Y-123424714D01*
X124459952Y-123424714D01*
X124364714Y-123472333D01*
X124317095Y-123567571D01*
X124317095Y-123662809D01*
X124793285Y-123758047D01*
X93840904Y-123805666D02*
X93364714Y-123805666D01*
X93936142Y-124091380D02*
X93602809Y-123091380D01*
X93269476Y-124091380D01*
X92745666Y-123091380D02*
X92650428Y-123091380D01*
X92555190Y-123139000D01*
X92507571Y-123186619D01*
X92459952Y-123281857D01*
X92412333Y-123472333D01*
X92412333Y-123710428D01*
X92459952Y-123900904D01*
X92507571Y-123996142D01*
X92555190Y-124043761D01*
X92650428Y-124091380D01*
X92745666Y-124091380D01*
X92840904Y-124043761D01*
X92888523Y-123996142D01*
X92936142Y-123900904D01*
X92983761Y-123710428D01*
X92983761Y-123472333D01*
X92936142Y-123281857D01*
X92888523Y-123186619D01*
X92840904Y-123139000D01*
X92745666Y-123091380D01*
X91793285Y-123091380D02*
X91698047Y-123091380D01*
X91602809Y-123139000D01*
X91555190Y-123186619D01*
X91507571Y-123281857D01*
X91459952Y-123472333D01*
X91459952Y-123710428D01*
X91507571Y-123900904D01*
X91555190Y-123996142D01*
X91602809Y-124043761D01*
X91698047Y-124091380D01*
X91793285Y-124091380D01*
X91888523Y-124043761D01*
X91936142Y-123996142D01*
X91983761Y-123900904D01*
X92031380Y-123710428D01*
X92031380Y-123472333D01*
X91983761Y-123281857D01*
X91936142Y-123186619D01*
X91888523Y-123139000D01*
X91793285Y-123091380D01*
X91269476Y-124186619D02*
X90507571Y-124186619D01*
X90269476Y-124091380D02*
X90269476Y-123091380D01*
X89840904Y-124091380D02*
X89840904Y-123567571D01*
X89888523Y-123472333D01*
X89983761Y-123424714D01*
X90126619Y-123424714D01*
X90221857Y-123472333D01*
X90269476Y-123519952D01*
X89364714Y-124091380D02*
X89364714Y-123424714D01*
X89364714Y-123091380D02*
X89412333Y-123139000D01*
X89364714Y-123186619D01*
X89317095Y-123139000D01*
X89364714Y-123091380D01*
X89364714Y-123186619D01*
X88745666Y-124091380D02*
X88840904Y-124043761D01*
X88888523Y-123948523D01*
X88888523Y-123091380D01*
X88221857Y-124091380D02*
X88317095Y-124043761D01*
X88364714Y-123948523D01*
X88364714Y-123091380D01*
X87412333Y-124091380D02*
X87412333Y-123567571D01*
X87459952Y-123472333D01*
X87555190Y-123424714D01*
X87745666Y-123424714D01*
X87840904Y-123472333D01*
X87412333Y-124043761D02*
X87507571Y-124091380D01*
X87745666Y-124091380D01*
X87840904Y-124043761D01*
X87888523Y-123948523D01*
X87888523Y-123853285D01*
X87840904Y-123758047D01*
X87745666Y-123710428D01*
X87507571Y-123710428D01*
X87412333Y-123662809D01*
X86936142Y-124091380D02*
X86936142Y-123091380D01*
X86936142Y-123472333D02*
X86840904Y-123424714D01*
X86650428Y-123424714D01*
X86555190Y-123472333D01*
X86507571Y-123519952D01*
X86459952Y-123615190D01*
X86459952Y-123900904D01*
X86507571Y-123996142D01*
X86555190Y-124043761D01*
X86650428Y-124091380D01*
X86840904Y-124091380D01*
X86936142Y-124043761D01*
X85650428Y-124043761D02*
X85745666Y-124091380D01*
X85936142Y-124091380D01*
X86031380Y-124043761D01*
X86079000Y-123948523D01*
X86079000Y-123567571D01*
X86031380Y-123472333D01*
X85936142Y-123424714D01*
X85745666Y-123424714D01*
X85650428Y-123472333D01*
X85602809Y-123567571D01*
X85602809Y-123662809D01*
X86079000Y-123758047D01*
X85031380Y-124091380D02*
X85126619Y-124043761D01*
X85174238Y-123948523D01*
X85174238Y-123091380D01*
X84650428Y-123424714D02*
X84650428Y-124424714D01*
X84650428Y-123472333D02*
X84555190Y-123424714D01*
X84364714Y-123424714D01*
X84269476Y-123472333D01*
X84221857Y-123519952D01*
X84174238Y-123615190D01*
X84174238Y-123900904D01*
X84221857Y-123996142D01*
X84269476Y-124043761D01*
X84364714Y-124091380D01*
X84555190Y-124091380D01*
X84650428Y-124043761D01*
X83602809Y-124091380D02*
X83698047Y-124043761D01*
X83745666Y-123948523D01*
X83745666Y-123091380D01*
X82793285Y-124091380D02*
X82793285Y-123567571D01*
X82840904Y-123472333D01*
X82936142Y-123424714D01*
X83126619Y-123424714D01*
X83221857Y-123472333D01*
X82793285Y-124043761D02*
X82888523Y-124091380D01*
X83126619Y-124091380D01*
X83221857Y-124043761D01*
X83269476Y-123948523D01*
X83269476Y-123853285D01*
X83221857Y-123758047D01*
X83126619Y-123710428D01*
X82888523Y-123710428D01*
X82793285Y-123662809D01*
X82459952Y-123424714D02*
X82079000Y-123424714D01*
X82317095Y-123091380D02*
X82317095Y-123948523D01*
X82269476Y-124043761D01*
X82174238Y-124091380D01*
X82079000Y-124091380D01*
X81364714Y-124043761D02*
X81459952Y-124091380D01*
X81650428Y-124091380D01*
X81745666Y-124043761D01*
X81793285Y-123948523D01*
X81793285Y-123567571D01*
X81745666Y-123472333D01*
X81650428Y-123424714D01*
X81459952Y-123424714D01*
X81364714Y-123472333D01*
X81317095Y-123567571D01*
X81317095Y-123662809D01*
X81793285Y-123758047D01*
X136840904Y-115805666D02*
X136364714Y-115805666D01*
X136936142Y-116091380D02*
X136602809Y-115091380D01*
X136269476Y-116091380D01*
X135745666Y-115091380D02*
X135650428Y-115091380D01*
X135555190Y-115139000D01*
X135507571Y-115186619D01*
X135459952Y-115281857D01*
X135412333Y-115472333D01*
X135412333Y-115710428D01*
X135459952Y-115900904D01*
X135507571Y-115996142D01*
X135555190Y-116043761D01*
X135650428Y-116091380D01*
X135745666Y-116091380D01*
X135840904Y-116043761D01*
X135888523Y-115996142D01*
X135936142Y-115900904D01*
X135983761Y-115710428D01*
X135983761Y-115472333D01*
X135936142Y-115281857D01*
X135888523Y-115186619D01*
X135840904Y-115139000D01*
X135745666Y-115091380D01*
X134793285Y-115091380D02*
X134698047Y-115091380D01*
X134602809Y-115139000D01*
X134555190Y-115186619D01*
X134507571Y-115281857D01*
X134459952Y-115472333D01*
X134459952Y-115710428D01*
X134507571Y-115900904D01*
X134555190Y-115996142D01*
X134602809Y-116043761D01*
X134698047Y-116091380D01*
X134793285Y-116091380D01*
X134888523Y-116043761D01*
X134936142Y-115996142D01*
X134983761Y-115900904D01*
X135031380Y-115710428D01*
X135031380Y-115472333D01*
X134983761Y-115281857D01*
X134936142Y-115186619D01*
X134888523Y-115139000D01*
X134793285Y-115091380D01*
X134269476Y-116186619D02*
X133507571Y-116186619D01*
X133269476Y-116091380D02*
X133269476Y-115091380D01*
X132840904Y-116091380D02*
X132840904Y-115567571D01*
X132888523Y-115472333D01*
X132983761Y-115424714D01*
X133126619Y-115424714D01*
X133221857Y-115472333D01*
X133269476Y-115519952D01*
X132364714Y-116091380D02*
X132364714Y-115424714D01*
X132364714Y-115091380D02*
X132412333Y-115139000D01*
X132364714Y-115186619D01*
X132317095Y-115139000D01*
X132364714Y-115091380D01*
X132364714Y-115186619D01*
X131745666Y-116091380D02*
X131840904Y-116043761D01*
X131888523Y-115948523D01*
X131888523Y-115091380D01*
X131221857Y-116091380D02*
X131317095Y-116043761D01*
X131364714Y-115948523D01*
X131364714Y-115091380D01*
X130412333Y-116091380D02*
X130412333Y-115567571D01*
X130459952Y-115472333D01*
X130555190Y-115424714D01*
X130745666Y-115424714D01*
X130840904Y-115472333D01*
X130412333Y-116043761D02*
X130507571Y-116091380D01*
X130745666Y-116091380D01*
X130840904Y-116043761D01*
X130888523Y-115948523D01*
X130888523Y-115853285D01*
X130840904Y-115758047D01*
X130745666Y-115710428D01*
X130507571Y-115710428D01*
X130412333Y-115662809D01*
X129936142Y-116091380D02*
X129936142Y-115091380D01*
X129936142Y-115472333D02*
X129840904Y-115424714D01*
X129650428Y-115424714D01*
X129555190Y-115472333D01*
X129507571Y-115519952D01*
X129459952Y-115615190D01*
X129459952Y-115900904D01*
X129507571Y-115996142D01*
X129555190Y-116043761D01*
X129650428Y-116091380D01*
X129840904Y-116091380D01*
X129936142Y-116043761D01*
X128650428Y-116043761D02*
X128745666Y-116091380D01*
X128936142Y-116091380D01*
X129031380Y-116043761D01*
X129079000Y-115948523D01*
X129079000Y-115567571D01*
X129031380Y-115472333D01*
X128936142Y-115424714D01*
X128745666Y-115424714D01*
X128650428Y-115472333D01*
X128602809Y-115567571D01*
X128602809Y-115662809D01*
X129079000Y-115758047D01*
X128031380Y-116091380D02*
X128126619Y-116043761D01*
X128174238Y-115948523D01*
X128174238Y-115091380D01*
X127650428Y-115424714D02*
X127650428Y-116424714D01*
X127650428Y-115472333D02*
X127555190Y-115424714D01*
X127364714Y-115424714D01*
X127269476Y-115472333D01*
X127221857Y-115519952D01*
X127174238Y-115615190D01*
X127174238Y-115900904D01*
X127221857Y-115996142D01*
X127269476Y-116043761D01*
X127364714Y-116091380D01*
X127555190Y-116091380D01*
X127650428Y-116043761D01*
X126602809Y-116091380D02*
X126698047Y-116043761D01*
X126745666Y-115948523D01*
X126745666Y-115091380D01*
X125793285Y-116091380D02*
X125793285Y-115567571D01*
X125840904Y-115472333D01*
X125936142Y-115424714D01*
X126126619Y-115424714D01*
X126221857Y-115472333D01*
X125793285Y-116043761D02*
X125888523Y-116091380D01*
X126126619Y-116091380D01*
X126221857Y-116043761D01*
X126269476Y-115948523D01*
X126269476Y-115853285D01*
X126221857Y-115758047D01*
X126126619Y-115710428D01*
X125888523Y-115710428D01*
X125793285Y-115662809D01*
X125459952Y-115424714D02*
X125079000Y-115424714D01*
X125317095Y-115091380D02*
X125317095Y-115948523D01*
X125269476Y-116043761D01*
X125174238Y-116091380D01*
X125079000Y-116091380D01*
X124364714Y-116043761D02*
X124459952Y-116091380D01*
X124650428Y-116091380D01*
X124745666Y-116043761D01*
X124793285Y-115948523D01*
X124793285Y-115567571D01*
X124745666Y-115472333D01*
X124650428Y-115424714D01*
X124459952Y-115424714D01*
X124364714Y-115472333D01*
X124317095Y-115567571D01*
X124317095Y-115662809D01*
X124793285Y-115758047D01*
X93840904Y-115805666D02*
X93364714Y-115805666D01*
X93936142Y-116091380D02*
X93602809Y-115091380D01*
X93269476Y-116091380D01*
X92745666Y-115091380D02*
X92650428Y-115091380D01*
X92555190Y-115139000D01*
X92507571Y-115186619D01*
X92459952Y-115281857D01*
X92412333Y-115472333D01*
X92412333Y-115710428D01*
X92459952Y-115900904D01*
X92507571Y-115996142D01*
X92555190Y-116043761D01*
X92650428Y-116091380D01*
X92745666Y-116091380D01*
X92840904Y-116043761D01*
X92888523Y-115996142D01*
X92936142Y-115900904D01*
X92983761Y-115710428D01*
X92983761Y-115472333D01*
X92936142Y-115281857D01*
X92888523Y-115186619D01*
X92840904Y-115139000D01*
X92745666Y-115091380D01*
X91793285Y-115091380D02*
X91698047Y-115091380D01*
X91602809Y-115139000D01*
X91555190Y-115186619D01*
X91507571Y-115281857D01*
X91459952Y-115472333D01*
X91459952Y-115710428D01*
X91507571Y-115900904D01*
X91555190Y-115996142D01*
X91602809Y-116043761D01*
X91698047Y-116091380D01*
X91793285Y-116091380D01*
X91888523Y-116043761D01*
X91936142Y-115996142D01*
X91983761Y-115900904D01*
X92031380Y-115710428D01*
X92031380Y-115472333D01*
X91983761Y-115281857D01*
X91936142Y-115186619D01*
X91888523Y-115139000D01*
X91793285Y-115091380D01*
X91269476Y-116186619D02*
X90507571Y-116186619D01*
X90269476Y-116091380D02*
X90269476Y-115091380D01*
X89840904Y-116091380D02*
X89840904Y-115567571D01*
X89888523Y-115472333D01*
X89983761Y-115424714D01*
X90126619Y-115424714D01*
X90221857Y-115472333D01*
X90269476Y-115519952D01*
X89364714Y-116091380D02*
X89364714Y-115424714D01*
X89364714Y-115091380D02*
X89412333Y-115139000D01*
X89364714Y-115186619D01*
X89317095Y-115139000D01*
X89364714Y-115091380D01*
X89364714Y-115186619D01*
X88745666Y-116091380D02*
X88840904Y-116043761D01*
X88888523Y-115948523D01*
X88888523Y-115091380D01*
X88221857Y-116091380D02*
X88317095Y-116043761D01*
X88364714Y-115948523D01*
X88364714Y-115091380D01*
X87412333Y-116091380D02*
X87412333Y-115567571D01*
X87459952Y-115472333D01*
X87555190Y-115424714D01*
X87745666Y-115424714D01*
X87840904Y-115472333D01*
X87412333Y-116043761D02*
X87507571Y-116091380D01*
X87745666Y-116091380D01*
X87840904Y-116043761D01*
X87888523Y-115948523D01*
X87888523Y-115853285D01*
X87840904Y-115758047D01*
X87745666Y-115710428D01*
X87507571Y-115710428D01*
X87412333Y-115662809D01*
X86936142Y-116091380D02*
X86936142Y-115091380D01*
X86936142Y-115472333D02*
X86840904Y-115424714D01*
X86650428Y-115424714D01*
X86555190Y-115472333D01*
X86507571Y-115519952D01*
X86459952Y-115615190D01*
X86459952Y-115900904D01*
X86507571Y-115996142D01*
X86555190Y-116043761D01*
X86650428Y-116091380D01*
X86840904Y-116091380D01*
X86936142Y-116043761D01*
X85650428Y-116043761D02*
X85745666Y-116091380D01*
X85936142Y-116091380D01*
X86031380Y-116043761D01*
X86079000Y-115948523D01*
X86079000Y-115567571D01*
X86031380Y-115472333D01*
X85936142Y-115424714D01*
X85745666Y-115424714D01*
X85650428Y-115472333D01*
X85602809Y-115567571D01*
X85602809Y-115662809D01*
X86079000Y-115758047D01*
X85031380Y-116091380D02*
X85126619Y-116043761D01*
X85174238Y-115948523D01*
X85174238Y-115091380D01*
X84650428Y-115424714D02*
X84650428Y-116424714D01*
X84650428Y-115472333D02*
X84555190Y-115424714D01*
X84364714Y-115424714D01*
X84269476Y-115472333D01*
X84221857Y-115519952D01*
X84174238Y-115615190D01*
X84174238Y-115900904D01*
X84221857Y-115996142D01*
X84269476Y-116043761D01*
X84364714Y-116091380D01*
X84555190Y-116091380D01*
X84650428Y-116043761D01*
X83602809Y-116091380D02*
X83698047Y-116043761D01*
X83745666Y-115948523D01*
X83745666Y-115091380D01*
X82793285Y-116091380D02*
X82793285Y-115567571D01*
X82840904Y-115472333D01*
X82936142Y-115424714D01*
X83126619Y-115424714D01*
X83221857Y-115472333D01*
X82793285Y-116043761D02*
X82888523Y-116091380D01*
X83126619Y-116091380D01*
X83221857Y-116043761D01*
X83269476Y-115948523D01*
X83269476Y-115853285D01*
X83221857Y-115758047D01*
X83126619Y-115710428D01*
X82888523Y-115710428D01*
X82793285Y-115662809D01*
X82459952Y-115424714D02*
X82079000Y-115424714D01*
X82317095Y-115091380D02*
X82317095Y-115948523D01*
X82269476Y-116043761D01*
X82174238Y-116091380D01*
X82079000Y-116091380D01*
X81364714Y-116043761D02*
X81459952Y-116091380D01*
X81650428Y-116091380D01*
X81745666Y-116043761D01*
X81793285Y-115948523D01*
X81793285Y-115567571D01*
X81745666Y-115472333D01*
X81650428Y-115424714D01*
X81459952Y-115424714D01*
X81364714Y-115472333D01*
X81317095Y-115567571D01*
X81317095Y-115662809D01*
X81793285Y-115758047D01*
X136840904Y-107805666D02*
X136364714Y-107805666D01*
X136936142Y-108091380D02*
X136602809Y-107091380D01*
X136269476Y-108091380D01*
X135745666Y-107091380D02*
X135650428Y-107091380D01*
X135555190Y-107139000D01*
X135507571Y-107186619D01*
X135459952Y-107281857D01*
X135412333Y-107472333D01*
X135412333Y-107710428D01*
X135459952Y-107900904D01*
X135507571Y-107996142D01*
X135555190Y-108043761D01*
X135650428Y-108091380D01*
X135745666Y-108091380D01*
X135840904Y-108043761D01*
X135888523Y-107996142D01*
X135936142Y-107900904D01*
X135983761Y-107710428D01*
X135983761Y-107472333D01*
X135936142Y-107281857D01*
X135888523Y-107186619D01*
X135840904Y-107139000D01*
X135745666Y-107091380D01*
X134793285Y-107091380D02*
X134698047Y-107091380D01*
X134602809Y-107139000D01*
X134555190Y-107186619D01*
X134507571Y-107281857D01*
X134459952Y-107472333D01*
X134459952Y-107710428D01*
X134507571Y-107900904D01*
X134555190Y-107996142D01*
X134602809Y-108043761D01*
X134698047Y-108091380D01*
X134793285Y-108091380D01*
X134888523Y-108043761D01*
X134936142Y-107996142D01*
X134983761Y-107900904D01*
X135031380Y-107710428D01*
X135031380Y-107472333D01*
X134983761Y-107281857D01*
X134936142Y-107186619D01*
X134888523Y-107139000D01*
X134793285Y-107091380D01*
X134269476Y-108186619D02*
X133507571Y-108186619D01*
X133269476Y-108091380D02*
X133269476Y-107091380D01*
X132840904Y-108091380D02*
X132840904Y-107567571D01*
X132888523Y-107472333D01*
X132983761Y-107424714D01*
X133126619Y-107424714D01*
X133221857Y-107472333D01*
X133269476Y-107519952D01*
X132364714Y-108091380D02*
X132364714Y-107424714D01*
X132364714Y-107091380D02*
X132412333Y-107139000D01*
X132364714Y-107186619D01*
X132317095Y-107139000D01*
X132364714Y-107091380D01*
X132364714Y-107186619D01*
X131745666Y-108091380D02*
X131840904Y-108043761D01*
X131888523Y-107948523D01*
X131888523Y-107091380D01*
X131221857Y-108091380D02*
X131317095Y-108043761D01*
X131364714Y-107948523D01*
X131364714Y-107091380D01*
X130412333Y-108091380D02*
X130412333Y-107567571D01*
X130459952Y-107472333D01*
X130555190Y-107424714D01*
X130745666Y-107424714D01*
X130840904Y-107472333D01*
X130412333Y-108043761D02*
X130507571Y-108091380D01*
X130745666Y-108091380D01*
X130840904Y-108043761D01*
X130888523Y-107948523D01*
X130888523Y-107853285D01*
X130840904Y-107758047D01*
X130745666Y-107710428D01*
X130507571Y-107710428D01*
X130412333Y-107662809D01*
X129936142Y-108091380D02*
X129936142Y-107091380D01*
X129936142Y-107472333D02*
X129840904Y-107424714D01*
X129650428Y-107424714D01*
X129555190Y-107472333D01*
X129507571Y-107519952D01*
X129459952Y-107615190D01*
X129459952Y-107900904D01*
X129507571Y-107996142D01*
X129555190Y-108043761D01*
X129650428Y-108091380D01*
X129840904Y-108091380D01*
X129936142Y-108043761D01*
X128650428Y-108043761D02*
X128745666Y-108091380D01*
X128936142Y-108091380D01*
X129031380Y-108043761D01*
X129079000Y-107948523D01*
X129079000Y-107567571D01*
X129031380Y-107472333D01*
X128936142Y-107424714D01*
X128745666Y-107424714D01*
X128650428Y-107472333D01*
X128602809Y-107567571D01*
X128602809Y-107662809D01*
X129079000Y-107758047D01*
X128031380Y-108091380D02*
X128126619Y-108043761D01*
X128174238Y-107948523D01*
X128174238Y-107091380D01*
X127650428Y-107424714D02*
X127650428Y-108424714D01*
X127650428Y-107472333D02*
X127555190Y-107424714D01*
X127364714Y-107424714D01*
X127269476Y-107472333D01*
X127221857Y-107519952D01*
X127174238Y-107615190D01*
X127174238Y-107900904D01*
X127221857Y-107996142D01*
X127269476Y-108043761D01*
X127364714Y-108091380D01*
X127555190Y-108091380D01*
X127650428Y-108043761D01*
X126602809Y-108091380D02*
X126698047Y-108043761D01*
X126745666Y-107948523D01*
X126745666Y-107091380D01*
X125793285Y-108091380D02*
X125793285Y-107567571D01*
X125840904Y-107472333D01*
X125936142Y-107424714D01*
X126126619Y-107424714D01*
X126221857Y-107472333D01*
X125793285Y-108043761D02*
X125888523Y-108091380D01*
X126126619Y-108091380D01*
X126221857Y-108043761D01*
X126269476Y-107948523D01*
X126269476Y-107853285D01*
X126221857Y-107758047D01*
X126126619Y-107710428D01*
X125888523Y-107710428D01*
X125793285Y-107662809D01*
X125459952Y-107424714D02*
X125079000Y-107424714D01*
X125317095Y-107091380D02*
X125317095Y-107948523D01*
X125269476Y-108043761D01*
X125174238Y-108091380D01*
X125079000Y-108091380D01*
X124364714Y-108043761D02*
X124459952Y-108091380D01*
X124650428Y-108091380D01*
X124745666Y-108043761D01*
X124793285Y-107948523D01*
X124793285Y-107567571D01*
X124745666Y-107472333D01*
X124650428Y-107424714D01*
X124459952Y-107424714D01*
X124364714Y-107472333D01*
X124317095Y-107567571D01*
X124317095Y-107662809D01*
X124793285Y-107758047D01*
X93840904Y-107805666D02*
X93364714Y-107805666D01*
X93936142Y-108091380D02*
X93602809Y-107091380D01*
X93269476Y-108091380D01*
X92745666Y-107091380D02*
X92650428Y-107091380D01*
X92555190Y-107139000D01*
X92507571Y-107186619D01*
X92459952Y-107281857D01*
X92412333Y-107472333D01*
X92412333Y-107710428D01*
X92459952Y-107900904D01*
X92507571Y-107996142D01*
X92555190Y-108043761D01*
X92650428Y-108091380D01*
X92745666Y-108091380D01*
X92840904Y-108043761D01*
X92888523Y-107996142D01*
X92936142Y-107900904D01*
X92983761Y-107710428D01*
X92983761Y-107472333D01*
X92936142Y-107281857D01*
X92888523Y-107186619D01*
X92840904Y-107139000D01*
X92745666Y-107091380D01*
X91793285Y-107091380D02*
X91698047Y-107091380D01*
X91602809Y-107139000D01*
X91555190Y-107186619D01*
X91507571Y-107281857D01*
X91459952Y-107472333D01*
X91459952Y-107710428D01*
X91507571Y-107900904D01*
X91555190Y-107996142D01*
X91602809Y-108043761D01*
X91698047Y-108091380D01*
X91793285Y-108091380D01*
X91888523Y-108043761D01*
X91936142Y-107996142D01*
X91983761Y-107900904D01*
X92031380Y-107710428D01*
X92031380Y-107472333D01*
X91983761Y-107281857D01*
X91936142Y-107186619D01*
X91888523Y-107139000D01*
X91793285Y-107091380D01*
X91269476Y-108186619D02*
X90507571Y-108186619D01*
X90269476Y-108091380D02*
X90269476Y-107091380D01*
X89840904Y-108091380D02*
X89840904Y-107567571D01*
X89888523Y-107472333D01*
X89983761Y-107424714D01*
X90126619Y-107424714D01*
X90221857Y-107472333D01*
X90269476Y-107519952D01*
X89364714Y-108091380D02*
X89364714Y-107424714D01*
X89364714Y-107091380D02*
X89412333Y-107139000D01*
X89364714Y-107186619D01*
X89317095Y-107139000D01*
X89364714Y-107091380D01*
X89364714Y-107186619D01*
X88745666Y-108091380D02*
X88840904Y-108043761D01*
X88888523Y-107948523D01*
X88888523Y-107091380D01*
X88221857Y-108091380D02*
X88317095Y-108043761D01*
X88364714Y-107948523D01*
X88364714Y-107091380D01*
X87412333Y-108091380D02*
X87412333Y-107567571D01*
X87459952Y-107472333D01*
X87555190Y-107424714D01*
X87745666Y-107424714D01*
X87840904Y-107472333D01*
X87412333Y-108043761D02*
X87507571Y-108091380D01*
X87745666Y-108091380D01*
X87840904Y-108043761D01*
X87888523Y-107948523D01*
X87888523Y-107853285D01*
X87840904Y-107758047D01*
X87745666Y-107710428D01*
X87507571Y-107710428D01*
X87412333Y-107662809D01*
X86936142Y-108091380D02*
X86936142Y-107091380D01*
X86936142Y-107472333D02*
X86840904Y-107424714D01*
X86650428Y-107424714D01*
X86555190Y-107472333D01*
X86507571Y-107519952D01*
X86459952Y-107615190D01*
X86459952Y-107900904D01*
X86507571Y-107996142D01*
X86555190Y-108043761D01*
X86650428Y-108091380D01*
X86840904Y-108091380D01*
X86936142Y-108043761D01*
X85650428Y-108043761D02*
X85745666Y-108091380D01*
X85936142Y-108091380D01*
X86031380Y-108043761D01*
X86079000Y-107948523D01*
X86079000Y-107567571D01*
X86031380Y-107472333D01*
X85936142Y-107424714D01*
X85745666Y-107424714D01*
X85650428Y-107472333D01*
X85602809Y-107567571D01*
X85602809Y-107662809D01*
X86079000Y-107758047D01*
X85031380Y-108091380D02*
X85126619Y-108043761D01*
X85174238Y-107948523D01*
X85174238Y-107091380D01*
X84650428Y-107424714D02*
X84650428Y-108424714D01*
X84650428Y-107472333D02*
X84555190Y-107424714D01*
X84364714Y-107424714D01*
X84269476Y-107472333D01*
X84221857Y-107519952D01*
X84174238Y-107615190D01*
X84174238Y-107900904D01*
X84221857Y-107996142D01*
X84269476Y-108043761D01*
X84364714Y-108091380D01*
X84555190Y-108091380D01*
X84650428Y-108043761D01*
X83602809Y-108091380D02*
X83698047Y-108043761D01*
X83745666Y-107948523D01*
X83745666Y-107091380D01*
X82793285Y-108091380D02*
X82793285Y-107567571D01*
X82840904Y-107472333D01*
X82936142Y-107424714D01*
X83126619Y-107424714D01*
X83221857Y-107472333D01*
X82793285Y-108043761D02*
X82888523Y-108091380D01*
X83126619Y-108091380D01*
X83221857Y-108043761D01*
X83269476Y-107948523D01*
X83269476Y-107853285D01*
X83221857Y-107758047D01*
X83126619Y-107710428D01*
X82888523Y-107710428D01*
X82793285Y-107662809D01*
X82459952Y-107424714D02*
X82079000Y-107424714D01*
X82317095Y-107091380D02*
X82317095Y-107948523D01*
X82269476Y-108043761D01*
X82174238Y-108091380D01*
X82079000Y-108091380D01*
X81364714Y-108043761D02*
X81459952Y-108091380D01*
X81650428Y-108091380D01*
X81745666Y-108043761D01*
X81793285Y-107948523D01*
X81793285Y-107567571D01*
X81745666Y-107472333D01*
X81650428Y-107424714D01*
X81459952Y-107424714D01*
X81364714Y-107472333D01*
X81317095Y-107567571D01*
X81317095Y-107662809D01*
X81793285Y-107758047D01*
X136840904Y-99805666D02*
X136364714Y-99805666D01*
X136936142Y-100091380D02*
X136602809Y-99091380D01*
X136269476Y-100091380D01*
X135745666Y-99091380D02*
X135650428Y-99091380D01*
X135555190Y-99139000D01*
X135507571Y-99186619D01*
X135459952Y-99281857D01*
X135412333Y-99472333D01*
X135412333Y-99710428D01*
X135459952Y-99900904D01*
X135507571Y-99996142D01*
X135555190Y-100043761D01*
X135650428Y-100091380D01*
X135745666Y-100091380D01*
X135840904Y-100043761D01*
X135888523Y-99996142D01*
X135936142Y-99900904D01*
X135983761Y-99710428D01*
X135983761Y-99472333D01*
X135936142Y-99281857D01*
X135888523Y-99186619D01*
X135840904Y-99139000D01*
X135745666Y-99091380D01*
X134793285Y-99091380D02*
X134698047Y-99091380D01*
X134602809Y-99139000D01*
X134555190Y-99186619D01*
X134507571Y-99281857D01*
X134459952Y-99472333D01*
X134459952Y-99710428D01*
X134507571Y-99900904D01*
X134555190Y-99996142D01*
X134602809Y-100043761D01*
X134698047Y-100091380D01*
X134793285Y-100091380D01*
X134888523Y-100043761D01*
X134936142Y-99996142D01*
X134983761Y-99900904D01*
X135031380Y-99710428D01*
X135031380Y-99472333D01*
X134983761Y-99281857D01*
X134936142Y-99186619D01*
X134888523Y-99139000D01*
X134793285Y-99091380D01*
X134269476Y-100186619D02*
X133507571Y-100186619D01*
X133269476Y-100091380D02*
X133269476Y-99091380D01*
X132840904Y-100091380D02*
X132840904Y-99567571D01*
X132888523Y-99472333D01*
X132983761Y-99424714D01*
X133126619Y-99424714D01*
X133221857Y-99472333D01*
X133269476Y-99519952D01*
X132364714Y-100091380D02*
X132364714Y-99424714D01*
X132364714Y-99091380D02*
X132412333Y-99139000D01*
X132364714Y-99186619D01*
X132317095Y-99139000D01*
X132364714Y-99091380D01*
X132364714Y-99186619D01*
X131745666Y-100091380D02*
X131840904Y-100043761D01*
X131888523Y-99948523D01*
X131888523Y-99091380D01*
X131221857Y-100091380D02*
X131317095Y-100043761D01*
X131364714Y-99948523D01*
X131364714Y-99091380D01*
X130412333Y-100091380D02*
X130412333Y-99567571D01*
X130459952Y-99472333D01*
X130555190Y-99424714D01*
X130745666Y-99424714D01*
X130840904Y-99472333D01*
X130412333Y-100043761D02*
X130507571Y-100091380D01*
X130745666Y-100091380D01*
X130840904Y-100043761D01*
X130888523Y-99948523D01*
X130888523Y-99853285D01*
X130840904Y-99758047D01*
X130745666Y-99710428D01*
X130507571Y-99710428D01*
X130412333Y-99662809D01*
X129936142Y-100091380D02*
X129936142Y-99091380D01*
X129936142Y-99472333D02*
X129840904Y-99424714D01*
X129650428Y-99424714D01*
X129555190Y-99472333D01*
X129507571Y-99519952D01*
X129459952Y-99615190D01*
X129459952Y-99900904D01*
X129507571Y-99996142D01*
X129555190Y-100043761D01*
X129650428Y-100091380D01*
X129840904Y-100091380D01*
X129936142Y-100043761D01*
X128650428Y-100043761D02*
X128745666Y-100091380D01*
X128936142Y-100091380D01*
X129031380Y-100043761D01*
X129079000Y-99948523D01*
X129079000Y-99567571D01*
X129031380Y-99472333D01*
X128936142Y-99424714D01*
X128745666Y-99424714D01*
X128650428Y-99472333D01*
X128602809Y-99567571D01*
X128602809Y-99662809D01*
X129079000Y-99758047D01*
X128031380Y-100091380D02*
X128126619Y-100043761D01*
X128174238Y-99948523D01*
X128174238Y-99091380D01*
X127650428Y-99424714D02*
X127650428Y-100424714D01*
X127650428Y-99472333D02*
X127555190Y-99424714D01*
X127364714Y-99424714D01*
X127269476Y-99472333D01*
X127221857Y-99519952D01*
X127174238Y-99615190D01*
X127174238Y-99900904D01*
X127221857Y-99996142D01*
X127269476Y-100043761D01*
X127364714Y-100091380D01*
X127555190Y-100091380D01*
X127650428Y-100043761D01*
X126602809Y-100091380D02*
X126698047Y-100043761D01*
X126745666Y-99948523D01*
X126745666Y-99091380D01*
X125793285Y-100091380D02*
X125793285Y-99567571D01*
X125840904Y-99472333D01*
X125936142Y-99424714D01*
X126126619Y-99424714D01*
X126221857Y-99472333D01*
X125793285Y-100043761D02*
X125888523Y-100091380D01*
X126126619Y-100091380D01*
X126221857Y-100043761D01*
X126269476Y-99948523D01*
X126269476Y-99853285D01*
X126221857Y-99758047D01*
X126126619Y-99710428D01*
X125888523Y-99710428D01*
X125793285Y-99662809D01*
X125459952Y-99424714D02*
X125079000Y-99424714D01*
X125317095Y-99091380D02*
X125317095Y-99948523D01*
X125269476Y-100043761D01*
X125174238Y-100091380D01*
X125079000Y-100091380D01*
X124364714Y-100043761D02*
X124459952Y-100091380D01*
X124650428Y-100091380D01*
X124745666Y-100043761D01*
X124793285Y-99948523D01*
X124793285Y-99567571D01*
X124745666Y-99472333D01*
X124650428Y-99424714D01*
X124459952Y-99424714D01*
X124364714Y-99472333D01*
X124317095Y-99567571D01*
X124317095Y-99662809D01*
X124793285Y-99758047D01*
X93840904Y-99805666D02*
X93364714Y-99805666D01*
X93936142Y-100091380D02*
X93602809Y-99091380D01*
X93269476Y-100091380D01*
X92745666Y-99091380D02*
X92650428Y-99091380D01*
X92555190Y-99139000D01*
X92507571Y-99186619D01*
X92459952Y-99281857D01*
X92412333Y-99472333D01*
X92412333Y-99710428D01*
X92459952Y-99900904D01*
X92507571Y-99996142D01*
X92555190Y-100043761D01*
X92650428Y-100091380D01*
X92745666Y-100091380D01*
X92840904Y-100043761D01*
X92888523Y-99996142D01*
X92936142Y-99900904D01*
X92983761Y-99710428D01*
X92983761Y-99472333D01*
X92936142Y-99281857D01*
X92888523Y-99186619D01*
X92840904Y-99139000D01*
X92745666Y-99091380D01*
X91793285Y-99091380D02*
X91698047Y-99091380D01*
X91602809Y-99139000D01*
X91555190Y-99186619D01*
X91507571Y-99281857D01*
X91459952Y-99472333D01*
X91459952Y-99710428D01*
X91507571Y-99900904D01*
X91555190Y-99996142D01*
X91602809Y-100043761D01*
X91698047Y-100091380D01*
X91793285Y-100091380D01*
X91888523Y-100043761D01*
X91936142Y-99996142D01*
X91983761Y-99900904D01*
X92031380Y-99710428D01*
X92031380Y-99472333D01*
X91983761Y-99281857D01*
X91936142Y-99186619D01*
X91888523Y-99139000D01*
X91793285Y-99091380D01*
X91269476Y-100186619D02*
X90507571Y-100186619D01*
X90269476Y-100091380D02*
X90269476Y-99091380D01*
X89840904Y-100091380D02*
X89840904Y-99567571D01*
X89888523Y-99472333D01*
X89983761Y-99424714D01*
X90126619Y-99424714D01*
X90221857Y-99472333D01*
X90269476Y-99519952D01*
X89364714Y-100091380D02*
X89364714Y-99424714D01*
X89364714Y-99091380D02*
X89412333Y-99139000D01*
X89364714Y-99186619D01*
X89317095Y-99139000D01*
X89364714Y-99091380D01*
X89364714Y-99186619D01*
X88745666Y-100091380D02*
X88840904Y-100043761D01*
X88888523Y-99948523D01*
X88888523Y-99091380D01*
X88221857Y-100091380D02*
X88317095Y-100043761D01*
X88364714Y-99948523D01*
X88364714Y-99091380D01*
X87412333Y-100091380D02*
X87412333Y-99567571D01*
X87459952Y-99472333D01*
X87555190Y-99424714D01*
X87745666Y-99424714D01*
X87840904Y-99472333D01*
X87412333Y-100043761D02*
X87507571Y-100091380D01*
X87745666Y-100091380D01*
X87840904Y-100043761D01*
X87888523Y-99948523D01*
X87888523Y-99853285D01*
X87840904Y-99758047D01*
X87745666Y-99710428D01*
X87507571Y-99710428D01*
X87412333Y-99662809D01*
X86936142Y-100091380D02*
X86936142Y-99091380D01*
X86936142Y-99472333D02*
X86840904Y-99424714D01*
X86650428Y-99424714D01*
X86555190Y-99472333D01*
X86507571Y-99519952D01*
X86459952Y-99615190D01*
X86459952Y-99900904D01*
X86507571Y-99996142D01*
X86555190Y-100043761D01*
X86650428Y-100091380D01*
X86840904Y-100091380D01*
X86936142Y-100043761D01*
X85650428Y-100043761D02*
X85745666Y-100091380D01*
X85936142Y-100091380D01*
X86031380Y-100043761D01*
X86079000Y-99948523D01*
X86079000Y-99567571D01*
X86031380Y-99472333D01*
X85936142Y-99424714D01*
X85745666Y-99424714D01*
X85650428Y-99472333D01*
X85602809Y-99567571D01*
X85602809Y-99662809D01*
X86079000Y-99758047D01*
X85031380Y-100091380D02*
X85126619Y-100043761D01*
X85174238Y-99948523D01*
X85174238Y-99091380D01*
X84650428Y-99424714D02*
X84650428Y-100424714D01*
X84650428Y-99472333D02*
X84555190Y-99424714D01*
X84364714Y-99424714D01*
X84269476Y-99472333D01*
X84221857Y-99519952D01*
X84174238Y-99615190D01*
X84174238Y-99900904D01*
X84221857Y-99996142D01*
X84269476Y-100043761D01*
X84364714Y-100091380D01*
X84555190Y-100091380D01*
X84650428Y-100043761D01*
X83602809Y-100091380D02*
X83698047Y-100043761D01*
X83745666Y-99948523D01*
X83745666Y-99091380D01*
X82793285Y-100091380D02*
X82793285Y-99567571D01*
X82840904Y-99472333D01*
X82936142Y-99424714D01*
X83126619Y-99424714D01*
X83221857Y-99472333D01*
X82793285Y-100043761D02*
X82888523Y-100091380D01*
X83126619Y-100091380D01*
X83221857Y-100043761D01*
X83269476Y-99948523D01*
X83269476Y-99853285D01*
X83221857Y-99758047D01*
X83126619Y-99710428D01*
X82888523Y-99710428D01*
X82793285Y-99662809D01*
X82459952Y-99424714D02*
X82079000Y-99424714D01*
X82317095Y-99091380D02*
X82317095Y-99948523D01*
X82269476Y-100043761D01*
X82174238Y-100091380D01*
X82079000Y-100091380D01*
X81364714Y-100043761D02*
X81459952Y-100091380D01*
X81650428Y-100091380D01*
X81745666Y-100043761D01*
X81793285Y-99948523D01*
X81793285Y-99567571D01*
X81745666Y-99472333D01*
X81650428Y-99424714D01*
X81459952Y-99424714D01*
X81364714Y-99472333D01*
X81317095Y-99567571D01*
X81317095Y-99662809D01*
X81793285Y-99758047D01*
X136840904Y-91805666D02*
X136364714Y-91805666D01*
X136936142Y-92091380D02*
X136602809Y-91091380D01*
X136269476Y-92091380D01*
X135745666Y-91091380D02*
X135650428Y-91091380D01*
X135555190Y-91139000D01*
X135507571Y-91186619D01*
X135459952Y-91281857D01*
X135412333Y-91472333D01*
X135412333Y-91710428D01*
X135459952Y-91900904D01*
X135507571Y-91996142D01*
X135555190Y-92043761D01*
X135650428Y-92091380D01*
X135745666Y-92091380D01*
X135840904Y-92043761D01*
X135888523Y-91996142D01*
X135936142Y-91900904D01*
X135983761Y-91710428D01*
X135983761Y-91472333D01*
X135936142Y-91281857D01*
X135888523Y-91186619D01*
X135840904Y-91139000D01*
X135745666Y-91091380D01*
X134793285Y-91091380D02*
X134698047Y-91091380D01*
X134602809Y-91139000D01*
X134555190Y-91186619D01*
X134507571Y-91281857D01*
X134459952Y-91472333D01*
X134459952Y-91710428D01*
X134507571Y-91900904D01*
X134555190Y-91996142D01*
X134602809Y-92043761D01*
X134698047Y-92091380D01*
X134793285Y-92091380D01*
X134888523Y-92043761D01*
X134936142Y-91996142D01*
X134983761Y-91900904D01*
X135031380Y-91710428D01*
X135031380Y-91472333D01*
X134983761Y-91281857D01*
X134936142Y-91186619D01*
X134888523Y-91139000D01*
X134793285Y-91091380D01*
X134269476Y-92186619D02*
X133507571Y-92186619D01*
X133269476Y-92091380D02*
X133269476Y-91091380D01*
X132840904Y-92091380D02*
X132840904Y-91567571D01*
X132888523Y-91472333D01*
X132983761Y-91424714D01*
X133126619Y-91424714D01*
X133221857Y-91472333D01*
X133269476Y-91519952D01*
X132364714Y-92091380D02*
X132364714Y-91424714D01*
X132364714Y-91091380D02*
X132412333Y-91139000D01*
X132364714Y-91186619D01*
X132317095Y-91139000D01*
X132364714Y-91091380D01*
X132364714Y-91186619D01*
X131745666Y-92091380D02*
X131840904Y-92043761D01*
X131888523Y-91948523D01*
X131888523Y-91091380D01*
X131221857Y-92091380D02*
X131317095Y-92043761D01*
X131364714Y-91948523D01*
X131364714Y-91091380D01*
X130412333Y-92091380D02*
X130412333Y-91567571D01*
X130459952Y-91472333D01*
X130555190Y-91424714D01*
X130745666Y-91424714D01*
X130840904Y-91472333D01*
X130412333Y-92043761D02*
X130507571Y-92091380D01*
X130745666Y-92091380D01*
X130840904Y-92043761D01*
X130888523Y-91948523D01*
X130888523Y-91853285D01*
X130840904Y-91758047D01*
X130745666Y-91710428D01*
X130507571Y-91710428D01*
X130412333Y-91662809D01*
X129936142Y-92091380D02*
X129936142Y-91091380D01*
X129936142Y-91472333D02*
X129840904Y-91424714D01*
X129650428Y-91424714D01*
X129555190Y-91472333D01*
X129507571Y-91519952D01*
X129459952Y-91615190D01*
X129459952Y-91900904D01*
X129507571Y-91996142D01*
X129555190Y-92043761D01*
X129650428Y-92091380D01*
X129840904Y-92091380D01*
X129936142Y-92043761D01*
X128650428Y-92043761D02*
X128745666Y-92091380D01*
X128936142Y-92091380D01*
X129031380Y-92043761D01*
X129079000Y-91948523D01*
X129079000Y-91567571D01*
X129031380Y-91472333D01*
X128936142Y-91424714D01*
X128745666Y-91424714D01*
X128650428Y-91472333D01*
X128602809Y-91567571D01*
X128602809Y-91662809D01*
X129079000Y-91758047D01*
X128031380Y-92091380D02*
X128126619Y-92043761D01*
X128174238Y-91948523D01*
X128174238Y-91091380D01*
X127650428Y-91424714D02*
X127650428Y-92424714D01*
X127650428Y-91472333D02*
X127555190Y-91424714D01*
X127364714Y-91424714D01*
X127269476Y-91472333D01*
X127221857Y-91519952D01*
X127174238Y-91615190D01*
X127174238Y-91900904D01*
X127221857Y-91996142D01*
X127269476Y-92043761D01*
X127364714Y-92091380D01*
X127555190Y-92091380D01*
X127650428Y-92043761D01*
X126602809Y-92091380D02*
X126698047Y-92043761D01*
X126745666Y-91948523D01*
X126745666Y-91091380D01*
X125793285Y-92091380D02*
X125793285Y-91567571D01*
X125840904Y-91472333D01*
X125936142Y-91424714D01*
X126126619Y-91424714D01*
X126221857Y-91472333D01*
X125793285Y-92043761D02*
X125888523Y-92091380D01*
X126126619Y-92091380D01*
X126221857Y-92043761D01*
X126269476Y-91948523D01*
X126269476Y-91853285D01*
X126221857Y-91758047D01*
X126126619Y-91710428D01*
X125888523Y-91710428D01*
X125793285Y-91662809D01*
X125459952Y-91424714D02*
X125079000Y-91424714D01*
X125317095Y-91091380D02*
X125317095Y-91948523D01*
X125269476Y-92043761D01*
X125174238Y-92091380D01*
X125079000Y-92091380D01*
X124364714Y-92043761D02*
X124459952Y-92091380D01*
X124650428Y-92091380D01*
X124745666Y-92043761D01*
X124793285Y-91948523D01*
X124793285Y-91567571D01*
X124745666Y-91472333D01*
X124650428Y-91424714D01*
X124459952Y-91424714D01*
X124364714Y-91472333D01*
X124317095Y-91567571D01*
X124317095Y-91662809D01*
X124793285Y-91758047D01*
X93840904Y-91805666D02*
X93364714Y-91805666D01*
X93936142Y-92091380D02*
X93602809Y-91091380D01*
X93269476Y-92091380D01*
X92745666Y-91091380D02*
X92650428Y-91091380D01*
X92555190Y-91139000D01*
X92507571Y-91186619D01*
X92459952Y-91281857D01*
X92412333Y-91472333D01*
X92412333Y-91710428D01*
X92459952Y-91900904D01*
X92507571Y-91996142D01*
X92555190Y-92043761D01*
X92650428Y-92091380D01*
X92745666Y-92091380D01*
X92840904Y-92043761D01*
X92888523Y-91996142D01*
X92936142Y-91900904D01*
X92983761Y-91710428D01*
X92983761Y-91472333D01*
X92936142Y-91281857D01*
X92888523Y-91186619D01*
X92840904Y-91139000D01*
X92745666Y-91091380D01*
X91793285Y-91091380D02*
X91698047Y-91091380D01*
X91602809Y-91139000D01*
X91555190Y-91186619D01*
X91507571Y-91281857D01*
X91459952Y-91472333D01*
X91459952Y-91710428D01*
X91507571Y-91900904D01*
X91555190Y-91996142D01*
X91602809Y-92043761D01*
X91698047Y-92091380D01*
X91793285Y-92091380D01*
X91888523Y-92043761D01*
X91936142Y-91996142D01*
X91983761Y-91900904D01*
X92031380Y-91710428D01*
X92031380Y-91472333D01*
X91983761Y-91281857D01*
X91936142Y-91186619D01*
X91888523Y-91139000D01*
X91793285Y-91091380D01*
X91269476Y-92186619D02*
X90507571Y-92186619D01*
X90269476Y-92091380D02*
X90269476Y-91091380D01*
X89840904Y-92091380D02*
X89840904Y-91567571D01*
X89888523Y-91472333D01*
X89983761Y-91424714D01*
X90126619Y-91424714D01*
X90221857Y-91472333D01*
X90269476Y-91519952D01*
X89364714Y-92091380D02*
X89364714Y-91424714D01*
X89364714Y-91091380D02*
X89412333Y-91139000D01*
X89364714Y-91186619D01*
X89317095Y-91139000D01*
X89364714Y-91091380D01*
X89364714Y-91186619D01*
X88745666Y-92091380D02*
X88840904Y-92043761D01*
X88888523Y-91948523D01*
X88888523Y-91091380D01*
X88221857Y-92091380D02*
X88317095Y-92043761D01*
X88364714Y-91948523D01*
X88364714Y-91091380D01*
X87412333Y-92091380D02*
X87412333Y-91567571D01*
X87459952Y-91472333D01*
X87555190Y-91424714D01*
X87745666Y-91424714D01*
X87840904Y-91472333D01*
X87412333Y-92043761D02*
X87507571Y-92091380D01*
X87745666Y-92091380D01*
X87840904Y-92043761D01*
X87888523Y-91948523D01*
X87888523Y-91853285D01*
X87840904Y-91758047D01*
X87745666Y-91710428D01*
X87507571Y-91710428D01*
X87412333Y-91662809D01*
X86936142Y-92091380D02*
X86936142Y-91091380D01*
X86936142Y-91472333D02*
X86840904Y-91424714D01*
X86650428Y-91424714D01*
X86555190Y-91472333D01*
X86507571Y-91519952D01*
X86459952Y-91615190D01*
X86459952Y-91900904D01*
X86507571Y-91996142D01*
X86555190Y-92043761D01*
X86650428Y-92091380D01*
X86840904Y-92091380D01*
X86936142Y-92043761D01*
X85650428Y-92043761D02*
X85745666Y-92091380D01*
X85936142Y-92091380D01*
X86031380Y-92043761D01*
X86079000Y-91948523D01*
X86079000Y-91567571D01*
X86031380Y-91472333D01*
X85936142Y-91424714D01*
X85745666Y-91424714D01*
X85650428Y-91472333D01*
X85602809Y-91567571D01*
X85602809Y-91662809D01*
X86079000Y-91758047D01*
X85031380Y-92091380D02*
X85126619Y-92043761D01*
X85174238Y-91948523D01*
X85174238Y-91091380D01*
X84650428Y-91424714D02*
X84650428Y-92424714D01*
X84650428Y-91472333D02*
X84555190Y-91424714D01*
X84364714Y-91424714D01*
X84269476Y-91472333D01*
X84221857Y-91519952D01*
X84174238Y-91615190D01*
X84174238Y-91900904D01*
X84221857Y-91996142D01*
X84269476Y-92043761D01*
X84364714Y-92091380D01*
X84555190Y-92091380D01*
X84650428Y-92043761D01*
X83602809Y-92091380D02*
X83698047Y-92043761D01*
X83745666Y-91948523D01*
X83745666Y-91091380D01*
X82793285Y-92091380D02*
X82793285Y-91567571D01*
X82840904Y-91472333D01*
X82936142Y-91424714D01*
X83126619Y-91424714D01*
X83221857Y-91472333D01*
X82793285Y-92043761D02*
X82888523Y-92091380D01*
X83126619Y-92091380D01*
X83221857Y-92043761D01*
X83269476Y-91948523D01*
X83269476Y-91853285D01*
X83221857Y-91758047D01*
X83126619Y-91710428D01*
X82888523Y-91710428D01*
X82793285Y-91662809D01*
X82459952Y-91424714D02*
X82079000Y-91424714D01*
X82317095Y-91091380D02*
X82317095Y-91948523D01*
X82269476Y-92043761D01*
X82174238Y-92091380D01*
X82079000Y-92091380D01*
X81364714Y-92043761D02*
X81459952Y-92091380D01*
X81650428Y-92091380D01*
X81745666Y-92043761D01*
X81793285Y-91948523D01*
X81793285Y-91567571D01*
X81745666Y-91472333D01*
X81650428Y-91424714D01*
X81459952Y-91424714D01*
X81364714Y-91472333D01*
X81317095Y-91567571D01*
X81317095Y-91662809D01*
X81793285Y-91758047D01*
X136840904Y-83805666D02*
X136364714Y-83805666D01*
X136936142Y-84091380D02*
X136602809Y-83091380D01*
X136269476Y-84091380D01*
X135745666Y-83091380D02*
X135650428Y-83091380D01*
X135555190Y-83139000D01*
X135507571Y-83186619D01*
X135459952Y-83281857D01*
X135412333Y-83472333D01*
X135412333Y-83710428D01*
X135459952Y-83900904D01*
X135507571Y-83996142D01*
X135555190Y-84043761D01*
X135650428Y-84091380D01*
X135745666Y-84091380D01*
X135840904Y-84043761D01*
X135888523Y-83996142D01*
X135936142Y-83900904D01*
X135983761Y-83710428D01*
X135983761Y-83472333D01*
X135936142Y-83281857D01*
X135888523Y-83186619D01*
X135840904Y-83139000D01*
X135745666Y-83091380D01*
X134793285Y-83091380D02*
X134698047Y-83091380D01*
X134602809Y-83139000D01*
X134555190Y-83186619D01*
X134507571Y-83281857D01*
X134459952Y-83472333D01*
X134459952Y-83710428D01*
X134507571Y-83900904D01*
X134555190Y-83996142D01*
X134602809Y-84043761D01*
X134698047Y-84091380D01*
X134793285Y-84091380D01*
X134888523Y-84043761D01*
X134936142Y-83996142D01*
X134983761Y-83900904D01*
X135031380Y-83710428D01*
X135031380Y-83472333D01*
X134983761Y-83281857D01*
X134936142Y-83186619D01*
X134888523Y-83139000D01*
X134793285Y-83091380D01*
X134269476Y-84186619D02*
X133507571Y-84186619D01*
X133269476Y-84091380D02*
X133269476Y-83091380D01*
X132840904Y-84091380D02*
X132840904Y-83567571D01*
X132888523Y-83472333D01*
X132983761Y-83424714D01*
X133126619Y-83424714D01*
X133221857Y-83472333D01*
X133269476Y-83519952D01*
X132364714Y-84091380D02*
X132364714Y-83424714D01*
X132364714Y-83091380D02*
X132412333Y-83139000D01*
X132364714Y-83186619D01*
X132317095Y-83139000D01*
X132364714Y-83091380D01*
X132364714Y-83186619D01*
X131745666Y-84091380D02*
X131840904Y-84043761D01*
X131888523Y-83948523D01*
X131888523Y-83091380D01*
X131221857Y-84091380D02*
X131317095Y-84043761D01*
X131364714Y-83948523D01*
X131364714Y-83091380D01*
X130412333Y-84091380D02*
X130412333Y-83567571D01*
X130459952Y-83472333D01*
X130555190Y-83424714D01*
X130745666Y-83424714D01*
X130840904Y-83472333D01*
X130412333Y-84043761D02*
X130507571Y-84091380D01*
X130745666Y-84091380D01*
X130840904Y-84043761D01*
X130888523Y-83948523D01*
X130888523Y-83853285D01*
X130840904Y-83758047D01*
X130745666Y-83710428D01*
X130507571Y-83710428D01*
X130412333Y-83662809D01*
X129936142Y-84091380D02*
X129936142Y-83091380D01*
X129936142Y-83472333D02*
X129840904Y-83424714D01*
X129650428Y-83424714D01*
X129555190Y-83472333D01*
X129507571Y-83519952D01*
X129459952Y-83615190D01*
X129459952Y-83900904D01*
X129507571Y-83996142D01*
X129555190Y-84043761D01*
X129650428Y-84091380D01*
X129840904Y-84091380D01*
X129936142Y-84043761D01*
X128650428Y-84043761D02*
X128745666Y-84091380D01*
X128936142Y-84091380D01*
X129031380Y-84043761D01*
X129079000Y-83948523D01*
X129079000Y-83567571D01*
X129031380Y-83472333D01*
X128936142Y-83424714D01*
X128745666Y-83424714D01*
X128650428Y-83472333D01*
X128602809Y-83567571D01*
X128602809Y-83662809D01*
X129079000Y-83758047D01*
X128031380Y-84091380D02*
X128126619Y-84043761D01*
X128174238Y-83948523D01*
X128174238Y-83091380D01*
X127650428Y-83424714D02*
X127650428Y-84424714D01*
X127650428Y-83472333D02*
X127555190Y-83424714D01*
X127364714Y-83424714D01*
X127269476Y-83472333D01*
X127221857Y-83519952D01*
X127174238Y-83615190D01*
X127174238Y-83900904D01*
X127221857Y-83996142D01*
X127269476Y-84043761D01*
X127364714Y-84091380D01*
X127555190Y-84091380D01*
X127650428Y-84043761D01*
X126602809Y-84091380D02*
X126698047Y-84043761D01*
X126745666Y-83948523D01*
X126745666Y-83091380D01*
X125793285Y-84091380D02*
X125793285Y-83567571D01*
X125840904Y-83472333D01*
X125936142Y-83424714D01*
X126126619Y-83424714D01*
X126221857Y-83472333D01*
X125793285Y-84043761D02*
X125888523Y-84091380D01*
X126126619Y-84091380D01*
X126221857Y-84043761D01*
X126269476Y-83948523D01*
X126269476Y-83853285D01*
X126221857Y-83758047D01*
X126126619Y-83710428D01*
X125888523Y-83710428D01*
X125793285Y-83662809D01*
X125459952Y-83424714D02*
X125079000Y-83424714D01*
X125317095Y-83091380D02*
X125317095Y-83948523D01*
X125269476Y-84043761D01*
X125174238Y-84091380D01*
X125079000Y-84091380D01*
X124364714Y-84043761D02*
X124459952Y-84091380D01*
X124650428Y-84091380D01*
X124745666Y-84043761D01*
X124793285Y-83948523D01*
X124793285Y-83567571D01*
X124745666Y-83472333D01*
X124650428Y-83424714D01*
X124459952Y-83424714D01*
X124364714Y-83472333D01*
X124317095Y-83567571D01*
X124317095Y-83662809D01*
X124793285Y-83758047D01*
X93840904Y-83805666D02*
X93364714Y-83805666D01*
X93936142Y-84091380D02*
X93602809Y-83091380D01*
X93269476Y-84091380D01*
X92745666Y-83091380D02*
X92650428Y-83091380D01*
X92555190Y-83139000D01*
X92507571Y-83186619D01*
X92459952Y-83281857D01*
X92412333Y-83472333D01*
X92412333Y-83710428D01*
X92459952Y-83900904D01*
X92507571Y-83996142D01*
X92555190Y-84043761D01*
X92650428Y-84091380D01*
X92745666Y-84091380D01*
X92840904Y-84043761D01*
X92888523Y-83996142D01*
X92936142Y-83900904D01*
X92983761Y-83710428D01*
X92983761Y-83472333D01*
X92936142Y-83281857D01*
X92888523Y-83186619D01*
X92840904Y-83139000D01*
X92745666Y-83091380D01*
X91793285Y-83091380D02*
X91698047Y-83091380D01*
X91602809Y-83139000D01*
X91555190Y-83186619D01*
X91507571Y-83281857D01*
X91459952Y-83472333D01*
X91459952Y-83710428D01*
X91507571Y-83900904D01*
X91555190Y-83996142D01*
X91602809Y-84043761D01*
X91698047Y-84091380D01*
X91793285Y-84091380D01*
X91888523Y-84043761D01*
X91936142Y-83996142D01*
X91983761Y-83900904D01*
X92031380Y-83710428D01*
X92031380Y-83472333D01*
X91983761Y-83281857D01*
X91936142Y-83186619D01*
X91888523Y-83139000D01*
X91793285Y-83091380D01*
X91269476Y-84186619D02*
X90507571Y-84186619D01*
X90269476Y-84091380D02*
X90269476Y-83091380D01*
X89840904Y-84091380D02*
X89840904Y-83567571D01*
X89888523Y-83472333D01*
X89983761Y-83424714D01*
X90126619Y-83424714D01*
X90221857Y-83472333D01*
X90269476Y-83519952D01*
X89364714Y-84091380D02*
X89364714Y-83424714D01*
X89364714Y-83091380D02*
X89412333Y-83139000D01*
X89364714Y-83186619D01*
X89317095Y-83139000D01*
X89364714Y-83091380D01*
X89364714Y-83186619D01*
X88745666Y-84091380D02*
X88840904Y-84043761D01*
X88888523Y-83948523D01*
X88888523Y-83091380D01*
X88221857Y-84091380D02*
X88317095Y-84043761D01*
X88364714Y-83948523D01*
X88364714Y-83091380D01*
X87412333Y-84091380D02*
X87412333Y-83567571D01*
X87459952Y-83472333D01*
X87555190Y-83424714D01*
X87745666Y-83424714D01*
X87840904Y-83472333D01*
X87412333Y-84043761D02*
X87507571Y-84091380D01*
X87745666Y-84091380D01*
X87840904Y-84043761D01*
X87888523Y-83948523D01*
X87888523Y-83853285D01*
X87840904Y-83758047D01*
X87745666Y-83710428D01*
X87507571Y-83710428D01*
X87412333Y-83662809D01*
X86936142Y-84091380D02*
X86936142Y-83091380D01*
X86936142Y-83472333D02*
X86840904Y-83424714D01*
X86650428Y-83424714D01*
X86555190Y-83472333D01*
X86507571Y-83519952D01*
X86459952Y-83615190D01*
X86459952Y-83900904D01*
X86507571Y-83996142D01*
X86555190Y-84043761D01*
X86650428Y-84091380D01*
X86840904Y-84091380D01*
X86936142Y-84043761D01*
X85650428Y-84043761D02*
X85745666Y-84091380D01*
X85936142Y-84091380D01*
X86031380Y-84043761D01*
X86079000Y-83948523D01*
X86079000Y-83567571D01*
X86031380Y-83472333D01*
X85936142Y-83424714D01*
X85745666Y-83424714D01*
X85650428Y-83472333D01*
X85602809Y-83567571D01*
X85602809Y-83662809D01*
X86079000Y-83758047D01*
X85031380Y-84091380D02*
X85126619Y-84043761D01*
X85174238Y-83948523D01*
X85174238Y-83091380D01*
X84650428Y-83424714D02*
X84650428Y-84424714D01*
X84650428Y-83472333D02*
X84555190Y-83424714D01*
X84364714Y-83424714D01*
X84269476Y-83472333D01*
X84221857Y-83519952D01*
X84174238Y-83615190D01*
X84174238Y-83900904D01*
X84221857Y-83996142D01*
X84269476Y-84043761D01*
X84364714Y-84091380D01*
X84555190Y-84091380D01*
X84650428Y-84043761D01*
X83602809Y-84091380D02*
X83698047Y-84043761D01*
X83745666Y-83948523D01*
X83745666Y-83091380D01*
X82793285Y-84091380D02*
X82793285Y-83567571D01*
X82840904Y-83472333D01*
X82936142Y-83424714D01*
X83126619Y-83424714D01*
X83221857Y-83472333D01*
X82793285Y-84043761D02*
X82888523Y-84091380D01*
X83126619Y-84091380D01*
X83221857Y-84043761D01*
X83269476Y-83948523D01*
X83269476Y-83853285D01*
X83221857Y-83758047D01*
X83126619Y-83710428D01*
X82888523Y-83710428D01*
X82793285Y-83662809D01*
X82459952Y-83424714D02*
X82079000Y-83424714D01*
X82317095Y-83091380D02*
X82317095Y-83948523D01*
X82269476Y-84043761D01*
X82174238Y-84091380D01*
X82079000Y-84091380D01*
X81364714Y-84043761D02*
X81459952Y-84091380D01*
X81650428Y-84091380D01*
X81745666Y-84043761D01*
X81793285Y-83948523D01*
X81793285Y-83567571D01*
X81745666Y-83472333D01*
X81650428Y-83424714D01*
X81459952Y-83424714D01*
X81364714Y-83472333D01*
X81317095Y-83567571D01*
X81317095Y-83662809D01*
X81793285Y-83758047D01*
X136840904Y-75805666D02*
X136364714Y-75805666D01*
X136936142Y-76091380D02*
X136602809Y-75091380D01*
X136269476Y-76091380D01*
X135745666Y-75091380D02*
X135650428Y-75091380D01*
X135555190Y-75139000D01*
X135507571Y-75186619D01*
X135459952Y-75281857D01*
X135412333Y-75472333D01*
X135412333Y-75710428D01*
X135459952Y-75900904D01*
X135507571Y-75996142D01*
X135555190Y-76043761D01*
X135650428Y-76091380D01*
X135745666Y-76091380D01*
X135840904Y-76043761D01*
X135888523Y-75996142D01*
X135936142Y-75900904D01*
X135983761Y-75710428D01*
X135983761Y-75472333D01*
X135936142Y-75281857D01*
X135888523Y-75186619D01*
X135840904Y-75139000D01*
X135745666Y-75091380D01*
X134793285Y-75091380D02*
X134698047Y-75091380D01*
X134602809Y-75139000D01*
X134555190Y-75186619D01*
X134507571Y-75281857D01*
X134459952Y-75472333D01*
X134459952Y-75710428D01*
X134507571Y-75900904D01*
X134555190Y-75996142D01*
X134602809Y-76043761D01*
X134698047Y-76091380D01*
X134793285Y-76091380D01*
X134888523Y-76043761D01*
X134936142Y-75996142D01*
X134983761Y-75900904D01*
X135031380Y-75710428D01*
X135031380Y-75472333D01*
X134983761Y-75281857D01*
X134936142Y-75186619D01*
X134888523Y-75139000D01*
X134793285Y-75091380D01*
X134269476Y-76186619D02*
X133507571Y-76186619D01*
X133269476Y-76091380D02*
X133269476Y-75091380D01*
X132840904Y-76091380D02*
X132840904Y-75567571D01*
X132888523Y-75472333D01*
X132983761Y-75424714D01*
X133126619Y-75424714D01*
X133221857Y-75472333D01*
X133269476Y-75519952D01*
X132364714Y-76091380D02*
X132364714Y-75424714D01*
X132364714Y-75091380D02*
X132412333Y-75139000D01*
X132364714Y-75186619D01*
X132317095Y-75139000D01*
X132364714Y-75091380D01*
X132364714Y-75186619D01*
X131745666Y-76091380D02*
X131840904Y-76043761D01*
X131888523Y-75948523D01*
X131888523Y-75091380D01*
X131221857Y-76091380D02*
X131317095Y-76043761D01*
X131364714Y-75948523D01*
X131364714Y-75091380D01*
X130412333Y-76091380D02*
X130412333Y-75567571D01*
X130459952Y-75472333D01*
X130555190Y-75424714D01*
X130745666Y-75424714D01*
X130840904Y-75472333D01*
X130412333Y-76043761D02*
X130507571Y-76091380D01*
X130745666Y-76091380D01*
X130840904Y-76043761D01*
X130888523Y-75948523D01*
X130888523Y-75853285D01*
X130840904Y-75758047D01*
X130745666Y-75710428D01*
X130507571Y-75710428D01*
X130412333Y-75662809D01*
X129936142Y-76091380D02*
X129936142Y-75091380D01*
X129936142Y-75472333D02*
X129840904Y-75424714D01*
X129650428Y-75424714D01*
X129555190Y-75472333D01*
X129507571Y-75519952D01*
X129459952Y-75615190D01*
X129459952Y-75900904D01*
X129507571Y-75996142D01*
X129555190Y-76043761D01*
X129650428Y-76091380D01*
X129840904Y-76091380D01*
X129936142Y-76043761D01*
X128650428Y-76043761D02*
X128745666Y-76091380D01*
X128936142Y-76091380D01*
X129031380Y-76043761D01*
X129079000Y-75948523D01*
X129079000Y-75567571D01*
X129031380Y-75472333D01*
X128936142Y-75424714D01*
X128745666Y-75424714D01*
X128650428Y-75472333D01*
X128602809Y-75567571D01*
X128602809Y-75662809D01*
X129079000Y-75758047D01*
X128031380Y-76091380D02*
X128126619Y-76043761D01*
X128174238Y-75948523D01*
X128174238Y-75091380D01*
X127650428Y-75424714D02*
X127650428Y-76424714D01*
X127650428Y-75472333D02*
X127555190Y-75424714D01*
X127364714Y-75424714D01*
X127269476Y-75472333D01*
X127221857Y-75519952D01*
X127174238Y-75615190D01*
X127174238Y-75900904D01*
X127221857Y-75996142D01*
X127269476Y-76043761D01*
X127364714Y-76091380D01*
X127555190Y-76091380D01*
X127650428Y-76043761D01*
X126602809Y-76091380D02*
X126698047Y-76043761D01*
X126745666Y-75948523D01*
X126745666Y-75091380D01*
X125793285Y-76091380D02*
X125793285Y-75567571D01*
X125840904Y-75472333D01*
X125936142Y-75424714D01*
X126126619Y-75424714D01*
X126221857Y-75472333D01*
X125793285Y-76043761D02*
X125888523Y-76091380D01*
X126126619Y-76091380D01*
X126221857Y-76043761D01*
X126269476Y-75948523D01*
X126269476Y-75853285D01*
X126221857Y-75758047D01*
X126126619Y-75710428D01*
X125888523Y-75710428D01*
X125793285Y-75662809D01*
X125459952Y-75424714D02*
X125079000Y-75424714D01*
X125317095Y-75091380D02*
X125317095Y-75948523D01*
X125269476Y-76043761D01*
X125174238Y-76091380D01*
X125079000Y-76091380D01*
X124364714Y-76043761D02*
X124459952Y-76091380D01*
X124650428Y-76091380D01*
X124745666Y-76043761D01*
X124793285Y-75948523D01*
X124793285Y-75567571D01*
X124745666Y-75472333D01*
X124650428Y-75424714D01*
X124459952Y-75424714D01*
X124364714Y-75472333D01*
X124317095Y-75567571D01*
X124317095Y-75662809D01*
X124793285Y-75758047D01*
X93840904Y-75805666D02*
X93364714Y-75805666D01*
X93936142Y-76091380D02*
X93602809Y-75091380D01*
X93269476Y-76091380D01*
X92745666Y-75091380D02*
X92650428Y-75091380D01*
X92555190Y-75139000D01*
X92507571Y-75186619D01*
X92459952Y-75281857D01*
X92412333Y-75472333D01*
X92412333Y-75710428D01*
X92459952Y-75900904D01*
X92507571Y-75996142D01*
X92555190Y-76043761D01*
X92650428Y-76091380D01*
X92745666Y-76091380D01*
X92840904Y-76043761D01*
X92888523Y-75996142D01*
X92936142Y-75900904D01*
X92983761Y-75710428D01*
X92983761Y-75472333D01*
X92936142Y-75281857D01*
X92888523Y-75186619D01*
X92840904Y-75139000D01*
X92745666Y-75091380D01*
X91793285Y-75091380D02*
X91698047Y-75091380D01*
X91602809Y-75139000D01*
X91555190Y-75186619D01*
X91507571Y-75281857D01*
X91459952Y-75472333D01*
X91459952Y-75710428D01*
X91507571Y-75900904D01*
X91555190Y-75996142D01*
X91602809Y-76043761D01*
X91698047Y-76091380D01*
X91793285Y-76091380D01*
X91888523Y-76043761D01*
X91936142Y-75996142D01*
X91983761Y-75900904D01*
X92031380Y-75710428D01*
X92031380Y-75472333D01*
X91983761Y-75281857D01*
X91936142Y-75186619D01*
X91888523Y-75139000D01*
X91793285Y-75091380D01*
X91269476Y-76186619D02*
X90507571Y-76186619D01*
X90269476Y-76091380D02*
X90269476Y-75091380D01*
X89840904Y-76091380D02*
X89840904Y-75567571D01*
X89888523Y-75472333D01*
X89983761Y-75424714D01*
X90126619Y-75424714D01*
X90221857Y-75472333D01*
X90269476Y-75519952D01*
X89364714Y-76091380D02*
X89364714Y-75424714D01*
X89364714Y-75091380D02*
X89412333Y-75139000D01*
X89364714Y-75186619D01*
X89317095Y-75139000D01*
X89364714Y-75091380D01*
X89364714Y-75186619D01*
X88745666Y-76091380D02*
X88840904Y-76043761D01*
X88888523Y-75948523D01*
X88888523Y-75091380D01*
X88221857Y-76091380D02*
X88317095Y-76043761D01*
X88364714Y-75948523D01*
X88364714Y-75091380D01*
X87412333Y-76091380D02*
X87412333Y-75567571D01*
X87459952Y-75472333D01*
X87555190Y-75424714D01*
X87745666Y-75424714D01*
X87840904Y-75472333D01*
X87412333Y-76043761D02*
X87507571Y-76091380D01*
X87745666Y-76091380D01*
X87840904Y-76043761D01*
X87888523Y-75948523D01*
X87888523Y-75853285D01*
X87840904Y-75758047D01*
X87745666Y-75710428D01*
X87507571Y-75710428D01*
X87412333Y-75662809D01*
X86936142Y-76091380D02*
X86936142Y-75091380D01*
X86936142Y-75472333D02*
X86840904Y-75424714D01*
X86650428Y-75424714D01*
X86555190Y-75472333D01*
X86507571Y-75519952D01*
X86459952Y-75615190D01*
X86459952Y-75900904D01*
X86507571Y-75996142D01*
X86555190Y-76043761D01*
X86650428Y-76091380D01*
X86840904Y-76091380D01*
X86936142Y-76043761D01*
X85650428Y-76043761D02*
X85745666Y-76091380D01*
X85936142Y-76091380D01*
X86031380Y-76043761D01*
X86079000Y-75948523D01*
X86079000Y-75567571D01*
X86031380Y-75472333D01*
X85936142Y-75424714D01*
X85745666Y-75424714D01*
X85650428Y-75472333D01*
X85602809Y-75567571D01*
X85602809Y-75662809D01*
X86079000Y-75758047D01*
X85031380Y-76091380D02*
X85126619Y-76043761D01*
X85174238Y-75948523D01*
X85174238Y-75091380D01*
X84650428Y-75424714D02*
X84650428Y-76424714D01*
X84650428Y-75472333D02*
X84555190Y-75424714D01*
X84364714Y-75424714D01*
X84269476Y-75472333D01*
X84221857Y-75519952D01*
X84174238Y-75615190D01*
X84174238Y-75900904D01*
X84221857Y-75996142D01*
X84269476Y-76043761D01*
X84364714Y-76091380D01*
X84555190Y-76091380D01*
X84650428Y-76043761D01*
X83602809Y-76091380D02*
X83698047Y-76043761D01*
X83745666Y-75948523D01*
X83745666Y-75091380D01*
X82793285Y-76091380D02*
X82793285Y-75567571D01*
X82840904Y-75472333D01*
X82936142Y-75424714D01*
X83126619Y-75424714D01*
X83221857Y-75472333D01*
X82793285Y-76043761D02*
X82888523Y-76091380D01*
X83126619Y-76091380D01*
X83221857Y-76043761D01*
X83269476Y-75948523D01*
X83269476Y-75853285D01*
X83221857Y-75758047D01*
X83126619Y-75710428D01*
X82888523Y-75710428D01*
X82793285Y-75662809D01*
X82459952Y-75424714D02*
X82079000Y-75424714D01*
X82317095Y-75091380D02*
X82317095Y-75948523D01*
X82269476Y-76043761D01*
X82174238Y-76091380D01*
X82079000Y-76091380D01*
X81364714Y-76043761D02*
X81459952Y-76091380D01*
X81650428Y-76091380D01*
X81745666Y-76043761D01*
X81793285Y-75948523D01*
X81793285Y-75567571D01*
X81745666Y-75472333D01*
X81650428Y-75424714D01*
X81459952Y-75424714D01*
X81364714Y-75472333D01*
X81317095Y-75567571D01*
X81317095Y-75662809D01*
X81793285Y-75758047D01*
X136840904Y-67805666D02*
X136364714Y-67805666D01*
X136936142Y-68091380D02*
X136602809Y-67091380D01*
X136269476Y-68091380D01*
X135745666Y-67091380D02*
X135650428Y-67091380D01*
X135555190Y-67139000D01*
X135507571Y-67186619D01*
X135459952Y-67281857D01*
X135412333Y-67472333D01*
X135412333Y-67710428D01*
X135459952Y-67900904D01*
X135507571Y-67996142D01*
X135555190Y-68043761D01*
X135650428Y-68091380D01*
X135745666Y-68091380D01*
X135840904Y-68043761D01*
X135888523Y-67996142D01*
X135936142Y-67900904D01*
X135983761Y-67710428D01*
X135983761Y-67472333D01*
X135936142Y-67281857D01*
X135888523Y-67186619D01*
X135840904Y-67139000D01*
X135745666Y-67091380D01*
X134793285Y-67091380D02*
X134698047Y-67091380D01*
X134602809Y-67139000D01*
X134555190Y-67186619D01*
X134507571Y-67281857D01*
X134459952Y-67472333D01*
X134459952Y-67710428D01*
X134507571Y-67900904D01*
X134555190Y-67996142D01*
X134602809Y-68043761D01*
X134698047Y-68091380D01*
X134793285Y-68091380D01*
X134888523Y-68043761D01*
X134936142Y-67996142D01*
X134983761Y-67900904D01*
X135031380Y-67710428D01*
X135031380Y-67472333D01*
X134983761Y-67281857D01*
X134936142Y-67186619D01*
X134888523Y-67139000D01*
X134793285Y-67091380D01*
X134269476Y-68186619D02*
X133507571Y-68186619D01*
X133269476Y-68091380D02*
X133269476Y-67091380D01*
X132840904Y-68091380D02*
X132840904Y-67567571D01*
X132888523Y-67472333D01*
X132983761Y-67424714D01*
X133126619Y-67424714D01*
X133221857Y-67472333D01*
X133269476Y-67519952D01*
X132364714Y-68091380D02*
X132364714Y-67424714D01*
X132364714Y-67091380D02*
X132412333Y-67139000D01*
X132364714Y-67186619D01*
X132317095Y-67139000D01*
X132364714Y-67091380D01*
X132364714Y-67186619D01*
X131745666Y-68091380D02*
X131840904Y-68043761D01*
X131888523Y-67948523D01*
X131888523Y-67091380D01*
X131221857Y-68091380D02*
X131317095Y-68043761D01*
X131364714Y-67948523D01*
X131364714Y-67091380D01*
X130412333Y-68091380D02*
X130412333Y-67567571D01*
X130459952Y-67472333D01*
X130555190Y-67424714D01*
X130745666Y-67424714D01*
X130840904Y-67472333D01*
X130412333Y-68043761D02*
X130507571Y-68091380D01*
X130745666Y-68091380D01*
X130840904Y-68043761D01*
X130888523Y-67948523D01*
X130888523Y-67853285D01*
X130840904Y-67758047D01*
X130745666Y-67710428D01*
X130507571Y-67710428D01*
X130412333Y-67662809D01*
X129936142Y-68091380D02*
X129936142Y-67091380D01*
X129936142Y-67472333D02*
X129840904Y-67424714D01*
X129650428Y-67424714D01*
X129555190Y-67472333D01*
X129507571Y-67519952D01*
X129459952Y-67615190D01*
X129459952Y-67900904D01*
X129507571Y-67996142D01*
X129555190Y-68043761D01*
X129650428Y-68091380D01*
X129840904Y-68091380D01*
X129936142Y-68043761D01*
X128650428Y-68043761D02*
X128745666Y-68091380D01*
X128936142Y-68091380D01*
X129031380Y-68043761D01*
X129079000Y-67948523D01*
X129079000Y-67567571D01*
X129031380Y-67472333D01*
X128936142Y-67424714D01*
X128745666Y-67424714D01*
X128650428Y-67472333D01*
X128602809Y-67567571D01*
X128602809Y-67662809D01*
X129079000Y-67758047D01*
X128031380Y-68091380D02*
X128126619Y-68043761D01*
X128174238Y-67948523D01*
X128174238Y-67091380D01*
X127650428Y-67424714D02*
X127650428Y-68424714D01*
X127650428Y-67472333D02*
X127555190Y-67424714D01*
X127364714Y-67424714D01*
X127269476Y-67472333D01*
X127221857Y-67519952D01*
X127174238Y-67615190D01*
X127174238Y-67900904D01*
X127221857Y-67996142D01*
X127269476Y-68043761D01*
X127364714Y-68091380D01*
X127555190Y-68091380D01*
X127650428Y-68043761D01*
X126602809Y-68091380D02*
X126698047Y-68043761D01*
X126745666Y-67948523D01*
X126745666Y-67091380D01*
X125793285Y-68091380D02*
X125793285Y-67567571D01*
X125840904Y-67472333D01*
X125936142Y-67424714D01*
X126126619Y-67424714D01*
X126221857Y-67472333D01*
X125793285Y-68043761D02*
X125888523Y-68091380D01*
X126126619Y-68091380D01*
X126221857Y-68043761D01*
X126269476Y-67948523D01*
X126269476Y-67853285D01*
X126221857Y-67758047D01*
X126126619Y-67710428D01*
X125888523Y-67710428D01*
X125793285Y-67662809D01*
X125459952Y-67424714D02*
X125079000Y-67424714D01*
X125317095Y-67091380D02*
X125317095Y-67948523D01*
X125269476Y-68043761D01*
X125174238Y-68091380D01*
X125079000Y-68091380D01*
X124364714Y-68043761D02*
X124459952Y-68091380D01*
X124650428Y-68091380D01*
X124745666Y-68043761D01*
X124793285Y-67948523D01*
X124793285Y-67567571D01*
X124745666Y-67472333D01*
X124650428Y-67424714D01*
X124459952Y-67424714D01*
X124364714Y-67472333D01*
X124317095Y-67567571D01*
X124317095Y-67662809D01*
X124793285Y-67758047D01*
X93840904Y-67805666D02*
X93364714Y-67805666D01*
X93936142Y-68091380D02*
X93602809Y-67091380D01*
X93269476Y-68091380D01*
X92745666Y-67091380D02*
X92650428Y-67091380D01*
X92555190Y-67139000D01*
X92507571Y-67186619D01*
X92459952Y-67281857D01*
X92412333Y-67472333D01*
X92412333Y-67710428D01*
X92459952Y-67900904D01*
X92507571Y-67996142D01*
X92555190Y-68043761D01*
X92650428Y-68091380D01*
X92745666Y-68091380D01*
X92840904Y-68043761D01*
X92888523Y-67996142D01*
X92936142Y-67900904D01*
X92983761Y-67710428D01*
X92983761Y-67472333D01*
X92936142Y-67281857D01*
X92888523Y-67186619D01*
X92840904Y-67139000D01*
X92745666Y-67091380D01*
X91793285Y-67091380D02*
X91698047Y-67091380D01*
X91602809Y-67139000D01*
X91555190Y-67186619D01*
X91507571Y-67281857D01*
X91459952Y-67472333D01*
X91459952Y-67710428D01*
X91507571Y-67900904D01*
X91555190Y-67996142D01*
X91602809Y-68043761D01*
X91698047Y-68091380D01*
X91793285Y-68091380D01*
X91888523Y-68043761D01*
X91936142Y-67996142D01*
X91983761Y-67900904D01*
X92031380Y-67710428D01*
X92031380Y-67472333D01*
X91983761Y-67281857D01*
X91936142Y-67186619D01*
X91888523Y-67139000D01*
X91793285Y-67091380D01*
X91269476Y-68186619D02*
X90507571Y-68186619D01*
X90269476Y-68091380D02*
X90269476Y-67091380D01*
X89840904Y-68091380D02*
X89840904Y-67567571D01*
X89888523Y-67472333D01*
X89983761Y-67424714D01*
X90126619Y-67424714D01*
X90221857Y-67472333D01*
X90269476Y-67519952D01*
X89364714Y-68091380D02*
X89364714Y-67424714D01*
X89364714Y-67091380D02*
X89412333Y-67139000D01*
X89364714Y-67186619D01*
X89317095Y-67139000D01*
X89364714Y-67091380D01*
X89364714Y-67186619D01*
X88745666Y-68091380D02*
X88840904Y-68043761D01*
X88888523Y-67948523D01*
X88888523Y-67091380D01*
X88221857Y-68091380D02*
X88317095Y-68043761D01*
X88364714Y-67948523D01*
X88364714Y-67091380D01*
X87412333Y-68091380D02*
X87412333Y-67567571D01*
X87459952Y-67472333D01*
X87555190Y-67424714D01*
X87745666Y-67424714D01*
X87840904Y-67472333D01*
X87412333Y-68043761D02*
X87507571Y-68091380D01*
X87745666Y-68091380D01*
X87840904Y-68043761D01*
X87888523Y-67948523D01*
X87888523Y-67853285D01*
X87840904Y-67758047D01*
X87745666Y-67710428D01*
X87507571Y-67710428D01*
X87412333Y-67662809D01*
X86936142Y-68091380D02*
X86936142Y-67091380D01*
X86936142Y-67472333D02*
X86840904Y-67424714D01*
X86650428Y-67424714D01*
X86555190Y-67472333D01*
X86507571Y-67519952D01*
X86459952Y-67615190D01*
X86459952Y-67900904D01*
X86507571Y-67996142D01*
X86555190Y-68043761D01*
X86650428Y-68091380D01*
X86840904Y-68091380D01*
X86936142Y-68043761D01*
X85650428Y-68043761D02*
X85745666Y-68091380D01*
X85936142Y-68091380D01*
X86031380Y-68043761D01*
X86079000Y-67948523D01*
X86079000Y-67567571D01*
X86031380Y-67472333D01*
X85936142Y-67424714D01*
X85745666Y-67424714D01*
X85650428Y-67472333D01*
X85602809Y-67567571D01*
X85602809Y-67662809D01*
X86079000Y-67758047D01*
X85031380Y-68091380D02*
X85126619Y-68043761D01*
X85174238Y-67948523D01*
X85174238Y-67091380D01*
X84650428Y-67424714D02*
X84650428Y-68424714D01*
X84650428Y-67472333D02*
X84555190Y-67424714D01*
X84364714Y-67424714D01*
X84269476Y-67472333D01*
X84221857Y-67519952D01*
X84174238Y-67615190D01*
X84174238Y-67900904D01*
X84221857Y-67996142D01*
X84269476Y-68043761D01*
X84364714Y-68091380D01*
X84555190Y-68091380D01*
X84650428Y-68043761D01*
X83602809Y-68091380D02*
X83698047Y-68043761D01*
X83745666Y-67948523D01*
X83745666Y-67091380D01*
X82793285Y-68091380D02*
X82793285Y-67567571D01*
X82840904Y-67472333D01*
X82936142Y-67424714D01*
X83126619Y-67424714D01*
X83221857Y-67472333D01*
X82793285Y-68043761D02*
X82888523Y-68091380D01*
X83126619Y-68091380D01*
X83221857Y-68043761D01*
X83269476Y-67948523D01*
X83269476Y-67853285D01*
X83221857Y-67758047D01*
X83126619Y-67710428D01*
X82888523Y-67710428D01*
X82793285Y-67662809D01*
X82459952Y-67424714D02*
X82079000Y-67424714D01*
X82317095Y-67091380D02*
X82317095Y-67948523D01*
X82269476Y-68043761D01*
X82174238Y-68091380D01*
X82079000Y-68091380D01*
X81364714Y-68043761D02*
X81459952Y-68091380D01*
X81650428Y-68091380D01*
X81745666Y-68043761D01*
X81793285Y-67948523D01*
X81793285Y-67567571D01*
X81745666Y-67472333D01*
X81650428Y-67424714D01*
X81459952Y-67424714D01*
X81364714Y-67472333D01*
X81317095Y-67567571D01*
X81317095Y-67662809D01*
X81793285Y-67758047D01*
X136840904Y-59805666D02*
X136364714Y-59805666D01*
X136936142Y-60091380D02*
X136602809Y-59091380D01*
X136269476Y-60091380D01*
X135745666Y-59091380D02*
X135650428Y-59091380D01*
X135555190Y-59139000D01*
X135507571Y-59186619D01*
X135459952Y-59281857D01*
X135412333Y-59472333D01*
X135412333Y-59710428D01*
X135459952Y-59900904D01*
X135507571Y-59996142D01*
X135555190Y-60043761D01*
X135650428Y-60091380D01*
X135745666Y-60091380D01*
X135840904Y-60043761D01*
X135888523Y-59996142D01*
X135936142Y-59900904D01*
X135983761Y-59710428D01*
X135983761Y-59472333D01*
X135936142Y-59281857D01*
X135888523Y-59186619D01*
X135840904Y-59139000D01*
X135745666Y-59091380D01*
X134793285Y-59091380D02*
X134698047Y-59091380D01*
X134602809Y-59139000D01*
X134555190Y-59186619D01*
X134507571Y-59281857D01*
X134459952Y-59472333D01*
X134459952Y-59710428D01*
X134507571Y-59900904D01*
X134555190Y-59996142D01*
X134602809Y-60043761D01*
X134698047Y-60091380D01*
X134793285Y-60091380D01*
X134888523Y-60043761D01*
X134936142Y-59996142D01*
X134983761Y-59900904D01*
X135031380Y-59710428D01*
X135031380Y-59472333D01*
X134983761Y-59281857D01*
X134936142Y-59186619D01*
X134888523Y-59139000D01*
X134793285Y-59091380D01*
X134269476Y-60186619D02*
X133507571Y-60186619D01*
X133269476Y-60091380D02*
X133269476Y-59091380D01*
X132840904Y-60091380D02*
X132840904Y-59567571D01*
X132888523Y-59472333D01*
X132983761Y-59424714D01*
X133126619Y-59424714D01*
X133221857Y-59472333D01*
X133269476Y-59519952D01*
X132364714Y-60091380D02*
X132364714Y-59424714D01*
X132364714Y-59091380D02*
X132412333Y-59139000D01*
X132364714Y-59186619D01*
X132317095Y-59139000D01*
X132364714Y-59091380D01*
X132364714Y-59186619D01*
X131745666Y-60091380D02*
X131840904Y-60043761D01*
X131888523Y-59948523D01*
X131888523Y-59091380D01*
X131221857Y-60091380D02*
X131317095Y-60043761D01*
X131364714Y-59948523D01*
X131364714Y-59091380D01*
X130412333Y-60091380D02*
X130412333Y-59567571D01*
X130459952Y-59472333D01*
X130555190Y-59424714D01*
X130745666Y-59424714D01*
X130840904Y-59472333D01*
X130412333Y-60043761D02*
X130507571Y-60091380D01*
X130745666Y-60091380D01*
X130840904Y-60043761D01*
X130888523Y-59948523D01*
X130888523Y-59853285D01*
X130840904Y-59758047D01*
X130745666Y-59710428D01*
X130507571Y-59710428D01*
X130412333Y-59662809D01*
X129936142Y-60091380D02*
X129936142Y-59091380D01*
X129936142Y-59472333D02*
X129840904Y-59424714D01*
X129650428Y-59424714D01*
X129555190Y-59472333D01*
X129507571Y-59519952D01*
X129459952Y-59615190D01*
X129459952Y-59900904D01*
X129507571Y-59996142D01*
X129555190Y-60043761D01*
X129650428Y-60091380D01*
X129840904Y-60091380D01*
X129936142Y-60043761D01*
X128650428Y-60043761D02*
X128745666Y-60091380D01*
X128936142Y-60091380D01*
X129031380Y-60043761D01*
X129079000Y-59948523D01*
X129079000Y-59567571D01*
X129031380Y-59472333D01*
X128936142Y-59424714D01*
X128745666Y-59424714D01*
X128650428Y-59472333D01*
X128602809Y-59567571D01*
X128602809Y-59662809D01*
X129079000Y-59758047D01*
X128031380Y-60091380D02*
X128126619Y-60043761D01*
X128174238Y-59948523D01*
X128174238Y-59091380D01*
X127650428Y-59424714D02*
X127650428Y-60424714D01*
X127650428Y-59472333D02*
X127555190Y-59424714D01*
X127364714Y-59424714D01*
X127269476Y-59472333D01*
X127221857Y-59519952D01*
X127174238Y-59615190D01*
X127174238Y-59900904D01*
X127221857Y-59996142D01*
X127269476Y-60043761D01*
X127364714Y-60091380D01*
X127555190Y-60091380D01*
X127650428Y-60043761D01*
X126602809Y-60091380D02*
X126698047Y-60043761D01*
X126745666Y-59948523D01*
X126745666Y-59091380D01*
X125793285Y-60091380D02*
X125793285Y-59567571D01*
X125840904Y-59472333D01*
X125936142Y-59424714D01*
X126126619Y-59424714D01*
X126221857Y-59472333D01*
X125793285Y-60043761D02*
X125888523Y-60091380D01*
X126126619Y-60091380D01*
X126221857Y-60043761D01*
X126269476Y-59948523D01*
X126269476Y-59853285D01*
X126221857Y-59758047D01*
X126126619Y-59710428D01*
X125888523Y-59710428D01*
X125793285Y-59662809D01*
X125459952Y-59424714D02*
X125079000Y-59424714D01*
X125317095Y-59091380D02*
X125317095Y-59948523D01*
X125269476Y-60043761D01*
X125174238Y-60091380D01*
X125079000Y-60091380D01*
X124364714Y-60043761D02*
X124459952Y-60091380D01*
X124650428Y-60091380D01*
X124745666Y-60043761D01*
X124793285Y-59948523D01*
X124793285Y-59567571D01*
X124745666Y-59472333D01*
X124650428Y-59424714D01*
X124459952Y-59424714D01*
X124364714Y-59472333D01*
X124317095Y-59567571D01*
X124317095Y-59662809D01*
X124793285Y-59758047D01*
X93840904Y-59805666D02*
X93364714Y-59805666D01*
X93936142Y-60091380D02*
X93602809Y-59091380D01*
X93269476Y-60091380D01*
X92745666Y-59091380D02*
X92650428Y-59091380D01*
X92555190Y-59139000D01*
X92507571Y-59186619D01*
X92459952Y-59281857D01*
X92412333Y-59472333D01*
X92412333Y-59710428D01*
X92459952Y-59900904D01*
X92507571Y-59996142D01*
X92555190Y-60043761D01*
X92650428Y-60091380D01*
X92745666Y-60091380D01*
X92840904Y-60043761D01*
X92888523Y-59996142D01*
X92936142Y-59900904D01*
X92983761Y-59710428D01*
X92983761Y-59472333D01*
X92936142Y-59281857D01*
X92888523Y-59186619D01*
X92840904Y-59139000D01*
X92745666Y-59091380D01*
X91793285Y-59091380D02*
X91698047Y-59091380D01*
X91602809Y-59139000D01*
X91555190Y-59186619D01*
X91507571Y-59281857D01*
X91459952Y-59472333D01*
X91459952Y-59710428D01*
X91507571Y-59900904D01*
X91555190Y-59996142D01*
X91602809Y-60043761D01*
X91698047Y-60091380D01*
X91793285Y-60091380D01*
X91888523Y-60043761D01*
X91936142Y-59996142D01*
X91983761Y-59900904D01*
X92031380Y-59710428D01*
X92031380Y-59472333D01*
X91983761Y-59281857D01*
X91936142Y-59186619D01*
X91888523Y-59139000D01*
X91793285Y-59091380D01*
X91269476Y-60186619D02*
X90507571Y-60186619D01*
X90269476Y-60091380D02*
X90269476Y-59091380D01*
X89840904Y-60091380D02*
X89840904Y-59567571D01*
X89888523Y-59472333D01*
X89983761Y-59424714D01*
X90126619Y-59424714D01*
X90221857Y-59472333D01*
X90269476Y-59519952D01*
X89364714Y-60091380D02*
X89364714Y-59424714D01*
X89364714Y-59091380D02*
X89412333Y-59139000D01*
X89364714Y-59186619D01*
X89317095Y-59139000D01*
X89364714Y-59091380D01*
X89364714Y-59186619D01*
X88745666Y-60091380D02*
X88840904Y-60043761D01*
X88888523Y-59948523D01*
X88888523Y-59091380D01*
X88221857Y-60091380D02*
X88317095Y-60043761D01*
X88364714Y-59948523D01*
X88364714Y-59091380D01*
X87412333Y-60091380D02*
X87412333Y-59567571D01*
X87459952Y-59472333D01*
X87555190Y-59424714D01*
X87745666Y-59424714D01*
X87840904Y-59472333D01*
X87412333Y-60043761D02*
X87507571Y-60091380D01*
X87745666Y-60091380D01*
X87840904Y-60043761D01*
X87888523Y-59948523D01*
X87888523Y-59853285D01*
X87840904Y-59758047D01*
X87745666Y-59710428D01*
X87507571Y-59710428D01*
X87412333Y-59662809D01*
X86936142Y-60091380D02*
X86936142Y-59091380D01*
X86936142Y-59472333D02*
X86840904Y-59424714D01*
X86650428Y-59424714D01*
X86555190Y-59472333D01*
X86507571Y-59519952D01*
X86459952Y-59615190D01*
X86459952Y-59900904D01*
X86507571Y-59996142D01*
X86555190Y-60043761D01*
X86650428Y-60091380D01*
X86840904Y-60091380D01*
X86936142Y-60043761D01*
X85650428Y-60043761D02*
X85745666Y-60091380D01*
X85936142Y-60091380D01*
X86031380Y-60043761D01*
X86079000Y-59948523D01*
X86079000Y-59567571D01*
X86031380Y-59472333D01*
X85936142Y-59424714D01*
X85745666Y-59424714D01*
X85650428Y-59472333D01*
X85602809Y-59567571D01*
X85602809Y-59662809D01*
X86079000Y-59758047D01*
X85031380Y-60091380D02*
X85126619Y-60043761D01*
X85174238Y-59948523D01*
X85174238Y-59091380D01*
X84650428Y-59424714D02*
X84650428Y-60424714D01*
X84650428Y-59472333D02*
X84555190Y-59424714D01*
X84364714Y-59424714D01*
X84269476Y-59472333D01*
X84221857Y-59519952D01*
X84174238Y-59615190D01*
X84174238Y-59900904D01*
X84221857Y-59996142D01*
X84269476Y-60043761D01*
X84364714Y-60091380D01*
X84555190Y-60091380D01*
X84650428Y-60043761D01*
X83602809Y-60091380D02*
X83698047Y-60043761D01*
X83745666Y-59948523D01*
X83745666Y-59091380D01*
X82793285Y-60091380D02*
X82793285Y-59567571D01*
X82840904Y-59472333D01*
X82936142Y-59424714D01*
X83126619Y-59424714D01*
X83221857Y-59472333D01*
X82793285Y-60043761D02*
X82888523Y-60091380D01*
X83126619Y-60091380D01*
X83221857Y-60043761D01*
X83269476Y-59948523D01*
X83269476Y-59853285D01*
X83221857Y-59758047D01*
X83126619Y-59710428D01*
X82888523Y-59710428D01*
X82793285Y-59662809D01*
X82459952Y-59424714D02*
X82079000Y-59424714D01*
X82317095Y-59091380D02*
X82317095Y-59948523D01*
X82269476Y-60043761D01*
X82174238Y-60091380D01*
X82079000Y-60091380D01*
X81364714Y-60043761D02*
X81459952Y-60091380D01*
X81650428Y-60091380D01*
X81745666Y-60043761D01*
X81793285Y-59948523D01*
X81793285Y-59567571D01*
X81745666Y-59472333D01*
X81650428Y-59424714D01*
X81459952Y-59424714D01*
X81364714Y-59472333D01*
X81317095Y-59567571D01*
X81317095Y-59662809D01*
X81793285Y-59758047D01*
D11*
%TO.C,TP2*%
X139302000Y-148232000D02*
X139302000Y-146832000D01*
X137902000Y-146832000D02*
X137902000Y-148232000D01*
X137902000Y-148232000D02*
X139302000Y-148232000D01*
X139302000Y-146832000D02*
X137902000Y-146832000D01*
%TO.C,TP1*%
X99302000Y-141432000D02*
X97902000Y-141432000D01*
X97902000Y-142832000D02*
X99302000Y-142832000D01*
X97902000Y-141432000D02*
X97902000Y-142832000D01*
X99302000Y-142832000D02*
X99302000Y-141432000D01*
%TO.C,TP2*%
X96302000Y-148232000D02*
X96302000Y-146832000D01*
X94902000Y-146832000D02*
X94902000Y-148232000D01*
X94902000Y-148232000D02*
X96302000Y-148232000D01*
X96302000Y-146832000D02*
X94902000Y-146832000D01*
%TO.C,TP1*%
X56302000Y-141432000D02*
X54902000Y-141432000D01*
X54902000Y-142832000D02*
X56302000Y-142832000D01*
X54902000Y-141432000D02*
X54902000Y-142832000D01*
X56302000Y-142832000D02*
X56302000Y-141432000D01*
%TO.C,TP2*%
X139302000Y-140232000D02*
X139302000Y-138832000D01*
X137902000Y-138832000D02*
X137902000Y-140232000D01*
X137902000Y-140232000D02*
X139302000Y-140232000D01*
X139302000Y-138832000D02*
X137902000Y-138832000D01*
%TO.C,TP1*%
X99302000Y-133432000D02*
X97902000Y-133432000D01*
X97902000Y-134832000D02*
X99302000Y-134832000D01*
X97902000Y-133432000D02*
X97902000Y-134832000D01*
X99302000Y-134832000D02*
X99302000Y-133432000D01*
%TO.C,TP2*%
X96302000Y-140232000D02*
X96302000Y-138832000D01*
X94902000Y-138832000D02*
X94902000Y-140232000D01*
X94902000Y-140232000D02*
X96302000Y-140232000D01*
X96302000Y-138832000D02*
X94902000Y-138832000D01*
%TO.C,TP1*%
X56302000Y-133432000D02*
X54902000Y-133432000D01*
X54902000Y-134832000D02*
X56302000Y-134832000D01*
X54902000Y-133432000D02*
X54902000Y-134832000D01*
X56302000Y-134832000D02*
X56302000Y-133432000D01*
%TO.C,TP2*%
X139302000Y-132232000D02*
X139302000Y-130832000D01*
X137902000Y-130832000D02*
X137902000Y-132232000D01*
X137902000Y-132232000D02*
X139302000Y-132232000D01*
X139302000Y-130832000D02*
X137902000Y-130832000D01*
%TO.C,TP1*%
X99302000Y-125432000D02*
X97902000Y-125432000D01*
X97902000Y-126832000D02*
X99302000Y-126832000D01*
X97902000Y-125432000D02*
X97902000Y-126832000D01*
X99302000Y-126832000D02*
X99302000Y-125432000D01*
%TO.C,TP2*%
X96302000Y-132232000D02*
X96302000Y-130832000D01*
X94902000Y-130832000D02*
X94902000Y-132232000D01*
X94902000Y-132232000D02*
X96302000Y-132232000D01*
X96302000Y-130832000D02*
X94902000Y-130832000D01*
%TO.C,TP1*%
X56302000Y-125432000D02*
X54902000Y-125432000D01*
X54902000Y-126832000D02*
X56302000Y-126832000D01*
X54902000Y-125432000D02*
X54902000Y-126832000D01*
X56302000Y-126832000D02*
X56302000Y-125432000D01*
%TO.C,TP2*%
X139302000Y-124232000D02*
X139302000Y-122832000D01*
X137902000Y-122832000D02*
X137902000Y-124232000D01*
X137902000Y-124232000D02*
X139302000Y-124232000D01*
X139302000Y-122832000D02*
X137902000Y-122832000D01*
%TO.C,TP1*%
X99302000Y-117432000D02*
X97902000Y-117432000D01*
X97902000Y-118832000D02*
X99302000Y-118832000D01*
X97902000Y-117432000D02*
X97902000Y-118832000D01*
X99302000Y-118832000D02*
X99302000Y-117432000D01*
%TO.C,TP2*%
X96302000Y-124232000D02*
X96302000Y-122832000D01*
X94902000Y-122832000D02*
X94902000Y-124232000D01*
X94902000Y-124232000D02*
X96302000Y-124232000D01*
X96302000Y-122832000D02*
X94902000Y-122832000D01*
%TO.C,TP1*%
X56302000Y-117432000D02*
X54902000Y-117432000D01*
X54902000Y-118832000D02*
X56302000Y-118832000D01*
X54902000Y-117432000D02*
X54902000Y-118832000D01*
X56302000Y-118832000D02*
X56302000Y-117432000D01*
%TO.C,TP2*%
X139302000Y-116232000D02*
X139302000Y-114832000D01*
X137902000Y-114832000D02*
X137902000Y-116232000D01*
X137902000Y-116232000D02*
X139302000Y-116232000D01*
X139302000Y-114832000D02*
X137902000Y-114832000D01*
%TO.C,TP1*%
X99302000Y-109432000D02*
X97902000Y-109432000D01*
X97902000Y-110832000D02*
X99302000Y-110832000D01*
X97902000Y-109432000D02*
X97902000Y-110832000D01*
X99302000Y-110832000D02*
X99302000Y-109432000D01*
%TO.C,TP2*%
X96302000Y-116232000D02*
X96302000Y-114832000D01*
X94902000Y-114832000D02*
X94902000Y-116232000D01*
X94902000Y-116232000D02*
X96302000Y-116232000D01*
X96302000Y-114832000D02*
X94902000Y-114832000D01*
%TO.C,TP1*%
X56302000Y-109432000D02*
X54902000Y-109432000D01*
X54902000Y-110832000D02*
X56302000Y-110832000D01*
X54902000Y-109432000D02*
X54902000Y-110832000D01*
X56302000Y-110832000D02*
X56302000Y-109432000D01*
%TO.C,TP2*%
X139302000Y-108232000D02*
X139302000Y-106832000D01*
X137902000Y-106832000D02*
X137902000Y-108232000D01*
X137902000Y-108232000D02*
X139302000Y-108232000D01*
X139302000Y-106832000D02*
X137902000Y-106832000D01*
%TO.C,TP1*%
X99302000Y-101432000D02*
X97902000Y-101432000D01*
X97902000Y-102832000D02*
X99302000Y-102832000D01*
X97902000Y-101432000D02*
X97902000Y-102832000D01*
X99302000Y-102832000D02*
X99302000Y-101432000D01*
%TO.C,TP2*%
X96302000Y-108232000D02*
X96302000Y-106832000D01*
X94902000Y-106832000D02*
X94902000Y-108232000D01*
X94902000Y-108232000D02*
X96302000Y-108232000D01*
X96302000Y-106832000D02*
X94902000Y-106832000D01*
%TO.C,TP1*%
X56302000Y-101432000D02*
X54902000Y-101432000D01*
X54902000Y-102832000D02*
X56302000Y-102832000D01*
X54902000Y-101432000D02*
X54902000Y-102832000D01*
X56302000Y-102832000D02*
X56302000Y-101432000D01*
%TO.C,TP2*%
X139302000Y-100232000D02*
X139302000Y-98832000D01*
X137902000Y-98832000D02*
X137902000Y-100232000D01*
X137902000Y-100232000D02*
X139302000Y-100232000D01*
X139302000Y-98832000D02*
X137902000Y-98832000D01*
%TO.C,TP1*%
X99302000Y-93432000D02*
X97902000Y-93432000D01*
X97902000Y-94832000D02*
X99302000Y-94832000D01*
X97902000Y-93432000D02*
X97902000Y-94832000D01*
X99302000Y-94832000D02*
X99302000Y-93432000D01*
%TO.C,TP2*%
X96302000Y-100232000D02*
X96302000Y-98832000D01*
X94902000Y-98832000D02*
X94902000Y-100232000D01*
X94902000Y-100232000D02*
X96302000Y-100232000D01*
X96302000Y-98832000D02*
X94902000Y-98832000D01*
%TO.C,TP1*%
X56302000Y-93432000D02*
X54902000Y-93432000D01*
X54902000Y-94832000D02*
X56302000Y-94832000D01*
X54902000Y-93432000D02*
X54902000Y-94832000D01*
X56302000Y-94832000D02*
X56302000Y-93432000D01*
%TO.C,TP2*%
X139302000Y-92232000D02*
X139302000Y-90832000D01*
X137902000Y-90832000D02*
X137902000Y-92232000D01*
X137902000Y-92232000D02*
X139302000Y-92232000D01*
X139302000Y-90832000D02*
X137902000Y-90832000D01*
%TO.C,TP1*%
X99302000Y-85432000D02*
X97902000Y-85432000D01*
X97902000Y-86832000D02*
X99302000Y-86832000D01*
X97902000Y-85432000D02*
X97902000Y-86832000D01*
X99302000Y-86832000D02*
X99302000Y-85432000D01*
%TO.C,TP2*%
X96302000Y-92232000D02*
X96302000Y-90832000D01*
X94902000Y-90832000D02*
X94902000Y-92232000D01*
X94902000Y-92232000D02*
X96302000Y-92232000D01*
X96302000Y-90832000D02*
X94902000Y-90832000D01*
%TO.C,TP1*%
X56302000Y-85432000D02*
X54902000Y-85432000D01*
X54902000Y-86832000D02*
X56302000Y-86832000D01*
X54902000Y-85432000D02*
X54902000Y-86832000D01*
X56302000Y-86832000D02*
X56302000Y-85432000D01*
%TO.C,TP2*%
X139302000Y-84232000D02*
X139302000Y-82832000D01*
X137902000Y-82832000D02*
X137902000Y-84232000D01*
X137902000Y-84232000D02*
X139302000Y-84232000D01*
X139302000Y-82832000D02*
X137902000Y-82832000D01*
%TO.C,TP1*%
X99302000Y-77432000D02*
X97902000Y-77432000D01*
X97902000Y-78832000D02*
X99302000Y-78832000D01*
X97902000Y-77432000D02*
X97902000Y-78832000D01*
X99302000Y-78832000D02*
X99302000Y-77432000D01*
%TO.C,TP2*%
X96302000Y-84232000D02*
X96302000Y-82832000D01*
X94902000Y-82832000D02*
X94902000Y-84232000D01*
X94902000Y-84232000D02*
X96302000Y-84232000D01*
X96302000Y-82832000D02*
X94902000Y-82832000D01*
%TO.C,TP1*%
X56302000Y-77432000D02*
X54902000Y-77432000D01*
X54902000Y-78832000D02*
X56302000Y-78832000D01*
X54902000Y-77432000D02*
X54902000Y-78832000D01*
X56302000Y-78832000D02*
X56302000Y-77432000D01*
%TO.C,TP2*%
X139302000Y-76232000D02*
X139302000Y-74832000D01*
X137902000Y-74832000D02*
X137902000Y-76232000D01*
X137902000Y-76232000D02*
X139302000Y-76232000D01*
X139302000Y-74832000D02*
X137902000Y-74832000D01*
%TO.C,TP1*%
X99302000Y-69432000D02*
X97902000Y-69432000D01*
X97902000Y-70832000D02*
X99302000Y-70832000D01*
X97902000Y-69432000D02*
X97902000Y-70832000D01*
X99302000Y-70832000D02*
X99302000Y-69432000D01*
%TO.C,TP2*%
X96302000Y-76232000D02*
X96302000Y-74832000D01*
X94902000Y-74832000D02*
X94902000Y-76232000D01*
X94902000Y-76232000D02*
X96302000Y-76232000D01*
X96302000Y-74832000D02*
X94902000Y-74832000D01*
%TO.C,TP1*%
X56302000Y-69432000D02*
X54902000Y-69432000D01*
X54902000Y-70832000D02*
X56302000Y-70832000D01*
X54902000Y-69432000D02*
X54902000Y-70832000D01*
X56302000Y-70832000D02*
X56302000Y-69432000D01*
%TO.C,TP2*%
X139302000Y-68232000D02*
X139302000Y-66832000D01*
X137902000Y-66832000D02*
X137902000Y-68232000D01*
X137902000Y-68232000D02*
X139302000Y-68232000D01*
X139302000Y-66832000D02*
X137902000Y-66832000D01*
%TO.C,TP1*%
X99302000Y-61432000D02*
X97902000Y-61432000D01*
X97902000Y-62832000D02*
X99302000Y-62832000D01*
X97902000Y-61432000D02*
X97902000Y-62832000D01*
X99302000Y-62832000D02*
X99302000Y-61432000D01*
%TO.C,TP2*%
X96302000Y-68232000D02*
X96302000Y-66832000D01*
X94902000Y-66832000D02*
X94902000Y-68232000D01*
X94902000Y-68232000D02*
X96302000Y-68232000D01*
X96302000Y-66832000D02*
X94902000Y-66832000D01*
%TO.C,TP1*%
X56302000Y-61432000D02*
X54902000Y-61432000D01*
X54902000Y-62832000D02*
X56302000Y-62832000D01*
X54902000Y-61432000D02*
X54902000Y-62832000D01*
X56302000Y-62832000D02*
X56302000Y-61432000D01*
%TO.C,TP2*%
X139302000Y-60232000D02*
X139302000Y-58832000D01*
X137902000Y-58832000D02*
X137902000Y-60232000D01*
X137902000Y-60232000D02*
X139302000Y-60232000D01*
X139302000Y-58832000D02*
X137902000Y-58832000D01*
%TO.C,TP1*%
X99302000Y-53432000D02*
X97902000Y-53432000D01*
X97902000Y-54832000D02*
X99302000Y-54832000D01*
X97902000Y-53432000D02*
X97902000Y-54832000D01*
X99302000Y-54832000D02*
X99302000Y-53432000D01*
%TO.C,TP2*%
X96302000Y-60232000D02*
X96302000Y-58832000D01*
X94902000Y-58832000D02*
X94902000Y-60232000D01*
X94902000Y-60232000D02*
X96302000Y-60232000D01*
X96302000Y-58832000D02*
X94902000Y-58832000D01*
%TO.C,TP1*%
X56302000Y-53432000D02*
X54902000Y-53432000D01*
X54902000Y-54832000D02*
X56302000Y-54832000D01*
X54902000Y-53432000D02*
X54902000Y-54832000D01*
X56302000Y-54832000D02*
X56302000Y-53432000D01*
%TD*%
M02*
