%TF.GenerationSoftware,KiCad,Pcbnew,6.0.11-2627ca5db0~126~ubuntu20.04.1*%
%TF.CreationDate,2024-08-15T22:57:34-05:00*%
%TF.ProjectId,,58585858-5858-4585-9858-585858585858,rev?*%
%TF.SameCoordinates,Original*%
%TF.FileFunction,Soldermask,Top*%
%TF.FilePolarity,Negative*%
%FSLAX46Y46*%
G04 Gerber Fmt 4.6, Leading zero omitted, Abs format (unit mm)*
G04 Created by KiCad (PCBNEW 6.0.11-2627ca5db0~126~ubuntu20.04.1) date 2024-08-15 22:57:34*
%MOMM*%
%LPD*%
G01*
G04 APERTURE LIST*
%ADD10C,1.000000*%
G04 APERTURE END LIST*
D10*
%TO.C,REF\u002A\u002A*%
X138602000Y-144832000D03*
%TD*%
%TO.C,REF\u002A\u002A*%
X98602000Y-144832000D03*
%TD*%
%TO.C,REF\u002A\u002A*%
X95602000Y-144832000D03*
%TD*%
%TO.C,REF\u002A\u002A*%
X55602000Y-144832000D03*
%TD*%
%TO.C,REF\u002A\u002A*%
X138602000Y-136832000D03*
%TD*%
%TO.C,REF\u002A\u002A*%
X98602000Y-136832000D03*
%TD*%
%TO.C,REF\u002A\u002A*%
X95602000Y-136832000D03*
%TD*%
%TO.C,REF\u002A\u002A*%
X55602000Y-136832000D03*
%TD*%
%TO.C,REF\u002A\u002A*%
X138602000Y-128832000D03*
%TD*%
%TO.C,REF\u002A\u002A*%
X98602000Y-128832000D03*
%TD*%
%TO.C,REF\u002A\u002A*%
X95602000Y-128832000D03*
%TD*%
%TO.C,REF\u002A\u002A*%
X55602000Y-128832000D03*
%TD*%
%TO.C,REF\u002A\u002A*%
X138602000Y-120832000D03*
%TD*%
%TO.C,REF\u002A\u002A*%
X98602000Y-120832000D03*
%TD*%
%TO.C,REF\u002A\u002A*%
X95602000Y-120832000D03*
%TD*%
%TO.C,REF\u002A\u002A*%
X55602000Y-120832000D03*
%TD*%
%TO.C,REF\u002A\u002A*%
X138602000Y-112832000D03*
%TD*%
%TO.C,REF\u002A\u002A*%
X98602000Y-112832000D03*
%TD*%
%TO.C,REF\u002A\u002A*%
X95602000Y-112832000D03*
%TD*%
%TO.C,REF\u002A\u002A*%
X55602000Y-112832000D03*
%TD*%
%TO.C,REF\u002A\u002A*%
X138602000Y-104832000D03*
%TD*%
%TO.C,REF\u002A\u002A*%
X98602000Y-104832000D03*
%TD*%
%TO.C,REF\u002A\u002A*%
X95602000Y-104832000D03*
%TD*%
%TO.C,REF\u002A\u002A*%
X55602000Y-104832000D03*
%TD*%
%TO.C,REF\u002A\u002A*%
X138602000Y-96832000D03*
%TD*%
%TO.C,REF\u002A\u002A*%
X98602000Y-96832000D03*
%TD*%
%TO.C,REF\u002A\u002A*%
X95602000Y-96832000D03*
%TD*%
%TO.C,REF\u002A\u002A*%
X55602000Y-96832000D03*
%TD*%
%TO.C,REF\u002A\u002A*%
X138602000Y-88832000D03*
%TD*%
%TO.C,REF\u002A\u002A*%
X98602000Y-88832000D03*
%TD*%
%TO.C,REF\u002A\u002A*%
X95602000Y-88832000D03*
%TD*%
%TO.C,REF\u002A\u002A*%
X55602000Y-88832000D03*
%TD*%
%TO.C,REF\u002A\u002A*%
X138602000Y-80832000D03*
%TD*%
%TO.C,REF\u002A\u002A*%
X98602000Y-80832000D03*
%TD*%
%TO.C,REF\u002A\u002A*%
X95602000Y-80832000D03*
%TD*%
%TO.C,REF\u002A\u002A*%
X55602000Y-80832000D03*
%TD*%
%TO.C,REF\u002A\u002A*%
X138602000Y-72832000D03*
%TD*%
%TO.C,REF\u002A\u002A*%
X98602000Y-72832000D03*
%TD*%
%TO.C,REF\u002A\u002A*%
X95602000Y-72832000D03*
%TD*%
%TO.C,REF\u002A\u002A*%
X55602000Y-72832000D03*
%TD*%
%TO.C,REF\u002A\u002A*%
X138602000Y-64832000D03*
%TD*%
%TO.C,REF\u002A\u002A*%
X98602000Y-64832000D03*
%TD*%
%TO.C,REF\u002A\u002A*%
X95602000Y-64832000D03*
%TD*%
%TO.C,REF\u002A\u002A*%
X55602000Y-64832000D03*
%TD*%
%TO.C,REF\u002A\u002A*%
X138602000Y-56832000D03*
%TD*%
%TO.C,REF\u002A\u002A*%
X98602000Y-56832000D03*
%TD*%
%TO.C,REF\u002A\u002A*%
X55602000Y-56832000D03*
%TD*%
%TO.C,REF\u002A\u002A*%
X95602000Y-56832000D03*
%TD*%
M02*
