%TF.GenerationSoftware,KiCad,Pcbnew,6.0.11-2627ca5db0~126~ubuntu20.04.1*%
%TF.CreationDate,2024-08-15T22:33:09-05:00*%
%TF.ProjectId,,58585858-5858-4585-9858-585858585858,rev?*%
%TF.SameCoordinates,Original*%
%TF.FileFunction,Soldermask,Top*%
%TF.FilePolarity,Negative*%
%FSLAX46Y46*%
G04 Gerber Fmt 4.6, Leading zero omitted, Abs format (unit mm)*
G04 Created by KiCad (PCBNEW 6.0.11-2627ca5db0~126~ubuntu20.04.1) date 2024-08-15 22:33:09*
%MOMM*%
%LPD*%
G01*
G04 APERTURE LIST*
%ADD10C,1.000000*%
G04 APERTURE END LIST*
D10*
%TO.C,REF\u002A\u002A45*%
X126669000Y-153087000D03*
%TD*%
%TO.C,REF\u002A\u002A46*%
X166669000Y-153087000D03*
%TD*%
%TO.C,REF\u002A\u002A43*%
X83669000Y-153087000D03*
%TD*%
%TO.C,REF\u002A\u002A44*%
X123669000Y-153087000D03*
%TD*%
%TO.C,REF\u002A\u002A41*%
X126669000Y-145087000D03*
%TD*%
%TO.C,REF\u002A\u002A42*%
X166669000Y-145087000D03*
%TD*%
%TO.C,REF\u002A\u002A39*%
X83669000Y-145087000D03*
%TD*%
%TO.C,REF\u002A\u002A40*%
X123669000Y-145087000D03*
%TD*%
%TO.C,REF\u002A\u002A37*%
X126669000Y-137087000D03*
%TD*%
%TO.C,REF\u002A\u002A38*%
X166669000Y-137087000D03*
%TD*%
%TO.C,REF\u002A\u002A35*%
X83669000Y-137087000D03*
%TD*%
%TO.C,REF\u002A\u002A36*%
X123669000Y-137087000D03*
%TD*%
%TO.C,REF\u002A\u002A33*%
X126669000Y-129087000D03*
%TD*%
%TO.C,REF\u002A\u002A34*%
X166669000Y-129087000D03*
%TD*%
%TO.C,REF\u002A\u002A31*%
X83669000Y-129087000D03*
%TD*%
%TO.C,REF\u002A\u002A32*%
X123669000Y-129087000D03*
%TD*%
%TO.C,REF\u002A\u002A29*%
X126669000Y-121087000D03*
%TD*%
%TO.C,REF\u002A\u002A30*%
X166669000Y-121087000D03*
%TD*%
%TO.C,REF\u002A\u002A27*%
X83669000Y-121087000D03*
%TD*%
%TO.C,REF\u002A\u002A28*%
X123669000Y-121087000D03*
%TD*%
%TO.C,REF\u002A\u002A25*%
X126669000Y-113087000D03*
%TD*%
%TO.C,REF\u002A\u002A26*%
X166669000Y-113087000D03*
%TD*%
%TO.C,REF\u002A\u002A23*%
X83669000Y-113087000D03*
%TD*%
%TO.C,REF\u002A\u002A24*%
X123669000Y-113087000D03*
%TD*%
%TO.C,REF\u002A\u002A21*%
X126669000Y-105087000D03*
%TD*%
%TO.C,REF\u002A\u002A22*%
X166669000Y-105087000D03*
%TD*%
%TO.C,REF\u002A\u002A19*%
X83669000Y-105087000D03*
%TD*%
%TO.C,REF\u002A\u002A20*%
X123669000Y-105087000D03*
%TD*%
%TO.C,REF\u002A\u002A17*%
X126669000Y-97087000D03*
%TD*%
%TO.C,REF\u002A\u002A18*%
X166669000Y-97087000D03*
%TD*%
%TO.C,REF\u002A\u002A15*%
X83669000Y-97087000D03*
%TD*%
%TO.C,REF\u002A\u002A16*%
X123669000Y-97087000D03*
%TD*%
%TO.C,REF\u002A\u002A13*%
X126669000Y-89087000D03*
%TD*%
%TO.C,REF\u002A\u002A14*%
X166669000Y-89087000D03*
%TD*%
%TO.C,REF\u002A\u002A11*%
X83669000Y-89087000D03*
%TD*%
%TO.C,REF\u002A\u002A12*%
X123669000Y-89087000D03*
%TD*%
%TO.C,REF\u002A\u002A9*%
X126669000Y-81087000D03*
%TD*%
%TO.C,REF\u002A\u002A10*%
X166669000Y-81087000D03*
%TD*%
%TO.C,REF\u002A\u002A7*%
X83669000Y-81087000D03*
%TD*%
%TO.C,REF\u002A\u002A8*%
X123669000Y-81087000D03*
%TD*%
%TO.C,REF\u002A\u002A5*%
X126669000Y-73087000D03*
%TD*%
%TO.C,REF\u002A\u002A6*%
X166669000Y-73087000D03*
%TD*%
%TO.C,REF\u002A\u002A3*%
X83669000Y-73087000D03*
%TD*%
%TO.C,REF\u002A\u002A4*%
X123669000Y-73087000D03*
%TD*%
%TO.C,REF\u002A\u002A1*%
X126669000Y-65087000D03*
%TD*%
%TO.C,REF\u002A\u002A2*%
X166669000Y-65087000D03*
%TD*%
%TO.C,REF\u002A\u002A*%
X83669000Y-65087000D03*
%TD*%
%TO.C,REF\u002A\u002A*%
X123669000Y-65087000D03*
%TD*%
M02*
