M48
; DRILL file {KiCad 6.0.11-2627ca5db0~126~ubuntu20.04.1} date jue 15 ago 2024 22:33:06
; FORMAT={-:-/ absolute / metric / decimal}
; #@! TF.CreationDate,2024-08-15T22:33:06-05:00
; #@! TF.GenerationSoftware,Kicad,Pcbnew,6.0.11-2627ca5db0~126~ubuntu20.04.1
; #@! TF.FileFunction,NonPlated,1,2,NPTH
FMAT,2
METRIC
; #@! TA.AperFunction,NonPlated,NPTH,ComponentDrill
T1C1.000
%
G90
G05
T1
X83.669Y-65.087
X83.669Y-73.087
X83.669Y-81.087
X83.669Y-89.087
X83.669Y-97.087
X83.669Y-105.087
X83.669Y-113.087
X83.669Y-121.087
X83.669Y-129.087
X83.669Y-137.087
X83.669Y-145.087
X83.669Y-153.087
X123.669Y-65.087
X123.669Y-73.087
X123.669Y-81.087
X123.669Y-89.087
X123.669Y-97.087
X123.669Y-105.087
X123.669Y-113.087
X123.669Y-121.087
X123.669Y-129.087
X123.669Y-137.087
X123.669Y-145.087
X123.669Y-153.087
X126.669Y-65.087
X126.669Y-73.087
X126.669Y-81.087
X126.669Y-89.087
X126.669Y-97.087
X126.669Y-105.087
X126.669Y-113.087
X126.669Y-121.087
X126.669Y-129.087
X126.669Y-137.087
X126.669Y-145.087
X126.669Y-153.087
X166.669Y-65.087
X166.669Y-73.087
X166.669Y-81.087
X166.669Y-89.087
X166.669Y-97.087
X166.669Y-105.087
X166.669Y-113.087
X166.669Y-121.087
X166.669Y-129.087
X166.669Y-137.087
X166.669Y-145.087
X166.669Y-153.087
T0
M30
