M48
; DRILL file {KiCad 6.0.11-2627ca5db0~126~ubuntu20.04.1} date jue 15 ago 2024 22:57:27
; FORMAT={-:-/ absolute / metric / decimal}
; #@! TF.CreationDate,2024-08-15T22:57:27-05:00
; #@! TF.GenerationSoftware,Kicad,Pcbnew,6.0.11-2627ca5db0~126~ubuntu20.04.1
; #@! TF.FileFunction,Plated,1,2,PTH
FMAT,2
METRIC
; #@! TA.AperFunction,Plated,PTH,ViaDrill
T1C0.400
%
G90
G05
T1
X55.602Y-59.532
X55.602Y-67.532
X55.602Y-75.532
X55.602Y-83.532
X55.602Y-91.532
X55.602Y-99.532
X55.602Y-107.532
X55.602Y-115.532
X55.602Y-123.532
X55.602Y-131.532
X55.602Y-139.532
X55.602Y-147.532
X95.602Y-54.132
X95.602Y-62.132
X95.602Y-70.132
X95.602Y-78.132
X95.602Y-86.132
X95.602Y-94.132
X95.602Y-102.132
X95.602Y-110.132
X95.602Y-118.132
X95.602Y-126.132
X95.602Y-134.132
X95.602Y-142.132
X98.602Y-59.532
X98.602Y-67.532
X98.602Y-75.532
X98.602Y-83.532
X98.602Y-91.532
X98.602Y-99.532
X98.602Y-107.532
X98.602Y-115.532
X98.602Y-123.532
X98.602Y-131.532
X98.602Y-139.532
X98.602Y-147.532
X138.602Y-54.132
X138.602Y-62.132
X138.602Y-70.132
X138.602Y-78.132
X138.602Y-86.132
X138.602Y-94.132
X138.602Y-102.132
X138.602Y-110.132
X138.602Y-118.132
X138.602Y-126.132
X138.602Y-134.132
X138.602Y-142.132
T0
M30
