%TF.GenerationSoftware,KiCad,Pcbnew,7.0.11+dfsg-1build4*%
%TF.CreationDate,2026-02-25T21:36:09-05:00*%
%TF.ProjectId,b04,6230342e-6b69-4636-9164-5f7063625858,rev?*%
%TF.SameCoordinates,Original*%
%TF.FileFunction,Copper,L1,Top*%
%TF.FilePolarity,Positive*%
%FSLAX46Y46*%
G04 Gerber Fmt 4.6, Leading zero omitted, Abs format (unit mm)*
G04 Created by KiCad (PCBNEW 7.0.11+dfsg-1build4) date 2026-02-25 21:36:09*
%MOMM*%
%LPD*%
G01*
G04 APERTURE LIST*
%TA.AperFunction,NonConductor*%
%ADD10C,0.500000*%
%TD*%
%TA.AperFunction,ComponentPad*%
%ADD11C,1.700000*%
%TD*%
%TA.AperFunction,ComponentPad*%
%ADD12C,1.300000*%
%TD*%
%TA.AperFunction,ComponentPad*%
%ADD13R,2.400000X2.400000*%
%TD*%
%TA.AperFunction,ComponentPad*%
%ADD14C,2.400000*%
%TD*%
%TA.AperFunction,Conductor*%
%ADD15C,1.000000*%
%TD*%
%TA.AperFunction,Profile*%
%ADD16C,0.050000*%
%TD*%
G04 APERTURE END LIST*
D10*
X89673000Y-53576000D02*
X89673000Y-38862000D01*
X160800000Y-49644000D02*
X164084000Y-49644000D01*
X93173000Y-56116000D02*
X93173000Y-53576000D01*
X101923000Y-50292000D02*
X101923000Y-53576000D01*
X103673000Y-56116000D02*
X103673000Y-53576000D01*
X115923000Y-50292000D02*
X115923000Y-53576000D01*
X158260000Y-37394000D02*
X160800000Y-37394000D01*
X110673000Y-53576000D02*
X110673000Y-38862000D01*
X115923000Y-56116000D02*
X115923000Y-53576000D01*
X160800000Y-40894000D02*
X175514000Y-40894000D01*
X158260000Y-40894000D02*
X160800000Y-40894000D01*
X87923000Y-50292000D02*
X87923000Y-53576000D01*
X100173000Y-56116000D02*
X100173000Y-53576000D01*
X160800000Y-39144000D02*
X164084000Y-39144000D01*
X160800000Y-54894000D02*
X175514000Y-54894000D01*
X158260000Y-51394000D02*
X160800000Y-51394000D01*
X158260000Y-42644000D02*
X160800000Y-42644000D01*
X158260000Y-54894000D02*
X160800000Y-54894000D01*
X160800000Y-46144000D02*
X164084000Y-46144000D01*
X110673000Y-56116000D02*
X110673000Y-53576000D01*
X96673000Y-56116000D02*
X96673000Y-53576000D01*
X94923000Y-50292000D02*
X94923000Y-53576000D01*
X82673000Y-56116000D02*
X82673000Y-53576000D01*
X93173000Y-53576000D02*
X93173000Y-38862000D01*
X105423000Y-50292000D02*
X105423000Y-53576000D01*
X91423000Y-50292000D02*
X91423000Y-53576000D01*
X158260000Y-44394000D02*
X160800000Y-44394000D01*
X108923000Y-50292000D02*
X108923000Y-53576000D01*
X107173000Y-53576000D02*
X107173000Y-38862000D01*
X158260000Y-53144000D02*
X160800000Y-53144000D01*
X98423000Y-50292000D02*
X98423000Y-53576000D01*
X160800000Y-37394000D02*
X175514000Y-37394000D01*
X108923000Y-56116000D02*
X108923000Y-53576000D01*
X107173000Y-56116000D02*
X107173000Y-53576000D01*
X158260000Y-49644000D02*
X160800000Y-49644000D01*
X84423000Y-56116000D02*
X84423000Y-53576000D01*
X86173000Y-56116000D02*
X86173000Y-53576000D01*
X112423000Y-50292000D02*
X112423000Y-53576000D01*
X114173000Y-53576000D02*
X114173000Y-38862000D01*
X105423000Y-56116000D02*
X105423000Y-53576000D01*
X100173000Y-53576000D02*
X100173000Y-38862000D01*
X158260000Y-39144000D02*
X160800000Y-39144000D01*
X160800000Y-51394000D02*
X175514000Y-51394000D01*
X160800000Y-44394000D02*
X175514000Y-44394000D01*
X158260000Y-60144000D02*
X160800000Y-60144000D01*
X160800000Y-60144000D02*
X164084000Y-60144000D01*
X158260000Y-47894000D02*
X160800000Y-47894000D01*
X101923000Y-56116000D02*
X101923000Y-53576000D01*
X98423000Y-56116000D02*
X98423000Y-53576000D01*
X112423000Y-56116000D02*
X112423000Y-53576000D01*
X158260000Y-58394000D02*
X160800000Y-58394000D01*
X89673000Y-56116000D02*
X89673000Y-53576000D01*
X103673000Y-53576000D02*
X103673000Y-38862000D01*
X114173000Y-56116000D02*
X114173000Y-53576000D01*
X86173000Y-53576000D02*
X86173000Y-38862000D01*
X94923000Y-56116000D02*
X94923000Y-53576000D01*
X158260000Y-56644000D02*
X160800000Y-56644000D01*
X82673000Y-53576000D02*
X82673000Y-38862000D01*
X160800000Y-42644000D02*
X164084000Y-42644000D01*
X87923000Y-56116000D02*
X87923000Y-53576000D01*
X160800000Y-56644000D02*
X164084000Y-56644000D01*
X160800000Y-47894000D02*
X175514000Y-47894000D01*
X160800000Y-58394000D02*
X175514000Y-58394000D01*
X96673000Y-53576000D02*
X96673000Y-38862000D01*
X84423000Y-50292000D02*
X84423000Y-53576000D01*
X158260000Y-46144000D02*
X160800000Y-46144000D01*
X91423000Y-56116000D02*
X91423000Y-53576000D01*
X160800000Y-53144000D02*
X164084000Y-53144000D01*
D11*
%TO.P,REF\u002A\u002A974,1*%
%TO.N,unconnected-(J1-Pin_1-Pad1)*%
X127254000Y-73693000D03*
%TD*%
%TO.P,REF\u002A\u002A693,1*%
%TO.N,unconnected-(J1-Pin_1-Pad1)*%
X84074000Y-58453000D03*
%TD*%
%TO.P,REF\u002A\u002A743,1*%
%TO.N,unconnected-(J1-Pin_1-Pad1)*%
X99314000Y-60993000D03*
%TD*%
%TO.P,REF\u002A\u002A789,1*%
%TO.N,unconnected-(J1-Pin_1-Pad1)*%
X104394000Y-63533000D03*
%TD*%
%TO.P,REF\u002A\u002A736,1*%
%TO.N,unconnected-(J1-Pin_1-Pad1)*%
X81534000Y-60993000D03*
%TD*%
%TO.P,REF\u002A\u002A1033,1*%
%TO.N,unconnected-(J1-Pin_1-Pad1)*%
X165354000Y-76233000D03*
%TD*%
%TO.P,REF\u002A\u002A904,1*%
%TO.N,unconnected-(J1-Pin_1-Pad1)*%
X172974000Y-68613000D03*
%TD*%
D12*
%TO.P,REF\u002A\u002A2775,1*%
%TO.N,N/C*%
X89673000Y-56116000D03*
%TD*%
D11*
%TO.P,REF\u002A\u002A790,1*%
%TO.N,unconnected-(J1-Pin_1-Pad1)*%
X106934000Y-63533000D03*
%TD*%
%TO.P,REF\u002A\u002A540,1*%
%TO.N,unconnected-(J1-Pin_1-Pad1)*%
X142494000Y-48293000D03*
%TD*%
%TO.P,REF\u002A\u002A1010,1*%
%TO.N,unconnected-(J1-Pin_1-Pad1)*%
X106934000Y-76233000D03*
%TD*%
%TO.P,REF\u002A\u002A577,1*%
%TO.N,unconnected-(J1-Pin_1-Pad1)*%
X124714000Y-50833000D03*
%TD*%
%TO.P,REF\u002A\u002A874,1*%
%TO.N,unconnected-(J1-Pin_1-Pad1)*%
X96774000Y-68613000D03*
%TD*%
%TO.P,REF\u002A\u002A402,1*%
%TO.N,unconnected-(J1-Pin_1-Pad1)*%
X127254000Y-40673000D03*
%TD*%
%TO.P,REF\u002A\u002A892,1*%
%TO.N,unconnected-(J1-Pin_1-Pad1)*%
X142494000Y-68613000D03*
%TD*%
%TO.P,REF\u002A\u002A947,1*%
%TO.N,unconnected-(J1-Pin_1-Pad1)*%
X170434000Y-71153000D03*
%TD*%
%TO.P,REF\u002A\u002A667,1*%
%TO.N,unconnected-(J1-Pin_1-Pad1)*%
X129794000Y-55913000D03*
%TD*%
%TO.P,REF\u002A\u002A752,1*%
%TO.N,unconnected-(J1-Pin_1-Pad1)*%
X122174000Y-60993000D03*
%TD*%
%TO.P,REF\u002A\u002A671,1*%
%TO.N,unconnected-(J1-Pin_1-Pad1)*%
X139954000Y-55913000D03*
%TD*%
%TO.P,REF\u002A\u002A922,1*%
%TO.N,unconnected-(J1-Pin_1-Pad1)*%
X106934000Y-71153000D03*
%TD*%
%TO.P,REF\u002A\u002A399,1*%
%TO.N,unconnected-(J1-Pin_1-Pad1)*%
X119634000Y-40673000D03*
%TD*%
%TO.P,REF\u002A\u002A896,1*%
%TO.N,unconnected-(J1-Pin_1-Pad1)*%
X152654000Y-68613000D03*
%TD*%
D12*
%TO.P,REF\u002A\u002A2775,1*%
%TO.N,N/C*%
X94923000Y-56116000D03*
%TD*%
D11*
%TO.P,REF\u002A\u002A842,1*%
%TO.N,unconnected-(J1-Pin_1-Pad1)*%
X127254000Y-66073000D03*
%TD*%
%TO.P,REF\u002A\u002A809,1*%
%TO.N,unconnected-(J1-Pin_1-Pad1)*%
X155194000Y-63533000D03*
%TD*%
%TO.P,REF\u002A\u002A799,1*%
%TO.N,unconnected-(J1-Pin_1-Pad1)*%
X129794000Y-63533000D03*
%TD*%
%TO.P,REF\u002A\u002A1007,1*%
%TO.N,unconnected-(J1-Pin_1-Pad1)*%
X99314000Y-76233000D03*
%TD*%
%TO.P,REF\u002A\u002A852,1*%
%TO.N,unconnected-(J1-Pin_1-Pad1)*%
X152654000Y-66073000D03*
%TD*%
D12*
%TO.P,REF\u002A\u002A,1*%
%TO.N,N/C*%
X160800000Y-60144000D03*
%TD*%
D11*
%TO.P,REF\u002A\u002A631,1*%
%TO.N,unconnected-(J1-Pin_1-Pad1)*%
X150114000Y-53373000D03*
%TD*%
D12*
%TO.P,REF\u002A\u002A2775,1*%
%TO.N,N/C*%
X87923000Y-53576000D03*
%TD*%
D11*
%TO.P,REF\u002A\u002A492,1*%
%TO.N,unconnected-(J1-Pin_1-Pad1)*%
X132334000Y-45753000D03*
%TD*%
%TO.P,REF\u002A\u002A800,1*%
%TO.N,unconnected-(J1-Pin_1-Pad1)*%
X132334000Y-63533000D03*
%TD*%
%TO.P,REF\u002A\u002A545,1*%
%TO.N,unconnected-(J1-Pin_1-Pad1)*%
X155194000Y-48293000D03*
%TD*%
%TO.P,REF\u002A\u002A627,1*%
%TO.N,unconnected-(J1-Pin_1-Pad1)*%
X139954000Y-53373000D03*
%TD*%
D12*
%TO.P,REF\u002A\u002A2775,1*%
%TO.N,N/C*%
X103673000Y-53576000D03*
%TD*%
D11*
%TO.P,REF\u002A\u002A888,1*%
%TO.N,unconnected-(J1-Pin_1-Pad1)*%
X132334000Y-68613000D03*
%TD*%
%TO.P,REF\u002A\u002A931,1*%
%TO.N,unconnected-(J1-Pin_1-Pad1)*%
X129794000Y-71153000D03*
%TD*%
%TO.P,REF\u002A\u002A400,1*%
%TO.N,unconnected-(J1-Pin_1-Pad1)*%
X122174000Y-40673000D03*
%TD*%
%TO.P,REF\u002A\u002A960,1*%
%TO.N,unconnected-(J1-Pin_1-Pad1)*%
X91694000Y-73693000D03*
%TD*%
%TO.P,REF\u002A\u002A853,1*%
%TO.N,unconnected-(J1-Pin_1-Pad1)*%
X155194000Y-66073000D03*
%TD*%
%TO.P,REF\u002A\u002A739,1*%
%TO.N,unconnected-(J1-Pin_1-Pad1)*%
X89154000Y-60993000D03*
%TD*%
D12*
%TO.P,REF\u002A\u002A2779,1*%
%TO.N,N/C*%
X158260000Y-56644000D03*
%TD*%
D11*
%TO.P,REF\u002A\u002A366,1*%
%TO.N,unconnected-(J1-Pin_1-Pad1)*%
X147574000Y-38133000D03*
%TD*%
%TO.P,REF\u002A\u002A586,1*%
%TO.N,unconnected-(J1-Pin_1-Pad1)*%
X147574000Y-50833000D03*
%TD*%
%TO.P,REF\u002A\u002A357,1*%
%TO.N,unconnected-(J1-Pin_1-Pad1)*%
X124714000Y-38133000D03*
%TD*%
%TO.P,REF\u002A\u002A753,1*%
%TO.N,unconnected-(J1-Pin_1-Pad1)*%
X124714000Y-60993000D03*
%TD*%
%TO.P,REF\u002A\u002A624,1*%
%TO.N,unconnected-(J1-Pin_1-Pad1)*%
X132334000Y-53373000D03*
%TD*%
%TO.P,REF\u002A\u002A450,1*%
%TO.N,unconnected-(J1-Pin_1-Pad1)*%
X137414000Y-43213000D03*
%TD*%
%TO.P,REF\u002A\u002A935,1*%
%TO.N,unconnected-(J1-Pin_1-Pad1)*%
X139954000Y-71153000D03*
%TD*%
%TO.P,REF\u002A\u002A1014,1*%
%TO.N,unconnected-(J1-Pin_1-Pad1)*%
X117094000Y-76233000D03*
%TD*%
%TO.P,REF\u002A\u002A500,1*%
%TO.N,unconnected-(J1-Pin_1-Pad1)*%
X152654000Y-45753000D03*
%TD*%
%TO.P,REF\u002A\u002A755,1*%
%TO.N,unconnected-(J1-Pin_1-Pad1)*%
X129794000Y-60993000D03*
%TD*%
%TO.P,REF\u002A\u002A403,1*%
%TO.N,unconnected-(J1-Pin_1-Pad1)*%
X129794000Y-40673000D03*
%TD*%
D12*
%TO.P,REF\u002A\u002A2775,1*%
%TO.N,N/C*%
X84423000Y-56116000D03*
%TD*%
D11*
%TO.P,REF\u002A\u002A632,1*%
%TO.N,unconnected-(J1-Pin_1-Pad1)*%
X152654000Y-53373000D03*
%TD*%
D12*
%TO.P,REF\u002A\u002A2775,1*%
%TO.N,N/C*%
X101923000Y-53576000D03*
%TD*%
D11*
%TO.P,REF\u002A\u002A968,1*%
%TO.N,unconnected-(J1-Pin_1-Pad1)*%
X112014000Y-73693000D03*
%TD*%
D12*
%TO.P,REF\u002A\u002A2775,1*%
%TO.N,N/C*%
X110673000Y-53576000D03*
%TD*%
D11*
%TO.P,REF\u002A\u002A669,1*%
%TO.N,unconnected-(J1-Pin_1-Pad1)*%
X134874000Y-55913000D03*
%TD*%
%TO.P,REF\u002A\u002A745,1*%
%TO.N,unconnected-(J1-Pin_1-Pad1)*%
X104394000Y-60993000D03*
%TD*%
%TO.P,REF\u002A\u002A894,1*%
%TO.N,unconnected-(J1-Pin_1-Pad1)*%
X147574000Y-68613000D03*
%TD*%
%TO.P,REF\u002A\u002A932,1*%
%TO.N,unconnected-(J1-Pin_1-Pad1)*%
X132334000Y-71153000D03*
%TD*%
%TO.P,REF\u002A\u002A1038,1*%
%TO.N,unconnected-(J1-Pin_1-Pad1)*%
X178054000Y-76233000D03*
%TD*%
%TO.P,REF\u002A\u002A855,1*%
%TO.N,unconnected-(J1-Pin_1-Pad1)*%
X170434000Y-66073000D03*
%TD*%
D12*
%TO.P,REF\u002A\u002A2775,1*%
%TO.N,N/C*%
X107173000Y-56116000D03*
%TD*%
D11*
%TO.P,REF\u002A\u002A355,1*%
%TO.N,unconnected-(J1-Pin_1-Pad1)*%
X119634000Y-38133000D03*
%TD*%
%TO.P,REF\u002A\u002A619,1*%
%TO.N,unconnected-(J1-Pin_1-Pad1)*%
X119634000Y-53373000D03*
%TD*%
%TO.P,REF\u002A\u002A750,1*%
%TO.N,unconnected-(J1-Pin_1-Pad1)*%
X117094000Y-60993000D03*
%TD*%
%TO.P,REF\u002A\u002A987,1*%
%TO.N,unconnected-(J1-Pin_1-Pad1)*%
X160274000Y-73693000D03*
%TD*%
%TO.P,REF\u002A\u002A938,1*%
%TO.N,unconnected-(J1-Pin_1-Pad1)*%
X147574000Y-71153000D03*
%TD*%
%TO.P,REF\u002A\u002A943,1*%
%TO.N,unconnected-(J1-Pin_1-Pad1)*%
X160274000Y-71153000D03*
%TD*%
D12*
%TO.P,REF\u002A\u002A2794,1*%
%TO.N,N/C*%
X160800000Y-42644000D03*
%TD*%
%TO.P,REF\u002A\u002A2775,1*%
%TO.N,N/C*%
X86173000Y-56116000D03*
%TD*%
D11*
%TO.P,REF\u002A\u002A788,1*%
%TO.N,unconnected-(J1-Pin_1-Pad1)*%
X101854000Y-63533000D03*
%TD*%
%TO.P,REF\u002A\u002A982,1*%
%TO.N,unconnected-(J1-Pin_1-Pad1)*%
X147574000Y-73693000D03*
%TD*%
%TO.P,REF\u002A\u002A841,1*%
%TO.N,unconnected-(J1-Pin_1-Pad1)*%
X124714000Y-66073000D03*
%TD*%
%TO.P,REF\u002A\u002A893,1*%
%TO.N,unconnected-(J1-Pin_1-Pad1)*%
X145034000Y-68613000D03*
%TD*%
%TO.P,REF\u002A\u002A630,1*%
%TO.N,unconnected-(J1-Pin_1-Pad1)*%
X147574000Y-53373000D03*
%TD*%
%TO.P,REF\u002A\u002A976,1*%
%TO.N,unconnected-(J1-Pin_1-Pad1)*%
X132334000Y-73693000D03*
%TD*%
%TO.P,REF\u002A\u002A861,1*%
%TO.N,unconnected-(J1-Pin_1-Pad1)*%
X175514000Y-66073000D03*
%TD*%
%TO.P,REF\u002A\u002A862,1*%
%TO.N,unconnected-(J1-Pin_1-Pad1)*%
X178054000Y-66073000D03*
%TD*%
%TO.P,REF\u002A\u002A1022,1*%
%TO.N,unconnected-(J1-Pin_1-Pad1)*%
X137414000Y-76233000D03*
%TD*%
D12*
%TO.P,REF\u002A\u002A2775,1*%
%TO.N,N/C*%
X101923000Y-56116000D03*
%TD*%
D11*
%TO.P,REF\u002A\u002A902,1*%
%TO.N,unconnected-(J1-Pin_1-Pad1)*%
X167894000Y-68613000D03*
%TD*%
%TO.P,REF\u002A\u002A945,1*%
%TO.N,unconnected-(J1-Pin_1-Pad1)*%
X165354000Y-71153000D03*
%TD*%
%TO.P,REF\u002A\u002A964,1*%
%TO.N,unconnected-(J1-Pin_1-Pad1)*%
X101854000Y-73693000D03*
%TD*%
%TO.P,REF\u002A\u002A1005,1*%
%TO.N,unconnected-(J1-Pin_1-Pad1)*%
X94234000Y-76233000D03*
%TD*%
%TO.P,REF\u002A\u002A844,1*%
%TO.N,unconnected-(J1-Pin_1-Pad1)*%
X132334000Y-66073000D03*
%TD*%
%TO.P,REF\u002A\u002A363,1*%
%TO.N,unconnected-(J1-Pin_1-Pad1)*%
X139954000Y-38133000D03*
%TD*%
%TO.P,REF\u002A\u002A759,1*%
%TO.N,unconnected-(J1-Pin_1-Pad1)*%
X139954000Y-60993000D03*
%TD*%
%TO.P,REF\u002A\u002A492,1*%
%TO.N,unconnected-(J1-Pin_1-Pad1)*%
X139954000Y-48293000D03*
%TD*%
%TO.P,REF\u002A\u002A367,1*%
%TO.N,unconnected-(J1-Pin_1-Pad1)*%
X150114000Y-38133000D03*
%TD*%
%TO.P,REF\u002A\u002A940,1*%
%TO.N,unconnected-(J1-Pin_1-Pad1)*%
X152654000Y-71153000D03*
%TD*%
%TO.P,REF\u002A\u002A925,1*%
%TO.N,unconnected-(J1-Pin_1-Pad1)*%
X114554000Y-71153000D03*
%TD*%
%TO.P,REF\u002A\u002A361,1*%
%TO.N,unconnected-(J1-Pin_1-Pad1)*%
X134874000Y-38133000D03*
%TD*%
%TO.P,REF\u002A\u002A962,1*%
%TO.N,unconnected-(J1-Pin_1-Pad1)*%
X96774000Y-73693000D03*
%TD*%
D12*
%TO.P,REF\u002A\u002A2787,1*%
%TO.N,N/C*%
X158260000Y-49644000D03*
%TD*%
%TO.P,REF\u002A\u002A2799,1*%
%TO.N,N/C*%
X158260000Y-39144000D03*
%TD*%
D11*
%TO.P,REF\u002A\u002A1021,1*%
%TO.N,unconnected-(J1-Pin_1-Pad1)*%
X134874000Y-76233000D03*
%TD*%
%TO.P,REF\u002A\u002A717,1*%
%TO.N,unconnected-(J1-Pin_1-Pad1)*%
X145034000Y-58453000D03*
%TD*%
%TO.P,REF\u002A\u002A628,1*%
%TO.N,unconnected-(J1-Pin_1-Pad1)*%
X142494000Y-53373000D03*
%TD*%
%TO.P,REF\u002A\u002A761,1*%
%TO.N,unconnected-(J1-Pin_1-Pad1)*%
X145034000Y-60993000D03*
%TD*%
%TO.P,REF\u002A\u002A905,1*%
%TO.N,unconnected-(J1-Pin_1-Pad1)*%
X175514000Y-68613000D03*
%TD*%
%TO.P,REF\u002A\u002A455,1*%
%TO.N,unconnected-(J1-Pin_1-Pad1)*%
X150114000Y-43213000D03*
%TD*%
%TO.P,REF\u002A\u002A674,1*%
%TO.N,unconnected-(J1-Pin_1-Pad1)*%
X147574000Y-55913000D03*
%TD*%
D12*
%TO.P,REF\u002A\u002A2775,1*%
%TO.N,N/C*%
X108923000Y-56116000D03*
%TD*%
D11*
%TO.P,REF\u002A\u002A492,1*%
%TO.N,unconnected-(J1-Pin_1-Pad1)*%
X132334000Y-50833000D03*
%TD*%
%TO.P,REF\u002A\u002A977,1*%
%TO.N,unconnected-(J1-Pin_1-Pad1)*%
X134874000Y-73693000D03*
%TD*%
%TO.P,REF\u002A\u002A831,1*%
%TO.N,unconnected-(J1-Pin_1-Pad1)*%
X99314000Y-66073000D03*
%TD*%
%TO.P,REF\u002A\u002A1008,1*%
%TO.N,unconnected-(J1-Pin_1-Pad1)*%
X101854000Y-76233000D03*
%TD*%
%TO.P,REF\u002A\u002A980,1*%
%TO.N,unconnected-(J1-Pin_1-Pad1)*%
X142494000Y-73693000D03*
%TD*%
%TO.P,REF\u002A\u002A993,1*%
%TO.N,unconnected-(J1-Pin_1-Pad1)*%
X175514000Y-73693000D03*
%TD*%
%TO.P,REF\u002A\u002A756,1*%
%TO.N,unconnected-(J1-Pin_1-Pad1)*%
X132334000Y-60993000D03*
%TD*%
%TO.P,REF\u002A\u002A369,1*%
%TO.N,unconnected-(J1-Pin_1-Pad1)*%
X155194000Y-38133000D03*
%TD*%
%TO.P,REF\u002A\u002A707,1*%
%TO.N,unconnected-(J1-Pin_1-Pad1)*%
X119634000Y-58453000D03*
%TD*%
D12*
%TO.P,REF\u002A\u002A2798,1*%
%TO.N,N/C*%
X160800000Y-39144000D03*
%TD*%
D11*
%TO.P,REF\u002A\u002A718,1*%
%TO.N,unconnected-(J1-Pin_1-Pad1)*%
X147574000Y-58453000D03*
%TD*%
%TO.P,REF\u002A\u002A453,1*%
%TO.N,unconnected-(J1-Pin_1-Pad1)*%
X145034000Y-43213000D03*
%TD*%
%TO.P,REF\u002A\u002A797,1*%
%TO.N,unconnected-(J1-Pin_1-Pad1)*%
X124714000Y-63533000D03*
%TD*%
%TO.P,REF\u002A\u002A1034,1*%
%TO.N,unconnected-(J1-Pin_1-Pad1)*%
X167894000Y-76233000D03*
%TD*%
D12*
%TO.P,REF\u002A\u002A2775,1*%
%TO.N,N/C*%
X110673000Y-56116000D03*
%TD*%
D11*
%TO.P,REF\u002A\u002A791,1*%
%TO.N,unconnected-(J1-Pin_1-Pad1)*%
X109474000Y-63533000D03*
%TD*%
%TO.P,REF\u002A\u002A533,1*%
%TO.N,unconnected-(J1-Pin_1-Pad1)*%
X124714000Y-48293000D03*
%TD*%
D12*
%TO.P,REF\u002A\u002A2775,1*%
%TO.N,N/C*%
X91423000Y-53576000D03*
%TD*%
D11*
%TO.P,REF\u002A\u002A1011,1*%
%TO.N,unconnected-(J1-Pin_1-Pad1)*%
X109474000Y-76233000D03*
%TD*%
%TO.P,REF\u002A\u002A456,1*%
%TO.N,unconnected-(J1-Pin_1-Pad1)*%
X152654000Y-43213000D03*
%TD*%
%TO.P,REF\u002A\u002A489,1*%
%TO.N,unconnected-(J1-Pin_1-Pad1)*%
X124714000Y-45753000D03*
%TD*%
%TO.P,REF\u002A\u002A405,1*%
%TO.N,unconnected-(J1-Pin_1-Pad1)*%
X134874000Y-40673000D03*
%TD*%
%TO.P,REF\u002A\u002A845,1*%
%TO.N,unconnected-(J1-Pin_1-Pad1)*%
X134874000Y-66073000D03*
%TD*%
%TO.P,REF\u002A\u002A1002,1*%
%TO.N,unconnected-(J1-Pin_1-Pad1)*%
X86614000Y-76233000D03*
%TD*%
%TO.P,REF\u002A\u002A535,1*%
%TO.N,unconnected-(J1-Pin_1-Pad1)*%
X129794000Y-48293000D03*
%TD*%
%TO.P,REF\u002A\u002A783,1*%
%TO.N,unconnected-(J1-Pin_1-Pad1)*%
X89154000Y-63533000D03*
%TD*%
D12*
%TO.P,REF\u002A\u002A2775,1*%
%TO.N,N/C*%
X98423000Y-56116000D03*
%TD*%
D11*
%TO.P,REF\u002A\u002A496,1*%
%TO.N,unconnected-(J1-Pin_1-Pad1)*%
X142494000Y-45753000D03*
%TD*%
%TO.P,REF\u002A\u002A879,1*%
%TO.N,unconnected-(J1-Pin_1-Pad1)*%
X109474000Y-68613000D03*
%TD*%
%TO.P,REF\u002A\u002A720,1*%
%TO.N,unconnected-(J1-Pin_1-Pad1)*%
X152654000Y-58453000D03*
%TD*%
%TO.P,REF\u002A\u002A754,1*%
%TO.N,unconnected-(J1-Pin_1-Pad1)*%
X127254000Y-60993000D03*
%TD*%
%TO.P,REF\u002A\u002A956,1*%
%TO.N,unconnected-(J1-Pin_1-Pad1)*%
X81534000Y-73693000D03*
%TD*%
%TO.P,REF\u002A\u002A492,1*%
%TO.N,unconnected-(J1-Pin_1-Pad1)*%
X134874000Y-48293000D03*
%TD*%
%TO.P,REF\u002A\u002A784,1*%
%TO.N,unconnected-(J1-Pin_1-Pad1)*%
X91694000Y-63533000D03*
%TD*%
%TO.P,REF\u002A\u002A958,1*%
%TO.N,unconnected-(J1-Pin_1-Pad1)*%
X86614000Y-73693000D03*
%TD*%
%TO.P,REF\u002A\u002A741,1*%
%TO.N,unconnected-(J1-Pin_1-Pad1)*%
X94234000Y-60993000D03*
%TD*%
%TO.P,REF\u002A\u002A855,1*%
%TO.N,unconnected-(J1-Pin_1-Pad1)*%
X160274000Y-66073000D03*
%TD*%
D12*
%TO.P,REF\u002A\u002A2775,1*%
%TO.N,N/C*%
X105423000Y-56116000D03*
%TD*%
D11*
%TO.P,REF\u002A\u002A1015,1*%
%TO.N,unconnected-(J1-Pin_1-Pad1)*%
X119634000Y-76233000D03*
%TD*%
%TO.P,REF\u002A\u002A492,1*%
%TO.N,unconnected-(J1-Pin_1-Pad1)*%
X139954000Y-50833000D03*
%TD*%
%TO.P,REF\u002A\u002A497,1*%
%TO.N,unconnected-(J1-Pin_1-Pad1)*%
X145034000Y-45753000D03*
%TD*%
%TO.P,REF\u002A\u002A782,1*%
%TO.N,unconnected-(J1-Pin_1-Pad1)*%
X86614000Y-63533000D03*
%TD*%
%TO.P,REF\u002A\u002A364,1*%
%TO.N,unconnected-(J1-Pin_1-Pad1)*%
X142494000Y-38133000D03*
%TD*%
%TO.P,REF\u002A\u002A747,1*%
%TO.N,unconnected-(J1-Pin_1-Pad1)*%
X109474000Y-60993000D03*
%TD*%
%TO.P,REF\u002A\u002A929,1*%
%TO.N,unconnected-(J1-Pin_1-Pad1)*%
X124714000Y-71153000D03*
%TD*%
%TO.P,REF\u002A\u002A965,1*%
%TO.N,unconnected-(J1-Pin_1-Pad1)*%
X104394000Y-73693000D03*
%TD*%
%TO.P,REF\u002A\u002A623,1*%
%TO.N,unconnected-(J1-Pin_1-Pad1)*%
X129794000Y-53373000D03*
%TD*%
%TO.P,REF\u002A\u002A889,1*%
%TO.N,unconnected-(J1-Pin_1-Pad1)*%
X134874000Y-68613000D03*
%TD*%
%TO.P,REF\u002A\u002A1018,1*%
%TO.N,unconnected-(J1-Pin_1-Pad1)*%
X127254000Y-76233000D03*
%TD*%
%TO.P,REF\u002A\u002A675,1*%
%TO.N,unconnected-(J1-Pin_1-Pad1)*%
X150114000Y-55913000D03*
%TD*%
%TO.P,REF\u002A\u002A702,1*%
%TO.N,unconnected-(J1-Pin_1-Pad1)*%
X106934000Y-58453000D03*
%TD*%
D12*
%TO.P,REF\u002A\u002A2775,1*%
%TO.N,N/C*%
X114173000Y-56116000D03*
%TD*%
D11*
%TO.P,REF\u002A\u002A740,1*%
%TO.N,unconnected-(J1-Pin_1-Pad1)*%
X91694000Y-60993000D03*
%TD*%
%TO.P,REF\u002A\u002A872,1*%
%TO.N,unconnected-(J1-Pin_1-Pad1)*%
X91694000Y-68613000D03*
%TD*%
%TO.P,REF\u002A\u002A891,1*%
%TO.N,unconnected-(J1-Pin_1-Pad1)*%
X139954000Y-68613000D03*
%TD*%
%TO.P,REF\u002A\u002A765,1*%
%TO.N,unconnected-(J1-Pin_1-Pad1)*%
X155194000Y-60993000D03*
%TD*%
%TO.P,REF\u002A\u002A880,1*%
%TO.N,unconnected-(J1-Pin_1-Pad1)*%
X112014000Y-68613000D03*
%TD*%
%TO.P,REF\u002A\u002A719,1*%
%TO.N,unconnected-(J1-Pin_1-Pad1)*%
X150114000Y-58453000D03*
%TD*%
%TO.P,REF\u002A\u002A886,1*%
%TO.N,unconnected-(J1-Pin_1-Pad1)*%
X127254000Y-68613000D03*
%TD*%
%TO.P,REF\u002A\u002A412,1*%
%TO.N,unconnected-(J1-Pin_1-Pad1)*%
X152654000Y-40673000D03*
%TD*%
%TO.P,REF\u002A\u002A751,1*%
%TO.N,unconnected-(J1-Pin_1-Pad1)*%
X119634000Y-60993000D03*
%TD*%
%TO.P,REF\u002A\u002A878,1*%
%TO.N,unconnected-(J1-Pin_1-Pad1)*%
X106934000Y-68613000D03*
%TD*%
%TO.P,REF\u002A\u002A882,1*%
%TO.N,unconnected-(J1-Pin_1-Pad1)*%
X117094000Y-68613000D03*
%TD*%
%TO.P,REF\u002A\u002A757,1*%
%TO.N,unconnected-(J1-Pin_1-Pad1)*%
X134874000Y-60993000D03*
%TD*%
%TO.P,REF\u002A\u002A1024,1*%
%TO.N,unconnected-(J1-Pin_1-Pad1)*%
X142494000Y-76233000D03*
%TD*%
%TO.P,REF\u002A\u002A793,1*%
%TO.N,unconnected-(J1-Pin_1-Pad1)*%
X114554000Y-63533000D03*
%TD*%
%TO.P,REF\u002A\u002A942,1*%
%TO.N,unconnected-(J1-Pin_1-Pad1)*%
X157734000Y-71153000D03*
%TD*%
%TO.P,REF\u002A\u002A824,1*%
%TO.N,unconnected-(J1-Pin_1-Pad1)*%
X81534000Y-66073000D03*
%TD*%
%TO.P,REF\u002A\u002A828,1*%
%TO.N,unconnected-(J1-Pin_1-Pad1)*%
X91694000Y-66073000D03*
%TD*%
D12*
%TO.P,REF\u002A\u002A2775,1*%
%TO.N,N/C*%
X158260000Y-60144000D03*
%TD*%
D11*
%TO.P,REF\u002A\u002A884,1*%
%TO.N,unconnected-(J1-Pin_1-Pad1)*%
X122174000Y-68613000D03*
%TD*%
%TO.P,REF\u002A\u002A714,1*%
%TO.N,unconnected-(J1-Pin_1-Pad1)*%
X137414000Y-58453000D03*
%TD*%
%TO.P,REF\u002A\u002A492,1*%
%TO.N,unconnected-(J1-Pin_1-Pad1)*%
X132334000Y-48293000D03*
%TD*%
%TO.P,REF\u002A\u002A737,1*%
%TO.N,unconnected-(J1-Pin_1-Pad1)*%
X84074000Y-60993000D03*
%TD*%
D12*
%TO.P,REF\u002A\u002A2775,1*%
%TO.N,N/C*%
X82673000Y-56116000D03*
%TD*%
D11*
%TO.P,REF\u002A\u002A401,1*%
%TO.N,unconnected-(J1-Pin_1-Pad1)*%
X124714000Y-40673000D03*
%TD*%
%TO.P,REF\u002A\u002A946,1*%
%TO.N,unconnected-(J1-Pin_1-Pad1)*%
X167894000Y-71153000D03*
%TD*%
D12*
%TO.P,REF\u002A\u002A2775,1*%
%TO.N,N/C*%
X96673000Y-56116000D03*
%TD*%
D11*
%TO.P,REF\u002A\u002A534,1*%
%TO.N,unconnected-(J1-Pin_1-Pad1)*%
X127254000Y-48293000D03*
%TD*%
%TO.P,REF\u002A\u002A830,1*%
%TO.N,unconnected-(J1-Pin_1-Pad1)*%
X96774000Y-66073000D03*
%TD*%
%TO.P,REF\u002A\u002A1031,1*%
%TO.N,unconnected-(J1-Pin_1-Pad1)*%
X160274000Y-76233000D03*
%TD*%
%TO.P,REF\u002A\u002A826,1*%
%TO.N,unconnected-(J1-Pin_1-Pad1)*%
X86614000Y-66073000D03*
%TD*%
D12*
%TO.P,REF\u002A\u002A2784,1*%
%TO.N,N/C*%
X160800000Y-51394000D03*
%TD*%
%TO.P,REF\u002A\u002A2775,1*%
%TO.N,N/C*%
X84423000Y-53576000D03*
%TD*%
D11*
%TO.P,REF\u002A\u002A854,1*%
%TO.N,unconnected-(J1-Pin_1-Pad1)*%
X157734000Y-66073000D03*
%TD*%
%TO.P,REF\u002A\u002A792,1*%
%TO.N,unconnected-(J1-Pin_1-Pad1)*%
X112014000Y-63533000D03*
%TD*%
%TO.P,REF\u002A\u002A365,1*%
%TO.N,unconnected-(J1-Pin_1-Pad1)*%
X145034000Y-38133000D03*
%TD*%
%TO.P,REF\u002A\u002A492,1*%
%TO.N,unconnected-(J1-Pin_1-Pad1)*%
X134874000Y-45753000D03*
%TD*%
%TO.P,REF\u002A\u002A840,1*%
%TO.N,unconnected-(J1-Pin_1-Pad1)*%
X122174000Y-66073000D03*
%TD*%
%TO.P,REF\u002A\u002A900,1*%
%TO.N,unconnected-(J1-Pin_1-Pad1)*%
X162814000Y-68613000D03*
%TD*%
%TO.P,REF\u002A\u002A492,1*%
%TO.N,unconnected-(J1-Pin_1-Pad1)*%
X134874000Y-50833000D03*
%TD*%
D12*
%TO.P,REF\u002A\u002A2786,1*%
%TO.N,N/C*%
X160800000Y-49644000D03*
%TD*%
%TO.P,REF\u002A\u002A2775,1*%
%TO.N,N/C*%
X108923000Y-53576000D03*
%TD*%
D11*
%TO.P,REF\u002A\u002A781,1*%
%TO.N,unconnected-(J1-Pin_1-Pad1)*%
X84074000Y-63533000D03*
%TD*%
%TO.P,REF\u002A\u002A492,1*%
%TO.N,unconnected-(J1-Pin_1-Pad1)*%
X137414000Y-45753000D03*
%TD*%
D12*
%TO.P,REF\u002A\u002A2775,1*%
%TO.N,N/C*%
X82673000Y-53576000D03*
%TD*%
D11*
%TO.P,REF\u002A\u002A978,1*%
%TO.N,unconnected-(J1-Pin_1-Pad1)*%
X137414000Y-73693000D03*
%TD*%
%TO.P,REF\u002A\u002A1004,1*%
%TO.N,unconnected-(J1-Pin_1-Pad1)*%
X91694000Y-76233000D03*
%TD*%
%TO.P,REF\u002A\u002A1025,1*%
%TO.N,unconnected-(J1-Pin_1-Pad1)*%
X145034000Y-76233000D03*
%TD*%
%TO.P,REF\u002A\u002A1027,1*%
%TO.N,unconnected-(J1-Pin_1-Pad1)*%
X150114000Y-76233000D03*
%TD*%
%TO.P,REF\u002A\u002A897,1*%
%TO.N,unconnected-(J1-Pin_1-Pad1)*%
X155194000Y-68613000D03*
%TD*%
%TO.P,REF\u002A\u002A413,1*%
%TO.N,unconnected-(J1-Pin_1-Pad1)*%
X155194000Y-40673000D03*
%TD*%
%TO.P,REF\u002A\u002A786,1*%
%TO.N,unconnected-(J1-Pin_1-Pad1)*%
X96774000Y-63533000D03*
%TD*%
D12*
%TO.P,REF\u002A\u002A2775,1*%
%TO.N,N/C*%
X112423000Y-56116000D03*
%TD*%
D11*
%TO.P,REF\u002A\u002A808,1*%
%TO.N,unconnected-(J1-Pin_1-Pad1)*%
X152654000Y-63533000D03*
%TD*%
%TO.P,REF\u002A\u002A825,1*%
%TO.N,unconnected-(J1-Pin_1-Pad1)*%
X84074000Y-66073000D03*
%TD*%
D12*
%TO.P,REF\u002A\u002A2775,1*%
%TO.N,N/C*%
X105423000Y-53576000D03*
%TD*%
D11*
%TO.P,REF\u002A\u002A927,1*%
%TO.N,unconnected-(J1-Pin_1-Pad1)*%
X119634000Y-71153000D03*
%TD*%
%TO.P,REF\u002A\u002A855,1*%
%TO.N,unconnected-(J1-Pin_1-Pad1)*%
X162814000Y-66073000D03*
%TD*%
%TO.P,REF\u002A\u002A1028,1*%
%TO.N,unconnected-(J1-Pin_1-Pad1)*%
X152654000Y-76233000D03*
%TD*%
%TO.P,REF\u002A\u002A939,1*%
%TO.N,unconnected-(J1-Pin_1-Pad1)*%
X150114000Y-71153000D03*
%TD*%
%TO.P,REF\u002A\u002A362,1*%
%TO.N,unconnected-(J1-Pin_1-Pad1)*%
X137414000Y-38133000D03*
%TD*%
%TO.P,REF\u002A\u002A452,1*%
%TO.N,unconnected-(J1-Pin_1-Pad1)*%
X142494000Y-43213000D03*
%TD*%
%TO.P,REF\u002A\u002A959,1*%
%TO.N,unconnected-(J1-Pin_1-Pad1)*%
X89154000Y-73693000D03*
%TD*%
%TO.P,REF\u002A\u002A992,1*%
%TO.N,unconnected-(J1-Pin_1-Pad1)*%
X172974000Y-73693000D03*
%TD*%
%TO.P,REF\u002A\u002A501,1*%
%TO.N,unconnected-(J1-Pin_1-Pad1)*%
X155194000Y-45753000D03*
%TD*%
%TO.P,REF\u002A\u002A979,1*%
%TO.N,unconnected-(J1-Pin_1-Pad1)*%
X139954000Y-73693000D03*
%TD*%
D12*
%TO.P,REF\u002A\u002A2792,1*%
%TO.N,N/C*%
X160800000Y-44394000D03*
%TD*%
%TO.P,REF\u002A\u002A2778,1*%
%TO.N,N/C*%
X160800000Y-56644000D03*
%TD*%
D11*
%TO.P,REF\u002A\u002A495,1*%
%TO.N,unconnected-(J1-Pin_1-Pad1)*%
X139954000Y-45753000D03*
%TD*%
%TO.P,REF\u002A\u002A622,1*%
%TO.N,unconnected-(J1-Pin_1-Pad1)*%
X127254000Y-53373000D03*
%TD*%
%TO.P,REF\u002A\u002A988,1*%
%TO.N,unconnected-(J1-Pin_1-Pad1)*%
X162814000Y-73693000D03*
%TD*%
%TO.P,REF\u002A\u002A957,1*%
%TO.N,unconnected-(J1-Pin_1-Pad1)*%
X84074000Y-73693000D03*
%TD*%
%TO.P,REF\u002A\u002A457,1*%
%TO.N,unconnected-(J1-Pin_1-Pad1)*%
X155194000Y-43213000D03*
%TD*%
%TO.P,REF\u002A\u002A449,1*%
%TO.N,unconnected-(J1-Pin_1-Pad1)*%
X134874000Y-43213000D03*
%TD*%
%TO.P,REF\u002A\u002A839,1*%
%TO.N,unconnected-(J1-Pin_1-Pad1)*%
X119634000Y-66073000D03*
%TD*%
D12*
%TO.P,REF\u002A\u002A2775,1*%
%TO.N,N/C*%
X103673000Y-56116000D03*
%TD*%
D11*
%TO.P,REF\u002A\u002A492,1*%
%TO.N,unconnected-(J1-Pin_1-Pad1)*%
X134874000Y-53373000D03*
%TD*%
%TO.P,REF\u002A\u002A704,1*%
%TO.N,unconnected-(J1-Pin_1-Pad1)*%
X112014000Y-58453000D03*
%TD*%
%TO.P,REF\u002A\u002A738,1*%
%TO.N,unconnected-(J1-Pin_1-Pad1)*%
X86614000Y-60993000D03*
%TD*%
%TO.P,REF\u002A\u002A588,1*%
%TO.N,unconnected-(J1-Pin_1-Pad1)*%
X152654000Y-50833000D03*
%TD*%
%TO.P,REF\u002A\u002A543,1*%
%TO.N,unconnected-(J1-Pin_1-Pad1)*%
X150114000Y-48293000D03*
%TD*%
D12*
%TO.P,REF\u002A\u002A2776,1*%
%TO.N,N/C*%
X160800000Y-58394000D03*
%TD*%
%TO.P,REF\u002A\u002A2775,1*%
%TO.N,N/C*%
X100173000Y-56116000D03*
%TD*%
D11*
%TO.P,REF\u002A\u002A1006,1*%
%TO.N,unconnected-(J1-Pin_1-Pad1)*%
X96774000Y-76233000D03*
%TD*%
%TO.P,REF\u002A\u002A1013,1*%
%TO.N,unconnected-(J1-Pin_1-Pad1)*%
X114554000Y-76233000D03*
%TD*%
%TO.P,REF\u002A\u002A985,1*%
%TO.N,unconnected-(J1-Pin_1-Pad1)*%
X155194000Y-73693000D03*
%TD*%
%TO.P,REF\u002A\u002A633,1*%
%TO.N,unconnected-(J1-Pin_1-Pad1)*%
X155194000Y-53373000D03*
%TD*%
%TO.P,REF\u002A\u002A697,1*%
%TO.N,unconnected-(J1-Pin_1-Pad1)*%
X94234000Y-58453000D03*
%TD*%
%TO.P,REF\u002A\u002A705,1*%
%TO.N,unconnected-(J1-Pin_1-Pad1)*%
X114554000Y-58453000D03*
%TD*%
%TO.P,REF\u002A\u002A923,1*%
%TO.N,unconnected-(J1-Pin_1-Pad1)*%
X109474000Y-71153000D03*
%TD*%
%TO.P,REF\u002A\u002A835,1*%
%TO.N,unconnected-(J1-Pin_1-Pad1)*%
X109474000Y-66073000D03*
%TD*%
%TO.P,REF\u002A\u002A890,1*%
%TO.N,unconnected-(J1-Pin_1-Pad1)*%
X137414000Y-68613000D03*
%TD*%
%TO.P,REF\u002A\u002A666,1*%
%TO.N,unconnected-(J1-Pin_1-Pad1)*%
X127254000Y-55913000D03*
%TD*%
%TO.P,REF\u002A\u002A1020,1*%
%TO.N,unconnected-(J1-Pin_1-Pad1)*%
X132334000Y-76233000D03*
%TD*%
%TO.P,REF\u002A\u002A358,1*%
%TO.N,unconnected-(J1-Pin_1-Pad1)*%
X127254000Y-38133000D03*
%TD*%
%TO.P,REF\u002A\u002A446,1*%
%TO.N,unconnected-(J1-Pin_1-Pad1)*%
X127254000Y-43213000D03*
%TD*%
%TO.P,REF\u002A\u002A744,1*%
%TO.N,unconnected-(J1-Pin_1-Pad1)*%
X101854000Y-60993000D03*
%TD*%
%TO.P,REF\u002A\u002A881,1*%
%TO.N,unconnected-(J1-Pin_1-Pad1)*%
X114554000Y-68613000D03*
%TD*%
%TO.P,REF\u002A\u002A748,1*%
%TO.N,unconnected-(J1-Pin_1-Pad1)*%
X112014000Y-60993000D03*
%TD*%
%TO.P,REF\u002A\u002A448,1*%
%TO.N,unconnected-(J1-Pin_1-Pad1)*%
X132334000Y-43213000D03*
%TD*%
%TO.P,REF\u002A\u002A585,1*%
%TO.N,unconnected-(J1-Pin_1-Pad1)*%
X145034000Y-50833000D03*
%TD*%
%TO.P,REF\u002A\u002A621,1*%
%TO.N,unconnected-(J1-Pin_1-Pad1)*%
X124714000Y-53373000D03*
%TD*%
%TO.P,REF\u002A\u002A803,1*%
%TO.N,unconnected-(J1-Pin_1-Pad1)*%
X139954000Y-63533000D03*
%TD*%
%TO.P,REF\u002A\u002A762,1*%
%TO.N,unconnected-(J1-Pin_1-Pad1)*%
X147574000Y-60993000D03*
%TD*%
D12*
%TO.P,REF\u002A\u002A2775,1*%
%TO.N,N/C*%
X115923000Y-53576000D03*
%TD*%
D11*
%TO.P,REF\u002A\u002A664,1*%
%TO.N,unconnected-(J1-Pin_1-Pad1)*%
X122174000Y-55913000D03*
%TD*%
%TO.P,REF\u002A\u002A1023,1*%
%TO.N,unconnected-(J1-Pin_1-Pad1)*%
X139954000Y-76233000D03*
%TD*%
%TO.P,REF\u002A\u002A1001,1*%
%TO.N,unconnected-(J1-Pin_1-Pad1)*%
X84074000Y-76233000D03*
%TD*%
D12*
%TO.P,REF\u002A\u002A2791,1*%
%TO.N,N/C*%
X158260000Y-46144000D03*
%TD*%
%TO.P,REF\u002A\u002A2780,1*%
%TO.N,N/C*%
X160800000Y-54894000D03*
%TD*%
D11*
%TO.P,REF\u002A\u002A855,1*%
%TO.N,unconnected-(J1-Pin_1-Pad1)*%
X167894000Y-66073000D03*
%TD*%
%TO.P,REF\u002A\u002A796,1*%
%TO.N,unconnected-(J1-Pin_1-Pad1)*%
X122174000Y-63533000D03*
%TD*%
D12*
%TO.P,REF\u002A\u002A2783,1*%
%TO.N,N/C*%
X158260000Y-53144000D03*
%TD*%
D11*
%TO.P,REF\u002A\u002A918,1*%
%TO.N,unconnected-(J1-Pin_1-Pad1)*%
X96774000Y-71153000D03*
%TD*%
%TO.P,REF\u002A\u002A970,1*%
%TO.N,unconnected-(J1-Pin_1-Pad1)*%
X117094000Y-73693000D03*
%TD*%
%TO.P,REF\u002A\u002A1029,1*%
%TO.N,unconnected-(J1-Pin_1-Pad1)*%
X155194000Y-76233000D03*
%TD*%
%TO.P,REF\u002A\u002A700,1*%
%TO.N,unconnected-(J1-Pin_1-Pad1)*%
X101854000Y-58453000D03*
%TD*%
%TO.P,REF\u002A\u002A967,1*%
%TO.N,unconnected-(J1-Pin_1-Pad1)*%
X109474000Y-73693000D03*
%TD*%
%TO.P,REF\u002A\u002A937,1*%
%TO.N,unconnected-(J1-Pin_1-Pad1)*%
X145034000Y-71153000D03*
%TD*%
%TO.P,REF\u002A\u002A663,1*%
%TO.N,unconnected-(J1-Pin_1-Pad1)*%
X119634000Y-55913000D03*
%TD*%
%TO.P,REF\u002A\u002A498,1*%
%TO.N,unconnected-(J1-Pin_1-Pad1)*%
X147574000Y-45753000D03*
%TD*%
D12*
%TO.P,REF\u002A\u002A2775,1*%
%TO.N,N/C*%
X86173000Y-53576000D03*
%TD*%
D11*
%TO.P,REF\u002A\u002A665,1*%
%TO.N,unconnected-(J1-Pin_1-Pad1)*%
X124714000Y-55913000D03*
%TD*%
%TO.P,REF\u002A\u002A846,1*%
%TO.N,unconnected-(J1-Pin_1-Pad1)*%
X137414000Y-66073000D03*
%TD*%
%TO.P,REF\u002A\u002A584,1*%
%TO.N,unconnected-(J1-Pin_1-Pad1)*%
X142494000Y-50833000D03*
%TD*%
%TO.P,REF\u002A\u002A695,1*%
%TO.N,unconnected-(J1-Pin_1-Pad1)*%
X89154000Y-58453000D03*
%TD*%
%TO.P,REF\u002A\u002A838,1*%
%TO.N,unconnected-(J1-Pin_1-Pad1)*%
X117094000Y-66073000D03*
%TD*%
%TO.P,REF\u002A\u002A869,1*%
%TO.N,unconnected-(J1-Pin_1-Pad1)*%
X84074000Y-68613000D03*
%TD*%
D12*
%TO.P,REF\u002A\u002A2775,1*%
%TO.N,N/C*%
X93173000Y-56116000D03*
%TD*%
D11*
%TO.P,REF\u002A\u002A990,1*%
%TO.N,unconnected-(J1-Pin_1-Pad1)*%
X167894000Y-73693000D03*
%TD*%
%TO.P,REF\u002A\u002A873,1*%
%TO.N,unconnected-(J1-Pin_1-Pad1)*%
X94234000Y-68613000D03*
%TD*%
%TO.P,REF\u002A\u002A359,1*%
%TO.N,unconnected-(J1-Pin_1-Pad1)*%
X129794000Y-38133000D03*
%TD*%
%TO.P,REF\u002A\u002A855,1*%
%TO.N,unconnected-(J1-Pin_1-Pad1)*%
X165354000Y-66073000D03*
%TD*%
%TO.P,REF\u002A\u002A447,1*%
%TO.N,unconnected-(J1-Pin_1-Pad1)*%
X129794000Y-43213000D03*
%TD*%
%TO.P,REF\u002A\u002A356,1*%
%TO.N,unconnected-(J1-Pin_1-Pad1)*%
X122174000Y-38133000D03*
%TD*%
%TO.P,REF\u002A\u002A919,1*%
%TO.N,unconnected-(J1-Pin_1-Pad1)*%
X99314000Y-71153000D03*
%TD*%
%TO.P,REF\u002A\u002A966,1*%
%TO.N,unconnected-(J1-Pin_1-Pad1)*%
X106934000Y-73693000D03*
%TD*%
%TO.P,REF\u002A\u002A871,1*%
%TO.N,unconnected-(J1-Pin_1-Pad1)*%
X89154000Y-68613000D03*
%TD*%
%TO.P,REF\u002A\u002A410,1*%
%TO.N,unconnected-(J1-Pin_1-Pad1)*%
X147574000Y-40673000D03*
%TD*%
%TO.P,REF\u002A\u002A877,1*%
%TO.N,unconnected-(J1-Pin_1-Pad1)*%
X104394000Y-68613000D03*
%TD*%
%TO.P,REF\u002A\u002A855,1*%
%TO.N,unconnected-(J1-Pin_1-Pad1)*%
X172974000Y-66073000D03*
%TD*%
%TO.P,REF\u002A\u002A721,1*%
%TO.N,unconnected-(J1-Pin_1-Pad1)*%
X155194000Y-58453000D03*
%TD*%
%TO.P,REF\u002A\u002A832,1*%
%TO.N,unconnected-(J1-Pin_1-Pad1)*%
X101854000Y-66073000D03*
%TD*%
%TO.P,REF\u002A\u002A827,1*%
%TO.N,unconnected-(J1-Pin_1-Pad1)*%
X89154000Y-66073000D03*
%TD*%
%TO.P,REF\u002A\u002A701,1*%
%TO.N,unconnected-(J1-Pin_1-Pad1)*%
X104394000Y-58453000D03*
%TD*%
%TO.P,REF\u002A\u002A411,1*%
%TO.N,unconnected-(J1-Pin_1-Pad1)*%
X150114000Y-40673000D03*
%TD*%
%TO.P,REF\u002A\u002A703,1*%
%TO.N,unconnected-(J1-Pin_1-Pad1)*%
X109474000Y-58453000D03*
%TD*%
%TO.P,REF\u002A\u002A837,1*%
%TO.N,unconnected-(J1-Pin_1-Pad1)*%
X114554000Y-66073000D03*
%TD*%
D12*
%TO.P,REF\u002A\u002A2801,1*%
%TO.N,N/C*%
X158260000Y-37394000D03*
%TD*%
D11*
%TO.P,REF\u002A\u002A404,1*%
%TO.N,unconnected-(J1-Pin_1-Pad1)*%
X132334000Y-40673000D03*
%TD*%
%TO.P,REF\u002A\u002A694,1*%
%TO.N,unconnected-(J1-Pin_1-Pad1)*%
X86614000Y-58453000D03*
%TD*%
%TO.P,REF\u002A\u002A709,1*%
%TO.N,unconnected-(J1-Pin_1-Pad1)*%
X124714000Y-58453000D03*
%TD*%
D12*
%TO.P,REF\u002A\u002A2785,1*%
%TO.N,N/C*%
X158260000Y-51394000D03*
%TD*%
%TO.P,REF\u002A\u002A2775,1*%
%TO.N,N/C*%
X89673000Y-53576000D03*
%TD*%
D11*
%TO.P,REF\u002A\u002A677,1*%
%TO.N,unconnected-(J1-Pin_1-Pad1)*%
X155194000Y-55913000D03*
%TD*%
%TO.P,REF\u002A\u002A836,1*%
%TO.N,unconnected-(J1-Pin_1-Pad1)*%
X112014000Y-66073000D03*
%TD*%
D12*
%TO.P,REF\u002A\u002A2775,1*%
%TO.N,N/C*%
X96673000Y-53576000D03*
%TD*%
D11*
%TO.P,REF\u002A\u002A829,1*%
%TO.N,unconnected-(J1-Pin_1-Pad1)*%
X94234000Y-66073000D03*
%TD*%
%TO.P,REF\u002A\u002A673,1*%
%TO.N,unconnected-(J1-Pin_1-Pad1)*%
X145034000Y-55913000D03*
%TD*%
%TO.P,REF\u002A\u002A1017,1*%
%TO.N,unconnected-(J1-Pin_1-Pad1)*%
X124714000Y-76233000D03*
%TD*%
%TO.P,REF\u002A\u002A848,1*%
%TO.N,unconnected-(J1-Pin_1-Pad1)*%
X142494000Y-66073000D03*
%TD*%
%TO.P,REF\u002A\u002A763,1*%
%TO.N,unconnected-(J1-Pin_1-Pad1)*%
X150114000Y-60993000D03*
%TD*%
%TO.P,REF\u002A\u002A408,1*%
%TO.N,unconnected-(J1-Pin_1-Pad1)*%
X142494000Y-40673000D03*
%TD*%
%TO.P,REF\u002A\u002A454,1*%
%TO.N,unconnected-(J1-Pin_1-Pad1)*%
X147574000Y-43213000D03*
%TD*%
D12*
%TO.P,REF\u002A\u002A2775,1*%
%TO.N,N/C*%
X100173000Y-53576000D03*
%TD*%
D11*
%TO.P,REF\u002A\u002A499,1*%
%TO.N,unconnected-(J1-Pin_1-Pad1)*%
X150114000Y-45753000D03*
%TD*%
%TO.P,REF\u002A\u002A989,1*%
%TO.N,unconnected-(J1-Pin_1-Pad1)*%
X165354000Y-73693000D03*
%TD*%
%TO.P,REF\u002A\u002A917,1*%
%TO.N,unconnected-(J1-Pin_1-Pad1)*%
X94234000Y-71153000D03*
%TD*%
D12*
%TO.P,REF\u002A\u002A2781,1*%
%TO.N,N/C*%
X158260000Y-54894000D03*
%TD*%
D11*
%TO.P,REF\u002A\u002A409,1*%
%TO.N,unconnected-(J1-Pin_1-Pad1)*%
X145034000Y-40673000D03*
%TD*%
D12*
%TO.P,REF\u002A\u002A2775,1*%
%TO.N,N/C*%
X112423000Y-53576000D03*
%TD*%
%TO.P,REF\u002A\u002A2777,1*%
%TO.N,N/C*%
X158260000Y-58394000D03*
%TD*%
D11*
%TO.P,REF\u002A\u002A708,1*%
%TO.N,unconnected-(J1-Pin_1-Pad1)*%
X122174000Y-58453000D03*
%TD*%
%TO.P,REF\u002A\u002A1037,1*%
%TO.N,unconnected-(J1-Pin_1-Pad1)*%
X175514000Y-76233000D03*
%TD*%
%TO.P,REF\u002A\u002A924,1*%
%TO.N,unconnected-(J1-Pin_1-Pad1)*%
X112014000Y-71153000D03*
%TD*%
D12*
%TO.P,REF\u002A\u002A2797,1*%
%TO.N,N/C*%
X158260000Y-40894000D03*
%TD*%
%TO.P,REF\u002A\u002A2800,1*%
%TO.N,N/C*%
X160800000Y-37394000D03*
%TD*%
%TO.P,REF\u002A\u002A2775,1*%
%TO.N,N/C*%
X107173000Y-53576000D03*
%TD*%
D11*
%TO.P,REF\u002A\u002A912,1*%
%TO.N,unconnected-(J1-Pin_1-Pad1)*%
X81534000Y-71153000D03*
%TD*%
%TO.P,REF\u002A\u002A749,1*%
%TO.N,unconnected-(J1-Pin_1-Pad1)*%
X114554000Y-60993000D03*
%TD*%
%TO.P,REF\u002A\u002A984,1*%
%TO.N,unconnected-(J1-Pin_1-Pad1)*%
X152654000Y-73693000D03*
%TD*%
%TO.P,REF\u002A\u002A801,1*%
%TO.N,unconnected-(J1-Pin_1-Pad1)*%
X134874000Y-63533000D03*
%TD*%
%TO.P,REF\u002A\u002A742,1*%
%TO.N,unconnected-(J1-Pin_1-Pad1)*%
X96774000Y-60993000D03*
%TD*%
%TO.P,REF\u002A\u002A804,1*%
%TO.N,unconnected-(J1-Pin_1-Pad1)*%
X142494000Y-63533000D03*
%TD*%
%TO.P,REF\u002A\u002A360,1*%
%TO.N,unconnected-(J1-Pin_1-Pad1)*%
X132334000Y-38133000D03*
%TD*%
%TO.P,REF\u002A\u002A1000,1*%
%TO.N,unconnected-(J1-Pin_1-Pad1)*%
X81534000Y-76233000D03*
%TD*%
%TO.P,REF\u002A\u002A921,1*%
%TO.N,unconnected-(J1-Pin_1-Pad1)*%
X104394000Y-71153000D03*
%TD*%
%TO.P,REF\u002A\u002A491,1*%
%TO.N,unconnected-(J1-Pin_1-Pad1)*%
X129794000Y-45753000D03*
%TD*%
%TO.P,REF\u002A\u002A629,1*%
%TO.N,unconnected-(J1-Pin_1-Pad1)*%
X145034000Y-53373000D03*
%TD*%
%TO.P,REF\u002A\u002A994,1*%
%TO.N,unconnected-(J1-Pin_1-Pad1)*%
X178054000Y-73693000D03*
%TD*%
%TO.P,REF\u002A\u002A906,1*%
%TO.N,unconnected-(J1-Pin_1-Pad1)*%
X178054000Y-68613000D03*
%TD*%
%TO.P,REF\u002A\u002A944,1*%
%TO.N,unconnected-(J1-Pin_1-Pad1)*%
X162814000Y-71153000D03*
%TD*%
%TO.P,REF\u002A\u002A1036,1*%
%TO.N,unconnected-(J1-Pin_1-Pad1)*%
X172974000Y-76233000D03*
%TD*%
%TO.P,REF\u002A\u002A975,1*%
%TO.N,unconnected-(J1-Pin_1-Pad1)*%
X129794000Y-73693000D03*
%TD*%
%TO.P,REF\u002A\u002A843,1*%
%TO.N,unconnected-(J1-Pin_1-Pad1)*%
X129794000Y-66073000D03*
%TD*%
%TO.P,REF\u002A\u002A973,1*%
%TO.N,unconnected-(J1-Pin_1-Pad1)*%
X124714000Y-73693000D03*
%TD*%
%TO.P,REF\u002A\u002A716,1*%
%TO.N,unconnected-(J1-Pin_1-Pad1)*%
X142494000Y-58453000D03*
%TD*%
%TO.P,REF\u002A\u002A492,1*%
%TO.N,unconnected-(J1-Pin_1-Pad1)*%
X137414000Y-48293000D03*
%TD*%
%TO.P,REF\u002A\u002A963,1*%
%TO.N,unconnected-(J1-Pin_1-Pad1)*%
X99314000Y-73693000D03*
%TD*%
%TO.P,REF\u002A\u002A368,1*%
%TO.N,unconnected-(J1-Pin_1-Pad1)*%
X152654000Y-38133000D03*
%TD*%
%TO.P,REF\u002A\u002A492,1*%
%TO.N,unconnected-(J1-Pin_1-Pad1)*%
X137414000Y-53373000D03*
%TD*%
%TO.P,REF\u002A\u002A915,1*%
%TO.N,unconnected-(J1-Pin_1-Pad1)*%
X89154000Y-71153000D03*
%TD*%
D12*
%TO.P,REF\u002A\u002A2775,1*%
%TO.N,N/C*%
X94923000Y-53576000D03*
%TD*%
D11*
%TO.P,REF\u002A\u002A532,1*%
%TO.N,unconnected-(J1-Pin_1-Pad1)*%
X122174000Y-48293000D03*
%TD*%
D12*
%TO.P,REF\u002A\u002A2775,1*%
%TO.N,N/C*%
X98423000Y-53576000D03*
%TD*%
D11*
%TO.P,REF\u002A\u002A969,1*%
%TO.N,unconnected-(J1-Pin_1-Pad1)*%
X114554000Y-73693000D03*
%TD*%
%TO.P,REF\u002A\u002A948,1*%
%TO.N,unconnected-(J1-Pin_1-Pad1)*%
X172974000Y-71153000D03*
%TD*%
%TO.P,REF\u002A\u002A1016,1*%
%TO.N,unconnected-(J1-Pin_1-Pad1)*%
X122174000Y-76233000D03*
%TD*%
%TO.P,REF\u002A\u002A451,1*%
%TO.N,unconnected-(J1-Pin_1-Pad1)*%
X139954000Y-43213000D03*
%TD*%
%TO.P,REF\u002A\u002A887,1*%
%TO.N,unconnected-(J1-Pin_1-Pad1)*%
X129794000Y-68613000D03*
%TD*%
%TO.P,REF\u002A\u002A544,1*%
%TO.N,unconnected-(J1-Pin_1-Pad1)*%
X152654000Y-48293000D03*
%TD*%
%TO.P,REF\u002A\u002A934,1*%
%TO.N,unconnected-(J1-Pin_1-Pad1)*%
X137414000Y-71153000D03*
%TD*%
%TO.P,REF\u002A\u002A445,1*%
%TO.N,unconnected-(J1-Pin_1-Pad1)*%
X124714000Y-43213000D03*
%TD*%
%TO.P,REF\u002A\u002A668,1*%
%TO.N,unconnected-(J1-Pin_1-Pad1)*%
X132334000Y-55913000D03*
%TD*%
%TO.P,REF\u002A\u002A913,1*%
%TO.N,unconnected-(J1-Pin_1-Pad1)*%
X84074000Y-71153000D03*
%TD*%
%TO.P,REF\u002A\u002A1012,1*%
%TO.N,unconnected-(J1-Pin_1-Pad1)*%
X112014000Y-76233000D03*
%TD*%
%TO.P,REF\u002A\u002A805,1*%
%TO.N,unconnected-(J1-Pin_1-Pad1)*%
X145034000Y-63533000D03*
%TD*%
%TO.P,REF\u002A\u002A710,1*%
%TO.N,unconnected-(J1-Pin_1-Pad1)*%
X127254000Y-58453000D03*
%TD*%
%TO.P,REF\u002A\u002A926,1*%
%TO.N,unconnected-(J1-Pin_1-Pad1)*%
X117094000Y-71153000D03*
%TD*%
%TO.P,REF\u002A\u002A876,1*%
%TO.N,unconnected-(J1-Pin_1-Pad1)*%
X101854000Y-68613000D03*
%TD*%
%TO.P,REF\u002A\u002A579,1*%
%TO.N,unconnected-(J1-Pin_1-Pad1)*%
X129794000Y-50833000D03*
%TD*%
%TO.P,REF\u002A\u002A949,1*%
%TO.N,unconnected-(J1-Pin_1-Pad1)*%
X175514000Y-71153000D03*
%TD*%
%TO.P,REF\u002A\u002A787,1*%
%TO.N,unconnected-(J1-Pin_1-Pad1)*%
X99314000Y-63533000D03*
%TD*%
%TO.P,REF\u002A\u002A587,1*%
%TO.N,unconnected-(J1-Pin_1-Pad1)*%
X150114000Y-50833000D03*
%TD*%
%TO.P,REF\u002A\u002A901,1*%
%TO.N,unconnected-(J1-Pin_1-Pad1)*%
X165354000Y-68613000D03*
%TD*%
D12*
%TO.P,REF\u002A\u002A2796,1*%
%TO.N,N/C*%
X160800000Y-40894000D03*
%TD*%
D11*
%TO.P,REF\u002A\u002A847,1*%
%TO.N,unconnected-(J1-Pin_1-Pad1)*%
X139954000Y-66073000D03*
%TD*%
%TO.P,REF\u002A\u002A676,1*%
%TO.N,unconnected-(J1-Pin_1-Pad1)*%
X152654000Y-55913000D03*
%TD*%
%TO.P,REF\u002A\u002A933,1*%
%TO.N,unconnected-(J1-Pin_1-Pad1)*%
X134874000Y-71153000D03*
%TD*%
%TO.P,REF\u002A\u002A972,1*%
%TO.N,unconnected-(J1-Pin_1-Pad1)*%
X122174000Y-73693000D03*
%TD*%
%TO.P,REF\u002A\u002A698,1*%
%TO.N,unconnected-(J1-Pin_1-Pad1)*%
X96774000Y-58453000D03*
%TD*%
D12*
%TO.P,REF\u002A\u002A2790,1*%
%TO.N,N/C*%
X160800000Y-46144000D03*
%TD*%
%TO.P,REF\u002A\u002A2775,1*%
%TO.N,N/C*%
X114173000Y-53576000D03*
%TD*%
D11*
%TO.P,REF\u002A\u002A541,1*%
%TO.N,unconnected-(J1-Pin_1-Pad1)*%
X145034000Y-48293000D03*
%TD*%
%TO.P,REF\u002A\u002A851,1*%
%TO.N,unconnected-(J1-Pin_1-Pad1)*%
X150114000Y-66073000D03*
%TD*%
%TO.P,REF\u002A\u002A868,1*%
%TO.N,unconnected-(J1-Pin_1-Pad1)*%
X81534000Y-68613000D03*
%TD*%
%TO.P,REF\u002A\u002A1009,1*%
%TO.N,unconnected-(J1-Pin_1-Pad1)*%
X104394000Y-76233000D03*
%TD*%
%TO.P,REF\u002A\u002A1032,1*%
%TO.N,unconnected-(J1-Pin_1-Pad1)*%
X162814000Y-76233000D03*
%TD*%
%TO.P,REF\u002A\u002A696,1*%
%TO.N,unconnected-(J1-Pin_1-Pad1)*%
X91694000Y-58453000D03*
%TD*%
%TO.P,REF\u002A\u002A1030,1*%
%TO.N,unconnected-(J1-Pin_1-Pad1)*%
X157734000Y-76233000D03*
%TD*%
%TO.P,REF\u002A\u002A620,1*%
%TO.N,unconnected-(J1-Pin_1-Pad1)*%
X122174000Y-53373000D03*
%TD*%
D12*
%TO.P,REF\u002A\u002A2775,1*%
%TO.N,N/C*%
X87923000Y-56116000D03*
%TD*%
D11*
%TO.P,REF\u002A\u002A916,1*%
%TO.N,unconnected-(J1-Pin_1-Pad1)*%
X91694000Y-71153000D03*
%TD*%
%TO.P,REF\u002A\u002A760,1*%
%TO.N,unconnected-(J1-Pin_1-Pad1)*%
X142494000Y-60993000D03*
%TD*%
%TO.P,REF\u002A\u002A971,1*%
%TO.N,unconnected-(J1-Pin_1-Pad1)*%
X119634000Y-73693000D03*
%TD*%
%TO.P,REF\u002A\u002A898,1*%
%TO.N,unconnected-(J1-Pin_1-Pad1)*%
X157734000Y-68613000D03*
%TD*%
%TO.P,REF\u002A\u002A981,1*%
%TO.N,unconnected-(J1-Pin_1-Pad1)*%
X145034000Y-73693000D03*
%TD*%
%TO.P,REF\u002A\u002A795,1*%
%TO.N,unconnected-(J1-Pin_1-Pad1)*%
X119634000Y-63533000D03*
%TD*%
%TO.P,REF\u002A\u002A885,1*%
%TO.N,unconnected-(J1-Pin_1-Pad1)*%
X124714000Y-68613000D03*
%TD*%
%TO.P,REF\u002A\u002A672,1*%
%TO.N,unconnected-(J1-Pin_1-Pad1)*%
X142494000Y-55913000D03*
%TD*%
%TO.P,REF\u002A\u002A712,1*%
%TO.N,unconnected-(J1-Pin_1-Pad1)*%
X132334000Y-58453000D03*
%TD*%
%TO.P,REF\u002A\u002A711,1*%
%TO.N,unconnected-(J1-Pin_1-Pad1)*%
X129794000Y-58453000D03*
%TD*%
%TO.P,REF\u002A\u002A1019,1*%
%TO.N,unconnected-(J1-Pin_1-Pad1)*%
X129794000Y-76233000D03*
%TD*%
%TO.P,REF\u002A\u002A850,1*%
%TO.N,unconnected-(J1-Pin_1-Pad1)*%
X147574000Y-66073000D03*
%TD*%
%TO.P,REF\u002A\u002A875,1*%
%TO.N,unconnected-(J1-Pin_1-Pad1)*%
X99314000Y-68613000D03*
%TD*%
%TO.P,REF\u002A\u002A407,1*%
%TO.N,unconnected-(J1-Pin_1-Pad1)*%
X139954000Y-40673000D03*
%TD*%
D12*
%TO.P,REF\u002A\u002A2782,1*%
%TO.N,N/C*%
X160800000Y-53144000D03*
%TD*%
D11*
%TO.P,REF\u002A\u002A1003,1*%
%TO.N,unconnected-(J1-Pin_1-Pad1)*%
X89154000Y-76233000D03*
%TD*%
%TO.P,REF\u002A\u002A914,1*%
%TO.N,unconnected-(J1-Pin_1-Pad1)*%
X86614000Y-71153000D03*
%TD*%
%TO.P,REF\u002A\u002A807,1*%
%TO.N,unconnected-(J1-Pin_1-Pad1)*%
X150114000Y-63533000D03*
%TD*%
%TO.P,REF\u002A\u002A802,1*%
%TO.N,unconnected-(J1-Pin_1-Pad1)*%
X137414000Y-63533000D03*
%TD*%
%TO.P,REF\u002A\u002A961,1*%
%TO.N,unconnected-(J1-Pin_1-Pad1)*%
X94234000Y-73693000D03*
%TD*%
%TO.P,REF\u002A\u002A576,1*%
%TO.N,unconnected-(J1-Pin_1-Pad1)*%
X122174000Y-50833000D03*
%TD*%
%TO.P,REF\u002A\u002A936,1*%
%TO.N,unconnected-(J1-Pin_1-Pad1)*%
X142494000Y-71153000D03*
%TD*%
%TO.P,REF\u002A\u002A713,1*%
%TO.N,unconnected-(J1-Pin_1-Pad1)*%
X134874000Y-58453000D03*
%TD*%
%TO.P,REF\u002A\u002A1026,1*%
%TO.N,unconnected-(J1-Pin_1-Pad1)*%
X147574000Y-76233000D03*
%TD*%
%TO.P,REF\u002A\u002A764,1*%
%TO.N,unconnected-(J1-Pin_1-Pad1)*%
X152654000Y-60993000D03*
%TD*%
%TO.P,REF\u002A\u002A578,1*%
%TO.N,unconnected-(J1-Pin_1-Pad1)*%
X127254000Y-50833000D03*
%TD*%
D12*
%TO.P,REF\u002A\u002A2788,1*%
%TO.N,N/C*%
X160800000Y-47894000D03*
%TD*%
D11*
%TO.P,REF\u002A\u002A706,1*%
%TO.N,unconnected-(J1-Pin_1-Pad1)*%
X117094000Y-58453000D03*
%TD*%
D12*
%TO.P,REF\u002A\u002A2795,1*%
%TO.N,N/C*%
X158260000Y-42644000D03*
%TD*%
D11*
%TO.P,REF\u002A\u002A983,1*%
%TO.N,unconnected-(J1-Pin_1-Pad1)*%
X150114000Y-73693000D03*
%TD*%
%TO.P,REF\u002A\u002A492,1*%
%TO.N,unconnected-(J1-Pin_1-Pad1)*%
X137414000Y-50833000D03*
%TD*%
%TO.P,REF\u002A\u002A746,1*%
%TO.N,unconnected-(J1-Pin_1-Pad1)*%
X106934000Y-60993000D03*
%TD*%
%TO.P,REF\u002A\u002A670,1*%
%TO.N,unconnected-(J1-Pin_1-Pad1)*%
X137414000Y-55913000D03*
%TD*%
D12*
%TO.P,REF\u002A\u002A2775,1*%
%TO.N,N/C*%
X115923000Y-56116000D03*
%TD*%
D13*
%TO.P,J2,1,Pin_1*%
%TO.N,unconnected-(J2-Pin_1-Pad1)*%
X175514000Y-58394000D03*
D14*
%TO.P,J2,2,Pin_2*%
%TO.N,unconnected-(J2-Pin_2-Pad2)*%
X164084000Y-60144000D03*
%TO.P,J2,3,Pin_3*%
%TO.N,unconnected-(J2-Pin_3-Pad3)*%
X175514000Y-54894000D03*
%TO.P,J2,4,Pin_4*%
%TO.N,unconnected-(J2-Pin_4-Pad4)*%
X164084000Y-56644000D03*
%TO.P,J2,5,Pin_5*%
%TO.N,unconnected-(J2-Pin_5-Pad5)*%
X175514000Y-51394000D03*
%TO.P,J2,6,Pin_6*%
%TO.N,unconnected-(J2-Pin_6-Pad6)*%
X164084000Y-53144000D03*
%TO.P,J2,7,Pin_7*%
%TO.N,unconnected-(J2-Pin_7-Pad7)*%
X175514000Y-47894000D03*
%TO.P,J2,8,Pin_8*%
%TO.N,unconnected-(J2-Pin_8-Pad8)*%
X164084000Y-49644000D03*
%TO.P,J2,9,Pin_9*%
%TO.N,unconnected-(J2-Pin_9-Pad9)*%
X175514000Y-44394000D03*
%TO.P,J2,10,Pin_10*%
%TO.N,unconnected-(J2-Pin_10-Pad10)*%
X164084000Y-46144000D03*
%TO.P,J2,11,Pin_11*%
%TO.N,unconnected-(J2-Pin_11-Pad11)*%
X175514000Y-40894000D03*
%TO.P,J2,12,Pin_12*%
%TO.N,unconnected-(J2-Pin_12-Pad12)*%
X164084000Y-42644000D03*
%TO.P,J2,13,Pin_13*%
%TO.N,unconnected-(J2-Pin_13-Pad13)*%
X175514000Y-37394000D03*
%TO.P,J2,14,Pin_14*%
%TO.N,unconnected-(J2-Pin_14-Pad14)*%
X164084000Y-39144000D03*
%TD*%
D11*
%TO.P,REF\u002A\u002A444,1*%
%TO.N,unconnected-(J1-Pin_1-Pad1)*%
X122174000Y-43213000D03*
%TD*%
%TO.P,REF\u002A\u002A883,1*%
%TO.N,unconnected-(J1-Pin_1-Pad1)*%
X119634000Y-68613000D03*
%TD*%
%TO.P,REF\u002A\u002A758,1*%
%TO.N,unconnected-(J1-Pin_1-Pad1)*%
X137414000Y-60993000D03*
%TD*%
D12*
%TO.P,REF\u002A\u002A2775,1*%
%TO.N,N/C*%
X91423000Y-56116000D03*
%TD*%
D11*
%TO.P,REF\u002A\u002A950,1*%
%TO.N,unconnected-(J1-Pin_1-Pad1)*%
X178054000Y-71153000D03*
%TD*%
%TO.P,REF\u002A\u002A849,1*%
%TO.N,unconnected-(J1-Pin_1-Pad1)*%
X145034000Y-66073000D03*
%TD*%
%TO.P,REF\u002A\u002A488,1*%
%TO.N,unconnected-(J1-Pin_1-Pad1)*%
X122174000Y-45753000D03*
%TD*%
%TO.P,REF\u002A\u002A920,1*%
%TO.N,unconnected-(J1-Pin_1-Pad1)*%
X101854000Y-71153000D03*
%TD*%
%TO.P,REF\u002A\u002A542,1*%
%TO.N,unconnected-(J1-Pin_1-Pad1)*%
X147574000Y-48293000D03*
%TD*%
D12*
%TO.P,REF\u002A\u002A2775,1*%
%TO.N,N/C*%
X93173000Y-53576000D03*
%TD*%
D11*
%TO.P,REF\u002A\u002A833,1*%
%TO.N,unconnected-(J1-Pin_1-Pad1)*%
X104394000Y-66073000D03*
%TD*%
%TO.P,REF\u002A\u002A991,1*%
%TO.N,unconnected-(J1-Pin_1-Pad1)*%
X170434000Y-73693000D03*
%TD*%
%TO.P,REF\u002A\u002A406,1*%
%TO.N,unconnected-(J1-Pin_1-Pad1)*%
X137414000Y-40673000D03*
%TD*%
D12*
%TO.P,REF\u002A\u002A2789,1*%
%TO.N,N/C*%
X158260000Y-47894000D03*
%TD*%
D11*
%TO.P,REF\u002A\u002A930,1*%
%TO.N,unconnected-(J1-Pin_1-Pad1)*%
X127254000Y-71153000D03*
%TD*%
%TO.P,REF\u002A\u002A692,1*%
%TO.N,unconnected-(J1-Pin_1-Pad1)*%
X81534000Y-58453000D03*
%TD*%
%TO.P,REF\u002A\u002A834,1*%
%TO.N,unconnected-(J1-Pin_1-Pad1)*%
X106934000Y-66073000D03*
%TD*%
%TO.P,REF\u002A\u002A490,1*%
%TO.N,unconnected-(J1-Pin_1-Pad1)*%
X127254000Y-45753000D03*
%TD*%
%TO.P,REF\u002A\u002A928,1*%
%TO.N,unconnected-(J1-Pin_1-Pad1)*%
X122174000Y-71153000D03*
%TD*%
%TO.P,REF\u002A\u002A798,1*%
%TO.N,unconnected-(J1-Pin_1-Pad1)*%
X127254000Y-63533000D03*
%TD*%
%TO.P,REF\u002A\u002A895,1*%
%TO.N,unconnected-(J1-Pin_1-Pad1)*%
X150114000Y-68613000D03*
%TD*%
%TO.P,REF\u002A\u002A941,1*%
%TO.N,unconnected-(J1-Pin_1-Pad1)*%
X155194000Y-71153000D03*
%TD*%
%TO.P,REF\u002A\u002A986,1*%
%TO.N,unconnected-(J1-Pin_1-Pad1)*%
X157734000Y-73693000D03*
%TD*%
%TO.P,REF\u002A\u002A699,1*%
%TO.N,unconnected-(J1-Pin_1-Pad1)*%
X99314000Y-58453000D03*
%TD*%
%TO.P,REF\u002A\u002A1035,1*%
%TO.N,unconnected-(J1-Pin_1-Pad1)*%
X170434000Y-76233000D03*
%TD*%
%TO.P,REF\u002A\u002A794,1*%
%TO.N,unconnected-(J1-Pin_1-Pad1)*%
X117094000Y-63533000D03*
%TD*%
%TO.P,REF\u002A\u002A589,1*%
%TO.N,unconnected-(J1-Pin_1-Pad1)*%
X155194000Y-50833000D03*
%TD*%
%TO.P,REF\u002A\u002A870,1*%
%TO.N,unconnected-(J1-Pin_1-Pad1)*%
X86614000Y-68613000D03*
%TD*%
%TO.P,REF\u002A\u002A780,1*%
%TO.N,unconnected-(J1-Pin_1-Pad1)*%
X81534000Y-63533000D03*
%TD*%
%TO.P,REF\u002A\u002A785,1*%
%TO.N,unconnected-(J1-Pin_1-Pad1)*%
X94234000Y-63533000D03*
%TD*%
D12*
%TO.P,REF\u002A\u002A2793,1*%
%TO.N,N/C*%
X158260000Y-44394000D03*
%TD*%
D11*
%TO.P,REF\u002A\u002A715,1*%
%TO.N,unconnected-(J1-Pin_1-Pad1)*%
X139954000Y-58453000D03*
%TD*%
D13*
%TO.P,J1,1,Pin_1*%
%TO.N,unconnected-(J1-Pin_1-Pad1)*%
X114173000Y-38862000D03*
D14*
%TO.P,J1,2,Pin_2*%
%TO.N,unconnected-(J1-Pin_2-Pad2)*%
X115923000Y-50292000D03*
%TO.P,J1,3,Pin_3*%
%TO.N,unconnected-(J1-Pin_3-Pad3)*%
X110673000Y-38862000D03*
%TO.P,J1,4,Pin_4*%
%TO.N,unconnected-(J1-Pin_4-Pad4)*%
X112423000Y-50292000D03*
%TO.P,J1,5,Pin_5*%
%TO.N,unconnected-(J1-Pin_5-Pad5)*%
X107173000Y-38862000D03*
%TO.P,J1,6,Pin_6*%
%TO.N,unconnected-(J1-Pin_6-Pad6)*%
X108923000Y-50292000D03*
%TO.P,J1,7,Pin_7*%
%TO.N,unconnected-(J1-Pin_7-Pad7)*%
X103673000Y-38862000D03*
%TO.P,J1,8,Pin_8*%
%TO.N,unconnected-(J1-Pin_8-Pad8)*%
X105423000Y-50292000D03*
%TO.P,J1,9,Pin_9*%
%TO.N,unconnected-(J1-Pin_9-Pad9)*%
X100173000Y-38862000D03*
%TO.P,J1,10,Pin_10*%
%TO.N,unconnected-(J1-Pin_10-Pad10)*%
X101923000Y-50292000D03*
%TO.P,J1,11,Pin_11*%
%TO.N,unconnected-(J1-Pin_11-Pad11)*%
X96673000Y-38862000D03*
%TO.P,J1,12,Pin_12*%
%TO.N,unconnected-(J1-Pin_12-Pad12)*%
X98423000Y-50292000D03*
%TO.P,J1,13,Pin_13*%
%TO.N,unconnected-(J1-Pin_13-Pad13)*%
X93173000Y-38862000D03*
%TO.P,J1,14,Pin_14*%
%TO.N,unconnected-(J1-Pin_14-Pad14)*%
X94923000Y-50292000D03*
%TO.P,J1,15,Pin_15*%
%TO.N,unconnected-(J1-Pin_15-Pad15)*%
X89673000Y-38862000D03*
%TO.P,J1,16,Pin_16*%
%TO.N,unconnected-(J1-Pin_16-Pad16)*%
X91423000Y-50292000D03*
%TO.P,J1,17,Pin_17*%
%TO.N,unconnected-(J1-Pin_17-Pad17)*%
X86173000Y-38862000D03*
%TO.P,J1,18,Pin_18*%
%TO.N,unconnected-(J1-Pin_18-Pad18)*%
X87923000Y-50292000D03*
%TO.P,J1,19,Pin_19*%
%TO.N,unconnected-(J1-Pin_19-Pad19)*%
X82673000Y-38862000D03*
%TO.P,J1,20,Pin_20*%
%TO.N,unconnected-(J1-Pin_20-Pad20)*%
X84423000Y-50292000D03*
%TD*%
D11*
%TO.P,REF\u002A\u002A806,1*%
%TO.N,unconnected-(J1-Pin_1-Pad1)*%
X147574000Y-63533000D03*
%TD*%
%TO.P,REF\u002A\u002A903,1*%
%TO.N,unconnected-(J1-Pin_1-Pad1)*%
X170434000Y-68613000D03*
%TD*%
%TO.P,REF\u002A\u002A899,1*%
%TO.N,unconnected-(J1-Pin_1-Pad1)*%
X160274000Y-68613000D03*
%TD*%
D15*
%TO.N,unconnected-(J1-Pin_1-Pad1)*%
X152654000Y-66073000D02*
X155194000Y-66073000D01*
X175514000Y-73693000D02*
X175514000Y-76233000D01*
X134874000Y-71153000D02*
X134874000Y-73693000D01*
X139954000Y-53373000D02*
X139954000Y-55913000D01*
X145034000Y-45753000D02*
X145034000Y-48293000D01*
X137414000Y-68613000D02*
X139954000Y-68613000D01*
X137414000Y-58453000D02*
X137414000Y-60993000D01*
X142494000Y-43213000D02*
X142494000Y-45753000D01*
X134874000Y-50833000D02*
X134874000Y-53373000D01*
X109474000Y-66073000D02*
X112014000Y-66073000D01*
X137414000Y-55913000D02*
X137414000Y-58453000D01*
X99314000Y-68613000D02*
X101854000Y-68613000D01*
X145034000Y-55913000D02*
X145034000Y-58453000D01*
X101854000Y-73693000D02*
X101854000Y-76233000D01*
X178054000Y-71153000D02*
X178054000Y-73693000D01*
X162814000Y-71153000D02*
X162814000Y-73693000D01*
X91694000Y-66073000D02*
X94234000Y-66073000D01*
X122174000Y-68613000D02*
X124714000Y-68613000D01*
X145034000Y-50833000D02*
X145034000Y-53373000D01*
X89154000Y-71153000D02*
X89154000Y-73693000D01*
X152654000Y-68613000D02*
X155194000Y-68613000D01*
X165354000Y-71153000D02*
X165354000Y-73693000D01*
X134874000Y-43213000D02*
X134874000Y-45753000D01*
X89154000Y-66073000D02*
X91694000Y-66073000D01*
X132334000Y-45753000D02*
X132334000Y-48293000D01*
X127254000Y-53373000D02*
X127254000Y-55913000D01*
X84074000Y-60993000D02*
X84074000Y-63533000D01*
X147574000Y-40673000D02*
X147574000Y-43213000D01*
X137414000Y-60993000D02*
X137414000Y-63533000D01*
X150114000Y-40673000D02*
X150114000Y-43213000D01*
X167894000Y-68613000D02*
X170434000Y-68613000D01*
X112014000Y-71153000D02*
X112014000Y-73693000D01*
X104394000Y-71153000D02*
X104394000Y-73693000D01*
X142494000Y-53373000D02*
X142494000Y-55913000D01*
X139954000Y-71153000D02*
X139954000Y-73693000D01*
X81534000Y-60993000D02*
X81534000Y-63533000D01*
X124714000Y-58453000D02*
X124714000Y-60993000D01*
X147574000Y-58453000D02*
X147574000Y-60993000D01*
X86614000Y-58453000D02*
X86614000Y-60993000D01*
X155194000Y-55913000D02*
X155194000Y-58453000D01*
X152654000Y-45753000D02*
X152654000Y-48293000D01*
X124714000Y-43213000D02*
X124714000Y-45753000D01*
X127254000Y-50833000D02*
X127254000Y-53373000D01*
X114554000Y-68613000D02*
X117094000Y-68613000D01*
X104394000Y-60993000D02*
X104394000Y-63533000D01*
X129794000Y-43213000D02*
X129794000Y-45753000D01*
X145034000Y-58453000D02*
X145034000Y-60993000D01*
X122174000Y-43213000D02*
X122174000Y-45753000D01*
X104394000Y-68613000D02*
X106934000Y-68613000D01*
X147574000Y-38133000D02*
X147574000Y-40673000D01*
X157734000Y-66073000D02*
X160274000Y-66073000D01*
X96774000Y-66073000D02*
X99314000Y-66073000D01*
X132334000Y-53373000D02*
X132334000Y-55913000D01*
X167894000Y-71153000D02*
X167894000Y-73693000D01*
X91694000Y-60993000D02*
X91694000Y-63533000D01*
X129794000Y-71153000D02*
X129794000Y-73693000D01*
X139954000Y-58453000D02*
X139954000Y-60993000D01*
X122174000Y-50833000D02*
X122174000Y-53373000D01*
X106934000Y-58453000D02*
X106934000Y-60993000D01*
X150114000Y-73693000D02*
X150114000Y-76233000D01*
X84074000Y-58453000D02*
X84074000Y-60993000D01*
X127254000Y-68613000D02*
X129794000Y-68613000D01*
X134874000Y-58453000D02*
X134874000Y-60993000D01*
X129794000Y-58453000D02*
X129794000Y-60993000D01*
X134874000Y-60993000D02*
X134874000Y-63533000D01*
X117094000Y-66073000D02*
X119634000Y-66073000D01*
X132334000Y-71153000D02*
X132334000Y-73693000D01*
X89154000Y-60993000D02*
X89154000Y-63533000D01*
X96774000Y-58453000D02*
X96774000Y-60993000D01*
X119634000Y-66073000D02*
X122174000Y-66073000D01*
X94234000Y-71153000D02*
X94234000Y-73693000D01*
X109474000Y-73693000D02*
X109474000Y-76233000D01*
X84074000Y-73693000D02*
X84074000Y-76233000D01*
X147574000Y-43213000D02*
X147574000Y-45753000D01*
X142494000Y-66073000D02*
X145034000Y-66073000D01*
X81534000Y-66073000D02*
X84074000Y-66073000D01*
X150114000Y-58453000D02*
X150114000Y-60993000D01*
X137414000Y-66073000D02*
X139954000Y-66073000D01*
X122174000Y-40673000D02*
X122174000Y-43213000D01*
X162814000Y-73693000D02*
X162814000Y-76233000D01*
X101854000Y-68613000D02*
X104394000Y-68613000D01*
X99314000Y-71153000D02*
X99314000Y-73693000D01*
X137414000Y-73693000D02*
X137414000Y-76233000D01*
X124714000Y-50833000D02*
X124714000Y-53373000D01*
X86614000Y-68613000D02*
X89154000Y-68613000D01*
X134874000Y-38133000D02*
X134874000Y-40673000D01*
X155194000Y-53373000D02*
X155194000Y-55913000D01*
X157734000Y-71153000D02*
X157734000Y-73693000D01*
X84074000Y-66073000D02*
X86614000Y-66073000D01*
X150114000Y-68613000D02*
X152654000Y-68613000D01*
X129794000Y-38133000D02*
X129794000Y-40673000D01*
X142494000Y-71153000D02*
X142494000Y-73693000D01*
X147574000Y-73693000D02*
X147574000Y-76233000D01*
X167894000Y-66073000D02*
X170434000Y-66073000D01*
X124714000Y-68613000D02*
X127254000Y-68613000D01*
X157734000Y-68613000D02*
X160274000Y-68613000D01*
X145034000Y-71153000D02*
X145034000Y-73693000D01*
X157734000Y-73693000D02*
X157734000Y-76233000D01*
X165354000Y-73693000D02*
X165354000Y-76233000D01*
X129794000Y-68613000D02*
X132334000Y-68613000D01*
X94234000Y-66073000D02*
X96774000Y-66073000D01*
X167894000Y-73693000D02*
X167894000Y-76233000D01*
X137414000Y-53373000D02*
X137414000Y-55913000D01*
X104394000Y-66073000D02*
X106934000Y-66073000D01*
X96774000Y-71153000D02*
X96774000Y-73693000D01*
X129794000Y-40673000D02*
X129794000Y-43213000D01*
X112014000Y-73693000D02*
X112014000Y-76233000D01*
X127254000Y-40673000D02*
X127254000Y-43213000D01*
X145034000Y-38133000D02*
X145034000Y-40673000D01*
X112014000Y-66073000D02*
X114554000Y-66073000D01*
X160274000Y-68613000D02*
X162814000Y-68613000D01*
X129794000Y-73693000D02*
X129794000Y-76233000D01*
X127254000Y-45753000D02*
X127254000Y-48293000D01*
X124714000Y-71153000D02*
X124714000Y-73693000D01*
X150114000Y-60993000D02*
X150114000Y-63533000D01*
X124714000Y-53373000D02*
X124714000Y-55913000D01*
X89154000Y-73693000D02*
X89154000Y-76233000D01*
X132334000Y-55913000D02*
X132334000Y-58453000D01*
X155194000Y-58453000D02*
X155194000Y-60993000D01*
X99314000Y-66073000D02*
X101854000Y-66073000D01*
X106934000Y-71153000D02*
X106934000Y-73693000D01*
X150114000Y-38133000D02*
X150114000Y-40673000D01*
X94234000Y-68613000D02*
X96774000Y-68613000D01*
X147574000Y-55913000D02*
X147574000Y-58453000D01*
X127254000Y-60993000D02*
X127254000Y-63533000D01*
X137414000Y-45753000D02*
X137414000Y-48293000D01*
X145034000Y-73693000D02*
X145034000Y-76233000D01*
X132334000Y-58453000D02*
X132334000Y-60993000D01*
X117094000Y-71153000D02*
X117094000Y-73693000D01*
X142494000Y-55913000D02*
X142494000Y-58453000D01*
X109474000Y-68613000D02*
X112014000Y-68613000D01*
X139954000Y-60993000D02*
X139954000Y-63533000D01*
X150114000Y-50833000D02*
X150114000Y-53373000D01*
X147574000Y-45753000D02*
X147574000Y-48293000D01*
X142494000Y-68613000D02*
X145034000Y-68613000D01*
X160274000Y-73693000D02*
X160274000Y-76233000D01*
X152654000Y-58453000D02*
X152654000Y-60993000D01*
X142494000Y-73693000D02*
X142494000Y-76233000D01*
X152654000Y-60993000D02*
X152654000Y-63533000D01*
X147574000Y-71153000D02*
X147574000Y-73693000D01*
X119634000Y-71153000D02*
X119634000Y-73693000D01*
X172974000Y-71153000D02*
X172974000Y-73693000D01*
X170434000Y-71153000D02*
X170434000Y-73693000D01*
X101854000Y-58453000D02*
X101854000Y-60993000D01*
X145034000Y-43213000D02*
X145034000Y-45753000D01*
X114554000Y-58453000D02*
X114554000Y-60993000D01*
X129794000Y-60993000D02*
X129794000Y-63533000D01*
X142494000Y-58453000D02*
X142494000Y-60993000D01*
X155194000Y-45753000D02*
X155194000Y-48293000D01*
X106934000Y-60993000D02*
X106934000Y-63533000D01*
X175514000Y-68613000D02*
X178054000Y-68613000D01*
X104394000Y-73693000D02*
X104394000Y-76233000D01*
X96774000Y-73693000D02*
X96774000Y-76233000D01*
X127254000Y-73693000D02*
X127254000Y-76233000D01*
X117094000Y-58453000D02*
X117094000Y-60993000D01*
X134874000Y-53373000D02*
X134874000Y-55913000D01*
X104394000Y-58453000D02*
X104394000Y-60993000D01*
X86614000Y-73693000D02*
X86614000Y-76233000D01*
X155194000Y-43213000D02*
X155194000Y-45753000D01*
X101854000Y-66073000D02*
X104394000Y-66073000D01*
X124714000Y-38133000D02*
X124714000Y-40673000D01*
X114554000Y-71153000D02*
X114554000Y-73693000D01*
X129794000Y-53373000D02*
X129794000Y-55913000D01*
X147574000Y-60993000D02*
X147574000Y-63533000D01*
X91694000Y-73693000D02*
X91694000Y-76233000D01*
X150114000Y-53373000D02*
X150114000Y-55913000D01*
X165354000Y-66073000D02*
X167894000Y-66073000D01*
X139954000Y-43213000D02*
X139954000Y-45753000D01*
X150114000Y-43213000D02*
X150114000Y-45753000D01*
X124714000Y-55913000D02*
X124714000Y-58453000D01*
X132334000Y-50833000D02*
X132334000Y-53373000D01*
X132334000Y-73693000D02*
X132334000Y-76233000D01*
X117094000Y-60993000D02*
X117094000Y-63533000D01*
X170434000Y-68613000D02*
X172974000Y-68613000D01*
X119634000Y-55913000D02*
X119634000Y-58453000D01*
X134874000Y-40673000D02*
X134874000Y-43213000D01*
X122174000Y-58453000D02*
X122174000Y-60993000D01*
X139954000Y-73693000D02*
X139954000Y-76233000D01*
X127254000Y-55913000D02*
X127254000Y-58453000D01*
X122174000Y-53373000D02*
X122174000Y-55913000D01*
X122174000Y-60993000D02*
X122174000Y-63533000D01*
X127254000Y-58453000D02*
X127254000Y-60993000D01*
X137414000Y-43213000D02*
X137414000Y-45753000D01*
X101854000Y-60993000D02*
X101854000Y-63533000D01*
X145034000Y-66073000D02*
X147574000Y-66073000D01*
X142494000Y-50833000D02*
X142494000Y-53373000D01*
X117094000Y-73693000D02*
X117094000Y-76233000D01*
X114554000Y-66073000D02*
X117094000Y-66073000D01*
X114554000Y-73693000D02*
X114554000Y-76233000D01*
X124714000Y-66073000D02*
X127254000Y-66073000D01*
X137414000Y-71153000D02*
X137414000Y-73693000D01*
X175514000Y-66073000D02*
X178054000Y-66073000D01*
X99314000Y-73693000D02*
X99314000Y-76233000D01*
X155194000Y-68613000D02*
X157734000Y-68613000D01*
X132334000Y-38133000D02*
X132334000Y-40673000D01*
X155194000Y-73693000D02*
X155194000Y-76233000D01*
X178054000Y-73693000D02*
X178054000Y-76233000D01*
X142494000Y-60993000D02*
X142494000Y-63533000D01*
X152654000Y-71153000D02*
X152654000Y-73693000D01*
X139954000Y-55913000D02*
X139954000Y-58453000D01*
X112014000Y-60993000D02*
X112014000Y-63533000D01*
X119634000Y-73693000D02*
X119634000Y-76233000D01*
X152654000Y-73693000D02*
X152654000Y-76233000D01*
X119634000Y-68613000D02*
X122174000Y-68613000D01*
X109474000Y-58453000D02*
X109474000Y-60993000D01*
X134874000Y-45753000D02*
X134874000Y-48293000D01*
X152654000Y-50833000D02*
X152654000Y-53373000D01*
X139954000Y-38133000D02*
X139954000Y-40673000D01*
X145034000Y-53373000D02*
X145034000Y-55913000D01*
X137414000Y-50833000D02*
X137414000Y-53373000D01*
X175514000Y-71153000D02*
X175514000Y-73693000D01*
X112014000Y-58453000D02*
X112014000Y-60993000D01*
X127254000Y-66073000D02*
X129794000Y-66073000D01*
X155194000Y-66073000D02*
X157734000Y-66073000D01*
X117094000Y-68613000D02*
X119634000Y-68613000D01*
X81534000Y-73693000D02*
X81534000Y-76233000D01*
X119634000Y-53373000D02*
X119634000Y-55913000D01*
X172974000Y-66073000D02*
X175514000Y-66073000D01*
X94234000Y-73693000D02*
X94234000Y-76233000D01*
X91694000Y-71153000D02*
X91694000Y-73693000D01*
X147574000Y-53373000D02*
X147574000Y-55913000D01*
X160274000Y-71153000D02*
X160274000Y-73693000D01*
X152654000Y-55913000D02*
X152654000Y-58453000D01*
X84074000Y-68613000D02*
X86614000Y-68613000D01*
X170434000Y-73693000D02*
X170434000Y-76233000D01*
X139954000Y-66073000D02*
X142494000Y-66073000D01*
X142494000Y-38133000D02*
X142494000Y-40673000D01*
X145034000Y-40673000D02*
X145034000Y-43213000D01*
X129794000Y-55913000D02*
X129794000Y-58453000D01*
X155194000Y-38133000D02*
X155194000Y-40673000D01*
X129794000Y-66073000D02*
X132334000Y-66073000D01*
X119634000Y-58453000D02*
X119634000Y-60993000D01*
X155194000Y-71153000D02*
X155194000Y-73693000D01*
X122174000Y-73693000D02*
X122174000Y-76233000D01*
X124714000Y-40673000D02*
X124714000Y-43213000D01*
X81534000Y-58453000D02*
X81534000Y-60993000D01*
X142494000Y-45753000D02*
X142494000Y-48293000D01*
X139954000Y-45753000D02*
X139954000Y-48293000D01*
X155194000Y-60993000D02*
X155194000Y-63533000D01*
X150114000Y-55913000D02*
X150114000Y-58453000D01*
X119634000Y-38133000D02*
X119634000Y-40673000D01*
X145034000Y-68613000D02*
X147574000Y-68613000D01*
X132334000Y-43213000D02*
X132334000Y-45753000D01*
X132334000Y-66073000D02*
X134874000Y-66073000D01*
X124714000Y-45753000D02*
X124714000Y-48293000D01*
X155194000Y-50833000D02*
X155194000Y-53373000D01*
X119634000Y-60993000D02*
X119634000Y-63533000D01*
X81534000Y-68613000D02*
X84074000Y-68613000D01*
X86614000Y-60993000D02*
X86614000Y-63533000D01*
X86614000Y-66073000D02*
X89154000Y-66073000D01*
X122174000Y-38133000D02*
X122174000Y-40673000D01*
X122174000Y-45753000D02*
X122174000Y-48293000D01*
X147574000Y-50833000D02*
X147574000Y-53373000D01*
X165354000Y-68613000D02*
X167894000Y-68613000D01*
X134874000Y-55913000D02*
X134874000Y-58453000D01*
X124714000Y-73693000D02*
X124714000Y-76233000D01*
X91694000Y-58453000D02*
X91694000Y-60993000D01*
X132334000Y-40673000D02*
X132334000Y-43213000D01*
X89154000Y-58453000D02*
X89154000Y-60993000D01*
X99314000Y-58453000D02*
X99314000Y-60993000D01*
X132334000Y-60993000D02*
X132334000Y-63533000D01*
X150114000Y-71153000D02*
X150114000Y-73693000D01*
X134874000Y-73693000D02*
X134874000Y-76233000D01*
X139954000Y-68613000D02*
X142494000Y-68613000D01*
X112014000Y-68613000D02*
X114554000Y-68613000D01*
X155194000Y-40673000D02*
X155194000Y-43213000D01*
X109474000Y-71153000D02*
X109474000Y-73693000D01*
X137414000Y-38133000D02*
X137414000Y-40673000D01*
X147574000Y-68613000D02*
X150114000Y-68613000D01*
X114554000Y-60993000D02*
X114554000Y-63533000D01*
X172974000Y-68613000D02*
X175514000Y-68613000D01*
X137414000Y-40673000D02*
X137414000Y-43213000D01*
X150114000Y-66073000D02*
X152654000Y-66073000D01*
X109474000Y-60993000D02*
X109474000Y-63533000D01*
X122174000Y-66073000D02*
X124714000Y-66073000D01*
X124714000Y-60993000D02*
X124714000Y-63533000D01*
X86614000Y-71153000D02*
X86614000Y-73693000D01*
X122174000Y-71153000D02*
X122174000Y-73693000D01*
X170434000Y-66073000D02*
X172974000Y-66073000D01*
X127254000Y-38133000D02*
X127254000Y-40673000D01*
X96774000Y-68613000D02*
X99314000Y-68613000D01*
X152654000Y-40673000D02*
X152654000Y-43213000D01*
X94234000Y-60993000D02*
X94234000Y-63533000D01*
X132334000Y-68613000D02*
X134874000Y-68613000D01*
X150114000Y-45753000D02*
X150114000Y-48293000D01*
X84074000Y-71153000D02*
X84074000Y-73693000D01*
X101854000Y-71153000D02*
X101854000Y-73693000D01*
X106934000Y-73693000D02*
X106934000Y-76233000D01*
X129794000Y-45753000D02*
X129794000Y-48293000D01*
X96774000Y-60993000D02*
X96774000Y-63533000D01*
X142494000Y-40673000D02*
X142494000Y-43213000D01*
X89154000Y-68613000D02*
X91694000Y-68613000D01*
X152654000Y-53373000D02*
X152654000Y-55913000D01*
X160274000Y-66073000D02*
X162814000Y-66073000D01*
X139954000Y-40673000D02*
X139954000Y-43213000D01*
X139954000Y-50833000D02*
X139954000Y-53373000D01*
X152654000Y-38133000D02*
X152654000Y-40673000D01*
X91694000Y-68613000D02*
X94234000Y-68613000D01*
X127254000Y-71153000D02*
X127254000Y-73693000D01*
X152654000Y-43213000D02*
X152654000Y-45753000D01*
X172974000Y-73693000D02*
X172974000Y-76233000D01*
X129794000Y-50833000D02*
X129794000Y-53373000D01*
X122174000Y-55913000D02*
X122174000Y-58453000D01*
X127254000Y-43213000D02*
X127254000Y-45753000D01*
X147574000Y-66073000D02*
X150114000Y-66073000D01*
X81534000Y-71153000D02*
X81534000Y-73693000D01*
X94234000Y-58453000D02*
X94234000Y-60993000D01*
X99314000Y-60993000D02*
X99314000Y-63533000D01*
X145034000Y-60993000D02*
X145034000Y-63533000D01*
%TD*%
D16*
X79760000Y-34500000D02*
X179760000Y-34500000D01*
X179760000Y-84500000D01*
X79760000Y-84500000D01*
X79760000Y-34500000D01*
M02*
