%TF.GenerationSoftware,KiCad,Pcbnew,7.0.11+dfsg-1build4*%
%TF.CreationDate,2026-02-25T21:36:09-05:00*%
%TF.ProjectId,b04,6230342e-6b69-4636-9164-5f7063625858,rev?*%
%TF.SameCoordinates,Original*%
%TF.FileFunction,Soldermask,Top*%
%TF.FilePolarity,Negative*%
%FSLAX46Y46*%
G04 Gerber Fmt 4.6, Leading zero omitted, Abs format (unit mm)*
G04 Created by KiCad (PCBNEW 7.0.11+dfsg-1build4) date 2026-02-25 21:36:09*
%MOMM*%
%LPD*%
G01*
G04 APERTURE LIST*
%ADD10C,1.700000*%
%ADD11C,1.300000*%
%ADD12C,3.200000*%
%ADD13R,2.400000X2.400000*%
%ADD14C,2.400000*%
%TA.AperFunction,Profile*%
%ADD15C,0.050000*%
%TD*%
G04 APERTURE END LIST*
D10*
%TO.C,REF\u002A\u002A974*%
X127254000Y-73693000D03*
%TD*%
%TO.C,REF\u002A\u002A693*%
X84074000Y-58453000D03*
%TD*%
%TO.C,REF\u002A\u002A743*%
X99314000Y-60993000D03*
%TD*%
%TO.C,REF\u002A\u002A789*%
X104394000Y-63533000D03*
%TD*%
%TO.C,REF\u002A\u002A736*%
X81534000Y-60993000D03*
%TD*%
%TO.C,REF\u002A\u002A1033*%
X165354000Y-76233000D03*
%TD*%
%TO.C,REF\u002A\u002A904*%
X172974000Y-68613000D03*
%TD*%
D11*
%TO.C,REF\u002A\u002A2775*%
X89673000Y-56116000D03*
%TD*%
D10*
%TO.C,REF\u002A\u002A790*%
X106934000Y-63533000D03*
%TD*%
%TO.C,REF\u002A\u002A540*%
X142494000Y-48293000D03*
%TD*%
%TO.C,REF\u002A\u002A1010*%
X106934000Y-76233000D03*
%TD*%
%TO.C,REF\u002A\u002A577*%
X124714000Y-50833000D03*
%TD*%
%TO.C,REF\u002A\u002A874*%
X96774000Y-68613000D03*
%TD*%
%TO.C,REF\u002A\u002A402*%
X127254000Y-40673000D03*
%TD*%
%TO.C,REF\u002A\u002A892*%
X142494000Y-68613000D03*
%TD*%
%TO.C,REF\u002A\u002A947*%
X170434000Y-71153000D03*
%TD*%
%TO.C,REF\u002A\u002A667*%
X129794000Y-55913000D03*
%TD*%
%TO.C,REF\u002A\u002A752*%
X122174000Y-60993000D03*
%TD*%
%TO.C,REF\u002A\u002A671*%
X139954000Y-55913000D03*
%TD*%
%TO.C,REF\u002A\u002A922*%
X106934000Y-71153000D03*
%TD*%
%TO.C,REF\u002A\u002A399*%
X119634000Y-40673000D03*
%TD*%
%TO.C,REF\u002A\u002A896*%
X152654000Y-68613000D03*
%TD*%
D11*
%TO.C,REF\u002A\u002A2775*%
X94923000Y-56116000D03*
%TD*%
D10*
%TO.C,REF\u002A\u002A842*%
X127254000Y-66073000D03*
%TD*%
%TO.C,REF\u002A\u002A809*%
X155194000Y-63533000D03*
%TD*%
%TO.C,REF\u002A\u002A799*%
X129794000Y-63533000D03*
%TD*%
%TO.C,REF\u002A\u002A1007*%
X99314000Y-76233000D03*
%TD*%
%TO.C,REF\u002A\u002A852*%
X152654000Y-66073000D03*
%TD*%
D11*
%TO.C,REF\u002A\u002A*%
X160800000Y-60144000D03*
%TD*%
D10*
%TO.C,REF\u002A\u002A631*%
X150114000Y-53373000D03*
%TD*%
D11*
%TO.C,REF\u002A\u002A2775*%
X87923000Y-53576000D03*
%TD*%
D12*
%TO.C,MH05*%
X130120000Y-82000000D03*
%TD*%
D10*
%TO.C,REF\u002A\u002A492*%
X132334000Y-45753000D03*
%TD*%
%TO.C,REF\u002A\u002A800*%
X132334000Y-63533000D03*
%TD*%
%TO.C,REF\u002A\u002A545*%
X155194000Y-48293000D03*
%TD*%
%TO.C,REF\u002A\u002A627*%
X139954000Y-53373000D03*
%TD*%
D11*
%TO.C,REF\u002A\u002A2775*%
X103673000Y-53576000D03*
%TD*%
D10*
%TO.C,REF\u002A\u002A888*%
X132334000Y-68613000D03*
%TD*%
%TO.C,REF\u002A\u002A931*%
X129794000Y-71153000D03*
%TD*%
%TO.C,REF\u002A\u002A400*%
X122174000Y-40673000D03*
%TD*%
%TO.C,REF\u002A\u002A960*%
X91694000Y-73693000D03*
%TD*%
%TO.C,REF\u002A\u002A853*%
X155194000Y-66073000D03*
%TD*%
%TO.C,REF\u002A\u002A739*%
X89154000Y-60993000D03*
%TD*%
D11*
%TO.C,REF\u002A\u002A2779*%
X158260000Y-56644000D03*
%TD*%
D10*
%TO.C,REF\u002A\u002A366*%
X147574000Y-38133000D03*
%TD*%
%TO.C,REF\u002A\u002A586*%
X147574000Y-50833000D03*
%TD*%
%TO.C,REF\u002A\u002A357*%
X124714000Y-38133000D03*
%TD*%
%TO.C,REF\u002A\u002A753*%
X124714000Y-60993000D03*
%TD*%
%TO.C,REF\u002A\u002A624*%
X132334000Y-53373000D03*
%TD*%
%TO.C,REF\u002A\u002A450*%
X137414000Y-43213000D03*
%TD*%
%TO.C,REF\u002A\u002A935*%
X139954000Y-71153000D03*
%TD*%
%TO.C,REF\u002A\u002A1014*%
X117094000Y-76233000D03*
%TD*%
%TO.C,REF\u002A\u002A500*%
X152654000Y-45753000D03*
%TD*%
%TO.C,REF\u002A\u002A755*%
X129794000Y-60993000D03*
%TD*%
%TO.C,REF\u002A\u002A403*%
X129794000Y-40673000D03*
%TD*%
D11*
%TO.C,REF\u002A\u002A2775*%
X84423000Y-56116000D03*
%TD*%
D10*
%TO.C,REF\u002A\u002A632*%
X152654000Y-53373000D03*
%TD*%
D11*
%TO.C,REF\u002A\u002A2775*%
X101923000Y-53576000D03*
%TD*%
D10*
%TO.C,REF\u002A\u002A968*%
X112014000Y-73693000D03*
%TD*%
D11*
%TO.C,REF\u002A\u002A2775*%
X110673000Y-53576000D03*
%TD*%
D12*
%TO.C,MH01*%
X170760000Y-82000000D03*
%TD*%
D10*
%TO.C,REF\u002A\u002A669*%
X134874000Y-55913000D03*
%TD*%
%TO.C,REF\u002A\u002A745*%
X104394000Y-60993000D03*
%TD*%
%TO.C,REF\u002A\u002A894*%
X147574000Y-68613000D03*
%TD*%
%TO.C,REF\u002A\u002A932*%
X132334000Y-71153000D03*
%TD*%
%TO.C,REF\u002A\u002A1038*%
X178054000Y-76233000D03*
%TD*%
%TO.C,REF\u002A\u002A855*%
X170434000Y-66073000D03*
%TD*%
D12*
%TO.C,MH03*%
X150440000Y-82000000D03*
%TD*%
D11*
%TO.C,REF\u002A\u002A2775*%
X107173000Y-56116000D03*
%TD*%
D10*
%TO.C,REF\u002A\u002A355*%
X119634000Y-38133000D03*
%TD*%
%TO.C,REF\u002A\u002A619*%
X119634000Y-53373000D03*
%TD*%
%TO.C,REF\u002A\u002A750*%
X117094000Y-60993000D03*
%TD*%
%TO.C,REF\u002A\u002A987*%
X160274000Y-73693000D03*
%TD*%
%TO.C,REF\u002A\u002A938*%
X147574000Y-71153000D03*
%TD*%
%TO.C,REF\u002A\u002A943*%
X160274000Y-71153000D03*
%TD*%
D11*
%TO.C,REF\u002A\u002A2794*%
X160800000Y-42644000D03*
%TD*%
%TO.C,REF\u002A\u002A2775*%
X86173000Y-56116000D03*
%TD*%
D10*
%TO.C,REF\u002A\u002A788*%
X101854000Y-63533000D03*
%TD*%
%TO.C,REF\u002A\u002A982*%
X147574000Y-73693000D03*
%TD*%
%TO.C,REF\u002A\u002A841*%
X124714000Y-66073000D03*
%TD*%
%TO.C,REF\u002A\u002A893*%
X145034000Y-68613000D03*
%TD*%
%TO.C,REF\u002A\u002A630*%
X147574000Y-53373000D03*
%TD*%
%TO.C,REF\u002A\u002A976*%
X132334000Y-73693000D03*
%TD*%
%TO.C,REF\u002A\u002A861*%
X175514000Y-66073000D03*
%TD*%
%TO.C,REF\u002A\u002A862*%
X178054000Y-66073000D03*
%TD*%
%TO.C,REF\u002A\u002A1022*%
X137414000Y-76233000D03*
%TD*%
D11*
%TO.C,REF\u002A\u002A2775*%
X101923000Y-56116000D03*
%TD*%
D10*
%TO.C,REF\u002A\u002A902*%
X167894000Y-68613000D03*
%TD*%
%TO.C,REF\u002A\u002A945*%
X165354000Y-71153000D03*
%TD*%
%TO.C,REF\u002A\u002A964*%
X101854000Y-73693000D03*
%TD*%
%TO.C,REF\u002A\u002A1005*%
X94234000Y-76233000D03*
%TD*%
%TO.C,REF\u002A\u002A844*%
X132334000Y-66073000D03*
%TD*%
%TO.C,REF\u002A\u002A363*%
X139954000Y-38133000D03*
%TD*%
%TO.C,REF\u002A\u002A759*%
X139954000Y-60993000D03*
%TD*%
%TO.C,REF\u002A\u002A492*%
X139954000Y-48293000D03*
%TD*%
%TO.C,REF\u002A\u002A367*%
X150114000Y-38133000D03*
%TD*%
%TO.C,REF\u002A\u002A940*%
X152654000Y-71153000D03*
%TD*%
%TO.C,REF\u002A\u002A925*%
X114554000Y-71153000D03*
%TD*%
%TO.C,REF\u002A\u002A361*%
X134874000Y-38133000D03*
%TD*%
%TO.C,REF\u002A\u002A962*%
X96774000Y-73693000D03*
%TD*%
D11*
%TO.C,REF\u002A\u002A2787*%
X158260000Y-49644000D03*
%TD*%
%TO.C,REF\u002A\u002A2799*%
X158260000Y-39144000D03*
%TD*%
D10*
%TO.C,REF\u002A\u002A1021*%
X134874000Y-76233000D03*
%TD*%
%TO.C,REF\u002A\u002A717*%
X145034000Y-58453000D03*
%TD*%
%TO.C,REF\u002A\u002A628*%
X142494000Y-53373000D03*
%TD*%
%TO.C,REF\u002A\u002A761*%
X145034000Y-60993000D03*
%TD*%
%TO.C,REF\u002A\u002A905*%
X175514000Y-68613000D03*
%TD*%
%TO.C,REF\u002A\u002A455*%
X150114000Y-43213000D03*
%TD*%
%TO.C,REF\u002A\u002A674*%
X147574000Y-55913000D03*
%TD*%
D11*
%TO.C,REF\u002A\u002A2775*%
X108923000Y-56116000D03*
%TD*%
D10*
%TO.C,REF\u002A\u002A492*%
X132334000Y-50833000D03*
%TD*%
%TO.C,REF\u002A\u002A977*%
X134874000Y-73693000D03*
%TD*%
%TO.C,REF\u002A\u002A831*%
X99314000Y-66073000D03*
%TD*%
%TO.C,REF\u002A\u002A1008*%
X101854000Y-76233000D03*
%TD*%
%TO.C,REF\u002A\u002A980*%
X142494000Y-73693000D03*
%TD*%
%TO.C,REF\u002A\u002A993*%
X175514000Y-73693000D03*
%TD*%
%TO.C,REF\u002A\u002A756*%
X132334000Y-60993000D03*
%TD*%
%TO.C,REF\u002A\u002A369*%
X155194000Y-38133000D03*
%TD*%
%TO.C,REF\u002A\u002A707*%
X119634000Y-58453000D03*
%TD*%
D11*
%TO.C,REF\u002A\u002A2798*%
X160800000Y-39144000D03*
%TD*%
D10*
%TO.C,REF\u002A\u002A718*%
X147574000Y-58453000D03*
%TD*%
%TO.C,REF\u002A\u002A453*%
X145034000Y-43213000D03*
%TD*%
%TO.C,REF\u002A\u002A797*%
X124714000Y-63533000D03*
%TD*%
%TO.C,REF\u002A\u002A1034*%
X167894000Y-76233000D03*
%TD*%
D11*
%TO.C,REF\u002A\u002A2775*%
X110673000Y-56116000D03*
%TD*%
D10*
%TO.C,REF\u002A\u002A791*%
X109474000Y-63533000D03*
%TD*%
%TO.C,REF\u002A\u002A533*%
X124714000Y-48293000D03*
%TD*%
D11*
%TO.C,REF\u002A\u002A2775*%
X91423000Y-53576000D03*
%TD*%
D10*
%TO.C,REF\u002A\u002A1011*%
X109474000Y-76233000D03*
%TD*%
%TO.C,REF\u002A\u002A456*%
X152654000Y-43213000D03*
%TD*%
%TO.C,REF\u002A\u002A489*%
X124714000Y-45753000D03*
%TD*%
%TO.C,REF\u002A\u002A405*%
X134874000Y-40673000D03*
%TD*%
%TO.C,REF\u002A\u002A845*%
X134874000Y-66073000D03*
%TD*%
%TO.C,REF\u002A\u002A1002*%
X86614000Y-76233000D03*
%TD*%
%TO.C,REF\u002A\u002A535*%
X129794000Y-48293000D03*
%TD*%
%TO.C,REF\u002A\u002A783*%
X89154000Y-63533000D03*
%TD*%
D11*
%TO.C,REF\u002A\u002A2775*%
X98423000Y-56116000D03*
%TD*%
D10*
%TO.C,REF\u002A\u002A496*%
X142494000Y-45753000D03*
%TD*%
%TO.C,REF\u002A\u002A879*%
X109474000Y-68613000D03*
%TD*%
%TO.C,REF\u002A\u002A720*%
X152654000Y-58453000D03*
%TD*%
%TO.C,REF\u002A\u002A754*%
X127254000Y-60993000D03*
%TD*%
%TO.C,REF\u002A\u002A956*%
X81534000Y-73693000D03*
%TD*%
%TO.C,REF\u002A\u002A492*%
X134874000Y-48293000D03*
%TD*%
%TO.C,REF\u002A\u002A784*%
X91694000Y-63533000D03*
%TD*%
%TO.C,REF\u002A\u002A958*%
X86614000Y-73693000D03*
%TD*%
%TO.C,REF\u002A\u002A741*%
X94234000Y-60993000D03*
%TD*%
%TO.C,REF\u002A\u002A855*%
X160274000Y-66073000D03*
%TD*%
D11*
%TO.C,REF\u002A\u002A2775*%
X105423000Y-56116000D03*
%TD*%
D10*
%TO.C,REF\u002A\u002A1015*%
X119634000Y-76233000D03*
%TD*%
%TO.C,REF\u002A\u002A492*%
X139954000Y-50833000D03*
%TD*%
%TO.C,REF\u002A\u002A497*%
X145034000Y-45753000D03*
%TD*%
%TO.C,REF\u002A\u002A782*%
X86614000Y-63533000D03*
%TD*%
%TO.C,REF\u002A\u002A364*%
X142494000Y-38133000D03*
%TD*%
%TO.C,REF\u002A\u002A747*%
X109474000Y-60993000D03*
%TD*%
%TO.C,REF\u002A\u002A929*%
X124714000Y-71153000D03*
%TD*%
%TO.C,REF\u002A\u002A965*%
X104394000Y-73693000D03*
%TD*%
%TO.C,REF\u002A\u002A623*%
X129794000Y-53373000D03*
%TD*%
%TO.C,REF\u002A\u002A889*%
X134874000Y-68613000D03*
%TD*%
%TO.C,REF\u002A\u002A1018*%
X127254000Y-76233000D03*
%TD*%
%TO.C,REF\u002A\u002A675*%
X150114000Y-55913000D03*
%TD*%
%TO.C,REF\u002A\u002A702*%
X106934000Y-58453000D03*
%TD*%
D11*
%TO.C,REF\u002A\u002A2775*%
X114173000Y-56116000D03*
%TD*%
D10*
%TO.C,REF\u002A\u002A740*%
X91694000Y-60993000D03*
%TD*%
%TO.C,REF\u002A\u002A872*%
X91694000Y-68613000D03*
%TD*%
%TO.C,REF\u002A\u002A891*%
X139954000Y-68613000D03*
%TD*%
%TO.C,REF\u002A\u002A765*%
X155194000Y-60993000D03*
%TD*%
%TO.C,REF\u002A\u002A880*%
X112014000Y-68613000D03*
%TD*%
%TO.C,REF\u002A\u002A719*%
X150114000Y-58453000D03*
%TD*%
%TO.C,REF\u002A\u002A886*%
X127254000Y-68613000D03*
%TD*%
%TO.C,REF\u002A\u002A412*%
X152654000Y-40673000D03*
%TD*%
%TO.C,REF\u002A\u002A751*%
X119634000Y-60993000D03*
%TD*%
%TO.C,REF\u002A\u002A878*%
X106934000Y-68613000D03*
%TD*%
%TO.C,REF\u002A\u002A882*%
X117094000Y-68613000D03*
%TD*%
%TO.C,REF\u002A\u002A757*%
X134874000Y-60993000D03*
%TD*%
%TO.C,REF\u002A\u002A1024*%
X142494000Y-76233000D03*
%TD*%
%TO.C,REF\u002A\u002A793*%
X114554000Y-63533000D03*
%TD*%
%TO.C,REF\u002A\u002A942*%
X157734000Y-71153000D03*
%TD*%
%TO.C,REF\u002A\u002A824*%
X81534000Y-66073000D03*
%TD*%
%TO.C,REF\u002A\u002A828*%
X91694000Y-66073000D03*
%TD*%
D11*
%TO.C,REF\u002A\u002A2775*%
X158260000Y-60144000D03*
%TD*%
D10*
%TO.C,REF\u002A\u002A884*%
X122174000Y-68613000D03*
%TD*%
%TO.C,REF\u002A\u002A714*%
X137414000Y-58453000D03*
%TD*%
%TO.C,REF\u002A\u002A492*%
X132334000Y-48293000D03*
%TD*%
%TO.C,REF\u002A\u002A737*%
X84074000Y-60993000D03*
%TD*%
D11*
%TO.C,REF\u002A\u002A2775*%
X82673000Y-56116000D03*
%TD*%
D10*
%TO.C,REF\u002A\u002A401*%
X124714000Y-40673000D03*
%TD*%
%TO.C,REF\u002A\u002A946*%
X167894000Y-71153000D03*
%TD*%
D11*
%TO.C,REF\u002A\u002A2775*%
X96673000Y-56116000D03*
%TD*%
D10*
%TO.C,REF\u002A\u002A534*%
X127254000Y-48293000D03*
%TD*%
%TO.C,REF\u002A\u002A830*%
X96774000Y-66073000D03*
%TD*%
D12*
%TO.C,MH09*%
X89480000Y-82000000D03*
%TD*%
D10*
%TO.C,REF\u002A\u002A1031*%
X160274000Y-76233000D03*
%TD*%
%TO.C,REF\u002A\u002A826*%
X86614000Y-66073000D03*
%TD*%
D11*
%TO.C,REF\u002A\u002A2784*%
X160800000Y-51394000D03*
%TD*%
%TO.C,REF\u002A\u002A2775*%
X84423000Y-53576000D03*
%TD*%
D10*
%TO.C,REF\u002A\u002A854*%
X157734000Y-66073000D03*
%TD*%
%TO.C,REF\u002A\u002A792*%
X112014000Y-63533000D03*
%TD*%
%TO.C,REF\u002A\u002A365*%
X145034000Y-38133000D03*
%TD*%
%TO.C,REF\u002A\u002A492*%
X134874000Y-45753000D03*
%TD*%
%TO.C,REF\u002A\u002A840*%
X122174000Y-66073000D03*
%TD*%
%TO.C,REF\u002A\u002A900*%
X162814000Y-68613000D03*
%TD*%
%TO.C,REF\u002A\u002A492*%
X134874000Y-50833000D03*
%TD*%
D11*
%TO.C,REF\u002A\u002A2786*%
X160800000Y-49644000D03*
%TD*%
%TO.C,REF\u002A\u002A2775*%
X108923000Y-53576000D03*
%TD*%
D10*
%TO.C,REF\u002A\u002A781*%
X84074000Y-63533000D03*
%TD*%
%TO.C,REF\u002A\u002A492*%
X137414000Y-45753000D03*
%TD*%
D11*
%TO.C,REF\u002A\u002A2775*%
X82673000Y-53576000D03*
%TD*%
D10*
%TO.C,REF\u002A\u002A978*%
X137414000Y-73693000D03*
%TD*%
%TO.C,REF\u002A\u002A1004*%
X91694000Y-76233000D03*
%TD*%
%TO.C,REF\u002A\u002A1025*%
X145034000Y-76233000D03*
%TD*%
%TO.C,REF\u002A\u002A1027*%
X150114000Y-76233000D03*
%TD*%
D12*
%TO.C,MH02*%
X160600000Y-82000000D03*
%TD*%
D10*
%TO.C,REF\u002A\u002A897*%
X155194000Y-68613000D03*
%TD*%
%TO.C,REF\u002A\u002A413*%
X155194000Y-40673000D03*
%TD*%
%TO.C,REF\u002A\u002A786*%
X96774000Y-63533000D03*
%TD*%
D11*
%TO.C,REF\u002A\u002A2775*%
X112423000Y-56116000D03*
%TD*%
D10*
%TO.C,REF\u002A\u002A808*%
X152654000Y-63533000D03*
%TD*%
%TO.C,REF\u002A\u002A825*%
X84074000Y-66073000D03*
%TD*%
D11*
%TO.C,REF\u002A\u002A2775*%
X105423000Y-53576000D03*
%TD*%
D10*
%TO.C,REF\u002A\u002A927*%
X119634000Y-71153000D03*
%TD*%
%TO.C,REF\u002A\u002A855*%
X162814000Y-66073000D03*
%TD*%
%TO.C,REF\u002A\u002A1028*%
X152654000Y-76233000D03*
%TD*%
%TO.C,REF\u002A\u002A939*%
X150114000Y-71153000D03*
%TD*%
%TO.C,REF\u002A\u002A362*%
X137414000Y-38133000D03*
%TD*%
%TO.C,REF\u002A\u002A452*%
X142494000Y-43213000D03*
%TD*%
%TO.C,REF\u002A\u002A959*%
X89154000Y-73693000D03*
%TD*%
%TO.C,REF\u002A\u002A992*%
X172974000Y-73693000D03*
%TD*%
D12*
%TO.C,MH07*%
X109800000Y-82000000D03*
%TD*%
D10*
%TO.C,REF\u002A\u002A501*%
X155194000Y-45753000D03*
%TD*%
%TO.C,REF\u002A\u002A979*%
X139954000Y-73693000D03*
%TD*%
D11*
%TO.C,REF\u002A\u002A2792*%
X160800000Y-44394000D03*
%TD*%
%TO.C,REF\u002A\u002A2778*%
X160800000Y-56644000D03*
%TD*%
D10*
%TO.C,REF\u002A\u002A495*%
X139954000Y-45753000D03*
%TD*%
%TO.C,REF\u002A\u002A622*%
X127254000Y-53373000D03*
%TD*%
%TO.C,REF\u002A\u002A988*%
X162814000Y-73693000D03*
%TD*%
%TO.C,REF\u002A\u002A957*%
X84074000Y-73693000D03*
%TD*%
%TO.C,REF\u002A\u002A457*%
X155194000Y-43213000D03*
%TD*%
%TO.C,REF\u002A\u002A449*%
X134874000Y-43213000D03*
%TD*%
%TO.C,REF\u002A\u002A839*%
X119634000Y-66073000D03*
%TD*%
D11*
%TO.C,REF\u002A\u002A2775*%
X103673000Y-56116000D03*
%TD*%
D10*
%TO.C,REF\u002A\u002A492*%
X134874000Y-53373000D03*
%TD*%
%TO.C,REF\u002A\u002A704*%
X112014000Y-58453000D03*
%TD*%
%TO.C,REF\u002A\u002A738*%
X86614000Y-60993000D03*
%TD*%
%TO.C,REF\u002A\u002A588*%
X152654000Y-50833000D03*
%TD*%
%TO.C,REF\u002A\u002A543*%
X150114000Y-48293000D03*
%TD*%
D11*
%TO.C,REF\u002A\u002A2776*%
X160800000Y-58394000D03*
%TD*%
%TO.C,REF\u002A\u002A2775*%
X100173000Y-56116000D03*
%TD*%
D12*
%TO.C,MH08*%
X99640000Y-82000000D03*
%TD*%
D10*
%TO.C,REF\u002A\u002A1006*%
X96774000Y-76233000D03*
%TD*%
%TO.C,REF\u002A\u002A1013*%
X114554000Y-76233000D03*
%TD*%
%TO.C,REF\u002A\u002A985*%
X155194000Y-73693000D03*
%TD*%
%TO.C,REF\u002A\u002A633*%
X155194000Y-53373000D03*
%TD*%
%TO.C,REF\u002A\u002A697*%
X94234000Y-58453000D03*
%TD*%
%TO.C,REF\u002A\u002A705*%
X114554000Y-58453000D03*
%TD*%
%TO.C,REF\u002A\u002A923*%
X109474000Y-71153000D03*
%TD*%
%TO.C,REF\u002A\u002A835*%
X109474000Y-66073000D03*
%TD*%
%TO.C,REF\u002A\u002A890*%
X137414000Y-68613000D03*
%TD*%
%TO.C,REF\u002A\u002A666*%
X127254000Y-55913000D03*
%TD*%
%TO.C,REF\u002A\u002A1020*%
X132334000Y-76233000D03*
%TD*%
%TO.C,REF\u002A\u002A358*%
X127254000Y-38133000D03*
%TD*%
%TO.C,REF\u002A\u002A446*%
X127254000Y-43213000D03*
%TD*%
%TO.C,REF\u002A\u002A744*%
X101854000Y-60993000D03*
%TD*%
%TO.C,REF\u002A\u002A881*%
X114554000Y-68613000D03*
%TD*%
%TO.C,REF\u002A\u002A748*%
X112014000Y-60993000D03*
%TD*%
%TO.C,REF\u002A\u002A448*%
X132334000Y-43213000D03*
%TD*%
%TO.C,REF\u002A\u002A585*%
X145034000Y-50833000D03*
%TD*%
%TO.C,REF\u002A\u002A621*%
X124714000Y-53373000D03*
%TD*%
%TO.C,REF\u002A\u002A803*%
X139954000Y-63533000D03*
%TD*%
%TO.C,REF\u002A\u002A762*%
X147574000Y-60993000D03*
%TD*%
D11*
%TO.C,REF\u002A\u002A2775*%
X115923000Y-53576000D03*
%TD*%
D10*
%TO.C,REF\u002A\u002A664*%
X122174000Y-55913000D03*
%TD*%
%TO.C,REF\u002A\u002A1023*%
X139954000Y-76233000D03*
%TD*%
%TO.C,REF\u002A\u002A1001*%
X84074000Y-76233000D03*
%TD*%
D11*
%TO.C,REF\u002A\u002A2791*%
X158260000Y-46144000D03*
%TD*%
%TO.C,REF\u002A\u002A2780*%
X160800000Y-54894000D03*
%TD*%
D10*
%TO.C,REF\u002A\u002A855*%
X167894000Y-66073000D03*
%TD*%
%TO.C,REF\u002A\u002A796*%
X122174000Y-63533000D03*
%TD*%
D11*
%TO.C,REF\u002A\u002A2783*%
X158260000Y-53144000D03*
%TD*%
D10*
%TO.C,REF\u002A\u002A918*%
X96774000Y-71153000D03*
%TD*%
%TO.C,REF\u002A\u002A970*%
X117094000Y-73693000D03*
%TD*%
%TO.C,REF\u002A\u002A1029*%
X155194000Y-76233000D03*
%TD*%
%TO.C,REF\u002A\u002A700*%
X101854000Y-58453000D03*
%TD*%
%TO.C,REF\u002A\u002A967*%
X109474000Y-73693000D03*
%TD*%
%TO.C,REF\u002A\u002A937*%
X145034000Y-71153000D03*
%TD*%
%TO.C,REF\u002A\u002A663*%
X119634000Y-55913000D03*
%TD*%
%TO.C,REF\u002A\u002A498*%
X147574000Y-45753000D03*
%TD*%
D11*
%TO.C,REF\u002A\u002A2775*%
X86173000Y-53576000D03*
%TD*%
D10*
%TO.C,REF\u002A\u002A665*%
X124714000Y-55913000D03*
%TD*%
%TO.C,REF\u002A\u002A846*%
X137414000Y-66073000D03*
%TD*%
%TO.C,REF\u002A\u002A584*%
X142494000Y-50833000D03*
%TD*%
%TO.C,REF\u002A\u002A695*%
X89154000Y-58453000D03*
%TD*%
%TO.C,REF\u002A\u002A838*%
X117094000Y-66073000D03*
%TD*%
%TO.C,REF\u002A\u002A869*%
X84074000Y-68613000D03*
%TD*%
D11*
%TO.C,REF\u002A\u002A2775*%
X93173000Y-56116000D03*
%TD*%
D10*
%TO.C,REF\u002A\u002A990*%
X167894000Y-73693000D03*
%TD*%
%TO.C,REF\u002A\u002A873*%
X94234000Y-68613000D03*
%TD*%
%TO.C,REF\u002A\u002A359*%
X129794000Y-38133000D03*
%TD*%
%TO.C,REF\u002A\u002A855*%
X165354000Y-66073000D03*
%TD*%
%TO.C,REF\u002A\u002A447*%
X129794000Y-43213000D03*
%TD*%
%TO.C,REF\u002A\u002A356*%
X122174000Y-38133000D03*
%TD*%
%TO.C,REF\u002A\u002A919*%
X99314000Y-71153000D03*
%TD*%
%TO.C,REF\u002A\u002A966*%
X106934000Y-73693000D03*
%TD*%
%TO.C,REF\u002A\u002A871*%
X89154000Y-68613000D03*
%TD*%
%TO.C,REF\u002A\u002A410*%
X147574000Y-40673000D03*
%TD*%
%TO.C,REF\u002A\u002A877*%
X104394000Y-68613000D03*
%TD*%
%TO.C,REF\u002A\u002A855*%
X172974000Y-66073000D03*
%TD*%
%TO.C,REF\u002A\u002A721*%
X155194000Y-58453000D03*
%TD*%
%TO.C,REF\u002A\u002A832*%
X101854000Y-66073000D03*
%TD*%
%TO.C,REF\u002A\u002A827*%
X89154000Y-66073000D03*
%TD*%
%TO.C,REF\u002A\u002A701*%
X104394000Y-58453000D03*
%TD*%
%TO.C,REF\u002A\u002A411*%
X150114000Y-40673000D03*
%TD*%
%TO.C,REF\u002A\u002A703*%
X109474000Y-58453000D03*
%TD*%
%TO.C,REF\u002A\u002A837*%
X114554000Y-66073000D03*
%TD*%
D11*
%TO.C,REF\u002A\u002A2801*%
X158260000Y-37394000D03*
%TD*%
D10*
%TO.C,REF\u002A\u002A404*%
X132334000Y-40673000D03*
%TD*%
%TO.C,REF\u002A\u002A694*%
X86614000Y-58453000D03*
%TD*%
%TO.C,REF\u002A\u002A709*%
X124714000Y-58453000D03*
%TD*%
D11*
%TO.C,REF\u002A\u002A2785*%
X158260000Y-51394000D03*
%TD*%
%TO.C,REF\u002A\u002A2775*%
X89673000Y-53576000D03*
%TD*%
D10*
%TO.C,REF\u002A\u002A677*%
X155194000Y-55913000D03*
%TD*%
%TO.C,REF\u002A\u002A836*%
X112014000Y-66073000D03*
%TD*%
D11*
%TO.C,REF\u002A\u002A2775*%
X96673000Y-53576000D03*
%TD*%
D10*
%TO.C,REF\u002A\u002A829*%
X94234000Y-66073000D03*
%TD*%
%TO.C,REF\u002A\u002A673*%
X145034000Y-55913000D03*
%TD*%
%TO.C,REF\u002A\u002A1017*%
X124714000Y-76233000D03*
%TD*%
%TO.C,REF\u002A\u002A848*%
X142494000Y-66073000D03*
%TD*%
%TO.C,REF\u002A\u002A763*%
X150114000Y-60993000D03*
%TD*%
%TO.C,REF\u002A\u002A408*%
X142494000Y-40673000D03*
%TD*%
%TO.C,REF\u002A\u002A454*%
X147574000Y-43213000D03*
%TD*%
D11*
%TO.C,REF\u002A\u002A2775*%
X100173000Y-53576000D03*
%TD*%
D10*
%TO.C,REF\u002A\u002A499*%
X150114000Y-45753000D03*
%TD*%
%TO.C,REF\u002A\u002A989*%
X165354000Y-73693000D03*
%TD*%
%TO.C,REF\u002A\u002A917*%
X94234000Y-71153000D03*
%TD*%
D11*
%TO.C,REF\u002A\u002A2781*%
X158260000Y-54894000D03*
%TD*%
D10*
%TO.C,REF\u002A\u002A409*%
X145034000Y-40673000D03*
%TD*%
D11*
%TO.C,REF\u002A\u002A2775*%
X112423000Y-53576000D03*
%TD*%
%TO.C,REF\u002A\u002A2777*%
X158260000Y-58394000D03*
%TD*%
D10*
%TO.C,REF\u002A\u002A708*%
X122174000Y-58453000D03*
%TD*%
%TO.C,REF\u002A\u002A1037*%
X175514000Y-76233000D03*
%TD*%
%TO.C,REF\u002A\u002A924*%
X112014000Y-71153000D03*
%TD*%
D11*
%TO.C,REF\u002A\u002A2797*%
X158260000Y-40894000D03*
%TD*%
%TO.C,REF\u002A\u002A2800*%
X160800000Y-37394000D03*
%TD*%
%TO.C,REF\u002A\u002A2775*%
X107173000Y-53576000D03*
%TD*%
D10*
%TO.C,REF\u002A\u002A912*%
X81534000Y-71153000D03*
%TD*%
%TO.C,REF\u002A\u002A749*%
X114554000Y-60993000D03*
%TD*%
%TO.C,REF\u002A\u002A984*%
X152654000Y-73693000D03*
%TD*%
%TO.C,REF\u002A\u002A801*%
X134874000Y-63533000D03*
%TD*%
%TO.C,REF\u002A\u002A742*%
X96774000Y-60993000D03*
%TD*%
%TO.C,REF\u002A\u002A804*%
X142494000Y-63533000D03*
%TD*%
%TO.C,REF\u002A\u002A360*%
X132334000Y-38133000D03*
%TD*%
%TO.C,REF\u002A\u002A1000*%
X81534000Y-76233000D03*
%TD*%
%TO.C,REF\u002A\u002A921*%
X104394000Y-71153000D03*
%TD*%
%TO.C,REF\u002A\u002A491*%
X129794000Y-45753000D03*
%TD*%
%TO.C,REF\u002A\u002A629*%
X145034000Y-53373000D03*
%TD*%
%TO.C,REF\u002A\u002A994*%
X178054000Y-73693000D03*
%TD*%
%TO.C,REF\u002A\u002A906*%
X178054000Y-68613000D03*
%TD*%
%TO.C,REF\u002A\u002A944*%
X162814000Y-71153000D03*
%TD*%
%TO.C,REF\u002A\u002A1036*%
X172974000Y-76233000D03*
%TD*%
%TO.C,REF\u002A\u002A975*%
X129794000Y-73693000D03*
%TD*%
%TO.C,REF\u002A\u002A843*%
X129794000Y-66073000D03*
%TD*%
%TO.C,REF\u002A\u002A973*%
X124714000Y-73693000D03*
%TD*%
%TO.C,REF\u002A\u002A716*%
X142494000Y-58453000D03*
%TD*%
%TO.C,REF\u002A\u002A492*%
X137414000Y-48293000D03*
%TD*%
%TO.C,REF\u002A\u002A963*%
X99314000Y-73693000D03*
%TD*%
%TO.C,REF\u002A\u002A368*%
X152654000Y-38133000D03*
%TD*%
%TO.C,REF\u002A\u002A492*%
X137414000Y-53373000D03*
%TD*%
%TO.C,REF\u002A\u002A915*%
X89154000Y-71153000D03*
%TD*%
D11*
%TO.C,REF\u002A\u002A2775*%
X94923000Y-53576000D03*
%TD*%
D10*
%TO.C,REF\u002A\u002A532*%
X122174000Y-48293000D03*
%TD*%
D11*
%TO.C,REF\u002A\u002A2775*%
X98423000Y-53576000D03*
%TD*%
D10*
%TO.C,REF\u002A\u002A969*%
X114554000Y-73693000D03*
%TD*%
%TO.C,REF\u002A\u002A948*%
X172974000Y-71153000D03*
%TD*%
%TO.C,REF\u002A\u002A1016*%
X122174000Y-76233000D03*
%TD*%
%TO.C,REF\u002A\u002A451*%
X139954000Y-43213000D03*
%TD*%
%TO.C,REF\u002A\u002A887*%
X129794000Y-68613000D03*
%TD*%
%TO.C,REF\u002A\u002A544*%
X152654000Y-48293000D03*
%TD*%
%TO.C,REF\u002A\u002A934*%
X137414000Y-71153000D03*
%TD*%
%TO.C,REF\u002A\u002A445*%
X124714000Y-43213000D03*
%TD*%
%TO.C,REF\u002A\u002A668*%
X132334000Y-55913000D03*
%TD*%
%TO.C,REF\u002A\u002A913*%
X84074000Y-71153000D03*
%TD*%
%TO.C,REF\u002A\u002A1012*%
X112014000Y-76233000D03*
%TD*%
%TO.C,REF\u002A\u002A805*%
X145034000Y-63533000D03*
%TD*%
%TO.C,REF\u002A\u002A710*%
X127254000Y-58453000D03*
%TD*%
%TO.C,REF\u002A\u002A926*%
X117094000Y-71153000D03*
%TD*%
%TO.C,REF\u002A\u002A876*%
X101854000Y-68613000D03*
%TD*%
%TO.C,REF\u002A\u002A579*%
X129794000Y-50833000D03*
%TD*%
%TO.C,REF\u002A\u002A949*%
X175514000Y-71153000D03*
%TD*%
%TO.C,REF\u002A\u002A787*%
X99314000Y-63533000D03*
%TD*%
%TO.C,REF\u002A\u002A587*%
X150114000Y-50833000D03*
%TD*%
%TO.C,REF\u002A\u002A901*%
X165354000Y-68613000D03*
%TD*%
D11*
%TO.C,REF\u002A\u002A2796*%
X160800000Y-40894000D03*
%TD*%
D10*
%TO.C,REF\u002A\u002A847*%
X139954000Y-66073000D03*
%TD*%
%TO.C,REF\u002A\u002A676*%
X152654000Y-55913000D03*
%TD*%
%TO.C,REF\u002A\u002A933*%
X134874000Y-71153000D03*
%TD*%
%TO.C,REF\u002A\u002A972*%
X122174000Y-73693000D03*
%TD*%
%TO.C,REF\u002A\u002A698*%
X96774000Y-58453000D03*
%TD*%
D11*
%TO.C,REF\u002A\u002A2790*%
X160800000Y-46144000D03*
%TD*%
%TO.C,REF\u002A\u002A2775*%
X114173000Y-53576000D03*
%TD*%
D10*
%TO.C,REF\u002A\u002A541*%
X145034000Y-48293000D03*
%TD*%
%TO.C,REF\u002A\u002A851*%
X150114000Y-66073000D03*
%TD*%
%TO.C,REF\u002A\u002A868*%
X81534000Y-68613000D03*
%TD*%
%TO.C,REF\u002A\u002A1009*%
X104394000Y-76233000D03*
%TD*%
%TO.C,REF\u002A\u002A1032*%
X162814000Y-76233000D03*
%TD*%
%TO.C,REF\u002A\u002A696*%
X91694000Y-58453000D03*
%TD*%
%TO.C,REF\u002A\u002A1030*%
X157734000Y-76233000D03*
%TD*%
%TO.C,REF\u002A\u002A620*%
X122174000Y-53373000D03*
%TD*%
D11*
%TO.C,REF\u002A\u002A2775*%
X87923000Y-56116000D03*
%TD*%
D10*
%TO.C,REF\u002A\u002A916*%
X91694000Y-71153000D03*
%TD*%
%TO.C,REF\u002A\u002A760*%
X142494000Y-60993000D03*
%TD*%
%TO.C,REF\u002A\u002A971*%
X119634000Y-73693000D03*
%TD*%
%TO.C,REF\u002A\u002A898*%
X157734000Y-68613000D03*
%TD*%
%TO.C,REF\u002A\u002A981*%
X145034000Y-73693000D03*
%TD*%
%TO.C,REF\u002A\u002A795*%
X119634000Y-63533000D03*
%TD*%
%TO.C,REF\u002A\u002A885*%
X124714000Y-68613000D03*
%TD*%
%TO.C,REF\u002A\u002A672*%
X142494000Y-55913000D03*
%TD*%
%TO.C,REF\u002A\u002A712*%
X132334000Y-58453000D03*
%TD*%
%TO.C,REF\u002A\u002A711*%
X129794000Y-58453000D03*
%TD*%
%TO.C,REF\u002A\u002A1019*%
X129794000Y-76233000D03*
%TD*%
%TO.C,REF\u002A\u002A850*%
X147574000Y-66073000D03*
%TD*%
%TO.C,REF\u002A\u002A875*%
X99314000Y-68613000D03*
%TD*%
%TO.C,REF\u002A\u002A407*%
X139954000Y-40673000D03*
%TD*%
D11*
%TO.C,REF\u002A\u002A2782*%
X160800000Y-53144000D03*
%TD*%
D10*
%TO.C,REF\u002A\u002A1003*%
X89154000Y-76233000D03*
%TD*%
%TO.C,REF\u002A\u002A914*%
X86614000Y-71153000D03*
%TD*%
%TO.C,REF\u002A\u002A807*%
X150114000Y-63533000D03*
%TD*%
%TO.C,REF\u002A\u002A802*%
X137414000Y-63533000D03*
%TD*%
%TO.C,REF\u002A\u002A961*%
X94234000Y-73693000D03*
%TD*%
%TO.C,REF\u002A\u002A576*%
X122174000Y-50833000D03*
%TD*%
%TO.C,REF\u002A\u002A936*%
X142494000Y-71153000D03*
%TD*%
%TO.C,REF\u002A\u002A713*%
X134874000Y-58453000D03*
%TD*%
%TO.C,REF\u002A\u002A1026*%
X147574000Y-76233000D03*
%TD*%
%TO.C,REF\u002A\u002A764*%
X152654000Y-60993000D03*
%TD*%
%TO.C,REF\u002A\u002A578*%
X127254000Y-50833000D03*
%TD*%
D11*
%TO.C,REF\u002A\u002A2788*%
X160800000Y-47894000D03*
%TD*%
D10*
%TO.C,REF\u002A\u002A706*%
X117094000Y-58453000D03*
%TD*%
D11*
%TO.C,REF\u002A\u002A2795*%
X158260000Y-42644000D03*
%TD*%
D12*
%TO.C,MH06*%
X119960000Y-82000000D03*
%TD*%
D10*
%TO.C,REF\u002A\u002A983*%
X150114000Y-73693000D03*
%TD*%
%TO.C,REF\u002A\u002A492*%
X137414000Y-50833000D03*
%TD*%
%TO.C,REF\u002A\u002A746*%
X106934000Y-60993000D03*
%TD*%
%TO.C,REF\u002A\u002A670*%
X137414000Y-55913000D03*
%TD*%
D11*
%TO.C,REF\u002A\u002A2775*%
X115923000Y-56116000D03*
%TD*%
D13*
%TO.C,J2*%
X175514000Y-58394000D03*
D14*
X164084000Y-60144000D03*
X175514000Y-54894000D03*
X164084000Y-56644000D03*
X175514000Y-51394000D03*
X164084000Y-53144000D03*
X175514000Y-47894000D03*
X164084000Y-49644000D03*
X175514000Y-44394000D03*
X164084000Y-46144000D03*
X175514000Y-40894000D03*
X164084000Y-42644000D03*
X175514000Y-37394000D03*
X164084000Y-39144000D03*
%TD*%
D10*
%TO.C,REF\u002A\u002A444*%
X122174000Y-43213000D03*
%TD*%
%TO.C,REF\u002A\u002A883*%
X119634000Y-68613000D03*
%TD*%
%TO.C,REF\u002A\u002A758*%
X137414000Y-60993000D03*
%TD*%
D11*
%TO.C,REF\u002A\u002A2775*%
X91423000Y-56116000D03*
%TD*%
D10*
%TO.C,REF\u002A\u002A950*%
X178054000Y-71153000D03*
%TD*%
%TO.C,REF\u002A\u002A849*%
X145034000Y-66073000D03*
%TD*%
%TO.C,REF\u002A\u002A488*%
X122174000Y-45753000D03*
%TD*%
%TO.C,REF\u002A\u002A920*%
X101854000Y-71153000D03*
%TD*%
%TO.C,REF\u002A\u002A542*%
X147574000Y-48293000D03*
%TD*%
D11*
%TO.C,REF\u002A\u002A2775*%
X93173000Y-53576000D03*
%TD*%
D10*
%TO.C,REF\u002A\u002A833*%
X104394000Y-66073000D03*
%TD*%
D12*
%TO.C,MH04*%
X140280000Y-82000000D03*
%TD*%
D10*
%TO.C,REF\u002A\u002A991*%
X170434000Y-73693000D03*
%TD*%
%TO.C,REF\u002A\u002A406*%
X137414000Y-40673000D03*
%TD*%
D11*
%TO.C,REF\u002A\u002A2789*%
X158260000Y-47894000D03*
%TD*%
D10*
%TO.C,REF\u002A\u002A930*%
X127254000Y-71153000D03*
%TD*%
%TO.C,REF\u002A\u002A692*%
X81534000Y-58453000D03*
%TD*%
%TO.C,REF\u002A\u002A834*%
X106934000Y-66073000D03*
%TD*%
%TO.C,REF\u002A\u002A490*%
X127254000Y-45753000D03*
%TD*%
%TO.C,REF\u002A\u002A928*%
X122174000Y-71153000D03*
%TD*%
%TO.C,REF\u002A\u002A798*%
X127254000Y-63533000D03*
%TD*%
%TO.C,REF\u002A\u002A895*%
X150114000Y-68613000D03*
%TD*%
%TO.C,REF\u002A\u002A941*%
X155194000Y-71153000D03*
%TD*%
%TO.C,REF\u002A\u002A986*%
X157734000Y-73693000D03*
%TD*%
%TO.C,REF\u002A\u002A699*%
X99314000Y-58453000D03*
%TD*%
%TO.C,REF\u002A\u002A1035*%
X170434000Y-76233000D03*
%TD*%
%TO.C,REF\u002A\u002A794*%
X117094000Y-63533000D03*
%TD*%
%TO.C,REF\u002A\u002A589*%
X155194000Y-50833000D03*
%TD*%
%TO.C,REF\u002A\u002A870*%
X86614000Y-68613000D03*
%TD*%
%TO.C,REF\u002A\u002A780*%
X81534000Y-63533000D03*
%TD*%
%TO.C,REF\u002A\u002A785*%
X94234000Y-63533000D03*
%TD*%
D11*
%TO.C,REF\u002A\u002A2793*%
X158260000Y-44394000D03*
%TD*%
D10*
%TO.C,REF\u002A\u002A715*%
X139954000Y-58453000D03*
%TD*%
D13*
%TO.C,J1*%
X114173000Y-38862000D03*
D14*
X115923000Y-50292000D03*
X110673000Y-38862000D03*
X112423000Y-50292000D03*
X107173000Y-38862000D03*
X108923000Y-50292000D03*
X103673000Y-38862000D03*
X105423000Y-50292000D03*
X100173000Y-38862000D03*
X101923000Y-50292000D03*
X96673000Y-38862000D03*
X98423000Y-50292000D03*
X93173000Y-38862000D03*
X94923000Y-50292000D03*
X89673000Y-38862000D03*
X91423000Y-50292000D03*
X86173000Y-38862000D03*
X87923000Y-50292000D03*
X82673000Y-38862000D03*
X84423000Y-50292000D03*
%TD*%
D10*
%TO.C,REF\u002A\u002A806*%
X147574000Y-63533000D03*
%TD*%
%TO.C,REF\u002A\u002A903*%
X170434000Y-68613000D03*
%TD*%
%TO.C,REF\u002A\u002A899*%
X160274000Y-68613000D03*
%TD*%
D15*
X79760000Y-34500000D02*
X179760000Y-34500000D01*
X179760000Y-84500000D01*
X79760000Y-84500000D01*
X79760000Y-34500000D01*
M02*
