M48
; DRILL file {KiCad 7.0.11+dfsg-1build4} date mié 25 feb 2026 21:36:07
; FORMAT={-:-/ absolute / metric / decimal}
; #@! TF.CreationDate,2026-02-25T21:36:07-05:00
; #@! TF.GenerationSoftware,Kicad,Pcbnew,7.0.11+dfsg-1build4
; #@! TF.FileFunction,Plated,1,2,PTH
FMAT,2
METRIC
; #@! TA.AperFunction,Plated,PTH,ComponentDrill
T1C0.800
; #@! TA.AperFunction,Plated,PTH,ComponentDrill
T2C1.000
; #@! TA.AperFunction,Plated,PTH,ComponentDrill
T3C1.200
%
G90
G05
T1
X82.673Y-53.576
X82.673Y-56.116
X84.423Y-53.576
X84.423Y-56.116
X86.173Y-53.576
X86.173Y-56.116
X87.923Y-53.576
X87.923Y-56.116
X89.673Y-53.576
X89.673Y-56.116
X91.423Y-53.576
X91.423Y-56.116
X93.173Y-53.576
X93.173Y-56.116
X94.923Y-53.576
X94.923Y-56.116
X96.673Y-53.576
X96.673Y-56.116
X98.423Y-53.576
X98.423Y-56.116
X100.173Y-53.576
X100.173Y-56.116
X101.923Y-53.576
X101.923Y-56.116
X103.673Y-53.576
X103.673Y-56.116
X105.423Y-53.576
X105.423Y-56.116
X107.173Y-53.576
X107.173Y-56.116
X108.923Y-53.576
X108.923Y-56.116
X110.673Y-53.576
X110.673Y-56.116
X112.423Y-53.576
X112.423Y-56.116
X114.173Y-53.576
X114.173Y-56.116
X115.923Y-53.576
X115.923Y-56.116
X158.26Y-37.394
X158.26Y-39.144
X158.26Y-40.894
X158.26Y-42.644
X158.26Y-44.394
X158.26Y-46.144
X158.26Y-47.894
X158.26Y-49.644
X158.26Y-51.394
X158.26Y-53.144
X158.26Y-54.894
X158.26Y-56.644
X158.26Y-58.394
X158.26Y-60.144
X160.8Y-37.394
X160.8Y-39.144
X160.8Y-40.894
X160.8Y-42.644
X160.8Y-44.394
X160.8Y-46.144
X160.8Y-47.894
X160.8Y-49.644
X160.8Y-51.394
X160.8Y-53.144
X160.8Y-54.894
X160.8Y-56.644
X160.8Y-58.394
X160.8Y-60.144
T2
X81.534Y-58.453
X81.534Y-60.993
X81.534Y-63.533
X81.534Y-66.073
X81.534Y-68.613
X81.534Y-71.153
X81.534Y-73.693
X81.534Y-76.233
X84.074Y-58.453
X84.074Y-60.993
X84.074Y-63.533
X84.074Y-66.073
X84.074Y-68.613
X84.074Y-71.153
X84.074Y-73.693
X84.074Y-76.233
X86.614Y-58.453
X86.614Y-60.993
X86.614Y-63.533
X86.614Y-66.073
X86.614Y-68.613
X86.614Y-71.153
X86.614Y-73.693
X86.614Y-76.233
X89.154Y-58.453
X89.154Y-60.993
X89.154Y-63.533
X89.154Y-66.073
X89.154Y-68.613
X89.154Y-71.153
X89.154Y-73.693
X89.154Y-76.233
X91.694Y-58.453
X91.694Y-60.993
X91.694Y-63.533
X91.694Y-66.073
X91.694Y-68.613
X91.694Y-71.153
X91.694Y-73.693
X91.694Y-76.233
X94.234Y-58.453
X94.234Y-60.993
X94.234Y-63.533
X94.234Y-66.073
X94.234Y-68.613
X94.234Y-71.153
X94.234Y-73.693
X94.234Y-76.233
X96.774Y-58.453
X96.774Y-60.993
X96.774Y-63.533
X96.774Y-66.073
X96.774Y-68.613
X96.774Y-71.153
X96.774Y-73.693
X96.774Y-76.233
X99.314Y-58.453
X99.314Y-60.993
X99.314Y-63.533
X99.314Y-66.073
X99.314Y-68.613
X99.314Y-71.153
X99.314Y-73.693
X99.314Y-76.233
X101.854Y-58.453
X101.854Y-60.993
X101.854Y-63.533
X101.854Y-66.073
X101.854Y-68.613
X101.854Y-71.153
X101.854Y-73.693
X101.854Y-76.233
X104.394Y-58.453
X104.394Y-60.993
X104.394Y-63.533
X104.394Y-66.073
X104.394Y-68.613
X104.394Y-71.153
X104.394Y-73.693
X104.394Y-76.233
X106.934Y-58.453
X106.934Y-60.993
X106.934Y-63.533
X106.934Y-66.073
X106.934Y-68.613
X106.934Y-71.153
X106.934Y-73.693
X106.934Y-76.233
X109.474Y-58.453
X109.474Y-60.993
X109.474Y-63.533
X109.474Y-66.073
X109.474Y-68.613
X109.474Y-71.153
X109.474Y-73.693
X109.474Y-76.233
X112.014Y-58.453
X112.014Y-60.993
X112.014Y-63.533
X112.014Y-66.073
X112.014Y-68.613
X112.014Y-71.153
X112.014Y-73.693
X112.014Y-76.233
X114.554Y-58.453
X114.554Y-60.993
X114.554Y-63.533
X114.554Y-66.073
X114.554Y-68.613
X114.554Y-71.153
X114.554Y-73.693
X114.554Y-76.233
X117.094Y-58.453
X117.094Y-60.993
X117.094Y-63.533
X117.094Y-66.073
X117.094Y-68.613
X117.094Y-71.153
X117.094Y-73.693
X117.094Y-76.233
X119.634Y-38.133
X119.634Y-40.673
X119.634Y-53.373
X119.634Y-55.913
X119.634Y-58.453
X119.634Y-60.993
X119.634Y-63.533
X119.634Y-66.073
X119.634Y-68.613
X119.634Y-71.153
X119.634Y-73.693
X119.634Y-76.233
X122.174Y-38.133
X122.174Y-40.673
X122.174Y-43.213
X122.174Y-45.753
X122.174Y-48.293
X122.174Y-50.833
X122.174Y-53.373
X122.174Y-55.913
X122.174Y-58.453
X122.174Y-60.993
X122.174Y-63.533
X122.174Y-66.073
X122.174Y-68.613
X122.174Y-71.153
X122.174Y-73.693
X122.174Y-76.233
X124.714Y-38.133
X124.714Y-40.673
X124.714Y-43.213
X124.714Y-45.753
X124.714Y-48.293
X124.714Y-50.833
X124.714Y-53.373
X124.714Y-55.913
X124.714Y-58.453
X124.714Y-60.993
X124.714Y-63.533
X124.714Y-66.073
X124.714Y-68.613
X124.714Y-71.153
X124.714Y-73.693
X124.714Y-76.233
X127.254Y-38.133
X127.254Y-40.673
X127.254Y-43.213
X127.254Y-45.753
X127.254Y-48.293
X127.254Y-50.833
X127.254Y-53.373
X127.254Y-55.913
X127.254Y-58.453
X127.254Y-60.993
X127.254Y-63.533
X127.254Y-66.073
X127.254Y-68.613
X127.254Y-71.153
X127.254Y-73.693
X127.254Y-76.233
X129.794Y-38.133
X129.794Y-40.673
X129.794Y-43.213
X129.794Y-45.753
X129.794Y-48.293
X129.794Y-50.833
X129.794Y-53.373
X129.794Y-55.913
X129.794Y-58.453
X129.794Y-60.993
X129.794Y-63.533
X129.794Y-66.073
X129.794Y-68.613
X129.794Y-71.153
X129.794Y-73.693
X129.794Y-76.233
X132.334Y-38.133
X132.334Y-40.673
X132.334Y-43.213
X132.334Y-45.753
X132.334Y-48.293
X132.334Y-50.833
X132.334Y-53.373
X132.334Y-55.913
X132.334Y-58.453
X132.334Y-60.993
X132.334Y-63.533
X132.334Y-66.073
X132.334Y-68.613
X132.334Y-71.153
X132.334Y-73.693
X132.334Y-76.233
X134.874Y-38.133
X134.874Y-40.673
X134.874Y-43.213
X134.874Y-45.753
X134.874Y-48.293
X134.874Y-50.833
X134.874Y-53.373
X134.874Y-55.913
X134.874Y-58.453
X134.874Y-60.993
X134.874Y-63.533
X134.874Y-66.073
X134.874Y-68.613
X134.874Y-71.153
X134.874Y-73.693
X134.874Y-76.233
X137.414Y-38.133
X137.414Y-40.673
X137.414Y-43.213
X137.414Y-45.753
X137.414Y-48.293
X137.414Y-50.833
X137.414Y-53.373
X137.414Y-55.913
X137.414Y-58.453
X137.414Y-60.993
X137.414Y-63.533
X137.414Y-66.073
X137.414Y-68.613
X137.414Y-71.153
X137.414Y-73.693
X137.414Y-76.233
X139.954Y-38.133
X139.954Y-40.673
X139.954Y-43.213
X139.954Y-45.753
X139.954Y-48.293
X139.954Y-50.833
X139.954Y-53.373
X139.954Y-55.913
X139.954Y-58.453
X139.954Y-60.993
X139.954Y-63.533
X139.954Y-66.073
X139.954Y-68.613
X139.954Y-71.153
X139.954Y-73.693
X139.954Y-76.233
X142.494Y-38.133
X142.494Y-40.673
X142.494Y-43.213
X142.494Y-45.753
X142.494Y-48.293
X142.494Y-50.833
X142.494Y-53.373
X142.494Y-55.913
X142.494Y-58.453
X142.494Y-60.993
X142.494Y-63.533
X142.494Y-66.073
X142.494Y-68.613
X142.494Y-71.153
X142.494Y-73.693
X142.494Y-76.233
X145.034Y-38.133
X145.034Y-40.673
X145.034Y-43.213
X145.034Y-45.753
X145.034Y-48.293
X145.034Y-50.833
X145.034Y-53.373
X145.034Y-55.913
X145.034Y-58.453
X145.034Y-60.993
X145.034Y-63.533
X145.034Y-66.073
X145.034Y-68.613
X145.034Y-71.153
X145.034Y-73.693
X145.034Y-76.233
X147.574Y-38.133
X147.574Y-40.673
X147.574Y-43.213
X147.574Y-45.753
X147.574Y-48.293
X147.574Y-50.833
X147.574Y-53.373
X147.574Y-55.913
X147.574Y-58.453
X147.574Y-60.993
X147.574Y-63.533
X147.574Y-66.073
X147.574Y-68.613
X147.574Y-71.153
X147.574Y-73.693
X147.574Y-76.233
X150.114Y-38.133
X150.114Y-40.673
X150.114Y-43.213
X150.114Y-45.753
X150.114Y-48.293
X150.114Y-50.833
X150.114Y-53.373
X150.114Y-55.913
X150.114Y-58.453
X150.114Y-60.993
X150.114Y-63.533
X150.114Y-66.073
X150.114Y-68.613
X150.114Y-71.153
X150.114Y-73.693
X150.114Y-76.233
X152.654Y-38.133
X152.654Y-40.673
X152.654Y-43.213
X152.654Y-45.753
X152.654Y-48.293
X152.654Y-50.833
X152.654Y-53.373
X152.654Y-55.913
X152.654Y-58.453
X152.654Y-60.993
X152.654Y-63.533
X152.654Y-66.073
X152.654Y-68.613
X152.654Y-71.153
X152.654Y-73.693
X152.654Y-76.233
X155.194Y-38.133
X155.194Y-40.673
X155.194Y-43.213
X155.194Y-45.753
X155.194Y-48.293
X155.194Y-50.833
X155.194Y-53.373
X155.194Y-55.913
X155.194Y-58.453
X155.194Y-60.993
X155.194Y-63.533
X155.194Y-66.073
X155.194Y-68.613
X155.194Y-71.153
X155.194Y-73.693
X155.194Y-76.233
X157.734Y-66.073
X157.734Y-68.613
X157.734Y-71.153
X157.734Y-73.693
X157.734Y-76.233
X160.274Y-66.073
X160.274Y-68.613
X160.274Y-71.153
X160.274Y-73.693
X160.274Y-76.233
X162.814Y-66.073
X162.814Y-68.613
X162.814Y-71.153
X162.814Y-73.693
X162.814Y-76.233
X165.354Y-66.073
X165.354Y-68.613
X165.354Y-71.153
X165.354Y-73.693
X165.354Y-76.233
X167.894Y-66.073
X167.894Y-68.613
X167.894Y-71.153
X167.894Y-73.693
X167.894Y-76.233
X170.434Y-66.073
X170.434Y-68.613
X170.434Y-71.153
X170.434Y-73.693
X170.434Y-76.233
X172.974Y-66.073
X172.974Y-68.613
X172.974Y-71.153
X172.974Y-73.693
X172.974Y-76.233
X175.514Y-66.073
X175.514Y-68.613
X175.514Y-71.153
X175.514Y-73.693
X175.514Y-76.233
X178.054Y-66.073
X178.054Y-68.613
X178.054Y-71.153
X178.054Y-73.693
X178.054Y-76.233
T3
X82.673Y-38.862
X84.423Y-50.292
X86.173Y-38.862
X87.923Y-50.292
X89.673Y-38.862
X91.423Y-50.292
X93.173Y-38.862
X94.923Y-50.292
X96.673Y-38.862
X98.423Y-50.292
X100.173Y-38.862
X101.923Y-50.292
X103.673Y-38.862
X105.423Y-50.292
X107.173Y-38.862
X108.923Y-50.292
X110.673Y-38.862
X112.423Y-50.292
X114.173Y-38.862
X115.923Y-50.292
X164.084Y-39.144
X164.084Y-42.644
X164.084Y-46.144
X164.084Y-49.644
X164.084Y-53.144
X164.084Y-56.644
X164.084Y-60.144
X175.514Y-37.394
X175.514Y-40.894
X175.514Y-44.394
X175.514Y-47.894
X175.514Y-51.394
X175.514Y-54.894
X175.514Y-58.394
M30
