%TF.GenerationSoftware,KiCad,Pcbnew,6.0.11-2627ca5db0~126~ubuntu20.04.1*%
%TF.CreationDate,2024-08-17T18:27:00-05:00*%
%TF.ProjectId,,58585858-5858-4585-9858-585858585858,rev?*%
%TF.SameCoordinates,Original*%
%TF.FileFunction,Copper,L2,Bot*%
%TF.FilePolarity,Positive*%
%FSLAX46Y46*%
G04 Gerber Fmt 4.6, Leading zero omitted, Abs format (unit mm)*
G04 Created by KiCad (PCBNEW 6.0.11-2627ca5db0~126~ubuntu20.04.1) date 2024-08-17 18:27:00*
%MOMM*%
%LPD*%
G01*
G04 APERTURE LIST*
%TA.AperFunction,SMDPad,CuDef*%
%ADD10R,1.000000X1.000000*%
%TD*%
%TA.AperFunction,ViaPad*%
%ADD11C,0.800000*%
%TD*%
%TA.AperFunction,Conductor*%
%ADD12C,0.250000*%
%TD*%
G04 APERTURE END LIST*
D10*
%TO.P,TP47,1,1*%
%TO.N,GND*%
X105460000Y-149879000D03*
%TD*%
%TO.P,TP48,1,1*%
%TO.N,GND*%
X145460000Y-155279000D03*
%TD*%
%TO.P,TP45,1,1*%
%TO.N,GND*%
X62460000Y-149879000D03*
%TD*%
%TO.P,TP46,1,1*%
%TO.N,GND*%
X102460000Y-155279000D03*
%TD*%
%TO.P,TP43,1,1*%
%TO.N,GND*%
X105460000Y-141879000D03*
%TD*%
%TO.P,TP44,1,1*%
%TO.N,GND*%
X145460000Y-147279000D03*
%TD*%
%TO.P,TP41,1,1*%
%TO.N,GND*%
X62460000Y-141879000D03*
%TD*%
%TO.P,TP42,1,1*%
%TO.N,GND*%
X102460000Y-147279000D03*
%TD*%
%TO.P,TP39,1,1*%
%TO.N,GND*%
X105460000Y-133879000D03*
%TD*%
%TO.P,TP40,1,1*%
%TO.N,GND*%
X145460000Y-139279000D03*
%TD*%
%TO.P,TP37,1,1*%
%TO.N,GND*%
X62460000Y-133879000D03*
%TD*%
%TO.P,TP38,1,1*%
%TO.N,GND*%
X102460000Y-139279000D03*
%TD*%
%TO.P,TP35,1,1*%
%TO.N,GND*%
X105460000Y-125879000D03*
%TD*%
%TO.P,TP36,1,1*%
%TO.N,GND*%
X145460000Y-131279000D03*
%TD*%
%TO.P,TP33,1,1*%
%TO.N,GND*%
X62460000Y-125879000D03*
%TD*%
%TO.P,TP34,1,1*%
%TO.N,GND*%
X102460000Y-131279000D03*
%TD*%
%TO.P,TP31,1,1*%
%TO.N,GND*%
X105460000Y-117879000D03*
%TD*%
%TO.P,TP32,1,1*%
%TO.N,GND*%
X145460000Y-123279000D03*
%TD*%
%TO.P,TP29,1,1*%
%TO.N,GND*%
X62460000Y-117879000D03*
%TD*%
%TO.P,TP30,1,1*%
%TO.N,GND*%
X102460000Y-123279000D03*
%TD*%
%TO.P,TP27,1,1*%
%TO.N,GND*%
X105460000Y-109879000D03*
%TD*%
%TO.P,TP28,1,1*%
%TO.N,GND*%
X145460000Y-115279000D03*
%TD*%
%TO.P,TP25,1,1*%
%TO.N,GND*%
X62460000Y-109879000D03*
%TD*%
%TO.P,TP26,1,1*%
%TO.N,GND*%
X102460000Y-115279000D03*
%TD*%
%TO.P,TP23,1,1*%
%TO.N,GND*%
X105460000Y-101879000D03*
%TD*%
%TO.P,TP24,1,1*%
%TO.N,GND*%
X145460000Y-107279000D03*
%TD*%
%TO.P,TP21,1,1*%
%TO.N,GND*%
X62460000Y-101879000D03*
%TD*%
%TO.P,TP22,1,1*%
%TO.N,GND*%
X102460000Y-107279000D03*
%TD*%
%TO.P,TP19,1,1*%
%TO.N,GND*%
X105460000Y-93879000D03*
%TD*%
%TO.P,TP20,1,1*%
%TO.N,GND*%
X145460000Y-99279000D03*
%TD*%
%TO.P,TP17,1,1*%
%TO.N,GND*%
X62460000Y-93879000D03*
%TD*%
%TO.P,TP18,1,1*%
%TO.N,GND*%
X102460000Y-99279000D03*
%TD*%
%TO.P,TP15,1,1*%
%TO.N,GND*%
X105460000Y-85879000D03*
%TD*%
%TO.P,TP16,1,1*%
%TO.N,GND*%
X145460000Y-91279000D03*
%TD*%
%TO.P,TP13,1,1*%
%TO.N,GND*%
X62460000Y-85879000D03*
%TD*%
%TO.P,TP14,1,1*%
%TO.N,GND*%
X102460000Y-91279000D03*
%TD*%
%TO.P,TP11,1,1*%
%TO.N,GND*%
X105460000Y-77879000D03*
%TD*%
%TO.P,TP12,1,1*%
%TO.N,GND*%
X145460000Y-83279000D03*
%TD*%
%TO.P,TP9,1,1*%
%TO.N,GND*%
X62460000Y-77879000D03*
%TD*%
%TO.P,TP10,1,1*%
%TO.N,GND*%
X102460000Y-83279000D03*
%TD*%
%TO.P,TP7,1,1*%
%TO.N,GND*%
X105460000Y-69879000D03*
%TD*%
%TO.P,TP8,1,1*%
%TO.N,GND*%
X145460000Y-75279000D03*
%TD*%
%TO.P,TP5,1,1*%
%TO.N,GND*%
X62460000Y-69879000D03*
%TD*%
%TO.P,TP6,1,1*%
%TO.N,GND*%
X102460000Y-75279000D03*
%TD*%
%TO.P,TP3,1,1*%
%TO.N,GND*%
X105460000Y-61879000D03*
%TD*%
%TO.P,TP4,1,1*%
%TO.N,GND*%
X145460000Y-67279000D03*
%TD*%
%TO.P,TP2,1,1*%
%TO.N,GND*%
X102460000Y-67279000D03*
%TD*%
%TO.P,TP1,1,1*%
%TO.N,GND*%
X62460000Y-61879000D03*
%TD*%
D11*
%TO.N,GND*%
X105460000Y-155279000D03*
X145460000Y-149879000D03*
X62460000Y-155279000D03*
X102460000Y-149879000D03*
X105460000Y-147279000D03*
X145460000Y-141879000D03*
X62460000Y-147279000D03*
X102460000Y-141879000D03*
X105460000Y-139279000D03*
X145460000Y-133879000D03*
X62460000Y-139279000D03*
X102460000Y-133879000D03*
X105460000Y-131279000D03*
X145460000Y-125879000D03*
X62460000Y-131279000D03*
X102460000Y-125879000D03*
X105460000Y-123279000D03*
X145460000Y-117879000D03*
X62460000Y-123279000D03*
X102460000Y-117879000D03*
X105460000Y-115279000D03*
X145460000Y-109879000D03*
X62460000Y-115279000D03*
X102460000Y-109879000D03*
X105460000Y-107279000D03*
X145460000Y-101879000D03*
X62460000Y-107279000D03*
X102460000Y-101879000D03*
X105460000Y-99279000D03*
X145460000Y-93879000D03*
X62460000Y-99279000D03*
X102460000Y-93879000D03*
X105460000Y-91279000D03*
X145460000Y-85879000D03*
X62460000Y-91279000D03*
X102460000Y-85879000D03*
X105460000Y-83279000D03*
X145460000Y-77879000D03*
X62460000Y-83279000D03*
X102460000Y-77879000D03*
X105460000Y-75279000D03*
X145460000Y-69879000D03*
X62460000Y-75279000D03*
X102460000Y-69879000D03*
X105460000Y-67279000D03*
X145460000Y-61879000D03*
X102460000Y-61879000D03*
X62460000Y-67279000D03*
%TD*%
D12*
%TO.N,GND*%
X110860000Y-155279000D02*
X105460000Y-149879000D01*
X145460000Y-155279000D02*
X110860000Y-155279000D01*
X67860000Y-155279000D02*
X62460000Y-149879000D01*
X102460000Y-155279000D02*
X67860000Y-155279000D01*
X110860000Y-147279000D02*
X105460000Y-141879000D01*
X145460000Y-147279000D02*
X110860000Y-147279000D01*
X67860000Y-147279000D02*
X62460000Y-141879000D01*
X102460000Y-147279000D02*
X67860000Y-147279000D01*
X110860000Y-139279000D02*
X105460000Y-133879000D01*
X145460000Y-139279000D02*
X110860000Y-139279000D01*
X67860000Y-139279000D02*
X62460000Y-133879000D01*
X102460000Y-139279000D02*
X67860000Y-139279000D01*
X110860000Y-131279000D02*
X105460000Y-125879000D01*
X145460000Y-131279000D02*
X110860000Y-131279000D01*
X67860000Y-131279000D02*
X62460000Y-125879000D01*
X102460000Y-131279000D02*
X67860000Y-131279000D01*
X110860000Y-123279000D02*
X105460000Y-117879000D01*
X145460000Y-123279000D02*
X110860000Y-123279000D01*
X67860000Y-123279000D02*
X62460000Y-117879000D01*
X102460000Y-123279000D02*
X67860000Y-123279000D01*
X110860000Y-115279000D02*
X105460000Y-109879000D01*
X145460000Y-115279000D02*
X110860000Y-115279000D01*
X67860000Y-115279000D02*
X62460000Y-109879000D01*
X102460000Y-115279000D02*
X67860000Y-115279000D01*
X110860000Y-107279000D02*
X105460000Y-101879000D01*
X145460000Y-107279000D02*
X110860000Y-107279000D01*
X67860000Y-107279000D02*
X62460000Y-101879000D01*
X102460000Y-107279000D02*
X67860000Y-107279000D01*
X110860000Y-99279000D02*
X105460000Y-93879000D01*
X145460000Y-99279000D02*
X110860000Y-99279000D01*
X67860000Y-99279000D02*
X62460000Y-93879000D01*
X102460000Y-99279000D02*
X67860000Y-99279000D01*
X110860000Y-91279000D02*
X105460000Y-85879000D01*
X145460000Y-91279000D02*
X110860000Y-91279000D01*
X67860000Y-91279000D02*
X62460000Y-85879000D01*
X102460000Y-91279000D02*
X67860000Y-91279000D01*
X110860000Y-83279000D02*
X105460000Y-77879000D01*
X145460000Y-83279000D02*
X110860000Y-83279000D01*
X67860000Y-83279000D02*
X62460000Y-77879000D01*
X102460000Y-83279000D02*
X67860000Y-83279000D01*
X110860000Y-75279000D02*
X105460000Y-69879000D01*
X145460000Y-75279000D02*
X110860000Y-75279000D01*
X67860000Y-75279000D02*
X62460000Y-69879000D01*
X102460000Y-75279000D02*
X67860000Y-75279000D01*
X110860000Y-67279000D02*
X105460000Y-61879000D01*
X145460000Y-67279000D02*
X110860000Y-67279000D01*
X102460000Y-67279000D02*
X67860000Y-67279000D01*
X67860000Y-67279000D02*
X62460000Y-61879000D01*
%TD*%
%TA.AperFunction,Conductor*%
%TO.N,GND*%
G36*
X103393621Y-61107502D02*
G01*
X103440114Y-61161158D01*
X103451500Y-61213500D01*
X103451500Y-63844842D01*
X103431498Y-63912963D01*
X103377842Y-63959456D01*
X103307568Y-63969560D01*
X103242988Y-63940066D01*
X103227304Y-63923795D01*
X103187892Y-63874776D01*
X103184032Y-63869975D01*
X103177727Y-63864684D01*
X103154080Y-63844842D01*
X103032526Y-63742846D01*
X103027128Y-63739879D01*
X103027123Y-63739875D01*
X102864608Y-63650533D01*
X102864609Y-63650533D01*
X102859213Y-63647567D01*
X102853346Y-63645706D01*
X102853344Y-63645705D01*
X102676564Y-63589627D01*
X102676563Y-63589627D01*
X102670694Y-63587765D01*
X102516773Y-63570500D01*
X102410231Y-63570500D01*
X102407175Y-63570800D01*
X102407168Y-63570800D01*
X102348660Y-63576537D01*
X102263167Y-63584920D01*
X102257266Y-63586702D01*
X102257264Y-63586702D01*
X102183947Y-63608838D01*
X102073831Y-63642084D01*
X101899204Y-63734934D01*
X101812938Y-63805291D01*
X101750713Y-63856040D01*
X101750710Y-63856043D01*
X101745938Y-63859935D01*
X101742011Y-63864682D01*
X101742009Y-63864684D01*
X101623799Y-64007575D01*
X101623797Y-64007579D01*
X101619870Y-64012325D01*
X101525802Y-64186299D01*
X101467318Y-64375232D01*
X101446645Y-64571925D01*
X101464570Y-64768888D01*
X101466308Y-64774794D01*
X101466309Y-64774798D01*
X101470387Y-64788653D01*
X101520410Y-64958619D01*
X101523263Y-64964077D01*
X101523265Y-64964081D01*
X101570720Y-65054853D01*
X101612040Y-65133890D01*
X101735968Y-65288025D01*
X101740692Y-65291989D01*
X101747933Y-65298065D01*
X101887474Y-65415154D01*
X101892872Y-65418121D01*
X101892877Y-65418125D01*
X102036180Y-65496905D01*
X102060787Y-65510433D01*
X102066654Y-65512294D01*
X102066656Y-65512295D01*
X102243436Y-65568373D01*
X102249306Y-65570235D01*
X102403227Y-65587500D01*
X102509769Y-65587500D01*
X102512825Y-65587200D01*
X102512832Y-65587200D01*
X102571340Y-65581463D01*
X102656833Y-65573080D01*
X102662734Y-65571298D01*
X102662736Y-65571298D01*
X102736053Y-65549162D01*
X102846169Y-65515916D01*
X103020796Y-65423066D01*
X103107062Y-65352709D01*
X103169287Y-65301960D01*
X103169290Y-65301957D01*
X103174062Y-65298065D01*
X103226892Y-65234205D01*
X103228416Y-65232363D01*
X103287249Y-65192625D01*
X103358227Y-65191004D01*
X103418815Y-65228013D01*
X103449775Y-65291903D01*
X103451500Y-65312679D01*
X103451500Y-66260583D01*
X103431498Y-66328704D01*
X103377842Y-66375197D01*
X103307568Y-66385301D01*
X103249935Y-66361409D01*
X103213649Y-66334214D01*
X103198054Y-66325676D01*
X103077606Y-66280522D01*
X103062351Y-66276895D01*
X103011486Y-66271369D01*
X103004672Y-66271000D01*
X102732115Y-66271000D01*
X102716876Y-66275475D01*
X102715671Y-66276865D01*
X102714000Y-66284548D01*
X102714000Y-67407000D01*
X102693998Y-67475121D01*
X102640342Y-67521614D01*
X102588000Y-67533000D01*
X101470116Y-67533000D01*
X101454877Y-67537475D01*
X101453672Y-67538865D01*
X101452001Y-67546548D01*
X101452001Y-67823669D01*
X101452371Y-67830490D01*
X101457895Y-67881352D01*
X101461522Y-67896609D01*
X101462896Y-67900274D01*
X101463119Y-67903327D01*
X101463349Y-67904293D01*
X101463193Y-67904330D01*
X101468077Y-67971081D01*
X101434155Y-68033449D01*
X101371898Y-68067576D01*
X101344913Y-68070500D01*
X61594500Y-68070500D01*
X61526379Y-68050498D01*
X61479886Y-67996842D01*
X61468500Y-67944500D01*
X61468500Y-67006885D01*
X101452000Y-67006885D01*
X101456475Y-67022124D01*
X101457865Y-67023329D01*
X101465548Y-67025000D01*
X102187885Y-67025000D01*
X102203124Y-67020525D01*
X102204329Y-67019135D01*
X102206000Y-67011452D01*
X102206000Y-66289116D01*
X102201525Y-66273877D01*
X102200135Y-66272672D01*
X102192452Y-66271001D01*
X101915331Y-66271001D01*
X101908510Y-66271371D01*
X101857648Y-66276895D01*
X101842396Y-66280521D01*
X101721946Y-66325676D01*
X101706351Y-66334214D01*
X101604276Y-66410715D01*
X101591715Y-66423276D01*
X101515214Y-66525351D01*
X101506676Y-66540946D01*
X101461522Y-66661394D01*
X101457895Y-66676649D01*
X101452369Y-66727514D01*
X101452000Y-66734328D01*
X101452000Y-67006885D01*
X61468500Y-67006885D01*
X61468500Y-65313158D01*
X61488502Y-65245037D01*
X61542158Y-65198544D01*
X61612432Y-65188440D01*
X61677012Y-65217934D01*
X61692693Y-65234202D01*
X61735968Y-65288025D01*
X61740692Y-65291989D01*
X61747933Y-65298065D01*
X61887474Y-65415154D01*
X61892872Y-65418121D01*
X61892877Y-65418125D01*
X62036180Y-65496905D01*
X62060787Y-65510433D01*
X62066654Y-65512294D01*
X62066656Y-65512295D01*
X62243436Y-65568373D01*
X62249306Y-65570235D01*
X62403227Y-65587500D01*
X62509769Y-65587500D01*
X62512825Y-65587200D01*
X62512832Y-65587200D01*
X62571340Y-65581463D01*
X62656833Y-65573080D01*
X62662734Y-65571298D01*
X62662736Y-65571298D01*
X62736053Y-65549162D01*
X62846169Y-65515916D01*
X63020796Y-65423066D01*
X63107062Y-65352709D01*
X63169287Y-65301960D01*
X63169290Y-65301957D01*
X63174062Y-65298065D01*
X63226892Y-65234205D01*
X63296201Y-65150425D01*
X63296203Y-65150421D01*
X63300130Y-65145675D01*
X63394198Y-64971701D01*
X63452682Y-64782768D01*
X63473355Y-64586075D01*
X63455430Y-64389112D01*
X63450222Y-64371414D01*
X63401330Y-64205294D01*
X63399590Y-64199381D01*
X63389919Y-64180881D01*
X63310813Y-64029568D01*
X63307960Y-64024110D01*
X63184032Y-63869975D01*
X63177727Y-63864684D01*
X63154080Y-63844842D01*
X63032526Y-63742846D01*
X63027128Y-63739879D01*
X63027123Y-63739875D01*
X62864608Y-63650533D01*
X62864609Y-63650533D01*
X62859213Y-63647567D01*
X62853346Y-63645706D01*
X62853344Y-63645705D01*
X62676564Y-63589627D01*
X62676563Y-63589627D01*
X62670694Y-63587765D01*
X62516773Y-63570500D01*
X62410231Y-63570500D01*
X62407175Y-63570800D01*
X62407168Y-63570800D01*
X62348660Y-63576537D01*
X62263167Y-63584920D01*
X62257266Y-63586702D01*
X62257264Y-63586702D01*
X62183947Y-63608838D01*
X62073831Y-63642084D01*
X61899204Y-63734934D01*
X61812938Y-63805291D01*
X61750713Y-63856040D01*
X61750710Y-63856043D01*
X61745938Y-63859935D01*
X61742011Y-63864682D01*
X61742008Y-63864685D01*
X61691584Y-63925637D01*
X61632751Y-63965375D01*
X61561773Y-63966996D01*
X61501185Y-63929987D01*
X61470225Y-63866097D01*
X61468500Y-63845321D01*
X61468500Y-62897417D01*
X61488502Y-62829296D01*
X61542158Y-62782803D01*
X61612432Y-62772699D01*
X61670065Y-62796591D01*
X61706351Y-62823786D01*
X61721946Y-62832324D01*
X61842394Y-62877478D01*
X61857649Y-62881105D01*
X61908514Y-62886631D01*
X61915328Y-62887000D01*
X62187885Y-62887000D01*
X62203124Y-62882525D01*
X62204329Y-62881135D01*
X62206000Y-62873452D01*
X62206000Y-62868884D01*
X62714000Y-62868884D01*
X62718475Y-62884123D01*
X62719865Y-62885328D01*
X62727548Y-62886999D01*
X63004669Y-62886999D01*
X63011490Y-62886629D01*
X63062352Y-62881105D01*
X63077604Y-62877479D01*
X63198054Y-62832324D01*
X63213649Y-62823786D01*
X63315724Y-62747285D01*
X63328285Y-62734724D01*
X63404786Y-62632649D01*
X63413324Y-62617054D01*
X63458478Y-62496606D01*
X63462105Y-62481351D01*
X63467631Y-62430486D01*
X63468000Y-62423672D01*
X63468000Y-62151115D01*
X63463525Y-62135876D01*
X63462135Y-62134671D01*
X63454452Y-62133000D01*
X62732115Y-62133000D01*
X62716876Y-62137475D01*
X62715671Y-62138865D01*
X62714000Y-62146548D01*
X62714000Y-62868884D01*
X62206000Y-62868884D01*
X62206000Y-61751000D01*
X62226002Y-61682879D01*
X62279658Y-61636386D01*
X62332000Y-61625000D01*
X63449884Y-61625000D01*
X63465123Y-61620525D01*
X63466328Y-61619135D01*
X63467999Y-61611452D01*
X63467999Y-61334331D01*
X63467629Y-61327510D01*
X63462105Y-61276648D01*
X63458478Y-61261391D01*
X63457104Y-61257726D01*
X63456881Y-61254673D01*
X63456651Y-61253707D01*
X63456807Y-61253670D01*
X63451923Y-61186919D01*
X63485845Y-61124551D01*
X63548102Y-61090424D01*
X63575087Y-61087500D01*
X103325500Y-61087500D01*
X103393621Y-61107502D01*
G37*
%TD.AperFunction*%
%TD*%
%TA.AperFunction,Conductor*%
%TO.N,GND*%
G36*
X146393621Y-61107502D02*
G01*
X146440114Y-61161158D01*
X146451500Y-61213500D01*
X146451500Y-63844842D01*
X146431498Y-63912963D01*
X146377842Y-63959456D01*
X146307568Y-63969560D01*
X146242988Y-63940066D01*
X146227304Y-63923795D01*
X146187892Y-63874776D01*
X146184032Y-63869975D01*
X146177727Y-63864684D01*
X146154080Y-63844842D01*
X146032526Y-63742846D01*
X146027128Y-63739879D01*
X146027123Y-63739875D01*
X145864608Y-63650533D01*
X145864609Y-63650533D01*
X145859213Y-63647567D01*
X145853346Y-63645706D01*
X145853344Y-63645705D01*
X145676564Y-63589627D01*
X145676563Y-63589627D01*
X145670694Y-63587765D01*
X145516773Y-63570500D01*
X145410231Y-63570500D01*
X145407175Y-63570800D01*
X145407168Y-63570800D01*
X145348660Y-63576537D01*
X145263167Y-63584920D01*
X145257266Y-63586702D01*
X145257264Y-63586702D01*
X145183947Y-63608838D01*
X145073831Y-63642084D01*
X144899204Y-63734934D01*
X144812938Y-63805291D01*
X144750713Y-63856040D01*
X144750710Y-63856043D01*
X144745938Y-63859935D01*
X144742011Y-63864682D01*
X144742009Y-63864684D01*
X144623799Y-64007575D01*
X144623797Y-64007579D01*
X144619870Y-64012325D01*
X144525802Y-64186299D01*
X144467318Y-64375232D01*
X144446645Y-64571925D01*
X144464570Y-64768888D01*
X144466308Y-64774794D01*
X144466309Y-64774798D01*
X144470387Y-64788653D01*
X144520410Y-64958619D01*
X144523263Y-64964077D01*
X144523265Y-64964081D01*
X144570720Y-65054853D01*
X144612040Y-65133890D01*
X144735968Y-65288025D01*
X144740692Y-65291989D01*
X144747933Y-65298065D01*
X144887474Y-65415154D01*
X144892872Y-65418121D01*
X144892877Y-65418125D01*
X145036180Y-65496905D01*
X145060787Y-65510433D01*
X145066654Y-65512294D01*
X145066656Y-65512295D01*
X145243436Y-65568373D01*
X145249306Y-65570235D01*
X145403227Y-65587500D01*
X145509769Y-65587500D01*
X145512825Y-65587200D01*
X145512832Y-65587200D01*
X145571340Y-65581463D01*
X145656833Y-65573080D01*
X145662734Y-65571298D01*
X145662736Y-65571298D01*
X145736053Y-65549162D01*
X145846169Y-65515916D01*
X146020796Y-65423066D01*
X146107062Y-65352709D01*
X146169287Y-65301960D01*
X146169290Y-65301957D01*
X146174062Y-65298065D01*
X146226892Y-65234205D01*
X146228416Y-65232363D01*
X146287249Y-65192625D01*
X146358227Y-65191004D01*
X146418815Y-65228013D01*
X146449775Y-65291903D01*
X146451500Y-65312679D01*
X146451500Y-66260583D01*
X146431498Y-66328704D01*
X146377842Y-66375197D01*
X146307568Y-66385301D01*
X146249935Y-66361409D01*
X146213649Y-66334214D01*
X146198054Y-66325676D01*
X146077606Y-66280522D01*
X146062351Y-66276895D01*
X146011486Y-66271369D01*
X146004672Y-66271000D01*
X145732115Y-66271000D01*
X145716876Y-66275475D01*
X145715671Y-66276865D01*
X145714000Y-66284548D01*
X145714000Y-67407000D01*
X145693998Y-67475121D01*
X145640342Y-67521614D01*
X145588000Y-67533000D01*
X144470116Y-67533000D01*
X144454877Y-67537475D01*
X144453672Y-67538865D01*
X144452001Y-67546548D01*
X144452001Y-67823669D01*
X144452371Y-67830490D01*
X144457895Y-67881352D01*
X144461522Y-67896609D01*
X144462896Y-67900274D01*
X144463119Y-67903327D01*
X144463349Y-67904293D01*
X144463193Y-67904330D01*
X144468077Y-67971081D01*
X144434155Y-68033449D01*
X144371898Y-68067576D01*
X144344913Y-68070500D01*
X104594500Y-68070500D01*
X104526379Y-68050498D01*
X104479886Y-67996842D01*
X104468500Y-67944500D01*
X104468500Y-67006885D01*
X144452000Y-67006885D01*
X144456475Y-67022124D01*
X144457865Y-67023329D01*
X144465548Y-67025000D01*
X145187885Y-67025000D01*
X145203124Y-67020525D01*
X145204329Y-67019135D01*
X145206000Y-67011452D01*
X145206000Y-66289116D01*
X145201525Y-66273877D01*
X145200135Y-66272672D01*
X145192452Y-66271001D01*
X144915331Y-66271001D01*
X144908510Y-66271371D01*
X144857648Y-66276895D01*
X144842396Y-66280521D01*
X144721946Y-66325676D01*
X144706351Y-66334214D01*
X144604276Y-66410715D01*
X144591715Y-66423276D01*
X144515214Y-66525351D01*
X144506676Y-66540946D01*
X144461522Y-66661394D01*
X144457895Y-66676649D01*
X144452369Y-66727514D01*
X144452000Y-66734328D01*
X144452000Y-67006885D01*
X104468500Y-67006885D01*
X104468500Y-65313158D01*
X104488502Y-65245037D01*
X104542158Y-65198544D01*
X104612432Y-65188440D01*
X104677012Y-65217934D01*
X104692693Y-65234202D01*
X104735968Y-65288025D01*
X104740692Y-65291989D01*
X104747933Y-65298065D01*
X104887474Y-65415154D01*
X104892872Y-65418121D01*
X104892877Y-65418125D01*
X105036180Y-65496905D01*
X105060787Y-65510433D01*
X105066654Y-65512294D01*
X105066656Y-65512295D01*
X105243436Y-65568373D01*
X105249306Y-65570235D01*
X105403227Y-65587500D01*
X105509769Y-65587500D01*
X105512825Y-65587200D01*
X105512832Y-65587200D01*
X105571340Y-65581463D01*
X105656833Y-65573080D01*
X105662734Y-65571298D01*
X105662736Y-65571298D01*
X105736053Y-65549162D01*
X105846169Y-65515916D01*
X106020796Y-65423066D01*
X106107062Y-65352709D01*
X106169287Y-65301960D01*
X106169290Y-65301957D01*
X106174062Y-65298065D01*
X106226892Y-65234205D01*
X106296201Y-65150425D01*
X106296203Y-65150421D01*
X106300130Y-65145675D01*
X106394198Y-64971701D01*
X106452682Y-64782768D01*
X106473355Y-64586075D01*
X106455430Y-64389112D01*
X106450222Y-64371414D01*
X106401330Y-64205294D01*
X106399590Y-64199381D01*
X106389919Y-64180881D01*
X106310813Y-64029568D01*
X106307960Y-64024110D01*
X106184032Y-63869975D01*
X106177727Y-63864684D01*
X106154080Y-63844842D01*
X106032526Y-63742846D01*
X106027128Y-63739879D01*
X106027123Y-63739875D01*
X105864608Y-63650533D01*
X105864609Y-63650533D01*
X105859213Y-63647567D01*
X105853346Y-63645706D01*
X105853344Y-63645705D01*
X105676564Y-63589627D01*
X105676563Y-63589627D01*
X105670694Y-63587765D01*
X105516773Y-63570500D01*
X105410231Y-63570500D01*
X105407175Y-63570800D01*
X105407168Y-63570800D01*
X105348660Y-63576537D01*
X105263167Y-63584920D01*
X105257266Y-63586702D01*
X105257264Y-63586702D01*
X105183947Y-63608838D01*
X105073831Y-63642084D01*
X104899204Y-63734934D01*
X104812938Y-63805291D01*
X104750713Y-63856040D01*
X104750710Y-63856043D01*
X104745938Y-63859935D01*
X104742011Y-63864682D01*
X104742008Y-63864685D01*
X104691584Y-63925637D01*
X104632751Y-63965375D01*
X104561773Y-63966996D01*
X104501185Y-63929987D01*
X104470225Y-63866097D01*
X104468500Y-63845321D01*
X104468500Y-62897417D01*
X104488502Y-62829296D01*
X104542158Y-62782803D01*
X104612432Y-62772699D01*
X104670065Y-62796591D01*
X104706351Y-62823786D01*
X104721946Y-62832324D01*
X104842394Y-62877478D01*
X104857649Y-62881105D01*
X104908514Y-62886631D01*
X104915328Y-62887000D01*
X105187885Y-62887000D01*
X105203124Y-62882525D01*
X105204329Y-62881135D01*
X105206000Y-62873452D01*
X105206000Y-62868884D01*
X105714000Y-62868884D01*
X105718475Y-62884123D01*
X105719865Y-62885328D01*
X105727548Y-62886999D01*
X106004669Y-62886999D01*
X106011490Y-62886629D01*
X106062352Y-62881105D01*
X106077604Y-62877479D01*
X106198054Y-62832324D01*
X106213649Y-62823786D01*
X106315724Y-62747285D01*
X106328285Y-62734724D01*
X106404786Y-62632649D01*
X106413324Y-62617054D01*
X106458478Y-62496606D01*
X106462105Y-62481351D01*
X106467631Y-62430486D01*
X106468000Y-62423672D01*
X106468000Y-62151115D01*
X106463525Y-62135876D01*
X106462135Y-62134671D01*
X106454452Y-62133000D01*
X105732115Y-62133000D01*
X105716876Y-62137475D01*
X105715671Y-62138865D01*
X105714000Y-62146548D01*
X105714000Y-62868884D01*
X105206000Y-62868884D01*
X105206000Y-61751000D01*
X105226002Y-61682879D01*
X105279658Y-61636386D01*
X105332000Y-61625000D01*
X106449884Y-61625000D01*
X106465123Y-61620525D01*
X106466328Y-61619135D01*
X106467999Y-61611452D01*
X106467999Y-61334331D01*
X106467629Y-61327510D01*
X106462105Y-61276648D01*
X106458478Y-61261391D01*
X106457104Y-61257726D01*
X106456881Y-61254673D01*
X106456651Y-61253707D01*
X106456807Y-61253670D01*
X106451923Y-61186919D01*
X106485845Y-61124551D01*
X106548102Y-61090424D01*
X106575087Y-61087500D01*
X146325500Y-61087500D01*
X146393621Y-61107502D01*
G37*
%TD.AperFunction*%
%TD*%
%TA.AperFunction,Conductor*%
%TO.N,GND*%
G36*
X103393621Y-69107502D02*
G01*
X103440114Y-69161158D01*
X103451500Y-69213500D01*
X103451500Y-71844842D01*
X103431498Y-71912963D01*
X103377842Y-71959456D01*
X103307568Y-71969560D01*
X103242988Y-71940066D01*
X103227304Y-71923795D01*
X103187892Y-71874776D01*
X103184032Y-71869975D01*
X103177727Y-71864684D01*
X103154080Y-71844842D01*
X103032526Y-71742846D01*
X103027128Y-71739879D01*
X103027123Y-71739875D01*
X102864608Y-71650533D01*
X102864609Y-71650533D01*
X102859213Y-71647567D01*
X102853346Y-71645706D01*
X102853344Y-71645705D01*
X102676564Y-71589627D01*
X102676563Y-71589627D01*
X102670694Y-71587765D01*
X102516773Y-71570500D01*
X102410231Y-71570500D01*
X102407175Y-71570800D01*
X102407168Y-71570800D01*
X102348660Y-71576537D01*
X102263167Y-71584920D01*
X102257266Y-71586702D01*
X102257264Y-71586702D01*
X102183947Y-71608838D01*
X102073831Y-71642084D01*
X101899204Y-71734934D01*
X101812938Y-71805291D01*
X101750713Y-71856040D01*
X101750710Y-71856043D01*
X101745938Y-71859935D01*
X101742011Y-71864682D01*
X101742009Y-71864684D01*
X101623799Y-72007575D01*
X101623797Y-72007579D01*
X101619870Y-72012325D01*
X101525802Y-72186299D01*
X101467318Y-72375232D01*
X101446645Y-72571925D01*
X101464570Y-72768888D01*
X101466308Y-72774794D01*
X101466309Y-72774798D01*
X101470387Y-72788653D01*
X101520410Y-72958619D01*
X101523263Y-72964077D01*
X101523265Y-72964081D01*
X101570720Y-73054853D01*
X101612040Y-73133890D01*
X101735968Y-73288025D01*
X101740692Y-73291989D01*
X101747933Y-73298065D01*
X101887474Y-73415154D01*
X101892872Y-73418121D01*
X101892877Y-73418125D01*
X102036180Y-73496905D01*
X102060787Y-73510433D01*
X102066654Y-73512294D01*
X102066656Y-73512295D01*
X102243436Y-73568373D01*
X102249306Y-73570235D01*
X102403227Y-73587500D01*
X102509769Y-73587500D01*
X102512825Y-73587200D01*
X102512832Y-73587200D01*
X102571340Y-73581463D01*
X102656833Y-73573080D01*
X102662734Y-73571298D01*
X102662736Y-73571298D01*
X102736053Y-73549162D01*
X102846169Y-73515916D01*
X103020796Y-73423066D01*
X103107062Y-73352709D01*
X103169287Y-73301960D01*
X103169290Y-73301957D01*
X103174062Y-73298065D01*
X103226892Y-73234205D01*
X103228416Y-73232363D01*
X103287249Y-73192625D01*
X103358227Y-73191004D01*
X103418815Y-73228013D01*
X103449775Y-73291903D01*
X103451500Y-73312679D01*
X103451500Y-74260583D01*
X103431498Y-74328704D01*
X103377842Y-74375197D01*
X103307568Y-74385301D01*
X103249935Y-74361409D01*
X103213649Y-74334214D01*
X103198054Y-74325676D01*
X103077606Y-74280522D01*
X103062351Y-74276895D01*
X103011486Y-74271369D01*
X103004672Y-74271000D01*
X102732115Y-74271000D01*
X102716876Y-74275475D01*
X102715671Y-74276865D01*
X102714000Y-74284548D01*
X102714000Y-75407000D01*
X102693998Y-75475121D01*
X102640342Y-75521614D01*
X102588000Y-75533000D01*
X101470116Y-75533000D01*
X101454877Y-75537475D01*
X101453672Y-75538865D01*
X101452001Y-75546548D01*
X101452001Y-75823669D01*
X101452371Y-75830490D01*
X101457895Y-75881352D01*
X101461522Y-75896609D01*
X101462896Y-75900274D01*
X101463119Y-75903327D01*
X101463349Y-75904293D01*
X101463193Y-75904330D01*
X101468077Y-75971081D01*
X101434155Y-76033449D01*
X101371898Y-76067576D01*
X101344913Y-76070500D01*
X61594500Y-76070500D01*
X61526379Y-76050498D01*
X61479886Y-75996842D01*
X61468500Y-75944500D01*
X61468500Y-75006885D01*
X101452000Y-75006885D01*
X101456475Y-75022124D01*
X101457865Y-75023329D01*
X101465548Y-75025000D01*
X102187885Y-75025000D01*
X102203124Y-75020525D01*
X102204329Y-75019135D01*
X102206000Y-75011452D01*
X102206000Y-74289116D01*
X102201525Y-74273877D01*
X102200135Y-74272672D01*
X102192452Y-74271001D01*
X101915331Y-74271001D01*
X101908510Y-74271371D01*
X101857648Y-74276895D01*
X101842396Y-74280521D01*
X101721946Y-74325676D01*
X101706351Y-74334214D01*
X101604276Y-74410715D01*
X101591715Y-74423276D01*
X101515214Y-74525351D01*
X101506676Y-74540946D01*
X101461522Y-74661394D01*
X101457895Y-74676649D01*
X101452369Y-74727514D01*
X101452000Y-74734328D01*
X101452000Y-75006885D01*
X61468500Y-75006885D01*
X61468500Y-73313158D01*
X61488502Y-73245037D01*
X61542158Y-73198544D01*
X61612432Y-73188440D01*
X61677012Y-73217934D01*
X61692693Y-73234202D01*
X61735968Y-73288025D01*
X61740692Y-73291989D01*
X61747933Y-73298065D01*
X61887474Y-73415154D01*
X61892872Y-73418121D01*
X61892877Y-73418125D01*
X62036180Y-73496905D01*
X62060787Y-73510433D01*
X62066654Y-73512294D01*
X62066656Y-73512295D01*
X62243436Y-73568373D01*
X62249306Y-73570235D01*
X62403227Y-73587500D01*
X62509769Y-73587500D01*
X62512825Y-73587200D01*
X62512832Y-73587200D01*
X62571340Y-73581463D01*
X62656833Y-73573080D01*
X62662734Y-73571298D01*
X62662736Y-73571298D01*
X62736053Y-73549162D01*
X62846169Y-73515916D01*
X63020796Y-73423066D01*
X63107062Y-73352709D01*
X63169287Y-73301960D01*
X63169290Y-73301957D01*
X63174062Y-73298065D01*
X63226892Y-73234205D01*
X63296201Y-73150425D01*
X63296203Y-73150421D01*
X63300130Y-73145675D01*
X63394198Y-72971701D01*
X63452682Y-72782768D01*
X63473355Y-72586075D01*
X63455430Y-72389112D01*
X63450222Y-72371414D01*
X63401330Y-72205294D01*
X63399590Y-72199381D01*
X63389919Y-72180881D01*
X63310813Y-72029568D01*
X63307960Y-72024110D01*
X63184032Y-71869975D01*
X63177727Y-71864684D01*
X63154080Y-71844842D01*
X63032526Y-71742846D01*
X63027128Y-71739879D01*
X63027123Y-71739875D01*
X62864608Y-71650533D01*
X62864609Y-71650533D01*
X62859213Y-71647567D01*
X62853346Y-71645706D01*
X62853344Y-71645705D01*
X62676564Y-71589627D01*
X62676563Y-71589627D01*
X62670694Y-71587765D01*
X62516773Y-71570500D01*
X62410231Y-71570500D01*
X62407175Y-71570800D01*
X62407168Y-71570800D01*
X62348660Y-71576537D01*
X62263167Y-71584920D01*
X62257266Y-71586702D01*
X62257264Y-71586702D01*
X62183947Y-71608838D01*
X62073831Y-71642084D01*
X61899204Y-71734934D01*
X61812938Y-71805291D01*
X61750713Y-71856040D01*
X61750710Y-71856043D01*
X61745938Y-71859935D01*
X61742011Y-71864682D01*
X61742008Y-71864685D01*
X61691584Y-71925637D01*
X61632751Y-71965375D01*
X61561773Y-71966996D01*
X61501185Y-71929987D01*
X61470225Y-71866097D01*
X61468500Y-71845321D01*
X61468500Y-70897417D01*
X61488502Y-70829296D01*
X61542158Y-70782803D01*
X61612432Y-70772699D01*
X61670065Y-70796591D01*
X61706351Y-70823786D01*
X61721946Y-70832324D01*
X61842394Y-70877478D01*
X61857649Y-70881105D01*
X61908514Y-70886631D01*
X61915328Y-70887000D01*
X62187885Y-70887000D01*
X62203124Y-70882525D01*
X62204329Y-70881135D01*
X62206000Y-70873452D01*
X62206000Y-70868884D01*
X62714000Y-70868884D01*
X62718475Y-70884123D01*
X62719865Y-70885328D01*
X62727548Y-70886999D01*
X63004669Y-70886999D01*
X63011490Y-70886629D01*
X63062352Y-70881105D01*
X63077604Y-70877479D01*
X63198054Y-70832324D01*
X63213649Y-70823786D01*
X63315724Y-70747285D01*
X63328285Y-70734724D01*
X63404786Y-70632649D01*
X63413324Y-70617054D01*
X63458478Y-70496606D01*
X63462105Y-70481351D01*
X63467631Y-70430486D01*
X63468000Y-70423672D01*
X63468000Y-70151115D01*
X63463525Y-70135876D01*
X63462135Y-70134671D01*
X63454452Y-70133000D01*
X62732115Y-70133000D01*
X62716876Y-70137475D01*
X62715671Y-70138865D01*
X62714000Y-70146548D01*
X62714000Y-70868884D01*
X62206000Y-70868884D01*
X62206000Y-69751000D01*
X62226002Y-69682879D01*
X62279658Y-69636386D01*
X62332000Y-69625000D01*
X63449884Y-69625000D01*
X63465123Y-69620525D01*
X63466328Y-69619135D01*
X63467999Y-69611452D01*
X63467999Y-69334331D01*
X63467629Y-69327510D01*
X63462105Y-69276648D01*
X63458478Y-69261391D01*
X63457104Y-69257726D01*
X63456881Y-69254673D01*
X63456651Y-69253707D01*
X63456807Y-69253670D01*
X63451923Y-69186919D01*
X63485845Y-69124551D01*
X63548102Y-69090424D01*
X63575087Y-69087500D01*
X103325500Y-69087500D01*
X103393621Y-69107502D01*
G37*
%TD.AperFunction*%
%TD*%
%TA.AperFunction,Conductor*%
%TO.N,GND*%
G36*
X146393621Y-69107502D02*
G01*
X146440114Y-69161158D01*
X146451500Y-69213500D01*
X146451500Y-71844842D01*
X146431498Y-71912963D01*
X146377842Y-71959456D01*
X146307568Y-71969560D01*
X146242988Y-71940066D01*
X146227304Y-71923795D01*
X146187892Y-71874776D01*
X146184032Y-71869975D01*
X146177727Y-71864684D01*
X146154080Y-71844842D01*
X146032526Y-71742846D01*
X146027128Y-71739879D01*
X146027123Y-71739875D01*
X145864608Y-71650533D01*
X145864609Y-71650533D01*
X145859213Y-71647567D01*
X145853346Y-71645706D01*
X145853344Y-71645705D01*
X145676564Y-71589627D01*
X145676563Y-71589627D01*
X145670694Y-71587765D01*
X145516773Y-71570500D01*
X145410231Y-71570500D01*
X145407175Y-71570800D01*
X145407168Y-71570800D01*
X145348660Y-71576537D01*
X145263167Y-71584920D01*
X145257266Y-71586702D01*
X145257264Y-71586702D01*
X145183947Y-71608838D01*
X145073831Y-71642084D01*
X144899204Y-71734934D01*
X144812938Y-71805291D01*
X144750713Y-71856040D01*
X144750710Y-71856043D01*
X144745938Y-71859935D01*
X144742011Y-71864682D01*
X144742009Y-71864684D01*
X144623799Y-72007575D01*
X144623797Y-72007579D01*
X144619870Y-72012325D01*
X144525802Y-72186299D01*
X144467318Y-72375232D01*
X144446645Y-72571925D01*
X144464570Y-72768888D01*
X144466308Y-72774794D01*
X144466309Y-72774798D01*
X144470387Y-72788653D01*
X144520410Y-72958619D01*
X144523263Y-72964077D01*
X144523265Y-72964081D01*
X144570720Y-73054853D01*
X144612040Y-73133890D01*
X144735968Y-73288025D01*
X144740692Y-73291989D01*
X144747933Y-73298065D01*
X144887474Y-73415154D01*
X144892872Y-73418121D01*
X144892877Y-73418125D01*
X145036180Y-73496905D01*
X145060787Y-73510433D01*
X145066654Y-73512294D01*
X145066656Y-73512295D01*
X145243436Y-73568373D01*
X145249306Y-73570235D01*
X145403227Y-73587500D01*
X145509769Y-73587500D01*
X145512825Y-73587200D01*
X145512832Y-73587200D01*
X145571340Y-73581463D01*
X145656833Y-73573080D01*
X145662734Y-73571298D01*
X145662736Y-73571298D01*
X145736053Y-73549162D01*
X145846169Y-73515916D01*
X146020796Y-73423066D01*
X146107062Y-73352709D01*
X146169287Y-73301960D01*
X146169290Y-73301957D01*
X146174062Y-73298065D01*
X146226892Y-73234205D01*
X146228416Y-73232363D01*
X146287249Y-73192625D01*
X146358227Y-73191004D01*
X146418815Y-73228013D01*
X146449775Y-73291903D01*
X146451500Y-73312679D01*
X146451500Y-74260583D01*
X146431498Y-74328704D01*
X146377842Y-74375197D01*
X146307568Y-74385301D01*
X146249935Y-74361409D01*
X146213649Y-74334214D01*
X146198054Y-74325676D01*
X146077606Y-74280522D01*
X146062351Y-74276895D01*
X146011486Y-74271369D01*
X146004672Y-74271000D01*
X145732115Y-74271000D01*
X145716876Y-74275475D01*
X145715671Y-74276865D01*
X145714000Y-74284548D01*
X145714000Y-75407000D01*
X145693998Y-75475121D01*
X145640342Y-75521614D01*
X145588000Y-75533000D01*
X144470116Y-75533000D01*
X144454877Y-75537475D01*
X144453672Y-75538865D01*
X144452001Y-75546548D01*
X144452001Y-75823669D01*
X144452371Y-75830490D01*
X144457895Y-75881352D01*
X144461522Y-75896609D01*
X144462896Y-75900274D01*
X144463119Y-75903327D01*
X144463349Y-75904293D01*
X144463193Y-75904330D01*
X144468077Y-75971081D01*
X144434155Y-76033449D01*
X144371898Y-76067576D01*
X144344913Y-76070500D01*
X104594500Y-76070500D01*
X104526379Y-76050498D01*
X104479886Y-75996842D01*
X104468500Y-75944500D01*
X104468500Y-75006885D01*
X144452000Y-75006885D01*
X144456475Y-75022124D01*
X144457865Y-75023329D01*
X144465548Y-75025000D01*
X145187885Y-75025000D01*
X145203124Y-75020525D01*
X145204329Y-75019135D01*
X145206000Y-75011452D01*
X145206000Y-74289116D01*
X145201525Y-74273877D01*
X145200135Y-74272672D01*
X145192452Y-74271001D01*
X144915331Y-74271001D01*
X144908510Y-74271371D01*
X144857648Y-74276895D01*
X144842396Y-74280521D01*
X144721946Y-74325676D01*
X144706351Y-74334214D01*
X144604276Y-74410715D01*
X144591715Y-74423276D01*
X144515214Y-74525351D01*
X144506676Y-74540946D01*
X144461522Y-74661394D01*
X144457895Y-74676649D01*
X144452369Y-74727514D01*
X144452000Y-74734328D01*
X144452000Y-75006885D01*
X104468500Y-75006885D01*
X104468500Y-73313158D01*
X104488502Y-73245037D01*
X104542158Y-73198544D01*
X104612432Y-73188440D01*
X104677012Y-73217934D01*
X104692693Y-73234202D01*
X104735968Y-73288025D01*
X104740692Y-73291989D01*
X104747933Y-73298065D01*
X104887474Y-73415154D01*
X104892872Y-73418121D01*
X104892877Y-73418125D01*
X105036180Y-73496905D01*
X105060787Y-73510433D01*
X105066654Y-73512294D01*
X105066656Y-73512295D01*
X105243436Y-73568373D01*
X105249306Y-73570235D01*
X105403227Y-73587500D01*
X105509769Y-73587500D01*
X105512825Y-73587200D01*
X105512832Y-73587200D01*
X105571340Y-73581463D01*
X105656833Y-73573080D01*
X105662734Y-73571298D01*
X105662736Y-73571298D01*
X105736053Y-73549162D01*
X105846169Y-73515916D01*
X106020796Y-73423066D01*
X106107062Y-73352709D01*
X106169287Y-73301960D01*
X106169290Y-73301957D01*
X106174062Y-73298065D01*
X106226892Y-73234205D01*
X106296201Y-73150425D01*
X106296203Y-73150421D01*
X106300130Y-73145675D01*
X106394198Y-72971701D01*
X106452682Y-72782768D01*
X106473355Y-72586075D01*
X106455430Y-72389112D01*
X106450222Y-72371414D01*
X106401330Y-72205294D01*
X106399590Y-72199381D01*
X106389919Y-72180881D01*
X106310813Y-72029568D01*
X106307960Y-72024110D01*
X106184032Y-71869975D01*
X106177727Y-71864684D01*
X106154080Y-71844842D01*
X106032526Y-71742846D01*
X106027128Y-71739879D01*
X106027123Y-71739875D01*
X105864608Y-71650533D01*
X105864609Y-71650533D01*
X105859213Y-71647567D01*
X105853346Y-71645706D01*
X105853344Y-71645705D01*
X105676564Y-71589627D01*
X105676563Y-71589627D01*
X105670694Y-71587765D01*
X105516773Y-71570500D01*
X105410231Y-71570500D01*
X105407175Y-71570800D01*
X105407168Y-71570800D01*
X105348660Y-71576537D01*
X105263167Y-71584920D01*
X105257266Y-71586702D01*
X105257264Y-71586702D01*
X105183947Y-71608838D01*
X105073831Y-71642084D01*
X104899204Y-71734934D01*
X104812938Y-71805291D01*
X104750713Y-71856040D01*
X104750710Y-71856043D01*
X104745938Y-71859935D01*
X104742011Y-71864682D01*
X104742008Y-71864685D01*
X104691584Y-71925637D01*
X104632751Y-71965375D01*
X104561773Y-71966996D01*
X104501185Y-71929987D01*
X104470225Y-71866097D01*
X104468500Y-71845321D01*
X104468500Y-70897417D01*
X104488502Y-70829296D01*
X104542158Y-70782803D01*
X104612432Y-70772699D01*
X104670065Y-70796591D01*
X104706351Y-70823786D01*
X104721946Y-70832324D01*
X104842394Y-70877478D01*
X104857649Y-70881105D01*
X104908514Y-70886631D01*
X104915328Y-70887000D01*
X105187885Y-70887000D01*
X105203124Y-70882525D01*
X105204329Y-70881135D01*
X105206000Y-70873452D01*
X105206000Y-70868884D01*
X105714000Y-70868884D01*
X105718475Y-70884123D01*
X105719865Y-70885328D01*
X105727548Y-70886999D01*
X106004669Y-70886999D01*
X106011490Y-70886629D01*
X106062352Y-70881105D01*
X106077604Y-70877479D01*
X106198054Y-70832324D01*
X106213649Y-70823786D01*
X106315724Y-70747285D01*
X106328285Y-70734724D01*
X106404786Y-70632649D01*
X106413324Y-70617054D01*
X106458478Y-70496606D01*
X106462105Y-70481351D01*
X106467631Y-70430486D01*
X106468000Y-70423672D01*
X106468000Y-70151115D01*
X106463525Y-70135876D01*
X106462135Y-70134671D01*
X106454452Y-70133000D01*
X105732115Y-70133000D01*
X105716876Y-70137475D01*
X105715671Y-70138865D01*
X105714000Y-70146548D01*
X105714000Y-70868884D01*
X105206000Y-70868884D01*
X105206000Y-69751000D01*
X105226002Y-69682879D01*
X105279658Y-69636386D01*
X105332000Y-69625000D01*
X106449884Y-69625000D01*
X106465123Y-69620525D01*
X106466328Y-69619135D01*
X106467999Y-69611452D01*
X106467999Y-69334331D01*
X106467629Y-69327510D01*
X106462105Y-69276648D01*
X106458478Y-69261391D01*
X106457104Y-69257726D01*
X106456881Y-69254673D01*
X106456651Y-69253707D01*
X106456807Y-69253670D01*
X106451923Y-69186919D01*
X106485845Y-69124551D01*
X106548102Y-69090424D01*
X106575087Y-69087500D01*
X146325500Y-69087500D01*
X146393621Y-69107502D01*
G37*
%TD.AperFunction*%
%TD*%
%TA.AperFunction,Conductor*%
%TO.N,GND*%
G36*
X103393621Y-77107502D02*
G01*
X103440114Y-77161158D01*
X103451500Y-77213500D01*
X103451500Y-79844842D01*
X103431498Y-79912963D01*
X103377842Y-79959456D01*
X103307568Y-79969560D01*
X103242988Y-79940066D01*
X103227304Y-79923795D01*
X103187892Y-79874776D01*
X103184032Y-79869975D01*
X103177727Y-79864684D01*
X103154080Y-79844842D01*
X103032526Y-79742846D01*
X103027128Y-79739879D01*
X103027123Y-79739875D01*
X102864608Y-79650533D01*
X102864609Y-79650533D01*
X102859213Y-79647567D01*
X102853346Y-79645706D01*
X102853344Y-79645705D01*
X102676564Y-79589627D01*
X102676563Y-79589627D01*
X102670694Y-79587765D01*
X102516773Y-79570500D01*
X102410231Y-79570500D01*
X102407175Y-79570800D01*
X102407168Y-79570800D01*
X102348660Y-79576537D01*
X102263167Y-79584920D01*
X102257266Y-79586702D01*
X102257264Y-79586702D01*
X102183947Y-79608838D01*
X102073831Y-79642084D01*
X101899204Y-79734934D01*
X101812938Y-79805291D01*
X101750713Y-79856040D01*
X101750710Y-79856043D01*
X101745938Y-79859935D01*
X101742011Y-79864682D01*
X101742009Y-79864684D01*
X101623799Y-80007575D01*
X101623797Y-80007579D01*
X101619870Y-80012325D01*
X101525802Y-80186299D01*
X101467318Y-80375232D01*
X101446645Y-80571925D01*
X101464570Y-80768888D01*
X101466308Y-80774794D01*
X101466309Y-80774798D01*
X101470387Y-80788653D01*
X101520410Y-80958619D01*
X101523263Y-80964077D01*
X101523265Y-80964081D01*
X101570720Y-81054853D01*
X101612040Y-81133890D01*
X101735968Y-81288025D01*
X101740692Y-81291989D01*
X101747933Y-81298065D01*
X101887474Y-81415154D01*
X101892872Y-81418121D01*
X101892877Y-81418125D01*
X102036180Y-81496905D01*
X102060787Y-81510433D01*
X102066654Y-81512294D01*
X102066656Y-81512295D01*
X102243436Y-81568373D01*
X102249306Y-81570235D01*
X102403227Y-81587500D01*
X102509769Y-81587500D01*
X102512825Y-81587200D01*
X102512832Y-81587200D01*
X102571340Y-81581463D01*
X102656833Y-81573080D01*
X102662734Y-81571298D01*
X102662736Y-81571298D01*
X102736053Y-81549162D01*
X102846169Y-81515916D01*
X103020796Y-81423066D01*
X103107062Y-81352709D01*
X103169287Y-81301960D01*
X103169290Y-81301957D01*
X103174062Y-81298065D01*
X103226892Y-81234205D01*
X103228416Y-81232363D01*
X103287249Y-81192625D01*
X103358227Y-81191004D01*
X103418815Y-81228013D01*
X103449775Y-81291903D01*
X103451500Y-81312679D01*
X103451500Y-82260583D01*
X103431498Y-82328704D01*
X103377842Y-82375197D01*
X103307568Y-82385301D01*
X103249935Y-82361409D01*
X103213649Y-82334214D01*
X103198054Y-82325676D01*
X103077606Y-82280522D01*
X103062351Y-82276895D01*
X103011486Y-82271369D01*
X103004672Y-82271000D01*
X102732115Y-82271000D01*
X102716876Y-82275475D01*
X102715671Y-82276865D01*
X102714000Y-82284548D01*
X102714000Y-83407000D01*
X102693998Y-83475121D01*
X102640342Y-83521614D01*
X102588000Y-83533000D01*
X101470116Y-83533000D01*
X101454877Y-83537475D01*
X101453672Y-83538865D01*
X101452001Y-83546548D01*
X101452001Y-83823669D01*
X101452371Y-83830490D01*
X101457895Y-83881352D01*
X101461522Y-83896609D01*
X101462896Y-83900274D01*
X101463119Y-83903327D01*
X101463349Y-83904293D01*
X101463193Y-83904330D01*
X101468077Y-83971081D01*
X101434155Y-84033449D01*
X101371898Y-84067576D01*
X101344913Y-84070500D01*
X61594500Y-84070500D01*
X61526379Y-84050498D01*
X61479886Y-83996842D01*
X61468500Y-83944500D01*
X61468500Y-83006885D01*
X101452000Y-83006885D01*
X101456475Y-83022124D01*
X101457865Y-83023329D01*
X101465548Y-83025000D01*
X102187885Y-83025000D01*
X102203124Y-83020525D01*
X102204329Y-83019135D01*
X102206000Y-83011452D01*
X102206000Y-82289116D01*
X102201525Y-82273877D01*
X102200135Y-82272672D01*
X102192452Y-82271001D01*
X101915331Y-82271001D01*
X101908510Y-82271371D01*
X101857648Y-82276895D01*
X101842396Y-82280521D01*
X101721946Y-82325676D01*
X101706351Y-82334214D01*
X101604276Y-82410715D01*
X101591715Y-82423276D01*
X101515214Y-82525351D01*
X101506676Y-82540946D01*
X101461522Y-82661394D01*
X101457895Y-82676649D01*
X101452369Y-82727514D01*
X101452000Y-82734328D01*
X101452000Y-83006885D01*
X61468500Y-83006885D01*
X61468500Y-81313158D01*
X61488502Y-81245037D01*
X61542158Y-81198544D01*
X61612432Y-81188440D01*
X61677012Y-81217934D01*
X61692693Y-81234202D01*
X61735968Y-81288025D01*
X61740692Y-81291989D01*
X61747933Y-81298065D01*
X61887474Y-81415154D01*
X61892872Y-81418121D01*
X61892877Y-81418125D01*
X62036180Y-81496905D01*
X62060787Y-81510433D01*
X62066654Y-81512294D01*
X62066656Y-81512295D01*
X62243436Y-81568373D01*
X62249306Y-81570235D01*
X62403227Y-81587500D01*
X62509769Y-81587500D01*
X62512825Y-81587200D01*
X62512832Y-81587200D01*
X62571340Y-81581463D01*
X62656833Y-81573080D01*
X62662734Y-81571298D01*
X62662736Y-81571298D01*
X62736053Y-81549162D01*
X62846169Y-81515916D01*
X63020796Y-81423066D01*
X63107062Y-81352709D01*
X63169287Y-81301960D01*
X63169290Y-81301957D01*
X63174062Y-81298065D01*
X63226892Y-81234205D01*
X63296201Y-81150425D01*
X63296203Y-81150421D01*
X63300130Y-81145675D01*
X63394198Y-80971701D01*
X63452682Y-80782768D01*
X63473355Y-80586075D01*
X63455430Y-80389112D01*
X63450222Y-80371414D01*
X63401330Y-80205294D01*
X63399590Y-80199381D01*
X63389919Y-80180881D01*
X63310813Y-80029568D01*
X63307960Y-80024110D01*
X63184032Y-79869975D01*
X63177727Y-79864684D01*
X63154080Y-79844842D01*
X63032526Y-79742846D01*
X63027128Y-79739879D01*
X63027123Y-79739875D01*
X62864608Y-79650533D01*
X62864609Y-79650533D01*
X62859213Y-79647567D01*
X62853346Y-79645706D01*
X62853344Y-79645705D01*
X62676564Y-79589627D01*
X62676563Y-79589627D01*
X62670694Y-79587765D01*
X62516773Y-79570500D01*
X62410231Y-79570500D01*
X62407175Y-79570800D01*
X62407168Y-79570800D01*
X62348660Y-79576537D01*
X62263167Y-79584920D01*
X62257266Y-79586702D01*
X62257264Y-79586702D01*
X62183947Y-79608838D01*
X62073831Y-79642084D01*
X61899204Y-79734934D01*
X61812938Y-79805291D01*
X61750713Y-79856040D01*
X61750710Y-79856043D01*
X61745938Y-79859935D01*
X61742011Y-79864682D01*
X61742008Y-79864685D01*
X61691584Y-79925637D01*
X61632751Y-79965375D01*
X61561773Y-79966996D01*
X61501185Y-79929987D01*
X61470225Y-79866097D01*
X61468500Y-79845321D01*
X61468500Y-78897417D01*
X61488502Y-78829296D01*
X61542158Y-78782803D01*
X61612432Y-78772699D01*
X61670065Y-78796591D01*
X61706351Y-78823786D01*
X61721946Y-78832324D01*
X61842394Y-78877478D01*
X61857649Y-78881105D01*
X61908514Y-78886631D01*
X61915328Y-78887000D01*
X62187885Y-78887000D01*
X62203124Y-78882525D01*
X62204329Y-78881135D01*
X62206000Y-78873452D01*
X62206000Y-78868884D01*
X62714000Y-78868884D01*
X62718475Y-78884123D01*
X62719865Y-78885328D01*
X62727548Y-78886999D01*
X63004669Y-78886999D01*
X63011490Y-78886629D01*
X63062352Y-78881105D01*
X63077604Y-78877479D01*
X63198054Y-78832324D01*
X63213649Y-78823786D01*
X63315724Y-78747285D01*
X63328285Y-78734724D01*
X63404786Y-78632649D01*
X63413324Y-78617054D01*
X63458478Y-78496606D01*
X63462105Y-78481351D01*
X63467631Y-78430486D01*
X63468000Y-78423672D01*
X63468000Y-78151115D01*
X63463525Y-78135876D01*
X63462135Y-78134671D01*
X63454452Y-78133000D01*
X62732115Y-78133000D01*
X62716876Y-78137475D01*
X62715671Y-78138865D01*
X62714000Y-78146548D01*
X62714000Y-78868884D01*
X62206000Y-78868884D01*
X62206000Y-77751000D01*
X62226002Y-77682879D01*
X62279658Y-77636386D01*
X62332000Y-77625000D01*
X63449884Y-77625000D01*
X63465123Y-77620525D01*
X63466328Y-77619135D01*
X63467999Y-77611452D01*
X63467999Y-77334331D01*
X63467629Y-77327510D01*
X63462105Y-77276648D01*
X63458478Y-77261391D01*
X63457104Y-77257726D01*
X63456881Y-77254673D01*
X63456651Y-77253707D01*
X63456807Y-77253670D01*
X63451923Y-77186919D01*
X63485845Y-77124551D01*
X63548102Y-77090424D01*
X63575087Y-77087500D01*
X103325500Y-77087500D01*
X103393621Y-77107502D01*
G37*
%TD.AperFunction*%
%TD*%
%TA.AperFunction,Conductor*%
%TO.N,GND*%
G36*
X146393621Y-77107502D02*
G01*
X146440114Y-77161158D01*
X146451500Y-77213500D01*
X146451500Y-79844842D01*
X146431498Y-79912963D01*
X146377842Y-79959456D01*
X146307568Y-79969560D01*
X146242988Y-79940066D01*
X146227304Y-79923795D01*
X146187892Y-79874776D01*
X146184032Y-79869975D01*
X146177727Y-79864684D01*
X146154080Y-79844842D01*
X146032526Y-79742846D01*
X146027128Y-79739879D01*
X146027123Y-79739875D01*
X145864608Y-79650533D01*
X145864609Y-79650533D01*
X145859213Y-79647567D01*
X145853346Y-79645706D01*
X145853344Y-79645705D01*
X145676564Y-79589627D01*
X145676563Y-79589627D01*
X145670694Y-79587765D01*
X145516773Y-79570500D01*
X145410231Y-79570500D01*
X145407175Y-79570800D01*
X145407168Y-79570800D01*
X145348660Y-79576537D01*
X145263167Y-79584920D01*
X145257266Y-79586702D01*
X145257264Y-79586702D01*
X145183947Y-79608838D01*
X145073831Y-79642084D01*
X144899204Y-79734934D01*
X144812938Y-79805291D01*
X144750713Y-79856040D01*
X144750710Y-79856043D01*
X144745938Y-79859935D01*
X144742011Y-79864682D01*
X144742009Y-79864684D01*
X144623799Y-80007575D01*
X144623797Y-80007579D01*
X144619870Y-80012325D01*
X144525802Y-80186299D01*
X144467318Y-80375232D01*
X144446645Y-80571925D01*
X144464570Y-80768888D01*
X144466308Y-80774794D01*
X144466309Y-80774798D01*
X144470387Y-80788653D01*
X144520410Y-80958619D01*
X144523263Y-80964077D01*
X144523265Y-80964081D01*
X144570720Y-81054853D01*
X144612040Y-81133890D01*
X144735968Y-81288025D01*
X144740692Y-81291989D01*
X144747933Y-81298065D01*
X144887474Y-81415154D01*
X144892872Y-81418121D01*
X144892877Y-81418125D01*
X145036180Y-81496905D01*
X145060787Y-81510433D01*
X145066654Y-81512294D01*
X145066656Y-81512295D01*
X145243436Y-81568373D01*
X145249306Y-81570235D01*
X145403227Y-81587500D01*
X145509769Y-81587500D01*
X145512825Y-81587200D01*
X145512832Y-81587200D01*
X145571340Y-81581463D01*
X145656833Y-81573080D01*
X145662734Y-81571298D01*
X145662736Y-81571298D01*
X145736053Y-81549162D01*
X145846169Y-81515916D01*
X146020796Y-81423066D01*
X146107062Y-81352709D01*
X146169287Y-81301960D01*
X146169290Y-81301957D01*
X146174062Y-81298065D01*
X146226892Y-81234205D01*
X146228416Y-81232363D01*
X146287249Y-81192625D01*
X146358227Y-81191004D01*
X146418815Y-81228013D01*
X146449775Y-81291903D01*
X146451500Y-81312679D01*
X146451500Y-82260583D01*
X146431498Y-82328704D01*
X146377842Y-82375197D01*
X146307568Y-82385301D01*
X146249935Y-82361409D01*
X146213649Y-82334214D01*
X146198054Y-82325676D01*
X146077606Y-82280522D01*
X146062351Y-82276895D01*
X146011486Y-82271369D01*
X146004672Y-82271000D01*
X145732115Y-82271000D01*
X145716876Y-82275475D01*
X145715671Y-82276865D01*
X145714000Y-82284548D01*
X145714000Y-83407000D01*
X145693998Y-83475121D01*
X145640342Y-83521614D01*
X145588000Y-83533000D01*
X144470116Y-83533000D01*
X144454877Y-83537475D01*
X144453672Y-83538865D01*
X144452001Y-83546548D01*
X144452001Y-83823669D01*
X144452371Y-83830490D01*
X144457895Y-83881352D01*
X144461522Y-83896609D01*
X144462896Y-83900274D01*
X144463119Y-83903327D01*
X144463349Y-83904293D01*
X144463193Y-83904330D01*
X144468077Y-83971081D01*
X144434155Y-84033449D01*
X144371898Y-84067576D01*
X144344913Y-84070500D01*
X104594500Y-84070500D01*
X104526379Y-84050498D01*
X104479886Y-83996842D01*
X104468500Y-83944500D01*
X104468500Y-83006885D01*
X144452000Y-83006885D01*
X144456475Y-83022124D01*
X144457865Y-83023329D01*
X144465548Y-83025000D01*
X145187885Y-83025000D01*
X145203124Y-83020525D01*
X145204329Y-83019135D01*
X145206000Y-83011452D01*
X145206000Y-82289116D01*
X145201525Y-82273877D01*
X145200135Y-82272672D01*
X145192452Y-82271001D01*
X144915331Y-82271001D01*
X144908510Y-82271371D01*
X144857648Y-82276895D01*
X144842396Y-82280521D01*
X144721946Y-82325676D01*
X144706351Y-82334214D01*
X144604276Y-82410715D01*
X144591715Y-82423276D01*
X144515214Y-82525351D01*
X144506676Y-82540946D01*
X144461522Y-82661394D01*
X144457895Y-82676649D01*
X144452369Y-82727514D01*
X144452000Y-82734328D01*
X144452000Y-83006885D01*
X104468500Y-83006885D01*
X104468500Y-81313158D01*
X104488502Y-81245037D01*
X104542158Y-81198544D01*
X104612432Y-81188440D01*
X104677012Y-81217934D01*
X104692693Y-81234202D01*
X104735968Y-81288025D01*
X104740692Y-81291989D01*
X104747933Y-81298065D01*
X104887474Y-81415154D01*
X104892872Y-81418121D01*
X104892877Y-81418125D01*
X105036180Y-81496905D01*
X105060787Y-81510433D01*
X105066654Y-81512294D01*
X105066656Y-81512295D01*
X105243436Y-81568373D01*
X105249306Y-81570235D01*
X105403227Y-81587500D01*
X105509769Y-81587500D01*
X105512825Y-81587200D01*
X105512832Y-81587200D01*
X105571340Y-81581463D01*
X105656833Y-81573080D01*
X105662734Y-81571298D01*
X105662736Y-81571298D01*
X105736053Y-81549162D01*
X105846169Y-81515916D01*
X106020796Y-81423066D01*
X106107062Y-81352709D01*
X106169287Y-81301960D01*
X106169290Y-81301957D01*
X106174062Y-81298065D01*
X106226892Y-81234205D01*
X106296201Y-81150425D01*
X106296203Y-81150421D01*
X106300130Y-81145675D01*
X106394198Y-80971701D01*
X106452682Y-80782768D01*
X106473355Y-80586075D01*
X106455430Y-80389112D01*
X106450222Y-80371414D01*
X106401330Y-80205294D01*
X106399590Y-80199381D01*
X106389919Y-80180881D01*
X106310813Y-80029568D01*
X106307960Y-80024110D01*
X106184032Y-79869975D01*
X106177727Y-79864684D01*
X106154080Y-79844842D01*
X106032526Y-79742846D01*
X106027128Y-79739879D01*
X106027123Y-79739875D01*
X105864608Y-79650533D01*
X105864609Y-79650533D01*
X105859213Y-79647567D01*
X105853346Y-79645706D01*
X105853344Y-79645705D01*
X105676564Y-79589627D01*
X105676563Y-79589627D01*
X105670694Y-79587765D01*
X105516773Y-79570500D01*
X105410231Y-79570500D01*
X105407175Y-79570800D01*
X105407168Y-79570800D01*
X105348660Y-79576537D01*
X105263167Y-79584920D01*
X105257266Y-79586702D01*
X105257264Y-79586702D01*
X105183947Y-79608838D01*
X105073831Y-79642084D01*
X104899204Y-79734934D01*
X104812938Y-79805291D01*
X104750713Y-79856040D01*
X104750710Y-79856043D01*
X104745938Y-79859935D01*
X104742011Y-79864682D01*
X104742008Y-79864685D01*
X104691584Y-79925637D01*
X104632751Y-79965375D01*
X104561773Y-79966996D01*
X104501185Y-79929987D01*
X104470225Y-79866097D01*
X104468500Y-79845321D01*
X104468500Y-78897417D01*
X104488502Y-78829296D01*
X104542158Y-78782803D01*
X104612432Y-78772699D01*
X104670065Y-78796591D01*
X104706351Y-78823786D01*
X104721946Y-78832324D01*
X104842394Y-78877478D01*
X104857649Y-78881105D01*
X104908514Y-78886631D01*
X104915328Y-78887000D01*
X105187885Y-78887000D01*
X105203124Y-78882525D01*
X105204329Y-78881135D01*
X105206000Y-78873452D01*
X105206000Y-78868884D01*
X105714000Y-78868884D01*
X105718475Y-78884123D01*
X105719865Y-78885328D01*
X105727548Y-78886999D01*
X106004669Y-78886999D01*
X106011490Y-78886629D01*
X106062352Y-78881105D01*
X106077604Y-78877479D01*
X106198054Y-78832324D01*
X106213649Y-78823786D01*
X106315724Y-78747285D01*
X106328285Y-78734724D01*
X106404786Y-78632649D01*
X106413324Y-78617054D01*
X106458478Y-78496606D01*
X106462105Y-78481351D01*
X106467631Y-78430486D01*
X106468000Y-78423672D01*
X106468000Y-78151115D01*
X106463525Y-78135876D01*
X106462135Y-78134671D01*
X106454452Y-78133000D01*
X105732115Y-78133000D01*
X105716876Y-78137475D01*
X105715671Y-78138865D01*
X105714000Y-78146548D01*
X105714000Y-78868884D01*
X105206000Y-78868884D01*
X105206000Y-77751000D01*
X105226002Y-77682879D01*
X105279658Y-77636386D01*
X105332000Y-77625000D01*
X106449884Y-77625000D01*
X106465123Y-77620525D01*
X106466328Y-77619135D01*
X106467999Y-77611452D01*
X106467999Y-77334331D01*
X106467629Y-77327510D01*
X106462105Y-77276648D01*
X106458478Y-77261391D01*
X106457104Y-77257726D01*
X106456881Y-77254673D01*
X106456651Y-77253707D01*
X106456807Y-77253670D01*
X106451923Y-77186919D01*
X106485845Y-77124551D01*
X106548102Y-77090424D01*
X106575087Y-77087500D01*
X146325500Y-77087500D01*
X146393621Y-77107502D01*
G37*
%TD.AperFunction*%
%TD*%
%TA.AperFunction,Conductor*%
%TO.N,GND*%
G36*
X103393621Y-85107502D02*
G01*
X103440114Y-85161158D01*
X103451500Y-85213500D01*
X103451500Y-87844842D01*
X103431498Y-87912963D01*
X103377842Y-87959456D01*
X103307568Y-87969560D01*
X103242988Y-87940066D01*
X103227304Y-87923795D01*
X103187892Y-87874776D01*
X103184032Y-87869975D01*
X103177727Y-87864684D01*
X103154080Y-87844842D01*
X103032526Y-87742846D01*
X103027128Y-87739879D01*
X103027123Y-87739875D01*
X102864608Y-87650533D01*
X102864609Y-87650533D01*
X102859213Y-87647567D01*
X102853346Y-87645706D01*
X102853344Y-87645705D01*
X102676564Y-87589627D01*
X102676563Y-87589627D01*
X102670694Y-87587765D01*
X102516773Y-87570500D01*
X102410231Y-87570500D01*
X102407175Y-87570800D01*
X102407168Y-87570800D01*
X102348660Y-87576537D01*
X102263167Y-87584920D01*
X102257266Y-87586702D01*
X102257264Y-87586702D01*
X102183947Y-87608838D01*
X102073831Y-87642084D01*
X101899204Y-87734934D01*
X101812938Y-87805291D01*
X101750713Y-87856040D01*
X101750710Y-87856043D01*
X101745938Y-87859935D01*
X101742011Y-87864682D01*
X101742009Y-87864684D01*
X101623799Y-88007575D01*
X101623797Y-88007579D01*
X101619870Y-88012325D01*
X101525802Y-88186299D01*
X101467318Y-88375232D01*
X101446645Y-88571925D01*
X101464570Y-88768888D01*
X101466308Y-88774794D01*
X101466309Y-88774798D01*
X101470387Y-88788653D01*
X101520410Y-88958619D01*
X101523263Y-88964077D01*
X101523265Y-88964081D01*
X101570720Y-89054853D01*
X101612040Y-89133890D01*
X101735968Y-89288025D01*
X101740692Y-89291989D01*
X101747933Y-89298065D01*
X101887474Y-89415154D01*
X101892872Y-89418121D01*
X101892877Y-89418125D01*
X102036180Y-89496905D01*
X102060787Y-89510433D01*
X102066654Y-89512294D01*
X102066656Y-89512295D01*
X102243436Y-89568373D01*
X102249306Y-89570235D01*
X102403227Y-89587500D01*
X102509769Y-89587500D01*
X102512825Y-89587200D01*
X102512832Y-89587200D01*
X102571340Y-89581463D01*
X102656833Y-89573080D01*
X102662734Y-89571298D01*
X102662736Y-89571298D01*
X102736053Y-89549162D01*
X102846169Y-89515916D01*
X103020796Y-89423066D01*
X103107062Y-89352709D01*
X103169287Y-89301960D01*
X103169290Y-89301957D01*
X103174062Y-89298065D01*
X103226892Y-89234205D01*
X103228416Y-89232363D01*
X103287249Y-89192625D01*
X103358227Y-89191004D01*
X103418815Y-89228013D01*
X103449775Y-89291903D01*
X103451500Y-89312679D01*
X103451500Y-90260583D01*
X103431498Y-90328704D01*
X103377842Y-90375197D01*
X103307568Y-90385301D01*
X103249935Y-90361409D01*
X103213649Y-90334214D01*
X103198054Y-90325676D01*
X103077606Y-90280522D01*
X103062351Y-90276895D01*
X103011486Y-90271369D01*
X103004672Y-90271000D01*
X102732115Y-90271000D01*
X102716876Y-90275475D01*
X102715671Y-90276865D01*
X102714000Y-90284548D01*
X102714000Y-91407000D01*
X102693998Y-91475121D01*
X102640342Y-91521614D01*
X102588000Y-91533000D01*
X101470116Y-91533000D01*
X101454877Y-91537475D01*
X101453672Y-91538865D01*
X101452001Y-91546548D01*
X101452001Y-91823669D01*
X101452371Y-91830490D01*
X101457895Y-91881352D01*
X101461522Y-91896609D01*
X101462896Y-91900274D01*
X101463119Y-91903327D01*
X101463349Y-91904293D01*
X101463193Y-91904330D01*
X101468077Y-91971081D01*
X101434155Y-92033449D01*
X101371898Y-92067576D01*
X101344913Y-92070500D01*
X61594500Y-92070500D01*
X61526379Y-92050498D01*
X61479886Y-91996842D01*
X61468500Y-91944500D01*
X61468500Y-91006885D01*
X101452000Y-91006885D01*
X101456475Y-91022124D01*
X101457865Y-91023329D01*
X101465548Y-91025000D01*
X102187885Y-91025000D01*
X102203124Y-91020525D01*
X102204329Y-91019135D01*
X102206000Y-91011452D01*
X102206000Y-90289116D01*
X102201525Y-90273877D01*
X102200135Y-90272672D01*
X102192452Y-90271001D01*
X101915331Y-90271001D01*
X101908510Y-90271371D01*
X101857648Y-90276895D01*
X101842396Y-90280521D01*
X101721946Y-90325676D01*
X101706351Y-90334214D01*
X101604276Y-90410715D01*
X101591715Y-90423276D01*
X101515214Y-90525351D01*
X101506676Y-90540946D01*
X101461522Y-90661394D01*
X101457895Y-90676649D01*
X101452369Y-90727514D01*
X101452000Y-90734328D01*
X101452000Y-91006885D01*
X61468500Y-91006885D01*
X61468500Y-89313158D01*
X61488502Y-89245037D01*
X61542158Y-89198544D01*
X61612432Y-89188440D01*
X61677012Y-89217934D01*
X61692693Y-89234202D01*
X61735968Y-89288025D01*
X61740692Y-89291989D01*
X61747933Y-89298065D01*
X61887474Y-89415154D01*
X61892872Y-89418121D01*
X61892877Y-89418125D01*
X62036180Y-89496905D01*
X62060787Y-89510433D01*
X62066654Y-89512294D01*
X62066656Y-89512295D01*
X62243436Y-89568373D01*
X62249306Y-89570235D01*
X62403227Y-89587500D01*
X62509769Y-89587500D01*
X62512825Y-89587200D01*
X62512832Y-89587200D01*
X62571340Y-89581463D01*
X62656833Y-89573080D01*
X62662734Y-89571298D01*
X62662736Y-89571298D01*
X62736053Y-89549162D01*
X62846169Y-89515916D01*
X63020796Y-89423066D01*
X63107062Y-89352709D01*
X63169287Y-89301960D01*
X63169290Y-89301957D01*
X63174062Y-89298065D01*
X63226892Y-89234205D01*
X63296201Y-89150425D01*
X63296203Y-89150421D01*
X63300130Y-89145675D01*
X63394198Y-88971701D01*
X63452682Y-88782768D01*
X63473355Y-88586075D01*
X63455430Y-88389112D01*
X63450222Y-88371414D01*
X63401330Y-88205294D01*
X63399590Y-88199381D01*
X63389919Y-88180881D01*
X63310813Y-88029568D01*
X63307960Y-88024110D01*
X63184032Y-87869975D01*
X63177727Y-87864684D01*
X63154080Y-87844842D01*
X63032526Y-87742846D01*
X63027128Y-87739879D01*
X63027123Y-87739875D01*
X62864608Y-87650533D01*
X62864609Y-87650533D01*
X62859213Y-87647567D01*
X62853346Y-87645706D01*
X62853344Y-87645705D01*
X62676564Y-87589627D01*
X62676563Y-87589627D01*
X62670694Y-87587765D01*
X62516773Y-87570500D01*
X62410231Y-87570500D01*
X62407175Y-87570800D01*
X62407168Y-87570800D01*
X62348660Y-87576537D01*
X62263167Y-87584920D01*
X62257266Y-87586702D01*
X62257264Y-87586702D01*
X62183947Y-87608838D01*
X62073831Y-87642084D01*
X61899204Y-87734934D01*
X61812938Y-87805291D01*
X61750713Y-87856040D01*
X61750710Y-87856043D01*
X61745938Y-87859935D01*
X61742011Y-87864682D01*
X61742008Y-87864685D01*
X61691584Y-87925637D01*
X61632751Y-87965375D01*
X61561773Y-87966996D01*
X61501185Y-87929987D01*
X61470225Y-87866097D01*
X61468500Y-87845321D01*
X61468500Y-86897417D01*
X61488502Y-86829296D01*
X61542158Y-86782803D01*
X61612432Y-86772699D01*
X61670065Y-86796591D01*
X61706351Y-86823786D01*
X61721946Y-86832324D01*
X61842394Y-86877478D01*
X61857649Y-86881105D01*
X61908514Y-86886631D01*
X61915328Y-86887000D01*
X62187885Y-86887000D01*
X62203124Y-86882525D01*
X62204329Y-86881135D01*
X62206000Y-86873452D01*
X62206000Y-86868884D01*
X62714000Y-86868884D01*
X62718475Y-86884123D01*
X62719865Y-86885328D01*
X62727548Y-86886999D01*
X63004669Y-86886999D01*
X63011490Y-86886629D01*
X63062352Y-86881105D01*
X63077604Y-86877479D01*
X63198054Y-86832324D01*
X63213649Y-86823786D01*
X63315724Y-86747285D01*
X63328285Y-86734724D01*
X63404786Y-86632649D01*
X63413324Y-86617054D01*
X63458478Y-86496606D01*
X63462105Y-86481351D01*
X63467631Y-86430486D01*
X63468000Y-86423672D01*
X63468000Y-86151115D01*
X63463525Y-86135876D01*
X63462135Y-86134671D01*
X63454452Y-86133000D01*
X62732115Y-86133000D01*
X62716876Y-86137475D01*
X62715671Y-86138865D01*
X62714000Y-86146548D01*
X62714000Y-86868884D01*
X62206000Y-86868884D01*
X62206000Y-85751000D01*
X62226002Y-85682879D01*
X62279658Y-85636386D01*
X62332000Y-85625000D01*
X63449884Y-85625000D01*
X63465123Y-85620525D01*
X63466328Y-85619135D01*
X63467999Y-85611452D01*
X63467999Y-85334331D01*
X63467629Y-85327510D01*
X63462105Y-85276648D01*
X63458478Y-85261391D01*
X63457104Y-85257726D01*
X63456881Y-85254673D01*
X63456651Y-85253707D01*
X63456807Y-85253670D01*
X63451923Y-85186919D01*
X63485845Y-85124551D01*
X63548102Y-85090424D01*
X63575087Y-85087500D01*
X103325500Y-85087500D01*
X103393621Y-85107502D01*
G37*
%TD.AperFunction*%
%TD*%
%TA.AperFunction,Conductor*%
%TO.N,GND*%
G36*
X146393621Y-85107502D02*
G01*
X146440114Y-85161158D01*
X146451500Y-85213500D01*
X146451500Y-87844842D01*
X146431498Y-87912963D01*
X146377842Y-87959456D01*
X146307568Y-87969560D01*
X146242988Y-87940066D01*
X146227304Y-87923795D01*
X146187892Y-87874776D01*
X146184032Y-87869975D01*
X146177727Y-87864684D01*
X146154080Y-87844842D01*
X146032526Y-87742846D01*
X146027128Y-87739879D01*
X146027123Y-87739875D01*
X145864608Y-87650533D01*
X145864609Y-87650533D01*
X145859213Y-87647567D01*
X145853346Y-87645706D01*
X145853344Y-87645705D01*
X145676564Y-87589627D01*
X145676563Y-87589627D01*
X145670694Y-87587765D01*
X145516773Y-87570500D01*
X145410231Y-87570500D01*
X145407175Y-87570800D01*
X145407168Y-87570800D01*
X145348660Y-87576537D01*
X145263167Y-87584920D01*
X145257266Y-87586702D01*
X145257264Y-87586702D01*
X145183947Y-87608838D01*
X145073831Y-87642084D01*
X144899204Y-87734934D01*
X144812938Y-87805291D01*
X144750713Y-87856040D01*
X144750710Y-87856043D01*
X144745938Y-87859935D01*
X144742011Y-87864682D01*
X144742009Y-87864684D01*
X144623799Y-88007575D01*
X144623797Y-88007579D01*
X144619870Y-88012325D01*
X144525802Y-88186299D01*
X144467318Y-88375232D01*
X144446645Y-88571925D01*
X144464570Y-88768888D01*
X144466308Y-88774794D01*
X144466309Y-88774798D01*
X144470387Y-88788653D01*
X144520410Y-88958619D01*
X144523263Y-88964077D01*
X144523265Y-88964081D01*
X144570720Y-89054853D01*
X144612040Y-89133890D01*
X144735968Y-89288025D01*
X144740692Y-89291989D01*
X144747933Y-89298065D01*
X144887474Y-89415154D01*
X144892872Y-89418121D01*
X144892877Y-89418125D01*
X145036180Y-89496905D01*
X145060787Y-89510433D01*
X145066654Y-89512294D01*
X145066656Y-89512295D01*
X145243436Y-89568373D01*
X145249306Y-89570235D01*
X145403227Y-89587500D01*
X145509769Y-89587500D01*
X145512825Y-89587200D01*
X145512832Y-89587200D01*
X145571340Y-89581463D01*
X145656833Y-89573080D01*
X145662734Y-89571298D01*
X145662736Y-89571298D01*
X145736053Y-89549162D01*
X145846169Y-89515916D01*
X146020796Y-89423066D01*
X146107062Y-89352709D01*
X146169287Y-89301960D01*
X146169290Y-89301957D01*
X146174062Y-89298065D01*
X146226892Y-89234205D01*
X146228416Y-89232363D01*
X146287249Y-89192625D01*
X146358227Y-89191004D01*
X146418815Y-89228013D01*
X146449775Y-89291903D01*
X146451500Y-89312679D01*
X146451500Y-90260583D01*
X146431498Y-90328704D01*
X146377842Y-90375197D01*
X146307568Y-90385301D01*
X146249935Y-90361409D01*
X146213649Y-90334214D01*
X146198054Y-90325676D01*
X146077606Y-90280522D01*
X146062351Y-90276895D01*
X146011486Y-90271369D01*
X146004672Y-90271000D01*
X145732115Y-90271000D01*
X145716876Y-90275475D01*
X145715671Y-90276865D01*
X145714000Y-90284548D01*
X145714000Y-91407000D01*
X145693998Y-91475121D01*
X145640342Y-91521614D01*
X145588000Y-91533000D01*
X144470116Y-91533000D01*
X144454877Y-91537475D01*
X144453672Y-91538865D01*
X144452001Y-91546548D01*
X144452001Y-91823669D01*
X144452371Y-91830490D01*
X144457895Y-91881352D01*
X144461522Y-91896609D01*
X144462896Y-91900274D01*
X144463119Y-91903327D01*
X144463349Y-91904293D01*
X144463193Y-91904330D01*
X144468077Y-91971081D01*
X144434155Y-92033449D01*
X144371898Y-92067576D01*
X144344913Y-92070500D01*
X104594500Y-92070500D01*
X104526379Y-92050498D01*
X104479886Y-91996842D01*
X104468500Y-91944500D01*
X104468500Y-91006885D01*
X144452000Y-91006885D01*
X144456475Y-91022124D01*
X144457865Y-91023329D01*
X144465548Y-91025000D01*
X145187885Y-91025000D01*
X145203124Y-91020525D01*
X145204329Y-91019135D01*
X145206000Y-91011452D01*
X145206000Y-90289116D01*
X145201525Y-90273877D01*
X145200135Y-90272672D01*
X145192452Y-90271001D01*
X144915331Y-90271001D01*
X144908510Y-90271371D01*
X144857648Y-90276895D01*
X144842396Y-90280521D01*
X144721946Y-90325676D01*
X144706351Y-90334214D01*
X144604276Y-90410715D01*
X144591715Y-90423276D01*
X144515214Y-90525351D01*
X144506676Y-90540946D01*
X144461522Y-90661394D01*
X144457895Y-90676649D01*
X144452369Y-90727514D01*
X144452000Y-90734328D01*
X144452000Y-91006885D01*
X104468500Y-91006885D01*
X104468500Y-89313158D01*
X104488502Y-89245037D01*
X104542158Y-89198544D01*
X104612432Y-89188440D01*
X104677012Y-89217934D01*
X104692693Y-89234202D01*
X104735968Y-89288025D01*
X104740692Y-89291989D01*
X104747933Y-89298065D01*
X104887474Y-89415154D01*
X104892872Y-89418121D01*
X104892877Y-89418125D01*
X105036180Y-89496905D01*
X105060787Y-89510433D01*
X105066654Y-89512294D01*
X105066656Y-89512295D01*
X105243436Y-89568373D01*
X105249306Y-89570235D01*
X105403227Y-89587500D01*
X105509769Y-89587500D01*
X105512825Y-89587200D01*
X105512832Y-89587200D01*
X105571340Y-89581463D01*
X105656833Y-89573080D01*
X105662734Y-89571298D01*
X105662736Y-89571298D01*
X105736053Y-89549162D01*
X105846169Y-89515916D01*
X106020796Y-89423066D01*
X106107062Y-89352709D01*
X106169287Y-89301960D01*
X106169290Y-89301957D01*
X106174062Y-89298065D01*
X106226892Y-89234205D01*
X106296201Y-89150425D01*
X106296203Y-89150421D01*
X106300130Y-89145675D01*
X106394198Y-88971701D01*
X106452682Y-88782768D01*
X106473355Y-88586075D01*
X106455430Y-88389112D01*
X106450222Y-88371414D01*
X106401330Y-88205294D01*
X106399590Y-88199381D01*
X106389919Y-88180881D01*
X106310813Y-88029568D01*
X106307960Y-88024110D01*
X106184032Y-87869975D01*
X106177727Y-87864684D01*
X106154080Y-87844842D01*
X106032526Y-87742846D01*
X106027128Y-87739879D01*
X106027123Y-87739875D01*
X105864608Y-87650533D01*
X105864609Y-87650533D01*
X105859213Y-87647567D01*
X105853346Y-87645706D01*
X105853344Y-87645705D01*
X105676564Y-87589627D01*
X105676563Y-87589627D01*
X105670694Y-87587765D01*
X105516773Y-87570500D01*
X105410231Y-87570500D01*
X105407175Y-87570800D01*
X105407168Y-87570800D01*
X105348660Y-87576537D01*
X105263167Y-87584920D01*
X105257266Y-87586702D01*
X105257264Y-87586702D01*
X105183947Y-87608838D01*
X105073831Y-87642084D01*
X104899204Y-87734934D01*
X104812938Y-87805291D01*
X104750713Y-87856040D01*
X104750710Y-87856043D01*
X104745938Y-87859935D01*
X104742011Y-87864682D01*
X104742008Y-87864685D01*
X104691584Y-87925637D01*
X104632751Y-87965375D01*
X104561773Y-87966996D01*
X104501185Y-87929987D01*
X104470225Y-87866097D01*
X104468500Y-87845321D01*
X104468500Y-86897417D01*
X104488502Y-86829296D01*
X104542158Y-86782803D01*
X104612432Y-86772699D01*
X104670065Y-86796591D01*
X104706351Y-86823786D01*
X104721946Y-86832324D01*
X104842394Y-86877478D01*
X104857649Y-86881105D01*
X104908514Y-86886631D01*
X104915328Y-86887000D01*
X105187885Y-86887000D01*
X105203124Y-86882525D01*
X105204329Y-86881135D01*
X105206000Y-86873452D01*
X105206000Y-86868884D01*
X105714000Y-86868884D01*
X105718475Y-86884123D01*
X105719865Y-86885328D01*
X105727548Y-86886999D01*
X106004669Y-86886999D01*
X106011490Y-86886629D01*
X106062352Y-86881105D01*
X106077604Y-86877479D01*
X106198054Y-86832324D01*
X106213649Y-86823786D01*
X106315724Y-86747285D01*
X106328285Y-86734724D01*
X106404786Y-86632649D01*
X106413324Y-86617054D01*
X106458478Y-86496606D01*
X106462105Y-86481351D01*
X106467631Y-86430486D01*
X106468000Y-86423672D01*
X106468000Y-86151115D01*
X106463525Y-86135876D01*
X106462135Y-86134671D01*
X106454452Y-86133000D01*
X105732115Y-86133000D01*
X105716876Y-86137475D01*
X105715671Y-86138865D01*
X105714000Y-86146548D01*
X105714000Y-86868884D01*
X105206000Y-86868884D01*
X105206000Y-85751000D01*
X105226002Y-85682879D01*
X105279658Y-85636386D01*
X105332000Y-85625000D01*
X106449884Y-85625000D01*
X106465123Y-85620525D01*
X106466328Y-85619135D01*
X106467999Y-85611452D01*
X106467999Y-85334331D01*
X106467629Y-85327510D01*
X106462105Y-85276648D01*
X106458478Y-85261391D01*
X106457104Y-85257726D01*
X106456881Y-85254673D01*
X106456651Y-85253707D01*
X106456807Y-85253670D01*
X106451923Y-85186919D01*
X106485845Y-85124551D01*
X106548102Y-85090424D01*
X106575087Y-85087500D01*
X146325500Y-85087500D01*
X146393621Y-85107502D01*
G37*
%TD.AperFunction*%
%TD*%
%TA.AperFunction,Conductor*%
%TO.N,GND*%
G36*
X103393621Y-93107502D02*
G01*
X103440114Y-93161158D01*
X103451500Y-93213500D01*
X103451500Y-95844842D01*
X103431498Y-95912963D01*
X103377842Y-95959456D01*
X103307568Y-95969560D01*
X103242988Y-95940066D01*
X103227304Y-95923795D01*
X103187892Y-95874776D01*
X103184032Y-95869975D01*
X103177727Y-95864684D01*
X103154080Y-95844842D01*
X103032526Y-95742846D01*
X103027128Y-95739879D01*
X103027123Y-95739875D01*
X102864608Y-95650533D01*
X102864609Y-95650533D01*
X102859213Y-95647567D01*
X102853346Y-95645706D01*
X102853344Y-95645705D01*
X102676564Y-95589627D01*
X102676563Y-95589627D01*
X102670694Y-95587765D01*
X102516773Y-95570500D01*
X102410231Y-95570500D01*
X102407175Y-95570800D01*
X102407168Y-95570800D01*
X102348660Y-95576537D01*
X102263167Y-95584920D01*
X102257266Y-95586702D01*
X102257264Y-95586702D01*
X102183947Y-95608838D01*
X102073831Y-95642084D01*
X101899204Y-95734934D01*
X101812938Y-95805291D01*
X101750713Y-95856040D01*
X101750710Y-95856043D01*
X101745938Y-95859935D01*
X101742011Y-95864682D01*
X101742009Y-95864684D01*
X101623799Y-96007575D01*
X101623797Y-96007579D01*
X101619870Y-96012325D01*
X101525802Y-96186299D01*
X101467318Y-96375232D01*
X101446645Y-96571925D01*
X101464570Y-96768888D01*
X101466308Y-96774794D01*
X101466309Y-96774798D01*
X101470387Y-96788653D01*
X101520410Y-96958619D01*
X101523263Y-96964077D01*
X101523265Y-96964081D01*
X101570720Y-97054853D01*
X101612040Y-97133890D01*
X101735968Y-97288025D01*
X101740692Y-97291989D01*
X101747933Y-97298065D01*
X101887474Y-97415154D01*
X101892872Y-97418121D01*
X101892877Y-97418125D01*
X102036180Y-97496905D01*
X102060787Y-97510433D01*
X102066654Y-97512294D01*
X102066656Y-97512295D01*
X102243436Y-97568373D01*
X102249306Y-97570235D01*
X102403227Y-97587500D01*
X102509769Y-97587500D01*
X102512825Y-97587200D01*
X102512832Y-97587200D01*
X102571340Y-97581463D01*
X102656833Y-97573080D01*
X102662734Y-97571298D01*
X102662736Y-97571298D01*
X102736053Y-97549162D01*
X102846169Y-97515916D01*
X103020796Y-97423066D01*
X103107062Y-97352709D01*
X103169287Y-97301960D01*
X103169290Y-97301957D01*
X103174062Y-97298065D01*
X103226892Y-97234205D01*
X103228416Y-97232363D01*
X103287249Y-97192625D01*
X103358227Y-97191004D01*
X103418815Y-97228013D01*
X103449775Y-97291903D01*
X103451500Y-97312679D01*
X103451500Y-98260583D01*
X103431498Y-98328704D01*
X103377842Y-98375197D01*
X103307568Y-98385301D01*
X103249935Y-98361409D01*
X103213649Y-98334214D01*
X103198054Y-98325676D01*
X103077606Y-98280522D01*
X103062351Y-98276895D01*
X103011486Y-98271369D01*
X103004672Y-98271000D01*
X102732115Y-98271000D01*
X102716876Y-98275475D01*
X102715671Y-98276865D01*
X102714000Y-98284548D01*
X102714000Y-99407000D01*
X102693998Y-99475121D01*
X102640342Y-99521614D01*
X102588000Y-99533000D01*
X101470116Y-99533000D01*
X101454877Y-99537475D01*
X101453672Y-99538865D01*
X101452001Y-99546548D01*
X101452001Y-99823669D01*
X101452371Y-99830490D01*
X101457895Y-99881352D01*
X101461522Y-99896609D01*
X101462896Y-99900274D01*
X101463119Y-99903327D01*
X101463349Y-99904293D01*
X101463193Y-99904330D01*
X101468077Y-99971081D01*
X101434155Y-100033449D01*
X101371898Y-100067576D01*
X101344913Y-100070500D01*
X61594500Y-100070500D01*
X61526379Y-100050498D01*
X61479886Y-99996842D01*
X61468500Y-99944500D01*
X61468500Y-99006885D01*
X101452000Y-99006885D01*
X101456475Y-99022124D01*
X101457865Y-99023329D01*
X101465548Y-99025000D01*
X102187885Y-99025000D01*
X102203124Y-99020525D01*
X102204329Y-99019135D01*
X102206000Y-99011452D01*
X102206000Y-98289116D01*
X102201525Y-98273877D01*
X102200135Y-98272672D01*
X102192452Y-98271001D01*
X101915331Y-98271001D01*
X101908510Y-98271371D01*
X101857648Y-98276895D01*
X101842396Y-98280521D01*
X101721946Y-98325676D01*
X101706351Y-98334214D01*
X101604276Y-98410715D01*
X101591715Y-98423276D01*
X101515214Y-98525351D01*
X101506676Y-98540946D01*
X101461522Y-98661394D01*
X101457895Y-98676649D01*
X101452369Y-98727514D01*
X101452000Y-98734328D01*
X101452000Y-99006885D01*
X61468500Y-99006885D01*
X61468500Y-97313158D01*
X61488502Y-97245037D01*
X61542158Y-97198544D01*
X61612432Y-97188440D01*
X61677012Y-97217934D01*
X61692693Y-97234202D01*
X61735968Y-97288025D01*
X61740692Y-97291989D01*
X61747933Y-97298065D01*
X61887474Y-97415154D01*
X61892872Y-97418121D01*
X61892877Y-97418125D01*
X62036180Y-97496905D01*
X62060787Y-97510433D01*
X62066654Y-97512294D01*
X62066656Y-97512295D01*
X62243436Y-97568373D01*
X62249306Y-97570235D01*
X62403227Y-97587500D01*
X62509769Y-97587500D01*
X62512825Y-97587200D01*
X62512832Y-97587200D01*
X62571340Y-97581463D01*
X62656833Y-97573080D01*
X62662734Y-97571298D01*
X62662736Y-97571298D01*
X62736053Y-97549162D01*
X62846169Y-97515916D01*
X63020796Y-97423066D01*
X63107062Y-97352709D01*
X63169287Y-97301960D01*
X63169290Y-97301957D01*
X63174062Y-97298065D01*
X63226892Y-97234205D01*
X63296201Y-97150425D01*
X63296203Y-97150421D01*
X63300130Y-97145675D01*
X63394198Y-96971701D01*
X63452682Y-96782768D01*
X63473355Y-96586075D01*
X63455430Y-96389112D01*
X63450222Y-96371414D01*
X63401330Y-96205294D01*
X63399590Y-96199381D01*
X63389919Y-96180881D01*
X63310813Y-96029568D01*
X63307960Y-96024110D01*
X63184032Y-95869975D01*
X63177727Y-95864684D01*
X63154080Y-95844842D01*
X63032526Y-95742846D01*
X63027128Y-95739879D01*
X63027123Y-95739875D01*
X62864608Y-95650533D01*
X62864609Y-95650533D01*
X62859213Y-95647567D01*
X62853346Y-95645706D01*
X62853344Y-95645705D01*
X62676564Y-95589627D01*
X62676563Y-95589627D01*
X62670694Y-95587765D01*
X62516773Y-95570500D01*
X62410231Y-95570500D01*
X62407175Y-95570800D01*
X62407168Y-95570800D01*
X62348660Y-95576537D01*
X62263167Y-95584920D01*
X62257266Y-95586702D01*
X62257264Y-95586702D01*
X62183947Y-95608838D01*
X62073831Y-95642084D01*
X61899204Y-95734934D01*
X61812938Y-95805291D01*
X61750713Y-95856040D01*
X61750710Y-95856043D01*
X61745938Y-95859935D01*
X61742011Y-95864682D01*
X61742008Y-95864685D01*
X61691584Y-95925637D01*
X61632751Y-95965375D01*
X61561773Y-95966996D01*
X61501185Y-95929987D01*
X61470225Y-95866097D01*
X61468500Y-95845321D01*
X61468500Y-94897417D01*
X61488502Y-94829296D01*
X61542158Y-94782803D01*
X61612432Y-94772699D01*
X61670065Y-94796591D01*
X61706351Y-94823786D01*
X61721946Y-94832324D01*
X61842394Y-94877478D01*
X61857649Y-94881105D01*
X61908514Y-94886631D01*
X61915328Y-94887000D01*
X62187885Y-94887000D01*
X62203124Y-94882525D01*
X62204329Y-94881135D01*
X62206000Y-94873452D01*
X62206000Y-94868884D01*
X62714000Y-94868884D01*
X62718475Y-94884123D01*
X62719865Y-94885328D01*
X62727548Y-94886999D01*
X63004669Y-94886999D01*
X63011490Y-94886629D01*
X63062352Y-94881105D01*
X63077604Y-94877479D01*
X63198054Y-94832324D01*
X63213649Y-94823786D01*
X63315724Y-94747285D01*
X63328285Y-94734724D01*
X63404786Y-94632649D01*
X63413324Y-94617054D01*
X63458478Y-94496606D01*
X63462105Y-94481351D01*
X63467631Y-94430486D01*
X63468000Y-94423672D01*
X63468000Y-94151115D01*
X63463525Y-94135876D01*
X63462135Y-94134671D01*
X63454452Y-94133000D01*
X62732115Y-94133000D01*
X62716876Y-94137475D01*
X62715671Y-94138865D01*
X62714000Y-94146548D01*
X62714000Y-94868884D01*
X62206000Y-94868884D01*
X62206000Y-93751000D01*
X62226002Y-93682879D01*
X62279658Y-93636386D01*
X62332000Y-93625000D01*
X63449884Y-93625000D01*
X63465123Y-93620525D01*
X63466328Y-93619135D01*
X63467999Y-93611452D01*
X63467999Y-93334331D01*
X63467629Y-93327510D01*
X63462105Y-93276648D01*
X63458478Y-93261391D01*
X63457104Y-93257726D01*
X63456881Y-93254673D01*
X63456651Y-93253707D01*
X63456807Y-93253670D01*
X63451923Y-93186919D01*
X63485845Y-93124551D01*
X63548102Y-93090424D01*
X63575087Y-93087500D01*
X103325500Y-93087500D01*
X103393621Y-93107502D01*
G37*
%TD.AperFunction*%
%TD*%
%TA.AperFunction,Conductor*%
%TO.N,GND*%
G36*
X146393621Y-93107502D02*
G01*
X146440114Y-93161158D01*
X146451500Y-93213500D01*
X146451500Y-95844842D01*
X146431498Y-95912963D01*
X146377842Y-95959456D01*
X146307568Y-95969560D01*
X146242988Y-95940066D01*
X146227304Y-95923795D01*
X146187892Y-95874776D01*
X146184032Y-95869975D01*
X146177727Y-95864684D01*
X146154080Y-95844842D01*
X146032526Y-95742846D01*
X146027128Y-95739879D01*
X146027123Y-95739875D01*
X145864608Y-95650533D01*
X145864609Y-95650533D01*
X145859213Y-95647567D01*
X145853346Y-95645706D01*
X145853344Y-95645705D01*
X145676564Y-95589627D01*
X145676563Y-95589627D01*
X145670694Y-95587765D01*
X145516773Y-95570500D01*
X145410231Y-95570500D01*
X145407175Y-95570800D01*
X145407168Y-95570800D01*
X145348660Y-95576537D01*
X145263167Y-95584920D01*
X145257266Y-95586702D01*
X145257264Y-95586702D01*
X145183947Y-95608838D01*
X145073831Y-95642084D01*
X144899204Y-95734934D01*
X144812938Y-95805291D01*
X144750713Y-95856040D01*
X144750710Y-95856043D01*
X144745938Y-95859935D01*
X144742011Y-95864682D01*
X144742009Y-95864684D01*
X144623799Y-96007575D01*
X144623797Y-96007579D01*
X144619870Y-96012325D01*
X144525802Y-96186299D01*
X144467318Y-96375232D01*
X144446645Y-96571925D01*
X144464570Y-96768888D01*
X144466308Y-96774794D01*
X144466309Y-96774798D01*
X144470387Y-96788653D01*
X144520410Y-96958619D01*
X144523263Y-96964077D01*
X144523265Y-96964081D01*
X144570720Y-97054853D01*
X144612040Y-97133890D01*
X144735968Y-97288025D01*
X144740692Y-97291989D01*
X144747933Y-97298065D01*
X144887474Y-97415154D01*
X144892872Y-97418121D01*
X144892877Y-97418125D01*
X145036180Y-97496905D01*
X145060787Y-97510433D01*
X145066654Y-97512294D01*
X145066656Y-97512295D01*
X145243436Y-97568373D01*
X145249306Y-97570235D01*
X145403227Y-97587500D01*
X145509769Y-97587500D01*
X145512825Y-97587200D01*
X145512832Y-97587200D01*
X145571340Y-97581463D01*
X145656833Y-97573080D01*
X145662734Y-97571298D01*
X145662736Y-97571298D01*
X145736053Y-97549162D01*
X145846169Y-97515916D01*
X146020796Y-97423066D01*
X146107062Y-97352709D01*
X146169287Y-97301960D01*
X146169290Y-97301957D01*
X146174062Y-97298065D01*
X146226892Y-97234205D01*
X146228416Y-97232363D01*
X146287249Y-97192625D01*
X146358227Y-97191004D01*
X146418815Y-97228013D01*
X146449775Y-97291903D01*
X146451500Y-97312679D01*
X146451500Y-98260583D01*
X146431498Y-98328704D01*
X146377842Y-98375197D01*
X146307568Y-98385301D01*
X146249935Y-98361409D01*
X146213649Y-98334214D01*
X146198054Y-98325676D01*
X146077606Y-98280522D01*
X146062351Y-98276895D01*
X146011486Y-98271369D01*
X146004672Y-98271000D01*
X145732115Y-98271000D01*
X145716876Y-98275475D01*
X145715671Y-98276865D01*
X145714000Y-98284548D01*
X145714000Y-99407000D01*
X145693998Y-99475121D01*
X145640342Y-99521614D01*
X145588000Y-99533000D01*
X144470116Y-99533000D01*
X144454877Y-99537475D01*
X144453672Y-99538865D01*
X144452001Y-99546548D01*
X144452001Y-99823669D01*
X144452371Y-99830490D01*
X144457895Y-99881352D01*
X144461522Y-99896609D01*
X144462896Y-99900274D01*
X144463119Y-99903327D01*
X144463349Y-99904293D01*
X144463193Y-99904330D01*
X144468077Y-99971081D01*
X144434155Y-100033449D01*
X144371898Y-100067576D01*
X144344913Y-100070500D01*
X104594500Y-100070500D01*
X104526379Y-100050498D01*
X104479886Y-99996842D01*
X104468500Y-99944500D01*
X104468500Y-99006885D01*
X144452000Y-99006885D01*
X144456475Y-99022124D01*
X144457865Y-99023329D01*
X144465548Y-99025000D01*
X145187885Y-99025000D01*
X145203124Y-99020525D01*
X145204329Y-99019135D01*
X145206000Y-99011452D01*
X145206000Y-98289116D01*
X145201525Y-98273877D01*
X145200135Y-98272672D01*
X145192452Y-98271001D01*
X144915331Y-98271001D01*
X144908510Y-98271371D01*
X144857648Y-98276895D01*
X144842396Y-98280521D01*
X144721946Y-98325676D01*
X144706351Y-98334214D01*
X144604276Y-98410715D01*
X144591715Y-98423276D01*
X144515214Y-98525351D01*
X144506676Y-98540946D01*
X144461522Y-98661394D01*
X144457895Y-98676649D01*
X144452369Y-98727514D01*
X144452000Y-98734328D01*
X144452000Y-99006885D01*
X104468500Y-99006885D01*
X104468500Y-97313158D01*
X104488502Y-97245037D01*
X104542158Y-97198544D01*
X104612432Y-97188440D01*
X104677012Y-97217934D01*
X104692693Y-97234202D01*
X104735968Y-97288025D01*
X104740692Y-97291989D01*
X104747933Y-97298065D01*
X104887474Y-97415154D01*
X104892872Y-97418121D01*
X104892877Y-97418125D01*
X105036180Y-97496905D01*
X105060787Y-97510433D01*
X105066654Y-97512294D01*
X105066656Y-97512295D01*
X105243436Y-97568373D01*
X105249306Y-97570235D01*
X105403227Y-97587500D01*
X105509769Y-97587500D01*
X105512825Y-97587200D01*
X105512832Y-97587200D01*
X105571340Y-97581463D01*
X105656833Y-97573080D01*
X105662734Y-97571298D01*
X105662736Y-97571298D01*
X105736053Y-97549162D01*
X105846169Y-97515916D01*
X106020796Y-97423066D01*
X106107062Y-97352709D01*
X106169287Y-97301960D01*
X106169290Y-97301957D01*
X106174062Y-97298065D01*
X106226892Y-97234205D01*
X106296201Y-97150425D01*
X106296203Y-97150421D01*
X106300130Y-97145675D01*
X106394198Y-96971701D01*
X106452682Y-96782768D01*
X106473355Y-96586075D01*
X106455430Y-96389112D01*
X106450222Y-96371414D01*
X106401330Y-96205294D01*
X106399590Y-96199381D01*
X106389919Y-96180881D01*
X106310813Y-96029568D01*
X106307960Y-96024110D01*
X106184032Y-95869975D01*
X106177727Y-95864684D01*
X106154080Y-95844842D01*
X106032526Y-95742846D01*
X106027128Y-95739879D01*
X106027123Y-95739875D01*
X105864608Y-95650533D01*
X105864609Y-95650533D01*
X105859213Y-95647567D01*
X105853346Y-95645706D01*
X105853344Y-95645705D01*
X105676564Y-95589627D01*
X105676563Y-95589627D01*
X105670694Y-95587765D01*
X105516773Y-95570500D01*
X105410231Y-95570500D01*
X105407175Y-95570800D01*
X105407168Y-95570800D01*
X105348660Y-95576537D01*
X105263167Y-95584920D01*
X105257266Y-95586702D01*
X105257264Y-95586702D01*
X105183947Y-95608838D01*
X105073831Y-95642084D01*
X104899204Y-95734934D01*
X104812938Y-95805291D01*
X104750713Y-95856040D01*
X104750710Y-95856043D01*
X104745938Y-95859935D01*
X104742011Y-95864682D01*
X104742008Y-95864685D01*
X104691584Y-95925637D01*
X104632751Y-95965375D01*
X104561773Y-95966996D01*
X104501185Y-95929987D01*
X104470225Y-95866097D01*
X104468500Y-95845321D01*
X104468500Y-94897417D01*
X104488502Y-94829296D01*
X104542158Y-94782803D01*
X104612432Y-94772699D01*
X104670065Y-94796591D01*
X104706351Y-94823786D01*
X104721946Y-94832324D01*
X104842394Y-94877478D01*
X104857649Y-94881105D01*
X104908514Y-94886631D01*
X104915328Y-94887000D01*
X105187885Y-94887000D01*
X105203124Y-94882525D01*
X105204329Y-94881135D01*
X105206000Y-94873452D01*
X105206000Y-94868884D01*
X105714000Y-94868884D01*
X105718475Y-94884123D01*
X105719865Y-94885328D01*
X105727548Y-94886999D01*
X106004669Y-94886999D01*
X106011490Y-94886629D01*
X106062352Y-94881105D01*
X106077604Y-94877479D01*
X106198054Y-94832324D01*
X106213649Y-94823786D01*
X106315724Y-94747285D01*
X106328285Y-94734724D01*
X106404786Y-94632649D01*
X106413324Y-94617054D01*
X106458478Y-94496606D01*
X106462105Y-94481351D01*
X106467631Y-94430486D01*
X106468000Y-94423672D01*
X106468000Y-94151115D01*
X106463525Y-94135876D01*
X106462135Y-94134671D01*
X106454452Y-94133000D01*
X105732115Y-94133000D01*
X105716876Y-94137475D01*
X105715671Y-94138865D01*
X105714000Y-94146548D01*
X105714000Y-94868884D01*
X105206000Y-94868884D01*
X105206000Y-93751000D01*
X105226002Y-93682879D01*
X105279658Y-93636386D01*
X105332000Y-93625000D01*
X106449884Y-93625000D01*
X106465123Y-93620525D01*
X106466328Y-93619135D01*
X106467999Y-93611452D01*
X106467999Y-93334331D01*
X106467629Y-93327510D01*
X106462105Y-93276648D01*
X106458478Y-93261391D01*
X106457104Y-93257726D01*
X106456881Y-93254673D01*
X106456651Y-93253707D01*
X106456807Y-93253670D01*
X106451923Y-93186919D01*
X106485845Y-93124551D01*
X106548102Y-93090424D01*
X106575087Y-93087500D01*
X146325500Y-93087500D01*
X146393621Y-93107502D01*
G37*
%TD.AperFunction*%
%TD*%
%TA.AperFunction,Conductor*%
%TO.N,GND*%
G36*
X103393621Y-101107502D02*
G01*
X103440114Y-101161158D01*
X103451500Y-101213500D01*
X103451500Y-103844842D01*
X103431498Y-103912963D01*
X103377842Y-103959456D01*
X103307568Y-103969560D01*
X103242988Y-103940066D01*
X103227304Y-103923795D01*
X103187892Y-103874776D01*
X103184032Y-103869975D01*
X103177727Y-103864684D01*
X103154080Y-103844842D01*
X103032526Y-103742846D01*
X103027128Y-103739879D01*
X103027123Y-103739875D01*
X102864608Y-103650533D01*
X102864609Y-103650533D01*
X102859213Y-103647567D01*
X102853346Y-103645706D01*
X102853344Y-103645705D01*
X102676564Y-103589627D01*
X102676563Y-103589627D01*
X102670694Y-103587765D01*
X102516773Y-103570500D01*
X102410231Y-103570500D01*
X102407175Y-103570800D01*
X102407168Y-103570800D01*
X102348660Y-103576537D01*
X102263167Y-103584920D01*
X102257266Y-103586702D01*
X102257264Y-103586702D01*
X102183947Y-103608838D01*
X102073831Y-103642084D01*
X101899204Y-103734934D01*
X101812938Y-103805291D01*
X101750713Y-103856040D01*
X101750710Y-103856043D01*
X101745938Y-103859935D01*
X101742011Y-103864682D01*
X101742009Y-103864684D01*
X101623799Y-104007575D01*
X101623797Y-104007579D01*
X101619870Y-104012325D01*
X101525802Y-104186299D01*
X101467318Y-104375232D01*
X101446645Y-104571925D01*
X101464570Y-104768888D01*
X101466308Y-104774794D01*
X101466309Y-104774798D01*
X101470387Y-104788653D01*
X101520410Y-104958619D01*
X101523263Y-104964077D01*
X101523265Y-104964081D01*
X101570720Y-105054853D01*
X101612040Y-105133890D01*
X101735968Y-105288025D01*
X101740692Y-105291989D01*
X101747933Y-105298065D01*
X101887474Y-105415154D01*
X101892872Y-105418121D01*
X101892877Y-105418125D01*
X102036180Y-105496905D01*
X102060787Y-105510433D01*
X102066654Y-105512294D01*
X102066656Y-105512295D01*
X102243436Y-105568373D01*
X102249306Y-105570235D01*
X102403227Y-105587500D01*
X102509769Y-105587500D01*
X102512825Y-105587200D01*
X102512832Y-105587200D01*
X102571340Y-105581463D01*
X102656833Y-105573080D01*
X102662734Y-105571298D01*
X102662736Y-105571298D01*
X102736053Y-105549162D01*
X102846169Y-105515916D01*
X103020796Y-105423066D01*
X103107062Y-105352709D01*
X103169287Y-105301960D01*
X103169290Y-105301957D01*
X103174062Y-105298065D01*
X103226892Y-105234205D01*
X103228416Y-105232363D01*
X103287249Y-105192625D01*
X103358227Y-105191004D01*
X103418815Y-105228013D01*
X103449775Y-105291903D01*
X103451500Y-105312679D01*
X103451500Y-106260583D01*
X103431498Y-106328704D01*
X103377842Y-106375197D01*
X103307568Y-106385301D01*
X103249935Y-106361409D01*
X103213649Y-106334214D01*
X103198054Y-106325676D01*
X103077606Y-106280522D01*
X103062351Y-106276895D01*
X103011486Y-106271369D01*
X103004672Y-106271000D01*
X102732115Y-106271000D01*
X102716876Y-106275475D01*
X102715671Y-106276865D01*
X102714000Y-106284548D01*
X102714000Y-107407000D01*
X102693998Y-107475121D01*
X102640342Y-107521614D01*
X102588000Y-107533000D01*
X101470116Y-107533000D01*
X101454877Y-107537475D01*
X101453672Y-107538865D01*
X101452001Y-107546548D01*
X101452001Y-107823669D01*
X101452371Y-107830490D01*
X101457895Y-107881352D01*
X101461522Y-107896609D01*
X101462896Y-107900274D01*
X101463119Y-107903327D01*
X101463349Y-107904293D01*
X101463193Y-107904330D01*
X101468077Y-107971081D01*
X101434155Y-108033449D01*
X101371898Y-108067576D01*
X101344913Y-108070500D01*
X61594500Y-108070500D01*
X61526379Y-108050498D01*
X61479886Y-107996842D01*
X61468500Y-107944500D01*
X61468500Y-107006885D01*
X101452000Y-107006885D01*
X101456475Y-107022124D01*
X101457865Y-107023329D01*
X101465548Y-107025000D01*
X102187885Y-107025000D01*
X102203124Y-107020525D01*
X102204329Y-107019135D01*
X102206000Y-107011452D01*
X102206000Y-106289116D01*
X102201525Y-106273877D01*
X102200135Y-106272672D01*
X102192452Y-106271001D01*
X101915331Y-106271001D01*
X101908510Y-106271371D01*
X101857648Y-106276895D01*
X101842396Y-106280521D01*
X101721946Y-106325676D01*
X101706351Y-106334214D01*
X101604276Y-106410715D01*
X101591715Y-106423276D01*
X101515214Y-106525351D01*
X101506676Y-106540946D01*
X101461522Y-106661394D01*
X101457895Y-106676649D01*
X101452369Y-106727514D01*
X101452000Y-106734328D01*
X101452000Y-107006885D01*
X61468500Y-107006885D01*
X61468500Y-105313158D01*
X61488502Y-105245037D01*
X61542158Y-105198544D01*
X61612432Y-105188440D01*
X61677012Y-105217934D01*
X61692693Y-105234202D01*
X61735968Y-105288025D01*
X61740692Y-105291989D01*
X61747933Y-105298065D01*
X61887474Y-105415154D01*
X61892872Y-105418121D01*
X61892877Y-105418125D01*
X62036180Y-105496905D01*
X62060787Y-105510433D01*
X62066654Y-105512294D01*
X62066656Y-105512295D01*
X62243436Y-105568373D01*
X62249306Y-105570235D01*
X62403227Y-105587500D01*
X62509769Y-105587500D01*
X62512825Y-105587200D01*
X62512832Y-105587200D01*
X62571340Y-105581463D01*
X62656833Y-105573080D01*
X62662734Y-105571298D01*
X62662736Y-105571298D01*
X62736053Y-105549162D01*
X62846169Y-105515916D01*
X63020796Y-105423066D01*
X63107062Y-105352709D01*
X63169287Y-105301960D01*
X63169290Y-105301957D01*
X63174062Y-105298065D01*
X63226892Y-105234205D01*
X63296201Y-105150425D01*
X63296203Y-105150421D01*
X63300130Y-105145675D01*
X63394198Y-104971701D01*
X63452682Y-104782768D01*
X63473355Y-104586075D01*
X63455430Y-104389112D01*
X63450222Y-104371414D01*
X63401330Y-104205294D01*
X63399590Y-104199381D01*
X63389919Y-104180881D01*
X63310813Y-104029568D01*
X63307960Y-104024110D01*
X63184032Y-103869975D01*
X63177727Y-103864684D01*
X63154080Y-103844842D01*
X63032526Y-103742846D01*
X63027128Y-103739879D01*
X63027123Y-103739875D01*
X62864608Y-103650533D01*
X62864609Y-103650533D01*
X62859213Y-103647567D01*
X62853346Y-103645706D01*
X62853344Y-103645705D01*
X62676564Y-103589627D01*
X62676563Y-103589627D01*
X62670694Y-103587765D01*
X62516773Y-103570500D01*
X62410231Y-103570500D01*
X62407175Y-103570800D01*
X62407168Y-103570800D01*
X62348660Y-103576537D01*
X62263167Y-103584920D01*
X62257266Y-103586702D01*
X62257264Y-103586702D01*
X62183947Y-103608838D01*
X62073831Y-103642084D01*
X61899204Y-103734934D01*
X61812938Y-103805291D01*
X61750713Y-103856040D01*
X61750710Y-103856043D01*
X61745938Y-103859935D01*
X61742011Y-103864682D01*
X61742008Y-103864685D01*
X61691584Y-103925637D01*
X61632751Y-103965375D01*
X61561773Y-103966996D01*
X61501185Y-103929987D01*
X61470225Y-103866097D01*
X61468500Y-103845321D01*
X61468500Y-102897417D01*
X61488502Y-102829296D01*
X61542158Y-102782803D01*
X61612432Y-102772699D01*
X61670065Y-102796591D01*
X61706351Y-102823786D01*
X61721946Y-102832324D01*
X61842394Y-102877478D01*
X61857649Y-102881105D01*
X61908514Y-102886631D01*
X61915328Y-102887000D01*
X62187885Y-102887000D01*
X62203124Y-102882525D01*
X62204329Y-102881135D01*
X62206000Y-102873452D01*
X62206000Y-102868884D01*
X62714000Y-102868884D01*
X62718475Y-102884123D01*
X62719865Y-102885328D01*
X62727548Y-102886999D01*
X63004669Y-102886999D01*
X63011490Y-102886629D01*
X63062352Y-102881105D01*
X63077604Y-102877479D01*
X63198054Y-102832324D01*
X63213649Y-102823786D01*
X63315724Y-102747285D01*
X63328285Y-102734724D01*
X63404786Y-102632649D01*
X63413324Y-102617054D01*
X63458478Y-102496606D01*
X63462105Y-102481351D01*
X63467631Y-102430486D01*
X63468000Y-102423672D01*
X63468000Y-102151115D01*
X63463525Y-102135876D01*
X63462135Y-102134671D01*
X63454452Y-102133000D01*
X62732115Y-102133000D01*
X62716876Y-102137475D01*
X62715671Y-102138865D01*
X62714000Y-102146548D01*
X62714000Y-102868884D01*
X62206000Y-102868884D01*
X62206000Y-101751000D01*
X62226002Y-101682879D01*
X62279658Y-101636386D01*
X62332000Y-101625000D01*
X63449884Y-101625000D01*
X63465123Y-101620525D01*
X63466328Y-101619135D01*
X63467999Y-101611452D01*
X63467999Y-101334331D01*
X63467629Y-101327510D01*
X63462105Y-101276648D01*
X63458478Y-101261391D01*
X63457104Y-101257726D01*
X63456881Y-101254673D01*
X63456651Y-101253707D01*
X63456807Y-101253670D01*
X63451923Y-101186919D01*
X63485845Y-101124551D01*
X63548102Y-101090424D01*
X63575087Y-101087500D01*
X103325500Y-101087500D01*
X103393621Y-101107502D01*
G37*
%TD.AperFunction*%
%TD*%
%TA.AperFunction,Conductor*%
%TO.N,GND*%
G36*
X146393621Y-101107502D02*
G01*
X146440114Y-101161158D01*
X146451500Y-101213500D01*
X146451500Y-103844842D01*
X146431498Y-103912963D01*
X146377842Y-103959456D01*
X146307568Y-103969560D01*
X146242988Y-103940066D01*
X146227304Y-103923795D01*
X146187892Y-103874776D01*
X146184032Y-103869975D01*
X146177727Y-103864684D01*
X146154080Y-103844842D01*
X146032526Y-103742846D01*
X146027128Y-103739879D01*
X146027123Y-103739875D01*
X145864608Y-103650533D01*
X145864609Y-103650533D01*
X145859213Y-103647567D01*
X145853346Y-103645706D01*
X145853344Y-103645705D01*
X145676564Y-103589627D01*
X145676563Y-103589627D01*
X145670694Y-103587765D01*
X145516773Y-103570500D01*
X145410231Y-103570500D01*
X145407175Y-103570800D01*
X145407168Y-103570800D01*
X145348660Y-103576537D01*
X145263167Y-103584920D01*
X145257266Y-103586702D01*
X145257264Y-103586702D01*
X145183947Y-103608838D01*
X145073831Y-103642084D01*
X144899204Y-103734934D01*
X144812938Y-103805291D01*
X144750713Y-103856040D01*
X144750710Y-103856043D01*
X144745938Y-103859935D01*
X144742011Y-103864682D01*
X144742009Y-103864684D01*
X144623799Y-104007575D01*
X144623797Y-104007579D01*
X144619870Y-104012325D01*
X144525802Y-104186299D01*
X144467318Y-104375232D01*
X144446645Y-104571925D01*
X144464570Y-104768888D01*
X144466308Y-104774794D01*
X144466309Y-104774798D01*
X144470387Y-104788653D01*
X144520410Y-104958619D01*
X144523263Y-104964077D01*
X144523265Y-104964081D01*
X144570720Y-105054853D01*
X144612040Y-105133890D01*
X144735968Y-105288025D01*
X144740692Y-105291989D01*
X144747933Y-105298065D01*
X144887474Y-105415154D01*
X144892872Y-105418121D01*
X144892877Y-105418125D01*
X145036180Y-105496905D01*
X145060787Y-105510433D01*
X145066654Y-105512294D01*
X145066656Y-105512295D01*
X145243436Y-105568373D01*
X145249306Y-105570235D01*
X145403227Y-105587500D01*
X145509769Y-105587500D01*
X145512825Y-105587200D01*
X145512832Y-105587200D01*
X145571340Y-105581463D01*
X145656833Y-105573080D01*
X145662734Y-105571298D01*
X145662736Y-105571298D01*
X145736053Y-105549162D01*
X145846169Y-105515916D01*
X146020796Y-105423066D01*
X146107062Y-105352709D01*
X146169287Y-105301960D01*
X146169290Y-105301957D01*
X146174062Y-105298065D01*
X146226892Y-105234205D01*
X146228416Y-105232363D01*
X146287249Y-105192625D01*
X146358227Y-105191004D01*
X146418815Y-105228013D01*
X146449775Y-105291903D01*
X146451500Y-105312679D01*
X146451500Y-106260583D01*
X146431498Y-106328704D01*
X146377842Y-106375197D01*
X146307568Y-106385301D01*
X146249935Y-106361409D01*
X146213649Y-106334214D01*
X146198054Y-106325676D01*
X146077606Y-106280522D01*
X146062351Y-106276895D01*
X146011486Y-106271369D01*
X146004672Y-106271000D01*
X145732115Y-106271000D01*
X145716876Y-106275475D01*
X145715671Y-106276865D01*
X145714000Y-106284548D01*
X145714000Y-107407000D01*
X145693998Y-107475121D01*
X145640342Y-107521614D01*
X145588000Y-107533000D01*
X144470116Y-107533000D01*
X144454877Y-107537475D01*
X144453672Y-107538865D01*
X144452001Y-107546548D01*
X144452001Y-107823669D01*
X144452371Y-107830490D01*
X144457895Y-107881352D01*
X144461522Y-107896609D01*
X144462896Y-107900274D01*
X144463119Y-107903327D01*
X144463349Y-107904293D01*
X144463193Y-107904330D01*
X144468077Y-107971081D01*
X144434155Y-108033449D01*
X144371898Y-108067576D01*
X144344913Y-108070500D01*
X104594500Y-108070500D01*
X104526379Y-108050498D01*
X104479886Y-107996842D01*
X104468500Y-107944500D01*
X104468500Y-107006885D01*
X144452000Y-107006885D01*
X144456475Y-107022124D01*
X144457865Y-107023329D01*
X144465548Y-107025000D01*
X145187885Y-107025000D01*
X145203124Y-107020525D01*
X145204329Y-107019135D01*
X145206000Y-107011452D01*
X145206000Y-106289116D01*
X145201525Y-106273877D01*
X145200135Y-106272672D01*
X145192452Y-106271001D01*
X144915331Y-106271001D01*
X144908510Y-106271371D01*
X144857648Y-106276895D01*
X144842396Y-106280521D01*
X144721946Y-106325676D01*
X144706351Y-106334214D01*
X144604276Y-106410715D01*
X144591715Y-106423276D01*
X144515214Y-106525351D01*
X144506676Y-106540946D01*
X144461522Y-106661394D01*
X144457895Y-106676649D01*
X144452369Y-106727514D01*
X144452000Y-106734328D01*
X144452000Y-107006885D01*
X104468500Y-107006885D01*
X104468500Y-105313158D01*
X104488502Y-105245037D01*
X104542158Y-105198544D01*
X104612432Y-105188440D01*
X104677012Y-105217934D01*
X104692693Y-105234202D01*
X104735968Y-105288025D01*
X104740692Y-105291989D01*
X104747933Y-105298065D01*
X104887474Y-105415154D01*
X104892872Y-105418121D01*
X104892877Y-105418125D01*
X105036180Y-105496905D01*
X105060787Y-105510433D01*
X105066654Y-105512294D01*
X105066656Y-105512295D01*
X105243436Y-105568373D01*
X105249306Y-105570235D01*
X105403227Y-105587500D01*
X105509769Y-105587500D01*
X105512825Y-105587200D01*
X105512832Y-105587200D01*
X105571340Y-105581463D01*
X105656833Y-105573080D01*
X105662734Y-105571298D01*
X105662736Y-105571298D01*
X105736053Y-105549162D01*
X105846169Y-105515916D01*
X106020796Y-105423066D01*
X106107062Y-105352709D01*
X106169287Y-105301960D01*
X106169290Y-105301957D01*
X106174062Y-105298065D01*
X106226892Y-105234205D01*
X106296201Y-105150425D01*
X106296203Y-105150421D01*
X106300130Y-105145675D01*
X106394198Y-104971701D01*
X106452682Y-104782768D01*
X106473355Y-104586075D01*
X106455430Y-104389112D01*
X106450222Y-104371414D01*
X106401330Y-104205294D01*
X106399590Y-104199381D01*
X106389919Y-104180881D01*
X106310813Y-104029568D01*
X106307960Y-104024110D01*
X106184032Y-103869975D01*
X106177727Y-103864684D01*
X106154080Y-103844842D01*
X106032526Y-103742846D01*
X106027128Y-103739879D01*
X106027123Y-103739875D01*
X105864608Y-103650533D01*
X105864609Y-103650533D01*
X105859213Y-103647567D01*
X105853346Y-103645706D01*
X105853344Y-103645705D01*
X105676564Y-103589627D01*
X105676563Y-103589627D01*
X105670694Y-103587765D01*
X105516773Y-103570500D01*
X105410231Y-103570500D01*
X105407175Y-103570800D01*
X105407168Y-103570800D01*
X105348660Y-103576537D01*
X105263167Y-103584920D01*
X105257266Y-103586702D01*
X105257264Y-103586702D01*
X105183947Y-103608838D01*
X105073831Y-103642084D01*
X104899204Y-103734934D01*
X104812938Y-103805291D01*
X104750713Y-103856040D01*
X104750710Y-103856043D01*
X104745938Y-103859935D01*
X104742011Y-103864682D01*
X104742008Y-103864685D01*
X104691584Y-103925637D01*
X104632751Y-103965375D01*
X104561773Y-103966996D01*
X104501185Y-103929987D01*
X104470225Y-103866097D01*
X104468500Y-103845321D01*
X104468500Y-102897417D01*
X104488502Y-102829296D01*
X104542158Y-102782803D01*
X104612432Y-102772699D01*
X104670065Y-102796591D01*
X104706351Y-102823786D01*
X104721946Y-102832324D01*
X104842394Y-102877478D01*
X104857649Y-102881105D01*
X104908514Y-102886631D01*
X104915328Y-102887000D01*
X105187885Y-102887000D01*
X105203124Y-102882525D01*
X105204329Y-102881135D01*
X105206000Y-102873452D01*
X105206000Y-102868884D01*
X105714000Y-102868884D01*
X105718475Y-102884123D01*
X105719865Y-102885328D01*
X105727548Y-102886999D01*
X106004669Y-102886999D01*
X106011490Y-102886629D01*
X106062352Y-102881105D01*
X106077604Y-102877479D01*
X106198054Y-102832324D01*
X106213649Y-102823786D01*
X106315724Y-102747285D01*
X106328285Y-102734724D01*
X106404786Y-102632649D01*
X106413324Y-102617054D01*
X106458478Y-102496606D01*
X106462105Y-102481351D01*
X106467631Y-102430486D01*
X106468000Y-102423672D01*
X106468000Y-102151115D01*
X106463525Y-102135876D01*
X106462135Y-102134671D01*
X106454452Y-102133000D01*
X105732115Y-102133000D01*
X105716876Y-102137475D01*
X105715671Y-102138865D01*
X105714000Y-102146548D01*
X105714000Y-102868884D01*
X105206000Y-102868884D01*
X105206000Y-101751000D01*
X105226002Y-101682879D01*
X105279658Y-101636386D01*
X105332000Y-101625000D01*
X106449884Y-101625000D01*
X106465123Y-101620525D01*
X106466328Y-101619135D01*
X106467999Y-101611452D01*
X106467999Y-101334331D01*
X106467629Y-101327510D01*
X106462105Y-101276648D01*
X106458478Y-101261391D01*
X106457104Y-101257726D01*
X106456881Y-101254673D01*
X106456651Y-101253707D01*
X106456807Y-101253670D01*
X106451923Y-101186919D01*
X106485845Y-101124551D01*
X106548102Y-101090424D01*
X106575087Y-101087500D01*
X146325500Y-101087500D01*
X146393621Y-101107502D01*
G37*
%TD.AperFunction*%
%TD*%
%TA.AperFunction,Conductor*%
%TO.N,GND*%
G36*
X103393621Y-109107502D02*
G01*
X103440114Y-109161158D01*
X103451500Y-109213500D01*
X103451500Y-111844842D01*
X103431498Y-111912963D01*
X103377842Y-111959456D01*
X103307568Y-111969560D01*
X103242988Y-111940066D01*
X103227304Y-111923795D01*
X103187892Y-111874776D01*
X103184032Y-111869975D01*
X103177727Y-111864684D01*
X103154080Y-111844842D01*
X103032526Y-111742846D01*
X103027128Y-111739879D01*
X103027123Y-111739875D01*
X102864608Y-111650533D01*
X102864609Y-111650533D01*
X102859213Y-111647567D01*
X102853346Y-111645706D01*
X102853344Y-111645705D01*
X102676564Y-111589627D01*
X102676563Y-111589627D01*
X102670694Y-111587765D01*
X102516773Y-111570500D01*
X102410231Y-111570500D01*
X102407175Y-111570800D01*
X102407168Y-111570800D01*
X102348660Y-111576537D01*
X102263167Y-111584920D01*
X102257266Y-111586702D01*
X102257264Y-111586702D01*
X102183947Y-111608838D01*
X102073831Y-111642084D01*
X101899204Y-111734934D01*
X101812938Y-111805291D01*
X101750713Y-111856040D01*
X101750710Y-111856043D01*
X101745938Y-111859935D01*
X101742011Y-111864682D01*
X101742009Y-111864684D01*
X101623799Y-112007575D01*
X101623797Y-112007579D01*
X101619870Y-112012325D01*
X101525802Y-112186299D01*
X101467318Y-112375232D01*
X101446645Y-112571925D01*
X101464570Y-112768888D01*
X101466308Y-112774794D01*
X101466309Y-112774798D01*
X101470387Y-112788653D01*
X101520410Y-112958619D01*
X101523263Y-112964077D01*
X101523265Y-112964081D01*
X101570720Y-113054853D01*
X101612040Y-113133890D01*
X101735968Y-113288025D01*
X101740692Y-113291989D01*
X101747933Y-113298065D01*
X101887474Y-113415154D01*
X101892872Y-113418121D01*
X101892877Y-113418125D01*
X102036180Y-113496905D01*
X102060787Y-113510433D01*
X102066654Y-113512294D01*
X102066656Y-113512295D01*
X102243436Y-113568373D01*
X102249306Y-113570235D01*
X102403227Y-113587500D01*
X102509769Y-113587500D01*
X102512825Y-113587200D01*
X102512832Y-113587200D01*
X102571340Y-113581463D01*
X102656833Y-113573080D01*
X102662734Y-113571298D01*
X102662736Y-113571298D01*
X102736053Y-113549162D01*
X102846169Y-113515916D01*
X103020796Y-113423066D01*
X103107062Y-113352709D01*
X103169287Y-113301960D01*
X103169290Y-113301957D01*
X103174062Y-113298065D01*
X103226892Y-113234205D01*
X103228416Y-113232363D01*
X103287249Y-113192625D01*
X103358227Y-113191004D01*
X103418815Y-113228013D01*
X103449775Y-113291903D01*
X103451500Y-113312679D01*
X103451500Y-114260583D01*
X103431498Y-114328704D01*
X103377842Y-114375197D01*
X103307568Y-114385301D01*
X103249935Y-114361409D01*
X103213649Y-114334214D01*
X103198054Y-114325676D01*
X103077606Y-114280522D01*
X103062351Y-114276895D01*
X103011486Y-114271369D01*
X103004672Y-114271000D01*
X102732115Y-114271000D01*
X102716876Y-114275475D01*
X102715671Y-114276865D01*
X102714000Y-114284548D01*
X102714000Y-115407000D01*
X102693998Y-115475121D01*
X102640342Y-115521614D01*
X102588000Y-115533000D01*
X101470116Y-115533000D01*
X101454877Y-115537475D01*
X101453672Y-115538865D01*
X101452001Y-115546548D01*
X101452001Y-115823669D01*
X101452371Y-115830490D01*
X101457895Y-115881352D01*
X101461522Y-115896609D01*
X101462896Y-115900274D01*
X101463119Y-115903327D01*
X101463349Y-115904293D01*
X101463193Y-115904330D01*
X101468077Y-115971081D01*
X101434155Y-116033449D01*
X101371898Y-116067576D01*
X101344913Y-116070500D01*
X61594500Y-116070500D01*
X61526379Y-116050498D01*
X61479886Y-115996842D01*
X61468500Y-115944500D01*
X61468500Y-115006885D01*
X101452000Y-115006885D01*
X101456475Y-115022124D01*
X101457865Y-115023329D01*
X101465548Y-115025000D01*
X102187885Y-115025000D01*
X102203124Y-115020525D01*
X102204329Y-115019135D01*
X102206000Y-115011452D01*
X102206000Y-114289116D01*
X102201525Y-114273877D01*
X102200135Y-114272672D01*
X102192452Y-114271001D01*
X101915331Y-114271001D01*
X101908510Y-114271371D01*
X101857648Y-114276895D01*
X101842396Y-114280521D01*
X101721946Y-114325676D01*
X101706351Y-114334214D01*
X101604276Y-114410715D01*
X101591715Y-114423276D01*
X101515214Y-114525351D01*
X101506676Y-114540946D01*
X101461522Y-114661394D01*
X101457895Y-114676649D01*
X101452369Y-114727514D01*
X101452000Y-114734328D01*
X101452000Y-115006885D01*
X61468500Y-115006885D01*
X61468500Y-113313158D01*
X61488502Y-113245037D01*
X61542158Y-113198544D01*
X61612432Y-113188440D01*
X61677012Y-113217934D01*
X61692693Y-113234202D01*
X61735968Y-113288025D01*
X61740692Y-113291989D01*
X61747933Y-113298065D01*
X61887474Y-113415154D01*
X61892872Y-113418121D01*
X61892877Y-113418125D01*
X62036180Y-113496905D01*
X62060787Y-113510433D01*
X62066654Y-113512294D01*
X62066656Y-113512295D01*
X62243436Y-113568373D01*
X62249306Y-113570235D01*
X62403227Y-113587500D01*
X62509769Y-113587500D01*
X62512825Y-113587200D01*
X62512832Y-113587200D01*
X62571340Y-113581463D01*
X62656833Y-113573080D01*
X62662734Y-113571298D01*
X62662736Y-113571298D01*
X62736053Y-113549162D01*
X62846169Y-113515916D01*
X63020796Y-113423066D01*
X63107062Y-113352709D01*
X63169287Y-113301960D01*
X63169290Y-113301957D01*
X63174062Y-113298065D01*
X63226892Y-113234205D01*
X63296201Y-113150425D01*
X63296203Y-113150421D01*
X63300130Y-113145675D01*
X63394198Y-112971701D01*
X63452682Y-112782768D01*
X63473355Y-112586075D01*
X63455430Y-112389112D01*
X63450222Y-112371414D01*
X63401330Y-112205294D01*
X63399590Y-112199381D01*
X63389919Y-112180881D01*
X63310813Y-112029568D01*
X63307960Y-112024110D01*
X63184032Y-111869975D01*
X63177727Y-111864684D01*
X63154080Y-111844842D01*
X63032526Y-111742846D01*
X63027128Y-111739879D01*
X63027123Y-111739875D01*
X62864608Y-111650533D01*
X62864609Y-111650533D01*
X62859213Y-111647567D01*
X62853346Y-111645706D01*
X62853344Y-111645705D01*
X62676564Y-111589627D01*
X62676563Y-111589627D01*
X62670694Y-111587765D01*
X62516773Y-111570500D01*
X62410231Y-111570500D01*
X62407175Y-111570800D01*
X62407168Y-111570800D01*
X62348660Y-111576537D01*
X62263167Y-111584920D01*
X62257266Y-111586702D01*
X62257264Y-111586702D01*
X62183947Y-111608838D01*
X62073831Y-111642084D01*
X61899204Y-111734934D01*
X61812938Y-111805291D01*
X61750713Y-111856040D01*
X61750710Y-111856043D01*
X61745938Y-111859935D01*
X61742011Y-111864682D01*
X61742008Y-111864685D01*
X61691584Y-111925637D01*
X61632751Y-111965375D01*
X61561773Y-111966996D01*
X61501185Y-111929987D01*
X61470225Y-111866097D01*
X61468500Y-111845321D01*
X61468500Y-110897417D01*
X61488502Y-110829296D01*
X61542158Y-110782803D01*
X61612432Y-110772699D01*
X61670065Y-110796591D01*
X61706351Y-110823786D01*
X61721946Y-110832324D01*
X61842394Y-110877478D01*
X61857649Y-110881105D01*
X61908514Y-110886631D01*
X61915328Y-110887000D01*
X62187885Y-110887000D01*
X62203124Y-110882525D01*
X62204329Y-110881135D01*
X62206000Y-110873452D01*
X62206000Y-110868884D01*
X62714000Y-110868884D01*
X62718475Y-110884123D01*
X62719865Y-110885328D01*
X62727548Y-110886999D01*
X63004669Y-110886999D01*
X63011490Y-110886629D01*
X63062352Y-110881105D01*
X63077604Y-110877479D01*
X63198054Y-110832324D01*
X63213649Y-110823786D01*
X63315724Y-110747285D01*
X63328285Y-110734724D01*
X63404786Y-110632649D01*
X63413324Y-110617054D01*
X63458478Y-110496606D01*
X63462105Y-110481351D01*
X63467631Y-110430486D01*
X63468000Y-110423672D01*
X63468000Y-110151115D01*
X63463525Y-110135876D01*
X63462135Y-110134671D01*
X63454452Y-110133000D01*
X62732115Y-110133000D01*
X62716876Y-110137475D01*
X62715671Y-110138865D01*
X62714000Y-110146548D01*
X62714000Y-110868884D01*
X62206000Y-110868884D01*
X62206000Y-109751000D01*
X62226002Y-109682879D01*
X62279658Y-109636386D01*
X62332000Y-109625000D01*
X63449884Y-109625000D01*
X63465123Y-109620525D01*
X63466328Y-109619135D01*
X63467999Y-109611452D01*
X63467999Y-109334331D01*
X63467629Y-109327510D01*
X63462105Y-109276648D01*
X63458478Y-109261391D01*
X63457104Y-109257726D01*
X63456881Y-109254673D01*
X63456651Y-109253707D01*
X63456807Y-109253670D01*
X63451923Y-109186919D01*
X63485845Y-109124551D01*
X63548102Y-109090424D01*
X63575087Y-109087500D01*
X103325500Y-109087500D01*
X103393621Y-109107502D01*
G37*
%TD.AperFunction*%
%TD*%
%TA.AperFunction,Conductor*%
%TO.N,GND*%
G36*
X146393621Y-109107502D02*
G01*
X146440114Y-109161158D01*
X146451500Y-109213500D01*
X146451500Y-111844842D01*
X146431498Y-111912963D01*
X146377842Y-111959456D01*
X146307568Y-111969560D01*
X146242988Y-111940066D01*
X146227304Y-111923795D01*
X146187892Y-111874776D01*
X146184032Y-111869975D01*
X146177727Y-111864684D01*
X146154080Y-111844842D01*
X146032526Y-111742846D01*
X146027128Y-111739879D01*
X146027123Y-111739875D01*
X145864608Y-111650533D01*
X145864609Y-111650533D01*
X145859213Y-111647567D01*
X145853346Y-111645706D01*
X145853344Y-111645705D01*
X145676564Y-111589627D01*
X145676563Y-111589627D01*
X145670694Y-111587765D01*
X145516773Y-111570500D01*
X145410231Y-111570500D01*
X145407175Y-111570800D01*
X145407168Y-111570800D01*
X145348660Y-111576537D01*
X145263167Y-111584920D01*
X145257266Y-111586702D01*
X145257264Y-111586702D01*
X145183947Y-111608838D01*
X145073831Y-111642084D01*
X144899204Y-111734934D01*
X144812938Y-111805291D01*
X144750713Y-111856040D01*
X144750710Y-111856043D01*
X144745938Y-111859935D01*
X144742011Y-111864682D01*
X144742009Y-111864684D01*
X144623799Y-112007575D01*
X144623797Y-112007579D01*
X144619870Y-112012325D01*
X144525802Y-112186299D01*
X144467318Y-112375232D01*
X144446645Y-112571925D01*
X144464570Y-112768888D01*
X144466308Y-112774794D01*
X144466309Y-112774798D01*
X144470387Y-112788653D01*
X144520410Y-112958619D01*
X144523263Y-112964077D01*
X144523265Y-112964081D01*
X144570720Y-113054853D01*
X144612040Y-113133890D01*
X144735968Y-113288025D01*
X144740692Y-113291989D01*
X144747933Y-113298065D01*
X144887474Y-113415154D01*
X144892872Y-113418121D01*
X144892877Y-113418125D01*
X145036180Y-113496905D01*
X145060787Y-113510433D01*
X145066654Y-113512294D01*
X145066656Y-113512295D01*
X145243436Y-113568373D01*
X145249306Y-113570235D01*
X145403227Y-113587500D01*
X145509769Y-113587500D01*
X145512825Y-113587200D01*
X145512832Y-113587200D01*
X145571340Y-113581463D01*
X145656833Y-113573080D01*
X145662734Y-113571298D01*
X145662736Y-113571298D01*
X145736053Y-113549162D01*
X145846169Y-113515916D01*
X146020796Y-113423066D01*
X146107062Y-113352709D01*
X146169287Y-113301960D01*
X146169290Y-113301957D01*
X146174062Y-113298065D01*
X146226892Y-113234205D01*
X146228416Y-113232363D01*
X146287249Y-113192625D01*
X146358227Y-113191004D01*
X146418815Y-113228013D01*
X146449775Y-113291903D01*
X146451500Y-113312679D01*
X146451500Y-114260583D01*
X146431498Y-114328704D01*
X146377842Y-114375197D01*
X146307568Y-114385301D01*
X146249935Y-114361409D01*
X146213649Y-114334214D01*
X146198054Y-114325676D01*
X146077606Y-114280522D01*
X146062351Y-114276895D01*
X146011486Y-114271369D01*
X146004672Y-114271000D01*
X145732115Y-114271000D01*
X145716876Y-114275475D01*
X145715671Y-114276865D01*
X145714000Y-114284548D01*
X145714000Y-115407000D01*
X145693998Y-115475121D01*
X145640342Y-115521614D01*
X145588000Y-115533000D01*
X144470116Y-115533000D01*
X144454877Y-115537475D01*
X144453672Y-115538865D01*
X144452001Y-115546548D01*
X144452001Y-115823669D01*
X144452371Y-115830490D01*
X144457895Y-115881352D01*
X144461522Y-115896609D01*
X144462896Y-115900274D01*
X144463119Y-115903327D01*
X144463349Y-115904293D01*
X144463193Y-115904330D01*
X144468077Y-115971081D01*
X144434155Y-116033449D01*
X144371898Y-116067576D01*
X144344913Y-116070500D01*
X104594500Y-116070500D01*
X104526379Y-116050498D01*
X104479886Y-115996842D01*
X104468500Y-115944500D01*
X104468500Y-115006885D01*
X144452000Y-115006885D01*
X144456475Y-115022124D01*
X144457865Y-115023329D01*
X144465548Y-115025000D01*
X145187885Y-115025000D01*
X145203124Y-115020525D01*
X145204329Y-115019135D01*
X145206000Y-115011452D01*
X145206000Y-114289116D01*
X145201525Y-114273877D01*
X145200135Y-114272672D01*
X145192452Y-114271001D01*
X144915331Y-114271001D01*
X144908510Y-114271371D01*
X144857648Y-114276895D01*
X144842396Y-114280521D01*
X144721946Y-114325676D01*
X144706351Y-114334214D01*
X144604276Y-114410715D01*
X144591715Y-114423276D01*
X144515214Y-114525351D01*
X144506676Y-114540946D01*
X144461522Y-114661394D01*
X144457895Y-114676649D01*
X144452369Y-114727514D01*
X144452000Y-114734328D01*
X144452000Y-115006885D01*
X104468500Y-115006885D01*
X104468500Y-113313158D01*
X104488502Y-113245037D01*
X104542158Y-113198544D01*
X104612432Y-113188440D01*
X104677012Y-113217934D01*
X104692693Y-113234202D01*
X104735968Y-113288025D01*
X104740692Y-113291989D01*
X104747933Y-113298065D01*
X104887474Y-113415154D01*
X104892872Y-113418121D01*
X104892877Y-113418125D01*
X105036180Y-113496905D01*
X105060787Y-113510433D01*
X105066654Y-113512294D01*
X105066656Y-113512295D01*
X105243436Y-113568373D01*
X105249306Y-113570235D01*
X105403227Y-113587500D01*
X105509769Y-113587500D01*
X105512825Y-113587200D01*
X105512832Y-113587200D01*
X105571340Y-113581463D01*
X105656833Y-113573080D01*
X105662734Y-113571298D01*
X105662736Y-113571298D01*
X105736053Y-113549162D01*
X105846169Y-113515916D01*
X106020796Y-113423066D01*
X106107062Y-113352709D01*
X106169287Y-113301960D01*
X106169290Y-113301957D01*
X106174062Y-113298065D01*
X106226892Y-113234205D01*
X106296201Y-113150425D01*
X106296203Y-113150421D01*
X106300130Y-113145675D01*
X106394198Y-112971701D01*
X106452682Y-112782768D01*
X106473355Y-112586075D01*
X106455430Y-112389112D01*
X106450222Y-112371414D01*
X106401330Y-112205294D01*
X106399590Y-112199381D01*
X106389919Y-112180881D01*
X106310813Y-112029568D01*
X106307960Y-112024110D01*
X106184032Y-111869975D01*
X106177727Y-111864684D01*
X106154080Y-111844842D01*
X106032526Y-111742846D01*
X106027128Y-111739879D01*
X106027123Y-111739875D01*
X105864608Y-111650533D01*
X105864609Y-111650533D01*
X105859213Y-111647567D01*
X105853346Y-111645706D01*
X105853344Y-111645705D01*
X105676564Y-111589627D01*
X105676563Y-111589627D01*
X105670694Y-111587765D01*
X105516773Y-111570500D01*
X105410231Y-111570500D01*
X105407175Y-111570800D01*
X105407168Y-111570800D01*
X105348660Y-111576537D01*
X105263167Y-111584920D01*
X105257266Y-111586702D01*
X105257264Y-111586702D01*
X105183947Y-111608838D01*
X105073831Y-111642084D01*
X104899204Y-111734934D01*
X104812938Y-111805291D01*
X104750713Y-111856040D01*
X104750710Y-111856043D01*
X104745938Y-111859935D01*
X104742011Y-111864682D01*
X104742008Y-111864685D01*
X104691584Y-111925637D01*
X104632751Y-111965375D01*
X104561773Y-111966996D01*
X104501185Y-111929987D01*
X104470225Y-111866097D01*
X104468500Y-111845321D01*
X104468500Y-110897417D01*
X104488502Y-110829296D01*
X104542158Y-110782803D01*
X104612432Y-110772699D01*
X104670065Y-110796591D01*
X104706351Y-110823786D01*
X104721946Y-110832324D01*
X104842394Y-110877478D01*
X104857649Y-110881105D01*
X104908514Y-110886631D01*
X104915328Y-110887000D01*
X105187885Y-110887000D01*
X105203124Y-110882525D01*
X105204329Y-110881135D01*
X105206000Y-110873452D01*
X105206000Y-110868884D01*
X105714000Y-110868884D01*
X105718475Y-110884123D01*
X105719865Y-110885328D01*
X105727548Y-110886999D01*
X106004669Y-110886999D01*
X106011490Y-110886629D01*
X106062352Y-110881105D01*
X106077604Y-110877479D01*
X106198054Y-110832324D01*
X106213649Y-110823786D01*
X106315724Y-110747285D01*
X106328285Y-110734724D01*
X106404786Y-110632649D01*
X106413324Y-110617054D01*
X106458478Y-110496606D01*
X106462105Y-110481351D01*
X106467631Y-110430486D01*
X106468000Y-110423672D01*
X106468000Y-110151115D01*
X106463525Y-110135876D01*
X106462135Y-110134671D01*
X106454452Y-110133000D01*
X105732115Y-110133000D01*
X105716876Y-110137475D01*
X105715671Y-110138865D01*
X105714000Y-110146548D01*
X105714000Y-110868884D01*
X105206000Y-110868884D01*
X105206000Y-109751000D01*
X105226002Y-109682879D01*
X105279658Y-109636386D01*
X105332000Y-109625000D01*
X106449884Y-109625000D01*
X106465123Y-109620525D01*
X106466328Y-109619135D01*
X106467999Y-109611452D01*
X106467999Y-109334331D01*
X106467629Y-109327510D01*
X106462105Y-109276648D01*
X106458478Y-109261391D01*
X106457104Y-109257726D01*
X106456881Y-109254673D01*
X106456651Y-109253707D01*
X106456807Y-109253670D01*
X106451923Y-109186919D01*
X106485845Y-109124551D01*
X106548102Y-109090424D01*
X106575087Y-109087500D01*
X146325500Y-109087500D01*
X146393621Y-109107502D01*
G37*
%TD.AperFunction*%
%TD*%
%TA.AperFunction,Conductor*%
%TO.N,GND*%
G36*
X103393621Y-117107502D02*
G01*
X103440114Y-117161158D01*
X103451500Y-117213500D01*
X103451500Y-119844842D01*
X103431498Y-119912963D01*
X103377842Y-119959456D01*
X103307568Y-119969560D01*
X103242988Y-119940066D01*
X103227304Y-119923795D01*
X103187892Y-119874776D01*
X103184032Y-119869975D01*
X103177727Y-119864684D01*
X103154080Y-119844842D01*
X103032526Y-119742846D01*
X103027128Y-119739879D01*
X103027123Y-119739875D01*
X102864608Y-119650533D01*
X102864609Y-119650533D01*
X102859213Y-119647567D01*
X102853346Y-119645706D01*
X102853344Y-119645705D01*
X102676564Y-119589627D01*
X102676563Y-119589627D01*
X102670694Y-119587765D01*
X102516773Y-119570500D01*
X102410231Y-119570500D01*
X102407175Y-119570800D01*
X102407168Y-119570800D01*
X102348660Y-119576537D01*
X102263167Y-119584920D01*
X102257266Y-119586702D01*
X102257264Y-119586702D01*
X102183947Y-119608838D01*
X102073831Y-119642084D01*
X101899204Y-119734934D01*
X101812938Y-119805291D01*
X101750713Y-119856040D01*
X101750710Y-119856043D01*
X101745938Y-119859935D01*
X101742011Y-119864682D01*
X101742009Y-119864684D01*
X101623799Y-120007575D01*
X101623797Y-120007579D01*
X101619870Y-120012325D01*
X101525802Y-120186299D01*
X101467318Y-120375232D01*
X101446645Y-120571925D01*
X101464570Y-120768888D01*
X101466308Y-120774794D01*
X101466309Y-120774798D01*
X101470387Y-120788653D01*
X101520410Y-120958619D01*
X101523263Y-120964077D01*
X101523265Y-120964081D01*
X101570720Y-121054853D01*
X101612040Y-121133890D01*
X101735968Y-121288025D01*
X101740692Y-121291989D01*
X101747933Y-121298065D01*
X101887474Y-121415154D01*
X101892872Y-121418121D01*
X101892877Y-121418125D01*
X102036180Y-121496905D01*
X102060787Y-121510433D01*
X102066654Y-121512294D01*
X102066656Y-121512295D01*
X102243436Y-121568373D01*
X102249306Y-121570235D01*
X102403227Y-121587500D01*
X102509769Y-121587500D01*
X102512825Y-121587200D01*
X102512832Y-121587200D01*
X102571340Y-121581463D01*
X102656833Y-121573080D01*
X102662734Y-121571298D01*
X102662736Y-121571298D01*
X102736053Y-121549162D01*
X102846169Y-121515916D01*
X103020796Y-121423066D01*
X103107062Y-121352709D01*
X103169287Y-121301960D01*
X103169290Y-121301957D01*
X103174062Y-121298065D01*
X103226892Y-121234205D01*
X103228416Y-121232363D01*
X103287249Y-121192625D01*
X103358227Y-121191004D01*
X103418815Y-121228013D01*
X103449775Y-121291903D01*
X103451500Y-121312679D01*
X103451500Y-122260583D01*
X103431498Y-122328704D01*
X103377842Y-122375197D01*
X103307568Y-122385301D01*
X103249935Y-122361409D01*
X103213649Y-122334214D01*
X103198054Y-122325676D01*
X103077606Y-122280522D01*
X103062351Y-122276895D01*
X103011486Y-122271369D01*
X103004672Y-122271000D01*
X102732115Y-122271000D01*
X102716876Y-122275475D01*
X102715671Y-122276865D01*
X102714000Y-122284548D01*
X102714000Y-123407000D01*
X102693998Y-123475121D01*
X102640342Y-123521614D01*
X102588000Y-123533000D01*
X101470116Y-123533000D01*
X101454877Y-123537475D01*
X101453672Y-123538865D01*
X101452001Y-123546548D01*
X101452001Y-123823669D01*
X101452371Y-123830490D01*
X101457895Y-123881352D01*
X101461522Y-123896609D01*
X101462896Y-123900274D01*
X101463119Y-123903327D01*
X101463349Y-123904293D01*
X101463193Y-123904330D01*
X101468077Y-123971081D01*
X101434155Y-124033449D01*
X101371898Y-124067576D01*
X101344913Y-124070500D01*
X61594500Y-124070500D01*
X61526379Y-124050498D01*
X61479886Y-123996842D01*
X61468500Y-123944500D01*
X61468500Y-123006885D01*
X101452000Y-123006885D01*
X101456475Y-123022124D01*
X101457865Y-123023329D01*
X101465548Y-123025000D01*
X102187885Y-123025000D01*
X102203124Y-123020525D01*
X102204329Y-123019135D01*
X102206000Y-123011452D01*
X102206000Y-122289116D01*
X102201525Y-122273877D01*
X102200135Y-122272672D01*
X102192452Y-122271001D01*
X101915331Y-122271001D01*
X101908510Y-122271371D01*
X101857648Y-122276895D01*
X101842396Y-122280521D01*
X101721946Y-122325676D01*
X101706351Y-122334214D01*
X101604276Y-122410715D01*
X101591715Y-122423276D01*
X101515214Y-122525351D01*
X101506676Y-122540946D01*
X101461522Y-122661394D01*
X101457895Y-122676649D01*
X101452369Y-122727514D01*
X101452000Y-122734328D01*
X101452000Y-123006885D01*
X61468500Y-123006885D01*
X61468500Y-121313158D01*
X61488502Y-121245037D01*
X61542158Y-121198544D01*
X61612432Y-121188440D01*
X61677012Y-121217934D01*
X61692693Y-121234202D01*
X61735968Y-121288025D01*
X61740692Y-121291989D01*
X61747933Y-121298065D01*
X61887474Y-121415154D01*
X61892872Y-121418121D01*
X61892877Y-121418125D01*
X62036180Y-121496905D01*
X62060787Y-121510433D01*
X62066654Y-121512294D01*
X62066656Y-121512295D01*
X62243436Y-121568373D01*
X62249306Y-121570235D01*
X62403227Y-121587500D01*
X62509769Y-121587500D01*
X62512825Y-121587200D01*
X62512832Y-121587200D01*
X62571340Y-121581463D01*
X62656833Y-121573080D01*
X62662734Y-121571298D01*
X62662736Y-121571298D01*
X62736053Y-121549162D01*
X62846169Y-121515916D01*
X63020796Y-121423066D01*
X63107062Y-121352709D01*
X63169287Y-121301960D01*
X63169290Y-121301957D01*
X63174062Y-121298065D01*
X63226892Y-121234205D01*
X63296201Y-121150425D01*
X63296203Y-121150421D01*
X63300130Y-121145675D01*
X63394198Y-120971701D01*
X63452682Y-120782768D01*
X63473355Y-120586075D01*
X63455430Y-120389112D01*
X63450222Y-120371414D01*
X63401330Y-120205294D01*
X63399590Y-120199381D01*
X63389919Y-120180881D01*
X63310813Y-120029568D01*
X63307960Y-120024110D01*
X63184032Y-119869975D01*
X63177727Y-119864684D01*
X63154080Y-119844842D01*
X63032526Y-119742846D01*
X63027128Y-119739879D01*
X63027123Y-119739875D01*
X62864608Y-119650533D01*
X62864609Y-119650533D01*
X62859213Y-119647567D01*
X62853346Y-119645706D01*
X62853344Y-119645705D01*
X62676564Y-119589627D01*
X62676563Y-119589627D01*
X62670694Y-119587765D01*
X62516773Y-119570500D01*
X62410231Y-119570500D01*
X62407175Y-119570800D01*
X62407168Y-119570800D01*
X62348660Y-119576537D01*
X62263167Y-119584920D01*
X62257266Y-119586702D01*
X62257264Y-119586702D01*
X62183947Y-119608838D01*
X62073831Y-119642084D01*
X61899204Y-119734934D01*
X61812938Y-119805291D01*
X61750713Y-119856040D01*
X61750710Y-119856043D01*
X61745938Y-119859935D01*
X61742011Y-119864682D01*
X61742008Y-119864685D01*
X61691584Y-119925637D01*
X61632751Y-119965375D01*
X61561773Y-119966996D01*
X61501185Y-119929987D01*
X61470225Y-119866097D01*
X61468500Y-119845321D01*
X61468500Y-118897417D01*
X61488502Y-118829296D01*
X61542158Y-118782803D01*
X61612432Y-118772699D01*
X61670065Y-118796591D01*
X61706351Y-118823786D01*
X61721946Y-118832324D01*
X61842394Y-118877478D01*
X61857649Y-118881105D01*
X61908514Y-118886631D01*
X61915328Y-118887000D01*
X62187885Y-118887000D01*
X62203124Y-118882525D01*
X62204329Y-118881135D01*
X62206000Y-118873452D01*
X62206000Y-118868884D01*
X62714000Y-118868884D01*
X62718475Y-118884123D01*
X62719865Y-118885328D01*
X62727548Y-118886999D01*
X63004669Y-118886999D01*
X63011490Y-118886629D01*
X63062352Y-118881105D01*
X63077604Y-118877479D01*
X63198054Y-118832324D01*
X63213649Y-118823786D01*
X63315724Y-118747285D01*
X63328285Y-118734724D01*
X63404786Y-118632649D01*
X63413324Y-118617054D01*
X63458478Y-118496606D01*
X63462105Y-118481351D01*
X63467631Y-118430486D01*
X63468000Y-118423672D01*
X63468000Y-118151115D01*
X63463525Y-118135876D01*
X63462135Y-118134671D01*
X63454452Y-118133000D01*
X62732115Y-118133000D01*
X62716876Y-118137475D01*
X62715671Y-118138865D01*
X62714000Y-118146548D01*
X62714000Y-118868884D01*
X62206000Y-118868884D01*
X62206000Y-117751000D01*
X62226002Y-117682879D01*
X62279658Y-117636386D01*
X62332000Y-117625000D01*
X63449884Y-117625000D01*
X63465123Y-117620525D01*
X63466328Y-117619135D01*
X63467999Y-117611452D01*
X63467999Y-117334331D01*
X63467629Y-117327510D01*
X63462105Y-117276648D01*
X63458478Y-117261391D01*
X63457104Y-117257726D01*
X63456881Y-117254673D01*
X63456651Y-117253707D01*
X63456807Y-117253670D01*
X63451923Y-117186919D01*
X63485845Y-117124551D01*
X63548102Y-117090424D01*
X63575087Y-117087500D01*
X103325500Y-117087500D01*
X103393621Y-117107502D01*
G37*
%TD.AperFunction*%
%TD*%
%TA.AperFunction,Conductor*%
%TO.N,GND*%
G36*
X146393621Y-117107502D02*
G01*
X146440114Y-117161158D01*
X146451500Y-117213500D01*
X146451500Y-119844842D01*
X146431498Y-119912963D01*
X146377842Y-119959456D01*
X146307568Y-119969560D01*
X146242988Y-119940066D01*
X146227304Y-119923795D01*
X146187892Y-119874776D01*
X146184032Y-119869975D01*
X146177727Y-119864684D01*
X146154080Y-119844842D01*
X146032526Y-119742846D01*
X146027128Y-119739879D01*
X146027123Y-119739875D01*
X145864608Y-119650533D01*
X145864609Y-119650533D01*
X145859213Y-119647567D01*
X145853346Y-119645706D01*
X145853344Y-119645705D01*
X145676564Y-119589627D01*
X145676563Y-119589627D01*
X145670694Y-119587765D01*
X145516773Y-119570500D01*
X145410231Y-119570500D01*
X145407175Y-119570800D01*
X145407168Y-119570800D01*
X145348660Y-119576537D01*
X145263167Y-119584920D01*
X145257266Y-119586702D01*
X145257264Y-119586702D01*
X145183947Y-119608838D01*
X145073831Y-119642084D01*
X144899204Y-119734934D01*
X144812938Y-119805291D01*
X144750713Y-119856040D01*
X144750710Y-119856043D01*
X144745938Y-119859935D01*
X144742011Y-119864682D01*
X144742009Y-119864684D01*
X144623799Y-120007575D01*
X144623797Y-120007579D01*
X144619870Y-120012325D01*
X144525802Y-120186299D01*
X144467318Y-120375232D01*
X144446645Y-120571925D01*
X144464570Y-120768888D01*
X144466308Y-120774794D01*
X144466309Y-120774798D01*
X144470387Y-120788653D01*
X144520410Y-120958619D01*
X144523263Y-120964077D01*
X144523265Y-120964081D01*
X144570720Y-121054853D01*
X144612040Y-121133890D01*
X144735968Y-121288025D01*
X144740692Y-121291989D01*
X144747933Y-121298065D01*
X144887474Y-121415154D01*
X144892872Y-121418121D01*
X144892877Y-121418125D01*
X145036180Y-121496905D01*
X145060787Y-121510433D01*
X145066654Y-121512294D01*
X145066656Y-121512295D01*
X145243436Y-121568373D01*
X145249306Y-121570235D01*
X145403227Y-121587500D01*
X145509769Y-121587500D01*
X145512825Y-121587200D01*
X145512832Y-121587200D01*
X145571340Y-121581463D01*
X145656833Y-121573080D01*
X145662734Y-121571298D01*
X145662736Y-121571298D01*
X145736053Y-121549162D01*
X145846169Y-121515916D01*
X146020796Y-121423066D01*
X146107062Y-121352709D01*
X146169287Y-121301960D01*
X146169290Y-121301957D01*
X146174062Y-121298065D01*
X146226892Y-121234205D01*
X146228416Y-121232363D01*
X146287249Y-121192625D01*
X146358227Y-121191004D01*
X146418815Y-121228013D01*
X146449775Y-121291903D01*
X146451500Y-121312679D01*
X146451500Y-122260583D01*
X146431498Y-122328704D01*
X146377842Y-122375197D01*
X146307568Y-122385301D01*
X146249935Y-122361409D01*
X146213649Y-122334214D01*
X146198054Y-122325676D01*
X146077606Y-122280522D01*
X146062351Y-122276895D01*
X146011486Y-122271369D01*
X146004672Y-122271000D01*
X145732115Y-122271000D01*
X145716876Y-122275475D01*
X145715671Y-122276865D01*
X145714000Y-122284548D01*
X145714000Y-123407000D01*
X145693998Y-123475121D01*
X145640342Y-123521614D01*
X145588000Y-123533000D01*
X144470116Y-123533000D01*
X144454877Y-123537475D01*
X144453672Y-123538865D01*
X144452001Y-123546548D01*
X144452001Y-123823669D01*
X144452371Y-123830490D01*
X144457895Y-123881352D01*
X144461522Y-123896609D01*
X144462896Y-123900274D01*
X144463119Y-123903327D01*
X144463349Y-123904293D01*
X144463193Y-123904330D01*
X144468077Y-123971081D01*
X144434155Y-124033449D01*
X144371898Y-124067576D01*
X144344913Y-124070500D01*
X104594500Y-124070500D01*
X104526379Y-124050498D01*
X104479886Y-123996842D01*
X104468500Y-123944500D01*
X104468500Y-123006885D01*
X144452000Y-123006885D01*
X144456475Y-123022124D01*
X144457865Y-123023329D01*
X144465548Y-123025000D01*
X145187885Y-123025000D01*
X145203124Y-123020525D01*
X145204329Y-123019135D01*
X145206000Y-123011452D01*
X145206000Y-122289116D01*
X145201525Y-122273877D01*
X145200135Y-122272672D01*
X145192452Y-122271001D01*
X144915331Y-122271001D01*
X144908510Y-122271371D01*
X144857648Y-122276895D01*
X144842396Y-122280521D01*
X144721946Y-122325676D01*
X144706351Y-122334214D01*
X144604276Y-122410715D01*
X144591715Y-122423276D01*
X144515214Y-122525351D01*
X144506676Y-122540946D01*
X144461522Y-122661394D01*
X144457895Y-122676649D01*
X144452369Y-122727514D01*
X144452000Y-122734328D01*
X144452000Y-123006885D01*
X104468500Y-123006885D01*
X104468500Y-121313158D01*
X104488502Y-121245037D01*
X104542158Y-121198544D01*
X104612432Y-121188440D01*
X104677012Y-121217934D01*
X104692693Y-121234202D01*
X104735968Y-121288025D01*
X104740692Y-121291989D01*
X104747933Y-121298065D01*
X104887474Y-121415154D01*
X104892872Y-121418121D01*
X104892877Y-121418125D01*
X105036180Y-121496905D01*
X105060787Y-121510433D01*
X105066654Y-121512294D01*
X105066656Y-121512295D01*
X105243436Y-121568373D01*
X105249306Y-121570235D01*
X105403227Y-121587500D01*
X105509769Y-121587500D01*
X105512825Y-121587200D01*
X105512832Y-121587200D01*
X105571340Y-121581463D01*
X105656833Y-121573080D01*
X105662734Y-121571298D01*
X105662736Y-121571298D01*
X105736053Y-121549162D01*
X105846169Y-121515916D01*
X106020796Y-121423066D01*
X106107062Y-121352709D01*
X106169287Y-121301960D01*
X106169290Y-121301957D01*
X106174062Y-121298065D01*
X106226892Y-121234205D01*
X106296201Y-121150425D01*
X106296203Y-121150421D01*
X106300130Y-121145675D01*
X106394198Y-120971701D01*
X106452682Y-120782768D01*
X106473355Y-120586075D01*
X106455430Y-120389112D01*
X106450222Y-120371414D01*
X106401330Y-120205294D01*
X106399590Y-120199381D01*
X106389919Y-120180881D01*
X106310813Y-120029568D01*
X106307960Y-120024110D01*
X106184032Y-119869975D01*
X106177727Y-119864684D01*
X106154080Y-119844842D01*
X106032526Y-119742846D01*
X106027128Y-119739879D01*
X106027123Y-119739875D01*
X105864608Y-119650533D01*
X105864609Y-119650533D01*
X105859213Y-119647567D01*
X105853346Y-119645706D01*
X105853344Y-119645705D01*
X105676564Y-119589627D01*
X105676563Y-119589627D01*
X105670694Y-119587765D01*
X105516773Y-119570500D01*
X105410231Y-119570500D01*
X105407175Y-119570800D01*
X105407168Y-119570800D01*
X105348660Y-119576537D01*
X105263167Y-119584920D01*
X105257266Y-119586702D01*
X105257264Y-119586702D01*
X105183947Y-119608838D01*
X105073831Y-119642084D01*
X104899204Y-119734934D01*
X104812938Y-119805291D01*
X104750713Y-119856040D01*
X104750710Y-119856043D01*
X104745938Y-119859935D01*
X104742011Y-119864682D01*
X104742008Y-119864685D01*
X104691584Y-119925637D01*
X104632751Y-119965375D01*
X104561773Y-119966996D01*
X104501185Y-119929987D01*
X104470225Y-119866097D01*
X104468500Y-119845321D01*
X104468500Y-118897417D01*
X104488502Y-118829296D01*
X104542158Y-118782803D01*
X104612432Y-118772699D01*
X104670065Y-118796591D01*
X104706351Y-118823786D01*
X104721946Y-118832324D01*
X104842394Y-118877478D01*
X104857649Y-118881105D01*
X104908514Y-118886631D01*
X104915328Y-118887000D01*
X105187885Y-118887000D01*
X105203124Y-118882525D01*
X105204329Y-118881135D01*
X105206000Y-118873452D01*
X105206000Y-118868884D01*
X105714000Y-118868884D01*
X105718475Y-118884123D01*
X105719865Y-118885328D01*
X105727548Y-118886999D01*
X106004669Y-118886999D01*
X106011490Y-118886629D01*
X106062352Y-118881105D01*
X106077604Y-118877479D01*
X106198054Y-118832324D01*
X106213649Y-118823786D01*
X106315724Y-118747285D01*
X106328285Y-118734724D01*
X106404786Y-118632649D01*
X106413324Y-118617054D01*
X106458478Y-118496606D01*
X106462105Y-118481351D01*
X106467631Y-118430486D01*
X106468000Y-118423672D01*
X106468000Y-118151115D01*
X106463525Y-118135876D01*
X106462135Y-118134671D01*
X106454452Y-118133000D01*
X105732115Y-118133000D01*
X105716876Y-118137475D01*
X105715671Y-118138865D01*
X105714000Y-118146548D01*
X105714000Y-118868884D01*
X105206000Y-118868884D01*
X105206000Y-117751000D01*
X105226002Y-117682879D01*
X105279658Y-117636386D01*
X105332000Y-117625000D01*
X106449884Y-117625000D01*
X106465123Y-117620525D01*
X106466328Y-117619135D01*
X106467999Y-117611452D01*
X106467999Y-117334331D01*
X106467629Y-117327510D01*
X106462105Y-117276648D01*
X106458478Y-117261391D01*
X106457104Y-117257726D01*
X106456881Y-117254673D01*
X106456651Y-117253707D01*
X106456807Y-117253670D01*
X106451923Y-117186919D01*
X106485845Y-117124551D01*
X106548102Y-117090424D01*
X106575087Y-117087500D01*
X146325500Y-117087500D01*
X146393621Y-117107502D01*
G37*
%TD.AperFunction*%
%TD*%
%TA.AperFunction,Conductor*%
%TO.N,GND*%
G36*
X103393621Y-125107502D02*
G01*
X103440114Y-125161158D01*
X103451500Y-125213500D01*
X103451500Y-127844842D01*
X103431498Y-127912963D01*
X103377842Y-127959456D01*
X103307568Y-127969560D01*
X103242988Y-127940066D01*
X103227304Y-127923795D01*
X103187892Y-127874776D01*
X103184032Y-127869975D01*
X103177727Y-127864684D01*
X103154080Y-127844842D01*
X103032526Y-127742846D01*
X103027128Y-127739879D01*
X103027123Y-127739875D01*
X102864608Y-127650533D01*
X102864609Y-127650533D01*
X102859213Y-127647567D01*
X102853346Y-127645706D01*
X102853344Y-127645705D01*
X102676564Y-127589627D01*
X102676563Y-127589627D01*
X102670694Y-127587765D01*
X102516773Y-127570500D01*
X102410231Y-127570500D01*
X102407175Y-127570800D01*
X102407168Y-127570800D01*
X102348660Y-127576537D01*
X102263167Y-127584920D01*
X102257266Y-127586702D01*
X102257264Y-127586702D01*
X102183947Y-127608838D01*
X102073831Y-127642084D01*
X101899204Y-127734934D01*
X101812938Y-127805291D01*
X101750713Y-127856040D01*
X101750710Y-127856043D01*
X101745938Y-127859935D01*
X101742011Y-127864682D01*
X101742009Y-127864684D01*
X101623799Y-128007575D01*
X101623797Y-128007579D01*
X101619870Y-128012325D01*
X101525802Y-128186299D01*
X101467318Y-128375232D01*
X101446645Y-128571925D01*
X101464570Y-128768888D01*
X101466308Y-128774794D01*
X101466309Y-128774798D01*
X101470387Y-128788653D01*
X101520410Y-128958619D01*
X101523263Y-128964077D01*
X101523265Y-128964081D01*
X101570720Y-129054853D01*
X101612040Y-129133890D01*
X101735968Y-129288025D01*
X101740692Y-129291989D01*
X101747933Y-129298065D01*
X101887474Y-129415154D01*
X101892872Y-129418121D01*
X101892877Y-129418125D01*
X102036180Y-129496905D01*
X102060787Y-129510433D01*
X102066654Y-129512294D01*
X102066656Y-129512295D01*
X102243436Y-129568373D01*
X102249306Y-129570235D01*
X102403227Y-129587500D01*
X102509769Y-129587500D01*
X102512825Y-129587200D01*
X102512832Y-129587200D01*
X102571340Y-129581463D01*
X102656833Y-129573080D01*
X102662734Y-129571298D01*
X102662736Y-129571298D01*
X102736053Y-129549162D01*
X102846169Y-129515916D01*
X103020796Y-129423066D01*
X103107062Y-129352709D01*
X103169287Y-129301960D01*
X103169290Y-129301957D01*
X103174062Y-129298065D01*
X103226892Y-129234205D01*
X103228416Y-129232363D01*
X103287249Y-129192625D01*
X103358227Y-129191004D01*
X103418815Y-129228013D01*
X103449775Y-129291903D01*
X103451500Y-129312679D01*
X103451500Y-130260583D01*
X103431498Y-130328704D01*
X103377842Y-130375197D01*
X103307568Y-130385301D01*
X103249935Y-130361409D01*
X103213649Y-130334214D01*
X103198054Y-130325676D01*
X103077606Y-130280522D01*
X103062351Y-130276895D01*
X103011486Y-130271369D01*
X103004672Y-130271000D01*
X102732115Y-130271000D01*
X102716876Y-130275475D01*
X102715671Y-130276865D01*
X102714000Y-130284548D01*
X102714000Y-131407000D01*
X102693998Y-131475121D01*
X102640342Y-131521614D01*
X102588000Y-131533000D01*
X101470116Y-131533000D01*
X101454877Y-131537475D01*
X101453672Y-131538865D01*
X101452001Y-131546548D01*
X101452001Y-131823669D01*
X101452371Y-131830490D01*
X101457895Y-131881352D01*
X101461522Y-131896609D01*
X101462896Y-131900274D01*
X101463119Y-131903327D01*
X101463349Y-131904293D01*
X101463193Y-131904330D01*
X101468077Y-131971081D01*
X101434155Y-132033449D01*
X101371898Y-132067576D01*
X101344913Y-132070500D01*
X61594500Y-132070500D01*
X61526379Y-132050498D01*
X61479886Y-131996842D01*
X61468500Y-131944500D01*
X61468500Y-131006885D01*
X101452000Y-131006885D01*
X101456475Y-131022124D01*
X101457865Y-131023329D01*
X101465548Y-131025000D01*
X102187885Y-131025000D01*
X102203124Y-131020525D01*
X102204329Y-131019135D01*
X102206000Y-131011452D01*
X102206000Y-130289116D01*
X102201525Y-130273877D01*
X102200135Y-130272672D01*
X102192452Y-130271001D01*
X101915331Y-130271001D01*
X101908510Y-130271371D01*
X101857648Y-130276895D01*
X101842396Y-130280521D01*
X101721946Y-130325676D01*
X101706351Y-130334214D01*
X101604276Y-130410715D01*
X101591715Y-130423276D01*
X101515214Y-130525351D01*
X101506676Y-130540946D01*
X101461522Y-130661394D01*
X101457895Y-130676649D01*
X101452369Y-130727514D01*
X101452000Y-130734328D01*
X101452000Y-131006885D01*
X61468500Y-131006885D01*
X61468500Y-129313158D01*
X61488502Y-129245037D01*
X61542158Y-129198544D01*
X61612432Y-129188440D01*
X61677012Y-129217934D01*
X61692693Y-129234202D01*
X61735968Y-129288025D01*
X61740692Y-129291989D01*
X61747933Y-129298065D01*
X61887474Y-129415154D01*
X61892872Y-129418121D01*
X61892877Y-129418125D01*
X62036180Y-129496905D01*
X62060787Y-129510433D01*
X62066654Y-129512294D01*
X62066656Y-129512295D01*
X62243436Y-129568373D01*
X62249306Y-129570235D01*
X62403227Y-129587500D01*
X62509769Y-129587500D01*
X62512825Y-129587200D01*
X62512832Y-129587200D01*
X62571340Y-129581463D01*
X62656833Y-129573080D01*
X62662734Y-129571298D01*
X62662736Y-129571298D01*
X62736053Y-129549162D01*
X62846169Y-129515916D01*
X63020796Y-129423066D01*
X63107062Y-129352709D01*
X63169287Y-129301960D01*
X63169290Y-129301957D01*
X63174062Y-129298065D01*
X63226892Y-129234205D01*
X63296201Y-129150425D01*
X63296203Y-129150421D01*
X63300130Y-129145675D01*
X63394198Y-128971701D01*
X63452682Y-128782768D01*
X63473355Y-128586075D01*
X63455430Y-128389112D01*
X63450222Y-128371414D01*
X63401330Y-128205294D01*
X63399590Y-128199381D01*
X63389919Y-128180881D01*
X63310813Y-128029568D01*
X63307960Y-128024110D01*
X63184032Y-127869975D01*
X63177727Y-127864684D01*
X63154080Y-127844842D01*
X63032526Y-127742846D01*
X63027128Y-127739879D01*
X63027123Y-127739875D01*
X62864608Y-127650533D01*
X62864609Y-127650533D01*
X62859213Y-127647567D01*
X62853346Y-127645706D01*
X62853344Y-127645705D01*
X62676564Y-127589627D01*
X62676563Y-127589627D01*
X62670694Y-127587765D01*
X62516773Y-127570500D01*
X62410231Y-127570500D01*
X62407175Y-127570800D01*
X62407168Y-127570800D01*
X62348660Y-127576537D01*
X62263167Y-127584920D01*
X62257266Y-127586702D01*
X62257264Y-127586702D01*
X62183947Y-127608838D01*
X62073831Y-127642084D01*
X61899204Y-127734934D01*
X61812938Y-127805291D01*
X61750713Y-127856040D01*
X61750710Y-127856043D01*
X61745938Y-127859935D01*
X61742011Y-127864682D01*
X61742008Y-127864685D01*
X61691584Y-127925637D01*
X61632751Y-127965375D01*
X61561773Y-127966996D01*
X61501185Y-127929987D01*
X61470225Y-127866097D01*
X61468500Y-127845321D01*
X61468500Y-126897417D01*
X61488502Y-126829296D01*
X61542158Y-126782803D01*
X61612432Y-126772699D01*
X61670065Y-126796591D01*
X61706351Y-126823786D01*
X61721946Y-126832324D01*
X61842394Y-126877478D01*
X61857649Y-126881105D01*
X61908514Y-126886631D01*
X61915328Y-126887000D01*
X62187885Y-126887000D01*
X62203124Y-126882525D01*
X62204329Y-126881135D01*
X62206000Y-126873452D01*
X62206000Y-126868884D01*
X62714000Y-126868884D01*
X62718475Y-126884123D01*
X62719865Y-126885328D01*
X62727548Y-126886999D01*
X63004669Y-126886999D01*
X63011490Y-126886629D01*
X63062352Y-126881105D01*
X63077604Y-126877479D01*
X63198054Y-126832324D01*
X63213649Y-126823786D01*
X63315724Y-126747285D01*
X63328285Y-126734724D01*
X63404786Y-126632649D01*
X63413324Y-126617054D01*
X63458478Y-126496606D01*
X63462105Y-126481351D01*
X63467631Y-126430486D01*
X63468000Y-126423672D01*
X63468000Y-126151115D01*
X63463525Y-126135876D01*
X63462135Y-126134671D01*
X63454452Y-126133000D01*
X62732115Y-126133000D01*
X62716876Y-126137475D01*
X62715671Y-126138865D01*
X62714000Y-126146548D01*
X62714000Y-126868884D01*
X62206000Y-126868884D01*
X62206000Y-125751000D01*
X62226002Y-125682879D01*
X62279658Y-125636386D01*
X62332000Y-125625000D01*
X63449884Y-125625000D01*
X63465123Y-125620525D01*
X63466328Y-125619135D01*
X63467999Y-125611452D01*
X63467999Y-125334331D01*
X63467629Y-125327510D01*
X63462105Y-125276648D01*
X63458478Y-125261391D01*
X63457104Y-125257726D01*
X63456881Y-125254673D01*
X63456651Y-125253707D01*
X63456807Y-125253670D01*
X63451923Y-125186919D01*
X63485845Y-125124551D01*
X63548102Y-125090424D01*
X63575087Y-125087500D01*
X103325500Y-125087500D01*
X103393621Y-125107502D01*
G37*
%TD.AperFunction*%
%TD*%
%TA.AperFunction,Conductor*%
%TO.N,GND*%
G36*
X146393621Y-125107502D02*
G01*
X146440114Y-125161158D01*
X146451500Y-125213500D01*
X146451500Y-127844842D01*
X146431498Y-127912963D01*
X146377842Y-127959456D01*
X146307568Y-127969560D01*
X146242988Y-127940066D01*
X146227304Y-127923795D01*
X146187892Y-127874776D01*
X146184032Y-127869975D01*
X146177727Y-127864684D01*
X146154080Y-127844842D01*
X146032526Y-127742846D01*
X146027128Y-127739879D01*
X146027123Y-127739875D01*
X145864608Y-127650533D01*
X145864609Y-127650533D01*
X145859213Y-127647567D01*
X145853346Y-127645706D01*
X145853344Y-127645705D01*
X145676564Y-127589627D01*
X145676563Y-127589627D01*
X145670694Y-127587765D01*
X145516773Y-127570500D01*
X145410231Y-127570500D01*
X145407175Y-127570800D01*
X145407168Y-127570800D01*
X145348660Y-127576537D01*
X145263167Y-127584920D01*
X145257266Y-127586702D01*
X145257264Y-127586702D01*
X145183947Y-127608838D01*
X145073831Y-127642084D01*
X144899204Y-127734934D01*
X144812938Y-127805291D01*
X144750713Y-127856040D01*
X144750710Y-127856043D01*
X144745938Y-127859935D01*
X144742011Y-127864682D01*
X144742009Y-127864684D01*
X144623799Y-128007575D01*
X144623797Y-128007579D01*
X144619870Y-128012325D01*
X144525802Y-128186299D01*
X144467318Y-128375232D01*
X144446645Y-128571925D01*
X144464570Y-128768888D01*
X144466308Y-128774794D01*
X144466309Y-128774798D01*
X144470387Y-128788653D01*
X144520410Y-128958619D01*
X144523263Y-128964077D01*
X144523265Y-128964081D01*
X144570720Y-129054853D01*
X144612040Y-129133890D01*
X144735968Y-129288025D01*
X144740692Y-129291989D01*
X144747933Y-129298065D01*
X144887474Y-129415154D01*
X144892872Y-129418121D01*
X144892877Y-129418125D01*
X145036180Y-129496905D01*
X145060787Y-129510433D01*
X145066654Y-129512294D01*
X145066656Y-129512295D01*
X145243436Y-129568373D01*
X145249306Y-129570235D01*
X145403227Y-129587500D01*
X145509769Y-129587500D01*
X145512825Y-129587200D01*
X145512832Y-129587200D01*
X145571340Y-129581463D01*
X145656833Y-129573080D01*
X145662734Y-129571298D01*
X145662736Y-129571298D01*
X145736053Y-129549162D01*
X145846169Y-129515916D01*
X146020796Y-129423066D01*
X146107062Y-129352709D01*
X146169287Y-129301960D01*
X146169290Y-129301957D01*
X146174062Y-129298065D01*
X146226892Y-129234205D01*
X146228416Y-129232363D01*
X146287249Y-129192625D01*
X146358227Y-129191004D01*
X146418815Y-129228013D01*
X146449775Y-129291903D01*
X146451500Y-129312679D01*
X146451500Y-130260583D01*
X146431498Y-130328704D01*
X146377842Y-130375197D01*
X146307568Y-130385301D01*
X146249935Y-130361409D01*
X146213649Y-130334214D01*
X146198054Y-130325676D01*
X146077606Y-130280522D01*
X146062351Y-130276895D01*
X146011486Y-130271369D01*
X146004672Y-130271000D01*
X145732115Y-130271000D01*
X145716876Y-130275475D01*
X145715671Y-130276865D01*
X145714000Y-130284548D01*
X145714000Y-131407000D01*
X145693998Y-131475121D01*
X145640342Y-131521614D01*
X145588000Y-131533000D01*
X144470116Y-131533000D01*
X144454877Y-131537475D01*
X144453672Y-131538865D01*
X144452001Y-131546548D01*
X144452001Y-131823669D01*
X144452371Y-131830490D01*
X144457895Y-131881352D01*
X144461522Y-131896609D01*
X144462896Y-131900274D01*
X144463119Y-131903327D01*
X144463349Y-131904293D01*
X144463193Y-131904330D01*
X144468077Y-131971081D01*
X144434155Y-132033449D01*
X144371898Y-132067576D01*
X144344913Y-132070500D01*
X104594500Y-132070500D01*
X104526379Y-132050498D01*
X104479886Y-131996842D01*
X104468500Y-131944500D01*
X104468500Y-131006885D01*
X144452000Y-131006885D01*
X144456475Y-131022124D01*
X144457865Y-131023329D01*
X144465548Y-131025000D01*
X145187885Y-131025000D01*
X145203124Y-131020525D01*
X145204329Y-131019135D01*
X145206000Y-131011452D01*
X145206000Y-130289116D01*
X145201525Y-130273877D01*
X145200135Y-130272672D01*
X145192452Y-130271001D01*
X144915331Y-130271001D01*
X144908510Y-130271371D01*
X144857648Y-130276895D01*
X144842396Y-130280521D01*
X144721946Y-130325676D01*
X144706351Y-130334214D01*
X144604276Y-130410715D01*
X144591715Y-130423276D01*
X144515214Y-130525351D01*
X144506676Y-130540946D01*
X144461522Y-130661394D01*
X144457895Y-130676649D01*
X144452369Y-130727514D01*
X144452000Y-130734328D01*
X144452000Y-131006885D01*
X104468500Y-131006885D01*
X104468500Y-129313158D01*
X104488502Y-129245037D01*
X104542158Y-129198544D01*
X104612432Y-129188440D01*
X104677012Y-129217934D01*
X104692693Y-129234202D01*
X104735968Y-129288025D01*
X104740692Y-129291989D01*
X104747933Y-129298065D01*
X104887474Y-129415154D01*
X104892872Y-129418121D01*
X104892877Y-129418125D01*
X105036180Y-129496905D01*
X105060787Y-129510433D01*
X105066654Y-129512294D01*
X105066656Y-129512295D01*
X105243436Y-129568373D01*
X105249306Y-129570235D01*
X105403227Y-129587500D01*
X105509769Y-129587500D01*
X105512825Y-129587200D01*
X105512832Y-129587200D01*
X105571340Y-129581463D01*
X105656833Y-129573080D01*
X105662734Y-129571298D01*
X105662736Y-129571298D01*
X105736053Y-129549162D01*
X105846169Y-129515916D01*
X106020796Y-129423066D01*
X106107062Y-129352709D01*
X106169287Y-129301960D01*
X106169290Y-129301957D01*
X106174062Y-129298065D01*
X106226892Y-129234205D01*
X106296201Y-129150425D01*
X106296203Y-129150421D01*
X106300130Y-129145675D01*
X106394198Y-128971701D01*
X106452682Y-128782768D01*
X106473355Y-128586075D01*
X106455430Y-128389112D01*
X106450222Y-128371414D01*
X106401330Y-128205294D01*
X106399590Y-128199381D01*
X106389919Y-128180881D01*
X106310813Y-128029568D01*
X106307960Y-128024110D01*
X106184032Y-127869975D01*
X106177727Y-127864684D01*
X106154080Y-127844842D01*
X106032526Y-127742846D01*
X106027128Y-127739879D01*
X106027123Y-127739875D01*
X105864608Y-127650533D01*
X105864609Y-127650533D01*
X105859213Y-127647567D01*
X105853346Y-127645706D01*
X105853344Y-127645705D01*
X105676564Y-127589627D01*
X105676563Y-127589627D01*
X105670694Y-127587765D01*
X105516773Y-127570500D01*
X105410231Y-127570500D01*
X105407175Y-127570800D01*
X105407168Y-127570800D01*
X105348660Y-127576537D01*
X105263167Y-127584920D01*
X105257266Y-127586702D01*
X105257264Y-127586702D01*
X105183947Y-127608838D01*
X105073831Y-127642084D01*
X104899204Y-127734934D01*
X104812938Y-127805291D01*
X104750713Y-127856040D01*
X104750710Y-127856043D01*
X104745938Y-127859935D01*
X104742011Y-127864682D01*
X104742008Y-127864685D01*
X104691584Y-127925637D01*
X104632751Y-127965375D01*
X104561773Y-127966996D01*
X104501185Y-127929987D01*
X104470225Y-127866097D01*
X104468500Y-127845321D01*
X104468500Y-126897417D01*
X104488502Y-126829296D01*
X104542158Y-126782803D01*
X104612432Y-126772699D01*
X104670065Y-126796591D01*
X104706351Y-126823786D01*
X104721946Y-126832324D01*
X104842394Y-126877478D01*
X104857649Y-126881105D01*
X104908514Y-126886631D01*
X104915328Y-126887000D01*
X105187885Y-126887000D01*
X105203124Y-126882525D01*
X105204329Y-126881135D01*
X105206000Y-126873452D01*
X105206000Y-126868884D01*
X105714000Y-126868884D01*
X105718475Y-126884123D01*
X105719865Y-126885328D01*
X105727548Y-126886999D01*
X106004669Y-126886999D01*
X106011490Y-126886629D01*
X106062352Y-126881105D01*
X106077604Y-126877479D01*
X106198054Y-126832324D01*
X106213649Y-126823786D01*
X106315724Y-126747285D01*
X106328285Y-126734724D01*
X106404786Y-126632649D01*
X106413324Y-126617054D01*
X106458478Y-126496606D01*
X106462105Y-126481351D01*
X106467631Y-126430486D01*
X106468000Y-126423672D01*
X106468000Y-126151115D01*
X106463525Y-126135876D01*
X106462135Y-126134671D01*
X106454452Y-126133000D01*
X105732115Y-126133000D01*
X105716876Y-126137475D01*
X105715671Y-126138865D01*
X105714000Y-126146548D01*
X105714000Y-126868884D01*
X105206000Y-126868884D01*
X105206000Y-125751000D01*
X105226002Y-125682879D01*
X105279658Y-125636386D01*
X105332000Y-125625000D01*
X106449884Y-125625000D01*
X106465123Y-125620525D01*
X106466328Y-125619135D01*
X106467999Y-125611452D01*
X106467999Y-125334331D01*
X106467629Y-125327510D01*
X106462105Y-125276648D01*
X106458478Y-125261391D01*
X106457104Y-125257726D01*
X106456881Y-125254673D01*
X106456651Y-125253707D01*
X106456807Y-125253670D01*
X106451923Y-125186919D01*
X106485845Y-125124551D01*
X106548102Y-125090424D01*
X106575087Y-125087500D01*
X146325500Y-125087500D01*
X146393621Y-125107502D01*
G37*
%TD.AperFunction*%
%TD*%
%TA.AperFunction,Conductor*%
%TO.N,GND*%
G36*
X103393621Y-133107502D02*
G01*
X103440114Y-133161158D01*
X103451500Y-133213500D01*
X103451500Y-135844842D01*
X103431498Y-135912963D01*
X103377842Y-135959456D01*
X103307568Y-135969560D01*
X103242988Y-135940066D01*
X103227304Y-135923795D01*
X103187892Y-135874776D01*
X103184032Y-135869975D01*
X103177727Y-135864684D01*
X103154080Y-135844842D01*
X103032526Y-135742846D01*
X103027128Y-135739879D01*
X103027123Y-135739875D01*
X102864608Y-135650533D01*
X102864609Y-135650533D01*
X102859213Y-135647567D01*
X102853346Y-135645706D01*
X102853344Y-135645705D01*
X102676564Y-135589627D01*
X102676563Y-135589627D01*
X102670694Y-135587765D01*
X102516773Y-135570500D01*
X102410231Y-135570500D01*
X102407175Y-135570800D01*
X102407168Y-135570800D01*
X102348660Y-135576537D01*
X102263167Y-135584920D01*
X102257266Y-135586702D01*
X102257264Y-135586702D01*
X102183947Y-135608838D01*
X102073831Y-135642084D01*
X101899204Y-135734934D01*
X101812938Y-135805291D01*
X101750713Y-135856040D01*
X101750710Y-135856043D01*
X101745938Y-135859935D01*
X101742011Y-135864682D01*
X101742009Y-135864684D01*
X101623799Y-136007575D01*
X101623797Y-136007579D01*
X101619870Y-136012325D01*
X101525802Y-136186299D01*
X101467318Y-136375232D01*
X101446645Y-136571925D01*
X101464570Y-136768888D01*
X101466308Y-136774794D01*
X101466309Y-136774798D01*
X101470387Y-136788653D01*
X101520410Y-136958619D01*
X101523263Y-136964077D01*
X101523265Y-136964081D01*
X101570720Y-137054853D01*
X101612040Y-137133890D01*
X101735968Y-137288025D01*
X101740692Y-137291989D01*
X101747933Y-137298065D01*
X101887474Y-137415154D01*
X101892872Y-137418121D01*
X101892877Y-137418125D01*
X102036180Y-137496905D01*
X102060787Y-137510433D01*
X102066654Y-137512294D01*
X102066656Y-137512295D01*
X102243436Y-137568373D01*
X102249306Y-137570235D01*
X102403227Y-137587500D01*
X102509769Y-137587500D01*
X102512825Y-137587200D01*
X102512832Y-137587200D01*
X102571340Y-137581463D01*
X102656833Y-137573080D01*
X102662734Y-137571298D01*
X102662736Y-137571298D01*
X102736053Y-137549162D01*
X102846169Y-137515916D01*
X103020796Y-137423066D01*
X103107062Y-137352709D01*
X103169287Y-137301960D01*
X103169290Y-137301957D01*
X103174062Y-137298065D01*
X103226892Y-137234205D01*
X103228416Y-137232363D01*
X103287249Y-137192625D01*
X103358227Y-137191004D01*
X103418815Y-137228013D01*
X103449775Y-137291903D01*
X103451500Y-137312679D01*
X103451500Y-138260583D01*
X103431498Y-138328704D01*
X103377842Y-138375197D01*
X103307568Y-138385301D01*
X103249935Y-138361409D01*
X103213649Y-138334214D01*
X103198054Y-138325676D01*
X103077606Y-138280522D01*
X103062351Y-138276895D01*
X103011486Y-138271369D01*
X103004672Y-138271000D01*
X102732115Y-138271000D01*
X102716876Y-138275475D01*
X102715671Y-138276865D01*
X102714000Y-138284548D01*
X102714000Y-139407000D01*
X102693998Y-139475121D01*
X102640342Y-139521614D01*
X102588000Y-139533000D01*
X101470116Y-139533000D01*
X101454877Y-139537475D01*
X101453672Y-139538865D01*
X101452001Y-139546548D01*
X101452001Y-139823669D01*
X101452371Y-139830490D01*
X101457895Y-139881352D01*
X101461522Y-139896609D01*
X101462896Y-139900274D01*
X101463119Y-139903327D01*
X101463349Y-139904293D01*
X101463193Y-139904330D01*
X101468077Y-139971081D01*
X101434155Y-140033449D01*
X101371898Y-140067576D01*
X101344913Y-140070500D01*
X61594500Y-140070500D01*
X61526379Y-140050498D01*
X61479886Y-139996842D01*
X61468500Y-139944500D01*
X61468500Y-139006885D01*
X101452000Y-139006885D01*
X101456475Y-139022124D01*
X101457865Y-139023329D01*
X101465548Y-139025000D01*
X102187885Y-139025000D01*
X102203124Y-139020525D01*
X102204329Y-139019135D01*
X102206000Y-139011452D01*
X102206000Y-138289116D01*
X102201525Y-138273877D01*
X102200135Y-138272672D01*
X102192452Y-138271001D01*
X101915331Y-138271001D01*
X101908510Y-138271371D01*
X101857648Y-138276895D01*
X101842396Y-138280521D01*
X101721946Y-138325676D01*
X101706351Y-138334214D01*
X101604276Y-138410715D01*
X101591715Y-138423276D01*
X101515214Y-138525351D01*
X101506676Y-138540946D01*
X101461522Y-138661394D01*
X101457895Y-138676649D01*
X101452369Y-138727514D01*
X101452000Y-138734328D01*
X101452000Y-139006885D01*
X61468500Y-139006885D01*
X61468500Y-137313158D01*
X61488502Y-137245037D01*
X61542158Y-137198544D01*
X61612432Y-137188440D01*
X61677012Y-137217934D01*
X61692693Y-137234202D01*
X61735968Y-137288025D01*
X61740692Y-137291989D01*
X61747933Y-137298065D01*
X61887474Y-137415154D01*
X61892872Y-137418121D01*
X61892877Y-137418125D01*
X62036180Y-137496905D01*
X62060787Y-137510433D01*
X62066654Y-137512294D01*
X62066656Y-137512295D01*
X62243436Y-137568373D01*
X62249306Y-137570235D01*
X62403227Y-137587500D01*
X62509769Y-137587500D01*
X62512825Y-137587200D01*
X62512832Y-137587200D01*
X62571340Y-137581463D01*
X62656833Y-137573080D01*
X62662734Y-137571298D01*
X62662736Y-137571298D01*
X62736053Y-137549162D01*
X62846169Y-137515916D01*
X63020796Y-137423066D01*
X63107062Y-137352709D01*
X63169287Y-137301960D01*
X63169290Y-137301957D01*
X63174062Y-137298065D01*
X63226892Y-137234205D01*
X63296201Y-137150425D01*
X63296203Y-137150421D01*
X63300130Y-137145675D01*
X63394198Y-136971701D01*
X63452682Y-136782768D01*
X63473355Y-136586075D01*
X63455430Y-136389112D01*
X63450222Y-136371414D01*
X63401330Y-136205294D01*
X63399590Y-136199381D01*
X63389919Y-136180881D01*
X63310813Y-136029568D01*
X63307960Y-136024110D01*
X63184032Y-135869975D01*
X63177727Y-135864684D01*
X63154080Y-135844842D01*
X63032526Y-135742846D01*
X63027128Y-135739879D01*
X63027123Y-135739875D01*
X62864608Y-135650533D01*
X62864609Y-135650533D01*
X62859213Y-135647567D01*
X62853346Y-135645706D01*
X62853344Y-135645705D01*
X62676564Y-135589627D01*
X62676563Y-135589627D01*
X62670694Y-135587765D01*
X62516773Y-135570500D01*
X62410231Y-135570500D01*
X62407175Y-135570800D01*
X62407168Y-135570800D01*
X62348660Y-135576537D01*
X62263167Y-135584920D01*
X62257266Y-135586702D01*
X62257264Y-135586702D01*
X62183947Y-135608838D01*
X62073831Y-135642084D01*
X61899204Y-135734934D01*
X61812938Y-135805291D01*
X61750713Y-135856040D01*
X61750710Y-135856043D01*
X61745938Y-135859935D01*
X61742011Y-135864682D01*
X61742008Y-135864685D01*
X61691584Y-135925637D01*
X61632751Y-135965375D01*
X61561773Y-135966996D01*
X61501185Y-135929987D01*
X61470225Y-135866097D01*
X61468500Y-135845321D01*
X61468500Y-134897417D01*
X61488502Y-134829296D01*
X61542158Y-134782803D01*
X61612432Y-134772699D01*
X61670065Y-134796591D01*
X61706351Y-134823786D01*
X61721946Y-134832324D01*
X61842394Y-134877478D01*
X61857649Y-134881105D01*
X61908514Y-134886631D01*
X61915328Y-134887000D01*
X62187885Y-134887000D01*
X62203124Y-134882525D01*
X62204329Y-134881135D01*
X62206000Y-134873452D01*
X62206000Y-134868884D01*
X62714000Y-134868884D01*
X62718475Y-134884123D01*
X62719865Y-134885328D01*
X62727548Y-134886999D01*
X63004669Y-134886999D01*
X63011490Y-134886629D01*
X63062352Y-134881105D01*
X63077604Y-134877479D01*
X63198054Y-134832324D01*
X63213649Y-134823786D01*
X63315724Y-134747285D01*
X63328285Y-134734724D01*
X63404786Y-134632649D01*
X63413324Y-134617054D01*
X63458478Y-134496606D01*
X63462105Y-134481351D01*
X63467631Y-134430486D01*
X63468000Y-134423672D01*
X63468000Y-134151115D01*
X63463525Y-134135876D01*
X63462135Y-134134671D01*
X63454452Y-134133000D01*
X62732115Y-134133000D01*
X62716876Y-134137475D01*
X62715671Y-134138865D01*
X62714000Y-134146548D01*
X62714000Y-134868884D01*
X62206000Y-134868884D01*
X62206000Y-133751000D01*
X62226002Y-133682879D01*
X62279658Y-133636386D01*
X62332000Y-133625000D01*
X63449884Y-133625000D01*
X63465123Y-133620525D01*
X63466328Y-133619135D01*
X63467999Y-133611452D01*
X63467999Y-133334331D01*
X63467629Y-133327510D01*
X63462105Y-133276648D01*
X63458478Y-133261391D01*
X63457104Y-133257726D01*
X63456881Y-133254673D01*
X63456651Y-133253707D01*
X63456807Y-133253670D01*
X63451923Y-133186919D01*
X63485845Y-133124551D01*
X63548102Y-133090424D01*
X63575087Y-133087500D01*
X103325500Y-133087500D01*
X103393621Y-133107502D01*
G37*
%TD.AperFunction*%
%TD*%
%TA.AperFunction,Conductor*%
%TO.N,GND*%
G36*
X146393621Y-133107502D02*
G01*
X146440114Y-133161158D01*
X146451500Y-133213500D01*
X146451500Y-135844842D01*
X146431498Y-135912963D01*
X146377842Y-135959456D01*
X146307568Y-135969560D01*
X146242988Y-135940066D01*
X146227304Y-135923795D01*
X146187892Y-135874776D01*
X146184032Y-135869975D01*
X146177727Y-135864684D01*
X146154080Y-135844842D01*
X146032526Y-135742846D01*
X146027128Y-135739879D01*
X146027123Y-135739875D01*
X145864608Y-135650533D01*
X145864609Y-135650533D01*
X145859213Y-135647567D01*
X145853346Y-135645706D01*
X145853344Y-135645705D01*
X145676564Y-135589627D01*
X145676563Y-135589627D01*
X145670694Y-135587765D01*
X145516773Y-135570500D01*
X145410231Y-135570500D01*
X145407175Y-135570800D01*
X145407168Y-135570800D01*
X145348660Y-135576537D01*
X145263167Y-135584920D01*
X145257266Y-135586702D01*
X145257264Y-135586702D01*
X145183947Y-135608838D01*
X145073831Y-135642084D01*
X144899204Y-135734934D01*
X144812938Y-135805291D01*
X144750713Y-135856040D01*
X144750710Y-135856043D01*
X144745938Y-135859935D01*
X144742011Y-135864682D01*
X144742009Y-135864684D01*
X144623799Y-136007575D01*
X144623797Y-136007579D01*
X144619870Y-136012325D01*
X144525802Y-136186299D01*
X144467318Y-136375232D01*
X144446645Y-136571925D01*
X144464570Y-136768888D01*
X144466308Y-136774794D01*
X144466309Y-136774798D01*
X144470387Y-136788653D01*
X144520410Y-136958619D01*
X144523263Y-136964077D01*
X144523265Y-136964081D01*
X144570720Y-137054853D01*
X144612040Y-137133890D01*
X144735968Y-137288025D01*
X144740692Y-137291989D01*
X144747933Y-137298065D01*
X144887474Y-137415154D01*
X144892872Y-137418121D01*
X144892877Y-137418125D01*
X145036180Y-137496905D01*
X145060787Y-137510433D01*
X145066654Y-137512294D01*
X145066656Y-137512295D01*
X145243436Y-137568373D01*
X145249306Y-137570235D01*
X145403227Y-137587500D01*
X145509769Y-137587500D01*
X145512825Y-137587200D01*
X145512832Y-137587200D01*
X145571340Y-137581463D01*
X145656833Y-137573080D01*
X145662734Y-137571298D01*
X145662736Y-137571298D01*
X145736053Y-137549162D01*
X145846169Y-137515916D01*
X146020796Y-137423066D01*
X146107062Y-137352709D01*
X146169287Y-137301960D01*
X146169290Y-137301957D01*
X146174062Y-137298065D01*
X146226892Y-137234205D01*
X146228416Y-137232363D01*
X146287249Y-137192625D01*
X146358227Y-137191004D01*
X146418815Y-137228013D01*
X146449775Y-137291903D01*
X146451500Y-137312679D01*
X146451500Y-138260583D01*
X146431498Y-138328704D01*
X146377842Y-138375197D01*
X146307568Y-138385301D01*
X146249935Y-138361409D01*
X146213649Y-138334214D01*
X146198054Y-138325676D01*
X146077606Y-138280522D01*
X146062351Y-138276895D01*
X146011486Y-138271369D01*
X146004672Y-138271000D01*
X145732115Y-138271000D01*
X145716876Y-138275475D01*
X145715671Y-138276865D01*
X145714000Y-138284548D01*
X145714000Y-139407000D01*
X145693998Y-139475121D01*
X145640342Y-139521614D01*
X145588000Y-139533000D01*
X144470116Y-139533000D01*
X144454877Y-139537475D01*
X144453672Y-139538865D01*
X144452001Y-139546548D01*
X144452001Y-139823669D01*
X144452371Y-139830490D01*
X144457895Y-139881352D01*
X144461522Y-139896609D01*
X144462896Y-139900274D01*
X144463119Y-139903327D01*
X144463349Y-139904293D01*
X144463193Y-139904330D01*
X144468077Y-139971081D01*
X144434155Y-140033449D01*
X144371898Y-140067576D01*
X144344913Y-140070500D01*
X104594500Y-140070500D01*
X104526379Y-140050498D01*
X104479886Y-139996842D01*
X104468500Y-139944500D01*
X104468500Y-139006885D01*
X144452000Y-139006885D01*
X144456475Y-139022124D01*
X144457865Y-139023329D01*
X144465548Y-139025000D01*
X145187885Y-139025000D01*
X145203124Y-139020525D01*
X145204329Y-139019135D01*
X145206000Y-139011452D01*
X145206000Y-138289116D01*
X145201525Y-138273877D01*
X145200135Y-138272672D01*
X145192452Y-138271001D01*
X144915331Y-138271001D01*
X144908510Y-138271371D01*
X144857648Y-138276895D01*
X144842396Y-138280521D01*
X144721946Y-138325676D01*
X144706351Y-138334214D01*
X144604276Y-138410715D01*
X144591715Y-138423276D01*
X144515214Y-138525351D01*
X144506676Y-138540946D01*
X144461522Y-138661394D01*
X144457895Y-138676649D01*
X144452369Y-138727514D01*
X144452000Y-138734328D01*
X144452000Y-139006885D01*
X104468500Y-139006885D01*
X104468500Y-137313158D01*
X104488502Y-137245037D01*
X104542158Y-137198544D01*
X104612432Y-137188440D01*
X104677012Y-137217934D01*
X104692693Y-137234202D01*
X104735968Y-137288025D01*
X104740692Y-137291989D01*
X104747933Y-137298065D01*
X104887474Y-137415154D01*
X104892872Y-137418121D01*
X104892877Y-137418125D01*
X105036180Y-137496905D01*
X105060787Y-137510433D01*
X105066654Y-137512294D01*
X105066656Y-137512295D01*
X105243436Y-137568373D01*
X105249306Y-137570235D01*
X105403227Y-137587500D01*
X105509769Y-137587500D01*
X105512825Y-137587200D01*
X105512832Y-137587200D01*
X105571340Y-137581463D01*
X105656833Y-137573080D01*
X105662734Y-137571298D01*
X105662736Y-137571298D01*
X105736053Y-137549162D01*
X105846169Y-137515916D01*
X106020796Y-137423066D01*
X106107062Y-137352709D01*
X106169287Y-137301960D01*
X106169290Y-137301957D01*
X106174062Y-137298065D01*
X106226892Y-137234205D01*
X106296201Y-137150425D01*
X106296203Y-137150421D01*
X106300130Y-137145675D01*
X106394198Y-136971701D01*
X106452682Y-136782768D01*
X106473355Y-136586075D01*
X106455430Y-136389112D01*
X106450222Y-136371414D01*
X106401330Y-136205294D01*
X106399590Y-136199381D01*
X106389919Y-136180881D01*
X106310813Y-136029568D01*
X106307960Y-136024110D01*
X106184032Y-135869975D01*
X106177727Y-135864684D01*
X106154080Y-135844842D01*
X106032526Y-135742846D01*
X106027128Y-135739879D01*
X106027123Y-135739875D01*
X105864608Y-135650533D01*
X105864609Y-135650533D01*
X105859213Y-135647567D01*
X105853346Y-135645706D01*
X105853344Y-135645705D01*
X105676564Y-135589627D01*
X105676563Y-135589627D01*
X105670694Y-135587765D01*
X105516773Y-135570500D01*
X105410231Y-135570500D01*
X105407175Y-135570800D01*
X105407168Y-135570800D01*
X105348660Y-135576537D01*
X105263167Y-135584920D01*
X105257266Y-135586702D01*
X105257264Y-135586702D01*
X105183947Y-135608838D01*
X105073831Y-135642084D01*
X104899204Y-135734934D01*
X104812938Y-135805291D01*
X104750713Y-135856040D01*
X104750710Y-135856043D01*
X104745938Y-135859935D01*
X104742011Y-135864682D01*
X104742008Y-135864685D01*
X104691584Y-135925637D01*
X104632751Y-135965375D01*
X104561773Y-135966996D01*
X104501185Y-135929987D01*
X104470225Y-135866097D01*
X104468500Y-135845321D01*
X104468500Y-134897417D01*
X104488502Y-134829296D01*
X104542158Y-134782803D01*
X104612432Y-134772699D01*
X104670065Y-134796591D01*
X104706351Y-134823786D01*
X104721946Y-134832324D01*
X104842394Y-134877478D01*
X104857649Y-134881105D01*
X104908514Y-134886631D01*
X104915328Y-134887000D01*
X105187885Y-134887000D01*
X105203124Y-134882525D01*
X105204329Y-134881135D01*
X105206000Y-134873452D01*
X105206000Y-134868884D01*
X105714000Y-134868884D01*
X105718475Y-134884123D01*
X105719865Y-134885328D01*
X105727548Y-134886999D01*
X106004669Y-134886999D01*
X106011490Y-134886629D01*
X106062352Y-134881105D01*
X106077604Y-134877479D01*
X106198054Y-134832324D01*
X106213649Y-134823786D01*
X106315724Y-134747285D01*
X106328285Y-134734724D01*
X106404786Y-134632649D01*
X106413324Y-134617054D01*
X106458478Y-134496606D01*
X106462105Y-134481351D01*
X106467631Y-134430486D01*
X106468000Y-134423672D01*
X106468000Y-134151115D01*
X106463525Y-134135876D01*
X106462135Y-134134671D01*
X106454452Y-134133000D01*
X105732115Y-134133000D01*
X105716876Y-134137475D01*
X105715671Y-134138865D01*
X105714000Y-134146548D01*
X105714000Y-134868884D01*
X105206000Y-134868884D01*
X105206000Y-133751000D01*
X105226002Y-133682879D01*
X105279658Y-133636386D01*
X105332000Y-133625000D01*
X106449884Y-133625000D01*
X106465123Y-133620525D01*
X106466328Y-133619135D01*
X106467999Y-133611452D01*
X106467999Y-133334331D01*
X106467629Y-133327510D01*
X106462105Y-133276648D01*
X106458478Y-133261391D01*
X106457104Y-133257726D01*
X106456881Y-133254673D01*
X106456651Y-133253707D01*
X106456807Y-133253670D01*
X106451923Y-133186919D01*
X106485845Y-133124551D01*
X106548102Y-133090424D01*
X106575087Y-133087500D01*
X146325500Y-133087500D01*
X146393621Y-133107502D01*
G37*
%TD.AperFunction*%
%TD*%
%TA.AperFunction,Conductor*%
%TO.N,GND*%
G36*
X103393621Y-141107502D02*
G01*
X103440114Y-141161158D01*
X103451500Y-141213500D01*
X103451500Y-143844842D01*
X103431498Y-143912963D01*
X103377842Y-143959456D01*
X103307568Y-143969560D01*
X103242988Y-143940066D01*
X103227304Y-143923795D01*
X103187892Y-143874776D01*
X103184032Y-143869975D01*
X103177727Y-143864684D01*
X103154080Y-143844842D01*
X103032526Y-143742846D01*
X103027128Y-143739879D01*
X103027123Y-143739875D01*
X102864608Y-143650533D01*
X102864609Y-143650533D01*
X102859213Y-143647567D01*
X102853346Y-143645706D01*
X102853344Y-143645705D01*
X102676564Y-143589627D01*
X102676563Y-143589627D01*
X102670694Y-143587765D01*
X102516773Y-143570500D01*
X102410231Y-143570500D01*
X102407175Y-143570800D01*
X102407168Y-143570800D01*
X102348660Y-143576537D01*
X102263167Y-143584920D01*
X102257266Y-143586702D01*
X102257264Y-143586702D01*
X102183947Y-143608838D01*
X102073831Y-143642084D01*
X101899204Y-143734934D01*
X101812938Y-143805291D01*
X101750713Y-143856040D01*
X101750710Y-143856043D01*
X101745938Y-143859935D01*
X101742011Y-143864682D01*
X101742009Y-143864684D01*
X101623799Y-144007575D01*
X101623797Y-144007579D01*
X101619870Y-144012325D01*
X101525802Y-144186299D01*
X101467318Y-144375232D01*
X101446645Y-144571925D01*
X101464570Y-144768888D01*
X101466308Y-144774794D01*
X101466309Y-144774798D01*
X101470387Y-144788653D01*
X101520410Y-144958619D01*
X101523263Y-144964077D01*
X101523265Y-144964081D01*
X101570720Y-145054853D01*
X101612040Y-145133890D01*
X101735968Y-145288025D01*
X101740692Y-145291989D01*
X101747933Y-145298065D01*
X101887474Y-145415154D01*
X101892872Y-145418121D01*
X101892877Y-145418125D01*
X102036180Y-145496905D01*
X102060787Y-145510433D01*
X102066654Y-145512294D01*
X102066656Y-145512295D01*
X102243436Y-145568373D01*
X102249306Y-145570235D01*
X102403227Y-145587500D01*
X102509769Y-145587500D01*
X102512825Y-145587200D01*
X102512832Y-145587200D01*
X102571340Y-145581463D01*
X102656833Y-145573080D01*
X102662734Y-145571298D01*
X102662736Y-145571298D01*
X102736053Y-145549162D01*
X102846169Y-145515916D01*
X103020796Y-145423066D01*
X103107062Y-145352709D01*
X103169287Y-145301960D01*
X103169290Y-145301957D01*
X103174062Y-145298065D01*
X103226892Y-145234205D01*
X103228416Y-145232363D01*
X103287249Y-145192625D01*
X103358227Y-145191004D01*
X103418815Y-145228013D01*
X103449775Y-145291903D01*
X103451500Y-145312679D01*
X103451500Y-146260583D01*
X103431498Y-146328704D01*
X103377842Y-146375197D01*
X103307568Y-146385301D01*
X103249935Y-146361409D01*
X103213649Y-146334214D01*
X103198054Y-146325676D01*
X103077606Y-146280522D01*
X103062351Y-146276895D01*
X103011486Y-146271369D01*
X103004672Y-146271000D01*
X102732115Y-146271000D01*
X102716876Y-146275475D01*
X102715671Y-146276865D01*
X102714000Y-146284548D01*
X102714000Y-147407000D01*
X102693998Y-147475121D01*
X102640342Y-147521614D01*
X102588000Y-147533000D01*
X101470116Y-147533000D01*
X101454877Y-147537475D01*
X101453672Y-147538865D01*
X101452001Y-147546548D01*
X101452001Y-147823669D01*
X101452371Y-147830490D01*
X101457895Y-147881352D01*
X101461522Y-147896609D01*
X101462896Y-147900274D01*
X101463119Y-147903327D01*
X101463349Y-147904293D01*
X101463193Y-147904330D01*
X101468077Y-147971081D01*
X101434155Y-148033449D01*
X101371898Y-148067576D01*
X101344913Y-148070500D01*
X61594500Y-148070500D01*
X61526379Y-148050498D01*
X61479886Y-147996842D01*
X61468500Y-147944500D01*
X61468500Y-147006885D01*
X101452000Y-147006885D01*
X101456475Y-147022124D01*
X101457865Y-147023329D01*
X101465548Y-147025000D01*
X102187885Y-147025000D01*
X102203124Y-147020525D01*
X102204329Y-147019135D01*
X102206000Y-147011452D01*
X102206000Y-146289116D01*
X102201525Y-146273877D01*
X102200135Y-146272672D01*
X102192452Y-146271001D01*
X101915331Y-146271001D01*
X101908510Y-146271371D01*
X101857648Y-146276895D01*
X101842396Y-146280521D01*
X101721946Y-146325676D01*
X101706351Y-146334214D01*
X101604276Y-146410715D01*
X101591715Y-146423276D01*
X101515214Y-146525351D01*
X101506676Y-146540946D01*
X101461522Y-146661394D01*
X101457895Y-146676649D01*
X101452369Y-146727514D01*
X101452000Y-146734328D01*
X101452000Y-147006885D01*
X61468500Y-147006885D01*
X61468500Y-145313158D01*
X61488502Y-145245037D01*
X61542158Y-145198544D01*
X61612432Y-145188440D01*
X61677012Y-145217934D01*
X61692693Y-145234202D01*
X61735968Y-145288025D01*
X61740692Y-145291989D01*
X61747933Y-145298065D01*
X61887474Y-145415154D01*
X61892872Y-145418121D01*
X61892877Y-145418125D01*
X62036180Y-145496905D01*
X62060787Y-145510433D01*
X62066654Y-145512294D01*
X62066656Y-145512295D01*
X62243436Y-145568373D01*
X62249306Y-145570235D01*
X62403227Y-145587500D01*
X62509769Y-145587500D01*
X62512825Y-145587200D01*
X62512832Y-145587200D01*
X62571340Y-145581463D01*
X62656833Y-145573080D01*
X62662734Y-145571298D01*
X62662736Y-145571298D01*
X62736053Y-145549162D01*
X62846169Y-145515916D01*
X63020796Y-145423066D01*
X63107062Y-145352709D01*
X63169287Y-145301960D01*
X63169290Y-145301957D01*
X63174062Y-145298065D01*
X63226892Y-145234205D01*
X63296201Y-145150425D01*
X63296203Y-145150421D01*
X63300130Y-145145675D01*
X63394198Y-144971701D01*
X63452682Y-144782768D01*
X63473355Y-144586075D01*
X63455430Y-144389112D01*
X63450222Y-144371414D01*
X63401330Y-144205294D01*
X63399590Y-144199381D01*
X63389919Y-144180881D01*
X63310813Y-144029568D01*
X63307960Y-144024110D01*
X63184032Y-143869975D01*
X63177727Y-143864684D01*
X63154080Y-143844842D01*
X63032526Y-143742846D01*
X63027128Y-143739879D01*
X63027123Y-143739875D01*
X62864608Y-143650533D01*
X62864609Y-143650533D01*
X62859213Y-143647567D01*
X62853346Y-143645706D01*
X62853344Y-143645705D01*
X62676564Y-143589627D01*
X62676563Y-143589627D01*
X62670694Y-143587765D01*
X62516773Y-143570500D01*
X62410231Y-143570500D01*
X62407175Y-143570800D01*
X62407168Y-143570800D01*
X62348660Y-143576537D01*
X62263167Y-143584920D01*
X62257266Y-143586702D01*
X62257264Y-143586702D01*
X62183947Y-143608838D01*
X62073831Y-143642084D01*
X61899204Y-143734934D01*
X61812938Y-143805291D01*
X61750713Y-143856040D01*
X61750710Y-143856043D01*
X61745938Y-143859935D01*
X61742011Y-143864682D01*
X61742008Y-143864685D01*
X61691584Y-143925637D01*
X61632751Y-143965375D01*
X61561773Y-143966996D01*
X61501185Y-143929987D01*
X61470225Y-143866097D01*
X61468500Y-143845321D01*
X61468500Y-142897417D01*
X61488502Y-142829296D01*
X61542158Y-142782803D01*
X61612432Y-142772699D01*
X61670065Y-142796591D01*
X61706351Y-142823786D01*
X61721946Y-142832324D01*
X61842394Y-142877478D01*
X61857649Y-142881105D01*
X61908514Y-142886631D01*
X61915328Y-142887000D01*
X62187885Y-142887000D01*
X62203124Y-142882525D01*
X62204329Y-142881135D01*
X62206000Y-142873452D01*
X62206000Y-142868884D01*
X62714000Y-142868884D01*
X62718475Y-142884123D01*
X62719865Y-142885328D01*
X62727548Y-142886999D01*
X63004669Y-142886999D01*
X63011490Y-142886629D01*
X63062352Y-142881105D01*
X63077604Y-142877479D01*
X63198054Y-142832324D01*
X63213649Y-142823786D01*
X63315724Y-142747285D01*
X63328285Y-142734724D01*
X63404786Y-142632649D01*
X63413324Y-142617054D01*
X63458478Y-142496606D01*
X63462105Y-142481351D01*
X63467631Y-142430486D01*
X63468000Y-142423672D01*
X63468000Y-142151115D01*
X63463525Y-142135876D01*
X63462135Y-142134671D01*
X63454452Y-142133000D01*
X62732115Y-142133000D01*
X62716876Y-142137475D01*
X62715671Y-142138865D01*
X62714000Y-142146548D01*
X62714000Y-142868884D01*
X62206000Y-142868884D01*
X62206000Y-141751000D01*
X62226002Y-141682879D01*
X62279658Y-141636386D01*
X62332000Y-141625000D01*
X63449884Y-141625000D01*
X63465123Y-141620525D01*
X63466328Y-141619135D01*
X63467999Y-141611452D01*
X63467999Y-141334331D01*
X63467629Y-141327510D01*
X63462105Y-141276648D01*
X63458478Y-141261391D01*
X63457104Y-141257726D01*
X63456881Y-141254673D01*
X63456651Y-141253707D01*
X63456807Y-141253670D01*
X63451923Y-141186919D01*
X63485845Y-141124551D01*
X63548102Y-141090424D01*
X63575087Y-141087500D01*
X103325500Y-141087500D01*
X103393621Y-141107502D01*
G37*
%TD.AperFunction*%
%TD*%
%TA.AperFunction,Conductor*%
%TO.N,GND*%
G36*
X146393621Y-141107502D02*
G01*
X146440114Y-141161158D01*
X146451500Y-141213500D01*
X146451500Y-143844842D01*
X146431498Y-143912963D01*
X146377842Y-143959456D01*
X146307568Y-143969560D01*
X146242988Y-143940066D01*
X146227304Y-143923795D01*
X146187892Y-143874776D01*
X146184032Y-143869975D01*
X146177727Y-143864684D01*
X146154080Y-143844842D01*
X146032526Y-143742846D01*
X146027128Y-143739879D01*
X146027123Y-143739875D01*
X145864608Y-143650533D01*
X145864609Y-143650533D01*
X145859213Y-143647567D01*
X145853346Y-143645706D01*
X145853344Y-143645705D01*
X145676564Y-143589627D01*
X145676563Y-143589627D01*
X145670694Y-143587765D01*
X145516773Y-143570500D01*
X145410231Y-143570500D01*
X145407175Y-143570800D01*
X145407168Y-143570800D01*
X145348660Y-143576537D01*
X145263167Y-143584920D01*
X145257266Y-143586702D01*
X145257264Y-143586702D01*
X145183947Y-143608838D01*
X145073831Y-143642084D01*
X144899204Y-143734934D01*
X144812938Y-143805291D01*
X144750713Y-143856040D01*
X144750710Y-143856043D01*
X144745938Y-143859935D01*
X144742011Y-143864682D01*
X144742009Y-143864684D01*
X144623799Y-144007575D01*
X144623797Y-144007579D01*
X144619870Y-144012325D01*
X144525802Y-144186299D01*
X144467318Y-144375232D01*
X144446645Y-144571925D01*
X144464570Y-144768888D01*
X144466308Y-144774794D01*
X144466309Y-144774798D01*
X144470387Y-144788653D01*
X144520410Y-144958619D01*
X144523263Y-144964077D01*
X144523265Y-144964081D01*
X144570720Y-145054853D01*
X144612040Y-145133890D01*
X144735968Y-145288025D01*
X144740692Y-145291989D01*
X144747933Y-145298065D01*
X144887474Y-145415154D01*
X144892872Y-145418121D01*
X144892877Y-145418125D01*
X145036180Y-145496905D01*
X145060787Y-145510433D01*
X145066654Y-145512294D01*
X145066656Y-145512295D01*
X145243436Y-145568373D01*
X145249306Y-145570235D01*
X145403227Y-145587500D01*
X145509769Y-145587500D01*
X145512825Y-145587200D01*
X145512832Y-145587200D01*
X145571340Y-145581463D01*
X145656833Y-145573080D01*
X145662734Y-145571298D01*
X145662736Y-145571298D01*
X145736053Y-145549162D01*
X145846169Y-145515916D01*
X146020796Y-145423066D01*
X146107062Y-145352709D01*
X146169287Y-145301960D01*
X146169290Y-145301957D01*
X146174062Y-145298065D01*
X146226892Y-145234205D01*
X146228416Y-145232363D01*
X146287249Y-145192625D01*
X146358227Y-145191004D01*
X146418815Y-145228013D01*
X146449775Y-145291903D01*
X146451500Y-145312679D01*
X146451500Y-146260583D01*
X146431498Y-146328704D01*
X146377842Y-146375197D01*
X146307568Y-146385301D01*
X146249935Y-146361409D01*
X146213649Y-146334214D01*
X146198054Y-146325676D01*
X146077606Y-146280522D01*
X146062351Y-146276895D01*
X146011486Y-146271369D01*
X146004672Y-146271000D01*
X145732115Y-146271000D01*
X145716876Y-146275475D01*
X145715671Y-146276865D01*
X145714000Y-146284548D01*
X145714000Y-147407000D01*
X145693998Y-147475121D01*
X145640342Y-147521614D01*
X145588000Y-147533000D01*
X144470116Y-147533000D01*
X144454877Y-147537475D01*
X144453672Y-147538865D01*
X144452001Y-147546548D01*
X144452001Y-147823669D01*
X144452371Y-147830490D01*
X144457895Y-147881352D01*
X144461522Y-147896609D01*
X144462896Y-147900274D01*
X144463119Y-147903327D01*
X144463349Y-147904293D01*
X144463193Y-147904330D01*
X144468077Y-147971081D01*
X144434155Y-148033449D01*
X144371898Y-148067576D01*
X144344913Y-148070500D01*
X104594500Y-148070500D01*
X104526379Y-148050498D01*
X104479886Y-147996842D01*
X104468500Y-147944500D01*
X104468500Y-147006885D01*
X144452000Y-147006885D01*
X144456475Y-147022124D01*
X144457865Y-147023329D01*
X144465548Y-147025000D01*
X145187885Y-147025000D01*
X145203124Y-147020525D01*
X145204329Y-147019135D01*
X145206000Y-147011452D01*
X145206000Y-146289116D01*
X145201525Y-146273877D01*
X145200135Y-146272672D01*
X145192452Y-146271001D01*
X144915331Y-146271001D01*
X144908510Y-146271371D01*
X144857648Y-146276895D01*
X144842396Y-146280521D01*
X144721946Y-146325676D01*
X144706351Y-146334214D01*
X144604276Y-146410715D01*
X144591715Y-146423276D01*
X144515214Y-146525351D01*
X144506676Y-146540946D01*
X144461522Y-146661394D01*
X144457895Y-146676649D01*
X144452369Y-146727514D01*
X144452000Y-146734328D01*
X144452000Y-147006885D01*
X104468500Y-147006885D01*
X104468500Y-145313158D01*
X104488502Y-145245037D01*
X104542158Y-145198544D01*
X104612432Y-145188440D01*
X104677012Y-145217934D01*
X104692693Y-145234202D01*
X104735968Y-145288025D01*
X104740692Y-145291989D01*
X104747933Y-145298065D01*
X104887474Y-145415154D01*
X104892872Y-145418121D01*
X104892877Y-145418125D01*
X105036180Y-145496905D01*
X105060787Y-145510433D01*
X105066654Y-145512294D01*
X105066656Y-145512295D01*
X105243436Y-145568373D01*
X105249306Y-145570235D01*
X105403227Y-145587500D01*
X105509769Y-145587500D01*
X105512825Y-145587200D01*
X105512832Y-145587200D01*
X105571340Y-145581463D01*
X105656833Y-145573080D01*
X105662734Y-145571298D01*
X105662736Y-145571298D01*
X105736053Y-145549162D01*
X105846169Y-145515916D01*
X106020796Y-145423066D01*
X106107062Y-145352709D01*
X106169287Y-145301960D01*
X106169290Y-145301957D01*
X106174062Y-145298065D01*
X106226892Y-145234205D01*
X106296201Y-145150425D01*
X106296203Y-145150421D01*
X106300130Y-145145675D01*
X106394198Y-144971701D01*
X106452682Y-144782768D01*
X106473355Y-144586075D01*
X106455430Y-144389112D01*
X106450222Y-144371414D01*
X106401330Y-144205294D01*
X106399590Y-144199381D01*
X106389919Y-144180881D01*
X106310813Y-144029568D01*
X106307960Y-144024110D01*
X106184032Y-143869975D01*
X106177727Y-143864684D01*
X106154080Y-143844842D01*
X106032526Y-143742846D01*
X106027128Y-143739879D01*
X106027123Y-143739875D01*
X105864608Y-143650533D01*
X105864609Y-143650533D01*
X105859213Y-143647567D01*
X105853346Y-143645706D01*
X105853344Y-143645705D01*
X105676564Y-143589627D01*
X105676563Y-143589627D01*
X105670694Y-143587765D01*
X105516773Y-143570500D01*
X105410231Y-143570500D01*
X105407175Y-143570800D01*
X105407168Y-143570800D01*
X105348660Y-143576537D01*
X105263167Y-143584920D01*
X105257266Y-143586702D01*
X105257264Y-143586702D01*
X105183947Y-143608838D01*
X105073831Y-143642084D01*
X104899204Y-143734934D01*
X104812938Y-143805291D01*
X104750713Y-143856040D01*
X104750710Y-143856043D01*
X104745938Y-143859935D01*
X104742011Y-143864682D01*
X104742008Y-143864685D01*
X104691584Y-143925637D01*
X104632751Y-143965375D01*
X104561773Y-143966996D01*
X104501185Y-143929987D01*
X104470225Y-143866097D01*
X104468500Y-143845321D01*
X104468500Y-142897417D01*
X104488502Y-142829296D01*
X104542158Y-142782803D01*
X104612432Y-142772699D01*
X104670065Y-142796591D01*
X104706351Y-142823786D01*
X104721946Y-142832324D01*
X104842394Y-142877478D01*
X104857649Y-142881105D01*
X104908514Y-142886631D01*
X104915328Y-142887000D01*
X105187885Y-142887000D01*
X105203124Y-142882525D01*
X105204329Y-142881135D01*
X105206000Y-142873452D01*
X105206000Y-142868884D01*
X105714000Y-142868884D01*
X105718475Y-142884123D01*
X105719865Y-142885328D01*
X105727548Y-142886999D01*
X106004669Y-142886999D01*
X106011490Y-142886629D01*
X106062352Y-142881105D01*
X106077604Y-142877479D01*
X106198054Y-142832324D01*
X106213649Y-142823786D01*
X106315724Y-142747285D01*
X106328285Y-142734724D01*
X106404786Y-142632649D01*
X106413324Y-142617054D01*
X106458478Y-142496606D01*
X106462105Y-142481351D01*
X106467631Y-142430486D01*
X106468000Y-142423672D01*
X106468000Y-142151115D01*
X106463525Y-142135876D01*
X106462135Y-142134671D01*
X106454452Y-142133000D01*
X105732115Y-142133000D01*
X105716876Y-142137475D01*
X105715671Y-142138865D01*
X105714000Y-142146548D01*
X105714000Y-142868884D01*
X105206000Y-142868884D01*
X105206000Y-141751000D01*
X105226002Y-141682879D01*
X105279658Y-141636386D01*
X105332000Y-141625000D01*
X106449884Y-141625000D01*
X106465123Y-141620525D01*
X106466328Y-141619135D01*
X106467999Y-141611452D01*
X106467999Y-141334331D01*
X106467629Y-141327510D01*
X106462105Y-141276648D01*
X106458478Y-141261391D01*
X106457104Y-141257726D01*
X106456881Y-141254673D01*
X106456651Y-141253707D01*
X106456807Y-141253670D01*
X106451923Y-141186919D01*
X106485845Y-141124551D01*
X106548102Y-141090424D01*
X106575087Y-141087500D01*
X146325500Y-141087500D01*
X146393621Y-141107502D01*
G37*
%TD.AperFunction*%
%TD*%
%TA.AperFunction,Conductor*%
%TO.N,GND*%
G36*
X103393621Y-149107502D02*
G01*
X103440114Y-149161158D01*
X103451500Y-149213500D01*
X103451500Y-151844842D01*
X103431498Y-151912963D01*
X103377842Y-151959456D01*
X103307568Y-151969560D01*
X103242988Y-151940066D01*
X103227304Y-151923795D01*
X103187892Y-151874776D01*
X103184032Y-151869975D01*
X103177727Y-151864684D01*
X103154080Y-151844842D01*
X103032526Y-151742846D01*
X103027128Y-151739879D01*
X103027123Y-151739875D01*
X102864608Y-151650533D01*
X102864609Y-151650533D01*
X102859213Y-151647567D01*
X102853346Y-151645706D01*
X102853344Y-151645705D01*
X102676564Y-151589627D01*
X102676563Y-151589627D01*
X102670694Y-151587765D01*
X102516773Y-151570500D01*
X102410231Y-151570500D01*
X102407175Y-151570800D01*
X102407168Y-151570800D01*
X102348660Y-151576537D01*
X102263167Y-151584920D01*
X102257266Y-151586702D01*
X102257264Y-151586702D01*
X102183947Y-151608838D01*
X102073831Y-151642084D01*
X101899204Y-151734934D01*
X101812938Y-151805291D01*
X101750713Y-151856040D01*
X101750710Y-151856043D01*
X101745938Y-151859935D01*
X101742011Y-151864682D01*
X101742009Y-151864684D01*
X101623799Y-152007575D01*
X101623797Y-152007579D01*
X101619870Y-152012325D01*
X101525802Y-152186299D01*
X101467318Y-152375232D01*
X101446645Y-152571925D01*
X101464570Y-152768888D01*
X101466308Y-152774794D01*
X101466309Y-152774798D01*
X101470387Y-152788653D01*
X101520410Y-152958619D01*
X101523263Y-152964077D01*
X101523265Y-152964081D01*
X101570720Y-153054853D01*
X101612040Y-153133890D01*
X101735968Y-153288025D01*
X101740692Y-153291989D01*
X101747933Y-153298065D01*
X101887474Y-153415154D01*
X101892872Y-153418121D01*
X101892877Y-153418125D01*
X102036180Y-153496905D01*
X102060787Y-153510433D01*
X102066654Y-153512294D01*
X102066656Y-153512295D01*
X102243436Y-153568373D01*
X102249306Y-153570235D01*
X102403227Y-153587500D01*
X102509769Y-153587500D01*
X102512825Y-153587200D01*
X102512832Y-153587200D01*
X102571340Y-153581463D01*
X102656833Y-153573080D01*
X102662734Y-153571298D01*
X102662736Y-153571298D01*
X102736053Y-153549162D01*
X102846169Y-153515916D01*
X103020796Y-153423066D01*
X103107062Y-153352709D01*
X103169287Y-153301960D01*
X103169290Y-153301957D01*
X103174062Y-153298065D01*
X103226892Y-153234205D01*
X103228416Y-153232363D01*
X103287249Y-153192625D01*
X103358227Y-153191004D01*
X103418815Y-153228013D01*
X103449775Y-153291903D01*
X103451500Y-153312679D01*
X103451500Y-154260583D01*
X103431498Y-154328704D01*
X103377842Y-154375197D01*
X103307568Y-154385301D01*
X103249935Y-154361409D01*
X103213649Y-154334214D01*
X103198054Y-154325676D01*
X103077606Y-154280522D01*
X103062351Y-154276895D01*
X103011486Y-154271369D01*
X103004672Y-154271000D01*
X102732115Y-154271000D01*
X102716876Y-154275475D01*
X102715671Y-154276865D01*
X102714000Y-154284548D01*
X102714000Y-155407000D01*
X102693998Y-155475121D01*
X102640342Y-155521614D01*
X102588000Y-155533000D01*
X101470116Y-155533000D01*
X101454877Y-155537475D01*
X101453672Y-155538865D01*
X101452001Y-155546548D01*
X101452001Y-155823669D01*
X101452371Y-155830490D01*
X101457895Y-155881352D01*
X101461522Y-155896609D01*
X101462896Y-155900274D01*
X101463119Y-155903327D01*
X101463349Y-155904293D01*
X101463193Y-155904330D01*
X101468077Y-155971081D01*
X101434155Y-156033449D01*
X101371898Y-156067576D01*
X101344913Y-156070500D01*
X61594500Y-156070500D01*
X61526379Y-156050498D01*
X61479886Y-155996842D01*
X61468500Y-155944500D01*
X61468500Y-155006885D01*
X101452000Y-155006885D01*
X101456475Y-155022124D01*
X101457865Y-155023329D01*
X101465548Y-155025000D01*
X102187885Y-155025000D01*
X102203124Y-155020525D01*
X102204329Y-155019135D01*
X102206000Y-155011452D01*
X102206000Y-154289116D01*
X102201525Y-154273877D01*
X102200135Y-154272672D01*
X102192452Y-154271001D01*
X101915331Y-154271001D01*
X101908510Y-154271371D01*
X101857648Y-154276895D01*
X101842396Y-154280521D01*
X101721946Y-154325676D01*
X101706351Y-154334214D01*
X101604276Y-154410715D01*
X101591715Y-154423276D01*
X101515214Y-154525351D01*
X101506676Y-154540946D01*
X101461522Y-154661394D01*
X101457895Y-154676649D01*
X101452369Y-154727514D01*
X101452000Y-154734328D01*
X101452000Y-155006885D01*
X61468500Y-155006885D01*
X61468500Y-153313158D01*
X61488502Y-153245037D01*
X61542158Y-153198544D01*
X61612432Y-153188440D01*
X61677012Y-153217934D01*
X61692693Y-153234202D01*
X61735968Y-153288025D01*
X61740692Y-153291989D01*
X61747933Y-153298065D01*
X61887474Y-153415154D01*
X61892872Y-153418121D01*
X61892877Y-153418125D01*
X62036180Y-153496905D01*
X62060787Y-153510433D01*
X62066654Y-153512294D01*
X62066656Y-153512295D01*
X62243436Y-153568373D01*
X62249306Y-153570235D01*
X62403227Y-153587500D01*
X62509769Y-153587500D01*
X62512825Y-153587200D01*
X62512832Y-153587200D01*
X62571340Y-153581463D01*
X62656833Y-153573080D01*
X62662734Y-153571298D01*
X62662736Y-153571298D01*
X62736053Y-153549162D01*
X62846169Y-153515916D01*
X63020796Y-153423066D01*
X63107062Y-153352709D01*
X63169287Y-153301960D01*
X63169290Y-153301957D01*
X63174062Y-153298065D01*
X63226892Y-153234205D01*
X63296201Y-153150425D01*
X63296203Y-153150421D01*
X63300130Y-153145675D01*
X63394198Y-152971701D01*
X63452682Y-152782768D01*
X63473355Y-152586075D01*
X63455430Y-152389112D01*
X63450222Y-152371414D01*
X63401330Y-152205294D01*
X63399590Y-152199381D01*
X63389919Y-152180881D01*
X63310813Y-152029568D01*
X63307960Y-152024110D01*
X63184032Y-151869975D01*
X63177727Y-151864684D01*
X63154080Y-151844842D01*
X63032526Y-151742846D01*
X63027128Y-151739879D01*
X63027123Y-151739875D01*
X62864608Y-151650533D01*
X62864609Y-151650533D01*
X62859213Y-151647567D01*
X62853346Y-151645706D01*
X62853344Y-151645705D01*
X62676564Y-151589627D01*
X62676563Y-151589627D01*
X62670694Y-151587765D01*
X62516773Y-151570500D01*
X62410231Y-151570500D01*
X62407175Y-151570800D01*
X62407168Y-151570800D01*
X62348660Y-151576537D01*
X62263167Y-151584920D01*
X62257266Y-151586702D01*
X62257264Y-151586702D01*
X62183947Y-151608838D01*
X62073831Y-151642084D01*
X61899204Y-151734934D01*
X61812938Y-151805291D01*
X61750713Y-151856040D01*
X61750710Y-151856043D01*
X61745938Y-151859935D01*
X61742011Y-151864682D01*
X61742008Y-151864685D01*
X61691584Y-151925637D01*
X61632751Y-151965375D01*
X61561773Y-151966996D01*
X61501185Y-151929987D01*
X61470225Y-151866097D01*
X61468500Y-151845321D01*
X61468500Y-150897417D01*
X61488502Y-150829296D01*
X61542158Y-150782803D01*
X61612432Y-150772699D01*
X61670065Y-150796591D01*
X61706351Y-150823786D01*
X61721946Y-150832324D01*
X61842394Y-150877478D01*
X61857649Y-150881105D01*
X61908514Y-150886631D01*
X61915328Y-150887000D01*
X62187885Y-150887000D01*
X62203124Y-150882525D01*
X62204329Y-150881135D01*
X62206000Y-150873452D01*
X62206000Y-150868884D01*
X62714000Y-150868884D01*
X62718475Y-150884123D01*
X62719865Y-150885328D01*
X62727548Y-150886999D01*
X63004669Y-150886999D01*
X63011490Y-150886629D01*
X63062352Y-150881105D01*
X63077604Y-150877479D01*
X63198054Y-150832324D01*
X63213649Y-150823786D01*
X63315724Y-150747285D01*
X63328285Y-150734724D01*
X63404786Y-150632649D01*
X63413324Y-150617054D01*
X63458478Y-150496606D01*
X63462105Y-150481351D01*
X63467631Y-150430486D01*
X63468000Y-150423672D01*
X63468000Y-150151115D01*
X63463525Y-150135876D01*
X63462135Y-150134671D01*
X63454452Y-150133000D01*
X62732115Y-150133000D01*
X62716876Y-150137475D01*
X62715671Y-150138865D01*
X62714000Y-150146548D01*
X62714000Y-150868884D01*
X62206000Y-150868884D01*
X62206000Y-149751000D01*
X62226002Y-149682879D01*
X62279658Y-149636386D01*
X62332000Y-149625000D01*
X63449884Y-149625000D01*
X63465123Y-149620525D01*
X63466328Y-149619135D01*
X63467999Y-149611452D01*
X63467999Y-149334331D01*
X63467629Y-149327510D01*
X63462105Y-149276648D01*
X63458478Y-149261391D01*
X63457104Y-149257726D01*
X63456881Y-149254673D01*
X63456651Y-149253707D01*
X63456807Y-149253670D01*
X63451923Y-149186919D01*
X63485845Y-149124551D01*
X63548102Y-149090424D01*
X63575087Y-149087500D01*
X103325500Y-149087500D01*
X103393621Y-149107502D01*
G37*
%TD.AperFunction*%
%TD*%
%TA.AperFunction,Conductor*%
%TO.N,GND*%
G36*
X146393621Y-149107502D02*
G01*
X146440114Y-149161158D01*
X146451500Y-149213500D01*
X146451500Y-151844842D01*
X146431498Y-151912963D01*
X146377842Y-151959456D01*
X146307568Y-151969560D01*
X146242988Y-151940066D01*
X146227304Y-151923795D01*
X146187892Y-151874776D01*
X146184032Y-151869975D01*
X146177727Y-151864684D01*
X146154080Y-151844842D01*
X146032526Y-151742846D01*
X146027128Y-151739879D01*
X146027123Y-151739875D01*
X145864608Y-151650533D01*
X145864609Y-151650533D01*
X145859213Y-151647567D01*
X145853346Y-151645706D01*
X145853344Y-151645705D01*
X145676564Y-151589627D01*
X145676563Y-151589627D01*
X145670694Y-151587765D01*
X145516773Y-151570500D01*
X145410231Y-151570500D01*
X145407175Y-151570800D01*
X145407168Y-151570800D01*
X145348660Y-151576537D01*
X145263167Y-151584920D01*
X145257266Y-151586702D01*
X145257264Y-151586702D01*
X145183947Y-151608838D01*
X145073831Y-151642084D01*
X144899204Y-151734934D01*
X144812938Y-151805291D01*
X144750713Y-151856040D01*
X144750710Y-151856043D01*
X144745938Y-151859935D01*
X144742011Y-151864682D01*
X144742009Y-151864684D01*
X144623799Y-152007575D01*
X144623797Y-152007579D01*
X144619870Y-152012325D01*
X144525802Y-152186299D01*
X144467318Y-152375232D01*
X144446645Y-152571925D01*
X144464570Y-152768888D01*
X144466308Y-152774794D01*
X144466309Y-152774798D01*
X144470387Y-152788653D01*
X144520410Y-152958619D01*
X144523263Y-152964077D01*
X144523265Y-152964081D01*
X144570720Y-153054853D01*
X144612040Y-153133890D01*
X144735968Y-153288025D01*
X144740692Y-153291989D01*
X144747933Y-153298065D01*
X144887474Y-153415154D01*
X144892872Y-153418121D01*
X144892877Y-153418125D01*
X145036180Y-153496905D01*
X145060787Y-153510433D01*
X145066654Y-153512294D01*
X145066656Y-153512295D01*
X145243436Y-153568373D01*
X145249306Y-153570235D01*
X145403227Y-153587500D01*
X145509769Y-153587500D01*
X145512825Y-153587200D01*
X145512832Y-153587200D01*
X145571340Y-153581463D01*
X145656833Y-153573080D01*
X145662734Y-153571298D01*
X145662736Y-153571298D01*
X145736053Y-153549162D01*
X145846169Y-153515916D01*
X146020796Y-153423066D01*
X146107062Y-153352709D01*
X146169287Y-153301960D01*
X146169290Y-153301957D01*
X146174062Y-153298065D01*
X146226892Y-153234205D01*
X146228416Y-153232363D01*
X146287249Y-153192625D01*
X146358227Y-153191004D01*
X146418815Y-153228013D01*
X146449775Y-153291903D01*
X146451500Y-153312679D01*
X146451500Y-154260583D01*
X146431498Y-154328704D01*
X146377842Y-154375197D01*
X146307568Y-154385301D01*
X146249935Y-154361409D01*
X146213649Y-154334214D01*
X146198054Y-154325676D01*
X146077606Y-154280522D01*
X146062351Y-154276895D01*
X146011486Y-154271369D01*
X146004672Y-154271000D01*
X145732115Y-154271000D01*
X145716876Y-154275475D01*
X145715671Y-154276865D01*
X145714000Y-154284548D01*
X145714000Y-155407000D01*
X145693998Y-155475121D01*
X145640342Y-155521614D01*
X145588000Y-155533000D01*
X144470116Y-155533000D01*
X144454877Y-155537475D01*
X144453672Y-155538865D01*
X144452001Y-155546548D01*
X144452001Y-155823669D01*
X144452371Y-155830490D01*
X144457895Y-155881352D01*
X144461522Y-155896609D01*
X144462896Y-155900274D01*
X144463119Y-155903327D01*
X144463349Y-155904293D01*
X144463193Y-155904330D01*
X144468077Y-155971081D01*
X144434155Y-156033449D01*
X144371898Y-156067576D01*
X144344913Y-156070500D01*
X104594500Y-156070500D01*
X104526379Y-156050498D01*
X104479886Y-155996842D01*
X104468500Y-155944500D01*
X104468500Y-155006885D01*
X144452000Y-155006885D01*
X144456475Y-155022124D01*
X144457865Y-155023329D01*
X144465548Y-155025000D01*
X145187885Y-155025000D01*
X145203124Y-155020525D01*
X145204329Y-155019135D01*
X145206000Y-155011452D01*
X145206000Y-154289116D01*
X145201525Y-154273877D01*
X145200135Y-154272672D01*
X145192452Y-154271001D01*
X144915331Y-154271001D01*
X144908510Y-154271371D01*
X144857648Y-154276895D01*
X144842396Y-154280521D01*
X144721946Y-154325676D01*
X144706351Y-154334214D01*
X144604276Y-154410715D01*
X144591715Y-154423276D01*
X144515214Y-154525351D01*
X144506676Y-154540946D01*
X144461522Y-154661394D01*
X144457895Y-154676649D01*
X144452369Y-154727514D01*
X144452000Y-154734328D01*
X144452000Y-155006885D01*
X104468500Y-155006885D01*
X104468500Y-153313158D01*
X104488502Y-153245037D01*
X104542158Y-153198544D01*
X104612432Y-153188440D01*
X104677012Y-153217934D01*
X104692693Y-153234202D01*
X104735968Y-153288025D01*
X104740692Y-153291989D01*
X104747933Y-153298065D01*
X104887474Y-153415154D01*
X104892872Y-153418121D01*
X104892877Y-153418125D01*
X105036180Y-153496905D01*
X105060787Y-153510433D01*
X105066654Y-153512294D01*
X105066656Y-153512295D01*
X105243436Y-153568373D01*
X105249306Y-153570235D01*
X105403227Y-153587500D01*
X105509769Y-153587500D01*
X105512825Y-153587200D01*
X105512832Y-153587200D01*
X105571340Y-153581463D01*
X105656833Y-153573080D01*
X105662734Y-153571298D01*
X105662736Y-153571298D01*
X105736053Y-153549162D01*
X105846169Y-153515916D01*
X106020796Y-153423066D01*
X106107062Y-153352709D01*
X106169287Y-153301960D01*
X106169290Y-153301957D01*
X106174062Y-153298065D01*
X106226892Y-153234205D01*
X106296201Y-153150425D01*
X106296203Y-153150421D01*
X106300130Y-153145675D01*
X106394198Y-152971701D01*
X106452682Y-152782768D01*
X106473355Y-152586075D01*
X106455430Y-152389112D01*
X106450222Y-152371414D01*
X106401330Y-152205294D01*
X106399590Y-152199381D01*
X106389919Y-152180881D01*
X106310813Y-152029568D01*
X106307960Y-152024110D01*
X106184032Y-151869975D01*
X106177727Y-151864684D01*
X106154080Y-151844842D01*
X106032526Y-151742846D01*
X106027128Y-151739879D01*
X106027123Y-151739875D01*
X105864608Y-151650533D01*
X105864609Y-151650533D01*
X105859213Y-151647567D01*
X105853346Y-151645706D01*
X105853344Y-151645705D01*
X105676564Y-151589627D01*
X105676563Y-151589627D01*
X105670694Y-151587765D01*
X105516773Y-151570500D01*
X105410231Y-151570500D01*
X105407175Y-151570800D01*
X105407168Y-151570800D01*
X105348660Y-151576537D01*
X105263167Y-151584920D01*
X105257266Y-151586702D01*
X105257264Y-151586702D01*
X105183947Y-151608838D01*
X105073831Y-151642084D01*
X104899204Y-151734934D01*
X104812938Y-151805291D01*
X104750713Y-151856040D01*
X104750710Y-151856043D01*
X104745938Y-151859935D01*
X104742011Y-151864682D01*
X104742008Y-151864685D01*
X104691584Y-151925637D01*
X104632751Y-151965375D01*
X104561773Y-151966996D01*
X104501185Y-151929987D01*
X104470225Y-151866097D01*
X104468500Y-151845321D01*
X104468500Y-150897417D01*
X104488502Y-150829296D01*
X104542158Y-150782803D01*
X104612432Y-150772699D01*
X104670065Y-150796591D01*
X104706351Y-150823786D01*
X104721946Y-150832324D01*
X104842394Y-150877478D01*
X104857649Y-150881105D01*
X104908514Y-150886631D01*
X104915328Y-150887000D01*
X105187885Y-150887000D01*
X105203124Y-150882525D01*
X105204329Y-150881135D01*
X105206000Y-150873452D01*
X105206000Y-150868884D01*
X105714000Y-150868884D01*
X105718475Y-150884123D01*
X105719865Y-150885328D01*
X105727548Y-150886999D01*
X106004669Y-150886999D01*
X106011490Y-150886629D01*
X106062352Y-150881105D01*
X106077604Y-150877479D01*
X106198054Y-150832324D01*
X106213649Y-150823786D01*
X106315724Y-150747285D01*
X106328285Y-150734724D01*
X106404786Y-150632649D01*
X106413324Y-150617054D01*
X106458478Y-150496606D01*
X106462105Y-150481351D01*
X106467631Y-150430486D01*
X106468000Y-150423672D01*
X106468000Y-150151115D01*
X106463525Y-150135876D01*
X106462135Y-150134671D01*
X106454452Y-150133000D01*
X105732115Y-150133000D01*
X105716876Y-150137475D01*
X105715671Y-150138865D01*
X105714000Y-150146548D01*
X105714000Y-150868884D01*
X105206000Y-150868884D01*
X105206000Y-149751000D01*
X105226002Y-149682879D01*
X105279658Y-149636386D01*
X105332000Y-149625000D01*
X106449884Y-149625000D01*
X106465123Y-149620525D01*
X106466328Y-149619135D01*
X106467999Y-149611452D01*
X106467999Y-149334331D01*
X106467629Y-149327510D01*
X106462105Y-149276648D01*
X106458478Y-149261391D01*
X106457104Y-149257726D01*
X106456881Y-149254673D01*
X106456651Y-149253707D01*
X106456807Y-149253670D01*
X106451923Y-149186919D01*
X106485845Y-149124551D01*
X106548102Y-149090424D01*
X106575087Y-149087500D01*
X146325500Y-149087500D01*
X146393621Y-149107502D01*
G37*
%TD.AperFunction*%
%TD*%
M02*
