%TF.GenerationSoftware,KiCad,Pcbnew,6.0.11-2627ca5db0~126~ubuntu20.04.1*%
%TF.CreationDate,2024-08-17T18:27:00-05:00*%
%TF.ProjectId,,58585858-5858-4585-9858-585858585858,rev?*%
%TF.SameCoordinates,Original*%
%TF.FileFunction,Copper,L1,Top*%
%TF.FilePolarity,Positive*%
%FSLAX46Y46*%
G04 Gerber Fmt 4.6, Leading zero omitted, Abs format (unit mm)*
G04 Created by KiCad (PCBNEW 6.0.11-2627ca5db0~126~ubuntu20.04.1) date 2024-08-17 18:27:00*
%MOMM*%
%LPD*%
G01*
G04 APERTURE LIST*
%TA.AperFunction,ViaPad*%
%ADD10C,0.800000*%
%TD*%
G04 APERTURE END LIST*
D10*
%TO.N,GND*%
X105460000Y-155279000D03*
X145460000Y-149879000D03*
X62460000Y-155279000D03*
X102460000Y-149879000D03*
X105460000Y-147279000D03*
X145460000Y-141879000D03*
X62460000Y-147279000D03*
X102460000Y-141879000D03*
X105460000Y-139279000D03*
X145460000Y-133879000D03*
X62460000Y-139279000D03*
X102460000Y-133879000D03*
X105460000Y-131279000D03*
X145460000Y-125879000D03*
X62460000Y-131279000D03*
X102460000Y-125879000D03*
X105460000Y-123279000D03*
X145460000Y-117879000D03*
X62460000Y-123279000D03*
X102460000Y-117879000D03*
X105460000Y-115279000D03*
X145460000Y-109879000D03*
X62460000Y-115279000D03*
X102460000Y-109879000D03*
X105460000Y-107279000D03*
X145460000Y-101879000D03*
X62460000Y-107279000D03*
X102460000Y-101879000D03*
X105460000Y-99279000D03*
X145460000Y-93879000D03*
X62460000Y-99279000D03*
X102460000Y-93879000D03*
X105460000Y-91279000D03*
X145460000Y-85879000D03*
X62460000Y-91279000D03*
X102460000Y-85879000D03*
X105460000Y-83279000D03*
X145460000Y-77879000D03*
X62460000Y-83279000D03*
X102460000Y-77879000D03*
X105460000Y-75279000D03*
X145460000Y-69879000D03*
X62460000Y-75279000D03*
X102460000Y-69879000D03*
X105460000Y-67279000D03*
X145460000Y-61879000D03*
X102460000Y-61879000D03*
X62460000Y-67279000D03*
%TD*%
%TA.AperFunction,Conductor*%
%TO.N,GND*%
G36*
X103393621Y-61107502D02*
G01*
X103440114Y-61161158D01*
X103451500Y-61213500D01*
X103451500Y-63844842D01*
X103431498Y-63912963D01*
X103377842Y-63959456D01*
X103307568Y-63969560D01*
X103242988Y-63940066D01*
X103227304Y-63923795D01*
X103187892Y-63874776D01*
X103184032Y-63869975D01*
X103177727Y-63864684D01*
X103154080Y-63844842D01*
X103032526Y-63742846D01*
X103027128Y-63739879D01*
X103027123Y-63739875D01*
X102864608Y-63650533D01*
X102864609Y-63650533D01*
X102859213Y-63647567D01*
X102853346Y-63645706D01*
X102853344Y-63645705D01*
X102676564Y-63589627D01*
X102676563Y-63589627D01*
X102670694Y-63587765D01*
X102516773Y-63570500D01*
X102410231Y-63570500D01*
X102407175Y-63570800D01*
X102407168Y-63570800D01*
X102348660Y-63576537D01*
X102263167Y-63584920D01*
X102257266Y-63586702D01*
X102257264Y-63586702D01*
X102183947Y-63608838D01*
X102073831Y-63642084D01*
X101899204Y-63734934D01*
X101812938Y-63805291D01*
X101750713Y-63856040D01*
X101750710Y-63856043D01*
X101745938Y-63859935D01*
X101742011Y-63864682D01*
X101742009Y-63864684D01*
X101623799Y-64007575D01*
X101623797Y-64007579D01*
X101619870Y-64012325D01*
X101525802Y-64186299D01*
X101467318Y-64375232D01*
X101446645Y-64571925D01*
X101464570Y-64768888D01*
X101466308Y-64774794D01*
X101466309Y-64774798D01*
X101470387Y-64788653D01*
X101520410Y-64958619D01*
X101523263Y-64964077D01*
X101523265Y-64964081D01*
X101570720Y-65054853D01*
X101612040Y-65133890D01*
X101735968Y-65288025D01*
X101740692Y-65291989D01*
X101747933Y-65298065D01*
X101887474Y-65415154D01*
X101892872Y-65418121D01*
X101892877Y-65418125D01*
X102036180Y-65496905D01*
X102060787Y-65510433D01*
X102066654Y-65512294D01*
X102066656Y-65512295D01*
X102243436Y-65568373D01*
X102249306Y-65570235D01*
X102403227Y-65587500D01*
X102509769Y-65587500D01*
X102512825Y-65587200D01*
X102512832Y-65587200D01*
X102571340Y-65581463D01*
X102656833Y-65573080D01*
X102662734Y-65571298D01*
X102662736Y-65571298D01*
X102736053Y-65549162D01*
X102846169Y-65515916D01*
X103020796Y-65423066D01*
X103107062Y-65352709D01*
X103169287Y-65301960D01*
X103169290Y-65301957D01*
X103174062Y-65298065D01*
X103226892Y-65234205D01*
X103228416Y-65232363D01*
X103287249Y-65192625D01*
X103358227Y-65191004D01*
X103418815Y-65228013D01*
X103449775Y-65291903D01*
X103451500Y-65312679D01*
X103451500Y-67944500D01*
X103431498Y-68012621D01*
X103377842Y-68059114D01*
X103325500Y-68070500D01*
X61594500Y-68070500D01*
X61526379Y-68050498D01*
X61479886Y-67996842D01*
X61468500Y-67944500D01*
X61468500Y-65313158D01*
X61488502Y-65245037D01*
X61542158Y-65198544D01*
X61612432Y-65188440D01*
X61677012Y-65217934D01*
X61692693Y-65234202D01*
X61735968Y-65288025D01*
X61740692Y-65291989D01*
X61747933Y-65298065D01*
X61887474Y-65415154D01*
X61892872Y-65418121D01*
X61892877Y-65418125D01*
X62036180Y-65496905D01*
X62060787Y-65510433D01*
X62066654Y-65512294D01*
X62066656Y-65512295D01*
X62243436Y-65568373D01*
X62249306Y-65570235D01*
X62403227Y-65587500D01*
X62509769Y-65587500D01*
X62512825Y-65587200D01*
X62512832Y-65587200D01*
X62571340Y-65581463D01*
X62656833Y-65573080D01*
X62662734Y-65571298D01*
X62662736Y-65571298D01*
X62736053Y-65549162D01*
X62846169Y-65515916D01*
X63020796Y-65423066D01*
X63107062Y-65352709D01*
X63169287Y-65301960D01*
X63169290Y-65301957D01*
X63174062Y-65298065D01*
X63226892Y-65234205D01*
X63296201Y-65150425D01*
X63296203Y-65150421D01*
X63300130Y-65145675D01*
X63394198Y-64971701D01*
X63452682Y-64782768D01*
X63473355Y-64586075D01*
X63455430Y-64389112D01*
X63450222Y-64371414D01*
X63401330Y-64205294D01*
X63399590Y-64199381D01*
X63389919Y-64180881D01*
X63310813Y-64029568D01*
X63307960Y-64024110D01*
X63184032Y-63869975D01*
X63177727Y-63864684D01*
X63154080Y-63844842D01*
X63032526Y-63742846D01*
X63027128Y-63739879D01*
X63027123Y-63739875D01*
X62864608Y-63650533D01*
X62864609Y-63650533D01*
X62859213Y-63647567D01*
X62853346Y-63645706D01*
X62853344Y-63645705D01*
X62676564Y-63589627D01*
X62676563Y-63589627D01*
X62670694Y-63587765D01*
X62516773Y-63570500D01*
X62410231Y-63570500D01*
X62407175Y-63570800D01*
X62407168Y-63570800D01*
X62348660Y-63576537D01*
X62263167Y-63584920D01*
X62257266Y-63586702D01*
X62257264Y-63586702D01*
X62183947Y-63608838D01*
X62073831Y-63642084D01*
X61899204Y-63734934D01*
X61812938Y-63805291D01*
X61750713Y-63856040D01*
X61750710Y-63856043D01*
X61745938Y-63859935D01*
X61742011Y-63864682D01*
X61742008Y-63864685D01*
X61691584Y-63925637D01*
X61632751Y-63965375D01*
X61561773Y-63966996D01*
X61501185Y-63929987D01*
X61470225Y-63866097D01*
X61468500Y-63845321D01*
X61468500Y-61213500D01*
X61488502Y-61145379D01*
X61542158Y-61098886D01*
X61594500Y-61087500D01*
X103325500Y-61087500D01*
X103393621Y-61107502D01*
G37*
%TD.AperFunction*%
%TD*%
%TA.AperFunction,Conductor*%
%TO.N,GND*%
G36*
X146393621Y-61107502D02*
G01*
X146440114Y-61161158D01*
X146451500Y-61213500D01*
X146451500Y-63844842D01*
X146431498Y-63912963D01*
X146377842Y-63959456D01*
X146307568Y-63969560D01*
X146242988Y-63940066D01*
X146227304Y-63923795D01*
X146187892Y-63874776D01*
X146184032Y-63869975D01*
X146177727Y-63864684D01*
X146154080Y-63844842D01*
X146032526Y-63742846D01*
X146027128Y-63739879D01*
X146027123Y-63739875D01*
X145864608Y-63650533D01*
X145864609Y-63650533D01*
X145859213Y-63647567D01*
X145853346Y-63645706D01*
X145853344Y-63645705D01*
X145676564Y-63589627D01*
X145676563Y-63589627D01*
X145670694Y-63587765D01*
X145516773Y-63570500D01*
X145410231Y-63570500D01*
X145407175Y-63570800D01*
X145407168Y-63570800D01*
X145348660Y-63576537D01*
X145263167Y-63584920D01*
X145257266Y-63586702D01*
X145257264Y-63586702D01*
X145183947Y-63608838D01*
X145073831Y-63642084D01*
X144899204Y-63734934D01*
X144812938Y-63805291D01*
X144750713Y-63856040D01*
X144750710Y-63856043D01*
X144745938Y-63859935D01*
X144742011Y-63864682D01*
X144742009Y-63864684D01*
X144623799Y-64007575D01*
X144623797Y-64007579D01*
X144619870Y-64012325D01*
X144525802Y-64186299D01*
X144467318Y-64375232D01*
X144446645Y-64571925D01*
X144464570Y-64768888D01*
X144466308Y-64774794D01*
X144466309Y-64774798D01*
X144470387Y-64788653D01*
X144520410Y-64958619D01*
X144523263Y-64964077D01*
X144523265Y-64964081D01*
X144570720Y-65054853D01*
X144612040Y-65133890D01*
X144735968Y-65288025D01*
X144740692Y-65291989D01*
X144747933Y-65298065D01*
X144887474Y-65415154D01*
X144892872Y-65418121D01*
X144892877Y-65418125D01*
X145036180Y-65496905D01*
X145060787Y-65510433D01*
X145066654Y-65512294D01*
X145066656Y-65512295D01*
X145243436Y-65568373D01*
X145249306Y-65570235D01*
X145403227Y-65587500D01*
X145509769Y-65587500D01*
X145512825Y-65587200D01*
X145512832Y-65587200D01*
X145571340Y-65581463D01*
X145656833Y-65573080D01*
X145662734Y-65571298D01*
X145662736Y-65571298D01*
X145736053Y-65549162D01*
X145846169Y-65515916D01*
X146020796Y-65423066D01*
X146107062Y-65352709D01*
X146169287Y-65301960D01*
X146169290Y-65301957D01*
X146174062Y-65298065D01*
X146226892Y-65234205D01*
X146228416Y-65232363D01*
X146287249Y-65192625D01*
X146358227Y-65191004D01*
X146418815Y-65228013D01*
X146449775Y-65291903D01*
X146451500Y-65312679D01*
X146451500Y-67944500D01*
X146431498Y-68012621D01*
X146377842Y-68059114D01*
X146325500Y-68070500D01*
X104594500Y-68070500D01*
X104526379Y-68050498D01*
X104479886Y-67996842D01*
X104468500Y-67944500D01*
X104468500Y-65313158D01*
X104488502Y-65245037D01*
X104542158Y-65198544D01*
X104612432Y-65188440D01*
X104677012Y-65217934D01*
X104692693Y-65234202D01*
X104735968Y-65288025D01*
X104740692Y-65291989D01*
X104747933Y-65298065D01*
X104887474Y-65415154D01*
X104892872Y-65418121D01*
X104892877Y-65418125D01*
X105036180Y-65496905D01*
X105060787Y-65510433D01*
X105066654Y-65512294D01*
X105066656Y-65512295D01*
X105243436Y-65568373D01*
X105249306Y-65570235D01*
X105403227Y-65587500D01*
X105509769Y-65587500D01*
X105512825Y-65587200D01*
X105512832Y-65587200D01*
X105571340Y-65581463D01*
X105656833Y-65573080D01*
X105662734Y-65571298D01*
X105662736Y-65571298D01*
X105736053Y-65549162D01*
X105846169Y-65515916D01*
X106020796Y-65423066D01*
X106107062Y-65352709D01*
X106169287Y-65301960D01*
X106169290Y-65301957D01*
X106174062Y-65298065D01*
X106226892Y-65234205D01*
X106296201Y-65150425D01*
X106296203Y-65150421D01*
X106300130Y-65145675D01*
X106394198Y-64971701D01*
X106452682Y-64782768D01*
X106473355Y-64586075D01*
X106455430Y-64389112D01*
X106450222Y-64371414D01*
X106401330Y-64205294D01*
X106399590Y-64199381D01*
X106389919Y-64180881D01*
X106310813Y-64029568D01*
X106307960Y-64024110D01*
X106184032Y-63869975D01*
X106177727Y-63864684D01*
X106154080Y-63844842D01*
X106032526Y-63742846D01*
X106027128Y-63739879D01*
X106027123Y-63739875D01*
X105864608Y-63650533D01*
X105864609Y-63650533D01*
X105859213Y-63647567D01*
X105853346Y-63645706D01*
X105853344Y-63645705D01*
X105676564Y-63589627D01*
X105676563Y-63589627D01*
X105670694Y-63587765D01*
X105516773Y-63570500D01*
X105410231Y-63570500D01*
X105407175Y-63570800D01*
X105407168Y-63570800D01*
X105348660Y-63576537D01*
X105263167Y-63584920D01*
X105257266Y-63586702D01*
X105257264Y-63586702D01*
X105183947Y-63608838D01*
X105073831Y-63642084D01*
X104899204Y-63734934D01*
X104812938Y-63805291D01*
X104750713Y-63856040D01*
X104750710Y-63856043D01*
X104745938Y-63859935D01*
X104742011Y-63864682D01*
X104742008Y-63864685D01*
X104691584Y-63925637D01*
X104632751Y-63965375D01*
X104561773Y-63966996D01*
X104501185Y-63929987D01*
X104470225Y-63866097D01*
X104468500Y-63845321D01*
X104468500Y-61213500D01*
X104488502Y-61145379D01*
X104542158Y-61098886D01*
X104594500Y-61087500D01*
X146325500Y-61087500D01*
X146393621Y-61107502D01*
G37*
%TD.AperFunction*%
%TD*%
%TA.AperFunction,Conductor*%
%TO.N,GND*%
G36*
X103393621Y-69107502D02*
G01*
X103440114Y-69161158D01*
X103451500Y-69213500D01*
X103451500Y-71844842D01*
X103431498Y-71912963D01*
X103377842Y-71959456D01*
X103307568Y-71969560D01*
X103242988Y-71940066D01*
X103227304Y-71923795D01*
X103187892Y-71874776D01*
X103184032Y-71869975D01*
X103177727Y-71864684D01*
X103154080Y-71844842D01*
X103032526Y-71742846D01*
X103027128Y-71739879D01*
X103027123Y-71739875D01*
X102864608Y-71650533D01*
X102864609Y-71650533D01*
X102859213Y-71647567D01*
X102853346Y-71645706D01*
X102853344Y-71645705D01*
X102676564Y-71589627D01*
X102676563Y-71589627D01*
X102670694Y-71587765D01*
X102516773Y-71570500D01*
X102410231Y-71570500D01*
X102407175Y-71570800D01*
X102407168Y-71570800D01*
X102348660Y-71576537D01*
X102263167Y-71584920D01*
X102257266Y-71586702D01*
X102257264Y-71586702D01*
X102183947Y-71608838D01*
X102073831Y-71642084D01*
X101899204Y-71734934D01*
X101812938Y-71805291D01*
X101750713Y-71856040D01*
X101750710Y-71856043D01*
X101745938Y-71859935D01*
X101742011Y-71864682D01*
X101742009Y-71864684D01*
X101623799Y-72007575D01*
X101623797Y-72007579D01*
X101619870Y-72012325D01*
X101525802Y-72186299D01*
X101467318Y-72375232D01*
X101446645Y-72571925D01*
X101464570Y-72768888D01*
X101466308Y-72774794D01*
X101466309Y-72774798D01*
X101470387Y-72788653D01*
X101520410Y-72958619D01*
X101523263Y-72964077D01*
X101523265Y-72964081D01*
X101570720Y-73054853D01*
X101612040Y-73133890D01*
X101735968Y-73288025D01*
X101740692Y-73291989D01*
X101747933Y-73298065D01*
X101887474Y-73415154D01*
X101892872Y-73418121D01*
X101892877Y-73418125D01*
X102036180Y-73496905D01*
X102060787Y-73510433D01*
X102066654Y-73512294D01*
X102066656Y-73512295D01*
X102243436Y-73568373D01*
X102249306Y-73570235D01*
X102403227Y-73587500D01*
X102509769Y-73587500D01*
X102512825Y-73587200D01*
X102512832Y-73587200D01*
X102571340Y-73581463D01*
X102656833Y-73573080D01*
X102662734Y-73571298D01*
X102662736Y-73571298D01*
X102736053Y-73549162D01*
X102846169Y-73515916D01*
X103020796Y-73423066D01*
X103107062Y-73352709D01*
X103169287Y-73301960D01*
X103169290Y-73301957D01*
X103174062Y-73298065D01*
X103226892Y-73234205D01*
X103228416Y-73232363D01*
X103287249Y-73192625D01*
X103358227Y-73191004D01*
X103418815Y-73228013D01*
X103449775Y-73291903D01*
X103451500Y-73312679D01*
X103451500Y-75944500D01*
X103431498Y-76012621D01*
X103377842Y-76059114D01*
X103325500Y-76070500D01*
X61594500Y-76070500D01*
X61526379Y-76050498D01*
X61479886Y-75996842D01*
X61468500Y-75944500D01*
X61468500Y-73313158D01*
X61488502Y-73245037D01*
X61542158Y-73198544D01*
X61612432Y-73188440D01*
X61677012Y-73217934D01*
X61692693Y-73234202D01*
X61735968Y-73288025D01*
X61740692Y-73291989D01*
X61747933Y-73298065D01*
X61887474Y-73415154D01*
X61892872Y-73418121D01*
X61892877Y-73418125D01*
X62036180Y-73496905D01*
X62060787Y-73510433D01*
X62066654Y-73512294D01*
X62066656Y-73512295D01*
X62243436Y-73568373D01*
X62249306Y-73570235D01*
X62403227Y-73587500D01*
X62509769Y-73587500D01*
X62512825Y-73587200D01*
X62512832Y-73587200D01*
X62571340Y-73581463D01*
X62656833Y-73573080D01*
X62662734Y-73571298D01*
X62662736Y-73571298D01*
X62736053Y-73549162D01*
X62846169Y-73515916D01*
X63020796Y-73423066D01*
X63107062Y-73352709D01*
X63169287Y-73301960D01*
X63169290Y-73301957D01*
X63174062Y-73298065D01*
X63226892Y-73234205D01*
X63296201Y-73150425D01*
X63296203Y-73150421D01*
X63300130Y-73145675D01*
X63394198Y-72971701D01*
X63452682Y-72782768D01*
X63473355Y-72586075D01*
X63455430Y-72389112D01*
X63450222Y-72371414D01*
X63401330Y-72205294D01*
X63399590Y-72199381D01*
X63389919Y-72180881D01*
X63310813Y-72029568D01*
X63307960Y-72024110D01*
X63184032Y-71869975D01*
X63177727Y-71864684D01*
X63154080Y-71844842D01*
X63032526Y-71742846D01*
X63027128Y-71739879D01*
X63027123Y-71739875D01*
X62864608Y-71650533D01*
X62864609Y-71650533D01*
X62859213Y-71647567D01*
X62853346Y-71645706D01*
X62853344Y-71645705D01*
X62676564Y-71589627D01*
X62676563Y-71589627D01*
X62670694Y-71587765D01*
X62516773Y-71570500D01*
X62410231Y-71570500D01*
X62407175Y-71570800D01*
X62407168Y-71570800D01*
X62348660Y-71576537D01*
X62263167Y-71584920D01*
X62257266Y-71586702D01*
X62257264Y-71586702D01*
X62183947Y-71608838D01*
X62073831Y-71642084D01*
X61899204Y-71734934D01*
X61812938Y-71805291D01*
X61750713Y-71856040D01*
X61750710Y-71856043D01*
X61745938Y-71859935D01*
X61742011Y-71864682D01*
X61742008Y-71864685D01*
X61691584Y-71925637D01*
X61632751Y-71965375D01*
X61561773Y-71966996D01*
X61501185Y-71929987D01*
X61470225Y-71866097D01*
X61468500Y-71845321D01*
X61468500Y-69213500D01*
X61488502Y-69145379D01*
X61542158Y-69098886D01*
X61594500Y-69087500D01*
X103325500Y-69087500D01*
X103393621Y-69107502D01*
G37*
%TD.AperFunction*%
%TD*%
%TA.AperFunction,Conductor*%
%TO.N,GND*%
G36*
X146393621Y-69107502D02*
G01*
X146440114Y-69161158D01*
X146451500Y-69213500D01*
X146451500Y-71844842D01*
X146431498Y-71912963D01*
X146377842Y-71959456D01*
X146307568Y-71969560D01*
X146242988Y-71940066D01*
X146227304Y-71923795D01*
X146187892Y-71874776D01*
X146184032Y-71869975D01*
X146177727Y-71864684D01*
X146154080Y-71844842D01*
X146032526Y-71742846D01*
X146027128Y-71739879D01*
X146027123Y-71739875D01*
X145864608Y-71650533D01*
X145864609Y-71650533D01*
X145859213Y-71647567D01*
X145853346Y-71645706D01*
X145853344Y-71645705D01*
X145676564Y-71589627D01*
X145676563Y-71589627D01*
X145670694Y-71587765D01*
X145516773Y-71570500D01*
X145410231Y-71570500D01*
X145407175Y-71570800D01*
X145407168Y-71570800D01*
X145348660Y-71576537D01*
X145263167Y-71584920D01*
X145257266Y-71586702D01*
X145257264Y-71586702D01*
X145183947Y-71608838D01*
X145073831Y-71642084D01*
X144899204Y-71734934D01*
X144812938Y-71805291D01*
X144750713Y-71856040D01*
X144750710Y-71856043D01*
X144745938Y-71859935D01*
X144742011Y-71864682D01*
X144742009Y-71864684D01*
X144623799Y-72007575D01*
X144623797Y-72007579D01*
X144619870Y-72012325D01*
X144525802Y-72186299D01*
X144467318Y-72375232D01*
X144446645Y-72571925D01*
X144464570Y-72768888D01*
X144466308Y-72774794D01*
X144466309Y-72774798D01*
X144470387Y-72788653D01*
X144520410Y-72958619D01*
X144523263Y-72964077D01*
X144523265Y-72964081D01*
X144570720Y-73054853D01*
X144612040Y-73133890D01*
X144735968Y-73288025D01*
X144740692Y-73291989D01*
X144747933Y-73298065D01*
X144887474Y-73415154D01*
X144892872Y-73418121D01*
X144892877Y-73418125D01*
X145036180Y-73496905D01*
X145060787Y-73510433D01*
X145066654Y-73512294D01*
X145066656Y-73512295D01*
X145243436Y-73568373D01*
X145249306Y-73570235D01*
X145403227Y-73587500D01*
X145509769Y-73587500D01*
X145512825Y-73587200D01*
X145512832Y-73587200D01*
X145571340Y-73581463D01*
X145656833Y-73573080D01*
X145662734Y-73571298D01*
X145662736Y-73571298D01*
X145736053Y-73549162D01*
X145846169Y-73515916D01*
X146020796Y-73423066D01*
X146107062Y-73352709D01*
X146169287Y-73301960D01*
X146169290Y-73301957D01*
X146174062Y-73298065D01*
X146226892Y-73234205D01*
X146228416Y-73232363D01*
X146287249Y-73192625D01*
X146358227Y-73191004D01*
X146418815Y-73228013D01*
X146449775Y-73291903D01*
X146451500Y-73312679D01*
X146451500Y-75944500D01*
X146431498Y-76012621D01*
X146377842Y-76059114D01*
X146325500Y-76070500D01*
X104594500Y-76070500D01*
X104526379Y-76050498D01*
X104479886Y-75996842D01*
X104468500Y-75944500D01*
X104468500Y-73313158D01*
X104488502Y-73245037D01*
X104542158Y-73198544D01*
X104612432Y-73188440D01*
X104677012Y-73217934D01*
X104692693Y-73234202D01*
X104735968Y-73288025D01*
X104740692Y-73291989D01*
X104747933Y-73298065D01*
X104887474Y-73415154D01*
X104892872Y-73418121D01*
X104892877Y-73418125D01*
X105036180Y-73496905D01*
X105060787Y-73510433D01*
X105066654Y-73512294D01*
X105066656Y-73512295D01*
X105243436Y-73568373D01*
X105249306Y-73570235D01*
X105403227Y-73587500D01*
X105509769Y-73587500D01*
X105512825Y-73587200D01*
X105512832Y-73587200D01*
X105571340Y-73581463D01*
X105656833Y-73573080D01*
X105662734Y-73571298D01*
X105662736Y-73571298D01*
X105736053Y-73549162D01*
X105846169Y-73515916D01*
X106020796Y-73423066D01*
X106107062Y-73352709D01*
X106169287Y-73301960D01*
X106169290Y-73301957D01*
X106174062Y-73298065D01*
X106226892Y-73234205D01*
X106296201Y-73150425D01*
X106296203Y-73150421D01*
X106300130Y-73145675D01*
X106394198Y-72971701D01*
X106452682Y-72782768D01*
X106473355Y-72586075D01*
X106455430Y-72389112D01*
X106450222Y-72371414D01*
X106401330Y-72205294D01*
X106399590Y-72199381D01*
X106389919Y-72180881D01*
X106310813Y-72029568D01*
X106307960Y-72024110D01*
X106184032Y-71869975D01*
X106177727Y-71864684D01*
X106154080Y-71844842D01*
X106032526Y-71742846D01*
X106027128Y-71739879D01*
X106027123Y-71739875D01*
X105864608Y-71650533D01*
X105864609Y-71650533D01*
X105859213Y-71647567D01*
X105853346Y-71645706D01*
X105853344Y-71645705D01*
X105676564Y-71589627D01*
X105676563Y-71589627D01*
X105670694Y-71587765D01*
X105516773Y-71570500D01*
X105410231Y-71570500D01*
X105407175Y-71570800D01*
X105407168Y-71570800D01*
X105348660Y-71576537D01*
X105263167Y-71584920D01*
X105257266Y-71586702D01*
X105257264Y-71586702D01*
X105183947Y-71608838D01*
X105073831Y-71642084D01*
X104899204Y-71734934D01*
X104812938Y-71805291D01*
X104750713Y-71856040D01*
X104750710Y-71856043D01*
X104745938Y-71859935D01*
X104742011Y-71864682D01*
X104742008Y-71864685D01*
X104691584Y-71925637D01*
X104632751Y-71965375D01*
X104561773Y-71966996D01*
X104501185Y-71929987D01*
X104470225Y-71866097D01*
X104468500Y-71845321D01*
X104468500Y-69213500D01*
X104488502Y-69145379D01*
X104542158Y-69098886D01*
X104594500Y-69087500D01*
X146325500Y-69087500D01*
X146393621Y-69107502D01*
G37*
%TD.AperFunction*%
%TD*%
%TA.AperFunction,Conductor*%
%TO.N,GND*%
G36*
X103393621Y-77107502D02*
G01*
X103440114Y-77161158D01*
X103451500Y-77213500D01*
X103451500Y-79844842D01*
X103431498Y-79912963D01*
X103377842Y-79959456D01*
X103307568Y-79969560D01*
X103242988Y-79940066D01*
X103227304Y-79923795D01*
X103187892Y-79874776D01*
X103184032Y-79869975D01*
X103177727Y-79864684D01*
X103154080Y-79844842D01*
X103032526Y-79742846D01*
X103027128Y-79739879D01*
X103027123Y-79739875D01*
X102864608Y-79650533D01*
X102864609Y-79650533D01*
X102859213Y-79647567D01*
X102853346Y-79645706D01*
X102853344Y-79645705D01*
X102676564Y-79589627D01*
X102676563Y-79589627D01*
X102670694Y-79587765D01*
X102516773Y-79570500D01*
X102410231Y-79570500D01*
X102407175Y-79570800D01*
X102407168Y-79570800D01*
X102348660Y-79576537D01*
X102263167Y-79584920D01*
X102257266Y-79586702D01*
X102257264Y-79586702D01*
X102183947Y-79608838D01*
X102073831Y-79642084D01*
X101899204Y-79734934D01*
X101812938Y-79805291D01*
X101750713Y-79856040D01*
X101750710Y-79856043D01*
X101745938Y-79859935D01*
X101742011Y-79864682D01*
X101742009Y-79864684D01*
X101623799Y-80007575D01*
X101623797Y-80007579D01*
X101619870Y-80012325D01*
X101525802Y-80186299D01*
X101467318Y-80375232D01*
X101446645Y-80571925D01*
X101464570Y-80768888D01*
X101466308Y-80774794D01*
X101466309Y-80774798D01*
X101470387Y-80788653D01*
X101520410Y-80958619D01*
X101523263Y-80964077D01*
X101523265Y-80964081D01*
X101570720Y-81054853D01*
X101612040Y-81133890D01*
X101735968Y-81288025D01*
X101740692Y-81291989D01*
X101747933Y-81298065D01*
X101887474Y-81415154D01*
X101892872Y-81418121D01*
X101892877Y-81418125D01*
X102036180Y-81496905D01*
X102060787Y-81510433D01*
X102066654Y-81512294D01*
X102066656Y-81512295D01*
X102243436Y-81568373D01*
X102249306Y-81570235D01*
X102403227Y-81587500D01*
X102509769Y-81587500D01*
X102512825Y-81587200D01*
X102512832Y-81587200D01*
X102571340Y-81581463D01*
X102656833Y-81573080D01*
X102662734Y-81571298D01*
X102662736Y-81571298D01*
X102736053Y-81549162D01*
X102846169Y-81515916D01*
X103020796Y-81423066D01*
X103107062Y-81352709D01*
X103169287Y-81301960D01*
X103169290Y-81301957D01*
X103174062Y-81298065D01*
X103226892Y-81234205D01*
X103228416Y-81232363D01*
X103287249Y-81192625D01*
X103358227Y-81191004D01*
X103418815Y-81228013D01*
X103449775Y-81291903D01*
X103451500Y-81312679D01*
X103451500Y-83944500D01*
X103431498Y-84012621D01*
X103377842Y-84059114D01*
X103325500Y-84070500D01*
X61594500Y-84070500D01*
X61526379Y-84050498D01*
X61479886Y-83996842D01*
X61468500Y-83944500D01*
X61468500Y-81313158D01*
X61488502Y-81245037D01*
X61542158Y-81198544D01*
X61612432Y-81188440D01*
X61677012Y-81217934D01*
X61692693Y-81234202D01*
X61735968Y-81288025D01*
X61740692Y-81291989D01*
X61747933Y-81298065D01*
X61887474Y-81415154D01*
X61892872Y-81418121D01*
X61892877Y-81418125D01*
X62036180Y-81496905D01*
X62060787Y-81510433D01*
X62066654Y-81512294D01*
X62066656Y-81512295D01*
X62243436Y-81568373D01*
X62249306Y-81570235D01*
X62403227Y-81587500D01*
X62509769Y-81587500D01*
X62512825Y-81587200D01*
X62512832Y-81587200D01*
X62571340Y-81581463D01*
X62656833Y-81573080D01*
X62662734Y-81571298D01*
X62662736Y-81571298D01*
X62736053Y-81549162D01*
X62846169Y-81515916D01*
X63020796Y-81423066D01*
X63107062Y-81352709D01*
X63169287Y-81301960D01*
X63169290Y-81301957D01*
X63174062Y-81298065D01*
X63226892Y-81234205D01*
X63296201Y-81150425D01*
X63296203Y-81150421D01*
X63300130Y-81145675D01*
X63394198Y-80971701D01*
X63452682Y-80782768D01*
X63473355Y-80586075D01*
X63455430Y-80389112D01*
X63450222Y-80371414D01*
X63401330Y-80205294D01*
X63399590Y-80199381D01*
X63389919Y-80180881D01*
X63310813Y-80029568D01*
X63307960Y-80024110D01*
X63184032Y-79869975D01*
X63177727Y-79864684D01*
X63154080Y-79844842D01*
X63032526Y-79742846D01*
X63027128Y-79739879D01*
X63027123Y-79739875D01*
X62864608Y-79650533D01*
X62864609Y-79650533D01*
X62859213Y-79647567D01*
X62853346Y-79645706D01*
X62853344Y-79645705D01*
X62676564Y-79589627D01*
X62676563Y-79589627D01*
X62670694Y-79587765D01*
X62516773Y-79570500D01*
X62410231Y-79570500D01*
X62407175Y-79570800D01*
X62407168Y-79570800D01*
X62348660Y-79576537D01*
X62263167Y-79584920D01*
X62257266Y-79586702D01*
X62257264Y-79586702D01*
X62183947Y-79608838D01*
X62073831Y-79642084D01*
X61899204Y-79734934D01*
X61812938Y-79805291D01*
X61750713Y-79856040D01*
X61750710Y-79856043D01*
X61745938Y-79859935D01*
X61742011Y-79864682D01*
X61742008Y-79864685D01*
X61691584Y-79925637D01*
X61632751Y-79965375D01*
X61561773Y-79966996D01*
X61501185Y-79929987D01*
X61470225Y-79866097D01*
X61468500Y-79845321D01*
X61468500Y-77213500D01*
X61488502Y-77145379D01*
X61542158Y-77098886D01*
X61594500Y-77087500D01*
X103325500Y-77087500D01*
X103393621Y-77107502D01*
G37*
%TD.AperFunction*%
%TD*%
%TA.AperFunction,Conductor*%
%TO.N,GND*%
G36*
X146393621Y-77107502D02*
G01*
X146440114Y-77161158D01*
X146451500Y-77213500D01*
X146451500Y-79844842D01*
X146431498Y-79912963D01*
X146377842Y-79959456D01*
X146307568Y-79969560D01*
X146242988Y-79940066D01*
X146227304Y-79923795D01*
X146187892Y-79874776D01*
X146184032Y-79869975D01*
X146177727Y-79864684D01*
X146154080Y-79844842D01*
X146032526Y-79742846D01*
X146027128Y-79739879D01*
X146027123Y-79739875D01*
X145864608Y-79650533D01*
X145864609Y-79650533D01*
X145859213Y-79647567D01*
X145853346Y-79645706D01*
X145853344Y-79645705D01*
X145676564Y-79589627D01*
X145676563Y-79589627D01*
X145670694Y-79587765D01*
X145516773Y-79570500D01*
X145410231Y-79570500D01*
X145407175Y-79570800D01*
X145407168Y-79570800D01*
X145348660Y-79576537D01*
X145263167Y-79584920D01*
X145257266Y-79586702D01*
X145257264Y-79586702D01*
X145183947Y-79608838D01*
X145073831Y-79642084D01*
X144899204Y-79734934D01*
X144812938Y-79805291D01*
X144750713Y-79856040D01*
X144750710Y-79856043D01*
X144745938Y-79859935D01*
X144742011Y-79864682D01*
X144742009Y-79864684D01*
X144623799Y-80007575D01*
X144623797Y-80007579D01*
X144619870Y-80012325D01*
X144525802Y-80186299D01*
X144467318Y-80375232D01*
X144446645Y-80571925D01*
X144464570Y-80768888D01*
X144466308Y-80774794D01*
X144466309Y-80774798D01*
X144470387Y-80788653D01*
X144520410Y-80958619D01*
X144523263Y-80964077D01*
X144523265Y-80964081D01*
X144570720Y-81054853D01*
X144612040Y-81133890D01*
X144735968Y-81288025D01*
X144740692Y-81291989D01*
X144747933Y-81298065D01*
X144887474Y-81415154D01*
X144892872Y-81418121D01*
X144892877Y-81418125D01*
X145036180Y-81496905D01*
X145060787Y-81510433D01*
X145066654Y-81512294D01*
X145066656Y-81512295D01*
X145243436Y-81568373D01*
X145249306Y-81570235D01*
X145403227Y-81587500D01*
X145509769Y-81587500D01*
X145512825Y-81587200D01*
X145512832Y-81587200D01*
X145571340Y-81581463D01*
X145656833Y-81573080D01*
X145662734Y-81571298D01*
X145662736Y-81571298D01*
X145736053Y-81549162D01*
X145846169Y-81515916D01*
X146020796Y-81423066D01*
X146107062Y-81352709D01*
X146169287Y-81301960D01*
X146169290Y-81301957D01*
X146174062Y-81298065D01*
X146226892Y-81234205D01*
X146228416Y-81232363D01*
X146287249Y-81192625D01*
X146358227Y-81191004D01*
X146418815Y-81228013D01*
X146449775Y-81291903D01*
X146451500Y-81312679D01*
X146451500Y-83944500D01*
X146431498Y-84012621D01*
X146377842Y-84059114D01*
X146325500Y-84070500D01*
X104594500Y-84070500D01*
X104526379Y-84050498D01*
X104479886Y-83996842D01*
X104468500Y-83944500D01*
X104468500Y-81313158D01*
X104488502Y-81245037D01*
X104542158Y-81198544D01*
X104612432Y-81188440D01*
X104677012Y-81217934D01*
X104692693Y-81234202D01*
X104735968Y-81288025D01*
X104740692Y-81291989D01*
X104747933Y-81298065D01*
X104887474Y-81415154D01*
X104892872Y-81418121D01*
X104892877Y-81418125D01*
X105036180Y-81496905D01*
X105060787Y-81510433D01*
X105066654Y-81512294D01*
X105066656Y-81512295D01*
X105243436Y-81568373D01*
X105249306Y-81570235D01*
X105403227Y-81587500D01*
X105509769Y-81587500D01*
X105512825Y-81587200D01*
X105512832Y-81587200D01*
X105571340Y-81581463D01*
X105656833Y-81573080D01*
X105662734Y-81571298D01*
X105662736Y-81571298D01*
X105736053Y-81549162D01*
X105846169Y-81515916D01*
X106020796Y-81423066D01*
X106107062Y-81352709D01*
X106169287Y-81301960D01*
X106169290Y-81301957D01*
X106174062Y-81298065D01*
X106226892Y-81234205D01*
X106296201Y-81150425D01*
X106296203Y-81150421D01*
X106300130Y-81145675D01*
X106394198Y-80971701D01*
X106452682Y-80782768D01*
X106473355Y-80586075D01*
X106455430Y-80389112D01*
X106450222Y-80371414D01*
X106401330Y-80205294D01*
X106399590Y-80199381D01*
X106389919Y-80180881D01*
X106310813Y-80029568D01*
X106307960Y-80024110D01*
X106184032Y-79869975D01*
X106177727Y-79864684D01*
X106154080Y-79844842D01*
X106032526Y-79742846D01*
X106027128Y-79739879D01*
X106027123Y-79739875D01*
X105864608Y-79650533D01*
X105864609Y-79650533D01*
X105859213Y-79647567D01*
X105853346Y-79645706D01*
X105853344Y-79645705D01*
X105676564Y-79589627D01*
X105676563Y-79589627D01*
X105670694Y-79587765D01*
X105516773Y-79570500D01*
X105410231Y-79570500D01*
X105407175Y-79570800D01*
X105407168Y-79570800D01*
X105348660Y-79576537D01*
X105263167Y-79584920D01*
X105257266Y-79586702D01*
X105257264Y-79586702D01*
X105183947Y-79608838D01*
X105073831Y-79642084D01*
X104899204Y-79734934D01*
X104812938Y-79805291D01*
X104750713Y-79856040D01*
X104750710Y-79856043D01*
X104745938Y-79859935D01*
X104742011Y-79864682D01*
X104742008Y-79864685D01*
X104691584Y-79925637D01*
X104632751Y-79965375D01*
X104561773Y-79966996D01*
X104501185Y-79929987D01*
X104470225Y-79866097D01*
X104468500Y-79845321D01*
X104468500Y-77213500D01*
X104488502Y-77145379D01*
X104542158Y-77098886D01*
X104594500Y-77087500D01*
X146325500Y-77087500D01*
X146393621Y-77107502D01*
G37*
%TD.AperFunction*%
%TD*%
%TA.AperFunction,Conductor*%
%TO.N,GND*%
G36*
X103393621Y-85107502D02*
G01*
X103440114Y-85161158D01*
X103451500Y-85213500D01*
X103451500Y-87844842D01*
X103431498Y-87912963D01*
X103377842Y-87959456D01*
X103307568Y-87969560D01*
X103242988Y-87940066D01*
X103227304Y-87923795D01*
X103187892Y-87874776D01*
X103184032Y-87869975D01*
X103177727Y-87864684D01*
X103154080Y-87844842D01*
X103032526Y-87742846D01*
X103027128Y-87739879D01*
X103027123Y-87739875D01*
X102864608Y-87650533D01*
X102864609Y-87650533D01*
X102859213Y-87647567D01*
X102853346Y-87645706D01*
X102853344Y-87645705D01*
X102676564Y-87589627D01*
X102676563Y-87589627D01*
X102670694Y-87587765D01*
X102516773Y-87570500D01*
X102410231Y-87570500D01*
X102407175Y-87570800D01*
X102407168Y-87570800D01*
X102348660Y-87576537D01*
X102263167Y-87584920D01*
X102257266Y-87586702D01*
X102257264Y-87586702D01*
X102183947Y-87608838D01*
X102073831Y-87642084D01*
X101899204Y-87734934D01*
X101812938Y-87805291D01*
X101750713Y-87856040D01*
X101750710Y-87856043D01*
X101745938Y-87859935D01*
X101742011Y-87864682D01*
X101742009Y-87864684D01*
X101623799Y-88007575D01*
X101623797Y-88007579D01*
X101619870Y-88012325D01*
X101525802Y-88186299D01*
X101467318Y-88375232D01*
X101446645Y-88571925D01*
X101464570Y-88768888D01*
X101466308Y-88774794D01*
X101466309Y-88774798D01*
X101470387Y-88788653D01*
X101520410Y-88958619D01*
X101523263Y-88964077D01*
X101523265Y-88964081D01*
X101570720Y-89054853D01*
X101612040Y-89133890D01*
X101735968Y-89288025D01*
X101740692Y-89291989D01*
X101747933Y-89298065D01*
X101887474Y-89415154D01*
X101892872Y-89418121D01*
X101892877Y-89418125D01*
X102036180Y-89496905D01*
X102060787Y-89510433D01*
X102066654Y-89512294D01*
X102066656Y-89512295D01*
X102243436Y-89568373D01*
X102249306Y-89570235D01*
X102403227Y-89587500D01*
X102509769Y-89587500D01*
X102512825Y-89587200D01*
X102512832Y-89587200D01*
X102571340Y-89581463D01*
X102656833Y-89573080D01*
X102662734Y-89571298D01*
X102662736Y-89571298D01*
X102736053Y-89549162D01*
X102846169Y-89515916D01*
X103020796Y-89423066D01*
X103107062Y-89352709D01*
X103169287Y-89301960D01*
X103169290Y-89301957D01*
X103174062Y-89298065D01*
X103226892Y-89234205D01*
X103228416Y-89232363D01*
X103287249Y-89192625D01*
X103358227Y-89191004D01*
X103418815Y-89228013D01*
X103449775Y-89291903D01*
X103451500Y-89312679D01*
X103451500Y-91944500D01*
X103431498Y-92012621D01*
X103377842Y-92059114D01*
X103325500Y-92070500D01*
X61594500Y-92070500D01*
X61526379Y-92050498D01*
X61479886Y-91996842D01*
X61468500Y-91944500D01*
X61468500Y-89313158D01*
X61488502Y-89245037D01*
X61542158Y-89198544D01*
X61612432Y-89188440D01*
X61677012Y-89217934D01*
X61692693Y-89234202D01*
X61735968Y-89288025D01*
X61740692Y-89291989D01*
X61747933Y-89298065D01*
X61887474Y-89415154D01*
X61892872Y-89418121D01*
X61892877Y-89418125D01*
X62036180Y-89496905D01*
X62060787Y-89510433D01*
X62066654Y-89512294D01*
X62066656Y-89512295D01*
X62243436Y-89568373D01*
X62249306Y-89570235D01*
X62403227Y-89587500D01*
X62509769Y-89587500D01*
X62512825Y-89587200D01*
X62512832Y-89587200D01*
X62571340Y-89581463D01*
X62656833Y-89573080D01*
X62662734Y-89571298D01*
X62662736Y-89571298D01*
X62736053Y-89549162D01*
X62846169Y-89515916D01*
X63020796Y-89423066D01*
X63107062Y-89352709D01*
X63169287Y-89301960D01*
X63169290Y-89301957D01*
X63174062Y-89298065D01*
X63226892Y-89234205D01*
X63296201Y-89150425D01*
X63296203Y-89150421D01*
X63300130Y-89145675D01*
X63394198Y-88971701D01*
X63452682Y-88782768D01*
X63473355Y-88586075D01*
X63455430Y-88389112D01*
X63450222Y-88371414D01*
X63401330Y-88205294D01*
X63399590Y-88199381D01*
X63389919Y-88180881D01*
X63310813Y-88029568D01*
X63307960Y-88024110D01*
X63184032Y-87869975D01*
X63177727Y-87864684D01*
X63154080Y-87844842D01*
X63032526Y-87742846D01*
X63027128Y-87739879D01*
X63027123Y-87739875D01*
X62864608Y-87650533D01*
X62864609Y-87650533D01*
X62859213Y-87647567D01*
X62853346Y-87645706D01*
X62853344Y-87645705D01*
X62676564Y-87589627D01*
X62676563Y-87589627D01*
X62670694Y-87587765D01*
X62516773Y-87570500D01*
X62410231Y-87570500D01*
X62407175Y-87570800D01*
X62407168Y-87570800D01*
X62348660Y-87576537D01*
X62263167Y-87584920D01*
X62257266Y-87586702D01*
X62257264Y-87586702D01*
X62183947Y-87608838D01*
X62073831Y-87642084D01*
X61899204Y-87734934D01*
X61812938Y-87805291D01*
X61750713Y-87856040D01*
X61750710Y-87856043D01*
X61745938Y-87859935D01*
X61742011Y-87864682D01*
X61742008Y-87864685D01*
X61691584Y-87925637D01*
X61632751Y-87965375D01*
X61561773Y-87966996D01*
X61501185Y-87929987D01*
X61470225Y-87866097D01*
X61468500Y-87845321D01*
X61468500Y-85213500D01*
X61488502Y-85145379D01*
X61542158Y-85098886D01*
X61594500Y-85087500D01*
X103325500Y-85087500D01*
X103393621Y-85107502D01*
G37*
%TD.AperFunction*%
%TD*%
%TA.AperFunction,Conductor*%
%TO.N,GND*%
G36*
X146393621Y-85107502D02*
G01*
X146440114Y-85161158D01*
X146451500Y-85213500D01*
X146451500Y-87844842D01*
X146431498Y-87912963D01*
X146377842Y-87959456D01*
X146307568Y-87969560D01*
X146242988Y-87940066D01*
X146227304Y-87923795D01*
X146187892Y-87874776D01*
X146184032Y-87869975D01*
X146177727Y-87864684D01*
X146154080Y-87844842D01*
X146032526Y-87742846D01*
X146027128Y-87739879D01*
X146027123Y-87739875D01*
X145864608Y-87650533D01*
X145864609Y-87650533D01*
X145859213Y-87647567D01*
X145853346Y-87645706D01*
X145853344Y-87645705D01*
X145676564Y-87589627D01*
X145676563Y-87589627D01*
X145670694Y-87587765D01*
X145516773Y-87570500D01*
X145410231Y-87570500D01*
X145407175Y-87570800D01*
X145407168Y-87570800D01*
X145348660Y-87576537D01*
X145263167Y-87584920D01*
X145257266Y-87586702D01*
X145257264Y-87586702D01*
X145183947Y-87608838D01*
X145073831Y-87642084D01*
X144899204Y-87734934D01*
X144812938Y-87805291D01*
X144750713Y-87856040D01*
X144750710Y-87856043D01*
X144745938Y-87859935D01*
X144742011Y-87864682D01*
X144742009Y-87864684D01*
X144623799Y-88007575D01*
X144623797Y-88007579D01*
X144619870Y-88012325D01*
X144525802Y-88186299D01*
X144467318Y-88375232D01*
X144446645Y-88571925D01*
X144464570Y-88768888D01*
X144466308Y-88774794D01*
X144466309Y-88774798D01*
X144470387Y-88788653D01*
X144520410Y-88958619D01*
X144523263Y-88964077D01*
X144523265Y-88964081D01*
X144570720Y-89054853D01*
X144612040Y-89133890D01*
X144735968Y-89288025D01*
X144740692Y-89291989D01*
X144747933Y-89298065D01*
X144887474Y-89415154D01*
X144892872Y-89418121D01*
X144892877Y-89418125D01*
X145036180Y-89496905D01*
X145060787Y-89510433D01*
X145066654Y-89512294D01*
X145066656Y-89512295D01*
X145243436Y-89568373D01*
X145249306Y-89570235D01*
X145403227Y-89587500D01*
X145509769Y-89587500D01*
X145512825Y-89587200D01*
X145512832Y-89587200D01*
X145571340Y-89581463D01*
X145656833Y-89573080D01*
X145662734Y-89571298D01*
X145662736Y-89571298D01*
X145736053Y-89549162D01*
X145846169Y-89515916D01*
X146020796Y-89423066D01*
X146107062Y-89352709D01*
X146169287Y-89301960D01*
X146169290Y-89301957D01*
X146174062Y-89298065D01*
X146226892Y-89234205D01*
X146228416Y-89232363D01*
X146287249Y-89192625D01*
X146358227Y-89191004D01*
X146418815Y-89228013D01*
X146449775Y-89291903D01*
X146451500Y-89312679D01*
X146451500Y-91944500D01*
X146431498Y-92012621D01*
X146377842Y-92059114D01*
X146325500Y-92070500D01*
X104594500Y-92070500D01*
X104526379Y-92050498D01*
X104479886Y-91996842D01*
X104468500Y-91944500D01*
X104468500Y-89313158D01*
X104488502Y-89245037D01*
X104542158Y-89198544D01*
X104612432Y-89188440D01*
X104677012Y-89217934D01*
X104692693Y-89234202D01*
X104735968Y-89288025D01*
X104740692Y-89291989D01*
X104747933Y-89298065D01*
X104887474Y-89415154D01*
X104892872Y-89418121D01*
X104892877Y-89418125D01*
X105036180Y-89496905D01*
X105060787Y-89510433D01*
X105066654Y-89512294D01*
X105066656Y-89512295D01*
X105243436Y-89568373D01*
X105249306Y-89570235D01*
X105403227Y-89587500D01*
X105509769Y-89587500D01*
X105512825Y-89587200D01*
X105512832Y-89587200D01*
X105571340Y-89581463D01*
X105656833Y-89573080D01*
X105662734Y-89571298D01*
X105662736Y-89571298D01*
X105736053Y-89549162D01*
X105846169Y-89515916D01*
X106020796Y-89423066D01*
X106107062Y-89352709D01*
X106169287Y-89301960D01*
X106169290Y-89301957D01*
X106174062Y-89298065D01*
X106226892Y-89234205D01*
X106296201Y-89150425D01*
X106296203Y-89150421D01*
X106300130Y-89145675D01*
X106394198Y-88971701D01*
X106452682Y-88782768D01*
X106473355Y-88586075D01*
X106455430Y-88389112D01*
X106450222Y-88371414D01*
X106401330Y-88205294D01*
X106399590Y-88199381D01*
X106389919Y-88180881D01*
X106310813Y-88029568D01*
X106307960Y-88024110D01*
X106184032Y-87869975D01*
X106177727Y-87864684D01*
X106154080Y-87844842D01*
X106032526Y-87742846D01*
X106027128Y-87739879D01*
X106027123Y-87739875D01*
X105864608Y-87650533D01*
X105864609Y-87650533D01*
X105859213Y-87647567D01*
X105853346Y-87645706D01*
X105853344Y-87645705D01*
X105676564Y-87589627D01*
X105676563Y-87589627D01*
X105670694Y-87587765D01*
X105516773Y-87570500D01*
X105410231Y-87570500D01*
X105407175Y-87570800D01*
X105407168Y-87570800D01*
X105348660Y-87576537D01*
X105263167Y-87584920D01*
X105257266Y-87586702D01*
X105257264Y-87586702D01*
X105183947Y-87608838D01*
X105073831Y-87642084D01*
X104899204Y-87734934D01*
X104812938Y-87805291D01*
X104750713Y-87856040D01*
X104750710Y-87856043D01*
X104745938Y-87859935D01*
X104742011Y-87864682D01*
X104742008Y-87864685D01*
X104691584Y-87925637D01*
X104632751Y-87965375D01*
X104561773Y-87966996D01*
X104501185Y-87929987D01*
X104470225Y-87866097D01*
X104468500Y-87845321D01*
X104468500Y-85213500D01*
X104488502Y-85145379D01*
X104542158Y-85098886D01*
X104594500Y-85087500D01*
X146325500Y-85087500D01*
X146393621Y-85107502D01*
G37*
%TD.AperFunction*%
%TD*%
%TA.AperFunction,Conductor*%
%TO.N,GND*%
G36*
X103393621Y-93107502D02*
G01*
X103440114Y-93161158D01*
X103451500Y-93213500D01*
X103451500Y-95844842D01*
X103431498Y-95912963D01*
X103377842Y-95959456D01*
X103307568Y-95969560D01*
X103242988Y-95940066D01*
X103227304Y-95923795D01*
X103187892Y-95874776D01*
X103184032Y-95869975D01*
X103177727Y-95864684D01*
X103154080Y-95844842D01*
X103032526Y-95742846D01*
X103027128Y-95739879D01*
X103027123Y-95739875D01*
X102864608Y-95650533D01*
X102864609Y-95650533D01*
X102859213Y-95647567D01*
X102853346Y-95645706D01*
X102853344Y-95645705D01*
X102676564Y-95589627D01*
X102676563Y-95589627D01*
X102670694Y-95587765D01*
X102516773Y-95570500D01*
X102410231Y-95570500D01*
X102407175Y-95570800D01*
X102407168Y-95570800D01*
X102348660Y-95576537D01*
X102263167Y-95584920D01*
X102257266Y-95586702D01*
X102257264Y-95586702D01*
X102183947Y-95608838D01*
X102073831Y-95642084D01*
X101899204Y-95734934D01*
X101812938Y-95805291D01*
X101750713Y-95856040D01*
X101750710Y-95856043D01*
X101745938Y-95859935D01*
X101742011Y-95864682D01*
X101742009Y-95864684D01*
X101623799Y-96007575D01*
X101623797Y-96007579D01*
X101619870Y-96012325D01*
X101525802Y-96186299D01*
X101467318Y-96375232D01*
X101446645Y-96571925D01*
X101464570Y-96768888D01*
X101466308Y-96774794D01*
X101466309Y-96774798D01*
X101470387Y-96788653D01*
X101520410Y-96958619D01*
X101523263Y-96964077D01*
X101523265Y-96964081D01*
X101570720Y-97054853D01*
X101612040Y-97133890D01*
X101735968Y-97288025D01*
X101740692Y-97291989D01*
X101747933Y-97298065D01*
X101887474Y-97415154D01*
X101892872Y-97418121D01*
X101892877Y-97418125D01*
X102036180Y-97496905D01*
X102060787Y-97510433D01*
X102066654Y-97512294D01*
X102066656Y-97512295D01*
X102243436Y-97568373D01*
X102249306Y-97570235D01*
X102403227Y-97587500D01*
X102509769Y-97587500D01*
X102512825Y-97587200D01*
X102512832Y-97587200D01*
X102571340Y-97581463D01*
X102656833Y-97573080D01*
X102662734Y-97571298D01*
X102662736Y-97571298D01*
X102736053Y-97549162D01*
X102846169Y-97515916D01*
X103020796Y-97423066D01*
X103107062Y-97352709D01*
X103169287Y-97301960D01*
X103169290Y-97301957D01*
X103174062Y-97298065D01*
X103226892Y-97234205D01*
X103228416Y-97232363D01*
X103287249Y-97192625D01*
X103358227Y-97191004D01*
X103418815Y-97228013D01*
X103449775Y-97291903D01*
X103451500Y-97312679D01*
X103451500Y-99944500D01*
X103431498Y-100012621D01*
X103377842Y-100059114D01*
X103325500Y-100070500D01*
X61594500Y-100070500D01*
X61526379Y-100050498D01*
X61479886Y-99996842D01*
X61468500Y-99944500D01*
X61468500Y-97313158D01*
X61488502Y-97245037D01*
X61542158Y-97198544D01*
X61612432Y-97188440D01*
X61677012Y-97217934D01*
X61692693Y-97234202D01*
X61735968Y-97288025D01*
X61740692Y-97291989D01*
X61747933Y-97298065D01*
X61887474Y-97415154D01*
X61892872Y-97418121D01*
X61892877Y-97418125D01*
X62036180Y-97496905D01*
X62060787Y-97510433D01*
X62066654Y-97512294D01*
X62066656Y-97512295D01*
X62243436Y-97568373D01*
X62249306Y-97570235D01*
X62403227Y-97587500D01*
X62509769Y-97587500D01*
X62512825Y-97587200D01*
X62512832Y-97587200D01*
X62571340Y-97581463D01*
X62656833Y-97573080D01*
X62662734Y-97571298D01*
X62662736Y-97571298D01*
X62736053Y-97549162D01*
X62846169Y-97515916D01*
X63020796Y-97423066D01*
X63107062Y-97352709D01*
X63169287Y-97301960D01*
X63169290Y-97301957D01*
X63174062Y-97298065D01*
X63226892Y-97234205D01*
X63296201Y-97150425D01*
X63296203Y-97150421D01*
X63300130Y-97145675D01*
X63394198Y-96971701D01*
X63452682Y-96782768D01*
X63473355Y-96586075D01*
X63455430Y-96389112D01*
X63450222Y-96371414D01*
X63401330Y-96205294D01*
X63399590Y-96199381D01*
X63389919Y-96180881D01*
X63310813Y-96029568D01*
X63307960Y-96024110D01*
X63184032Y-95869975D01*
X63177727Y-95864684D01*
X63154080Y-95844842D01*
X63032526Y-95742846D01*
X63027128Y-95739879D01*
X63027123Y-95739875D01*
X62864608Y-95650533D01*
X62864609Y-95650533D01*
X62859213Y-95647567D01*
X62853346Y-95645706D01*
X62853344Y-95645705D01*
X62676564Y-95589627D01*
X62676563Y-95589627D01*
X62670694Y-95587765D01*
X62516773Y-95570500D01*
X62410231Y-95570500D01*
X62407175Y-95570800D01*
X62407168Y-95570800D01*
X62348660Y-95576537D01*
X62263167Y-95584920D01*
X62257266Y-95586702D01*
X62257264Y-95586702D01*
X62183947Y-95608838D01*
X62073831Y-95642084D01*
X61899204Y-95734934D01*
X61812938Y-95805291D01*
X61750713Y-95856040D01*
X61750710Y-95856043D01*
X61745938Y-95859935D01*
X61742011Y-95864682D01*
X61742008Y-95864685D01*
X61691584Y-95925637D01*
X61632751Y-95965375D01*
X61561773Y-95966996D01*
X61501185Y-95929987D01*
X61470225Y-95866097D01*
X61468500Y-95845321D01*
X61468500Y-93213500D01*
X61488502Y-93145379D01*
X61542158Y-93098886D01*
X61594500Y-93087500D01*
X103325500Y-93087500D01*
X103393621Y-93107502D01*
G37*
%TD.AperFunction*%
%TD*%
%TA.AperFunction,Conductor*%
%TO.N,GND*%
G36*
X146393621Y-93107502D02*
G01*
X146440114Y-93161158D01*
X146451500Y-93213500D01*
X146451500Y-95844842D01*
X146431498Y-95912963D01*
X146377842Y-95959456D01*
X146307568Y-95969560D01*
X146242988Y-95940066D01*
X146227304Y-95923795D01*
X146187892Y-95874776D01*
X146184032Y-95869975D01*
X146177727Y-95864684D01*
X146154080Y-95844842D01*
X146032526Y-95742846D01*
X146027128Y-95739879D01*
X146027123Y-95739875D01*
X145864608Y-95650533D01*
X145864609Y-95650533D01*
X145859213Y-95647567D01*
X145853346Y-95645706D01*
X145853344Y-95645705D01*
X145676564Y-95589627D01*
X145676563Y-95589627D01*
X145670694Y-95587765D01*
X145516773Y-95570500D01*
X145410231Y-95570500D01*
X145407175Y-95570800D01*
X145407168Y-95570800D01*
X145348660Y-95576537D01*
X145263167Y-95584920D01*
X145257266Y-95586702D01*
X145257264Y-95586702D01*
X145183947Y-95608838D01*
X145073831Y-95642084D01*
X144899204Y-95734934D01*
X144812938Y-95805291D01*
X144750713Y-95856040D01*
X144750710Y-95856043D01*
X144745938Y-95859935D01*
X144742011Y-95864682D01*
X144742009Y-95864684D01*
X144623799Y-96007575D01*
X144623797Y-96007579D01*
X144619870Y-96012325D01*
X144525802Y-96186299D01*
X144467318Y-96375232D01*
X144446645Y-96571925D01*
X144464570Y-96768888D01*
X144466308Y-96774794D01*
X144466309Y-96774798D01*
X144470387Y-96788653D01*
X144520410Y-96958619D01*
X144523263Y-96964077D01*
X144523265Y-96964081D01*
X144570720Y-97054853D01*
X144612040Y-97133890D01*
X144735968Y-97288025D01*
X144740692Y-97291989D01*
X144747933Y-97298065D01*
X144887474Y-97415154D01*
X144892872Y-97418121D01*
X144892877Y-97418125D01*
X145036180Y-97496905D01*
X145060787Y-97510433D01*
X145066654Y-97512294D01*
X145066656Y-97512295D01*
X145243436Y-97568373D01*
X145249306Y-97570235D01*
X145403227Y-97587500D01*
X145509769Y-97587500D01*
X145512825Y-97587200D01*
X145512832Y-97587200D01*
X145571340Y-97581463D01*
X145656833Y-97573080D01*
X145662734Y-97571298D01*
X145662736Y-97571298D01*
X145736053Y-97549162D01*
X145846169Y-97515916D01*
X146020796Y-97423066D01*
X146107062Y-97352709D01*
X146169287Y-97301960D01*
X146169290Y-97301957D01*
X146174062Y-97298065D01*
X146226892Y-97234205D01*
X146228416Y-97232363D01*
X146287249Y-97192625D01*
X146358227Y-97191004D01*
X146418815Y-97228013D01*
X146449775Y-97291903D01*
X146451500Y-97312679D01*
X146451500Y-99944500D01*
X146431498Y-100012621D01*
X146377842Y-100059114D01*
X146325500Y-100070500D01*
X104594500Y-100070500D01*
X104526379Y-100050498D01*
X104479886Y-99996842D01*
X104468500Y-99944500D01*
X104468500Y-97313158D01*
X104488502Y-97245037D01*
X104542158Y-97198544D01*
X104612432Y-97188440D01*
X104677012Y-97217934D01*
X104692693Y-97234202D01*
X104735968Y-97288025D01*
X104740692Y-97291989D01*
X104747933Y-97298065D01*
X104887474Y-97415154D01*
X104892872Y-97418121D01*
X104892877Y-97418125D01*
X105036180Y-97496905D01*
X105060787Y-97510433D01*
X105066654Y-97512294D01*
X105066656Y-97512295D01*
X105243436Y-97568373D01*
X105249306Y-97570235D01*
X105403227Y-97587500D01*
X105509769Y-97587500D01*
X105512825Y-97587200D01*
X105512832Y-97587200D01*
X105571340Y-97581463D01*
X105656833Y-97573080D01*
X105662734Y-97571298D01*
X105662736Y-97571298D01*
X105736053Y-97549162D01*
X105846169Y-97515916D01*
X106020796Y-97423066D01*
X106107062Y-97352709D01*
X106169287Y-97301960D01*
X106169290Y-97301957D01*
X106174062Y-97298065D01*
X106226892Y-97234205D01*
X106296201Y-97150425D01*
X106296203Y-97150421D01*
X106300130Y-97145675D01*
X106394198Y-96971701D01*
X106452682Y-96782768D01*
X106473355Y-96586075D01*
X106455430Y-96389112D01*
X106450222Y-96371414D01*
X106401330Y-96205294D01*
X106399590Y-96199381D01*
X106389919Y-96180881D01*
X106310813Y-96029568D01*
X106307960Y-96024110D01*
X106184032Y-95869975D01*
X106177727Y-95864684D01*
X106154080Y-95844842D01*
X106032526Y-95742846D01*
X106027128Y-95739879D01*
X106027123Y-95739875D01*
X105864608Y-95650533D01*
X105864609Y-95650533D01*
X105859213Y-95647567D01*
X105853346Y-95645706D01*
X105853344Y-95645705D01*
X105676564Y-95589627D01*
X105676563Y-95589627D01*
X105670694Y-95587765D01*
X105516773Y-95570500D01*
X105410231Y-95570500D01*
X105407175Y-95570800D01*
X105407168Y-95570800D01*
X105348660Y-95576537D01*
X105263167Y-95584920D01*
X105257266Y-95586702D01*
X105257264Y-95586702D01*
X105183947Y-95608838D01*
X105073831Y-95642084D01*
X104899204Y-95734934D01*
X104812938Y-95805291D01*
X104750713Y-95856040D01*
X104750710Y-95856043D01*
X104745938Y-95859935D01*
X104742011Y-95864682D01*
X104742008Y-95864685D01*
X104691584Y-95925637D01*
X104632751Y-95965375D01*
X104561773Y-95966996D01*
X104501185Y-95929987D01*
X104470225Y-95866097D01*
X104468500Y-95845321D01*
X104468500Y-93213500D01*
X104488502Y-93145379D01*
X104542158Y-93098886D01*
X104594500Y-93087500D01*
X146325500Y-93087500D01*
X146393621Y-93107502D01*
G37*
%TD.AperFunction*%
%TD*%
%TA.AperFunction,Conductor*%
%TO.N,GND*%
G36*
X103393621Y-101107502D02*
G01*
X103440114Y-101161158D01*
X103451500Y-101213500D01*
X103451500Y-103844842D01*
X103431498Y-103912963D01*
X103377842Y-103959456D01*
X103307568Y-103969560D01*
X103242988Y-103940066D01*
X103227304Y-103923795D01*
X103187892Y-103874776D01*
X103184032Y-103869975D01*
X103177727Y-103864684D01*
X103154080Y-103844842D01*
X103032526Y-103742846D01*
X103027128Y-103739879D01*
X103027123Y-103739875D01*
X102864608Y-103650533D01*
X102864609Y-103650533D01*
X102859213Y-103647567D01*
X102853346Y-103645706D01*
X102853344Y-103645705D01*
X102676564Y-103589627D01*
X102676563Y-103589627D01*
X102670694Y-103587765D01*
X102516773Y-103570500D01*
X102410231Y-103570500D01*
X102407175Y-103570800D01*
X102407168Y-103570800D01*
X102348660Y-103576537D01*
X102263167Y-103584920D01*
X102257266Y-103586702D01*
X102257264Y-103586702D01*
X102183947Y-103608838D01*
X102073831Y-103642084D01*
X101899204Y-103734934D01*
X101812938Y-103805291D01*
X101750713Y-103856040D01*
X101750710Y-103856043D01*
X101745938Y-103859935D01*
X101742011Y-103864682D01*
X101742009Y-103864684D01*
X101623799Y-104007575D01*
X101623797Y-104007579D01*
X101619870Y-104012325D01*
X101525802Y-104186299D01*
X101467318Y-104375232D01*
X101446645Y-104571925D01*
X101464570Y-104768888D01*
X101466308Y-104774794D01*
X101466309Y-104774798D01*
X101470387Y-104788653D01*
X101520410Y-104958619D01*
X101523263Y-104964077D01*
X101523265Y-104964081D01*
X101570720Y-105054853D01*
X101612040Y-105133890D01*
X101735968Y-105288025D01*
X101740692Y-105291989D01*
X101747933Y-105298065D01*
X101887474Y-105415154D01*
X101892872Y-105418121D01*
X101892877Y-105418125D01*
X102036180Y-105496905D01*
X102060787Y-105510433D01*
X102066654Y-105512294D01*
X102066656Y-105512295D01*
X102243436Y-105568373D01*
X102249306Y-105570235D01*
X102403227Y-105587500D01*
X102509769Y-105587500D01*
X102512825Y-105587200D01*
X102512832Y-105587200D01*
X102571340Y-105581463D01*
X102656833Y-105573080D01*
X102662734Y-105571298D01*
X102662736Y-105571298D01*
X102736053Y-105549162D01*
X102846169Y-105515916D01*
X103020796Y-105423066D01*
X103107062Y-105352709D01*
X103169287Y-105301960D01*
X103169290Y-105301957D01*
X103174062Y-105298065D01*
X103226892Y-105234205D01*
X103228416Y-105232363D01*
X103287249Y-105192625D01*
X103358227Y-105191004D01*
X103418815Y-105228013D01*
X103449775Y-105291903D01*
X103451500Y-105312679D01*
X103451500Y-107944500D01*
X103431498Y-108012621D01*
X103377842Y-108059114D01*
X103325500Y-108070500D01*
X61594500Y-108070500D01*
X61526379Y-108050498D01*
X61479886Y-107996842D01*
X61468500Y-107944500D01*
X61468500Y-105313158D01*
X61488502Y-105245037D01*
X61542158Y-105198544D01*
X61612432Y-105188440D01*
X61677012Y-105217934D01*
X61692693Y-105234202D01*
X61735968Y-105288025D01*
X61740692Y-105291989D01*
X61747933Y-105298065D01*
X61887474Y-105415154D01*
X61892872Y-105418121D01*
X61892877Y-105418125D01*
X62036180Y-105496905D01*
X62060787Y-105510433D01*
X62066654Y-105512294D01*
X62066656Y-105512295D01*
X62243436Y-105568373D01*
X62249306Y-105570235D01*
X62403227Y-105587500D01*
X62509769Y-105587500D01*
X62512825Y-105587200D01*
X62512832Y-105587200D01*
X62571340Y-105581463D01*
X62656833Y-105573080D01*
X62662734Y-105571298D01*
X62662736Y-105571298D01*
X62736053Y-105549162D01*
X62846169Y-105515916D01*
X63020796Y-105423066D01*
X63107062Y-105352709D01*
X63169287Y-105301960D01*
X63169290Y-105301957D01*
X63174062Y-105298065D01*
X63226892Y-105234205D01*
X63296201Y-105150425D01*
X63296203Y-105150421D01*
X63300130Y-105145675D01*
X63394198Y-104971701D01*
X63452682Y-104782768D01*
X63473355Y-104586075D01*
X63455430Y-104389112D01*
X63450222Y-104371414D01*
X63401330Y-104205294D01*
X63399590Y-104199381D01*
X63389919Y-104180881D01*
X63310813Y-104029568D01*
X63307960Y-104024110D01*
X63184032Y-103869975D01*
X63177727Y-103864684D01*
X63154080Y-103844842D01*
X63032526Y-103742846D01*
X63027128Y-103739879D01*
X63027123Y-103739875D01*
X62864608Y-103650533D01*
X62864609Y-103650533D01*
X62859213Y-103647567D01*
X62853346Y-103645706D01*
X62853344Y-103645705D01*
X62676564Y-103589627D01*
X62676563Y-103589627D01*
X62670694Y-103587765D01*
X62516773Y-103570500D01*
X62410231Y-103570500D01*
X62407175Y-103570800D01*
X62407168Y-103570800D01*
X62348660Y-103576537D01*
X62263167Y-103584920D01*
X62257266Y-103586702D01*
X62257264Y-103586702D01*
X62183947Y-103608838D01*
X62073831Y-103642084D01*
X61899204Y-103734934D01*
X61812938Y-103805291D01*
X61750713Y-103856040D01*
X61750710Y-103856043D01*
X61745938Y-103859935D01*
X61742011Y-103864682D01*
X61742008Y-103864685D01*
X61691584Y-103925637D01*
X61632751Y-103965375D01*
X61561773Y-103966996D01*
X61501185Y-103929987D01*
X61470225Y-103866097D01*
X61468500Y-103845321D01*
X61468500Y-101213500D01*
X61488502Y-101145379D01*
X61542158Y-101098886D01*
X61594500Y-101087500D01*
X103325500Y-101087500D01*
X103393621Y-101107502D01*
G37*
%TD.AperFunction*%
%TD*%
%TA.AperFunction,Conductor*%
%TO.N,GND*%
G36*
X146393621Y-101107502D02*
G01*
X146440114Y-101161158D01*
X146451500Y-101213500D01*
X146451500Y-103844842D01*
X146431498Y-103912963D01*
X146377842Y-103959456D01*
X146307568Y-103969560D01*
X146242988Y-103940066D01*
X146227304Y-103923795D01*
X146187892Y-103874776D01*
X146184032Y-103869975D01*
X146177727Y-103864684D01*
X146154080Y-103844842D01*
X146032526Y-103742846D01*
X146027128Y-103739879D01*
X146027123Y-103739875D01*
X145864608Y-103650533D01*
X145864609Y-103650533D01*
X145859213Y-103647567D01*
X145853346Y-103645706D01*
X145853344Y-103645705D01*
X145676564Y-103589627D01*
X145676563Y-103589627D01*
X145670694Y-103587765D01*
X145516773Y-103570500D01*
X145410231Y-103570500D01*
X145407175Y-103570800D01*
X145407168Y-103570800D01*
X145348660Y-103576537D01*
X145263167Y-103584920D01*
X145257266Y-103586702D01*
X145257264Y-103586702D01*
X145183947Y-103608838D01*
X145073831Y-103642084D01*
X144899204Y-103734934D01*
X144812938Y-103805291D01*
X144750713Y-103856040D01*
X144750710Y-103856043D01*
X144745938Y-103859935D01*
X144742011Y-103864682D01*
X144742009Y-103864684D01*
X144623799Y-104007575D01*
X144623797Y-104007579D01*
X144619870Y-104012325D01*
X144525802Y-104186299D01*
X144467318Y-104375232D01*
X144446645Y-104571925D01*
X144464570Y-104768888D01*
X144466308Y-104774794D01*
X144466309Y-104774798D01*
X144470387Y-104788653D01*
X144520410Y-104958619D01*
X144523263Y-104964077D01*
X144523265Y-104964081D01*
X144570720Y-105054853D01*
X144612040Y-105133890D01*
X144735968Y-105288025D01*
X144740692Y-105291989D01*
X144747933Y-105298065D01*
X144887474Y-105415154D01*
X144892872Y-105418121D01*
X144892877Y-105418125D01*
X145036180Y-105496905D01*
X145060787Y-105510433D01*
X145066654Y-105512294D01*
X145066656Y-105512295D01*
X145243436Y-105568373D01*
X145249306Y-105570235D01*
X145403227Y-105587500D01*
X145509769Y-105587500D01*
X145512825Y-105587200D01*
X145512832Y-105587200D01*
X145571340Y-105581463D01*
X145656833Y-105573080D01*
X145662734Y-105571298D01*
X145662736Y-105571298D01*
X145736053Y-105549162D01*
X145846169Y-105515916D01*
X146020796Y-105423066D01*
X146107062Y-105352709D01*
X146169287Y-105301960D01*
X146169290Y-105301957D01*
X146174062Y-105298065D01*
X146226892Y-105234205D01*
X146228416Y-105232363D01*
X146287249Y-105192625D01*
X146358227Y-105191004D01*
X146418815Y-105228013D01*
X146449775Y-105291903D01*
X146451500Y-105312679D01*
X146451500Y-107944500D01*
X146431498Y-108012621D01*
X146377842Y-108059114D01*
X146325500Y-108070500D01*
X104594500Y-108070500D01*
X104526379Y-108050498D01*
X104479886Y-107996842D01*
X104468500Y-107944500D01*
X104468500Y-105313158D01*
X104488502Y-105245037D01*
X104542158Y-105198544D01*
X104612432Y-105188440D01*
X104677012Y-105217934D01*
X104692693Y-105234202D01*
X104735968Y-105288025D01*
X104740692Y-105291989D01*
X104747933Y-105298065D01*
X104887474Y-105415154D01*
X104892872Y-105418121D01*
X104892877Y-105418125D01*
X105036180Y-105496905D01*
X105060787Y-105510433D01*
X105066654Y-105512294D01*
X105066656Y-105512295D01*
X105243436Y-105568373D01*
X105249306Y-105570235D01*
X105403227Y-105587500D01*
X105509769Y-105587500D01*
X105512825Y-105587200D01*
X105512832Y-105587200D01*
X105571340Y-105581463D01*
X105656833Y-105573080D01*
X105662734Y-105571298D01*
X105662736Y-105571298D01*
X105736053Y-105549162D01*
X105846169Y-105515916D01*
X106020796Y-105423066D01*
X106107062Y-105352709D01*
X106169287Y-105301960D01*
X106169290Y-105301957D01*
X106174062Y-105298065D01*
X106226892Y-105234205D01*
X106296201Y-105150425D01*
X106296203Y-105150421D01*
X106300130Y-105145675D01*
X106394198Y-104971701D01*
X106452682Y-104782768D01*
X106473355Y-104586075D01*
X106455430Y-104389112D01*
X106450222Y-104371414D01*
X106401330Y-104205294D01*
X106399590Y-104199381D01*
X106389919Y-104180881D01*
X106310813Y-104029568D01*
X106307960Y-104024110D01*
X106184032Y-103869975D01*
X106177727Y-103864684D01*
X106154080Y-103844842D01*
X106032526Y-103742846D01*
X106027128Y-103739879D01*
X106027123Y-103739875D01*
X105864608Y-103650533D01*
X105864609Y-103650533D01*
X105859213Y-103647567D01*
X105853346Y-103645706D01*
X105853344Y-103645705D01*
X105676564Y-103589627D01*
X105676563Y-103589627D01*
X105670694Y-103587765D01*
X105516773Y-103570500D01*
X105410231Y-103570500D01*
X105407175Y-103570800D01*
X105407168Y-103570800D01*
X105348660Y-103576537D01*
X105263167Y-103584920D01*
X105257266Y-103586702D01*
X105257264Y-103586702D01*
X105183947Y-103608838D01*
X105073831Y-103642084D01*
X104899204Y-103734934D01*
X104812938Y-103805291D01*
X104750713Y-103856040D01*
X104750710Y-103856043D01*
X104745938Y-103859935D01*
X104742011Y-103864682D01*
X104742008Y-103864685D01*
X104691584Y-103925637D01*
X104632751Y-103965375D01*
X104561773Y-103966996D01*
X104501185Y-103929987D01*
X104470225Y-103866097D01*
X104468500Y-103845321D01*
X104468500Y-101213500D01*
X104488502Y-101145379D01*
X104542158Y-101098886D01*
X104594500Y-101087500D01*
X146325500Y-101087500D01*
X146393621Y-101107502D01*
G37*
%TD.AperFunction*%
%TD*%
%TA.AperFunction,Conductor*%
%TO.N,GND*%
G36*
X103393621Y-109107502D02*
G01*
X103440114Y-109161158D01*
X103451500Y-109213500D01*
X103451500Y-111844842D01*
X103431498Y-111912963D01*
X103377842Y-111959456D01*
X103307568Y-111969560D01*
X103242988Y-111940066D01*
X103227304Y-111923795D01*
X103187892Y-111874776D01*
X103184032Y-111869975D01*
X103177727Y-111864684D01*
X103154080Y-111844842D01*
X103032526Y-111742846D01*
X103027128Y-111739879D01*
X103027123Y-111739875D01*
X102864608Y-111650533D01*
X102864609Y-111650533D01*
X102859213Y-111647567D01*
X102853346Y-111645706D01*
X102853344Y-111645705D01*
X102676564Y-111589627D01*
X102676563Y-111589627D01*
X102670694Y-111587765D01*
X102516773Y-111570500D01*
X102410231Y-111570500D01*
X102407175Y-111570800D01*
X102407168Y-111570800D01*
X102348660Y-111576537D01*
X102263167Y-111584920D01*
X102257266Y-111586702D01*
X102257264Y-111586702D01*
X102183947Y-111608838D01*
X102073831Y-111642084D01*
X101899204Y-111734934D01*
X101812938Y-111805291D01*
X101750713Y-111856040D01*
X101750710Y-111856043D01*
X101745938Y-111859935D01*
X101742011Y-111864682D01*
X101742009Y-111864684D01*
X101623799Y-112007575D01*
X101623797Y-112007579D01*
X101619870Y-112012325D01*
X101525802Y-112186299D01*
X101467318Y-112375232D01*
X101446645Y-112571925D01*
X101464570Y-112768888D01*
X101466308Y-112774794D01*
X101466309Y-112774798D01*
X101470387Y-112788653D01*
X101520410Y-112958619D01*
X101523263Y-112964077D01*
X101523265Y-112964081D01*
X101570720Y-113054853D01*
X101612040Y-113133890D01*
X101735968Y-113288025D01*
X101740692Y-113291989D01*
X101747933Y-113298065D01*
X101887474Y-113415154D01*
X101892872Y-113418121D01*
X101892877Y-113418125D01*
X102036180Y-113496905D01*
X102060787Y-113510433D01*
X102066654Y-113512294D01*
X102066656Y-113512295D01*
X102243436Y-113568373D01*
X102249306Y-113570235D01*
X102403227Y-113587500D01*
X102509769Y-113587500D01*
X102512825Y-113587200D01*
X102512832Y-113587200D01*
X102571340Y-113581463D01*
X102656833Y-113573080D01*
X102662734Y-113571298D01*
X102662736Y-113571298D01*
X102736053Y-113549162D01*
X102846169Y-113515916D01*
X103020796Y-113423066D01*
X103107062Y-113352709D01*
X103169287Y-113301960D01*
X103169290Y-113301957D01*
X103174062Y-113298065D01*
X103226892Y-113234205D01*
X103228416Y-113232363D01*
X103287249Y-113192625D01*
X103358227Y-113191004D01*
X103418815Y-113228013D01*
X103449775Y-113291903D01*
X103451500Y-113312679D01*
X103451500Y-115944500D01*
X103431498Y-116012621D01*
X103377842Y-116059114D01*
X103325500Y-116070500D01*
X61594500Y-116070500D01*
X61526379Y-116050498D01*
X61479886Y-115996842D01*
X61468500Y-115944500D01*
X61468500Y-113313158D01*
X61488502Y-113245037D01*
X61542158Y-113198544D01*
X61612432Y-113188440D01*
X61677012Y-113217934D01*
X61692693Y-113234202D01*
X61735968Y-113288025D01*
X61740692Y-113291989D01*
X61747933Y-113298065D01*
X61887474Y-113415154D01*
X61892872Y-113418121D01*
X61892877Y-113418125D01*
X62036180Y-113496905D01*
X62060787Y-113510433D01*
X62066654Y-113512294D01*
X62066656Y-113512295D01*
X62243436Y-113568373D01*
X62249306Y-113570235D01*
X62403227Y-113587500D01*
X62509769Y-113587500D01*
X62512825Y-113587200D01*
X62512832Y-113587200D01*
X62571340Y-113581463D01*
X62656833Y-113573080D01*
X62662734Y-113571298D01*
X62662736Y-113571298D01*
X62736053Y-113549162D01*
X62846169Y-113515916D01*
X63020796Y-113423066D01*
X63107062Y-113352709D01*
X63169287Y-113301960D01*
X63169290Y-113301957D01*
X63174062Y-113298065D01*
X63226892Y-113234205D01*
X63296201Y-113150425D01*
X63296203Y-113150421D01*
X63300130Y-113145675D01*
X63394198Y-112971701D01*
X63452682Y-112782768D01*
X63473355Y-112586075D01*
X63455430Y-112389112D01*
X63450222Y-112371414D01*
X63401330Y-112205294D01*
X63399590Y-112199381D01*
X63389919Y-112180881D01*
X63310813Y-112029568D01*
X63307960Y-112024110D01*
X63184032Y-111869975D01*
X63177727Y-111864684D01*
X63154080Y-111844842D01*
X63032526Y-111742846D01*
X63027128Y-111739879D01*
X63027123Y-111739875D01*
X62864608Y-111650533D01*
X62864609Y-111650533D01*
X62859213Y-111647567D01*
X62853346Y-111645706D01*
X62853344Y-111645705D01*
X62676564Y-111589627D01*
X62676563Y-111589627D01*
X62670694Y-111587765D01*
X62516773Y-111570500D01*
X62410231Y-111570500D01*
X62407175Y-111570800D01*
X62407168Y-111570800D01*
X62348660Y-111576537D01*
X62263167Y-111584920D01*
X62257266Y-111586702D01*
X62257264Y-111586702D01*
X62183947Y-111608838D01*
X62073831Y-111642084D01*
X61899204Y-111734934D01*
X61812938Y-111805291D01*
X61750713Y-111856040D01*
X61750710Y-111856043D01*
X61745938Y-111859935D01*
X61742011Y-111864682D01*
X61742008Y-111864685D01*
X61691584Y-111925637D01*
X61632751Y-111965375D01*
X61561773Y-111966996D01*
X61501185Y-111929987D01*
X61470225Y-111866097D01*
X61468500Y-111845321D01*
X61468500Y-109213500D01*
X61488502Y-109145379D01*
X61542158Y-109098886D01*
X61594500Y-109087500D01*
X103325500Y-109087500D01*
X103393621Y-109107502D01*
G37*
%TD.AperFunction*%
%TD*%
%TA.AperFunction,Conductor*%
%TO.N,GND*%
G36*
X146393621Y-109107502D02*
G01*
X146440114Y-109161158D01*
X146451500Y-109213500D01*
X146451500Y-111844842D01*
X146431498Y-111912963D01*
X146377842Y-111959456D01*
X146307568Y-111969560D01*
X146242988Y-111940066D01*
X146227304Y-111923795D01*
X146187892Y-111874776D01*
X146184032Y-111869975D01*
X146177727Y-111864684D01*
X146154080Y-111844842D01*
X146032526Y-111742846D01*
X146027128Y-111739879D01*
X146027123Y-111739875D01*
X145864608Y-111650533D01*
X145864609Y-111650533D01*
X145859213Y-111647567D01*
X145853346Y-111645706D01*
X145853344Y-111645705D01*
X145676564Y-111589627D01*
X145676563Y-111589627D01*
X145670694Y-111587765D01*
X145516773Y-111570500D01*
X145410231Y-111570500D01*
X145407175Y-111570800D01*
X145407168Y-111570800D01*
X145348660Y-111576537D01*
X145263167Y-111584920D01*
X145257266Y-111586702D01*
X145257264Y-111586702D01*
X145183947Y-111608838D01*
X145073831Y-111642084D01*
X144899204Y-111734934D01*
X144812938Y-111805291D01*
X144750713Y-111856040D01*
X144750710Y-111856043D01*
X144745938Y-111859935D01*
X144742011Y-111864682D01*
X144742009Y-111864684D01*
X144623799Y-112007575D01*
X144623797Y-112007579D01*
X144619870Y-112012325D01*
X144525802Y-112186299D01*
X144467318Y-112375232D01*
X144446645Y-112571925D01*
X144464570Y-112768888D01*
X144466308Y-112774794D01*
X144466309Y-112774798D01*
X144470387Y-112788653D01*
X144520410Y-112958619D01*
X144523263Y-112964077D01*
X144523265Y-112964081D01*
X144570720Y-113054853D01*
X144612040Y-113133890D01*
X144735968Y-113288025D01*
X144740692Y-113291989D01*
X144747933Y-113298065D01*
X144887474Y-113415154D01*
X144892872Y-113418121D01*
X144892877Y-113418125D01*
X145036180Y-113496905D01*
X145060787Y-113510433D01*
X145066654Y-113512294D01*
X145066656Y-113512295D01*
X145243436Y-113568373D01*
X145249306Y-113570235D01*
X145403227Y-113587500D01*
X145509769Y-113587500D01*
X145512825Y-113587200D01*
X145512832Y-113587200D01*
X145571340Y-113581463D01*
X145656833Y-113573080D01*
X145662734Y-113571298D01*
X145662736Y-113571298D01*
X145736053Y-113549162D01*
X145846169Y-113515916D01*
X146020796Y-113423066D01*
X146107062Y-113352709D01*
X146169287Y-113301960D01*
X146169290Y-113301957D01*
X146174062Y-113298065D01*
X146226892Y-113234205D01*
X146228416Y-113232363D01*
X146287249Y-113192625D01*
X146358227Y-113191004D01*
X146418815Y-113228013D01*
X146449775Y-113291903D01*
X146451500Y-113312679D01*
X146451500Y-115944500D01*
X146431498Y-116012621D01*
X146377842Y-116059114D01*
X146325500Y-116070500D01*
X104594500Y-116070500D01*
X104526379Y-116050498D01*
X104479886Y-115996842D01*
X104468500Y-115944500D01*
X104468500Y-113313158D01*
X104488502Y-113245037D01*
X104542158Y-113198544D01*
X104612432Y-113188440D01*
X104677012Y-113217934D01*
X104692693Y-113234202D01*
X104735968Y-113288025D01*
X104740692Y-113291989D01*
X104747933Y-113298065D01*
X104887474Y-113415154D01*
X104892872Y-113418121D01*
X104892877Y-113418125D01*
X105036180Y-113496905D01*
X105060787Y-113510433D01*
X105066654Y-113512294D01*
X105066656Y-113512295D01*
X105243436Y-113568373D01*
X105249306Y-113570235D01*
X105403227Y-113587500D01*
X105509769Y-113587500D01*
X105512825Y-113587200D01*
X105512832Y-113587200D01*
X105571340Y-113581463D01*
X105656833Y-113573080D01*
X105662734Y-113571298D01*
X105662736Y-113571298D01*
X105736053Y-113549162D01*
X105846169Y-113515916D01*
X106020796Y-113423066D01*
X106107062Y-113352709D01*
X106169287Y-113301960D01*
X106169290Y-113301957D01*
X106174062Y-113298065D01*
X106226892Y-113234205D01*
X106296201Y-113150425D01*
X106296203Y-113150421D01*
X106300130Y-113145675D01*
X106394198Y-112971701D01*
X106452682Y-112782768D01*
X106473355Y-112586075D01*
X106455430Y-112389112D01*
X106450222Y-112371414D01*
X106401330Y-112205294D01*
X106399590Y-112199381D01*
X106389919Y-112180881D01*
X106310813Y-112029568D01*
X106307960Y-112024110D01*
X106184032Y-111869975D01*
X106177727Y-111864684D01*
X106154080Y-111844842D01*
X106032526Y-111742846D01*
X106027128Y-111739879D01*
X106027123Y-111739875D01*
X105864608Y-111650533D01*
X105864609Y-111650533D01*
X105859213Y-111647567D01*
X105853346Y-111645706D01*
X105853344Y-111645705D01*
X105676564Y-111589627D01*
X105676563Y-111589627D01*
X105670694Y-111587765D01*
X105516773Y-111570500D01*
X105410231Y-111570500D01*
X105407175Y-111570800D01*
X105407168Y-111570800D01*
X105348660Y-111576537D01*
X105263167Y-111584920D01*
X105257266Y-111586702D01*
X105257264Y-111586702D01*
X105183947Y-111608838D01*
X105073831Y-111642084D01*
X104899204Y-111734934D01*
X104812938Y-111805291D01*
X104750713Y-111856040D01*
X104750710Y-111856043D01*
X104745938Y-111859935D01*
X104742011Y-111864682D01*
X104742008Y-111864685D01*
X104691584Y-111925637D01*
X104632751Y-111965375D01*
X104561773Y-111966996D01*
X104501185Y-111929987D01*
X104470225Y-111866097D01*
X104468500Y-111845321D01*
X104468500Y-109213500D01*
X104488502Y-109145379D01*
X104542158Y-109098886D01*
X104594500Y-109087500D01*
X146325500Y-109087500D01*
X146393621Y-109107502D01*
G37*
%TD.AperFunction*%
%TD*%
%TA.AperFunction,Conductor*%
%TO.N,GND*%
G36*
X103393621Y-117107502D02*
G01*
X103440114Y-117161158D01*
X103451500Y-117213500D01*
X103451500Y-119844842D01*
X103431498Y-119912963D01*
X103377842Y-119959456D01*
X103307568Y-119969560D01*
X103242988Y-119940066D01*
X103227304Y-119923795D01*
X103187892Y-119874776D01*
X103184032Y-119869975D01*
X103177727Y-119864684D01*
X103154080Y-119844842D01*
X103032526Y-119742846D01*
X103027128Y-119739879D01*
X103027123Y-119739875D01*
X102864608Y-119650533D01*
X102864609Y-119650533D01*
X102859213Y-119647567D01*
X102853346Y-119645706D01*
X102853344Y-119645705D01*
X102676564Y-119589627D01*
X102676563Y-119589627D01*
X102670694Y-119587765D01*
X102516773Y-119570500D01*
X102410231Y-119570500D01*
X102407175Y-119570800D01*
X102407168Y-119570800D01*
X102348660Y-119576537D01*
X102263167Y-119584920D01*
X102257266Y-119586702D01*
X102257264Y-119586702D01*
X102183947Y-119608838D01*
X102073831Y-119642084D01*
X101899204Y-119734934D01*
X101812938Y-119805291D01*
X101750713Y-119856040D01*
X101750710Y-119856043D01*
X101745938Y-119859935D01*
X101742011Y-119864682D01*
X101742009Y-119864684D01*
X101623799Y-120007575D01*
X101623797Y-120007579D01*
X101619870Y-120012325D01*
X101525802Y-120186299D01*
X101467318Y-120375232D01*
X101446645Y-120571925D01*
X101464570Y-120768888D01*
X101466308Y-120774794D01*
X101466309Y-120774798D01*
X101470387Y-120788653D01*
X101520410Y-120958619D01*
X101523263Y-120964077D01*
X101523265Y-120964081D01*
X101570720Y-121054853D01*
X101612040Y-121133890D01*
X101735968Y-121288025D01*
X101740692Y-121291989D01*
X101747933Y-121298065D01*
X101887474Y-121415154D01*
X101892872Y-121418121D01*
X101892877Y-121418125D01*
X102036180Y-121496905D01*
X102060787Y-121510433D01*
X102066654Y-121512294D01*
X102066656Y-121512295D01*
X102243436Y-121568373D01*
X102249306Y-121570235D01*
X102403227Y-121587500D01*
X102509769Y-121587500D01*
X102512825Y-121587200D01*
X102512832Y-121587200D01*
X102571340Y-121581463D01*
X102656833Y-121573080D01*
X102662734Y-121571298D01*
X102662736Y-121571298D01*
X102736053Y-121549162D01*
X102846169Y-121515916D01*
X103020796Y-121423066D01*
X103107062Y-121352709D01*
X103169287Y-121301960D01*
X103169290Y-121301957D01*
X103174062Y-121298065D01*
X103226892Y-121234205D01*
X103228416Y-121232363D01*
X103287249Y-121192625D01*
X103358227Y-121191004D01*
X103418815Y-121228013D01*
X103449775Y-121291903D01*
X103451500Y-121312679D01*
X103451500Y-123944500D01*
X103431498Y-124012621D01*
X103377842Y-124059114D01*
X103325500Y-124070500D01*
X61594500Y-124070500D01*
X61526379Y-124050498D01*
X61479886Y-123996842D01*
X61468500Y-123944500D01*
X61468500Y-121313158D01*
X61488502Y-121245037D01*
X61542158Y-121198544D01*
X61612432Y-121188440D01*
X61677012Y-121217934D01*
X61692693Y-121234202D01*
X61735968Y-121288025D01*
X61740692Y-121291989D01*
X61747933Y-121298065D01*
X61887474Y-121415154D01*
X61892872Y-121418121D01*
X61892877Y-121418125D01*
X62036180Y-121496905D01*
X62060787Y-121510433D01*
X62066654Y-121512294D01*
X62066656Y-121512295D01*
X62243436Y-121568373D01*
X62249306Y-121570235D01*
X62403227Y-121587500D01*
X62509769Y-121587500D01*
X62512825Y-121587200D01*
X62512832Y-121587200D01*
X62571340Y-121581463D01*
X62656833Y-121573080D01*
X62662734Y-121571298D01*
X62662736Y-121571298D01*
X62736053Y-121549162D01*
X62846169Y-121515916D01*
X63020796Y-121423066D01*
X63107062Y-121352709D01*
X63169287Y-121301960D01*
X63169290Y-121301957D01*
X63174062Y-121298065D01*
X63226892Y-121234205D01*
X63296201Y-121150425D01*
X63296203Y-121150421D01*
X63300130Y-121145675D01*
X63394198Y-120971701D01*
X63452682Y-120782768D01*
X63473355Y-120586075D01*
X63455430Y-120389112D01*
X63450222Y-120371414D01*
X63401330Y-120205294D01*
X63399590Y-120199381D01*
X63389919Y-120180881D01*
X63310813Y-120029568D01*
X63307960Y-120024110D01*
X63184032Y-119869975D01*
X63177727Y-119864684D01*
X63154080Y-119844842D01*
X63032526Y-119742846D01*
X63027128Y-119739879D01*
X63027123Y-119739875D01*
X62864608Y-119650533D01*
X62864609Y-119650533D01*
X62859213Y-119647567D01*
X62853346Y-119645706D01*
X62853344Y-119645705D01*
X62676564Y-119589627D01*
X62676563Y-119589627D01*
X62670694Y-119587765D01*
X62516773Y-119570500D01*
X62410231Y-119570500D01*
X62407175Y-119570800D01*
X62407168Y-119570800D01*
X62348660Y-119576537D01*
X62263167Y-119584920D01*
X62257266Y-119586702D01*
X62257264Y-119586702D01*
X62183947Y-119608838D01*
X62073831Y-119642084D01*
X61899204Y-119734934D01*
X61812938Y-119805291D01*
X61750713Y-119856040D01*
X61750710Y-119856043D01*
X61745938Y-119859935D01*
X61742011Y-119864682D01*
X61742008Y-119864685D01*
X61691584Y-119925637D01*
X61632751Y-119965375D01*
X61561773Y-119966996D01*
X61501185Y-119929987D01*
X61470225Y-119866097D01*
X61468500Y-119845321D01*
X61468500Y-117213500D01*
X61488502Y-117145379D01*
X61542158Y-117098886D01*
X61594500Y-117087500D01*
X103325500Y-117087500D01*
X103393621Y-117107502D01*
G37*
%TD.AperFunction*%
%TD*%
%TA.AperFunction,Conductor*%
%TO.N,GND*%
G36*
X146393621Y-117107502D02*
G01*
X146440114Y-117161158D01*
X146451500Y-117213500D01*
X146451500Y-119844842D01*
X146431498Y-119912963D01*
X146377842Y-119959456D01*
X146307568Y-119969560D01*
X146242988Y-119940066D01*
X146227304Y-119923795D01*
X146187892Y-119874776D01*
X146184032Y-119869975D01*
X146177727Y-119864684D01*
X146154080Y-119844842D01*
X146032526Y-119742846D01*
X146027128Y-119739879D01*
X146027123Y-119739875D01*
X145864608Y-119650533D01*
X145864609Y-119650533D01*
X145859213Y-119647567D01*
X145853346Y-119645706D01*
X145853344Y-119645705D01*
X145676564Y-119589627D01*
X145676563Y-119589627D01*
X145670694Y-119587765D01*
X145516773Y-119570500D01*
X145410231Y-119570500D01*
X145407175Y-119570800D01*
X145407168Y-119570800D01*
X145348660Y-119576537D01*
X145263167Y-119584920D01*
X145257266Y-119586702D01*
X145257264Y-119586702D01*
X145183947Y-119608838D01*
X145073831Y-119642084D01*
X144899204Y-119734934D01*
X144812938Y-119805291D01*
X144750713Y-119856040D01*
X144750710Y-119856043D01*
X144745938Y-119859935D01*
X144742011Y-119864682D01*
X144742009Y-119864684D01*
X144623799Y-120007575D01*
X144623797Y-120007579D01*
X144619870Y-120012325D01*
X144525802Y-120186299D01*
X144467318Y-120375232D01*
X144446645Y-120571925D01*
X144464570Y-120768888D01*
X144466308Y-120774794D01*
X144466309Y-120774798D01*
X144470387Y-120788653D01*
X144520410Y-120958619D01*
X144523263Y-120964077D01*
X144523265Y-120964081D01*
X144570720Y-121054853D01*
X144612040Y-121133890D01*
X144735968Y-121288025D01*
X144740692Y-121291989D01*
X144747933Y-121298065D01*
X144887474Y-121415154D01*
X144892872Y-121418121D01*
X144892877Y-121418125D01*
X145036180Y-121496905D01*
X145060787Y-121510433D01*
X145066654Y-121512294D01*
X145066656Y-121512295D01*
X145243436Y-121568373D01*
X145249306Y-121570235D01*
X145403227Y-121587500D01*
X145509769Y-121587500D01*
X145512825Y-121587200D01*
X145512832Y-121587200D01*
X145571340Y-121581463D01*
X145656833Y-121573080D01*
X145662734Y-121571298D01*
X145662736Y-121571298D01*
X145736053Y-121549162D01*
X145846169Y-121515916D01*
X146020796Y-121423066D01*
X146107062Y-121352709D01*
X146169287Y-121301960D01*
X146169290Y-121301957D01*
X146174062Y-121298065D01*
X146226892Y-121234205D01*
X146228416Y-121232363D01*
X146287249Y-121192625D01*
X146358227Y-121191004D01*
X146418815Y-121228013D01*
X146449775Y-121291903D01*
X146451500Y-121312679D01*
X146451500Y-123944500D01*
X146431498Y-124012621D01*
X146377842Y-124059114D01*
X146325500Y-124070500D01*
X104594500Y-124070500D01*
X104526379Y-124050498D01*
X104479886Y-123996842D01*
X104468500Y-123944500D01*
X104468500Y-121313158D01*
X104488502Y-121245037D01*
X104542158Y-121198544D01*
X104612432Y-121188440D01*
X104677012Y-121217934D01*
X104692693Y-121234202D01*
X104735968Y-121288025D01*
X104740692Y-121291989D01*
X104747933Y-121298065D01*
X104887474Y-121415154D01*
X104892872Y-121418121D01*
X104892877Y-121418125D01*
X105036180Y-121496905D01*
X105060787Y-121510433D01*
X105066654Y-121512294D01*
X105066656Y-121512295D01*
X105243436Y-121568373D01*
X105249306Y-121570235D01*
X105403227Y-121587500D01*
X105509769Y-121587500D01*
X105512825Y-121587200D01*
X105512832Y-121587200D01*
X105571340Y-121581463D01*
X105656833Y-121573080D01*
X105662734Y-121571298D01*
X105662736Y-121571298D01*
X105736053Y-121549162D01*
X105846169Y-121515916D01*
X106020796Y-121423066D01*
X106107062Y-121352709D01*
X106169287Y-121301960D01*
X106169290Y-121301957D01*
X106174062Y-121298065D01*
X106226892Y-121234205D01*
X106296201Y-121150425D01*
X106296203Y-121150421D01*
X106300130Y-121145675D01*
X106394198Y-120971701D01*
X106452682Y-120782768D01*
X106473355Y-120586075D01*
X106455430Y-120389112D01*
X106450222Y-120371414D01*
X106401330Y-120205294D01*
X106399590Y-120199381D01*
X106389919Y-120180881D01*
X106310813Y-120029568D01*
X106307960Y-120024110D01*
X106184032Y-119869975D01*
X106177727Y-119864684D01*
X106154080Y-119844842D01*
X106032526Y-119742846D01*
X106027128Y-119739879D01*
X106027123Y-119739875D01*
X105864608Y-119650533D01*
X105864609Y-119650533D01*
X105859213Y-119647567D01*
X105853346Y-119645706D01*
X105853344Y-119645705D01*
X105676564Y-119589627D01*
X105676563Y-119589627D01*
X105670694Y-119587765D01*
X105516773Y-119570500D01*
X105410231Y-119570500D01*
X105407175Y-119570800D01*
X105407168Y-119570800D01*
X105348660Y-119576537D01*
X105263167Y-119584920D01*
X105257266Y-119586702D01*
X105257264Y-119586702D01*
X105183947Y-119608838D01*
X105073831Y-119642084D01*
X104899204Y-119734934D01*
X104812938Y-119805291D01*
X104750713Y-119856040D01*
X104750710Y-119856043D01*
X104745938Y-119859935D01*
X104742011Y-119864682D01*
X104742008Y-119864685D01*
X104691584Y-119925637D01*
X104632751Y-119965375D01*
X104561773Y-119966996D01*
X104501185Y-119929987D01*
X104470225Y-119866097D01*
X104468500Y-119845321D01*
X104468500Y-117213500D01*
X104488502Y-117145379D01*
X104542158Y-117098886D01*
X104594500Y-117087500D01*
X146325500Y-117087500D01*
X146393621Y-117107502D01*
G37*
%TD.AperFunction*%
%TD*%
%TA.AperFunction,Conductor*%
%TO.N,GND*%
G36*
X103393621Y-125107502D02*
G01*
X103440114Y-125161158D01*
X103451500Y-125213500D01*
X103451500Y-127844842D01*
X103431498Y-127912963D01*
X103377842Y-127959456D01*
X103307568Y-127969560D01*
X103242988Y-127940066D01*
X103227304Y-127923795D01*
X103187892Y-127874776D01*
X103184032Y-127869975D01*
X103177727Y-127864684D01*
X103154080Y-127844842D01*
X103032526Y-127742846D01*
X103027128Y-127739879D01*
X103027123Y-127739875D01*
X102864608Y-127650533D01*
X102864609Y-127650533D01*
X102859213Y-127647567D01*
X102853346Y-127645706D01*
X102853344Y-127645705D01*
X102676564Y-127589627D01*
X102676563Y-127589627D01*
X102670694Y-127587765D01*
X102516773Y-127570500D01*
X102410231Y-127570500D01*
X102407175Y-127570800D01*
X102407168Y-127570800D01*
X102348660Y-127576537D01*
X102263167Y-127584920D01*
X102257266Y-127586702D01*
X102257264Y-127586702D01*
X102183947Y-127608838D01*
X102073831Y-127642084D01*
X101899204Y-127734934D01*
X101812938Y-127805291D01*
X101750713Y-127856040D01*
X101750710Y-127856043D01*
X101745938Y-127859935D01*
X101742011Y-127864682D01*
X101742009Y-127864684D01*
X101623799Y-128007575D01*
X101623797Y-128007579D01*
X101619870Y-128012325D01*
X101525802Y-128186299D01*
X101467318Y-128375232D01*
X101446645Y-128571925D01*
X101464570Y-128768888D01*
X101466308Y-128774794D01*
X101466309Y-128774798D01*
X101470387Y-128788653D01*
X101520410Y-128958619D01*
X101523263Y-128964077D01*
X101523265Y-128964081D01*
X101570720Y-129054853D01*
X101612040Y-129133890D01*
X101735968Y-129288025D01*
X101740692Y-129291989D01*
X101747933Y-129298065D01*
X101887474Y-129415154D01*
X101892872Y-129418121D01*
X101892877Y-129418125D01*
X102036180Y-129496905D01*
X102060787Y-129510433D01*
X102066654Y-129512294D01*
X102066656Y-129512295D01*
X102243436Y-129568373D01*
X102249306Y-129570235D01*
X102403227Y-129587500D01*
X102509769Y-129587500D01*
X102512825Y-129587200D01*
X102512832Y-129587200D01*
X102571340Y-129581463D01*
X102656833Y-129573080D01*
X102662734Y-129571298D01*
X102662736Y-129571298D01*
X102736053Y-129549162D01*
X102846169Y-129515916D01*
X103020796Y-129423066D01*
X103107062Y-129352709D01*
X103169287Y-129301960D01*
X103169290Y-129301957D01*
X103174062Y-129298065D01*
X103226892Y-129234205D01*
X103228416Y-129232363D01*
X103287249Y-129192625D01*
X103358227Y-129191004D01*
X103418815Y-129228013D01*
X103449775Y-129291903D01*
X103451500Y-129312679D01*
X103451500Y-131944500D01*
X103431498Y-132012621D01*
X103377842Y-132059114D01*
X103325500Y-132070500D01*
X61594500Y-132070500D01*
X61526379Y-132050498D01*
X61479886Y-131996842D01*
X61468500Y-131944500D01*
X61468500Y-129313158D01*
X61488502Y-129245037D01*
X61542158Y-129198544D01*
X61612432Y-129188440D01*
X61677012Y-129217934D01*
X61692693Y-129234202D01*
X61735968Y-129288025D01*
X61740692Y-129291989D01*
X61747933Y-129298065D01*
X61887474Y-129415154D01*
X61892872Y-129418121D01*
X61892877Y-129418125D01*
X62036180Y-129496905D01*
X62060787Y-129510433D01*
X62066654Y-129512294D01*
X62066656Y-129512295D01*
X62243436Y-129568373D01*
X62249306Y-129570235D01*
X62403227Y-129587500D01*
X62509769Y-129587500D01*
X62512825Y-129587200D01*
X62512832Y-129587200D01*
X62571340Y-129581463D01*
X62656833Y-129573080D01*
X62662734Y-129571298D01*
X62662736Y-129571298D01*
X62736053Y-129549162D01*
X62846169Y-129515916D01*
X63020796Y-129423066D01*
X63107062Y-129352709D01*
X63169287Y-129301960D01*
X63169290Y-129301957D01*
X63174062Y-129298065D01*
X63226892Y-129234205D01*
X63296201Y-129150425D01*
X63296203Y-129150421D01*
X63300130Y-129145675D01*
X63394198Y-128971701D01*
X63452682Y-128782768D01*
X63473355Y-128586075D01*
X63455430Y-128389112D01*
X63450222Y-128371414D01*
X63401330Y-128205294D01*
X63399590Y-128199381D01*
X63389919Y-128180881D01*
X63310813Y-128029568D01*
X63307960Y-128024110D01*
X63184032Y-127869975D01*
X63177727Y-127864684D01*
X63154080Y-127844842D01*
X63032526Y-127742846D01*
X63027128Y-127739879D01*
X63027123Y-127739875D01*
X62864608Y-127650533D01*
X62864609Y-127650533D01*
X62859213Y-127647567D01*
X62853346Y-127645706D01*
X62853344Y-127645705D01*
X62676564Y-127589627D01*
X62676563Y-127589627D01*
X62670694Y-127587765D01*
X62516773Y-127570500D01*
X62410231Y-127570500D01*
X62407175Y-127570800D01*
X62407168Y-127570800D01*
X62348660Y-127576537D01*
X62263167Y-127584920D01*
X62257266Y-127586702D01*
X62257264Y-127586702D01*
X62183947Y-127608838D01*
X62073831Y-127642084D01*
X61899204Y-127734934D01*
X61812938Y-127805291D01*
X61750713Y-127856040D01*
X61750710Y-127856043D01*
X61745938Y-127859935D01*
X61742011Y-127864682D01*
X61742008Y-127864685D01*
X61691584Y-127925637D01*
X61632751Y-127965375D01*
X61561773Y-127966996D01*
X61501185Y-127929987D01*
X61470225Y-127866097D01*
X61468500Y-127845321D01*
X61468500Y-125213500D01*
X61488502Y-125145379D01*
X61542158Y-125098886D01*
X61594500Y-125087500D01*
X103325500Y-125087500D01*
X103393621Y-125107502D01*
G37*
%TD.AperFunction*%
%TD*%
%TA.AperFunction,Conductor*%
%TO.N,GND*%
G36*
X146393621Y-125107502D02*
G01*
X146440114Y-125161158D01*
X146451500Y-125213500D01*
X146451500Y-127844842D01*
X146431498Y-127912963D01*
X146377842Y-127959456D01*
X146307568Y-127969560D01*
X146242988Y-127940066D01*
X146227304Y-127923795D01*
X146187892Y-127874776D01*
X146184032Y-127869975D01*
X146177727Y-127864684D01*
X146154080Y-127844842D01*
X146032526Y-127742846D01*
X146027128Y-127739879D01*
X146027123Y-127739875D01*
X145864608Y-127650533D01*
X145864609Y-127650533D01*
X145859213Y-127647567D01*
X145853346Y-127645706D01*
X145853344Y-127645705D01*
X145676564Y-127589627D01*
X145676563Y-127589627D01*
X145670694Y-127587765D01*
X145516773Y-127570500D01*
X145410231Y-127570500D01*
X145407175Y-127570800D01*
X145407168Y-127570800D01*
X145348660Y-127576537D01*
X145263167Y-127584920D01*
X145257266Y-127586702D01*
X145257264Y-127586702D01*
X145183947Y-127608838D01*
X145073831Y-127642084D01*
X144899204Y-127734934D01*
X144812938Y-127805291D01*
X144750713Y-127856040D01*
X144750710Y-127856043D01*
X144745938Y-127859935D01*
X144742011Y-127864682D01*
X144742009Y-127864684D01*
X144623799Y-128007575D01*
X144623797Y-128007579D01*
X144619870Y-128012325D01*
X144525802Y-128186299D01*
X144467318Y-128375232D01*
X144446645Y-128571925D01*
X144464570Y-128768888D01*
X144466308Y-128774794D01*
X144466309Y-128774798D01*
X144470387Y-128788653D01*
X144520410Y-128958619D01*
X144523263Y-128964077D01*
X144523265Y-128964081D01*
X144570720Y-129054853D01*
X144612040Y-129133890D01*
X144735968Y-129288025D01*
X144740692Y-129291989D01*
X144747933Y-129298065D01*
X144887474Y-129415154D01*
X144892872Y-129418121D01*
X144892877Y-129418125D01*
X145036180Y-129496905D01*
X145060787Y-129510433D01*
X145066654Y-129512294D01*
X145066656Y-129512295D01*
X145243436Y-129568373D01*
X145249306Y-129570235D01*
X145403227Y-129587500D01*
X145509769Y-129587500D01*
X145512825Y-129587200D01*
X145512832Y-129587200D01*
X145571340Y-129581463D01*
X145656833Y-129573080D01*
X145662734Y-129571298D01*
X145662736Y-129571298D01*
X145736053Y-129549162D01*
X145846169Y-129515916D01*
X146020796Y-129423066D01*
X146107062Y-129352709D01*
X146169287Y-129301960D01*
X146169290Y-129301957D01*
X146174062Y-129298065D01*
X146226892Y-129234205D01*
X146228416Y-129232363D01*
X146287249Y-129192625D01*
X146358227Y-129191004D01*
X146418815Y-129228013D01*
X146449775Y-129291903D01*
X146451500Y-129312679D01*
X146451500Y-131944500D01*
X146431498Y-132012621D01*
X146377842Y-132059114D01*
X146325500Y-132070500D01*
X104594500Y-132070500D01*
X104526379Y-132050498D01*
X104479886Y-131996842D01*
X104468500Y-131944500D01*
X104468500Y-129313158D01*
X104488502Y-129245037D01*
X104542158Y-129198544D01*
X104612432Y-129188440D01*
X104677012Y-129217934D01*
X104692693Y-129234202D01*
X104735968Y-129288025D01*
X104740692Y-129291989D01*
X104747933Y-129298065D01*
X104887474Y-129415154D01*
X104892872Y-129418121D01*
X104892877Y-129418125D01*
X105036180Y-129496905D01*
X105060787Y-129510433D01*
X105066654Y-129512294D01*
X105066656Y-129512295D01*
X105243436Y-129568373D01*
X105249306Y-129570235D01*
X105403227Y-129587500D01*
X105509769Y-129587500D01*
X105512825Y-129587200D01*
X105512832Y-129587200D01*
X105571340Y-129581463D01*
X105656833Y-129573080D01*
X105662734Y-129571298D01*
X105662736Y-129571298D01*
X105736053Y-129549162D01*
X105846169Y-129515916D01*
X106020796Y-129423066D01*
X106107062Y-129352709D01*
X106169287Y-129301960D01*
X106169290Y-129301957D01*
X106174062Y-129298065D01*
X106226892Y-129234205D01*
X106296201Y-129150425D01*
X106296203Y-129150421D01*
X106300130Y-129145675D01*
X106394198Y-128971701D01*
X106452682Y-128782768D01*
X106473355Y-128586075D01*
X106455430Y-128389112D01*
X106450222Y-128371414D01*
X106401330Y-128205294D01*
X106399590Y-128199381D01*
X106389919Y-128180881D01*
X106310813Y-128029568D01*
X106307960Y-128024110D01*
X106184032Y-127869975D01*
X106177727Y-127864684D01*
X106154080Y-127844842D01*
X106032526Y-127742846D01*
X106027128Y-127739879D01*
X106027123Y-127739875D01*
X105864608Y-127650533D01*
X105864609Y-127650533D01*
X105859213Y-127647567D01*
X105853346Y-127645706D01*
X105853344Y-127645705D01*
X105676564Y-127589627D01*
X105676563Y-127589627D01*
X105670694Y-127587765D01*
X105516773Y-127570500D01*
X105410231Y-127570500D01*
X105407175Y-127570800D01*
X105407168Y-127570800D01*
X105348660Y-127576537D01*
X105263167Y-127584920D01*
X105257266Y-127586702D01*
X105257264Y-127586702D01*
X105183947Y-127608838D01*
X105073831Y-127642084D01*
X104899204Y-127734934D01*
X104812938Y-127805291D01*
X104750713Y-127856040D01*
X104750710Y-127856043D01*
X104745938Y-127859935D01*
X104742011Y-127864682D01*
X104742008Y-127864685D01*
X104691584Y-127925637D01*
X104632751Y-127965375D01*
X104561773Y-127966996D01*
X104501185Y-127929987D01*
X104470225Y-127866097D01*
X104468500Y-127845321D01*
X104468500Y-125213500D01*
X104488502Y-125145379D01*
X104542158Y-125098886D01*
X104594500Y-125087500D01*
X146325500Y-125087500D01*
X146393621Y-125107502D01*
G37*
%TD.AperFunction*%
%TD*%
%TA.AperFunction,Conductor*%
%TO.N,GND*%
G36*
X103393621Y-133107502D02*
G01*
X103440114Y-133161158D01*
X103451500Y-133213500D01*
X103451500Y-135844842D01*
X103431498Y-135912963D01*
X103377842Y-135959456D01*
X103307568Y-135969560D01*
X103242988Y-135940066D01*
X103227304Y-135923795D01*
X103187892Y-135874776D01*
X103184032Y-135869975D01*
X103177727Y-135864684D01*
X103154080Y-135844842D01*
X103032526Y-135742846D01*
X103027128Y-135739879D01*
X103027123Y-135739875D01*
X102864608Y-135650533D01*
X102864609Y-135650533D01*
X102859213Y-135647567D01*
X102853346Y-135645706D01*
X102853344Y-135645705D01*
X102676564Y-135589627D01*
X102676563Y-135589627D01*
X102670694Y-135587765D01*
X102516773Y-135570500D01*
X102410231Y-135570500D01*
X102407175Y-135570800D01*
X102407168Y-135570800D01*
X102348660Y-135576537D01*
X102263167Y-135584920D01*
X102257266Y-135586702D01*
X102257264Y-135586702D01*
X102183947Y-135608838D01*
X102073831Y-135642084D01*
X101899204Y-135734934D01*
X101812938Y-135805291D01*
X101750713Y-135856040D01*
X101750710Y-135856043D01*
X101745938Y-135859935D01*
X101742011Y-135864682D01*
X101742009Y-135864684D01*
X101623799Y-136007575D01*
X101623797Y-136007579D01*
X101619870Y-136012325D01*
X101525802Y-136186299D01*
X101467318Y-136375232D01*
X101446645Y-136571925D01*
X101464570Y-136768888D01*
X101466308Y-136774794D01*
X101466309Y-136774798D01*
X101470387Y-136788653D01*
X101520410Y-136958619D01*
X101523263Y-136964077D01*
X101523265Y-136964081D01*
X101570720Y-137054853D01*
X101612040Y-137133890D01*
X101735968Y-137288025D01*
X101740692Y-137291989D01*
X101747933Y-137298065D01*
X101887474Y-137415154D01*
X101892872Y-137418121D01*
X101892877Y-137418125D01*
X102036180Y-137496905D01*
X102060787Y-137510433D01*
X102066654Y-137512294D01*
X102066656Y-137512295D01*
X102243436Y-137568373D01*
X102249306Y-137570235D01*
X102403227Y-137587500D01*
X102509769Y-137587500D01*
X102512825Y-137587200D01*
X102512832Y-137587200D01*
X102571340Y-137581463D01*
X102656833Y-137573080D01*
X102662734Y-137571298D01*
X102662736Y-137571298D01*
X102736053Y-137549162D01*
X102846169Y-137515916D01*
X103020796Y-137423066D01*
X103107062Y-137352709D01*
X103169287Y-137301960D01*
X103169290Y-137301957D01*
X103174062Y-137298065D01*
X103226892Y-137234205D01*
X103228416Y-137232363D01*
X103287249Y-137192625D01*
X103358227Y-137191004D01*
X103418815Y-137228013D01*
X103449775Y-137291903D01*
X103451500Y-137312679D01*
X103451500Y-139944500D01*
X103431498Y-140012621D01*
X103377842Y-140059114D01*
X103325500Y-140070500D01*
X61594500Y-140070500D01*
X61526379Y-140050498D01*
X61479886Y-139996842D01*
X61468500Y-139944500D01*
X61468500Y-137313158D01*
X61488502Y-137245037D01*
X61542158Y-137198544D01*
X61612432Y-137188440D01*
X61677012Y-137217934D01*
X61692693Y-137234202D01*
X61735968Y-137288025D01*
X61740692Y-137291989D01*
X61747933Y-137298065D01*
X61887474Y-137415154D01*
X61892872Y-137418121D01*
X61892877Y-137418125D01*
X62036180Y-137496905D01*
X62060787Y-137510433D01*
X62066654Y-137512294D01*
X62066656Y-137512295D01*
X62243436Y-137568373D01*
X62249306Y-137570235D01*
X62403227Y-137587500D01*
X62509769Y-137587500D01*
X62512825Y-137587200D01*
X62512832Y-137587200D01*
X62571340Y-137581463D01*
X62656833Y-137573080D01*
X62662734Y-137571298D01*
X62662736Y-137571298D01*
X62736053Y-137549162D01*
X62846169Y-137515916D01*
X63020796Y-137423066D01*
X63107062Y-137352709D01*
X63169287Y-137301960D01*
X63169290Y-137301957D01*
X63174062Y-137298065D01*
X63226892Y-137234205D01*
X63296201Y-137150425D01*
X63296203Y-137150421D01*
X63300130Y-137145675D01*
X63394198Y-136971701D01*
X63452682Y-136782768D01*
X63473355Y-136586075D01*
X63455430Y-136389112D01*
X63450222Y-136371414D01*
X63401330Y-136205294D01*
X63399590Y-136199381D01*
X63389919Y-136180881D01*
X63310813Y-136029568D01*
X63307960Y-136024110D01*
X63184032Y-135869975D01*
X63177727Y-135864684D01*
X63154080Y-135844842D01*
X63032526Y-135742846D01*
X63027128Y-135739879D01*
X63027123Y-135739875D01*
X62864608Y-135650533D01*
X62864609Y-135650533D01*
X62859213Y-135647567D01*
X62853346Y-135645706D01*
X62853344Y-135645705D01*
X62676564Y-135589627D01*
X62676563Y-135589627D01*
X62670694Y-135587765D01*
X62516773Y-135570500D01*
X62410231Y-135570500D01*
X62407175Y-135570800D01*
X62407168Y-135570800D01*
X62348660Y-135576537D01*
X62263167Y-135584920D01*
X62257266Y-135586702D01*
X62257264Y-135586702D01*
X62183947Y-135608838D01*
X62073831Y-135642084D01*
X61899204Y-135734934D01*
X61812938Y-135805291D01*
X61750713Y-135856040D01*
X61750710Y-135856043D01*
X61745938Y-135859935D01*
X61742011Y-135864682D01*
X61742008Y-135864685D01*
X61691584Y-135925637D01*
X61632751Y-135965375D01*
X61561773Y-135966996D01*
X61501185Y-135929987D01*
X61470225Y-135866097D01*
X61468500Y-135845321D01*
X61468500Y-133213500D01*
X61488502Y-133145379D01*
X61542158Y-133098886D01*
X61594500Y-133087500D01*
X103325500Y-133087500D01*
X103393621Y-133107502D01*
G37*
%TD.AperFunction*%
%TD*%
%TA.AperFunction,Conductor*%
%TO.N,GND*%
G36*
X146393621Y-133107502D02*
G01*
X146440114Y-133161158D01*
X146451500Y-133213500D01*
X146451500Y-135844842D01*
X146431498Y-135912963D01*
X146377842Y-135959456D01*
X146307568Y-135969560D01*
X146242988Y-135940066D01*
X146227304Y-135923795D01*
X146187892Y-135874776D01*
X146184032Y-135869975D01*
X146177727Y-135864684D01*
X146154080Y-135844842D01*
X146032526Y-135742846D01*
X146027128Y-135739879D01*
X146027123Y-135739875D01*
X145864608Y-135650533D01*
X145864609Y-135650533D01*
X145859213Y-135647567D01*
X145853346Y-135645706D01*
X145853344Y-135645705D01*
X145676564Y-135589627D01*
X145676563Y-135589627D01*
X145670694Y-135587765D01*
X145516773Y-135570500D01*
X145410231Y-135570500D01*
X145407175Y-135570800D01*
X145407168Y-135570800D01*
X145348660Y-135576537D01*
X145263167Y-135584920D01*
X145257266Y-135586702D01*
X145257264Y-135586702D01*
X145183947Y-135608838D01*
X145073831Y-135642084D01*
X144899204Y-135734934D01*
X144812938Y-135805291D01*
X144750713Y-135856040D01*
X144750710Y-135856043D01*
X144745938Y-135859935D01*
X144742011Y-135864682D01*
X144742009Y-135864684D01*
X144623799Y-136007575D01*
X144623797Y-136007579D01*
X144619870Y-136012325D01*
X144525802Y-136186299D01*
X144467318Y-136375232D01*
X144446645Y-136571925D01*
X144464570Y-136768888D01*
X144466308Y-136774794D01*
X144466309Y-136774798D01*
X144470387Y-136788653D01*
X144520410Y-136958619D01*
X144523263Y-136964077D01*
X144523265Y-136964081D01*
X144570720Y-137054853D01*
X144612040Y-137133890D01*
X144735968Y-137288025D01*
X144740692Y-137291989D01*
X144747933Y-137298065D01*
X144887474Y-137415154D01*
X144892872Y-137418121D01*
X144892877Y-137418125D01*
X145036180Y-137496905D01*
X145060787Y-137510433D01*
X145066654Y-137512294D01*
X145066656Y-137512295D01*
X145243436Y-137568373D01*
X145249306Y-137570235D01*
X145403227Y-137587500D01*
X145509769Y-137587500D01*
X145512825Y-137587200D01*
X145512832Y-137587200D01*
X145571340Y-137581463D01*
X145656833Y-137573080D01*
X145662734Y-137571298D01*
X145662736Y-137571298D01*
X145736053Y-137549162D01*
X145846169Y-137515916D01*
X146020796Y-137423066D01*
X146107062Y-137352709D01*
X146169287Y-137301960D01*
X146169290Y-137301957D01*
X146174062Y-137298065D01*
X146226892Y-137234205D01*
X146228416Y-137232363D01*
X146287249Y-137192625D01*
X146358227Y-137191004D01*
X146418815Y-137228013D01*
X146449775Y-137291903D01*
X146451500Y-137312679D01*
X146451500Y-139944500D01*
X146431498Y-140012621D01*
X146377842Y-140059114D01*
X146325500Y-140070500D01*
X104594500Y-140070500D01*
X104526379Y-140050498D01*
X104479886Y-139996842D01*
X104468500Y-139944500D01*
X104468500Y-137313158D01*
X104488502Y-137245037D01*
X104542158Y-137198544D01*
X104612432Y-137188440D01*
X104677012Y-137217934D01*
X104692693Y-137234202D01*
X104735968Y-137288025D01*
X104740692Y-137291989D01*
X104747933Y-137298065D01*
X104887474Y-137415154D01*
X104892872Y-137418121D01*
X104892877Y-137418125D01*
X105036180Y-137496905D01*
X105060787Y-137510433D01*
X105066654Y-137512294D01*
X105066656Y-137512295D01*
X105243436Y-137568373D01*
X105249306Y-137570235D01*
X105403227Y-137587500D01*
X105509769Y-137587500D01*
X105512825Y-137587200D01*
X105512832Y-137587200D01*
X105571340Y-137581463D01*
X105656833Y-137573080D01*
X105662734Y-137571298D01*
X105662736Y-137571298D01*
X105736053Y-137549162D01*
X105846169Y-137515916D01*
X106020796Y-137423066D01*
X106107062Y-137352709D01*
X106169287Y-137301960D01*
X106169290Y-137301957D01*
X106174062Y-137298065D01*
X106226892Y-137234205D01*
X106296201Y-137150425D01*
X106296203Y-137150421D01*
X106300130Y-137145675D01*
X106394198Y-136971701D01*
X106452682Y-136782768D01*
X106473355Y-136586075D01*
X106455430Y-136389112D01*
X106450222Y-136371414D01*
X106401330Y-136205294D01*
X106399590Y-136199381D01*
X106389919Y-136180881D01*
X106310813Y-136029568D01*
X106307960Y-136024110D01*
X106184032Y-135869975D01*
X106177727Y-135864684D01*
X106154080Y-135844842D01*
X106032526Y-135742846D01*
X106027128Y-135739879D01*
X106027123Y-135739875D01*
X105864608Y-135650533D01*
X105864609Y-135650533D01*
X105859213Y-135647567D01*
X105853346Y-135645706D01*
X105853344Y-135645705D01*
X105676564Y-135589627D01*
X105676563Y-135589627D01*
X105670694Y-135587765D01*
X105516773Y-135570500D01*
X105410231Y-135570500D01*
X105407175Y-135570800D01*
X105407168Y-135570800D01*
X105348660Y-135576537D01*
X105263167Y-135584920D01*
X105257266Y-135586702D01*
X105257264Y-135586702D01*
X105183947Y-135608838D01*
X105073831Y-135642084D01*
X104899204Y-135734934D01*
X104812938Y-135805291D01*
X104750713Y-135856040D01*
X104750710Y-135856043D01*
X104745938Y-135859935D01*
X104742011Y-135864682D01*
X104742008Y-135864685D01*
X104691584Y-135925637D01*
X104632751Y-135965375D01*
X104561773Y-135966996D01*
X104501185Y-135929987D01*
X104470225Y-135866097D01*
X104468500Y-135845321D01*
X104468500Y-133213500D01*
X104488502Y-133145379D01*
X104542158Y-133098886D01*
X104594500Y-133087500D01*
X146325500Y-133087500D01*
X146393621Y-133107502D01*
G37*
%TD.AperFunction*%
%TD*%
%TA.AperFunction,Conductor*%
%TO.N,GND*%
G36*
X103393621Y-141107502D02*
G01*
X103440114Y-141161158D01*
X103451500Y-141213500D01*
X103451500Y-143844842D01*
X103431498Y-143912963D01*
X103377842Y-143959456D01*
X103307568Y-143969560D01*
X103242988Y-143940066D01*
X103227304Y-143923795D01*
X103187892Y-143874776D01*
X103184032Y-143869975D01*
X103177727Y-143864684D01*
X103154080Y-143844842D01*
X103032526Y-143742846D01*
X103027128Y-143739879D01*
X103027123Y-143739875D01*
X102864608Y-143650533D01*
X102864609Y-143650533D01*
X102859213Y-143647567D01*
X102853346Y-143645706D01*
X102853344Y-143645705D01*
X102676564Y-143589627D01*
X102676563Y-143589627D01*
X102670694Y-143587765D01*
X102516773Y-143570500D01*
X102410231Y-143570500D01*
X102407175Y-143570800D01*
X102407168Y-143570800D01*
X102348660Y-143576537D01*
X102263167Y-143584920D01*
X102257266Y-143586702D01*
X102257264Y-143586702D01*
X102183947Y-143608838D01*
X102073831Y-143642084D01*
X101899204Y-143734934D01*
X101812938Y-143805291D01*
X101750713Y-143856040D01*
X101750710Y-143856043D01*
X101745938Y-143859935D01*
X101742011Y-143864682D01*
X101742009Y-143864684D01*
X101623799Y-144007575D01*
X101623797Y-144007579D01*
X101619870Y-144012325D01*
X101525802Y-144186299D01*
X101467318Y-144375232D01*
X101446645Y-144571925D01*
X101464570Y-144768888D01*
X101466308Y-144774794D01*
X101466309Y-144774798D01*
X101470387Y-144788653D01*
X101520410Y-144958619D01*
X101523263Y-144964077D01*
X101523265Y-144964081D01*
X101570720Y-145054853D01*
X101612040Y-145133890D01*
X101735968Y-145288025D01*
X101740692Y-145291989D01*
X101747933Y-145298065D01*
X101887474Y-145415154D01*
X101892872Y-145418121D01*
X101892877Y-145418125D01*
X102036180Y-145496905D01*
X102060787Y-145510433D01*
X102066654Y-145512294D01*
X102066656Y-145512295D01*
X102243436Y-145568373D01*
X102249306Y-145570235D01*
X102403227Y-145587500D01*
X102509769Y-145587500D01*
X102512825Y-145587200D01*
X102512832Y-145587200D01*
X102571340Y-145581463D01*
X102656833Y-145573080D01*
X102662734Y-145571298D01*
X102662736Y-145571298D01*
X102736053Y-145549162D01*
X102846169Y-145515916D01*
X103020796Y-145423066D01*
X103107062Y-145352709D01*
X103169287Y-145301960D01*
X103169290Y-145301957D01*
X103174062Y-145298065D01*
X103226892Y-145234205D01*
X103228416Y-145232363D01*
X103287249Y-145192625D01*
X103358227Y-145191004D01*
X103418815Y-145228013D01*
X103449775Y-145291903D01*
X103451500Y-145312679D01*
X103451500Y-147944500D01*
X103431498Y-148012621D01*
X103377842Y-148059114D01*
X103325500Y-148070500D01*
X61594500Y-148070500D01*
X61526379Y-148050498D01*
X61479886Y-147996842D01*
X61468500Y-147944500D01*
X61468500Y-145313158D01*
X61488502Y-145245037D01*
X61542158Y-145198544D01*
X61612432Y-145188440D01*
X61677012Y-145217934D01*
X61692693Y-145234202D01*
X61735968Y-145288025D01*
X61740692Y-145291989D01*
X61747933Y-145298065D01*
X61887474Y-145415154D01*
X61892872Y-145418121D01*
X61892877Y-145418125D01*
X62036180Y-145496905D01*
X62060787Y-145510433D01*
X62066654Y-145512294D01*
X62066656Y-145512295D01*
X62243436Y-145568373D01*
X62249306Y-145570235D01*
X62403227Y-145587500D01*
X62509769Y-145587500D01*
X62512825Y-145587200D01*
X62512832Y-145587200D01*
X62571340Y-145581463D01*
X62656833Y-145573080D01*
X62662734Y-145571298D01*
X62662736Y-145571298D01*
X62736053Y-145549162D01*
X62846169Y-145515916D01*
X63020796Y-145423066D01*
X63107062Y-145352709D01*
X63169287Y-145301960D01*
X63169290Y-145301957D01*
X63174062Y-145298065D01*
X63226892Y-145234205D01*
X63296201Y-145150425D01*
X63296203Y-145150421D01*
X63300130Y-145145675D01*
X63394198Y-144971701D01*
X63452682Y-144782768D01*
X63473355Y-144586075D01*
X63455430Y-144389112D01*
X63450222Y-144371414D01*
X63401330Y-144205294D01*
X63399590Y-144199381D01*
X63389919Y-144180881D01*
X63310813Y-144029568D01*
X63307960Y-144024110D01*
X63184032Y-143869975D01*
X63177727Y-143864684D01*
X63154080Y-143844842D01*
X63032526Y-143742846D01*
X63027128Y-143739879D01*
X63027123Y-143739875D01*
X62864608Y-143650533D01*
X62864609Y-143650533D01*
X62859213Y-143647567D01*
X62853346Y-143645706D01*
X62853344Y-143645705D01*
X62676564Y-143589627D01*
X62676563Y-143589627D01*
X62670694Y-143587765D01*
X62516773Y-143570500D01*
X62410231Y-143570500D01*
X62407175Y-143570800D01*
X62407168Y-143570800D01*
X62348660Y-143576537D01*
X62263167Y-143584920D01*
X62257266Y-143586702D01*
X62257264Y-143586702D01*
X62183947Y-143608838D01*
X62073831Y-143642084D01*
X61899204Y-143734934D01*
X61812938Y-143805291D01*
X61750713Y-143856040D01*
X61750710Y-143856043D01*
X61745938Y-143859935D01*
X61742011Y-143864682D01*
X61742008Y-143864685D01*
X61691584Y-143925637D01*
X61632751Y-143965375D01*
X61561773Y-143966996D01*
X61501185Y-143929987D01*
X61470225Y-143866097D01*
X61468500Y-143845321D01*
X61468500Y-141213500D01*
X61488502Y-141145379D01*
X61542158Y-141098886D01*
X61594500Y-141087500D01*
X103325500Y-141087500D01*
X103393621Y-141107502D01*
G37*
%TD.AperFunction*%
%TD*%
%TA.AperFunction,Conductor*%
%TO.N,GND*%
G36*
X146393621Y-141107502D02*
G01*
X146440114Y-141161158D01*
X146451500Y-141213500D01*
X146451500Y-143844842D01*
X146431498Y-143912963D01*
X146377842Y-143959456D01*
X146307568Y-143969560D01*
X146242988Y-143940066D01*
X146227304Y-143923795D01*
X146187892Y-143874776D01*
X146184032Y-143869975D01*
X146177727Y-143864684D01*
X146154080Y-143844842D01*
X146032526Y-143742846D01*
X146027128Y-143739879D01*
X146027123Y-143739875D01*
X145864608Y-143650533D01*
X145864609Y-143650533D01*
X145859213Y-143647567D01*
X145853346Y-143645706D01*
X145853344Y-143645705D01*
X145676564Y-143589627D01*
X145676563Y-143589627D01*
X145670694Y-143587765D01*
X145516773Y-143570500D01*
X145410231Y-143570500D01*
X145407175Y-143570800D01*
X145407168Y-143570800D01*
X145348660Y-143576537D01*
X145263167Y-143584920D01*
X145257266Y-143586702D01*
X145257264Y-143586702D01*
X145183947Y-143608838D01*
X145073831Y-143642084D01*
X144899204Y-143734934D01*
X144812938Y-143805291D01*
X144750713Y-143856040D01*
X144750710Y-143856043D01*
X144745938Y-143859935D01*
X144742011Y-143864682D01*
X144742009Y-143864684D01*
X144623799Y-144007575D01*
X144623797Y-144007579D01*
X144619870Y-144012325D01*
X144525802Y-144186299D01*
X144467318Y-144375232D01*
X144446645Y-144571925D01*
X144464570Y-144768888D01*
X144466308Y-144774794D01*
X144466309Y-144774798D01*
X144470387Y-144788653D01*
X144520410Y-144958619D01*
X144523263Y-144964077D01*
X144523265Y-144964081D01*
X144570720Y-145054853D01*
X144612040Y-145133890D01*
X144735968Y-145288025D01*
X144740692Y-145291989D01*
X144747933Y-145298065D01*
X144887474Y-145415154D01*
X144892872Y-145418121D01*
X144892877Y-145418125D01*
X145036180Y-145496905D01*
X145060787Y-145510433D01*
X145066654Y-145512294D01*
X145066656Y-145512295D01*
X145243436Y-145568373D01*
X145249306Y-145570235D01*
X145403227Y-145587500D01*
X145509769Y-145587500D01*
X145512825Y-145587200D01*
X145512832Y-145587200D01*
X145571340Y-145581463D01*
X145656833Y-145573080D01*
X145662734Y-145571298D01*
X145662736Y-145571298D01*
X145736053Y-145549162D01*
X145846169Y-145515916D01*
X146020796Y-145423066D01*
X146107062Y-145352709D01*
X146169287Y-145301960D01*
X146169290Y-145301957D01*
X146174062Y-145298065D01*
X146226892Y-145234205D01*
X146228416Y-145232363D01*
X146287249Y-145192625D01*
X146358227Y-145191004D01*
X146418815Y-145228013D01*
X146449775Y-145291903D01*
X146451500Y-145312679D01*
X146451500Y-147944500D01*
X146431498Y-148012621D01*
X146377842Y-148059114D01*
X146325500Y-148070500D01*
X104594500Y-148070500D01*
X104526379Y-148050498D01*
X104479886Y-147996842D01*
X104468500Y-147944500D01*
X104468500Y-145313158D01*
X104488502Y-145245037D01*
X104542158Y-145198544D01*
X104612432Y-145188440D01*
X104677012Y-145217934D01*
X104692693Y-145234202D01*
X104735968Y-145288025D01*
X104740692Y-145291989D01*
X104747933Y-145298065D01*
X104887474Y-145415154D01*
X104892872Y-145418121D01*
X104892877Y-145418125D01*
X105036180Y-145496905D01*
X105060787Y-145510433D01*
X105066654Y-145512294D01*
X105066656Y-145512295D01*
X105243436Y-145568373D01*
X105249306Y-145570235D01*
X105403227Y-145587500D01*
X105509769Y-145587500D01*
X105512825Y-145587200D01*
X105512832Y-145587200D01*
X105571340Y-145581463D01*
X105656833Y-145573080D01*
X105662734Y-145571298D01*
X105662736Y-145571298D01*
X105736053Y-145549162D01*
X105846169Y-145515916D01*
X106020796Y-145423066D01*
X106107062Y-145352709D01*
X106169287Y-145301960D01*
X106169290Y-145301957D01*
X106174062Y-145298065D01*
X106226892Y-145234205D01*
X106296201Y-145150425D01*
X106296203Y-145150421D01*
X106300130Y-145145675D01*
X106394198Y-144971701D01*
X106452682Y-144782768D01*
X106473355Y-144586075D01*
X106455430Y-144389112D01*
X106450222Y-144371414D01*
X106401330Y-144205294D01*
X106399590Y-144199381D01*
X106389919Y-144180881D01*
X106310813Y-144029568D01*
X106307960Y-144024110D01*
X106184032Y-143869975D01*
X106177727Y-143864684D01*
X106154080Y-143844842D01*
X106032526Y-143742846D01*
X106027128Y-143739879D01*
X106027123Y-143739875D01*
X105864608Y-143650533D01*
X105864609Y-143650533D01*
X105859213Y-143647567D01*
X105853346Y-143645706D01*
X105853344Y-143645705D01*
X105676564Y-143589627D01*
X105676563Y-143589627D01*
X105670694Y-143587765D01*
X105516773Y-143570500D01*
X105410231Y-143570500D01*
X105407175Y-143570800D01*
X105407168Y-143570800D01*
X105348660Y-143576537D01*
X105263167Y-143584920D01*
X105257266Y-143586702D01*
X105257264Y-143586702D01*
X105183947Y-143608838D01*
X105073831Y-143642084D01*
X104899204Y-143734934D01*
X104812938Y-143805291D01*
X104750713Y-143856040D01*
X104750710Y-143856043D01*
X104745938Y-143859935D01*
X104742011Y-143864682D01*
X104742008Y-143864685D01*
X104691584Y-143925637D01*
X104632751Y-143965375D01*
X104561773Y-143966996D01*
X104501185Y-143929987D01*
X104470225Y-143866097D01*
X104468500Y-143845321D01*
X104468500Y-141213500D01*
X104488502Y-141145379D01*
X104542158Y-141098886D01*
X104594500Y-141087500D01*
X146325500Y-141087500D01*
X146393621Y-141107502D01*
G37*
%TD.AperFunction*%
%TD*%
%TA.AperFunction,Conductor*%
%TO.N,GND*%
G36*
X103393621Y-149107502D02*
G01*
X103440114Y-149161158D01*
X103451500Y-149213500D01*
X103451500Y-151844842D01*
X103431498Y-151912963D01*
X103377842Y-151959456D01*
X103307568Y-151969560D01*
X103242988Y-151940066D01*
X103227304Y-151923795D01*
X103187892Y-151874776D01*
X103184032Y-151869975D01*
X103177727Y-151864684D01*
X103154080Y-151844842D01*
X103032526Y-151742846D01*
X103027128Y-151739879D01*
X103027123Y-151739875D01*
X102864608Y-151650533D01*
X102864609Y-151650533D01*
X102859213Y-151647567D01*
X102853346Y-151645706D01*
X102853344Y-151645705D01*
X102676564Y-151589627D01*
X102676563Y-151589627D01*
X102670694Y-151587765D01*
X102516773Y-151570500D01*
X102410231Y-151570500D01*
X102407175Y-151570800D01*
X102407168Y-151570800D01*
X102348660Y-151576537D01*
X102263167Y-151584920D01*
X102257266Y-151586702D01*
X102257264Y-151586702D01*
X102183947Y-151608838D01*
X102073831Y-151642084D01*
X101899204Y-151734934D01*
X101812938Y-151805291D01*
X101750713Y-151856040D01*
X101750710Y-151856043D01*
X101745938Y-151859935D01*
X101742011Y-151864682D01*
X101742009Y-151864684D01*
X101623799Y-152007575D01*
X101623797Y-152007579D01*
X101619870Y-152012325D01*
X101525802Y-152186299D01*
X101467318Y-152375232D01*
X101446645Y-152571925D01*
X101464570Y-152768888D01*
X101466308Y-152774794D01*
X101466309Y-152774798D01*
X101470387Y-152788653D01*
X101520410Y-152958619D01*
X101523263Y-152964077D01*
X101523265Y-152964081D01*
X101570720Y-153054853D01*
X101612040Y-153133890D01*
X101735968Y-153288025D01*
X101740692Y-153291989D01*
X101747933Y-153298065D01*
X101887474Y-153415154D01*
X101892872Y-153418121D01*
X101892877Y-153418125D01*
X102036180Y-153496905D01*
X102060787Y-153510433D01*
X102066654Y-153512294D01*
X102066656Y-153512295D01*
X102243436Y-153568373D01*
X102249306Y-153570235D01*
X102403227Y-153587500D01*
X102509769Y-153587500D01*
X102512825Y-153587200D01*
X102512832Y-153587200D01*
X102571340Y-153581463D01*
X102656833Y-153573080D01*
X102662734Y-153571298D01*
X102662736Y-153571298D01*
X102736053Y-153549162D01*
X102846169Y-153515916D01*
X103020796Y-153423066D01*
X103107062Y-153352709D01*
X103169287Y-153301960D01*
X103169290Y-153301957D01*
X103174062Y-153298065D01*
X103226892Y-153234205D01*
X103228416Y-153232363D01*
X103287249Y-153192625D01*
X103358227Y-153191004D01*
X103418815Y-153228013D01*
X103449775Y-153291903D01*
X103451500Y-153312679D01*
X103451500Y-155944500D01*
X103431498Y-156012621D01*
X103377842Y-156059114D01*
X103325500Y-156070500D01*
X61594500Y-156070500D01*
X61526379Y-156050498D01*
X61479886Y-155996842D01*
X61468500Y-155944500D01*
X61468500Y-153313158D01*
X61488502Y-153245037D01*
X61542158Y-153198544D01*
X61612432Y-153188440D01*
X61677012Y-153217934D01*
X61692693Y-153234202D01*
X61735968Y-153288025D01*
X61740692Y-153291989D01*
X61747933Y-153298065D01*
X61887474Y-153415154D01*
X61892872Y-153418121D01*
X61892877Y-153418125D01*
X62036180Y-153496905D01*
X62060787Y-153510433D01*
X62066654Y-153512294D01*
X62066656Y-153512295D01*
X62243436Y-153568373D01*
X62249306Y-153570235D01*
X62403227Y-153587500D01*
X62509769Y-153587500D01*
X62512825Y-153587200D01*
X62512832Y-153587200D01*
X62571340Y-153581463D01*
X62656833Y-153573080D01*
X62662734Y-153571298D01*
X62662736Y-153571298D01*
X62736053Y-153549162D01*
X62846169Y-153515916D01*
X63020796Y-153423066D01*
X63107062Y-153352709D01*
X63169287Y-153301960D01*
X63169290Y-153301957D01*
X63174062Y-153298065D01*
X63226892Y-153234205D01*
X63296201Y-153150425D01*
X63296203Y-153150421D01*
X63300130Y-153145675D01*
X63394198Y-152971701D01*
X63452682Y-152782768D01*
X63473355Y-152586075D01*
X63455430Y-152389112D01*
X63450222Y-152371414D01*
X63401330Y-152205294D01*
X63399590Y-152199381D01*
X63389919Y-152180881D01*
X63310813Y-152029568D01*
X63307960Y-152024110D01*
X63184032Y-151869975D01*
X63177727Y-151864684D01*
X63154080Y-151844842D01*
X63032526Y-151742846D01*
X63027128Y-151739879D01*
X63027123Y-151739875D01*
X62864608Y-151650533D01*
X62864609Y-151650533D01*
X62859213Y-151647567D01*
X62853346Y-151645706D01*
X62853344Y-151645705D01*
X62676564Y-151589627D01*
X62676563Y-151589627D01*
X62670694Y-151587765D01*
X62516773Y-151570500D01*
X62410231Y-151570500D01*
X62407175Y-151570800D01*
X62407168Y-151570800D01*
X62348660Y-151576537D01*
X62263167Y-151584920D01*
X62257266Y-151586702D01*
X62257264Y-151586702D01*
X62183947Y-151608838D01*
X62073831Y-151642084D01*
X61899204Y-151734934D01*
X61812938Y-151805291D01*
X61750713Y-151856040D01*
X61750710Y-151856043D01*
X61745938Y-151859935D01*
X61742011Y-151864682D01*
X61742008Y-151864685D01*
X61691584Y-151925637D01*
X61632751Y-151965375D01*
X61561773Y-151966996D01*
X61501185Y-151929987D01*
X61470225Y-151866097D01*
X61468500Y-151845321D01*
X61468500Y-149213500D01*
X61488502Y-149145379D01*
X61542158Y-149098886D01*
X61594500Y-149087500D01*
X103325500Y-149087500D01*
X103393621Y-149107502D01*
G37*
%TD.AperFunction*%
%TD*%
%TA.AperFunction,Conductor*%
%TO.N,GND*%
G36*
X146393621Y-149107502D02*
G01*
X146440114Y-149161158D01*
X146451500Y-149213500D01*
X146451500Y-151844842D01*
X146431498Y-151912963D01*
X146377842Y-151959456D01*
X146307568Y-151969560D01*
X146242988Y-151940066D01*
X146227304Y-151923795D01*
X146187892Y-151874776D01*
X146184032Y-151869975D01*
X146177727Y-151864684D01*
X146154080Y-151844842D01*
X146032526Y-151742846D01*
X146027128Y-151739879D01*
X146027123Y-151739875D01*
X145864608Y-151650533D01*
X145864609Y-151650533D01*
X145859213Y-151647567D01*
X145853346Y-151645706D01*
X145853344Y-151645705D01*
X145676564Y-151589627D01*
X145676563Y-151589627D01*
X145670694Y-151587765D01*
X145516773Y-151570500D01*
X145410231Y-151570500D01*
X145407175Y-151570800D01*
X145407168Y-151570800D01*
X145348660Y-151576537D01*
X145263167Y-151584920D01*
X145257266Y-151586702D01*
X145257264Y-151586702D01*
X145183947Y-151608838D01*
X145073831Y-151642084D01*
X144899204Y-151734934D01*
X144812938Y-151805291D01*
X144750713Y-151856040D01*
X144750710Y-151856043D01*
X144745938Y-151859935D01*
X144742011Y-151864682D01*
X144742009Y-151864684D01*
X144623799Y-152007575D01*
X144623797Y-152007579D01*
X144619870Y-152012325D01*
X144525802Y-152186299D01*
X144467318Y-152375232D01*
X144446645Y-152571925D01*
X144464570Y-152768888D01*
X144466308Y-152774794D01*
X144466309Y-152774798D01*
X144470387Y-152788653D01*
X144520410Y-152958619D01*
X144523263Y-152964077D01*
X144523265Y-152964081D01*
X144570720Y-153054853D01*
X144612040Y-153133890D01*
X144735968Y-153288025D01*
X144740692Y-153291989D01*
X144747933Y-153298065D01*
X144887474Y-153415154D01*
X144892872Y-153418121D01*
X144892877Y-153418125D01*
X145036180Y-153496905D01*
X145060787Y-153510433D01*
X145066654Y-153512294D01*
X145066656Y-153512295D01*
X145243436Y-153568373D01*
X145249306Y-153570235D01*
X145403227Y-153587500D01*
X145509769Y-153587500D01*
X145512825Y-153587200D01*
X145512832Y-153587200D01*
X145571340Y-153581463D01*
X145656833Y-153573080D01*
X145662734Y-153571298D01*
X145662736Y-153571298D01*
X145736053Y-153549162D01*
X145846169Y-153515916D01*
X146020796Y-153423066D01*
X146107062Y-153352709D01*
X146169287Y-153301960D01*
X146169290Y-153301957D01*
X146174062Y-153298065D01*
X146226892Y-153234205D01*
X146228416Y-153232363D01*
X146287249Y-153192625D01*
X146358227Y-153191004D01*
X146418815Y-153228013D01*
X146449775Y-153291903D01*
X146451500Y-153312679D01*
X146451500Y-155944500D01*
X146431498Y-156012621D01*
X146377842Y-156059114D01*
X146325500Y-156070500D01*
X104594500Y-156070500D01*
X104526379Y-156050498D01*
X104479886Y-155996842D01*
X104468500Y-155944500D01*
X104468500Y-153313158D01*
X104488502Y-153245037D01*
X104542158Y-153198544D01*
X104612432Y-153188440D01*
X104677012Y-153217934D01*
X104692693Y-153234202D01*
X104735968Y-153288025D01*
X104740692Y-153291989D01*
X104747933Y-153298065D01*
X104887474Y-153415154D01*
X104892872Y-153418121D01*
X104892877Y-153418125D01*
X105036180Y-153496905D01*
X105060787Y-153510433D01*
X105066654Y-153512294D01*
X105066656Y-153512295D01*
X105243436Y-153568373D01*
X105249306Y-153570235D01*
X105403227Y-153587500D01*
X105509769Y-153587500D01*
X105512825Y-153587200D01*
X105512832Y-153587200D01*
X105571340Y-153581463D01*
X105656833Y-153573080D01*
X105662734Y-153571298D01*
X105662736Y-153571298D01*
X105736053Y-153549162D01*
X105846169Y-153515916D01*
X106020796Y-153423066D01*
X106107062Y-153352709D01*
X106169287Y-153301960D01*
X106169290Y-153301957D01*
X106174062Y-153298065D01*
X106226892Y-153234205D01*
X106296201Y-153150425D01*
X106296203Y-153150421D01*
X106300130Y-153145675D01*
X106394198Y-152971701D01*
X106452682Y-152782768D01*
X106473355Y-152586075D01*
X106455430Y-152389112D01*
X106450222Y-152371414D01*
X106401330Y-152205294D01*
X106399590Y-152199381D01*
X106389919Y-152180881D01*
X106310813Y-152029568D01*
X106307960Y-152024110D01*
X106184032Y-151869975D01*
X106177727Y-151864684D01*
X106154080Y-151844842D01*
X106032526Y-151742846D01*
X106027128Y-151739879D01*
X106027123Y-151739875D01*
X105864608Y-151650533D01*
X105864609Y-151650533D01*
X105859213Y-151647567D01*
X105853346Y-151645706D01*
X105853344Y-151645705D01*
X105676564Y-151589627D01*
X105676563Y-151589627D01*
X105670694Y-151587765D01*
X105516773Y-151570500D01*
X105410231Y-151570500D01*
X105407175Y-151570800D01*
X105407168Y-151570800D01*
X105348660Y-151576537D01*
X105263167Y-151584920D01*
X105257266Y-151586702D01*
X105257264Y-151586702D01*
X105183947Y-151608838D01*
X105073831Y-151642084D01*
X104899204Y-151734934D01*
X104812938Y-151805291D01*
X104750713Y-151856040D01*
X104750710Y-151856043D01*
X104745938Y-151859935D01*
X104742011Y-151864682D01*
X104742008Y-151864685D01*
X104691584Y-151925637D01*
X104632751Y-151965375D01*
X104561773Y-151966996D01*
X104501185Y-151929987D01*
X104470225Y-151866097D01*
X104468500Y-151845321D01*
X104468500Y-149213500D01*
X104488502Y-149145379D01*
X104542158Y-149098886D01*
X104594500Y-149087500D01*
X146325500Y-149087500D01*
X146393621Y-149107502D01*
G37*
%TD.AperFunction*%
%TD*%
M02*
