%TF.GenerationSoftware,KiCad,Pcbnew,6.0.11-2627ca5db0~126~ubuntu20.04.1*%
%TF.CreationDate,2024-08-17T18:27:00-05:00*%
%TF.ProjectId,,58585858-5858-4585-9858-585858585858,rev?*%
%TF.SameCoordinates,Original*%
%TF.FileFunction,Soldermask,Top*%
%TF.FilePolarity,Negative*%
%FSLAX46Y46*%
G04 Gerber Fmt 4.6, Leading zero omitted, Abs format (unit mm)*
G04 Created by KiCad (PCBNEW 6.0.11-2627ca5db0~126~ubuntu20.04.1) date 2024-08-17 18:27:00*
%MOMM*%
%LPD*%
G01*
G04 APERTURE LIST*
%ADD10C,1.000000*%
G04 APERTURE END LIST*
D10*
%TO.C,REF\u002A\u002A46*%
X145460000Y-152579000D03*
%TD*%
%TO.C,REF\u002A\u002A45*%
X105460000Y-152579000D03*
%TD*%
%TO.C,REF\u002A\u002A44*%
X102460000Y-152579000D03*
%TD*%
%TO.C,REF\u002A\u002A43*%
X62460000Y-152579000D03*
%TD*%
%TO.C,REF\u002A\u002A42*%
X145460000Y-144579000D03*
%TD*%
%TO.C,REF\u002A\u002A41*%
X105460000Y-144579000D03*
%TD*%
%TO.C,REF\u002A\u002A40*%
X102460000Y-144579000D03*
%TD*%
%TO.C,REF\u002A\u002A39*%
X62460000Y-144579000D03*
%TD*%
%TO.C,REF\u002A\u002A38*%
X145460000Y-136579000D03*
%TD*%
%TO.C,REF\u002A\u002A37*%
X105460000Y-136579000D03*
%TD*%
%TO.C,REF\u002A\u002A36*%
X102460000Y-136579000D03*
%TD*%
%TO.C,REF\u002A\u002A35*%
X62460000Y-136579000D03*
%TD*%
%TO.C,REF\u002A\u002A34*%
X145460000Y-128579000D03*
%TD*%
%TO.C,REF\u002A\u002A33*%
X105460000Y-128579000D03*
%TD*%
%TO.C,REF\u002A\u002A32*%
X102460000Y-128579000D03*
%TD*%
%TO.C,REF\u002A\u002A31*%
X62460000Y-128579000D03*
%TD*%
%TO.C,REF\u002A\u002A30*%
X145460000Y-120579000D03*
%TD*%
%TO.C,REF\u002A\u002A29*%
X105460000Y-120579000D03*
%TD*%
%TO.C,REF\u002A\u002A28*%
X102460000Y-120579000D03*
%TD*%
%TO.C,REF\u002A\u002A27*%
X62460000Y-120579000D03*
%TD*%
%TO.C,REF\u002A\u002A26*%
X145460000Y-112579000D03*
%TD*%
%TO.C,REF\u002A\u002A25*%
X105460000Y-112579000D03*
%TD*%
%TO.C,REF\u002A\u002A24*%
X102460000Y-112579000D03*
%TD*%
%TO.C,REF\u002A\u002A23*%
X62460000Y-112579000D03*
%TD*%
%TO.C,REF\u002A\u002A22*%
X145460000Y-104579000D03*
%TD*%
%TO.C,REF\u002A\u002A21*%
X105460000Y-104579000D03*
%TD*%
%TO.C,REF\u002A\u002A20*%
X102460000Y-104579000D03*
%TD*%
%TO.C,REF\u002A\u002A19*%
X62460000Y-104579000D03*
%TD*%
%TO.C,REF\u002A\u002A18*%
X145460000Y-96579000D03*
%TD*%
%TO.C,REF\u002A\u002A17*%
X105460000Y-96579000D03*
%TD*%
%TO.C,REF\u002A\u002A16*%
X102460000Y-96579000D03*
%TD*%
%TO.C,REF\u002A\u002A15*%
X62460000Y-96579000D03*
%TD*%
%TO.C,REF\u002A\u002A14*%
X145460000Y-88579000D03*
%TD*%
%TO.C,REF\u002A\u002A13*%
X105460000Y-88579000D03*
%TD*%
%TO.C,REF\u002A\u002A12*%
X102460000Y-88579000D03*
%TD*%
%TO.C,REF\u002A\u002A11*%
X62460000Y-88579000D03*
%TD*%
%TO.C,REF\u002A\u002A10*%
X145460000Y-80579000D03*
%TD*%
%TO.C,REF\u002A\u002A9*%
X105460000Y-80579000D03*
%TD*%
%TO.C,REF\u002A\u002A8*%
X102460000Y-80579000D03*
%TD*%
%TO.C,REF\u002A\u002A7*%
X62460000Y-80579000D03*
%TD*%
%TO.C,REF\u002A\u002A6*%
X145460000Y-72579000D03*
%TD*%
%TO.C,REF\u002A\u002A5*%
X105460000Y-72579000D03*
%TD*%
%TO.C,REF\u002A\u002A4*%
X102460000Y-72579000D03*
%TD*%
%TO.C,REF\u002A\u002A3*%
X62460000Y-72579000D03*
%TD*%
%TO.C,REF\u002A\u002A2*%
X145460000Y-64579000D03*
%TD*%
%TO.C,REF\u002A\u002A1*%
X105460000Y-64579000D03*
%TD*%
%TO.C,REF\u002A\u002A*%
X62460000Y-64579000D03*
%TD*%
%TO.C,REF\u002A\u002A*%
X102460000Y-64579000D03*
%TD*%
M02*
