%TF.GenerationSoftware,KiCad,Pcbnew,6.0.11-2627ca5db0~126~ubuntu20.04.1*%
%TF.CreationDate,2024-08-15T22:22:32-05:00*%
%TF.ProjectId,a00_hillabelplate,6130305f-6869-46c6-9c61-62656c706c61,rev?*%
%TF.SameCoordinates,Original*%
%TF.FileFunction,Legend,Bot*%
%TF.FilePolarity,Positive*%
%FSLAX46Y46*%
G04 Gerber Fmt 4.6, Leading zero omitted, Abs format (unit mm)*
G04 Created by KiCad (PCBNEW 6.0.11-2627ca5db0~126~ubuntu20.04.1) date 2024-08-15 22:22:32*
%MOMM*%
%LPD*%
G01*
G04 APERTURE LIST*
%ADD10C,0.150000*%
G04 APERTURE END LIST*
D10*
X139611904Y-106465666D02*
X139135714Y-106465666D01*
X139707142Y-106751380D02*
X139373809Y-105751380D01*
X139040476Y-106751380D01*
X138516666Y-105751380D02*
X138421428Y-105751380D01*
X138326190Y-105799000D01*
X138278571Y-105846619D01*
X138230952Y-105941857D01*
X138183333Y-106132333D01*
X138183333Y-106370428D01*
X138230952Y-106560904D01*
X138278571Y-106656142D01*
X138326190Y-106703761D01*
X138421428Y-106751380D01*
X138516666Y-106751380D01*
X138611904Y-106703761D01*
X138659523Y-106656142D01*
X138707142Y-106560904D01*
X138754761Y-106370428D01*
X138754761Y-106132333D01*
X138707142Y-105941857D01*
X138659523Y-105846619D01*
X138611904Y-105799000D01*
X138516666Y-105751380D01*
X137564285Y-105751380D02*
X137469047Y-105751380D01*
X137373809Y-105799000D01*
X137326190Y-105846619D01*
X137278571Y-105941857D01*
X137230952Y-106132333D01*
X137230952Y-106370428D01*
X137278571Y-106560904D01*
X137326190Y-106656142D01*
X137373809Y-106703761D01*
X137469047Y-106751380D01*
X137564285Y-106751380D01*
X137659523Y-106703761D01*
X137707142Y-106656142D01*
X137754761Y-106560904D01*
X137802380Y-106370428D01*
X137802380Y-106132333D01*
X137754761Y-105941857D01*
X137707142Y-105846619D01*
X137659523Y-105799000D01*
X137564285Y-105751380D01*
X137040476Y-106846619D02*
X136278571Y-106846619D01*
X136040476Y-106751380D02*
X136040476Y-105751380D01*
X135611904Y-106751380D02*
X135611904Y-106227571D01*
X135659523Y-106132333D01*
X135754761Y-106084714D01*
X135897619Y-106084714D01*
X135992857Y-106132333D01*
X136040476Y-106179952D01*
X135135714Y-106751380D02*
X135135714Y-106084714D01*
X135135714Y-105751380D02*
X135183333Y-105799000D01*
X135135714Y-105846619D01*
X135088095Y-105799000D01*
X135135714Y-105751380D01*
X135135714Y-105846619D01*
X134516666Y-106751380D02*
X134611904Y-106703761D01*
X134659523Y-106608523D01*
X134659523Y-105751380D01*
X133992857Y-106751380D02*
X134088095Y-106703761D01*
X134135714Y-106608523D01*
X134135714Y-105751380D01*
X133183333Y-106751380D02*
X133183333Y-106227571D01*
X133230952Y-106132333D01*
X133326190Y-106084714D01*
X133516666Y-106084714D01*
X133611904Y-106132333D01*
X133183333Y-106703761D02*
X133278571Y-106751380D01*
X133516666Y-106751380D01*
X133611904Y-106703761D01*
X133659523Y-106608523D01*
X133659523Y-106513285D01*
X133611904Y-106418047D01*
X133516666Y-106370428D01*
X133278571Y-106370428D01*
X133183333Y-106322809D01*
X132707142Y-106751380D02*
X132707142Y-105751380D01*
X132707142Y-106132333D02*
X132611904Y-106084714D01*
X132421428Y-106084714D01*
X132326190Y-106132333D01*
X132278571Y-106179952D01*
X132230952Y-106275190D01*
X132230952Y-106560904D01*
X132278571Y-106656142D01*
X132326190Y-106703761D01*
X132421428Y-106751380D01*
X132611904Y-106751380D01*
X132707142Y-106703761D01*
X131421428Y-106703761D02*
X131516666Y-106751380D01*
X131707142Y-106751380D01*
X131802380Y-106703761D01*
X131850000Y-106608523D01*
X131850000Y-106227571D01*
X131802380Y-106132333D01*
X131707142Y-106084714D01*
X131516666Y-106084714D01*
X131421428Y-106132333D01*
X131373809Y-106227571D01*
X131373809Y-106322809D01*
X131850000Y-106418047D01*
X130802380Y-106751380D02*
X130897619Y-106703761D01*
X130945238Y-106608523D01*
X130945238Y-105751380D01*
X130421428Y-106084714D02*
X130421428Y-107084714D01*
X130421428Y-106132333D02*
X130326190Y-106084714D01*
X130135714Y-106084714D01*
X130040476Y-106132333D01*
X129992857Y-106179952D01*
X129945238Y-106275190D01*
X129945238Y-106560904D01*
X129992857Y-106656142D01*
X130040476Y-106703761D01*
X130135714Y-106751380D01*
X130326190Y-106751380D01*
X130421428Y-106703761D01*
X129373809Y-106751380D02*
X129469047Y-106703761D01*
X129516666Y-106608523D01*
X129516666Y-105751380D01*
X128564285Y-106751380D02*
X128564285Y-106227571D01*
X128611904Y-106132333D01*
X128707142Y-106084714D01*
X128897619Y-106084714D01*
X128992857Y-106132333D01*
X128564285Y-106703761D02*
X128659523Y-106751380D01*
X128897619Y-106751380D01*
X128992857Y-106703761D01*
X129040476Y-106608523D01*
X129040476Y-106513285D01*
X128992857Y-106418047D01*
X128897619Y-106370428D01*
X128659523Y-106370428D01*
X128564285Y-106322809D01*
X128230952Y-106084714D02*
X127850000Y-106084714D01*
X128088095Y-105751380D02*
X128088095Y-106608523D01*
X128040476Y-106703761D01*
X127945238Y-106751380D01*
X127850000Y-106751380D01*
X127135714Y-106703761D02*
X127230952Y-106751380D01*
X127421428Y-106751380D01*
X127516666Y-106703761D01*
X127564285Y-106608523D01*
X127564285Y-106227571D01*
X127516666Y-106132333D01*
X127421428Y-106084714D01*
X127230952Y-106084714D01*
X127135714Y-106132333D01*
X127088095Y-106227571D01*
X127088095Y-106322809D01*
X127564285Y-106418047D01*
M02*
