%TF.GenerationSoftware,KiCad,Pcbnew,6.0.11-2627ca5db0~126~ubuntu20.04.1*%
%TF.CreationDate,2024-08-15T22:54:13-05:00*%
%TF.ProjectId,a00_hillabelplate,6130305f-6869-46c6-9c61-62656c706c61,rev?*%
%TF.SameCoordinates,Original*%
%TF.FileFunction,Copper,L2,Bot*%
%TF.FilePolarity,Positive*%
%FSLAX46Y46*%
G04 Gerber Fmt 4.6, Leading zero omitted, Abs format (unit mm)*
G04 Created by KiCad (PCBNEW 6.0.11-2627ca5db0~126~ubuntu20.04.1) date 2024-08-15 22:54:13*
%MOMM*%
%LPD*%
G01*
G04 APERTURE LIST*
%TA.AperFunction,SMDPad,CuDef*%
%ADD10R,1.000000X1.000000*%
%TD*%
%TA.AperFunction,ViaPad*%
%ADD11C,0.800000*%
%TD*%
%TA.AperFunction,Conductor*%
%ADD12C,0.250000*%
%TD*%
G04 APERTURE END LIST*
D10*
%TO.P,TP2,1,1*%
%TO.N,GND*%
X141500000Y-106700000D03*
%TD*%
%TO.P,TP1,1,1*%
%TO.N,GND*%
X101500000Y-101300000D03*
%TD*%
D11*
%TO.N,GND*%
X141500000Y-101300000D03*
X101500000Y-106700000D03*
%TD*%
D12*
%TO.N,GND*%
X141500000Y-106700000D02*
X106900000Y-106700000D01*
X106900000Y-106700000D02*
X101500000Y-101300000D01*
%TD*%
%TA.AperFunction,Conductor*%
%TO.N,GND*%
G36*
X142433621Y-100528502D02*
G01*
X142480114Y-100582158D01*
X142491500Y-100634500D01*
X142491500Y-103265842D01*
X142471498Y-103333963D01*
X142417842Y-103380456D01*
X142347568Y-103390560D01*
X142282988Y-103361066D01*
X142267304Y-103344795D01*
X142227892Y-103295776D01*
X142224032Y-103290975D01*
X142217727Y-103285684D01*
X142194080Y-103265842D01*
X142072526Y-103163846D01*
X142067128Y-103160879D01*
X142067123Y-103160875D01*
X141904608Y-103071533D01*
X141904609Y-103071533D01*
X141899213Y-103068567D01*
X141893346Y-103066706D01*
X141893344Y-103066705D01*
X141716564Y-103010627D01*
X141716563Y-103010627D01*
X141710694Y-103008765D01*
X141556773Y-102991500D01*
X141450231Y-102991500D01*
X141447175Y-102991800D01*
X141447168Y-102991800D01*
X141388660Y-102997537D01*
X141303167Y-103005920D01*
X141297266Y-103007702D01*
X141297264Y-103007702D01*
X141223947Y-103029838D01*
X141113831Y-103063084D01*
X140939204Y-103155934D01*
X140852938Y-103226291D01*
X140790713Y-103277040D01*
X140790710Y-103277043D01*
X140785938Y-103280935D01*
X140782011Y-103285682D01*
X140782009Y-103285684D01*
X140663799Y-103428575D01*
X140663797Y-103428579D01*
X140659870Y-103433325D01*
X140565802Y-103607299D01*
X140507318Y-103796232D01*
X140486645Y-103992925D01*
X140504570Y-104189888D01*
X140506308Y-104195794D01*
X140506309Y-104195798D01*
X140510387Y-104209653D01*
X140560410Y-104379619D01*
X140563263Y-104385077D01*
X140563265Y-104385081D01*
X140610720Y-104475853D01*
X140652040Y-104554890D01*
X140775968Y-104709025D01*
X140780692Y-104712989D01*
X140787933Y-104719065D01*
X140927474Y-104836154D01*
X140932872Y-104839121D01*
X140932877Y-104839125D01*
X141076180Y-104917905D01*
X141100787Y-104931433D01*
X141106654Y-104933294D01*
X141106656Y-104933295D01*
X141283436Y-104989373D01*
X141289306Y-104991235D01*
X141443227Y-105008500D01*
X141549769Y-105008500D01*
X141552825Y-105008200D01*
X141552832Y-105008200D01*
X141611340Y-105002463D01*
X141696833Y-104994080D01*
X141702734Y-104992298D01*
X141702736Y-104992298D01*
X141776053Y-104970162D01*
X141886169Y-104936916D01*
X142060796Y-104844066D01*
X142147062Y-104773709D01*
X142209287Y-104722960D01*
X142209290Y-104722957D01*
X142214062Y-104719065D01*
X142266892Y-104655205D01*
X142268416Y-104653363D01*
X142327249Y-104613625D01*
X142398227Y-104612004D01*
X142458815Y-104649013D01*
X142489775Y-104712903D01*
X142491500Y-104733679D01*
X142491500Y-105681583D01*
X142471498Y-105749704D01*
X142417842Y-105796197D01*
X142347568Y-105806301D01*
X142289935Y-105782409D01*
X142253649Y-105755214D01*
X142238054Y-105746676D01*
X142117606Y-105701522D01*
X142102351Y-105697895D01*
X142051486Y-105692369D01*
X142044672Y-105692000D01*
X141772115Y-105692000D01*
X141756876Y-105696475D01*
X141755671Y-105697865D01*
X141754000Y-105705548D01*
X141754000Y-106828000D01*
X141733998Y-106896121D01*
X141680342Y-106942614D01*
X141628000Y-106954000D01*
X140510116Y-106954000D01*
X140494877Y-106958475D01*
X140493672Y-106959865D01*
X140492001Y-106967548D01*
X140492001Y-107244669D01*
X140492371Y-107251490D01*
X140497895Y-107302352D01*
X140501522Y-107317609D01*
X140502896Y-107321274D01*
X140503119Y-107324327D01*
X140503349Y-107325293D01*
X140503193Y-107325330D01*
X140508077Y-107392081D01*
X140474155Y-107454449D01*
X140411898Y-107488576D01*
X140384913Y-107491500D01*
X100634500Y-107491500D01*
X100566379Y-107471498D01*
X100519886Y-107417842D01*
X100508500Y-107365500D01*
X100508500Y-106427885D01*
X140492000Y-106427885D01*
X140496475Y-106443124D01*
X140497865Y-106444329D01*
X140505548Y-106446000D01*
X141227885Y-106446000D01*
X141243124Y-106441525D01*
X141244329Y-106440135D01*
X141246000Y-106432452D01*
X141246000Y-105710116D01*
X141241525Y-105694877D01*
X141240135Y-105693672D01*
X141232452Y-105692001D01*
X140955331Y-105692001D01*
X140948510Y-105692371D01*
X140897648Y-105697895D01*
X140882396Y-105701521D01*
X140761946Y-105746676D01*
X140746351Y-105755214D01*
X140644276Y-105831715D01*
X140631715Y-105844276D01*
X140555214Y-105946351D01*
X140546676Y-105961946D01*
X140501522Y-106082394D01*
X140497895Y-106097649D01*
X140492369Y-106148514D01*
X140492000Y-106155328D01*
X140492000Y-106427885D01*
X100508500Y-106427885D01*
X100508500Y-104734158D01*
X100528502Y-104666037D01*
X100582158Y-104619544D01*
X100652432Y-104609440D01*
X100717012Y-104638934D01*
X100732693Y-104655202D01*
X100775968Y-104709025D01*
X100780692Y-104712989D01*
X100787933Y-104719065D01*
X100927474Y-104836154D01*
X100932872Y-104839121D01*
X100932877Y-104839125D01*
X101076180Y-104917905D01*
X101100787Y-104931433D01*
X101106654Y-104933294D01*
X101106656Y-104933295D01*
X101283436Y-104989373D01*
X101289306Y-104991235D01*
X101443227Y-105008500D01*
X101549769Y-105008500D01*
X101552825Y-105008200D01*
X101552832Y-105008200D01*
X101611340Y-105002463D01*
X101696833Y-104994080D01*
X101702734Y-104992298D01*
X101702736Y-104992298D01*
X101776053Y-104970162D01*
X101886169Y-104936916D01*
X102060796Y-104844066D01*
X102147062Y-104773709D01*
X102209287Y-104722960D01*
X102209290Y-104722957D01*
X102214062Y-104719065D01*
X102266892Y-104655205D01*
X102336201Y-104571425D01*
X102336203Y-104571421D01*
X102340130Y-104566675D01*
X102434198Y-104392701D01*
X102492682Y-104203768D01*
X102513355Y-104007075D01*
X102495430Y-103810112D01*
X102490222Y-103792414D01*
X102441330Y-103626294D01*
X102439590Y-103620381D01*
X102429919Y-103601881D01*
X102350813Y-103450568D01*
X102347960Y-103445110D01*
X102224032Y-103290975D01*
X102217727Y-103285684D01*
X102194080Y-103265842D01*
X102072526Y-103163846D01*
X102067128Y-103160879D01*
X102067123Y-103160875D01*
X101904608Y-103071533D01*
X101904609Y-103071533D01*
X101899213Y-103068567D01*
X101893346Y-103066706D01*
X101893344Y-103066705D01*
X101716564Y-103010627D01*
X101716563Y-103010627D01*
X101710694Y-103008765D01*
X101556773Y-102991500D01*
X101450231Y-102991500D01*
X101447175Y-102991800D01*
X101447168Y-102991800D01*
X101388660Y-102997537D01*
X101303167Y-103005920D01*
X101297266Y-103007702D01*
X101297264Y-103007702D01*
X101223947Y-103029838D01*
X101113831Y-103063084D01*
X100939204Y-103155934D01*
X100852938Y-103226291D01*
X100790713Y-103277040D01*
X100790710Y-103277043D01*
X100785938Y-103280935D01*
X100782011Y-103285682D01*
X100782008Y-103285685D01*
X100731584Y-103346637D01*
X100672751Y-103386375D01*
X100601773Y-103387996D01*
X100541185Y-103350987D01*
X100510225Y-103287097D01*
X100508500Y-103266321D01*
X100508500Y-102318417D01*
X100528502Y-102250296D01*
X100582158Y-102203803D01*
X100652432Y-102193699D01*
X100710065Y-102217591D01*
X100746351Y-102244786D01*
X100761946Y-102253324D01*
X100882394Y-102298478D01*
X100897649Y-102302105D01*
X100948514Y-102307631D01*
X100955328Y-102308000D01*
X101227885Y-102308000D01*
X101243124Y-102303525D01*
X101244329Y-102302135D01*
X101246000Y-102294452D01*
X101246000Y-102289884D01*
X101754000Y-102289884D01*
X101758475Y-102305123D01*
X101759865Y-102306328D01*
X101767548Y-102307999D01*
X102044669Y-102307999D01*
X102051490Y-102307629D01*
X102102352Y-102302105D01*
X102117604Y-102298479D01*
X102238054Y-102253324D01*
X102253649Y-102244786D01*
X102355724Y-102168285D01*
X102368285Y-102155724D01*
X102444786Y-102053649D01*
X102453324Y-102038054D01*
X102498478Y-101917606D01*
X102502105Y-101902351D01*
X102507631Y-101851486D01*
X102508000Y-101844672D01*
X102508000Y-101572115D01*
X102503525Y-101556876D01*
X102502135Y-101555671D01*
X102494452Y-101554000D01*
X101772115Y-101554000D01*
X101756876Y-101558475D01*
X101755671Y-101559865D01*
X101754000Y-101567548D01*
X101754000Y-102289884D01*
X101246000Y-102289884D01*
X101246000Y-101172000D01*
X101266002Y-101103879D01*
X101319658Y-101057386D01*
X101372000Y-101046000D01*
X102489884Y-101046000D01*
X102505123Y-101041525D01*
X102506328Y-101040135D01*
X102507999Y-101032452D01*
X102507999Y-100755331D01*
X102507629Y-100748510D01*
X102502105Y-100697648D01*
X102498478Y-100682391D01*
X102497104Y-100678726D01*
X102496881Y-100675673D01*
X102496651Y-100674707D01*
X102496807Y-100674670D01*
X102491923Y-100607919D01*
X102525845Y-100545551D01*
X102588102Y-100511424D01*
X102615087Y-100508500D01*
X142365500Y-100508500D01*
X142433621Y-100528502D01*
G37*
%TD.AperFunction*%
%TD*%
M02*
