%TF.GenerationSoftware,KiCad,Pcbnew,7.0.11+dfsg-1build4*%
%TF.CreationDate,2026-09-11T20:28:16-05:00*%
%TF.ProjectId,,58585858-5858-4585-9858-585858585858,rev?*%
%TF.SameCoordinates,Original*%
%TF.FileFunction,Soldermask,Bot*%
%TF.FilePolarity,Negative*%
%FSLAX46Y46*%
G04 Gerber Fmt 4.6, Leading zero omitted, Abs format (unit mm)*
G04 Created by KiCad (PCBNEW 7.0.11+dfsg-1build4) date 2026-09-11 20:28:16*
%MOMM*%
%LPD*%
G01*
G04 APERTURE LIST*
%ADD10C,0.650000*%
%ADD11O,2.100000X1.000000*%
%ADD12O,1.600000X1.000000*%
%ADD13R,1.600000X1.600000*%
%ADD14O,1.600000X1.600000*%
%ADD15C,3.200000*%
%ADD16R,2.400000X2.400000*%
%ADD17C,2.400000*%
%ADD18R,1.700000X1.700000*%
%ADD19C,1.700000*%
%TA.AperFunction,Profile*%
%ADD20C,0.050000*%
%TD*%
G04 APERTURE END LIST*
D10*
%TO.C,J4*%
X69410000Y-85720000D03*
X69410000Y-91500000D03*
D11*
X69940000Y-84290000D03*
D12*
X65760000Y-84290000D03*
D11*
X69940000Y-92930000D03*
D12*
X65760000Y-92930000D03*
%TD*%
D13*
%TO.C,U4*%
X100325000Y-86560000D03*
D14*
X100325000Y-89100000D03*
X100325000Y-91640000D03*
X100325000Y-94180000D03*
X100325000Y-96720000D03*
X100325000Y-99260000D03*
X100325000Y-101800000D03*
X100325000Y-104340000D03*
X115565000Y-104340000D03*
X115565000Y-101800000D03*
X115565000Y-99260000D03*
X115565000Y-96720000D03*
X115565000Y-94180000D03*
X115565000Y-91640000D03*
X115565000Y-89100000D03*
X115565000Y-86560000D03*
%TD*%
D15*
%TO.C,MH09*%
X72340000Y-130710000D03*
%TD*%
D10*
%TO.C,J3*%
X69410000Y-96570000D03*
X69410000Y-102350000D03*
D11*
X69940000Y-95140000D03*
D12*
X65760000Y-95140000D03*
D11*
X69940000Y-103780000D03*
D12*
X65760000Y-103780000D03*
%TD*%
D15*
%TO.C,MH01*%
X153620000Y-130710000D03*
%TD*%
D10*
%TO.C,J1*%
X69410000Y-118320000D03*
X69410000Y-124100000D03*
D11*
X69940000Y-116890000D03*
D12*
X65760000Y-116890000D03*
D11*
X69940000Y-125530000D03*
D12*
X65760000Y-125530000D03*
%TD*%
D15*
%TO.C,MH04*%
X123140000Y-130710000D03*
%TD*%
D16*
%TO.C,J5*%
X158460000Y-110410000D03*
D17*
X147030000Y-112160000D03*
X158460000Y-106910000D03*
X147030000Y-108660000D03*
X158460000Y-103410000D03*
X147030000Y-105160000D03*
X158460000Y-99910000D03*
X147030000Y-101660000D03*
X158460000Y-96410000D03*
X147030000Y-98160000D03*
X158460000Y-92910000D03*
X147030000Y-94660000D03*
X158460000Y-89410000D03*
X147030000Y-91160000D03*
X158460000Y-85910000D03*
X147030000Y-87660000D03*
%TD*%
D10*
%TO.C,J2*%
X69410000Y-107420000D03*
X69410000Y-113200000D03*
D11*
X69940000Y-105990000D03*
D12*
X65760000Y-105990000D03*
D11*
X69940000Y-114630000D03*
D12*
X65760000Y-114630000D03*
%TD*%
D15*
%TO.C,MH07*%
X92660000Y-130710000D03*
%TD*%
%TO.C,MH02*%
X143460000Y-130710000D03*
%TD*%
%TO.C,MH08*%
X82500000Y-130710000D03*
%TD*%
%TO.C,MH05*%
X112980000Y-130710000D03*
%TD*%
%TO.C,MH03*%
X133300000Y-130710000D03*
%TD*%
D18*
%TO.C,U5*%
X127005000Y-90081500D03*
D19*
X129545000Y-90081500D03*
X132085000Y-90081500D03*
X134625000Y-90081500D03*
%TD*%
D15*
%TO.C,MH06*%
X102820000Y-130710000D03*
%TD*%
%TO.C,MH05*%
X112980000Y-80710000D03*
%TD*%
D10*
%TO.C,J4*%
X69410000Y-35720000D03*
X69410000Y-41500000D03*
D11*
X69940000Y-34290000D03*
D12*
X65760000Y-34290000D03*
D11*
X69940000Y-42930000D03*
D12*
X65760000Y-42930000D03*
%TD*%
D10*
%TO.C,J2*%
X69410000Y-57420000D03*
X69410000Y-63200000D03*
D11*
X69940000Y-55990000D03*
D12*
X65760000Y-55990000D03*
D11*
X69940000Y-64630000D03*
D12*
X65760000Y-64630000D03*
%TD*%
D15*
%TO.C,MH01*%
X153620000Y-80710000D03*
%TD*%
%TO.C,MH03*%
X133300000Y-80710000D03*
%TD*%
D13*
%TO.C,U4*%
X100325000Y-36560000D03*
D14*
X100325000Y-39100000D03*
X100325000Y-41640000D03*
X100325000Y-44180000D03*
X100325000Y-46720000D03*
X100325000Y-49260000D03*
X100325000Y-51800000D03*
X100325000Y-54340000D03*
X115565000Y-54340000D03*
X115565000Y-51800000D03*
X115565000Y-49260000D03*
X115565000Y-46720000D03*
X115565000Y-44180000D03*
X115565000Y-41640000D03*
X115565000Y-39100000D03*
X115565000Y-36560000D03*
%TD*%
D16*
%TO.C,J5*%
X158460000Y-60410000D03*
D17*
X147030000Y-62160000D03*
X158460000Y-56910000D03*
X147030000Y-58660000D03*
X158460000Y-53410000D03*
X147030000Y-55160000D03*
X158460000Y-49910000D03*
X147030000Y-51660000D03*
X158460000Y-46410000D03*
X147030000Y-48160000D03*
X158460000Y-42910000D03*
X147030000Y-44660000D03*
X158460000Y-39410000D03*
X147030000Y-41160000D03*
X158460000Y-35910000D03*
X147030000Y-37660000D03*
%TD*%
D15*
%TO.C,MH09*%
X72340000Y-80710000D03*
%TD*%
%TO.C,MH02*%
X143460000Y-80710000D03*
%TD*%
%TO.C,MH07*%
X92660000Y-80710000D03*
%TD*%
D10*
%TO.C,J3*%
X69410000Y-46570000D03*
X69410000Y-52350000D03*
D11*
X69940000Y-45140000D03*
D12*
X65760000Y-45140000D03*
D11*
X69940000Y-53780000D03*
D12*
X65760000Y-53780000D03*
%TD*%
D15*
%TO.C,MH08*%
X82500000Y-80710000D03*
%TD*%
D10*
%TO.C,J1*%
X69410000Y-68320000D03*
X69410000Y-74100000D03*
D11*
X69940000Y-66890000D03*
D12*
X65760000Y-66890000D03*
D11*
X69940000Y-75530000D03*
D12*
X65760000Y-75530000D03*
%TD*%
D18*
%TO.C,U5*%
X127005000Y-40081500D03*
D19*
X129545000Y-40081500D03*
X132085000Y-40081500D03*
X134625000Y-40081500D03*
%TD*%
D15*
%TO.C,MH06*%
X102820000Y-80710000D03*
%TD*%
%TO.C,MH04*%
X123140000Y-80710000D03*
%TD*%
D20*
X62620000Y-83210000D02*
X162620000Y-83210000D01*
X162620000Y-133210000D01*
X62620000Y-133210000D01*
X62620000Y-83210000D01*
X62620000Y-33210000D02*
X162620000Y-33210000D01*
X162620000Y-83210000D01*
X62620000Y-83210000D01*
X62620000Y-33210000D01*
M02*
