%TF.GenerationSoftware,KiCad,Pcbnew,7.0.11+dfsg-1build4*%
%TF.CreationDate,2026-09-11T20:28:16-05:00*%
%TF.ProjectId,,58585858-5858-4585-9858-585858585858,rev?*%
%TF.SameCoordinates,Original*%
%TF.FileFunction,Soldermask,Top*%
%TF.FilePolarity,Negative*%
%FSLAX46Y46*%
G04 Gerber Fmt 4.6, Leading zero omitted, Abs format (unit mm)*
G04 Created by KiCad (PCBNEW 7.0.11+dfsg-1build4) date 2026-09-11 20:28:16*
%MOMM*%
%LPD*%
G01*
G04 APERTURE LIST*
G04 Aperture macros list*
%AMRoundRect*
0 Rectangle with rounded corners*
0 $1 Rounding radius*
0 $2 $3 $4 $5 $6 $7 $8 $9 X,Y pos of 4 corners*
0 Add a 4 corners polygon primitive as box body*
4,1,4,$2,$3,$4,$5,$6,$7,$8,$9,$2,$3,0*
0 Add four circle primitives for the rounded corners*
1,1,$1+$1,$2,$3*
1,1,$1+$1,$4,$5*
1,1,$1+$1,$6,$7*
1,1,$1+$1,$8,$9*
0 Add four rect primitives between the rounded corners*
20,1,$1+$1,$2,$3,$4,$5,0*
20,1,$1+$1,$4,$5,$6,$7,0*
20,1,$1+$1,$6,$7,$8,$9,0*
20,1,$1+$1,$8,$9,$2,$3,0*%
%AMFreePoly0*
4,1,19,0.500000,-0.750000,0.000000,-0.750000,0.000000,-0.744911,-0.071157,-0.744911,-0.207708,-0.704816,-0.327430,-0.627875,-0.420627,-0.520320,-0.479746,-0.390866,-0.500000,-0.250000,-0.500000,0.250000,-0.479746,0.390866,-0.420627,0.520320,-0.327430,0.627875,-0.207708,0.704816,-0.071157,0.744911,0.000000,0.744911,0.000000,0.750000,0.500000,0.750000,0.500000,-0.750000,0.500000,-0.750000,
$1*%
%AMFreePoly1*
4,1,19,0.000000,0.744911,0.071157,0.744911,0.207708,0.704816,0.327430,0.627875,0.420627,0.520320,0.479746,0.390866,0.500000,0.250000,0.500000,-0.250000,0.479746,-0.390866,0.420627,-0.520320,0.327430,-0.627875,0.207708,-0.704816,0.071157,-0.744911,0.000000,-0.744911,0.000000,-0.750000,-0.500000,-0.750000,-0.500000,0.750000,0.000000,0.750000,0.000000,0.744911,0.000000,0.744911,
$1*%
G04 Aperture macros list end*
%ADD10RoundRect,0.150000X0.825000X0.150000X-0.825000X0.150000X-0.825000X-0.150000X0.825000X-0.150000X0*%
%ADD11C,0.650000*%
%ADD12R,1.450000X0.600000*%
%ADD13R,1.450000X0.300000*%
%ADD14O,2.100000X1.000000*%
%ADD15O,1.600000X1.000000*%
%ADD16R,1.550000X1.300000*%
%ADD17RoundRect,0.250000X1.000000X-1.950000X1.000000X1.950000X-1.000000X1.950000X-1.000000X-1.950000X0*%
%ADD18RoundRect,0.250000X0.325000X0.450000X-0.325000X0.450000X-0.325000X-0.450000X0.325000X-0.450000X0*%
%ADD19RoundRect,0.250000X-0.350000X-0.450000X0.350000X-0.450000X0.350000X0.450000X-0.350000X0.450000X0*%
%ADD20R,1.600000X1.600000*%
%ADD21O,1.600000X1.600000*%
%ADD22RoundRect,0.250000X0.350000X0.450000X-0.350000X0.450000X-0.350000X-0.450000X0.350000X-0.450000X0*%
%ADD23RoundRect,0.250000X0.337500X0.475000X-0.337500X0.475000X-0.337500X-0.475000X0.337500X-0.475000X0*%
%ADD24RoundRect,0.250001X0.624999X-0.462499X0.624999X0.462499X-0.624999X0.462499X-0.624999X-0.462499X0*%
%ADD25RoundRect,0.250000X-0.450000X0.350000X-0.450000X-0.350000X0.450000X-0.350000X0.450000X0.350000X0*%
%ADD26C,3.200000*%
%ADD27RoundRect,0.249999X-1.425001X0.450001X-1.425001X-0.450001X1.425001X-0.450001X1.425001X0.450001X0*%
%ADD28R,2.400000X2.400000*%
%ADD29C,2.400000*%
%ADD30RoundRect,0.250000X-0.337500X-0.475000X0.337500X-0.475000X0.337500X0.475000X-0.337500X0.475000X0*%
%ADD31FreePoly0,180.000000*%
%ADD32FreePoly1,180.000000*%
%ADD33R,1.700000X1.700000*%
%ADD34C,1.700000*%
%ADD35RoundRect,0.250000X-0.325000X-0.450000X0.325000X-0.450000X0.325000X0.450000X-0.325000X0.450000X0*%
%TA.AperFunction,Profile*%
%ADD36C,0.050000*%
%TD*%
G04 APERTURE END LIST*
D10*
%TO.C,U2*%
X83695000Y-100780000D03*
X83695000Y-99510000D03*
X83695000Y-98240000D03*
X83695000Y-96970000D03*
X78745000Y-96970000D03*
X78745000Y-98240000D03*
X78745000Y-99510000D03*
X78745000Y-100780000D03*
%TD*%
D11*
%TO.C,J4*%
X69410000Y-85720000D03*
X69410000Y-91500000D03*
D12*
X70855000Y-85360000D03*
X70855000Y-86160000D03*
D13*
X70855000Y-87360000D03*
X70855000Y-88360000D03*
X70855000Y-88860000D03*
X70855000Y-89860000D03*
D12*
X70855000Y-91060000D03*
X70855000Y-91860000D03*
X70855000Y-91860000D03*
X70855000Y-91060000D03*
D13*
X70855000Y-90360000D03*
X70855000Y-89360000D03*
X70855000Y-87860000D03*
X70855000Y-86860000D03*
D12*
X70855000Y-86160000D03*
X70855000Y-85360000D03*
D14*
X69940000Y-84290000D03*
D15*
X65760000Y-84290000D03*
D14*
X69940000Y-92930000D03*
D15*
X65760000Y-92930000D03*
%TD*%
D16*
%TO.C,SW1*%
X104615000Y-117290000D03*
X112565000Y-117290000D03*
X104615000Y-121790000D03*
X112565000Y-121790000D03*
%TD*%
D17*
%TO.C,C5*%
X90175000Y-119085000D03*
X90175000Y-111685000D03*
%TD*%
D18*
%TO.C,D4*%
X84215000Y-117925000D03*
X82165000Y-117925000D03*
%TD*%
D19*
%TO.C,R3*%
X74935000Y-123005000D03*
X76935000Y-123005000D03*
%TD*%
D20*
%TO.C,U4*%
X100325000Y-86560000D03*
D21*
X100325000Y-89100000D03*
X100325000Y-91640000D03*
X100325000Y-94180000D03*
X100325000Y-96720000D03*
X100325000Y-99260000D03*
X100325000Y-101800000D03*
X100325000Y-104340000D03*
X115565000Y-104340000D03*
X115565000Y-101800000D03*
X115565000Y-99260000D03*
X115565000Y-96720000D03*
X115565000Y-94180000D03*
X115565000Y-91640000D03*
X115565000Y-89100000D03*
X115565000Y-86560000D03*
%TD*%
D22*
%TO.C,R10*%
X141070000Y-123640000D03*
X139070000Y-123640000D03*
%TD*%
%TO.C,R9*%
X136625000Y-123640000D03*
X134625000Y-123640000D03*
%TD*%
D23*
%TO.C,C4*%
X84460000Y-102685000D03*
X82385000Y-102685000D03*
%TD*%
D10*
%TO.C,U3*%
X83695000Y-113480000D03*
X83695000Y-112210000D03*
X83695000Y-110940000D03*
X83695000Y-109670000D03*
X78745000Y-109670000D03*
X78745000Y-110940000D03*
X78745000Y-112210000D03*
X78745000Y-113480000D03*
%TD*%
D22*
%TO.C,R12*%
X75935000Y-93160000D03*
X73935000Y-93160000D03*
%TD*%
D24*
%TO.C,F1*%
X96525000Y-87880000D03*
X96525000Y-84905000D03*
%TD*%
D25*
%TO.C,R1*%
X116845000Y-118465000D03*
X116845000Y-120465000D03*
%TD*%
D24*
%TO.C,F2*%
X96525000Y-100580000D03*
X96525000Y-97605000D03*
%TD*%
D10*
%TO.C,U1*%
X83760000Y-88080000D03*
X83760000Y-86810000D03*
X83760000Y-85540000D03*
X83760000Y-84270000D03*
X78810000Y-84270000D03*
X78810000Y-85540000D03*
X78810000Y-86810000D03*
X78810000Y-88080000D03*
%TD*%
D17*
%TO.C,C1*%
X90175000Y-93575000D03*
X90175000Y-86175000D03*
%TD*%
D22*
%TO.C,R16*%
X123195000Y-123640000D03*
X121195000Y-123640000D03*
%TD*%
D18*
%TO.C,D1*%
X84215000Y-92525000D03*
X82165000Y-92525000D03*
%TD*%
D26*
%TO.C,MH09*%
X72340000Y-130710000D03*
%TD*%
D27*
%TO.C,R5*%
X74300000Y-97160000D03*
X74300000Y-103260000D03*
%TD*%
D11*
%TO.C,J3*%
X69410000Y-96570000D03*
X69410000Y-102350000D03*
D12*
X70855000Y-96210000D03*
X70855000Y-97010000D03*
D13*
X70855000Y-98210000D03*
X70855000Y-99210000D03*
X70855000Y-99710000D03*
X70855000Y-100710000D03*
D12*
X70855000Y-101910000D03*
X70855000Y-102710000D03*
X70855000Y-102710000D03*
X70855000Y-101910000D03*
D13*
X70855000Y-101210000D03*
X70855000Y-100210000D03*
X70855000Y-98710000D03*
X70855000Y-97710000D03*
D12*
X70855000Y-97010000D03*
X70855000Y-96210000D03*
D14*
X69940000Y-95140000D03*
D15*
X65760000Y-95140000D03*
D14*
X69940000Y-103780000D03*
D15*
X65760000Y-103780000D03*
%TD*%
D19*
%TO.C,R11*%
X78110000Y-117925000D03*
X80110000Y-117925000D03*
%TD*%
D26*
%TO.C,MH01*%
X153620000Y-130710000D03*
%TD*%
D11*
%TO.C,J1*%
X69410000Y-118320000D03*
X69410000Y-124100000D03*
D12*
X70855000Y-117960000D03*
X70855000Y-118760000D03*
D13*
X70855000Y-119960000D03*
X70855000Y-120960000D03*
X70855000Y-121460000D03*
X70855000Y-122460000D03*
D12*
X70855000Y-123660000D03*
X70855000Y-124460000D03*
X70855000Y-124460000D03*
X70855000Y-123660000D03*
D13*
X70855000Y-122960000D03*
X70855000Y-121960000D03*
X70855000Y-120460000D03*
X70855000Y-119460000D03*
D12*
X70855000Y-118760000D03*
X70855000Y-117960000D03*
D14*
X69940000Y-116890000D03*
D15*
X65760000Y-116890000D03*
D14*
X69940000Y-125530000D03*
D15*
X65760000Y-125530000D03*
%TD*%
D19*
%TO.C,R2*%
X74935000Y-125545000D03*
X76935000Y-125545000D03*
%TD*%
D22*
%TO.C,R14*%
X75300000Y-118560000D03*
X73300000Y-118560000D03*
%TD*%
D26*
%TO.C,MH04*%
X123140000Y-130710000D03*
%TD*%
D28*
%TO.C,J5*%
X158460000Y-110410000D03*
D29*
X147030000Y-112160000D03*
X158460000Y-106910000D03*
X147030000Y-108660000D03*
X158460000Y-103410000D03*
X147030000Y-105160000D03*
X158460000Y-99910000D03*
X147030000Y-101660000D03*
X158460000Y-96410000D03*
X147030000Y-98160000D03*
X158460000Y-92910000D03*
X147030000Y-94660000D03*
X158460000Y-89410000D03*
X147030000Y-91160000D03*
X158460000Y-85910000D03*
X147030000Y-87660000D03*
%TD*%
D30*
%TO.C,C8*%
X78342500Y-102685000D03*
X80417500Y-102685000D03*
%TD*%
D22*
%TO.C,R13*%
X75570000Y-105860000D03*
X73570000Y-105860000D03*
%TD*%
D11*
%TO.C,J2*%
X69410000Y-107420000D03*
X69410000Y-113200000D03*
D12*
X70855000Y-107060000D03*
X70855000Y-107860000D03*
D13*
X70855000Y-109060000D03*
X70855000Y-110060000D03*
X70855000Y-110560000D03*
X70855000Y-111560000D03*
D12*
X70855000Y-112760000D03*
X70855000Y-113560000D03*
X70855000Y-113560000D03*
X70855000Y-112760000D03*
D13*
X70855000Y-112060000D03*
X70855000Y-111060000D03*
X70855000Y-109560000D03*
X70855000Y-108560000D03*
D12*
X70855000Y-107860000D03*
X70855000Y-107060000D03*
D14*
X69940000Y-105990000D03*
D15*
X65760000Y-105990000D03*
D14*
X69940000Y-114630000D03*
D15*
X65760000Y-114630000D03*
%TD*%
D18*
%TO.C,D2*%
X84460000Y-105225000D03*
X82410000Y-105225000D03*
%TD*%
D24*
%TO.C,F3*%
X96525000Y-113280000D03*
X96525000Y-110305000D03*
%TD*%
D23*
%TO.C,C6*%
X83995000Y-115385000D03*
X81920000Y-115385000D03*
%TD*%
D17*
%TO.C,C3*%
X90175000Y-106275000D03*
X90175000Y-98875000D03*
%TD*%
D30*
%TO.C,C9*%
X77940000Y-115385000D03*
X80015000Y-115385000D03*
%TD*%
D26*
%TO.C,MH07*%
X92660000Y-130710000D03*
%TD*%
D31*
%TO.C,JP1*%
X143910000Y-85960000D03*
D32*
X142610000Y-85960000D03*
%TD*%
D26*
%TO.C,MH02*%
X143460000Y-130710000D03*
%TD*%
%TO.C,MH08*%
X82500000Y-130710000D03*
%TD*%
%TO.C,MH05*%
X112980000Y-130710000D03*
%TD*%
D27*
%TO.C,R6*%
X74300000Y-84460000D03*
X74300000Y-90560000D03*
%TD*%
D26*
%TO.C,MH03*%
X133300000Y-130710000D03*
%TD*%
D33*
%TO.C,U5*%
X127005000Y-90081500D03*
D34*
X129545000Y-90081500D03*
X132085000Y-90081500D03*
X134625000Y-90081500D03*
%TD*%
D27*
%TO.C,R8*%
X74300000Y-109960000D03*
X74300000Y-116060000D03*
%TD*%
D30*
%TO.C,C7*%
X78110000Y-89985000D03*
X80185000Y-89985000D03*
%TD*%
D23*
%TO.C,C2*%
X83995000Y-89985000D03*
X81920000Y-89985000D03*
%TD*%
D19*
%TO.C,R4*%
X78380000Y-92525000D03*
X80380000Y-92525000D03*
%TD*%
%TO.C,R15*%
X125735000Y-123640000D03*
X127735000Y-123640000D03*
%TD*%
D26*
%TO.C,MH06*%
X102820000Y-130710000D03*
%TD*%
D19*
%TO.C,R7*%
X78110000Y-105225000D03*
X80110000Y-105225000D03*
%TD*%
D35*
%TO.C,D3*%
X130180000Y-123640000D03*
X132230000Y-123640000D03*
%TD*%
D22*
%TO.C,R10*%
X141070000Y-73640000D03*
X139070000Y-73640000D03*
%TD*%
D23*
%TO.C,C6*%
X83995000Y-65385000D03*
X81920000Y-65385000D03*
%TD*%
D27*
%TO.C,R5*%
X74300000Y-47160000D03*
X74300000Y-53260000D03*
%TD*%
D26*
%TO.C,MH05*%
X112980000Y-80710000D03*
%TD*%
D11*
%TO.C,J4*%
X69410000Y-35720000D03*
X69410000Y-41500000D03*
D12*
X70855000Y-35360000D03*
X70855000Y-36160000D03*
D13*
X70855000Y-37360000D03*
X70855000Y-38360000D03*
X70855000Y-38860000D03*
X70855000Y-39860000D03*
D12*
X70855000Y-41060000D03*
X70855000Y-41860000D03*
X70855000Y-41860000D03*
X70855000Y-41060000D03*
D13*
X70855000Y-40360000D03*
X70855000Y-39360000D03*
X70855000Y-37860000D03*
X70855000Y-36860000D03*
D12*
X70855000Y-36160000D03*
X70855000Y-35360000D03*
D14*
X69940000Y-34290000D03*
D15*
X65760000Y-34290000D03*
D14*
X69940000Y-42930000D03*
D15*
X65760000Y-42930000D03*
%TD*%
D22*
%TO.C,R16*%
X123195000Y-73640000D03*
X121195000Y-73640000D03*
%TD*%
D17*
%TO.C,C1*%
X90175000Y-43575000D03*
X90175000Y-36175000D03*
%TD*%
D11*
%TO.C,J2*%
X69410000Y-57420000D03*
X69410000Y-63200000D03*
D12*
X70855000Y-57060000D03*
X70855000Y-57860000D03*
D13*
X70855000Y-59060000D03*
X70855000Y-60060000D03*
X70855000Y-60560000D03*
X70855000Y-61560000D03*
D12*
X70855000Y-62760000D03*
X70855000Y-63560000D03*
X70855000Y-63560000D03*
X70855000Y-62760000D03*
D13*
X70855000Y-62060000D03*
X70855000Y-61060000D03*
X70855000Y-59560000D03*
X70855000Y-58560000D03*
D12*
X70855000Y-57860000D03*
X70855000Y-57060000D03*
D14*
X69940000Y-55990000D03*
D15*
X65760000Y-55990000D03*
D14*
X69940000Y-64630000D03*
D15*
X65760000Y-64630000D03*
%TD*%
D26*
%TO.C,MH01*%
X153620000Y-80710000D03*
%TD*%
%TO.C,MH03*%
X133300000Y-80710000D03*
%TD*%
D19*
%TO.C,R11*%
X78110000Y-67925000D03*
X80110000Y-67925000D03*
%TD*%
%TO.C,R3*%
X74935000Y-73005000D03*
X76935000Y-73005000D03*
%TD*%
D20*
%TO.C,U4*%
X100325000Y-36560000D03*
D21*
X100325000Y-39100000D03*
X100325000Y-41640000D03*
X100325000Y-44180000D03*
X100325000Y-46720000D03*
X100325000Y-49260000D03*
X100325000Y-51800000D03*
X100325000Y-54340000D03*
X115565000Y-54340000D03*
X115565000Y-51800000D03*
X115565000Y-49260000D03*
X115565000Y-46720000D03*
X115565000Y-44180000D03*
X115565000Y-41640000D03*
X115565000Y-39100000D03*
X115565000Y-36560000D03*
%TD*%
D22*
%TO.C,R9*%
X136625000Y-73640000D03*
X134625000Y-73640000D03*
%TD*%
D17*
%TO.C,C5*%
X90175000Y-69085000D03*
X90175000Y-61685000D03*
%TD*%
D27*
%TO.C,R8*%
X74300000Y-59960000D03*
X74300000Y-66060000D03*
%TD*%
D19*
%TO.C,R2*%
X74935000Y-75545000D03*
X76935000Y-75545000D03*
%TD*%
D35*
%TO.C,D3*%
X130180000Y-73640000D03*
X132230000Y-73640000D03*
%TD*%
D19*
%TO.C,R15*%
X125735000Y-73640000D03*
X127735000Y-73640000D03*
%TD*%
D28*
%TO.C,J5*%
X158460000Y-60410000D03*
D29*
X147030000Y-62160000D03*
X158460000Y-56910000D03*
X147030000Y-58660000D03*
X158460000Y-53410000D03*
X147030000Y-55160000D03*
X158460000Y-49910000D03*
X147030000Y-51660000D03*
X158460000Y-46410000D03*
X147030000Y-48160000D03*
X158460000Y-42910000D03*
X147030000Y-44660000D03*
X158460000Y-39410000D03*
X147030000Y-41160000D03*
X158460000Y-35910000D03*
X147030000Y-37660000D03*
%TD*%
D10*
%TO.C,U2*%
X83695000Y-50780000D03*
X83695000Y-49510000D03*
X83695000Y-48240000D03*
X83695000Y-46970000D03*
X78745000Y-46970000D03*
X78745000Y-48240000D03*
X78745000Y-49510000D03*
X78745000Y-50780000D03*
%TD*%
D31*
%TO.C,JP1*%
X143910000Y-35960000D03*
D32*
X142610000Y-35960000D03*
%TD*%
D24*
%TO.C,F2*%
X96525000Y-50580000D03*
X96525000Y-47605000D03*
%TD*%
D26*
%TO.C,MH09*%
X72340000Y-80710000D03*
%TD*%
D22*
%TO.C,R12*%
X75935000Y-43160000D03*
X73935000Y-43160000D03*
%TD*%
D26*
%TO.C,MH02*%
X143460000Y-80710000D03*
%TD*%
D18*
%TO.C,D4*%
X84215000Y-67925000D03*
X82165000Y-67925000D03*
%TD*%
D19*
%TO.C,R7*%
X78110000Y-55225000D03*
X80110000Y-55225000D03*
%TD*%
D26*
%TO.C,MH07*%
X92660000Y-80710000D03*
%TD*%
D30*
%TO.C,C9*%
X77940000Y-65385000D03*
X80015000Y-65385000D03*
%TD*%
D11*
%TO.C,J3*%
X69410000Y-46570000D03*
X69410000Y-52350000D03*
D12*
X70855000Y-46210000D03*
X70855000Y-47010000D03*
D13*
X70855000Y-48210000D03*
X70855000Y-49210000D03*
X70855000Y-49710000D03*
X70855000Y-50710000D03*
D12*
X70855000Y-51910000D03*
X70855000Y-52710000D03*
X70855000Y-52710000D03*
X70855000Y-51910000D03*
D13*
X70855000Y-51210000D03*
X70855000Y-50210000D03*
X70855000Y-48710000D03*
X70855000Y-47710000D03*
D12*
X70855000Y-47010000D03*
X70855000Y-46210000D03*
D14*
X69940000Y-45140000D03*
D15*
X65760000Y-45140000D03*
D14*
X69940000Y-53780000D03*
D15*
X65760000Y-53780000D03*
%TD*%
D26*
%TO.C,MH08*%
X82500000Y-80710000D03*
%TD*%
D19*
%TO.C,R4*%
X78380000Y-42525000D03*
X80380000Y-42525000D03*
%TD*%
D30*
%TO.C,C8*%
X78342500Y-52685000D03*
X80417500Y-52685000D03*
%TD*%
D11*
%TO.C,J1*%
X69410000Y-68320000D03*
X69410000Y-74100000D03*
D12*
X70855000Y-67960000D03*
X70855000Y-68760000D03*
D13*
X70855000Y-69960000D03*
X70855000Y-70960000D03*
X70855000Y-71460000D03*
X70855000Y-72460000D03*
D12*
X70855000Y-73660000D03*
X70855000Y-74460000D03*
X70855000Y-74460000D03*
X70855000Y-73660000D03*
D13*
X70855000Y-72960000D03*
X70855000Y-71960000D03*
X70855000Y-70460000D03*
X70855000Y-69460000D03*
D12*
X70855000Y-68760000D03*
X70855000Y-67960000D03*
D14*
X69940000Y-66890000D03*
D15*
X65760000Y-66890000D03*
D14*
X69940000Y-75530000D03*
D15*
X65760000Y-75530000D03*
%TD*%
D33*
%TO.C,U5*%
X127005000Y-40081500D03*
D34*
X129545000Y-40081500D03*
X132085000Y-40081500D03*
X134625000Y-40081500D03*
%TD*%
D23*
%TO.C,C2*%
X83995000Y-39985000D03*
X81920000Y-39985000D03*
%TD*%
D25*
%TO.C,R1*%
X116845000Y-68465000D03*
X116845000Y-70465000D03*
%TD*%
D22*
%TO.C,R13*%
X75570000Y-55860000D03*
X73570000Y-55860000D03*
%TD*%
D30*
%TO.C,C7*%
X78110000Y-39985000D03*
X80185000Y-39985000D03*
%TD*%
D24*
%TO.C,F1*%
X96525000Y-37880000D03*
X96525000Y-34905000D03*
%TD*%
D10*
%TO.C,U1*%
X83760000Y-38080000D03*
X83760000Y-36810000D03*
X83760000Y-35540000D03*
X83760000Y-34270000D03*
X78810000Y-34270000D03*
X78810000Y-35540000D03*
X78810000Y-36810000D03*
X78810000Y-38080000D03*
%TD*%
D16*
%TO.C,SW1*%
X104615000Y-67290000D03*
X112565000Y-67290000D03*
X104615000Y-71790000D03*
X112565000Y-71790000D03*
%TD*%
D27*
%TO.C,R6*%
X74300000Y-34460000D03*
X74300000Y-40560000D03*
%TD*%
D10*
%TO.C,U3*%
X83695000Y-63480000D03*
X83695000Y-62210000D03*
X83695000Y-60940000D03*
X83695000Y-59670000D03*
X78745000Y-59670000D03*
X78745000Y-60940000D03*
X78745000Y-62210000D03*
X78745000Y-63480000D03*
%TD*%
D18*
%TO.C,D2*%
X84460000Y-55225000D03*
X82410000Y-55225000D03*
%TD*%
D23*
%TO.C,C4*%
X84460000Y-52685000D03*
X82385000Y-52685000D03*
%TD*%
D18*
%TO.C,D1*%
X84215000Y-42525000D03*
X82165000Y-42525000D03*
%TD*%
D26*
%TO.C,MH06*%
X102820000Y-80710000D03*
%TD*%
D17*
%TO.C,C3*%
X90175000Y-56275000D03*
X90175000Y-48875000D03*
%TD*%
D26*
%TO.C,MH04*%
X123140000Y-80710000D03*
%TD*%
D22*
%TO.C,R14*%
X75300000Y-68560000D03*
X73300000Y-68560000D03*
%TD*%
D24*
%TO.C,F3*%
X96525000Y-63280000D03*
X96525000Y-60305000D03*
%TD*%
D36*
X62620000Y-83210000D02*
X162620000Y-83210000D01*
X162620000Y-133210000D01*
X62620000Y-133210000D01*
X62620000Y-83210000D01*
X62620000Y-33210000D02*
X162620000Y-33210000D01*
X162620000Y-83210000D01*
X62620000Y-83210000D01*
X62620000Y-33210000D01*
M02*
