M48
; DRILL file {KiCad 7.0.11+dfsg-1build4} date vie 15 may 2026 19:55:33
; FORMAT={-:-/ absolute / metric / decimal}
; #@! TF.CreationDate,2026-05-15T19:55:33-05:00
; #@! TF.GenerationSoftware,Kicad,Pcbnew,7.0.11+dfsg-1build4
; #@! TF.FileFunction,NonPlated,1,2,NPTH
FMAT,2
METRIC
; #@! TA.AperFunction,NonPlated,NPTH,ComponentDrill
T1C0.650
; #@! TA.AperFunction,NonPlated,NPTH,ComponentDrill
T2C3.200
%
G90
G05
T1
X73.85Y-33.835
X73.85Y-39.615
X73.85Y-44.685
X73.85Y-50.465
X73.85Y-55.535
X73.85Y-61.315
X73.85Y-66.435
X73.85Y-72.215
X73.85Y-83.835
X73.85Y-89.615
X73.85Y-94.685
X73.85Y-100.465
X73.85Y-105.535
X73.85Y-111.315
X73.85Y-116.435
X73.85Y-122.215
T2
X76.78Y-78.825
X76.78Y-128.825
X86.94Y-78.825
X86.94Y-128.825
X97.1Y-78.825
X97.1Y-128.825
X107.26Y-78.825
X107.26Y-128.825
X117.42Y-78.825
X117.42Y-128.825
X127.58Y-78.825
X127.58Y-128.825
X137.74Y-78.825
X137.74Y-128.825
X147.9Y-78.825
X147.9Y-128.825
X158.06Y-78.825
X158.06Y-128.825
M30
