M48
; DRILL file {KiCad 7.0.11+dfsg-1build4} date vie 15 may 2026 19:55:33
; FORMAT={-:-/ absolute / metric / decimal}
; #@! TF.CreationDate,2026-05-15T19:55:33-05:00
; #@! TF.GenerationSoftware,Kicad,Pcbnew,7.0.11+dfsg-1build4
; #@! TF.FileFunction,Plated,1,2,PTH
FMAT,2
METRIC
; #@! TA.AperFunction,Plated,PTH,ViaDrill
T1C0.300
; #@! TA.AperFunction,Plated,PTH,ComponentDrill
T2C0.600
; #@! TA.AperFunction,Plated,PTH,ComponentDrill
T3C1.000
; #@! TA.AperFunction,Plated,PTH,ComponentDrill
T4C1.200
%
G90
G05
T1
X76.318Y-63.97
X76.318Y-113.97
X76.428Y-41.655
X76.428Y-53.462
X76.428Y-91.655
X76.428Y-103.462
X76.533Y-32.134
X76.533Y-82.134
X76.579Y-66.848
X76.579Y-116.848
X77.47Y-71.755
X77.47Y-73.175
X77.47Y-121.755
X77.47Y-123.175
X78.873Y-68.58
X78.873Y-118.58
X80.645Y-68.576
X80.645Y-118.576
X81.17Y-33.916
X81.17Y-62.584
X81.17Y-83.916
X81.17Y-112.584
X81.173Y-65.512
X81.173Y-115.512
X84.455Y-56.515
X84.455Y-106.515
X84.928Y-39.383
X84.928Y-89.382
X85.113Y-69.712
X85.113Y-119.712
X85.204Y-33.551
X85.204Y-83.551
X85.611Y-45.444
X85.611Y-95.444
X86.469Y-44.798
X86.469Y-94.798
X86.624Y-33.525
X86.624Y-83.525
X86.995Y-56.515
X86.995Y-106.515
X89.824Y-47.725
X89.824Y-58.676
X89.824Y-97.725
X89.824Y-108.676
X89.856Y-33.431
X89.856Y-83.431
X90.094Y-51.316
X90.094Y-101.316
X90.805Y-56.319
X90.805Y-106.319
X90.817Y-52.561
X90.817Y-102.561
X92.71Y-38.1
X92.71Y-88.1
X97.155Y-53.975
X97.155Y-103.975
X97.79Y-49.53
X97.79Y-69.85
X97.79Y-99.53
X97.79Y-119.85
X99.06Y-33.02
X99.06Y-34.29
X99.06Y-57.785
X99.06Y-83.02
X99.06Y-84.29
X99.06Y-107.785
X99.695Y-46.355
X99.695Y-96.355
X100.965Y-38.015
X100.965Y-40.005
X100.965Y-43.18
X100.965Y-88.015
X100.965Y-90.005
X100.965Y-93.18
X102.87Y-35.803
X102.87Y-48.26
X102.87Y-85.803
X102.87Y-98.26
X105.959Y-65.183
X105.959Y-115.183
X113.03Y-72.39
X113.03Y-122.39
X135.492Y-65.405
X135.492Y-70.334
X135.492Y-115.405
X135.492Y-120.334
X139.164Y-70.425
X139.164Y-120.425
X139.94Y-52.455
X139.94Y-102.455
X142.223Y-71.738
X142.223Y-121.738
X142.343Y-70.481
X142.343Y-120.481
X142.972Y-67.269
X142.972Y-117.269
X145.415Y-51.435
X145.415Y-101.435
X147.32Y-71.12
X147.32Y-121.12
X148.59Y-69.215
X148.59Y-119.215
T3
X104.765Y-34.675
X104.765Y-37.215
X104.765Y-39.755
X104.765Y-42.295
X104.765Y-44.835
X104.765Y-47.375
X104.765Y-49.915
X104.765Y-52.455
X104.765Y-84.675
X104.765Y-87.215
X104.765Y-89.755
X104.765Y-92.295
X104.765Y-94.835
X104.765Y-97.375
X104.765Y-99.915
X104.765Y-102.455
X120.005Y-34.675
X120.005Y-37.215
X120.005Y-39.755
X120.005Y-42.295
X120.005Y-44.835
X120.005Y-47.375
X120.005Y-49.915
X120.005Y-52.455
X120.005Y-84.675
X120.005Y-87.215
X120.005Y-89.755
X120.005Y-92.295
X120.005Y-94.835
X120.005Y-97.375
X120.005Y-99.915
X120.005Y-102.455
X131.445Y-38.197
X131.445Y-88.197
X133.985Y-38.197
X133.985Y-88.197
X136.525Y-38.197
X136.525Y-88.197
X139.065Y-38.197
X139.065Y-88.197
T4
X151.47Y-35.775
X151.47Y-39.275
X151.47Y-42.775
X151.47Y-46.275
X151.47Y-49.775
X151.47Y-53.275
X151.47Y-56.775
X151.47Y-85.775
X151.47Y-89.275
X151.47Y-92.775
X151.47Y-96.275
X151.47Y-99.775
X151.47Y-103.275
X151.47Y-106.775
X162.9Y-34.025
X162.9Y-37.525
X162.9Y-41.025
X162.9Y-44.525
X162.9Y-48.025
X162.9Y-51.525
X162.9Y-55.025
X162.9Y-84.025
X162.9Y-87.525
X162.9Y-91.025
X162.9Y-94.525
X162.9Y-98.025
X162.9Y-101.525
X162.9Y-105.025
T2
G00X70.5Y-32.405
M15
G01X69.9Y-32.405
M16
G05
G00X70.5Y-41.045
M15
G01X69.9Y-41.045
M16
G05
G00X70.5Y-43.255
M15
G01X69.9Y-43.255
M16
G05
G00X70.5Y-51.895
M15
G01X69.9Y-51.895
M16
G05
G00X70.5Y-54.105
M15
G01X69.9Y-54.105
M16
G05
G00X70.5Y-62.745
M15
G01X69.9Y-62.745
M16
G05
G00X70.5Y-65.005
M15
G01X69.9Y-65.005
M16
G05
G00X70.5Y-73.645
M15
G01X69.9Y-73.645
M16
G05
G00X70.5Y-82.405
M15
G01X69.9Y-82.405
M16
G05
G00X70.5Y-91.045
M15
G01X69.9Y-91.045
M16
G05
G00X70.5Y-93.255
M15
G01X69.9Y-93.255
M16
G05
G00X70.5Y-101.895
M15
G01X69.9Y-101.895
M16
G05
G00X70.5Y-104.105
M15
G01X69.9Y-104.105
M16
G05
G00X70.5Y-112.745
M15
G01X69.9Y-112.745
M16
G05
G00X70.5Y-115.005
M15
G01X69.9Y-115.005
M16
G05
G00X70.5Y-123.645
M15
G01X69.9Y-123.645
M16
G05
G00X74.93Y-32.405
M15
G01X73.83Y-32.405
M16
G05
G00X74.93Y-41.045
M15
G01X73.83Y-41.045
M16
G05
G00X74.93Y-43.255
M15
G01X73.83Y-43.255
M16
G05
G00X74.93Y-51.895
M15
G01X73.83Y-51.895
M16
G05
G00X74.93Y-54.105
M15
G01X73.83Y-54.105
M16
G05
G00X74.93Y-62.745
M15
G01X73.83Y-62.745
M16
G05
G00X74.93Y-65.005
M15
G01X73.83Y-65.005
M16
G05
G00X74.93Y-73.645
M15
G01X73.83Y-73.645
M16
G05
G00X74.93Y-82.405
M15
G01X73.83Y-82.405
M16
G05
G00X74.93Y-91.045
M15
G01X73.83Y-91.045
M16
G05
G00X74.93Y-93.255
M15
G01X73.83Y-93.255
M16
G05
G00X74.93Y-101.895
M15
G01X73.83Y-101.895
M16
G05
G00X74.93Y-104.105
M15
G01X73.83Y-104.105
M16
G05
G00X74.93Y-112.745
M15
G01X73.83Y-112.745
M16
G05
G00X74.93Y-115.005
M15
G01X73.83Y-115.005
M16
G05
G00X74.93Y-123.645
M15
G01X73.83Y-123.645
M16
G05
M30
