%TF.GenerationSoftware,KiCad,Pcbnew,7.0.11+dfsg-1build4*%
%TF.CreationDate,2026-02-25T12:51:42-05:00*%
%TF.ProjectId,,58585858-5858-4585-9858-585858585858,rev?*%
%TF.SameCoordinates,Original*%
%TF.FileFunction,Soldermask,Bot*%
%TF.FilePolarity,Negative*%
%FSLAX46Y46*%
G04 Gerber Fmt 4.6, Leading zero omitted, Abs format (unit mm)*
G04 Created by KiCad (PCBNEW 7.0.11+dfsg-1build4) date 2026-02-25 12:51:42*
%MOMM*%
%LPD*%
G01*
G04 APERTURE LIST*
%ADD10C,3.200000*%
%ADD11R,2.400000X2.400000*%
%ADD12C,2.400000*%
%ADD13R,1.600000X1.600000*%
%ADD14O,1.600000X1.600000*%
%ADD15R,1.700000X1.700000*%
%ADD16C,1.700000*%
%TA.AperFunction,Profile*%
%ADD17C,0.050000*%
%TD*%
G04 APERTURE END LIST*
D10*
%TO.C,MH03*%
X133676000Y-128952000D03*
%TD*%
%TO.C,MH06*%
X103196000Y-128952000D03*
%TD*%
%TO.C,MH05*%
X113356000Y-128952000D03*
%TD*%
%TO.C,MH09*%
X72716000Y-128952000D03*
%TD*%
%TO.C,MH08*%
X82876000Y-128952000D03*
%TD*%
D11*
%TO.C,J1*%
X97409000Y-85941000D03*
D12*
X99159000Y-97371000D03*
X93909000Y-85941000D03*
X95659000Y-97371000D03*
X90409000Y-85941000D03*
X92159000Y-97371000D03*
X86909000Y-85941000D03*
X88659000Y-97371000D03*
X83409000Y-85941000D03*
X85159000Y-97371000D03*
X79909000Y-85941000D03*
X81659000Y-97371000D03*
X76409000Y-85941000D03*
X78159000Y-97371000D03*
X72909000Y-85941000D03*
X74659000Y-97371000D03*
X69409000Y-85941000D03*
X71159000Y-97371000D03*
X65909000Y-85941000D03*
X67659000Y-97371000D03*
%TD*%
D10*
%TO.C,MH04*%
X123516000Y-128952000D03*
%TD*%
D13*
%TO.C,U4*%
X66421000Y-118707000D03*
D14*
X68961000Y-118707000D03*
X71501000Y-118707000D03*
X74041000Y-118707000D03*
X76581000Y-118707000D03*
X79121000Y-118707000D03*
X81661000Y-118707000D03*
X84201000Y-118707000D03*
X84201000Y-103467000D03*
X81661000Y-103467000D03*
X79121000Y-103467000D03*
X76581000Y-103467000D03*
X74041000Y-103467000D03*
X71501000Y-103467000D03*
X68961000Y-103467000D03*
X66421000Y-103467000D03*
%TD*%
D11*
%TO.C,J2*%
X158496000Y-118582000D03*
D12*
X147066000Y-120332000D03*
X158496000Y-115082000D03*
X147066000Y-116832000D03*
X158496000Y-111582000D03*
X147066000Y-113332000D03*
X158496000Y-108082000D03*
X147066000Y-109832000D03*
X158496000Y-104582000D03*
X147066000Y-106332000D03*
X158496000Y-101082000D03*
X147066000Y-102832000D03*
X158496000Y-97582000D03*
X147066000Y-99332000D03*
%TD*%
D10*
%TO.C,MH07*%
X93036000Y-128952000D03*
%TD*%
%TO.C,MH01*%
X153996000Y-128952000D03*
%TD*%
D15*
%TO.C,U5*%
X114681000Y-98356500D03*
D16*
X117221000Y-98356500D03*
X119761000Y-98356500D03*
X122301000Y-98356500D03*
%TD*%
D10*
%TO.C,MH02*%
X143836000Y-128952000D03*
%TD*%
%TO.C,MH03*%
X133676000Y-128952000D03*
%TD*%
%TO.C,MH06*%
X103196000Y-128952000D03*
%TD*%
%TO.C,MH05*%
X113356000Y-128952000D03*
%TD*%
%TO.C,MH09*%
X72716000Y-128952000D03*
%TD*%
%TO.C,MH08*%
X82876000Y-128952000D03*
%TD*%
D11*
%TO.C,J1*%
X97409000Y-85941000D03*
D12*
X99159000Y-97371000D03*
X93909000Y-85941000D03*
X95659000Y-97371000D03*
X90409000Y-85941000D03*
X92159000Y-97371000D03*
X86909000Y-85941000D03*
X88659000Y-97371000D03*
X83409000Y-85941000D03*
X85159000Y-97371000D03*
X79909000Y-85941000D03*
X81659000Y-97371000D03*
X76409000Y-85941000D03*
X78159000Y-97371000D03*
X72909000Y-85941000D03*
X74659000Y-97371000D03*
X69409000Y-85941000D03*
X71159000Y-97371000D03*
X65909000Y-85941000D03*
X67659000Y-97371000D03*
%TD*%
D10*
%TO.C,MH04*%
X123516000Y-128952000D03*
%TD*%
D13*
%TO.C,U4*%
X66421000Y-118707000D03*
D14*
X68961000Y-118707000D03*
X71501000Y-118707000D03*
X74041000Y-118707000D03*
X76581000Y-118707000D03*
X79121000Y-118707000D03*
X81661000Y-118707000D03*
X84201000Y-118707000D03*
X84201000Y-103467000D03*
X81661000Y-103467000D03*
X79121000Y-103467000D03*
X76581000Y-103467000D03*
X74041000Y-103467000D03*
X71501000Y-103467000D03*
X68961000Y-103467000D03*
X66421000Y-103467000D03*
%TD*%
D11*
%TO.C,J2*%
X158496000Y-118582000D03*
D12*
X147066000Y-120332000D03*
X158496000Y-115082000D03*
X147066000Y-116832000D03*
X158496000Y-111582000D03*
X147066000Y-113332000D03*
X158496000Y-108082000D03*
X147066000Y-109832000D03*
X158496000Y-104582000D03*
X147066000Y-106332000D03*
X158496000Y-101082000D03*
X147066000Y-102832000D03*
X158496000Y-97582000D03*
X147066000Y-99332000D03*
%TD*%
D10*
%TO.C,MH07*%
X93036000Y-128952000D03*
%TD*%
%TO.C,MH01*%
X153996000Y-128952000D03*
%TD*%
D15*
%TO.C,U5*%
X114681000Y-98356500D03*
D16*
X117221000Y-98356500D03*
X119761000Y-98356500D03*
X122301000Y-98356500D03*
%TD*%
D10*
%TO.C,MH02*%
X143836000Y-128952000D03*
%TD*%
%TO.C,MH03*%
X133676000Y-128952000D03*
%TD*%
%TO.C,MH06*%
X103196000Y-128952000D03*
%TD*%
%TO.C,MH05*%
X113356000Y-128952000D03*
%TD*%
%TO.C,MH09*%
X72716000Y-128952000D03*
%TD*%
%TO.C,MH08*%
X82876000Y-128952000D03*
%TD*%
D11*
%TO.C,J1*%
X97409000Y-85941000D03*
D12*
X99159000Y-97371000D03*
X93909000Y-85941000D03*
X95659000Y-97371000D03*
X90409000Y-85941000D03*
X92159000Y-97371000D03*
X86909000Y-85941000D03*
X88659000Y-97371000D03*
X83409000Y-85941000D03*
X85159000Y-97371000D03*
X79909000Y-85941000D03*
X81659000Y-97371000D03*
X76409000Y-85941000D03*
X78159000Y-97371000D03*
X72909000Y-85941000D03*
X74659000Y-97371000D03*
X69409000Y-85941000D03*
X71159000Y-97371000D03*
X65909000Y-85941000D03*
X67659000Y-97371000D03*
%TD*%
D10*
%TO.C,MH04*%
X123516000Y-128952000D03*
%TD*%
D13*
%TO.C,U4*%
X66421000Y-118707000D03*
D14*
X68961000Y-118707000D03*
X71501000Y-118707000D03*
X74041000Y-118707000D03*
X76581000Y-118707000D03*
X79121000Y-118707000D03*
X81661000Y-118707000D03*
X84201000Y-118707000D03*
X84201000Y-103467000D03*
X81661000Y-103467000D03*
X79121000Y-103467000D03*
X76581000Y-103467000D03*
X74041000Y-103467000D03*
X71501000Y-103467000D03*
X68961000Y-103467000D03*
X66421000Y-103467000D03*
%TD*%
D11*
%TO.C,J2*%
X158496000Y-118582000D03*
D12*
X147066000Y-120332000D03*
X158496000Y-115082000D03*
X147066000Y-116832000D03*
X158496000Y-111582000D03*
X147066000Y-113332000D03*
X158496000Y-108082000D03*
X147066000Y-109832000D03*
X158496000Y-104582000D03*
X147066000Y-106332000D03*
X158496000Y-101082000D03*
X147066000Y-102832000D03*
X158496000Y-97582000D03*
X147066000Y-99332000D03*
%TD*%
D10*
%TO.C,MH07*%
X93036000Y-128952000D03*
%TD*%
%TO.C,MH01*%
X153996000Y-128952000D03*
%TD*%
D15*
%TO.C,U5*%
X114681000Y-98356500D03*
D16*
X117221000Y-98356500D03*
X119761000Y-98356500D03*
X122301000Y-98356500D03*
%TD*%
D10*
%TO.C,MH02*%
X143836000Y-128952000D03*
%TD*%
%TO.C,MH03*%
X133676000Y-128952000D03*
%TD*%
%TO.C,MH06*%
X103196000Y-128952000D03*
%TD*%
%TO.C,MH05*%
X113356000Y-128952000D03*
%TD*%
%TO.C,MH09*%
X72716000Y-128952000D03*
%TD*%
%TO.C,MH08*%
X82876000Y-128952000D03*
%TD*%
D11*
%TO.C,J1*%
X97409000Y-85941000D03*
D12*
X99159000Y-97371000D03*
X93909000Y-85941000D03*
X95659000Y-97371000D03*
X90409000Y-85941000D03*
X92159000Y-97371000D03*
X86909000Y-85941000D03*
X88659000Y-97371000D03*
X83409000Y-85941000D03*
X85159000Y-97371000D03*
X79909000Y-85941000D03*
X81659000Y-97371000D03*
X76409000Y-85941000D03*
X78159000Y-97371000D03*
X72909000Y-85941000D03*
X74659000Y-97371000D03*
X69409000Y-85941000D03*
X71159000Y-97371000D03*
X65909000Y-85941000D03*
X67659000Y-97371000D03*
%TD*%
D10*
%TO.C,MH04*%
X123516000Y-128952000D03*
%TD*%
D13*
%TO.C,U4*%
X66421000Y-118707000D03*
D14*
X68961000Y-118707000D03*
X71501000Y-118707000D03*
X74041000Y-118707000D03*
X76581000Y-118707000D03*
X79121000Y-118707000D03*
X81661000Y-118707000D03*
X84201000Y-118707000D03*
X84201000Y-103467000D03*
X81661000Y-103467000D03*
X79121000Y-103467000D03*
X76581000Y-103467000D03*
X74041000Y-103467000D03*
X71501000Y-103467000D03*
X68961000Y-103467000D03*
X66421000Y-103467000D03*
%TD*%
D11*
%TO.C,J2*%
X158496000Y-118582000D03*
D12*
X147066000Y-120332000D03*
X158496000Y-115082000D03*
X147066000Y-116832000D03*
X158496000Y-111582000D03*
X147066000Y-113332000D03*
X158496000Y-108082000D03*
X147066000Y-109832000D03*
X158496000Y-104582000D03*
X147066000Y-106332000D03*
X158496000Y-101082000D03*
X147066000Y-102832000D03*
X158496000Y-97582000D03*
X147066000Y-99332000D03*
%TD*%
D10*
%TO.C,MH07*%
X93036000Y-128952000D03*
%TD*%
%TO.C,MH01*%
X153996000Y-128952000D03*
%TD*%
D15*
%TO.C,U5*%
X114681000Y-98356500D03*
D16*
X117221000Y-98356500D03*
X119761000Y-98356500D03*
X122301000Y-98356500D03*
%TD*%
D10*
%TO.C,MH02*%
X143836000Y-128952000D03*
%TD*%
%TO.C,MH03*%
X133676000Y-128952000D03*
%TD*%
%TO.C,MH06*%
X103196000Y-128952000D03*
%TD*%
%TO.C,MH05*%
X113356000Y-128952000D03*
%TD*%
%TO.C,MH09*%
X72716000Y-128952000D03*
%TD*%
%TO.C,MH08*%
X82876000Y-128952000D03*
%TD*%
D11*
%TO.C,J1*%
X97409000Y-85941000D03*
D12*
X99159000Y-97371000D03*
X93909000Y-85941000D03*
X95659000Y-97371000D03*
X90409000Y-85941000D03*
X92159000Y-97371000D03*
X86909000Y-85941000D03*
X88659000Y-97371000D03*
X83409000Y-85941000D03*
X85159000Y-97371000D03*
X79909000Y-85941000D03*
X81659000Y-97371000D03*
X76409000Y-85941000D03*
X78159000Y-97371000D03*
X72909000Y-85941000D03*
X74659000Y-97371000D03*
X69409000Y-85941000D03*
X71159000Y-97371000D03*
X65909000Y-85941000D03*
X67659000Y-97371000D03*
%TD*%
D10*
%TO.C,MH04*%
X123516000Y-128952000D03*
%TD*%
D13*
%TO.C,U4*%
X66421000Y-118707000D03*
D14*
X68961000Y-118707000D03*
X71501000Y-118707000D03*
X74041000Y-118707000D03*
X76581000Y-118707000D03*
X79121000Y-118707000D03*
X81661000Y-118707000D03*
X84201000Y-118707000D03*
X84201000Y-103467000D03*
X81661000Y-103467000D03*
X79121000Y-103467000D03*
X76581000Y-103467000D03*
X74041000Y-103467000D03*
X71501000Y-103467000D03*
X68961000Y-103467000D03*
X66421000Y-103467000D03*
%TD*%
D11*
%TO.C,J2*%
X158496000Y-118582000D03*
D12*
X147066000Y-120332000D03*
X158496000Y-115082000D03*
X147066000Y-116832000D03*
X158496000Y-111582000D03*
X147066000Y-113332000D03*
X158496000Y-108082000D03*
X147066000Y-109832000D03*
X158496000Y-104582000D03*
X147066000Y-106332000D03*
X158496000Y-101082000D03*
X147066000Y-102832000D03*
X158496000Y-97582000D03*
X147066000Y-99332000D03*
%TD*%
D10*
%TO.C,MH07*%
X93036000Y-128952000D03*
%TD*%
%TO.C,MH01*%
X153996000Y-128952000D03*
%TD*%
D15*
%TO.C,U5*%
X114681000Y-98356500D03*
D16*
X117221000Y-98356500D03*
X119761000Y-98356500D03*
X122301000Y-98356500D03*
%TD*%
D10*
%TO.C,MH02*%
X143836000Y-128952000D03*
%TD*%
%TO.C,MH03*%
X133676000Y-78952000D03*
%TD*%
%TO.C,MH06*%
X103196000Y-78952000D03*
%TD*%
%TO.C,MH05*%
X113356000Y-78952000D03*
%TD*%
%TO.C,MH09*%
X72716000Y-78952000D03*
%TD*%
%TO.C,MH08*%
X82876000Y-78952000D03*
%TD*%
D11*
%TO.C,J1*%
X97409000Y-35941000D03*
D12*
X99159000Y-47371000D03*
X93909000Y-35941000D03*
X95659000Y-47371000D03*
X90409000Y-35941000D03*
X92159000Y-47371000D03*
X86909000Y-35941000D03*
X88659000Y-47371000D03*
X83409000Y-35941000D03*
X85159000Y-47371000D03*
X79909000Y-35941000D03*
X81659000Y-47371000D03*
X76409000Y-35941000D03*
X78159000Y-47371000D03*
X72909000Y-35941000D03*
X74659000Y-47371000D03*
X69409000Y-35941000D03*
X71159000Y-47371000D03*
X65909000Y-35941000D03*
X67659000Y-47371000D03*
%TD*%
D10*
%TO.C,MH04*%
X123516000Y-78952000D03*
%TD*%
D13*
%TO.C,U4*%
X66421000Y-68707000D03*
D14*
X68961000Y-68707000D03*
X71501000Y-68707000D03*
X74041000Y-68707000D03*
X76581000Y-68707000D03*
X79121000Y-68707000D03*
X81661000Y-68707000D03*
X84201000Y-68707000D03*
X84201000Y-53467000D03*
X81661000Y-53467000D03*
X79121000Y-53467000D03*
X76581000Y-53467000D03*
X74041000Y-53467000D03*
X71501000Y-53467000D03*
X68961000Y-53467000D03*
X66421000Y-53467000D03*
%TD*%
D11*
%TO.C,J2*%
X158496000Y-68582000D03*
D12*
X147066000Y-70332000D03*
X158496000Y-65082000D03*
X147066000Y-66832000D03*
X158496000Y-61582000D03*
X147066000Y-63332000D03*
X158496000Y-58082000D03*
X147066000Y-59832000D03*
X158496000Y-54582000D03*
X147066000Y-56332000D03*
X158496000Y-51082000D03*
X147066000Y-52832000D03*
X158496000Y-47582000D03*
X147066000Y-49332000D03*
%TD*%
D10*
%TO.C,MH07*%
X93036000Y-78952000D03*
%TD*%
%TO.C,MH01*%
X153996000Y-78952000D03*
%TD*%
D15*
%TO.C,U5*%
X114681000Y-48356500D03*
D16*
X117221000Y-48356500D03*
X119761000Y-48356500D03*
X122301000Y-48356500D03*
%TD*%
D10*
%TO.C,MH02*%
X143836000Y-78952000D03*
%TD*%
%TO.C,MH03*%
X133676000Y-78952000D03*
%TD*%
%TO.C,MH06*%
X103196000Y-78952000D03*
%TD*%
%TO.C,MH05*%
X113356000Y-78952000D03*
%TD*%
%TO.C,MH09*%
X72716000Y-78952000D03*
%TD*%
%TO.C,MH08*%
X82876000Y-78952000D03*
%TD*%
D11*
%TO.C,J1*%
X97409000Y-35941000D03*
D12*
X99159000Y-47371000D03*
X93909000Y-35941000D03*
X95659000Y-47371000D03*
X90409000Y-35941000D03*
X92159000Y-47371000D03*
X86909000Y-35941000D03*
X88659000Y-47371000D03*
X83409000Y-35941000D03*
X85159000Y-47371000D03*
X79909000Y-35941000D03*
X81659000Y-47371000D03*
X76409000Y-35941000D03*
X78159000Y-47371000D03*
X72909000Y-35941000D03*
X74659000Y-47371000D03*
X69409000Y-35941000D03*
X71159000Y-47371000D03*
X65909000Y-35941000D03*
X67659000Y-47371000D03*
%TD*%
D10*
%TO.C,MH04*%
X123516000Y-78952000D03*
%TD*%
D13*
%TO.C,U4*%
X66421000Y-68707000D03*
D14*
X68961000Y-68707000D03*
X71501000Y-68707000D03*
X74041000Y-68707000D03*
X76581000Y-68707000D03*
X79121000Y-68707000D03*
X81661000Y-68707000D03*
X84201000Y-68707000D03*
X84201000Y-53467000D03*
X81661000Y-53467000D03*
X79121000Y-53467000D03*
X76581000Y-53467000D03*
X74041000Y-53467000D03*
X71501000Y-53467000D03*
X68961000Y-53467000D03*
X66421000Y-53467000D03*
%TD*%
D11*
%TO.C,J2*%
X158496000Y-68582000D03*
D12*
X147066000Y-70332000D03*
X158496000Y-65082000D03*
X147066000Y-66832000D03*
X158496000Y-61582000D03*
X147066000Y-63332000D03*
X158496000Y-58082000D03*
X147066000Y-59832000D03*
X158496000Y-54582000D03*
X147066000Y-56332000D03*
X158496000Y-51082000D03*
X147066000Y-52832000D03*
X158496000Y-47582000D03*
X147066000Y-49332000D03*
%TD*%
D10*
%TO.C,MH07*%
X93036000Y-78952000D03*
%TD*%
%TO.C,MH01*%
X153996000Y-78952000D03*
%TD*%
D15*
%TO.C,U5*%
X114681000Y-48356500D03*
D16*
X117221000Y-48356500D03*
X119761000Y-48356500D03*
X122301000Y-48356500D03*
%TD*%
D10*
%TO.C,MH02*%
X143836000Y-78952000D03*
%TD*%
%TO.C,MH03*%
X133676000Y-78952000D03*
%TD*%
%TO.C,MH06*%
X103196000Y-78952000D03*
%TD*%
%TO.C,MH05*%
X113356000Y-78952000D03*
%TD*%
%TO.C,MH09*%
X72716000Y-78952000D03*
%TD*%
%TO.C,MH08*%
X82876000Y-78952000D03*
%TD*%
D11*
%TO.C,J1*%
X97409000Y-35941000D03*
D12*
X99159000Y-47371000D03*
X93909000Y-35941000D03*
X95659000Y-47371000D03*
X90409000Y-35941000D03*
X92159000Y-47371000D03*
X86909000Y-35941000D03*
X88659000Y-47371000D03*
X83409000Y-35941000D03*
X85159000Y-47371000D03*
X79909000Y-35941000D03*
X81659000Y-47371000D03*
X76409000Y-35941000D03*
X78159000Y-47371000D03*
X72909000Y-35941000D03*
X74659000Y-47371000D03*
X69409000Y-35941000D03*
X71159000Y-47371000D03*
X65909000Y-35941000D03*
X67659000Y-47371000D03*
%TD*%
D10*
%TO.C,MH04*%
X123516000Y-78952000D03*
%TD*%
D13*
%TO.C,U4*%
X66421000Y-68707000D03*
D14*
X68961000Y-68707000D03*
X71501000Y-68707000D03*
X74041000Y-68707000D03*
X76581000Y-68707000D03*
X79121000Y-68707000D03*
X81661000Y-68707000D03*
X84201000Y-68707000D03*
X84201000Y-53467000D03*
X81661000Y-53467000D03*
X79121000Y-53467000D03*
X76581000Y-53467000D03*
X74041000Y-53467000D03*
X71501000Y-53467000D03*
X68961000Y-53467000D03*
X66421000Y-53467000D03*
%TD*%
D11*
%TO.C,J2*%
X158496000Y-68582000D03*
D12*
X147066000Y-70332000D03*
X158496000Y-65082000D03*
X147066000Y-66832000D03*
X158496000Y-61582000D03*
X147066000Y-63332000D03*
X158496000Y-58082000D03*
X147066000Y-59832000D03*
X158496000Y-54582000D03*
X147066000Y-56332000D03*
X158496000Y-51082000D03*
X147066000Y-52832000D03*
X158496000Y-47582000D03*
X147066000Y-49332000D03*
%TD*%
D10*
%TO.C,MH07*%
X93036000Y-78952000D03*
%TD*%
%TO.C,MH01*%
X153996000Y-78952000D03*
%TD*%
D15*
%TO.C,U5*%
X114681000Y-48356500D03*
D16*
X117221000Y-48356500D03*
X119761000Y-48356500D03*
X122301000Y-48356500D03*
%TD*%
D10*
%TO.C,MH02*%
X143836000Y-78952000D03*
%TD*%
%TO.C,MH03*%
X133676000Y-78952000D03*
%TD*%
%TO.C,MH06*%
X103196000Y-78952000D03*
%TD*%
%TO.C,MH05*%
X113356000Y-78952000D03*
%TD*%
%TO.C,MH09*%
X72716000Y-78952000D03*
%TD*%
%TO.C,MH08*%
X82876000Y-78952000D03*
%TD*%
D11*
%TO.C,J1*%
X97409000Y-35941000D03*
D12*
X99159000Y-47371000D03*
X93909000Y-35941000D03*
X95659000Y-47371000D03*
X90409000Y-35941000D03*
X92159000Y-47371000D03*
X86909000Y-35941000D03*
X88659000Y-47371000D03*
X83409000Y-35941000D03*
X85159000Y-47371000D03*
X79909000Y-35941000D03*
X81659000Y-47371000D03*
X76409000Y-35941000D03*
X78159000Y-47371000D03*
X72909000Y-35941000D03*
X74659000Y-47371000D03*
X69409000Y-35941000D03*
X71159000Y-47371000D03*
X65909000Y-35941000D03*
X67659000Y-47371000D03*
%TD*%
D10*
%TO.C,MH04*%
X123516000Y-78952000D03*
%TD*%
D13*
%TO.C,U4*%
X66421000Y-68707000D03*
D14*
X68961000Y-68707000D03*
X71501000Y-68707000D03*
X74041000Y-68707000D03*
X76581000Y-68707000D03*
X79121000Y-68707000D03*
X81661000Y-68707000D03*
X84201000Y-68707000D03*
X84201000Y-53467000D03*
X81661000Y-53467000D03*
X79121000Y-53467000D03*
X76581000Y-53467000D03*
X74041000Y-53467000D03*
X71501000Y-53467000D03*
X68961000Y-53467000D03*
X66421000Y-53467000D03*
%TD*%
D11*
%TO.C,J2*%
X158496000Y-68582000D03*
D12*
X147066000Y-70332000D03*
X158496000Y-65082000D03*
X147066000Y-66832000D03*
X158496000Y-61582000D03*
X147066000Y-63332000D03*
X158496000Y-58082000D03*
X147066000Y-59832000D03*
X158496000Y-54582000D03*
X147066000Y-56332000D03*
X158496000Y-51082000D03*
X147066000Y-52832000D03*
X158496000Y-47582000D03*
X147066000Y-49332000D03*
%TD*%
D10*
%TO.C,MH07*%
X93036000Y-78952000D03*
%TD*%
%TO.C,MH01*%
X153996000Y-78952000D03*
%TD*%
D15*
%TO.C,U5*%
X114681000Y-48356500D03*
D16*
X117221000Y-48356500D03*
X119761000Y-48356500D03*
X122301000Y-48356500D03*
%TD*%
D10*
%TO.C,MH02*%
X143836000Y-78952000D03*
%TD*%
%TO.C,MH05*%
X113356000Y-78952000D03*
%TD*%
%TO.C,MH01*%
X153996000Y-78952000D03*
%TD*%
%TO.C,MH03*%
X133676000Y-78952000D03*
%TD*%
D13*
%TO.C,U4*%
X66421000Y-68707000D03*
D14*
X68961000Y-68707000D03*
X71501000Y-68707000D03*
X74041000Y-68707000D03*
X76581000Y-68707000D03*
X79121000Y-68707000D03*
X81661000Y-68707000D03*
X84201000Y-68707000D03*
X84201000Y-53467000D03*
X81661000Y-53467000D03*
X79121000Y-53467000D03*
X76581000Y-53467000D03*
X74041000Y-53467000D03*
X71501000Y-53467000D03*
X68961000Y-53467000D03*
X66421000Y-53467000D03*
%TD*%
D10*
%TO.C,MH09*%
X72716000Y-78952000D03*
%TD*%
%TO.C,MH02*%
X143836000Y-78952000D03*
%TD*%
%TO.C,MH07*%
X93036000Y-78952000D03*
%TD*%
%TO.C,MH08*%
X82876000Y-78952000D03*
%TD*%
D15*
%TO.C,U5*%
X114681000Y-48356500D03*
D16*
X117221000Y-48356500D03*
X119761000Y-48356500D03*
X122301000Y-48356500D03*
%TD*%
D10*
%TO.C,MH06*%
X103196000Y-78952000D03*
%TD*%
D11*
%TO.C,J2*%
X158496000Y-68582000D03*
D12*
X147066000Y-70332000D03*
X158496000Y-65082000D03*
X147066000Y-66832000D03*
X158496000Y-61582000D03*
X147066000Y-63332000D03*
X158496000Y-58082000D03*
X147066000Y-59832000D03*
X158496000Y-54582000D03*
X147066000Y-56332000D03*
X158496000Y-51082000D03*
X147066000Y-52832000D03*
X158496000Y-47582000D03*
X147066000Y-49332000D03*
%TD*%
D10*
%TO.C,MH04*%
X123516000Y-78952000D03*
%TD*%
D11*
%TO.C,J1*%
X97409000Y-35941000D03*
D12*
X99159000Y-47371000D03*
X93909000Y-35941000D03*
X95659000Y-47371000D03*
X90409000Y-35941000D03*
X92159000Y-47371000D03*
X86909000Y-35941000D03*
X88659000Y-47371000D03*
X83409000Y-35941000D03*
X85159000Y-47371000D03*
X79909000Y-35941000D03*
X81659000Y-47371000D03*
X76409000Y-35941000D03*
X78159000Y-47371000D03*
X72909000Y-35941000D03*
X74659000Y-47371000D03*
X69409000Y-35941000D03*
X71159000Y-47371000D03*
X65909000Y-35941000D03*
X67659000Y-47371000D03*
%TD*%
D17*
X62996000Y-81452000D02*
X162996000Y-81452000D01*
X162996000Y-131452000D01*
X62996000Y-131452000D01*
X62996000Y-81452000D01*
X62996000Y-81452000D02*
X162996000Y-81452000D01*
X162996000Y-131452000D01*
X62996000Y-131452000D01*
X62996000Y-81452000D01*
X62996000Y-81452000D02*
X162996000Y-81452000D01*
X162996000Y-131452000D01*
X62996000Y-131452000D01*
X62996000Y-81452000D01*
X62996000Y-81452000D02*
X162996000Y-81452000D01*
X162996000Y-131452000D01*
X62996000Y-131452000D01*
X62996000Y-81452000D01*
X62996000Y-81452000D02*
X162996000Y-81452000D01*
X162996000Y-131452000D01*
X62996000Y-131452000D01*
X62996000Y-81452000D01*
X62996000Y-31452000D02*
X162996000Y-31452000D01*
X162996000Y-81452000D01*
X62996000Y-81452000D01*
X62996000Y-31452000D01*
X62996000Y-31452000D02*
X162996000Y-31452000D01*
X162996000Y-81452000D01*
X62996000Y-81452000D01*
X62996000Y-31452000D01*
X62996000Y-31452000D02*
X162996000Y-31452000D01*
X162996000Y-81452000D01*
X62996000Y-81452000D01*
X62996000Y-31452000D01*
X62996000Y-31452000D02*
X162996000Y-31452000D01*
X162996000Y-81452000D01*
X62996000Y-81452000D01*
X62996000Y-31452000D01*
X62996000Y-31452000D02*
X162996000Y-31452000D01*
X162996000Y-81452000D01*
X62996000Y-81452000D01*
X62996000Y-31452000D01*
M02*
