%TF.GenerationSoftware,KiCad,Pcbnew,7.0.11+dfsg-1build4*%
%TF.CreationDate,2026-03-19T18:54:58-05:00*%
%TF.ProjectId,,58585858-5858-4585-9858-585858585858,rev?*%
%TF.SameCoordinates,Original*%
%TF.FileFunction,Soldermask,Bot*%
%TF.FilePolarity,Negative*%
%FSLAX46Y46*%
G04 Gerber Fmt 4.6, Leading zero omitted, Abs format (unit mm)*
G04 Created by KiCad (PCBNEW 7.0.11+dfsg-1build4) date 2026-03-19 18:54:58*
%MOMM*%
%LPD*%
G01*
G04 APERTURE LIST*
%ADD10C,3.200000*%
%ADD11R,2.400000X2.400000*%
%ADD12C,2.400000*%
%ADD13R,1.600000X1.600000*%
%ADD14O,1.600000X1.600000*%
%ADD15R,1.700000X1.700000*%
%ADD16C,1.700000*%
%TA.AperFunction,Profile*%
%ADD17C,0.050000*%
%TD*%
G04 APERTURE END LIST*
D10*
%TO.C,MH08*%
X62175000Y-121205000D03*
%TD*%
D11*
%TO.C,J2*%
X137795000Y-110835000D03*
D12*
X126365000Y-112585000D03*
X137795000Y-107335000D03*
X126365000Y-109085000D03*
X137795000Y-103835000D03*
X126365000Y-105585000D03*
X137795000Y-100335000D03*
X126365000Y-102085000D03*
X137795000Y-96835000D03*
X126365000Y-98585000D03*
X137795000Y-93335000D03*
X126365000Y-95085000D03*
X137795000Y-89835000D03*
X126365000Y-91585000D03*
%TD*%
D10*
%TO.C,MH01*%
X133295000Y-121205000D03*
%TD*%
%TO.C,MH03*%
X112975000Y-121205000D03*
%TD*%
%TO.C,MH07*%
X72335000Y-121205000D03*
%TD*%
D11*
%TO.C,J1*%
X76708000Y-78194000D03*
D12*
X78458000Y-89624000D03*
X73208000Y-78194000D03*
X74958000Y-89624000D03*
X69708000Y-78194000D03*
X71458000Y-89624000D03*
X66208000Y-78194000D03*
X67958000Y-89624000D03*
X62708000Y-78194000D03*
X64458000Y-89624000D03*
X59208000Y-78194000D03*
X60958000Y-89624000D03*
X55708000Y-78194000D03*
X57458000Y-89624000D03*
X52208000Y-78194000D03*
X53958000Y-89624000D03*
X48708000Y-78194000D03*
X50458000Y-89624000D03*
X45208000Y-78194000D03*
X46958000Y-89624000D03*
%TD*%
D10*
%TO.C,MH04*%
X102815000Y-121205000D03*
%TD*%
D13*
%TO.C,U4*%
X45720000Y-110960000D03*
D14*
X48260000Y-110960000D03*
X50800000Y-110960000D03*
X53340000Y-110960000D03*
X55880000Y-110960000D03*
X58420000Y-110960000D03*
X60960000Y-110960000D03*
X63500000Y-110960000D03*
X63500000Y-95720000D03*
X60960000Y-95720000D03*
X58420000Y-95720000D03*
X55880000Y-95720000D03*
X53340000Y-95720000D03*
X50800000Y-95720000D03*
X48260000Y-95720000D03*
X45720000Y-95720000D03*
%TD*%
D15*
%TO.C,U5*%
X93980000Y-90609500D03*
D16*
X96520000Y-90609500D03*
X99060000Y-90609500D03*
X101600000Y-90609500D03*
%TD*%
D10*
%TO.C,MH06*%
X82495000Y-121205000D03*
%TD*%
%TO.C,MH09*%
X52015000Y-121205000D03*
%TD*%
%TO.C,MH02*%
X123135000Y-121205000D03*
%TD*%
%TO.C,MH05*%
X92655000Y-121205000D03*
%TD*%
%TO.C,MH08*%
X62175000Y-121205000D03*
%TD*%
D11*
%TO.C,J2*%
X137795000Y-110835000D03*
D12*
X126365000Y-112585000D03*
X137795000Y-107335000D03*
X126365000Y-109085000D03*
X137795000Y-103835000D03*
X126365000Y-105585000D03*
X137795000Y-100335000D03*
X126365000Y-102085000D03*
X137795000Y-96835000D03*
X126365000Y-98585000D03*
X137795000Y-93335000D03*
X126365000Y-95085000D03*
X137795000Y-89835000D03*
X126365000Y-91585000D03*
%TD*%
D10*
%TO.C,MH01*%
X133295000Y-121205000D03*
%TD*%
%TO.C,MH03*%
X112975000Y-121205000D03*
%TD*%
%TO.C,MH07*%
X72335000Y-121205000D03*
%TD*%
D11*
%TO.C,J1*%
X76708000Y-78194000D03*
D12*
X78458000Y-89624000D03*
X73208000Y-78194000D03*
X74958000Y-89624000D03*
X69708000Y-78194000D03*
X71458000Y-89624000D03*
X66208000Y-78194000D03*
X67958000Y-89624000D03*
X62708000Y-78194000D03*
X64458000Y-89624000D03*
X59208000Y-78194000D03*
X60958000Y-89624000D03*
X55708000Y-78194000D03*
X57458000Y-89624000D03*
X52208000Y-78194000D03*
X53958000Y-89624000D03*
X48708000Y-78194000D03*
X50458000Y-89624000D03*
X45208000Y-78194000D03*
X46958000Y-89624000D03*
%TD*%
D10*
%TO.C,MH04*%
X102815000Y-121205000D03*
%TD*%
D13*
%TO.C,U4*%
X45720000Y-110960000D03*
D14*
X48260000Y-110960000D03*
X50800000Y-110960000D03*
X53340000Y-110960000D03*
X55880000Y-110960000D03*
X58420000Y-110960000D03*
X60960000Y-110960000D03*
X63500000Y-110960000D03*
X63500000Y-95720000D03*
X60960000Y-95720000D03*
X58420000Y-95720000D03*
X55880000Y-95720000D03*
X53340000Y-95720000D03*
X50800000Y-95720000D03*
X48260000Y-95720000D03*
X45720000Y-95720000D03*
%TD*%
D15*
%TO.C,U5*%
X93980000Y-90609500D03*
D16*
X96520000Y-90609500D03*
X99060000Y-90609500D03*
X101600000Y-90609500D03*
%TD*%
D10*
%TO.C,MH06*%
X82495000Y-121205000D03*
%TD*%
%TO.C,MH09*%
X52015000Y-121205000D03*
%TD*%
%TO.C,MH02*%
X123135000Y-121205000D03*
%TD*%
%TO.C,MH05*%
X92655000Y-121205000D03*
%TD*%
%TO.C,MH08*%
X62175000Y-121205000D03*
%TD*%
D11*
%TO.C,J2*%
X137795000Y-110835000D03*
D12*
X126365000Y-112585000D03*
X137795000Y-107335000D03*
X126365000Y-109085000D03*
X137795000Y-103835000D03*
X126365000Y-105585000D03*
X137795000Y-100335000D03*
X126365000Y-102085000D03*
X137795000Y-96835000D03*
X126365000Y-98585000D03*
X137795000Y-93335000D03*
X126365000Y-95085000D03*
X137795000Y-89835000D03*
X126365000Y-91585000D03*
%TD*%
D10*
%TO.C,MH01*%
X133295000Y-121205000D03*
%TD*%
%TO.C,MH03*%
X112975000Y-121205000D03*
%TD*%
%TO.C,MH07*%
X72335000Y-121205000D03*
%TD*%
D11*
%TO.C,J1*%
X76708000Y-78194000D03*
D12*
X78458000Y-89624000D03*
X73208000Y-78194000D03*
X74958000Y-89624000D03*
X69708000Y-78194000D03*
X71458000Y-89624000D03*
X66208000Y-78194000D03*
X67958000Y-89624000D03*
X62708000Y-78194000D03*
X64458000Y-89624000D03*
X59208000Y-78194000D03*
X60958000Y-89624000D03*
X55708000Y-78194000D03*
X57458000Y-89624000D03*
X52208000Y-78194000D03*
X53958000Y-89624000D03*
X48708000Y-78194000D03*
X50458000Y-89624000D03*
X45208000Y-78194000D03*
X46958000Y-89624000D03*
%TD*%
D10*
%TO.C,MH04*%
X102815000Y-121205000D03*
%TD*%
D13*
%TO.C,U4*%
X45720000Y-110960000D03*
D14*
X48260000Y-110960000D03*
X50800000Y-110960000D03*
X53340000Y-110960000D03*
X55880000Y-110960000D03*
X58420000Y-110960000D03*
X60960000Y-110960000D03*
X63500000Y-110960000D03*
X63500000Y-95720000D03*
X60960000Y-95720000D03*
X58420000Y-95720000D03*
X55880000Y-95720000D03*
X53340000Y-95720000D03*
X50800000Y-95720000D03*
X48260000Y-95720000D03*
X45720000Y-95720000D03*
%TD*%
D15*
%TO.C,U5*%
X93980000Y-90609500D03*
D16*
X96520000Y-90609500D03*
X99060000Y-90609500D03*
X101600000Y-90609500D03*
%TD*%
D10*
%TO.C,MH06*%
X82495000Y-121205000D03*
%TD*%
%TO.C,MH09*%
X52015000Y-121205000D03*
%TD*%
%TO.C,MH02*%
X123135000Y-121205000D03*
%TD*%
%TO.C,MH05*%
X92655000Y-121205000D03*
%TD*%
%TO.C,MH08*%
X62175000Y-121205000D03*
%TD*%
D11*
%TO.C,J2*%
X137795000Y-110835000D03*
D12*
X126365000Y-112585000D03*
X137795000Y-107335000D03*
X126365000Y-109085000D03*
X137795000Y-103835000D03*
X126365000Y-105585000D03*
X137795000Y-100335000D03*
X126365000Y-102085000D03*
X137795000Y-96835000D03*
X126365000Y-98585000D03*
X137795000Y-93335000D03*
X126365000Y-95085000D03*
X137795000Y-89835000D03*
X126365000Y-91585000D03*
%TD*%
D10*
%TO.C,MH01*%
X133295000Y-121205000D03*
%TD*%
%TO.C,MH03*%
X112975000Y-121205000D03*
%TD*%
%TO.C,MH07*%
X72335000Y-121205000D03*
%TD*%
D11*
%TO.C,J1*%
X76708000Y-78194000D03*
D12*
X78458000Y-89624000D03*
X73208000Y-78194000D03*
X74958000Y-89624000D03*
X69708000Y-78194000D03*
X71458000Y-89624000D03*
X66208000Y-78194000D03*
X67958000Y-89624000D03*
X62708000Y-78194000D03*
X64458000Y-89624000D03*
X59208000Y-78194000D03*
X60958000Y-89624000D03*
X55708000Y-78194000D03*
X57458000Y-89624000D03*
X52208000Y-78194000D03*
X53958000Y-89624000D03*
X48708000Y-78194000D03*
X50458000Y-89624000D03*
X45208000Y-78194000D03*
X46958000Y-89624000D03*
%TD*%
D10*
%TO.C,MH04*%
X102815000Y-121205000D03*
%TD*%
D13*
%TO.C,U4*%
X45720000Y-110960000D03*
D14*
X48260000Y-110960000D03*
X50800000Y-110960000D03*
X53340000Y-110960000D03*
X55880000Y-110960000D03*
X58420000Y-110960000D03*
X60960000Y-110960000D03*
X63500000Y-110960000D03*
X63500000Y-95720000D03*
X60960000Y-95720000D03*
X58420000Y-95720000D03*
X55880000Y-95720000D03*
X53340000Y-95720000D03*
X50800000Y-95720000D03*
X48260000Y-95720000D03*
X45720000Y-95720000D03*
%TD*%
D15*
%TO.C,U5*%
X93980000Y-90609500D03*
D16*
X96520000Y-90609500D03*
X99060000Y-90609500D03*
X101600000Y-90609500D03*
%TD*%
D10*
%TO.C,MH06*%
X82495000Y-121205000D03*
%TD*%
%TO.C,MH09*%
X52015000Y-121205000D03*
%TD*%
%TO.C,MH02*%
X123135000Y-121205000D03*
%TD*%
%TO.C,MH05*%
X92655000Y-121205000D03*
%TD*%
%TO.C,MH08*%
X62175000Y-121205000D03*
%TD*%
D11*
%TO.C,J2*%
X137795000Y-110835000D03*
D12*
X126365000Y-112585000D03*
X137795000Y-107335000D03*
X126365000Y-109085000D03*
X137795000Y-103835000D03*
X126365000Y-105585000D03*
X137795000Y-100335000D03*
X126365000Y-102085000D03*
X137795000Y-96835000D03*
X126365000Y-98585000D03*
X137795000Y-93335000D03*
X126365000Y-95085000D03*
X137795000Y-89835000D03*
X126365000Y-91585000D03*
%TD*%
D10*
%TO.C,MH01*%
X133295000Y-121205000D03*
%TD*%
%TO.C,MH03*%
X112975000Y-121205000D03*
%TD*%
%TO.C,MH07*%
X72335000Y-121205000D03*
%TD*%
D11*
%TO.C,J1*%
X76708000Y-78194000D03*
D12*
X78458000Y-89624000D03*
X73208000Y-78194000D03*
X74958000Y-89624000D03*
X69708000Y-78194000D03*
X71458000Y-89624000D03*
X66208000Y-78194000D03*
X67958000Y-89624000D03*
X62708000Y-78194000D03*
X64458000Y-89624000D03*
X59208000Y-78194000D03*
X60958000Y-89624000D03*
X55708000Y-78194000D03*
X57458000Y-89624000D03*
X52208000Y-78194000D03*
X53958000Y-89624000D03*
X48708000Y-78194000D03*
X50458000Y-89624000D03*
X45208000Y-78194000D03*
X46958000Y-89624000D03*
%TD*%
D10*
%TO.C,MH04*%
X102815000Y-121205000D03*
%TD*%
D13*
%TO.C,U4*%
X45720000Y-110960000D03*
D14*
X48260000Y-110960000D03*
X50800000Y-110960000D03*
X53340000Y-110960000D03*
X55880000Y-110960000D03*
X58420000Y-110960000D03*
X60960000Y-110960000D03*
X63500000Y-110960000D03*
X63500000Y-95720000D03*
X60960000Y-95720000D03*
X58420000Y-95720000D03*
X55880000Y-95720000D03*
X53340000Y-95720000D03*
X50800000Y-95720000D03*
X48260000Y-95720000D03*
X45720000Y-95720000D03*
%TD*%
D15*
%TO.C,U5*%
X93980000Y-90609500D03*
D16*
X96520000Y-90609500D03*
X99060000Y-90609500D03*
X101600000Y-90609500D03*
%TD*%
D10*
%TO.C,MH06*%
X82495000Y-121205000D03*
%TD*%
%TO.C,MH09*%
X52015000Y-121205000D03*
%TD*%
%TO.C,MH02*%
X123135000Y-121205000D03*
%TD*%
%TO.C,MH05*%
X92655000Y-121205000D03*
%TD*%
%TO.C,MH08*%
X62175000Y-71205000D03*
%TD*%
D11*
%TO.C,J2*%
X137795000Y-60835000D03*
D12*
X126365000Y-62585000D03*
X137795000Y-57335000D03*
X126365000Y-59085000D03*
X137795000Y-53835000D03*
X126365000Y-55585000D03*
X137795000Y-50335000D03*
X126365000Y-52085000D03*
X137795000Y-46835000D03*
X126365000Y-48585000D03*
X137795000Y-43335000D03*
X126365000Y-45085000D03*
X137795000Y-39835000D03*
X126365000Y-41585000D03*
%TD*%
D10*
%TO.C,MH01*%
X133295000Y-71205000D03*
%TD*%
%TO.C,MH03*%
X112975000Y-71205000D03*
%TD*%
%TO.C,MH07*%
X72335000Y-71205000D03*
%TD*%
D11*
%TO.C,J1*%
X76708000Y-28194000D03*
D12*
X78458000Y-39624000D03*
X73208000Y-28194000D03*
X74958000Y-39624000D03*
X69708000Y-28194000D03*
X71458000Y-39624000D03*
X66208000Y-28194000D03*
X67958000Y-39624000D03*
X62708000Y-28194000D03*
X64458000Y-39624000D03*
X59208000Y-28194000D03*
X60958000Y-39624000D03*
X55708000Y-28194000D03*
X57458000Y-39624000D03*
X52208000Y-28194000D03*
X53958000Y-39624000D03*
X48708000Y-28194000D03*
X50458000Y-39624000D03*
X45208000Y-28194000D03*
X46958000Y-39624000D03*
%TD*%
D10*
%TO.C,MH04*%
X102815000Y-71205000D03*
%TD*%
D13*
%TO.C,U4*%
X45720000Y-60960000D03*
D14*
X48260000Y-60960000D03*
X50800000Y-60960000D03*
X53340000Y-60960000D03*
X55880000Y-60960000D03*
X58420000Y-60960000D03*
X60960000Y-60960000D03*
X63500000Y-60960000D03*
X63500000Y-45720000D03*
X60960000Y-45720000D03*
X58420000Y-45720000D03*
X55880000Y-45720000D03*
X53340000Y-45720000D03*
X50800000Y-45720000D03*
X48260000Y-45720000D03*
X45720000Y-45720000D03*
%TD*%
D15*
%TO.C,U5*%
X93980000Y-40609500D03*
D16*
X96520000Y-40609500D03*
X99060000Y-40609500D03*
X101600000Y-40609500D03*
%TD*%
D10*
%TO.C,MH06*%
X82495000Y-71205000D03*
%TD*%
%TO.C,MH09*%
X52015000Y-71205000D03*
%TD*%
%TO.C,MH02*%
X123135000Y-71205000D03*
%TD*%
%TO.C,MH05*%
X92655000Y-71205000D03*
%TD*%
%TO.C,MH08*%
X62175000Y-71205000D03*
%TD*%
D11*
%TO.C,J2*%
X137795000Y-60835000D03*
D12*
X126365000Y-62585000D03*
X137795000Y-57335000D03*
X126365000Y-59085000D03*
X137795000Y-53835000D03*
X126365000Y-55585000D03*
X137795000Y-50335000D03*
X126365000Y-52085000D03*
X137795000Y-46835000D03*
X126365000Y-48585000D03*
X137795000Y-43335000D03*
X126365000Y-45085000D03*
X137795000Y-39835000D03*
X126365000Y-41585000D03*
%TD*%
D10*
%TO.C,MH01*%
X133295000Y-71205000D03*
%TD*%
%TO.C,MH03*%
X112975000Y-71205000D03*
%TD*%
%TO.C,MH07*%
X72335000Y-71205000D03*
%TD*%
D11*
%TO.C,J1*%
X76708000Y-28194000D03*
D12*
X78458000Y-39624000D03*
X73208000Y-28194000D03*
X74958000Y-39624000D03*
X69708000Y-28194000D03*
X71458000Y-39624000D03*
X66208000Y-28194000D03*
X67958000Y-39624000D03*
X62708000Y-28194000D03*
X64458000Y-39624000D03*
X59208000Y-28194000D03*
X60958000Y-39624000D03*
X55708000Y-28194000D03*
X57458000Y-39624000D03*
X52208000Y-28194000D03*
X53958000Y-39624000D03*
X48708000Y-28194000D03*
X50458000Y-39624000D03*
X45208000Y-28194000D03*
X46958000Y-39624000D03*
%TD*%
D10*
%TO.C,MH04*%
X102815000Y-71205000D03*
%TD*%
D13*
%TO.C,U4*%
X45720000Y-60960000D03*
D14*
X48260000Y-60960000D03*
X50800000Y-60960000D03*
X53340000Y-60960000D03*
X55880000Y-60960000D03*
X58420000Y-60960000D03*
X60960000Y-60960000D03*
X63500000Y-60960000D03*
X63500000Y-45720000D03*
X60960000Y-45720000D03*
X58420000Y-45720000D03*
X55880000Y-45720000D03*
X53340000Y-45720000D03*
X50800000Y-45720000D03*
X48260000Y-45720000D03*
X45720000Y-45720000D03*
%TD*%
D15*
%TO.C,U5*%
X93980000Y-40609500D03*
D16*
X96520000Y-40609500D03*
X99060000Y-40609500D03*
X101600000Y-40609500D03*
%TD*%
D10*
%TO.C,MH06*%
X82495000Y-71205000D03*
%TD*%
%TO.C,MH09*%
X52015000Y-71205000D03*
%TD*%
%TO.C,MH02*%
X123135000Y-71205000D03*
%TD*%
%TO.C,MH05*%
X92655000Y-71205000D03*
%TD*%
%TO.C,MH08*%
X62175000Y-71205000D03*
%TD*%
D11*
%TO.C,J2*%
X137795000Y-60835000D03*
D12*
X126365000Y-62585000D03*
X137795000Y-57335000D03*
X126365000Y-59085000D03*
X137795000Y-53835000D03*
X126365000Y-55585000D03*
X137795000Y-50335000D03*
X126365000Y-52085000D03*
X137795000Y-46835000D03*
X126365000Y-48585000D03*
X137795000Y-43335000D03*
X126365000Y-45085000D03*
X137795000Y-39835000D03*
X126365000Y-41585000D03*
%TD*%
D10*
%TO.C,MH01*%
X133295000Y-71205000D03*
%TD*%
%TO.C,MH03*%
X112975000Y-71205000D03*
%TD*%
%TO.C,MH07*%
X72335000Y-71205000D03*
%TD*%
D11*
%TO.C,J1*%
X76708000Y-28194000D03*
D12*
X78458000Y-39624000D03*
X73208000Y-28194000D03*
X74958000Y-39624000D03*
X69708000Y-28194000D03*
X71458000Y-39624000D03*
X66208000Y-28194000D03*
X67958000Y-39624000D03*
X62708000Y-28194000D03*
X64458000Y-39624000D03*
X59208000Y-28194000D03*
X60958000Y-39624000D03*
X55708000Y-28194000D03*
X57458000Y-39624000D03*
X52208000Y-28194000D03*
X53958000Y-39624000D03*
X48708000Y-28194000D03*
X50458000Y-39624000D03*
X45208000Y-28194000D03*
X46958000Y-39624000D03*
%TD*%
D10*
%TO.C,MH04*%
X102815000Y-71205000D03*
%TD*%
D13*
%TO.C,U4*%
X45720000Y-60960000D03*
D14*
X48260000Y-60960000D03*
X50800000Y-60960000D03*
X53340000Y-60960000D03*
X55880000Y-60960000D03*
X58420000Y-60960000D03*
X60960000Y-60960000D03*
X63500000Y-60960000D03*
X63500000Y-45720000D03*
X60960000Y-45720000D03*
X58420000Y-45720000D03*
X55880000Y-45720000D03*
X53340000Y-45720000D03*
X50800000Y-45720000D03*
X48260000Y-45720000D03*
X45720000Y-45720000D03*
%TD*%
D15*
%TO.C,U5*%
X93980000Y-40609500D03*
D16*
X96520000Y-40609500D03*
X99060000Y-40609500D03*
X101600000Y-40609500D03*
%TD*%
D10*
%TO.C,MH06*%
X82495000Y-71205000D03*
%TD*%
%TO.C,MH09*%
X52015000Y-71205000D03*
%TD*%
%TO.C,MH02*%
X123135000Y-71205000D03*
%TD*%
%TO.C,MH05*%
X92655000Y-71205000D03*
%TD*%
%TO.C,MH08*%
X62175000Y-71205000D03*
%TD*%
D11*
%TO.C,J2*%
X137795000Y-60835000D03*
D12*
X126365000Y-62585000D03*
X137795000Y-57335000D03*
X126365000Y-59085000D03*
X137795000Y-53835000D03*
X126365000Y-55585000D03*
X137795000Y-50335000D03*
X126365000Y-52085000D03*
X137795000Y-46835000D03*
X126365000Y-48585000D03*
X137795000Y-43335000D03*
X126365000Y-45085000D03*
X137795000Y-39835000D03*
X126365000Y-41585000D03*
%TD*%
D10*
%TO.C,MH01*%
X133295000Y-71205000D03*
%TD*%
%TO.C,MH03*%
X112975000Y-71205000D03*
%TD*%
%TO.C,MH07*%
X72335000Y-71205000D03*
%TD*%
D11*
%TO.C,J1*%
X76708000Y-28194000D03*
D12*
X78458000Y-39624000D03*
X73208000Y-28194000D03*
X74958000Y-39624000D03*
X69708000Y-28194000D03*
X71458000Y-39624000D03*
X66208000Y-28194000D03*
X67958000Y-39624000D03*
X62708000Y-28194000D03*
X64458000Y-39624000D03*
X59208000Y-28194000D03*
X60958000Y-39624000D03*
X55708000Y-28194000D03*
X57458000Y-39624000D03*
X52208000Y-28194000D03*
X53958000Y-39624000D03*
X48708000Y-28194000D03*
X50458000Y-39624000D03*
X45208000Y-28194000D03*
X46958000Y-39624000D03*
%TD*%
D10*
%TO.C,MH04*%
X102815000Y-71205000D03*
%TD*%
D13*
%TO.C,U4*%
X45720000Y-60960000D03*
D14*
X48260000Y-60960000D03*
X50800000Y-60960000D03*
X53340000Y-60960000D03*
X55880000Y-60960000D03*
X58420000Y-60960000D03*
X60960000Y-60960000D03*
X63500000Y-60960000D03*
X63500000Y-45720000D03*
X60960000Y-45720000D03*
X58420000Y-45720000D03*
X55880000Y-45720000D03*
X53340000Y-45720000D03*
X50800000Y-45720000D03*
X48260000Y-45720000D03*
X45720000Y-45720000D03*
%TD*%
D15*
%TO.C,U5*%
X93980000Y-40609500D03*
D16*
X96520000Y-40609500D03*
X99060000Y-40609500D03*
X101600000Y-40609500D03*
%TD*%
D10*
%TO.C,MH06*%
X82495000Y-71205000D03*
%TD*%
%TO.C,MH09*%
X52015000Y-71205000D03*
%TD*%
%TO.C,MH02*%
X123135000Y-71205000D03*
%TD*%
%TO.C,MH05*%
X92655000Y-71205000D03*
%TD*%
%TO.C,MH05*%
X92655000Y-71205000D03*
%TD*%
%TO.C,MH01*%
X133295000Y-71205000D03*
%TD*%
%TO.C,MH03*%
X112975000Y-71205000D03*
%TD*%
D13*
%TO.C,U4*%
X45720000Y-60960000D03*
D14*
X48260000Y-60960000D03*
X50800000Y-60960000D03*
X53340000Y-60960000D03*
X55880000Y-60960000D03*
X58420000Y-60960000D03*
X60960000Y-60960000D03*
X63500000Y-60960000D03*
X63500000Y-45720000D03*
X60960000Y-45720000D03*
X58420000Y-45720000D03*
X55880000Y-45720000D03*
X53340000Y-45720000D03*
X50800000Y-45720000D03*
X48260000Y-45720000D03*
X45720000Y-45720000D03*
%TD*%
D10*
%TO.C,MH09*%
X52015000Y-71205000D03*
%TD*%
%TO.C,MH02*%
X123135000Y-71205000D03*
%TD*%
%TO.C,MH07*%
X72335000Y-71205000D03*
%TD*%
%TO.C,MH08*%
X62175000Y-71205000D03*
%TD*%
D15*
%TO.C,U5*%
X93980000Y-40609500D03*
D16*
X96520000Y-40609500D03*
X99060000Y-40609500D03*
X101600000Y-40609500D03*
%TD*%
D10*
%TO.C,MH06*%
X82495000Y-71205000D03*
%TD*%
D11*
%TO.C,J2*%
X137795000Y-60835000D03*
D12*
X126365000Y-62585000D03*
X137795000Y-57335000D03*
X126365000Y-59085000D03*
X137795000Y-53835000D03*
X126365000Y-55585000D03*
X137795000Y-50335000D03*
X126365000Y-52085000D03*
X137795000Y-46835000D03*
X126365000Y-48585000D03*
X137795000Y-43335000D03*
X126365000Y-45085000D03*
X137795000Y-39835000D03*
X126365000Y-41585000D03*
%TD*%
D10*
%TO.C,MH04*%
X102815000Y-71205000D03*
%TD*%
D11*
%TO.C,J1*%
X76708000Y-28194000D03*
D12*
X78458000Y-39624000D03*
X73208000Y-28194000D03*
X74958000Y-39624000D03*
X69708000Y-28194000D03*
X71458000Y-39624000D03*
X66208000Y-28194000D03*
X67958000Y-39624000D03*
X62708000Y-28194000D03*
X64458000Y-39624000D03*
X59208000Y-28194000D03*
X60958000Y-39624000D03*
X55708000Y-28194000D03*
X57458000Y-39624000D03*
X52208000Y-28194000D03*
X53958000Y-39624000D03*
X48708000Y-28194000D03*
X50458000Y-39624000D03*
X45208000Y-28194000D03*
X46958000Y-39624000D03*
%TD*%
D17*
X42295000Y-73705000D02*
X142295000Y-73705000D01*
X142295000Y-123705000D01*
X42295000Y-123705000D01*
X42295000Y-73705000D01*
X42295000Y-73705000D02*
X142295000Y-73705000D01*
X142295000Y-123705000D01*
X42295000Y-123705000D01*
X42295000Y-73705000D01*
X42295000Y-73705000D02*
X142295000Y-73705000D01*
X142295000Y-123705000D01*
X42295000Y-123705000D01*
X42295000Y-73705000D01*
X42295000Y-73705000D02*
X142295000Y-73705000D01*
X142295000Y-123705000D01*
X42295000Y-123705000D01*
X42295000Y-73705000D01*
X42295000Y-73705000D02*
X142295000Y-73705000D01*
X142295000Y-123705000D01*
X42295000Y-123705000D01*
X42295000Y-73705000D01*
X42295000Y-23705000D02*
X142295000Y-23705000D01*
X142295000Y-73705000D01*
X42295000Y-73705000D01*
X42295000Y-23705000D01*
X42295000Y-23705000D02*
X142295000Y-23705000D01*
X142295000Y-73705000D01*
X42295000Y-73705000D01*
X42295000Y-23705000D01*
X42295000Y-23705000D02*
X142295000Y-23705000D01*
X142295000Y-73705000D01*
X42295000Y-73705000D01*
X42295000Y-23705000D01*
X42295000Y-23705000D02*
X142295000Y-23705000D01*
X142295000Y-73705000D01*
X42295000Y-73705000D01*
X42295000Y-23705000D01*
X42295000Y-23705000D02*
X142295000Y-23705000D01*
X142295000Y-73705000D01*
X42295000Y-73705000D01*
X42295000Y-23705000D01*
M02*
