%TF.GenerationSoftware,KiCad,Pcbnew,7.0.11+dfsg-1build4*%
%TF.CreationDate,2026-05-21T22:27:22-05:00*%
%TF.ProjectId,,58585858-5858-4585-9858-585858585858,rev?*%
%TF.SameCoordinates,Original*%
%TF.FileFunction,Soldermask,Bot*%
%TF.FilePolarity,Negative*%
%FSLAX46Y46*%
G04 Gerber Fmt 4.6, Leading zero omitted, Abs format (unit mm)*
G04 Created by KiCad (PCBNEW 7.0.11+dfsg-1build4) date 2026-05-21 22:27:22*
%MOMM*%
%LPD*%
G01*
G04 APERTURE LIST*
%ADD10R,2.400000X2.400000*%
%ADD11C,2.400000*%
%ADD12R,1.600000X1.600000*%
%ADD13O,1.600000X1.600000*%
%ADD14C,3.200000*%
%ADD15R,1.700000X1.700000*%
%ADD16C,1.700000*%
%TA.AperFunction,Profile*%
%ADD17C,0.050000*%
%TD*%
G04 APERTURE END LIST*
D10*
%TO.C,J1*%
X102133400Y-80861000D03*
D11*
X103883400Y-92291000D03*
X98633400Y-80861000D03*
X100383400Y-92291000D03*
X95133400Y-80861000D03*
X96883400Y-92291000D03*
X91633400Y-80861000D03*
X93383400Y-92291000D03*
X88133400Y-80861000D03*
X89883400Y-92291000D03*
X84633400Y-80861000D03*
X86383400Y-92291000D03*
X81133400Y-80861000D03*
X82883400Y-92291000D03*
X77633400Y-80861000D03*
X79383400Y-92291000D03*
X74133400Y-80861000D03*
X75883400Y-92291000D03*
X70633400Y-80861000D03*
X72383400Y-92291000D03*
%TD*%
D12*
%TO.C,U4*%
X71145400Y-113627000D03*
D13*
X73685400Y-113627000D03*
X76225400Y-113627000D03*
X78765400Y-113627000D03*
X81305400Y-113627000D03*
X83845400Y-113627000D03*
X86385400Y-113627000D03*
X88925400Y-113627000D03*
X88925400Y-98387000D03*
X86385400Y-98387000D03*
X83845400Y-98387000D03*
X81305400Y-98387000D03*
X78765400Y-98387000D03*
X76225400Y-98387000D03*
X73685400Y-98387000D03*
X71145400Y-98387000D03*
%TD*%
D10*
%TO.C,J2*%
X163220400Y-113502000D03*
D11*
X151790400Y-115252000D03*
X163220400Y-110002000D03*
X151790400Y-111752000D03*
X163220400Y-106502000D03*
X151790400Y-108252000D03*
X163220400Y-103002000D03*
X151790400Y-104752000D03*
X163220400Y-99502000D03*
X151790400Y-101252000D03*
X163220400Y-96002000D03*
X151790400Y-97752000D03*
X163220400Y-92502000D03*
X151790400Y-94252000D03*
%TD*%
D14*
%TO.C,MH06*%
X107920400Y-123872000D03*
%TD*%
%TO.C,MH04*%
X128240400Y-123872000D03*
%TD*%
%TO.C,MH02*%
X148560400Y-123872000D03*
%TD*%
%TO.C,MH05*%
X118080400Y-123872000D03*
%TD*%
%TO.C,MH01*%
X158720400Y-123872000D03*
%TD*%
%TO.C,MH09*%
X77440400Y-123872000D03*
%TD*%
D15*
%TO.C,U5*%
X119405400Y-93276500D03*
D16*
X121945400Y-93276500D03*
X124485400Y-93276500D03*
X127025400Y-93276500D03*
%TD*%
D14*
%TO.C,MH03*%
X138400400Y-123872000D03*
%TD*%
%TO.C,MH07*%
X97760400Y-123872000D03*
%TD*%
%TO.C,MH08*%
X87600400Y-123872000D03*
%TD*%
%TO.C,MH05*%
X118080400Y-73872000D03*
%TD*%
%TO.C,MH01*%
X158720400Y-73872000D03*
%TD*%
%TO.C,MH03*%
X138400400Y-73872000D03*
%TD*%
D12*
%TO.C,U4*%
X71145400Y-63627000D03*
D13*
X73685400Y-63627000D03*
X76225400Y-63627000D03*
X78765400Y-63627000D03*
X81305400Y-63627000D03*
X83845400Y-63627000D03*
X86385400Y-63627000D03*
X88925400Y-63627000D03*
X88925400Y-48387000D03*
X86385400Y-48387000D03*
X83845400Y-48387000D03*
X81305400Y-48387000D03*
X78765400Y-48387000D03*
X76225400Y-48387000D03*
X73685400Y-48387000D03*
X71145400Y-48387000D03*
%TD*%
D14*
%TO.C,MH09*%
X77440400Y-73872000D03*
%TD*%
%TO.C,MH02*%
X148560400Y-73872000D03*
%TD*%
%TO.C,MH07*%
X97760400Y-73872000D03*
%TD*%
%TO.C,MH08*%
X87600400Y-73872000D03*
%TD*%
D15*
%TO.C,U5*%
X119405400Y-43276500D03*
D16*
X121945400Y-43276500D03*
X124485400Y-43276500D03*
X127025400Y-43276500D03*
%TD*%
D14*
%TO.C,MH06*%
X107920400Y-73872000D03*
%TD*%
D10*
%TO.C,J2*%
X163220400Y-63502000D03*
D11*
X151790400Y-65252000D03*
X163220400Y-60002000D03*
X151790400Y-61752000D03*
X163220400Y-56502000D03*
X151790400Y-58252000D03*
X163220400Y-53002000D03*
X151790400Y-54752000D03*
X163220400Y-49502000D03*
X151790400Y-51252000D03*
X163220400Y-46002000D03*
X151790400Y-47752000D03*
X163220400Y-42502000D03*
X151790400Y-44252000D03*
%TD*%
D14*
%TO.C,MH04*%
X128240400Y-73872000D03*
%TD*%
D10*
%TO.C,J1*%
X102133400Y-30861000D03*
D11*
X103883400Y-42291000D03*
X98633400Y-30861000D03*
X100383400Y-42291000D03*
X95133400Y-30861000D03*
X96883400Y-42291000D03*
X91633400Y-30861000D03*
X93383400Y-42291000D03*
X88133400Y-30861000D03*
X89883400Y-42291000D03*
X84633400Y-30861000D03*
X86383400Y-42291000D03*
X81133400Y-30861000D03*
X82883400Y-42291000D03*
X77633400Y-30861000D03*
X79383400Y-42291000D03*
X74133400Y-30861000D03*
X75883400Y-42291000D03*
X70633400Y-30861000D03*
X72383400Y-42291000D03*
%TD*%
D17*
X67720400Y-76372000D02*
X167720400Y-76372000D01*
X167720400Y-126372000D01*
X67720400Y-126372000D01*
X67720400Y-76372000D01*
X67720400Y-26372000D02*
X167720400Y-26372000D01*
X167720400Y-76372000D01*
X67720400Y-76372000D01*
X67720400Y-26372000D01*
M02*
