%TF.GenerationSoftware,KiCad,Pcbnew,7.0.11+dfsg-1build4*%
%TF.CreationDate,2026-03-19T18:54:58-05:00*%
%TF.ProjectId,,58585858-5858-4585-9858-585858585858,rev?*%
%TF.SameCoordinates,Original*%
%TF.FileFunction,Profile,NP*%
%FSLAX46Y46*%
G04 Gerber Fmt 4.6, Leading zero omitted, Abs format (unit mm)*
G04 Created by KiCad (PCBNEW 7.0.11+dfsg-1build4) date 2026-03-19 18:54:58*
%MOMM*%
%LPD*%
G01*
G04 APERTURE LIST*
%TA.AperFunction,Profile*%
%ADD10C,0.050000*%
%TD*%
G04 APERTURE END LIST*
D10*
X42295000Y-73705000D02*
X142295000Y-73705000D01*
X142295000Y-123705000D01*
X42295000Y-123705000D01*
X42295000Y-73705000D01*
X42295000Y-73705000D02*
X142295000Y-73705000D01*
X142295000Y-123705000D01*
X42295000Y-123705000D01*
X42295000Y-73705000D01*
X42295000Y-73705000D02*
X142295000Y-73705000D01*
X142295000Y-123705000D01*
X42295000Y-123705000D01*
X42295000Y-73705000D01*
X42295000Y-73705000D02*
X142295000Y-73705000D01*
X142295000Y-123705000D01*
X42295000Y-123705000D01*
X42295000Y-73705000D01*
X42295000Y-73705000D02*
X142295000Y-73705000D01*
X142295000Y-123705000D01*
X42295000Y-123705000D01*
X42295000Y-73705000D01*
X42295000Y-23705000D02*
X142295000Y-23705000D01*
X142295000Y-73705000D01*
X42295000Y-73705000D01*
X42295000Y-23705000D01*
X42295000Y-23705000D02*
X142295000Y-23705000D01*
X142295000Y-73705000D01*
X42295000Y-73705000D01*
X42295000Y-23705000D01*
X42295000Y-23705000D02*
X142295000Y-23705000D01*
X142295000Y-73705000D01*
X42295000Y-73705000D01*
X42295000Y-23705000D01*
X42295000Y-23705000D02*
X142295000Y-23705000D01*
X142295000Y-73705000D01*
X42295000Y-73705000D01*
X42295000Y-23705000D01*
X42295000Y-23705000D02*
X142295000Y-23705000D01*
X142295000Y-73705000D01*
X42295000Y-73705000D01*
X42295000Y-23705000D01*
M02*
