%TF.GenerationSoftware,KiCad,Pcbnew,7.0.11+dfsg-1build4*%
%TF.CreationDate,2026-02-25T12:51:42-05:00*%
%TF.ProjectId,,58585858-5858-4585-9858-585858585858,rev?*%
%TF.SameCoordinates,Original*%
%TF.FileFunction,Soldermask,Top*%
%TF.FilePolarity,Negative*%
%FSLAX46Y46*%
G04 Gerber Fmt 4.6, Leading zero omitted, Abs format (unit mm)*
G04 Created by KiCad (PCBNEW 7.0.11+dfsg-1build4) date 2026-02-25 12:51:42*
%MOMM*%
%LPD*%
G01*
G04 APERTURE LIST*
G04 Aperture macros list*
%AMRoundRect*
0 Rectangle with rounded corners*
0 $1 Rounding radius*
0 $2 $3 $4 $5 $6 $7 $8 $9 X,Y pos of 4 corners*
0 Add a 4 corners polygon primitive as box body*
4,1,4,$2,$3,$4,$5,$6,$7,$8,$9,$2,$3,0*
0 Add four circle primitives for the rounded corners*
1,1,$1+$1,$2,$3*
1,1,$1+$1,$4,$5*
1,1,$1+$1,$6,$7*
1,1,$1+$1,$8,$9*
0 Add four rect primitives between the rounded corners*
20,1,$1+$1,$2,$3,$4,$5,0*
20,1,$1+$1,$4,$5,$6,$7,0*
20,1,$1+$1,$6,$7,$8,$9,0*
20,1,$1+$1,$8,$9,$2,$3,0*%
G04 Aperture macros list end*
%ADD10RoundRect,0.250000X-0.350000X-0.450000X0.350000X-0.450000X0.350000X0.450000X-0.350000X0.450000X0*%
%ADD11RoundRect,0.250000X0.350000X0.450000X-0.350000X0.450000X-0.350000X-0.450000X0.350000X-0.450000X0*%
%ADD12RoundRect,0.250000X0.337500X0.475000X-0.337500X0.475000X-0.337500X-0.475000X0.337500X-0.475000X0*%
%ADD13R,1.800000X0.800000*%
%ADD14RoundRect,0.162500X-0.617500X-0.162500X0.617500X-0.162500X0.617500X0.162500X-0.617500X0.162500X0*%
%ADD15C,3.200000*%
%ADD16RoundRect,0.250000X-0.337500X-0.475000X0.337500X-0.475000X0.337500X0.475000X-0.337500X0.475000X0*%
%ADD17RoundRect,0.250000X-0.475000X0.337500X-0.475000X-0.337500X0.475000X-0.337500X0.475000X0.337500X0*%
%ADD18RoundRect,0.250000X0.325000X0.450000X-0.325000X0.450000X-0.325000X-0.450000X0.325000X-0.450000X0*%
%ADD19RoundRect,0.375000X-0.625000X-0.375000X0.625000X-0.375000X0.625000X0.375000X-0.625000X0.375000X0*%
%ADD20RoundRect,0.500000X-0.500000X-1.400000X0.500000X-1.400000X0.500000X1.400000X-0.500000X1.400000X0*%
%ADD21R,2.400000X2.400000*%
%ADD22C,2.400000*%
%ADD23R,1.600000X1.600000*%
%ADD24O,1.600000X1.600000*%
%ADD25R,0.800000X1.800000*%
%ADD26R,1.300000X1.550000*%
%ADD27R,1.700000X1.700000*%
%ADD28C,1.700000*%
%ADD29RoundRect,0.150000X-0.825000X-0.150000X0.825000X-0.150000X0.825000X0.150000X-0.825000X0.150000X0*%
%TA.AperFunction,Profile*%
%ADD30C,0.050000*%
%TD*%
G04 APERTURE END LIST*
D10*
%TO.C,R4*%
X91567000Y-108987000D03*
X93567000Y-108987000D03*
%TD*%
%TO.C,R3*%
X91567000Y-115187000D03*
X93567000Y-115187000D03*
%TD*%
%TO.C,R2*%
X91567000Y-113087000D03*
X93567000Y-113087000D03*
%TD*%
D11*
%TO.C,R10*%
X85201000Y-122882000D03*
X83201000Y-122882000D03*
%TD*%
D12*
%TO.C,C2*%
X103124000Y-108039000D03*
X101049000Y-108039000D03*
%TD*%
D10*
%TO.C,R15*%
X68866000Y-122882000D03*
X70866000Y-122882000D03*
%TD*%
%TO.C,R12*%
X91567000Y-123522000D03*
X93567000Y-123522000D03*
%TD*%
D12*
%TO.C,C1*%
X102997000Y-115151000D03*
X100922000Y-115151000D03*
%TD*%
D13*
%TO.C,K4*%
X140406000Y-89162000D03*
X140406000Y-86962000D03*
X140406000Y-91362000D03*
X133406000Y-89162000D03*
X133406000Y-86962000D03*
X133406000Y-91362000D03*
X140406000Y-83762000D03*
X133406000Y-83762000D03*
%TD*%
D12*
%TO.C,C8*%
X126894500Y-94196000D03*
X124819500Y-94196000D03*
%TD*%
D14*
%TO.C,U6*%
X100678000Y-118453000D03*
X100678000Y-119403000D03*
X100678000Y-120353000D03*
X103378000Y-120353000D03*
X103378000Y-119403000D03*
X103378000Y-118453000D03*
%TD*%
D12*
%TO.C,C7*%
X108204000Y-83655000D03*
X106129000Y-83655000D03*
%TD*%
D10*
%TO.C,R7*%
X91567000Y-106932000D03*
X93567000Y-106932000D03*
%TD*%
%TO.C,R14*%
X91567000Y-119387000D03*
X93567000Y-119387000D03*
%TD*%
%TO.C,R1*%
X117253000Y-83909000D03*
X119253000Y-83909000D03*
%TD*%
D15*
%TO.C,MH03*%
X133676000Y-128952000D03*
%TD*%
D16*
%TO.C,C6*%
X110109000Y-83655000D03*
X112184000Y-83655000D03*
%TD*%
D17*
%TO.C,C4*%
X110236000Y-93053000D03*
X110236000Y-95128000D03*
%TD*%
D15*
%TO.C,MH06*%
X103196000Y-128952000D03*
%TD*%
D13*
%TO.C,K6*%
X161361000Y-89162000D03*
X161361000Y-86962000D03*
X161361000Y-91362000D03*
X154361000Y-89162000D03*
X154361000Y-86962000D03*
X154361000Y-91362000D03*
X161361000Y-83762000D03*
X154361000Y-83762000D03*
%TD*%
D10*
%TO.C,R8*%
X91567000Y-100836000D03*
X93567000Y-100836000D03*
%TD*%
D17*
%TO.C,C5*%
X107696000Y-93053000D03*
X107696000Y-95128000D03*
%TD*%
D15*
%TO.C,MH05*%
X113356000Y-128952000D03*
%TD*%
D13*
%TO.C,K5*%
X150891000Y-89162000D03*
X150891000Y-86962000D03*
X150891000Y-91362000D03*
X143891000Y-89162000D03*
X143891000Y-86962000D03*
X143891000Y-91362000D03*
X150891000Y-83762000D03*
X143891000Y-83762000D03*
%TD*%
D18*
%TO.C,D6*%
X97665000Y-102868000D03*
X95615000Y-102868000D03*
%TD*%
D11*
%TO.C,R16*%
X66421000Y-122882000D03*
X64421000Y-122882000D03*
%TD*%
D19*
%TO.C,U7*%
X105714000Y-86181000D03*
X105714000Y-88481000D03*
D20*
X112014000Y-88481000D03*
D19*
X105714000Y-90781000D03*
%TD*%
D10*
%TO.C,R17*%
X91583000Y-102868000D03*
X93583000Y-102868000D03*
%TD*%
D18*
%TO.C,D3*%
X97647000Y-115187000D03*
X95597000Y-115187000D03*
%TD*%
D11*
%TO.C,R11*%
X93567000Y-121487000D03*
X91567000Y-121487000D03*
%TD*%
D15*
%TO.C,MH09*%
X72716000Y-128952000D03*
%TD*%
D14*
%TO.C,U1*%
X100805000Y-111214000D03*
X100805000Y-112164000D03*
X100805000Y-113114000D03*
X103505000Y-113114000D03*
X103505000Y-112164000D03*
X103505000Y-111214000D03*
%TD*%
D15*
%TO.C,MH08*%
X82876000Y-128952000D03*
%TD*%
D21*
%TO.C,J1*%
X97409000Y-85941000D03*
D22*
X99159000Y-97371000D03*
X93909000Y-85941000D03*
X95659000Y-97371000D03*
X90409000Y-85941000D03*
X92159000Y-97371000D03*
X86909000Y-85941000D03*
X88659000Y-97371000D03*
X83409000Y-85941000D03*
X85159000Y-97371000D03*
X79909000Y-85941000D03*
X81659000Y-97371000D03*
X76409000Y-85941000D03*
X78159000Y-97371000D03*
X72909000Y-85941000D03*
X74659000Y-97371000D03*
X69409000Y-85941000D03*
X71159000Y-97371000D03*
X65909000Y-85941000D03*
X67659000Y-97371000D03*
%TD*%
D15*
%TO.C,MH04*%
X123516000Y-128952000D03*
%TD*%
D23*
%TO.C,U4*%
X66421000Y-118707000D03*
D24*
X68961000Y-118707000D03*
X71501000Y-118707000D03*
X74041000Y-118707000D03*
X76581000Y-118707000D03*
X79121000Y-118707000D03*
X81661000Y-118707000D03*
X84201000Y-118707000D03*
X84201000Y-103467000D03*
X81661000Y-103467000D03*
X79121000Y-103467000D03*
X76581000Y-103467000D03*
X74041000Y-103467000D03*
X71501000Y-103467000D03*
X68961000Y-103467000D03*
X66421000Y-103467000D03*
%TD*%
D25*
%TO.C,K3*%
X139256000Y-95522000D03*
X137056000Y-95522000D03*
X141456000Y-95522000D03*
X139256000Y-102522000D03*
X137056000Y-102522000D03*
X141456000Y-102522000D03*
X133856000Y-95522000D03*
X133856000Y-102522000D03*
%TD*%
D21*
%TO.C,J2*%
X158496000Y-118582000D03*
D22*
X147066000Y-120332000D03*
X158496000Y-115082000D03*
X147066000Y-116832000D03*
X158496000Y-111582000D03*
X147066000Y-113332000D03*
X158496000Y-108082000D03*
X147066000Y-109832000D03*
X158496000Y-104582000D03*
X147066000Y-106332000D03*
X158496000Y-101082000D03*
X147066000Y-102832000D03*
X158496000Y-97582000D03*
X147066000Y-99332000D03*
%TD*%
D18*
%TO.C,D4*%
X97647000Y-111087000D03*
X95597000Y-111087000D03*
%TD*%
D26*
%TO.C,SW1*%
X116078000Y-94399000D03*
X116078000Y-86449000D03*
X120578000Y-94399000D03*
X120578000Y-86449000D03*
%TD*%
D25*
%TO.C,K2*%
X139256000Y-105992000D03*
X137056000Y-105992000D03*
X141456000Y-105992000D03*
X139256000Y-112992000D03*
X137056000Y-112992000D03*
X141456000Y-112992000D03*
X133856000Y-105992000D03*
X133856000Y-112992000D03*
%TD*%
D18*
%TO.C,D2*%
X97647000Y-119387000D03*
X95597000Y-119387000D03*
%TD*%
D12*
%TO.C,C3*%
X102997000Y-122517000D03*
X100922000Y-122517000D03*
%TD*%
D18*
%TO.C,D1*%
X97647000Y-123522000D03*
X95597000Y-123522000D03*
%TD*%
D10*
%TO.C,R6*%
X91567000Y-104900000D03*
X93567000Y-104900000D03*
%TD*%
D15*
%TO.C,MH07*%
X93036000Y-128952000D03*
%TD*%
%TO.C,MH01*%
X153996000Y-128952000D03*
%TD*%
D11*
%TO.C,R9*%
X81391000Y-122882000D03*
X79391000Y-122882000D03*
%TD*%
D18*
%TO.C,D5*%
X97647000Y-106932000D03*
X95597000Y-106932000D03*
%TD*%
D27*
%TO.C,U5*%
X114681000Y-98356500D03*
D28*
X117221000Y-98356500D03*
X119761000Y-98356500D03*
X122301000Y-98356500D03*
%TD*%
D15*
%TO.C,MH02*%
X143836000Y-128952000D03*
%TD*%
D29*
%TO.C,U2*%
X123701000Y-83147000D03*
X123701000Y-84417000D03*
X123701000Y-85687000D03*
X123701000Y-86957000D03*
X123701000Y-88227000D03*
X123701000Y-89497000D03*
X123701000Y-90767000D03*
X123701000Y-92037000D03*
X128651000Y-92037000D03*
X128651000Y-90767000D03*
X128651000Y-89497000D03*
X128651000Y-88227000D03*
X128651000Y-86957000D03*
X128651000Y-85687000D03*
X128651000Y-84417000D03*
X128651000Y-83147000D03*
%TD*%
D11*
%TO.C,R13*%
X93567000Y-117287000D03*
X91567000Y-117287000D03*
%TD*%
D10*
%TO.C,R5*%
X91567000Y-111087000D03*
X93567000Y-111087000D03*
%TD*%
D25*
%TO.C,K1*%
X139256000Y-116152000D03*
X137056000Y-116152000D03*
X141456000Y-116152000D03*
X139256000Y-123152000D03*
X137056000Y-123152000D03*
X141456000Y-123152000D03*
X133856000Y-116152000D03*
X133856000Y-123152000D03*
%TD*%
D14*
%TO.C,U3*%
X100678000Y-104102000D03*
X100678000Y-105052000D03*
X100678000Y-106002000D03*
X103378000Y-106002000D03*
X103378000Y-105052000D03*
X103378000Y-104102000D03*
%TD*%
D18*
%TO.C,D7*%
X75311000Y-122882000D03*
X73261000Y-122882000D03*
%TD*%
D10*
%TO.C,R4*%
X91567000Y-108987000D03*
X93567000Y-108987000D03*
%TD*%
%TO.C,R3*%
X91567000Y-115187000D03*
X93567000Y-115187000D03*
%TD*%
%TO.C,R2*%
X91567000Y-113087000D03*
X93567000Y-113087000D03*
%TD*%
D11*
%TO.C,R10*%
X85201000Y-122882000D03*
X83201000Y-122882000D03*
%TD*%
D12*
%TO.C,C2*%
X103124000Y-108039000D03*
X101049000Y-108039000D03*
%TD*%
D10*
%TO.C,R15*%
X68866000Y-122882000D03*
X70866000Y-122882000D03*
%TD*%
%TO.C,R12*%
X91567000Y-123522000D03*
X93567000Y-123522000D03*
%TD*%
D12*
%TO.C,C1*%
X102997000Y-115151000D03*
X100922000Y-115151000D03*
%TD*%
D13*
%TO.C,K4*%
X140406000Y-89162000D03*
X140406000Y-86962000D03*
X140406000Y-91362000D03*
X133406000Y-89162000D03*
X133406000Y-86962000D03*
X133406000Y-91362000D03*
X140406000Y-83762000D03*
X133406000Y-83762000D03*
%TD*%
D12*
%TO.C,C8*%
X126894500Y-94196000D03*
X124819500Y-94196000D03*
%TD*%
D14*
%TO.C,U6*%
X100678000Y-118453000D03*
X100678000Y-119403000D03*
X100678000Y-120353000D03*
X103378000Y-120353000D03*
X103378000Y-119403000D03*
X103378000Y-118453000D03*
%TD*%
D12*
%TO.C,C7*%
X108204000Y-83655000D03*
X106129000Y-83655000D03*
%TD*%
D10*
%TO.C,R7*%
X91567000Y-106932000D03*
X93567000Y-106932000D03*
%TD*%
%TO.C,R14*%
X91567000Y-119387000D03*
X93567000Y-119387000D03*
%TD*%
%TO.C,R1*%
X117253000Y-83909000D03*
X119253000Y-83909000D03*
%TD*%
D15*
%TO.C,MH03*%
X133676000Y-128952000D03*
%TD*%
D16*
%TO.C,C6*%
X110109000Y-83655000D03*
X112184000Y-83655000D03*
%TD*%
D17*
%TO.C,C4*%
X110236000Y-93053000D03*
X110236000Y-95128000D03*
%TD*%
D15*
%TO.C,MH06*%
X103196000Y-128952000D03*
%TD*%
D13*
%TO.C,K6*%
X161361000Y-89162000D03*
X161361000Y-86962000D03*
X161361000Y-91362000D03*
X154361000Y-89162000D03*
X154361000Y-86962000D03*
X154361000Y-91362000D03*
X161361000Y-83762000D03*
X154361000Y-83762000D03*
%TD*%
D10*
%TO.C,R8*%
X91567000Y-100836000D03*
X93567000Y-100836000D03*
%TD*%
D17*
%TO.C,C5*%
X107696000Y-93053000D03*
X107696000Y-95128000D03*
%TD*%
D15*
%TO.C,MH05*%
X113356000Y-128952000D03*
%TD*%
D13*
%TO.C,K5*%
X150891000Y-89162000D03*
X150891000Y-86962000D03*
X150891000Y-91362000D03*
X143891000Y-89162000D03*
X143891000Y-86962000D03*
X143891000Y-91362000D03*
X150891000Y-83762000D03*
X143891000Y-83762000D03*
%TD*%
D18*
%TO.C,D6*%
X97665000Y-102868000D03*
X95615000Y-102868000D03*
%TD*%
D11*
%TO.C,R16*%
X66421000Y-122882000D03*
X64421000Y-122882000D03*
%TD*%
D19*
%TO.C,U7*%
X105714000Y-86181000D03*
X105714000Y-88481000D03*
D20*
X112014000Y-88481000D03*
D19*
X105714000Y-90781000D03*
%TD*%
D10*
%TO.C,R17*%
X91583000Y-102868000D03*
X93583000Y-102868000D03*
%TD*%
D18*
%TO.C,D3*%
X97647000Y-115187000D03*
X95597000Y-115187000D03*
%TD*%
D11*
%TO.C,R11*%
X93567000Y-121487000D03*
X91567000Y-121487000D03*
%TD*%
D15*
%TO.C,MH09*%
X72716000Y-128952000D03*
%TD*%
D14*
%TO.C,U1*%
X100805000Y-111214000D03*
X100805000Y-112164000D03*
X100805000Y-113114000D03*
X103505000Y-113114000D03*
X103505000Y-112164000D03*
X103505000Y-111214000D03*
%TD*%
D15*
%TO.C,MH08*%
X82876000Y-128952000D03*
%TD*%
D21*
%TO.C,J1*%
X97409000Y-85941000D03*
D22*
X99159000Y-97371000D03*
X93909000Y-85941000D03*
X95659000Y-97371000D03*
X90409000Y-85941000D03*
X92159000Y-97371000D03*
X86909000Y-85941000D03*
X88659000Y-97371000D03*
X83409000Y-85941000D03*
X85159000Y-97371000D03*
X79909000Y-85941000D03*
X81659000Y-97371000D03*
X76409000Y-85941000D03*
X78159000Y-97371000D03*
X72909000Y-85941000D03*
X74659000Y-97371000D03*
X69409000Y-85941000D03*
X71159000Y-97371000D03*
X65909000Y-85941000D03*
X67659000Y-97371000D03*
%TD*%
D15*
%TO.C,MH04*%
X123516000Y-128952000D03*
%TD*%
D23*
%TO.C,U4*%
X66421000Y-118707000D03*
D24*
X68961000Y-118707000D03*
X71501000Y-118707000D03*
X74041000Y-118707000D03*
X76581000Y-118707000D03*
X79121000Y-118707000D03*
X81661000Y-118707000D03*
X84201000Y-118707000D03*
X84201000Y-103467000D03*
X81661000Y-103467000D03*
X79121000Y-103467000D03*
X76581000Y-103467000D03*
X74041000Y-103467000D03*
X71501000Y-103467000D03*
X68961000Y-103467000D03*
X66421000Y-103467000D03*
%TD*%
D25*
%TO.C,K3*%
X139256000Y-95522000D03*
X137056000Y-95522000D03*
X141456000Y-95522000D03*
X139256000Y-102522000D03*
X137056000Y-102522000D03*
X141456000Y-102522000D03*
X133856000Y-95522000D03*
X133856000Y-102522000D03*
%TD*%
D21*
%TO.C,J2*%
X158496000Y-118582000D03*
D22*
X147066000Y-120332000D03*
X158496000Y-115082000D03*
X147066000Y-116832000D03*
X158496000Y-111582000D03*
X147066000Y-113332000D03*
X158496000Y-108082000D03*
X147066000Y-109832000D03*
X158496000Y-104582000D03*
X147066000Y-106332000D03*
X158496000Y-101082000D03*
X147066000Y-102832000D03*
X158496000Y-97582000D03*
X147066000Y-99332000D03*
%TD*%
D18*
%TO.C,D4*%
X97647000Y-111087000D03*
X95597000Y-111087000D03*
%TD*%
D26*
%TO.C,SW1*%
X116078000Y-94399000D03*
X116078000Y-86449000D03*
X120578000Y-94399000D03*
X120578000Y-86449000D03*
%TD*%
D25*
%TO.C,K2*%
X139256000Y-105992000D03*
X137056000Y-105992000D03*
X141456000Y-105992000D03*
X139256000Y-112992000D03*
X137056000Y-112992000D03*
X141456000Y-112992000D03*
X133856000Y-105992000D03*
X133856000Y-112992000D03*
%TD*%
D18*
%TO.C,D2*%
X97647000Y-119387000D03*
X95597000Y-119387000D03*
%TD*%
D12*
%TO.C,C3*%
X102997000Y-122517000D03*
X100922000Y-122517000D03*
%TD*%
D18*
%TO.C,D1*%
X97647000Y-123522000D03*
X95597000Y-123522000D03*
%TD*%
D10*
%TO.C,R6*%
X91567000Y-104900000D03*
X93567000Y-104900000D03*
%TD*%
D15*
%TO.C,MH07*%
X93036000Y-128952000D03*
%TD*%
%TO.C,MH01*%
X153996000Y-128952000D03*
%TD*%
D11*
%TO.C,R9*%
X81391000Y-122882000D03*
X79391000Y-122882000D03*
%TD*%
D18*
%TO.C,D5*%
X97647000Y-106932000D03*
X95597000Y-106932000D03*
%TD*%
D27*
%TO.C,U5*%
X114681000Y-98356500D03*
D28*
X117221000Y-98356500D03*
X119761000Y-98356500D03*
X122301000Y-98356500D03*
%TD*%
D15*
%TO.C,MH02*%
X143836000Y-128952000D03*
%TD*%
D29*
%TO.C,U2*%
X123701000Y-83147000D03*
X123701000Y-84417000D03*
X123701000Y-85687000D03*
X123701000Y-86957000D03*
X123701000Y-88227000D03*
X123701000Y-89497000D03*
X123701000Y-90767000D03*
X123701000Y-92037000D03*
X128651000Y-92037000D03*
X128651000Y-90767000D03*
X128651000Y-89497000D03*
X128651000Y-88227000D03*
X128651000Y-86957000D03*
X128651000Y-85687000D03*
X128651000Y-84417000D03*
X128651000Y-83147000D03*
%TD*%
D11*
%TO.C,R13*%
X93567000Y-117287000D03*
X91567000Y-117287000D03*
%TD*%
D10*
%TO.C,R5*%
X91567000Y-111087000D03*
X93567000Y-111087000D03*
%TD*%
D25*
%TO.C,K1*%
X139256000Y-116152000D03*
X137056000Y-116152000D03*
X141456000Y-116152000D03*
X139256000Y-123152000D03*
X137056000Y-123152000D03*
X141456000Y-123152000D03*
X133856000Y-116152000D03*
X133856000Y-123152000D03*
%TD*%
D14*
%TO.C,U3*%
X100678000Y-104102000D03*
X100678000Y-105052000D03*
X100678000Y-106002000D03*
X103378000Y-106002000D03*
X103378000Y-105052000D03*
X103378000Y-104102000D03*
%TD*%
D18*
%TO.C,D7*%
X75311000Y-122882000D03*
X73261000Y-122882000D03*
%TD*%
D10*
%TO.C,R4*%
X91567000Y-108987000D03*
X93567000Y-108987000D03*
%TD*%
%TO.C,R3*%
X91567000Y-115187000D03*
X93567000Y-115187000D03*
%TD*%
%TO.C,R2*%
X91567000Y-113087000D03*
X93567000Y-113087000D03*
%TD*%
D11*
%TO.C,R10*%
X85201000Y-122882000D03*
X83201000Y-122882000D03*
%TD*%
D12*
%TO.C,C2*%
X103124000Y-108039000D03*
X101049000Y-108039000D03*
%TD*%
D10*
%TO.C,R15*%
X68866000Y-122882000D03*
X70866000Y-122882000D03*
%TD*%
%TO.C,R12*%
X91567000Y-123522000D03*
X93567000Y-123522000D03*
%TD*%
D12*
%TO.C,C1*%
X102997000Y-115151000D03*
X100922000Y-115151000D03*
%TD*%
D13*
%TO.C,K4*%
X140406000Y-89162000D03*
X140406000Y-86962000D03*
X140406000Y-91362000D03*
X133406000Y-89162000D03*
X133406000Y-86962000D03*
X133406000Y-91362000D03*
X140406000Y-83762000D03*
X133406000Y-83762000D03*
%TD*%
D12*
%TO.C,C8*%
X126894500Y-94196000D03*
X124819500Y-94196000D03*
%TD*%
D14*
%TO.C,U6*%
X100678000Y-118453000D03*
X100678000Y-119403000D03*
X100678000Y-120353000D03*
X103378000Y-120353000D03*
X103378000Y-119403000D03*
X103378000Y-118453000D03*
%TD*%
D12*
%TO.C,C7*%
X108204000Y-83655000D03*
X106129000Y-83655000D03*
%TD*%
D10*
%TO.C,R7*%
X91567000Y-106932000D03*
X93567000Y-106932000D03*
%TD*%
%TO.C,R14*%
X91567000Y-119387000D03*
X93567000Y-119387000D03*
%TD*%
%TO.C,R1*%
X117253000Y-83909000D03*
X119253000Y-83909000D03*
%TD*%
D15*
%TO.C,MH03*%
X133676000Y-128952000D03*
%TD*%
D16*
%TO.C,C6*%
X110109000Y-83655000D03*
X112184000Y-83655000D03*
%TD*%
D17*
%TO.C,C4*%
X110236000Y-93053000D03*
X110236000Y-95128000D03*
%TD*%
D15*
%TO.C,MH06*%
X103196000Y-128952000D03*
%TD*%
D13*
%TO.C,K6*%
X161361000Y-89162000D03*
X161361000Y-86962000D03*
X161361000Y-91362000D03*
X154361000Y-89162000D03*
X154361000Y-86962000D03*
X154361000Y-91362000D03*
X161361000Y-83762000D03*
X154361000Y-83762000D03*
%TD*%
D10*
%TO.C,R8*%
X91567000Y-100836000D03*
X93567000Y-100836000D03*
%TD*%
D17*
%TO.C,C5*%
X107696000Y-93053000D03*
X107696000Y-95128000D03*
%TD*%
D15*
%TO.C,MH05*%
X113356000Y-128952000D03*
%TD*%
D13*
%TO.C,K5*%
X150891000Y-89162000D03*
X150891000Y-86962000D03*
X150891000Y-91362000D03*
X143891000Y-89162000D03*
X143891000Y-86962000D03*
X143891000Y-91362000D03*
X150891000Y-83762000D03*
X143891000Y-83762000D03*
%TD*%
D18*
%TO.C,D6*%
X97665000Y-102868000D03*
X95615000Y-102868000D03*
%TD*%
D11*
%TO.C,R16*%
X66421000Y-122882000D03*
X64421000Y-122882000D03*
%TD*%
D19*
%TO.C,U7*%
X105714000Y-86181000D03*
X105714000Y-88481000D03*
D20*
X112014000Y-88481000D03*
D19*
X105714000Y-90781000D03*
%TD*%
D10*
%TO.C,R17*%
X91583000Y-102868000D03*
X93583000Y-102868000D03*
%TD*%
D18*
%TO.C,D3*%
X97647000Y-115187000D03*
X95597000Y-115187000D03*
%TD*%
D11*
%TO.C,R11*%
X93567000Y-121487000D03*
X91567000Y-121487000D03*
%TD*%
D15*
%TO.C,MH09*%
X72716000Y-128952000D03*
%TD*%
D14*
%TO.C,U1*%
X100805000Y-111214000D03*
X100805000Y-112164000D03*
X100805000Y-113114000D03*
X103505000Y-113114000D03*
X103505000Y-112164000D03*
X103505000Y-111214000D03*
%TD*%
D15*
%TO.C,MH08*%
X82876000Y-128952000D03*
%TD*%
D21*
%TO.C,J1*%
X97409000Y-85941000D03*
D22*
X99159000Y-97371000D03*
X93909000Y-85941000D03*
X95659000Y-97371000D03*
X90409000Y-85941000D03*
X92159000Y-97371000D03*
X86909000Y-85941000D03*
X88659000Y-97371000D03*
X83409000Y-85941000D03*
X85159000Y-97371000D03*
X79909000Y-85941000D03*
X81659000Y-97371000D03*
X76409000Y-85941000D03*
X78159000Y-97371000D03*
X72909000Y-85941000D03*
X74659000Y-97371000D03*
X69409000Y-85941000D03*
X71159000Y-97371000D03*
X65909000Y-85941000D03*
X67659000Y-97371000D03*
%TD*%
D15*
%TO.C,MH04*%
X123516000Y-128952000D03*
%TD*%
D23*
%TO.C,U4*%
X66421000Y-118707000D03*
D24*
X68961000Y-118707000D03*
X71501000Y-118707000D03*
X74041000Y-118707000D03*
X76581000Y-118707000D03*
X79121000Y-118707000D03*
X81661000Y-118707000D03*
X84201000Y-118707000D03*
X84201000Y-103467000D03*
X81661000Y-103467000D03*
X79121000Y-103467000D03*
X76581000Y-103467000D03*
X74041000Y-103467000D03*
X71501000Y-103467000D03*
X68961000Y-103467000D03*
X66421000Y-103467000D03*
%TD*%
D25*
%TO.C,K3*%
X139256000Y-95522000D03*
X137056000Y-95522000D03*
X141456000Y-95522000D03*
X139256000Y-102522000D03*
X137056000Y-102522000D03*
X141456000Y-102522000D03*
X133856000Y-95522000D03*
X133856000Y-102522000D03*
%TD*%
D21*
%TO.C,J2*%
X158496000Y-118582000D03*
D22*
X147066000Y-120332000D03*
X158496000Y-115082000D03*
X147066000Y-116832000D03*
X158496000Y-111582000D03*
X147066000Y-113332000D03*
X158496000Y-108082000D03*
X147066000Y-109832000D03*
X158496000Y-104582000D03*
X147066000Y-106332000D03*
X158496000Y-101082000D03*
X147066000Y-102832000D03*
X158496000Y-97582000D03*
X147066000Y-99332000D03*
%TD*%
D18*
%TO.C,D4*%
X97647000Y-111087000D03*
X95597000Y-111087000D03*
%TD*%
D26*
%TO.C,SW1*%
X116078000Y-94399000D03*
X116078000Y-86449000D03*
X120578000Y-94399000D03*
X120578000Y-86449000D03*
%TD*%
D25*
%TO.C,K2*%
X139256000Y-105992000D03*
X137056000Y-105992000D03*
X141456000Y-105992000D03*
X139256000Y-112992000D03*
X137056000Y-112992000D03*
X141456000Y-112992000D03*
X133856000Y-105992000D03*
X133856000Y-112992000D03*
%TD*%
D18*
%TO.C,D2*%
X97647000Y-119387000D03*
X95597000Y-119387000D03*
%TD*%
D12*
%TO.C,C3*%
X102997000Y-122517000D03*
X100922000Y-122517000D03*
%TD*%
D18*
%TO.C,D1*%
X97647000Y-123522000D03*
X95597000Y-123522000D03*
%TD*%
D10*
%TO.C,R6*%
X91567000Y-104900000D03*
X93567000Y-104900000D03*
%TD*%
D15*
%TO.C,MH07*%
X93036000Y-128952000D03*
%TD*%
%TO.C,MH01*%
X153996000Y-128952000D03*
%TD*%
D11*
%TO.C,R9*%
X81391000Y-122882000D03*
X79391000Y-122882000D03*
%TD*%
D18*
%TO.C,D5*%
X97647000Y-106932000D03*
X95597000Y-106932000D03*
%TD*%
D27*
%TO.C,U5*%
X114681000Y-98356500D03*
D28*
X117221000Y-98356500D03*
X119761000Y-98356500D03*
X122301000Y-98356500D03*
%TD*%
D15*
%TO.C,MH02*%
X143836000Y-128952000D03*
%TD*%
D29*
%TO.C,U2*%
X123701000Y-83147000D03*
X123701000Y-84417000D03*
X123701000Y-85687000D03*
X123701000Y-86957000D03*
X123701000Y-88227000D03*
X123701000Y-89497000D03*
X123701000Y-90767000D03*
X123701000Y-92037000D03*
X128651000Y-92037000D03*
X128651000Y-90767000D03*
X128651000Y-89497000D03*
X128651000Y-88227000D03*
X128651000Y-86957000D03*
X128651000Y-85687000D03*
X128651000Y-84417000D03*
X128651000Y-83147000D03*
%TD*%
D11*
%TO.C,R13*%
X93567000Y-117287000D03*
X91567000Y-117287000D03*
%TD*%
D10*
%TO.C,R5*%
X91567000Y-111087000D03*
X93567000Y-111087000D03*
%TD*%
D25*
%TO.C,K1*%
X139256000Y-116152000D03*
X137056000Y-116152000D03*
X141456000Y-116152000D03*
X139256000Y-123152000D03*
X137056000Y-123152000D03*
X141456000Y-123152000D03*
X133856000Y-116152000D03*
X133856000Y-123152000D03*
%TD*%
D14*
%TO.C,U3*%
X100678000Y-104102000D03*
X100678000Y-105052000D03*
X100678000Y-106002000D03*
X103378000Y-106002000D03*
X103378000Y-105052000D03*
X103378000Y-104102000D03*
%TD*%
D18*
%TO.C,D7*%
X75311000Y-122882000D03*
X73261000Y-122882000D03*
%TD*%
D10*
%TO.C,R4*%
X91567000Y-108987000D03*
X93567000Y-108987000D03*
%TD*%
%TO.C,R3*%
X91567000Y-115187000D03*
X93567000Y-115187000D03*
%TD*%
%TO.C,R2*%
X91567000Y-113087000D03*
X93567000Y-113087000D03*
%TD*%
D11*
%TO.C,R10*%
X85201000Y-122882000D03*
X83201000Y-122882000D03*
%TD*%
D12*
%TO.C,C2*%
X103124000Y-108039000D03*
X101049000Y-108039000D03*
%TD*%
D10*
%TO.C,R15*%
X68866000Y-122882000D03*
X70866000Y-122882000D03*
%TD*%
%TO.C,R12*%
X91567000Y-123522000D03*
X93567000Y-123522000D03*
%TD*%
D12*
%TO.C,C1*%
X102997000Y-115151000D03*
X100922000Y-115151000D03*
%TD*%
D13*
%TO.C,K4*%
X140406000Y-89162000D03*
X140406000Y-86962000D03*
X140406000Y-91362000D03*
X133406000Y-89162000D03*
X133406000Y-86962000D03*
X133406000Y-91362000D03*
X140406000Y-83762000D03*
X133406000Y-83762000D03*
%TD*%
D12*
%TO.C,C8*%
X126894500Y-94196000D03*
X124819500Y-94196000D03*
%TD*%
D14*
%TO.C,U6*%
X100678000Y-118453000D03*
X100678000Y-119403000D03*
X100678000Y-120353000D03*
X103378000Y-120353000D03*
X103378000Y-119403000D03*
X103378000Y-118453000D03*
%TD*%
D12*
%TO.C,C7*%
X108204000Y-83655000D03*
X106129000Y-83655000D03*
%TD*%
D10*
%TO.C,R7*%
X91567000Y-106932000D03*
X93567000Y-106932000D03*
%TD*%
%TO.C,R14*%
X91567000Y-119387000D03*
X93567000Y-119387000D03*
%TD*%
%TO.C,R1*%
X117253000Y-83909000D03*
X119253000Y-83909000D03*
%TD*%
D15*
%TO.C,MH03*%
X133676000Y-128952000D03*
%TD*%
D16*
%TO.C,C6*%
X110109000Y-83655000D03*
X112184000Y-83655000D03*
%TD*%
D17*
%TO.C,C4*%
X110236000Y-93053000D03*
X110236000Y-95128000D03*
%TD*%
D15*
%TO.C,MH06*%
X103196000Y-128952000D03*
%TD*%
D13*
%TO.C,K6*%
X161361000Y-89162000D03*
X161361000Y-86962000D03*
X161361000Y-91362000D03*
X154361000Y-89162000D03*
X154361000Y-86962000D03*
X154361000Y-91362000D03*
X161361000Y-83762000D03*
X154361000Y-83762000D03*
%TD*%
D10*
%TO.C,R8*%
X91567000Y-100836000D03*
X93567000Y-100836000D03*
%TD*%
D17*
%TO.C,C5*%
X107696000Y-93053000D03*
X107696000Y-95128000D03*
%TD*%
D15*
%TO.C,MH05*%
X113356000Y-128952000D03*
%TD*%
D13*
%TO.C,K5*%
X150891000Y-89162000D03*
X150891000Y-86962000D03*
X150891000Y-91362000D03*
X143891000Y-89162000D03*
X143891000Y-86962000D03*
X143891000Y-91362000D03*
X150891000Y-83762000D03*
X143891000Y-83762000D03*
%TD*%
D18*
%TO.C,D6*%
X97665000Y-102868000D03*
X95615000Y-102868000D03*
%TD*%
D11*
%TO.C,R16*%
X66421000Y-122882000D03*
X64421000Y-122882000D03*
%TD*%
D19*
%TO.C,U7*%
X105714000Y-86181000D03*
X105714000Y-88481000D03*
D20*
X112014000Y-88481000D03*
D19*
X105714000Y-90781000D03*
%TD*%
D10*
%TO.C,R17*%
X91583000Y-102868000D03*
X93583000Y-102868000D03*
%TD*%
D18*
%TO.C,D3*%
X97647000Y-115187000D03*
X95597000Y-115187000D03*
%TD*%
D11*
%TO.C,R11*%
X93567000Y-121487000D03*
X91567000Y-121487000D03*
%TD*%
D15*
%TO.C,MH09*%
X72716000Y-128952000D03*
%TD*%
D14*
%TO.C,U1*%
X100805000Y-111214000D03*
X100805000Y-112164000D03*
X100805000Y-113114000D03*
X103505000Y-113114000D03*
X103505000Y-112164000D03*
X103505000Y-111214000D03*
%TD*%
D15*
%TO.C,MH08*%
X82876000Y-128952000D03*
%TD*%
D21*
%TO.C,J1*%
X97409000Y-85941000D03*
D22*
X99159000Y-97371000D03*
X93909000Y-85941000D03*
X95659000Y-97371000D03*
X90409000Y-85941000D03*
X92159000Y-97371000D03*
X86909000Y-85941000D03*
X88659000Y-97371000D03*
X83409000Y-85941000D03*
X85159000Y-97371000D03*
X79909000Y-85941000D03*
X81659000Y-97371000D03*
X76409000Y-85941000D03*
X78159000Y-97371000D03*
X72909000Y-85941000D03*
X74659000Y-97371000D03*
X69409000Y-85941000D03*
X71159000Y-97371000D03*
X65909000Y-85941000D03*
X67659000Y-97371000D03*
%TD*%
D15*
%TO.C,MH04*%
X123516000Y-128952000D03*
%TD*%
D23*
%TO.C,U4*%
X66421000Y-118707000D03*
D24*
X68961000Y-118707000D03*
X71501000Y-118707000D03*
X74041000Y-118707000D03*
X76581000Y-118707000D03*
X79121000Y-118707000D03*
X81661000Y-118707000D03*
X84201000Y-118707000D03*
X84201000Y-103467000D03*
X81661000Y-103467000D03*
X79121000Y-103467000D03*
X76581000Y-103467000D03*
X74041000Y-103467000D03*
X71501000Y-103467000D03*
X68961000Y-103467000D03*
X66421000Y-103467000D03*
%TD*%
D25*
%TO.C,K3*%
X139256000Y-95522000D03*
X137056000Y-95522000D03*
X141456000Y-95522000D03*
X139256000Y-102522000D03*
X137056000Y-102522000D03*
X141456000Y-102522000D03*
X133856000Y-95522000D03*
X133856000Y-102522000D03*
%TD*%
D21*
%TO.C,J2*%
X158496000Y-118582000D03*
D22*
X147066000Y-120332000D03*
X158496000Y-115082000D03*
X147066000Y-116832000D03*
X158496000Y-111582000D03*
X147066000Y-113332000D03*
X158496000Y-108082000D03*
X147066000Y-109832000D03*
X158496000Y-104582000D03*
X147066000Y-106332000D03*
X158496000Y-101082000D03*
X147066000Y-102832000D03*
X158496000Y-97582000D03*
X147066000Y-99332000D03*
%TD*%
D18*
%TO.C,D4*%
X97647000Y-111087000D03*
X95597000Y-111087000D03*
%TD*%
D26*
%TO.C,SW1*%
X116078000Y-94399000D03*
X116078000Y-86449000D03*
X120578000Y-94399000D03*
X120578000Y-86449000D03*
%TD*%
D25*
%TO.C,K2*%
X139256000Y-105992000D03*
X137056000Y-105992000D03*
X141456000Y-105992000D03*
X139256000Y-112992000D03*
X137056000Y-112992000D03*
X141456000Y-112992000D03*
X133856000Y-105992000D03*
X133856000Y-112992000D03*
%TD*%
D18*
%TO.C,D2*%
X97647000Y-119387000D03*
X95597000Y-119387000D03*
%TD*%
D12*
%TO.C,C3*%
X102997000Y-122517000D03*
X100922000Y-122517000D03*
%TD*%
D18*
%TO.C,D1*%
X97647000Y-123522000D03*
X95597000Y-123522000D03*
%TD*%
D10*
%TO.C,R6*%
X91567000Y-104900000D03*
X93567000Y-104900000D03*
%TD*%
D15*
%TO.C,MH07*%
X93036000Y-128952000D03*
%TD*%
%TO.C,MH01*%
X153996000Y-128952000D03*
%TD*%
D11*
%TO.C,R9*%
X81391000Y-122882000D03*
X79391000Y-122882000D03*
%TD*%
D18*
%TO.C,D5*%
X97647000Y-106932000D03*
X95597000Y-106932000D03*
%TD*%
D27*
%TO.C,U5*%
X114681000Y-98356500D03*
D28*
X117221000Y-98356500D03*
X119761000Y-98356500D03*
X122301000Y-98356500D03*
%TD*%
D15*
%TO.C,MH02*%
X143836000Y-128952000D03*
%TD*%
D29*
%TO.C,U2*%
X123701000Y-83147000D03*
X123701000Y-84417000D03*
X123701000Y-85687000D03*
X123701000Y-86957000D03*
X123701000Y-88227000D03*
X123701000Y-89497000D03*
X123701000Y-90767000D03*
X123701000Y-92037000D03*
X128651000Y-92037000D03*
X128651000Y-90767000D03*
X128651000Y-89497000D03*
X128651000Y-88227000D03*
X128651000Y-86957000D03*
X128651000Y-85687000D03*
X128651000Y-84417000D03*
X128651000Y-83147000D03*
%TD*%
D11*
%TO.C,R13*%
X93567000Y-117287000D03*
X91567000Y-117287000D03*
%TD*%
D10*
%TO.C,R5*%
X91567000Y-111087000D03*
X93567000Y-111087000D03*
%TD*%
D25*
%TO.C,K1*%
X139256000Y-116152000D03*
X137056000Y-116152000D03*
X141456000Y-116152000D03*
X139256000Y-123152000D03*
X137056000Y-123152000D03*
X141456000Y-123152000D03*
X133856000Y-116152000D03*
X133856000Y-123152000D03*
%TD*%
D14*
%TO.C,U3*%
X100678000Y-104102000D03*
X100678000Y-105052000D03*
X100678000Y-106002000D03*
X103378000Y-106002000D03*
X103378000Y-105052000D03*
X103378000Y-104102000D03*
%TD*%
D18*
%TO.C,D7*%
X75311000Y-122882000D03*
X73261000Y-122882000D03*
%TD*%
D10*
%TO.C,R4*%
X91567000Y-108987000D03*
X93567000Y-108987000D03*
%TD*%
%TO.C,R3*%
X91567000Y-115187000D03*
X93567000Y-115187000D03*
%TD*%
%TO.C,R2*%
X91567000Y-113087000D03*
X93567000Y-113087000D03*
%TD*%
D11*
%TO.C,R10*%
X85201000Y-122882000D03*
X83201000Y-122882000D03*
%TD*%
D12*
%TO.C,C2*%
X103124000Y-108039000D03*
X101049000Y-108039000D03*
%TD*%
D10*
%TO.C,R15*%
X68866000Y-122882000D03*
X70866000Y-122882000D03*
%TD*%
%TO.C,R12*%
X91567000Y-123522000D03*
X93567000Y-123522000D03*
%TD*%
D12*
%TO.C,C1*%
X102997000Y-115151000D03*
X100922000Y-115151000D03*
%TD*%
D13*
%TO.C,K4*%
X140406000Y-89162000D03*
X140406000Y-86962000D03*
X140406000Y-91362000D03*
X133406000Y-89162000D03*
X133406000Y-86962000D03*
X133406000Y-91362000D03*
X140406000Y-83762000D03*
X133406000Y-83762000D03*
%TD*%
D12*
%TO.C,C8*%
X126894500Y-94196000D03*
X124819500Y-94196000D03*
%TD*%
D14*
%TO.C,U6*%
X100678000Y-118453000D03*
X100678000Y-119403000D03*
X100678000Y-120353000D03*
X103378000Y-120353000D03*
X103378000Y-119403000D03*
X103378000Y-118453000D03*
%TD*%
D12*
%TO.C,C7*%
X108204000Y-83655000D03*
X106129000Y-83655000D03*
%TD*%
D10*
%TO.C,R7*%
X91567000Y-106932000D03*
X93567000Y-106932000D03*
%TD*%
%TO.C,R14*%
X91567000Y-119387000D03*
X93567000Y-119387000D03*
%TD*%
%TO.C,R1*%
X117253000Y-83909000D03*
X119253000Y-83909000D03*
%TD*%
D15*
%TO.C,MH03*%
X133676000Y-128952000D03*
%TD*%
D16*
%TO.C,C6*%
X110109000Y-83655000D03*
X112184000Y-83655000D03*
%TD*%
D17*
%TO.C,C4*%
X110236000Y-93053000D03*
X110236000Y-95128000D03*
%TD*%
D15*
%TO.C,MH06*%
X103196000Y-128952000D03*
%TD*%
D13*
%TO.C,K6*%
X161361000Y-89162000D03*
X161361000Y-86962000D03*
X161361000Y-91362000D03*
X154361000Y-89162000D03*
X154361000Y-86962000D03*
X154361000Y-91362000D03*
X161361000Y-83762000D03*
X154361000Y-83762000D03*
%TD*%
D10*
%TO.C,R8*%
X91567000Y-100836000D03*
X93567000Y-100836000D03*
%TD*%
D17*
%TO.C,C5*%
X107696000Y-93053000D03*
X107696000Y-95128000D03*
%TD*%
D15*
%TO.C,MH05*%
X113356000Y-128952000D03*
%TD*%
D13*
%TO.C,K5*%
X150891000Y-89162000D03*
X150891000Y-86962000D03*
X150891000Y-91362000D03*
X143891000Y-89162000D03*
X143891000Y-86962000D03*
X143891000Y-91362000D03*
X150891000Y-83762000D03*
X143891000Y-83762000D03*
%TD*%
D18*
%TO.C,D6*%
X97665000Y-102868000D03*
X95615000Y-102868000D03*
%TD*%
D11*
%TO.C,R16*%
X66421000Y-122882000D03*
X64421000Y-122882000D03*
%TD*%
D19*
%TO.C,U7*%
X105714000Y-86181000D03*
X105714000Y-88481000D03*
D20*
X112014000Y-88481000D03*
D19*
X105714000Y-90781000D03*
%TD*%
D10*
%TO.C,R17*%
X91583000Y-102868000D03*
X93583000Y-102868000D03*
%TD*%
D18*
%TO.C,D3*%
X97647000Y-115187000D03*
X95597000Y-115187000D03*
%TD*%
D11*
%TO.C,R11*%
X93567000Y-121487000D03*
X91567000Y-121487000D03*
%TD*%
D15*
%TO.C,MH09*%
X72716000Y-128952000D03*
%TD*%
D14*
%TO.C,U1*%
X100805000Y-111214000D03*
X100805000Y-112164000D03*
X100805000Y-113114000D03*
X103505000Y-113114000D03*
X103505000Y-112164000D03*
X103505000Y-111214000D03*
%TD*%
D15*
%TO.C,MH08*%
X82876000Y-128952000D03*
%TD*%
D21*
%TO.C,J1*%
X97409000Y-85941000D03*
D22*
X99159000Y-97371000D03*
X93909000Y-85941000D03*
X95659000Y-97371000D03*
X90409000Y-85941000D03*
X92159000Y-97371000D03*
X86909000Y-85941000D03*
X88659000Y-97371000D03*
X83409000Y-85941000D03*
X85159000Y-97371000D03*
X79909000Y-85941000D03*
X81659000Y-97371000D03*
X76409000Y-85941000D03*
X78159000Y-97371000D03*
X72909000Y-85941000D03*
X74659000Y-97371000D03*
X69409000Y-85941000D03*
X71159000Y-97371000D03*
X65909000Y-85941000D03*
X67659000Y-97371000D03*
%TD*%
D15*
%TO.C,MH04*%
X123516000Y-128952000D03*
%TD*%
D23*
%TO.C,U4*%
X66421000Y-118707000D03*
D24*
X68961000Y-118707000D03*
X71501000Y-118707000D03*
X74041000Y-118707000D03*
X76581000Y-118707000D03*
X79121000Y-118707000D03*
X81661000Y-118707000D03*
X84201000Y-118707000D03*
X84201000Y-103467000D03*
X81661000Y-103467000D03*
X79121000Y-103467000D03*
X76581000Y-103467000D03*
X74041000Y-103467000D03*
X71501000Y-103467000D03*
X68961000Y-103467000D03*
X66421000Y-103467000D03*
%TD*%
D25*
%TO.C,K3*%
X139256000Y-95522000D03*
X137056000Y-95522000D03*
X141456000Y-95522000D03*
X139256000Y-102522000D03*
X137056000Y-102522000D03*
X141456000Y-102522000D03*
X133856000Y-95522000D03*
X133856000Y-102522000D03*
%TD*%
D21*
%TO.C,J2*%
X158496000Y-118582000D03*
D22*
X147066000Y-120332000D03*
X158496000Y-115082000D03*
X147066000Y-116832000D03*
X158496000Y-111582000D03*
X147066000Y-113332000D03*
X158496000Y-108082000D03*
X147066000Y-109832000D03*
X158496000Y-104582000D03*
X147066000Y-106332000D03*
X158496000Y-101082000D03*
X147066000Y-102832000D03*
X158496000Y-97582000D03*
X147066000Y-99332000D03*
%TD*%
D18*
%TO.C,D4*%
X97647000Y-111087000D03*
X95597000Y-111087000D03*
%TD*%
D26*
%TO.C,SW1*%
X116078000Y-94399000D03*
X116078000Y-86449000D03*
X120578000Y-94399000D03*
X120578000Y-86449000D03*
%TD*%
D25*
%TO.C,K2*%
X139256000Y-105992000D03*
X137056000Y-105992000D03*
X141456000Y-105992000D03*
X139256000Y-112992000D03*
X137056000Y-112992000D03*
X141456000Y-112992000D03*
X133856000Y-105992000D03*
X133856000Y-112992000D03*
%TD*%
D18*
%TO.C,D2*%
X97647000Y-119387000D03*
X95597000Y-119387000D03*
%TD*%
D12*
%TO.C,C3*%
X102997000Y-122517000D03*
X100922000Y-122517000D03*
%TD*%
D18*
%TO.C,D1*%
X97647000Y-123522000D03*
X95597000Y-123522000D03*
%TD*%
D10*
%TO.C,R6*%
X91567000Y-104900000D03*
X93567000Y-104900000D03*
%TD*%
D15*
%TO.C,MH07*%
X93036000Y-128952000D03*
%TD*%
%TO.C,MH01*%
X153996000Y-128952000D03*
%TD*%
D11*
%TO.C,R9*%
X81391000Y-122882000D03*
X79391000Y-122882000D03*
%TD*%
D18*
%TO.C,D5*%
X97647000Y-106932000D03*
X95597000Y-106932000D03*
%TD*%
D27*
%TO.C,U5*%
X114681000Y-98356500D03*
D28*
X117221000Y-98356500D03*
X119761000Y-98356500D03*
X122301000Y-98356500D03*
%TD*%
D15*
%TO.C,MH02*%
X143836000Y-128952000D03*
%TD*%
D29*
%TO.C,U2*%
X123701000Y-83147000D03*
X123701000Y-84417000D03*
X123701000Y-85687000D03*
X123701000Y-86957000D03*
X123701000Y-88227000D03*
X123701000Y-89497000D03*
X123701000Y-90767000D03*
X123701000Y-92037000D03*
X128651000Y-92037000D03*
X128651000Y-90767000D03*
X128651000Y-89497000D03*
X128651000Y-88227000D03*
X128651000Y-86957000D03*
X128651000Y-85687000D03*
X128651000Y-84417000D03*
X128651000Y-83147000D03*
%TD*%
D11*
%TO.C,R13*%
X93567000Y-117287000D03*
X91567000Y-117287000D03*
%TD*%
D10*
%TO.C,R5*%
X91567000Y-111087000D03*
X93567000Y-111087000D03*
%TD*%
D25*
%TO.C,K1*%
X139256000Y-116152000D03*
X137056000Y-116152000D03*
X141456000Y-116152000D03*
X139256000Y-123152000D03*
X137056000Y-123152000D03*
X141456000Y-123152000D03*
X133856000Y-116152000D03*
X133856000Y-123152000D03*
%TD*%
D14*
%TO.C,U3*%
X100678000Y-104102000D03*
X100678000Y-105052000D03*
X100678000Y-106002000D03*
X103378000Y-106002000D03*
X103378000Y-105052000D03*
X103378000Y-104102000D03*
%TD*%
D18*
%TO.C,D7*%
X75311000Y-122882000D03*
X73261000Y-122882000D03*
%TD*%
D10*
%TO.C,R4*%
X91567000Y-58987000D03*
X93567000Y-58987000D03*
%TD*%
%TO.C,R3*%
X91567000Y-65187000D03*
X93567000Y-65187000D03*
%TD*%
%TO.C,R2*%
X91567000Y-63087000D03*
X93567000Y-63087000D03*
%TD*%
D11*
%TO.C,R10*%
X85201000Y-72882000D03*
X83201000Y-72882000D03*
%TD*%
D12*
%TO.C,C2*%
X103124000Y-58039000D03*
X101049000Y-58039000D03*
%TD*%
D10*
%TO.C,R15*%
X68866000Y-72882000D03*
X70866000Y-72882000D03*
%TD*%
%TO.C,R12*%
X91567000Y-73522000D03*
X93567000Y-73522000D03*
%TD*%
D12*
%TO.C,C1*%
X102997000Y-65151000D03*
X100922000Y-65151000D03*
%TD*%
D13*
%TO.C,K4*%
X140406000Y-39162000D03*
X140406000Y-36962000D03*
X140406000Y-41362000D03*
X133406000Y-39162000D03*
X133406000Y-36962000D03*
X133406000Y-41362000D03*
X140406000Y-33762000D03*
X133406000Y-33762000D03*
%TD*%
D12*
%TO.C,C8*%
X126894500Y-44196000D03*
X124819500Y-44196000D03*
%TD*%
D14*
%TO.C,U6*%
X100678000Y-68453000D03*
X100678000Y-69403000D03*
X100678000Y-70353000D03*
X103378000Y-70353000D03*
X103378000Y-69403000D03*
X103378000Y-68453000D03*
%TD*%
D12*
%TO.C,C7*%
X108204000Y-33655000D03*
X106129000Y-33655000D03*
%TD*%
D10*
%TO.C,R7*%
X91567000Y-56932000D03*
X93567000Y-56932000D03*
%TD*%
%TO.C,R14*%
X91567000Y-69387000D03*
X93567000Y-69387000D03*
%TD*%
%TO.C,R1*%
X117253000Y-33909000D03*
X119253000Y-33909000D03*
%TD*%
D15*
%TO.C,MH03*%
X133676000Y-78952000D03*
%TD*%
D16*
%TO.C,C6*%
X110109000Y-33655000D03*
X112184000Y-33655000D03*
%TD*%
D17*
%TO.C,C4*%
X110236000Y-43053000D03*
X110236000Y-45128000D03*
%TD*%
D15*
%TO.C,MH06*%
X103196000Y-78952000D03*
%TD*%
D13*
%TO.C,K6*%
X161361000Y-39162000D03*
X161361000Y-36962000D03*
X161361000Y-41362000D03*
X154361000Y-39162000D03*
X154361000Y-36962000D03*
X154361000Y-41362000D03*
X161361000Y-33762000D03*
X154361000Y-33762000D03*
%TD*%
D10*
%TO.C,R8*%
X91567000Y-50836000D03*
X93567000Y-50836000D03*
%TD*%
D17*
%TO.C,C5*%
X107696000Y-43053000D03*
X107696000Y-45128000D03*
%TD*%
D15*
%TO.C,MH05*%
X113356000Y-78952000D03*
%TD*%
D13*
%TO.C,K5*%
X150891000Y-39162000D03*
X150891000Y-36962000D03*
X150891000Y-41362000D03*
X143891000Y-39162000D03*
X143891000Y-36962000D03*
X143891000Y-41362000D03*
X150891000Y-33762000D03*
X143891000Y-33762000D03*
%TD*%
D18*
%TO.C,D6*%
X97665000Y-52868000D03*
X95615000Y-52868000D03*
%TD*%
D11*
%TO.C,R16*%
X66421000Y-72882000D03*
X64421000Y-72882000D03*
%TD*%
D19*
%TO.C,U7*%
X105714000Y-36181000D03*
X105714000Y-38481000D03*
D20*
X112014000Y-38481000D03*
D19*
X105714000Y-40781000D03*
%TD*%
D10*
%TO.C,R17*%
X91583000Y-52868000D03*
X93583000Y-52868000D03*
%TD*%
D18*
%TO.C,D3*%
X97647000Y-65187000D03*
X95597000Y-65187000D03*
%TD*%
D11*
%TO.C,R11*%
X93567000Y-71487000D03*
X91567000Y-71487000D03*
%TD*%
D15*
%TO.C,MH09*%
X72716000Y-78952000D03*
%TD*%
D14*
%TO.C,U1*%
X100805000Y-61214000D03*
X100805000Y-62164000D03*
X100805000Y-63114000D03*
X103505000Y-63114000D03*
X103505000Y-62164000D03*
X103505000Y-61214000D03*
%TD*%
D15*
%TO.C,MH08*%
X82876000Y-78952000D03*
%TD*%
D21*
%TO.C,J1*%
X97409000Y-35941000D03*
D22*
X99159000Y-47371000D03*
X93909000Y-35941000D03*
X95659000Y-47371000D03*
X90409000Y-35941000D03*
X92159000Y-47371000D03*
X86909000Y-35941000D03*
X88659000Y-47371000D03*
X83409000Y-35941000D03*
X85159000Y-47371000D03*
X79909000Y-35941000D03*
X81659000Y-47371000D03*
X76409000Y-35941000D03*
X78159000Y-47371000D03*
X72909000Y-35941000D03*
X74659000Y-47371000D03*
X69409000Y-35941000D03*
X71159000Y-47371000D03*
X65909000Y-35941000D03*
X67659000Y-47371000D03*
%TD*%
D15*
%TO.C,MH04*%
X123516000Y-78952000D03*
%TD*%
D23*
%TO.C,U4*%
X66421000Y-68707000D03*
D24*
X68961000Y-68707000D03*
X71501000Y-68707000D03*
X74041000Y-68707000D03*
X76581000Y-68707000D03*
X79121000Y-68707000D03*
X81661000Y-68707000D03*
X84201000Y-68707000D03*
X84201000Y-53467000D03*
X81661000Y-53467000D03*
X79121000Y-53467000D03*
X76581000Y-53467000D03*
X74041000Y-53467000D03*
X71501000Y-53467000D03*
X68961000Y-53467000D03*
X66421000Y-53467000D03*
%TD*%
D25*
%TO.C,K3*%
X139256000Y-45522000D03*
X137056000Y-45522000D03*
X141456000Y-45522000D03*
X139256000Y-52522000D03*
X137056000Y-52522000D03*
X141456000Y-52522000D03*
X133856000Y-45522000D03*
X133856000Y-52522000D03*
%TD*%
D21*
%TO.C,J2*%
X158496000Y-68582000D03*
D22*
X147066000Y-70332000D03*
X158496000Y-65082000D03*
X147066000Y-66832000D03*
X158496000Y-61582000D03*
X147066000Y-63332000D03*
X158496000Y-58082000D03*
X147066000Y-59832000D03*
X158496000Y-54582000D03*
X147066000Y-56332000D03*
X158496000Y-51082000D03*
X147066000Y-52832000D03*
X158496000Y-47582000D03*
X147066000Y-49332000D03*
%TD*%
D18*
%TO.C,D4*%
X97647000Y-61087000D03*
X95597000Y-61087000D03*
%TD*%
D26*
%TO.C,SW1*%
X116078000Y-44399000D03*
X116078000Y-36449000D03*
X120578000Y-44399000D03*
X120578000Y-36449000D03*
%TD*%
D25*
%TO.C,K2*%
X139256000Y-55992000D03*
X137056000Y-55992000D03*
X141456000Y-55992000D03*
X139256000Y-62992000D03*
X137056000Y-62992000D03*
X141456000Y-62992000D03*
X133856000Y-55992000D03*
X133856000Y-62992000D03*
%TD*%
D18*
%TO.C,D2*%
X97647000Y-69387000D03*
X95597000Y-69387000D03*
%TD*%
D12*
%TO.C,C3*%
X102997000Y-72517000D03*
X100922000Y-72517000D03*
%TD*%
D18*
%TO.C,D1*%
X97647000Y-73522000D03*
X95597000Y-73522000D03*
%TD*%
D10*
%TO.C,R6*%
X91567000Y-54900000D03*
X93567000Y-54900000D03*
%TD*%
D15*
%TO.C,MH07*%
X93036000Y-78952000D03*
%TD*%
%TO.C,MH01*%
X153996000Y-78952000D03*
%TD*%
D11*
%TO.C,R9*%
X81391000Y-72882000D03*
X79391000Y-72882000D03*
%TD*%
D18*
%TO.C,D5*%
X97647000Y-56932000D03*
X95597000Y-56932000D03*
%TD*%
D27*
%TO.C,U5*%
X114681000Y-48356500D03*
D28*
X117221000Y-48356500D03*
X119761000Y-48356500D03*
X122301000Y-48356500D03*
%TD*%
D15*
%TO.C,MH02*%
X143836000Y-78952000D03*
%TD*%
D29*
%TO.C,U2*%
X123701000Y-33147000D03*
X123701000Y-34417000D03*
X123701000Y-35687000D03*
X123701000Y-36957000D03*
X123701000Y-38227000D03*
X123701000Y-39497000D03*
X123701000Y-40767000D03*
X123701000Y-42037000D03*
X128651000Y-42037000D03*
X128651000Y-40767000D03*
X128651000Y-39497000D03*
X128651000Y-38227000D03*
X128651000Y-36957000D03*
X128651000Y-35687000D03*
X128651000Y-34417000D03*
X128651000Y-33147000D03*
%TD*%
D11*
%TO.C,R13*%
X93567000Y-67287000D03*
X91567000Y-67287000D03*
%TD*%
D10*
%TO.C,R5*%
X91567000Y-61087000D03*
X93567000Y-61087000D03*
%TD*%
D25*
%TO.C,K1*%
X139256000Y-66152000D03*
X137056000Y-66152000D03*
X141456000Y-66152000D03*
X139256000Y-73152000D03*
X137056000Y-73152000D03*
X141456000Y-73152000D03*
X133856000Y-66152000D03*
X133856000Y-73152000D03*
%TD*%
D14*
%TO.C,U3*%
X100678000Y-54102000D03*
X100678000Y-55052000D03*
X100678000Y-56002000D03*
X103378000Y-56002000D03*
X103378000Y-55052000D03*
X103378000Y-54102000D03*
%TD*%
D18*
%TO.C,D7*%
X75311000Y-72882000D03*
X73261000Y-72882000D03*
%TD*%
D10*
%TO.C,R4*%
X91567000Y-58987000D03*
X93567000Y-58987000D03*
%TD*%
%TO.C,R3*%
X91567000Y-65187000D03*
X93567000Y-65187000D03*
%TD*%
%TO.C,R2*%
X91567000Y-63087000D03*
X93567000Y-63087000D03*
%TD*%
D11*
%TO.C,R10*%
X85201000Y-72882000D03*
X83201000Y-72882000D03*
%TD*%
D12*
%TO.C,C2*%
X103124000Y-58039000D03*
X101049000Y-58039000D03*
%TD*%
D10*
%TO.C,R15*%
X68866000Y-72882000D03*
X70866000Y-72882000D03*
%TD*%
%TO.C,R12*%
X91567000Y-73522000D03*
X93567000Y-73522000D03*
%TD*%
D12*
%TO.C,C1*%
X102997000Y-65151000D03*
X100922000Y-65151000D03*
%TD*%
D13*
%TO.C,K4*%
X140406000Y-39162000D03*
X140406000Y-36962000D03*
X140406000Y-41362000D03*
X133406000Y-39162000D03*
X133406000Y-36962000D03*
X133406000Y-41362000D03*
X140406000Y-33762000D03*
X133406000Y-33762000D03*
%TD*%
D12*
%TO.C,C8*%
X126894500Y-44196000D03*
X124819500Y-44196000D03*
%TD*%
D14*
%TO.C,U6*%
X100678000Y-68453000D03*
X100678000Y-69403000D03*
X100678000Y-70353000D03*
X103378000Y-70353000D03*
X103378000Y-69403000D03*
X103378000Y-68453000D03*
%TD*%
D12*
%TO.C,C7*%
X108204000Y-33655000D03*
X106129000Y-33655000D03*
%TD*%
D10*
%TO.C,R7*%
X91567000Y-56932000D03*
X93567000Y-56932000D03*
%TD*%
%TO.C,R14*%
X91567000Y-69387000D03*
X93567000Y-69387000D03*
%TD*%
%TO.C,R1*%
X117253000Y-33909000D03*
X119253000Y-33909000D03*
%TD*%
D15*
%TO.C,MH03*%
X133676000Y-78952000D03*
%TD*%
D16*
%TO.C,C6*%
X110109000Y-33655000D03*
X112184000Y-33655000D03*
%TD*%
D17*
%TO.C,C4*%
X110236000Y-43053000D03*
X110236000Y-45128000D03*
%TD*%
D15*
%TO.C,MH06*%
X103196000Y-78952000D03*
%TD*%
D13*
%TO.C,K6*%
X161361000Y-39162000D03*
X161361000Y-36962000D03*
X161361000Y-41362000D03*
X154361000Y-39162000D03*
X154361000Y-36962000D03*
X154361000Y-41362000D03*
X161361000Y-33762000D03*
X154361000Y-33762000D03*
%TD*%
D10*
%TO.C,R8*%
X91567000Y-50836000D03*
X93567000Y-50836000D03*
%TD*%
D17*
%TO.C,C5*%
X107696000Y-43053000D03*
X107696000Y-45128000D03*
%TD*%
D15*
%TO.C,MH05*%
X113356000Y-78952000D03*
%TD*%
D13*
%TO.C,K5*%
X150891000Y-39162000D03*
X150891000Y-36962000D03*
X150891000Y-41362000D03*
X143891000Y-39162000D03*
X143891000Y-36962000D03*
X143891000Y-41362000D03*
X150891000Y-33762000D03*
X143891000Y-33762000D03*
%TD*%
D18*
%TO.C,D6*%
X97665000Y-52868000D03*
X95615000Y-52868000D03*
%TD*%
D11*
%TO.C,R16*%
X66421000Y-72882000D03*
X64421000Y-72882000D03*
%TD*%
D19*
%TO.C,U7*%
X105714000Y-36181000D03*
X105714000Y-38481000D03*
D20*
X112014000Y-38481000D03*
D19*
X105714000Y-40781000D03*
%TD*%
D10*
%TO.C,R17*%
X91583000Y-52868000D03*
X93583000Y-52868000D03*
%TD*%
D18*
%TO.C,D3*%
X97647000Y-65187000D03*
X95597000Y-65187000D03*
%TD*%
D11*
%TO.C,R11*%
X93567000Y-71487000D03*
X91567000Y-71487000D03*
%TD*%
D15*
%TO.C,MH09*%
X72716000Y-78952000D03*
%TD*%
D14*
%TO.C,U1*%
X100805000Y-61214000D03*
X100805000Y-62164000D03*
X100805000Y-63114000D03*
X103505000Y-63114000D03*
X103505000Y-62164000D03*
X103505000Y-61214000D03*
%TD*%
D15*
%TO.C,MH08*%
X82876000Y-78952000D03*
%TD*%
D21*
%TO.C,J1*%
X97409000Y-35941000D03*
D22*
X99159000Y-47371000D03*
X93909000Y-35941000D03*
X95659000Y-47371000D03*
X90409000Y-35941000D03*
X92159000Y-47371000D03*
X86909000Y-35941000D03*
X88659000Y-47371000D03*
X83409000Y-35941000D03*
X85159000Y-47371000D03*
X79909000Y-35941000D03*
X81659000Y-47371000D03*
X76409000Y-35941000D03*
X78159000Y-47371000D03*
X72909000Y-35941000D03*
X74659000Y-47371000D03*
X69409000Y-35941000D03*
X71159000Y-47371000D03*
X65909000Y-35941000D03*
X67659000Y-47371000D03*
%TD*%
D15*
%TO.C,MH04*%
X123516000Y-78952000D03*
%TD*%
D23*
%TO.C,U4*%
X66421000Y-68707000D03*
D24*
X68961000Y-68707000D03*
X71501000Y-68707000D03*
X74041000Y-68707000D03*
X76581000Y-68707000D03*
X79121000Y-68707000D03*
X81661000Y-68707000D03*
X84201000Y-68707000D03*
X84201000Y-53467000D03*
X81661000Y-53467000D03*
X79121000Y-53467000D03*
X76581000Y-53467000D03*
X74041000Y-53467000D03*
X71501000Y-53467000D03*
X68961000Y-53467000D03*
X66421000Y-53467000D03*
%TD*%
D25*
%TO.C,K3*%
X139256000Y-45522000D03*
X137056000Y-45522000D03*
X141456000Y-45522000D03*
X139256000Y-52522000D03*
X137056000Y-52522000D03*
X141456000Y-52522000D03*
X133856000Y-45522000D03*
X133856000Y-52522000D03*
%TD*%
D21*
%TO.C,J2*%
X158496000Y-68582000D03*
D22*
X147066000Y-70332000D03*
X158496000Y-65082000D03*
X147066000Y-66832000D03*
X158496000Y-61582000D03*
X147066000Y-63332000D03*
X158496000Y-58082000D03*
X147066000Y-59832000D03*
X158496000Y-54582000D03*
X147066000Y-56332000D03*
X158496000Y-51082000D03*
X147066000Y-52832000D03*
X158496000Y-47582000D03*
X147066000Y-49332000D03*
%TD*%
D18*
%TO.C,D4*%
X97647000Y-61087000D03*
X95597000Y-61087000D03*
%TD*%
D26*
%TO.C,SW1*%
X116078000Y-44399000D03*
X116078000Y-36449000D03*
X120578000Y-44399000D03*
X120578000Y-36449000D03*
%TD*%
D25*
%TO.C,K2*%
X139256000Y-55992000D03*
X137056000Y-55992000D03*
X141456000Y-55992000D03*
X139256000Y-62992000D03*
X137056000Y-62992000D03*
X141456000Y-62992000D03*
X133856000Y-55992000D03*
X133856000Y-62992000D03*
%TD*%
D18*
%TO.C,D2*%
X97647000Y-69387000D03*
X95597000Y-69387000D03*
%TD*%
D12*
%TO.C,C3*%
X102997000Y-72517000D03*
X100922000Y-72517000D03*
%TD*%
D18*
%TO.C,D1*%
X97647000Y-73522000D03*
X95597000Y-73522000D03*
%TD*%
D10*
%TO.C,R6*%
X91567000Y-54900000D03*
X93567000Y-54900000D03*
%TD*%
D15*
%TO.C,MH07*%
X93036000Y-78952000D03*
%TD*%
%TO.C,MH01*%
X153996000Y-78952000D03*
%TD*%
D11*
%TO.C,R9*%
X81391000Y-72882000D03*
X79391000Y-72882000D03*
%TD*%
D18*
%TO.C,D5*%
X97647000Y-56932000D03*
X95597000Y-56932000D03*
%TD*%
D27*
%TO.C,U5*%
X114681000Y-48356500D03*
D28*
X117221000Y-48356500D03*
X119761000Y-48356500D03*
X122301000Y-48356500D03*
%TD*%
D15*
%TO.C,MH02*%
X143836000Y-78952000D03*
%TD*%
D29*
%TO.C,U2*%
X123701000Y-33147000D03*
X123701000Y-34417000D03*
X123701000Y-35687000D03*
X123701000Y-36957000D03*
X123701000Y-38227000D03*
X123701000Y-39497000D03*
X123701000Y-40767000D03*
X123701000Y-42037000D03*
X128651000Y-42037000D03*
X128651000Y-40767000D03*
X128651000Y-39497000D03*
X128651000Y-38227000D03*
X128651000Y-36957000D03*
X128651000Y-35687000D03*
X128651000Y-34417000D03*
X128651000Y-33147000D03*
%TD*%
D11*
%TO.C,R13*%
X93567000Y-67287000D03*
X91567000Y-67287000D03*
%TD*%
D10*
%TO.C,R5*%
X91567000Y-61087000D03*
X93567000Y-61087000D03*
%TD*%
D25*
%TO.C,K1*%
X139256000Y-66152000D03*
X137056000Y-66152000D03*
X141456000Y-66152000D03*
X139256000Y-73152000D03*
X137056000Y-73152000D03*
X141456000Y-73152000D03*
X133856000Y-66152000D03*
X133856000Y-73152000D03*
%TD*%
D14*
%TO.C,U3*%
X100678000Y-54102000D03*
X100678000Y-55052000D03*
X100678000Y-56002000D03*
X103378000Y-56002000D03*
X103378000Y-55052000D03*
X103378000Y-54102000D03*
%TD*%
D18*
%TO.C,D7*%
X75311000Y-72882000D03*
X73261000Y-72882000D03*
%TD*%
D10*
%TO.C,R4*%
X91567000Y-58987000D03*
X93567000Y-58987000D03*
%TD*%
%TO.C,R3*%
X91567000Y-65187000D03*
X93567000Y-65187000D03*
%TD*%
%TO.C,R2*%
X91567000Y-63087000D03*
X93567000Y-63087000D03*
%TD*%
D11*
%TO.C,R10*%
X85201000Y-72882000D03*
X83201000Y-72882000D03*
%TD*%
D12*
%TO.C,C2*%
X103124000Y-58039000D03*
X101049000Y-58039000D03*
%TD*%
D10*
%TO.C,R15*%
X68866000Y-72882000D03*
X70866000Y-72882000D03*
%TD*%
%TO.C,R12*%
X91567000Y-73522000D03*
X93567000Y-73522000D03*
%TD*%
D12*
%TO.C,C1*%
X102997000Y-65151000D03*
X100922000Y-65151000D03*
%TD*%
D13*
%TO.C,K4*%
X140406000Y-39162000D03*
X140406000Y-36962000D03*
X140406000Y-41362000D03*
X133406000Y-39162000D03*
X133406000Y-36962000D03*
X133406000Y-41362000D03*
X140406000Y-33762000D03*
X133406000Y-33762000D03*
%TD*%
D12*
%TO.C,C8*%
X126894500Y-44196000D03*
X124819500Y-44196000D03*
%TD*%
D14*
%TO.C,U6*%
X100678000Y-68453000D03*
X100678000Y-69403000D03*
X100678000Y-70353000D03*
X103378000Y-70353000D03*
X103378000Y-69403000D03*
X103378000Y-68453000D03*
%TD*%
D12*
%TO.C,C7*%
X108204000Y-33655000D03*
X106129000Y-33655000D03*
%TD*%
D10*
%TO.C,R7*%
X91567000Y-56932000D03*
X93567000Y-56932000D03*
%TD*%
%TO.C,R14*%
X91567000Y-69387000D03*
X93567000Y-69387000D03*
%TD*%
%TO.C,R1*%
X117253000Y-33909000D03*
X119253000Y-33909000D03*
%TD*%
D15*
%TO.C,MH03*%
X133676000Y-78952000D03*
%TD*%
D16*
%TO.C,C6*%
X110109000Y-33655000D03*
X112184000Y-33655000D03*
%TD*%
D17*
%TO.C,C4*%
X110236000Y-43053000D03*
X110236000Y-45128000D03*
%TD*%
D15*
%TO.C,MH06*%
X103196000Y-78952000D03*
%TD*%
D13*
%TO.C,K6*%
X161361000Y-39162000D03*
X161361000Y-36962000D03*
X161361000Y-41362000D03*
X154361000Y-39162000D03*
X154361000Y-36962000D03*
X154361000Y-41362000D03*
X161361000Y-33762000D03*
X154361000Y-33762000D03*
%TD*%
D10*
%TO.C,R8*%
X91567000Y-50836000D03*
X93567000Y-50836000D03*
%TD*%
D17*
%TO.C,C5*%
X107696000Y-43053000D03*
X107696000Y-45128000D03*
%TD*%
D15*
%TO.C,MH05*%
X113356000Y-78952000D03*
%TD*%
D13*
%TO.C,K5*%
X150891000Y-39162000D03*
X150891000Y-36962000D03*
X150891000Y-41362000D03*
X143891000Y-39162000D03*
X143891000Y-36962000D03*
X143891000Y-41362000D03*
X150891000Y-33762000D03*
X143891000Y-33762000D03*
%TD*%
D18*
%TO.C,D6*%
X97665000Y-52868000D03*
X95615000Y-52868000D03*
%TD*%
D11*
%TO.C,R16*%
X66421000Y-72882000D03*
X64421000Y-72882000D03*
%TD*%
D19*
%TO.C,U7*%
X105714000Y-36181000D03*
X105714000Y-38481000D03*
D20*
X112014000Y-38481000D03*
D19*
X105714000Y-40781000D03*
%TD*%
D10*
%TO.C,R17*%
X91583000Y-52868000D03*
X93583000Y-52868000D03*
%TD*%
D18*
%TO.C,D3*%
X97647000Y-65187000D03*
X95597000Y-65187000D03*
%TD*%
D11*
%TO.C,R11*%
X93567000Y-71487000D03*
X91567000Y-71487000D03*
%TD*%
D15*
%TO.C,MH09*%
X72716000Y-78952000D03*
%TD*%
D14*
%TO.C,U1*%
X100805000Y-61214000D03*
X100805000Y-62164000D03*
X100805000Y-63114000D03*
X103505000Y-63114000D03*
X103505000Y-62164000D03*
X103505000Y-61214000D03*
%TD*%
D15*
%TO.C,MH08*%
X82876000Y-78952000D03*
%TD*%
D21*
%TO.C,J1*%
X97409000Y-35941000D03*
D22*
X99159000Y-47371000D03*
X93909000Y-35941000D03*
X95659000Y-47371000D03*
X90409000Y-35941000D03*
X92159000Y-47371000D03*
X86909000Y-35941000D03*
X88659000Y-47371000D03*
X83409000Y-35941000D03*
X85159000Y-47371000D03*
X79909000Y-35941000D03*
X81659000Y-47371000D03*
X76409000Y-35941000D03*
X78159000Y-47371000D03*
X72909000Y-35941000D03*
X74659000Y-47371000D03*
X69409000Y-35941000D03*
X71159000Y-47371000D03*
X65909000Y-35941000D03*
X67659000Y-47371000D03*
%TD*%
D15*
%TO.C,MH04*%
X123516000Y-78952000D03*
%TD*%
D23*
%TO.C,U4*%
X66421000Y-68707000D03*
D24*
X68961000Y-68707000D03*
X71501000Y-68707000D03*
X74041000Y-68707000D03*
X76581000Y-68707000D03*
X79121000Y-68707000D03*
X81661000Y-68707000D03*
X84201000Y-68707000D03*
X84201000Y-53467000D03*
X81661000Y-53467000D03*
X79121000Y-53467000D03*
X76581000Y-53467000D03*
X74041000Y-53467000D03*
X71501000Y-53467000D03*
X68961000Y-53467000D03*
X66421000Y-53467000D03*
%TD*%
D25*
%TO.C,K3*%
X139256000Y-45522000D03*
X137056000Y-45522000D03*
X141456000Y-45522000D03*
X139256000Y-52522000D03*
X137056000Y-52522000D03*
X141456000Y-52522000D03*
X133856000Y-45522000D03*
X133856000Y-52522000D03*
%TD*%
D21*
%TO.C,J2*%
X158496000Y-68582000D03*
D22*
X147066000Y-70332000D03*
X158496000Y-65082000D03*
X147066000Y-66832000D03*
X158496000Y-61582000D03*
X147066000Y-63332000D03*
X158496000Y-58082000D03*
X147066000Y-59832000D03*
X158496000Y-54582000D03*
X147066000Y-56332000D03*
X158496000Y-51082000D03*
X147066000Y-52832000D03*
X158496000Y-47582000D03*
X147066000Y-49332000D03*
%TD*%
D18*
%TO.C,D4*%
X97647000Y-61087000D03*
X95597000Y-61087000D03*
%TD*%
D26*
%TO.C,SW1*%
X116078000Y-44399000D03*
X116078000Y-36449000D03*
X120578000Y-44399000D03*
X120578000Y-36449000D03*
%TD*%
D25*
%TO.C,K2*%
X139256000Y-55992000D03*
X137056000Y-55992000D03*
X141456000Y-55992000D03*
X139256000Y-62992000D03*
X137056000Y-62992000D03*
X141456000Y-62992000D03*
X133856000Y-55992000D03*
X133856000Y-62992000D03*
%TD*%
D18*
%TO.C,D2*%
X97647000Y-69387000D03*
X95597000Y-69387000D03*
%TD*%
D12*
%TO.C,C3*%
X102997000Y-72517000D03*
X100922000Y-72517000D03*
%TD*%
D18*
%TO.C,D1*%
X97647000Y-73522000D03*
X95597000Y-73522000D03*
%TD*%
D10*
%TO.C,R6*%
X91567000Y-54900000D03*
X93567000Y-54900000D03*
%TD*%
D15*
%TO.C,MH07*%
X93036000Y-78952000D03*
%TD*%
%TO.C,MH01*%
X153996000Y-78952000D03*
%TD*%
D11*
%TO.C,R9*%
X81391000Y-72882000D03*
X79391000Y-72882000D03*
%TD*%
D18*
%TO.C,D5*%
X97647000Y-56932000D03*
X95597000Y-56932000D03*
%TD*%
D27*
%TO.C,U5*%
X114681000Y-48356500D03*
D28*
X117221000Y-48356500D03*
X119761000Y-48356500D03*
X122301000Y-48356500D03*
%TD*%
D15*
%TO.C,MH02*%
X143836000Y-78952000D03*
%TD*%
D29*
%TO.C,U2*%
X123701000Y-33147000D03*
X123701000Y-34417000D03*
X123701000Y-35687000D03*
X123701000Y-36957000D03*
X123701000Y-38227000D03*
X123701000Y-39497000D03*
X123701000Y-40767000D03*
X123701000Y-42037000D03*
X128651000Y-42037000D03*
X128651000Y-40767000D03*
X128651000Y-39497000D03*
X128651000Y-38227000D03*
X128651000Y-36957000D03*
X128651000Y-35687000D03*
X128651000Y-34417000D03*
X128651000Y-33147000D03*
%TD*%
D11*
%TO.C,R13*%
X93567000Y-67287000D03*
X91567000Y-67287000D03*
%TD*%
D10*
%TO.C,R5*%
X91567000Y-61087000D03*
X93567000Y-61087000D03*
%TD*%
D25*
%TO.C,K1*%
X139256000Y-66152000D03*
X137056000Y-66152000D03*
X141456000Y-66152000D03*
X139256000Y-73152000D03*
X137056000Y-73152000D03*
X141456000Y-73152000D03*
X133856000Y-66152000D03*
X133856000Y-73152000D03*
%TD*%
D14*
%TO.C,U3*%
X100678000Y-54102000D03*
X100678000Y-55052000D03*
X100678000Y-56002000D03*
X103378000Y-56002000D03*
X103378000Y-55052000D03*
X103378000Y-54102000D03*
%TD*%
D18*
%TO.C,D7*%
X75311000Y-72882000D03*
X73261000Y-72882000D03*
%TD*%
D10*
%TO.C,R4*%
X91567000Y-58987000D03*
X93567000Y-58987000D03*
%TD*%
%TO.C,R3*%
X91567000Y-65187000D03*
X93567000Y-65187000D03*
%TD*%
%TO.C,R2*%
X91567000Y-63087000D03*
X93567000Y-63087000D03*
%TD*%
D11*
%TO.C,R10*%
X85201000Y-72882000D03*
X83201000Y-72882000D03*
%TD*%
D12*
%TO.C,C2*%
X103124000Y-58039000D03*
X101049000Y-58039000D03*
%TD*%
D10*
%TO.C,R15*%
X68866000Y-72882000D03*
X70866000Y-72882000D03*
%TD*%
%TO.C,R12*%
X91567000Y-73522000D03*
X93567000Y-73522000D03*
%TD*%
D12*
%TO.C,C1*%
X102997000Y-65151000D03*
X100922000Y-65151000D03*
%TD*%
D13*
%TO.C,K4*%
X140406000Y-39162000D03*
X140406000Y-36962000D03*
X140406000Y-41362000D03*
X133406000Y-39162000D03*
X133406000Y-36962000D03*
X133406000Y-41362000D03*
X140406000Y-33762000D03*
X133406000Y-33762000D03*
%TD*%
D12*
%TO.C,C8*%
X126894500Y-44196000D03*
X124819500Y-44196000D03*
%TD*%
D14*
%TO.C,U6*%
X100678000Y-68453000D03*
X100678000Y-69403000D03*
X100678000Y-70353000D03*
X103378000Y-70353000D03*
X103378000Y-69403000D03*
X103378000Y-68453000D03*
%TD*%
D12*
%TO.C,C7*%
X108204000Y-33655000D03*
X106129000Y-33655000D03*
%TD*%
D10*
%TO.C,R7*%
X91567000Y-56932000D03*
X93567000Y-56932000D03*
%TD*%
%TO.C,R14*%
X91567000Y-69387000D03*
X93567000Y-69387000D03*
%TD*%
%TO.C,R1*%
X117253000Y-33909000D03*
X119253000Y-33909000D03*
%TD*%
D15*
%TO.C,MH03*%
X133676000Y-78952000D03*
%TD*%
D16*
%TO.C,C6*%
X110109000Y-33655000D03*
X112184000Y-33655000D03*
%TD*%
D17*
%TO.C,C4*%
X110236000Y-43053000D03*
X110236000Y-45128000D03*
%TD*%
D15*
%TO.C,MH06*%
X103196000Y-78952000D03*
%TD*%
D13*
%TO.C,K6*%
X161361000Y-39162000D03*
X161361000Y-36962000D03*
X161361000Y-41362000D03*
X154361000Y-39162000D03*
X154361000Y-36962000D03*
X154361000Y-41362000D03*
X161361000Y-33762000D03*
X154361000Y-33762000D03*
%TD*%
D10*
%TO.C,R8*%
X91567000Y-50836000D03*
X93567000Y-50836000D03*
%TD*%
D17*
%TO.C,C5*%
X107696000Y-43053000D03*
X107696000Y-45128000D03*
%TD*%
D15*
%TO.C,MH05*%
X113356000Y-78952000D03*
%TD*%
D13*
%TO.C,K5*%
X150891000Y-39162000D03*
X150891000Y-36962000D03*
X150891000Y-41362000D03*
X143891000Y-39162000D03*
X143891000Y-36962000D03*
X143891000Y-41362000D03*
X150891000Y-33762000D03*
X143891000Y-33762000D03*
%TD*%
D18*
%TO.C,D6*%
X97665000Y-52868000D03*
X95615000Y-52868000D03*
%TD*%
D11*
%TO.C,R16*%
X66421000Y-72882000D03*
X64421000Y-72882000D03*
%TD*%
D19*
%TO.C,U7*%
X105714000Y-36181000D03*
X105714000Y-38481000D03*
D20*
X112014000Y-38481000D03*
D19*
X105714000Y-40781000D03*
%TD*%
D10*
%TO.C,R17*%
X91583000Y-52868000D03*
X93583000Y-52868000D03*
%TD*%
D18*
%TO.C,D3*%
X97647000Y-65187000D03*
X95597000Y-65187000D03*
%TD*%
D11*
%TO.C,R11*%
X93567000Y-71487000D03*
X91567000Y-71487000D03*
%TD*%
D15*
%TO.C,MH09*%
X72716000Y-78952000D03*
%TD*%
D14*
%TO.C,U1*%
X100805000Y-61214000D03*
X100805000Y-62164000D03*
X100805000Y-63114000D03*
X103505000Y-63114000D03*
X103505000Y-62164000D03*
X103505000Y-61214000D03*
%TD*%
D15*
%TO.C,MH08*%
X82876000Y-78952000D03*
%TD*%
D21*
%TO.C,J1*%
X97409000Y-35941000D03*
D22*
X99159000Y-47371000D03*
X93909000Y-35941000D03*
X95659000Y-47371000D03*
X90409000Y-35941000D03*
X92159000Y-47371000D03*
X86909000Y-35941000D03*
X88659000Y-47371000D03*
X83409000Y-35941000D03*
X85159000Y-47371000D03*
X79909000Y-35941000D03*
X81659000Y-47371000D03*
X76409000Y-35941000D03*
X78159000Y-47371000D03*
X72909000Y-35941000D03*
X74659000Y-47371000D03*
X69409000Y-35941000D03*
X71159000Y-47371000D03*
X65909000Y-35941000D03*
X67659000Y-47371000D03*
%TD*%
D15*
%TO.C,MH04*%
X123516000Y-78952000D03*
%TD*%
D23*
%TO.C,U4*%
X66421000Y-68707000D03*
D24*
X68961000Y-68707000D03*
X71501000Y-68707000D03*
X74041000Y-68707000D03*
X76581000Y-68707000D03*
X79121000Y-68707000D03*
X81661000Y-68707000D03*
X84201000Y-68707000D03*
X84201000Y-53467000D03*
X81661000Y-53467000D03*
X79121000Y-53467000D03*
X76581000Y-53467000D03*
X74041000Y-53467000D03*
X71501000Y-53467000D03*
X68961000Y-53467000D03*
X66421000Y-53467000D03*
%TD*%
D25*
%TO.C,K3*%
X139256000Y-45522000D03*
X137056000Y-45522000D03*
X141456000Y-45522000D03*
X139256000Y-52522000D03*
X137056000Y-52522000D03*
X141456000Y-52522000D03*
X133856000Y-45522000D03*
X133856000Y-52522000D03*
%TD*%
D21*
%TO.C,J2*%
X158496000Y-68582000D03*
D22*
X147066000Y-70332000D03*
X158496000Y-65082000D03*
X147066000Y-66832000D03*
X158496000Y-61582000D03*
X147066000Y-63332000D03*
X158496000Y-58082000D03*
X147066000Y-59832000D03*
X158496000Y-54582000D03*
X147066000Y-56332000D03*
X158496000Y-51082000D03*
X147066000Y-52832000D03*
X158496000Y-47582000D03*
X147066000Y-49332000D03*
%TD*%
D18*
%TO.C,D4*%
X97647000Y-61087000D03*
X95597000Y-61087000D03*
%TD*%
D26*
%TO.C,SW1*%
X116078000Y-44399000D03*
X116078000Y-36449000D03*
X120578000Y-44399000D03*
X120578000Y-36449000D03*
%TD*%
D25*
%TO.C,K2*%
X139256000Y-55992000D03*
X137056000Y-55992000D03*
X141456000Y-55992000D03*
X139256000Y-62992000D03*
X137056000Y-62992000D03*
X141456000Y-62992000D03*
X133856000Y-55992000D03*
X133856000Y-62992000D03*
%TD*%
D18*
%TO.C,D2*%
X97647000Y-69387000D03*
X95597000Y-69387000D03*
%TD*%
D12*
%TO.C,C3*%
X102997000Y-72517000D03*
X100922000Y-72517000D03*
%TD*%
D18*
%TO.C,D1*%
X97647000Y-73522000D03*
X95597000Y-73522000D03*
%TD*%
D10*
%TO.C,R6*%
X91567000Y-54900000D03*
X93567000Y-54900000D03*
%TD*%
D15*
%TO.C,MH07*%
X93036000Y-78952000D03*
%TD*%
%TO.C,MH01*%
X153996000Y-78952000D03*
%TD*%
D11*
%TO.C,R9*%
X81391000Y-72882000D03*
X79391000Y-72882000D03*
%TD*%
D18*
%TO.C,D5*%
X97647000Y-56932000D03*
X95597000Y-56932000D03*
%TD*%
D27*
%TO.C,U5*%
X114681000Y-48356500D03*
D28*
X117221000Y-48356500D03*
X119761000Y-48356500D03*
X122301000Y-48356500D03*
%TD*%
D15*
%TO.C,MH02*%
X143836000Y-78952000D03*
%TD*%
D29*
%TO.C,U2*%
X123701000Y-33147000D03*
X123701000Y-34417000D03*
X123701000Y-35687000D03*
X123701000Y-36957000D03*
X123701000Y-38227000D03*
X123701000Y-39497000D03*
X123701000Y-40767000D03*
X123701000Y-42037000D03*
X128651000Y-42037000D03*
X128651000Y-40767000D03*
X128651000Y-39497000D03*
X128651000Y-38227000D03*
X128651000Y-36957000D03*
X128651000Y-35687000D03*
X128651000Y-34417000D03*
X128651000Y-33147000D03*
%TD*%
D11*
%TO.C,R13*%
X93567000Y-67287000D03*
X91567000Y-67287000D03*
%TD*%
D10*
%TO.C,R5*%
X91567000Y-61087000D03*
X93567000Y-61087000D03*
%TD*%
D25*
%TO.C,K1*%
X139256000Y-66152000D03*
X137056000Y-66152000D03*
X141456000Y-66152000D03*
X139256000Y-73152000D03*
X137056000Y-73152000D03*
X141456000Y-73152000D03*
X133856000Y-66152000D03*
X133856000Y-73152000D03*
%TD*%
D14*
%TO.C,U3*%
X100678000Y-54102000D03*
X100678000Y-55052000D03*
X100678000Y-56002000D03*
X103378000Y-56002000D03*
X103378000Y-55052000D03*
X103378000Y-54102000D03*
%TD*%
D18*
%TO.C,D7*%
X75311000Y-72882000D03*
X73261000Y-72882000D03*
%TD*%
D12*
%TO.C,C3*%
X102997000Y-72517000D03*
X100922000Y-72517000D03*
%TD*%
D11*
%TO.C,R13*%
X93567000Y-67287000D03*
X91567000Y-67287000D03*
%TD*%
%TO.C,R10*%
X85201000Y-72882000D03*
X83201000Y-72882000D03*
%TD*%
D14*
%TO.C,U3*%
X100678000Y-54102000D03*
X100678000Y-55052000D03*
X100678000Y-56002000D03*
X103378000Y-56002000D03*
X103378000Y-55052000D03*
X103378000Y-54102000D03*
%TD*%
D11*
%TO.C,R11*%
X93567000Y-71487000D03*
X91567000Y-71487000D03*
%TD*%
D12*
%TO.C,C2*%
X103124000Y-58039000D03*
X101049000Y-58039000D03*
%TD*%
D15*
%TO.C,MH05*%
X113356000Y-78952000D03*
%TD*%
D10*
%TO.C,R8*%
X91567000Y-50836000D03*
X93567000Y-50836000D03*
%TD*%
D13*
%TO.C,K6*%
X161361000Y-39162000D03*
X161361000Y-36962000D03*
X161361000Y-41362000D03*
X154361000Y-39162000D03*
X154361000Y-36962000D03*
X154361000Y-41362000D03*
X161361000Y-33762000D03*
X154361000Y-33762000D03*
%TD*%
D11*
%TO.C,R16*%
X66421000Y-72882000D03*
X64421000Y-72882000D03*
%TD*%
D14*
%TO.C,U1*%
X100805000Y-61214000D03*
X100805000Y-62164000D03*
X100805000Y-63114000D03*
X103505000Y-63114000D03*
X103505000Y-62164000D03*
X103505000Y-61214000D03*
%TD*%
D13*
%TO.C,K5*%
X150891000Y-39162000D03*
X150891000Y-36962000D03*
X150891000Y-41362000D03*
X143891000Y-39162000D03*
X143891000Y-36962000D03*
X143891000Y-41362000D03*
X150891000Y-33762000D03*
X143891000Y-33762000D03*
%TD*%
D18*
%TO.C,D5*%
X97647000Y-56932000D03*
X95597000Y-56932000D03*
%TD*%
D15*
%TO.C,MH01*%
X153996000Y-78952000D03*
%TD*%
D12*
%TO.C,C1*%
X102997000Y-65151000D03*
X100922000Y-65151000D03*
%TD*%
D15*
%TO.C,MH03*%
X133676000Y-78952000D03*
%TD*%
D14*
%TO.C,U6*%
X100678000Y-68453000D03*
X100678000Y-69403000D03*
X100678000Y-70353000D03*
X103378000Y-70353000D03*
X103378000Y-69403000D03*
X103378000Y-68453000D03*
%TD*%
D10*
%TO.C,R14*%
X91567000Y-69387000D03*
X93567000Y-69387000D03*
%TD*%
%TO.C,R4*%
X91567000Y-58987000D03*
X93567000Y-58987000D03*
%TD*%
D23*
%TO.C,U4*%
X66421000Y-68707000D03*
D24*
X68961000Y-68707000D03*
X71501000Y-68707000D03*
X74041000Y-68707000D03*
X76581000Y-68707000D03*
X79121000Y-68707000D03*
X81661000Y-68707000D03*
X84201000Y-68707000D03*
X84201000Y-53467000D03*
X81661000Y-53467000D03*
X79121000Y-53467000D03*
X76581000Y-53467000D03*
X74041000Y-53467000D03*
X71501000Y-53467000D03*
X68961000Y-53467000D03*
X66421000Y-53467000D03*
%TD*%
D11*
%TO.C,R9*%
X81391000Y-72882000D03*
X79391000Y-72882000D03*
%TD*%
D10*
%TO.C,R5*%
X91567000Y-61087000D03*
X93567000Y-61087000D03*
%TD*%
D18*
%TO.C,D7*%
X75311000Y-72882000D03*
X73261000Y-72882000D03*
%TD*%
D10*
%TO.C,R15*%
X68866000Y-72882000D03*
X70866000Y-72882000D03*
%TD*%
D18*
%TO.C,D6*%
X97665000Y-52868000D03*
X95615000Y-52868000D03*
%TD*%
D25*
%TO.C,K3*%
X139256000Y-45522000D03*
X137056000Y-45522000D03*
X141456000Y-45522000D03*
X139256000Y-52522000D03*
X137056000Y-52522000D03*
X141456000Y-52522000D03*
X133856000Y-45522000D03*
X133856000Y-52522000D03*
%TD*%
D17*
%TO.C,C5*%
X107696000Y-43053000D03*
X107696000Y-45128000D03*
%TD*%
D25*
%TO.C,K2*%
X139256000Y-55992000D03*
X137056000Y-55992000D03*
X141456000Y-55992000D03*
X139256000Y-62992000D03*
X137056000Y-62992000D03*
X141456000Y-62992000D03*
X133856000Y-55992000D03*
X133856000Y-62992000D03*
%TD*%
D15*
%TO.C,MH09*%
X72716000Y-78952000D03*
%TD*%
D17*
%TO.C,C4*%
X110236000Y-43053000D03*
X110236000Y-45128000D03*
%TD*%
D15*
%TO.C,MH02*%
X143836000Y-78952000D03*
%TD*%
%TO.C,MH07*%
X93036000Y-78952000D03*
%TD*%
D10*
%TO.C,R17*%
X91583000Y-52868000D03*
X93583000Y-52868000D03*
%TD*%
D12*
%TO.C,C8*%
X126894500Y-44196000D03*
X124819500Y-44196000D03*
%TD*%
D16*
%TO.C,C6*%
X110109000Y-33655000D03*
X112184000Y-33655000D03*
%TD*%
D18*
%TO.C,D4*%
X97647000Y-61087000D03*
X95597000Y-61087000D03*
%TD*%
%TO.C,D2*%
X97647000Y-69387000D03*
X95597000Y-69387000D03*
%TD*%
D15*
%TO.C,MH08*%
X82876000Y-78952000D03*
%TD*%
D10*
%TO.C,R12*%
X91567000Y-73522000D03*
X93567000Y-73522000D03*
%TD*%
%TO.C,R6*%
X91567000Y-54900000D03*
X93567000Y-54900000D03*
%TD*%
D27*
%TO.C,U5*%
X114681000Y-48356500D03*
D28*
X117221000Y-48356500D03*
X119761000Y-48356500D03*
X122301000Y-48356500D03*
%TD*%
D10*
%TO.C,R2*%
X91567000Y-63087000D03*
X93567000Y-63087000D03*
%TD*%
D13*
%TO.C,K4*%
X140406000Y-39162000D03*
X140406000Y-36962000D03*
X140406000Y-41362000D03*
X133406000Y-39162000D03*
X133406000Y-36962000D03*
X133406000Y-41362000D03*
X140406000Y-33762000D03*
X133406000Y-33762000D03*
%TD*%
D12*
%TO.C,C7*%
X108204000Y-33655000D03*
X106129000Y-33655000D03*
%TD*%
D19*
%TO.C,U7*%
X105714000Y-36181000D03*
X105714000Y-38481000D03*
D20*
X112014000Y-38481000D03*
D19*
X105714000Y-40781000D03*
%TD*%
D10*
%TO.C,R1*%
X117253000Y-33909000D03*
X119253000Y-33909000D03*
%TD*%
D25*
%TO.C,K1*%
X139256000Y-66152000D03*
X137056000Y-66152000D03*
X141456000Y-66152000D03*
X139256000Y-73152000D03*
X137056000Y-73152000D03*
X141456000Y-73152000D03*
X133856000Y-66152000D03*
X133856000Y-73152000D03*
%TD*%
D18*
%TO.C,D1*%
X97647000Y-73522000D03*
X95597000Y-73522000D03*
%TD*%
D10*
%TO.C,R7*%
X91567000Y-56932000D03*
X93567000Y-56932000D03*
%TD*%
D26*
%TO.C,SW1*%
X116078000Y-44399000D03*
X116078000Y-36449000D03*
X120578000Y-44399000D03*
X120578000Y-36449000D03*
%TD*%
D29*
%TO.C,U2*%
X123701000Y-33147000D03*
X123701000Y-34417000D03*
X123701000Y-35687000D03*
X123701000Y-36957000D03*
X123701000Y-38227000D03*
X123701000Y-39497000D03*
X123701000Y-40767000D03*
X123701000Y-42037000D03*
X128651000Y-42037000D03*
X128651000Y-40767000D03*
X128651000Y-39497000D03*
X128651000Y-38227000D03*
X128651000Y-36957000D03*
X128651000Y-35687000D03*
X128651000Y-34417000D03*
X128651000Y-33147000D03*
%TD*%
D15*
%TO.C,MH06*%
X103196000Y-78952000D03*
%TD*%
D18*
%TO.C,D3*%
X97647000Y-65187000D03*
X95597000Y-65187000D03*
%TD*%
D21*
%TO.C,J2*%
X158496000Y-68582000D03*
D22*
X147066000Y-70332000D03*
X158496000Y-65082000D03*
X147066000Y-66832000D03*
X158496000Y-61582000D03*
X147066000Y-63332000D03*
X158496000Y-58082000D03*
X147066000Y-59832000D03*
X158496000Y-54582000D03*
X147066000Y-56332000D03*
X158496000Y-51082000D03*
X147066000Y-52832000D03*
X158496000Y-47582000D03*
X147066000Y-49332000D03*
%TD*%
D15*
%TO.C,MH04*%
X123516000Y-78952000D03*
%TD*%
D21*
%TO.C,J1*%
X97409000Y-35941000D03*
D22*
X99159000Y-47371000D03*
X93909000Y-35941000D03*
X95659000Y-47371000D03*
X90409000Y-35941000D03*
X92159000Y-47371000D03*
X86909000Y-35941000D03*
X88659000Y-47371000D03*
X83409000Y-35941000D03*
X85159000Y-47371000D03*
X79909000Y-35941000D03*
X81659000Y-47371000D03*
X76409000Y-35941000D03*
X78159000Y-47371000D03*
X72909000Y-35941000D03*
X74659000Y-47371000D03*
X69409000Y-35941000D03*
X71159000Y-47371000D03*
X65909000Y-35941000D03*
X67659000Y-47371000D03*
%TD*%
D10*
%TO.C,R3*%
X91567000Y-65187000D03*
X93567000Y-65187000D03*
%TD*%
D30*
X62996000Y-81452000D02*
X162996000Y-81452000D01*
X162996000Y-131452000D01*
X62996000Y-131452000D01*
X62996000Y-81452000D01*
X62996000Y-81452000D02*
X162996000Y-81452000D01*
X162996000Y-131452000D01*
X62996000Y-131452000D01*
X62996000Y-81452000D01*
X62996000Y-81452000D02*
X162996000Y-81452000D01*
X162996000Y-131452000D01*
X62996000Y-131452000D01*
X62996000Y-81452000D01*
X62996000Y-81452000D02*
X162996000Y-81452000D01*
X162996000Y-131452000D01*
X62996000Y-131452000D01*
X62996000Y-81452000D01*
X62996000Y-81452000D02*
X162996000Y-81452000D01*
X162996000Y-131452000D01*
X62996000Y-131452000D01*
X62996000Y-81452000D01*
X62996000Y-31452000D02*
X162996000Y-31452000D01*
X162996000Y-81452000D01*
X62996000Y-81452000D01*
X62996000Y-31452000D01*
X62996000Y-31452000D02*
X162996000Y-31452000D01*
X162996000Y-81452000D01*
X62996000Y-81452000D01*
X62996000Y-31452000D01*
X62996000Y-31452000D02*
X162996000Y-31452000D01*
X162996000Y-81452000D01*
X62996000Y-81452000D01*
X62996000Y-31452000D01*
X62996000Y-31452000D02*
X162996000Y-31452000D01*
X162996000Y-81452000D01*
X62996000Y-81452000D01*
X62996000Y-31452000D01*
X62996000Y-31452000D02*
X162996000Y-31452000D01*
X162996000Y-81452000D01*
X62996000Y-81452000D01*
X62996000Y-31452000D01*
M02*
