%TF.GenerationSoftware,KiCad,Pcbnew,7.0.11+dfsg-1build4*%
%TF.CreationDate,2026-05-21T22:27:22-05:00*%
%TF.ProjectId,,58585858-5858-4585-9858-585858585858,rev?*%
%TF.SameCoordinates,Original*%
%TF.FileFunction,Paste,Top*%
%TF.FilePolarity,Positive*%
%FSLAX46Y46*%
G04 Gerber Fmt 4.6, Leading zero omitted, Abs format (unit mm)*
G04 Created by KiCad (PCBNEW 7.0.11+dfsg-1build4) date 2026-05-21 22:27:22*
%MOMM*%
%LPD*%
G01*
G04 APERTURE LIST*
G04 Aperture macros list*
%AMRoundRect*
0 Rectangle with rounded corners*
0 $1 Rounding radius*
0 $2 $3 $4 $5 $6 $7 $8 $9 X,Y pos of 4 corners*
0 Add a 4 corners polygon primitive as box body*
4,1,4,$2,$3,$4,$5,$6,$7,$8,$9,$2,$3,0*
0 Add four circle primitives for the rounded corners*
1,1,$1+$1,$2,$3*
1,1,$1+$1,$4,$5*
1,1,$1+$1,$6,$7*
1,1,$1+$1,$8,$9*
0 Add four rect primitives between the rounded corners*
20,1,$1+$1,$2,$3,$4,$5,0*
20,1,$1+$1,$4,$5,$6,$7,0*
20,1,$1+$1,$6,$7,$8,$9,0*
20,1,$1+$1,$8,$9,$2,$3,0*%
G04 Aperture macros list end*
%ADD10RoundRect,0.250000X0.350000X0.450000X-0.350000X0.450000X-0.350000X-0.450000X0.350000X-0.450000X0*%
%ADD11RoundRect,0.250000X0.337500X0.475000X-0.337500X0.475000X-0.337500X-0.475000X0.337500X-0.475000X0*%
%ADD12R,1.800000X0.800000*%
%ADD13RoundRect,0.250000X-0.350000X-0.450000X0.350000X-0.450000X0.350000X0.450000X-0.350000X0.450000X0*%
%ADD14R,0.800000X1.800000*%
%ADD15R,1.300000X1.550000*%
%ADD16RoundRect,0.250000X-0.337500X-0.475000X0.337500X-0.475000X0.337500X0.475000X-0.337500X0.475000X0*%
%ADD17RoundRect,0.100000X-0.637500X-0.100000X0.637500X-0.100000X0.637500X0.100000X-0.637500X0.100000X0*%
%ADD18RoundRect,0.250000X0.325000X0.450000X-0.325000X0.450000X-0.325000X-0.450000X0.325000X-0.450000X0*%
%ADD19RoundRect,0.250000X-0.475000X0.337500X-0.475000X-0.337500X0.475000X-0.337500X0.475000X0.337500X0*%
%ADD20RoundRect,0.250000X-0.325000X-0.450000X0.325000X-0.450000X0.325000X0.450000X-0.325000X0.450000X0*%
%ADD21RoundRect,0.375000X-0.625000X-0.375000X0.625000X-0.375000X0.625000X0.375000X-0.625000X0.375000X0*%
%ADD22RoundRect,0.500000X-0.500000X-1.400000X0.500000X-1.400000X0.500000X1.400000X-0.500000X1.400000X0*%
%ADD23RoundRect,0.150000X-0.825000X-0.150000X0.825000X-0.150000X0.825000X0.150000X-0.825000X0.150000X0*%
%TA.AperFunction,Profile*%
%ADD24C,0.050000*%
%TD*%
G04 APERTURE END LIST*
D10*
%TO.C,R10*%
X89925400Y-117802000D03*
X87925400Y-117802000D03*
%TD*%
D11*
%TO.C,C1*%
X107987900Y-107708800D03*
X105912900Y-107708800D03*
%TD*%
D12*
%TO.C,K5*%
X155615400Y-84082000D03*
X155615400Y-81882000D03*
X155615400Y-86282000D03*
X148615400Y-84082000D03*
X148615400Y-81882000D03*
X148615400Y-86282000D03*
X155615400Y-78682000D03*
X148615400Y-78682000D03*
%TD*%
D13*
%TO.C,R1*%
X121977400Y-78829000D03*
X123977400Y-78829000D03*
%TD*%
D10*
%TO.C,R13*%
X98291400Y-112207000D03*
X96291400Y-112207000D03*
%TD*%
D13*
%TO.C,R5*%
X96291400Y-106007000D03*
X98291400Y-106007000D03*
%TD*%
D14*
%TO.C,K2*%
X143980400Y-100912000D03*
X141780400Y-100912000D03*
X146180400Y-100912000D03*
X143980400Y-107912000D03*
X141780400Y-107912000D03*
X146180400Y-107912000D03*
X138580400Y-100912000D03*
X138580400Y-107912000D03*
%TD*%
D15*
%TO.C,SW1*%
X120802400Y-89319000D03*
X120802400Y-81369000D03*
X125302400Y-89319000D03*
X125302400Y-81369000D03*
%TD*%
D16*
%TO.C,C6*%
X114833400Y-78575000D03*
X116908400Y-78575000D03*
%TD*%
D17*
%TO.C,U8*%
X101625400Y-111337000D03*
X101625400Y-111987000D03*
X101625400Y-112637000D03*
X101625400Y-113287000D03*
X101625400Y-113937000D03*
X101625400Y-114587000D03*
X101625400Y-115237000D03*
X101625400Y-115887000D03*
X101625400Y-116537000D03*
X101625400Y-117187000D03*
X107350400Y-117187000D03*
X107350400Y-116537000D03*
X107350400Y-115887000D03*
X107350400Y-115237000D03*
X107350400Y-114587000D03*
X107350400Y-113937000D03*
X107350400Y-113287000D03*
X107350400Y-112637000D03*
X107350400Y-111987000D03*
X107350400Y-111337000D03*
%TD*%
D18*
%TO.C,D4*%
X102650400Y-100292000D03*
X100600400Y-100292000D03*
%TD*%
D14*
%TO.C,K1*%
X143980400Y-111072000D03*
X141780400Y-111072000D03*
X146180400Y-111072000D03*
X143980400Y-118072000D03*
X141780400Y-118072000D03*
X146180400Y-118072000D03*
X138580400Y-111072000D03*
X138580400Y-118072000D03*
%TD*%
D12*
%TO.C,K4*%
X145130400Y-84082000D03*
X145130400Y-81882000D03*
X145130400Y-86282000D03*
X138130400Y-84082000D03*
X138130400Y-81882000D03*
X138130400Y-86282000D03*
X145130400Y-78682000D03*
X138130400Y-78682000D03*
%TD*%
D10*
%TO.C,R16*%
X71145400Y-117802000D03*
X69145400Y-117802000D03*
%TD*%
D19*
%TO.C,C5*%
X112420400Y-87973000D03*
X112420400Y-90048000D03*
%TD*%
D12*
%TO.C,K6*%
X166085400Y-84082000D03*
X166085400Y-81882000D03*
X166085400Y-86282000D03*
X159085400Y-84082000D03*
X159085400Y-81882000D03*
X159085400Y-86282000D03*
X166085400Y-78682000D03*
X159085400Y-78682000D03*
%TD*%
D13*
%TO.C,R14*%
X96291400Y-114307000D03*
X98291400Y-114307000D03*
%TD*%
D10*
%TO.C,R4*%
X98291400Y-103907000D03*
X96291400Y-103907000D03*
%TD*%
D13*
%TO.C,R7*%
X96291400Y-101852000D03*
X98291400Y-101852000D03*
%TD*%
%TO.C,R18*%
X100625400Y-107708800D03*
X102625400Y-107708800D03*
%TD*%
D20*
%TO.C,D1*%
X105925400Y-104102000D03*
X107975400Y-104102000D03*
%TD*%
D11*
%TO.C,C7*%
X112928400Y-78575000D03*
X110853400Y-78575000D03*
%TD*%
D10*
%TO.C,R8*%
X98291400Y-95756000D03*
X96291400Y-95756000D03*
%TD*%
%TO.C,R11*%
X98291400Y-116407000D03*
X96291400Y-116407000D03*
%TD*%
D11*
%TO.C,C8*%
X131411800Y-89116000D03*
X129336800Y-89116000D03*
%TD*%
D18*
%TO.C,D6*%
X102650400Y-96482000D03*
X100600400Y-96482000D03*
%TD*%
D20*
%TO.C,D7*%
X77985400Y-117802000D03*
X80035400Y-117802000D03*
%TD*%
%TO.C,D5*%
X105925400Y-96482000D03*
X107975400Y-96482000D03*
%TD*%
D18*
%TO.C,D2*%
X102650400Y-104102000D03*
X100600400Y-104102000D03*
%TD*%
D21*
%TO.C,U7*%
X110438400Y-81101000D03*
X110438400Y-83401000D03*
D22*
X116738400Y-83401000D03*
D21*
X110438400Y-85701000D03*
%TD*%
D20*
%TO.C,D3*%
X105925400Y-100292000D03*
X107975400Y-100292000D03*
%TD*%
D13*
%TO.C,R15*%
X73590400Y-117802000D03*
X75590400Y-117802000D03*
%TD*%
D10*
%TO.C,R2*%
X98291400Y-108007000D03*
X96291400Y-108007000D03*
%TD*%
D14*
%TO.C,K3*%
X143980400Y-90442000D03*
X141780400Y-90442000D03*
X146180400Y-90442000D03*
X143980400Y-97442000D03*
X141780400Y-97442000D03*
X146180400Y-97442000D03*
X138580400Y-90442000D03*
X138580400Y-97442000D03*
%TD*%
D23*
%TO.C,U2*%
X128425400Y-78067000D03*
X128425400Y-79337000D03*
X128425400Y-80607000D03*
X128425400Y-81877000D03*
X128425400Y-83147000D03*
X128425400Y-84417000D03*
X128425400Y-85687000D03*
X128425400Y-86957000D03*
X133375400Y-86957000D03*
X133375400Y-85687000D03*
X133375400Y-84417000D03*
X133375400Y-83147000D03*
X133375400Y-81877000D03*
X133375400Y-80607000D03*
X133375400Y-79337000D03*
X133375400Y-78067000D03*
%TD*%
D10*
%TO.C,R9*%
X86115400Y-117802000D03*
X84115400Y-117802000D03*
%TD*%
%TO.C,R6*%
X98291400Y-99820000D03*
X96291400Y-99820000D03*
%TD*%
D13*
%TO.C,R17*%
X96307400Y-97788000D03*
X98307400Y-97788000D03*
%TD*%
%TO.C,R12*%
X96291400Y-118442000D03*
X98291400Y-118442000D03*
%TD*%
D19*
%TO.C,C4*%
X114960400Y-87973000D03*
X114960400Y-90048000D03*
%TD*%
D13*
%TO.C,R3*%
X96291400Y-110107000D03*
X98291400Y-110107000D03*
%TD*%
D10*
%TO.C,R13*%
X98291400Y-62207000D03*
X96291400Y-62207000D03*
%TD*%
%TO.C,R10*%
X89925400Y-67802000D03*
X87925400Y-67802000D03*
%TD*%
%TO.C,R11*%
X98291400Y-66407000D03*
X96291400Y-66407000D03*
%TD*%
%TO.C,R8*%
X98291400Y-45756000D03*
X96291400Y-45756000D03*
%TD*%
D12*
%TO.C,K6*%
X166085400Y-34082000D03*
X166085400Y-31882000D03*
X166085400Y-36282000D03*
X159085400Y-34082000D03*
X159085400Y-31882000D03*
X159085400Y-36282000D03*
X166085400Y-28682000D03*
X159085400Y-28682000D03*
%TD*%
D10*
%TO.C,R16*%
X71145400Y-67802000D03*
X69145400Y-67802000D03*
%TD*%
D12*
%TO.C,K5*%
X155615400Y-34082000D03*
X155615400Y-31882000D03*
X155615400Y-36282000D03*
X148615400Y-34082000D03*
X148615400Y-31882000D03*
X148615400Y-36282000D03*
X155615400Y-28682000D03*
X148615400Y-28682000D03*
%TD*%
D20*
%TO.C,D5*%
X105925400Y-46482000D03*
X107975400Y-46482000D03*
%TD*%
D11*
%TO.C,C1*%
X107987900Y-57708800D03*
X105912900Y-57708800D03*
%TD*%
D13*
%TO.C,R14*%
X96291400Y-64307000D03*
X98291400Y-64307000D03*
%TD*%
D10*
%TO.C,R4*%
X98291400Y-53907000D03*
X96291400Y-53907000D03*
%TD*%
%TO.C,R9*%
X86115400Y-67802000D03*
X84115400Y-67802000D03*
%TD*%
D13*
%TO.C,R5*%
X96291400Y-56007000D03*
X98291400Y-56007000D03*
%TD*%
D20*
%TO.C,D7*%
X77985400Y-67802000D03*
X80035400Y-67802000D03*
%TD*%
D13*
%TO.C,R15*%
X73590400Y-67802000D03*
X75590400Y-67802000D03*
%TD*%
D18*
%TO.C,D6*%
X102650400Y-46482000D03*
X100600400Y-46482000D03*
%TD*%
D14*
%TO.C,K3*%
X143980400Y-40442000D03*
X141780400Y-40442000D03*
X146180400Y-40442000D03*
X143980400Y-47442000D03*
X141780400Y-47442000D03*
X146180400Y-47442000D03*
X138580400Y-40442000D03*
X138580400Y-47442000D03*
%TD*%
D19*
%TO.C,C5*%
X112420400Y-37973000D03*
X112420400Y-40048000D03*
%TD*%
D14*
%TO.C,K2*%
X143980400Y-50912000D03*
X141780400Y-50912000D03*
X146180400Y-50912000D03*
X143980400Y-57912000D03*
X141780400Y-57912000D03*
X146180400Y-57912000D03*
X138580400Y-50912000D03*
X138580400Y-57912000D03*
%TD*%
D19*
%TO.C,C4*%
X114960400Y-37973000D03*
X114960400Y-40048000D03*
%TD*%
D13*
%TO.C,R17*%
X96307400Y-47788000D03*
X98307400Y-47788000D03*
%TD*%
D16*
%TO.C,C6*%
X114833400Y-28575000D03*
X116908400Y-28575000D03*
%TD*%
D18*
%TO.C,D4*%
X102650400Y-50292000D03*
X100600400Y-50292000D03*
%TD*%
%TO.C,D2*%
X102650400Y-54102000D03*
X100600400Y-54102000D03*
%TD*%
D13*
%TO.C,R12*%
X96291400Y-68442000D03*
X98291400Y-68442000D03*
%TD*%
D10*
%TO.C,R6*%
X98291400Y-49820000D03*
X96291400Y-49820000D03*
%TD*%
%TO.C,R2*%
X98291400Y-58007000D03*
X96291400Y-58007000D03*
%TD*%
D12*
%TO.C,K4*%
X145130400Y-34082000D03*
X145130400Y-31882000D03*
X145130400Y-36282000D03*
X138130400Y-34082000D03*
X138130400Y-31882000D03*
X138130400Y-36282000D03*
X145130400Y-28682000D03*
X138130400Y-28682000D03*
%TD*%
D11*
%TO.C,C7*%
X112928400Y-28575000D03*
X110853400Y-28575000D03*
%TD*%
D21*
%TO.C,U7*%
X110438400Y-31101000D03*
X110438400Y-33401000D03*
D22*
X116738400Y-33401000D03*
D21*
X110438400Y-35701000D03*
%TD*%
D13*
%TO.C,R1*%
X121977400Y-28829000D03*
X123977400Y-28829000D03*
%TD*%
D14*
%TO.C,K1*%
X143980400Y-61072000D03*
X141780400Y-61072000D03*
X146180400Y-61072000D03*
X143980400Y-68072000D03*
X141780400Y-68072000D03*
X146180400Y-68072000D03*
X138580400Y-61072000D03*
X138580400Y-68072000D03*
%TD*%
D20*
%TO.C,D1*%
X105925400Y-54102000D03*
X107975400Y-54102000D03*
%TD*%
D13*
%TO.C,R7*%
X96291400Y-51852000D03*
X98291400Y-51852000D03*
%TD*%
D17*
%TO.C,U8*%
X101625400Y-61337000D03*
X101625400Y-61987000D03*
X101625400Y-62637000D03*
X101625400Y-63287000D03*
X101625400Y-63937000D03*
X101625400Y-64587000D03*
X101625400Y-65237000D03*
X101625400Y-65887000D03*
X101625400Y-66537000D03*
X101625400Y-67187000D03*
X107350400Y-67187000D03*
X107350400Y-66537000D03*
X107350400Y-65887000D03*
X107350400Y-65237000D03*
X107350400Y-64587000D03*
X107350400Y-63937000D03*
X107350400Y-63287000D03*
X107350400Y-62637000D03*
X107350400Y-61987000D03*
X107350400Y-61337000D03*
%TD*%
D15*
%TO.C,SW1*%
X120802400Y-39319000D03*
X120802400Y-31369000D03*
X125302400Y-39319000D03*
X125302400Y-31369000D03*
%TD*%
D23*
%TO.C,U2*%
X128425400Y-28067000D03*
X128425400Y-29337000D03*
X128425400Y-30607000D03*
X128425400Y-31877000D03*
X128425400Y-33147000D03*
X128425400Y-34417000D03*
X128425400Y-35687000D03*
X128425400Y-36957000D03*
X133375400Y-36957000D03*
X133375400Y-35687000D03*
X133375400Y-34417000D03*
X133375400Y-33147000D03*
X133375400Y-31877000D03*
X133375400Y-30607000D03*
X133375400Y-29337000D03*
X133375400Y-28067000D03*
%TD*%
D20*
%TO.C,D3*%
X105925400Y-50292000D03*
X107975400Y-50292000D03*
%TD*%
D11*
%TO.C,C8*%
X131411800Y-39116000D03*
X129336800Y-39116000D03*
%TD*%
D13*
%TO.C,R18*%
X100625400Y-57708800D03*
X102625400Y-57708800D03*
%TD*%
%TO.C,R3*%
X96291400Y-60107000D03*
X98291400Y-60107000D03*
%TD*%
D24*
X67720400Y-76372000D02*
X167720400Y-76372000D01*
X167720400Y-126372000D01*
X67720400Y-126372000D01*
X67720400Y-76372000D01*
X67720400Y-26372000D02*
X167720400Y-26372000D01*
X167720400Y-76372000D01*
X67720400Y-76372000D01*
X67720400Y-26372000D01*
M02*
