M48
; DRILL file {KiCad 7.0.11+dfsg-1build4} date jue 19 mar 2026 18:54:54
; FORMAT={-:-/ absolute / metric / decimal}
; #@! TF.CreationDate,2026-03-19T18:54:54-05:00
; #@! TF.GenerationSoftware,Kicad,Pcbnew,7.0.11+dfsg-1build4
; #@! TF.FileFunction,NonPlated,1,2,NPTH
FMAT,2
METRIC
; #@! TA.AperFunction,NonPlated,NPTH,ComponentDrill
T1C3.200
%
G90
G05
T1
X52.015Y-71.205
X52.015Y-71.205
X52.015Y-71.205
X52.015Y-71.205
X52.015Y-71.205
X52.015Y-121.205
X52.015Y-121.205
X52.015Y-121.205
X52.015Y-121.205
X52.015Y-121.205
X62.175Y-71.205
X62.175Y-71.205
X62.175Y-71.205
X62.175Y-71.205
X62.175Y-71.205
X62.175Y-121.205
X62.175Y-121.205
X62.175Y-121.205
X62.175Y-121.205
X62.175Y-121.205
X72.335Y-71.205
X72.335Y-71.205
X72.335Y-71.205
X72.335Y-71.205
X72.335Y-71.205
X72.335Y-121.205
X72.335Y-121.205
X72.335Y-121.205
X72.335Y-121.205
X72.335Y-121.205
X82.495Y-71.205
X82.495Y-71.205
X82.495Y-71.205
X82.495Y-71.205
X82.495Y-71.205
X82.495Y-121.205
X82.495Y-121.205
X82.495Y-121.205
X82.495Y-121.205
X82.495Y-121.205
X92.655Y-71.205
X92.655Y-71.205
X92.655Y-71.205
X92.655Y-71.205
X92.655Y-71.205
X92.655Y-121.205
X92.655Y-121.205
X92.655Y-121.205
X92.655Y-121.205
X92.655Y-121.205
X102.815Y-71.205
X102.815Y-71.205
X102.815Y-71.205
X102.815Y-71.205
X102.815Y-71.205
X102.815Y-121.205
X102.815Y-121.205
X102.815Y-121.205
X102.815Y-121.205
X102.815Y-121.205
X112.975Y-71.205
X112.975Y-71.205
X112.975Y-71.205
X112.975Y-71.205
X112.975Y-71.205
X112.975Y-121.205
X112.975Y-121.205
X112.975Y-121.205
X112.975Y-121.205
X112.975Y-121.205
X123.135Y-71.205
X123.135Y-71.205
X123.135Y-71.205
X123.135Y-71.205
X123.135Y-71.205
X123.135Y-121.205
X123.135Y-121.205
X123.135Y-121.205
X123.135Y-121.205
X123.135Y-121.205
X133.295Y-71.205
X133.295Y-71.205
X133.295Y-71.205
X133.295Y-71.205
X133.295Y-71.205
X133.295Y-121.205
X133.295Y-121.205
X133.295Y-121.205
X133.295Y-121.205
X133.295Y-121.205
M30
