M48
; DRILL file {KiCad 7.0.11+dfsg-1build4} date mié 25 feb 2026 12:51:38
; FORMAT={-:-/ absolute / metric / decimal}
; #@! TF.CreationDate,2026-02-25T12:51:38-05:00
; #@! TF.GenerationSoftware,Kicad,Pcbnew,7.0.11+dfsg-1build4
; #@! TF.FileFunction,Plated,1,2,PTH
FMAT,2
METRIC
; #@! TA.AperFunction,Plated,PTH,ViaDrill
T1C0.300
; #@! TA.AperFunction,Plated,PTH,ComponentDrill
T2C1.000
; #@! TA.AperFunction,Plated,PTH,ComponentDrill
T3C1.200
%
G90
G05
T1
X64.008Y-32.512
X64.008Y-32.512
X64.008Y-32.512
X64.008Y-32.512
X64.008Y-32.512
X64.008Y-74.422
X64.008Y-74.422
X64.008Y-74.422
X64.008Y-74.422
X64.008Y-74.422
X64.008Y-82.512
X64.008Y-82.512
X64.008Y-82.512
X64.008Y-82.512
X64.008Y-82.512
X64.008Y-124.422
X64.008Y-124.422
X64.008Y-124.422
X64.008Y-124.422
X64.008Y-124.422
X67.128Y-70.96
X67.128Y-70.96
X67.128Y-70.96
X67.128Y-70.96
X67.128Y-70.96
X67.128Y-120.96
X67.128Y-120.96
X67.128Y-120.96
X67.128Y-120.96
X67.128Y-120.96
X76.111Y-44.432
X76.111Y-44.432
X76.111Y-44.432
X76.111Y-44.432
X76.111Y-44.432
X76.111Y-94.432
X76.111Y-94.432
X76.111Y-94.432
X76.111Y-94.432
X76.111Y-94.432
X78.611Y-56.437
X78.611Y-56.437
X78.611Y-56.437
X78.611Y-56.437
X78.611Y-56.437
X78.611Y-106.437
X78.611Y-106.437
X78.611Y-106.437
X78.611Y-106.437
X78.611Y-106.437
X79.105Y-41.509
X79.105Y-41.509
X79.105Y-41.509
X79.105Y-41.509
X79.105Y-41.509
X79.105Y-91.509
X79.105Y-91.509
X79.105Y-91.509
X79.105Y-91.509
X79.105Y-91.509
X79.198Y-71.162
X79.198Y-71.162
X79.198Y-71.162
X79.198Y-71.162
X79.198Y-71.162
X79.198Y-121.162
X79.198Y-121.162
X79.198Y-121.162
X79.198Y-121.162
X79.198Y-121.162
X79.745Y-56.451
X79.745Y-56.451
X79.745Y-56.451
X79.745Y-56.451
X79.745Y-56.451
X79.745Y-106.451
X79.745Y-106.451
X79.745Y-106.451
X79.745Y-106.451
X79.745Y-106.451
X83.329Y-55.096
X83.329Y-55.096
X83.329Y-55.096
X83.329Y-55.096
X83.329Y-55.096
X83.329Y-105.096
X83.329Y-105.096
X83.329Y-105.096
X83.329Y-105.096
X83.329Y-105.096
X84.074Y-62.23
X84.074Y-62.23
X84.074Y-62.23
X84.074Y-62.23
X84.074Y-62.23
X84.074Y-112.23
X84.074Y-112.23
X84.074Y-112.23
X84.074Y-112.23
X84.074Y-112.23
X85.332Y-70.819
X85.332Y-70.819
X85.332Y-70.819
X85.332Y-70.819
X85.332Y-70.819
X85.332Y-120.819
X85.332Y-120.819
X85.332Y-120.819
X85.332Y-120.819
X85.332Y-120.819
X86.082Y-73.909
X86.082Y-73.909
X86.082Y-73.909
X86.082Y-73.909
X86.082Y-73.909
X86.082Y-123.909
X86.082Y-123.909
X86.082Y-123.909
X86.082Y-123.909
X86.082Y-123.909
X86.669Y-71.056
X86.669Y-71.056
X86.669Y-71.056
X86.669Y-71.056
X86.669Y-71.056
X86.669Y-121.056
X86.669Y-121.056
X86.669Y-121.056
X86.669Y-121.056
X86.669Y-121.056
X87.971Y-70.549
X87.971Y-70.549
X87.971Y-70.549
X87.971Y-70.549
X87.971Y-70.549
X87.971Y-120.549
X87.971Y-120.549
X87.971Y-120.549
X87.971Y-120.549
X87.971Y-120.549
X88.328Y-73.653
X88.328Y-73.653
X88.328Y-73.653
X88.328Y-73.653
X88.328Y-73.653
X88.328Y-123.653
X88.328Y-123.653
X88.328Y-123.653
X88.328Y-123.653
X88.328Y-123.653
X88.746Y-68.263
X88.746Y-68.263
X88.746Y-68.263
X88.746Y-68.263
X88.746Y-68.263
X88.746Y-118.263
X88.746Y-118.263
X88.746Y-118.263
X88.746Y-118.263
X88.746Y-118.263
X88.801Y-50.49
X88.801Y-50.49
X88.801Y-50.49
X88.801Y-50.49
X88.801Y-50.49
X88.801Y-100.49
X88.801Y-100.49
X88.801Y-100.49
X88.801Y-100.49
X88.801Y-100.49
X89.008Y-53.504
X89.008Y-53.504
X89.008Y-53.504
X89.008Y-53.504
X89.008Y-53.504
X89.008Y-103.504
X89.008Y-103.504
X89.008Y-103.504
X89.008Y-103.504
X89.008Y-103.504
X90.193Y-59.223
X90.193Y-59.223
X90.193Y-59.223
X90.193Y-59.223
X90.193Y-59.223
X90.193Y-109.223
X90.193Y-109.223
X90.193Y-109.223
X90.193Y-109.223
X90.193Y-109.223
X90.316Y-54.523
X90.316Y-54.523
X90.316Y-54.523
X90.316Y-54.523
X90.316Y-54.523
X90.316Y-104.522
X90.316Y-104.522
X90.316Y-104.522
X90.316Y-104.522
X90.316Y-104.522
X90.331Y-73.709
X90.331Y-73.709
X90.331Y-73.709
X90.331Y-73.709
X90.331Y-73.709
X90.331Y-123.709
X90.331Y-123.709
X90.331Y-123.709
X90.331Y-123.709
X90.331Y-123.709
X93.909Y-46.028
X93.909Y-46.028
X93.909Y-46.028
X93.909Y-46.028
X93.909Y-46.028
X93.909Y-96.028
X93.909Y-96.028
X93.909Y-96.028
X93.909Y-96.028
X93.909Y-96.028
X94.499Y-59.982
X94.499Y-59.982
X94.499Y-59.982
X94.499Y-59.982
X94.499Y-59.982
X94.499Y-109.982
X94.499Y-109.982
X94.499Y-109.982
X94.499Y-109.982
X94.499Y-109.982
X95.241Y-59.157
X95.241Y-59.157
X95.241Y-59.157
X95.241Y-59.157
X95.241Y-59.157
X95.241Y-109.157
X95.241Y-109.157
X95.241Y-109.157
X95.241Y-109.157
X95.241Y-109.157
X97.316Y-50.833
X97.316Y-50.833
X97.316Y-50.833
X97.316Y-50.833
X97.316Y-50.833
X97.316Y-100.833
X97.316Y-100.833
X97.316Y-100.833
X97.316Y-100.833
X97.316Y-100.833
X98.276Y-54.759
X98.276Y-54.759
X98.276Y-54.759
X98.276Y-54.759
X98.276Y-54.759
X98.276Y-104.759
X98.276Y-104.759
X98.276Y-104.759
X98.276Y-104.759
X98.276Y-104.759
X98.298Y-63.373
X98.298Y-63.373
X98.298Y-63.373
X98.298Y-63.373
X98.298Y-63.373
X98.298Y-113.373
X98.298Y-113.373
X98.298Y-113.373
X98.298Y-113.373
X98.298Y-113.373
X98.552Y-70.487
X98.552Y-70.487
X98.552Y-70.487
X98.552Y-70.487
X98.552Y-70.487
X98.552Y-120.487
X98.552Y-120.487
X98.552Y-120.487
X98.552Y-120.487
X98.552Y-120.487
X98.714Y-60.325
X98.714Y-60.325
X98.714Y-60.325
X98.714Y-60.325
X98.714Y-60.325
X98.714Y-110.325
X98.714Y-110.325
X98.714Y-110.325
X98.714Y-110.325
X98.714Y-110.325
X98.866Y-56.888
X98.866Y-56.888
X98.866Y-56.888
X98.866Y-56.888
X98.866Y-56.888
X98.866Y-106.888
X98.866Y-106.888
X98.866Y-106.888
X98.866Y-106.888
X98.866Y-106.888
X98.933Y-51.18
X98.933Y-51.18
X98.933Y-51.18
X98.933Y-51.18
X98.933Y-51.18
X98.933Y-52.451
X98.933Y-52.451
X98.933Y-52.451
X98.933Y-52.451
X98.933Y-52.451
X98.933Y-101.18
X98.933Y-101.18
X98.933Y-101.18
X98.933Y-101.18
X98.933Y-101.18
X98.933Y-102.451
X98.933Y-102.451
X98.933Y-102.451
X98.933Y-102.451
X98.933Y-102.451
X99.262Y-69.403
X99.262Y-69.403
X99.262Y-69.403
X99.262Y-69.403
X99.262Y-69.403
X99.262Y-119.403
X99.262Y-119.403
X99.262Y-119.403
X99.262Y-119.403
X99.262Y-119.403
X99.297Y-65.151
X99.297Y-65.151
X99.297Y-65.151
X99.297Y-65.151
X99.297Y-65.151
X99.297Y-67.997
X99.297Y-67.997
X99.297Y-67.997
X99.297Y-67.997
X99.297Y-67.997
X99.297Y-115.151
X99.297Y-115.151
X99.297Y-115.151
X99.297Y-115.151
X99.297Y-115.151
X99.297Y-117.997
X99.297Y-117.997
X99.297Y-117.997
X99.297Y-117.997
X99.297Y-117.997
X99.316Y-72.358
X99.316Y-72.358
X99.316Y-72.358
X99.316Y-72.358
X99.316Y-72.358
X99.316Y-122.358
X99.316Y-122.358
X99.316Y-122.358
X99.316Y-122.358
X99.316Y-122.358
X99.568Y-58.963
X99.568Y-58.963
X99.568Y-58.963
X99.568Y-58.963
X99.568Y-58.963
X99.568Y-108.963
X99.568Y-108.963
X99.568Y-108.963
X99.568Y-108.963
X99.568Y-108.963
X99.588Y-41.509
X99.588Y-41.509
X99.588Y-41.509
X99.588Y-41.509
X99.588Y-41.509
X99.588Y-91.509
X99.588Y-91.509
X99.588Y-91.509
X99.588Y-91.509
X99.588Y-91.509
X99.906Y-63.958
X99.906Y-63.958
X99.906Y-63.958
X99.906Y-63.958
X99.906Y-63.958
X99.906Y-113.958
X99.906Y-113.958
X99.906Y-113.958
X99.906Y-113.958
X99.906Y-113.958
X100.076Y-49.227
X100.076Y-49.227
X100.076Y-49.227
X100.076Y-49.227
X100.076Y-49.227
X100.076Y-99.227
X100.076Y-99.227
X100.076Y-99.227
X100.076Y-99.227
X100.076Y-99.227
X101.057Y-52.423
X101.057Y-52.423
X101.057Y-52.423
X101.057Y-52.423
X101.057Y-52.423
X101.057Y-102.423
X101.057Y-102.423
X101.057Y-102.423
X101.057Y-102.423
X101.057Y-102.423
X101.743Y-53.251
X101.743Y-53.251
X101.743Y-53.251
X101.743Y-53.251
X101.743Y-53.251
X101.743Y-103.251
X101.743Y-103.251
X101.743Y-103.251
X101.743Y-103.251
X101.743Y-103.251
X101.854Y-35.306
X101.854Y-35.306
X101.854Y-35.306
X101.854Y-35.306
X101.854Y-35.306
X101.854Y-85.306
X101.854Y-85.306
X101.854Y-85.306
X101.854Y-85.306
X101.854Y-85.306
X102.028Y-70.92
X102.028Y-70.92
X102.028Y-70.92
X102.028Y-70.92
X102.028Y-70.92
X102.028Y-120.92
X102.028Y-120.92
X102.028Y-120.92
X102.028Y-120.92
X102.028Y-120.92
X102.153Y-43.673
X102.153Y-43.673
X102.153Y-43.673
X102.153Y-43.673
X102.153Y-43.673
X102.153Y-93.673
X102.153Y-93.673
X102.153Y-93.673
X102.153Y-93.673
X102.153Y-93.673
X102.198Y-61.097
X102.198Y-61.097
X102.198Y-61.097
X102.198Y-61.097
X102.198Y-61.097
X102.198Y-111.097
X102.198Y-111.097
X102.198Y-111.097
X102.198Y-111.097
X102.198Y-111.097
X102.778Y-49.827
X102.778Y-49.827
X102.778Y-49.827
X102.778Y-49.827
X102.778Y-49.827
X102.778Y-99.827
X102.778Y-99.827
X102.778Y-99.827
X102.778Y-99.827
X102.778Y-99.827
X104.463Y-57.01
X104.463Y-57.01
X104.463Y-57.01
X104.463Y-57.01
X104.463Y-57.01
X104.463Y-107.01
X104.463Y-107.01
X104.463Y-107.01
X104.463Y-107.01
X104.463Y-107.01
X104.683Y-70.104
X104.683Y-70.104
X104.683Y-70.104
X104.683Y-70.104
X104.683Y-70.104
X104.683Y-120.104
X104.683Y-120.104
X104.683Y-120.104
X104.683Y-120.104
X104.683Y-120.104
X106.426Y-70.612
X106.426Y-70.612
X106.426Y-70.612
X106.426Y-70.612
X106.426Y-70.612
X106.426Y-120.612
X106.426Y-120.612
X106.426Y-120.612
X106.426Y-120.612
X106.426Y-120.612
X110.998Y-52.578
X110.998Y-52.578
X110.998Y-52.578
X110.998Y-52.578
X110.998Y-52.578
X110.998Y-102.578
X110.998Y-102.578
X110.998Y-102.578
X110.998Y-102.578
X110.998Y-102.578
X111.523Y-49.225
X111.523Y-49.225
X111.523Y-49.225
X111.523Y-49.225
X111.523Y-49.225
X111.523Y-99.225
X111.523Y-99.225
X111.523Y-99.225
X111.523Y-99.225
X111.523Y-99.225
X112.522Y-46.58
X112.522Y-46.58
X112.522Y-46.58
X112.522Y-46.58
X112.522Y-46.58
X112.522Y-96.58
X112.522Y-96.58
X112.522Y-96.58
X112.522Y-96.58
X112.522Y-96.58
X112.649Y-45.085
X112.649Y-45.085
X112.649Y-45.085
X112.649Y-45.085
X112.649Y-45.085
X112.649Y-95.085
X112.649Y-95.085
X112.649Y-95.085
X112.649Y-95.085
X112.649Y-95.085
X112.776Y-72.644
X112.776Y-72.644
X112.776Y-72.644
X112.776Y-72.644
X112.776Y-72.644
X112.776Y-122.644
X112.776Y-122.644
X112.776Y-122.644
X112.776Y-122.644
X112.776Y-122.644
X113.919Y-35.306
X113.919Y-35.306
X113.919Y-35.306
X113.919Y-35.306
X113.919Y-35.306
X113.919Y-56.896
X113.919Y-56.896
X113.919Y-56.896
X113.919Y-56.896
X113.919Y-56.896
X113.919Y-85.306
X113.919Y-85.306
X113.919Y-85.306
X113.919Y-85.306
X113.919Y-85.306
X113.919Y-106.896
X113.919Y-106.896
X113.919Y-106.896
X113.919Y-106.896
X113.919Y-106.896
X114.046Y-64.262
X114.046Y-64.262
X114.046Y-64.262
X114.046Y-64.262
X114.046Y-64.262
X114.046Y-114.262
X114.046Y-114.262
X114.046Y-114.262
X114.046Y-114.262
X114.046Y-114.262
X114.244Y-50.388
X114.244Y-50.388
X114.244Y-50.388
X114.244Y-50.388
X114.244Y-50.388
X114.244Y-100.388
X114.244Y-100.388
X114.244Y-100.388
X114.244Y-100.388
X114.244Y-100.388
X114.3Y-37.338
X114.3Y-37.338
X114.3Y-37.338
X114.3Y-37.338
X114.3Y-37.338
X114.3Y-40.767
X114.3Y-40.767
X114.3Y-40.767
X114.3Y-40.767
X114.3Y-40.767
X114.3Y-87.338
X114.3Y-87.338
X114.3Y-87.338
X114.3Y-87.338
X114.3Y-87.338
X114.3Y-90.767
X114.3Y-90.767
X114.3Y-90.767
X114.3Y-90.767
X114.3Y-90.767
X114.507Y-32.854
X114.507Y-32.854
X114.507Y-32.854
X114.507Y-32.854
X114.507Y-32.854
X114.507Y-82.854
X114.507Y-82.854
X114.507Y-82.854
X114.507Y-82.854
X114.507Y-82.854
X115.61Y-38.352
X115.61Y-38.352
X115.61Y-38.352
X115.61Y-38.352
X115.61Y-38.352
X115.61Y-88.352
X115.61Y-88.352
X115.61Y-88.352
X115.61Y-88.352
X115.61Y-88.352
X117.221Y-40.005
X117.221Y-40.005
X117.221Y-40.005
X117.221Y-40.005
X117.221Y-40.005
X117.221Y-90.005
X117.221Y-90.005
X117.221Y-90.005
X117.221Y-90.005
X117.221Y-90.005
X117.856Y-50.927
X117.856Y-50.927
X117.856Y-50.927
X117.856Y-50.927
X117.856Y-50.927
X117.856Y-100.927
X117.856Y-100.927
X117.856Y-100.927
X117.856Y-100.927
X117.856Y-100.927
X119.881Y-46.811
X119.881Y-46.811
X119.881Y-46.811
X119.881Y-46.811
X119.881Y-46.811
X119.881Y-96.811
X119.881Y-96.811
X119.881Y-96.811
X119.881Y-96.811
X119.881Y-96.811
X121.158Y-50.927
X121.158Y-50.927
X121.158Y-50.927
X121.158Y-50.927
X121.158Y-50.927
X121.158Y-100.927
X121.158Y-100.927
X121.158Y-100.927
X121.158Y-100.927
X121.158Y-100.927
X121.509Y-37.682
X121.509Y-37.682
X121.509Y-37.682
X121.509Y-37.682
X121.509Y-37.682
X121.509Y-87.682
X121.509Y-87.682
X121.509Y-87.682
X121.509Y-87.682
X121.509Y-87.682
X121.539Y-39.243
X121.539Y-39.243
X121.539Y-39.243
X121.539Y-39.243
X121.539Y-39.243
X121.539Y-89.243
X121.539Y-89.243
X121.539Y-89.243
X121.539Y-89.243
X121.539Y-89.243
X121.547Y-40.767
X121.547Y-40.767
X121.547Y-40.767
X121.547Y-40.767
X121.547Y-40.767
X121.547Y-90.767
X121.547Y-90.767
X121.547Y-90.767
X121.547Y-90.767
X121.547Y-90.767
X121.92Y-32.512
X121.92Y-32.512
X121.92Y-32.512
X121.92Y-32.512
X121.92Y-32.512
X121.92Y-82.512
X121.92Y-82.512
X121.92Y-82.512
X121.92Y-82.512
X121.92Y-82.512
X125.73Y-56.769
X125.73Y-56.769
X125.73Y-56.769
X125.73Y-56.769
X125.73Y-56.769
X125.73Y-106.769
X125.73Y-106.769
X125.73Y-106.769
X125.73Y-106.769
X125.73Y-106.769
X125.984Y-64.77
X125.984Y-64.77
X125.984Y-64.77
X125.984Y-64.77
X125.984Y-64.77
X125.984Y-114.77
X125.984Y-114.77
X125.984Y-114.77
X125.984Y-114.77
X125.984Y-114.77
X126.457Y-35.56
X126.457Y-35.56
X126.457Y-35.56
X126.457Y-35.56
X126.457Y-35.56
X126.457Y-36.83
X126.457Y-36.83
X126.457Y-36.83
X126.457Y-36.83
X126.457Y-36.83
X126.457Y-85.56
X126.457Y-85.56
X126.457Y-85.56
X126.457Y-85.56
X126.457Y-85.56
X126.457Y-86.83
X126.457Y-86.83
X126.457Y-86.83
X126.457Y-86.83
X126.457Y-86.83
X127.0Y-47.752
X127.0Y-47.752
X127.0Y-47.752
X127.0Y-47.752
X127.0Y-47.752
X127.0Y-97.752
X127.0Y-97.752
X127.0Y-97.752
X127.0Y-97.752
X127.0Y-97.752
X127.127Y-37.465
X127.127Y-37.465
X127.127Y-37.465
X127.127Y-37.465
X127.127Y-37.465
X127.127Y-87.465
X127.127Y-87.465
X127.127Y-87.465
X127.127Y-87.465
X127.127Y-87.465
X129.032Y-53.34
X129.032Y-53.34
X129.032Y-53.34
X129.032Y-53.34
X129.032Y-53.34
X129.032Y-103.34
X129.032Y-103.34
X129.032Y-103.34
X129.032Y-103.34
X129.032Y-103.34
X129.665Y-55.992
X129.665Y-55.992
X129.665Y-55.992
X129.665Y-55.992
X129.665Y-55.992
X129.665Y-105.992
X129.665Y-105.992
X129.665Y-105.992
X129.665Y-105.992
X129.665Y-105.992
X129.783Y-43.703
X129.783Y-43.703
X129.783Y-43.703
X129.783Y-43.703
X129.783Y-43.703
X129.783Y-93.703
X129.783Y-93.703
X129.783Y-93.703
X129.783Y-93.703
X129.783Y-93.703
X130.301Y-33.91
X130.301Y-33.91
X130.301Y-33.91
X130.301Y-33.91
X130.301Y-33.91
X130.301Y-83.91
X130.301Y-83.91
X130.301Y-83.91
X130.301Y-83.91
X130.301Y-83.91
X130.556Y-64.516
X130.556Y-64.516
X130.556Y-64.516
X130.556Y-64.516
X130.556Y-64.516
X130.556Y-114.516
X130.556Y-114.516
X130.556Y-114.516
X130.556Y-114.516
X130.556Y-114.516
X131.826Y-74.422
X131.826Y-74.422
X131.826Y-74.422
X131.826Y-74.422
X131.826Y-74.422
X131.826Y-124.422
X131.826Y-124.422
X131.826Y-124.422
X131.826Y-124.422
X131.826Y-124.422
X136.906Y-33.66
X136.906Y-33.66
X136.906Y-33.66
X136.906Y-33.66
X136.906Y-33.66
X136.906Y-83.66
X136.906Y-83.66
X136.906Y-83.66
X136.906Y-83.66
X136.906Y-83.66
X138.811Y-33.147
X138.811Y-33.147
X138.811Y-33.147
X138.811Y-33.147
X138.811Y-33.147
X138.811Y-83.147
X138.811Y-83.147
X138.811Y-83.147
X138.811Y-83.147
X138.811Y-83.147
X139.573Y-42.834
X139.573Y-42.834
X139.573Y-42.834
X139.573Y-42.834
X139.573Y-42.834
X139.573Y-92.834
X139.573Y-92.834
X139.573Y-92.834
X139.573Y-92.834
X139.573Y-92.834
X146.888Y-33.732
X146.888Y-33.732
X146.888Y-33.732
X146.888Y-33.732
X146.888Y-33.732
X146.888Y-83.732
X146.888Y-83.732
X146.888Y-83.732
X146.888Y-83.732
X146.888Y-83.732
X148.844Y-39.116
X148.844Y-39.116
X148.844Y-39.116
X148.844Y-39.116
X148.844Y-39.116
X148.844Y-89.116
X148.844Y-89.116
X148.844Y-89.116
X148.844Y-89.116
X148.844Y-89.116
X152.4Y-46.863
X152.4Y-46.863
X152.4Y-46.863
X152.4Y-46.863
X152.4Y-46.863
X152.4Y-96.863
X152.4Y-96.863
X152.4Y-96.863
X152.4Y-96.863
X152.4Y-96.863
X155.448Y-45.974
X155.448Y-45.974
X155.448Y-45.974
X155.448Y-45.974
X155.448Y-45.974
X155.448Y-95.974
X155.448Y-95.974
X155.448Y-95.974
X155.448Y-95.974
X155.448Y-95.974
X156.718Y-40.767
X156.718Y-40.767
X156.718Y-40.767
X156.718Y-40.767
X156.718Y-40.767
X156.718Y-90.767
X156.718Y-90.767
X156.718Y-90.767
X156.718Y-90.767
X156.718Y-90.767
X159.766Y-39.243
X159.766Y-39.243
X159.766Y-39.243
X159.766Y-39.243
X159.766Y-39.243
X159.766Y-89.243
X159.766Y-89.243
X159.766Y-89.243
X159.766Y-89.243
X159.766Y-89.243
X162.052Y-32.258
X162.052Y-32.258
X162.052Y-32.258
X162.052Y-32.258
X162.052Y-32.258
X162.052Y-82.258
X162.052Y-82.258
X162.052Y-82.258
X162.052Y-82.258
X162.052Y-82.258
T2
X66.421Y-53.467
X66.421Y-53.467
X66.421Y-53.467
X66.421Y-53.467
X66.421Y-53.467
X66.421Y-68.707
X66.421Y-68.707
X66.421Y-68.707
X66.421Y-68.707
X66.421Y-68.707
X66.421Y-103.467
X66.421Y-103.467
X66.421Y-103.467
X66.421Y-103.467
X66.421Y-103.467
X66.421Y-118.707
X66.421Y-118.707
X66.421Y-118.707
X66.421Y-118.707
X66.421Y-118.707
X68.961Y-53.467
X68.961Y-53.467
X68.961Y-53.467
X68.961Y-53.467
X68.961Y-53.467
X68.961Y-68.707
X68.961Y-68.707
X68.961Y-68.707
X68.961Y-68.707
X68.961Y-68.707
X68.961Y-103.467
X68.961Y-103.467
X68.961Y-103.467
X68.961Y-103.467
X68.961Y-103.467
X68.961Y-118.707
X68.961Y-118.707
X68.961Y-118.707
X68.961Y-118.707
X68.961Y-118.707
X71.501Y-53.467
X71.501Y-53.467
X71.501Y-53.467
X71.501Y-53.467
X71.501Y-53.467
X71.501Y-68.707
X71.501Y-68.707
X71.501Y-68.707
X71.501Y-68.707
X71.501Y-68.707
X71.501Y-103.467
X71.501Y-103.467
X71.501Y-103.467
X71.501Y-103.467
X71.501Y-103.467
X71.501Y-118.707
X71.501Y-118.707
X71.501Y-118.707
X71.501Y-118.707
X71.501Y-118.707
X74.041Y-53.467
X74.041Y-53.467
X74.041Y-53.467
X74.041Y-53.467
X74.041Y-53.467
X74.041Y-68.707
X74.041Y-68.707
X74.041Y-68.707
X74.041Y-68.707
X74.041Y-68.707
X74.041Y-103.467
X74.041Y-103.467
X74.041Y-103.467
X74.041Y-103.467
X74.041Y-103.467
X74.041Y-118.707
X74.041Y-118.707
X74.041Y-118.707
X74.041Y-118.707
X74.041Y-118.707
X76.581Y-53.467
X76.581Y-53.467
X76.581Y-53.467
X76.581Y-53.467
X76.581Y-53.467
X76.581Y-68.707
X76.581Y-68.707
X76.581Y-68.707
X76.581Y-68.707
X76.581Y-68.707
X76.581Y-103.467
X76.581Y-103.467
X76.581Y-103.467
X76.581Y-103.467
X76.581Y-103.467
X76.581Y-118.707
X76.581Y-118.707
X76.581Y-118.707
X76.581Y-118.707
X76.581Y-118.707
X79.121Y-53.467
X79.121Y-53.467
X79.121Y-53.467
X79.121Y-53.467
X79.121Y-53.467
X79.121Y-68.707
X79.121Y-68.707
X79.121Y-68.707
X79.121Y-68.707
X79.121Y-68.707
X79.121Y-103.467
X79.121Y-103.467
X79.121Y-103.467
X79.121Y-103.467
X79.121Y-103.467
X79.121Y-118.707
X79.121Y-118.707
X79.121Y-118.707
X79.121Y-118.707
X79.121Y-118.707
X81.661Y-53.467
X81.661Y-53.467
X81.661Y-53.467
X81.661Y-53.467
X81.661Y-53.467
X81.661Y-68.707
X81.661Y-68.707
X81.661Y-68.707
X81.661Y-68.707
X81.661Y-68.707
X81.661Y-103.467
X81.661Y-103.467
X81.661Y-103.467
X81.661Y-103.467
X81.661Y-103.467
X81.661Y-118.707
X81.661Y-118.707
X81.661Y-118.707
X81.661Y-118.707
X81.661Y-118.707
X84.201Y-53.467
X84.201Y-53.467
X84.201Y-53.467
X84.201Y-53.467
X84.201Y-53.467
X84.201Y-68.707
X84.201Y-68.707
X84.201Y-68.707
X84.201Y-68.707
X84.201Y-68.707
X84.201Y-103.467
X84.201Y-103.467
X84.201Y-103.467
X84.201Y-103.467
X84.201Y-103.467
X84.201Y-118.707
X84.201Y-118.707
X84.201Y-118.707
X84.201Y-118.707
X84.201Y-118.707
X114.681Y-48.356
X114.681Y-48.356
X114.681Y-48.356
X114.681Y-48.356
X114.681Y-48.356
X114.681Y-98.356
X114.681Y-98.356
X114.681Y-98.356
X114.681Y-98.356
X114.681Y-98.356
X117.221Y-48.356
X117.221Y-48.356
X117.221Y-48.356
X117.221Y-48.356
X117.221Y-48.356
X117.221Y-98.356
X117.221Y-98.356
X117.221Y-98.356
X117.221Y-98.356
X117.221Y-98.356
X119.761Y-48.356
X119.761Y-48.356
X119.761Y-48.356
X119.761Y-48.356
X119.761Y-48.356
X119.761Y-98.356
X119.761Y-98.356
X119.761Y-98.356
X119.761Y-98.356
X119.761Y-98.356
X122.301Y-48.356
X122.301Y-48.356
X122.301Y-48.356
X122.301Y-48.356
X122.301Y-48.356
X122.301Y-98.356
X122.301Y-98.356
X122.301Y-98.356
X122.301Y-98.356
X122.301Y-98.356
T3
X65.909Y-35.941
X65.909Y-35.941
X65.909Y-35.941
X65.909Y-35.941
X65.909Y-35.941
X65.909Y-85.941
X65.909Y-85.941
X65.909Y-85.941
X65.909Y-85.941
X65.909Y-85.941
X67.659Y-47.371
X67.659Y-47.371
X67.659Y-47.371
X67.659Y-47.371
X67.659Y-47.371
X67.659Y-97.371
X67.659Y-97.371
X67.659Y-97.371
X67.659Y-97.371
X67.659Y-97.371
X69.409Y-35.941
X69.409Y-35.941
X69.409Y-35.941
X69.409Y-35.941
X69.409Y-35.941
X69.409Y-85.941
X69.409Y-85.941
X69.409Y-85.941
X69.409Y-85.941
X69.409Y-85.941
X71.159Y-47.371
X71.159Y-47.371
X71.159Y-47.371
X71.159Y-47.371
X71.159Y-47.371
X71.159Y-97.371
X71.159Y-97.371
X71.159Y-97.371
X71.159Y-97.371
X71.159Y-97.371
X72.909Y-35.941
X72.909Y-35.941
X72.909Y-35.941
X72.909Y-35.941
X72.909Y-35.941
X72.909Y-85.941
X72.909Y-85.941
X72.909Y-85.941
X72.909Y-85.941
X72.909Y-85.941
X74.659Y-47.371
X74.659Y-47.371
X74.659Y-47.371
X74.659Y-47.371
X74.659Y-47.371
X74.659Y-97.371
X74.659Y-97.371
X74.659Y-97.371
X74.659Y-97.371
X74.659Y-97.371
X76.409Y-35.941
X76.409Y-35.941
X76.409Y-35.941
X76.409Y-35.941
X76.409Y-35.941
X76.409Y-85.941
X76.409Y-85.941
X76.409Y-85.941
X76.409Y-85.941
X76.409Y-85.941
X78.159Y-47.371
X78.159Y-47.371
X78.159Y-47.371
X78.159Y-47.371
X78.159Y-47.371
X78.159Y-97.371
X78.159Y-97.371
X78.159Y-97.371
X78.159Y-97.371
X78.159Y-97.371
X79.909Y-35.941
X79.909Y-35.941
X79.909Y-35.941
X79.909Y-35.941
X79.909Y-35.941
X79.909Y-85.941
X79.909Y-85.941
X79.909Y-85.941
X79.909Y-85.941
X79.909Y-85.941
X81.659Y-47.371
X81.659Y-47.371
X81.659Y-47.371
X81.659Y-47.371
X81.659Y-47.371
X81.659Y-97.371
X81.659Y-97.371
X81.659Y-97.371
X81.659Y-97.371
X81.659Y-97.371
X83.409Y-35.941
X83.409Y-35.941
X83.409Y-35.941
X83.409Y-35.941
X83.409Y-35.941
X83.409Y-85.941
X83.409Y-85.941
X83.409Y-85.941
X83.409Y-85.941
X83.409Y-85.941
X85.159Y-47.371
X85.159Y-47.371
X85.159Y-47.371
X85.159Y-47.371
X85.159Y-47.371
X85.159Y-97.371
X85.159Y-97.371
X85.159Y-97.371
X85.159Y-97.371
X85.159Y-97.371
X86.909Y-35.941
X86.909Y-35.941
X86.909Y-35.941
X86.909Y-35.941
X86.909Y-35.941
X86.909Y-85.941
X86.909Y-85.941
X86.909Y-85.941
X86.909Y-85.941
X86.909Y-85.941
X88.659Y-47.371
X88.659Y-47.371
X88.659Y-47.371
X88.659Y-47.371
X88.659Y-47.371
X88.659Y-97.371
X88.659Y-97.371
X88.659Y-97.371
X88.659Y-97.371
X88.659Y-97.371
X90.409Y-35.941
X90.409Y-35.941
X90.409Y-35.941
X90.409Y-35.941
X90.409Y-35.941
X90.409Y-85.941
X90.409Y-85.941
X90.409Y-85.941
X90.409Y-85.941
X90.409Y-85.941
X92.159Y-47.371
X92.159Y-47.371
X92.159Y-47.371
X92.159Y-47.371
X92.159Y-47.371
X92.159Y-97.371
X92.159Y-97.371
X92.159Y-97.371
X92.159Y-97.371
X92.159Y-97.371
X93.909Y-35.941
X93.909Y-35.941
X93.909Y-35.941
X93.909Y-35.941
X93.909Y-35.941
X93.909Y-85.941
X93.909Y-85.941
X93.909Y-85.941
X93.909Y-85.941
X93.909Y-85.941
X95.659Y-47.371
X95.659Y-47.371
X95.659Y-47.371
X95.659Y-47.371
X95.659Y-47.371
X95.659Y-97.371
X95.659Y-97.371
X95.659Y-97.371
X95.659Y-97.371
X95.659Y-97.371
X97.409Y-35.941
X97.409Y-35.941
X97.409Y-35.941
X97.409Y-35.941
X97.409Y-35.941
X97.409Y-85.941
X97.409Y-85.941
X97.409Y-85.941
X97.409Y-85.941
X97.409Y-85.941
X99.159Y-47.371
X99.159Y-47.371
X99.159Y-47.371
X99.159Y-47.371
X99.159Y-47.371
X99.159Y-97.371
X99.159Y-97.371
X99.159Y-97.371
X99.159Y-97.371
X99.159Y-97.371
X147.066Y-49.332
X147.066Y-49.332
X147.066Y-49.332
X147.066Y-49.332
X147.066Y-49.332
X147.066Y-52.832
X147.066Y-52.832
X147.066Y-52.832
X147.066Y-52.832
X147.066Y-52.832
X147.066Y-56.332
X147.066Y-56.332
X147.066Y-56.332
X147.066Y-56.332
X147.066Y-56.332
X147.066Y-59.832
X147.066Y-59.832
X147.066Y-59.832
X147.066Y-59.832
X147.066Y-59.832
X147.066Y-63.332
X147.066Y-63.332
X147.066Y-63.332
X147.066Y-63.332
X147.066Y-63.332
X147.066Y-66.832
X147.066Y-66.832
X147.066Y-66.832
X147.066Y-66.832
X147.066Y-66.832
X147.066Y-70.332
X147.066Y-70.332
X147.066Y-70.332
X147.066Y-70.332
X147.066Y-70.332
X147.066Y-99.332
X147.066Y-99.332
X147.066Y-99.332
X147.066Y-99.332
X147.066Y-99.332
X147.066Y-102.832
X147.066Y-102.832
X147.066Y-102.832
X147.066Y-102.832
X147.066Y-102.832
X147.066Y-106.332
X147.066Y-106.332
X147.066Y-106.332
X147.066Y-106.332
X147.066Y-106.332
X147.066Y-109.832
X147.066Y-109.832
X147.066Y-109.832
X147.066Y-109.832
X147.066Y-109.832
X147.066Y-113.332
X147.066Y-113.332
X147.066Y-113.332
X147.066Y-113.332
X147.066Y-113.332
X147.066Y-116.832
X147.066Y-116.832
X147.066Y-116.832
X147.066Y-116.832
X147.066Y-116.832
X147.066Y-120.332
X147.066Y-120.332
X147.066Y-120.332
X147.066Y-120.332
X147.066Y-120.332
X158.496Y-47.582
X158.496Y-47.582
X158.496Y-47.582
X158.496Y-47.582
X158.496Y-47.582
X158.496Y-51.082
X158.496Y-51.082
X158.496Y-51.082
X158.496Y-51.082
X158.496Y-51.082
X158.496Y-54.582
X158.496Y-54.582
X158.496Y-54.582
X158.496Y-54.582
X158.496Y-54.582
X158.496Y-58.082
X158.496Y-58.082
X158.496Y-58.082
X158.496Y-58.082
X158.496Y-58.082
X158.496Y-61.582
X158.496Y-61.582
X158.496Y-61.582
X158.496Y-61.582
X158.496Y-61.582
X158.496Y-65.082
X158.496Y-65.082
X158.496Y-65.082
X158.496Y-65.082
X158.496Y-65.082
X158.496Y-68.582
X158.496Y-68.582
X158.496Y-68.582
X158.496Y-68.582
X158.496Y-68.582
X158.496Y-97.582
X158.496Y-97.582
X158.496Y-97.582
X158.496Y-97.582
X158.496Y-97.582
X158.496Y-101.082
X158.496Y-101.082
X158.496Y-101.082
X158.496Y-101.082
X158.496Y-101.082
X158.496Y-104.582
X158.496Y-104.582
X158.496Y-104.582
X158.496Y-104.582
X158.496Y-104.582
X158.496Y-108.082
X158.496Y-108.082
X158.496Y-108.082
X158.496Y-108.082
X158.496Y-108.082
X158.496Y-111.582
X158.496Y-111.582
X158.496Y-111.582
X158.496Y-111.582
X158.496Y-111.582
X158.496Y-115.082
X158.496Y-115.082
X158.496Y-115.082
X158.496Y-115.082
X158.496Y-115.082
X158.496Y-118.582
X158.496Y-118.582
X158.496Y-118.582
X158.496Y-118.582
X158.496Y-118.582
M30
