M48
; DRILL file {KiCad 7.0.11+dfsg-1build4} date jue 21 may 2026 22:27:18
; FORMAT={-:-/ absolute / metric / decimal}
; #@! TF.CreationDate,2026-05-21T22:27:18-05:00
; #@! TF.GenerationSoftware,Kicad,Pcbnew,7.0.11+dfsg-1build4
; #@! TF.FileFunction,Plated,1,2,PTH
FMAT,2
METRIC
; #@! TA.AperFunction,Plated,PTH,ViaDrill
T1C0.300
; #@! TA.AperFunction,Plated,PTH,ComponentDrill
T2C1.000
; #@! TA.AperFunction,Plated,PTH,ComponentDrill
T3C1.200
%
G90
G05
T1
X68.529Y-27.28
X68.529Y-77.28
X68.834Y-61.316
X68.834Y-111.316
X68.936Y-69.393
X68.936Y-119.393
X70.099Y-65.927
X70.099Y-115.927
X77.577Y-50.145
X77.577Y-100.145
X77.947Y-45.478
X77.947Y-95.478
X85.862Y-65.352
X85.862Y-115.352
X87.63Y-27.381
X87.63Y-77.381
X88.341Y-57.404
X88.341Y-107.404
X93.192Y-62.515
X93.192Y-112.515
X93.851Y-64.764
X93.851Y-114.764
X94.016Y-68.681
X94.016Y-118.681
X94.285Y-60.096
X94.285Y-110.096
X94.386Y-62.433
X94.386Y-112.433
X94.437Y-61.214
X94.437Y-111.214
X94.444Y-67.913
X94.444Y-117.913
X94.945Y-49.225
X94.945Y-99.225
X99.465Y-64.938
X99.465Y-114.938
X99.517Y-55.423
X99.517Y-105.423
X99.56Y-63.793
X99.56Y-113.793
X99.704Y-61.629
X99.704Y-111.629
X99.72Y-52.019
X99.72Y-102.019
X99.816Y-62.431
X99.816Y-112.431
X101.06Y-59.503
X101.06Y-109.503
X103.268Y-62.028
X103.268Y-112.028
X103.276Y-65.329
X103.276Y-115.329
X103.441Y-59.108
X103.441Y-109.108
X103.48Y-66.345
X103.48Y-116.345
X103.683Y-68.478
X103.683Y-118.478
X103.734Y-48.768
X103.734Y-98.768
X103.997Y-60.728
X103.997Y-110.728
X104.1Y-57.277
X104.1Y-107.277
X104.658Y-52.505
X104.658Y-102.505
X104.699Y-68.732
X104.699Y-118.732
X104.8Y-48.514
X104.8Y-98.514
X105.359Y-27.229
X105.359Y-77.229
X105.612Y-60.174
X105.612Y-110.174
X105.653Y-51.924
X105.653Y-101.924
X105.712Y-62.687
X105.712Y-112.687
X106.842Y-55.194
X106.842Y-105.194
X106.883Y-48.311
X106.883Y-98.311
X107.544Y-59.284
X107.544Y-109.284
X107.837Y-52.368
X107.837Y-102.368
X108.712Y-60.452
X108.712Y-110.452
X109.147Y-46.675
X109.147Y-96.675
X109.21Y-65.847
X109.21Y-115.847
X109.451Y-54.325
X109.451Y-104.325
X109.88Y-47.854
X109.88Y-97.854
X110.084Y-59.893
X110.084Y-109.893
X110.134Y-63.602
X110.134Y-113.602
X110.338Y-39.573
X110.338Y-89.573
X110.693Y-43.79
X110.693Y-93.79
X111.001Y-63.993
X111.001Y-113.993
X113.792Y-32.055
X113.792Y-82.055
X114.249Y-69.393
X114.249Y-119.393
X116.281Y-66.091
X116.281Y-116.091
X117.094Y-50.648
X117.094Y-100.648
X117.399Y-38.913
X117.399Y-88.913
X117.653Y-64.516
X117.653Y-114.516
X118.466Y-28.956
X118.466Y-78.956
X118.842Y-33.559
X118.842Y-83.559
X118.872Y-30.429
X118.872Y-80.429
X119.025Y-39.972
X119.025Y-89.972
X119.685Y-27.178
X119.685Y-77.178
X123.038Y-48.768
X123.038Y-98.768
X124.141Y-46.169
X124.141Y-96.169
X125.273Y-33.426
X125.273Y-83.426
X125.476Y-61.976
X125.476Y-111.976
X125.578Y-29.108
X125.578Y-79.108
X126.543Y-59.03
X126.543Y-109.03
X126.594Y-36.474
X126.594Y-86.474
X126.695Y-33.579
X126.695Y-83.579
X126.797Y-30.988
X126.797Y-80.988
X128.372Y-59.995
X128.372Y-109.995
X130.099Y-36.271
X130.099Y-86.271
X130.154Y-30.48
X130.154Y-80.48
X130.8Y-35.611
X130.8Y-85.611
X131.013Y-28.702
X131.013Y-78.702
X131.064Y-27.368
X131.064Y-77.368
X131.724Y-44.806
X131.724Y-94.806
X131.775Y-36.17
X131.775Y-86.17
X131.826Y-34.341
X131.826Y-84.341
X131.85Y-31.996
X131.85Y-81.996
X131.877Y-28.499
X131.877Y-78.499
X131.978Y-41.199
X131.978Y-91.199
X134.874Y-32.918
X134.874Y-82.918
X135.738Y-46.33
X135.738Y-96.33
X136.347Y-69.24
X136.347Y-119.24
X138.024Y-62.89
X138.024Y-112.89
X138.074Y-42.977
X138.074Y-92.977
X138.176Y-52.426
X138.176Y-102.426
X139.903Y-28.559
X139.903Y-78.559
X142.088Y-34.544
X142.088Y-84.544
X148.539Y-27.686
X148.539Y-77.686
X153.314Y-34.696
X153.314Y-84.696
X153.772Y-28.652
X153.772Y-78.652
X156.058Y-38.405
X156.058Y-88.405
X157.277Y-32.969
X157.277Y-82.969
X158.09Y-39.878
X158.09Y-89.878
X158.344Y-38.405
X158.344Y-88.405
X162.408Y-28.6
X162.408Y-78.6
T2
X71.145Y-48.387
X71.145Y-63.627
X71.145Y-98.387
X71.145Y-113.627
X73.685Y-48.387
X73.685Y-63.627
X73.685Y-98.387
X73.685Y-113.627
X76.225Y-48.387
X76.225Y-63.627
X76.225Y-98.387
X76.225Y-113.627
X78.765Y-48.387
X78.765Y-63.627
X78.765Y-98.387
X78.765Y-113.627
X81.305Y-48.387
X81.305Y-63.627
X81.305Y-98.387
X81.305Y-113.627
X83.845Y-48.387
X83.845Y-63.627
X83.845Y-98.387
X83.845Y-113.627
X86.385Y-48.387
X86.385Y-63.627
X86.385Y-98.387
X86.385Y-113.627
X88.925Y-48.387
X88.925Y-63.627
X88.925Y-98.387
X88.925Y-113.627
X119.405Y-43.276
X119.405Y-93.276
X121.945Y-43.276
X121.945Y-93.276
X124.485Y-43.276
X124.485Y-93.276
X127.025Y-43.276
X127.025Y-93.276
T3
X70.633Y-30.861
X70.633Y-80.861
X72.383Y-42.291
X72.383Y-92.291
X74.133Y-30.861
X74.133Y-80.861
X75.883Y-42.291
X75.883Y-92.291
X77.633Y-30.861
X77.633Y-80.861
X79.383Y-42.291
X79.383Y-92.291
X81.133Y-30.861
X81.133Y-80.861
X82.883Y-42.291
X82.883Y-92.291
X84.633Y-30.861
X84.633Y-80.861
X86.383Y-42.291
X86.383Y-92.291
X88.133Y-30.861
X88.133Y-80.861
X89.883Y-42.291
X89.883Y-92.291
X91.633Y-30.861
X91.633Y-80.861
X93.383Y-42.291
X93.383Y-92.291
X95.133Y-30.861
X95.133Y-80.861
X96.883Y-42.291
X96.883Y-92.291
X98.633Y-30.861
X98.633Y-80.861
X100.383Y-42.291
X100.383Y-92.291
X102.133Y-30.861
X102.133Y-80.861
X103.883Y-42.291
X103.883Y-92.291
X151.79Y-44.252
X151.79Y-47.752
X151.79Y-51.252
X151.79Y-54.752
X151.79Y-58.252
X151.79Y-61.752
X151.79Y-65.252
X151.79Y-94.252
X151.79Y-97.752
X151.79Y-101.252
X151.79Y-104.752
X151.79Y-108.252
X151.79Y-111.752
X151.79Y-115.252
X163.22Y-42.502
X163.22Y-46.002
X163.22Y-49.502
X163.22Y-53.002
X163.22Y-56.502
X163.22Y-60.002
X163.22Y-63.502
X163.22Y-92.502
X163.22Y-96.002
X163.22Y-99.502
X163.22Y-103.002
X163.22Y-106.502
X163.22Y-110.002
X163.22Y-113.502
M30
