%TF.GenerationSoftware,KiCad,Pcbnew,7.0.11+dfsg-1build4*%
%TF.CreationDate,2026-05-24T20:18:23-05:00*%
%TF.ProjectId,,58585858-5858-4585-9858-585858585858,rev?*%
%TF.SameCoordinates,Original*%
%TF.FileFunction,Soldermask,Bot*%
%TF.FilePolarity,Negative*%
%FSLAX46Y46*%
G04 Gerber Fmt 4.6, Leading zero omitted, Abs format (unit mm)*
G04 Created by KiCad (PCBNEW 7.0.11+dfsg-1build4) date 2026-05-24 20:18:23*
%MOMM*%
%LPD*%
G01*
G04 APERTURE LIST*
%ADD10C,3.200000*%
%ADD11R,1.700000X1.700000*%
%ADD12C,1.700000*%
%ADD13R,2.400000X2.400000*%
%ADD14C,2.400000*%
%ADD15R,1.600000X1.600000*%
%ADD16O,1.600000X1.600000*%
%TA.AperFunction,Profile*%
%ADD17C,0.050000*%
%TD*%
G04 APERTURE END LIST*
D10*
%TO.C,MH09*%
X49856000Y-124227600D03*
%TD*%
D11*
%TO.C,U5*%
X75311000Y-93927600D03*
D12*
X77851000Y-93927600D03*
X80391000Y-93927600D03*
X82931000Y-93927600D03*
%TD*%
D10*
%TO.C,MH03*%
X110816000Y-124227600D03*
%TD*%
%TO.C,MH08*%
X60016000Y-124227600D03*
%TD*%
%TO.C,MH04*%
X100656000Y-124227600D03*
%TD*%
%TO.C,MH01*%
X131136000Y-124227600D03*
%TD*%
D13*
%TO.C,J2*%
X135636000Y-103992600D03*
D14*
X124206000Y-105742600D03*
X135636000Y-100492600D03*
X124206000Y-102242600D03*
X135636000Y-96992600D03*
X124206000Y-98742600D03*
%TD*%
D10*
%TO.C,MH02*%
X120976000Y-124227600D03*
%TD*%
%TO.C,MH05*%
X90496000Y-124227600D03*
%TD*%
%TO.C,MH06*%
X80336000Y-124227600D03*
%TD*%
%TO.C,MH07*%
X70176000Y-124227600D03*
%TD*%
D15*
%TO.C,U4*%
X43561000Y-113982600D03*
D16*
X46101000Y-113982600D03*
X48641000Y-113982600D03*
X51181000Y-113982600D03*
X53721000Y-113982600D03*
X56261000Y-113982600D03*
X58801000Y-113982600D03*
X61341000Y-113982600D03*
X61341000Y-98742600D03*
X58801000Y-98742600D03*
X56261000Y-98742600D03*
X53721000Y-98742600D03*
X51181000Y-98742600D03*
X48641000Y-98742600D03*
X46101000Y-98742600D03*
X43561000Y-98742600D03*
%TD*%
D13*
%TO.C,J1*%
X60301000Y-82027600D03*
D14*
X62051000Y-93457600D03*
X56801000Y-82027600D03*
X58551000Y-93457600D03*
X53301000Y-82027600D03*
X55051000Y-93457600D03*
X49801000Y-82027600D03*
X51551000Y-93457600D03*
X46301000Y-82027600D03*
X48051000Y-93457600D03*
X42801000Y-82027600D03*
X44551000Y-93457600D03*
%TD*%
D10*
%TO.C,MH05*%
X90496000Y-74227600D03*
%TD*%
D13*
%TO.C,J2*%
X135636000Y-53992600D03*
D14*
X124206000Y-55742600D03*
X135636000Y-50492600D03*
X124206000Y-52242600D03*
X135636000Y-46992600D03*
X124206000Y-48742600D03*
%TD*%
D10*
%TO.C,MH01*%
X131136000Y-74227600D03*
%TD*%
%TO.C,MH03*%
X110816000Y-74227600D03*
%TD*%
D15*
%TO.C,U4*%
X43561000Y-63982600D03*
D16*
X46101000Y-63982600D03*
X48641000Y-63982600D03*
X51181000Y-63982600D03*
X53721000Y-63982600D03*
X56261000Y-63982600D03*
X58801000Y-63982600D03*
X61341000Y-63982600D03*
X61341000Y-48742600D03*
X58801000Y-48742600D03*
X56261000Y-48742600D03*
X53721000Y-48742600D03*
X51181000Y-48742600D03*
X48641000Y-48742600D03*
X46101000Y-48742600D03*
X43561000Y-48742600D03*
%TD*%
D10*
%TO.C,MH09*%
X49856000Y-74227600D03*
%TD*%
%TO.C,MH02*%
X120976000Y-74227600D03*
%TD*%
%TO.C,MH07*%
X70176000Y-74227600D03*
%TD*%
%TO.C,MH08*%
X60016000Y-74227600D03*
%TD*%
D11*
%TO.C,U5*%
X75311000Y-43927600D03*
D12*
X77851000Y-43927600D03*
X80391000Y-43927600D03*
X82931000Y-43927600D03*
%TD*%
D13*
%TO.C,J1*%
X60301000Y-32027600D03*
D14*
X62051000Y-43457600D03*
X56801000Y-32027600D03*
X58551000Y-43457600D03*
X53301000Y-32027600D03*
X55051000Y-43457600D03*
X49801000Y-32027600D03*
X51551000Y-43457600D03*
X46301000Y-32027600D03*
X48051000Y-43457600D03*
X42801000Y-32027600D03*
X44551000Y-43457600D03*
%TD*%
D10*
%TO.C,MH06*%
X80336000Y-74227600D03*
%TD*%
%TO.C,MH04*%
X100656000Y-74227600D03*
%TD*%
D17*
X40136000Y-76727600D02*
X140136000Y-76727600D01*
X140136000Y-126727600D01*
X40136000Y-126727600D01*
X40136000Y-76727600D01*
X40136000Y-26727600D02*
X140136000Y-26727600D01*
X140136000Y-76727600D01*
X40136000Y-76727600D01*
X40136000Y-26727600D01*
M02*
