%TF.GenerationSoftware,KiCad,Pcbnew,7.0.11+dfsg-1build4*%
%TF.CreationDate,2026-03-19T18:47:40-05:00*%
%TF.ProjectId,,58585858-5858-4585-9858-585858585858,rev?*%
%TF.SameCoordinates,Original*%
%TF.FileFunction,Soldermask,Top*%
%TF.FilePolarity,Negative*%
%FSLAX46Y46*%
G04 Gerber Fmt 4.6, Leading zero omitted, Abs format (unit mm)*
G04 Created by KiCad (PCBNEW 7.0.11+dfsg-1build4) date 2026-03-19 18:47:40*
%MOMM*%
%LPD*%
G01*
G04 APERTURE LIST*
G04 Aperture macros list*
%AMRoundRect*
0 Rectangle with rounded corners*
0 $1 Rounding radius*
0 $2 $3 $4 $5 $6 $7 $8 $9 X,Y pos of 4 corners*
0 Add a 4 corners polygon primitive as box body*
4,1,4,$2,$3,$4,$5,$6,$7,$8,$9,$2,$3,0*
0 Add four circle primitives for the rounded corners*
1,1,$1+$1,$2,$3*
1,1,$1+$1,$4,$5*
1,1,$1+$1,$6,$7*
1,1,$1+$1,$8,$9*
0 Add four rect primitives between the rounded corners*
20,1,$1+$1,$2,$3,$4,$5,0*
20,1,$1+$1,$4,$5,$6,$7,0*
20,1,$1+$1,$6,$7,$8,$9,0*
20,1,$1+$1,$8,$9,$2,$3,0*%
G04 Aperture macros list end*
%ADD10RoundRect,0.250000X-0.350000X-0.450000X0.350000X-0.450000X0.350000X0.450000X-0.350000X0.450000X0*%
%ADD11RoundRect,0.250000X0.337500X0.475000X-0.337500X0.475000X-0.337500X-0.475000X0.337500X-0.475000X0*%
%ADD12R,2.400000X2.400000*%
%ADD13C,2.400000*%
%ADD14RoundRect,0.250000X0.350000X0.450000X-0.350000X0.450000X-0.350000X-0.450000X0.350000X-0.450000X0*%
%ADD15RoundRect,0.375000X-0.625000X-0.375000X0.625000X-0.375000X0.625000X0.375000X-0.625000X0.375000X0*%
%ADD16RoundRect,0.500000X-0.500000X-1.400000X0.500000X-1.400000X0.500000X1.400000X-0.500000X1.400000X0*%
%ADD17C,3.200000*%
%ADD18RoundRect,0.250000X-0.475000X0.337500X-0.475000X-0.337500X0.475000X-0.337500X0.475000X0.337500X0*%
%ADD19R,1.300000X1.550000*%
%ADD20RoundRect,0.162500X-0.617500X-0.162500X0.617500X-0.162500X0.617500X0.162500X-0.617500X0.162500X0*%
%ADD21R,0.800000X1.800000*%
%ADD22R,1.700000X1.700000*%
%ADD23C,1.700000*%
%ADD24R,1.800000X0.800000*%
%ADD25R,1.000000X3.100000*%
%ADD26R,1.600000X1.600000*%
%ADD27O,1.600000X1.600000*%
%ADD28RoundRect,0.150000X-0.825000X-0.150000X0.825000X-0.150000X0.825000X0.150000X-0.825000X0.150000X0*%
%ADD29RoundRect,0.250000X0.325000X0.450000X-0.325000X0.450000X-0.325000X-0.450000X0.325000X-0.450000X0*%
%ADD30RoundRect,0.250000X-0.337500X-0.475000X0.337500X-0.475000X0.337500X0.475000X-0.337500X0.475000X0*%
%ADD31RoundRect,0.150000X-0.512500X-0.150000X0.512500X-0.150000X0.512500X0.150000X-0.512500X0.150000X0*%
%ADD32RoundRect,0.150000X-0.875000X-0.150000X0.875000X-0.150000X0.875000X0.150000X-0.875000X0.150000X0*%
%ADD33RoundRect,0.250000X-0.325000X-0.450000X0.325000X-0.450000X0.325000X0.450000X-0.325000X0.450000X0*%
%TA.AperFunction,Profile*%
%ADD34C,0.050000*%
%TD*%
G04 APERTURE END LIST*
D10*
%TO.C,R15*%
X51340000Y-110690000D03*
X53340000Y-110690000D03*
%TD*%
%TO.C,R1*%
X91710000Y-72225000D03*
X93710000Y-72225000D03*
%TD*%
D11*
%TO.C,C1*%
X122725000Y-91910000D03*
X120650000Y-91910000D03*
%TD*%
D12*
%TO.C,J2*%
X140970000Y-96525000D03*
D13*
X129540000Y-98275000D03*
X140970000Y-93025000D03*
X129540000Y-94775000D03*
X140970000Y-89525000D03*
X129540000Y-91275000D03*
%TD*%
D10*
%TO.C,R2*%
X117380000Y-103340000D03*
X119380000Y-103340000D03*
%TD*%
D14*
%TO.C,R9*%
X63865000Y-110690000D03*
X61865000Y-110690000D03*
%TD*%
D15*
%TO.C,U7*%
X73075000Y-74560000D03*
X73075000Y-76860000D03*
D16*
X79375000Y-76860000D03*
D15*
X73075000Y-79160000D03*
%TD*%
D17*
%TO.C,MH03*%
X116150000Y-116760000D03*
%TD*%
%TO.C,MH05*%
X95830000Y-116760000D03*
%TD*%
D10*
%TO.C,R4*%
X117475000Y-108420000D03*
X119475000Y-108420000D03*
%TD*%
D18*
%TO.C,C2*%
X114300000Y-102070000D03*
X114300000Y-104145000D03*
%TD*%
D19*
%TO.C,SW1*%
X82550000Y-82080000D03*
X82550000Y-74130000D03*
X87050000Y-82080000D03*
X87050000Y-74130000D03*
%TD*%
D17*
%TO.C,MH08*%
X65350000Y-116760000D03*
%TD*%
%TO.C,MH02*%
X126310000Y-116760000D03*
%TD*%
D20*
%TO.C,U6*%
X91440000Y-79210000D03*
X91440000Y-80160000D03*
X91440000Y-81110000D03*
X94140000Y-81110000D03*
X94140000Y-80160000D03*
X94140000Y-79210000D03*
%TD*%
D21*
%TO.C,K1*%
X111125000Y-79845000D03*
X108925000Y-79845000D03*
X113325000Y-79845000D03*
X111125000Y-86845000D03*
X108925000Y-86845000D03*
X113325000Y-86845000D03*
X105725000Y-79845000D03*
X105725000Y-86845000D03*
%TD*%
D10*
%TO.C,R3*%
X117475000Y-105880000D03*
X119475000Y-105880000D03*
%TD*%
%TO.C,R7*%
X132350000Y-106740000D03*
X134350000Y-106740000D03*
%TD*%
D18*
%TO.C,C4*%
X75565000Y-81422500D03*
X75565000Y-83497500D03*
%TD*%
D17*
%TO.C,MH04*%
X105990000Y-116760000D03*
%TD*%
D22*
%TO.C,U5*%
X80645000Y-86460000D03*
D23*
X83185000Y-86460000D03*
X85725000Y-86460000D03*
X88265000Y-86460000D03*
%TD*%
D14*
%TO.C,R11*%
X106680000Y-71590000D03*
X104680000Y-71590000D03*
%TD*%
D17*
%TO.C,MH07*%
X75510000Y-116760000D03*
%TD*%
D24*
%TO.C,K3*%
X134000000Y-81435000D03*
X134000000Y-79235000D03*
X134000000Y-83635000D03*
X127000000Y-81435000D03*
X127000000Y-79235000D03*
X127000000Y-83635000D03*
X134000000Y-76035000D03*
X127000000Y-76035000D03*
%TD*%
D25*
%TO.C,PS1*%
X102235000Y-99000000D03*
X104775000Y-99000000D03*
X109855000Y-99000000D03*
X109855000Y-89900000D03*
X102235000Y-89900000D03*
%TD*%
D10*
%TO.C,R12*%
X108490000Y-71590000D03*
X110490000Y-71590000D03*
%TD*%
D11*
%TO.C,C7*%
X74930000Y-71590000D03*
X72855000Y-71590000D03*
%TD*%
%TO.C,C8*%
X93980000Y-83110000D03*
X91905000Y-83110000D03*
%TD*%
D17*
%TO.C,MH09*%
X55190000Y-116760000D03*
%TD*%
D10*
%TO.C,R5*%
X117475000Y-110960000D03*
X119475000Y-110960000D03*
%TD*%
D26*
%TO.C,U4*%
X48895000Y-106515000D03*
D27*
X51435000Y-106515000D03*
X53975000Y-106515000D03*
X56515000Y-106515000D03*
X59055000Y-106515000D03*
X61595000Y-106515000D03*
X64135000Y-106515000D03*
X66675000Y-106515000D03*
X66675000Y-91275000D03*
X64135000Y-91275000D03*
X61595000Y-91275000D03*
X59055000Y-91275000D03*
X56515000Y-91275000D03*
X53975000Y-91275000D03*
X51435000Y-91275000D03*
X48895000Y-91275000D03*
%TD*%
D14*
%TO.C,R10*%
X67675000Y-110690000D03*
X65675000Y-110690000D03*
%TD*%
D10*
%TO.C,R14*%
X108410000Y-74130000D03*
X110410000Y-74130000D03*
%TD*%
D24*
%TO.C,K2*%
X123825000Y-81455000D03*
X123825000Y-79255000D03*
X123825000Y-83655000D03*
X116825000Y-81455000D03*
X116825000Y-79255000D03*
X116825000Y-83655000D03*
X123825000Y-76055000D03*
X116825000Y-76055000D03*
%TD*%
D28*
%TO.C,U1*%
X119380000Y-95085000D03*
X119380000Y-96355000D03*
X119380000Y-97625000D03*
X119380000Y-98895000D03*
X124330000Y-98895000D03*
X124330000Y-97625000D03*
X124330000Y-96355000D03*
X124330000Y-95085000D03*
%TD*%
D10*
%TO.C,R8*%
X132350000Y-109690000D03*
X134350000Y-109690000D03*
%TD*%
D24*
%TO.C,K4*%
X144010000Y-81435000D03*
X144010000Y-79235000D03*
X144010000Y-83635000D03*
X137010000Y-81435000D03*
X137010000Y-79235000D03*
X137010000Y-83635000D03*
X144010000Y-76035000D03*
X137010000Y-76035000D03*
%TD*%
D18*
%TO.C,C5*%
X73025000Y-81422500D03*
X73025000Y-83497500D03*
%TD*%
D29*
%TO.C,D1*%
X114445000Y-71590000D03*
X112395000Y-71590000D03*
%TD*%
D10*
%TO.C,R6*%
X132350000Y-103790000D03*
X134350000Y-103790000D03*
%TD*%
D30*
%TO.C,C6*%
X77067500Y-71590000D03*
X79142500Y-71590000D03*
%TD*%
D31*
%TO.C,D4*%
X139965000Y-101120000D03*
X139965000Y-103020000D03*
X142240000Y-102070000D03*
%TD*%
D29*
%TO.C,D2*%
X114335000Y-74130000D03*
X112285000Y-74130000D03*
%TD*%
D12*
%TO.C,J1*%
X65635000Y-74560000D03*
D13*
X67385000Y-85990000D03*
X62135000Y-74560000D03*
X63885000Y-85990000D03*
X58635000Y-74560000D03*
X60385000Y-85990000D03*
X55135000Y-74560000D03*
X56885000Y-85990000D03*
X51635000Y-74560000D03*
X53385000Y-85990000D03*
X48135000Y-74560000D03*
X49885000Y-85990000D03*
%TD*%
D30*
%TO.C,C3*%
X91672500Y-76035000D03*
X93747500Y-76035000D03*
%TD*%
D32*
%TO.C,U3*%
X101825000Y-102070000D03*
X101825000Y-103340000D03*
X101825000Y-104610000D03*
X101825000Y-105880000D03*
X101825000Y-107150000D03*
X101825000Y-108420000D03*
X101825000Y-109690000D03*
X101825000Y-110960000D03*
X111125000Y-110960000D03*
X111125000Y-109690000D03*
X111125000Y-108420000D03*
X111125000Y-107150000D03*
X111125000Y-105880000D03*
X111125000Y-104610000D03*
X111125000Y-103340000D03*
X111125000Y-102070000D03*
%TD*%
D14*
%TO.C,R13*%
X106610000Y-74130000D03*
X104610000Y-74130000D03*
%TD*%
D33*
%TO.C,D3*%
X55735000Y-110690000D03*
X57785000Y-110690000D03*
%TD*%
D17*
%TO.C,MH01*%
X136470000Y-116760000D03*
%TD*%
D14*
%TO.C,R16*%
X48895000Y-110690000D03*
X46895000Y-110690000D03*
%TD*%
D17*
%TO.C,MH06*%
X85670000Y-116760000D03*
%TD*%
D28*
%TO.C,U2*%
X97155000Y-74130000D03*
X97155000Y-75400000D03*
X97155000Y-76670000D03*
X97155000Y-77940000D03*
X97155000Y-79210000D03*
X97155000Y-80480000D03*
X97155000Y-81750000D03*
X97155000Y-83020000D03*
X102105000Y-83020000D03*
X102105000Y-81750000D03*
X102105000Y-80480000D03*
X102105000Y-79210000D03*
X102105000Y-77940000D03*
X102105000Y-76670000D03*
X102105000Y-75400000D03*
X102105000Y-74130000D03*
%TD*%
D30*
%TO.C,C3*%
X91672500Y-26035000D03*
X93747500Y-26035000D03*
%TD*%
D18*
%TO.C,C2*%
X114300000Y-52070000D03*
X114300000Y-54145000D03*
%TD*%
D14*
%TO.C,R13*%
X106610000Y-24130000D03*
X104610000Y-24130000D03*
%TD*%
%TO.C,R10*%
X67675000Y-60690000D03*
X65675000Y-60690000D03*
%TD*%
%TO.C,R11*%
X106680000Y-21590000D03*
X104680000Y-21590000D03*
%TD*%
D17*
%TO.C,MH05*%
X95830000Y-66760000D03*
%TD*%
D14*
%TO.C,R16*%
X48895000Y-60690000D03*
X46895000Y-60690000D03*
%TD*%
D12*
%TO.C,J2*%
X140970000Y-46525000D03*
D13*
X129540000Y-48275000D03*
X140970000Y-43025000D03*
X129540000Y-44775000D03*
X140970000Y-39525000D03*
X129540000Y-41275000D03*
%TD*%
D17*
%TO.C,MH01*%
X136470000Y-66760000D03*
%TD*%
%TO.C,MH03*%
X116150000Y-66760000D03*
%TD*%
D20*
%TO.C,U6*%
X91440000Y-29210000D03*
X91440000Y-30160000D03*
X91440000Y-31110000D03*
X94140000Y-31110000D03*
X94140000Y-30160000D03*
X94140000Y-29210000D03*
%TD*%
D10*
%TO.C,R14*%
X108410000Y-24130000D03*
X110410000Y-24130000D03*
%TD*%
%TO.C,R8*%
X132350000Y-59690000D03*
X134350000Y-59690000D03*
%TD*%
D26*
%TO.C,U4*%
X48895000Y-56515000D03*
D27*
X51435000Y-56515000D03*
X53975000Y-56515000D03*
X56515000Y-56515000D03*
X59055000Y-56515000D03*
X61595000Y-56515000D03*
X64135000Y-56515000D03*
X66675000Y-56515000D03*
X66675000Y-41275000D03*
X64135000Y-41275000D03*
X61595000Y-41275000D03*
X59055000Y-41275000D03*
X56515000Y-41275000D03*
X53975000Y-41275000D03*
X51435000Y-41275000D03*
X48895000Y-41275000D03*
%TD*%
D14*
%TO.C,R9*%
X63865000Y-60690000D03*
X61865000Y-60690000D03*
%TD*%
D10*
%TO.C,R3*%
X117475000Y-55880000D03*
X119475000Y-55880000D03*
%TD*%
D31*
%TO.C,D4*%
X139965000Y-51120000D03*
X139965000Y-53020000D03*
X142240000Y-52070000D03*
%TD*%
D11*
%TO.C,C1*%
X122725000Y-41910000D03*
X120650000Y-41910000D03*
%TD*%
D33*
%TO.C,D3*%
X55735000Y-60690000D03*
X57785000Y-60690000D03*
%TD*%
D10*
%TO.C,R15*%
X51340000Y-60690000D03*
X53340000Y-60690000D03*
%TD*%
D24*
%TO.C,K3*%
X134000000Y-31435000D03*
X134000000Y-29235000D03*
X134000000Y-33635000D03*
X127000000Y-31435000D03*
X127000000Y-29235000D03*
X127000000Y-33635000D03*
X134000000Y-26035000D03*
X127000000Y-26035000D03*
%TD*%
D18*
%TO.C,C5*%
X73025000Y-31422500D03*
X73025000Y-33497500D03*
%TD*%
D24*
%TO.C,K2*%
X123825000Y-31455000D03*
X123825000Y-29255000D03*
X123825000Y-33655000D03*
X116825000Y-31455000D03*
X116825000Y-29255000D03*
X116825000Y-33655000D03*
X123825000Y-26055000D03*
X116825000Y-26055000D03*
%TD*%
D17*
%TO.C,MH09*%
X55190000Y-66760000D03*
%TD*%
D18*
%TO.C,C4*%
X75565000Y-31422500D03*
X75565000Y-33497500D03*
%TD*%
D17*
%TO.C,MH02*%
X126310000Y-66760000D03*
%TD*%
%TO.C,MH07*%
X75510000Y-66760000D03*
%TD*%
D11*
%TO.C,C8*%
X93980000Y-33110000D03*
X91905000Y-33110000D03*
%TD*%
D30*
%TO.C,C6*%
X77067500Y-21590000D03*
X79142500Y-21590000D03*
%TD*%
D29*
%TO.C,D2*%
X114335000Y-24130000D03*
X112285000Y-24130000D03*
%TD*%
D17*
%TO.C,MH08*%
X65350000Y-66760000D03*
%TD*%
D10*
%TO.C,R2*%
X117380000Y-53340000D03*
X119380000Y-53340000D03*
%TD*%
%TO.C,R12*%
X108490000Y-21590000D03*
X110490000Y-21590000D03*
%TD*%
D22*
%TO.C,U5*%
X80645000Y-36460000D03*
D23*
X83185000Y-36460000D03*
X85725000Y-36460000D03*
X88265000Y-36460000D03*
%TD*%
D10*
%TO.C,R6*%
X132350000Y-53790000D03*
X134350000Y-53790000D03*
%TD*%
D32*
%TO.C,U3*%
X101825000Y-52070000D03*
X101825000Y-53340000D03*
X101825000Y-54610000D03*
X101825000Y-55880000D03*
X101825000Y-57150000D03*
X101825000Y-58420000D03*
X101825000Y-59690000D03*
X101825000Y-60960000D03*
X111125000Y-60960000D03*
X111125000Y-59690000D03*
X111125000Y-58420000D03*
X111125000Y-57150000D03*
X111125000Y-55880000D03*
X111125000Y-54610000D03*
X111125000Y-53340000D03*
X111125000Y-52070000D03*
%TD*%
D10*
%TO.C,R5*%
X117475000Y-60960000D03*
X119475000Y-60960000D03*
%TD*%
D24*
%TO.C,K4*%
X144010000Y-31435000D03*
X144010000Y-29235000D03*
X144010000Y-33635000D03*
X137010000Y-31435000D03*
X137010000Y-29235000D03*
X137010000Y-33635000D03*
X144010000Y-26035000D03*
X137010000Y-26035000D03*
%TD*%
D11*
%TO.C,C7*%
X74930000Y-21590000D03*
X72855000Y-21590000D03*
%TD*%
D28*
%TO.C,U1*%
X119380000Y-45085000D03*
X119380000Y-46355000D03*
X119380000Y-47625000D03*
X119380000Y-48895000D03*
X124330000Y-48895000D03*
X124330000Y-47625000D03*
X124330000Y-46355000D03*
X124330000Y-45085000D03*
%TD*%
D15*
%TO.C,U7*%
X73075000Y-24560000D03*
X73075000Y-26860000D03*
D16*
X79375000Y-26860000D03*
D15*
X73075000Y-29160000D03*
%TD*%
D10*
%TO.C,R1*%
X91710000Y-22225000D03*
X93710000Y-22225000D03*
%TD*%
D12*
%TO.C,J1*%
X65635000Y-24560000D03*
D13*
X67385000Y-35990000D03*
X62135000Y-24560000D03*
X63885000Y-35990000D03*
X58635000Y-24560000D03*
X60385000Y-35990000D03*
X55135000Y-24560000D03*
X56885000Y-35990000D03*
X51635000Y-24560000D03*
X53385000Y-35990000D03*
X48135000Y-24560000D03*
X49885000Y-35990000D03*
%TD*%
D21*
%TO.C,K1*%
X111125000Y-29845000D03*
X108925000Y-29845000D03*
X113325000Y-29845000D03*
X111125000Y-36845000D03*
X108925000Y-36845000D03*
X113325000Y-36845000D03*
X105725000Y-29845000D03*
X105725000Y-36845000D03*
%TD*%
D29*
%TO.C,D1*%
X114445000Y-21590000D03*
X112395000Y-21590000D03*
%TD*%
D19*
%TO.C,SW1*%
X82550000Y-32080000D03*
X82550000Y-24130000D03*
X87050000Y-32080000D03*
X87050000Y-24130000D03*
%TD*%
D10*
%TO.C,R7*%
X132350000Y-56740000D03*
X134350000Y-56740000D03*
%TD*%
D28*
%TO.C,U2*%
X97155000Y-24130000D03*
X97155000Y-25400000D03*
X97155000Y-26670000D03*
X97155000Y-27940000D03*
X97155000Y-29210000D03*
X97155000Y-30480000D03*
X97155000Y-31750000D03*
X97155000Y-33020000D03*
X102105000Y-33020000D03*
X102105000Y-31750000D03*
X102105000Y-30480000D03*
X102105000Y-29210000D03*
X102105000Y-27940000D03*
X102105000Y-26670000D03*
X102105000Y-25400000D03*
X102105000Y-24130000D03*
%TD*%
D25*
%TO.C,PS1*%
X102235000Y-49000000D03*
X104775000Y-49000000D03*
X109855000Y-49000000D03*
X109855000Y-39900000D03*
X102235000Y-39900000D03*
%TD*%
D10*
%TO.C,R4*%
X117475000Y-58420000D03*
X119475000Y-58420000D03*
%TD*%
D17*
%TO.C,MH06*%
X85670000Y-66760000D03*
%TD*%
%TO.C,MH04*%
X105990000Y-66760000D03*
%TD*%
D34*
X45470000Y-69260000D02*
X145470000Y-69260000D01*
X145470000Y-119260000D01*
X45470000Y-119260000D01*
X45470000Y-69260000D01*
X45470000Y-19260000D02*
X145470000Y-19260000D01*
X145470000Y-69260000D01*
X45470000Y-69260000D01*
X45470000Y-19260000D01*
M02*
