%TF.GenerationSoftware,KiCad,Pcbnew,7.0.11+dfsg-1build4*%
%TF.CreationDate,2026-05-24T20:18:23-05:00*%
%TF.ProjectId,,58585858-5858-4585-9858-585858585858,rev?*%
%TF.SameCoordinates,Original*%
%TF.FileFunction,Paste,Top*%
%TF.FilePolarity,Positive*%
%FSLAX46Y46*%
G04 Gerber Fmt 4.6, Leading zero omitted, Abs format (unit mm)*
G04 Created by KiCad (PCBNEW 7.0.11+dfsg-1build4) date 2026-05-24 20:18:23*
%MOMM*%
%LPD*%
G01*
G04 APERTURE LIST*
G04 Aperture macros list*
%AMRoundRect*
0 Rectangle with rounded corners*
0 $1 Rounding radius*
0 $2 $3 $4 $5 $6 $7 $8 $9 X,Y pos of 4 corners*
0 Add a 4 corners polygon primitive as box body*
4,1,4,$2,$3,$4,$5,$6,$7,$8,$9,$2,$3,0*
0 Add four circle primitives for the rounded corners*
1,1,$1+$1,$2,$3*
1,1,$1+$1,$4,$5*
1,1,$1+$1,$6,$7*
1,1,$1+$1,$8,$9*
0 Add four rect primitives between the rounded corners*
20,1,$1+$1,$2,$3,$4,$5,0*
20,1,$1+$1,$4,$5,$6,$7,0*
20,1,$1+$1,$6,$7,$8,$9,0*
20,1,$1+$1,$8,$9,$2,$3,0*%
G04 Aperture macros list end*
%ADD10RoundRect,0.100000X-0.637500X-0.100000X0.637500X-0.100000X0.637500X0.100000X-0.637500X0.100000X0*%
%ADD11RoundRect,0.250000X-0.325000X-0.450000X0.325000X-0.450000X0.325000X0.450000X-0.325000X0.450000X0*%
%ADD12RoundRect,0.250000X-0.350000X-0.450000X0.350000X-0.450000X0.350000X0.450000X-0.350000X0.450000X0*%
%ADD13RoundRect,0.250000X0.337500X0.475000X-0.337500X0.475000X-0.337500X-0.475000X0.337500X-0.475000X0*%
%ADD14RoundRect,0.250000X0.350000X0.450000X-0.350000X0.450000X-0.350000X-0.450000X0.350000X-0.450000X0*%
%ADD15RoundRect,0.150000X-0.825000X-0.150000X0.825000X-0.150000X0.825000X0.150000X-0.825000X0.150000X0*%
%ADD16RoundRect,0.150000X-0.875000X-0.150000X0.875000X-0.150000X0.875000X0.150000X-0.875000X0.150000X0*%
%ADD17RoundRect,0.162500X-0.617500X-0.162500X0.617500X-0.162500X0.617500X0.162500X-0.617500X0.162500X0*%
%ADD18RoundRect,0.150000X-0.512500X-0.150000X0.512500X-0.150000X0.512500X0.150000X-0.512500X0.150000X0*%
%ADD19RoundRect,0.250000X-0.475000X0.337500X-0.475000X-0.337500X0.475000X-0.337500X0.475000X0.337500X0*%
%ADD20R,1.800000X0.800000*%
%ADD21R,1.300000X1.550000*%
%ADD22R,0.800000X1.800000*%
%ADD23RoundRect,0.250000X-0.337500X-0.475000X0.337500X-0.475000X0.337500X0.475000X-0.337500X0.475000X0*%
%ADD24RoundRect,0.375000X-0.625000X-0.375000X0.625000X-0.375000X0.625000X0.375000X-0.625000X0.375000X0*%
%ADD25RoundRect,0.500000X-0.500000X-1.400000X0.500000X-1.400000X0.500000X1.400000X-0.500000X1.400000X0*%
%ADD26R,1.000000X3.100000*%
%TA.AperFunction,Profile*%
%ADD27C,0.050000*%
%TD*%
G04 APERTURE END LIST*
D10*
%TO.C,U8*%
X83091100Y-81466600D03*
X83091100Y-82116600D03*
X83091100Y-82766600D03*
X83091100Y-83416600D03*
X83091100Y-84066600D03*
X83091100Y-84716600D03*
X83091100Y-85366600D03*
X83091100Y-86016600D03*
X83091100Y-86666600D03*
X83091100Y-87316600D03*
X88816100Y-87316600D03*
X88816100Y-86666600D03*
X88816100Y-86016600D03*
X88816100Y-85366600D03*
X88816100Y-84716600D03*
X88816100Y-84066600D03*
X88816100Y-83416600D03*
X88816100Y-82766600D03*
X88816100Y-82116600D03*
X88816100Y-81466600D03*
%TD*%
D11*
%TO.C,D2*%
X119057200Y-80886400D03*
X121107200Y-80886400D03*
%TD*%
D12*
%TO.C,R1*%
X76825600Y-78956000D03*
X78825600Y-78956000D03*
%TD*%
D13*
%TO.C,C7*%
X68347500Y-78956000D03*
X66272500Y-78956000D03*
%TD*%
D12*
%TO.C,R3*%
X112141000Y-113347600D03*
X114141000Y-113347600D03*
%TD*%
%TO.C,R2*%
X112046000Y-110807600D03*
X114046000Y-110807600D03*
%TD*%
%TO.C,R6*%
X127016000Y-111257600D03*
X129016000Y-111257600D03*
%TD*%
D14*
%TO.C,R11*%
X113182400Y-78651200D03*
X111182400Y-78651200D03*
%TD*%
D15*
%TO.C,U1*%
X114046000Y-102552600D03*
X114046000Y-103822600D03*
X114046000Y-105092600D03*
X114046000Y-106362600D03*
X118996000Y-106362600D03*
X118996000Y-105092600D03*
X118996000Y-103822600D03*
X118996000Y-102552600D03*
%TD*%
D16*
%TO.C,U3*%
X96491000Y-109537600D03*
X96491000Y-110807600D03*
X96491000Y-112077600D03*
X96491000Y-113347600D03*
X96491000Y-114617600D03*
X96491000Y-115887600D03*
X96491000Y-117157600D03*
X96491000Y-118427600D03*
X105791000Y-118427600D03*
X105791000Y-117157600D03*
X105791000Y-115887600D03*
X105791000Y-114617600D03*
X105791000Y-113347600D03*
X105791000Y-112077600D03*
X105791000Y-110807600D03*
X105791000Y-109537600D03*
%TD*%
D12*
%TO.C,R17*%
X85563200Y-90690800D03*
X87563200Y-90690800D03*
%TD*%
%TO.C,R5*%
X112141000Y-118427600D03*
X114141000Y-118427600D03*
%TD*%
D17*
%TO.C,U6*%
X102354400Y-78752800D03*
X102354400Y-79702800D03*
X102354400Y-80652800D03*
X105054400Y-80652800D03*
X105054400Y-79702800D03*
X105054400Y-78752800D03*
%TD*%
D12*
%TO.C,R7*%
X127016000Y-114207600D03*
X129016000Y-114207600D03*
%TD*%
D18*
%TO.C,D4*%
X134631000Y-108587600D03*
X134631000Y-110487600D03*
X136906000Y-109537600D03*
%TD*%
D19*
%TO.C,C5*%
X66243200Y-88992900D03*
X66243200Y-91067900D03*
%TD*%
D20*
%TO.C,K3*%
X128666000Y-88902600D03*
X128666000Y-86702600D03*
X128666000Y-91102600D03*
X121666000Y-88902600D03*
X121666000Y-86702600D03*
X121666000Y-91102600D03*
X128666000Y-83502600D03*
X121666000Y-83502600D03*
%TD*%
D21*
%TO.C,SW1*%
X75626400Y-89738200D03*
X75626400Y-81788200D03*
X80126400Y-89738200D03*
X80126400Y-81788200D03*
%TD*%
D13*
%TO.C,C1*%
X117391000Y-99377600D03*
X115316000Y-99377600D03*
%TD*%
D14*
%TO.C,R9*%
X55610000Y-118157600D03*
X53610000Y-118157600D03*
%TD*%
D12*
%TO.C,R14*%
X115112800Y-80835600D03*
X117112800Y-80835600D03*
%TD*%
%TO.C,R15*%
X45634400Y-118157600D03*
X47634400Y-118157600D03*
%TD*%
D15*
%TO.C,U2*%
X91821000Y-81597600D03*
X91821000Y-82867600D03*
X91821000Y-84137600D03*
X91821000Y-85407600D03*
X91821000Y-86677600D03*
X91821000Y-87947600D03*
X91821000Y-89217600D03*
X91821000Y-90487600D03*
X96771000Y-90487600D03*
X96771000Y-89217600D03*
X96771000Y-87947600D03*
X96771000Y-86677600D03*
X96771000Y-85407600D03*
X96771000Y-84137600D03*
X96771000Y-82867600D03*
X96771000Y-81597600D03*
%TD*%
D22*
%TO.C,K1*%
X105791000Y-87312600D03*
X103591000Y-87312600D03*
X107991000Y-87312600D03*
X105791000Y-94312600D03*
X103591000Y-94312600D03*
X107991000Y-94312600D03*
X100391000Y-87312600D03*
X100391000Y-94312600D03*
%TD*%
D12*
%TO.C,R18*%
X61620400Y-118157600D03*
X63620400Y-118157600D03*
%TD*%
D23*
%TO.C,C6*%
X70154800Y-78956000D03*
X72229800Y-78956000D03*
%TD*%
D12*
%TO.C,R12*%
X115094000Y-78651200D03*
X117094000Y-78651200D03*
%TD*%
D13*
%TO.C,C8*%
X104771100Y-82918400D03*
X102696100Y-82918400D03*
%TD*%
D20*
%TO.C,K4*%
X138676000Y-88902600D03*
X138676000Y-86702600D03*
X138676000Y-91102600D03*
X131676000Y-88902600D03*
X131676000Y-86702600D03*
X131676000Y-91102600D03*
X138676000Y-83502600D03*
X131676000Y-83502600D03*
%TD*%
D11*
%TO.C,D3*%
X49562800Y-118157600D03*
X51612800Y-118157600D03*
%TD*%
D14*
%TO.C,R16*%
X43561000Y-118157600D03*
X41561000Y-118157600D03*
%TD*%
D24*
%TO.C,U7*%
X66496400Y-82027600D03*
X66496400Y-84327600D03*
D25*
X72796400Y-84327600D03*
D24*
X66496400Y-86627600D03*
%TD*%
D23*
%TO.C,C3*%
X93675200Y-78956000D03*
X95750200Y-78956000D03*
%TD*%
D19*
%TO.C,C2*%
X108966000Y-109537600D03*
X108966000Y-111612600D03*
%TD*%
%TO.C,C4*%
X68630800Y-88971400D03*
X68630800Y-91046400D03*
%TD*%
D13*
%TO.C,C9*%
X87063400Y-78956000D03*
X84988400Y-78956000D03*
%TD*%
D12*
%TO.C,R8*%
X127016000Y-117157600D03*
X129016000Y-117157600D03*
%TD*%
D20*
%TO.C,K2*%
X118491000Y-88922600D03*
X118491000Y-86722600D03*
X118491000Y-91122600D03*
X111491000Y-88922600D03*
X111491000Y-86722600D03*
X111491000Y-91122600D03*
X118491000Y-83522600D03*
X111491000Y-83522600D03*
%TD*%
D11*
%TO.C,D1*%
X119057200Y-78752800D03*
X121107200Y-78752800D03*
%TD*%
D14*
%TO.C,R13*%
X113201200Y-80835600D03*
X111201200Y-80835600D03*
%TD*%
D12*
%TO.C,R4*%
X112141000Y-115887600D03*
X114141000Y-115887600D03*
%TD*%
D14*
%TO.C,R10*%
X59588400Y-118157600D03*
X57588400Y-118157600D03*
%TD*%
D26*
%TO.C,PS1*%
X96901000Y-106467600D03*
X99441000Y-106467600D03*
X104521000Y-106467600D03*
X104521000Y-97367600D03*
X96901000Y-97367600D03*
%TD*%
D23*
%TO.C,C3*%
X93675200Y-28956000D03*
X95750200Y-28956000D03*
%TD*%
D19*
%TO.C,C2*%
X108966000Y-59537600D03*
X108966000Y-61612600D03*
%TD*%
D14*
%TO.C,R13*%
X113201200Y-30835600D03*
X111201200Y-30835600D03*
%TD*%
%TO.C,R10*%
X59588400Y-68157600D03*
X57588400Y-68157600D03*
%TD*%
%TO.C,R11*%
X113182400Y-28651200D03*
X111182400Y-28651200D03*
%TD*%
%TO.C,R16*%
X43561000Y-68157600D03*
X41561000Y-68157600D03*
%TD*%
D17*
%TO.C,U6*%
X102354400Y-28752800D03*
X102354400Y-29702800D03*
X102354400Y-30652800D03*
X105054400Y-30652800D03*
X105054400Y-29702800D03*
X105054400Y-28752800D03*
%TD*%
D12*
%TO.C,R14*%
X115112800Y-30835600D03*
X117112800Y-30835600D03*
%TD*%
%TO.C,R8*%
X127016000Y-67157600D03*
X129016000Y-67157600D03*
%TD*%
D14*
%TO.C,R9*%
X55610000Y-68157600D03*
X53610000Y-68157600D03*
%TD*%
D12*
%TO.C,R3*%
X112141000Y-63347600D03*
X114141000Y-63347600D03*
%TD*%
D18*
%TO.C,D4*%
X134631000Y-58587600D03*
X134631000Y-60487600D03*
X136906000Y-59537600D03*
%TD*%
D13*
%TO.C,C1*%
X117391000Y-49377600D03*
X115316000Y-49377600D03*
%TD*%
D11*
%TO.C,D3*%
X49562800Y-68157600D03*
X51612800Y-68157600D03*
%TD*%
D12*
%TO.C,R15*%
X45634400Y-68157600D03*
X47634400Y-68157600D03*
%TD*%
D20*
%TO.C,K3*%
X128666000Y-38902600D03*
X128666000Y-36702600D03*
X128666000Y-41102600D03*
X121666000Y-38902600D03*
X121666000Y-36702600D03*
X121666000Y-41102600D03*
X128666000Y-33502600D03*
X121666000Y-33502600D03*
%TD*%
D19*
%TO.C,C5*%
X66243200Y-38992900D03*
X66243200Y-41067900D03*
%TD*%
D20*
%TO.C,K2*%
X118491000Y-38922600D03*
X118491000Y-36722600D03*
X118491000Y-41122600D03*
X111491000Y-38922600D03*
X111491000Y-36722600D03*
X111491000Y-41122600D03*
X118491000Y-33522600D03*
X111491000Y-33522600D03*
%TD*%
D19*
%TO.C,C4*%
X68630800Y-38971400D03*
X68630800Y-41046400D03*
%TD*%
D13*
%TO.C,C8*%
X104771100Y-32918400D03*
X102696100Y-32918400D03*
%TD*%
D23*
%TO.C,C6*%
X70154800Y-28956000D03*
X72229800Y-28956000D03*
%TD*%
D11*
%TO.C,D2*%
X119057200Y-30886400D03*
X121107200Y-30886400D03*
%TD*%
D13*
%TO.C,C9*%
X87063400Y-28956000D03*
X84988400Y-28956000D03*
%TD*%
D12*
%TO.C,R2*%
X112046000Y-60807600D03*
X114046000Y-60807600D03*
%TD*%
%TO.C,R12*%
X115094000Y-28651200D03*
X117094000Y-28651200D03*
%TD*%
%TO.C,R17*%
X85563200Y-40690800D03*
X87563200Y-40690800D03*
%TD*%
%TO.C,R6*%
X127016000Y-61257600D03*
X129016000Y-61257600D03*
%TD*%
D16*
%TO.C,U3*%
X96491000Y-59537600D03*
X96491000Y-60807600D03*
X96491000Y-62077600D03*
X96491000Y-63347600D03*
X96491000Y-64617600D03*
X96491000Y-65887600D03*
X96491000Y-67157600D03*
X96491000Y-68427600D03*
X105791000Y-68427600D03*
X105791000Y-67157600D03*
X105791000Y-65887600D03*
X105791000Y-64617600D03*
X105791000Y-63347600D03*
X105791000Y-62077600D03*
X105791000Y-60807600D03*
X105791000Y-59537600D03*
%TD*%
D12*
%TO.C,R5*%
X112141000Y-68427600D03*
X114141000Y-68427600D03*
%TD*%
D20*
%TO.C,K4*%
X138676000Y-38902600D03*
X138676000Y-36702600D03*
X138676000Y-41102600D03*
X131676000Y-38902600D03*
X131676000Y-36702600D03*
X131676000Y-41102600D03*
X138676000Y-33502600D03*
X131676000Y-33502600D03*
%TD*%
D13*
%TO.C,C7*%
X68347500Y-28956000D03*
X66272500Y-28956000D03*
%TD*%
D15*
%TO.C,U1*%
X114046000Y-52552600D03*
X114046000Y-53822600D03*
X114046000Y-55092600D03*
X114046000Y-56362600D03*
X118996000Y-56362600D03*
X118996000Y-55092600D03*
X118996000Y-53822600D03*
X118996000Y-52552600D03*
%TD*%
D24*
%TO.C,U7*%
X66496400Y-32027600D03*
X66496400Y-34327600D03*
D25*
X72796400Y-34327600D03*
D24*
X66496400Y-36627600D03*
%TD*%
D12*
%TO.C,R1*%
X76825600Y-28956000D03*
X78825600Y-28956000D03*
%TD*%
D22*
%TO.C,K1*%
X105791000Y-37312600D03*
X103591000Y-37312600D03*
X107991000Y-37312600D03*
X105791000Y-44312600D03*
X103591000Y-44312600D03*
X107991000Y-44312600D03*
X100391000Y-37312600D03*
X100391000Y-44312600D03*
%TD*%
D11*
%TO.C,D1*%
X119057200Y-28752800D03*
X121107200Y-28752800D03*
%TD*%
D21*
%TO.C,SW1*%
X75626400Y-39738200D03*
X75626400Y-31788200D03*
X80126400Y-39738200D03*
X80126400Y-31788200D03*
%TD*%
D10*
%TO.C,U8*%
X83091100Y-31466600D03*
X83091100Y-32116600D03*
X83091100Y-32766600D03*
X83091100Y-33416600D03*
X83091100Y-34066600D03*
X83091100Y-34716600D03*
X83091100Y-35366600D03*
X83091100Y-36016600D03*
X83091100Y-36666600D03*
X83091100Y-37316600D03*
X88816100Y-37316600D03*
X88816100Y-36666600D03*
X88816100Y-36016600D03*
X88816100Y-35366600D03*
X88816100Y-34716600D03*
X88816100Y-34066600D03*
X88816100Y-33416600D03*
X88816100Y-32766600D03*
X88816100Y-32116600D03*
X88816100Y-31466600D03*
%TD*%
D12*
%TO.C,R18*%
X61620400Y-68157600D03*
X63620400Y-68157600D03*
%TD*%
%TO.C,R7*%
X127016000Y-64207600D03*
X129016000Y-64207600D03*
%TD*%
D15*
%TO.C,U2*%
X91821000Y-31597600D03*
X91821000Y-32867600D03*
X91821000Y-34137600D03*
X91821000Y-35407600D03*
X91821000Y-36677600D03*
X91821000Y-37947600D03*
X91821000Y-39217600D03*
X91821000Y-40487600D03*
X96771000Y-40487600D03*
X96771000Y-39217600D03*
X96771000Y-37947600D03*
X96771000Y-36677600D03*
X96771000Y-35407600D03*
X96771000Y-34137600D03*
X96771000Y-32867600D03*
X96771000Y-31597600D03*
%TD*%
D26*
%TO.C,PS1*%
X96901000Y-56467600D03*
X99441000Y-56467600D03*
X104521000Y-56467600D03*
X104521000Y-47367600D03*
X96901000Y-47367600D03*
%TD*%
D12*
%TO.C,R4*%
X112141000Y-65887600D03*
X114141000Y-65887600D03*
%TD*%
D27*
X40136000Y-76727600D02*
X140136000Y-76727600D01*
X140136000Y-126727600D01*
X40136000Y-126727600D01*
X40136000Y-76727600D01*
X40136000Y-26727600D02*
X140136000Y-26727600D01*
X140136000Y-76727600D01*
X40136000Y-76727600D01*
X40136000Y-26727600D01*
M02*
