%TF.GenerationSoftware,KiCad,Pcbnew,7.0.11+dfsg-1build4*%
%TF.CreationDate,2026-02-23T17:37:55-05:00*%
%TF.ProjectId,,58585858-5858-4585-9858-585858585858,rev?*%
%TF.SameCoordinates,Original*%
%TF.FileFunction,Paste,Top*%
%TF.FilePolarity,Positive*%
%FSLAX46Y46*%
G04 Gerber Fmt 4.6, Leading zero omitted, Abs format (unit mm)*
G04 Created by KiCad (PCBNEW 7.0.11+dfsg-1build4) date 2026-02-23 17:37:55*
%MOMM*%
%LPD*%
G01*
G04 APERTURE LIST*
G04 Aperture macros list*
%AMRoundRect*
0 Rectangle with rounded corners*
0 $1 Rounding radius*
0 $2 $3 $4 $5 $6 $7 $8 $9 X,Y pos of 4 corners*
0 Add a 4 corners polygon primitive as box body*
4,1,4,$2,$3,$4,$5,$6,$7,$8,$9,$2,$3,0*
0 Add four circle primitives for the rounded corners*
1,1,$1+$1,$2,$3*
1,1,$1+$1,$4,$5*
1,1,$1+$1,$6,$7*
1,1,$1+$1,$8,$9*
0 Add four rect primitives between the rounded corners*
20,1,$1+$1,$2,$3,$4,$5,0*
20,1,$1+$1,$4,$5,$6,$7,0*
20,1,$1+$1,$6,$7,$8,$9,0*
20,1,$1+$1,$8,$9,$2,$3,0*%
G04 Aperture macros list end*
%ADD10RoundRect,0.250000X-0.350000X-0.450000X0.350000X-0.450000X0.350000X0.450000X-0.350000X0.450000X0*%
%ADD11RoundRect,0.250000X0.337500X0.475000X-0.337500X0.475000X-0.337500X-0.475000X0.337500X-0.475000X0*%
%ADD12RoundRect,0.375000X-0.625000X-0.375000X0.625000X-0.375000X0.625000X0.375000X-0.625000X0.375000X0*%
%ADD13RoundRect,0.500000X-0.500000X-1.400000X0.500000X-1.400000X0.500000X1.400000X-0.500000X1.400000X0*%
%ADD14RoundRect,0.150000X-0.825000X-0.150000X0.825000X-0.150000X0.825000X0.150000X-0.825000X0.150000X0*%
%ADD15R,1.800000X0.800000*%
%ADD16R,1.000000X3.100000*%
%ADD17RoundRect,0.250000X-0.475000X0.337500X-0.475000X-0.337500X0.475000X-0.337500X0.475000X0.337500X0*%
%ADD18RoundRect,0.250000X0.350000X0.450000X-0.350000X0.450000X-0.350000X-0.450000X0.350000X-0.450000X0*%
%ADD19RoundRect,0.162500X-0.617500X-0.162500X0.617500X-0.162500X0.617500X0.162500X-0.617500X0.162500X0*%
%ADD20RoundRect,0.250000X-0.337500X-0.475000X0.337500X-0.475000X0.337500X0.475000X-0.337500X0.475000X0*%
%ADD21R,0.800000X1.800000*%
%ADD22RoundRect,0.150000X-0.512500X-0.150000X0.512500X-0.150000X0.512500X0.150000X-0.512500X0.150000X0*%
%ADD23RoundRect,0.250000X0.325000X0.450000X-0.325000X0.450000X-0.325000X-0.450000X0.325000X-0.450000X0*%
%ADD24RoundRect,0.150000X-0.875000X-0.150000X0.875000X-0.150000X0.875000X0.150000X-0.875000X0.150000X0*%
%ADD25R,1.300000X1.550000*%
%TA.AperFunction,Profile*%
%ADD26C,0.050000*%
%TD*%
G04 APERTURE END LIST*
D10*
%TO.C,R2*%
X132620000Y-115405000D03*
X134620000Y-115405000D03*
%TD*%
D11*
%TO.C,C1*%
X137965000Y-103975000D03*
X135890000Y-103975000D03*
%TD*%
D12*
%TO.C,U7*%
X88315000Y-86625000D03*
X88315000Y-88925000D03*
D13*
X94615000Y-88925000D03*
D12*
X88315000Y-91225000D03*
%TD*%
D14*
%TO.C,U2*%
X112395000Y-86195000D03*
X112395000Y-87465000D03*
X112395000Y-88735000D03*
X112395000Y-90005000D03*
X112395000Y-91275000D03*
X112395000Y-92545000D03*
X112395000Y-93815000D03*
X112395000Y-95085000D03*
X117345000Y-95085000D03*
X117345000Y-93815000D03*
X117345000Y-92545000D03*
X117345000Y-91275000D03*
X117345000Y-90005000D03*
X117345000Y-88735000D03*
X117345000Y-87465000D03*
X117345000Y-86195000D03*
%TD*%
D15*
%TO.C,K2*%
X139065000Y-93520000D03*
X139065000Y-91320000D03*
X139065000Y-95720000D03*
X132065000Y-93520000D03*
X132065000Y-91320000D03*
X132065000Y-95720000D03*
X139065000Y-88120000D03*
X132065000Y-88120000D03*
%TD*%
D16*
%TO.C,PS1*%
X117475000Y-111065000D03*
X120015000Y-111065000D03*
X125095000Y-111065000D03*
X125095000Y-101965000D03*
X117475000Y-101965000D03*
%TD*%
D15*
%TO.C,K4*%
X159250000Y-93500000D03*
X159250000Y-91300000D03*
X159250000Y-95700000D03*
X152250000Y-93500000D03*
X152250000Y-91300000D03*
X152250000Y-95700000D03*
X159250000Y-88100000D03*
X152250000Y-88100000D03*
%TD*%
D10*
%TO.C,R4*%
X132715000Y-120485000D03*
X134715000Y-120485000D03*
%TD*%
D17*
%TO.C,C4*%
X90805000Y-93487500D03*
X90805000Y-95562500D03*
%TD*%
D18*
%TO.C,R9*%
X79105000Y-122755000D03*
X77105000Y-122755000D03*
%TD*%
%TO.C,R13*%
X121850000Y-86195000D03*
X119850000Y-86195000D03*
%TD*%
D19*
%TO.C,U6*%
X106680000Y-91275000D03*
X106680000Y-92225000D03*
X106680000Y-93175000D03*
X109380000Y-93175000D03*
X109380000Y-92225000D03*
X109380000Y-91275000D03*
%TD*%
D20*
%TO.C,C6*%
X92307500Y-83655000D03*
X94382500Y-83655000D03*
%TD*%
D14*
%TO.C,U1*%
X134620000Y-107150000D03*
X134620000Y-108420000D03*
X134620000Y-109690000D03*
X134620000Y-110960000D03*
X139570000Y-110960000D03*
X139570000Y-109690000D03*
X139570000Y-108420000D03*
X139570000Y-107150000D03*
%TD*%
D21*
%TO.C,K1*%
X126365000Y-91910000D03*
X124165000Y-91910000D03*
X128565000Y-91910000D03*
X126365000Y-98910000D03*
X124165000Y-98910000D03*
X128565000Y-98910000D03*
X120965000Y-91910000D03*
X120965000Y-98910000D03*
%TD*%
D10*
%TO.C,R3*%
X132715000Y-117945000D03*
X134715000Y-117945000D03*
%TD*%
%TO.C,R8*%
X147590000Y-121755000D03*
X149590000Y-121755000D03*
%TD*%
D11*
%TO.C,C8*%
X109220000Y-95175000D03*
X107145000Y-95175000D03*
%TD*%
D15*
%TO.C,K3*%
X149240000Y-93500000D03*
X149240000Y-91300000D03*
X149240000Y-95700000D03*
X142240000Y-93500000D03*
X142240000Y-91300000D03*
X142240000Y-95700000D03*
X149240000Y-88100000D03*
X142240000Y-88100000D03*
%TD*%
D10*
%TO.C,R5*%
X132715000Y-123025000D03*
X134715000Y-123025000D03*
%TD*%
D11*
%TO.C,C7*%
X90170000Y-83655000D03*
X88095000Y-83655000D03*
%TD*%
D10*
%TO.C,R14*%
X123650000Y-86195000D03*
X125650000Y-86195000D03*
%TD*%
D22*
%TO.C,D4*%
X155205000Y-113185000D03*
X155205000Y-115085000D03*
X157480000Y-114135000D03*
%TD*%
D18*
%TO.C,R16*%
X64135000Y-122755000D03*
X62135000Y-122755000D03*
%TD*%
D23*
%TO.C,D2*%
X129575000Y-86195000D03*
X127525000Y-86195000D03*
%TD*%
D17*
%TO.C,C2*%
X129540000Y-114135000D03*
X129540000Y-116210000D03*
%TD*%
D23*
%TO.C,D1*%
X129685000Y-83655000D03*
X127635000Y-83655000D03*
%TD*%
D10*
%TO.C,R15*%
X66580000Y-122755000D03*
X68580000Y-122755000D03*
%TD*%
%TO.C,R6*%
X147590000Y-115855000D03*
X149590000Y-115855000D03*
%TD*%
D24*
%TO.C,U3*%
X117065000Y-114135000D03*
X117065000Y-115405000D03*
X117065000Y-116675000D03*
X117065000Y-117945000D03*
X117065000Y-119215000D03*
X117065000Y-120485000D03*
X117065000Y-121755000D03*
X117065000Y-123025000D03*
X126365000Y-123025000D03*
X126365000Y-121755000D03*
X126365000Y-120485000D03*
X126365000Y-119215000D03*
X126365000Y-117945000D03*
X126365000Y-116675000D03*
X126365000Y-115405000D03*
X126365000Y-114135000D03*
%TD*%
D23*
%TO.C,D3*%
X73025000Y-122755000D03*
X70975000Y-122755000D03*
%TD*%
D20*
%TO.C,C3*%
X106912500Y-88100000D03*
X108987500Y-88100000D03*
%TD*%
D10*
%TO.C,R12*%
X123730000Y-83655000D03*
X125730000Y-83655000D03*
%TD*%
D17*
%TO.C,C5*%
X88265000Y-93487500D03*
X88265000Y-95562500D03*
%TD*%
D10*
%TO.C,R7*%
X147590000Y-118805000D03*
X149590000Y-118805000D03*
%TD*%
D18*
%TO.C,R10*%
X82915000Y-122755000D03*
X80915000Y-122755000D03*
%TD*%
%TO.C,R11*%
X121920000Y-83655000D03*
X119920000Y-83655000D03*
%TD*%
D25*
%TO.C,SW1*%
X97790000Y-94145000D03*
X97790000Y-86195000D03*
X102290000Y-94145000D03*
X102290000Y-86195000D03*
%TD*%
D10*
%TO.C,R1*%
X106950000Y-84290000D03*
X108950000Y-84290000D03*
%TD*%
D20*
%TO.C,C3*%
X106912500Y-38100000D03*
X108987500Y-38100000D03*
%TD*%
D17*
%TO.C,C2*%
X129540000Y-64135000D03*
X129540000Y-66210000D03*
%TD*%
D18*
%TO.C,R13*%
X121850000Y-36195000D03*
X119850000Y-36195000D03*
%TD*%
%TO.C,R10*%
X82915000Y-72755000D03*
X80915000Y-72755000D03*
%TD*%
%TO.C,R11*%
X121920000Y-33655000D03*
X119920000Y-33655000D03*
%TD*%
%TO.C,R16*%
X64135000Y-72755000D03*
X62135000Y-72755000D03*
%TD*%
D19*
%TO.C,U6*%
X106680000Y-41275000D03*
X106680000Y-42225000D03*
X106680000Y-43175000D03*
X109380000Y-43175000D03*
X109380000Y-42225000D03*
X109380000Y-41275000D03*
%TD*%
D10*
%TO.C,R14*%
X123650000Y-36195000D03*
X125650000Y-36195000D03*
%TD*%
%TO.C,R8*%
X147590000Y-71755000D03*
X149590000Y-71755000D03*
%TD*%
D18*
%TO.C,R9*%
X79105000Y-72755000D03*
X77105000Y-72755000D03*
%TD*%
D10*
%TO.C,R3*%
X132715000Y-67945000D03*
X134715000Y-67945000D03*
%TD*%
D22*
%TO.C,D4*%
X155205000Y-63185000D03*
X155205000Y-65085000D03*
X157480000Y-64135000D03*
%TD*%
D11*
%TO.C,C1*%
X137965000Y-53975000D03*
X135890000Y-53975000D03*
%TD*%
D23*
%TO.C,D3*%
X73025000Y-72755000D03*
X70975000Y-72755000D03*
%TD*%
D10*
%TO.C,R15*%
X66580000Y-72755000D03*
X68580000Y-72755000D03*
%TD*%
D15*
%TO.C,K3*%
X149240000Y-43500000D03*
X149240000Y-41300000D03*
X149240000Y-45700000D03*
X142240000Y-43500000D03*
X142240000Y-41300000D03*
X142240000Y-45700000D03*
X149240000Y-38100000D03*
X142240000Y-38100000D03*
%TD*%
D17*
%TO.C,C5*%
X88265000Y-43487500D03*
X88265000Y-45562500D03*
%TD*%
D15*
%TO.C,K2*%
X139065000Y-43520000D03*
X139065000Y-41320000D03*
X139065000Y-45720000D03*
X132065000Y-43520000D03*
X132065000Y-41320000D03*
X132065000Y-45720000D03*
X139065000Y-38120000D03*
X132065000Y-38120000D03*
%TD*%
D17*
%TO.C,C4*%
X90805000Y-43487500D03*
X90805000Y-45562500D03*
%TD*%
D11*
%TO.C,C8*%
X109220000Y-45175000D03*
X107145000Y-45175000D03*
%TD*%
D20*
%TO.C,C6*%
X92307500Y-33655000D03*
X94382500Y-33655000D03*
%TD*%
D23*
%TO.C,D2*%
X129575000Y-36195000D03*
X127525000Y-36195000D03*
%TD*%
D10*
%TO.C,R2*%
X132620000Y-65405000D03*
X134620000Y-65405000D03*
%TD*%
%TO.C,R12*%
X123730000Y-33655000D03*
X125730000Y-33655000D03*
%TD*%
%TO.C,R6*%
X147590000Y-65855000D03*
X149590000Y-65855000D03*
%TD*%
D24*
%TO.C,U3*%
X117065000Y-64135000D03*
X117065000Y-65405000D03*
X117065000Y-66675000D03*
X117065000Y-67945000D03*
X117065000Y-69215000D03*
X117065000Y-70485000D03*
X117065000Y-71755000D03*
X117065000Y-73025000D03*
X126365000Y-73025000D03*
X126365000Y-71755000D03*
X126365000Y-70485000D03*
X126365000Y-69215000D03*
X126365000Y-67945000D03*
X126365000Y-66675000D03*
X126365000Y-65405000D03*
X126365000Y-64135000D03*
%TD*%
D10*
%TO.C,R5*%
X132715000Y-73025000D03*
X134715000Y-73025000D03*
%TD*%
D15*
%TO.C,K4*%
X159250000Y-43500000D03*
X159250000Y-41300000D03*
X159250000Y-45700000D03*
X152250000Y-43500000D03*
X152250000Y-41300000D03*
X152250000Y-45700000D03*
X159250000Y-38100000D03*
X152250000Y-38100000D03*
%TD*%
D11*
%TO.C,C7*%
X90170000Y-33655000D03*
X88095000Y-33655000D03*
%TD*%
D14*
%TO.C,U1*%
X134620000Y-57150000D03*
X134620000Y-58420000D03*
X134620000Y-59690000D03*
X134620000Y-60960000D03*
X139570000Y-60960000D03*
X139570000Y-59690000D03*
X139570000Y-58420000D03*
X139570000Y-57150000D03*
%TD*%
D12*
%TO.C,U7*%
X88315000Y-36625000D03*
X88315000Y-38925000D03*
D13*
X94615000Y-38925000D03*
D12*
X88315000Y-41225000D03*
%TD*%
D10*
%TO.C,R1*%
X106950000Y-34290000D03*
X108950000Y-34290000D03*
%TD*%
D21*
%TO.C,K1*%
X126365000Y-41910000D03*
X124165000Y-41910000D03*
X128565000Y-41910000D03*
X126365000Y-48910000D03*
X124165000Y-48910000D03*
X128565000Y-48910000D03*
X120965000Y-41910000D03*
X120965000Y-48910000D03*
%TD*%
D23*
%TO.C,D1*%
X129685000Y-33655000D03*
X127635000Y-33655000D03*
%TD*%
D25*
%TO.C,SW1*%
X97790000Y-44145000D03*
X97790000Y-36195000D03*
X102290000Y-44145000D03*
X102290000Y-36195000D03*
%TD*%
D10*
%TO.C,R7*%
X147590000Y-68805000D03*
X149590000Y-68805000D03*
%TD*%
D14*
%TO.C,U2*%
X112395000Y-36195000D03*
X112395000Y-37465000D03*
X112395000Y-38735000D03*
X112395000Y-40005000D03*
X112395000Y-41275000D03*
X112395000Y-42545000D03*
X112395000Y-43815000D03*
X112395000Y-45085000D03*
X117345000Y-45085000D03*
X117345000Y-43815000D03*
X117345000Y-42545000D03*
X117345000Y-41275000D03*
X117345000Y-40005000D03*
X117345000Y-38735000D03*
X117345000Y-37465000D03*
X117345000Y-36195000D03*
%TD*%
D16*
%TO.C,PS1*%
X117475000Y-61065000D03*
X120015000Y-61065000D03*
X125095000Y-61065000D03*
X125095000Y-51965000D03*
X117475000Y-51965000D03*
%TD*%
D10*
%TO.C,R4*%
X132715000Y-70485000D03*
X134715000Y-70485000D03*
%TD*%
D26*
X60710000Y-81325000D02*
X160710000Y-81325000D01*
X160710000Y-131325000D01*
X60710000Y-131325000D01*
X60710000Y-81325000D01*
X60710000Y-31325000D02*
X160710000Y-31325000D01*
X160710000Y-81325000D01*
X60710000Y-81325000D01*
X60710000Y-31325000D01*
M02*
