M48
; DRILL file {KiCad 7.0.11+dfsg-1build4} date dom 24 may 2026 20:18:20
; FORMAT={-:-/ absolute / metric / decimal}
; #@! TF.CreationDate,2026-05-24T20:18:20-05:00
; #@! TF.GenerationSoftware,Kicad,Pcbnew,7.0.11+dfsg-1build4
; #@! TF.FileFunction,Plated,1,2,PTH
FMAT,2
METRIC
; #@! TA.AperFunction,Plated,PTH,ViaDrill
T1C0.300
; #@! TA.AperFunction,Plated,PTH,ComponentDrill
T2C1.000
; #@! TA.AperFunction,Plated,PTH,ComponentDrill
T3C1.200
%
G90
G05
T1
X41.3Y-69.698
X41.3Y-119.698
X41.402Y-27.838
X41.402Y-77.838
X44.457Y-66.236
X44.457Y-116.236
X49.479Y-28.296
X49.479Y-78.296
X56.388Y-69.901
X56.388Y-119.901
X56.54Y-66.446
X56.54Y-116.446
X60.198Y-59.436
X60.198Y-109.436
X60.3Y-66.61
X60.3Y-116.61
X63.906Y-28.854
X63.906Y-78.854
X64.982Y-45.618
X64.982Y-95.618
X66.234Y-42.621
X66.234Y-92.621
X66.452Y-37.892
X66.452Y-87.892
X68.391Y-36.755
X68.391Y-86.755
X69.19Y-35.611
X69.19Y-85.611
X69.921Y-33.117
X69.921Y-83.117
X70.674Y-34.002
X70.674Y-84.002
X70.981Y-39.915
X70.981Y-89.915
X72.492Y-38.303
X72.492Y-88.303
X72.587Y-66.236
X72.587Y-116.236
X72.695Y-68.936
X72.695Y-118.936
X75.336Y-66.904
X75.336Y-116.904
X76.911Y-47.041
X76.911Y-97.041
X77.317Y-66.086
X77.317Y-116.086
X82.769Y-63.983
X82.769Y-113.983
X83.688Y-30.571
X83.688Y-80.571
X84.753Y-35.103
X84.753Y-85.103
X85.801Y-36.068
X85.801Y-86.068
X85.903Y-33.579
X85.903Y-83.579
X88.663Y-60.586
X88.663Y-110.586
X93.525Y-62.847
X93.525Y-112.847
X94.488Y-64.618
X94.488Y-69.799
X94.488Y-114.618
X94.488Y-119.799
X94.844Y-36.068
X94.844Y-86.068
X98.329Y-30.583
X98.329Y-80.583
X99.314Y-34.747
X99.314Y-84.747
X100.33Y-29.058
X100.33Y-79.058
X100.975Y-31.003
X100.975Y-81.003
X101.023Y-32.946
X101.023Y-82.946
X103.53Y-31.648
X103.53Y-81.648
X106.731Y-30.683
X106.731Y-80.683
X106.883Y-39.776
X106.883Y-89.776
X107.848Y-38.913
X107.848Y-88.913
X108.001Y-46.279
X108.001Y-96.279
X108.814Y-69.494
X108.814Y-119.494
X109.068Y-27.534
X109.068Y-77.534
X109.294Y-51.727
X109.294Y-101.727
X109.423Y-36.678
X109.423Y-86.678
X109.525Y-46.685
X109.525Y-96.685
X109.626Y-29.769
X109.626Y-79.769
X109.982Y-27.534
X109.982Y-77.534
X110.439Y-55.992
X110.439Y-105.992
X113.052Y-41.057
X113.052Y-91.057
X114.554Y-59.284
X114.554Y-109.284
X115.519Y-33.528
X115.519Y-83.528
X115.701Y-63.539
X115.701Y-66.037
X115.701Y-113.539
X115.701Y-116.037
X116.023Y-59.602
X116.023Y-109.602
X116.688Y-41.097
X116.688Y-91.097
X117.45Y-55.763
X117.45Y-105.763
X119.924Y-60.901
X119.924Y-110.901
X121.081Y-61.814
X121.081Y-111.814
X122.178Y-61.571
X122.178Y-111.571
X122.834Y-28.092
X122.834Y-78.092
X123.342Y-41.097
X123.342Y-68.174
X123.342Y-91.097
X123.342Y-118.174
X124.409Y-44.552
X124.409Y-94.552
X124.866Y-40.183
X124.866Y-90.183
X125.273Y-32.09
X125.273Y-82.09
X126.848Y-45.618
X126.848Y-95.618
X130.302Y-66.853
X130.302Y-116.853
X131.674Y-42.418
X131.674Y-92.418
X134.156Y-59.648
X134.156Y-109.648
X135.484Y-33.731
X135.484Y-83.731
X136.195Y-36.83
X136.195Y-86.83
X138.735Y-69.647
X138.735Y-119.647
X139.141Y-27.737
X139.141Y-31.598
X139.141Y-77.737
X139.141Y-81.598
T2
X43.561Y-48.743
X43.561Y-63.983
X43.561Y-98.743
X43.561Y-113.983
X46.101Y-48.743
X46.101Y-63.983
X46.101Y-98.743
X46.101Y-113.983
X48.641Y-48.743
X48.641Y-63.983
X48.641Y-98.743
X48.641Y-113.983
X51.181Y-48.743
X51.181Y-63.983
X51.181Y-98.743
X51.181Y-113.983
X53.721Y-48.743
X53.721Y-63.983
X53.721Y-98.743
X53.721Y-113.983
X56.261Y-48.743
X56.261Y-63.983
X56.261Y-98.743
X56.261Y-113.983
X58.801Y-48.743
X58.801Y-63.983
X58.801Y-98.743
X58.801Y-113.983
X61.341Y-48.743
X61.341Y-63.983
X61.341Y-98.743
X61.341Y-113.983
X75.311Y-43.928
X75.311Y-93.928
X77.851Y-43.928
X77.851Y-93.928
X80.391Y-43.928
X80.391Y-93.928
X82.931Y-43.928
X82.931Y-93.928
T3
X42.801Y-32.028
X42.801Y-82.028
X44.551Y-43.458
X44.551Y-93.458
X46.301Y-32.028
X46.301Y-82.028
X48.051Y-43.458
X48.051Y-93.458
X49.801Y-32.028
X49.801Y-82.028
X51.551Y-43.458
X51.551Y-93.458
X53.301Y-32.028
X53.301Y-82.028
X55.051Y-43.458
X55.051Y-93.458
X56.801Y-32.028
X56.801Y-82.028
X58.551Y-43.458
X58.551Y-93.458
X60.301Y-32.028
X60.301Y-82.028
X62.051Y-43.458
X62.051Y-93.458
X124.206Y-48.743
X124.206Y-52.243
X124.206Y-55.743
X124.206Y-98.743
X124.206Y-102.243
X124.206Y-105.743
X135.636Y-46.993
X135.636Y-50.493
X135.636Y-53.993
X135.636Y-96.993
X135.636Y-100.493
X135.636Y-103.993
M30
