M48
; DRILL file {KiCad 7.0.11+dfsg-1build4} date mar 12 may 2026 20:38:48
; FORMAT={-:-/ absolute / metric / decimal}
; #@! TF.CreationDate,2026-05-12T20:38:48-05:00
; #@! TF.GenerationSoftware,Kicad,Pcbnew,7.0.11+dfsg-1build4
; #@! TF.FileFunction,Plated,1,2,PTH
FMAT,2
METRIC
; #@! TA.AperFunction,Plated,PTH,ViaDrill
T1C0.300
; #@! TA.AperFunction,Plated,PTH,ComponentDrill
T2C1.000
; #@! TA.AperFunction,Plated,PTH,ComponentDrill
T3C1.200
%
G90
G05
T1
X56.515Y-38.735
X56.515Y-59.69
X56.515Y-80.645
X56.515Y-88.735
X56.515Y-109.69
X56.515Y-130.645
X59.688Y-80.543
X59.688Y-130.543
X59.762Y-77.183
X59.762Y-127.183
X70.944Y-41.415
X70.944Y-91.415
X71.694Y-68.828
X71.694Y-118.828
X74.93Y-77.183
X74.93Y-127.183
X76.2Y-77.766
X76.2Y-127.766
X76.835Y-46.522
X76.835Y-51.435
X76.835Y-96.522
X76.835Y-101.435
X89.535Y-50.8
X89.535Y-80.645
X89.535Y-100.8
X89.535Y-130.645
X90.582Y-41.99
X90.582Y-91.99
X91.757Y-45.079
X91.757Y-95.079
X92.369Y-65.627
X92.369Y-115.627
X92.385Y-61.552
X92.385Y-111.552
X93.382Y-45.022
X93.382Y-95.022
X93.98Y-78.24
X93.98Y-128.24
X95.316Y-45.699
X95.316Y-95.699
X95.317Y-77.641
X95.317Y-127.64
X99.695Y-48.26
X99.695Y-98.26
X99.89Y-53.975
X99.89Y-103.975
X100.278Y-50.165
X100.278Y-100.165
X100.33Y-46.99
X100.33Y-96.99
X100.49Y-71.55
X100.49Y-121.55
X100.965Y-72.39
X100.965Y-74.93
X100.965Y-122.39
X100.965Y-124.93
X102.208Y-70.812
X102.208Y-120.812
X102.958Y-50.165
X102.958Y-100.165
X104.157Y-71.55
X104.157Y-121.55
X105.18Y-45.816
X105.18Y-95.816
X105.303Y-41.382
X105.303Y-91.382
X105.774Y-48.26
X105.774Y-98.26
X105.8Y-44.495
X105.8Y-94.495
X105.84Y-50.8
X105.84Y-100.8
X106.045Y-39.37
X106.045Y-89.37
X107.315Y-38.735
X107.315Y-88.735
X107.95Y-54.61
X107.95Y-104.61
X109.127Y-73.718
X109.127Y-123.718
X109.344Y-47.561
X109.344Y-97.561
X109.855Y-39.37
X109.855Y-89.37
X109.934Y-46.661
X109.934Y-96.661
X110.202Y-74.186
X110.202Y-124.186
X110.713Y-43.601
X110.713Y-93.601
X111.125Y-38.735
X111.125Y-88.735
X112.395Y-39.37
X112.395Y-89.37
X113.03Y-41.275
X113.03Y-91.275
X113.665Y-50.8
X113.665Y-70.485
X113.665Y-80.645
X113.665Y-100.8
X113.665Y-120.485
X113.665Y-130.645
X114.382Y-47.072
X114.382Y-97.072
X114.619Y-43.764
X114.619Y-93.764
X114.935Y-52.705
X114.935Y-102.705
X115.397Y-44.706
X115.397Y-94.706
X115.57Y-57.785
X115.57Y-64.77
X115.57Y-107.785
X115.57Y-114.77
X116.205Y-46.355
X116.205Y-53.34
X116.205Y-96.355
X116.205Y-103.34
X119.38Y-52.07
X119.38Y-62.865
X119.38Y-80.645
X119.38Y-102.07
X119.38Y-112.865
X119.38Y-130.645
X122.385Y-48.188
X122.385Y-98.188
X122.899Y-53.349
X122.899Y-103.349
X123.825Y-38.735
X123.825Y-88.735
X124.985Y-48.188
X124.985Y-98.188
X125.095Y-74.93
X125.095Y-124.93
X126.347Y-73.685
X126.347Y-123.685
X126.765Y-57.15
X126.765Y-107.15
X127.0Y-69.85
X127.0Y-119.85
X127.635Y-64.77
X127.635Y-114.77
X128.27Y-68.58
X128.27Y-118.58
X130.175Y-44.45
X130.175Y-47.625
X130.175Y-51.834
X130.175Y-94.45
X130.175Y-97.625
X130.175Y-101.834
X130.81Y-38.735
X130.81Y-88.735
X130.929Y-62.261
X130.929Y-112.261
X131.445Y-69.85
X131.445Y-119.85
X132.08Y-44.218
X132.08Y-94.218
X132.715Y-63.5
X132.715Y-113.5
X135.409Y-53.816
X135.409Y-103.816
X136.996Y-69.85
X136.996Y-119.85
X137.795Y-53.34
X137.795Y-103.34
X138.43Y-55.245
X138.43Y-71.755
X138.43Y-105.245
X138.43Y-121.755
X139.065Y-56.515
X139.065Y-106.515
X139.7Y-53.975
X139.7Y-103.975
X140.335Y-47.625
X140.335Y-97.625
X140.97Y-44.45
X140.97Y-74.93
X140.97Y-77.65
X140.97Y-94.45
X140.97Y-124.93
X140.97Y-127.65
X142.24Y-44.45
X142.24Y-94.45
X144.145Y-80.01
X144.145Y-130.01
X144.78Y-76.2
X144.78Y-126.2
X145.415Y-76.835
X145.415Y-126.835
X145.665Y-52.705
X145.665Y-102.705
X146.077Y-75.752
X146.077Y-125.752
X146.156Y-73.767
X146.156Y-123.767
X147.32Y-41.275
X147.32Y-91.275
X148.59Y-64.489
X148.59Y-114.489
X151.13Y-44.45
X151.13Y-47.625
X151.13Y-94.45
X151.13Y-97.625
X154.305Y-38.735
X154.305Y-67.945
X154.305Y-80.645
X154.305Y-88.735
X154.305Y-117.945
X154.305Y-130.645
T2
X59.055Y-59.69
X59.055Y-74.93
X59.055Y-109.69
X59.055Y-124.93
X61.595Y-59.69
X61.595Y-74.93
X61.595Y-109.69
X61.595Y-124.93
X64.135Y-59.69
X64.135Y-74.93
X64.135Y-109.69
X64.135Y-124.93
X66.675Y-59.69
X66.675Y-74.93
X66.675Y-109.69
X66.675Y-124.93
X69.215Y-59.69
X69.215Y-74.93
X69.215Y-109.69
X69.215Y-124.93
X71.755Y-59.69
X71.755Y-74.93
X71.755Y-109.69
X71.755Y-124.93
X74.295Y-59.69
X74.295Y-74.93
X74.295Y-109.69
X74.295Y-124.93
X76.835Y-59.69
X76.835Y-74.93
X76.835Y-109.69
X76.835Y-124.93
X90.805Y-54.875
X90.805Y-104.875
X93.345Y-54.875
X93.345Y-104.875
X95.885Y-54.875
X95.885Y-104.875
X98.425Y-54.875
X98.425Y-104.875
T3
X58.295Y-42.975
X58.295Y-92.975
X60.045Y-54.405
X60.045Y-104.405
X61.795Y-42.975
X61.795Y-92.975
X63.545Y-54.405
X63.545Y-104.405
X65.295Y-42.975
X65.295Y-92.975
X67.045Y-54.405
X67.045Y-104.405
X68.795Y-42.975
X68.795Y-92.975
X70.545Y-54.405
X70.545Y-104.405
X72.295Y-42.975
X72.295Y-92.975
X74.045Y-54.405
X74.045Y-104.405
X75.795Y-42.975
X75.795Y-92.975
X77.545Y-54.405
X77.545Y-104.405
X139.7Y-59.69
X139.7Y-63.19
X139.7Y-66.69
X139.7Y-109.69
X139.7Y-113.19
X139.7Y-116.69
X151.13Y-57.94
X151.13Y-61.44
X151.13Y-64.94
X151.13Y-107.94
X151.13Y-111.44
X151.13Y-114.94
M30
