M48
; DRILL file {KiCad 7.0.11+dfsg-1build4} date jue 19 mar 2026 18:47:37
; FORMAT={-:-/ absolute / metric / decimal}
; #@! TF.CreationDate,2026-03-19T18:47:37-05:00
; #@! TF.GenerationSoftware,Kicad,Pcbnew,7.0.11+dfsg-1build4
; #@! TF.FileFunction,Plated,1,2,PTH
FMAT,2
METRIC
; #@! TA.AperFunction,Plated,PTH,ViaDrill
T1C0.300
; #@! TA.AperFunction,Plated,PTH,ComponentDrill
T2C1.000
; #@! TA.AperFunction,Plated,PTH,ComponentDrill
T3C1.200
%
G90
G05
T1
X46.355Y-20.32
X46.355Y-41.275
X46.355Y-62.23
X46.355Y-70.32
X46.355Y-91.275
X46.355Y-112.23
X49.528Y-62.128
X49.528Y-112.128
X49.602Y-58.768
X49.602Y-108.768
X60.784Y-23.0
X60.784Y-73.0
X61.534Y-50.413
X61.534Y-100.413
X64.77Y-58.768
X64.77Y-108.768
X66.04Y-59.351
X66.04Y-109.351
X66.675Y-28.107
X66.675Y-33.02
X66.675Y-78.107
X66.675Y-83.02
X79.375Y-32.385
X79.375Y-62.23
X79.375Y-82.385
X79.375Y-112.23
X80.422Y-23.575
X80.422Y-73.575
X81.597Y-26.664
X81.597Y-76.664
X82.209Y-47.212
X82.209Y-97.212
X82.225Y-43.137
X82.225Y-93.137
X83.222Y-26.607
X83.222Y-76.607
X83.82Y-59.825
X83.82Y-109.825
X85.156Y-27.284
X85.156Y-77.284
X85.157Y-59.225
X85.157Y-109.225
X89.535Y-29.845
X89.535Y-79.845
X89.73Y-35.56
X89.73Y-85.56
X90.118Y-31.75
X90.118Y-81.75
X90.17Y-28.575
X90.17Y-78.575
X90.33Y-53.135
X90.33Y-103.135
X90.805Y-53.975
X90.805Y-56.515
X90.805Y-103.975
X90.805Y-106.515
X92.048Y-52.397
X92.048Y-102.397
X92.798Y-31.75
X92.798Y-81.75
X93.997Y-53.135
X93.997Y-103.135
X95.02Y-27.401
X95.02Y-77.401
X95.143Y-22.967
X95.143Y-72.967
X95.614Y-29.845
X95.614Y-79.845
X95.64Y-26.08
X95.64Y-76.08
X95.68Y-32.385
X95.68Y-82.385
X95.885Y-20.955
X95.885Y-70.955
X97.155Y-20.32
X97.155Y-70.32
X97.79Y-36.195
X97.79Y-86.195
X98.967Y-55.303
X98.967Y-105.303
X99.184Y-29.146
X99.184Y-79.146
X99.695Y-20.955
X99.695Y-70.955
X99.774Y-28.246
X99.774Y-78.246
X100.042Y-55.771
X100.042Y-105.771
X100.553Y-25.186
X100.553Y-75.186
X100.965Y-20.32
X100.965Y-70.32
X102.235Y-20.955
X102.235Y-70.955
X102.87Y-22.86
X102.87Y-72.86
X103.505Y-32.385
X103.505Y-52.07
X103.505Y-62.23
X103.505Y-82.385
X103.505Y-102.07
X103.505Y-112.23
X104.222Y-28.657
X104.222Y-78.657
X104.459Y-25.349
X104.459Y-75.349
X104.775Y-34.29
X104.775Y-84.29
X105.237Y-26.291
X105.237Y-76.291
X105.41Y-39.37
X105.41Y-46.355
X105.41Y-89.37
X105.41Y-96.355
X106.045Y-27.94
X106.045Y-34.925
X106.045Y-77.94
X106.045Y-84.925
X109.22Y-33.655
X109.22Y-44.45
X109.22Y-62.23
X109.22Y-83.655
X109.22Y-94.45
X109.22Y-112.23
X112.225Y-29.773
X112.225Y-79.773
X112.739Y-34.934
X112.739Y-84.934
X113.665Y-20.32
X113.665Y-70.32
X114.825Y-29.773
X114.825Y-79.773
X114.935Y-56.515
X114.935Y-106.515
X116.187Y-55.27
X116.187Y-105.27
X116.605Y-38.735
X116.605Y-88.735
X116.84Y-51.435
X116.84Y-101.435
X117.475Y-46.355
X117.475Y-96.355
X118.11Y-50.165
X118.11Y-100.165
X120.015Y-26.035
X120.015Y-29.21
X120.015Y-33.419
X120.015Y-76.035
X120.015Y-79.21
X120.015Y-83.419
X120.65Y-20.32
X120.65Y-70.32
X120.769Y-43.846
X120.769Y-93.846
X121.285Y-51.435
X121.285Y-101.435
X121.92Y-25.803
X121.92Y-75.803
X122.555Y-45.085
X122.555Y-95.085
X125.249Y-35.401
X125.249Y-85.4
X126.836Y-51.435
X126.836Y-101.435
X127.635Y-34.925
X127.635Y-84.925
X128.27Y-36.83
X128.27Y-53.34
X128.27Y-86.83
X128.27Y-103.34
X128.905Y-38.1
X128.905Y-88.1
X129.54Y-35.56
X129.54Y-85.56
X130.175Y-29.21
X130.175Y-79.21
X130.81Y-26.035
X130.81Y-56.515
X130.81Y-59.235
X130.81Y-76.035
X130.81Y-106.515
X130.81Y-109.235
X132.08Y-26.035
X132.08Y-76.035
X133.985Y-61.595
X133.985Y-111.595
X134.62Y-57.785
X134.62Y-107.785
X135.255Y-58.42
X135.255Y-108.42
X135.505Y-34.29
X135.505Y-84.29
X135.917Y-57.337
X135.917Y-107.337
X135.996Y-55.352
X135.996Y-105.352
X137.16Y-22.86
X137.16Y-72.86
X138.43Y-46.074
X138.43Y-96.074
X140.97Y-26.035
X140.97Y-29.21
X140.97Y-76.035
X140.97Y-79.21
X144.145Y-20.32
X144.145Y-49.53
X144.145Y-62.23
X144.145Y-70.32
X144.145Y-99.53
X144.145Y-112.23
T2
X48.895Y-41.275
X48.895Y-56.515
X48.895Y-91.275
X48.895Y-106.515
X51.435Y-41.275
X51.435Y-56.515
X51.435Y-91.275
X51.435Y-106.515
X53.975Y-41.275
X53.975Y-56.515
X53.975Y-91.275
X53.975Y-106.515
X56.515Y-41.275
X56.515Y-56.515
X56.515Y-91.275
X56.515Y-106.515
X59.055Y-41.275
X59.055Y-56.515
X59.055Y-91.275
X59.055Y-106.515
X61.595Y-41.275
X61.595Y-56.515
X61.595Y-91.275
X61.595Y-106.515
X64.135Y-41.275
X64.135Y-56.515
X64.135Y-91.275
X64.135Y-106.515
X66.675Y-41.275
X66.675Y-56.515
X66.675Y-91.275
X66.675Y-106.515
X80.645Y-36.46
X80.645Y-86.46
X83.185Y-36.46
X83.185Y-86.46
X85.725Y-36.46
X85.725Y-86.46
X88.265Y-36.46
X88.265Y-86.46
T3
X48.135Y-24.56
X48.135Y-74.56
X49.885Y-35.99
X49.885Y-85.99
X51.635Y-24.56
X51.635Y-74.56
X53.385Y-35.99
X53.385Y-85.99
X55.135Y-24.56
X55.135Y-74.56
X56.885Y-35.99
X56.885Y-85.99
X58.635Y-24.56
X58.635Y-74.56
X60.385Y-35.99
X60.385Y-85.99
X62.135Y-24.56
X62.135Y-74.56
X63.885Y-35.99
X63.885Y-85.99
X65.635Y-24.56
X65.635Y-74.56
X67.385Y-35.99
X67.385Y-85.99
X129.54Y-41.275
X129.54Y-44.775
X129.54Y-48.275
X129.54Y-91.275
X129.54Y-94.775
X129.54Y-98.275
X140.97Y-39.525
X140.97Y-43.025
X140.97Y-46.525
X140.97Y-89.525
X140.97Y-93.025
X140.97Y-96.525
M30
