%TF.GenerationSoftware,KiCad,Pcbnew,7.0.11-7.0.11~ubuntu20.04.1*%
%TF.CreationDate,2026-04-08T14:46:57-05:00*%
%TF.ProjectId,b05,6230352e-6b69-4636-9164-5f7063625858,rev?*%
%TF.SameCoordinates,Original*%
%TF.FileFunction,Legend,Bot*%
%TF.FilePolarity,Positive*%
%FSLAX46Y46*%
G04 Gerber Fmt 4.6, Leading zero omitted, Abs format (unit mm)*
G04 Created by KiCad (PCBNEW 7.0.11-7.0.11~ubuntu20.04.1) date 2026-04-08 14:46:57*
%MOMM*%
%LPD*%
G01*
G04 APERTURE LIST*
%ADD10C,0.100000*%
%TA.AperFunction,Profile*%
%ADD11C,0.050000*%
%TD*%
G04 APERTURE END LIST*
D10*
X79850000Y-78000000D02*
X179670000Y-78000000D01*
X173091353Y-66007085D02*
X173005639Y-66035657D01*
X173005639Y-66035657D02*
X172977068Y-66064228D01*
X172977068Y-66064228D02*
X172948496Y-66121371D01*
X172948496Y-66121371D02*
X172948496Y-66207085D01*
X172948496Y-66207085D02*
X172977068Y-66264228D01*
X172977068Y-66264228D02*
X173005639Y-66292800D01*
X173005639Y-66292800D02*
X173062782Y-66321371D01*
X173062782Y-66321371D02*
X173291353Y-66321371D01*
X173291353Y-66321371D02*
X173291353Y-65721371D01*
X173291353Y-65721371D02*
X173091353Y-65721371D01*
X173091353Y-65721371D02*
X173034211Y-65749942D01*
X173034211Y-65749942D02*
X173005639Y-65778514D01*
X173005639Y-65778514D02*
X172977068Y-65835657D01*
X172977068Y-65835657D02*
X172977068Y-65892800D01*
X172977068Y-65892800D02*
X173005639Y-65949942D01*
X173005639Y-65949942D02*
X173034211Y-65978514D01*
X173034211Y-65978514D02*
X173091353Y-66007085D01*
X173091353Y-66007085D02*
X173291353Y-66007085D01*
X172691353Y-65721371D02*
X172691353Y-66207085D01*
X172691353Y-66207085D02*
X172662782Y-66264228D01*
X172662782Y-66264228D02*
X172634211Y-66292800D01*
X172634211Y-66292800D02*
X172577068Y-66321371D01*
X172577068Y-66321371D02*
X172462782Y-66321371D01*
X172462782Y-66321371D02*
X172405639Y-66292800D01*
X172405639Y-66292800D02*
X172377068Y-66264228D01*
X172377068Y-66264228D02*
X172348496Y-66207085D01*
X172348496Y-66207085D02*
X172348496Y-65721371D01*
X172091354Y-66292800D02*
X172005640Y-66321371D01*
X172005640Y-66321371D02*
X171862782Y-66321371D01*
X171862782Y-66321371D02*
X171805640Y-66292800D01*
X171805640Y-66292800D02*
X171777068Y-66264228D01*
X171777068Y-66264228D02*
X171748497Y-66207085D01*
X171748497Y-66207085D02*
X171748497Y-66149942D01*
X171748497Y-66149942D02*
X171777068Y-66092800D01*
X171777068Y-66092800D02*
X171805640Y-66064228D01*
X171805640Y-66064228D02*
X171862782Y-66035657D01*
X171862782Y-66035657D02*
X171977068Y-66007085D01*
X171977068Y-66007085D02*
X172034211Y-65978514D01*
X172034211Y-65978514D02*
X172062782Y-65949942D01*
X172062782Y-65949942D02*
X172091354Y-65892800D01*
X172091354Y-65892800D02*
X172091354Y-65835657D01*
X172091354Y-65835657D02*
X172062782Y-65778514D01*
X172062782Y-65778514D02*
X172034211Y-65749942D01*
X172034211Y-65749942D02*
X171977068Y-65721371D01*
X171977068Y-65721371D02*
X171834211Y-65721371D01*
X171834211Y-65721371D02*
X171748497Y-65749942D01*
X171091353Y-65721371D02*
X170719925Y-65721371D01*
X170719925Y-65721371D02*
X170919925Y-65949942D01*
X170919925Y-65949942D02*
X170834210Y-65949942D01*
X170834210Y-65949942D02*
X170777068Y-65978514D01*
X170777068Y-65978514D02*
X170748496Y-66007085D01*
X170748496Y-66007085D02*
X170719925Y-66064228D01*
X170719925Y-66064228D02*
X170719925Y-66207085D01*
X170719925Y-66207085D02*
X170748496Y-66264228D01*
X170748496Y-66264228D02*
X170777068Y-66292800D01*
X170777068Y-66292800D02*
X170834210Y-66321371D01*
X170834210Y-66321371D02*
X171005639Y-66321371D01*
X171005639Y-66321371D02*
X171062782Y-66292800D01*
X171062782Y-66292800D02*
X171091353Y-66264228D01*
X170949942Y-42142931D02*
X170921371Y-42085789D01*
X170921371Y-42085789D02*
X170921371Y-42000074D01*
X170921371Y-42000074D02*
X170949942Y-41914360D01*
X170949942Y-41914360D02*
X171007085Y-41857217D01*
X171007085Y-41857217D02*
X171064228Y-41828646D01*
X171064228Y-41828646D02*
X171178514Y-41800074D01*
X171178514Y-41800074D02*
X171264228Y-41800074D01*
X171264228Y-41800074D02*
X171378514Y-41828646D01*
X171378514Y-41828646D02*
X171435657Y-41857217D01*
X171435657Y-41857217D02*
X171492800Y-41914360D01*
X171492800Y-41914360D02*
X171521371Y-42000074D01*
X171521371Y-42000074D02*
X171521371Y-42057217D01*
X171521371Y-42057217D02*
X171492800Y-42142931D01*
X171492800Y-42142931D02*
X171464228Y-42171503D01*
X171464228Y-42171503D02*
X171264228Y-42171503D01*
X171264228Y-42171503D02*
X171264228Y-42057217D01*
X171521371Y-42428646D02*
X170921371Y-42428646D01*
X170921371Y-42428646D02*
X171521371Y-42771503D01*
X171521371Y-42771503D02*
X170921371Y-42771503D01*
X171521371Y-43057217D02*
X170921371Y-43057217D01*
X170921371Y-43057217D02*
X170921371Y-43200074D01*
X170921371Y-43200074D02*
X170949942Y-43285788D01*
X170949942Y-43285788D02*
X171007085Y-43342931D01*
X171007085Y-43342931D02*
X171064228Y-43371502D01*
X171064228Y-43371502D02*
X171178514Y-43400074D01*
X171178514Y-43400074D02*
X171264228Y-43400074D01*
X171264228Y-43400074D02*
X171378514Y-43371502D01*
X171378514Y-43371502D02*
X171435657Y-43342931D01*
X171435657Y-43342931D02*
X171492800Y-43285788D01*
X171492800Y-43285788D02*
X171521371Y-43200074D01*
X171521371Y-43200074D02*
X171521371Y-43057217D01*
X167559942Y-42142931D02*
X167531371Y-42085789D01*
X167531371Y-42085789D02*
X167531371Y-42000074D01*
X167531371Y-42000074D02*
X167559942Y-41914360D01*
X167559942Y-41914360D02*
X167617085Y-41857217D01*
X167617085Y-41857217D02*
X167674228Y-41828646D01*
X167674228Y-41828646D02*
X167788514Y-41800074D01*
X167788514Y-41800074D02*
X167874228Y-41800074D01*
X167874228Y-41800074D02*
X167988514Y-41828646D01*
X167988514Y-41828646D02*
X168045657Y-41857217D01*
X168045657Y-41857217D02*
X168102800Y-41914360D01*
X168102800Y-41914360D02*
X168131371Y-42000074D01*
X168131371Y-42000074D02*
X168131371Y-42057217D01*
X168131371Y-42057217D02*
X168102800Y-42142931D01*
X168102800Y-42142931D02*
X168074228Y-42171503D01*
X168074228Y-42171503D02*
X167874228Y-42171503D01*
X167874228Y-42171503D02*
X167874228Y-42057217D01*
X168131371Y-42428646D02*
X167531371Y-42428646D01*
X167531371Y-42428646D02*
X168131371Y-42771503D01*
X168131371Y-42771503D02*
X167531371Y-42771503D01*
X168131371Y-43057217D02*
X167531371Y-43057217D01*
X167531371Y-43057217D02*
X167531371Y-43200074D01*
X167531371Y-43200074D02*
X167559942Y-43285788D01*
X167559942Y-43285788D02*
X167617085Y-43342931D01*
X167617085Y-43342931D02*
X167674228Y-43371502D01*
X167674228Y-43371502D02*
X167788514Y-43400074D01*
X167788514Y-43400074D02*
X167874228Y-43400074D01*
X167874228Y-43400074D02*
X167988514Y-43371502D01*
X167988514Y-43371502D02*
X168045657Y-43342931D01*
X168045657Y-43342931D02*
X168102800Y-43285788D01*
X168102800Y-43285788D02*
X168131371Y-43200074D01*
X168131371Y-43200074D02*
X168131371Y-43057217D01*
X174421371Y-41742931D02*
X175021371Y-41942931D01*
X175021371Y-41942931D02*
X174421371Y-42142931D01*
X174964228Y-42685789D02*
X174992800Y-42657217D01*
X174992800Y-42657217D02*
X175021371Y-42571503D01*
X175021371Y-42571503D02*
X175021371Y-42514360D01*
X175021371Y-42514360D02*
X174992800Y-42428646D01*
X174992800Y-42428646D02*
X174935657Y-42371503D01*
X174935657Y-42371503D02*
X174878514Y-42342932D01*
X174878514Y-42342932D02*
X174764228Y-42314360D01*
X174764228Y-42314360D02*
X174678514Y-42314360D01*
X174678514Y-42314360D02*
X174564228Y-42342932D01*
X174564228Y-42342932D02*
X174507085Y-42371503D01*
X174507085Y-42371503D02*
X174449942Y-42428646D01*
X174449942Y-42428646D02*
X174421371Y-42514360D01*
X174421371Y-42514360D02*
X174421371Y-42571503D01*
X174421371Y-42571503D02*
X174449942Y-42657217D01*
X174449942Y-42657217D02*
X174478514Y-42685789D01*
X174964228Y-43285789D02*
X174992800Y-43257217D01*
X174992800Y-43257217D02*
X175021371Y-43171503D01*
X175021371Y-43171503D02*
X175021371Y-43114360D01*
X175021371Y-43114360D02*
X174992800Y-43028646D01*
X174992800Y-43028646D02*
X174935657Y-42971503D01*
X174935657Y-42971503D02*
X174878514Y-42942932D01*
X174878514Y-42942932D02*
X174764228Y-42914360D01*
X174764228Y-42914360D02*
X174678514Y-42914360D01*
X174678514Y-42914360D02*
X174564228Y-42942932D01*
X174564228Y-42942932D02*
X174507085Y-42971503D01*
X174507085Y-42971503D02*
X174449942Y-43028646D01*
X174449942Y-43028646D02*
X174421371Y-43114360D01*
X174421371Y-43114360D02*
X174421371Y-43171503D01*
X174421371Y-43171503D02*
X174449942Y-43257217D01*
X174449942Y-43257217D02*
X174478514Y-43285789D01*
X173271371Y-44368646D02*
X172671371Y-44368646D01*
X172671371Y-44368646D02*
X172671371Y-44511503D01*
X172671371Y-44511503D02*
X172699942Y-44597217D01*
X172699942Y-44597217D02*
X172757085Y-44654360D01*
X172757085Y-44654360D02*
X172814228Y-44682931D01*
X172814228Y-44682931D02*
X172928514Y-44711503D01*
X172928514Y-44711503D02*
X173014228Y-44711503D01*
X173014228Y-44711503D02*
X173128514Y-44682931D01*
X173128514Y-44682931D02*
X173185657Y-44654360D01*
X173185657Y-44654360D02*
X173242800Y-44597217D01*
X173242800Y-44597217D02*
X173271371Y-44511503D01*
X173271371Y-44511503D02*
X173271371Y-44368646D01*
X173271371Y-44968646D02*
X172671371Y-44968646D01*
X173242800Y-45225788D02*
X173271371Y-45311503D01*
X173271371Y-45311503D02*
X173271371Y-45454360D01*
X173271371Y-45454360D02*
X173242800Y-45511503D01*
X173242800Y-45511503D02*
X173214228Y-45540074D01*
X173214228Y-45540074D02*
X173157085Y-45568645D01*
X173157085Y-45568645D02*
X173099942Y-45568645D01*
X173099942Y-45568645D02*
X173042800Y-45540074D01*
X173042800Y-45540074D02*
X173014228Y-45511503D01*
X173014228Y-45511503D02*
X172985657Y-45454360D01*
X172985657Y-45454360D02*
X172957085Y-45340074D01*
X172957085Y-45340074D02*
X172928514Y-45282931D01*
X172928514Y-45282931D02*
X172899942Y-45254360D01*
X172899942Y-45254360D02*
X172842800Y-45225788D01*
X172842800Y-45225788D02*
X172785657Y-45225788D01*
X172785657Y-45225788D02*
X172728514Y-45254360D01*
X172728514Y-45254360D02*
X172699942Y-45282931D01*
X172699942Y-45282931D02*
X172671371Y-45340074D01*
X172671371Y-45340074D02*
X172671371Y-45482931D01*
X172671371Y-45482931D02*
X172699942Y-45568645D01*
X173271371Y-45825789D02*
X172671371Y-45825789D01*
X172671371Y-45825789D02*
X172671371Y-46054360D01*
X172671371Y-46054360D02*
X172699942Y-46111503D01*
X172699942Y-46111503D02*
X172728514Y-46140074D01*
X172728514Y-46140074D02*
X172785657Y-46168646D01*
X172785657Y-46168646D02*
X172871371Y-46168646D01*
X172871371Y-46168646D02*
X172928514Y-46140074D01*
X172928514Y-46140074D02*
X172957085Y-46111503D01*
X172957085Y-46111503D02*
X172985657Y-46054360D01*
X172985657Y-46054360D02*
X172985657Y-45825789D01*
X173328514Y-46282932D02*
X173328514Y-46740074D01*
X173242800Y-46854360D02*
X173271371Y-46940075D01*
X173271371Y-46940075D02*
X173271371Y-47082932D01*
X173271371Y-47082932D02*
X173242800Y-47140075D01*
X173242800Y-47140075D02*
X173214228Y-47168646D01*
X173214228Y-47168646D02*
X173157085Y-47197217D01*
X173157085Y-47197217D02*
X173099942Y-47197217D01*
X173099942Y-47197217D02*
X173042800Y-47168646D01*
X173042800Y-47168646D02*
X173014228Y-47140075D01*
X173014228Y-47140075D02*
X172985657Y-47082932D01*
X172985657Y-47082932D02*
X172957085Y-46968646D01*
X172957085Y-46968646D02*
X172928514Y-46911503D01*
X172928514Y-46911503D02*
X172899942Y-46882932D01*
X172899942Y-46882932D02*
X172842800Y-46854360D01*
X172842800Y-46854360D02*
X172785657Y-46854360D01*
X172785657Y-46854360D02*
X172728514Y-46882932D01*
X172728514Y-46882932D02*
X172699942Y-46911503D01*
X172699942Y-46911503D02*
X172671371Y-46968646D01*
X172671371Y-46968646D02*
X172671371Y-47111503D01*
X172671371Y-47111503D02*
X172699942Y-47197217D01*
X173271371Y-47454361D02*
X172671371Y-47454361D01*
X172671371Y-47454361D02*
X172671371Y-47597218D01*
X172671371Y-47597218D02*
X172699942Y-47682932D01*
X172699942Y-47682932D02*
X172757085Y-47740075D01*
X172757085Y-47740075D02*
X172814228Y-47768646D01*
X172814228Y-47768646D02*
X172928514Y-47797218D01*
X172928514Y-47797218D02*
X173014228Y-47797218D01*
X173014228Y-47797218D02*
X173128514Y-47768646D01*
X173128514Y-47768646D02*
X173185657Y-47740075D01*
X173185657Y-47740075D02*
X173242800Y-47682932D01*
X173242800Y-47682932D02*
X173271371Y-47597218D01*
X173271371Y-47597218D02*
X173271371Y-47454361D01*
X173099942Y-48025789D02*
X173099942Y-48311504D01*
X173271371Y-47968646D02*
X172671371Y-48168646D01*
X172671371Y-48168646D02*
X173271371Y-48368646D01*
X173091353Y-69507085D02*
X173005639Y-69535657D01*
X173005639Y-69535657D02*
X172977068Y-69564228D01*
X172977068Y-69564228D02*
X172948496Y-69621371D01*
X172948496Y-69621371D02*
X172948496Y-69707085D01*
X172948496Y-69707085D02*
X172977068Y-69764228D01*
X172977068Y-69764228D02*
X173005639Y-69792800D01*
X173005639Y-69792800D02*
X173062782Y-69821371D01*
X173062782Y-69821371D02*
X173291353Y-69821371D01*
X173291353Y-69821371D02*
X173291353Y-69221371D01*
X173291353Y-69221371D02*
X173091353Y-69221371D01*
X173091353Y-69221371D02*
X173034211Y-69249942D01*
X173034211Y-69249942D02*
X173005639Y-69278514D01*
X173005639Y-69278514D02*
X172977068Y-69335657D01*
X172977068Y-69335657D02*
X172977068Y-69392800D01*
X172977068Y-69392800D02*
X173005639Y-69449942D01*
X173005639Y-69449942D02*
X173034211Y-69478514D01*
X173034211Y-69478514D02*
X173091353Y-69507085D01*
X173091353Y-69507085D02*
X173291353Y-69507085D01*
X172691353Y-69221371D02*
X172691353Y-69707085D01*
X172691353Y-69707085D02*
X172662782Y-69764228D01*
X172662782Y-69764228D02*
X172634211Y-69792800D01*
X172634211Y-69792800D02*
X172577068Y-69821371D01*
X172577068Y-69821371D02*
X172462782Y-69821371D01*
X172462782Y-69821371D02*
X172405639Y-69792800D01*
X172405639Y-69792800D02*
X172377068Y-69764228D01*
X172377068Y-69764228D02*
X172348496Y-69707085D01*
X172348496Y-69707085D02*
X172348496Y-69221371D01*
X172091354Y-69792800D02*
X172005640Y-69821371D01*
X172005640Y-69821371D02*
X171862782Y-69821371D01*
X171862782Y-69821371D02*
X171805640Y-69792800D01*
X171805640Y-69792800D02*
X171777068Y-69764228D01*
X171777068Y-69764228D02*
X171748497Y-69707085D01*
X171748497Y-69707085D02*
X171748497Y-69649942D01*
X171748497Y-69649942D02*
X171777068Y-69592800D01*
X171777068Y-69592800D02*
X171805640Y-69564228D01*
X171805640Y-69564228D02*
X171862782Y-69535657D01*
X171862782Y-69535657D02*
X171977068Y-69507085D01*
X171977068Y-69507085D02*
X172034211Y-69478514D01*
X172034211Y-69478514D02*
X172062782Y-69449942D01*
X172062782Y-69449942D02*
X172091354Y-69392800D01*
X172091354Y-69392800D02*
X172091354Y-69335657D01*
X172091354Y-69335657D02*
X172062782Y-69278514D01*
X172062782Y-69278514D02*
X172034211Y-69249942D01*
X172034211Y-69249942D02*
X171977068Y-69221371D01*
X171977068Y-69221371D02*
X171834211Y-69221371D01*
X171834211Y-69221371D02*
X171748497Y-69249942D01*
X170719925Y-69821371D02*
X171062782Y-69821371D01*
X170891353Y-69821371D02*
X170891353Y-69221371D01*
X170891353Y-69221371D02*
X170948496Y-69307085D01*
X170948496Y-69307085D02*
X171005639Y-69364228D01*
X171005639Y-69364228D02*
X171062782Y-69392800D01*
X167291353Y-68071371D02*
X167291353Y-67471371D01*
X167291353Y-67471371D02*
X166948496Y-68071371D01*
X166948496Y-68071371D02*
X166948496Y-67471371D01*
X166319925Y-68014228D02*
X166348497Y-68042800D01*
X166348497Y-68042800D02*
X166434211Y-68071371D01*
X166434211Y-68071371D02*
X166491354Y-68071371D01*
X166491354Y-68071371D02*
X166577068Y-68042800D01*
X166577068Y-68042800D02*
X166634211Y-67985657D01*
X166634211Y-67985657D02*
X166662782Y-67928514D01*
X166662782Y-67928514D02*
X166691354Y-67814228D01*
X166691354Y-67814228D02*
X166691354Y-67728514D01*
X166691354Y-67728514D02*
X166662782Y-67614228D01*
X166662782Y-67614228D02*
X166634211Y-67557085D01*
X166634211Y-67557085D02*
X166577068Y-67499942D01*
X166577068Y-67499942D02*
X166491354Y-67471371D01*
X166491354Y-67471371D02*
X166434211Y-67471371D01*
X166434211Y-67471371D02*
X166348497Y-67499942D01*
X166348497Y-67499942D02*
X166319925Y-67528514D01*
X165957085Y-42548646D02*
X165957085Y-42748646D01*
X166271371Y-42834360D02*
X166271371Y-42548646D01*
X166271371Y-42548646D02*
X165671371Y-42548646D01*
X165671371Y-42548646D02*
X165671371Y-42834360D01*
X166271371Y-43434360D02*
X165985657Y-43234360D01*
X166271371Y-43091503D02*
X165671371Y-43091503D01*
X165671371Y-43091503D02*
X165671371Y-43320074D01*
X165671371Y-43320074D02*
X165699942Y-43377217D01*
X165699942Y-43377217D02*
X165728514Y-43405788D01*
X165728514Y-43405788D02*
X165785657Y-43434360D01*
X165785657Y-43434360D02*
X165871371Y-43434360D01*
X165871371Y-43434360D02*
X165928514Y-43405788D01*
X165928514Y-43405788D02*
X165957085Y-43377217D01*
X165957085Y-43377217D02*
X165985657Y-43320074D01*
X165985657Y-43320074D02*
X165985657Y-43091503D01*
X166271371Y-44034360D02*
X165985657Y-43834360D01*
X166271371Y-43691503D02*
X165671371Y-43691503D01*
X165671371Y-43691503D02*
X165671371Y-43920074D01*
X165671371Y-43920074D02*
X165699942Y-43977217D01*
X165699942Y-43977217D02*
X165728514Y-44005788D01*
X165728514Y-44005788D02*
X165785657Y-44034360D01*
X165785657Y-44034360D02*
X165871371Y-44034360D01*
X165871371Y-44034360D02*
X165928514Y-44005788D01*
X165928514Y-44005788D02*
X165957085Y-43977217D01*
X165957085Y-43977217D02*
X165985657Y-43920074D01*
X165985657Y-43920074D02*
X165985657Y-43691503D01*
X166328514Y-44148646D02*
X166328514Y-44605788D01*
X166271371Y-45034360D02*
X166271371Y-44748646D01*
X166271371Y-44748646D02*
X165671371Y-44748646D01*
X165957085Y-45234360D02*
X165957085Y-45434360D01*
X166271371Y-45520074D02*
X166271371Y-45234360D01*
X166271371Y-45234360D02*
X165671371Y-45234360D01*
X165671371Y-45234360D02*
X165671371Y-45520074D01*
X166271371Y-45777217D02*
X165671371Y-45777217D01*
X165671371Y-45777217D02*
X165671371Y-45920074D01*
X165671371Y-45920074D02*
X165699942Y-46005788D01*
X165699942Y-46005788D02*
X165757085Y-46062931D01*
X165757085Y-46062931D02*
X165814228Y-46091502D01*
X165814228Y-46091502D02*
X165928514Y-46120074D01*
X165928514Y-46120074D02*
X166014228Y-46120074D01*
X166014228Y-46120074D02*
X166128514Y-46091502D01*
X166128514Y-46091502D02*
X166185657Y-46062931D01*
X166185657Y-46062931D02*
X166242800Y-46005788D01*
X166242800Y-46005788D02*
X166271371Y-45920074D01*
X166271371Y-45920074D02*
X166271371Y-45777217D01*
X166328514Y-46234360D02*
X166328514Y-46691502D01*
X165957085Y-46834360D02*
X165957085Y-47034360D01*
X166271371Y-47120074D02*
X166271371Y-46834360D01*
X166271371Y-46834360D02*
X165671371Y-46834360D01*
X165671371Y-46834360D02*
X165671371Y-47120074D01*
X165671371Y-47320074D02*
X166271371Y-47720074D01*
X165671371Y-47720074D02*
X166271371Y-47320074D01*
X165671371Y-47862931D02*
X165671371Y-48205789D01*
X166271371Y-48034360D02*
X165671371Y-48034360D01*
X163921371Y-41742931D02*
X164521371Y-41942931D01*
X164521371Y-41942931D02*
X163921371Y-42142931D01*
X164464228Y-42685789D02*
X164492800Y-42657217D01*
X164492800Y-42657217D02*
X164521371Y-42571503D01*
X164521371Y-42571503D02*
X164521371Y-42514360D01*
X164521371Y-42514360D02*
X164492800Y-42428646D01*
X164492800Y-42428646D02*
X164435657Y-42371503D01*
X164435657Y-42371503D02*
X164378514Y-42342932D01*
X164378514Y-42342932D02*
X164264228Y-42314360D01*
X164264228Y-42314360D02*
X164178514Y-42314360D01*
X164178514Y-42314360D02*
X164064228Y-42342932D01*
X164064228Y-42342932D02*
X164007085Y-42371503D01*
X164007085Y-42371503D02*
X163949942Y-42428646D01*
X163949942Y-42428646D02*
X163921371Y-42514360D01*
X163921371Y-42514360D02*
X163921371Y-42571503D01*
X163921371Y-42571503D02*
X163949942Y-42657217D01*
X163949942Y-42657217D02*
X163978514Y-42685789D01*
X164464228Y-43285789D02*
X164492800Y-43257217D01*
X164492800Y-43257217D02*
X164521371Y-43171503D01*
X164521371Y-43171503D02*
X164521371Y-43114360D01*
X164521371Y-43114360D02*
X164492800Y-43028646D01*
X164492800Y-43028646D02*
X164435657Y-42971503D01*
X164435657Y-42971503D02*
X164378514Y-42942932D01*
X164378514Y-42942932D02*
X164264228Y-42914360D01*
X164264228Y-42914360D02*
X164178514Y-42914360D01*
X164178514Y-42914360D02*
X164064228Y-42942932D01*
X164064228Y-42942932D02*
X164007085Y-42971503D01*
X164007085Y-42971503D02*
X163949942Y-43028646D01*
X163949942Y-43028646D02*
X163921371Y-43114360D01*
X163921371Y-43114360D02*
X163921371Y-43171503D01*
X163921371Y-43171503D02*
X163949942Y-43257217D01*
X163949942Y-43257217D02*
X163978514Y-43285789D01*
X176771371Y-44368646D02*
X176171371Y-44368646D01*
X176171371Y-44368646D02*
X176171371Y-44511503D01*
X176171371Y-44511503D02*
X176199942Y-44597217D01*
X176199942Y-44597217D02*
X176257085Y-44654360D01*
X176257085Y-44654360D02*
X176314228Y-44682931D01*
X176314228Y-44682931D02*
X176428514Y-44711503D01*
X176428514Y-44711503D02*
X176514228Y-44711503D01*
X176514228Y-44711503D02*
X176628514Y-44682931D01*
X176628514Y-44682931D02*
X176685657Y-44654360D01*
X176685657Y-44654360D02*
X176742800Y-44597217D01*
X176742800Y-44597217D02*
X176771371Y-44511503D01*
X176771371Y-44511503D02*
X176771371Y-44368646D01*
X176771371Y-44968646D02*
X176171371Y-44968646D01*
X176742800Y-45225788D02*
X176771371Y-45311503D01*
X176771371Y-45311503D02*
X176771371Y-45454360D01*
X176771371Y-45454360D02*
X176742800Y-45511503D01*
X176742800Y-45511503D02*
X176714228Y-45540074D01*
X176714228Y-45540074D02*
X176657085Y-45568645D01*
X176657085Y-45568645D02*
X176599942Y-45568645D01*
X176599942Y-45568645D02*
X176542800Y-45540074D01*
X176542800Y-45540074D02*
X176514228Y-45511503D01*
X176514228Y-45511503D02*
X176485657Y-45454360D01*
X176485657Y-45454360D02*
X176457085Y-45340074D01*
X176457085Y-45340074D02*
X176428514Y-45282931D01*
X176428514Y-45282931D02*
X176399942Y-45254360D01*
X176399942Y-45254360D02*
X176342800Y-45225788D01*
X176342800Y-45225788D02*
X176285657Y-45225788D01*
X176285657Y-45225788D02*
X176228514Y-45254360D01*
X176228514Y-45254360D02*
X176199942Y-45282931D01*
X176199942Y-45282931D02*
X176171371Y-45340074D01*
X176171371Y-45340074D02*
X176171371Y-45482931D01*
X176171371Y-45482931D02*
X176199942Y-45568645D01*
X176771371Y-45825789D02*
X176171371Y-45825789D01*
X176171371Y-45825789D02*
X176171371Y-46054360D01*
X176171371Y-46054360D02*
X176199942Y-46111503D01*
X176199942Y-46111503D02*
X176228514Y-46140074D01*
X176228514Y-46140074D02*
X176285657Y-46168646D01*
X176285657Y-46168646D02*
X176371371Y-46168646D01*
X176371371Y-46168646D02*
X176428514Y-46140074D01*
X176428514Y-46140074D02*
X176457085Y-46111503D01*
X176457085Y-46111503D02*
X176485657Y-46054360D01*
X176485657Y-46054360D02*
X176485657Y-45825789D01*
X176828514Y-46282932D02*
X176828514Y-46740074D01*
X176742800Y-46854360D02*
X176771371Y-46940075D01*
X176771371Y-46940075D02*
X176771371Y-47082932D01*
X176771371Y-47082932D02*
X176742800Y-47140075D01*
X176742800Y-47140075D02*
X176714228Y-47168646D01*
X176714228Y-47168646D02*
X176657085Y-47197217D01*
X176657085Y-47197217D02*
X176599942Y-47197217D01*
X176599942Y-47197217D02*
X176542800Y-47168646D01*
X176542800Y-47168646D02*
X176514228Y-47140075D01*
X176514228Y-47140075D02*
X176485657Y-47082932D01*
X176485657Y-47082932D02*
X176457085Y-46968646D01*
X176457085Y-46968646D02*
X176428514Y-46911503D01*
X176428514Y-46911503D02*
X176399942Y-46882932D01*
X176399942Y-46882932D02*
X176342800Y-46854360D01*
X176342800Y-46854360D02*
X176285657Y-46854360D01*
X176285657Y-46854360D02*
X176228514Y-46882932D01*
X176228514Y-46882932D02*
X176199942Y-46911503D01*
X176199942Y-46911503D02*
X176171371Y-46968646D01*
X176171371Y-46968646D02*
X176171371Y-47111503D01*
X176171371Y-47111503D02*
X176199942Y-47197217D01*
X176714228Y-47797218D02*
X176742800Y-47768646D01*
X176742800Y-47768646D02*
X176771371Y-47682932D01*
X176771371Y-47682932D02*
X176771371Y-47625789D01*
X176771371Y-47625789D02*
X176742800Y-47540075D01*
X176742800Y-47540075D02*
X176685657Y-47482932D01*
X176685657Y-47482932D02*
X176628514Y-47454361D01*
X176628514Y-47454361D02*
X176514228Y-47425789D01*
X176514228Y-47425789D02*
X176428514Y-47425789D01*
X176428514Y-47425789D02*
X176314228Y-47454361D01*
X176314228Y-47454361D02*
X176257085Y-47482932D01*
X176257085Y-47482932D02*
X176199942Y-47540075D01*
X176199942Y-47540075D02*
X176171371Y-47625789D01*
X176171371Y-47625789D02*
X176171371Y-47682932D01*
X176171371Y-47682932D02*
X176199942Y-47768646D01*
X176199942Y-47768646D02*
X176228514Y-47797218D01*
X176771371Y-48340075D02*
X176771371Y-48054361D01*
X176771371Y-48054361D02*
X176171371Y-48054361D01*
X169771371Y-43048646D02*
X169171371Y-43048646D01*
X169171371Y-43048646D02*
X169171371Y-43191503D01*
X169171371Y-43191503D02*
X169199942Y-43277217D01*
X169199942Y-43277217D02*
X169257085Y-43334360D01*
X169257085Y-43334360D02*
X169314228Y-43362931D01*
X169314228Y-43362931D02*
X169428514Y-43391503D01*
X169428514Y-43391503D02*
X169514228Y-43391503D01*
X169514228Y-43391503D02*
X169628514Y-43362931D01*
X169628514Y-43362931D02*
X169685657Y-43334360D01*
X169685657Y-43334360D02*
X169742800Y-43277217D01*
X169742800Y-43277217D02*
X169771371Y-43191503D01*
X169771371Y-43191503D02*
X169771371Y-43048646D01*
X169457085Y-43648646D02*
X169457085Y-43848646D01*
X169771371Y-43934360D02*
X169771371Y-43648646D01*
X169771371Y-43648646D02*
X169171371Y-43648646D01*
X169171371Y-43648646D02*
X169171371Y-43934360D01*
X169457085Y-44391503D02*
X169457085Y-44191503D01*
X169771371Y-44191503D02*
X169171371Y-44191503D01*
X169171371Y-44191503D02*
X169171371Y-44477217D01*
X169599942Y-44677217D02*
X169599942Y-44962932D01*
X169771371Y-44620074D02*
X169171371Y-44820074D01*
X169171371Y-44820074D02*
X169771371Y-45020074D01*
X169171371Y-45220075D02*
X169657085Y-45220075D01*
X169657085Y-45220075D02*
X169714228Y-45248646D01*
X169714228Y-45248646D02*
X169742800Y-45277218D01*
X169742800Y-45277218D02*
X169771371Y-45334360D01*
X169771371Y-45334360D02*
X169771371Y-45448646D01*
X169771371Y-45448646D02*
X169742800Y-45505789D01*
X169742800Y-45505789D02*
X169714228Y-45534360D01*
X169714228Y-45534360D02*
X169657085Y-45562932D01*
X169657085Y-45562932D02*
X169171371Y-45562932D01*
X169771371Y-46134360D02*
X169771371Y-45848646D01*
X169771371Y-45848646D02*
X169171371Y-45848646D01*
X169171371Y-46248645D02*
X169171371Y-46591503D01*
X169771371Y-46420074D02*
X169171371Y-46420074D01*
X169828514Y-46648646D02*
X169828514Y-47105788D01*
X169742800Y-47220074D02*
X169771371Y-47305789D01*
X169771371Y-47305789D02*
X169771371Y-47448646D01*
X169771371Y-47448646D02*
X169742800Y-47505789D01*
X169742800Y-47505789D02*
X169714228Y-47534360D01*
X169714228Y-47534360D02*
X169657085Y-47562931D01*
X169657085Y-47562931D02*
X169599942Y-47562931D01*
X169599942Y-47562931D02*
X169542800Y-47534360D01*
X169542800Y-47534360D02*
X169514228Y-47505789D01*
X169514228Y-47505789D02*
X169485657Y-47448646D01*
X169485657Y-47448646D02*
X169457085Y-47334360D01*
X169457085Y-47334360D02*
X169428514Y-47277217D01*
X169428514Y-47277217D02*
X169399942Y-47248646D01*
X169399942Y-47248646D02*
X169342800Y-47220074D01*
X169342800Y-47220074D02*
X169285657Y-47220074D01*
X169285657Y-47220074D02*
X169228514Y-47248646D01*
X169228514Y-47248646D02*
X169199942Y-47277217D01*
X169199942Y-47277217D02*
X169171371Y-47334360D01*
X169171371Y-47334360D02*
X169171371Y-47477217D01*
X169171371Y-47477217D02*
X169199942Y-47562931D01*
X169171371Y-47762932D02*
X169771371Y-47905789D01*
X169771371Y-47905789D02*
X169342800Y-48020075D01*
X169342800Y-48020075D02*
X169771371Y-48134360D01*
X169771371Y-48134360D02*
X169171371Y-48277218D01*
X168591353Y-71257085D02*
X168505639Y-71285657D01*
X168505639Y-71285657D02*
X168477068Y-71314228D01*
X168477068Y-71314228D02*
X168448496Y-71371371D01*
X168448496Y-71371371D02*
X168448496Y-71457085D01*
X168448496Y-71457085D02*
X168477068Y-71514228D01*
X168477068Y-71514228D02*
X168505639Y-71542800D01*
X168505639Y-71542800D02*
X168562782Y-71571371D01*
X168562782Y-71571371D02*
X168791353Y-71571371D01*
X168791353Y-71571371D02*
X168791353Y-70971371D01*
X168791353Y-70971371D02*
X168591353Y-70971371D01*
X168591353Y-70971371D02*
X168534211Y-70999942D01*
X168534211Y-70999942D02*
X168505639Y-71028514D01*
X168505639Y-71028514D02*
X168477068Y-71085657D01*
X168477068Y-71085657D02*
X168477068Y-71142800D01*
X168477068Y-71142800D02*
X168505639Y-71199942D01*
X168505639Y-71199942D02*
X168534211Y-71228514D01*
X168534211Y-71228514D02*
X168591353Y-71257085D01*
X168591353Y-71257085D02*
X168791353Y-71257085D01*
X168191353Y-70971371D02*
X168191353Y-71457085D01*
X168191353Y-71457085D02*
X168162782Y-71514228D01*
X168162782Y-71514228D02*
X168134211Y-71542800D01*
X168134211Y-71542800D02*
X168077068Y-71571371D01*
X168077068Y-71571371D02*
X167962782Y-71571371D01*
X167962782Y-71571371D02*
X167905639Y-71542800D01*
X167905639Y-71542800D02*
X167877068Y-71514228D01*
X167877068Y-71514228D02*
X167848496Y-71457085D01*
X167848496Y-71457085D02*
X167848496Y-70971371D01*
X167591354Y-71542800D02*
X167505640Y-71571371D01*
X167505640Y-71571371D02*
X167362782Y-71571371D01*
X167362782Y-71571371D02*
X167305640Y-71542800D01*
X167305640Y-71542800D02*
X167277068Y-71514228D01*
X167277068Y-71514228D02*
X167248497Y-71457085D01*
X167248497Y-71457085D02*
X167248497Y-71399942D01*
X167248497Y-71399942D02*
X167277068Y-71342800D01*
X167277068Y-71342800D02*
X167305640Y-71314228D01*
X167305640Y-71314228D02*
X167362782Y-71285657D01*
X167362782Y-71285657D02*
X167477068Y-71257085D01*
X167477068Y-71257085D02*
X167534211Y-71228514D01*
X167534211Y-71228514D02*
X167562782Y-71199942D01*
X167562782Y-71199942D02*
X167591354Y-71142800D01*
X167591354Y-71142800D02*
X167591354Y-71085657D01*
X167591354Y-71085657D02*
X167562782Y-71028514D01*
X167562782Y-71028514D02*
X167534211Y-70999942D01*
X167534211Y-70999942D02*
X167477068Y-70971371D01*
X167477068Y-70971371D02*
X167334211Y-70971371D01*
X167334211Y-70971371D02*
X167248497Y-70999942D01*
X166562782Y-71028514D02*
X166534210Y-70999942D01*
X166534210Y-70999942D02*
X166477068Y-70971371D01*
X166477068Y-70971371D02*
X166334210Y-70971371D01*
X166334210Y-70971371D02*
X166277068Y-70999942D01*
X166277068Y-70999942D02*
X166248496Y-71028514D01*
X166248496Y-71028514D02*
X166219925Y-71085657D01*
X166219925Y-71085657D02*
X166219925Y-71142800D01*
X166219925Y-71142800D02*
X166248496Y-71228514D01*
X166248496Y-71228514D02*
X166591353Y-71571371D01*
X166591353Y-71571371D02*
X166219925Y-71571371D01*
X168591353Y-74757085D02*
X168505639Y-74785657D01*
X168505639Y-74785657D02*
X168477068Y-74814228D01*
X168477068Y-74814228D02*
X168448496Y-74871371D01*
X168448496Y-74871371D02*
X168448496Y-74957085D01*
X168448496Y-74957085D02*
X168477068Y-75014228D01*
X168477068Y-75014228D02*
X168505639Y-75042800D01*
X168505639Y-75042800D02*
X168562782Y-75071371D01*
X168562782Y-75071371D02*
X168791353Y-75071371D01*
X168791353Y-75071371D02*
X168791353Y-74471371D01*
X168791353Y-74471371D02*
X168591353Y-74471371D01*
X168591353Y-74471371D02*
X168534211Y-74499942D01*
X168534211Y-74499942D02*
X168505639Y-74528514D01*
X168505639Y-74528514D02*
X168477068Y-74585657D01*
X168477068Y-74585657D02*
X168477068Y-74642800D01*
X168477068Y-74642800D02*
X168505639Y-74699942D01*
X168505639Y-74699942D02*
X168534211Y-74728514D01*
X168534211Y-74728514D02*
X168591353Y-74757085D01*
X168591353Y-74757085D02*
X168791353Y-74757085D01*
X168191353Y-74471371D02*
X168191353Y-74957085D01*
X168191353Y-74957085D02*
X168162782Y-75014228D01*
X168162782Y-75014228D02*
X168134211Y-75042800D01*
X168134211Y-75042800D02*
X168077068Y-75071371D01*
X168077068Y-75071371D02*
X167962782Y-75071371D01*
X167962782Y-75071371D02*
X167905639Y-75042800D01*
X167905639Y-75042800D02*
X167877068Y-75014228D01*
X167877068Y-75014228D02*
X167848496Y-74957085D01*
X167848496Y-74957085D02*
X167848496Y-74471371D01*
X167591354Y-75042800D02*
X167505640Y-75071371D01*
X167505640Y-75071371D02*
X167362782Y-75071371D01*
X167362782Y-75071371D02*
X167305640Y-75042800D01*
X167305640Y-75042800D02*
X167277068Y-75014228D01*
X167277068Y-75014228D02*
X167248497Y-74957085D01*
X167248497Y-74957085D02*
X167248497Y-74899942D01*
X167248497Y-74899942D02*
X167277068Y-74842800D01*
X167277068Y-74842800D02*
X167305640Y-74814228D01*
X167305640Y-74814228D02*
X167362782Y-74785657D01*
X167362782Y-74785657D02*
X167477068Y-74757085D01*
X167477068Y-74757085D02*
X167534211Y-74728514D01*
X167534211Y-74728514D02*
X167562782Y-74699942D01*
X167562782Y-74699942D02*
X167591354Y-74642800D01*
X167591354Y-74642800D02*
X167591354Y-74585657D01*
X167591354Y-74585657D02*
X167562782Y-74528514D01*
X167562782Y-74528514D02*
X167534211Y-74499942D01*
X167534211Y-74499942D02*
X167477068Y-74471371D01*
X167477068Y-74471371D02*
X167334211Y-74471371D01*
X167334211Y-74471371D02*
X167248497Y-74499942D01*
X166419925Y-74471371D02*
X166362782Y-74471371D01*
X166362782Y-74471371D02*
X166305639Y-74499942D01*
X166305639Y-74499942D02*
X166277068Y-74528514D01*
X166277068Y-74528514D02*
X166248496Y-74585657D01*
X166248496Y-74585657D02*
X166219925Y-74699942D01*
X166219925Y-74699942D02*
X166219925Y-74842800D01*
X166219925Y-74842800D02*
X166248496Y-74957085D01*
X166248496Y-74957085D02*
X166277068Y-75014228D01*
X166277068Y-75014228D02*
X166305639Y-75042800D01*
X166305639Y-75042800D02*
X166362782Y-75071371D01*
X166362782Y-75071371D02*
X166419925Y-75071371D01*
X166419925Y-75071371D02*
X166477068Y-75042800D01*
X166477068Y-75042800D02*
X166505639Y-75014228D01*
X166505639Y-75014228D02*
X166534210Y-74957085D01*
X166534210Y-74957085D02*
X166562782Y-74842800D01*
X166562782Y-74842800D02*
X166562782Y-74699942D01*
X166562782Y-74699942D02*
X166534210Y-74585657D01*
X166534210Y-74585657D02*
X166505639Y-74528514D01*
X166505639Y-74528514D02*
X166477068Y-74499942D01*
X166477068Y-74499942D02*
X166419925Y-74471371D01*
X172977068Y-72749942D02*
X173034211Y-72721371D01*
X173034211Y-72721371D02*
X173119925Y-72721371D01*
X173119925Y-72721371D02*
X173205639Y-72749942D01*
X173205639Y-72749942D02*
X173262782Y-72807085D01*
X173262782Y-72807085D02*
X173291353Y-72864228D01*
X173291353Y-72864228D02*
X173319925Y-72978514D01*
X173319925Y-72978514D02*
X173319925Y-73064228D01*
X173319925Y-73064228D02*
X173291353Y-73178514D01*
X173291353Y-73178514D02*
X173262782Y-73235657D01*
X173262782Y-73235657D02*
X173205639Y-73292800D01*
X173205639Y-73292800D02*
X173119925Y-73321371D01*
X173119925Y-73321371D02*
X173062782Y-73321371D01*
X173062782Y-73321371D02*
X172977068Y-73292800D01*
X172977068Y-73292800D02*
X172948496Y-73264228D01*
X172948496Y-73264228D02*
X172948496Y-73064228D01*
X172948496Y-73064228D02*
X173062782Y-73064228D01*
X172691353Y-73321371D02*
X172691353Y-72721371D01*
X172691353Y-72721371D02*
X172348496Y-73321371D01*
X172348496Y-73321371D02*
X172348496Y-72721371D01*
X172062782Y-73321371D02*
X172062782Y-72721371D01*
X172062782Y-72721371D02*
X171919925Y-72721371D01*
X171919925Y-72721371D02*
X171834211Y-72749942D01*
X171834211Y-72749942D02*
X171777068Y-72807085D01*
X171777068Y-72807085D02*
X171748497Y-72864228D01*
X171748497Y-72864228D02*
X171719925Y-72978514D01*
X171719925Y-72978514D02*
X171719925Y-73064228D01*
X171719925Y-73064228D02*
X171748497Y-73178514D01*
X171748497Y-73178514D02*
X171777068Y-73235657D01*
X171777068Y-73235657D02*
X171834211Y-73292800D01*
X171834211Y-73292800D02*
X171919925Y-73321371D01*
X171919925Y-73321371D02*
X172062782Y-73321371D01*
D11*
X79760000Y-34500000D02*
X179760000Y-34500000D01*
X179760000Y-84500000D01*
X79760000Y-84500000D01*
X79760000Y-34500000D01*
M02*
