M48
; DRILL file {KiCad 7.0.11-7.0.11~ubuntu20.04.1} date mié 08 abr 2026 14:46:54
; FORMAT={-:-/ absolute / inch / decimal}
; #@! TF.CreationDate,2026-04-08T14:46:54-05:00
; #@! TF.GenerationSoftware,Kicad,Pcbnew,7.0.11-7.0.11~ubuntu20.04.1
; #@! TF.FileFunction,Plated,1,2,PTH
FMAT,2
INCH
; #@! TA.AperFunction,Plated,PTH,ViaDrill
T1C0.0118
; #@! TA.AperFunction,Plated,PTH,ComponentDrill
T2C0.0394
; #@! TA.AperFunction,Plated,PTH,ComponentDrill
T3C0.0472
%
G90
G05
T1
X3.175Y-1.425
X3.175Y-1.575
X3.175Y-1.85
X3.175Y-2.0
X3.175Y-2.3
X3.175Y-2.45
X3.175Y-2.65
X3.175Y-2.775
X3.2338Y-2.9156
X3.25Y-1.85
X3.3Y-1.575
X3.325Y-2.4
X3.325Y-2.725
X3.5Y-1.725
X3.575Y-1.8
X3.575Y-2.65
X3.6Y-2.425
X3.75Y-1.85
X3.9519Y-1.5419
X3.975Y-1.5
X3.975Y-1.8
X4.0Y-2.375
X4.0646Y-2.6572
X4.1Y-1.775
X4.125Y-2.65
X4.175Y-1.95
X4.1927Y-2.6823
X4.275Y-1.625
X4.3677Y-1.9336
X4.3779Y-1.3971
X4.425Y-3.025
X4.4329Y-1.9335
X4.45Y-1.575
X4.4958Y-1.7394
X4.5Y-1.5
X4.575Y-2.275
X4.65Y-1.6
X4.75Y-1.775
X4.75Y-3.025
X4.825Y-1.75
X4.975Y-1.3898
X5.025Y-1.775
X5.025Y-3.025
X5.075Y-2.6
X5.4425Y-1.8759
X5.5Y-1.975
X5.5Y-2.2
X5.5Y-2.425
X5.625Y-2.05
X5.65Y-2.35
X5.775Y-1.4
X5.7955Y-2.6909
X5.8Y-2.8411
X5.8Y-3.05
X5.825Y-2.05
X5.8759Y-2.8394
X5.8846Y-2.9508
X5.9Y-2.7245
X6.05Y-1.4
X6.075Y-2.05
X6.075Y-2.2
X6.075Y-2.45
X6.076Y-2.7084
X6.092Y-2.9134
X6.1Y-3.009
X6.1224Y-2.9617
X6.125Y-2.425
X6.15Y-2.7
X6.1508Y-2.9
X6.175Y-3.05
X6.2Y-2.6
X6.225Y-1.975
X6.225Y-2.275
X6.35Y-1.4
X6.375Y-3.05
X6.575Y-2.425
X6.675Y-2.275
X6.8Y-3.05
X7.025Y-1.4
X7.025Y-1.825
X7.025Y-2.275
X7.025Y-2.425
X7.025Y-3.05
T2
X3.275Y-1.4276
X3.275Y-2.0276
X3.275Y-2.225
X3.275Y-2.825
X3.375Y-1.4276
X3.375Y-2.0276
X3.375Y-2.225
X3.375Y-2.825
X3.475Y-1.4276
X3.475Y-2.0276
X3.475Y-2.225
X3.475Y-2.825
X3.575Y-1.4276
X3.575Y-2.0276
X3.575Y-2.225
X3.575Y-2.825
X3.675Y-1.4276
X3.675Y-2.0276
X3.675Y-2.225
X3.675Y-2.825
X3.775Y-1.4276
X3.775Y-2.0276
X3.775Y-2.225
X3.775Y-2.825
X3.875Y-1.4276
X3.875Y-2.0276
X3.875Y-2.225
X3.875Y-2.825
X3.975Y-1.4276
X3.975Y-2.0276
X3.975Y-2.225
X3.975Y-2.825
X4.075Y-1.4276
X4.075Y-2.0276
X4.5866Y-2.0354
X4.6866Y-2.0354
X4.7866Y-2.0354
X4.8866Y-2.0354
T3
X6.4594Y-2.6831
X6.4594Y-2.8209
X6.4594Y-2.9587
X6.4803Y-1.5291
X6.5492Y-1.9791
X6.6181Y-1.5291
X6.687Y-1.9791
X6.7559Y-1.5291
X6.8248Y-1.9791
X6.8937Y-1.5291
X6.9094Y-2.6142
X6.9094Y-2.752
X6.9094Y-2.8898
X6.9626Y-1.9791
M30
