%TF.GenerationSoftware,KiCad,Pcbnew,7.0.11-7.0.11~ubuntu20.04.1*%
%TF.CreationDate,2026-04-08T14:46:57-05:00*%
%TF.ProjectId,b05,6230352e-6b69-4636-9164-5f7063625858,rev?*%
%TF.SameCoordinates,Original*%
%TF.FileFunction,Paste,Top*%
%TF.FilePolarity,Positive*%
%FSLAX46Y46*%
G04 Gerber Fmt 4.6, Leading zero omitted, Abs format (unit mm)*
G04 Created by KiCad (PCBNEW 7.0.11-7.0.11~ubuntu20.04.1) date 2026-04-08 14:46:57*
%MOMM*%
%LPD*%
G01*
G04 APERTURE LIST*
G04 Aperture macros list*
%AMRoundRect*
0 Rectangle with rounded corners*
0 $1 Rounding radius*
0 $2 $3 $4 $5 $6 $7 $8 $9 X,Y pos of 4 corners*
0 Add a 4 corners polygon primitive as box body*
4,1,4,$2,$3,$4,$5,$6,$7,$8,$9,$2,$3,0*
0 Add four circle primitives for the rounded corners*
1,1,$1+$1,$2,$3*
1,1,$1+$1,$4,$5*
1,1,$1+$1,$6,$7*
1,1,$1+$1,$8,$9*
0 Add four rect primitives between the rounded corners*
20,1,$1+$1,$2,$3,$4,$5,0*
20,1,$1+$1,$4,$5,$6,$7,0*
20,1,$1+$1,$6,$7,$8,$9,0*
20,1,$1+$1,$8,$9,$2,$3,0*%
G04 Aperture macros list end*
%ADD10RoundRect,0.250000X0.337500X0.475000X-0.337500X0.475000X-0.337500X-0.475000X0.337500X-0.475000X0*%
%ADD11RoundRect,0.250000X0.350000X0.450000X-0.350000X0.450000X-0.350000X-0.450000X0.350000X-0.450000X0*%
%ADD12RoundRect,0.162500X-0.617500X-0.162500X0.617500X-0.162500X0.617500X0.162500X-0.617500X0.162500X0*%
%ADD13RoundRect,0.250000X-0.350000X-0.450000X0.350000X-0.450000X0.350000X0.450000X-0.350000X0.450000X0*%
%ADD14RoundRect,0.250000X-0.325000X-0.450000X0.325000X-0.450000X0.325000X0.450000X-0.325000X0.450000X0*%
%ADD15RoundRect,0.250000X-0.337500X-0.475000X0.337500X-0.475000X0.337500X0.475000X-0.337500X0.475000X0*%
%ADD16RoundRect,0.150000X0.875000X0.150000X-0.875000X0.150000X-0.875000X-0.150000X0.875000X-0.150000X0*%
%ADD17RoundRect,0.250000X0.450000X-0.350000X0.450000X0.350000X-0.450000X0.350000X-0.450000X-0.350000X0*%
%ADD18RoundRect,0.375000X-0.625000X-0.375000X0.625000X-0.375000X0.625000X0.375000X-0.625000X0.375000X0*%
%ADD19RoundRect,0.500000X-0.500000X-1.400000X0.500000X-1.400000X0.500000X1.400000X-0.500000X1.400000X0*%
%ADD20RoundRect,0.250000X-0.450000X0.350000X-0.450000X-0.350000X0.450000X-0.350000X0.450000X0.350000X0*%
%ADD21R,1.300000X1.550000*%
%ADD22RoundRect,0.150000X-0.825000X-0.150000X0.825000X-0.150000X0.825000X0.150000X-0.825000X0.150000X0*%
%ADD23R,1.000000X3.100000*%
%TA.AperFunction,Profile*%
%ADD24C,0.050000*%
%TD*%
G04 APERTURE END LIST*
D10*
%TO.C,C2*%
X153137500Y-69800000D03*
X151062500Y-69800000D03*
%TD*%
D11*
%TO.C,R10*%
X101965000Y-75930000D03*
X99965000Y-75930000D03*
%TD*%
%TO.C,R16*%
X83185000Y-75930000D03*
X81185000Y-75930000D03*
%TD*%
D12*
%TO.C,U2*%
X150750000Y-65950000D03*
X150750000Y-66900000D03*
X150750000Y-67850000D03*
X153450000Y-67850000D03*
X153450000Y-66900000D03*
X153450000Y-65950000D03*
%TD*%
%TO.C,U3*%
X150750000Y-73050000D03*
X150750000Y-74000000D03*
X150750000Y-74950000D03*
X153450000Y-74950000D03*
X153450000Y-74000000D03*
X153450000Y-73050000D03*
%TD*%
D11*
%TO.C,R9*%
X98155000Y-75930000D03*
X96155000Y-75930000D03*
%TD*%
D13*
%TO.C,R3*%
X158500000Y-73660000D03*
X160500000Y-73660000D03*
%TD*%
D10*
%TO.C,C8*%
X114537500Y-35900000D03*
X112462500Y-35900000D03*
%TD*%
D14*
%TO.C,D3*%
X90025000Y-75930000D03*
X92075000Y-75930000D03*
%TD*%
D13*
%TO.C,R15*%
X85630000Y-75930000D03*
X87630000Y-75930000D03*
%TD*%
D10*
%TO.C,C5*%
X131475000Y-46800000D03*
X129400000Y-46800000D03*
%TD*%
D15*
%TO.C,C4*%
X124785000Y-46800000D03*
X126860000Y-46800000D03*
%TD*%
D16*
%TO.C,U1*%
X145350000Y-76645000D03*
X145350000Y-75375000D03*
X145350000Y-74105000D03*
X145350000Y-72835000D03*
X145350000Y-71565000D03*
X145350000Y-70295000D03*
X145350000Y-69025000D03*
X145350000Y-67755000D03*
X136050000Y-67755000D03*
X136050000Y-69025000D03*
X136050000Y-70295000D03*
X136050000Y-71565000D03*
X136050000Y-72835000D03*
X136050000Y-74105000D03*
X136050000Y-75375000D03*
X136050000Y-76645000D03*
%TD*%
D15*
%TO.C,C6*%
X124785000Y-36800000D03*
X126860000Y-36800000D03*
%TD*%
D10*
%TO.C,C9*%
X137737500Y-51000000D03*
X135662500Y-51000000D03*
%TD*%
D13*
%TO.C,R2*%
X158500000Y-76200000D03*
X160500000Y-76200000D03*
%TD*%
D17*
%TO.C,R11*%
X110940000Y-48000000D03*
X110940000Y-46000000D03*
%TD*%
D13*
%TO.C,R5*%
X158500000Y-68580000D03*
X160500000Y-68580000D03*
%TD*%
D10*
%TO.C,C7*%
X131475000Y-36800000D03*
X129400000Y-36800000D03*
%TD*%
D18*
%TO.C,U7*%
X125250000Y-39500000D03*
X125250000Y-41800000D03*
D19*
X131550000Y-41800000D03*
D18*
X125250000Y-44100000D03*
%TD*%
D20*
%TO.C,R1*%
X137160000Y-40640000D03*
X137160000Y-42640000D03*
%TD*%
%TO.C,R6*%
X117200000Y-46000000D03*
X117200000Y-48000000D03*
%TD*%
%TO.C,R7*%
X115100000Y-46000000D03*
X115100000Y-48000000D03*
%TD*%
D21*
%TO.C,SW1*%
X142240000Y-46050000D03*
X142240000Y-38100000D03*
X146740000Y-46050000D03*
X146740000Y-38100000D03*
%TD*%
D22*
%TO.C,U8*%
X111025000Y-37895000D03*
X111025000Y-39165000D03*
X111025000Y-40435000D03*
X111025000Y-41705000D03*
X115975000Y-41705000D03*
X115975000Y-40435000D03*
X115975000Y-39165000D03*
X115975000Y-37895000D03*
%TD*%
D23*
%TO.C,PS1*%
X136525000Y-64240000D03*
X139065000Y-64240000D03*
X144145000Y-64240000D03*
X144145000Y-55140000D03*
X136525000Y-55140000D03*
%TD*%
D13*
%TO.C,R4*%
X158500000Y-71120000D03*
X160500000Y-71120000D03*
%TD*%
D17*
%TO.C,R8*%
X113000000Y-48000000D03*
X113000000Y-46000000D03*
%TD*%
D10*
%TO.C,C3*%
X153137500Y-62500000D03*
X151062500Y-62500000D03*
%TD*%
%TO.C,C1*%
X153137500Y-76900000D03*
X151062500Y-76900000D03*
%TD*%
D24*
X79760000Y-34500000D02*
X179760000Y-34500000D01*
X179760000Y-84500000D01*
X79760000Y-84500000D01*
X79760000Y-34500000D01*
M02*
