%TF.GenerationSoftware,KiCad,Pcbnew,7.0.11-7.0.11~ubuntu20.04.1*%
%TF.CreationDate,2026-04-08T14:46:57-05:00*%
%TF.ProjectId,b05,6230352e-6b69-4636-9164-5f7063625858,rev?*%
%TF.SameCoordinates,Original*%
%TF.FileFunction,Legend,Top*%
%TF.FilePolarity,Positive*%
%FSLAX46Y46*%
G04 Gerber Fmt 4.6, Leading zero omitted, Abs format (unit mm)*
G04 Created by KiCad (PCBNEW 7.0.11-7.0.11~ubuntu20.04.1) date 2026-04-08 14:46:57*
%MOMM*%
%LPD*%
G01*
G04 APERTURE LIST*
%ADD10C,0.100000*%
%ADD11C,0.150000*%
%ADD12C,0.300000*%
%ADD13C,0.120000*%
%TA.AperFunction,Profile*%
%ADD14C,0.050000*%
%TD*%
G04 APERTURE END LIST*
D10*
X79850000Y-78000000D02*
X179670000Y-78000000D01*
X105307085Y-69791353D02*
X105307085Y-69591353D01*
X105621371Y-69505639D02*
X105621371Y-69791353D01*
X105621371Y-69791353D02*
X105021371Y-69791353D01*
X105021371Y-69791353D02*
X105021371Y-69505639D01*
X105592800Y-69277068D02*
X105621371Y-69191354D01*
X105621371Y-69191354D02*
X105621371Y-69048496D01*
X105621371Y-69048496D02*
X105592800Y-68991354D01*
X105592800Y-68991354D02*
X105564228Y-68962782D01*
X105564228Y-68962782D02*
X105507085Y-68934211D01*
X105507085Y-68934211D02*
X105449942Y-68934211D01*
X105449942Y-68934211D02*
X105392800Y-68962782D01*
X105392800Y-68962782D02*
X105364228Y-68991354D01*
X105364228Y-68991354D02*
X105335657Y-69048496D01*
X105335657Y-69048496D02*
X105307085Y-69162782D01*
X105307085Y-69162782D02*
X105278514Y-69219925D01*
X105278514Y-69219925D02*
X105249942Y-69248496D01*
X105249942Y-69248496D02*
X105192800Y-69277068D01*
X105192800Y-69277068D02*
X105135657Y-69277068D01*
X105135657Y-69277068D02*
X105078514Y-69248496D01*
X105078514Y-69248496D02*
X105049942Y-69219925D01*
X105049942Y-69219925D02*
X105021371Y-69162782D01*
X105021371Y-69162782D02*
X105021371Y-69019925D01*
X105021371Y-69019925D02*
X105049942Y-68934211D01*
X105621371Y-68677067D02*
X105021371Y-68677067D01*
X105021371Y-68677067D02*
X105021371Y-68448496D01*
X105021371Y-68448496D02*
X105049942Y-68391353D01*
X105049942Y-68391353D02*
X105078514Y-68362782D01*
X105078514Y-68362782D02*
X105135657Y-68334210D01*
X105135657Y-68334210D02*
X105221371Y-68334210D01*
X105221371Y-68334210D02*
X105278514Y-68362782D01*
X105278514Y-68362782D02*
X105307085Y-68391353D01*
X105307085Y-68391353D02*
X105335657Y-68448496D01*
X105335657Y-68448496D02*
X105335657Y-68677067D01*
X105021371Y-68134210D02*
X105021371Y-67762782D01*
X105021371Y-67762782D02*
X105249942Y-67962782D01*
X105249942Y-67962782D02*
X105249942Y-67877067D01*
X105249942Y-67877067D02*
X105278514Y-67819925D01*
X105278514Y-67819925D02*
X105307085Y-67791353D01*
X105307085Y-67791353D02*
X105364228Y-67762782D01*
X105364228Y-67762782D02*
X105507085Y-67762782D01*
X105507085Y-67762782D02*
X105564228Y-67791353D01*
X105564228Y-67791353D02*
X105592800Y-67819925D01*
X105592800Y-67819925D02*
X105621371Y-67877067D01*
X105621371Y-67877067D02*
X105621371Y-68048496D01*
X105621371Y-68048496D02*
X105592800Y-68105639D01*
X105592800Y-68105639D02*
X105564228Y-68134210D01*
X105078514Y-67534210D02*
X105049942Y-67505638D01*
X105049942Y-67505638D02*
X105021371Y-67448496D01*
X105021371Y-67448496D02*
X105021371Y-67305638D01*
X105021371Y-67305638D02*
X105049942Y-67248496D01*
X105049942Y-67248496D02*
X105078514Y-67219924D01*
X105078514Y-67219924D02*
X105135657Y-67191353D01*
X105135657Y-67191353D02*
X105192800Y-67191353D01*
X105192800Y-67191353D02*
X105278514Y-67219924D01*
X105278514Y-67219924D02*
X105621371Y-67562781D01*
X105621371Y-67562781D02*
X105621371Y-67191353D01*
X105392800Y-66934209D02*
X105392800Y-66477067D01*
X105564228Y-65848495D02*
X105592800Y-65877067D01*
X105592800Y-65877067D02*
X105621371Y-65962781D01*
X105621371Y-65962781D02*
X105621371Y-66019924D01*
X105621371Y-66019924D02*
X105592800Y-66105638D01*
X105592800Y-66105638D02*
X105535657Y-66162781D01*
X105535657Y-66162781D02*
X105478514Y-66191352D01*
X105478514Y-66191352D02*
X105364228Y-66219924D01*
X105364228Y-66219924D02*
X105278514Y-66219924D01*
X105278514Y-66219924D02*
X105164228Y-66191352D01*
X105164228Y-66191352D02*
X105107085Y-66162781D01*
X105107085Y-66162781D02*
X105049942Y-66105638D01*
X105049942Y-66105638D02*
X105021371Y-66019924D01*
X105021371Y-66019924D02*
X105021371Y-65962781D01*
X105021371Y-65962781D02*
X105049942Y-65877067D01*
X105049942Y-65877067D02*
X105078514Y-65848495D01*
X105021371Y-65648495D02*
X105021371Y-65277067D01*
X105021371Y-65277067D02*
X105249942Y-65477067D01*
X105249942Y-65477067D02*
X105249942Y-65391352D01*
X105249942Y-65391352D02*
X105278514Y-65334210D01*
X105278514Y-65334210D02*
X105307085Y-65305638D01*
X105307085Y-65305638D02*
X105364228Y-65277067D01*
X105364228Y-65277067D02*
X105507085Y-65277067D01*
X105507085Y-65277067D02*
X105564228Y-65305638D01*
X105564228Y-65305638D02*
X105592800Y-65334210D01*
X105592800Y-65334210D02*
X105621371Y-65391352D01*
X105621371Y-65391352D02*
X105621371Y-65562781D01*
X105621371Y-65562781D02*
X105592800Y-65619924D01*
X105592800Y-65619924D02*
X105564228Y-65648495D01*
X105392800Y-65019923D02*
X105392800Y-64562781D01*
X105592800Y-64305638D02*
X105621371Y-64219924D01*
X105621371Y-64219924D02*
X105621371Y-64077066D01*
X105621371Y-64077066D02*
X105592800Y-64019924D01*
X105592800Y-64019924D02*
X105564228Y-63991352D01*
X105564228Y-63991352D02*
X105507085Y-63962781D01*
X105507085Y-63962781D02*
X105449942Y-63962781D01*
X105449942Y-63962781D02*
X105392800Y-63991352D01*
X105392800Y-63991352D02*
X105364228Y-64019924D01*
X105364228Y-64019924D02*
X105335657Y-64077066D01*
X105335657Y-64077066D02*
X105307085Y-64191352D01*
X105307085Y-64191352D02*
X105278514Y-64248495D01*
X105278514Y-64248495D02*
X105249942Y-64277066D01*
X105249942Y-64277066D02*
X105192800Y-64305638D01*
X105192800Y-64305638D02*
X105135657Y-64305638D01*
X105135657Y-64305638D02*
X105078514Y-64277066D01*
X105078514Y-64277066D02*
X105049942Y-64248495D01*
X105049942Y-64248495D02*
X105021371Y-64191352D01*
X105021371Y-64191352D02*
X105021371Y-64048495D01*
X105021371Y-64048495D02*
X105049942Y-63962781D01*
X105021371Y-63705637D02*
X105507085Y-63705637D01*
X105507085Y-63705637D02*
X105564228Y-63677066D01*
X105564228Y-63677066D02*
X105592800Y-63648495D01*
X105592800Y-63648495D02*
X105621371Y-63591352D01*
X105621371Y-63591352D02*
X105621371Y-63477066D01*
X105621371Y-63477066D02*
X105592800Y-63419923D01*
X105592800Y-63419923D02*
X105564228Y-63391352D01*
X105564228Y-63391352D02*
X105507085Y-63362780D01*
X105507085Y-63362780D02*
X105021371Y-63362780D01*
X105621371Y-63077066D02*
X105021371Y-63077066D01*
X105021371Y-63077066D02*
X105021371Y-62848495D01*
X105021371Y-62848495D02*
X105049942Y-62791352D01*
X105049942Y-62791352D02*
X105078514Y-62762781D01*
X105078514Y-62762781D02*
X105135657Y-62734209D01*
X105135657Y-62734209D02*
X105221371Y-62734209D01*
X105221371Y-62734209D02*
X105278514Y-62762781D01*
X105278514Y-62762781D02*
X105307085Y-62791352D01*
X105307085Y-62791352D02*
X105335657Y-62848495D01*
X105335657Y-62848495D02*
X105335657Y-63077066D01*
X105307085Y-62477066D02*
X105307085Y-62277066D01*
X105621371Y-62191352D02*
X105621371Y-62477066D01*
X105621371Y-62477066D02*
X105021371Y-62477066D01*
X105021371Y-62477066D02*
X105021371Y-62191352D01*
X105621371Y-61591352D02*
X105335657Y-61791352D01*
X105621371Y-61934209D02*
X105021371Y-61934209D01*
X105021371Y-61934209D02*
X105021371Y-61705638D01*
X105021371Y-61705638D02*
X105049942Y-61648495D01*
X105049942Y-61648495D02*
X105078514Y-61619924D01*
X105078514Y-61619924D02*
X105135657Y-61591352D01*
X105135657Y-61591352D02*
X105221371Y-61591352D01*
X105221371Y-61591352D02*
X105278514Y-61619924D01*
X105278514Y-61619924D02*
X105307085Y-61648495D01*
X105307085Y-61648495D02*
X105335657Y-61705638D01*
X105335657Y-61705638D02*
X105335657Y-61934209D01*
X105621371Y-61334209D02*
X105021371Y-61334209D01*
X105021371Y-61334209D02*
X105449942Y-61134209D01*
X105449942Y-61134209D02*
X105021371Y-60934209D01*
X105021371Y-60934209D02*
X105621371Y-60934209D01*
X105621371Y-60648495D02*
X105021371Y-60648495D01*
X105621371Y-60362781D02*
X105021371Y-60362781D01*
X105021371Y-60362781D02*
X105621371Y-60019924D01*
X105621371Y-60019924D02*
X105021371Y-60019924D01*
X105621371Y-59734210D02*
X105021371Y-59734210D01*
D11*
X168132017Y-64239866D02*
X168065350Y-64206533D01*
X168065350Y-64206533D02*
X167965350Y-64206533D01*
X167965350Y-64206533D02*
X167865350Y-64239866D01*
X167865350Y-64239866D02*
X167798684Y-64306533D01*
X167798684Y-64306533D02*
X167765350Y-64373200D01*
X167765350Y-64373200D02*
X167732017Y-64506533D01*
X167732017Y-64506533D02*
X167732017Y-64606533D01*
X167732017Y-64606533D02*
X167765350Y-64739866D01*
X167765350Y-64739866D02*
X167798684Y-64806533D01*
X167798684Y-64806533D02*
X167865350Y-64873200D01*
X167865350Y-64873200D02*
X167965350Y-64906533D01*
X167965350Y-64906533D02*
X168032017Y-64906533D01*
X168032017Y-64906533D02*
X168132017Y-64873200D01*
X168132017Y-64873200D02*
X168165350Y-64839866D01*
X168165350Y-64839866D02*
X168165350Y-64606533D01*
X168165350Y-64606533D02*
X168032017Y-64606533D01*
X168465350Y-64906533D02*
X168465350Y-64206533D01*
X168465350Y-64206533D02*
X168865350Y-64906533D01*
X168865350Y-64906533D02*
X168865350Y-64206533D01*
X169198683Y-64906533D02*
X169198683Y-64206533D01*
X169198683Y-64206533D02*
X169365350Y-64206533D01*
X169365350Y-64206533D02*
X169465350Y-64239866D01*
X169465350Y-64239866D02*
X169532017Y-64306533D01*
X169532017Y-64306533D02*
X169565350Y-64373200D01*
X169565350Y-64373200D02*
X169598683Y-64506533D01*
X169598683Y-64506533D02*
X169598683Y-64606533D01*
X169598683Y-64606533D02*
X169565350Y-64739866D01*
X169565350Y-64739866D02*
X169532017Y-64806533D01*
X169532017Y-64806533D02*
X169465350Y-64873200D01*
X169465350Y-64873200D02*
X169365350Y-64906533D01*
X169365350Y-64906533D02*
X169198683Y-64906533D01*
D10*
X108221371Y-46448496D02*
X107935657Y-46648496D01*
X108221371Y-46791353D02*
X107621371Y-46791353D01*
X107621371Y-46791353D02*
X107621371Y-46562782D01*
X107621371Y-46562782D02*
X107649942Y-46505639D01*
X107649942Y-46505639D02*
X107678514Y-46477068D01*
X107678514Y-46477068D02*
X107735657Y-46448496D01*
X107735657Y-46448496D02*
X107821371Y-46448496D01*
X107821371Y-46448496D02*
X107878514Y-46477068D01*
X107878514Y-46477068D02*
X107907085Y-46505639D01*
X107907085Y-46505639D02*
X107935657Y-46562782D01*
X107935657Y-46562782D02*
X107935657Y-46791353D01*
X108221371Y-46191353D02*
X107621371Y-46191353D01*
X107621371Y-46191353D02*
X107621371Y-45962782D01*
X107621371Y-45962782D02*
X107649942Y-45905639D01*
X107649942Y-45905639D02*
X107678514Y-45877068D01*
X107678514Y-45877068D02*
X107735657Y-45848496D01*
X107735657Y-45848496D02*
X107821371Y-45848496D01*
X107821371Y-45848496D02*
X107878514Y-45877068D01*
X107878514Y-45877068D02*
X107907085Y-45905639D01*
X107907085Y-45905639D02*
X107935657Y-45962782D01*
X107935657Y-45962782D02*
X107935657Y-46191353D01*
X107678514Y-45619925D02*
X107649942Y-45591353D01*
X107649942Y-45591353D02*
X107621371Y-45534211D01*
X107621371Y-45534211D02*
X107621371Y-45391353D01*
X107621371Y-45391353D02*
X107649942Y-45334211D01*
X107649942Y-45334211D02*
X107678514Y-45305639D01*
X107678514Y-45305639D02*
X107735657Y-45277068D01*
X107735657Y-45277068D02*
X107792800Y-45277068D01*
X107792800Y-45277068D02*
X107878514Y-45305639D01*
X107878514Y-45305639D02*
X108221371Y-45648496D01*
X108221371Y-45648496D02*
X108221371Y-45277068D01*
X107621371Y-44905639D02*
X107621371Y-44848496D01*
X107621371Y-44848496D02*
X107649942Y-44791353D01*
X107649942Y-44791353D02*
X107678514Y-44762782D01*
X107678514Y-44762782D02*
X107735657Y-44734210D01*
X107735657Y-44734210D02*
X107849942Y-44705639D01*
X107849942Y-44705639D02*
X107992800Y-44705639D01*
X107992800Y-44705639D02*
X108107085Y-44734210D01*
X108107085Y-44734210D02*
X108164228Y-44762782D01*
X108164228Y-44762782D02*
X108192800Y-44791353D01*
X108192800Y-44791353D02*
X108221371Y-44848496D01*
X108221371Y-44848496D02*
X108221371Y-44905639D01*
X108221371Y-44905639D02*
X108192800Y-44962782D01*
X108192800Y-44962782D02*
X108164228Y-44991353D01*
X108164228Y-44991353D02*
X108107085Y-45019924D01*
X108107085Y-45019924D02*
X107992800Y-45048496D01*
X107992800Y-45048496D02*
X107849942Y-45048496D01*
X107849942Y-45048496D02*
X107735657Y-45019924D01*
X107735657Y-45019924D02*
X107678514Y-44991353D01*
X107678514Y-44991353D02*
X107649942Y-44962782D01*
X107649942Y-44962782D02*
X107621371Y-44905639D01*
X107821371Y-44191353D02*
X108221371Y-44191353D01*
X107592800Y-44334210D02*
X108021371Y-44477067D01*
X108021371Y-44477067D02*
X108021371Y-44105638D01*
X107621371Y-43762781D02*
X107621371Y-43705638D01*
X107621371Y-43705638D02*
X107649942Y-43648495D01*
X107649942Y-43648495D02*
X107678514Y-43619924D01*
X107678514Y-43619924D02*
X107735657Y-43591352D01*
X107735657Y-43591352D02*
X107849942Y-43562781D01*
X107849942Y-43562781D02*
X107992800Y-43562781D01*
X107992800Y-43562781D02*
X108107085Y-43591352D01*
X108107085Y-43591352D02*
X108164228Y-43619924D01*
X108164228Y-43619924D02*
X108192800Y-43648495D01*
X108192800Y-43648495D02*
X108221371Y-43705638D01*
X108221371Y-43705638D02*
X108221371Y-43762781D01*
X108221371Y-43762781D02*
X108192800Y-43819924D01*
X108192800Y-43819924D02*
X108164228Y-43848495D01*
X108164228Y-43848495D02*
X108107085Y-43877066D01*
X108107085Y-43877066D02*
X107992800Y-43905638D01*
X107992800Y-43905638D02*
X107849942Y-43905638D01*
X107849942Y-43905638D02*
X107735657Y-43877066D01*
X107735657Y-43877066D02*
X107678514Y-43848495D01*
X107678514Y-43848495D02*
X107649942Y-43819924D01*
X107649942Y-43819924D02*
X107621371Y-43762781D01*
X107992800Y-43305637D02*
X107992800Y-42848495D01*
X107621371Y-42619923D02*
X107621371Y-42219923D01*
X107621371Y-42219923D02*
X108221371Y-42619923D01*
X108221371Y-42619923D02*
X108221371Y-42219923D01*
X107907085Y-41991351D02*
X107907085Y-41791351D01*
X108221371Y-41705637D02*
X108221371Y-41991351D01*
X108221371Y-41991351D02*
X107621371Y-41991351D01*
X107621371Y-41991351D02*
X107621371Y-41705637D01*
X108221371Y-41105637D02*
X107935657Y-41305637D01*
X108221371Y-41448494D02*
X107621371Y-41448494D01*
X107621371Y-41448494D02*
X107621371Y-41219923D01*
X107621371Y-41219923D02*
X107649942Y-41162780D01*
X107649942Y-41162780D02*
X107678514Y-41134209D01*
X107678514Y-41134209D02*
X107735657Y-41105637D01*
X107735657Y-41105637D02*
X107821371Y-41105637D01*
X107821371Y-41105637D02*
X107878514Y-41134209D01*
X107878514Y-41134209D02*
X107907085Y-41162780D01*
X107907085Y-41162780D02*
X107935657Y-41219923D01*
X107935657Y-41219923D02*
X107935657Y-41448494D01*
X107621371Y-40734209D02*
X107621371Y-40619923D01*
X107621371Y-40619923D02*
X107649942Y-40562780D01*
X107649942Y-40562780D02*
X107707085Y-40505637D01*
X107707085Y-40505637D02*
X107821371Y-40477066D01*
X107821371Y-40477066D02*
X108021371Y-40477066D01*
X108021371Y-40477066D02*
X108135657Y-40505637D01*
X108135657Y-40505637D02*
X108192800Y-40562780D01*
X108192800Y-40562780D02*
X108221371Y-40619923D01*
X108221371Y-40619923D02*
X108221371Y-40734209D01*
X108221371Y-40734209D02*
X108192800Y-40791352D01*
X108192800Y-40791352D02*
X108135657Y-40848494D01*
X108135657Y-40848494D02*
X108021371Y-40877066D01*
X108021371Y-40877066D02*
X107821371Y-40877066D01*
X107821371Y-40877066D02*
X107707085Y-40848494D01*
X107707085Y-40848494D02*
X107649942Y-40791352D01*
X107649942Y-40791352D02*
X107621371Y-40734209D01*
X118137455Y-49009133D02*
X118370789Y-49709133D01*
X118370789Y-49709133D02*
X118604122Y-49009133D01*
X119237455Y-49642466D02*
X119204122Y-49675800D01*
X119204122Y-49675800D02*
X119104122Y-49709133D01*
X119104122Y-49709133D02*
X119037455Y-49709133D01*
X119037455Y-49709133D02*
X118937455Y-49675800D01*
X118937455Y-49675800D02*
X118870789Y-49609133D01*
X118870789Y-49609133D02*
X118837455Y-49542466D01*
X118837455Y-49542466D02*
X118804122Y-49409133D01*
X118804122Y-49409133D02*
X118804122Y-49309133D01*
X118804122Y-49309133D02*
X118837455Y-49175800D01*
X118837455Y-49175800D02*
X118870789Y-49109133D01*
X118870789Y-49109133D02*
X118937455Y-49042466D01*
X118937455Y-49042466D02*
X119037455Y-49009133D01*
X119037455Y-49009133D02*
X119104122Y-49009133D01*
X119104122Y-49009133D02*
X119204122Y-49042466D01*
X119204122Y-49042466D02*
X119237455Y-49075800D01*
X119937455Y-49642466D02*
X119904122Y-49675800D01*
X119904122Y-49675800D02*
X119804122Y-49709133D01*
X119804122Y-49709133D02*
X119737455Y-49709133D01*
X119737455Y-49709133D02*
X119637455Y-49675800D01*
X119637455Y-49675800D02*
X119570789Y-49609133D01*
X119570789Y-49609133D02*
X119537455Y-49542466D01*
X119537455Y-49542466D02*
X119504122Y-49409133D01*
X119504122Y-49409133D02*
X119504122Y-49309133D01*
X119504122Y-49309133D02*
X119537455Y-49175800D01*
X119537455Y-49175800D02*
X119570789Y-49109133D01*
X119570789Y-49109133D02*
X119637455Y-49042466D01*
X119637455Y-49042466D02*
X119737455Y-49009133D01*
X119737455Y-49009133D02*
X119804122Y-49009133D01*
X119804122Y-49009133D02*
X119904122Y-49042466D01*
X119904122Y-49042466D02*
X119937455Y-49075800D01*
D11*
X158706533Y-45534649D02*
X159406533Y-45301316D01*
X159406533Y-45301316D02*
X158706533Y-45067982D01*
X159339866Y-44434649D02*
X159373200Y-44467982D01*
X159373200Y-44467982D02*
X159406533Y-44567982D01*
X159406533Y-44567982D02*
X159406533Y-44634649D01*
X159406533Y-44634649D02*
X159373200Y-44734649D01*
X159373200Y-44734649D02*
X159306533Y-44801316D01*
X159306533Y-44801316D02*
X159239866Y-44834649D01*
X159239866Y-44834649D02*
X159106533Y-44867982D01*
X159106533Y-44867982D02*
X159006533Y-44867982D01*
X159006533Y-44867982D02*
X158873200Y-44834649D01*
X158873200Y-44834649D02*
X158806533Y-44801316D01*
X158806533Y-44801316D02*
X158739866Y-44734649D01*
X158739866Y-44734649D02*
X158706533Y-44634649D01*
X158706533Y-44634649D02*
X158706533Y-44567982D01*
X158706533Y-44567982D02*
X158739866Y-44467982D01*
X158739866Y-44467982D02*
X158773200Y-44434649D01*
X159339866Y-43734649D02*
X159373200Y-43767982D01*
X159373200Y-43767982D02*
X159406533Y-43867982D01*
X159406533Y-43867982D02*
X159406533Y-43934649D01*
X159406533Y-43934649D02*
X159373200Y-44034649D01*
X159373200Y-44034649D02*
X159306533Y-44101316D01*
X159306533Y-44101316D02*
X159239866Y-44134649D01*
X159239866Y-44134649D02*
X159106533Y-44167982D01*
X159106533Y-44167982D02*
X159006533Y-44167982D01*
X159006533Y-44167982D02*
X158873200Y-44134649D01*
X158873200Y-44134649D02*
X158806533Y-44101316D01*
X158806533Y-44101316D02*
X158739866Y-44034649D01*
X158739866Y-44034649D02*
X158706533Y-43934649D01*
X158706533Y-43934649D02*
X158706533Y-43867982D01*
X158706533Y-43867982D02*
X158739866Y-43767982D01*
X158739866Y-43767982D02*
X158773200Y-43734649D01*
X167998684Y-62539866D02*
X168098684Y-62573200D01*
X168098684Y-62573200D02*
X168132017Y-62606533D01*
X168132017Y-62606533D02*
X168165350Y-62673200D01*
X168165350Y-62673200D02*
X168165350Y-62773200D01*
X168165350Y-62773200D02*
X168132017Y-62839866D01*
X168132017Y-62839866D02*
X168098684Y-62873200D01*
X168098684Y-62873200D02*
X168032017Y-62906533D01*
X168032017Y-62906533D02*
X167765350Y-62906533D01*
X167765350Y-62906533D02*
X167765350Y-62206533D01*
X167765350Y-62206533D02*
X167998684Y-62206533D01*
X167998684Y-62206533D02*
X168065350Y-62239866D01*
X168065350Y-62239866D02*
X168098684Y-62273200D01*
X168098684Y-62273200D02*
X168132017Y-62339866D01*
X168132017Y-62339866D02*
X168132017Y-62406533D01*
X168132017Y-62406533D02*
X168098684Y-62473200D01*
X168098684Y-62473200D02*
X168065350Y-62506533D01*
X168065350Y-62506533D02*
X167998684Y-62539866D01*
X167998684Y-62539866D02*
X167765350Y-62539866D01*
X168465350Y-62206533D02*
X168465350Y-62773200D01*
X168465350Y-62773200D02*
X168498684Y-62839866D01*
X168498684Y-62839866D02*
X168532017Y-62873200D01*
X168532017Y-62873200D02*
X168598684Y-62906533D01*
X168598684Y-62906533D02*
X168732017Y-62906533D01*
X168732017Y-62906533D02*
X168798684Y-62873200D01*
X168798684Y-62873200D02*
X168832017Y-62839866D01*
X168832017Y-62839866D02*
X168865350Y-62773200D01*
X168865350Y-62773200D02*
X168865350Y-62206533D01*
X169165350Y-62873200D02*
X169265350Y-62906533D01*
X169265350Y-62906533D02*
X169432017Y-62906533D01*
X169432017Y-62906533D02*
X169498683Y-62873200D01*
X169498683Y-62873200D02*
X169532017Y-62839866D01*
X169532017Y-62839866D02*
X169565350Y-62773200D01*
X169565350Y-62773200D02*
X169565350Y-62706533D01*
X169565350Y-62706533D02*
X169532017Y-62639866D01*
X169532017Y-62639866D02*
X169498683Y-62606533D01*
X169498683Y-62606533D02*
X169432017Y-62573200D01*
X169432017Y-62573200D02*
X169298683Y-62539866D01*
X169298683Y-62539866D02*
X169232017Y-62506533D01*
X169232017Y-62506533D02*
X169198683Y-62473200D01*
X169198683Y-62473200D02*
X169165350Y-62406533D01*
X169165350Y-62406533D02*
X169165350Y-62339866D01*
X169165350Y-62339866D02*
X169198683Y-62273200D01*
X169198683Y-62273200D02*
X169232017Y-62239866D01*
X169232017Y-62239866D02*
X169298683Y-62206533D01*
X169298683Y-62206533D02*
X169465350Y-62206533D01*
X169465350Y-62206533D02*
X169565350Y-62239866D01*
X170332017Y-62206533D02*
X170765350Y-62206533D01*
X170765350Y-62206533D02*
X170532017Y-62473200D01*
X170532017Y-62473200D02*
X170632017Y-62473200D01*
X170632017Y-62473200D02*
X170698683Y-62506533D01*
X170698683Y-62506533D02*
X170732017Y-62539866D01*
X170732017Y-62539866D02*
X170765350Y-62606533D01*
X170765350Y-62606533D02*
X170765350Y-62773200D01*
X170765350Y-62773200D02*
X170732017Y-62839866D01*
X170732017Y-62839866D02*
X170698683Y-62873200D01*
X170698683Y-62873200D02*
X170632017Y-62906533D01*
X170632017Y-62906533D02*
X170432017Y-62906533D01*
X170432017Y-62906533D02*
X170365350Y-62873200D01*
X170365350Y-62873200D02*
X170332017Y-62839866D01*
D10*
X123284122Y-49675800D02*
X123384122Y-49709133D01*
X123384122Y-49709133D02*
X123550789Y-49709133D01*
X123550789Y-49709133D02*
X123617455Y-49675800D01*
X123617455Y-49675800D02*
X123650789Y-49642466D01*
X123650789Y-49642466D02*
X123684122Y-49575800D01*
X123684122Y-49575800D02*
X123684122Y-49509133D01*
X123684122Y-49509133D02*
X123650789Y-49442466D01*
X123650789Y-49442466D02*
X123617455Y-49409133D01*
X123617455Y-49409133D02*
X123550789Y-49375800D01*
X123550789Y-49375800D02*
X123417455Y-49342466D01*
X123417455Y-49342466D02*
X123350789Y-49309133D01*
X123350789Y-49309133D02*
X123317455Y-49275800D01*
X123317455Y-49275800D02*
X123284122Y-49209133D01*
X123284122Y-49209133D02*
X123284122Y-49142466D01*
X123284122Y-49142466D02*
X123317455Y-49075800D01*
X123317455Y-49075800D02*
X123350789Y-49042466D01*
X123350789Y-49042466D02*
X123417455Y-49009133D01*
X123417455Y-49009133D02*
X123584122Y-49009133D01*
X123584122Y-49009133D02*
X123684122Y-49042466D01*
X123984122Y-49709133D02*
X123984122Y-49009133D01*
X123984122Y-49009133D02*
X124150789Y-49009133D01*
X124150789Y-49009133D02*
X124250789Y-49042466D01*
X124250789Y-49042466D02*
X124317456Y-49109133D01*
X124317456Y-49109133D02*
X124350789Y-49175800D01*
X124350789Y-49175800D02*
X124384122Y-49309133D01*
X124384122Y-49309133D02*
X124384122Y-49409133D01*
X124384122Y-49409133D02*
X124350789Y-49542466D01*
X124350789Y-49542466D02*
X124317456Y-49609133D01*
X124317456Y-49609133D02*
X124250789Y-49675800D01*
X124250789Y-49675800D02*
X124150789Y-49709133D01*
X124150789Y-49709133D02*
X123984122Y-49709133D01*
X124650789Y-49509133D02*
X124984122Y-49509133D01*
X124584122Y-49709133D02*
X124817456Y-49009133D01*
X124817456Y-49009133D02*
X125050789Y-49709133D01*
X120744122Y-49675800D02*
X120844122Y-49709133D01*
X120844122Y-49709133D02*
X121010789Y-49709133D01*
X121010789Y-49709133D02*
X121077455Y-49675800D01*
X121077455Y-49675800D02*
X121110789Y-49642466D01*
X121110789Y-49642466D02*
X121144122Y-49575800D01*
X121144122Y-49575800D02*
X121144122Y-49509133D01*
X121144122Y-49509133D02*
X121110789Y-49442466D01*
X121110789Y-49442466D02*
X121077455Y-49409133D01*
X121077455Y-49409133D02*
X121010789Y-49375800D01*
X121010789Y-49375800D02*
X120877455Y-49342466D01*
X120877455Y-49342466D02*
X120810789Y-49309133D01*
X120810789Y-49309133D02*
X120777455Y-49275800D01*
X120777455Y-49275800D02*
X120744122Y-49209133D01*
X120744122Y-49209133D02*
X120744122Y-49142466D01*
X120744122Y-49142466D02*
X120777455Y-49075800D01*
X120777455Y-49075800D02*
X120810789Y-49042466D01*
X120810789Y-49042466D02*
X120877455Y-49009133D01*
X120877455Y-49009133D02*
X121044122Y-49009133D01*
X121044122Y-49009133D02*
X121144122Y-49042466D01*
X121844122Y-49642466D02*
X121810789Y-49675800D01*
X121810789Y-49675800D02*
X121710789Y-49709133D01*
X121710789Y-49709133D02*
X121644122Y-49709133D01*
X121644122Y-49709133D02*
X121544122Y-49675800D01*
X121544122Y-49675800D02*
X121477456Y-49609133D01*
X121477456Y-49609133D02*
X121444122Y-49542466D01*
X121444122Y-49542466D02*
X121410789Y-49409133D01*
X121410789Y-49409133D02*
X121410789Y-49309133D01*
X121410789Y-49309133D02*
X121444122Y-49175800D01*
X121444122Y-49175800D02*
X121477456Y-49109133D01*
X121477456Y-49109133D02*
X121544122Y-49042466D01*
X121544122Y-49042466D02*
X121644122Y-49009133D01*
X121644122Y-49009133D02*
X121710789Y-49009133D01*
X121710789Y-49009133D02*
X121810789Y-49042466D01*
X121810789Y-49042466D02*
X121844122Y-49075800D01*
X122477456Y-49709133D02*
X122144122Y-49709133D01*
X122144122Y-49709133D02*
X122144122Y-49009133D01*
D11*
X159539866Y-53634649D02*
X159539866Y-53401316D01*
X159906533Y-53301316D02*
X159906533Y-53634649D01*
X159906533Y-53634649D02*
X159206533Y-53634649D01*
X159206533Y-53634649D02*
X159206533Y-53301316D01*
X159906533Y-52601316D02*
X159573200Y-52834649D01*
X159906533Y-53001316D02*
X159206533Y-53001316D01*
X159206533Y-53001316D02*
X159206533Y-52734649D01*
X159206533Y-52734649D02*
X159239866Y-52667983D01*
X159239866Y-52667983D02*
X159273200Y-52634649D01*
X159273200Y-52634649D02*
X159339866Y-52601316D01*
X159339866Y-52601316D02*
X159439866Y-52601316D01*
X159439866Y-52601316D02*
X159506533Y-52634649D01*
X159506533Y-52634649D02*
X159539866Y-52667983D01*
X159539866Y-52667983D02*
X159573200Y-52734649D01*
X159573200Y-52734649D02*
X159573200Y-53001316D01*
X159906533Y-51901316D02*
X159573200Y-52134649D01*
X159906533Y-52301316D02*
X159206533Y-52301316D01*
X159206533Y-52301316D02*
X159206533Y-52034649D01*
X159206533Y-52034649D02*
X159239866Y-51967983D01*
X159239866Y-51967983D02*
X159273200Y-51934649D01*
X159273200Y-51934649D02*
X159339866Y-51901316D01*
X159339866Y-51901316D02*
X159439866Y-51901316D01*
X159439866Y-51901316D02*
X159506533Y-51934649D01*
X159506533Y-51934649D02*
X159539866Y-51967983D01*
X159539866Y-51967983D02*
X159573200Y-52034649D01*
X159573200Y-52034649D02*
X159573200Y-52301316D01*
X159973200Y-51767983D02*
X159973200Y-51234649D01*
X159906533Y-50734650D02*
X159906533Y-51067983D01*
X159906533Y-51067983D02*
X159206533Y-51067983D01*
X159539866Y-50501316D02*
X159539866Y-50267983D01*
X159906533Y-50167983D02*
X159906533Y-50501316D01*
X159906533Y-50501316D02*
X159206533Y-50501316D01*
X159206533Y-50501316D02*
X159206533Y-50167983D01*
X159906533Y-49867983D02*
X159206533Y-49867983D01*
X159206533Y-49867983D02*
X159206533Y-49701316D01*
X159206533Y-49701316D02*
X159239866Y-49601316D01*
X159239866Y-49601316D02*
X159306533Y-49534650D01*
X159306533Y-49534650D02*
X159373200Y-49501316D01*
X159373200Y-49501316D02*
X159506533Y-49467983D01*
X159506533Y-49467983D02*
X159606533Y-49467983D01*
X159606533Y-49467983D02*
X159739866Y-49501316D01*
X159739866Y-49501316D02*
X159806533Y-49534650D01*
X159806533Y-49534650D02*
X159873200Y-49601316D01*
X159873200Y-49601316D02*
X159906533Y-49701316D01*
X159906533Y-49701316D02*
X159906533Y-49867983D01*
X159973200Y-49334650D02*
X159973200Y-48801316D01*
X159539866Y-48634650D02*
X159539866Y-48401317D01*
X159906533Y-48301317D02*
X159906533Y-48634650D01*
X159906533Y-48634650D02*
X159206533Y-48634650D01*
X159206533Y-48634650D02*
X159206533Y-48301317D01*
X159206533Y-48067984D02*
X159906533Y-47601317D01*
X159206533Y-47601317D02*
X159906533Y-48067984D01*
X159206533Y-47434650D02*
X159206533Y-47034650D01*
X159906533Y-47234650D02*
X159206533Y-47234650D01*
X161039866Y-45067982D02*
X161006533Y-45134649D01*
X161006533Y-45134649D02*
X161006533Y-45234649D01*
X161006533Y-45234649D02*
X161039866Y-45334649D01*
X161039866Y-45334649D02*
X161106533Y-45401316D01*
X161106533Y-45401316D02*
X161173200Y-45434649D01*
X161173200Y-45434649D02*
X161306533Y-45467982D01*
X161306533Y-45467982D02*
X161406533Y-45467982D01*
X161406533Y-45467982D02*
X161539866Y-45434649D01*
X161539866Y-45434649D02*
X161606533Y-45401316D01*
X161606533Y-45401316D02*
X161673200Y-45334649D01*
X161673200Y-45334649D02*
X161706533Y-45234649D01*
X161706533Y-45234649D02*
X161706533Y-45167982D01*
X161706533Y-45167982D02*
X161673200Y-45067982D01*
X161673200Y-45067982D02*
X161639866Y-45034649D01*
X161639866Y-45034649D02*
X161406533Y-45034649D01*
X161406533Y-45034649D02*
X161406533Y-45167982D01*
X161706533Y-44734649D02*
X161006533Y-44734649D01*
X161006533Y-44734649D02*
X161706533Y-44334649D01*
X161706533Y-44334649D02*
X161006533Y-44334649D01*
X161706533Y-44001316D02*
X161006533Y-44001316D01*
X161006533Y-44001316D02*
X161006533Y-43834649D01*
X161006533Y-43834649D02*
X161039866Y-43734649D01*
X161039866Y-43734649D02*
X161106533Y-43667983D01*
X161106533Y-43667983D02*
X161173200Y-43634649D01*
X161173200Y-43634649D02*
X161306533Y-43601316D01*
X161306533Y-43601316D02*
X161406533Y-43601316D01*
X161406533Y-43601316D02*
X161539866Y-43634649D01*
X161539866Y-43634649D02*
X161606533Y-43667983D01*
X161606533Y-43667983D02*
X161673200Y-43734649D01*
X161673200Y-43734649D02*
X161706533Y-43834649D01*
X161706533Y-43834649D02*
X161706533Y-44001316D01*
X161106533Y-53634649D02*
X160406533Y-53634649D01*
X160406533Y-53634649D02*
X160406533Y-53467982D01*
X160406533Y-53467982D02*
X160439866Y-53367982D01*
X160439866Y-53367982D02*
X160506533Y-53301316D01*
X160506533Y-53301316D02*
X160573200Y-53267982D01*
X160573200Y-53267982D02*
X160706533Y-53234649D01*
X160706533Y-53234649D02*
X160806533Y-53234649D01*
X160806533Y-53234649D02*
X160939866Y-53267982D01*
X160939866Y-53267982D02*
X161006533Y-53301316D01*
X161006533Y-53301316D02*
X161073200Y-53367982D01*
X161073200Y-53367982D02*
X161106533Y-53467982D01*
X161106533Y-53467982D02*
X161106533Y-53634649D01*
X160739866Y-52934649D02*
X160739866Y-52701316D01*
X161106533Y-52601316D02*
X161106533Y-52934649D01*
X161106533Y-52934649D02*
X160406533Y-52934649D01*
X160406533Y-52934649D02*
X160406533Y-52601316D01*
X160739866Y-52067983D02*
X160739866Y-52301316D01*
X161106533Y-52301316D02*
X160406533Y-52301316D01*
X160406533Y-52301316D02*
X160406533Y-51967983D01*
X160906533Y-51734649D02*
X160906533Y-51401316D01*
X161106533Y-51801316D02*
X160406533Y-51567983D01*
X160406533Y-51567983D02*
X161106533Y-51334649D01*
X160406533Y-51101316D02*
X160973200Y-51101316D01*
X160973200Y-51101316D02*
X161039866Y-51067983D01*
X161039866Y-51067983D02*
X161073200Y-51034649D01*
X161073200Y-51034649D02*
X161106533Y-50967983D01*
X161106533Y-50967983D02*
X161106533Y-50834649D01*
X161106533Y-50834649D02*
X161073200Y-50767983D01*
X161073200Y-50767983D02*
X161039866Y-50734649D01*
X161039866Y-50734649D02*
X160973200Y-50701316D01*
X160973200Y-50701316D02*
X160406533Y-50701316D01*
X161106533Y-50034650D02*
X161106533Y-50367983D01*
X161106533Y-50367983D02*
X160406533Y-50367983D01*
X160406533Y-49901316D02*
X160406533Y-49501316D01*
X161106533Y-49701316D02*
X160406533Y-49701316D01*
X161173200Y-49434650D02*
X161173200Y-48901316D01*
X161073200Y-48767983D02*
X161106533Y-48667983D01*
X161106533Y-48667983D02*
X161106533Y-48501317D01*
X161106533Y-48501317D02*
X161073200Y-48434650D01*
X161073200Y-48434650D02*
X161039866Y-48401317D01*
X161039866Y-48401317D02*
X160973200Y-48367983D01*
X160973200Y-48367983D02*
X160906533Y-48367983D01*
X160906533Y-48367983D02*
X160839866Y-48401317D01*
X160839866Y-48401317D02*
X160806533Y-48434650D01*
X160806533Y-48434650D02*
X160773200Y-48501317D01*
X160773200Y-48501317D02*
X160739866Y-48634650D01*
X160739866Y-48634650D02*
X160706533Y-48701317D01*
X160706533Y-48701317D02*
X160673200Y-48734650D01*
X160673200Y-48734650D02*
X160606533Y-48767983D01*
X160606533Y-48767983D02*
X160539866Y-48767983D01*
X160539866Y-48767983D02*
X160473200Y-48734650D01*
X160473200Y-48734650D02*
X160439866Y-48701317D01*
X160439866Y-48701317D02*
X160406533Y-48634650D01*
X160406533Y-48634650D02*
X160406533Y-48467983D01*
X160406533Y-48467983D02*
X160439866Y-48367983D01*
X160406533Y-48134650D02*
X161106533Y-47967983D01*
X161106533Y-47967983D02*
X160606533Y-47834650D01*
X160606533Y-47834650D02*
X161106533Y-47701316D01*
X161106533Y-47701316D02*
X160406533Y-47534650D01*
X162825350Y-63406533D02*
X162825350Y-62706533D01*
X162825350Y-62706533D02*
X163225350Y-63406533D01*
X163225350Y-63406533D02*
X163225350Y-62706533D01*
X163958683Y-63339866D02*
X163925350Y-63373200D01*
X163925350Y-63373200D02*
X163825350Y-63406533D01*
X163825350Y-63406533D02*
X163758683Y-63406533D01*
X163758683Y-63406533D02*
X163658683Y-63373200D01*
X163658683Y-63373200D02*
X163592017Y-63306533D01*
X163592017Y-63306533D02*
X163558683Y-63239866D01*
X163558683Y-63239866D02*
X163525350Y-63106533D01*
X163525350Y-63106533D02*
X163525350Y-63006533D01*
X163525350Y-63006533D02*
X163558683Y-62873200D01*
X163558683Y-62873200D02*
X163592017Y-62806533D01*
X163592017Y-62806533D02*
X163658683Y-62739866D01*
X163658683Y-62739866D02*
X163758683Y-62706533D01*
X163758683Y-62706533D02*
X163825350Y-62706533D01*
X163825350Y-62706533D02*
X163925350Y-62739866D01*
X163925350Y-62739866D02*
X163958683Y-62773200D01*
X167998684Y-63539866D02*
X168098684Y-63573200D01*
X168098684Y-63573200D02*
X168132017Y-63606533D01*
X168132017Y-63606533D02*
X168165350Y-63673200D01*
X168165350Y-63673200D02*
X168165350Y-63773200D01*
X168165350Y-63773200D02*
X168132017Y-63839866D01*
X168132017Y-63839866D02*
X168098684Y-63873200D01*
X168098684Y-63873200D02*
X168032017Y-63906533D01*
X168032017Y-63906533D02*
X167765350Y-63906533D01*
X167765350Y-63906533D02*
X167765350Y-63206533D01*
X167765350Y-63206533D02*
X167998684Y-63206533D01*
X167998684Y-63206533D02*
X168065350Y-63239866D01*
X168065350Y-63239866D02*
X168098684Y-63273200D01*
X168098684Y-63273200D02*
X168132017Y-63339866D01*
X168132017Y-63339866D02*
X168132017Y-63406533D01*
X168132017Y-63406533D02*
X168098684Y-63473200D01*
X168098684Y-63473200D02*
X168065350Y-63506533D01*
X168065350Y-63506533D02*
X167998684Y-63539866D01*
X167998684Y-63539866D02*
X167765350Y-63539866D01*
X168465350Y-63206533D02*
X168465350Y-63773200D01*
X168465350Y-63773200D02*
X168498684Y-63839866D01*
X168498684Y-63839866D02*
X168532017Y-63873200D01*
X168532017Y-63873200D02*
X168598684Y-63906533D01*
X168598684Y-63906533D02*
X168732017Y-63906533D01*
X168732017Y-63906533D02*
X168798684Y-63873200D01*
X168798684Y-63873200D02*
X168832017Y-63839866D01*
X168832017Y-63839866D02*
X168865350Y-63773200D01*
X168865350Y-63773200D02*
X168865350Y-63206533D01*
X169165350Y-63873200D02*
X169265350Y-63906533D01*
X169265350Y-63906533D02*
X169432017Y-63906533D01*
X169432017Y-63906533D02*
X169498683Y-63873200D01*
X169498683Y-63873200D02*
X169532017Y-63839866D01*
X169532017Y-63839866D02*
X169565350Y-63773200D01*
X169565350Y-63773200D02*
X169565350Y-63706533D01*
X169565350Y-63706533D02*
X169532017Y-63639866D01*
X169532017Y-63639866D02*
X169498683Y-63606533D01*
X169498683Y-63606533D02*
X169432017Y-63573200D01*
X169432017Y-63573200D02*
X169298683Y-63539866D01*
X169298683Y-63539866D02*
X169232017Y-63506533D01*
X169232017Y-63506533D02*
X169198683Y-63473200D01*
X169198683Y-63473200D02*
X169165350Y-63406533D01*
X169165350Y-63406533D02*
X169165350Y-63339866D01*
X169165350Y-63339866D02*
X169198683Y-63273200D01*
X169198683Y-63273200D02*
X169232017Y-63239866D01*
X169232017Y-63239866D02*
X169298683Y-63206533D01*
X169298683Y-63206533D02*
X169465350Y-63206533D01*
X169465350Y-63206533D02*
X169565350Y-63239866D01*
X170765350Y-63906533D02*
X170365350Y-63906533D01*
X170565350Y-63906533D02*
X170565350Y-63206533D01*
X170565350Y-63206533D02*
X170498683Y-63306533D01*
X170498683Y-63306533D02*
X170432017Y-63373200D01*
X170432017Y-63373200D02*
X170365350Y-63406533D01*
D10*
X90378646Y-77407085D02*
X90578646Y-77407085D01*
X90664360Y-77721371D02*
X90378646Y-77721371D01*
X90378646Y-77721371D02*
X90378646Y-77121371D01*
X90378646Y-77121371D02*
X90664360Y-77121371D01*
X91264360Y-77721371D02*
X91064360Y-77435657D01*
X90921503Y-77721371D02*
X90921503Y-77121371D01*
X90921503Y-77121371D02*
X91150074Y-77121371D01*
X91150074Y-77121371D02*
X91207217Y-77149942D01*
X91207217Y-77149942D02*
X91235788Y-77178514D01*
X91235788Y-77178514D02*
X91264360Y-77235657D01*
X91264360Y-77235657D02*
X91264360Y-77321371D01*
X91264360Y-77321371D02*
X91235788Y-77378514D01*
X91235788Y-77378514D02*
X91207217Y-77407085D01*
X91207217Y-77407085D02*
X91150074Y-77435657D01*
X91150074Y-77435657D02*
X90921503Y-77435657D01*
X91864360Y-77721371D02*
X91664360Y-77435657D01*
X91521503Y-77721371D02*
X91521503Y-77121371D01*
X91521503Y-77121371D02*
X91750074Y-77121371D01*
X91750074Y-77121371D02*
X91807217Y-77149942D01*
X91807217Y-77149942D02*
X91835788Y-77178514D01*
X91835788Y-77178514D02*
X91864360Y-77235657D01*
X91864360Y-77235657D02*
X91864360Y-77321371D01*
X91864360Y-77321371D02*
X91835788Y-77378514D01*
X91835788Y-77378514D02*
X91807217Y-77407085D01*
X91807217Y-77407085D02*
X91750074Y-77435657D01*
X91750074Y-77435657D02*
X91521503Y-77435657D01*
D11*
X162266533Y-53634649D02*
X161566533Y-53634649D01*
X161566533Y-53634649D02*
X161566533Y-53467982D01*
X161566533Y-53467982D02*
X161599866Y-53367982D01*
X161599866Y-53367982D02*
X161666533Y-53301316D01*
X161666533Y-53301316D02*
X161733200Y-53267982D01*
X161733200Y-53267982D02*
X161866533Y-53234649D01*
X161866533Y-53234649D02*
X161966533Y-53234649D01*
X161966533Y-53234649D02*
X162099866Y-53267982D01*
X162099866Y-53267982D02*
X162166533Y-53301316D01*
X162166533Y-53301316D02*
X162233200Y-53367982D01*
X162233200Y-53367982D02*
X162266533Y-53467982D01*
X162266533Y-53467982D02*
X162266533Y-53634649D01*
X162266533Y-52934649D02*
X161566533Y-52934649D01*
X162233200Y-52634649D02*
X162266533Y-52534649D01*
X162266533Y-52534649D02*
X162266533Y-52367983D01*
X162266533Y-52367983D02*
X162233200Y-52301316D01*
X162233200Y-52301316D02*
X162199866Y-52267983D01*
X162199866Y-52267983D02*
X162133200Y-52234649D01*
X162133200Y-52234649D02*
X162066533Y-52234649D01*
X162066533Y-52234649D02*
X161999866Y-52267983D01*
X161999866Y-52267983D02*
X161966533Y-52301316D01*
X161966533Y-52301316D02*
X161933200Y-52367983D01*
X161933200Y-52367983D02*
X161899866Y-52501316D01*
X161899866Y-52501316D02*
X161866533Y-52567983D01*
X161866533Y-52567983D02*
X161833200Y-52601316D01*
X161833200Y-52601316D02*
X161766533Y-52634649D01*
X161766533Y-52634649D02*
X161699866Y-52634649D01*
X161699866Y-52634649D02*
X161633200Y-52601316D01*
X161633200Y-52601316D02*
X161599866Y-52567983D01*
X161599866Y-52567983D02*
X161566533Y-52501316D01*
X161566533Y-52501316D02*
X161566533Y-52334649D01*
X161566533Y-52334649D02*
X161599866Y-52234649D01*
X162266533Y-51934649D02*
X161566533Y-51934649D01*
X161566533Y-51934649D02*
X161566533Y-51667982D01*
X161566533Y-51667982D02*
X161599866Y-51601316D01*
X161599866Y-51601316D02*
X161633200Y-51567982D01*
X161633200Y-51567982D02*
X161699866Y-51534649D01*
X161699866Y-51534649D02*
X161799866Y-51534649D01*
X161799866Y-51534649D02*
X161866533Y-51567982D01*
X161866533Y-51567982D02*
X161899866Y-51601316D01*
X161899866Y-51601316D02*
X161933200Y-51667982D01*
X161933200Y-51667982D02*
X161933200Y-51934649D01*
X162333200Y-51401316D02*
X162333200Y-50867982D01*
X162233200Y-50734649D02*
X162266533Y-50634649D01*
X162266533Y-50634649D02*
X162266533Y-50467983D01*
X162266533Y-50467983D02*
X162233200Y-50401316D01*
X162233200Y-50401316D02*
X162199866Y-50367983D01*
X162199866Y-50367983D02*
X162133200Y-50334649D01*
X162133200Y-50334649D02*
X162066533Y-50334649D01*
X162066533Y-50334649D02*
X161999866Y-50367983D01*
X161999866Y-50367983D02*
X161966533Y-50401316D01*
X161966533Y-50401316D02*
X161933200Y-50467983D01*
X161933200Y-50467983D02*
X161899866Y-50601316D01*
X161899866Y-50601316D02*
X161866533Y-50667983D01*
X161866533Y-50667983D02*
X161833200Y-50701316D01*
X161833200Y-50701316D02*
X161766533Y-50734649D01*
X161766533Y-50734649D02*
X161699866Y-50734649D01*
X161699866Y-50734649D02*
X161633200Y-50701316D01*
X161633200Y-50701316D02*
X161599866Y-50667983D01*
X161599866Y-50667983D02*
X161566533Y-50601316D01*
X161566533Y-50601316D02*
X161566533Y-50434649D01*
X161566533Y-50434649D02*
X161599866Y-50334649D01*
X162266533Y-50034649D02*
X161566533Y-50034649D01*
X161566533Y-50034649D02*
X161566533Y-49867982D01*
X161566533Y-49867982D02*
X161599866Y-49767982D01*
X161599866Y-49767982D02*
X161666533Y-49701316D01*
X161666533Y-49701316D02*
X161733200Y-49667982D01*
X161733200Y-49667982D02*
X161866533Y-49634649D01*
X161866533Y-49634649D02*
X161966533Y-49634649D01*
X161966533Y-49634649D02*
X162099866Y-49667982D01*
X162099866Y-49667982D02*
X162166533Y-49701316D01*
X162166533Y-49701316D02*
X162233200Y-49767982D01*
X162233200Y-49767982D02*
X162266533Y-49867982D01*
X162266533Y-49867982D02*
X162266533Y-50034649D01*
X162066533Y-49367982D02*
X162066533Y-49034649D01*
X162266533Y-49434649D02*
X161566533Y-49201316D01*
X161566533Y-49201316D02*
X162266533Y-48967982D01*
X159939866Y-45067982D02*
X159906533Y-45134649D01*
X159906533Y-45134649D02*
X159906533Y-45234649D01*
X159906533Y-45234649D02*
X159939866Y-45334649D01*
X159939866Y-45334649D02*
X160006533Y-45401316D01*
X160006533Y-45401316D02*
X160073200Y-45434649D01*
X160073200Y-45434649D02*
X160206533Y-45467982D01*
X160206533Y-45467982D02*
X160306533Y-45467982D01*
X160306533Y-45467982D02*
X160439866Y-45434649D01*
X160439866Y-45434649D02*
X160506533Y-45401316D01*
X160506533Y-45401316D02*
X160573200Y-45334649D01*
X160573200Y-45334649D02*
X160606533Y-45234649D01*
X160606533Y-45234649D02*
X160606533Y-45167982D01*
X160606533Y-45167982D02*
X160573200Y-45067982D01*
X160573200Y-45067982D02*
X160539866Y-45034649D01*
X160539866Y-45034649D02*
X160306533Y-45034649D01*
X160306533Y-45034649D02*
X160306533Y-45167982D01*
X160606533Y-44734649D02*
X159906533Y-44734649D01*
X159906533Y-44734649D02*
X160606533Y-44334649D01*
X160606533Y-44334649D02*
X159906533Y-44334649D01*
X160606533Y-44001316D02*
X159906533Y-44001316D01*
X159906533Y-44001316D02*
X159906533Y-43834649D01*
X159906533Y-43834649D02*
X159939866Y-43734649D01*
X159939866Y-43734649D02*
X160006533Y-43667983D01*
X160006533Y-43667983D02*
X160073200Y-43634649D01*
X160073200Y-43634649D02*
X160206533Y-43601316D01*
X160206533Y-43601316D02*
X160306533Y-43601316D01*
X160306533Y-43601316D02*
X160439866Y-43634649D01*
X160439866Y-43634649D02*
X160506533Y-43667983D01*
X160506533Y-43667983D02*
X160573200Y-43734649D01*
X160573200Y-43734649D02*
X160606533Y-43834649D01*
X160606533Y-43834649D02*
X160606533Y-44001316D01*
X162106533Y-45534649D02*
X162806533Y-45301316D01*
X162806533Y-45301316D02*
X162106533Y-45067982D01*
X162739866Y-44434649D02*
X162773200Y-44467982D01*
X162773200Y-44467982D02*
X162806533Y-44567982D01*
X162806533Y-44567982D02*
X162806533Y-44634649D01*
X162806533Y-44634649D02*
X162773200Y-44734649D01*
X162773200Y-44734649D02*
X162706533Y-44801316D01*
X162706533Y-44801316D02*
X162639866Y-44834649D01*
X162639866Y-44834649D02*
X162506533Y-44867982D01*
X162506533Y-44867982D02*
X162406533Y-44867982D01*
X162406533Y-44867982D02*
X162273200Y-44834649D01*
X162273200Y-44834649D02*
X162206533Y-44801316D01*
X162206533Y-44801316D02*
X162139866Y-44734649D01*
X162139866Y-44734649D02*
X162106533Y-44634649D01*
X162106533Y-44634649D02*
X162106533Y-44567982D01*
X162106533Y-44567982D02*
X162139866Y-44467982D01*
X162139866Y-44467982D02*
X162173200Y-44434649D01*
X162739866Y-43734649D02*
X162773200Y-43767982D01*
X162773200Y-43767982D02*
X162806533Y-43867982D01*
X162806533Y-43867982D02*
X162806533Y-43934649D01*
X162806533Y-43934649D02*
X162773200Y-44034649D01*
X162773200Y-44034649D02*
X162706533Y-44101316D01*
X162706533Y-44101316D02*
X162639866Y-44134649D01*
X162639866Y-44134649D02*
X162506533Y-44167982D01*
X162506533Y-44167982D02*
X162406533Y-44167982D01*
X162406533Y-44167982D02*
X162273200Y-44134649D01*
X162273200Y-44134649D02*
X162206533Y-44101316D01*
X162206533Y-44101316D02*
X162139866Y-44034649D01*
X162139866Y-44034649D02*
X162106533Y-43934649D01*
X162106533Y-43934649D02*
X162106533Y-43867982D01*
X162106533Y-43867982D02*
X162139866Y-43767982D01*
X162139866Y-43767982D02*
X162173200Y-43734649D01*
D10*
X142448646Y-35721371D02*
X142448646Y-35121371D01*
X142448646Y-35121371D02*
X142591503Y-35121371D01*
X142591503Y-35121371D02*
X142677217Y-35149942D01*
X142677217Y-35149942D02*
X142734360Y-35207085D01*
X142734360Y-35207085D02*
X142762931Y-35264228D01*
X142762931Y-35264228D02*
X142791503Y-35378514D01*
X142791503Y-35378514D02*
X142791503Y-35464228D01*
X142791503Y-35464228D02*
X142762931Y-35578514D01*
X142762931Y-35578514D02*
X142734360Y-35635657D01*
X142734360Y-35635657D02*
X142677217Y-35692800D01*
X142677217Y-35692800D02*
X142591503Y-35721371D01*
X142591503Y-35721371D02*
X142448646Y-35721371D01*
X143048646Y-35407085D02*
X143248646Y-35407085D01*
X143334360Y-35721371D02*
X143048646Y-35721371D01*
X143048646Y-35721371D02*
X143048646Y-35121371D01*
X143048646Y-35121371D02*
X143334360Y-35121371D01*
X143791503Y-35407085D02*
X143591503Y-35407085D01*
X143591503Y-35721371D02*
X143591503Y-35121371D01*
X143591503Y-35121371D02*
X143877217Y-35121371D01*
X144077217Y-35549942D02*
X144362932Y-35549942D01*
X144020074Y-35721371D02*
X144220074Y-35121371D01*
X144220074Y-35121371D02*
X144420074Y-35721371D01*
X144620075Y-35121371D02*
X144620075Y-35607085D01*
X144620075Y-35607085D02*
X144648646Y-35664228D01*
X144648646Y-35664228D02*
X144677218Y-35692800D01*
X144677218Y-35692800D02*
X144734360Y-35721371D01*
X144734360Y-35721371D02*
X144848646Y-35721371D01*
X144848646Y-35721371D02*
X144905789Y-35692800D01*
X144905789Y-35692800D02*
X144934360Y-35664228D01*
X144934360Y-35664228D02*
X144962932Y-35607085D01*
X144962932Y-35607085D02*
X144962932Y-35121371D01*
X145534360Y-35721371D02*
X145248646Y-35721371D01*
X145248646Y-35721371D02*
X145248646Y-35121371D01*
X145648645Y-35121371D02*
X145991503Y-35121371D01*
X145820074Y-35721371D02*
X145820074Y-35121371D01*
X116064122Y-49042466D02*
X115997455Y-49009133D01*
X115997455Y-49009133D02*
X115897455Y-49009133D01*
X115897455Y-49009133D02*
X115797455Y-49042466D01*
X115797455Y-49042466D02*
X115730789Y-49109133D01*
X115730789Y-49109133D02*
X115697455Y-49175800D01*
X115697455Y-49175800D02*
X115664122Y-49309133D01*
X115664122Y-49309133D02*
X115664122Y-49409133D01*
X115664122Y-49409133D02*
X115697455Y-49542466D01*
X115697455Y-49542466D02*
X115730789Y-49609133D01*
X115730789Y-49609133D02*
X115797455Y-49675800D01*
X115797455Y-49675800D02*
X115897455Y-49709133D01*
X115897455Y-49709133D02*
X115964122Y-49709133D01*
X115964122Y-49709133D02*
X116064122Y-49675800D01*
X116064122Y-49675800D02*
X116097455Y-49642466D01*
X116097455Y-49642466D02*
X116097455Y-49409133D01*
X116097455Y-49409133D02*
X115964122Y-49409133D01*
X116397455Y-49709133D02*
X116397455Y-49009133D01*
X116397455Y-49009133D02*
X116797455Y-49709133D01*
X116797455Y-49709133D02*
X116797455Y-49009133D01*
X117130788Y-49709133D02*
X117130788Y-49009133D01*
X117130788Y-49009133D02*
X117297455Y-49009133D01*
X117297455Y-49009133D02*
X117397455Y-49042466D01*
X117397455Y-49042466D02*
X117464122Y-49109133D01*
X117464122Y-49109133D02*
X117497455Y-49175800D01*
X117497455Y-49175800D02*
X117530788Y-49309133D01*
X117530788Y-49309133D02*
X117530788Y-49409133D01*
X117530788Y-49409133D02*
X117497455Y-49542466D01*
X117497455Y-49542466D02*
X117464122Y-49609133D01*
X117464122Y-49609133D02*
X117397455Y-49675800D01*
X117397455Y-49675800D02*
X117297455Y-49709133D01*
X117297455Y-49709133D02*
X117130788Y-49709133D01*
D11*
X163406533Y-53634649D02*
X162706533Y-53634649D01*
X162706533Y-53634649D02*
X162706533Y-53467982D01*
X162706533Y-53467982D02*
X162739866Y-53367982D01*
X162739866Y-53367982D02*
X162806533Y-53301316D01*
X162806533Y-53301316D02*
X162873200Y-53267982D01*
X162873200Y-53267982D02*
X163006533Y-53234649D01*
X163006533Y-53234649D02*
X163106533Y-53234649D01*
X163106533Y-53234649D02*
X163239866Y-53267982D01*
X163239866Y-53267982D02*
X163306533Y-53301316D01*
X163306533Y-53301316D02*
X163373200Y-53367982D01*
X163373200Y-53367982D02*
X163406533Y-53467982D01*
X163406533Y-53467982D02*
X163406533Y-53634649D01*
X163406533Y-52934649D02*
X162706533Y-52934649D01*
X163373200Y-52634649D02*
X163406533Y-52534649D01*
X163406533Y-52534649D02*
X163406533Y-52367983D01*
X163406533Y-52367983D02*
X163373200Y-52301316D01*
X163373200Y-52301316D02*
X163339866Y-52267983D01*
X163339866Y-52267983D02*
X163273200Y-52234649D01*
X163273200Y-52234649D02*
X163206533Y-52234649D01*
X163206533Y-52234649D02*
X163139866Y-52267983D01*
X163139866Y-52267983D02*
X163106533Y-52301316D01*
X163106533Y-52301316D02*
X163073200Y-52367983D01*
X163073200Y-52367983D02*
X163039866Y-52501316D01*
X163039866Y-52501316D02*
X163006533Y-52567983D01*
X163006533Y-52567983D02*
X162973200Y-52601316D01*
X162973200Y-52601316D02*
X162906533Y-52634649D01*
X162906533Y-52634649D02*
X162839866Y-52634649D01*
X162839866Y-52634649D02*
X162773200Y-52601316D01*
X162773200Y-52601316D02*
X162739866Y-52567983D01*
X162739866Y-52567983D02*
X162706533Y-52501316D01*
X162706533Y-52501316D02*
X162706533Y-52334649D01*
X162706533Y-52334649D02*
X162739866Y-52234649D01*
X163406533Y-51934649D02*
X162706533Y-51934649D01*
X162706533Y-51934649D02*
X162706533Y-51667982D01*
X162706533Y-51667982D02*
X162739866Y-51601316D01*
X162739866Y-51601316D02*
X162773200Y-51567982D01*
X162773200Y-51567982D02*
X162839866Y-51534649D01*
X162839866Y-51534649D02*
X162939866Y-51534649D01*
X162939866Y-51534649D02*
X163006533Y-51567982D01*
X163006533Y-51567982D02*
X163039866Y-51601316D01*
X163039866Y-51601316D02*
X163073200Y-51667982D01*
X163073200Y-51667982D02*
X163073200Y-51934649D01*
X163473200Y-51401316D02*
X163473200Y-50867982D01*
X163373200Y-50734649D02*
X163406533Y-50634649D01*
X163406533Y-50634649D02*
X163406533Y-50467983D01*
X163406533Y-50467983D02*
X163373200Y-50401316D01*
X163373200Y-50401316D02*
X163339866Y-50367983D01*
X163339866Y-50367983D02*
X163273200Y-50334649D01*
X163273200Y-50334649D02*
X163206533Y-50334649D01*
X163206533Y-50334649D02*
X163139866Y-50367983D01*
X163139866Y-50367983D02*
X163106533Y-50401316D01*
X163106533Y-50401316D02*
X163073200Y-50467983D01*
X163073200Y-50467983D02*
X163039866Y-50601316D01*
X163039866Y-50601316D02*
X163006533Y-50667983D01*
X163006533Y-50667983D02*
X162973200Y-50701316D01*
X162973200Y-50701316D02*
X162906533Y-50734649D01*
X162906533Y-50734649D02*
X162839866Y-50734649D01*
X162839866Y-50734649D02*
X162773200Y-50701316D01*
X162773200Y-50701316D02*
X162739866Y-50667983D01*
X162739866Y-50667983D02*
X162706533Y-50601316D01*
X162706533Y-50601316D02*
X162706533Y-50434649D01*
X162706533Y-50434649D02*
X162739866Y-50334649D01*
X163339866Y-49634649D02*
X163373200Y-49667982D01*
X163373200Y-49667982D02*
X163406533Y-49767982D01*
X163406533Y-49767982D02*
X163406533Y-49834649D01*
X163406533Y-49834649D02*
X163373200Y-49934649D01*
X163373200Y-49934649D02*
X163306533Y-50001316D01*
X163306533Y-50001316D02*
X163239866Y-50034649D01*
X163239866Y-50034649D02*
X163106533Y-50067982D01*
X163106533Y-50067982D02*
X163006533Y-50067982D01*
X163006533Y-50067982D02*
X162873200Y-50034649D01*
X162873200Y-50034649D02*
X162806533Y-50001316D01*
X162806533Y-50001316D02*
X162739866Y-49934649D01*
X162739866Y-49934649D02*
X162706533Y-49834649D01*
X162706533Y-49834649D02*
X162706533Y-49767982D01*
X162706533Y-49767982D02*
X162739866Y-49667982D01*
X162739866Y-49667982D02*
X162773200Y-49634649D01*
X163406533Y-49001316D02*
X163406533Y-49334649D01*
X163406533Y-49334649D02*
X162706533Y-49334649D01*
X163058684Y-64039866D02*
X163158684Y-64073200D01*
X163158684Y-64073200D02*
X163192017Y-64106533D01*
X163192017Y-64106533D02*
X163225350Y-64173200D01*
X163225350Y-64173200D02*
X163225350Y-64273200D01*
X163225350Y-64273200D02*
X163192017Y-64339866D01*
X163192017Y-64339866D02*
X163158684Y-64373200D01*
X163158684Y-64373200D02*
X163092017Y-64406533D01*
X163092017Y-64406533D02*
X162825350Y-64406533D01*
X162825350Y-64406533D02*
X162825350Y-63706533D01*
X162825350Y-63706533D02*
X163058684Y-63706533D01*
X163058684Y-63706533D02*
X163125350Y-63739866D01*
X163125350Y-63739866D02*
X163158684Y-63773200D01*
X163158684Y-63773200D02*
X163192017Y-63839866D01*
X163192017Y-63839866D02*
X163192017Y-63906533D01*
X163192017Y-63906533D02*
X163158684Y-63973200D01*
X163158684Y-63973200D02*
X163125350Y-64006533D01*
X163125350Y-64006533D02*
X163058684Y-64039866D01*
X163058684Y-64039866D02*
X162825350Y-64039866D01*
X163525350Y-63706533D02*
X163525350Y-64273200D01*
X163525350Y-64273200D02*
X163558684Y-64339866D01*
X163558684Y-64339866D02*
X163592017Y-64373200D01*
X163592017Y-64373200D02*
X163658684Y-64406533D01*
X163658684Y-64406533D02*
X163792017Y-64406533D01*
X163792017Y-64406533D02*
X163858684Y-64373200D01*
X163858684Y-64373200D02*
X163892017Y-64339866D01*
X163892017Y-64339866D02*
X163925350Y-64273200D01*
X163925350Y-64273200D02*
X163925350Y-63706533D01*
X164225350Y-64373200D02*
X164325350Y-64406533D01*
X164325350Y-64406533D02*
X164492017Y-64406533D01*
X164492017Y-64406533D02*
X164558683Y-64373200D01*
X164558683Y-64373200D02*
X164592017Y-64339866D01*
X164592017Y-64339866D02*
X164625350Y-64273200D01*
X164625350Y-64273200D02*
X164625350Y-64206533D01*
X164625350Y-64206533D02*
X164592017Y-64139866D01*
X164592017Y-64139866D02*
X164558683Y-64106533D01*
X164558683Y-64106533D02*
X164492017Y-64073200D01*
X164492017Y-64073200D02*
X164358683Y-64039866D01*
X164358683Y-64039866D02*
X164292017Y-64006533D01*
X164292017Y-64006533D02*
X164258683Y-63973200D01*
X164258683Y-63973200D02*
X164225350Y-63906533D01*
X164225350Y-63906533D02*
X164225350Y-63839866D01*
X164225350Y-63839866D02*
X164258683Y-63773200D01*
X164258683Y-63773200D02*
X164292017Y-63739866D01*
X164292017Y-63739866D02*
X164358683Y-63706533D01*
X164358683Y-63706533D02*
X164525350Y-63706533D01*
X164525350Y-63706533D02*
X164625350Y-63739866D01*
X165425350Y-63773200D02*
X165458683Y-63739866D01*
X165458683Y-63739866D02*
X165525350Y-63706533D01*
X165525350Y-63706533D02*
X165692017Y-63706533D01*
X165692017Y-63706533D02*
X165758683Y-63739866D01*
X165758683Y-63739866D02*
X165792017Y-63773200D01*
X165792017Y-63773200D02*
X165825350Y-63839866D01*
X165825350Y-63839866D02*
X165825350Y-63906533D01*
X165825350Y-63906533D02*
X165792017Y-64006533D01*
X165792017Y-64006533D02*
X165392017Y-64406533D01*
X165392017Y-64406533D02*
X165825350Y-64406533D01*
D12*
X152954510Y-37900828D02*
X152954510Y-36400828D01*
X152954510Y-37115114D02*
X153811653Y-37115114D01*
X153811653Y-37900828D02*
X153811653Y-36400828D01*
X154525939Y-37900828D02*
X154525939Y-36400828D01*
X155954511Y-37900828D02*
X155240225Y-37900828D01*
X155240225Y-37900828D02*
X155240225Y-36400828D01*
X156454511Y-37329400D02*
X157597369Y-37329400D01*
X158597369Y-36400828D02*
X158740226Y-36400828D01*
X158740226Y-36400828D02*
X158883083Y-36472257D01*
X158883083Y-36472257D02*
X158954512Y-36543685D01*
X158954512Y-36543685D02*
X159025940Y-36686542D01*
X159025940Y-36686542D02*
X159097369Y-36972257D01*
X159097369Y-36972257D02*
X159097369Y-37329400D01*
X159097369Y-37329400D02*
X159025940Y-37615114D01*
X159025940Y-37615114D02*
X158954512Y-37757971D01*
X158954512Y-37757971D02*
X158883083Y-37829400D01*
X158883083Y-37829400D02*
X158740226Y-37900828D01*
X158740226Y-37900828D02*
X158597369Y-37900828D01*
X158597369Y-37900828D02*
X158454512Y-37829400D01*
X158454512Y-37829400D02*
X158383083Y-37757971D01*
X158383083Y-37757971D02*
X158311654Y-37615114D01*
X158311654Y-37615114D02*
X158240226Y-37329400D01*
X158240226Y-37329400D02*
X158240226Y-36972257D01*
X158240226Y-36972257D02*
X158311654Y-36686542D01*
X158311654Y-36686542D02*
X158383083Y-36543685D01*
X158383083Y-36543685D02*
X158454512Y-36472257D01*
X158454512Y-36472257D02*
X158597369Y-36400828D01*
X160454511Y-36400828D02*
X159740225Y-36400828D01*
X159740225Y-36400828D02*
X159668797Y-37115114D01*
X159668797Y-37115114D02*
X159740225Y-37043685D01*
X159740225Y-37043685D02*
X159883083Y-36972257D01*
X159883083Y-36972257D02*
X160240225Y-36972257D01*
X160240225Y-36972257D02*
X160383083Y-37043685D01*
X160383083Y-37043685D02*
X160454511Y-37115114D01*
X160454511Y-37115114D02*
X160525940Y-37257971D01*
X160525940Y-37257971D02*
X160525940Y-37615114D01*
X160525940Y-37615114D02*
X160454511Y-37757971D01*
X160454511Y-37757971D02*
X160383083Y-37829400D01*
X160383083Y-37829400D02*
X160240225Y-37900828D01*
X160240225Y-37900828D02*
X159883083Y-37900828D01*
X159883083Y-37900828D02*
X159740225Y-37829400D01*
X159740225Y-37829400D02*
X159668797Y-37757971D01*
D11*
X163058684Y-65039866D02*
X163158684Y-65073200D01*
X163158684Y-65073200D02*
X163192017Y-65106533D01*
X163192017Y-65106533D02*
X163225350Y-65173200D01*
X163225350Y-65173200D02*
X163225350Y-65273200D01*
X163225350Y-65273200D02*
X163192017Y-65339866D01*
X163192017Y-65339866D02*
X163158684Y-65373200D01*
X163158684Y-65373200D02*
X163092017Y-65406533D01*
X163092017Y-65406533D02*
X162825350Y-65406533D01*
X162825350Y-65406533D02*
X162825350Y-64706533D01*
X162825350Y-64706533D02*
X163058684Y-64706533D01*
X163058684Y-64706533D02*
X163125350Y-64739866D01*
X163125350Y-64739866D02*
X163158684Y-64773200D01*
X163158684Y-64773200D02*
X163192017Y-64839866D01*
X163192017Y-64839866D02*
X163192017Y-64906533D01*
X163192017Y-64906533D02*
X163158684Y-64973200D01*
X163158684Y-64973200D02*
X163125350Y-65006533D01*
X163125350Y-65006533D02*
X163058684Y-65039866D01*
X163058684Y-65039866D02*
X162825350Y-65039866D01*
X163525350Y-64706533D02*
X163525350Y-65273200D01*
X163525350Y-65273200D02*
X163558684Y-65339866D01*
X163558684Y-65339866D02*
X163592017Y-65373200D01*
X163592017Y-65373200D02*
X163658684Y-65406533D01*
X163658684Y-65406533D02*
X163792017Y-65406533D01*
X163792017Y-65406533D02*
X163858684Y-65373200D01*
X163858684Y-65373200D02*
X163892017Y-65339866D01*
X163892017Y-65339866D02*
X163925350Y-65273200D01*
X163925350Y-65273200D02*
X163925350Y-64706533D01*
X164225350Y-65373200D02*
X164325350Y-65406533D01*
X164325350Y-65406533D02*
X164492017Y-65406533D01*
X164492017Y-65406533D02*
X164558683Y-65373200D01*
X164558683Y-65373200D02*
X164592017Y-65339866D01*
X164592017Y-65339866D02*
X164625350Y-65273200D01*
X164625350Y-65273200D02*
X164625350Y-65206533D01*
X164625350Y-65206533D02*
X164592017Y-65139866D01*
X164592017Y-65139866D02*
X164558683Y-65106533D01*
X164558683Y-65106533D02*
X164492017Y-65073200D01*
X164492017Y-65073200D02*
X164358683Y-65039866D01*
X164358683Y-65039866D02*
X164292017Y-65006533D01*
X164292017Y-65006533D02*
X164258683Y-64973200D01*
X164258683Y-64973200D02*
X164225350Y-64906533D01*
X164225350Y-64906533D02*
X164225350Y-64839866D01*
X164225350Y-64839866D02*
X164258683Y-64773200D01*
X164258683Y-64773200D02*
X164292017Y-64739866D01*
X164292017Y-64739866D02*
X164358683Y-64706533D01*
X164358683Y-64706533D02*
X164525350Y-64706533D01*
X164525350Y-64706533D02*
X164625350Y-64739866D01*
X165592017Y-64706533D02*
X165658683Y-64706533D01*
X165658683Y-64706533D02*
X165725350Y-64739866D01*
X165725350Y-64739866D02*
X165758683Y-64773200D01*
X165758683Y-64773200D02*
X165792017Y-64839866D01*
X165792017Y-64839866D02*
X165825350Y-64973200D01*
X165825350Y-64973200D02*
X165825350Y-65139866D01*
X165825350Y-65139866D02*
X165792017Y-65273200D01*
X165792017Y-65273200D02*
X165758683Y-65339866D01*
X165758683Y-65339866D02*
X165725350Y-65373200D01*
X165725350Y-65373200D02*
X165658683Y-65406533D01*
X165658683Y-65406533D02*
X165592017Y-65406533D01*
X165592017Y-65406533D02*
X165525350Y-65373200D01*
X165525350Y-65373200D02*
X165492017Y-65339866D01*
X165492017Y-65339866D02*
X165458683Y-65273200D01*
X165458683Y-65273200D02*
X165425350Y-65139866D01*
X165425350Y-65139866D02*
X165425350Y-64973200D01*
X165425350Y-64973200D02*
X165458683Y-64839866D01*
X165458683Y-64839866D02*
X165492017Y-64773200D01*
X165492017Y-64773200D02*
X165525350Y-64739866D01*
X165525350Y-64739866D02*
X165592017Y-64706533D01*
X148733333Y-70159580D02*
X148685714Y-70207200D01*
X148685714Y-70207200D02*
X148542857Y-70254819D01*
X148542857Y-70254819D02*
X148447619Y-70254819D01*
X148447619Y-70254819D02*
X148304762Y-70207200D01*
X148304762Y-70207200D02*
X148209524Y-70111961D01*
X148209524Y-70111961D02*
X148161905Y-70016723D01*
X148161905Y-70016723D02*
X148114286Y-69826247D01*
X148114286Y-69826247D02*
X148114286Y-69683390D01*
X148114286Y-69683390D02*
X148161905Y-69492914D01*
X148161905Y-69492914D02*
X148209524Y-69397676D01*
X148209524Y-69397676D02*
X148304762Y-69302438D01*
X148304762Y-69302438D02*
X148447619Y-69254819D01*
X148447619Y-69254819D02*
X148542857Y-69254819D01*
X148542857Y-69254819D02*
X148685714Y-69302438D01*
X148685714Y-69302438D02*
X148733333Y-69350057D01*
X149114286Y-69350057D02*
X149161905Y-69302438D01*
X149161905Y-69302438D02*
X149257143Y-69254819D01*
X149257143Y-69254819D02*
X149495238Y-69254819D01*
X149495238Y-69254819D02*
X149590476Y-69302438D01*
X149590476Y-69302438D02*
X149638095Y-69350057D01*
X149638095Y-69350057D02*
X149685714Y-69445295D01*
X149685714Y-69445295D02*
X149685714Y-69540533D01*
X149685714Y-69540533D02*
X149638095Y-69683390D01*
X149638095Y-69683390D02*
X149066667Y-70254819D01*
X149066667Y-70254819D02*
X149685714Y-70254819D01*
X100322142Y-74749819D02*
X99988809Y-74273628D01*
X99750714Y-74749819D02*
X99750714Y-73749819D01*
X99750714Y-73749819D02*
X100131666Y-73749819D01*
X100131666Y-73749819D02*
X100226904Y-73797438D01*
X100226904Y-73797438D02*
X100274523Y-73845057D01*
X100274523Y-73845057D02*
X100322142Y-73940295D01*
X100322142Y-73940295D02*
X100322142Y-74083152D01*
X100322142Y-74083152D02*
X100274523Y-74178390D01*
X100274523Y-74178390D02*
X100226904Y-74226009D01*
X100226904Y-74226009D02*
X100131666Y-74273628D01*
X100131666Y-74273628D02*
X99750714Y-74273628D01*
X101274523Y-74749819D02*
X100703095Y-74749819D01*
X100988809Y-74749819D02*
X100988809Y-73749819D01*
X100988809Y-73749819D02*
X100893571Y-73892676D01*
X100893571Y-73892676D02*
X100798333Y-73987914D01*
X100798333Y-73987914D02*
X100703095Y-74035533D01*
X101893571Y-73749819D02*
X101988809Y-73749819D01*
X101988809Y-73749819D02*
X102084047Y-73797438D01*
X102084047Y-73797438D02*
X102131666Y-73845057D01*
X102131666Y-73845057D02*
X102179285Y-73940295D01*
X102179285Y-73940295D02*
X102226904Y-74130771D01*
X102226904Y-74130771D02*
X102226904Y-74368866D01*
X102226904Y-74368866D02*
X102179285Y-74559342D01*
X102179285Y-74559342D02*
X102131666Y-74654580D01*
X102131666Y-74654580D02*
X102084047Y-74702200D01*
X102084047Y-74702200D02*
X101988809Y-74749819D01*
X101988809Y-74749819D02*
X101893571Y-74749819D01*
X101893571Y-74749819D02*
X101798333Y-74702200D01*
X101798333Y-74702200D02*
X101750714Y-74654580D01*
X101750714Y-74654580D02*
X101703095Y-74559342D01*
X101703095Y-74559342D02*
X101655476Y-74368866D01*
X101655476Y-74368866D02*
X101655476Y-74130771D01*
X101655476Y-74130771D02*
X101703095Y-73940295D01*
X101703095Y-73940295D02*
X101750714Y-73845057D01*
X101750714Y-73845057D02*
X101798333Y-73797438D01*
X101798333Y-73797438D02*
X101893571Y-73749819D01*
X81272142Y-74749819D02*
X80938809Y-74273628D01*
X80700714Y-74749819D02*
X80700714Y-73749819D01*
X80700714Y-73749819D02*
X81081666Y-73749819D01*
X81081666Y-73749819D02*
X81176904Y-73797438D01*
X81176904Y-73797438D02*
X81224523Y-73845057D01*
X81224523Y-73845057D02*
X81272142Y-73940295D01*
X81272142Y-73940295D02*
X81272142Y-74083152D01*
X81272142Y-74083152D02*
X81224523Y-74178390D01*
X81224523Y-74178390D02*
X81176904Y-74226009D01*
X81176904Y-74226009D02*
X81081666Y-74273628D01*
X81081666Y-74273628D02*
X80700714Y-74273628D01*
X82224523Y-74749819D02*
X81653095Y-74749819D01*
X81938809Y-74749819D02*
X81938809Y-73749819D01*
X81938809Y-73749819D02*
X81843571Y-73892676D01*
X81843571Y-73892676D02*
X81748333Y-73987914D01*
X81748333Y-73987914D02*
X81653095Y-74035533D01*
X83081666Y-73749819D02*
X82891190Y-73749819D01*
X82891190Y-73749819D02*
X82795952Y-73797438D01*
X82795952Y-73797438D02*
X82748333Y-73845057D01*
X82748333Y-73845057D02*
X82653095Y-73987914D01*
X82653095Y-73987914D02*
X82605476Y-74178390D01*
X82605476Y-74178390D02*
X82605476Y-74559342D01*
X82605476Y-74559342D02*
X82653095Y-74654580D01*
X82653095Y-74654580D02*
X82700714Y-74702200D01*
X82700714Y-74702200D02*
X82795952Y-74749819D01*
X82795952Y-74749819D02*
X82986428Y-74749819D01*
X82986428Y-74749819D02*
X83081666Y-74702200D01*
X83081666Y-74702200D02*
X83129285Y-74654580D01*
X83129285Y-74654580D02*
X83176904Y-74559342D01*
X83176904Y-74559342D02*
X83176904Y-74321247D01*
X83176904Y-74321247D02*
X83129285Y-74226009D01*
X83129285Y-74226009D02*
X83081666Y-74178390D01*
X83081666Y-74178390D02*
X82986428Y-74130771D01*
X82986428Y-74130771D02*
X82795952Y-74130771D01*
X82795952Y-74130771D02*
X82700714Y-74178390D01*
X82700714Y-74178390D02*
X82653095Y-74226009D01*
X82653095Y-74226009D02*
X82605476Y-74321247D01*
X169516666Y-42754819D02*
X169516666Y-43469104D01*
X169516666Y-43469104D02*
X169469047Y-43611961D01*
X169469047Y-43611961D02*
X169373809Y-43707200D01*
X169373809Y-43707200D02*
X169230952Y-43754819D01*
X169230952Y-43754819D02*
X169135714Y-43754819D01*
X170516666Y-43754819D02*
X169945238Y-43754819D01*
X170230952Y-43754819D02*
X170230952Y-42754819D01*
X170230952Y-42754819D02*
X170135714Y-42897676D01*
X170135714Y-42897676D02*
X170040476Y-42992914D01*
X170040476Y-42992914D02*
X169945238Y-43040533D01*
X108039819Y-36761904D02*
X108849342Y-36761904D01*
X108849342Y-36761904D02*
X108944580Y-36714285D01*
X108944580Y-36714285D02*
X108992200Y-36666666D01*
X108992200Y-36666666D02*
X109039819Y-36571428D01*
X109039819Y-36571428D02*
X109039819Y-36380952D01*
X109039819Y-36380952D02*
X108992200Y-36285714D01*
X108992200Y-36285714D02*
X108944580Y-36238095D01*
X108944580Y-36238095D02*
X108849342Y-36190476D01*
X108849342Y-36190476D02*
X108039819Y-36190476D01*
X108039819Y-35285714D02*
X108039819Y-35476190D01*
X108039819Y-35476190D02*
X108087438Y-35571428D01*
X108087438Y-35571428D02*
X108135057Y-35619047D01*
X108135057Y-35619047D02*
X108277914Y-35714285D01*
X108277914Y-35714285D02*
X108468390Y-35761904D01*
X108468390Y-35761904D02*
X108849342Y-35761904D01*
X108849342Y-35761904D02*
X108944580Y-35714285D01*
X108944580Y-35714285D02*
X108992200Y-35666666D01*
X108992200Y-35666666D02*
X109039819Y-35571428D01*
X109039819Y-35571428D02*
X109039819Y-35380952D01*
X109039819Y-35380952D02*
X108992200Y-35285714D01*
X108992200Y-35285714D02*
X108944580Y-35238095D01*
X108944580Y-35238095D02*
X108849342Y-35190476D01*
X108849342Y-35190476D02*
X108611247Y-35190476D01*
X108611247Y-35190476D02*
X108516009Y-35238095D01*
X108516009Y-35238095D02*
X108468390Y-35285714D01*
X108468390Y-35285714D02*
X108420771Y-35380952D01*
X108420771Y-35380952D02*
X108420771Y-35571428D01*
X108420771Y-35571428D02*
X108468390Y-35666666D01*
X108468390Y-35666666D02*
X108516009Y-35714285D01*
X108516009Y-35714285D02*
X108611247Y-35761904D01*
X86270180Y-42618095D02*
X85460657Y-42618095D01*
X85460657Y-42618095D02*
X85365419Y-42665714D01*
X85365419Y-42665714D02*
X85317800Y-42713333D01*
X85317800Y-42713333D02*
X85270180Y-42808571D01*
X85270180Y-42808571D02*
X85270180Y-42999047D01*
X85270180Y-42999047D02*
X85317800Y-43094285D01*
X85317800Y-43094285D02*
X85365419Y-43141904D01*
X85365419Y-43141904D02*
X85460657Y-43189523D01*
X85460657Y-43189523D02*
X86270180Y-43189523D01*
X85317800Y-43618095D02*
X85270180Y-43760952D01*
X85270180Y-43760952D02*
X85270180Y-43999047D01*
X85270180Y-43999047D02*
X85317800Y-44094285D01*
X85317800Y-44094285D02*
X85365419Y-44141904D01*
X85365419Y-44141904D02*
X85460657Y-44189523D01*
X85460657Y-44189523D02*
X85555895Y-44189523D01*
X85555895Y-44189523D02*
X85651133Y-44141904D01*
X85651133Y-44141904D02*
X85698752Y-44094285D01*
X85698752Y-44094285D02*
X85746371Y-43999047D01*
X85746371Y-43999047D02*
X85793990Y-43808571D01*
X85793990Y-43808571D02*
X85841609Y-43713333D01*
X85841609Y-43713333D02*
X85889228Y-43665714D01*
X85889228Y-43665714D02*
X85984466Y-43618095D01*
X85984466Y-43618095D02*
X86079704Y-43618095D01*
X86079704Y-43618095D02*
X86174942Y-43665714D01*
X86174942Y-43665714D02*
X86222561Y-43713333D01*
X86222561Y-43713333D02*
X86270180Y-43808571D01*
X86270180Y-43808571D02*
X86270180Y-44046666D01*
X86270180Y-44046666D02*
X86222561Y-44189523D01*
X85793990Y-44951428D02*
X85746371Y-45094285D01*
X85746371Y-45094285D02*
X85698752Y-45141904D01*
X85698752Y-45141904D02*
X85603514Y-45189523D01*
X85603514Y-45189523D02*
X85460657Y-45189523D01*
X85460657Y-45189523D02*
X85365419Y-45141904D01*
X85365419Y-45141904D02*
X85317800Y-45094285D01*
X85317800Y-45094285D02*
X85270180Y-44999047D01*
X85270180Y-44999047D02*
X85270180Y-44618095D01*
X85270180Y-44618095D02*
X86270180Y-44618095D01*
X86270180Y-44618095D02*
X86270180Y-44951428D01*
X86270180Y-44951428D02*
X86222561Y-45046666D01*
X86222561Y-45046666D02*
X86174942Y-45094285D01*
X86174942Y-45094285D02*
X86079704Y-45141904D01*
X86079704Y-45141904D02*
X85984466Y-45141904D01*
X85984466Y-45141904D02*
X85889228Y-45094285D01*
X85889228Y-45094285D02*
X85841609Y-45046666D01*
X85841609Y-45046666D02*
X85793990Y-44951428D01*
X85793990Y-44951428D02*
X85793990Y-44618095D01*
X151338095Y-63824819D02*
X151338095Y-64634342D01*
X151338095Y-64634342D02*
X151385714Y-64729580D01*
X151385714Y-64729580D02*
X151433333Y-64777200D01*
X151433333Y-64777200D02*
X151528571Y-64824819D01*
X151528571Y-64824819D02*
X151719047Y-64824819D01*
X151719047Y-64824819D02*
X151814285Y-64777200D01*
X151814285Y-64777200D02*
X151861904Y-64729580D01*
X151861904Y-64729580D02*
X151909523Y-64634342D01*
X151909523Y-64634342D02*
X151909523Y-63824819D01*
X152338095Y-63920057D02*
X152385714Y-63872438D01*
X152385714Y-63872438D02*
X152480952Y-63824819D01*
X152480952Y-63824819D02*
X152719047Y-63824819D01*
X152719047Y-63824819D02*
X152814285Y-63872438D01*
X152814285Y-63872438D02*
X152861904Y-63920057D01*
X152861904Y-63920057D02*
X152909523Y-64015295D01*
X152909523Y-64015295D02*
X152909523Y-64110533D01*
X152909523Y-64110533D02*
X152861904Y-64253390D01*
X152861904Y-64253390D02*
X152290476Y-64824819D01*
X152290476Y-64824819D02*
X152909523Y-64824819D01*
X151338095Y-70944819D02*
X151338095Y-71754342D01*
X151338095Y-71754342D02*
X151385714Y-71849580D01*
X151385714Y-71849580D02*
X151433333Y-71897200D01*
X151433333Y-71897200D02*
X151528571Y-71944819D01*
X151528571Y-71944819D02*
X151719047Y-71944819D01*
X151719047Y-71944819D02*
X151814285Y-71897200D01*
X151814285Y-71897200D02*
X151861904Y-71849580D01*
X151861904Y-71849580D02*
X151909523Y-71754342D01*
X151909523Y-71754342D02*
X151909523Y-70944819D01*
X152290476Y-70944819D02*
X152909523Y-70944819D01*
X152909523Y-70944819D02*
X152576190Y-71325771D01*
X152576190Y-71325771D02*
X152719047Y-71325771D01*
X152719047Y-71325771D02*
X152814285Y-71373390D01*
X152814285Y-71373390D02*
X152861904Y-71421009D01*
X152861904Y-71421009D02*
X152909523Y-71516247D01*
X152909523Y-71516247D02*
X152909523Y-71754342D01*
X152909523Y-71754342D02*
X152861904Y-71849580D01*
X152861904Y-71849580D02*
X152814285Y-71897200D01*
X152814285Y-71897200D02*
X152719047Y-71944819D01*
X152719047Y-71944819D02*
X152433333Y-71944819D01*
X152433333Y-71944819D02*
X152338095Y-71897200D01*
X152338095Y-71897200D02*
X152290476Y-71849580D01*
X104864819Y-56761904D02*
X105674342Y-56761904D01*
X105674342Y-56761904D02*
X105769580Y-56714285D01*
X105769580Y-56714285D02*
X105817200Y-56666666D01*
X105817200Y-56666666D02*
X105864819Y-56571428D01*
X105864819Y-56571428D02*
X105864819Y-56380952D01*
X105864819Y-56380952D02*
X105817200Y-56285714D01*
X105817200Y-56285714D02*
X105769580Y-56238095D01*
X105769580Y-56238095D02*
X105674342Y-56190476D01*
X105674342Y-56190476D02*
X104864819Y-56190476D01*
X105198152Y-55285714D02*
X105864819Y-55285714D01*
X104817200Y-55523809D02*
X105531485Y-55761904D01*
X105531485Y-55761904D02*
X105531485Y-55142857D01*
X86270180Y-62873095D02*
X85460657Y-62873095D01*
X85460657Y-62873095D02*
X85365419Y-62920714D01*
X85365419Y-62920714D02*
X85317800Y-62968333D01*
X85317800Y-62968333D02*
X85270180Y-63063571D01*
X85270180Y-63063571D02*
X85270180Y-63254047D01*
X85270180Y-63254047D02*
X85317800Y-63349285D01*
X85317800Y-63349285D02*
X85365419Y-63396904D01*
X85365419Y-63396904D02*
X85460657Y-63444523D01*
X85460657Y-63444523D02*
X86270180Y-63444523D01*
X85317800Y-63873095D02*
X85270180Y-64015952D01*
X85270180Y-64015952D02*
X85270180Y-64254047D01*
X85270180Y-64254047D02*
X85317800Y-64349285D01*
X85317800Y-64349285D02*
X85365419Y-64396904D01*
X85365419Y-64396904D02*
X85460657Y-64444523D01*
X85460657Y-64444523D02*
X85555895Y-64444523D01*
X85555895Y-64444523D02*
X85651133Y-64396904D01*
X85651133Y-64396904D02*
X85698752Y-64349285D01*
X85698752Y-64349285D02*
X85746371Y-64254047D01*
X85746371Y-64254047D02*
X85793990Y-64063571D01*
X85793990Y-64063571D02*
X85841609Y-63968333D01*
X85841609Y-63968333D02*
X85889228Y-63920714D01*
X85889228Y-63920714D02*
X85984466Y-63873095D01*
X85984466Y-63873095D02*
X86079704Y-63873095D01*
X86079704Y-63873095D02*
X86174942Y-63920714D01*
X86174942Y-63920714D02*
X86222561Y-63968333D01*
X86222561Y-63968333D02*
X86270180Y-64063571D01*
X86270180Y-64063571D02*
X86270180Y-64301666D01*
X86270180Y-64301666D02*
X86222561Y-64444523D01*
X85793990Y-65206428D02*
X85746371Y-65349285D01*
X85746371Y-65349285D02*
X85698752Y-65396904D01*
X85698752Y-65396904D02*
X85603514Y-65444523D01*
X85603514Y-65444523D02*
X85460657Y-65444523D01*
X85460657Y-65444523D02*
X85365419Y-65396904D01*
X85365419Y-65396904D02*
X85317800Y-65349285D01*
X85317800Y-65349285D02*
X85270180Y-65254047D01*
X85270180Y-65254047D02*
X85270180Y-64873095D01*
X85270180Y-64873095D02*
X86270180Y-64873095D01*
X86270180Y-64873095D02*
X86270180Y-65206428D01*
X86270180Y-65206428D02*
X86222561Y-65301666D01*
X86222561Y-65301666D02*
X86174942Y-65349285D01*
X86174942Y-65349285D02*
X86079704Y-65396904D01*
X86079704Y-65396904D02*
X85984466Y-65396904D01*
X85984466Y-65396904D02*
X85889228Y-65349285D01*
X85889228Y-65349285D02*
X85841609Y-65301666D01*
X85841609Y-65301666D02*
X85793990Y-65206428D01*
X85793990Y-65206428D02*
X85793990Y-64873095D01*
X96623333Y-74749819D02*
X96290000Y-74273628D01*
X96051905Y-74749819D02*
X96051905Y-73749819D01*
X96051905Y-73749819D02*
X96432857Y-73749819D01*
X96432857Y-73749819D02*
X96528095Y-73797438D01*
X96528095Y-73797438D02*
X96575714Y-73845057D01*
X96575714Y-73845057D02*
X96623333Y-73940295D01*
X96623333Y-73940295D02*
X96623333Y-74083152D01*
X96623333Y-74083152D02*
X96575714Y-74178390D01*
X96575714Y-74178390D02*
X96528095Y-74226009D01*
X96528095Y-74226009D02*
X96432857Y-74273628D01*
X96432857Y-74273628D02*
X96051905Y-74273628D01*
X97099524Y-74749819D02*
X97290000Y-74749819D01*
X97290000Y-74749819D02*
X97385238Y-74702200D01*
X97385238Y-74702200D02*
X97432857Y-74654580D01*
X97432857Y-74654580D02*
X97528095Y-74511723D01*
X97528095Y-74511723D02*
X97575714Y-74321247D01*
X97575714Y-74321247D02*
X97575714Y-73940295D01*
X97575714Y-73940295D02*
X97528095Y-73845057D01*
X97528095Y-73845057D02*
X97480476Y-73797438D01*
X97480476Y-73797438D02*
X97385238Y-73749819D01*
X97385238Y-73749819D02*
X97194762Y-73749819D01*
X97194762Y-73749819D02*
X97099524Y-73797438D01*
X97099524Y-73797438D02*
X97051905Y-73845057D01*
X97051905Y-73845057D02*
X97004286Y-73940295D01*
X97004286Y-73940295D02*
X97004286Y-74178390D01*
X97004286Y-74178390D02*
X97051905Y-74273628D01*
X97051905Y-74273628D02*
X97099524Y-74321247D01*
X97099524Y-74321247D02*
X97194762Y-74368866D01*
X97194762Y-74368866D02*
X97385238Y-74368866D01*
X97385238Y-74368866D02*
X97480476Y-74321247D01*
X97480476Y-74321247D02*
X97528095Y-74273628D01*
X97528095Y-74273628D02*
X97575714Y-74178390D01*
X156433333Y-74114819D02*
X156100000Y-73638628D01*
X155861905Y-74114819D02*
X155861905Y-73114819D01*
X155861905Y-73114819D02*
X156242857Y-73114819D01*
X156242857Y-73114819D02*
X156338095Y-73162438D01*
X156338095Y-73162438D02*
X156385714Y-73210057D01*
X156385714Y-73210057D02*
X156433333Y-73305295D01*
X156433333Y-73305295D02*
X156433333Y-73448152D01*
X156433333Y-73448152D02*
X156385714Y-73543390D01*
X156385714Y-73543390D02*
X156338095Y-73591009D01*
X156338095Y-73591009D02*
X156242857Y-73638628D01*
X156242857Y-73638628D02*
X155861905Y-73638628D01*
X156766667Y-73114819D02*
X157385714Y-73114819D01*
X157385714Y-73114819D02*
X157052381Y-73495771D01*
X157052381Y-73495771D02*
X157195238Y-73495771D01*
X157195238Y-73495771D02*
X157290476Y-73543390D01*
X157290476Y-73543390D02*
X157338095Y-73591009D01*
X157338095Y-73591009D02*
X157385714Y-73686247D01*
X157385714Y-73686247D02*
X157385714Y-73924342D01*
X157385714Y-73924342D02*
X157338095Y-74019580D01*
X157338095Y-74019580D02*
X157290476Y-74067200D01*
X157290476Y-74067200D02*
X157195238Y-74114819D01*
X157195238Y-74114819D02*
X156909524Y-74114819D01*
X156909524Y-74114819D02*
X156814286Y-74067200D01*
X156814286Y-74067200D02*
X156766667Y-74019580D01*
X116333333Y-36259580D02*
X116285714Y-36307200D01*
X116285714Y-36307200D02*
X116142857Y-36354819D01*
X116142857Y-36354819D02*
X116047619Y-36354819D01*
X116047619Y-36354819D02*
X115904762Y-36307200D01*
X115904762Y-36307200D02*
X115809524Y-36211961D01*
X115809524Y-36211961D02*
X115761905Y-36116723D01*
X115761905Y-36116723D02*
X115714286Y-35926247D01*
X115714286Y-35926247D02*
X115714286Y-35783390D01*
X115714286Y-35783390D02*
X115761905Y-35592914D01*
X115761905Y-35592914D02*
X115809524Y-35497676D01*
X115809524Y-35497676D02*
X115904762Y-35402438D01*
X115904762Y-35402438D02*
X116047619Y-35354819D01*
X116047619Y-35354819D02*
X116142857Y-35354819D01*
X116142857Y-35354819D02*
X116285714Y-35402438D01*
X116285714Y-35402438D02*
X116333333Y-35450057D01*
X116904762Y-35783390D02*
X116809524Y-35735771D01*
X116809524Y-35735771D02*
X116761905Y-35688152D01*
X116761905Y-35688152D02*
X116714286Y-35592914D01*
X116714286Y-35592914D02*
X116714286Y-35545295D01*
X116714286Y-35545295D02*
X116761905Y-35450057D01*
X116761905Y-35450057D02*
X116809524Y-35402438D01*
X116809524Y-35402438D02*
X116904762Y-35354819D01*
X116904762Y-35354819D02*
X117095238Y-35354819D01*
X117095238Y-35354819D02*
X117190476Y-35402438D01*
X117190476Y-35402438D02*
X117238095Y-35450057D01*
X117238095Y-35450057D02*
X117285714Y-35545295D01*
X117285714Y-35545295D02*
X117285714Y-35592914D01*
X117285714Y-35592914D02*
X117238095Y-35688152D01*
X117238095Y-35688152D02*
X117190476Y-35735771D01*
X117190476Y-35735771D02*
X117095238Y-35783390D01*
X117095238Y-35783390D02*
X116904762Y-35783390D01*
X116904762Y-35783390D02*
X116809524Y-35831009D01*
X116809524Y-35831009D02*
X116761905Y-35878628D01*
X116761905Y-35878628D02*
X116714286Y-35973866D01*
X116714286Y-35973866D02*
X116714286Y-36164342D01*
X116714286Y-36164342D02*
X116761905Y-36259580D01*
X116761905Y-36259580D02*
X116809524Y-36307200D01*
X116809524Y-36307200D02*
X116904762Y-36354819D01*
X116904762Y-36354819D02*
X117095238Y-36354819D01*
X117095238Y-36354819D02*
X117190476Y-36307200D01*
X117190476Y-36307200D02*
X117238095Y-36259580D01*
X117238095Y-36259580D02*
X117285714Y-36164342D01*
X117285714Y-36164342D02*
X117285714Y-35973866D01*
X117285714Y-35973866D02*
X117238095Y-35878628D01*
X117238095Y-35878628D02*
X117190476Y-35831009D01*
X117190476Y-35831009D02*
X117095238Y-35783390D01*
X89881905Y-74734819D02*
X89881905Y-73734819D01*
X89881905Y-73734819D02*
X90120000Y-73734819D01*
X90120000Y-73734819D02*
X90262857Y-73782438D01*
X90262857Y-73782438D02*
X90358095Y-73877676D01*
X90358095Y-73877676D02*
X90405714Y-73972914D01*
X90405714Y-73972914D02*
X90453333Y-74163390D01*
X90453333Y-74163390D02*
X90453333Y-74306247D01*
X90453333Y-74306247D02*
X90405714Y-74496723D01*
X90405714Y-74496723D02*
X90358095Y-74591961D01*
X90358095Y-74591961D02*
X90262857Y-74687200D01*
X90262857Y-74687200D02*
X90120000Y-74734819D01*
X90120000Y-74734819D02*
X89881905Y-74734819D01*
X90786667Y-73734819D02*
X91405714Y-73734819D01*
X91405714Y-73734819D02*
X91072381Y-74115771D01*
X91072381Y-74115771D02*
X91215238Y-74115771D01*
X91215238Y-74115771D02*
X91310476Y-74163390D01*
X91310476Y-74163390D02*
X91358095Y-74211009D01*
X91358095Y-74211009D02*
X91405714Y-74306247D01*
X91405714Y-74306247D02*
X91405714Y-74544342D01*
X91405714Y-74544342D02*
X91358095Y-74639580D01*
X91358095Y-74639580D02*
X91310476Y-74687200D01*
X91310476Y-74687200D02*
X91215238Y-74734819D01*
X91215238Y-74734819D02*
X90929524Y-74734819D01*
X90929524Y-74734819D02*
X90834286Y-74687200D01*
X90834286Y-74687200D02*
X90786667Y-74639580D01*
X85987142Y-74734819D02*
X85653809Y-74258628D01*
X85415714Y-74734819D02*
X85415714Y-73734819D01*
X85415714Y-73734819D02*
X85796666Y-73734819D01*
X85796666Y-73734819D02*
X85891904Y-73782438D01*
X85891904Y-73782438D02*
X85939523Y-73830057D01*
X85939523Y-73830057D02*
X85987142Y-73925295D01*
X85987142Y-73925295D02*
X85987142Y-74068152D01*
X85987142Y-74068152D02*
X85939523Y-74163390D01*
X85939523Y-74163390D02*
X85891904Y-74211009D01*
X85891904Y-74211009D02*
X85796666Y-74258628D01*
X85796666Y-74258628D02*
X85415714Y-74258628D01*
X86939523Y-74734819D02*
X86368095Y-74734819D01*
X86653809Y-74734819D02*
X86653809Y-73734819D01*
X86653809Y-73734819D02*
X86558571Y-73877676D01*
X86558571Y-73877676D02*
X86463333Y-73972914D01*
X86463333Y-73972914D02*
X86368095Y-74020533D01*
X87844285Y-73734819D02*
X87368095Y-73734819D01*
X87368095Y-73734819D02*
X87320476Y-74211009D01*
X87320476Y-74211009D02*
X87368095Y-74163390D01*
X87368095Y-74163390D02*
X87463333Y-74115771D01*
X87463333Y-74115771D02*
X87701428Y-74115771D01*
X87701428Y-74115771D02*
X87796666Y-74163390D01*
X87796666Y-74163390D02*
X87844285Y-74211009D01*
X87844285Y-74211009D02*
X87891904Y-74306247D01*
X87891904Y-74306247D02*
X87891904Y-74544342D01*
X87891904Y-74544342D02*
X87844285Y-74639580D01*
X87844285Y-74639580D02*
X87796666Y-74687200D01*
X87796666Y-74687200D02*
X87701428Y-74734819D01*
X87701428Y-74734819D02*
X87463333Y-74734819D01*
X87463333Y-74734819D02*
X87368095Y-74687200D01*
X87368095Y-74687200D02*
X87320476Y-74639580D01*
X170494819Y-70233333D02*
X171209104Y-70233333D01*
X171209104Y-70233333D02*
X171351961Y-70280952D01*
X171351961Y-70280952D02*
X171447200Y-70376190D01*
X171447200Y-70376190D02*
X171494819Y-70519047D01*
X171494819Y-70519047D02*
X171494819Y-70614285D01*
X170590057Y-69804761D02*
X170542438Y-69757142D01*
X170542438Y-69757142D02*
X170494819Y-69661904D01*
X170494819Y-69661904D02*
X170494819Y-69423809D01*
X170494819Y-69423809D02*
X170542438Y-69328571D01*
X170542438Y-69328571D02*
X170590057Y-69280952D01*
X170590057Y-69280952D02*
X170685295Y-69233333D01*
X170685295Y-69233333D02*
X170780533Y-69233333D01*
X170780533Y-69233333D02*
X170923390Y-69280952D01*
X170923390Y-69280952D02*
X171494819Y-69852380D01*
X171494819Y-69852380D02*
X171494819Y-69233333D01*
X133233333Y-47159580D02*
X133185714Y-47207200D01*
X133185714Y-47207200D02*
X133042857Y-47254819D01*
X133042857Y-47254819D02*
X132947619Y-47254819D01*
X132947619Y-47254819D02*
X132804762Y-47207200D01*
X132804762Y-47207200D02*
X132709524Y-47111961D01*
X132709524Y-47111961D02*
X132661905Y-47016723D01*
X132661905Y-47016723D02*
X132614286Y-46826247D01*
X132614286Y-46826247D02*
X132614286Y-46683390D01*
X132614286Y-46683390D02*
X132661905Y-46492914D01*
X132661905Y-46492914D02*
X132709524Y-46397676D01*
X132709524Y-46397676D02*
X132804762Y-46302438D01*
X132804762Y-46302438D02*
X132947619Y-46254819D01*
X132947619Y-46254819D02*
X133042857Y-46254819D01*
X133042857Y-46254819D02*
X133185714Y-46302438D01*
X133185714Y-46302438D02*
X133233333Y-46350057D01*
X134138095Y-46254819D02*
X133661905Y-46254819D01*
X133661905Y-46254819D02*
X133614286Y-46731009D01*
X133614286Y-46731009D02*
X133661905Y-46683390D01*
X133661905Y-46683390D02*
X133757143Y-46635771D01*
X133757143Y-46635771D02*
X133995238Y-46635771D01*
X133995238Y-46635771D02*
X134090476Y-46683390D01*
X134090476Y-46683390D02*
X134138095Y-46731009D01*
X134138095Y-46731009D02*
X134185714Y-46826247D01*
X134185714Y-46826247D02*
X134185714Y-47064342D01*
X134185714Y-47064342D02*
X134138095Y-47159580D01*
X134138095Y-47159580D02*
X134090476Y-47207200D01*
X134090476Y-47207200D02*
X133995238Y-47254819D01*
X133995238Y-47254819D02*
X133757143Y-47254819D01*
X133757143Y-47254819D02*
X133661905Y-47207200D01*
X133661905Y-47207200D02*
X133614286Y-47159580D01*
X122733333Y-47159580D02*
X122685714Y-47207200D01*
X122685714Y-47207200D02*
X122542857Y-47254819D01*
X122542857Y-47254819D02*
X122447619Y-47254819D01*
X122447619Y-47254819D02*
X122304762Y-47207200D01*
X122304762Y-47207200D02*
X122209524Y-47111961D01*
X122209524Y-47111961D02*
X122161905Y-47016723D01*
X122161905Y-47016723D02*
X122114286Y-46826247D01*
X122114286Y-46826247D02*
X122114286Y-46683390D01*
X122114286Y-46683390D02*
X122161905Y-46492914D01*
X122161905Y-46492914D02*
X122209524Y-46397676D01*
X122209524Y-46397676D02*
X122304762Y-46302438D01*
X122304762Y-46302438D02*
X122447619Y-46254819D01*
X122447619Y-46254819D02*
X122542857Y-46254819D01*
X122542857Y-46254819D02*
X122685714Y-46302438D01*
X122685714Y-46302438D02*
X122733333Y-46350057D01*
X123590476Y-46588152D02*
X123590476Y-47254819D01*
X123352381Y-46207200D02*
X123114286Y-46921485D01*
X123114286Y-46921485D02*
X123733333Y-46921485D01*
X133038095Y-76784819D02*
X133038095Y-77594342D01*
X133038095Y-77594342D02*
X133085714Y-77689580D01*
X133085714Y-77689580D02*
X133133333Y-77737200D01*
X133133333Y-77737200D02*
X133228571Y-77784819D01*
X133228571Y-77784819D02*
X133419047Y-77784819D01*
X133419047Y-77784819D02*
X133514285Y-77737200D01*
X133514285Y-77737200D02*
X133561904Y-77689580D01*
X133561904Y-77689580D02*
X133609523Y-77594342D01*
X133609523Y-77594342D02*
X133609523Y-76784819D01*
X134609523Y-77784819D02*
X134038095Y-77784819D01*
X134323809Y-77784819D02*
X134323809Y-76784819D01*
X134323809Y-76784819D02*
X134228571Y-76927676D01*
X134228571Y-76927676D02*
X134133333Y-77022914D01*
X134133333Y-77022914D02*
X134038095Y-77070533D01*
X122733333Y-37159580D02*
X122685714Y-37207200D01*
X122685714Y-37207200D02*
X122542857Y-37254819D01*
X122542857Y-37254819D02*
X122447619Y-37254819D01*
X122447619Y-37254819D02*
X122304762Y-37207200D01*
X122304762Y-37207200D02*
X122209524Y-37111961D01*
X122209524Y-37111961D02*
X122161905Y-37016723D01*
X122161905Y-37016723D02*
X122114286Y-36826247D01*
X122114286Y-36826247D02*
X122114286Y-36683390D01*
X122114286Y-36683390D02*
X122161905Y-36492914D01*
X122161905Y-36492914D02*
X122209524Y-36397676D01*
X122209524Y-36397676D02*
X122304762Y-36302438D01*
X122304762Y-36302438D02*
X122447619Y-36254819D01*
X122447619Y-36254819D02*
X122542857Y-36254819D01*
X122542857Y-36254819D02*
X122685714Y-36302438D01*
X122685714Y-36302438D02*
X122733333Y-36350057D01*
X123590476Y-36254819D02*
X123400000Y-36254819D01*
X123400000Y-36254819D02*
X123304762Y-36302438D01*
X123304762Y-36302438D02*
X123257143Y-36350057D01*
X123257143Y-36350057D02*
X123161905Y-36492914D01*
X123161905Y-36492914D02*
X123114286Y-36683390D01*
X123114286Y-36683390D02*
X123114286Y-37064342D01*
X123114286Y-37064342D02*
X123161905Y-37159580D01*
X123161905Y-37159580D02*
X123209524Y-37207200D01*
X123209524Y-37207200D02*
X123304762Y-37254819D01*
X123304762Y-37254819D02*
X123495238Y-37254819D01*
X123495238Y-37254819D02*
X123590476Y-37207200D01*
X123590476Y-37207200D02*
X123638095Y-37159580D01*
X123638095Y-37159580D02*
X123685714Y-37064342D01*
X123685714Y-37064342D02*
X123685714Y-36826247D01*
X123685714Y-36826247D02*
X123638095Y-36731009D01*
X123638095Y-36731009D02*
X123590476Y-36683390D01*
X123590476Y-36683390D02*
X123495238Y-36635771D01*
X123495238Y-36635771D02*
X123304762Y-36635771D01*
X123304762Y-36635771D02*
X123209524Y-36683390D01*
X123209524Y-36683390D02*
X123161905Y-36731009D01*
X123161905Y-36731009D02*
X123114286Y-36826247D01*
X137570833Y-48619580D02*
X137523214Y-48667200D01*
X137523214Y-48667200D02*
X137380357Y-48714819D01*
X137380357Y-48714819D02*
X137285119Y-48714819D01*
X137285119Y-48714819D02*
X137142262Y-48667200D01*
X137142262Y-48667200D02*
X137047024Y-48571961D01*
X137047024Y-48571961D02*
X136999405Y-48476723D01*
X136999405Y-48476723D02*
X136951786Y-48286247D01*
X136951786Y-48286247D02*
X136951786Y-48143390D01*
X136951786Y-48143390D02*
X136999405Y-47952914D01*
X136999405Y-47952914D02*
X137047024Y-47857676D01*
X137047024Y-47857676D02*
X137142262Y-47762438D01*
X137142262Y-47762438D02*
X137285119Y-47714819D01*
X137285119Y-47714819D02*
X137380357Y-47714819D01*
X137380357Y-47714819D02*
X137523214Y-47762438D01*
X137523214Y-47762438D02*
X137570833Y-47810057D01*
X138047024Y-48714819D02*
X138237500Y-48714819D01*
X138237500Y-48714819D02*
X138332738Y-48667200D01*
X138332738Y-48667200D02*
X138380357Y-48619580D01*
X138380357Y-48619580D02*
X138475595Y-48476723D01*
X138475595Y-48476723D02*
X138523214Y-48286247D01*
X138523214Y-48286247D02*
X138523214Y-47905295D01*
X138523214Y-47905295D02*
X138475595Y-47810057D01*
X138475595Y-47810057D02*
X138427976Y-47762438D01*
X138427976Y-47762438D02*
X138332738Y-47714819D01*
X138332738Y-47714819D02*
X138142262Y-47714819D01*
X138142262Y-47714819D02*
X138047024Y-47762438D01*
X138047024Y-47762438D02*
X137999405Y-47810057D01*
X137999405Y-47810057D02*
X137951786Y-47905295D01*
X137951786Y-47905295D02*
X137951786Y-48143390D01*
X137951786Y-48143390D02*
X137999405Y-48238628D01*
X137999405Y-48238628D02*
X138047024Y-48286247D01*
X138047024Y-48286247D02*
X138142262Y-48333866D01*
X138142262Y-48333866D02*
X138332738Y-48333866D01*
X138332738Y-48333866D02*
X138427976Y-48286247D01*
X138427976Y-48286247D02*
X138475595Y-48238628D01*
X138475595Y-48238628D02*
X138523214Y-48143390D01*
X156433333Y-76654819D02*
X156100000Y-76178628D01*
X155861905Y-76654819D02*
X155861905Y-75654819D01*
X155861905Y-75654819D02*
X156242857Y-75654819D01*
X156242857Y-75654819D02*
X156338095Y-75702438D01*
X156338095Y-75702438D02*
X156385714Y-75750057D01*
X156385714Y-75750057D02*
X156433333Y-75845295D01*
X156433333Y-75845295D02*
X156433333Y-75988152D01*
X156433333Y-75988152D02*
X156385714Y-76083390D01*
X156385714Y-76083390D02*
X156338095Y-76131009D01*
X156338095Y-76131009D02*
X156242857Y-76178628D01*
X156242857Y-76178628D02*
X155861905Y-76178628D01*
X156814286Y-75750057D02*
X156861905Y-75702438D01*
X156861905Y-75702438D02*
X156957143Y-75654819D01*
X156957143Y-75654819D02*
X157195238Y-75654819D01*
X157195238Y-75654819D02*
X157290476Y-75702438D01*
X157290476Y-75702438D02*
X157338095Y-75750057D01*
X157338095Y-75750057D02*
X157385714Y-75845295D01*
X157385714Y-75845295D02*
X157385714Y-75940533D01*
X157385714Y-75940533D02*
X157338095Y-76083390D01*
X157338095Y-76083390D02*
X156766667Y-76654819D01*
X156766667Y-76654819D02*
X157385714Y-76654819D01*
X111394819Y-44422857D02*
X110918628Y-44756190D01*
X111394819Y-44994285D02*
X110394819Y-44994285D01*
X110394819Y-44994285D02*
X110394819Y-44613333D01*
X110394819Y-44613333D02*
X110442438Y-44518095D01*
X110442438Y-44518095D02*
X110490057Y-44470476D01*
X110490057Y-44470476D02*
X110585295Y-44422857D01*
X110585295Y-44422857D02*
X110728152Y-44422857D01*
X110728152Y-44422857D02*
X110823390Y-44470476D01*
X110823390Y-44470476D02*
X110871009Y-44518095D01*
X110871009Y-44518095D02*
X110918628Y-44613333D01*
X110918628Y-44613333D02*
X110918628Y-44994285D01*
X111394819Y-43470476D02*
X111394819Y-44041904D01*
X111394819Y-43756190D02*
X110394819Y-43756190D01*
X110394819Y-43756190D02*
X110537676Y-43851428D01*
X110537676Y-43851428D02*
X110632914Y-43946666D01*
X110632914Y-43946666D02*
X110680533Y-44041904D01*
X111394819Y-42518095D02*
X111394819Y-43089523D01*
X111394819Y-42803809D02*
X110394819Y-42803809D01*
X110394819Y-42803809D02*
X110537676Y-42899047D01*
X110537676Y-42899047D02*
X110632914Y-42994285D01*
X110632914Y-42994285D02*
X110680533Y-43089523D01*
X133003095Y-52159819D02*
X133003095Y-52969342D01*
X133003095Y-52969342D02*
X133050714Y-53064580D01*
X133050714Y-53064580D02*
X133098333Y-53112200D01*
X133098333Y-53112200D02*
X133193571Y-53159819D01*
X133193571Y-53159819D02*
X133384047Y-53159819D01*
X133384047Y-53159819D02*
X133479285Y-53112200D01*
X133479285Y-53112200D02*
X133526904Y-53064580D01*
X133526904Y-53064580D02*
X133574523Y-52969342D01*
X133574523Y-52969342D02*
X133574523Y-52159819D01*
X134526904Y-52159819D02*
X134050714Y-52159819D01*
X134050714Y-52159819D02*
X134003095Y-52636009D01*
X134003095Y-52636009D02*
X134050714Y-52588390D01*
X134050714Y-52588390D02*
X134145952Y-52540771D01*
X134145952Y-52540771D02*
X134384047Y-52540771D01*
X134384047Y-52540771D02*
X134479285Y-52588390D01*
X134479285Y-52588390D02*
X134526904Y-52636009D01*
X134526904Y-52636009D02*
X134574523Y-52731247D01*
X134574523Y-52731247D02*
X134574523Y-52969342D01*
X134574523Y-52969342D02*
X134526904Y-53064580D01*
X134526904Y-53064580D02*
X134479285Y-53112200D01*
X134479285Y-53112200D02*
X134384047Y-53159819D01*
X134384047Y-53159819D02*
X134145952Y-53159819D01*
X134145952Y-53159819D02*
X134050714Y-53112200D01*
X134050714Y-53112200D02*
X134003095Y-53064580D01*
X156433333Y-69034819D02*
X156100000Y-68558628D01*
X155861905Y-69034819D02*
X155861905Y-68034819D01*
X155861905Y-68034819D02*
X156242857Y-68034819D01*
X156242857Y-68034819D02*
X156338095Y-68082438D01*
X156338095Y-68082438D02*
X156385714Y-68130057D01*
X156385714Y-68130057D02*
X156433333Y-68225295D01*
X156433333Y-68225295D02*
X156433333Y-68368152D01*
X156433333Y-68368152D02*
X156385714Y-68463390D01*
X156385714Y-68463390D02*
X156338095Y-68511009D01*
X156338095Y-68511009D02*
X156242857Y-68558628D01*
X156242857Y-68558628D02*
X155861905Y-68558628D01*
X157338095Y-68034819D02*
X156861905Y-68034819D01*
X156861905Y-68034819D02*
X156814286Y-68511009D01*
X156814286Y-68511009D02*
X156861905Y-68463390D01*
X156861905Y-68463390D02*
X156957143Y-68415771D01*
X156957143Y-68415771D02*
X157195238Y-68415771D01*
X157195238Y-68415771D02*
X157290476Y-68463390D01*
X157290476Y-68463390D02*
X157338095Y-68511009D01*
X157338095Y-68511009D02*
X157385714Y-68606247D01*
X157385714Y-68606247D02*
X157385714Y-68844342D01*
X157385714Y-68844342D02*
X157338095Y-68939580D01*
X157338095Y-68939580D02*
X157290476Y-68987200D01*
X157290476Y-68987200D02*
X157195238Y-69034819D01*
X157195238Y-69034819D02*
X156957143Y-69034819D01*
X156957143Y-69034819D02*
X156861905Y-68987200D01*
X156861905Y-68987200D02*
X156814286Y-68939580D01*
X133233333Y-37159580D02*
X133185714Y-37207200D01*
X133185714Y-37207200D02*
X133042857Y-37254819D01*
X133042857Y-37254819D02*
X132947619Y-37254819D01*
X132947619Y-37254819D02*
X132804762Y-37207200D01*
X132804762Y-37207200D02*
X132709524Y-37111961D01*
X132709524Y-37111961D02*
X132661905Y-37016723D01*
X132661905Y-37016723D02*
X132614286Y-36826247D01*
X132614286Y-36826247D02*
X132614286Y-36683390D01*
X132614286Y-36683390D02*
X132661905Y-36492914D01*
X132661905Y-36492914D02*
X132709524Y-36397676D01*
X132709524Y-36397676D02*
X132804762Y-36302438D01*
X132804762Y-36302438D02*
X132947619Y-36254819D01*
X132947619Y-36254819D02*
X133042857Y-36254819D01*
X133042857Y-36254819D02*
X133185714Y-36302438D01*
X133185714Y-36302438D02*
X133233333Y-36350057D01*
X133566667Y-36254819D02*
X134233333Y-36254819D01*
X134233333Y-36254819D02*
X133804762Y-37254819D01*
X121898095Y-40429819D02*
X121898095Y-41239342D01*
X121898095Y-41239342D02*
X121945714Y-41334580D01*
X121945714Y-41334580D02*
X121993333Y-41382200D01*
X121993333Y-41382200D02*
X122088571Y-41429819D01*
X122088571Y-41429819D02*
X122279047Y-41429819D01*
X122279047Y-41429819D02*
X122374285Y-41382200D01*
X122374285Y-41382200D02*
X122421904Y-41334580D01*
X122421904Y-41334580D02*
X122469523Y-41239342D01*
X122469523Y-41239342D02*
X122469523Y-40429819D01*
X122850476Y-40429819D02*
X123517142Y-40429819D01*
X123517142Y-40429819D02*
X123088571Y-41429819D01*
X135454819Y-42166666D02*
X134978628Y-42499999D01*
X135454819Y-42738094D02*
X134454819Y-42738094D01*
X134454819Y-42738094D02*
X134454819Y-42357142D01*
X134454819Y-42357142D02*
X134502438Y-42261904D01*
X134502438Y-42261904D02*
X134550057Y-42214285D01*
X134550057Y-42214285D02*
X134645295Y-42166666D01*
X134645295Y-42166666D02*
X134788152Y-42166666D01*
X134788152Y-42166666D02*
X134883390Y-42214285D01*
X134883390Y-42214285D02*
X134931009Y-42261904D01*
X134931009Y-42261904D02*
X134978628Y-42357142D01*
X134978628Y-42357142D02*
X134978628Y-42738094D01*
X135454819Y-41214285D02*
X135454819Y-41785713D01*
X135454819Y-41499999D02*
X134454819Y-41499999D01*
X134454819Y-41499999D02*
X134597676Y-41595237D01*
X134597676Y-41595237D02*
X134692914Y-41690475D01*
X134692914Y-41690475D02*
X134740533Y-41785713D01*
X117654819Y-44446666D02*
X117178628Y-44779999D01*
X117654819Y-45018094D02*
X116654819Y-45018094D01*
X116654819Y-45018094D02*
X116654819Y-44637142D01*
X116654819Y-44637142D02*
X116702438Y-44541904D01*
X116702438Y-44541904D02*
X116750057Y-44494285D01*
X116750057Y-44494285D02*
X116845295Y-44446666D01*
X116845295Y-44446666D02*
X116988152Y-44446666D01*
X116988152Y-44446666D02*
X117083390Y-44494285D01*
X117083390Y-44494285D02*
X117131009Y-44541904D01*
X117131009Y-44541904D02*
X117178628Y-44637142D01*
X117178628Y-44637142D02*
X117178628Y-45018094D01*
X116654819Y-43589523D02*
X116654819Y-43779999D01*
X116654819Y-43779999D02*
X116702438Y-43875237D01*
X116702438Y-43875237D02*
X116750057Y-43922856D01*
X116750057Y-43922856D02*
X116892914Y-44018094D01*
X116892914Y-44018094D02*
X117083390Y-44065713D01*
X117083390Y-44065713D02*
X117464342Y-44065713D01*
X117464342Y-44065713D02*
X117559580Y-44018094D01*
X117559580Y-44018094D02*
X117607200Y-43970475D01*
X117607200Y-43970475D02*
X117654819Y-43875237D01*
X117654819Y-43875237D02*
X117654819Y-43684761D01*
X117654819Y-43684761D02*
X117607200Y-43589523D01*
X117607200Y-43589523D02*
X117559580Y-43541904D01*
X117559580Y-43541904D02*
X117464342Y-43494285D01*
X117464342Y-43494285D02*
X117226247Y-43494285D01*
X117226247Y-43494285D02*
X117131009Y-43541904D01*
X117131009Y-43541904D02*
X117083390Y-43589523D01*
X117083390Y-43589523D02*
X117035771Y-43684761D01*
X117035771Y-43684761D02*
X117035771Y-43875237D01*
X117035771Y-43875237D02*
X117083390Y-43970475D01*
X117083390Y-43970475D02*
X117131009Y-44018094D01*
X117131009Y-44018094D02*
X117226247Y-44065713D01*
X115554819Y-44446666D02*
X115078628Y-44779999D01*
X115554819Y-45018094D02*
X114554819Y-45018094D01*
X114554819Y-45018094D02*
X114554819Y-44637142D01*
X114554819Y-44637142D02*
X114602438Y-44541904D01*
X114602438Y-44541904D02*
X114650057Y-44494285D01*
X114650057Y-44494285D02*
X114745295Y-44446666D01*
X114745295Y-44446666D02*
X114888152Y-44446666D01*
X114888152Y-44446666D02*
X114983390Y-44494285D01*
X114983390Y-44494285D02*
X115031009Y-44541904D01*
X115031009Y-44541904D02*
X115078628Y-44637142D01*
X115078628Y-44637142D02*
X115078628Y-45018094D01*
X114554819Y-44113332D02*
X114554819Y-43446666D01*
X114554819Y-43446666D02*
X115554819Y-43875237D01*
X149632200Y-40068332D02*
X149679819Y-39925475D01*
X149679819Y-39925475D02*
X149679819Y-39687380D01*
X149679819Y-39687380D02*
X149632200Y-39592142D01*
X149632200Y-39592142D02*
X149584580Y-39544523D01*
X149584580Y-39544523D02*
X149489342Y-39496904D01*
X149489342Y-39496904D02*
X149394104Y-39496904D01*
X149394104Y-39496904D02*
X149298866Y-39544523D01*
X149298866Y-39544523D02*
X149251247Y-39592142D01*
X149251247Y-39592142D02*
X149203628Y-39687380D01*
X149203628Y-39687380D02*
X149156009Y-39877856D01*
X149156009Y-39877856D02*
X149108390Y-39973094D01*
X149108390Y-39973094D02*
X149060771Y-40020713D01*
X149060771Y-40020713D02*
X148965533Y-40068332D01*
X148965533Y-40068332D02*
X148870295Y-40068332D01*
X148870295Y-40068332D02*
X148775057Y-40020713D01*
X148775057Y-40020713D02*
X148727438Y-39973094D01*
X148727438Y-39973094D02*
X148679819Y-39877856D01*
X148679819Y-39877856D02*
X148679819Y-39639761D01*
X148679819Y-39639761D02*
X148727438Y-39496904D01*
X148679819Y-39163570D02*
X149679819Y-38925475D01*
X149679819Y-38925475D02*
X148965533Y-38734999D01*
X148965533Y-38734999D02*
X149679819Y-38544523D01*
X149679819Y-38544523D02*
X148679819Y-38306428D01*
X149679819Y-37401666D02*
X149679819Y-37973094D01*
X149679819Y-37687380D02*
X148679819Y-37687380D01*
X148679819Y-37687380D02*
X148822676Y-37782618D01*
X148822676Y-37782618D02*
X148917914Y-37877856D01*
X148917914Y-37877856D02*
X148965533Y-37973094D01*
X117818095Y-37354819D02*
X117818095Y-38164342D01*
X117818095Y-38164342D02*
X117865714Y-38259580D01*
X117865714Y-38259580D02*
X117913333Y-38307200D01*
X117913333Y-38307200D02*
X118008571Y-38354819D01*
X118008571Y-38354819D02*
X118199047Y-38354819D01*
X118199047Y-38354819D02*
X118294285Y-38307200D01*
X118294285Y-38307200D02*
X118341904Y-38259580D01*
X118341904Y-38259580D02*
X118389523Y-38164342D01*
X118389523Y-38164342D02*
X118389523Y-37354819D01*
X119008571Y-37783390D02*
X118913333Y-37735771D01*
X118913333Y-37735771D02*
X118865714Y-37688152D01*
X118865714Y-37688152D02*
X118818095Y-37592914D01*
X118818095Y-37592914D02*
X118818095Y-37545295D01*
X118818095Y-37545295D02*
X118865714Y-37450057D01*
X118865714Y-37450057D02*
X118913333Y-37402438D01*
X118913333Y-37402438D02*
X119008571Y-37354819D01*
X119008571Y-37354819D02*
X119199047Y-37354819D01*
X119199047Y-37354819D02*
X119294285Y-37402438D01*
X119294285Y-37402438D02*
X119341904Y-37450057D01*
X119341904Y-37450057D02*
X119389523Y-37545295D01*
X119389523Y-37545295D02*
X119389523Y-37592914D01*
X119389523Y-37592914D02*
X119341904Y-37688152D01*
X119341904Y-37688152D02*
X119294285Y-37735771D01*
X119294285Y-37735771D02*
X119199047Y-37783390D01*
X119199047Y-37783390D02*
X119008571Y-37783390D01*
X119008571Y-37783390D02*
X118913333Y-37831009D01*
X118913333Y-37831009D02*
X118865714Y-37878628D01*
X118865714Y-37878628D02*
X118818095Y-37973866D01*
X118818095Y-37973866D02*
X118818095Y-38164342D01*
X118818095Y-38164342D02*
X118865714Y-38259580D01*
X118865714Y-38259580D02*
X118913333Y-38307200D01*
X118913333Y-38307200D02*
X119008571Y-38354819D01*
X119008571Y-38354819D02*
X119199047Y-38354819D01*
X119199047Y-38354819D02*
X119294285Y-38307200D01*
X119294285Y-38307200D02*
X119341904Y-38259580D01*
X119341904Y-38259580D02*
X119389523Y-38164342D01*
X119389523Y-38164342D02*
X119389523Y-37973866D01*
X119389523Y-37973866D02*
X119341904Y-37878628D01*
X119341904Y-37878628D02*
X119294285Y-37831009D01*
X119294285Y-37831009D02*
X119199047Y-37783390D01*
X140054819Y-53014285D02*
X139054819Y-53014285D01*
X139054819Y-53014285D02*
X139054819Y-52633333D01*
X139054819Y-52633333D02*
X139102438Y-52538095D01*
X139102438Y-52538095D02*
X139150057Y-52490476D01*
X139150057Y-52490476D02*
X139245295Y-52442857D01*
X139245295Y-52442857D02*
X139388152Y-52442857D01*
X139388152Y-52442857D02*
X139483390Y-52490476D01*
X139483390Y-52490476D02*
X139531009Y-52538095D01*
X139531009Y-52538095D02*
X139578628Y-52633333D01*
X139578628Y-52633333D02*
X139578628Y-53014285D01*
X140007200Y-52061904D02*
X140054819Y-51919047D01*
X140054819Y-51919047D02*
X140054819Y-51680952D01*
X140054819Y-51680952D02*
X140007200Y-51585714D01*
X140007200Y-51585714D02*
X139959580Y-51538095D01*
X139959580Y-51538095D02*
X139864342Y-51490476D01*
X139864342Y-51490476D02*
X139769104Y-51490476D01*
X139769104Y-51490476D02*
X139673866Y-51538095D01*
X139673866Y-51538095D02*
X139626247Y-51585714D01*
X139626247Y-51585714D02*
X139578628Y-51680952D01*
X139578628Y-51680952D02*
X139531009Y-51871428D01*
X139531009Y-51871428D02*
X139483390Y-51966666D01*
X139483390Y-51966666D02*
X139435771Y-52014285D01*
X139435771Y-52014285D02*
X139340533Y-52061904D01*
X139340533Y-52061904D02*
X139245295Y-52061904D01*
X139245295Y-52061904D02*
X139150057Y-52014285D01*
X139150057Y-52014285D02*
X139102438Y-51966666D01*
X139102438Y-51966666D02*
X139054819Y-51871428D01*
X139054819Y-51871428D02*
X139054819Y-51633333D01*
X139054819Y-51633333D02*
X139102438Y-51490476D01*
X140054819Y-50538095D02*
X140054819Y-51109523D01*
X140054819Y-50823809D02*
X139054819Y-50823809D01*
X139054819Y-50823809D02*
X139197676Y-50919047D01*
X139197676Y-50919047D02*
X139292914Y-51014285D01*
X139292914Y-51014285D02*
X139340533Y-51109523D01*
X156433333Y-71574819D02*
X156100000Y-71098628D01*
X155861905Y-71574819D02*
X155861905Y-70574819D01*
X155861905Y-70574819D02*
X156242857Y-70574819D01*
X156242857Y-70574819D02*
X156338095Y-70622438D01*
X156338095Y-70622438D02*
X156385714Y-70670057D01*
X156385714Y-70670057D02*
X156433333Y-70765295D01*
X156433333Y-70765295D02*
X156433333Y-70908152D01*
X156433333Y-70908152D02*
X156385714Y-71003390D01*
X156385714Y-71003390D02*
X156338095Y-71051009D01*
X156338095Y-71051009D02*
X156242857Y-71098628D01*
X156242857Y-71098628D02*
X155861905Y-71098628D01*
X157290476Y-70908152D02*
X157290476Y-71574819D01*
X157052381Y-70527200D02*
X156814286Y-71241485D01*
X156814286Y-71241485D02*
X157433333Y-71241485D01*
X113454819Y-44446666D02*
X112978628Y-44779999D01*
X113454819Y-45018094D02*
X112454819Y-45018094D01*
X112454819Y-45018094D02*
X112454819Y-44637142D01*
X112454819Y-44637142D02*
X112502438Y-44541904D01*
X112502438Y-44541904D02*
X112550057Y-44494285D01*
X112550057Y-44494285D02*
X112645295Y-44446666D01*
X112645295Y-44446666D02*
X112788152Y-44446666D01*
X112788152Y-44446666D02*
X112883390Y-44494285D01*
X112883390Y-44494285D02*
X112931009Y-44541904D01*
X112931009Y-44541904D02*
X112978628Y-44637142D01*
X112978628Y-44637142D02*
X112978628Y-45018094D01*
X112883390Y-43875237D02*
X112835771Y-43970475D01*
X112835771Y-43970475D02*
X112788152Y-44018094D01*
X112788152Y-44018094D02*
X112692914Y-44065713D01*
X112692914Y-44065713D02*
X112645295Y-44065713D01*
X112645295Y-44065713D02*
X112550057Y-44018094D01*
X112550057Y-44018094D02*
X112502438Y-43970475D01*
X112502438Y-43970475D02*
X112454819Y-43875237D01*
X112454819Y-43875237D02*
X112454819Y-43684761D01*
X112454819Y-43684761D02*
X112502438Y-43589523D01*
X112502438Y-43589523D02*
X112550057Y-43541904D01*
X112550057Y-43541904D02*
X112645295Y-43494285D01*
X112645295Y-43494285D02*
X112692914Y-43494285D01*
X112692914Y-43494285D02*
X112788152Y-43541904D01*
X112788152Y-43541904D02*
X112835771Y-43589523D01*
X112835771Y-43589523D02*
X112883390Y-43684761D01*
X112883390Y-43684761D02*
X112883390Y-43875237D01*
X112883390Y-43875237D02*
X112931009Y-43970475D01*
X112931009Y-43970475D02*
X112978628Y-44018094D01*
X112978628Y-44018094D02*
X113073866Y-44065713D01*
X113073866Y-44065713D02*
X113264342Y-44065713D01*
X113264342Y-44065713D02*
X113359580Y-44018094D01*
X113359580Y-44018094D02*
X113407200Y-43970475D01*
X113407200Y-43970475D02*
X113454819Y-43875237D01*
X113454819Y-43875237D02*
X113454819Y-43684761D01*
X113454819Y-43684761D02*
X113407200Y-43589523D01*
X113407200Y-43589523D02*
X113359580Y-43541904D01*
X113359580Y-43541904D02*
X113264342Y-43494285D01*
X113264342Y-43494285D02*
X113073866Y-43494285D01*
X113073866Y-43494285D02*
X112978628Y-43541904D01*
X112978628Y-43541904D02*
X112931009Y-43589523D01*
X112931009Y-43589523D02*
X112883390Y-43684761D01*
X148733333Y-62859580D02*
X148685714Y-62907200D01*
X148685714Y-62907200D02*
X148542857Y-62954819D01*
X148542857Y-62954819D02*
X148447619Y-62954819D01*
X148447619Y-62954819D02*
X148304762Y-62907200D01*
X148304762Y-62907200D02*
X148209524Y-62811961D01*
X148209524Y-62811961D02*
X148161905Y-62716723D01*
X148161905Y-62716723D02*
X148114286Y-62526247D01*
X148114286Y-62526247D02*
X148114286Y-62383390D01*
X148114286Y-62383390D02*
X148161905Y-62192914D01*
X148161905Y-62192914D02*
X148209524Y-62097676D01*
X148209524Y-62097676D02*
X148304762Y-62002438D01*
X148304762Y-62002438D02*
X148447619Y-61954819D01*
X148447619Y-61954819D02*
X148542857Y-61954819D01*
X148542857Y-61954819D02*
X148685714Y-62002438D01*
X148685714Y-62002438D02*
X148733333Y-62050057D01*
X149066667Y-61954819D02*
X149685714Y-61954819D01*
X149685714Y-61954819D02*
X149352381Y-62335771D01*
X149352381Y-62335771D02*
X149495238Y-62335771D01*
X149495238Y-62335771D02*
X149590476Y-62383390D01*
X149590476Y-62383390D02*
X149638095Y-62431009D01*
X149638095Y-62431009D02*
X149685714Y-62526247D01*
X149685714Y-62526247D02*
X149685714Y-62764342D01*
X149685714Y-62764342D02*
X149638095Y-62859580D01*
X149638095Y-62859580D02*
X149590476Y-62907200D01*
X149590476Y-62907200D02*
X149495238Y-62954819D01*
X149495238Y-62954819D02*
X149209524Y-62954819D01*
X149209524Y-62954819D02*
X149114286Y-62907200D01*
X149114286Y-62907200D02*
X149066667Y-62859580D01*
X148733333Y-77259580D02*
X148685714Y-77307200D01*
X148685714Y-77307200D02*
X148542857Y-77354819D01*
X148542857Y-77354819D02*
X148447619Y-77354819D01*
X148447619Y-77354819D02*
X148304762Y-77307200D01*
X148304762Y-77307200D02*
X148209524Y-77211961D01*
X148209524Y-77211961D02*
X148161905Y-77116723D01*
X148161905Y-77116723D02*
X148114286Y-76926247D01*
X148114286Y-76926247D02*
X148114286Y-76783390D01*
X148114286Y-76783390D02*
X148161905Y-76592914D01*
X148161905Y-76592914D02*
X148209524Y-76497676D01*
X148209524Y-76497676D02*
X148304762Y-76402438D01*
X148304762Y-76402438D02*
X148447619Y-76354819D01*
X148447619Y-76354819D02*
X148542857Y-76354819D01*
X148542857Y-76354819D02*
X148685714Y-76402438D01*
X148685714Y-76402438D02*
X148733333Y-76450057D01*
X149685714Y-77354819D02*
X149114286Y-77354819D01*
X149400000Y-77354819D02*
X149400000Y-76354819D01*
X149400000Y-76354819D02*
X149304762Y-76497676D01*
X149304762Y-76497676D02*
X149209524Y-76592914D01*
X149209524Y-76592914D02*
X149114286Y-76640533D01*
D13*
%TO.C,C2*%
X152361252Y-70535000D02*
X151838748Y-70535000D01*
X152361252Y-69065000D02*
X151838748Y-69065000D01*
%TO.C,R10*%
X101192064Y-76665000D02*
X100737936Y-76665000D01*
X101192064Y-75195000D02*
X100737936Y-75195000D01*
%TO.C,R16*%
X82412064Y-76665000D02*
X81957936Y-76665000D01*
X82412064Y-75195000D02*
X81957936Y-75195000D01*
%TO.C,J1*%
X179060000Y-51800000D02*
X179060000Y-42580000D01*
X179060000Y-51800000D02*
X164540000Y-51800000D01*
X179060000Y-42580000D02*
X177260000Y-42580000D01*
X177500000Y-36680000D02*
X177500000Y-34940000D01*
X177500000Y-34940000D02*
X176000000Y-34940000D01*
X177260000Y-42580000D02*
X177260000Y-35180000D01*
X177260000Y-36740000D02*
X162440000Y-36740000D01*
X177260000Y-35180000D02*
X162440000Y-35180000D01*
X164540000Y-51800000D02*
X164540000Y-42700000D01*
X164540000Y-42700000D02*
X162440000Y-42700000D01*
X162440000Y-42700000D02*
X162440000Y-35180000D01*
X176532000Y-39448000D02*
G75*
G03*
X176532109Y-38232258I-1432000J608000D01*
G01*
X174492000Y-40272000D02*
G75*
G03*
X175707742Y-40272109I608000J1432000D01*
G01*
X175708000Y-37408001D02*
G75*
G03*
X175072989Y-37284508I-607998J-1431987D01*
G01*
X175100000Y-37285001D02*
G75*
G03*
X174492413Y-37408616I0J-1554999D01*
G01*
X173668000Y-38232000D02*
G75*
G03*
X173667891Y-39447742I1432003J-607999D01*
G01*
X173155000Y-38840000D02*
G75*
G03*
X170045000Y-38840000I-1555000J0D01*
G01*
X170045000Y-38840000D02*
G75*
G03*
X173155000Y-38840000I1555000J0D01*
G01*
X169655000Y-38840000D02*
G75*
G03*
X166545000Y-38840000I-1555000J0D01*
G01*
X166545000Y-38840000D02*
G75*
G03*
X169655000Y-38840000I1555000J0D01*
G01*
X166155000Y-38840000D02*
G75*
G03*
X163045000Y-38840000I-1555000J0D01*
G01*
X163045000Y-38840000D02*
G75*
G03*
X166155000Y-38840000I1555000J0D01*
G01*
%TO.C,U6*%
X106935000Y-34860000D02*
X102235000Y-34860000D01*
X102235000Y-34860000D02*
X81555000Y-34860000D01*
X81555000Y-34860000D02*
X81555000Y-39250000D01*
X104775000Y-37530000D02*
X104775000Y-34860000D01*
X99695000Y-37530000D02*
X104775000Y-37530000D01*
X99695000Y-37530000D02*
X81915000Y-37530000D01*
X81915000Y-37530000D02*
X81915000Y-34860000D01*
X87815000Y-39250000D02*
X87815000Y-48510000D01*
X80255000Y-39250000D02*
X87815000Y-39250000D01*
X87815000Y-48510000D02*
X80255000Y-48510000D01*
X80255000Y-48510000D02*
X80255000Y-39250000D01*
X104775000Y-50230000D02*
X84455000Y-50230000D01*
X104775000Y-50230000D02*
X104775000Y-52900000D01*
D10*
X84455000Y-50230000D02*
X84455000Y-52900000D01*
D13*
X84455000Y-50230000D02*
X84455000Y-52900000D01*
X106935000Y-52900000D02*
X106935000Y-34860000D01*
X81555000Y-52900000D02*
X81555000Y-48510000D01*
X81555000Y-52900000D02*
X106935000Y-52900000D01*
%TO.C,U2*%
X151200000Y-68510000D02*
X153000000Y-68510000D01*
X152200000Y-65290000D02*
X151400000Y-65290000D01*
X152200000Y-65290000D02*
X153000000Y-65290000D01*
X150900000Y-65340000D02*
X150660000Y-65010000D01*
X151140000Y-65010000D01*
X150900000Y-65340000D01*
G36*
X150900000Y-65340000D02*
G01*
X150660000Y-65010000D01*
X151140000Y-65010000D01*
X150900000Y-65340000D01*
G37*
%TO.C,U3*%
X151200000Y-75610000D02*
X153000000Y-75610000D01*
X152200000Y-72390000D02*
X151400000Y-72390000D01*
X152200000Y-72390000D02*
X153000000Y-72390000D01*
X150900000Y-72440000D02*
X150660000Y-72110000D01*
X151140000Y-72110000D01*
X150900000Y-72440000D01*
G36*
X150900000Y-72440000D02*
G01*
X150660000Y-72110000D01*
X151140000Y-72110000D01*
X150900000Y-72440000D01*
G37*
%TO.C,U4*%
X104395000Y-55115000D02*
X102235000Y-55115000D01*
X102235000Y-55115000D02*
X81555000Y-55115000D01*
X81555000Y-55115000D02*
X81555000Y-59505000D01*
X102235000Y-57785000D02*
X102235000Y-55115000D01*
X99695000Y-57785000D02*
X102235000Y-57785000D01*
X99695000Y-57785000D02*
X81915000Y-57785000D01*
X81915000Y-57785000D02*
X81915000Y-55115000D01*
X87815000Y-59505000D02*
X87815000Y-68765000D01*
X80255000Y-59505000D02*
X87815000Y-59505000D01*
X87815000Y-68765000D02*
X80255000Y-68765000D01*
X80255000Y-68765000D02*
X80255000Y-59505000D01*
X102235000Y-70485000D02*
X84455000Y-70485000D01*
X102235000Y-70485000D02*
X102235000Y-73155000D01*
D10*
X84455000Y-70485000D02*
X84455000Y-73155000D01*
D13*
X84455000Y-70485000D02*
X84455000Y-73155000D01*
X104395000Y-73155000D02*
X104395000Y-55115000D01*
X81555000Y-73155000D02*
X81555000Y-68765000D01*
X81555000Y-73155000D02*
X104395000Y-73155000D01*
%TO.C,R9*%
X97382064Y-76665000D02*
X96927936Y-76665000D01*
X97382064Y-75195000D02*
X96927936Y-75195000D01*
%TO.C,R3*%
X159272936Y-72925000D02*
X159727064Y-72925000D01*
X159272936Y-74395000D02*
X159727064Y-74395000D01*
%TO.C,C8*%
X113761252Y-36635000D02*
X113238748Y-36635000D01*
X113761252Y-35165000D02*
X113238748Y-35165000D01*
%TO.C,D3*%
X89190000Y-74970000D02*
X89190000Y-76890000D01*
X89190000Y-76890000D02*
X92050000Y-76890000D01*
X92050000Y-74970000D02*
X89190000Y-74970000D01*
%TO.C,R15*%
X86402936Y-75195000D02*
X86857064Y-75195000D01*
X86402936Y-76665000D02*
X86857064Y-76665000D01*
%TO.C,J2*%
X162540000Y-77360000D02*
X171760000Y-77360000D01*
X162540000Y-77360000D02*
X162540000Y-66340000D01*
X171760000Y-77360000D02*
X171760000Y-75560000D01*
X177660000Y-75800000D02*
X179400000Y-75800000D01*
X179400000Y-75800000D02*
X179400000Y-74300000D01*
X171760000Y-75560000D02*
X179160000Y-75560000D01*
X177600000Y-75560000D02*
X177600000Y-64240000D01*
X179160000Y-75560000D02*
X179160000Y-64240000D01*
X162540000Y-66340000D02*
X171640000Y-66340000D01*
X171640000Y-66340000D02*
X171640000Y-64240000D01*
X171640000Y-64240000D02*
X179160000Y-64240000D01*
X174892000Y-74832000D02*
G75*
G03*
X176107742Y-74832109I608000J1432000D01*
G01*
X174068000Y-72792000D02*
G75*
G03*
X174067891Y-74007742I1432000J-608000D01*
G01*
X176931999Y-74008000D02*
G75*
G03*
X177055492Y-73372989I-1431987J607998D01*
G01*
X177054999Y-73400000D02*
G75*
G03*
X176931384Y-72792413I-1554999J0D01*
G01*
X176108000Y-71968000D02*
G75*
G03*
X174892258Y-71967891I-607999J-1432003D01*
G01*
X177055000Y-69900000D02*
G75*
G03*
X173945000Y-69900000I-1555000J0D01*
G01*
X173945000Y-69900000D02*
G75*
G03*
X177055000Y-69900000I1555000J0D01*
G01*
X177055000Y-66400000D02*
G75*
G03*
X173945000Y-66400000I-1555000J0D01*
G01*
X173945000Y-66400000D02*
G75*
G03*
X177055000Y-66400000I1555000J0D01*
G01*
%TO.C,C5*%
X130698752Y-47535000D02*
X130176248Y-47535000D01*
X130698752Y-46065000D02*
X130176248Y-46065000D01*
%TO.C,C4*%
X125561248Y-46065000D02*
X126083752Y-46065000D01*
X125561248Y-47535000D02*
X126083752Y-47535000D01*
%TO.C,U1*%
X144560000Y-77460000D02*
X144560000Y-77205000D01*
X144560000Y-66940000D02*
X144560000Y-67195000D01*
X140700000Y-77460000D02*
X144560000Y-77460000D01*
X140700000Y-77460000D02*
X136840000Y-77460000D01*
X140700000Y-66940000D02*
X144560000Y-66940000D01*
X140700000Y-66940000D02*
X136840000Y-66940000D01*
X136840000Y-77460000D02*
X136840000Y-77205000D01*
X136840000Y-66940000D02*
X136840000Y-67195000D01*
X145752500Y-77675000D02*
X145072500Y-77675000D01*
X145412500Y-77205000D01*
X145752500Y-77675000D01*
G36*
X145752500Y-77675000D02*
G01*
X145072500Y-77675000D01*
X145412500Y-77205000D01*
X145752500Y-77675000D01*
G37*
%TO.C,C6*%
X125561248Y-36065000D02*
X126083752Y-36065000D01*
X125561248Y-37535000D02*
X126083752Y-37535000D01*
%TO.C,C9*%
X136961252Y-51735000D02*
X136438748Y-51735000D01*
X136961252Y-50265000D02*
X136438748Y-50265000D01*
%TO.C,R2*%
X159272936Y-75465000D02*
X159727064Y-75465000D01*
X159272936Y-76935000D02*
X159727064Y-76935000D01*
%TO.C,R11*%
X110205000Y-47227064D02*
X110205000Y-46772936D01*
X111675000Y-47227064D02*
X111675000Y-46772936D01*
%TO.C,U5*%
X107810000Y-50070000D02*
X107810000Y-77330000D01*
X107810000Y-54870000D02*
X132810000Y-54870000D01*
X107810000Y-71730000D02*
X132810000Y-71730000D01*
X107810000Y-77330000D02*
X132810000Y-77330000D01*
X132810000Y-50070000D02*
X107810000Y-50070000D01*
X132810000Y-50070000D02*
X132810000Y-77330000D01*
D10*
X111310000Y-52200000D02*
G75*
G03*
X108310000Y-52200000I-1500000J0D01*
G01*
X108310000Y-52200000D02*
G75*
G03*
X111310000Y-52200000I1500000J0D01*
G01*
X111310000Y-75200000D02*
G75*
G03*
X108310000Y-75200000I-1500000J0D01*
G01*
X108310000Y-75200000D02*
G75*
G03*
X111310000Y-75200000I1500000J0D01*
G01*
X132310000Y-52200000D02*
G75*
G03*
X129310000Y-52200000I-1500000J0D01*
G01*
X129310000Y-52200000D02*
G75*
G03*
X132310000Y-52200000I1500000J0D01*
G01*
X132310000Y-75200000D02*
G75*
G03*
X129310000Y-75200000I-1500000J0D01*
G01*
X129310000Y-75200000D02*
G75*
G03*
X132310000Y-75200000I1500000J0D01*
G01*
D13*
%TO.C,R5*%
X159272936Y-67845000D02*
X159727064Y-67845000D01*
X159272936Y-69315000D02*
X159727064Y-69315000D01*
%TO.C,C7*%
X130698752Y-37535000D02*
X130176248Y-37535000D01*
X130698752Y-36065000D02*
X130176248Y-36065000D01*
%TO.C,U7*%
X126550000Y-38390000D02*
X130310000Y-38390000D01*
X126550000Y-45210000D02*
X130310000Y-45210000D01*
X130310000Y-38390000D02*
X130310000Y-39650000D01*
X130310000Y-45210000D02*
X130310000Y-43950000D01*
X125270000Y-38490000D02*
X125030000Y-38160000D01*
X125510000Y-38160000D01*
X125270000Y-38490000D01*
G36*
X125270000Y-38490000D02*
G01*
X125030000Y-38160000D01*
X125510000Y-38160000D01*
X125270000Y-38490000D01*
G37*
%TO.C,R1*%
X137895000Y-41412936D02*
X137895000Y-41867064D01*
X136425000Y-41412936D02*
X136425000Y-41867064D01*
%TO.C,R6*%
X117935000Y-46772936D02*
X117935000Y-47227064D01*
X116465000Y-46772936D02*
X116465000Y-47227064D01*
%TO.C,R7*%
X115835000Y-46772936D02*
X115835000Y-47227064D01*
X114365000Y-46772936D02*
X114365000Y-47227064D01*
%TO.C,SW1*%
X141260000Y-45305000D02*
X141260000Y-38845000D01*
X141290000Y-45305000D02*
X141260000Y-45305000D01*
X143190000Y-45305000D02*
X145790000Y-45305000D01*
X147720000Y-45305000D02*
X147690000Y-45305000D01*
X147720000Y-45305000D02*
X147720000Y-38845000D01*
X141260000Y-38845000D02*
X141290000Y-38845000D01*
X143190000Y-38845000D02*
X145790000Y-38845000D01*
X147720000Y-38845000D02*
X147690000Y-38845000D01*
%TO.C,U8*%
X113500000Y-37240000D02*
X111550000Y-37240000D01*
X113500000Y-37240000D02*
X115450000Y-37240000D01*
X113500000Y-42360000D02*
X111550000Y-42360000D01*
X113500000Y-42360000D02*
X115450000Y-42360000D01*
X110800000Y-37335000D02*
X110560000Y-37005000D01*
X111040000Y-37005000D01*
X110800000Y-37335000D01*
G36*
X110800000Y-37335000D02*
G01*
X110560000Y-37005000D01*
X111040000Y-37005000D01*
X110800000Y-37335000D01*
G37*
%TO.C,PS1*%
X133585000Y-65790000D02*
X133585000Y-55715000D01*
X147085000Y-62665000D02*
X147085000Y-56715000D01*
%TO.C,R4*%
X159272936Y-70385000D02*
X159727064Y-70385000D01*
X159272936Y-71855000D02*
X159727064Y-71855000D01*
%TO.C,R8*%
X112265000Y-47227064D02*
X112265000Y-46772936D01*
X113735000Y-47227064D02*
X113735000Y-46772936D01*
%TO.C,C3*%
X152361252Y-63235000D02*
X151838748Y-63235000D01*
X152361252Y-61765000D02*
X151838748Y-61765000D01*
%TO.C,C1*%
X152361252Y-77635000D02*
X151838748Y-77635000D01*
X152361252Y-76165000D02*
X151838748Y-76165000D01*
%TD*%
D14*
X79760000Y-34500000D02*
X179760000Y-34500000D01*
X179760000Y-84500000D01*
X79760000Y-84500000D01*
X79760000Y-34500000D01*
M02*
