%TF.GenerationSoftware,KiCad,Pcbnew,6.0.11-2627ca5db0~126~ubuntu20.04.1*%
%TF.CreationDate,2024-02-25T19:14:14-05:00*%
%TF.ProjectId,,58585858-5858-4585-9858-585858585858,rev?*%
%TF.SameCoordinates,Original*%
%TF.FileFunction,Legend,Bot*%
%TF.FilePolarity,Positive*%
%FSLAX46Y46*%
G04 Gerber Fmt 4.6, Leading zero omitted, Abs format (unit mm)*
G04 Created by KiCad (PCBNEW 6.0.11-2627ca5db0~126~ubuntu20.04.1) date 2024-02-25 19:14:14*
%MOMM*%
%LPD*%
G01*
G04 APERTURE LIST*
%ADD10C,0.250000*%
%TA.AperFunction,Profile*%
%ADD11C,0.100000*%
%TD*%
%ADD12C,0.150000*%
G04 APERTURE END LIST*
D10*
X107970809Y-124779371D02*
X107637476Y-124779371D01*
X107494619Y-125303180D02*
X107970809Y-125303180D01*
X107970809Y-124303180D01*
X107494619Y-124303180D01*
X107066047Y-125303180D02*
X107066047Y-124303180D01*
X106494619Y-125303180D01*
X106494619Y-124303180D01*
X106066047Y-125017466D02*
X105589857Y-125017466D01*
X106161285Y-125303180D02*
X105827952Y-124303180D01*
X105494619Y-125303180D01*
X104827952Y-124779371D02*
X104685095Y-124826990D01*
X104637476Y-124874609D01*
X104589857Y-124969847D01*
X104589857Y-125112704D01*
X104637476Y-125207942D01*
X104685095Y-125255561D01*
X104780333Y-125303180D01*
X105161285Y-125303180D01*
X105161285Y-124303180D01*
X104827952Y-124303180D01*
X104732714Y-124350800D01*
X104685095Y-124398419D01*
X104637476Y-124493657D01*
X104637476Y-124588895D01*
X104685095Y-124684133D01*
X104732714Y-124731752D01*
X104827952Y-124779371D01*
X105161285Y-124779371D01*
X103685095Y-125303180D02*
X104161285Y-125303180D01*
X104161285Y-124303180D01*
X103351761Y-124779371D02*
X103018428Y-124779371D01*
X102875571Y-125303180D02*
X103351761Y-125303180D01*
X103351761Y-124303180D01*
X102875571Y-124303180D01*
X108158104Y-121543980D02*
X108158104Y-120543980D01*
X107777152Y-120543980D01*
X107681914Y-120591600D01*
X107634295Y-120639219D01*
X107586676Y-120734457D01*
X107586676Y-120877314D01*
X107634295Y-120972552D01*
X107681914Y-121020171D01*
X107777152Y-121067790D01*
X108158104Y-121067790D01*
X106681914Y-121543980D02*
X107158104Y-121543980D01*
X107158104Y-120543980D01*
X105872390Y-121543980D02*
X106348580Y-121543980D01*
X106348580Y-120543980D01*
X105539057Y-121163028D02*
X104777152Y-121163028D01*
X104300961Y-121543980D02*
X104300961Y-120543980D01*
X104062866Y-120543980D01*
X103920009Y-120591600D01*
X103824771Y-120686838D01*
X103777152Y-120782076D01*
X103729533Y-120972552D01*
X103729533Y-121115409D01*
X103777152Y-121305885D01*
X103824771Y-121401123D01*
X103920009Y-121496361D01*
X104062866Y-121543980D01*
X104300961Y-121543980D01*
X103396200Y-120543980D02*
X103158104Y-121543980D01*
X102967628Y-120829695D01*
X102777152Y-121543980D01*
X102539057Y-120543980D01*
X101098733Y-112926780D02*
X101098733Y-113641066D01*
X101146352Y-113783923D01*
X101241590Y-113879161D01*
X101384447Y-113926780D01*
X101479685Y-113926780D01*
X100622542Y-113926780D02*
X100622542Y-112926780D01*
X100241590Y-112926780D01*
X100146352Y-112974400D01*
X100098733Y-113022019D01*
X100051114Y-113117257D01*
X100051114Y-113260114D01*
X100098733Y-113355352D01*
X100146352Y-113402971D01*
X100241590Y-113450590D01*
X100622542Y-113450590D01*
X99670161Y-113022019D02*
X99622542Y-112974400D01*
X99527304Y-112926780D01*
X99289209Y-112926780D01*
X99193971Y-112974400D01*
X99146352Y-113022019D01*
X99098733Y-113117257D01*
X99098733Y-113212495D01*
X99146352Y-113355352D01*
X99717780Y-113926780D01*
X99098733Y-113926780D01*
X108059685Y-113926780D02*
X108059685Y-112926780D01*
X107678733Y-112926780D01*
X107583495Y-112974400D01*
X107535876Y-113022019D01*
X107488257Y-113117257D01*
X107488257Y-113260114D01*
X107535876Y-113355352D01*
X107583495Y-113402971D01*
X107678733Y-113450590D01*
X108059685Y-113450590D01*
X106583495Y-113926780D02*
X107059685Y-113926780D01*
X107059685Y-112926780D01*
X105773971Y-113926780D02*
X106250161Y-113926780D01*
X106250161Y-112926780D01*
X105440638Y-113545828D02*
X104678733Y-113545828D01*
X104202542Y-112926780D02*
X104202542Y-113736304D01*
X104154923Y-113831542D01*
X104107304Y-113879161D01*
X104012066Y-113926780D01*
X103821590Y-113926780D01*
X103726352Y-113879161D01*
X103678733Y-113831542D01*
X103631114Y-113736304D01*
X103631114Y-112926780D01*
X103154923Y-113926780D02*
X103154923Y-112926780D01*
X102773971Y-112926780D01*
X102678733Y-112974400D01*
X102631114Y-113022019D01*
X102583495Y-113117257D01*
X102583495Y-113260114D01*
X102631114Y-113355352D01*
X102678733Y-113402971D01*
X102773971Y-113450590D01*
X103154923Y-113450590D01*
X100873019Y-117221542D02*
X100920638Y-117269161D01*
X101063495Y-117316780D01*
X101158733Y-117316780D01*
X101301590Y-117269161D01*
X101396828Y-117173923D01*
X101444447Y-117078685D01*
X101492066Y-116888209D01*
X101492066Y-116745352D01*
X101444447Y-116554876D01*
X101396828Y-116459638D01*
X101301590Y-116364400D01*
X101158733Y-116316780D01*
X101063495Y-116316780D01*
X100920638Y-116364400D01*
X100873019Y-116412019D01*
X99968257Y-117316780D02*
X100444447Y-117316780D01*
X100444447Y-116316780D01*
X99444447Y-116316780D02*
X99253971Y-116316780D01*
X99158733Y-116364400D01*
X99063495Y-116459638D01*
X99015876Y-116650114D01*
X99015876Y-116983447D01*
X99063495Y-117173923D01*
X99158733Y-117269161D01*
X99253971Y-117316780D01*
X99444447Y-117316780D01*
X99539685Y-117269161D01*
X99634923Y-117173923D01*
X99682542Y-116983447D01*
X99682542Y-116650114D01*
X99634923Y-116459638D01*
X99539685Y-116364400D01*
X99444447Y-116316780D01*
X98634923Y-117269161D02*
X98492066Y-117316780D01*
X98253971Y-117316780D01*
X98158733Y-117269161D01*
X98111114Y-117221542D01*
X98063495Y-117126304D01*
X98063495Y-117031066D01*
X98111114Y-116935828D01*
X98158733Y-116888209D01*
X98253971Y-116840590D01*
X98444447Y-116792971D01*
X98539685Y-116745352D01*
X98587304Y-116697733D01*
X98634923Y-116602495D01*
X98634923Y-116507257D01*
X98587304Y-116412019D01*
X98539685Y-116364400D01*
X98444447Y-116316780D01*
X98206352Y-116316780D01*
X98063495Y-116364400D01*
X97634923Y-116792971D02*
X97301590Y-116792971D01*
X97158733Y-117316780D02*
X97634923Y-117316780D01*
X97634923Y-116316780D01*
X97158733Y-116316780D01*
X100896828Y-122416780D02*
X100706352Y-122416780D01*
X100611114Y-122464400D01*
X100515876Y-122559638D01*
X100468257Y-122750114D01*
X100468257Y-123083447D01*
X100515876Y-123273923D01*
X100611114Y-123369161D01*
X100706352Y-123416780D01*
X100896828Y-123416780D01*
X100992066Y-123369161D01*
X101087304Y-123273923D01*
X101134923Y-123083447D01*
X101134923Y-122750114D01*
X101087304Y-122559638D01*
X100992066Y-122464400D01*
X100896828Y-122416780D01*
X100039685Y-123416780D02*
X100039685Y-122416780D01*
X99658733Y-122416780D01*
X99563495Y-122464400D01*
X99515876Y-122512019D01*
X99468257Y-122607257D01*
X99468257Y-122750114D01*
X99515876Y-122845352D01*
X99563495Y-122892971D01*
X99658733Y-122940590D01*
X100039685Y-122940590D01*
X99039685Y-122892971D02*
X98706352Y-122892971D01*
X98563495Y-123416780D02*
X99039685Y-123416780D01*
X99039685Y-122416780D01*
X98563495Y-122416780D01*
X98134923Y-123416780D02*
X98134923Y-122416780D01*
X97563495Y-123416780D01*
X97563495Y-122416780D01*
X108323323Y-104897580D02*
X107751895Y-104897580D01*
X108037609Y-105897580D02*
X108037609Y-104897580D01*
X107418561Y-105373771D02*
X107085228Y-105373771D01*
X106942371Y-105897580D02*
X107418561Y-105897580D01*
X107418561Y-104897580D01*
X106942371Y-104897580D01*
X105942371Y-105897580D02*
X106275704Y-105421390D01*
X106513800Y-105897580D02*
X106513800Y-104897580D01*
X106132847Y-104897580D01*
X106037609Y-104945200D01*
X105989990Y-104992819D01*
X105942371Y-105088057D01*
X105942371Y-105230914D01*
X105989990Y-105326152D01*
X106037609Y-105373771D01*
X106132847Y-105421390D01*
X106513800Y-105421390D01*
X105513800Y-105897580D02*
X105513800Y-104897580D01*
X105180466Y-105611866D01*
X104847133Y-104897580D01*
X104847133Y-105897580D01*
X100543019Y-125261542D02*
X100590638Y-125309161D01*
X100733495Y-125356780D01*
X100828733Y-125356780D01*
X100971590Y-125309161D01*
X101066828Y-125213923D01*
X101114447Y-125118685D01*
X101162066Y-124928209D01*
X101162066Y-124785352D01*
X101114447Y-124594876D01*
X101066828Y-124499638D01*
X100971590Y-124404400D01*
X100828733Y-124356780D01*
X100733495Y-124356780D01*
X100590638Y-124404400D01*
X100543019Y-124452019D01*
X99638257Y-125356780D02*
X100114447Y-125356780D01*
X100114447Y-124356780D01*
X99114447Y-124356780D02*
X98923971Y-124356780D01*
X98828733Y-124404400D01*
X98733495Y-124499638D01*
X98685876Y-124690114D01*
X98685876Y-125023447D01*
X98733495Y-125213923D01*
X98828733Y-125309161D01*
X98923971Y-125356780D01*
X99114447Y-125356780D01*
X99209685Y-125309161D01*
X99304923Y-125213923D01*
X99352542Y-125023447D01*
X99352542Y-124690114D01*
X99304923Y-124499638D01*
X99209685Y-124404400D01*
X99114447Y-124356780D01*
X98304923Y-125309161D02*
X98162066Y-125356780D01*
X97923971Y-125356780D01*
X97828733Y-125309161D01*
X97781114Y-125261542D01*
X97733495Y-125166304D01*
X97733495Y-125071066D01*
X97781114Y-124975828D01*
X97828733Y-124928209D01*
X97923971Y-124880590D01*
X98114447Y-124832971D01*
X98209685Y-124785352D01*
X98257304Y-124737733D01*
X98304923Y-124642495D01*
X98304923Y-124547257D01*
X98257304Y-124452019D01*
X98209685Y-124404400D01*
X98114447Y-124356780D01*
X97876352Y-124356780D01*
X97733495Y-124404400D01*
X97304923Y-124832971D02*
X96971590Y-124832971D01*
X96828733Y-125356780D02*
X97304923Y-125356780D01*
X97304923Y-124356780D01*
X96828733Y-124356780D01*
X100873019Y-109221542D02*
X100920638Y-109269161D01*
X101063495Y-109316780D01*
X101158733Y-109316780D01*
X101301590Y-109269161D01*
X101396828Y-109173923D01*
X101444447Y-109078685D01*
X101492066Y-108888209D01*
X101492066Y-108745352D01*
X101444447Y-108554876D01*
X101396828Y-108459638D01*
X101301590Y-108364400D01*
X101158733Y-108316780D01*
X101063495Y-108316780D01*
X100920638Y-108364400D01*
X100873019Y-108412019D01*
X99968257Y-109316780D02*
X100444447Y-109316780D01*
X100444447Y-108316780D01*
X99444447Y-108316780D02*
X99253971Y-108316780D01*
X99158733Y-108364400D01*
X99063495Y-108459638D01*
X99015876Y-108650114D01*
X99015876Y-108983447D01*
X99063495Y-109173923D01*
X99158733Y-109269161D01*
X99253971Y-109316780D01*
X99444447Y-109316780D01*
X99539685Y-109269161D01*
X99634923Y-109173923D01*
X99682542Y-108983447D01*
X99682542Y-108650114D01*
X99634923Y-108459638D01*
X99539685Y-108364400D01*
X99444447Y-108316780D01*
X98634923Y-109269161D02*
X98492066Y-109316780D01*
X98253971Y-109316780D01*
X98158733Y-109269161D01*
X98111114Y-109221542D01*
X98063495Y-109126304D01*
X98063495Y-109031066D01*
X98111114Y-108935828D01*
X98158733Y-108888209D01*
X98253971Y-108840590D01*
X98444447Y-108792971D01*
X98539685Y-108745352D01*
X98587304Y-108697733D01*
X98634923Y-108602495D01*
X98634923Y-108507257D01*
X98587304Y-108412019D01*
X98539685Y-108364400D01*
X98444447Y-108316780D01*
X98206352Y-108316780D01*
X98063495Y-108364400D01*
X97634923Y-108792971D02*
X97301590Y-108792971D01*
X97158733Y-109316780D02*
X97634923Y-109316780D01*
X97634923Y-108316780D01*
X97158733Y-108316780D01*
X101296828Y-106576780D02*
X101106352Y-106576780D01*
X101011114Y-106624400D01*
X100915876Y-106719638D01*
X100868257Y-106910114D01*
X100868257Y-107243447D01*
X100915876Y-107433923D01*
X101011114Y-107529161D01*
X101106352Y-107576780D01*
X101296828Y-107576780D01*
X101392066Y-107529161D01*
X101487304Y-107433923D01*
X101534923Y-107243447D01*
X101534923Y-106910114D01*
X101487304Y-106719638D01*
X101392066Y-106624400D01*
X101296828Y-106576780D01*
X100439685Y-107576780D02*
X100439685Y-106576780D01*
X100058733Y-106576780D01*
X99963495Y-106624400D01*
X99915876Y-106672019D01*
X99868257Y-106767257D01*
X99868257Y-106910114D01*
X99915876Y-107005352D01*
X99963495Y-107052971D01*
X100058733Y-107100590D01*
X100439685Y-107100590D01*
X99439685Y-107052971D02*
X99106352Y-107052971D01*
X98963495Y-107576780D02*
X99439685Y-107576780D01*
X99439685Y-106576780D01*
X98963495Y-106576780D01*
X98534923Y-107576780D02*
X98534923Y-106576780D01*
X97963495Y-107576780D01*
X97963495Y-106576780D01*
X108107304Y-123372780D02*
X108107304Y-122372780D01*
X107869209Y-122372780D01*
X107726352Y-122420400D01*
X107631114Y-122515638D01*
X107583495Y-122610876D01*
X107535876Y-122801352D01*
X107535876Y-122944209D01*
X107583495Y-123134685D01*
X107631114Y-123229923D01*
X107726352Y-123325161D01*
X107869209Y-123372780D01*
X108107304Y-123372780D01*
X107107304Y-123372780D02*
X107107304Y-122372780D01*
X106678733Y-123325161D02*
X106535876Y-123372780D01*
X106297780Y-123372780D01*
X106202542Y-123325161D01*
X106154923Y-123277542D01*
X106107304Y-123182304D01*
X106107304Y-123087066D01*
X106154923Y-122991828D01*
X106202542Y-122944209D01*
X106297780Y-122896590D01*
X106488257Y-122848971D01*
X106583495Y-122801352D01*
X106631114Y-122753733D01*
X106678733Y-122658495D01*
X106678733Y-122563257D01*
X106631114Y-122468019D01*
X106583495Y-122420400D01*
X106488257Y-122372780D01*
X106250161Y-122372780D01*
X106107304Y-122420400D01*
X105726352Y-123087066D02*
X105250161Y-123087066D01*
X105821590Y-123372780D02*
X105488257Y-122372780D01*
X105154923Y-123372780D01*
X104488257Y-122848971D02*
X104345400Y-122896590D01*
X104297780Y-122944209D01*
X104250161Y-123039447D01*
X104250161Y-123182304D01*
X104297780Y-123277542D01*
X104345400Y-123325161D01*
X104440638Y-123372780D01*
X104821590Y-123372780D01*
X104821590Y-122372780D01*
X104488257Y-122372780D01*
X104393019Y-122420400D01*
X104345400Y-122468019D01*
X104297780Y-122563257D01*
X104297780Y-122658495D01*
X104345400Y-122753733D01*
X104393019Y-122801352D01*
X104488257Y-122848971D01*
X104821590Y-122848971D01*
X103345400Y-123372780D02*
X103821590Y-123372780D01*
X103821590Y-122372780D01*
X103012066Y-122848971D02*
X102678733Y-122848971D01*
X102535876Y-123372780D02*
X103012066Y-123372780D01*
X103012066Y-122372780D01*
X102535876Y-122372780D01*
X101296828Y-114666780D02*
X101106352Y-114666780D01*
X101011114Y-114714400D01*
X100915876Y-114809638D01*
X100868257Y-115000114D01*
X100868257Y-115333447D01*
X100915876Y-115523923D01*
X101011114Y-115619161D01*
X101106352Y-115666780D01*
X101296828Y-115666780D01*
X101392066Y-115619161D01*
X101487304Y-115523923D01*
X101534923Y-115333447D01*
X101534923Y-115000114D01*
X101487304Y-114809638D01*
X101392066Y-114714400D01*
X101296828Y-114666780D01*
X100439685Y-115666780D02*
X100439685Y-114666780D01*
X100058733Y-114666780D01*
X99963495Y-114714400D01*
X99915876Y-114762019D01*
X99868257Y-114857257D01*
X99868257Y-115000114D01*
X99915876Y-115095352D01*
X99963495Y-115142971D01*
X100058733Y-115190590D01*
X100439685Y-115190590D01*
X99439685Y-115142971D02*
X99106352Y-115142971D01*
X98963495Y-115666780D02*
X99439685Y-115666780D01*
X99439685Y-114666780D01*
X98963495Y-114666780D01*
X98534923Y-115666780D02*
X98534923Y-114666780D01*
X97963495Y-115666780D01*
X97963495Y-114666780D01*
X108087304Y-115666780D02*
X108087304Y-114666780D01*
X107849209Y-114666780D01*
X107706352Y-114714400D01*
X107611114Y-114809638D01*
X107563495Y-114904876D01*
X107515876Y-115095352D01*
X107515876Y-115238209D01*
X107563495Y-115428685D01*
X107611114Y-115523923D01*
X107706352Y-115619161D01*
X107849209Y-115666780D01*
X108087304Y-115666780D01*
X107087304Y-115666780D02*
X107087304Y-114666780D01*
X106658733Y-115619161D02*
X106515876Y-115666780D01*
X106277780Y-115666780D01*
X106182542Y-115619161D01*
X106134923Y-115571542D01*
X106087304Y-115476304D01*
X106087304Y-115381066D01*
X106134923Y-115285828D01*
X106182542Y-115238209D01*
X106277780Y-115190590D01*
X106468257Y-115142971D01*
X106563495Y-115095352D01*
X106611114Y-115047733D01*
X106658733Y-114952495D01*
X106658733Y-114857257D01*
X106611114Y-114762019D01*
X106563495Y-114714400D01*
X106468257Y-114666780D01*
X106230161Y-114666780D01*
X106087304Y-114714400D01*
X105706352Y-115381066D02*
X105230161Y-115381066D01*
X105801590Y-115666780D02*
X105468257Y-114666780D01*
X105134923Y-115666780D01*
X104468257Y-115142971D02*
X104325400Y-115190590D01*
X104277780Y-115238209D01*
X104230161Y-115333447D01*
X104230161Y-115476304D01*
X104277780Y-115571542D01*
X104325400Y-115619161D01*
X104420638Y-115666780D01*
X104801590Y-115666780D01*
X104801590Y-114666780D01*
X104468257Y-114666780D01*
X104373019Y-114714400D01*
X104325400Y-114762019D01*
X104277780Y-114857257D01*
X104277780Y-114952495D01*
X104325400Y-115047733D01*
X104373019Y-115095352D01*
X104468257Y-115142971D01*
X104801590Y-115142971D01*
X103325400Y-115666780D02*
X103801590Y-115666780D01*
X103801590Y-114666780D01*
X102992066Y-115142971D02*
X102658733Y-115142971D01*
X102515876Y-115666780D02*
X102992066Y-115666780D01*
X102992066Y-114666780D01*
X102515876Y-114666780D01*
D11*
X65735200Y-102656000D02*
X127415200Y-102656000D01*
X127415200Y-133156000D02*
X127415200Y-102656000D01*
X65735200Y-102656000D02*
X65735200Y-133156000D01*
X65735200Y-133156000D02*
X127415200Y-133156000D01*
D12*
X108725400Y-112514400D02*
X96455400Y-112514400D01*
X67487600Y-103240000D02*
X82016400Y-103240000D01*
X82016400Y-103240000D02*
X82016400Y-108675600D01*
X82016400Y-108675600D02*
X67487600Y-108675600D01*
X67487600Y-108675600D02*
X67487600Y-103240000D01*
X108725400Y-125814400D02*
X96455400Y-125814400D01*
X108725400Y-104584400D02*
X96455400Y-104584400D01*
X108725400Y-123814400D02*
X96455400Y-123814400D01*
X96455400Y-104584400D02*
X96455400Y-109664400D01*
X108725400Y-114314400D02*
X96455400Y-114314400D01*
X108725400Y-116014400D02*
X96455400Y-116014400D01*
X108725400Y-107914400D02*
X96455400Y-107914400D01*
X108725400Y-120114400D02*
X96455400Y-120114400D01*
X65885200Y-127656000D02*
X127215200Y-127656000D01*
X108725400Y-121914400D02*
X96455400Y-121914400D01*
X102025400Y-104584400D02*
X102025400Y-109664400D01*
X108725400Y-109664400D02*
X96455400Y-109664400D01*
X102025400Y-120114400D02*
X102025400Y-125814400D01*
X108725400Y-117594400D02*
X96455400Y-117594400D01*
X108725400Y-120114400D02*
X108725400Y-125814400D01*
X96455400Y-120114400D02*
X96455400Y-125814400D01*
D10*
X107767609Y-108792971D02*
X107434276Y-108792971D01*
X107291419Y-109316780D02*
X107767609Y-109316780D01*
X107767609Y-108316780D01*
X107291419Y-108316780D01*
X106862847Y-109316780D02*
X106862847Y-108316780D01*
X106291419Y-109316780D01*
X106291419Y-108316780D01*
X105862847Y-109031066D02*
X105386657Y-109031066D01*
X105958085Y-109316780D02*
X105624752Y-108316780D01*
X105291419Y-109316780D01*
X104624752Y-108792971D02*
X104481895Y-108840590D01*
X104434276Y-108888209D01*
X104386657Y-108983447D01*
X104386657Y-109126304D01*
X104434276Y-109221542D01*
X104481895Y-109269161D01*
X104577133Y-109316780D01*
X104958085Y-109316780D01*
X104958085Y-108316780D01*
X104624752Y-108316780D01*
X104529514Y-108364400D01*
X104481895Y-108412019D01*
X104434276Y-108507257D01*
X104434276Y-108602495D01*
X104481895Y-108697733D01*
X104529514Y-108745352D01*
X104624752Y-108792971D01*
X104958085Y-108792971D01*
X103481895Y-109316780D02*
X103958085Y-109316780D01*
X103958085Y-108316780D01*
X103148561Y-108792971D02*
X102815228Y-108792971D01*
X102672371Y-109316780D02*
X103148561Y-109316780D01*
X103148561Y-108316780D01*
X102672371Y-108316780D01*
X108107304Y-107576780D02*
X108107304Y-106576780D01*
X107869209Y-106576780D01*
X107726352Y-106624400D01*
X107631114Y-106719638D01*
X107583495Y-106814876D01*
X107535876Y-107005352D01*
X107535876Y-107148209D01*
X107583495Y-107338685D01*
X107631114Y-107433923D01*
X107726352Y-107529161D01*
X107869209Y-107576780D01*
X108107304Y-107576780D01*
X107107304Y-107576780D02*
X107107304Y-106576780D01*
X106678733Y-107529161D02*
X106535876Y-107576780D01*
X106297780Y-107576780D01*
X106202542Y-107529161D01*
X106154923Y-107481542D01*
X106107304Y-107386304D01*
X106107304Y-107291066D01*
X106154923Y-107195828D01*
X106202542Y-107148209D01*
X106297780Y-107100590D01*
X106488257Y-107052971D01*
X106583495Y-107005352D01*
X106631114Y-106957733D01*
X106678733Y-106862495D01*
X106678733Y-106767257D01*
X106631114Y-106672019D01*
X106583495Y-106624400D01*
X106488257Y-106576780D01*
X106250161Y-106576780D01*
X106107304Y-106624400D01*
X105726352Y-107291066D02*
X105250161Y-107291066D01*
X105821590Y-107576780D02*
X105488257Y-106576780D01*
X105154923Y-107576780D01*
X104488257Y-107052971D02*
X104345400Y-107100590D01*
X104297780Y-107148209D01*
X104250161Y-107243447D01*
X104250161Y-107386304D01*
X104297780Y-107481542D01*
X104345400Y-107529161D01*
X104440638Y-107576780D01*
X104821590Y-107576780D01*
X104821590Y-106576780D01*
X104488257Y-106576780D01*
X104393019Y-106624400D01*
X104345400Y-106672019D01*
X104297780Y-106767257D01*
X104297780Y-106862495D01*
X104345400Y-106957733D01*
X104393019Y-107005352D01*
X104488257Y-107052971D01*
X104821590Y-107052971D01*
X103345400Y-107576780D02*
X103821590Y-107576780D01*
X103821590Y-106576780D01*
X103012066Y-107052971D02*
X102678733Y-107052971D01*
X102535876Y-107576780D02*
X103012066Y-107576780D01*
X103012066Y-106576780D01*
X102535876Y-106576780D01*
X101098733Y-104966780D02*
X101098733Y-105681066D01*
X101146352Y-105823923D01*
X101241590Y-105919161D01*
X101384447Y-105966780D01*
X101479685Y-105966780D01*
X100622542Y-105966780D02*
X100622542Y-104966780D01*
X100241590Y-104966780D01*
X100146352Y-105014400D01*
X100098733Y-105062019D01*
X100051114Y-105157257D01*
X100051114Y-105300114D01*
X100098733Y-105395352D01*
X100146352Y-105442971D01*
X100241590Y-105490590D01*
X100622542Y-105490590D01*
X99098733Y-105966780D02*
X99670161Y-105966780D01*
X99384447Y-105966780D02*
X99384447Y-104966780D01*
X99479685Y-105109638D01*
X99574923Y-105204876D01*
X99670161Y-105252495D01*
D12*
X108725400Y-106314400D02*
X96455400Y-106314400D01*
X81597200Y-104092457D02*
X81511485Y-104121028D01*
X81368628Y-104121028D01*
X81311485Y-104092457D01*
X81282914Y-104063885D01*
X81254342Y-104006742D01*
X81254342Y-103949600D01*
X81282914Y-103892457D01*
X81311485Y-103863885D01*
X81368628Y-103835314D01*
X81482914Y-103806742D01*
X81540057Y-103778171D01*
X81568628Y-103749600D01*
X81597200Y-103692457D01*
X81597200Y-103635314D01*
X81568628Y-103578171D01*
X81540057Y-103549600D01*
X81482914Y-103521028D01*
X81340057Y-103521028D01*
X81254342Y-103549600D01*
X80568628Y-103492457D02*
X81082914Y-104263885D01*
X80368628Y-104121028D02*
X80368628Y-103521028D01*
X80025771Y-104121028D01*
X80025771Y-103521028D01*
X96455400Y-112514400D02*
X96455400Y-117594400D01*
D10*
X100658733Y-120546780D02*
X100658733Y-121261066D01*
X100706352Y-121403923D01*
X100801590Y-121499161D01*
X100944447Y-121546780D01*
X101039685Y-121546780D01*
X100182542Y-121546780D02*
X100182542Y-120546780D01*
X99801590Y-120546780D01*
X99706352Y-120594400D01*
X99658733Y-120642019D01*
X99611114Y-120737257D01*
X99611114Y-120880114D01*
X99658733Y-120975352D01*
X99706352Y-121022971D01*
X99801590Y-121070590D01*
X100182542Y-121070590D01*
X99277780Y-120546780D02*
X98658733Y-120546780D01*
X98992066Y-120927733D01*
X98849209Y-120927733D01*
X98753971Y-120975352D01*
X98706352Y-121022971D01*
X98658733Y-121118209D01*
X98658733Y-121356304D01*
X98706352Y-121451542D01*
X98753971Y-121499161D01*
X98849209Y-121546780D01*
X99134923Y-121546780D01*
X99230161Y-121499161D01*
X99277780Y-121451542D01*
D12*
X102025400Y-112514400D02*
X102025400Y-117594400D01*
X108725400Y-112514400D02*
X108725400Y-117594400D01*
X108725400Y-104584400D02*
X108725400Y-109664400D01*
D10*
X107920009Y-116752971D02*
X107586676Y-116752971D01*
X107443819Y-117276780D02*
X107920009Y-117276780D01*
X107920009Y-116276780D01*
X107443819Y-116276780D01*
X107015247Y-117276780D02*
X107015247Y-116276780D01*
X106443819Y-117276780D01*
X106443819Y-116276780D01*
X106015247Y-116991066D02*
X105539057Y-116991066D01*
X106110485Y-117276780D02*
X105777152Y-116276780D01*
X105443819Y-117276780D01*
X104777152Y-116752971D02*
X104634295Y-116800590D01*
X104586676Y-116848209D01*
X104539057Y-116943447D01*
X104539057Y-117086304D01*
X104586676Y-117181542D01*
X104634295Y-117229161D01*
X104729533Y-117276780D01*
X105110485Y-117276780D01*
X105110485Y-116276780D01*
X104777152Y-116276780D01*
X104681914Y-116324400D01*
X104634295Y-116372019D01*
X104586676Y-116467257D01*
X104586676Y-116562495D01*
X104634295Y-116657733D01*
X104681914Y-116705352D01*
X104777152Y-116752971D01*
X105110485Y-116752971D01*
X103634295Y-117276780D02*
X104110485Y-117276780D01*
X104110485Y-116276780D01*
X103300961Y-116752971D02*
X102967628Y-116752971D01*
X102824771Y-117276780D02*
X103300961Y-117276780D01*
X103300961Y-116276780D01*
X102824771Y-116276780D01*
X107970809Y-94279371D02*
X107637476Y-94279371D01*
X107494619Y-94803180D02*
X107970809Y-94803180D01*
X107970809Y-93803180D01*
X107494619Y-93803180D01*
X107066047Y-94803180D02*
X107066047Y-93803180D01*
X106494619Y-94803180D01*
X106494619Y-93803180D01*
X106066047Y-94517466D02*
X105589857Y-94517466D01*
X106161285Y-94803180D02*
X105827952Y-93803180D01*
X105494619Y-94803180D01*
X104827952Y-94279371D02*
X104685095Y-94326990D01*
X104637476Y-94374609D01*
X104589857Y-94469847D01*
X104589857Y-94612704D01*
X104637476Y-94707942D01*
X104685095Y-94755561D01*
X104780333Y-94803180D01*
X105161285Y-94803180D01*
X105161285Y-93803180D01*
X104827952Y-93803180D01*
X104732714Y-93850800D01*
X104685095Y-93898419D01*
X104637476Y-93993657D01*
X104637476Y-94088895D01*
X104685095Y-94184133D01*
X104732714Y-94231752D01*
X104827952Y-94279371D01*
X105161285Y-94279371D01*
X103685095Y-94803180D02*
X104161285Y-94803180D01*
X104161285Y-93803180D01*
X103351761Y-94279371D02*
X103018428Y-94279371D01*
X102875571Y-94803180D02*
X103351761Y-94803180D01*
X103351761Y-93803180D01*
X102875571Y-93803180D01*
X108158104Y-91043980D02*
X108158104Y-90043980D01*
X107777152Y-90043980D01*
X107681914Y-90091600D01*
X107634295Y-90139219D01*
X107586676Y-90234457D01*
X107586676Y-90377314D01*
X107634295Y-90472552D01*
X107681914Y-90520171D01*
X107777152Y-90567790D01*
X108158104Y-90567790D01*
X106681914Y-91043980D02*
X107158104Y-91043980D01*
X107158104Y-90043980D01*
X105872390Y-91043980D02*
X106348580Y-91043980D01*
X106348580Y-90043980D01*
X105539057Y-90663028D02*
X104777152Y-90663028D01*
X104300961Y-91043980D02*
X104300961Y-90043980D01*
X104062866Y-90043980D01*
X103920009Y-90091600D01*
X103824771Y-90186838D01*
X103777152Y-90282076D01*
X103729533Y-90472552D01*
X103729533Y-90615409D01*
X103777152Y-90805885D01*
X103824771Y-90901123D01*
X103920009Y-90996361D01*
X104062866Y-91043980D01*
X104300961Y-91043980D01*
X103396200Y-90043980D02*
X103158104Y-91043980D01*
X102967628Y-90329695D01*
X102777152Y-91043980D01*
X102539057Y-90043980D01*
X101098733Y-82426780D02*
X101098733Y-83141066D01*
X101146352Y-83283923D01*
X101241590Y-83379161D01*
X101384447Y-83426780D01*
X101479685Y-83426780D01*
X100622542Y-83426780D02*
X100622542Y-82426780D01*
X100241590Y-82426780D01*
X100146352Y-82474400D01*
X100098733Y-82522019D01*
X100051114Y-82617257D01*
X100051114Y-82760114D01*
X100098733Y-82855352D01*
X100146352Y-82902971D01*
X100241590Y-82950590D01*
X100622542Y-82950590D01*
X99670161Y-82522019D02*
X99622542Y-82474400D01*
X99527304Y-82426780D01*
X99289209Y-82426780D01*
X99193971Y-82474400D01*
X99146352Y-82522019D01*
X99098733Y-82617257D01*
X99098733Y-82712495D01*
X99146352Y-82855352D01*
X99717780Y-83426780D01*
X99098733Y-83426780D01*
X108059685Y-83426780D02*
X108059685Y-82426780D01*
X107678733Y-82426780D01*
X107583495Y-82474400D01*
X107535876Y-82522019D01*
X107488257Y-82617257D01*
X107488257Y-82760114D01*
X107535876Y-82855352D01*
X107583495Y-82902971D01*
X107678733Y-82950590D01*
X108059685Y-82950590D01*
X106583495Y-83426780D02*
X107059685Y-83426780D01*
X107059685Y-82426780D01*
X105773971Y-83426780D02*
X106250161Y-83426780D01*
X106250161Y-82426780D01*
X105440638Y-83045828D02*
X104678733Y-83045828D01*
X104202542Y-82426780D02*
X104202542Y-83236304D01*
X104154923Y-83331542D01*
X104107304Y-83379161D01*
X104012066Y-83426780D01*
X103821590Y-83426780D01*
X103726352Y-83379161D01*
X103678733Y-83331542D01*
X103631114Y-83236304D01*
X103631114Y-82426780D01*
X103154923Y-83426780D02*
X103154923Y-82426780D01*
X102773971Y-82426780D01*
X102678733Y-82474400D01*
X102631114Y-82522019D01*
X102583495Y-82617257D01*
X102583495Y-82760114D01*
X102631114Y-82855352D01*
X102678733Y-82902971D01*
X102773971Y-82950590D01*
X103154923Y-82950590D01*
X100873019Y-86721542D02*
X100920638Y-86769161D01*
X101063495Y-86816780D01*
X101158733Y-86816780D01*
X101301590Y-86769161D01*
X101396828Y-86673923D01*
X101444447Y-86578685D01*
X101492066Y-86388209D01*
X101492066Y-86245352D01*
X101444447Y-86054876D01*
X101396828Y-85959638D01*
X101301590Y-85864400D01*
X101158733Y-85816780D01*
X101063495Y-85816780D01*
X100920638Y-85864400D01*
X100873019Y-85912019D01*
X99968257Y-86816780D02*
X100444447Y-86816780D01*
X100444447Y-85816780D01*
X99444447Y-85816780D02*
X99253971Y-85816780D01*
X99158733Y-85864400D01*
X99063495Y-85959638D01*
X99015876Y-86150114D01*
X99015876Y-86483447D01*
X99063495Y-86673923D01*
X99158733Y-86769161D01*
X99253971Y-86816780D01*
X99444447Y-86816780D01*
X99539685Y-86769161D01*
X99634923Y-86673923D01*
X99682542Y-86483447D01*
X99682542Y-86150114D01*
X99634923Y-85959638D01*
X99539685Y-85864400D01*
X99444447Y-85816780D01*
X98634923Y-86769161D02*
X98492066Y-86816780D01*
X98253971Y-86816780D01*
X98158733Y-86769161D01*
X98111114Y-86721542D01*
X98063495Y-86626304D01*
X98063495Y-86531066D01*
X98111114Y-86435828D01*
X98158733Y-86388209D01*
X98253971Y-86340590D01*
X98444447Y-86292971D01*
X98539685Y-86245352D01*
X98587304Y-86197733D01*
X98634923Y-86102495D01*
X98634923Y-86007257D01*
X98587304Y-85912019D01*
X98539685Y-85864400D01*
X98444447Y-85816780D01*
X98206352Y-85816780D01*
X98063495Y-85864400D01*
X97634923Y-86292971D02*
X97301590Y-86292971D01*
X97158733Y-86816780D02*
X97634923Y-86816780D01*
X97634923Y-85816780D01*
X97158733Y-85816780D01*
X100896828Y-91916780D02*
X100706352Y-91916780D01*
X100611114Y-91964400D01*
X100515876Y-92059638D01*
X100468257Y-92250114D01*
X100468257Y-92583447D01*
X100515876Y-92773923D01*
X100611114Y-92869161D01*
X100706352Y-92916780D01*
X100896828Y-92916780D01*
X100992066Y-92869161D01*
X101087304Y-92773923D01*
X101134923Y-92583447D01*
X101134923Y-92250114D01*
X101087304Y-92059638D01*
X100992066Y-91964400D01*
X100896828Y-91916780D01*
X100039685Y-92916780D02*
X100039685Y-91916780D01*
X99658733Y-91916780D01*
X99563495Y-91964400D01*
X99515876Y-92012019D01*
X99468257Y-92107257D01*
X99468257Y-92250114D01*
X99515876Y-92345352D01*
X99563495Y-92392971D01*
X99658733Y-92440590D01*
X100039685Y-92440590D01*
X99039685Y-92392971D02*
X98706352Y-92392971D01*
X98563495Y-92916780D02*
X99039685Y-92916780D01*
X99039685Y-91916780D01*
X98563495Y-91916780D01*
X98134923Y-92916780D02*
X98134923Y-91916780D01*
X97563495Y-92916780D01*
X97563495Y-91916780D01*
X108323323Y-74397580D02*
X107751895Y-74397580D01*
X108037609Y-75397580D02*
X108037609Y-74397580D01*
X107418561Y-74873771D02*
X107085228Y-74873771D01*
X106942371Y-75397580D02*
X107418561Y-75397580D01*
X107418561Y-74397580D01*
X106942371Y-74397580D01*
X105942371Y-75397580D02*
X106275704Y-74921390D01*
X106513800Y-75397580D02*
X106513800Y-74397580D01*
X106132847Y-74397580D01*
X106037609Y-74445200D01*
X105989990Y-74492819D01*
X105942371Y-74588057D01*
X105942371Y-74730914D01*
X105989990Y-74826152D01*
X106037609Y-74873771D01*
X106132847Y-74921390D01*
X106513800Y-74921390D01*
X105513800Y-75397580D02*
X105513800Y-74397580D01*
X105180466Y-75111866D01*
X104847133Y-74397580D01*
X104847133Y-75397580D01*
X100543019Y-94761542D02*
X100590638Y-94809161D01*
X100733495Y-94856780D01*
X100828733Y-94856780D01*
X100971590Y-94809161D01*
X101066828Y-94713923D01*
X101114447Y-94618685D01*
X101162066Y-94428209D01*
X101162066Y-94285352D01*
X101114447Y-94094876D01*
X101066828Y-93999638D01*
X100971590Y-93904400D01*
X100828733Y-93856780D01*
X100733495Y-93856780D01*
X100590638Y-93904400D01*
X100543019Y-93952019D01*
X99638257Y-94856780D02*
X100114447Y-94856780D01*
X100114447Y-93856780D01*
X99114447Y-93856780D02*
X98923971Y-93856780D01*
X98828733Y-93904400D01*
X98733495Y-93999638D01*
X98685876Y-94190114D01*
X98685876Y-94523447D01*
X98733495Y-94713923D01*
X98828733Y-94809161D01*
X98923971Y-94856780D01*
X99114447Y-94856780D01*
X99209685Y-94809161D01*
X99304923Y-94713923D01*
X99352542Y-94523447D01*
X99352542Y-94190114D01*
X99304923Y-93999638D01*
X99209685Y-93904400D01*
X99114447Y-93856780D01*
X98304923Y-94809161D02*
X98162066Y-94856780D01*
X97923971Y-94856780D01*
X97828733Y-94809161D01*
X97781114Y-94761542D01*
X97733495Y-94666304D01*
X97733495Y-94571066D01*
X97781114Y-94475828D01*
X97828733Y-94428209D01*
X97923971Y-94380590D01*
X98114447Y-94332971D01*
X98209685Y-94285352D01*
X98257304Y-94237733D01*
X98304923Y-94142495D01*
X98304923Y-94047257D01*
X98257304Y-93952019D01*
X98209685Y-93904400D01*
X98114447Y-93856780D01*
X97876352Y-93856780D01*
X97733495Y-93904400D01*
X97304923Y-94332971D02*
X96971590Y-94332971D01*
X96828733Y-94856780D02*
X97304923Y-94856780D01*
X97304923Y-93856780D01*
X96828733Y-93856780D01*
X100873019Y-78721542D02*
X100920638Y-78769161D01*
X101063495Y-78816780D01*
X101158733Y-78816780D01*
X101301590Y-78769161D01*
X101396828Y-78673923D01*
X101444447Y-78578685D01*
X101492066Y-78388209D01*
X101492066Y-78245352D01*
X101444447Y-78054876D01*
X101396828Y-77959638D01*
X101301590Y-77864400D01*
X101158733Y-77816780D01*
X101063495Y-77816780D01*
X100920638Y-77864400D01*
X100873019Y-77912019D01*
X99968257Y-78816780D02*
X100444447Y-78816780D01*
X100444447Y-77816780D01*
X99444447Y-77816780D02*
X99253971Y-77816780D01*
X99158733Y-77864400D01*
X99063495Y-77959638D01*
X99015876Y-78150114D01*
X99015876Y-78483447D01*
X99063495Y-78673923D01*
X99158733Y-78769161D01*
X99253971Y-78816780D01*
X99444447Y-78816780D01*
X99539685Y-78769161D01*
X99634923Y-78673923D01*
X99682542Y-78483447D01*
X99682542Y-78150114D01*
X99634923Y-77959638D01*
X99539685Y-77864400D01*
X99444447Y-77816780D01*
X98634923Y-78769161D02*
X98492066Y-78816780D01*
X98253971Y-78816780D01*
X98158733Y-78769161D01*
X98111114Y-78721542D01*
X98063495Y-78626304D01*
X98063495Y-78531066D01*
X98111114Y-78435828D01*
X98158733Y-78388209D01*
X98253971Y-78340590D01*
X98444447Y-78292971D01*
X98539685Y-78245352D01*
X98587304Y-78197733D01*
X98634923Y-78102495D01*
X98634923Y-78007257D01*
X98587304Y-77912019D01*
X98539685Y-77864400D01*
X98444447Y-77816780D01*
X98206352Y-77816780D01*
X98063495Y-77864400D01*
X97634923Y-78292971D02*
X97301590Y-78292971D01*
X97158733Y-78816780D02*
X97634923Y-78816780D01*
X97634923Y-77816780D01*
X97158733Y-77816780D01*
X101296828Y-76076780D02*
X101106352Y-76076780D01*
X101011114Y-76124400D01*
X100915876Y-76219638D01*
X100868257Y-76410114D01*
X100868257Y-76743447D01*
X100915876Y-76933923D01*
X101011114Y-77029161D01*
X101106352Y-77076780D01*
X101296828Y-77076780D01*
X101392066Y-77029161D01*
X101487304Y-76933923D01*
X101534923Y-76743447D01*
X101534923Y-76410114D01*
X101487304Y-76219638D01*
X101392066Y-76124400D01*
X101296828Y-76076780D01*
X100439685Y-77076780D02*
X100439685Y-76076780D01*
X100058733Y-76076780D01*
X99963495Y-76124400D01*
X99915876Y-76172019D01*
X99868257Y-76267257D01*
X99868257Y-76410114D01*
X99915876Y-76505352D01*
X99963495Y-76552971D01*
X100058733Y-76600590D01*
X100439685Y-76600590D01*
X99439685Y-76552971D02*
X99106352Y-76552971D01*
X98963495Y-77076780D02*
X99439685Y-77076780D01*
X99439685Y-76076780D01*
X98963495Y-76076780D01*
X98534923Y-77076780D02*
X98534923Y-76076780D01*
X97963495Y-77076780D01*
X97963495Y-76076780D01*
X108107304Y-92872780D02*
X108107304Y-91872780D01*
X107869209Y-91872780D01*
X107726352Y-91920400D01*
X107631114Y-92015638D01*
X107583495Y-92110876D01*
X107535876Y-92301352D01*
X107535876Y-92444209D01*
X107583495Y-92634685D01*
X107631114Y-92729923D01*
X107726352Y-92825161D01*
X107869209Y-92872780D01*
X108107304Y-92872780D01*
X107107304Y-92872780D02*
X107107304Y-91872780D01*
X106678733Y-92825161D02*
X106535876Y-92872780D01*
X106297780Y-92872780D01*
X106202542Y-92825161D01*
X106154923Y-92777542D01*
X106107304Y-92682304D01*
X106107304Y-92587066D01*
X106154923Y-92491828D01*
X106202542Y-92444209D01*
X106297780Y-92396590D01*
X106488257Y-92348971D01*
X106583495Y-92301352D01*
X106631114Y-92253733D01*
X106678733Y-92158495D01*
X106678733Y-92063257D01*
X106631114Y-91968019D01*
X106583495Y-91920400D01*
X106488257Y-91872780D01*
X106250161Y-91872780D01*
X106107304Y-91920400D01*
X105726352Y-92587066D02*
X105250161Y-92587066D01*
X105821590Y-92872780D02*
X105488257Y-91872780D01*
X105154923Y-92872780D01*
X104488257Y-92348971D02*
X104345400Y-92396590D01*
X104297780Y-92444209D01*
X104250161Y-92539447D01*
X104250161Y-92682304D01*
X104297780Y-92777542D01*
X104345400Y-92825161D01*
X104440638Y-92872780D01*
X104821590Y-92872780D01*
X104821590Y-91872780D01*
X104488257Y-91872780D01*
X104393019Y-91920400D01*
X104345400Y-91968019D01*
X104297780Y-92063257D01*
X104297780Y-92158495D01*
X104345400Y-92253733D01*
X104393019Y-92301352D01*
X104488257Y-92348971D01*
X104821590Y-92348971D01*
X103345400Y-92872780D02*
X103821590Y-92872780D01*
X103821590Y-91872780D01*
X103012066Y-92348971D02*
X102678733Y-92348971D01*
X102535876Y-92872780D02*
X103012066Y-92872780D01*
X103012066Y-91872780D01*
X102535876Y-91872780D01*
X101296828Y-84166780D02*
X101106352Y-84166780D01*
X101011114Y-84214400D01*
X100915876Y-84309638D01*
X100868257Y-84500114D01*
X100868257Y-84833447D01*
X100915876Y-85023923D01*
X101011114Y-85119161D01*
X101106352Y-85166780D01*
X101296828Y-85166780D01*
X101392066Y-85119161D01*
X101487304Y-85023923D01*
X101534923Y-84833447D01*
X101534923Y-84500114D01*
X101487304Y-84309638D01*
X101392066Y-84214400D01*
X101296828Y-84166780D01*
X100439685Y-85166780D02*
X100439685Y-84166780D01*
X100058733Y-84166780D01*
X99963495Y-84214400D01*
X99915876Y-84262019D01*
X99868257Y-84357257D01*
X99868257Y-84500114D01*
X99915876Y-84595352D01*
X99963495Y-84642971D01*
X100058733Y-84690590D01*
X100439685Y-84690590D01*
X99439685Y-84642971D02*
X99106352Y-84642971D01*
X98963495Y-85166780D02*
X99439685Y-85166780D01*
X99439685Y-84166780D01*
X98963495Y-84166780D01*
X98534923Y-85166780D02*
X98534923Y-84166780D01*
X97963495Y-85166780D01*
X97963495Y-84166780D01*
X108087304Y-85166780D02*
X108087304Y-84166780D01*
X107849209Y-84166780D01*
X107706352Y-84214400D01*
X107611114Y-84309638D01*
X107563495Y-84404876D01*
X107515876Y-84595352D01*
X107515876Y-84738209D01*
X107563495Y-84928685D01*
X107611114Y-85023923D01*
X107706352Y-85119161D01*
X107849209Y-85166780D01*
X108087304Y-85166780D01*
X107087304Y-85166780D02*
X107087304Y-84166780D01*
X106658733Y-85119161D02*
X106515876Y-85166780D01*
X106277780Y-85166780D01*
X106182542Y-85119161D01*
X106134923Y-85071542D01*
X106087304Y-84976304D01*
X106087304Y-84881066D01*
X106134923Y-84785828D01*
X106182542Y-84738209D01*
X106277780Y-84690590D01*
X106468257Y-84642971D01*
X106563495Y-84595352D01*
X106611114Y-84547733D01*
X106658733Y-84452495D01*
X106658733Y-84357257D01*
X106611114Y-84262019D01*
X106563495Y-84214400D01*
X106468257Y-84166780D01*
X106230161Y-84166780D01*
X106087304Y-84214400D01*
X105706352Y-84881066D02*
X105230161Y-84881066D01*
X105801590Y-85166780D02*
X105468257Y-84166780D01*
X105134923Y-85166780D01*
X104468257Y-84642971D02*
X104325400Y-84690590D01*
X104277780Y-84738209D01*
X104230161Y-84833447D01*
X104230161Y-84976304D01*
X104277780Y-85071542D01*
X104325400Y-85119161D01*
X104420638Y-85166780D01*
X104801590Y-85166780D01*
X104801590Y-84166780D01*
X104468257Y-84166780D01*
X104373019Y-84214400D01*
X104325400Y-84262019D01*
X104277780Y-84357257D01*
X104277780Y-84452495D01*
X104325400Y-84547733D01*
X104373019Y-84595352D01*
X104468257Y-84642971D01*
X104801590Y-84642971D01*
X103325400Y-85166780D02*
X103801590Y-85166780D01*
X103801590Y-84166780D01*
X102992066Y-84642971D02*
X102658733Y-84642971D01*
X102515876Y-85166780D02*
X102992066Y-85166780D01*
X102992066Y-84166780D01*
X102515876Y-84166780D01*
D11*
X65735200Y-72156000D02*
X127415200Y-72156000D01*
X127415200Y-102656000D02*
X127415200Y-72156000D01*
X65735200Y-72156000D02*
X65735200Y-102656000D01*
X65735200Y-102656000D02*
X127415200Y-102656000D01*
D12*
X108725400Y-82014400D02*
X96455400Y-82014400D01*
X67487600Y-72740000D02*
X82016400Y-72740000D01*
X82016400Y-72740000D02*
X82016400Y-78175600D01*
X82016400Y-78175600D02*
X67487600Y-78175600D01*
X67487600Y-78175600D02*
X67487600Y-72740000D01*
X108725400Y-95314400D02*
X96455400Y-95314400D01*
X108725400Y-74084400D02*
X96455400Y-74084400D01*
X108725400Y-93314400D02*
X96455400Y-93314400D01*
X96455400Y-74084400D02*
X96455400Y-79164400D01*
X108725400Y-83814400D02*
X96455400Y-83814400D01*
X108725400Y-85514400D02*
X96455400Y-85514400D01*
X108725400Y-77414400D02*
X96455400Y-77414400D01*
X108725400Y-89614400D02*
X96455400Y-89614400D01*
X65885200Y-97156000D02*
X127215200Y-97156000D01*
X108725400Y-91414400D02*
X96455400Y-91414400D01*
X102025400Y-74084400D02*
X102025400Y-79164400D01*
X108725400Y-79164400D02*
X96455400Y-79164400D01*
X102025400Y-89614400D02*
X102025400Y-95314400D01*
X108725400Y-87094400D02*
X96455400Y-87094400D01*
X108725400Y-89614400D02*
X108725400Y-95314400D01*
X96455400Y-89614400D02*
X96455400Y-95314400D01*
D10*
X107767609Y-78292971D02*
X107434276Y-78292971D01*
X107291419Y-78816780D02*
X107767609Y-78816780D01*
X107767609Y-77816780D01*
X107291419Y-77816780D01*
X106862847Y-78816780D02*
X106862847Y-77816780D01*
X106291419Y-78816780D01*
X106291419Y-77816780D01*
X105862847Y-78531066D02*
X105386657Y-78531066D01*
X105958085Y-78816780D02*
X105624752Y-77816780D01*
X105291419Y-78816780D01*
X104624752Y-78292971D02*
X104481895Y-78340590D01*
X104434276Y-78388209D01*
X104386657Y-78483447D01*
X104386657Y-78626304D01*
X104434276Y-78721542D01*
X104481895Y-78769161D01*
X104577133Y-78816780D01*
X104958085Y-78816780D01*
X104958085Y-77816780D01*
X104624752Y-77816780D01*
X104529514Y-77864400D01*
X104481895Y-77912019D01*
X104434276Y-78007257D01*
X104434276Y-78102495D01*
X104481895Y-78197733D01*
X104529514Y-78245352D01*
X104624752Y-78292971D01*
X104958085Y-78292971D01*
X103481895Y-78816780D02*
X103958085Y-78816780D01*
X103958085Y-77816780D01*
X103148561Y-78292971D02*
X102815228Y-78292971D01*
X102672371Y-78816780D02*
X103148561Y-78816780D01*
X103148561Y-77816780D01*
X102672371Y-77816780D01*
X108107304Y-77076780D02*
X108107304Y-76076780D01*
X107869209Y-76076780D01*
X107726352Y-76124400D01*
X107631114Y-76219638D01*
X107583495Y-76314876D01*
X107535876Y-76505352D01*
X107535876Y-76648209D01*
X107583495Y-76838685D01*
X107631114Y-76933923D01*
X107726352Y-77029161D01*
X107869209Y-77076780D01*
X108107304Y-77076780D01*
X107107304Y-77076780D02*
X107107304Y-76076780D01*
X106678733Y-77029161D02*
X106535876Y-77076780D01*
X106297780Y-77076780D01*
X106202542Y-77029161D01*
X106154923Y-76981542D01*
X106107304Y-76886304D01*
X106107304Y-76791066D01*
X106154923Y-76695828D01*
X106202542Y-76648209D01*
X106297780Y-76600590D01*
X106488257Y-76552971D01*
X106583495Y-76505352D01*
X106631114Y-76457733D01*
X106678733Y-76362495D01*
X106678733Y-76267257D01*
X106631114Y-76172019D01*
X106583495Y-76124400D01*
X106488257Y-76076780D01*
X106250161Y-76076780D01*
X106107304Y-76124400D01*
X105726352Y-76791066D02*
X105250161Y-76791066D01*
X105821590Y-77076780D02*
X105488257Y-76076780D01*
X105154923Y-77076780D01*
X104488257Y-76552971D02*
X104345400Y-76600590D01*
X104297780Y-76648209D01*
X104250161Y-76743447D01*
X104250161Y-76886304D01*
X104297780Y-76981542D01*
X104345400Y-77029161D01*
X104440638Y-77076780D01*
X104821590Y-77076780D01*
X104821590Y-76076780D01*
X104488257Y-76076780D01*
X104393019Y-76124400D01*
X104345400Y-76172019D01*
X104297780Y-76267257D01*
X104297780Y-76362495D01*
X104345400Y-76457733D01*
X104393019Y-76505352D01*
X104488257Y-76552971D01*
X104821590Y-76552971D01*
X103345400Y-77076780D02*
X103821590Y-77076780D01*
X103821590Y-76076780D01*
X103012066Y-76552971D02*
X102678733Y-76552971D01*
X102535876Y-77076780D02*
X103012066Y-77076780D01*
X103012066Y-76076780D01*
X102535876Y-76076780D01*
X101098733Y-74466780D02*
X101098733Y-75181066D01*
X101146352Y-75323923D01*
X101241590Y-75419161D01*
X101384447Y-75466780D01*
X101479685Y-75466780D01*
X100622542Y-75466780D02*
X100622542Y-74466780D01*
X100241590Y-74466780D01*
X100146352Y-74514400D01*
X100098733Y-74562019D01*
X100051114Y-74657257D01*
X100051114Y-74800114D01*
X100098733Y-74895352D01*
X100146352Y-74942971D01*
X100241590Y-74990590D01*
X100622542Y-74990590D01*
X99098733Y-75466780D02*
X99670161Y-75466780D01*
X99384447Y-75466780D02*
X99384447Y-74466780D01*
X99479685Y-74609638D01*
X99574923Y-74704876D01*
X99670161Y-74752495D01*
D12*
X108725400Y-75814400D02*
X96455400Y-75814400D01*
X81597200Y-73592457D02*
X81511485Y-73621028D01*
X81368628Y-73621028D01*
X81311485Y-73592457D01*
X81282914Y-73563885D01*
X81254342Y-73506742D01*
X81254342Y-73449600D01*
X81282914Y-73392457D01*
X81311485Y-73363885D01*
X81368628Y-73335314D01*
X81482914Y-73306742D01*
X81540057Y-73278171D01*
X81568628Y-73249600D01*
X81597200Y-73192457D01*
X81597200Y-73135314D01*
X81568628Y-73078171D01*
X81540057Y-73049600D01*
X81482914Y-73021028D01*
X81340057Y-73021028D01*
X81254342Y-73049600D01*
X80568628Y-72992457D02*
X81082914Y-73763885D01*
X80368628Y-73621028D02*
X80368628Y-73021028D01*
X80025771Y-73621028D01*
X80025771Y-73021028D01*
X96455400Y-82014400D02*
X96455400Y-87094400D01*
D10*
X100658733Y-90046780D02*
X100658733Y-90761066D01*
X100706352Y-90903923D01*
X100801590Y-90999161D01*
X100944447Y-91046780D01*
X101039685Y-91046780D01*
X100182542Y-91046780D02*
X100182542Y-90046780D01*
X99801590Y-90046780D01*
X99706352Y-90094400D01*
X99658733Y-90142019D01*
X99611114Y-90237257D01*
X99611114Y-90380114D01*
X99658733Y-90475352D01*
X99706352Y-90522971D01*
X99801590Y-90570590D01*
X100182542Y-90570590D01*
X99277780Y-90046780D02*
X98658733Y-90046780D01*
X98992066Y-90427733D01*
X98849209Y-90427733D01*
X98753971Y-90475352D01*
X98706352Y-90522971D01*
X98658733Y-90618209D01*
X98658733Y-90856304D01*
X98706352Y-90951542D01*
X98753971Y-90999161D01*
X98849209Y-91046780D01*
X99134923Y-91046780D01*
X99230161Y-90999161D01*
X99277780Y-90951542D01*
D12*
X102025400Y-82014400D02*
X102025400Y-87094400D01*
X108725400Y-82014400D02*
X108725400Y-87094400D01*
X108725400Y-74084400D02*
X108725400Y-79164400D01*
D10*
X107920009Y-86252971D02*
X107586676Y-86252971D01*
X107443819Y-86776780D02*
X107920009Y-86776780D01*
X107920009Y-85776780D01*
X107443819Y-85776780D01*
X107015247Y-86776780D02*
X107015247Y-85776780D01*
X106443819Y-86776780D01*
X106443819Y-85776780D01*
X106015247Y-86491066D02*
X105539057Y-86491066D01*
X106110485Y-86776780D02*
X105777152Y-85776780D01*
X105443819Y-86776780D01*
X104777152Y-86252971D02*
X104634295Y-86300590D01*
X104586676Y-86348209D01*
X104539057Y-86443447D01*
X104539057Y-86586304D01*
X104586676Y-86681542D01*
X104634295Y-86729161D01*
X104729533Y-86776780D01*
X105110485Y-86776780D01*
X105110485Y-85776780D01*
X104777152Y-85776780D01*
X104681914Y-85824400D01*
X104634295Y-85872019D01*
X104586676Y-85967257D01*
X104586676Y-86062495D01*
X104634295Y-86157733D01*
X104681914Y-86205352D01*
X104777152Y-86252971D01*
X105110485Y-86252971D01*
X103634295Y-86776780D02*
X104110485Y-86776780D01*
X104110485Y-85776780D01*
X103300961Y-86252971D02*
X102967628Y-86252971D01*
X102824771Y-86776780D02*
X103300961Y-86776780D01*
X103300961Y-85776780D01*
X102824771Y-85776780D01*
D12*
X102025400Y-51514400D02*
X102025400Y-56594400D01*
X108725400Y-43584400D02*
X108725400Y-48664400D01*
X108725400Y-51514400D02*
X108725400Y-56594400D01*
X108725400Y-59114400D02*
X108725400Y-64814400D01*
X108725400Y-45314400D02*
X96455400Y-45314400D01*
X96455400Y-51514400D02*
X96455400Y-56594400D01*
X96455400Y-59114400D02*
X96455400Y-64814400D01*
X108725400Y-56594400D02*
X96455400Y-56594400D01*
X102025400Y-59114400D02*
X102025400Y-64814400D01*
X108725400Y-48664400D02*
X96455400Y-48664400D01*
X102025400Y-43584400D02*
X102025400Y-48664400D01*
X108725400Y-60914400D02*
X96455400Y-60914400D01*
X65885200Y-66656000D02*
X127215200Y-66656000D01*
X108725400Y-59114400D02*
X96455400Y-59114400D01*
X108725400Y-46914400D02*
X96455400Y-46914400D01*
X108725400Y-55014400D02*
X96455400Y-55014400D01*
X108725400Y-53314400D02*
X96455400Y-53314400D01*
X96455400Y-43584400D02*
X96455400Y-48664400D01*
X108725400Y-62814400D02*
X96455400Y-62814400D01*
X108725400Y-43584400D02*
X96455400Y-43584400D01*
X108725400Y-64814400D02*
X96455400Y-64814400D01*
X67487600Y-42240000D02*
X82016400Y-42240000D01*
X82016400Y-42240000D02*
X82016400Y-47675600D01*
X82016400Y-47675600D02*
X67487600Y-47675600D01*
X67487600Y-47675600D02*
X67487600Y-42240000D01*
X108725400Y-51514400D02*
X96455400Y-51514400D01*
D11*
X65735200Y-72156000D02*
X127415200Y-72156000D01*
X65735200Y-41656000D02*
X65735200Y-72156000D01*
X127415200Y-72156000D02*
X127415200Y-41656000D01*
X65735200Y-41656000D02*
X127415200Y-41656000D01*
D12*
X81597200Y-43092457D02*
X81511485Y-43121028D01*
X81368628Y-43121028D01*
X81311485Y-43092457D01*
X81282914Y-43063885D01*
X81254342Y-43006742D01*
X81254342Y-42949600D01*
X81282914Y-42892457D01*
X81311485Y-42863885D01*
X81368628Y-42835314D01*
X81482914Y-42806742D01*
X81540057Y-42778171D01*
X81568628Y-42749600D01*
X81597200Y-42692457D01*
X81597200Y-42635314D01*
X81568628Y-42578171D01*
X81540057Y-42549600D01*
X81482914Y-42521028D01*
X81340057Y-42521028D01*
X81254342Y-42549600D01*
X80568628Y-42492457D02*
X81082914Y-43263885D01*
X80368628Y-43121028D02*
X80368628Y-42521028D01*
X80025771Y-43121028D01*
X80025771Y-42521028D01*
D10*
X100658733Y-59546780D02*
X100658733Y-60261066D01*
X100706352Y-60403923D01*
X100801590Y-60499161D01*
X100944447Y-60546780D01*
X101039685Y-60546780D01*
X100182542Y-60546780D02*
X100182542Y-59546780D01*
X99801590Y-59546780D01*
X99706352Y-59594400D01*
X99658733Y-59642019D01*
X99611114Y-59737257D01*
X99611114Y-59880114D01*
X99658733Y-59975352D01*
X99706352Y-60022971D01*
X99801590Y-60070590D01*
X100182542Y-60070590D01*
X99277780Y-59546780D02*
X98658733Y-59546780D01*
X98992066Y-59927733D01*
X98849209Y-59927733D01*
X98753971Y-59975352D01*
X98706352Y-60022971D01*
X98658733Y-60118209D01*
X98658733Y-60356304D01*
X98706352Y-60451542D01*
X98753971Y-60499161D01*
X98849209Y-60546780D01*
X99134923Y-60546780D01*
X99230161Y-60499161D01*
X99277780Y-60451542D01*
X107920009Y-55752971D02*
X107586676Y-55752971D01*
X107443819Y-56276780D02*
X107920009Y-56276780D01*
X107920009Y-55276780D01*
X107443819Y-55276780D01*
X107015247Y-56276780D02*
X107015247Y-55276780D01*
X106443819Y-56276780D01*
X106443819Y-55276780D01*
X106015247Y-55991066D02*
X105539057Y-55991066D01*
X106110485Y-56276780D02*
X105777152Y-55276780D01*
X105443819Y-56276780D01*
X104777152Y-55752971D02*
X104634295Y-55800590D01*
X104586676Y-55848209D01*
X104539057Y-55943447D01*
X104539057Y-56086304D01*
X104586676Y-56181542D01*
X104634295Y-56229161D01*
X104729533Y-56276780D01*
X105110485Y-56276780D01*
X105110485Y-55276780D01*
X104777152Y-55276780D01*
X104681914Y-55324400D01*
X104634295Y-55372019D01*
X104586676Y-55467257D01*
X104586676Y-55562495D01*
X104634295Y-55657733D01*
X104681914Y-55705352D01*
X104777152Y-55752971D01*
X105110485Y-55752971D01*
X103634295Y-56276780D02*
X104110485Y-56276780D01*
X104110485Y-55276780D01*
X103300961Y-55752971D02*
X102967628Y-55752971D01*
X102824771Y-56276780D02*
X103300961Y-56276780D01*
X103300961Y-55276780D01*
X102824771Y-55276780D01*
X107767609Y-47792971D02*
X107434276Y-47792971D01*
X107291419Y-48316780D02*
X107767609Y-48316780D01*
X107767609Y-47316780D01*
X107291419Y-47316780D01*
X106862847Y-48316780D02*
X106862847Y-47316780D01*
X106291419Y-48316780D01*
X106291419Y-47316780D01*
X105862847Y-48031066D02*
X105386657Y-48031066D01*
X105958085Y-48316780D02*
X105624752Y-47316780D01*
X105291419Y-48316780D01*
X104624752Y-47792971D02*
X104481895Y-47840590D01*
X104434276Y-47888209D01*
X104386657Y-47983447D01*
X104386657Y-48126304D01*
X104434276Y-48221542D01*
X104481895Y-48269161D01*
X104577133Y-48316780D01*
X104958085Y-48316780D01*
X104958085Y-47316780D01*
X104624752Y-47316780D01*
X104529514Y-47364400D01*
X104481895Y-47412019D01*
X104434276Y-47507257D01*
X104434276Y-47602495D01*
X104481895Y-47697733D01*
X104529514Y-47745352D01*
X104624752Y-47792971D01*
X104958085Y-47792971D01*
X103481895Y-48316780D02*
X103958085Y-48316780D01*
X103958085Y-47316780D01*
X103148561Y-47792971D02*
X102815228Y-47792971D01*
X102672371Y-48316780D02*
X103148561Y-48316780D01*
X103148561Y-47316780D01*
X102672371Y-47316780D01*
X108107304Y-46576780D02*
X108107304Y-45576780D01*
X107869209Y-45576780D01*
X107726352Y-45624400D01*
X107631114Y-45719638D01*
X107583495Y-45814876D01*
X107535876Y-46005352D01*
X107535876Y-46148209D01*
X107583495Y-46338685D01*
X107631114Y-46433923D01*
X107726352Y-46529161D01*
X107869209Y-46576780D01*
X108107304Y-46576780D01*
X107107304Y-46576780D02*
X107107304Y-45576780D01*
X106678733Y-46529161D02*
X106535876Y-46576780D01*
X106297780Y-46576780D01*
X106202542Y-46529161D01*
X106154923Y-46481542D01*
X106107304Y-46386304D01*
X106107304Y-46291066D01*
X106154923Y-46195828D01*
X106202542Y-46148209D01*
X106297780Y-46100590D01*
X106488257Y-46052971D01*
X106583495Y-46005352D01*
X106631114Y-45957733D01*
X106678733Y-45862495D01*
X106678733Y-45767257D01*
X106631114Y-45672019D01*
X106583495Y-45624400D01*
X106488257Y-45576780D01*
X106250161Y-45576780D01*
X106107304Y-45624400D01*
X105726352Y-46291066D02*
X105250161Y-46291066D01*
X105821590Y-46576780D02*
X105488257Y-45576780D01*
X105154923Y-46576780D01*
X104488257Y-46052971D02*
X104345400Y-46100590D01*
X104297780Y-46148209D01*
X104250161Y-46243447D01*
X104250161Y-46386304D01*
X104297780Y-46481542D01*
X104345400Y-46529161D01*
X104440638Y-46576780D01*
X104821590Y-46576780D01*
X104821590Y-45576780D01*
X104488257Y-45576780D01*
X104393019Y-45624400D01*
X104345400Y-45672019D01*
X104297780Y-45767257D01*
X104297780Y-45862495D01*
X104345400Y-45957733D01*
X104393019Y-46005352D01*
X104488257Y-46052971D01*
X104821590Y-46052971D01*
X103345400Y-46576780D02*
X103821590Y-46576780D01*
X103821590Y-45576780D01*
X103012066Y-46052971D02*
X102678733Y-46052971D01*
X102535876Y-46576780D02*
X103012066Y-46576780D01*
X103012066Y-45576780D01*
X102535876Y-45576780D01*
X101098733Y-43966780D02*
X101098733Y-44681066D01*
X101146352Y-44823923D01*
X101241590Y-44919161D01*
X101384447Y-44966780D01*
X101479685Y-44966780D01*
X100622542Y-44966780D02*
X100622542Y-43966780D01*
X100241590Y-43966780D01*
X100146352Y-44014400D01*
X100098733Y-44062019D01*
X100051114Y-44157257D01*
X100051114Y-44300114D01*
X100098733Y-44395352D01*
X100146352Y-44442971D01*
X100241590Y-44490590D01*
X100622542Y-44490590D01*
X99098733Y-44966780D02*
X99670161Y-44966780D01*
X99384447Y-44966780D02*
X99384447Y-43966780D01*
X99479685Y-44109638D01*
X99574923Y-44204876D01*
X99670161Y-44252495D01*
X108087304Y-54666780D02*
X108087304Y-53666780D01*
X107849209Y-53666780D01*
X107706352Y-53714400D01*
X107611114Y-53809638D01*
X107563495Y-53904876D01*
X107515876Y-54095352D01*
X107515876Y-54238209D01*
X107563495Y-54428685D01*
X107611114Y-54523923D01*
X107706352Y-54619161D01*
X107849209Y-54666780D01*
X108087304Y-54666780D01*
X107087304Y-54666780D02*
X107087304Y-53666780D01*
X106658733Y-54619161D02*
X106515876Y-54666780D01*
X106277780Y-54666780D01*
X106182542Y-54619161D01*
X106134923Y-54571542D01*
X106087304Y-54476304D01*
X106087304Y-54381066D01*
X106134923Y-54285828D01*
X106182542Y-54238209D01*
X106277780Y-54190590D01*
X106468257Y-54142971D01*
X106563495Y-54095352D01*
X106611114Y-54047733D01*
X106658733Y-53952495D01*
X106658733Y-53857257D01*
X106611114Y-53762019D01*
X106563495Y-53714400D01*
X106468257Y-53666780D01*
X106230161Y-53666780D01*
X106087304Y-53714400D01*
X105706352Y-54381066D02*
X105230161Y-54381066D01*
X105801590Y-54666780D02*
X105468257Y-53666780D01*
X105134923Y-54666780D01*
X104468257Y-54142971D02*
X104325400Y-54190590D01*
X104277780Y-54238209D01*
X104230161Y-54333447D01*
X104230161Y-54476304D01*
X104277780Y-54571542D01*
X104325400Y-54619161D01*
X104420638Y-54666780D01*
X104801590Y-54666780D01*
X104801590Y-53666780D01*
X104468257Y-53666780D01*
X104373019Y-53714400D01*
X104325400Y-53762019D01*
X104277780Y-53857257D01*
X104277780Y-53952495D01*
X104325400Y-54047733D01*
X104373019Y-54095352D01*
X104468257Y-54142971D01*
X104801590Y-54142971D01*
X103325400Y-54666780D02*
X103801590Y-54666780D01*
X103801590Y-53666780D01*
X102992066Y-54142971D02*
X102658733Y-54142971D01*
X102515876Y-54666780D02*
X102992066Y-54666780D01*
X102992066Y-53666780D01*
X102515876Y-53666780D01*
X101296828Y-53666780D02*
X101106352Y-53666780D01*
X101011114Y-53714400D01*
X100915876Y-53809638D01*
X100868257Y-54000114D01*
X100868257Y-54333447D01*
X100915876Y-54523923D01*
X101011114Y-54619161D01*
X101106352Y-54666780D01*
X101296828Y-54666780D01*
X101392066Y-54619161D01*
X101487304Y-54523923D01*
X101534923Y-54333447D01*
X101534923Y-54000114D01*
X101487304Y-53809638D01*
X101392066Y-53714400D01*
X101296828Y-53666780D01*
X100439685Y-54666780D02*
X100439685Y-53666780D01*
X100058733Y-53666780D01*
X99963495Y-53714400D01*
X99915876Y-53762019D01*
X99868257Y-53857257D01*
X99868257Y-54000114D01*
X99915876Y-54095352D01*
X99963495Y-54142971D01*
X100058733Y-54190590D01*
X100439685Y-54190590D01*
X99439685Y-54142971D02*
X99106352Y-54142971D01*
X98963495Y-54666780D02*
X99439685Y-54666780D01*
X99439685Y-53666780D01*
X98963495Y-53666780D01*
X98534923Y-54666780D02*
X98534923Y-53666780D01*
X97963495Y-54666780D01*
X97963495Y-53666780D01*
X108107304Y-62372780D02*
X108107304Y-61372780D01*
X107869209Y-61372780D01*
X107726352Y-61420400D01*
X107631114Y-61515638D01*
X107583495Y-61610876D01*
X107535876Y-61801352D01*
X107535876Y-61944209D01*
X107583495Y-62134685D01*
X107631114Y-62229923D01*
X107726352Y-62325161D01*
X107869209Y-62372780D01*
X108107304Y-62372780D01*
X107107304Y-62372780D02*
X107107304Y-61372780D01*
X106678733Y-62325161D02*
X106535876Y-62372780D01*
X106297780Y-62372780D01*
X106202542Y-62325161D01*
X106154923Y-62277542D01*
X106107304Y-62182304D01*
X106107304Y-62087066D01*
X106154923Y-61991828D01*
X106202542Y-61944209D01*
X106297780Y-61896590D01*
X106488257Y-61848971D01*
X106583495Y-61801352D01*
X106631114Y-61753733D01*
X106678733Y-61658495D01*
X106678733Y-61563257D01*
X106631114Y-61468019D01*
X106583495Y-61420400D01*
X106488257Y-61372780D01*
X106250161Y-61372780D01*
X106107304Y-61420400D01*
X105726352Y-62087066D02*
X105250161Y-62087066D01*
X105821590Y-62372780D02*
X105488257Y-61372780D01*
X105154923Y-62372780D01*
X104488257Y-61848971D02*
X104345400Y-61896590D01*
X104297780Y-61944209D01*
X104250161Y-62039447D01*
X104250161Y-62182304D01*
X104297780Y-62277542D01*
X104345400Y-62325161D01*
X104440638Y-62372780D01*
X104821590Y-62372780D01*
X104821590Y-61372780D01*
X104488257Y-61372780D01*
X104393019Y-61420400D01*
X104345400Y-61468019D01*
X104297780Y-61563257D01*
X104297780Y-61658495D01*
X104345400Y-61753733D01*
X104393019Y-61801352D01*
X104488257Y-61848971D01*
X104821590Y-61848971D01*
X103345400Y-62372780D02*
X103821590Y-62372780D01*
X103821590Y-61372780D01*
X103012066Y-61848971D02*
X102678733Y-61848971D01*
X102535876Y-62372780D02*
X103012066Y-62372780D01*
X103012066Y-61372780D01*
X102535876Y-61372780D01*
X101296828Y-45576780D02*
X101106352Y-45576780D01*
X101011114Y-45624400D01*
X100915876Y-45719638D01*
X100868257Y-45910114D01*
X100868257Y-46243447D01*
X100915876Y-46433923D01*
X101011114Y-46529161D01*
X101106352Y-46576780D01*
X101296828Y-46576780D01*
X101392066Y-46529161D01*
X101487304Y-46433923D01*
X101534923Y-46243447D01*
X101534923Y-45910114D01*
X101487304Y-45719638D01*
X101392066Y-45624400D01*
X101296828Y-45576780D01*
X100439685Y-46576780D02*
X100439685Y-45576780D01*
X100058733Y-45576780D01*
X99963495Y-45624400D01*
X99915876Y-45672019D01*
X99868257Y-45767257D01*
X99868257Y-45910114D01*
X99915876Y-46005352D01*
X99963495Y-46052971D01*
X100058733Y-46100590D01*
X100439685Y-46100590D01*
X99439685Y-46052971D02*
X99106352Y-46052971D01*
X98963495Y-46576780D02*
X99439685Y-46576780D01*
X99439685Y-45576780D01*
X98963495Y-45576780D01*
X98534923Y-46576780D02*
X98534923Y-45576780D01*
X97963495Y-46576780D01*
X97963495Y-45576780D01*
X100873019Y-48221542D02*
X100920638Y-48269161D01*
X101063495Y-48316780D01*
X101158733Y-48316780D01*
X101301590Y-48269161D01*
X101396828Y-48173923D01*
X101444447Y-48078685D01*
X101492066Y-47888209D01*
X101492066Y-47745352D01*
X101444447Y-47554876D01*
X101396828Y-47459638D01*
X101301590Y-47364400D01*
X101158733Y-47316780D01*
X101063495Y-47316780D01*
X100920638Y-47364400D01*
X100873019Y-47412019D01*
X99968257Y-48316780D02*
X100444447Y-48316780D01*
X100444447Y-47316780D01*
X99444447Y-47316780D02*
X99253971Y-47316780D01*
X99158733Y-47364400D01*
X99063495Y-47459638D01*
X99015876Y-47650114D01*
X99015876Y-47983447D01*
X99063495Y-48173923D01*
X99158733Y-48269161D01*
X99253971Y-48316780D01*
X99444447Y-48316780D01*
X99539685Y-48269161D01*
X99634923Y-48173923D01*
X99682542Y-47983447D01*
X99682542Y-47650114D01*
X99634923Y-47459638D01*
X99539685Y-47364400D01*
X99444447Y-47316780D01*
X98634923Y-48269161D02*
X98492066Y-48316780D01*
X98253971Y-48316780D01*
X98158733Y-48269161D01*
X98111114Y-48221542D01*
X98063495Y-48126304D01*
X98063495Y-48031066D01*
X98111114Y-47935828D01*
X98158733Y-47888209D01*
X98253971Y-47840590D01*
X98444447Y-47792971D01*
X98539685Y-47745352D01*
X98587304Y-47697733D01*
X98634923Y-47602495D01*
X98634923Y-47507257D01*
X98587304Y-47412019D01*
X98539685Y-47364400D01*
X98444447Y-47316780D01*
X98206352Y-47316780D01*
X98063495Y-47364400D01*
X97634923Y-47792971D02*
X97301590Y-47792971D01*
X97158733Y-48316780D02*
X97634923Y-48316780D01*
X97634923Y-47316780D01*
X97158733Y-47316780D01*
X100543019Y-64261542D02*
X100590638Y-64309161D01*
X100733495Y-64356780D01*
X100828733Y-64356780D01*
X100971590Y-64309161D01*
X101066828Y-64213923D01*
X101114447Y-64118685D01*
X101162066Y-63928209D01*
X101162066Y-63785352D01*
X101114447Y-63594876D01*
X101066828Y-63499638D01*
X100971590Y-63404400D01*
X100828733Y-63356780D01*
X100733495Y-63356780D01*
X100590638Y-63404400D01*
X100543019Y-63452019D01*
X99638257Y-64356780D02*
X100114447Y-64356780D01*
X100114447Y-63356780D01*
X99114447Y-63356780D02*
X98923971Y-63356780D01*
X98828733Y-63404400D01*
X98733495Y-63499638D01*
X98685876Y-63690114D01*
X98685876Y-64023447D01*
X98733495Y-64213923D01*
X98828733Y-64309161D01*
X98923971Y-64356780D01*
X99114447Y-64356780D01*
X99209685Y-64309161D01*
X99304923Y-64213923D01*
X99352542Y-64023447D01*
X99352542Y-63690114D01*
X99304923Y-63499638D01*
X99209685Y-63404400D01*
X99114447Y-63356780D01*
X98304923Y-64309161D02*
X98162066Y-64356780D01*
X97923971Y-64356780D01*
X97828733Y-64309161D01*
X97781114Y-64261542D01*
X97733495Y-64166304D01*
X97733495Y-64071066D01*
X97781114Y-63975828D01*
X97828733Y-63928209D01*
X97923971Y-63880590D01*
X98114447Y-63832971D01*
X98209685Y-63785352D01*
X98257304Y-63737733D01*
X98304923Y-63642495D01*
X98304923Y-63547257D01*
X98257304Y-63452019D01*
X98209685Y-63404400D01*
X98114447Y-63356780D01*
X97876352Y-63356780D01*
X97733495Y-63404400D01*
X97304923Y-63832971D02*
X96971590Y-63832971D01*
X96828733Y-64356780D02*
X97304923Y-64356780D01*
X97304923Y-63356780D01*
X96828733Y-63356780D01*
X108323323Y-43897580D02*
X107751895Y-43897580D01*
X108037609Y-44897580D02*
X108037609Y-43897580D01*
X107418561Y-44373771D02*
X107085228Y-44373771D01*
X106942371Y-44897580D02*
X107418561Y-44897580D01*
X107418561Y-43897580D01*
X106942371Y-43897580D01*
X105942371Y-44897580D02*
X106275704Y-44421390D01*
X106513800Y-44897580D02*
X106513800Y-43897580D01*
X106132847Y-43897580D01*
X106037609Y-43945200D01*
X105989990Y-43992819D01*
X105942371Y-44088057D01*
X105942371Y-44230914D01*
X105989990Y-44326152D01*
X106037609Y-44373771D01*
X106132847Y-44421390D01*
X106513800Y-44421390D01*
X105513800Y-44897580D02*
X105513800Y-43897580D01*
X105180466Y-44611866D01*
X104847133Y-43897580D01*
X104847133Y-44897580D01*
X100896828Y-61416780D02*
X100706352Y-61416780D01*
X100611114Y-61464400D01*
X100515876Y-61559638D01*
X100468257Y-61750114D01*
X100468257Y-62083447D01*
X100515876Y-62273923D01*
X100611114Y-62369161D01*
X100706352Y-62416780D01*
X100896828Y-62416780D01*
X100992066Y-62369161D01*
X101087304Y-62273923D01*
X101134923Y-62083447D01*
X101134923Y-61750114D01*
X101087304Y-61559638D01*
X100992066Y-61464400D01*
X100896828Y-61416780D01*
X100039685Y-62416780D02*
X100039685Y-61416780D01*
X99658733Y-61416780D01*
X99563495Y-61464400D01*
X99515876Y-61512019D01*
X99468257Y-61607257D01*
X99468257Y-61750114D01*
X99515876Y-61845352D01*
X99563495Y-61892971D01*
X99658733Y-61940590D01*
X100039685Y-61940590D01*
X99039685Y-61892971D02*
X98706352Y-61892971D01*
X98563495Y-62416780D02*
X99039685Y-62416780D01*
X99039685Y-61416780D01*
X98563495Y-61416780D01*
X98134923Y-62416780D02*
X98134923Y-61416780D01*
X97563495Y-62416780D01*
X97563495Y-61416780D01*
X100873019Y-56221542D02*
X100920638Y-56269161D01*
X101063495Y-56316780D01*
X101158733Y-56316780D01*
X101301590Y-56269161D01*
X101396828Y-56173923D01*
X101444447Y-56078685D01*
X101492066Y-55888209D01*
X101492066Y-55745352D01*
X101444447Y-55554876D01*
X101396828Y-55459638D01*
X101301590Y-55364400D01*
X101158733Y-55316780D01*
X101063495Y-55316780D01*
X100920638Y-55364400D01*
X100873019Y-55412019D01*
X99968257Y-56316780D02*
X100444447Y-56316780D01*
X100444447Y-55316780D01*
X99444447Y-55316780D02*
X99253971Y-55316780D01*
X99158733Y-55364400D01*
X99063495Y-55459638D01*
X99015876Y-55650114D01*
X99015876Y-55983447D01*
X99063495Y-56173923D01*
X99158733Y-56269161D01*
X99253971Y-56316780D01*
X99444447Y-56316780D01*
X99539685Y-56269161D01*
X99634923Y-56173923D01*
X99682542Y-55983447D01*
X99682542Y-55650114D01*
X99634923Y-55459638D01*
X99539685Y-55364400D01*
X99444447Y-55316780D01*
X98634923Y-56269161D02*
X98492066Y-56316780D01*
X98253971Y-56316780D01*
X98158733Y-56269161D01*
X98111114Y-56221542D01*
X98063495Y-56126304D01*
X98063495Y-56031066D01*
X98111114Y-55935828D01*
X98158733Y-55888209D01*
X98253971Y-55840590D01*
X98444447Y-55792971D01*
X98539685Y-55745352D01*
X98587304Y-55697733D01*
X98634923Y-55602495D01*
X98634923Y-55507257D01*
X98587304Y-55412019D01*
X98539685Y-55364400D01*
X98444447Y-55316780D01*
X98206352Y-55316780D01*
X98063495Y-55364400D01*
X97634923Y-55792971D02*
X97301590Y-55792971D01*
X97158733Y-56316780D02*
X97634923Y-56316780D01*
X97634923Y-55316780D01*
X97158733Y-55316780D01*
X108059685Y-52926780D02*
X108059685Y-51926780D01*
X107678733Y-51926780D01*
X107583495Y-51974400D01*
X107535876Y-52022019D01*
X107488257Y-52117257D01*
X107488257Y-52260114D01*
X107535876Y-52355352D01*
X107583495Y-52402971D01*
X107678733Y-52450590D01*
X108059685Y-52450590D01*
X106583495Y-52926780D02*
X107059685Y-52926780D01*
X107059685Y-51926780D01*
X105773971Y-52926780D02*
X106250161Y-52926780D01*
X106250161Y-51926780D01*
X105440638Y-52545828D02*
X104678733Y-52545828D01*
X104202542Y-51926780D02*
X104202542Y-52736304D01*
X104154923Y-52831542D01*
X104107304Y-52879161D01*
X104012066Y-52926780D01*
X103821590Y-52926780D01*
X103726352Y-52879161D01*
X103678733Y-52831542D01*
X103631114Y-52736304D01*
X103631114Y-51926780D01*
X103154923Y-52926780D02*
X103154923Y-51926780D01*
X102773971Y-51926780D01*
X102678733Y-51974400D01*
X102631114Y-52022019D01*
X102583495Y-52117257D01*
X102583495Y-52260114D01*
X102631114Y-52355352D01*
X102678733Y-52402971D01*
X102773971Y-52450590D01*
X103154923Y-52450590D01*
X101098733Y-51926780D02*
X101098733Y-52641066D01*
X101146352Y-52783923D01*
X101241590Y-52879161D01*
X101384447Y-52926780D01*
X101479685Y-52926780D01*
X100622542Y-52926780D02*
X100622542Y-51926780D01*
X100241590Y-51926780D01*
X100146352Y-51974400D01*
X100098733Y-52022019D01*
X100051114Y-52117257D01*
X100051114Y-52260114D01*
X100098733Y-52355352D01*
X100146352Y-52402971D01*
X100241590Y-52450590D01*
X100622542Y-52450590D01*
X99670161Y-52022019D02*
X99622542Y-51974400D01*
X99527304Y-51926780D01*
X99289209Y-51926780D01*
X99193971Y-51974400D01*
X99146352Y-52022019D01*
X99098733Y-52117257D01*
X99098733Y-52212495D01*
X99146352Y-52355352D01*
X99717780Y-52926780D01*
X99098733Y-52926780D01*
X108158104Y-60543980D02*
X108158104Y-59543980D01*
X107777152Y-59543980D01*
X107681914Y-59591600D01*
X107634295Y-59639219D01*
X107586676Y-59734457D01*
X107586676Y-59877314D01*
X107634295Y-59972552D01*
X107681914Y-60020171D01*
X107777152Y-60067790D01*
X108158104Y-60067790D01*
X106681914Y-60543980D02*
X107158104Y-60543980D01*
X107158104Y-59543980D01*
X105872390Y-60543980D02*
X106348580Y-60543980D01*
X106348580Y-59543980D01*
X105539057Y-60163028D02*
X104777152Y-60163028D01*
X104300961Y-60543980D02*
X104300961Y-59543980D01*
X104062866Y-59543980D01*
X103920009Y-59591600D01*
X103824771Y-59686838D01*
X103777152Y-59782076D01*
X103729533Y-59972552D01*
X103729533Y-60115409D01*
X103777152Y-60305885D01*
X103824771Y-60401123D01*
X103920009Y-60496361D01*
X104062866Y-60543980D01*
X104300961Y-60543980D01*
X103396200Y-59543980D02*
X103158104Y-60543980D01*
X102967628Y-59829695D01*
X102777152Y-60543980D01*
X102539057Y-59543980D01*
X107970809Y-63779371D02*
X107637476Y-63779371D01*
X107494619Y-64303180D02*
X107970809Y-64303180D01*
X107970809Y-63303180D01*
X107494619Y-63303180D01*
X107066047Y-64303180D02*
X107066047Y-63303180D01*
X106494619Y-64303180D01*
X106494619Y-63303180D01*
X106066047Y-64017466D02*
X105589857Y-64017466D01*
X106161285Y-64303180D02*
X105827952Y-63303180D01*
X105494619Y-64303180D01*
X104827952Y-63779371D02*
X104685095Y-63826990D01*
X104637476Y-63874609D01*
X104589857Y-63969847D01*
X104589857Y-64112704D01*
X104637476Y-64207942D01*
X104685095Y-64255561D01*
X104780333Y-64303180D01*
X105161285Y-64303180D01*
X105161285Y-63303180D01*
X104827952Y-63303180D01*
X104732714Y-63350800D01*
X104685095Y-63398419D01*
X104637476Y-63493657D01*
X104637476Y-63588895D01*
X104685095Y-63684133D01*
X104732714Y-63731752D01*
X104827952Y-63779371D01*
X105161285Y-63779371D01*
X103685095Y-64303180D02*
X104161285Y-64303180D01*
X104161285Y-63303180D01*
X103351761Y-63779371D02*
X103018428Y-63779371D01*
X102875571Y-64303180D02*
X103351761Y-64303180D01*
X103351761Y-63303180D01*
X102875571Y-63303180D01*
M02*
