%TF.GenerationSoftware,KiCad,Pcbnew,6.0.11-2627ca5db0~126~ubuntu20.04.1*%
%TF.CreationDate,2024-02-25T19:14:14-05:00*%
%TF.ProjectId,,58585858-5858-4585-9858-585858585858,rev?*%
%TF.SameCoordinates,Original*%
%TF.FileFunction,Copper,L2,Bot*%
%TF.FilePolarity,Positive*%
%FSLAX46Y46*%
G04 Gerber Fmt 4.6, Leading zero omitted, Abs format (unit mm)*
G04 Created by KiCad (PCBNEW 6.0.11-2627ca5db0~126~ubuntu20.04.1) date 2024-02-25 19:14:14*
%MOMM*%
%LPD*%
G01*
G04 APERTURE LIST*
%TA.AperFunction,Profile*%
%ADD10C,0.100000*%
%TD*%
%ADD11C,0.250000*%
%TA.AperFunction,NonConductor*%
%ADD12C,0.250000*%
%TD*%
%TA.AperFunction,ComponentPad*%
%ADD13R,1.700000X1.700000*%
%TD*%
%TA.AperFunction,ComponentPad*%
%ADD14O,1.700000X1.700000*%
%TD*%
%TA.AperFunction,ComponentPad*%
%ADD15O,1.600000X1.000000*%
%TD*%
%TA.AperFunction,ComponentPad*%
%ADD16O,2.100000X1.000000*%
%TD*%
%TA.AperFunction,ComponentPad*%
%ADD17R,2.400000X2.400000*%
%TD*%
%TA.AperFunction,ComponentPad*%
%ADD18C,2.400000*%
%TD*%
%TA.AperFunction,ViaPad*%
%ADD19C,0.800000*%
%TD*%
%TA.AperFunction,Conductor*%
%ADD20C,0.250000*%
%TD*%
G04 APERTURE END LIST*
D10*
X65735200Y-102656000D02*
X127415200Y-102656000D01*
X127415200Y-133156000D02*
X127415200Y-102656000D01*
X65735200Y-102656000D02*
X65735200Y-133156000D01*
X65735200Y-133156000D02*
X127415200Y-133156000D01*
D11*
D12*
X74895200Y-126524571D02*
X74895200Y-125024571D01*
X74895200Y-125738857D02*
X74038057Y-125738857D01*
X74038057Y-126524571D02*
X74038057Y-125024571D01*
X73323771Y-126524571D02*
X73323771Y-125024571D01*
X71895200Y-126524571D02*
X72609485Y-126524571D01*
X72609485Y-125024571D01*
X71395200Y-125953142D02*
X70252342Y-125953142D01*
X69252342Y-125024571D02*
X69109485Y-125024571D01*
X68966628Y-125096000D01*
X68895200Y-125167428D01*
X68823771Y-125310285D01*
X68752342Y-125596000D01*
X68752342Y-125953142D01*
X68823771Y-126238857D01*
X68895200Y-126381714D01*
X68966628Y-126453142D01*
X69109485Y-126524571D01*
X69252342Y-126524571D01*
X69395200Y-126453142D01*
X69466628Y-126381714D01*
X69538057Y-126238857D01*
X69609485Y-125953142D01*
X69609485Y-125596000D01*
X69538057Y-125310285D01*
X69466628Y-125167428D01*
X69395200Y-125096000D01*
X69252342Y-125024571D01*
X67323771Y-126524571D02*
X68180914Y-126524571D01*
X67752342Y-126524571D02*
X67752342Y-125024571D01*
X67895200Y-125238857D01*
X68038057Y-125381714D01*
X68180914Y-125453142D01*
D10*
X65735200Y-72156000D02*
X127415200Y-72156000D01*
X127415200Y-102656000D02*
X127415200Y-72156000D01*
X65735200Y-72156000D02*
X65735200Y-102656000D01*
X65735200Y-102656000D02*
X127415200Y-102656000D01*
D11*
D12*
X74895200Y-96024571D02*
X74895200Y-94524571D01*
X74895200Y-95238857D02*
X74038057Y-95238857D01*
X74038057Y-96024571D02*
X74038057Y-94524571D01*
X73323771Y-96024571D02*
X73323771Y-94524571D01*
X71895200Y-96024571D02*
X72609485Y-96024571D01*
X72609485Y-94524571D01*
X71395200Y-95453142D02*
X70252342Y-95453142D01*
X69252342Y-94524571D02*
X69109485Y-94524571D01*
X68966628Y-94596000D01*
X68895200Y-94667428D01*
X68823771Y-94810285D01*
X68752342Y-95096000D01*
X68752342Y-95453142D01*
X68823771Y-95738857D01*
X68895200Y-95881714D01*
X68966628Y-95953142D01*
X69109485Y-96024571D01*
X69252342Y-96024571D01*
X69395200Y-95953142D01*
X69466628Y-95881714D01*
X69538057Y-95738857D01*
X69609485Y-95453142D01*
X69609485Y-95096000D01*
X69538057Y-94810285D01*
X69466628Y-94667428D01*
X69395200Y-94596000D01*
X69252342Y-94524571D01*
X67323771Y-96024571D02*
X68180914Y-96024571D01*
X67752342Y-96024571D02*
X67752342Y-94524571D01*
X67895200Y-94738857D01*
X68038057Y-94881714D01*
X68180914Y-94953142D01*
D10*
X65735200Y-72156000D02*
X127415200Y-72156000D01*
X65735200Y-41656000D02*
X65735200Y-72156000D01*
X127415200Y-72156000D02*
X127415200Y-41656000D01*
X65735200Y-41656000D02*
X127415200Y-41656000D01*
D11*
D12*
X74895200Y-65524571D02*
X74895200Y-64024571D01*
X74895200Y-64738857D02*
X74038057Y-64738857D01*
X74038057Y-65524571D02*
X74038057Y-64024571D01*
X73323771Y-65524571D02*
X73323771Y-64024571D01*
X71895200Y-65524571D02*
X72609485Y-65524571D01*
X72609485Y-64024571D01*
X71395200Y-64953142D02*
X70252342Y-64953142D01*
X69252342Y-64024571D02*
X69109485Y-64024571D01*
X68966628Y-64096000D01*
X68895200Y-64167428D01*
X68823771Y-64310285D01*
X68752342Y-64596000D01*
X68752342Y-64953142D01*
X68823771Y-65238857D01*
X68895200Y-65381714D01*
X68966628Y-65453142D01*
X69109485Y-65524571D01*
X69252342Y-65524571D01*
X69395200Y-65453142D01*
X69466628Y-65381714D01*
X69538057Y-65238857D01*
X69609485Y-64953142D01*
X69609485Y-64596000D01*
X69538057Y-64310285D01*
X69466628Y-64167428D01*
X69395200Y-64096000D01*
X69252342Y-64024571D01*
X67323771Y-65524571D02*
X68180914Y-65524571D01*
X67752342Y-65524571D02*
X67752342Y-64024571D01*
X67895200Y-64238857D01*
X68038057Y-64381714D01*
X68180914Y-64453142D01*
D13*
%TO.P,JP3,1,A*%
%TO.N,/RS485_B*%
X120878400Y-104510000D03*
D14*
%TO.P,JP3,2,B*%
%TO.N,Net-(JP3-Pad2)*%
X120878400Y-107050000D03*
%TD*%
D13*
%TO.P,JP2,1,A*%
%TO.N,Net-(JP2-Pad1)*%
X117220800Y-104510000D03*
D14*
%TO.P,JP2,2,B*%
%TO.N,/RS485_A*%
X117220800Y-107050000D03*
%TD*%
D13*
%TO.P,JP1,1,A*%
%TO.N,/RS485_A*%
X113563200Y-104510000D03*
D14*
%TO.P,JP1,2,B*%
%TO.N,Net-(JP1-Pad2)*%
X113563200Y-107050000D03*
%TD*%
D15*
%TO.P,J1,S1,SHIELD*%
%TO.N,unconnected-(J1-PadS1)*%
X68825200Y-110836000D03*
D16*
X73005200Y-110836000D03*
X73005200Y-119476000D03*
D15*
X68825200Y-119476000D03*
%TD*%
D17*
%TO.P,J2,1,Pin_1*%
%TO.N,GND2*%
X123267600Y-119795600D03*
D18*
%TO.P,J2,2,Pin_2*%
%TO.N,/RS485_A*%
X123267600Y-116295600D03*
%TO.P,J2,3,Pin_3*%
%TO.N,/RS485_B*%
X123267600Y-112795600D03*
%TD*%
D13*
%TO.P,JP3,1,A*%
%TO.N,/RS485_B*%
X120878400Y-74010000D03*
D14*
%TO.P,JP3,2,B*%
%TO.N,Net-(JP3-Pad2)*%
X120878400Y-76550000D03*
%TD*%
D13*
%TO.P,JP2,1,A*%
%TO.N,Net-(JP2-Pad1)*%
X117220800Y-74010000D03*
D14*
%TO.P,JP2,2,B*%
%TO.N,/RS485_A*%
X117220800Y-76550000D03*
%TD*%
D13*
%TO.P,JP1,1,A*%
%TO.N,/RS485_A*%
X113563200Y-74010000D03*
D14*
%TO.P,JP1,2,B*%
%TO.N,Net-(JP1-Pad2)*%
X113563200Y-76550000D03*
%TD*%
D15*
%TO.P,J1,S1,SHIELD*%
%TO.N,unconnected-(J1-PadS1)*%
X68825200Y-80336000D03*
D16*
X73005200Y-80336000D03*
X73005200Y-88976000D03*
D15*
X68825200Y-88976000D03*
%TD*%
D17*
%TO.P,J2,1,Pin_1*%
%TO.N,GND2*%
X123267600Y-89295600D03*
D18*
%TO.P,J2,2,Pin_2*%
%TO.N,/RS485_A*%
X123267600Y-85795600D03*
%TO.P,J2,3,Pin_3*%
%TO.N,/RS485_B*%
X123267600Y-82295600D03*
%TD*%
D17*
%TO.P,J2,1,Pin_1*%
%TO.N,GND2*%
X123267600Y-58795600D03*
D18*
%TO.P,J2,2,Pin_2*%
%TO.N,/RS485_A*%
X123267600Y-55295600D03*
%TO.P,J2,3,Pin_3*%
%TO.N,/RS485_B*%
X123267600Y-51795600D03*
%TD*%
D15*
%TO.P,J1,S1,SHIELD*%
%TO.N,unconnected-(J1-PadS1)*%
X68825200Y-49836000D03*
D16*
X73005200Y-49836000D03*
X73005200Y-58476000D03*
D15*
X68825200Y-58476000D03*
%TD*%
D13*
%TO.P,JP1,1,A*%
%TO.N,/RS485_A*%
X113563200Y-43510000D03*
D14*
%TO.P,JP1,2,B*%
%TO.N,Net-(JP1-Pad2)*%
X113563200Y-46050000D03*
%TD*%
D13*
%TO.P,JP2,1,A*%
%TO.N,Net-(JP2-Pad1)*%
X117220800Y-43510000D03*
D14*
%TO.P,JP2,2,B*%
%TO.N,/RS485_A*%
X117220800Y-46050000D03*
%TD*%
D13*
%TO.P,JP3,1,A*%
%TO.N,/RS485_B*%
X120878400Y-43510000D03*
D14*
%TO.P,JP3,2,B*%
%TO.N,Net-(JP3-Pad2)*%
X120878400Y-46050000D03*
%TD*%
D19*
%TO.N,/RS485_A*%
X111186000Y-124362100D03*
%TO.N,/RS485_B*%
X111733100Y-123440900D03*
%TO.N,Net-(JP1-Pad2)*%
X116509600Y-122201700D03*
X116089900Y-124626800D03*
X113893000Y-120258000D03*
%TO.N,Net-(R5-Pad1)*%
X96443600Y-119445200D03*
X97172938Y-115287986D03*
%TO.N,/RX*%
X102857700Y-110606000D03*
X111632800Y-110301200D03*
%TO.N,/TX*%
X102844400Y-122848800D03*
X106654299Y-120207099D03*
X108127600Y-115178000D03*
X111988400Y-115127200D03*
%TO.N,Net-(J1-PadA7)*%
X71653200Y-121375600D03*
X72262800Y-113908000D03*
%TO.N,Net-(J1-PadA6)*%
X76075100Y-116150100D03*
X76856500Y-123861900D03*
%TO.N,Net-(C7-Pad1)*%
X102488800Y-113654000D03*
X102692000Y-116651200D03*
%TO.N,GND2*%
X111277200Y-103138400D03*
X126923600Y-122848800D03*
X88163200Y-118327600D03*
X88112400Y-127116000D03*
X126923600Y-109691600D03*
X88163200Y-111520400D03*
X88112400Y-103087600D03*
X111277200Y-127116000D03*
X101269600Y-103138400D03*
X126923600Y-127116000D03*
X126923600Y-103138400D03*
X101269600Y-127116000D03*
%TO.N,Net-(C2-Pad1)*%
X77342800Y-104154400D03*
X78267400Y-119384200D03*
%TO.N,GND1*%
X83438800Y-127166800D03*
X72516800Y-103138400D03*
X76022000Y-127166800D03*
X66217600Y-109336000D03*
X66217600Y-120969200D03*
X66217600Y-127166800D03*
X74904400Y-122188400D03*
X74904400Y-120461200D03*
%TO.N,Net-(C1-Pad1)*%
X77051300Y-110504400D03*
%TO.N,GND1*%
X83438800Y-103138400D03*
%TO.N,Net-(C1-Pad1)*%
X75602300Y-112130000D03*
%TO.N,GND1*%
X83438800Y-111469600D03*
X83388000Y-118327600D03*
X66217600Y-103138400D03*
%TO.N,/RS485_A*%
X111186000Y-93862100D03*
%TO.N,/RS485_B*%
X111733100Y-92940900D03*
%TO.N,Net-(JP1-Pad2)*%
X116509600Y-91701700D03*
X116089900Y-94126800D03*
X113893000Y-89758000D03*
%TO.N,Net-(R5-Pad1)*%
X96443600Y-88945200D03*
X97172938Y-84787986D03*
%TO.N,/RX*%
X102857700Y-80106000D03*
X111632800Y-79801200D03*
%TO.N,/TX*%
X102844400Y-92348800D03*
X106654299Y-89707099D03*
X108127600Y-84678000D03*
X111988400Y-84627200D03*
%TO.N,Net-(J1-PadA7)*%
X71653200Y-90875600D03*
X72262800Y-83408000D03*
%TO.N,Net-(J1-PadA6)*%
X76075100Y-85650100D03*
X76856500Y-93361900D03*
%TO.N,Net-(C7-Pad1)*%
X102488800Y-83154000D03*
X102692000Y-86151200D03*
%TO.N,GND2*%
X111277200Y-72638400D03*
X126923600Y-92348800D03*
X88163200Y-87827600D03*
X88112400Y-96616000D03*
X126923600Y-79191600D03*
X88163200Y-81020400D03*
X88112400Y-72587600D03*
X111277200Y-96616000D03*
X101269600Y-72638400D03*
X126923600Y-96616000D03*
X126923600Y-72638400D03*
X101269600Y-96616000D03*
%TO.N,Net-(C2-Pad1)*%
X77342800Y-73654400D03*
X78267400Y-88884200D03*
%TO.N,GND1*%
X83438800Y-96666800D03*
X72516800Y-72638400D03*
X76022000Y-96666800D03*
X66217600Y-78836000D03*
X66217600Y-90469200D03*
X66217600Y-96666800D03*
X74904400Y-91688400D03*
X74904400Y-89961200D03*
%TO.N,Net-(C1-Pad1)*%
X77051300Y-80004400D03*
%TO.N,GND1*%
X83438800Y-72638400D03*
%TO.N,Net-(C1-Pad1)*%
X75602300Y-81630000D03*
%TO.N,GND1*%
X83438800Y-80969600D03*
X83388000Y-87827600D03*
X66217600Y-72638400D03*
%TO.N,Net-(C1-Pad1)*%
X75602300Y-51130000D03*
X77051300Y-49504400D03*
%TO.N,GND1*%
X83438800Y-42138400D03*
X83438800Y-50469600D03*
X83388000Y-57327600D03*
X66217600Y-42138400D03*
X74904400Y-59461200D03*
X74904400Y-61188400D03*
X66217600Y-66166800D03*
X66217600Y-59969200D03*
X66217600Y-48336000D03*
X76022000Y-66166800D03*
X72516800Y-42138400D03*
X83438800Y-66166800D03*
%TO.N,Net-(C2-Pad1)*%
X78267400Y-58384200D03*
X77342800Y-43154400D03*
%TO.N,GND2*%
X101269600Y-66116000D03*
X126923600Y-42138400D03*
X126923600Y-66116000D03*
X101269600Y-42138400D03*
X111277200Y-66116000D03*
X88112400Y-42087600D03*
X88163200Y-50520400D03*
X126923600Y-48691600D03*
X88112400Y-66116000D03*
X88163200Y-57327600D03*
X126923600Y-61848800D03*
X111277200Y-42138400D03*
%TO.N,Net-(C7-Pad1)*%
X102692000Y-55651200D03*
X102488800Y-52654000D03*
%TO.N,Net-(J1-PadA6)*%
X76856500Y-62861900D03*
X76075100Y-55150100D03*
%TO.N,Net-(J1-PadA7)*%
X72262800Y-52908000D03*
X71653200Y-60375600D03*
%TO.N,/TX*%
X111988400Y-54127200D03*
X108127600Y-54178000D03*
X106654299Y-59207099D03*
X102844400Y-61848800D03*
%TO.N,/RX*%
X111632800Y-49301200D03*
X102857700Y-49606000D03*
%TO.N,Net-(R5-Pad1)*%
X97172938Y-54287986D03*
X96443600Y-58445200D03*
%TO.N,Net-(JP1-Pad2)*%
X113893000Y-59258000D03*
X116089900Y-63626800D03*
X116509600Y-61201700D03*
%TO.N,/RS485_B*%
X111733100Y-62440900D03*
%TO.N,/RS485_A*%
X111186000Y-63362100D03*
%TD*%
D20*
%TO.N,/RS485_A*%
X116045500Y-107050000D02*
X113563200Y-104567700D01*
X113563200Y-104567700D02*
X113563200Y-104510000D01*
X118622500Y-116295600D02*
X123267600Y-116295600D01*
X118622500Y-116295600D02*
X118622500Y-117027100D01*
X117220800Y-107050000D02*
X116045500Y-107050000D01*
X112482600Y-120983000D02*
X110995900Y-122469700D01*
X118622500Y-117027100D02*
X114666600Y-120983000D01*
X117220800Y-114893900D02*
X118622500Y-116295600D01*
X110995900Y-122469700D02*
X110995900Y-124172000D01*
X114666600Y-120983000D02*
X112482600Y-120983000D01*
X110995900Y-124172000D02*
X111186000Y-124362100D01*
X117220800Y-107050000D02*
X117220800Y-114893900D01*
%TO.N,/RS485_B*%
X111733100Y-123440900D02*
X111733100Y-122646900D01*
X117880700Y-121476700D02*
X118287600Y-121883600D01*
X118287600Y-121883600D02*
X124790000Y-121883600D01*
X111733100Y-122646900D02*
X112903300Y-121476700D01*
X124790000Y-121883600D02*
X125856800Y-120816800D01*
X125856800Y-115384800D02*
X123267600Y-112795600D01*
X112903300Y-121476700D02*
X117880700Y-121476700D01*
X125856800Y-120816800D02*
X125856800Y-115384800D01*
%TO.N,Net-(JP1-Pad2)*%
X116509600Y-123204400D02*
X116509600Y-122201700D01*
X113893000Y-120258000D02*
X113461600Y-119826600D01*
X116089900Y-124626800D02*
X116089900Y-123624100D01*
X113563200Y-108225300D02*
X113563200Y-107050000D01*
X116089900Y-123624100D02*
X116509600Y-123204400D01*
X113461600Y-119826600D02*
X113461600Y-108326900D01*
X113461600Y-108326900D02*
X113563200Y-108225300D01*
%TO.N,Net-(R5-Pad1)*%
X97172938Y-115287986D02*
X97172938Y-118715862D01*
X97172938Y-118715862D02*
X96443600Y-119445200D01*
%TO.N,/RX*%
X102857700Y-110606000D02*
X111328000Y-110606000D01*
X111328000Y-110606000D02*
X111632800Y-110301200D01*
%TO.N,/TX*%
X104114501Y-120207099D02*
X102844400Y-121477200D01*
X108127600Y-115178000D02*
X111937600Y-115178000D01*
X102844400Y-121477200D02*
X102844400Y-122848800D01*
X111937600Y-115178000D02*
X111988400Y-115127200D01*
X106654299Y-120207099D02*
X104114501Y-120207099D01*
%TO.N,Net-(J1-PadA7)*%
X71094400Y-115076400D02*
X72262800Y-113908000D01*
X71094400Y-120816800D02*
X71094400Y-115076400D01*
X71653200Y-121375600D02*
X71094400Y-120816800D01*
%TO.N,Net-(J1-PadA6)*%
X79700400Y-119775400D02*
X76075100Y-116150100D01*
X79700400Y-121018000D02*
X79700400Y-119775400D01*
X76856500Y-123861900D02*
X79700400Y-121018000D01*
%TO.N,Net-(C7-Pad1)*%
X102692000Y-116651200D02*
X102692000Y-113857200D01*
X102692000Y-113857200D02*
X102488800Y-113654000D01*
%TO.N,Net-(C2-Pad1)*%
X77342800Y-105373600D02*
X77342800Y-104154400D01*
X74693400Y-108023000D02*
X77342800Y-105373600D01*
X74693400Y-115810200D02*
X74693400Y-108023000D01*
X78267400Y-119384200D02*
X74693400Y-115810200D01*
%TO.N,GND1*%
X74904400Y-122188400D02*
X74904400Y-120461200D01*
%TO.N,Net-(C1-Pad1)*%
X75602300Y-111953400D02*
X77051300Y-110504400D01*
X75602300Y-112130000D02*
X75602300Y-111953400D01*
%TO.N,/RS485_A*%
X116045500Y-76550000D02*
X113563200Y-74067700D01*
X113563200Y-74067700D02*
X113563200Y-74010000D01*
X118622500Y-85795600D02*
X123267600Y-85795600D01*
X118622500Y-85795600D02*
X118622500Y-86527100D01*
X117220800Y-76550000D02*
X116045500Y-76550000D01*
X112482600Y-90483000D02*
X110995900Y-91969700D01*
X118622500Y-86527100D02*
X114666600Y-90483000D01*
X117220800Y-84393900D02*
X118622500Y-85795600D01*
X110995900Y-91969700D02*
X110995900Y-93672000D01*
X114666600Y-90483000D02*
X112482600Y-90483000D01*
X110995900Y-93672000D02*
X111186000Y-93862100D01*
X117220800Y-76550000D02*
X117220800Y-84393900D01*
%TO.N,/RS485_B*%
X111733100Y-92940900D02*
X111733100Y-92146900D01*
X117880700Y-90976700D02*
X118287600Y-91383600D01*
X118287600Y-91383600D02*
X124790000Y-91383600D01*
X111733100Y-92146900D02*
X112903300Y-90976700D01*
X124790000Y-91383600D02*
X125856800Y-90316800D01*
X125856800Y-84884800D02*
X123267600Y-82295600D01*
X112903300Y-90976700D02*
X117880700Y-90976700D01*
X125856800Y-90316800D02*
X125856800Y-84884800D01*
%TO.N,Net-(JP1-Pad2)*%
X116509600Y-92704400D02*
X116509600Y-91701700D01*
X113893000Y-89758000D02*
X113461600Y-89326600D01*
X116089900Y-94126800D02*
X116089900Y-93124100D01*
X113563200Y-77725300D02*
X113563200Y-76550000D01*
X116089900Y-93124100D02*
X116509600Y-92704400D01*
X113461600Y-89326600D02*
X113461600Y-77826900D01*
X113461600Y-77826900D02*
X113563200Y-77725300D01*
%TO.N,Net-(R5-Pad1)*%
X97172938Y-84787986D02*
X97172938Y-88215862D01*
X97172938Y-88215862D02*
X96443600Y-88945200D01*
%TO.N,/RX*%
X102857700Y-80106000D02*
X111328000Y-80106000D01*
X111328000Y-80106000D02*
X111632800Y-79801200D01*
%TO.N,/TX*%
X104114501Y-89707099D02*
X102844400Y-90977200D01*
X108127600Y-84678000D02*
X111937600Y-84678000D01*
X102844400Y-90977200D02*
X102844400Y-92348800D01*
X111937600Y-84678000D02*
X111988400Y-84627200D01*
X106654299Y-89707099D02*
X104114501Y-89707099D01*
%TO.N,Net-(J1-PadA7)*%
X71094400Y-84576400D02*
X72262800Y-83408000D01*
X71094400Y-90316800D02*
X71094400Y-84576400D01*
X71653200Y-90875600D02*
X71094400Y-90316800D01*
%TO.N,Net-(J1-PadA6)*%
X79700400Y-89275400D02*
X76075100Y-85650100D01*
X79700400Y-90518000D02*
X79700400Y-89275400D01*
X76856500Y-93361900D02*
X79700400Y-90518000D01*
%TO.N,Net-(C7-Pad1)*%
X102692000Y-86151200D02*
X102692000Y-83357200D01*
X102692000Y-83357200D02*
X102488800Y-83154000D01*
%TO.N,Net-(C2-Pad1)*%
X77342800Y-74873600D02*
X77342800Y-73654400D01*
X74693400Y-77523000D02*
X77342800Y-74873600D01*
X74693400Y-85310200D02*
X74693400Y-77523000D01*
X78267400Y-88884200D02*
X74693400Y-85310200D01*
%TO.N,GND1*%
X74904400Y-91688400D02*
X74904400Y-89961200D01*
%TO.N,Net-(C1-Pad1)*%
X75602300Y-81453400D02*
X77051300Y-80004400D01*
X75602300Y-81630000D02*
X75602300Y-81453400D01*
X75602300Y-51130000D02*
X75602300Y-50953400D01*
X75602300Y-50953400D02*
X77051300Y-49504400D01*
%TO.N,GND1*%
X74904400Y-61188400D02*
X74904400Y-59461200D01*
%TO.N,Net-(C2-Pad1)*%
X78267400Y-58384200D02*
X74693400Y-54810200D01*
X74693400Y-54810200D02*
X74693400Y-47023000D01*
X74693400Y-47023000D02*
X77342800Y-44373600D01*
X77342800Y-44373600D02*
X77342800Y-43154400D01*
%TO.N,Net-(C7-Pad1)*%
X102692000Y-52857200D02*
X102488800Y-52654000D01*
X102692000Y-55651200D02*
X102692000Y-52857200D01*
%TO.N,Net-(J1-PadA6)*%
X76856500Y-62861900D02*
X79700400Y-60018000D01*
X79700400Y-60018000D02*
X79700400Y-58775400D01*
X79700400Y-58775400D02*
X76075100Y-55150100D01*
%TO.N,Net-(J1-PadA7)*%
X71653200Y-60375600D02*
X71094400Y-59816800D01*
X71094400Y-59816800D02*
X71094400Y-54076400D01*
X71094400Y-54076400D02*
X72262800Y-52908000D01*
%TO.N,/TX*%
X106654299Y-59207099D02*
X104114501Y-59207099D01*
X111937600Y-54178000D02*
X111988400Y-54127200D01*
X102844400Y-60477200D02*
X102844400Y-61848800D01*
X108127600Y-54178000D02*
X111937600Y-54178000D01*
X104114501Y-59207099D02*
X102844400Y-60477200D01*
%TO.N,/RX*%
X111328000Y-49606000D02*
X111632800Y-49301200D01*
X102857700Y-49606000D02*
X111328000Y-49606000D01*
%TO.N,Net-(R5-Pad1)*%
X97172938Y-57715862D02*
X96443600Y-58445200D01*
X97172938Y-54287986D02*
X97172938Y-57715862D01*
%TO.N,Net-(JP1-Pad2)*%
X113461600Y-47326900D02*
X113563200Y-47225300D01*
X113461600Y-58826600D02*
X113461600Y-47326900D01*
X116089900Y-62624100D02*
X116509600Y-62204400D01*
X113563200Y-47225300D02*
X113563200Y-46050000D01*
X116089900Y-63626800D02*
X116089900Y-62624100D01*
X113893000Y-59258000D02*
X113461600Y-58826600D01*
X116509600Y-62204400D02*
X116509600Y-61201700D01*
%TO.N,/RS485_B*%
X125856800Y-59816800D02*
X125856800Y-54384800D01*
X112903300Y-60476700D02*
X117880700Y-60476700D01*
X125856800Y-54384800D02*
X123267600Y-51795600D01*
X124790000Y-60883600D02*
X125856800Y-59816800D01*
X111733100Y-61646900D02*
X112903300Y-60476700D01*
X118287600Y-60883600D02*
X124790000Y-60883600D01*
X117880700Y-60476700D02*
X118287600Y-60883600D01*
X111733100Y-62440900D02*
X111733100Y-61646900D01*
%TO.N,/RS485_A*%
X117220800Y-46050000D02*
X117220800Y-53893900D01*
X110995900Y-63172000D02*
X111186000Y-63362100D01*
X114666600Y-59983000D02*
X112482600Y-59983000D01*
X110995900Y-61469700D02*
X110995900Y-63172000D01*
X117220800Y-53893900D02*
X118622500Y-55295600D01*
X118622500Y-56027100D02*
X114666600Y-59983000D01*
X112482600Y-59983000D02*
X110995900Y-61469700D01*
X117220800Y-46050000D02*
X116045500Y-46050000D01*
X118622500Y-55295600D02*
X118622500Y-56027100D01*
X118622500Y-55295600D02*
X123267600Y-55295600D01*
X113563200Y-43567700D02*
X113563200Y-43510000D01*
X116045500Y-46050000D02*
X113563200Y-43567700D01*
%TD*%
%TA.AperFunction,Conductor*%
%TO.N,GND1*%
G36*
X83787321Y-41677002D02*
G01*
X83833814Y-41730658D01*
X83845200Y-41783000D01*
X83845200Y-66520749D01*
X83825198Y-66588870D01*
X83771542Y-66635363D01*
X83719266Y-66646749D01*
X81087860Y-66648102D01*
X75665618Y-66650891D01*
X75597487Y-66630924D01*
X75550966Y-66577292D01*
X75540826Y-66507023D01*
X75570328Y-66442379D01*
X75571090Y-66441500D01*
X75577843Y-66441500D01*
X75577843Y-63250500D01*
X66712557Y-63250500D01*
X66712557Y-66441500D01*
X66717876Y-66441500D01*
X66718885Y-66444938D01*
X66750442Y-66494040D01*
X66750442Y-66565036D01*
X66712059Y-66624763D01*
X66647479Y-66654256D01*
X66629611Y-66655539D01*
X65862265Y-66655934D01*
X65794134Y-66635967D01*
X65747613Y-66582335D01*
X65736200Y-66529934D01*
X65736200Y-59845607D01*
X70765136Y-59845607D01*
X70767990Y-59856256D01*
X70774891Y-59882010D01*
X70777270Y-59892742D01*
X70783812Y-59929845D01*
X70789323Y-59939390D01*
X70790515Y-59942666D01*
X70791992Y-59945834D01*
X70794846Y-59956484D01*
X70801170Y-59965515D01*
X70816455Y-59987344D01*
X70822361Y-59996615D01*
X70829669Y-60009272D01*
X70841206Y-60029255D01*
X70870082Y-60053485D01*
X70878185Y-60060911D01*
X71020491Y-60203217D01*
X71054517Y-60265529D01*
X71056318Y-60308757D01*
X71047518Y-60375600D01*
X71068156Y-60532362D01*
X71128664Y-60678441D01*
X71224918Y-60803882D01*
X71350359Y-60900136D01*
X71496438Y-60960644D01*
X71653200Y-60981282D01*
X71661388Y-60980204D01*
X71801774Y-60961722D01*
X71809962Y-60960644D01*
X71956041Y-60900136D01*
X72081482Y-60803882D01*
X72177736Y-60678441D01*
X72238244Y-60532362D01*
X72258882Y-60375600D01*
X72238244Y-60218838D01*
X72177736Y-60072759D01*
X72081482Y-59947318D01*
X71956041Y-59851064D01*
X71809962Y-59790556D01*
X71653200Y-59769918D01*
X71586357Y-59778718D01*
X71516210Y-59767779D01*
X71480817Y-59742891D01*
X71456805Y-59718879D01*
X71422779Y-59656567D01*
X71419900Y-59629784D01*
X71419900Y-58557105D01*
X71754231Y-58557105D01*
X71756005Y-58564492D01*
X71756005Y-58564496D01*
X71773104Y-58635716D01*
X71793812Y-58721968D01*
X71797293Y-58728712D01*
X71797294Y-58728715D01*
X71831557Y-58795098D01*
X71871575Y-58872631D01*
X71876567Y-58878353D01*
X71876568Y-58878355D01*
X71898686Y-58903709D01*
X71983031Y-59000396D01*
X71989245Y-59004763D01*
X72115530Y-59093518D01*
X72115532Y-59093519D01*
X72121747Y-59097887D01*
X72279713Y-59159476D01*
X72287246Y-59160468D01*
X72287247Y-59160468D01*
X72404939Y-59175962D01*
X72409026Y-59176500D01*
X73597716Y-59176500D01*
X73723520Y-59161276D01*
X73882123Y-59101345D01*
X74021851Y-59005312D01*
X74036559Y-58988804D01*
X74129588Y-58884392D01*
X74129590Y-58884388D01*
X74134640Y-58878721D01*
X74141438Y-58865883D01*
X74184731Y-58784116D01*
X74213976Y-58728881D01*
X74255281Y-58564441D01*
X74255349Y-58551576D01*
X74256129Y-58402495D01*
X74256169Y-58394895D01*
X74253602Y-58384200D01*
X74218361Y-58237417D01*
X74216588Y-58230032D01*
X74138825Y-58079369D01*
X74133513Y-58073279D01*
X74032363Y-57957329D01*
X74027369Y-57951604D01*
X73968849Y-57910475D01*
X73894870Y-57858482D01*
X73894868Y-57858481D01*
X73888653Y-57854113D01*
X73730687Y-57792524D01*
X73723154Y-57791532D01*
X73723153Y-57791532D01*
X73605461Y-57776038D01*
X73605460Y-57776038D01*
X73601374Y-57775500D01*
X72840682Y-57775500D01*
X72772561Y-57755498D01*
X72726068Y-57701842D01*
X72715964Y-57631568D01*
X72745458Y-57566988D01*
X72766277Y-57549798D01*
X72765433Y-57548698D01*
X72879101Y-57461477D01*
X72885651Y-57456451D01*
X72977898Y-57336233D01*
X73035887Y-57196236D01*
X73055666Y-57046000D01*
X73035887Y-56895764D01*
X72977898Y-56755767D01*
X72885651Y-56635549D01*
X72765433Y-56543302D01*
X72625436Y-56485313D01*
X72512920Y-56470500D01*
X72437480Y-56470500D01*
X72324964Y-56485313D01*
X72184967Y-56543302D01*
X72064749Y-56635549D01*
X71972502Y-56755767D01*
X71914513Y-56895764D01*
X71894734Y-57046000D01*
X71914513Y-57196236D01*
X71972502Y-57336233D01*
X72064749Y-57456451D01*
X72184967Y-57548698D01*
X72245128Y-57573617D01*
X72300407Y-57618166D01*
X72322828Y-57685529D01*
X72305269Y-57754321D01*
X72253307Y-57802699D01*
X72241445Y-57807892D01*
X72128277Y-57850655D01*
X71988549Y-57946688D01*
X71983497Y-57952358D01*
X71983496Y-57952359D01*
X71880812Y-58067608D01*
X71880810Y-58067612D01*
X71875760Y-58073279D01*
X71872208Y-58079988D01*
X71872207Y-58079989D01*
X71839946Y-58140920D01*
X71796424Y-58223119D01*
X71755119Y-58387559D01*
X71755079Y-58395157D01*
X71755079Y-58395159D01*
X71754675Y-58472332D01*
X71754231Y-58557105D01*
X71419900Y-58557105D01*
X71419900Y-54263416D01*
X71439902Y-54195295D01*
X71456805Y-54174321D01*
X72090417Y-53540709D01*
X72152729Y-53506683D01*
X72195957Y-53504882D01*
X72262800Y-53513682D01*
X72270988Y-53512604D01*
X72411374Y-53494122D01*
X72419562Y-53493044D01*
X72565641Y-53432536D01*
X72691082Y-53336282D01*
X72787336Y-53210841D01*
X72847844Y-53064762D01*
X72868482Y-52908000D01*
X72847844Y-52751238D01*
X72787336Y-52605159D01*
X72691082Y-52479718D01*
X72565641Y-52383464D01*
X72419562Y-52322956D01*
X72262800Y-52302318D01*
X72106038Y-52322956D01*
X71959959Y-52383464D01*
X71834518Y-52479718D01*
X71738264Y-52605159D01*
X71677756Y-52751238D01*
X71657118Y-52908000D01*
X71658196Y-52916188D01*
X71665918Y-52974842D01*
X71654979Y-53044990D01*
X71630091Y-53080383D01*
X70878185Y-53832289D01*
X70870081Y-53839716D01*
X70841206Y-53863945D01*
X70835693Y-53873494D01*
X70822361Y-53896585D01*
X70816455Y-53905856D01*
X70794846Y-53936716D01*
X70791992Y-53947366D01*
X70790515Y-53950534D01*
X70789323Y-53953810D01*
X70783812Y-53963355D01*
X70777862Y-53997099D01*
X70777270Y-54000458D01*
X70774892Y-54011185D01*
X70765136Y-54047593D01*
X70766097Y-54058578D01*
X70766097Y-54058580D01*
X70768420Y-54085128D01*
X70768900Y-54096110D01*
X70768900Y-59797090D01*
X70768420Y-59808072D01*
X70765136Y-59845607D01*
X65736200Y-59845607D01*
X65736200Y-58557105D01*
X67824231Y-58557105D01*
X67826005Y-58564492D01*
X67826005Y-58564496D01*
X67843104Y-58635716D01*
X67863812Y-58721968D01*
X67867293Y-58728712D01*
X67867294Y-58728715D01*
X67901557Y-58795098D01*
X67941575Y-58872631D01*
X67946567Y-58878353D01*
X67946568Y-58878355D01*
X67968686Y-58903709D01*
X68053031Y-59000396D01*
X68059245Y-59004763D01*
X68185530Y-59093518D01*
X68185532Y-59093519D01*
X68191747Y-59097887D01*
X68349713Y-59159476D01*
X68357246Y-59160468D01*
X68357247Y-59160468D01*
X68474939Y-59175962D01*
X68479026Y-59176500D01*
X69167716Y-59176500D01*
X69293520Y-59161276D01*
X69452123Y-59101345D01*
X69591851Y-59005312D01*
X69606559Y-58988804D01*
X69699588Y-58884392D01*
X69699590Y-58884388D01*
X69704640Y-58878721D01*
X69711438Y-58865883D01*
X69754731Y-58784116D01*
X69783976Y-58728881D01*
X69825281Y-58564441D01*
X69825349Y-58551576D01*
X69826129Y-58402495D01*
X69826169Y-58394895D01*
X69823602Y-58384200D01*
X69788361Y-58237417D01*
X69786588Y-58230032D01*
X69708825Y-58079369D01*
X69703513Y-58073279D01*
X69602363Y-57957329D01*
X69597369Y-57951604D01*
X69538849Y-57910475D01*
X69464870Y-57858482D01*
X69464868Y-57858481D01*
X69458653Y-57854113D01*
X69300687Y-57792524D01*
X69293154Y-57791532D01*
X69293153Y-57791532D01*
X69175461Y-57776038D01*
X69175460Y-57776038D01*
X69171374Y-57775500D01*
X68482684Y-57775500D01*
X68356880Y-57790724D01*
X68198277Y-57850655D01*
X68058549Y-57946688D01*
X68053497Y-57952358D01*
X68053496Y-57952359D01*
X67950812Y-58067608D01*
X67950810Y-58067612D01*
X67945760Y-58073279D01*
X67942208Y-58079988D01*
X67942207Y-58079989D01*
X67909946Y-58140920D01*
X67866424Y-58223119D01*
X67825119Y-58387559D01*
X67825079Y-58395157D01*
X67825079Y-58395159D01*
X67824675Y-58472332D01*
X67824231Y-58557105D01*
X65736200Y-58557105D01*
X65736200Y-49917105D01*
X67824231Y-49917105D01*
X67826005Y-49924492D01*
X67826005Y-49924496D01*
X67860420Y-50067838D01*
X67863812Y-50081968D01*
X67867293Y-50088712D01*
X67867294Y-50088715D01*
X67892272Y-50137109D01*
X67941575Y-50232631D01*
X67946567Y-50238353D01*
X67946568Y-50238355D01*
X67951837Y-50244395D01*
X68053031Y-50360396D01*
X68059245Y-50364763D01*
X68185530Y-50453518D01*
X68185532Y-50453519D01*
X68191747Y-50457887D01*
X68349713Y-50519476D01*
X68357246Y-50520468D01*
X68357247Y-50520468D01*
X68464882Y-50534638D01*
X68479026Y-50536500D01*
X69167716Y-50536500D01*
X69293520Y-50521276D01*
X69452123Y-50461345D01*
X69591851Y-50365312D01*
X69646860Y-50303572D01*
X69699588Y-50244392D01*
X69699590Y-50244388D01*
X69704640Y-50238721D01*
X69711438Y-50225883D01*
X69758441Y-50137109D01*
X69783976Y-50088881D01*
X69825281Y-49924441D01*
X69825319Y-49917105D01*
X71754231Y-49917105D01*
X71756005Y-49924492D01*
X71756005Y-49924496D01*
X71790420Y-50067838D01*
X71793812Y-50081968D01*
X71797293Y-50088712D01*
X71797294Y-50088715D01*
X71822272Y-50137109D01*
X71871575Y-50232631D01*
X71876567Y-50238353D01*
X71876568Y-50238355D01*
X71881837Y-50244395D01*
X71983031Y-50360396D01*
X71989245Y-50364763D01*
X72115530Y-50453518D01*
X72115532Y-50453519D01*
X72121747Y-50457887D01*
X72128823Y-50460646D01*
X72128827Y-50460648D01*
X72242112Y-50504816D01*
X72298314Y-50548197D01*
X72322140Y-50615076D01*
X72306026Y-50684220D01*
X72255089Y-50733676D01*
X72244567Y-50738615D01*
X72184967Y-50763302D01*
X72064749Y-50855549D01*
X71972502Y-50975767D01*
X71914513Y-51115764D01*
X71894734Y-51266000D01*
X71914513Y-51416236D01*
X71972502Y-51556233D01*
X72064749Y-51676451D01*
X72184967Y-51768698D01*
X72324964Y-51826687D01*
X72437480Y-51841500D01*
X72512920Y-51841500D01*
X72625436Y-51826687D01*
X72765433Y-51768698D01*
X72885651Y-51676451D01*
X72977898Y-51556233D01*
X73035887Y-51416236D01*
X73055666Y-51266000D01*
X73035887Y-51115764D01*
X72977898Y-50975767D01*
X72885651Y-50855549D01*
X72765433Y-50763302D01*
X72767359Y-50760792D01*
X72728690Y-50720239D01*
X72715252Y-50650526D01*
X72741638Y-50584614D01*
X72799469Y-50543431D01*
X72840682Y-50536500D01*
X73597716Y-50536500D01*
X73723520Y-50521276D01*
X73882123Y-50461345D01*
X74021851Y-50365312D01*
X74134640Y-50238721D01*
X74138194Y-50232009D01*
X74138437Y-50231659D01*
X74193741Y-50187139D01*
X74264335Y-50179585D01*
X74327805Y-50211397D01*
X74364002Y-50272473D01*
X74367900Y-50303572D01*
X74367900Y-54790490D01*
X74367420Y-54801472D01*
X74364136Y-54839007D01*
X74366990Y-54849656D01*
X74373891Y-54875410D01*
X74376270Y-54886142D01*
X74382812Y-54923245D01*
X74388323Y-54932790D01*
X74389515Y-54936066D01*
X74390992Y-54939234D01*
X74393846Y-54949884D01*
X74415455Y-54980744D01*
X74421361Y-54990015D01*
X74423280Y-54993338D01*
X74440206Y-55022655D01*
X74448651Y-55029741D01*
X74469082Y-55046885D01*
X74477185Y-55054311D01*
X77634691Y-58211818D01*
X77668717Y-58274130D01*
X77670518Y-58317358D01*
X77661718Y-58384200D01*
X77682356Y-58540962D01*
X77742864Y-58687041D01*
X77839118Y-58812482D01*
X77964559Y-58908736D01*
X78110638Y-58969244D01*
X78267400Y-58989882D01*
X78275588Y-58988804D01*
X78415974Y-58970322D01*
X78424162Y-58969244D01*
X78570241Y-58908736D01*
X78695682Y-58812482D01*
X78791936Y-58687041D01*
X78825150Y-58606856D01*
X78869697Y-58551576D01*
X78937060Y-58529155D01*
X79005852Y-58546713D01*
X79030653Y-58565979D01*
X79186191Y-58721518D01*
X79337996Y-58873323D01*
X79372021Y-58935635D01*
X79374900Y-58962418D01*
X79374900Y-59830984D01*
X79354898Y-59899105D01*
X79337995Y-59920079D01*
X77028883Y-62229191D01*
X76966571Y-62263217D01*
X76923343Y-62265018D01*
X76856500Y-62256218D01*
X76699738Y-62276856D01*
X76553659Y-62337364D01*
X76428218Y-62433618D01*
X76331964Y-62559059D01*
X76271456Y-62705138D01*
X76250818Y-62861900D01*
X76271456Y-63018662D01*
X76331964Y-63164741D01*
X76428218Y-63290182D01*
X76553659Y-63386436D01*
X76699738Y-63446944D01*
X76856500Y-63467582D01*
X76864688Y-63466504D01*
X77005074Y-63448022D01*
X77013262Y-63446944D01*
X77159341Y-63386436D01*
X77284782Y-63290182D01*
X77381036Y-63164741D01*
X77441544Y-63018662D01*
X77462182Y-62861900D01*
X77453382Y-62795057D01*
X77464321Y-62724910D01*
X77489209Y-62689517D01*
X79916615Y-60262111D01*
X79924719Y-60254684D01*
X79945149Y-60237541D01*
X79953594Y-60230455D01*
X79960301Y-60218838D01*
X79972439Y-60197815D01*
X79978345Y-60188544D01*
X79993630Y-60166715D01*
X79999954Y-60157684D01*
X80002808Y-60147034D01*
X80004285Y-60143866D01*
X80005477Y-60140590D01*
X80010988Y-60131045D01*
X80017530Y-60093942D01*
X80019909Y-60083210D01*
X80020665Y-60080389D01*
X80029664Y-60046807D01*
X80028129Y-60029255D01*
X80026380Y-60009272D01*
X80025900Y-59998290D01*
X80025900Y-58795098D01*
X80026380Y-58784116D01*
X80028702Y-58757580D01*
X80028702Y-58757578D01*
X80029663Y-58746593D01*
X80026715Y-58735589D01*
X80019912Y-58710204D01*
X80017532Y-58699469D01*
X80012902Y-58673212D01*
X80010988Y-58662355D01*
X80005476Y-58652807D01*
X80004283Y-58649530D01*
X80002806Y-58646362D01*
X79999953Y-58635716D01*
X79978342Y-58604852D01*
X79972438Y-58595584D01*
X79953594Y-58562945D01*
X79924731Y-58538726D01*
X79916627Y-58531300D01*
X76707809Y-55322483D01*
X76673783Y-55260171D01*
X76671982Y-55216942D01*
X76679704Y-55158288D01*
X76680782Y-55150100D01*
X76664004Y-55022655D01*
X76661222Y-55001526D01*
X76660144Y-54993338D01*
X76656796Y-54985254D01*
X76649781Y-54968320D01*
X76599636Y-54847259D01*
X76503382Y-54721818D01*
X76490951Y-54712279D01*
X76442855Y-54675374D01*
X76377941Y-54625564D01*
X76231862Y-54565056D01*
X76075100Y-54544418D01*
X75918338Y-54565056D01*
X75772259Y-54625564D01*
X75707345Y-54675374D01*
X75659250Y-54712279D01*
X75646818Y-54721818D01*
X75550564Y-54847259D01*
X75547404Y-54854888D01*
X75547401Y-54854893D01*
X75517349Y-54927444D01*
X75472801Y-54982725D01*
X75405437Y-55005145D01*
X75336646Y-54987586D01*
X75311846Y-54968320D01*
X75055805Y-54712279D01*
X75021779Y-54649967D01*
X75018900Y-54623184D01*
X75018900Y-51694759D01*
X75038902Y-51626638D01*
X75092558Y-51580145D01*
X75162832Y-51570041D01*
X75221604Y-51594796D01*
X75299459Y-51654536D01*
X75445538Y-51715044D01*
X75602300Y-51735682D01*
X75610488Y-51734604D01*
X75750874Y-51716122D01*
X75759062Y-51715044D01*
X75905141Y-51654536D01*
X76030582Y-51558282D01*
X76126836Y-51432841D01*
X76187344Y-51286762D01*
X76207982Y-51130000D01*
X76187344Y-50973238D01*
X76184184Y-50965610D01*
X76184183Y-50965605D01*
X76177223Y-50948802D01*
X76169634Y-50878212D01*
X76204537Y-50811490D01*
X76878918Y-50137109D01*
X76941230Y-50103083D01*
X76984458Y-50101282D01*
X77051300Y-50110082D01*
X77059488Y-50109004D01*
X77199874Y-50090522D01*
X77208062Y-50089444D01*
X77354141Y-50028936D01*
X77479582Y-49932682D01*
X77575836Y-49807241D01*
X77636344Y-49661162D01*
X77656982Y-49504400D01*
X77636344Y-49347638D01*
X77575836Y-49201559D01*
X77479582Y-49076118D01*
X77354141Y-48979864D01*
X77208062Y-48919356D01*
X77051300Y-48898718D01*
X76894538Y-48919356D01*
X76748459Y-48979864D01*
X76623018Y-49076118D01*
X76526764Y-49201559D01*
X76466256Y-49347638D01*
X76445618Y-49504400D01*
X76454418Y-49571241D01*
X76443479Y-49641388D01*
X76418592Y-49676781D01*
X75596563Y-50498811D01*
X75534250Y-50532836D01*
X75523917Y-50534637D01*
X75465481Y-50542330D01*
X75457122Y-50543431D01*
X75445538Y-50544956D01*
X75437909Y-50548116D01*
X75427247Y-50552532D01*
X75299459Y-50605464D01*
X75240733Y-50650526D01*
X75221604Y-50665204D01*
X75155383Y-50690804D01*
X75085835Y-50676539D01*
X75035039Y-50626938D01*
X75018900Y-50565241D01*
X75018900Y-47210016D01*
X75038902Y-47141895D01*
X75055805Y-47120921D01*
X77559022Y-44617705D01*
X77567126Y-44610278D01*
X77587549Y-44593141D01*
X77595994Y-44586055D01*
X77614839Y-44553415D01*
X77620743Y-44544147D01*
X77636031Y-44522313D01*
X77642353Y-44513284D01*
X77645206Y-44502638D01*
X77646683Y-44499470D01*
X77647876Y-44496193D01*
X77653388Y-44486645D01*
X77659932Y-44449531D01*
X77662312Y-44438796D01*
X77669210Y-44413054D01*
X77672063Y-44402407D01*
X77668779Y-44364869D01*
X77668300Y-44353888D01*
X77668300Y-43723686D01*
X77688302Y-43655565D01*
X77717596Y-43623723D01*
X77764536Y-43587705D01*
X77771082Y-43582682D01*
X77867336Y-43457241D01*
X77927844Y-43311162D01*
X77948482Y-43154400D01*
X77927844Y-42997638D01*
X77867336Y-42851559D01*
X77771082Y-42726118D01*
X77645641Y-42629864D01*
X77499562Y-42569356D01*
X77342800Y-42548718D01*
X77186038Y-42569356D01*
X77039959Y-42629864D01*
X76914518Y-42726118D01*
X76818264Y-42851559D01*
X76757756Y-42997638D01*
X76737118Y-43154400D01*
X76757756Y-43311162D01*
X76818264Y-43457241D01*
X76914518Y-43582682D01*
X76921064Y-43587705D01*
X76968004Y-43623723D01*
X77009871Y-43681061D01*
X77017300Y-43723686D01*
X77017300Y-44186583D01*
X76997298Y-44254704D01*
X76980395Y-44275678D01*
X74477184Y-46778890D01*
X74469081Y-46786316D01*
X74440206Y-46810545D01*
X74434693Y-46820094D01*
X74421361Y-46843185D01*
X74415455Y-46852456D01*
X74393846Y-46883316D01*
X74390992Y-46893966D01*
X74389515Y-46897134D01*
X74388323Y-46900410D01*
X74382812Y-46909955D01*
X74376862Y-46943699D01*
X74376270Y-46947058D01*
X74373892Y-46957785D01*
X74364136Y-46994193D01*
X74365097Y-47005178D01*
X74365097Y-47005180D01*
X74367420Y-47031728D01*
X74367900Y-47042710D01*
X74367900Y-49368497D01*
X74347898Y-49436618D01*
X74294242Y-49483111D01*
X74223968Y-49493215D01*
X74159388Y-49463721D01*
X74140337Y-49442299D01*
X74138825Y-49439369D01*
X74027369Y-49311604D01*
X73968849Y-49270475D01*
X73894870Y-49218482D01*
X73894868Y-49218481D01*
X73888653Y-49214113D01*
X73730687Y-49152524D01*
X73723154Y-49151532D01*
X73723153Y-49151532D01*
X73605461Y-49136038D01*
X73605460Y-49136038D01*
X73601374Y-49135500D01*
X72412684Y-49135500D01*
X72286880Y-49150724D01*
X72128277Y-49210655D01*
X71988549Y-49306688D01*
X71983497Y-49312358D01*
X71983496Y-49312359D01*
X71880812Y-49427608D01*
X71880810Y-49427612D01*
X71875760Y-49433279D01*
X71872208Y-49439988D01*
X71872207Y-49439989D01*
X71859642Y-49463721D01*
X71796424Y-49583119D01*
X71755119Y-49747559D01*
X71754231Y-49917105D01*
X69825319Y-49917105D01*
X69826169Y-49754895D01*
X69801700Y-49652974D01*
X69788361Y-49597417D01*
X69786588Y-49590032D01*
X69776889Y-49571239D01*
X69712308Y-49446117D01*
X69712308Y-49446116D01*
X69708825Y-49439369D01*
X69703513Y-49433279D01*
X69602363Y-49317329D01*
X69597369Y-49311604D01*
X69538849Y-49270475D01*
X69464870Y-49218482D01*
X69464868Y-49218481D01*
X69458653Y-49214113D01*
X69300687Y-49152524D01*
X69293154Y-49151532D01*
X69293153Y-49151532D01*
X69175461Y-49136038D01*
X69175460Y-49136038D01*
X69171374Y-49135500D01*
X68482684Y-49135500D01*
X68356880Y-49150724D01*
X68198277Y-49210655D01*
X68058549Y-49306688D01*
X68053497Y-49312358D01*
X68053496Y-49312359D01*
X67950812Y-49427608D01*
X67950810Y-49427612D01*
X67945760Y-49433279D01*
X67942208Y-49439988D01*
X67942207Y-49439989D01*
X67929642Y-49463721D01*
X67866424Y-49583119D01*
X67825119Y-49747559D01*
X67824231Y-49917105D01*
X65736200Y-49917105D01*
X65736200Y-41783000D01*
X65756202Y-41714879D01*
X65809858Y-41668386D01*
X65862200Y-41657000D01*
X83719200Y-41657000D01*
X83787321Y-41677002D01*
G37*
%TD.AperFunction*%
%TD*%
%TA.AperFunction,Conductor*%
%TO.N,GND2*%
G36*
X127356321Y-41677002D02*
G01*
X127402814Y-41730658D01*
X127414200Y-41783000D01*
X127414200Y-66498335D01*
X127394198Y-66566456D01*
X127340542Y-66612949D01*
X127288266Y-66624335D01*
X103851905Y-66636392D01*
X87781265Y-66644659D01*
X87713134Y-66624692D01*
X87666613Y-66571060D01*
X87655200Y-66518659D01*
X87655200Y-63362100D01*
X110580318Y-63362100D01*
X110600956Y-63518862D01*
X110661464Y-63664941D01*
X110757718Y-63790382D01*
X110883159Y-63886636D01*
X111029238Y-63947144D01*
X111186000Y-63967782D01*
X111194188Y-63966704D01*
X111334574Y-63948222D01*
X111342762Y-63947144D01*
X111488841Y-63886636D01*
X111614282Y-63790382D01*
X111710536Y-63664941D01*
X111771044Y-63518862D01*
X111791682Y-63362100D01*
X111771044Y-63205338D01*
X111767884Y-63197709D01*
X111765746Y-63189730D01*
X111768200Y-63189073D01*
X111761971Y-63131182D01*
X111793745Y-63067692D01*
X111854800Y-63031460D01*
X111869525Y-63028621D01*
X111889862Y-63025944D01*
X112035941Y-62965436D01*
X112161382Y-62869182D01*
X112257636Y-62743741D01*
X112318144Y-62597662D01*
X112338782Y-62440900D01*
X112318144Y-62284138D01*
X112312121Y-62269596D01*
X112265975Y-62158192D01*
X112257636Y-62138059D01*
X112161382Y-62012618D01*
X112152187Y-62005562D01*
X112107896Y-61971577D01*
X112066029Y-61914239D01*
X112058600Y-61871614D01*
X112058600Y-61833916D01*
X112078602Y-61765795D01*
X112095505Y-61744821D01*
X113001221Y-60839105D01*
X113063533Y-60805079D01*
X113090316Y-60802200D01*
X115836529Y-60802200D01*
X115904650Y-60822202D01*
X115951143Y-60875858D01*
X115961247Y-60946132D01*
X115952938Y-60976418D01*
X115924556Y-61044938D01*
X115923478Y-61053126D01*
X115916265Y-61107918D01*
X115903918Y-61201700D01*
X115924556Y-61358462D01*
X115985064Y-61504541D01*
X116081318Y-61629982D01*
X116087864Y-61635005D01*
X116134804Y-61671023D01*
X116176671Y-61728361D01*
X116184100Y-61770986D01*
X116184100Y-62017382D01*
X116164098Y-62085503D01*
X116147196Y-62106477D01*
X115873678Y-62379996D01*
X115865574Y-62387422D01*
X115836706Y-62411645D01*
X115831193Y-62421194D01*
X115817861Y-62444285D01*
X115811955Y-62453556D01*
X115790346Y-62484416D01*
X115787492Y-62495066D01*
X115786015Y-62498234D01*
X115784823Y-62501510D01*
X115779312Y-62511055D01*
X115773362Y-62544799D01*
X115772770Y-62548158D01*
X115770392Y-62558885D01*
X115760636Y-62595293D01*
X115761597Y-62606278D01*
X115761597Y-62606280D01*
X115763920Y-62632828D01*
X115764400Y-62643810D01*
X115764400Y-63057514D01*
X115744398Y-63125635D01*
X115715104Y-63157477D01*
X115661618Y-63198518D01*
X115565364Y-63323959D01*
X115504856Y-63470038D01*
X115484218Y-63626800D01*
X115504856Y-63783562D01*
X115565364Y-63929641D01*
X115661618Y-64055082D01*
X115787059Y-64151336D01*
X115933138Y-64211844D01*
X116089900Y-64232482D01*
X116098088Y-64231404D01*
X116238474Y-64212922D01*
X116246662Y-64211844D01*
X116392741Y-64151336D01*
X116518182Y-64055082D01*
X116614436Y-63929641D01*
X116674944Y-63783562D01*
X116695582Y-63626800D01*
X116674944Y-63470038D01*
X116614436Y-63323959D01*
X116518182Y-63198518D01*
X116464696Y-63157477D01*
X116422829Y-63100139D01*
X116415400Y-63057514D01*
X116415400Y-62811117D01*
X116435402Y-62742996D01*
X116452305Y-62722021D01*
X116576665Y-62597662D01*
X116725828Y-62448499D01*
X116733932Y-62441073D01*
X116734138Y-62440900D01*
X116762794Y-62416855D01*
X116781639Y-62384215D01*
X116787543Y-62374947D01*
X116802831Y-62353113D01*
X116809153Y-62344084D01*
X116812006Y-62333438D01*
X116813483Y-62330270D01*
X116814676Y-62326993D01*
X116820188Y-62317445D01*
X116826732Y-62280331D01*
X116829112Y-62269596D01*
X116836010Y-62243854D01*
X116838863Y-62233207D01*
X116835579Y-62195669D01*
X116835100Y-62184688D01*
X116835100Y-61770986D01*
X116855102Y-61702865D01*
X116884396Y-61671023D01*
X116931336Y-61635005D01*
X116937882Y-61629982D01*
X117034136Y-61504541D01*
X117094644Y-61358462D01*
X117115282Y-61201700D01*
X117102935Y-61107918D01*
X117095722Y-61053126D01*
X117094644Y-61044938D01*
X117066262Y-60976418D01*
X117058673Y-60905828D01*
X117090452Y-60842341D01*
X117151510Y-60806114D01*
X117182671Y-60802200D01*
X117693683Y-60802200D01*
X117761804Y-60822202D01*
X117782779Y-60839105D01*
X118043501Y-61099828D01*
X118050927Y-61107931D01*
X118075145Y-61136794D01*
X118107784Y-61155638D01*
X118117052Y-61161542D01*
X118147916Y-61183153D01*
X118158562Y-61186006D01*
X118161730Y-61187483D01*
X118165007Y-61188676D01*
X118174555Y-61194188D01*
X118204108Y-61199399D01*
X118211669Y-61200732D01*
X118222403Y-61203112D01*
X118258793Y-61212863D01*
X118269769Y-61211903D01*
X118269772Y-61211903D01*
X118296331Y-61209579D01*
X118307312Y-61209100D01*
X124770290Y-61209100D01*
X124781272Y-61209580D01*
X124807820Y-61211903D01*
X124807822Y-61211903D01*
X124818807Y-61212864D01*
X124855215Y-61203108D01*
X124865942Y-61200730D01*
X124869301Y-61200138D01*
X124903045Y-61194188D01*
X124912590Y-61188677D01*
X124915866Y-61187485D01*
X124919034Y-61186008D01*
X124929684Y-61183154D01*
X124960547Y-61161543D01*
X124969815Y-61155639D01*
X124992906Y-61142307D01*
X125002455Y-61136794D01*
X125026685Y-61107917D01*
X125034111Y-61099815D01*
X126073015Y-60060911D01*
X126081119Y-60053484D01*
X126101549Y-60036341D01*
X126109994Y-60029255D01*
X126122688Y-60007268D01*
X126128839Y-59996615D01*
X126134745Y-59987344D01*
X126150030Y-59965515D01*
X126156354Y-59956484D01*
X126159208Y-59945834D01*
X126160685Y-59942666D01*
X126161877Y-59939390D01*
X126167388Y-59929845D01*
X126173930Y-59892742D01*
X126176309Y-59882010D01*
X126183210Y-59856256D01*
X126186064Y-59845607D01*
X126182780Y-59808072D01*
X126182300Y-59797090D01*
X126182300Y-54404510D01*
X126182780Y-54393528D01*
X126185103Y-54366980D01*
X126185103Y-54366978D01*
X126186064Y-54355993D01*
X126176308Y-54319585D01*
X126173930Y-54308858D01*
X126170885Y-54291591D01*
X126167388Y-54271755D01*
X126161877Y-54262210D01*
X126160685Y-54258934D01*
X126159208Y-54255766D01*
X126156354Y-54245116D01*
X126134745Y-54214256D01*
X126128839Y-54204985D01*
X126115507Y-54181894D01*
X126109994Y-54172345D01*
X126081117Y-54148115D01*
X126073015Y-54140689D01*
X124529311Y-52596985D01*
X124495285Y-52534673D01*
X124500350Y-52463858D01*
X124505449Y-52452063D01*
X124542848Y-52376391D01*
X124574215Y-52312925D01*
X124628428Y-52134491D01*
X124639659Y-52097527D01*
X124639660Y-52097521D01*
X124641163Y-52092575D01*
X124671222Y-51864249D01*
X124672900Y-51795600D01*
X124654030Y-51566078D01*
X124597926Y-51342720D01*
X124506096Y-51131524D01*
X124381005Y-50938163D01*
X124360374Y-50915489D01*
X124229490Y-50771651D01*
X124229489Y-50771650D01*
X124226012Y-50767829D01*
X124221961Y-50764630D01*
X124221957Y-50764626D01*
X124049335Y-50628297D01*
X124049330Y-50628293D01*
X124045281Y-50625096D01*
X124040765Y-50622603D01*
X124040762Y-50622601D01*
X123848189Y-50516295D01*
X123848185Y-50516293D01*
X123843665Y-50513798D01*
X123838796Y-50512074D01*
X123838792Y-50512072D01*
X123631453Y-50438649D01*
X123631449Y-50438648D01*
X123626578Y-50436923D01*
X123621485Y-50436016D01*
X123621482Y-50436015D01*
X123525307Y-50418884D01*
X123399850Y-50396537D01*
X123313402Y-50395481D01*
X123174741Y-50393786D01*
X123174739Y-50393786D01*
X123169571Y-50393723D01*
X122941925Y-50428558D01*
X122723024Y-50500106D01*
X122518749Y-50606445D01*
X122334584Y-50744719D01*
X122175477Y-50911216D01*
X122045699Y-51101463D01*
X122043523Y-51106152D01*
X122043519Y-51106158D01*
X122031745Y-51131524D01*
X121948736Y-51310352D01*
X121887192Y-51532273D01*
X121862719Y-51761265D01*
X121863016Y-51766417D01*
X121863016Y-51766421D01*
X121868464Y-51860896D01*
X121875976Y-51991180D01*
X121877113Y-51996226D01*
X121877114Y-51996232D01*
X121898826Y-52092575D01*
X121926606Y-52215842D01*
X121928548Y-52220624D01*
X121928549Y-52220628D01*
X122011305Y-52424431D01*
X122013249Y-52429218D01*
X122133579Y-52625578D01*
X122284363Y-52799648D01*
X122461553Y-52946754D01*
X122660390Y-53062945D01*
X122875534Y-53145101D01*
X122880600Y-53146132D01*
X122880601Y-53146132D01*
X122981297Y-53166618D01*
X123101207Y-53191014D01*
X123230952Y-53195772D01*
X123326185Y-53199264D01*
X123326189Y-53199264D01*
X123331349Y-53199453D01*
X123336469Y-53198797D01*
X123336471Y-53198797D01*
X123405872Y-53189907D01*
X123559778Y-53170191D01*
X123564726Y-53168706D01*
X123564733Y-53168705D01*
X123775411Y-53105498D01*
X123775410Y-53105498D01*
X123780361Y-53104013D01*
X123924569Y-53033366D01*
X123994542Y-53021359D01*
X124059900Y-53049089D01*
X124069096Y-53057422D01*
X125494395Y-54482721D01*
X125528421Y-54545033D01*
X125531300Y-54571816D01*
X125531300Y-59629784D01*
X125511298Y-59697905D01*
X125494395Y-59718879D01*
X125190695Y-60022579D01*
X125128383Y-60056605D01*
X125057568Y-60051540D01*
X125000732Y-60008993D01*
X124975921Y-59942473D01*
X124975600Y-59933484D01*
X124975600Y-59067715D01*
X124971125Y-59052476D01*
X124969735Y-59051271D01*
X124962052Y-59049600D01*
X121577716Y-59049600D01*
X121562477Y-59054075D01*
X121561272Y-59055465D01*
X121559601Y-59063148D01*
X121559601Y-60040269D01*
X121559971Y-60047090D01*
X121565495Y-60097952D01*
X121569121Y-60113204D01*
X121614276Y-60233654D01*
X121622811Y-60249244D01*
X121703221Y-60356535D01*
X121728068Y-60423042D01*
X121713015Y-60492424D01*
X121662840Y-60542654D01*
X121602394Y-60558100D01*
X118474618Y-60558100D01*
X118406497Y-60538098D01*
X118385523Y-60521196D01*
X118124804Y-60260478D01*
X118117377Y-60252373D01*
X118093155Y-60223506D01*
X118083606Y-60217993D01*
X118060515Y-60204661D01*
X118051244Y-60198755D01*
X118029415Y-60183470D01*
X118020384Y-60177146D01*
X118009734Y-60174292D01*
X118006566Y-60172815D01*
X118003290Y-60171623D01*
X117993745Y-60166112D01*
X117960001Y-60160162D01*
X117956642Y-60159570D01*
X117945915Y-60157192D01*
X117909507Y-60147436D01*
X117898522Y-60148397D01*
X117898520Y-60148397D01*
X117871972Y-60150720D01*
X117860990Y-60151200D01*
X115262916Y-60151200D01*
X115194795Y-60131198D01*
X115148302Y-60077542D01*
X115138198Y-60007268D01*
X115167692Y-59942688D01*
X115173821Y-59936105D01*
X116586442Y-58523485D01*
X121559600Y-58523485D01*
X121564075Y-58538724D01*
X121565465Y-58539929D01*
X121573148Y-58541600D01*
X122995485Y-58541600D01*
X123010724Y-58537125D01*
X123011929Y-58535735D01*
X123013600Y-58528052D01*
X123013600Y-58523485D01*
X123521600Y-58523485D01*
X123526075Y-58538724D01*
X123527465Y-58539929D01*
X123535148Y-58541600D01*
X124957484Y-58541600D01*
X124972723Y-58537125D01*
X124973928Y-58535735D01*
X124975599Y-58528052D01*
X124975599Y-57550931D01*
X124975229Y-57544110D01*
X124969705Y-57493248D01*
X124966079Y-57477996D01*
X124920924Y-57357546D01*
X124912386Y-57341951D01*
X124835885Y-57239876D01*
X124823324Y-57227315D01*
X124721249Y-57150814D01*
X124705654Y-57142276D01*
X124585206Y-57097122D01*
X124569951Y-57093495D01*
X124519086Y-57087969D01*
X124512272Y-57087600D01*
X123539715Y-57087600D01*
X123524476Y-57092075D01*
X123523271Y-57093465D01*
X123521600Y-57101148D01*
X123521600Y-58523485D01*
X123013600Y-58523485D01*
X123013600Y-57105716D01*
X123009125Y-57090477D01*
X123007735Y-57089272D01*
X123000052Y-57087601D01*
X122022931Y-57087601D01*
X122016110Y-57087971D01*
X121965248Y-57093495D01*
X121949996Y-57097121D01*
X121829546Y-57142276D01*
X121813951Y-57150814D01*
X121711876Y-57227315D01*
X121699315Y-57239876D01*
X121622814Y-57341951D01*
X121614276Y-57357546D01*
X121569122Y-57477994D01*
X121565495Y-57493249D01*
X121559969Y-57544114D01*
X121559600Y-57550928D01*
X121559600Y-58523485D01*
X116586442Y-58523485D01*
X116959938Y-58149989D01*
X118838722Y-56271205D01*
X118846826Y-56263778D01*
X118867249Y-56246641D01*
X118875694Y-56239555D01*
X118894539Y-56206915D01*
X118900443Y-56197647D01*
X118915731Y-56175813D01*
X118922053Y-56166784D01*
X118924906Y-56156138D01*
X118926383Y-56152970D01*
X118927576Y-56149693D01*
X118933088Y-56140145D01*
X118939632Y-56103031D01*
X118942012Y-56092296D01*
X118948910Y-56066554D01*
X118951763Y-56055907D01*
X118948479Y-56018369D01*
X118948000Y-56007388D01*
X118948000Y-55747100D01*
X118968002Y-55678979D01*
X119021658Y-55632486D01*
X119074000Y-55621100D01*
X121804804Y-55621100D01*
X121872925Y-55641102D01*
X121919418Y-55694758D01*
X121925040Y-55709427D01*
X121925469Y-55710795D01*
X121926606Y-55715842D01*
X121928549Y-55720628D01*
X121928550Y-55720630D01*
X121960687Y-55799774D01*
X122013249Y-55929218D01*
X122133579Y-56125578D01*
X122284363Y-56299648D01*
X122461553Y-56446754D01*
X122660390Y-56562945D01*
X122875534Y-56645101D01*
X122880600Y-56646132D01*
X122880601Y-56646132D01*
X122981297Y-56666618D01*
X123101207Y-56691014D01*
X123230952Y-56695772D01*
X123326185Y-56699264D01*
X123326189Y-56699264D01*
X123331349Y-56699453D01*
X123336469Y-56698797D01*
X123336471Y-56698797D01*
X123405872Y-56689907D01*
X123559778Y-56670191D01*
X123564726Y-56668706D01*
X123564733Y-56668705D01*
X123775411Y-56605498D01*
X123775410Y-56605498D01*
X123780361Y-56604013D01*
X123987174Y-56502696D01*
X124174662Y-56368963D01*
X124337790Y-56206403D01*
X124359827Y-56175736D01*
X124469159Y-56023583D01*
X124472177Y-56019383D01*
X124478106Y-56007388D01*
X124534999Y-55892273D01*
X124574215Y-55812925D01*
X124603711Y-55715842D01*
X124639659Y-55597527D01*
X124639660Y-55597521D01*
X124641163Y-55592575D01*
X124662510Y-55430426D01*
X124670785Y-55367571D01*
X124670785Y-55367565D01*
X124671222Y-55364249D01*
X124672900Y-55295600D01*
X124654030Y-55066078D01*
X124597926Y-54842720D01*
X124534787Y-54697509D01*
X124508156Y-54636261D01*
X124508154Y-54636258D01*
X124506096Y-54631524D01*
X124429564Y-54513224D01*
X124383815Y-54442506D01*
X124383813Y-54442503D01*
X124381005Y-54438163D01*
X124360374Y-54415489D01*
X124229490Y-54271651D01*
X124229489Y-54271650D01*
X124226012Y-54267829D01*
X124221961Y-54264630D01*
X124221957Y-54264626D01*
X124049335Y-54128297D01*
X124049330Y-54128293D01*
X124045281Y-54125096D01*
X124040765Y-54122603D01*
X124040762Y-54122601D01*
X123848189Y-54016295D01*
X123848185Y-54016293D01*
X123843665Y-54013798D01*
X123838796Y-54012074D01*
X123838792Y-54012072D01*
X123631453Y-53938649D01*
X123631449Y-53938648D01*
X123626578Y-53936923D01*
X123621485Y-53936016D01*
X123621482Y-53936015D01*
X123525307Y-53918884D01*
X123399850Y-53896537D01*
X123313402Y-53895481D01*
X123174741Y-53893786D01*
X123174739Y-53893786D01*
X123169571Y-53893723D01*
X122941925Y-53928558D01*
X122723024Y-54000106D01*
X122518749Y-54106445D01*
X122334584Y-54244719D01*
X122175477Y-54411216D01*
X122172563Y-54415488D01*
X122172562Y-54415489D01*
X122085518Y-54543091D01*
X122045699Y-54601463D01*
X122043523Y-54606152D01*
X122043519Y-54606158D01*
X121958577Y-54789151D01*
X121948736Y-54810352D01*
X121930038Y-54877775D01*
X121892561Y-54938070D01*
X121828432Y-54968533D01*
X121808622Y-54970100D01*
X118809516Y-54970100D01*
X118741395Y-54950098D01*
X118720421Y-54933195D01*
X117583205Y-53795979D01*
X117549179Y-53733667D01*
X117546300Y-53706884D01*
X117546300Y-47140062D01*
X117566302Y-47071941D01*
X117615490Y-47027596D01*
X117780913Y-46944035D01*
X117780916Y-46944033D01*
X117786410Y-46941258D01*
X117948751Y-46814424D01*
X118083364Y-46658472D01*
X118104187Y-46621818D01*
X118182076Y-46484707D01*
X118185123Y-46479344D01*
X118250151Y-46283863D01*
X118275971Y-46079474D01*
X118276383Y-46050000D01*
X118274938Y-46035262D01*
X119822920Y-46035262D01*
X119840159Y-46240553D01*
X119841858Y-46246478D01*
X119879116Y-46376411D01*
X119896944Y-46438586D01*
X119899759Y-46444063D01*
X119899760Y-46444066D01*
X119920647Y-46484707D01*
X119991112Y-46621818D01*
X120119077Y-46783270D01*
X120275964Y-46916791D01*
X120455798Y-47017297D01*
X120550638Y-47048113D01*
X120645871Y-47079056D01*
X120645875Y-47079057D01*
X120651729Y-47080959D01*
X120856294Y-47105351D01*
X120862429Y-47104879D01*
X120862431Y-47104879D01*
X120918439Y-47100569D01*
X121061700Y-47089546D01*
X121067630Y-47087890D01*
X121067632Y-47087890D01*
X121254197Y-47035800D01*
X121254196Y-47035800D01*
X121260125Y-47034145D01*
X121265614Y-47031372D01*
X121265620Y-47031370D01*
X121438516Y-46944033D01*
X121444010Y-46941258D01*
X121606351Y-46814424D01*
X121740964Y-46658472D01*
X121761787Y-46621818D01*
X121839676Y-46484707D01*
X121842723Y-46479344D01*
X121907751Y-46283863D01*
X121933571Y-46079474D01*
X121933983Y-46050000D01*
X121913880Y-45844970D01*
X121854335Y-45647749D01*
X121757618Y-45465849D01*
X121684259Y-45375902D01*
X121631306Y-45310975D01*
X121631303Y-45310972D01*
X121627411Y-45306200D01*
X121610186Y-45291950D01*
X121473425Y-45178811D01*
X121473421Y-45178809D01*
X121468675Y-45174882D01*
X121287455Y-45076897D01*
X121090654Y-45015977D01*
X121084529Y-45015333D01*
X121084528Y-45015333D01*
X120891898Y-44995087D01*
X120891896Y-44995087D01*
X120885769Y-44994443D01*
X120798929Y-45002346D01*
X120686742Y-45012555D01*
X120686739Y-45012556D01*
X120680603Y-45013114D01*
X120482972Y-45071280D01*
X120300402Y-45166726D01*
X120295601Y-45170586D01*
X120295598Y-45170588D01*
X120285371Y-45178811D01*
X120139847Y-45295815D01*
X120007424Y-45453630D01*
X120004456Y-45459028D01*
X120004453Y-45459033D01*
X119916446Y-45619119D01*
X119908176Y-45634162D01*
X119845884Y-45830532D01*
X119845198Y-45836649D01*
X119845197Y-45836653D01*
X119823607Y-46029137D01*
X119822920Y-46035262D01*
X118274938Y-46035262D01*
X118256280Y-45844970D01*
X118196735Y-45647749D01*
X118100018Y-45465849D01*
X118026659Y-45375902D01*
X117973706Y-45310975D01*
X117973703Y-45310972D01*
X117969811Y-45306200D01*
X117952586Y-45291950D01*
X117815825Y-45178811D01*
X117815821Y-45178809D01*
X117811075Y-45174882D01*
X117629855Y-45076897D01*
X117433054Y-45015977D01*
X117426929Y-45015333D01*
X117426928Y-45015333D01*
X117234298Y-44995087D01*
X117234296Y-44995087D01*
X117228169Y-44994443D01*
X117141329Y-45002346D01*
X117029142Y-45012555D01*
X117029139Y-45012556D01*
X117023003Y-45013114D01*
X116825372Y-45071280D01*
X116642802Y-45166726D01*
X116638001Y-45170586D01*
X116637998Y-45170588D01*
X116627771Y-45178811D01*
X116482247Y-45295815D01*
X116349824Y-45453630D01*
X116340116Y-45471290D01*
X116274456Y-45590725D01*
X116224111Y-45640783D01*
X116154694Y-45655677D01*
X116088245Y-45630676D01*
X116074946Y-45619119D01*
X114835574Y-44379748D01*
X116170300Y-44379748D01*
X116181933Y-44438231D01*
X116226248Y-44504552D01*
X116292569Y-44548867D01*
X116304738Y-44551288D01*
X116304739Y-44551288D01*
X116344984Y-44559293D01*
X116351052Y-44560500D01*
X118090548Y-44560500D01*
X118096616Y-44559293D01*
X118136861Y-44551288D01*
X118136862Y-44551288D01*
X118149031Y-44548867D01*
X118215352Y-44504552D01*
X118259667Y-44438231D01*
X118271300Y-44379748D01*
X119827900Y-44379748D01*
X119839533Y-44438231D01*
X119883848Y-44504552D01*
X119950169Y-44548867D01*
X119962338Y-44551288D01*
X119962339Y-44551288D01*
X120002584Y-44559293D01*
X120008652Y-44560500D01*
X121748148Y-44560500D01*
X121754216Y-44559293D01*
X121794461Y-44551288D01*
X121794462Y-44551288D01*
X121806631Y-44548867D01*
X121872952Y-44504552D01*
X121917267Y-44438231D01*
X121928900Y-44379748D01*
X121928900Y-42640252D01*
X121917267Y-42581769D01*
X121872952Y-42515448D01*
X121806631Y-42471133D01*
X121794462Y-42468712D01*
X121794461Y-42468712D01*
X121754216Y-42460707D01*
X121748148Y-42459500D01*
X120008652Y-42459500D01*
X120002584Y-42460707D01*
X119962339Y-42468712D01*
X119962338Y-42468712D01*
X119950169Y-42471133D01*
X119883848Y-42515448D01*
X119839533Y-42581769D01*
X119827900Y-42640252D01*
X119827900Y-44379748D01*
X118271300Y-44379748D01*
X118271300Y-42640252D01*
X118259667Y-42581769D01*
X118215352Y-42515448D01*
X118149031Y-42471133D01*
X118136862Y-42468712D01*
X118136861Y-42468712D01*
X118096616Y-42460707D01*
X118090548Y-42459500D01*
X116351052Y-42459500D01*
X116344984Y-42460707D01*
X116304739Y-42468712D01*
X116304738Y-42468712D01*
X116292569Y-42471133D01*
X116226248Y-42515448D01*
X116181933Y-42581769D01*
X116170300Y-42640252D01*
X116170300Y-44379748D01*
X114835574Y-44379748D01*
X114650605Y-44194779D01*
X114616580Y-44132467D01*
X114613700Y-44105684D01*
X114613700Y-42640252D01*
X114602067Y-42581769D01*
X114557752Y-42515448D01*
X114491431Y-42471133D01*
X114479262Y-42468712D01*
X114479261Y-42468712D01*
X114439016Y-42460707D01*
X114432948Y-42459500D01*
X112693452Y-42459500D01*
X112687384Y-42460707D01*
X112647139Y-42468712D01*
X112647138Y-42468712D01*
X112634969Y-42471133D01*
X112568648Y-42515448D01*
X112524333Y-42581769D01*
X112512700Y-42640252D01*
X112512700Y-44379748D01*
X112524333Y-44438231D01*
X112568648Y-44504552D01*
X112634969Y-44548867D01*
X112647138Y-44551288D01*
X112647139Y-44551288D01*
X112687384Y-44559293D01*
X112693452Y-44560500D01*
X114043484Y-44560500D01*
X114111605Y-44580502D01*
X114132579Y-44597405D01*
X115801395Y-46266222D01*
X115808821Y-46274325D01*
X115833045Y-46303194D01*
X115842588Y-46308704D01*
X115842592Y-46308707D01*
X115865679Y-46322036D01*
X115874948Y-46327940D01*
X115905816Y-46349554D01*
X115916464Y-46352407D01*
X115919635Y-46353886D01*
X115922911Y-46355078D01*
X115932455Y-46360588D01*
X115969576Y-46367134D01*
X115980283Y-46369508D01*
X116016693Y-46379263D01*
X116027668Y-46378303D01*
X116027670Y-46378303D01*
X116054231Y-46375979D01*
X116065212Y-46375500D01*
X116130011Y-46375500D01*
X116198132Y-46395502D01*
X116242078Y-46443906D01*
X116333512Y-46621818D01*
X116461477Y-46783270D01*
X116618364Y-46916791D01*
X116798198Y-47017297D01*
X116804055Y-47019200D01*
X116808241Y-47020560D01*
X116866845Y-47060636D01*
X116894479Y-47126034D01*
X116895300Y-47140392D01*
X116895300Y-53874190D01*
X116894820Y-53885172D01*
X116891536Y-53922707D01*
X116895808Y-53938649D01*
X116901291Y-53959110D01*
X116903670Y-53969842D01*
X116910212Y-54006945D01*
X116915723Y-54016490D01*
X116916915Y-54019766D01*
X116918392Y-54022934D01*
X116921246Y-54033584D01*
X116927570Y-54042615D01*
X116942855Y-54064444D01*
X116948761Y-54073715D01*
X116962093Y-54096806D01*
X116967606Y-54106355D01*
X116992448Y-54127200D01*
X116996482Y-54130585D01*
X117004585Y-54138011D01*
X118260095Y-55393521D01*
X118294121Y-55455833D01*
X118297000Y-55482616D01*
X118297000Y-55840083D01*
X118276998Y-55908204D01*
X118260095Y-55929178D01*
X116433961Y-57755313D01*
X114695562Y-59493712D01*
X114633250Y-59527738D01*
X114562435Y-59522673D01*
X114505599Y-59480126D01*
X114480788Y-59413606D01*
X114481545Y-59388171D01*
X114497604Y-59266188D01*
X114498682Y-59258000D01*
X114478044Y-59101238D01*
X114417536Y-58955159D01*
X114321282Y-58829718D01*
X114195841Y-58733464D01*
X114049762Y-58672956D01*
X113896654Y-58652799D01*
X113831727Y-58624077D01*
X113792635Y-58564811D01*
X113787100Y-58527877D01*
X113787100Y-47515548D01*
X113807102Y-47447427D01*
X113810715Y-47442520D01*
X113816394Y-47437755D01*
X113821907Y-47428206D01*
X113835239Y-47405115D01*
X113841145Y-47395844D01*
X113862754Y-47364984D01*
X113865608Y-47354333D01*
X113867088Y-47351160D01*
X113868279Y-47347888D01*
X113873788Y-47338345D01*
X113880334Y-47301224D01*
X113882708Y-47290517D01*
X113892463Y-47254107D01*
X113889179Y-47216569D01*
X113888700Y-47205588D01*
X113888700Y-47140062D01*
X113908702Y-47071941D01*
X113957890Y-47027596D01*
X114123313Y-46944035D01*
X114123316Y-46944033D01*
X114128810Y-46941258D01*
X114291151Y-46814424D01*
X114425764Y-46658472D01*
X114446587Y-46621818D01*
X114524476Y-46484707D01*
X114527523Y-46479344D01*
X114592551Y-46283863D01*
X114618371Y-46079474D01*
X114618783Y-46050000D01*
X114598680Y-45844970D01*
X114539135Y-45647749D01*
X114442418Y-45465849D01*
X114369059Y-45375902D01*
X114316106Y-45310975D01*
X114316103Y-45310972D01*
X114312211Y-45306200D01*
X114294986Y-45291950D01*
X114158225Y-45178811D01*
X114158221Y-45178809D01*
X114153475Y-45174882D01*
X113972255Y-45076897D01*
X113775454Y-45015977D01*
X113769329Y-45015333D01*
X113769328Y-45015333D01*
X113576698Y-44995087D01*
X113576696Y-44995087D01*
X113570569Y-44994443D01*
X113483729Y-45002346D01*
X113371542Y-45012555D01*
X113371539Y-45012556D01*
X113365403Y-45013114D01*
X113167772Y-45071280D01*
X112985202Y-45166726D01*
X112980401Y-45170586D01*
X112980398Y-45170588D01*
X112970171Y-45178811D01*
X112824647Y-45295815D01*
X112692224Y-45453630D01*
X112689256Y-45459028D01*
X112689253Y-45459033D01*
X112601246Y-45619119D01*
X112592976Y-45634162D01*
X112530684Y-45830532D01*
X112529998Y-45836649D01*
X112529997Y-45836653D01*
X112508407Y-46029137D01*
X112507720Y-46035262D01*
X112524959Y-46240553D01*
X112526658Y-46246478D01*
X112563916Y-46376411D01*
X112581744Y-46438586D01*
X112584559Y-46444063D01*
X112584560Y-46444066D01*
X112605447Y-46484707D01*
X112675912Y-46621818D01*
X112803877Y-46783270D01*
X112960764Y-46916791D01*
X113098415Y-46993721D01*
X113119935Y-47005749D01*
X113169640Y-47056443D01*
X113184048Y-47125962D01*
X113172659Y-47168987D01*
X113168370Y-47178185D01*
X113162046Y-47187216D01*
X113159192Y-47197866D01*
X113157715Y-47201034D01*
X113156523Y-47204310D01*
X113151012Y-47213855D01*
X113145850Y-47243130D01*
X113144470Y-47250958D01*
X113142092Y-47261685D01*
X113132336Y-47298093D01*
X113133297Y-47309078D01*
X113133297Y-47309080D01*
X113135620Y-47335628D01*
X113136100Y-47346610D01*
X113136100Y-58806890D01*
X113135620Y-58817872D01*
X113134584Y-58829718D01*
X113132336Y-58855407D01*
X113142091Y-58891810D01*
X113144470Y-58902542D01*
X113144773Y-58904258D01*
X113151012Y-58939645D01*
X113156523Y-58949190D01*
X113157715Y-58952466D01*
X113159192Y-58955634D01*
X113162046Y-58966284D01*
X113168370Y-58975315D01*
X113183655Y-58997144D01*
X113189561Y-59006415D01*
X113201495Y-59027084D01*
X113208406Y-59039055D01*
X113226306Y-59054075D01*
X113237282Y-59063285D01*
X113245385Y-59070711D01*
X113260291Y-59085617D01*
X113294317Y-59147929D01*
X113296118Y-59191157D01*
X113287318Y-59258000D01*
X113307956Y-59414762D01*
X113311116Y-59422391D01*
X113336338Y-59483282D01*
X113343927Y-59553872D01*
X113312148Y-59617359D01*
X113251090Y-59653586D01*
X113219929Y-59657500D01*
X112502310Y-59657500D01*
X112491328Y-59657020D01*
X112464775Y-59654697D01*
X112464770Y-59654697D01*
X112453793Y-59653737D01*
X112417383Y-59663492D01*
X112406676Y-59665866D01*
X112369555Y-59672412D01*
X112360011Y-59677922D01*
X112356735Y-59679114D01*
X112353564Y-59680593D01*
X112342916Y-59683446D01*
X112333887Y-59689768D01*
X112312049Y-59705059D01*
X112302779Y-59710964D01*
X112279692Y-59724293D01*
X112279688Y-59724296D01*
X112270145Y-59729806D01*
X112263060Y-59738250D01*
X112245920Y-59758676D01*
X112238494Y-59766779D01*
X110779684Y-61225590D01*
X110771581Y-61233016D01*
X110742706Y-61257245D01*
X110737193Y-61266794D01*
X110723861Y-61289885D01*
X110717955Y-61299156D01*
X110696346Y-61330016D01*
X110693492Y-61340666D01*
X110692015Y-61343834D01*
X110690823Y-61347110D01*
X110685312Y-61356655D01*
X110681288Y-61379477D01*
X110678770Y-61393758D01*
X110676392Y-61404485D01*
X110666636Y-61440893D01*
X110667597Y-61451878D01*
X110667597Y-61451880D01*
X110669920Y-61478428D01*
X110670400Y-61489410D01*
X110670400Y-63012622D01*
X110660809Y-63060840D01*
X110604116Y-63197709D01*
X110600956Y-63205338D01*
X110580318Y-63362100D01*
X87655200Y-63362100D01*
X87655200Y-61848800D01*
X102238718Y-61848800D01*
X102259356Y-62005562D01*
X102319864Y-62151641D01*
X102416118Y-62277082D01*
X102422664Y-62282105D01*
X102435984Y-62292326D01*
X102541559Y-62373336D01*
X102687638Y-62433844D01*
X102844400Y-62454482D01*
X102852588Y-62453404D01*
X102992974Y-62434922D01*
X103001162Y-62433844D01*
X103147241Y-62373336D01*
X103252816Y-62292326D01*
X103266136Y-62282105D01*
X103272682Y-62277082D01*
X103368936Y-62151641D01*
X103429444Y-62005562D01*
X103450082Y-61848800D01*
X103429444Y-61692038D01*
X103368936Y-61545959D01*
X103272682Y-61420518D01*
X103219196Y-61379477D01*
X103177329Y-61322139D01*
X103169900Y-61279514D01*
X103169900Y-60664216D01*
X103189902Y-60596095D01*
X103206805Y-60575121D01*
X104212422Y-59569504D01*
X104274734Y-59535478D01*
X104301517Y-59532599D01*
X106085013Y-59532599D01*
X106153134Y-59552601D01*
X106184976Y-59581895D01*
X106226017Y-59635381D01*
X106351458Y-59731635D01*
X106497537Y-59792143D01*
X106654299Y-59812781D01*
X106662487Y-59811703D01*
X106690068Y-59808072D01*
X106811061Y-59792143D01*
X106957140Y-59731635D01*
X107082581Y-59635381D01*
X107178835Y-59509940D01*
X107239343Y-59363861D01*
X107259981Y-59207099D01*
X107241631Y-59067715D01*
X107240421Y-59058525D01*
X107239343Y-59050337D01*
X107178835Y-58904258D01*
X107082581Y-58778817D01*
X106957140Y-58682563D01*
X106811061Y-58622055D01*
X106654299Y-58601417D01*
X106497537Y-58622055D01*
X106351458Y-58682563D01*
X106226017Y-58778817D01*
X106186960Y-58829718D01*
X106184976Y-58832303D01*
X106127638Y-58874170D01*
X106085013Y-58881599D01*
X104134211Y-58881599D01*
X104123229Y-58881119D01*
X104096681Y-58878796D01*
X104096679Y-58878796D01*
X104085694Y-58877835D01*
X104049286Y-58887591D01*
X104038559Y-58889969D01*
X104035200Y-58890561D01*
X104001456Y-58896511D01*
X103991911Y-58902022D01*
X103988635Y-58903214D01*
X103985467Y-58904691D01*
X103974817Y-58907545D01*
X103965786Y-58913869D01*
X103943957Y-58929154D01*
X103934686Y-58935060D01*
X103911595Y-58948392D01*
X103902046Y-58953905D01*
X103891659Y-58966284D01*
X103877816Y-58982781D01*
X103870390Y-58990884D01*
X102628185Y-60233089D01*
X102620081Y-60240516D01*
X102591206Y-60264745D01*
X102585693Y-60274294D01*
X102572361Y-60297385D01*
X102566455Y-60306656D01*
X102544846Y-60337516D01*
X102541992Y-60348166D01*
X102540515Y-60351334D01*
X102539323Y-60354610D01*
X102533812Y-60364155D01*
X102527862Y-60397899D01*
X102527270Y-60401258D01*
X102524892Y-60411985D01*
X102515136Y-60448393D01*
X102516097Y-60459378D01*
X102516097Y-60459380D01*
X102518420Y-60485928D01*
X102518900Y-60496910D01*
X102518900Y-61279514D01*
X102498898Y-61347635D01*
X102469604Y-61379477D01*
X102416118Y-61420518D01*
X102319864Y-61545959D01*
X102259356Y-61692038D01*
X102238718Y-61848800D01*
X87655200Y-61848800D01*
X87655200Y-58445200D01*
X95837918Y-58445200D01*
X95858556Y-58601962D01*
X95919064Y-58748041D01*
X96015318Y-58873482D01*
X96140759Y-58969736D01*
X96286838Y-59030244D01*
X96295026Y-59031322D01*
X96365219Y-59040563D01*
X96443600Y-59050882D01*
X96451788Y-59049804D01*
X96479612Y-59046141D01*
X96521981Y-59040563D01*
X96592174Y-59031322D01*
X96600362Y-59030244D01*
X96746441Y-58969736D01*
X96871882Y-58873482D01*
X96968136Y-58748041D01*
X97028644Y-58601962D01*
X97049282Y-58445200D01*
X97040482Y-58378357D01*
X97051421Y-58308210D01*
X97076309Y-58272817D01*
X97389153Y-57959973D01*
X97397257Y-57952546D01*
X97417687Y-57935403D01*
X97426132Y-57928317D01*
X97432375Y-57917504D01*
X97444977Y-57895677D01*
X97450883Y-57886406D01*
X97466168Y-57864577D01*
X97472492Y-57855546D01*
X97475346Y-57844896D01*
X97476823Y-57841728D01*
X97478015Y-57838452D01*
X97483526Y-57828907D01*
X97490068Y-57791804D01*
X97492447Y-57781072D01*
X97502202Y-57744669D01*
X97498917Y-57707119D01*
X97498438Y-57696138D01*
X97498438Y-54857272D01*
X97518440Y-54789151D01*
X97547734Y-54757309D01*
X97594674Y-54721291D01*
X97601220Y-54716268D01*
X97606733Y-54709084D01*
X97685710Y-54606158D01*
X97697474Y-54590827D01*
X97757982Y-54444748D01*
X97778620Y-54287986D01*
X97757982Y-54131224D01*
X97697474Y-53985145D01*
X97613079Y-53875159D01*
X97606243Y-53866250D01*
X97601220Y-53859704D01*
X97475779Y-53763450D01*
X97329700Y-53702942D01*
X97172938Y-53682304D01*
X97016176Y-53702942D01*
X96870097Y-53763450D01*
X96744656Y-53859704D01*
X96739633Y-53866250D01*
X96732797Y-53875159D01*
X96648402Y-53985145D01*
X96587894Y-54131224D01*
X96567256Y-54287986D01*
X96587894Y-54444748D01*
X96648402Y-54590827D01*
X96660166Y-54606158D01*
X96739144Y-54709084D01*
X96744656Y-54716268D01*
X96751202Y-54721291D01*
X96798142Y-54757309D01*
X96840009Y-54814647D01*
X96847438Y-54857272D01*
X96847438Y-57528846D01*
X96827436Y-57596967D01*
X96810533Y-57617941D01*
X96615983Y-57812491D01*
X96553671Y-57846517D01*
X96510443Y-57848318D01*
X96443600Y-57839518D01*
X96390437Y-57846517D01*
X96321855Y-57855546D01*
X96286838Y-57860156D01*
X96140759Y-57920664D01*
X96015318Y-58016918D01*
X95919064Y-58142359D01*
X95858556Y-58288438D01*
X95837918Y-58445200D01*
X87655200Y-58445200D01*
X87655200Y-52654000D01*
X101883118Y-52654000D01*
X101903756Y-52810762D01*
X101964264Y-52956841D01*
X102060518Y-53082282D01*
X102185959Y-53178536D01*
X102288719Y-53221100D01*
X102343999Y-53265648D01*
X102366500Y-53337509D01*
X102366500Y-55081914D01*
X102346498Y-55150035D01*
X102317204Y-55181877D01*
X102263718Y-55222918D01*
X102167464Y-55348359D01*
X102106956Y-55494438D01*
X102086318Y-55651200D01*
X102106956Y-55807962D01*
X102167464Y-55954041D01*
X102263718Y-56079482D01*
X102270264Y-56084505D01*
X102287348Y-56097614D01*
X102389159Y-56175736D01*
X102535238Y-56236244D01*
X102543426Y-56237322D01*
X102613619Y-56246563D01*
X102692000Y-56256882D01*
X102700188Y-56255804D01*
X102840574Y-56237322D01*
X102848762Y-56236244D01*
X102994841Y-56175736D01*
X103096652Y-56097614D01*
X103113736Y-56084505D01*
X103120282Y-56079482D01*
X103216536Y-55954041D01*
X103277044Y-55807962D01*
X103297682Y-55651200D01*
X103277044Y-55494438D01*
X103216536Y-55348359D01*
X103120282Y-55222918D01*
X103066796Y-55181877D01*
X103024929Y-55124539D01*
X103017500Y-55081914D01*
X103017500Y-54178000D01*
X107521918Y-54178000D01*
X107542556Y-54334762D01*
X107603064Y-54480841D01*
X107699318Y-54606282D01*
X107824759Y-54702536D01*
X107898021Y-54732882D01*
X107956993Y-54757309D01*
X107970838Y-54763044D01*
X108127600Y-54783682D01*
X108135788Y-54782604D01*
X108276174Y-54764122D01*
X108284362Y-54763044D01*
X108298208Y-54757309D01*
X108357179Y-54732882D01*
X108430441Y-54702536D01*
X108555882Y-54606282D01*
X108596923Y-54552796D01*
X108654261Y-54510929D01*
X108696886Y-54503500D01*
X111458094Y-54503500D01*
X111526215Y-54523502D01*
X111548415Y-54543926D01*
X111549250Y-54543091D01*
X111555095Y-54548936D01*
X111560118Y-54555482D01*
X111685559Y-54651736D01*
X111831638Y-54712244D01*
X111988400Y-54732882D01*
X111996588Y-54731804D01*
X112136974Y-54713322D01*
X112145162Y-54712244D01*
X112291241Y-54651736D01*
X112416682Y-54555482D01*
X112512936Y-54430041D01*
X112573444Y-54283962D01*
X112594082Y-54127200D01*
X112578250Y-54006945D01*
X112574522Y-53978626D01*
X112573444Y-53970438D01*
X112512936Y-53824359D01*
X112422795Y-53706884D01*
X112421705Y-53705464D01*
X112416682Y-53698918D01*
X112291241Y-53602664D01*
X112145162Y-53542156D01*
X111988400Y-53521518D01*
X111831638Y-53542156D01*
X111685559Y-53602664D01*
X111560118Y-53698918D01*
X111555095Y-53705464D01*
X111480097Y-53803204D01*
X111422759Y-53845071D01*
X111380134Y-53852500D01*
X108696886Y-53852500D01*
X108628765Y-53832498D01*
X108596923Y-53803204D01*
X108560905Y-53756264D01*
X108555882Y-53749718D01*
X108430441Y-53653464D01*
X108284362Y-53592956D01*
X108127600Y-53572318D01*
X107970838Y-53592956D01*
X107824759Y-53653464D01*
X107699318Y-53749718D01*
X107603064Y-53875159D01*
X107542556Y-54021238D01*
X107521918Y-54178000D01*
X103017500Y-54178000D01*
X103017500Y-52971851D01*
X103027091Y-52923633D01*
X103070684Y-52818391D01*
X103073844Y-52810762D01*
X103094482Y-52654000D01*
X103073844Y-52497238D01*
X103013336Y-52351159D01*
X102917082Y-52225718D01*
X102791641Y-52129464D01*
X102645562Y-52068956D01*
X102488800Y-52048318D01*
X102332038Y-52068956D01*
X102185959Y-52129464D01*
X102060518Y-52225718D01*
X101964264Y-52351159D01*
X101903756Y-52497238D01*
X101883118Y-52654000D01*
X87655200Y-52654000D01*
X87655200Y-49606000D01*
X102252018Y-49606000D01*
X102272656Y-49762762D01*
X102333164Y-49908841D01*
X102429418Y-50034282D01*
X102554859Y-50130536D01*
X102700938Y-50191044D01*
X102857700Y-50211682D01*
X102865888Y-50210604D01*
X103006274Y-50192122D01*
X103014462Y-50191044D01*
X103160541Y-50130536D01*
X103285982Y-50034282D01*
X103327023Y-49980796D01*
X103384361Y-49938929D01*
X103426986Y-49931500D01*
X111308290Y-49931500D01*
X111319272Y-49931980D01*
X111345820Y-49934303D01*
X111345822Y-49934303D01*
X111356807Y-49935264D01*
X111393215Y-49925508D01*
X111403942Y-49923130D01*
X111407301Y-49922538D01*
X111441045Y-49916588D01*
X111450590Y-49911077D01*
X111453866Y-49909885D01*
X111457033Y-49908408D01*
X111467684Y-49905554D01*
X111470015Y-49903922D01*
X111534695Y-49893966D01*
X111632800Y-49906882D01*
X111640988Y-49905804D01*
X111649420Y-49904694D01*
X111789562Y-49886244D01*
X111935641Y-49825736D01*
X112061082Y-49729482D01*
X112157336Y-49604041D01*
X112217844Y-49457962D01*
X112238482Y-49301200D01*
X112217844Y-49144438D01*
X112157336Y-48998359D01*
X112061082Y-48872918D01*
X111935641Y-48776664D01*
X111789562Y-48716156D01*
X111632800Y-48695518D01*
X111476038Y-48716156D01*
X111329959Y-48776664D01*
X111204518Y-48872918D01*
X111108264Y-48998359D01*
X111047756Y-49144438D01*
X111046678Y-49152626D01*
X111044266Y-49170947D01*
X111015543Y-49235874D01*
X110956278Y-49274965D01*
X110919344Y-49280500D01*
X103426986Y-49280500D01*
X103358865Y-49260498D01*
X103327023Y-49231204D01*
X103291005Y-49184264D01*
X103285982Y-49177718D01*
X103160541Y-49081464D01*
X103014462Y-49020956D01*
X102857700Y-49000318D01*
X102700938Y-49020956D01*
X102554859Y-49081464D01*
X102429418Y-49177718D01*
X102333164Y-49303159D01*
X102272656Y-49449238D01*
X102252018Y-49606000D01*
X87655200Y-49606000D01*
X87655200Y-41783000D01*
X87675202Y-41714879D01*
X87728858Y-41668386D01*
X87781200Y-41657000D01*
X127288200Y-41657000D01*
X127356321Y-41677002D01*
G37*
%TD.AperFunction*%
%TD*%
%TA.AperFunction,Conductor*%
%TO.N,GND2*%
G36*
X127356321Y-72177002D02*
G01*
X127402814Y-72230658D01*
X127414200Y-72283000D01*
X127414200Y-96998335D01*
X127394198Y-97066456D01*
X127340542Y-97112949D01*
X127288266Y-97124335D01*
X103851905Y-97136392D01*
X87781265Y-97144659D01*
X87713134Y-97124692D01*
X87666613Y-97071060D01*
X87655200Y-97018659D01*
X87655200Y-93862100D01*
X110580318Y-93862100D01*
X110600956Y-94018862D01*
X110661464Y-94164941D01*
X110757718Y-94290382D01*
X110883159Y-94386636D01*
X111029238Y-94447144D01*
X111186000Y-94467782D01*
X111194188Y-94466704D01*
X111334574Y-94448222D01*
X111342762Y-94447144D01*
X111488841Y-94386636D01*
X111614282Y-94290382D01*
X111710536Y-94164941D01*
X111771044Y-94018862D01*
X111791682Y-93862100D01*
X111771044Y-93705338D01*
X111767884Y-93697709D01*
X111765746Y-93689730D01*
X111768200Y-93689073D01*
X111761971Y-93631182D01*
X111793745Y-93567692D01*
X111854800Y-93531460D01*
X111869525Y-93528621D01*
X111889862Y-93525944D01*
X112035941Y-93465436D01*
X112161382Y-93369182D01*
X112257636Y-93243741D01*
X112318144Y-93097662D01*
X112338782Y-92940900D01*
X112318144Y-92784138D01*
X112312121Y-92769596D01*
X112265975Y-92658192D01*
X112257636Y-92638059D01*
X112161382Y-92512618D01*
X112152187Y-92505562D01*
X112107896Y-92471577D01*
X112066029Y-92414239D01*
X112058600Y-92371614D01*
X112058600Y-92333916D01*
X112078602Y-92265795D01*
X112095505Y-92244821D01*
X113001221Y-91339105D01*
X113063533Y-91305079D01*
X113090316Y-91302200D01*
X115836529Y-91302200D01*
X115904650Y-91322202D01*
X115951143Y-91375858D01*
X115961247Y-91446132D01*
X115952938Y-91476418D01*
X115924556Y-91544938D01*
X115923478Y-91553126D01*
X115916265Y-91607918D01*
X115903918Y-91701700D01*
X115924556Y-91858462D01*
X115985064Y-92004541D01*
X116081318Y-92129982D01*
X116087864Y-92135005D01*
X116134804Y-92171023D01*
X116176671Y-92228361D01*
X116184100Y-92270986D01*
X116184100Y-92517382D01*
X116164098Y-92585503D01*
X116147196Y-92606477D01*
X115873678Y-92879996D01*
X115865574Y-92887422D01*
X115836706Y-92911645D01*
X115831193Y-92921194D01*
X115817861Y-92944285D01*
X115811955Y-92953556D01*
X115790346Y-92984416D01*
X115787492Y-92995066D01*
X115786015Y-92998234D01*
X115784823Y-93001510D01*
X115779312Y-93011055D01*
X115773362Y-93044799D01*
X115772770Y-93048158D01*
X115770392Y-93058885D01*
X115760636Y-93095293D01*
X115761597Y-93106278D01*
X115761597Y-93106280D01*
X115763920Y-93132828D01*
X115764400Y-93143810D01*
X115764400Y-93557514D01*
X115744398Y-93625635D01*
X115715104Y-93657477D01*
X115661618Y-93698518D01*
X115565364Y-93823959D01*
X115504856Y-93970038D01*
X115484218Y-94126800D01*
X115504856Y-94283562D01*
X115565364Y-94429641D01*
X115661618Y-94555082D01*
X115787059Y-94651336D01*
X115933138Y-94711844D01*
X116089900Y-94732482D01*
X116098088Y-94731404D01*
X116238474Y-94712922D01*
X116246662Y-94711844D01*
X116392741Y-94651336D01*
X116518182Y-94555082D01*
X116614436Y-94429641D01*
X116674944Y-94283562D01*
X116695582Y-94126800D01*
X116674944Y-93970038D01*
X116614436Y-93823959D01*
X116518182Y-93698518D01*
X116464696Y-93657477D01*
X116422829Y-93600139D01*
X116415400Y-93557514D01*
X116415400Y-93311117D01*
X116435402Y-93242996D01*
X116452305Y-93222021D01*
X116576665Y-93097662D01*
X116725828Y-92948499D01*
X116733932Y-92941073D01*
X116734138Y-92940900D01*
X116762794Y-92916855D01*
X116781639Y-92884215D01*
X116787543Y-92874947D01*
X116802831Y-92853113D01*
X116809153Y-92844084D01*
X116812006Y-92833438D01*
X116813483Y-92830270D01*
X116814676Y-92826993D01*
X116820188Y-92817445D01*
X116826732Y-92780331D01*
X116829112Y-92769596D01*
X116836010Y-92743854D01*
X116838863Y-92733207D01*
X116835579Y-92695669D01*
X116835100Y-92684688D01*
X116835100Y-92270986D01*
X116855102Y-92202865D01*
X116884396Y-92171023D01*
X116931336Y-92135005D01*
X116937882Y-92129982D01*
X117034136Y-92004541D01*
X117094644Y-91858462D01*
X117115282Y-91701700D01*
X117102935Y-91607918D01*
X117095722Y-91553126D01*
X117094644Y-91544938D01*
X117066262Y-91476418D01*
X117058673Y-91405828D01*
X117090452Y-91342341D01*
X117151510Y-91306114D01*
X117182671Y-91302200D01*
X117693683Y-91302200D01*
X117761804Y-91322202D01*
X117782779Y-91339105D01*
X118043501Y-91599828D01*
X118050927Y-91607931D01*
X118075145Y-91636794D01*
X118107784Y-91655638D01*
X118117052Y-91661542D01*
X118147916Y-91683153D01*
X118158562Y-91686006D01*
X118161730Y-91687483D01*
X118165007Y-91688676D01*
X118174555Y-91694188D01*
X118204108Y-91699399D01*
X118211669Y-91700732D01*
X118222403Y-91703112D01*
X118258793Y-91712863D01*
X118269769Y-91711903D01*
X118269772Y-91711903D01*
X118296331Y-91709579D01*
X118307312Y-91709100D01*
X124770290Y-91709100D01*
X124781272Y-91709580D01*
X124807820Y-91711903D01*
X124807822Y-91711903D01*
X124818807Y-91712864D01*
X124855215Y-91703108D01*
X124865942Y-91700730D01*
X124869301Y-91700138D01*
X124903045Y-91694188D01*
X124912590Y-91688677D01*
X124915866Y-91687485D01*
X124919034Y-91686008D01*
X124929684Y-91683154D01*
X124960547Y-91661543D01*
X124969815Y-91655639D01*
X124992906Y-91642307D01*
X125002455Y-91636794D01*
X125026685Y-91607917D01*
X125034111Y-91599815D01*
X126073015Y-90560911D01*
X126081119Y-90553484D01*
X126101549Y-90536341D01*
X126109994Y-90529255D01*
X126122688Y-90507268D01*
X126128839Y-90496615D01*
X126134745Y-90487344D01*
X126150030Y-90465515D01*
X126156354Y-90456484D01*
X126159208Y-90445834D01*
X126160685Y-90442666D01*
X126161877Y-90439390D01*
X126167388Y-90429845D01*
X126173930Y-90392742D01*
X126176309Y-90382010D01*
X126183210Y-90356256D01*
X126186064Y-90345607D01*
X126182780Y-90308072D01*
X126182300Y-90297090D01*
X126182300Y-84904510D01*
X126182780Y-84893528D01*
X126185103Y-84866980D01*
X126185103Y-84866978D01*
X126186064Y-84855993D01*
X126176308Y-84819585D01*
X126173930Y-84808858D01*
X126170885Y-84791591D01*
X126167388Y-84771755D01*
X126161877Y-84762210D01*
X126160685Y-84758934D01*
X126159208Y-84755766D01*
X126156354Y-84745116D01*
X126134745Y-84714256D01*
X126128839Y-84704985D01*
X126115507Y-84681894D01*
X126109994Y-84672345D01*
X126081117Y-84648115D01*
X126073015Y-84640689D01*
X124529311Y-83096985D01*
X124495285Y-83034673D01*
X124500350Y-82963858D01*
X124505449Y-82952063D01*
X124542848Y-82876391D01*
X124574215Y-82812925D01*
X124628428Y-82634491D01*
X124639659Y-82597527D01*
X124639660Y-82597521D01*
X124641163Y-82592575D01*
X124671222Y-82364249D01*
X124672900Y-82295600D01*
X124654030Y-82066078D01*
X124597926Y-81842720D01*
X124506096Y-81631524D01*
X124381005Y-81438163D01*
X124360374Y-81415489D01*
X124229490Y-81271651D01*
X124229489Y-81271650D01*
X124226012Y-81267829D01*
X124221961Y-81264630D01*
X124221957Y-81264626D01*
X124049335Y-81128297D01*
X124049330Y-81128293D01*
X124045281Y-81125096D01*
X124040765Y-81122603D01*
X124040762Y-81122601D01*
X123848189Y-81016295D01*
X123848185Y-81016293D01*
X123843665Y-81013798D01*
X123838796Y-81012074D01*
X123838792Y-81012072D01*
X123631453Y-80938649D01*
X123631449Y-80938648D01*
X123626578Y-80936923D01*
X123621485Y-80936016D01*
X123621482Y-80936015D01*
X123525307Y-80918884D01*
X123399850Y-80896537D01*
X123313402Y-80895481D01*
X123174741Y-80893786D01*
X123174739Y-80893786D01*
X123169571Y-80893723D01*
X122941925Y-80928558D01*
X122723024Y-81000106D01*
X122518749Y-81106445D01*
X122334584Y-81244719D01*
X122175477Y-81411216D01*
X122045699Y-81601463D01*
X122043523Y-81606152D01*
X122043519Y-81606158D01*
X122031745Y-81631524D01*
X121948736Y-81810352D01*
X121887192Y-82032273D01*
X121862719Y-82261265D01*
X121863016Y-82266417D01*
X121863016Y-82266421D01*
X121868464Y-82360896D01*
X121875976Y-82491180D01*
X121877113Y-82496226D01*
X121877114Y-82496232D01*
X121898826Y-82592575D01*
X121926606Y-82715842D01*
X121928548Y-82720624D01*
X121928549Y-82720628D01*
X122011305Y-82924431D01*
X122013249Y-82929218D01*
X122133579Y-83125578D01*
X122284363Y-83299648D01*
X122461553Y-83446754D01*
X122660390Y-83562945D01*
X122875534Y-83645101D01*
X122880600Y-83646132D01*
X122880601Y-83646132D01*
X122981297Y-83666618D01*
X123101207Y-83691014D01*
X123230952Y-83695772D01*
X123326185Y-83699264D01*
X123326189Y-83699264D01*
X123331349Y-83699453D01*
X123336469Y-83698797D01*
X123336471Y-83698797D01*
X123405872Y-83689907D01*
X123559778Y-83670191D01*
X123564726Y-83668706D01*
X123564733Y-83668705D01*
X123775411Y-83605498D01*
X123775410Y-83605498D01*
X123780361Y-83604013D01*
X123924569Y-83533366D01*
X123994542Y-83521359D01*
X124059900Y-83549089D01*
X124069096Y-83557422D01*
X125494395Y-84982721D01*
X125528421Y-85045033D01*
X125531300Y-85071816D01*
X125531300Y-90129784D01*
X125511298Y-90197905D01*
X125494395Y-90218879D01*
X125190695Y-90522579D01*
X125128383Y-90556605D01*
X125057568Y-90551540D01*
X125000732Y-90508993D01*
X124975921Y-90442473D01*
X124975600Y-90433484D01*
X124975600Y-89567715D01*
X124971125Y-89552476D01*
X124969735Y-89551271D01*
X124962052Y-89549600D01*
X121577716Y-89549600D01*
X121562477Y-89554075D01*
X121561272Y-89555465D01*
X121559601Y-89563148D01*
X121559601Y-90540269D01*
X121559971Y-90547090D01*
X121565495Y-90597952D01*
X121569121Y-90613204D01*
X121614276Y-90733654D01*
X121622811Y-90749244D01*
X121703221Y-90856535D01*
X121728068Y-90923042D01*
X121713015Y-90992424D01*
X121662840Y-91042654D01*
X121602394Y-91058100D01*
X118474618Y-91058100D01*
X118406497Y-91038098D01*
X118385523Y-91021196D01*
X118124804Y-90760478D01*
X118117377Y-90752373D01*
X118093155Y-90723506D01*
X118083606Y-90717993D01*
X118060515Y-90704661D01*
X118051244Y-90698755D01*
X118029415Y-90683470D01*
X118020384Y-90677146D01*
X118009734Y-90674292D01*
X118006566Y-90672815D01*
X118003290Y-90671623D01*
X117993745Y-90666112D01*
X117960001Y-90660162D01*
X117956642Y-90659570D01*
X117945915Y-90657192D01*
X117909507Y-90647436D01*
X117898522Y-90648397D01*
X117898520Y-90648397D01*
X117871972Y-90650720D01*
X117860990Y-90651200D01*
X115262916Y-90651200D01*
X115194795Y-90631198D01*
X115148302Y-90577542D01*
X115138198Y-90507268D01*
X115167692Y-90442688D01*
X115173821Y-90436105D01*
X116586442Y-89023485D01*
X121559600Y-89023485D01*
X121564075Y-89038724D01*
X121565465Y-89039929D01*
X121573148Y-89041600D01*
X122995485Y-89041600D01*
X123010724Y-89037125D01*
X123011929Y-89035735D01*
X123013600Y-89028052D01*
X123013600Y-89023485D01*
X123521600Y-89023485D01*
X123526075Y-89038724D01*
X123527465Y-89039929D01*
X123535148Y-89041600D01*
X124957484Y-89041600D01*
X124972723Y-89037125D01*
X124973928Y-89035735D01*
X124975599Y-89028052D01*
X124975599Y-88050931D01*
X124975229Y-88044110D01*
X124969705Y-87993248D01*
X124966079Y-87977996D01*
X124920924Y-87857546D01*
X124912386Y-87841951D01*
X124835885Y-87739876D01*
X124823324Y-87727315D01*
X124721249Y-87650814D01*
X124705654Y-87642276D01*
X124585206Y-87597122D01*
X124569951Y-87593495D01*
X124519086Y-87587969D01*
X124512272Y-87587600D01*
X123539715Y-87587600D01*
X123524476Y-87592075D01*
X123523271Y-87593465D01*
X123521600Y-87601148D01*
X123521600Y-89023485D01*
X123013600Y-89023485D01*
X123013600Y-87605716D01*
X123009125Y-87590477D01*
X123007735Y-87589272D01*
X123000052Y-87587601D01*
X122022931Y-87587601D01*
X122016110Y-87587971D01*
X121965248Y-87593495D01*
X121949996Y-87597121D01*
X121829546Y-87642276D01*
X121813951Y-87650814D01*
X121711876Y-87727315D01*
X121699315Y-87739876D01*
X121622814Y-87841951D01*
X121614276Y-87857546D01*
X121569122Y-87977994D01*
X121565495Y-87993249D01*
X121559969Y-88044114D01*
X121559600Y-88050928D01*
X121559600Y-89023485D01*
X116586442Y-89023485D01*
X116959938Y-88649989D01*
X118838722Y-86771205D01*
X118846826Y-86763778D01*
X118867249Y-86746641D01*
X118875694Y-86739555D01*
X118894539Y-86706915D01*
X118900443Y-86697647D01*
X118915731Y-86675813D01*
X118922053Y-86666784D01*
X118924906Y-86656138D01*
X118926383Y-86652970D01*
X118927576Y-86649693D01*
X118933088Y-86640145D01*
X118939632Y-86603031D01*
X118942012Y-86592296D01*
X118948910Y-86566554D01*
X118951763Y-86555907D01*
X118948479Y-86518369D01*
X118948000Y-86507388D01*
X118948000Y-86247100D01*
X118968002Y-86178979D01*
X119021658Y-86132486D01*
X119074000Y-86121100D01*
X121804804Y-86121100D01*
X121872925Y-86141102D01*
X121919418Y-86194758D01*
X121925040Y-86209427D01*
X121925469Y-86210795D01*
X121926606Y-86215842D01*
X121928549Y-86220628D01*
X121928550Y-86220630D01*
X121960687Y-86299774D01*
X122013249Y-86429218D01*
X122133579Y-86625578D01*
X122284363Y-86799648D01*
X122461553Y-86946754D01*
X122660390Y-87062945D01*
X122875534Y-87145101D01*
X122880600Y-87146132D01*
X122880601Y-87146132D01*
X122981297Y-87166618D01*
X123101207Y-87191014D01*
X123230952Y-87195772D01*
X123326185Y-87199264D01*
X123326189Y-87199264D01*
X123331349Y-87199453D01*
X123336469Y-87198797D01*
X123336471Y-87198797D01*
X123405872Y-87189907D01*
X123559778Y-87170191D01*
X123564726Y-87168706D01*
X123564733Y-87168705D01*
X123775411Y-87105498D01*
X123775410Y-87105498D01*
X123780361Y-87104013D01*
X123987174Y-87002696D01*
X124174662Y-86868963D01*
X124337790Y-86706403D01*
X124359827Y-86675736D01*
X124469159Y-86523583D01*
X124472177Y-86519383D01*
X124478106Y-86507388D01*
X124534999Y-86392273D01*
X124574215Y-86312925D01*
X124603711Y-86215842D01*
X124639659Y-86097527D01*
X124639660Y-86097521D01*
X124641163Y-86092575D01*
X124662510Y-85930426D01*
X124670785Y-85867571D01*
X124670785Y-85867565D01*
X124671222Y-85864249D01*
X124672900Y-85795600D01*
X124654030Y-85566078D01*
X124597926Y-85342720D01*
X124534787Y-85197509D01*
X124508156Y-85136261D01*
X124508154Y-85136258D01*
X124506096Y-85131524D01*
X124429564Y-85013224D01*
X124383815Y-84942506D01*
X124383813Y-84942503D01*
X124381005Y-84938163D01*
X124360374Y-84915489D01*
X124229490Y-84771651D01*
X124229489Y-84771650D01*
X124226012Y-84767829D01*
X124221961Y-84764630D01*
X124221957Y-84764626D01*
X124049335Y-84628297D01*
X124049330Y-84628293D01*
X124045281Y-84625096D01*
X124040765Y-84622603D01*
X124040762Y-84622601D01*
X123848189Y-84516295D01*
X123848185Y-84516293D01*
X123843665Y-84513798D01*
X123838796Y-84512074D01*
X123838792Y-84512072D01*
X123631453Y-84438649D01*
X123631449Y-84438648D01*
X123626578Y-84436923D01*
X123621485Y-84436016D01*
X123621482Y-84436015D01*
X123525307Y-84418884D01*
X123399850Y-84396537D01*
X123313402Y-84395481D01*
X123174741Y-84393786D01*
X123174739Y-84393786D01*
X123169571Y-84393723D01*
X122941925Y-84428558D01*
X122723024Y-84500106D01*
X122518749Y-84606445D01*
X122334584Y-84744719D01*
X122175477Y-84911216D01*
X122172563Y-84915488D01*
X122172562Y-84915489D01*
X122085518Y-85043091D01*
X122045699Y-85101463D01*
X122043523Y-85106152D01*
X122043519Y-85106158D01*
X121958577Y-85289151D01*
X121948736Y-85310352D01*
X121930038Y-85377775D01*
X121892561Y-85438070D01*
X121828432Y-85468533D01*
X121808622Y-85470100D01*
X118809516Y-85470100D01*
X118741395Y-85450098D01*
X118720421Y-85433195D01*
X117583205Y-84295979D01*
X117549179Y-84233667D01*
X117546300Y-84206884D01*
X117546300Y-77640062D01*
X117566302Y-77571941D01*
X117615490Y-77527596D01*
X117780913Y-77444035D01*
X117780916Y-77444033D01*
X117786410Y-77441258D01*
X117948751Y-77314424D01*
X118083364Y-77158472D01*
X118104187Y-77121818D01*
X118182076Y-76984707D01*
X118185123Y-76979344D01*
X118250151Y-76783863D01*
X118275971Y-76579474D01*
X118276383Y-76550000D01*
X118274938Y-76535262D01*
X119822920Y-76535262D01*
X119840159Y-76740553D01*
X119841858Y-76746478D01*
X119879116Y-76876411D01*
X119896944Y-76938586D01*
X119899759Y-76944063D01*
X119899760Y-76944066D01*
X119920647Y-76984707D01*
X119991112Y-77121818D01*
X120119077Y-77283270D01*
X120275964Y-77416791D01*
X120455798Y-77517297D01*
X120550638Y-77548113D01*
X120645871Y-77579056D01*
X120645875Y-77579057D01*
X120651729Y-77580959D01*
X120856294Y-77605351D01*
X120862429Y-77604879D01*
X120862431Y-77604879D01*
X120918439Y-77600569D01*
X121061700Y-77589546D01*
X121067630Y-77587890D01*
X121067632Y-77587890D01*
X121254197Y-77535800D01*
X121254196Y-77535800D01*
X121260125Y-77534145D01*
X121265614Y-77531372D01*
X121265620Y-77531370D01*
X121438516Y-77444033D01*
X121444010Y-77441258D01*
X121606351Y-77314424D01*
X121740964Y-77158472D01*
X121761787Y-77121818D01*
X121839676Y-76984707D01*
X121842723Y-76979344D01*
X121907751Y-76783863D01*
X121933571Y-76579474D01*
X121933983Y-76550000D01*
X121913880Y-76344970D01*
X121854335Y-76147749D01*
X121757618Y-75965849D01*
X121684259Y-75875902D01*
X121631306Y-75810975D01*
X121631303Y-75810972D01*
X121627411Y-75806200D01*
X121610186Y-75791950D01*
X121473425Y-75678811D01*
X121473421Y-75678809D01*
X121468675Y-75674882D01*
X121287455Y-75576897D01*
X121090654Y-75515977D01*
X121084529Y-75515333D01*
X121084528Y-75515333D01*
X120891898Y-75495087D01*
X120891896Y-75495087D01*
X120885769Y-75494443D01*
X120798929Y-75502346D01*
X120686742Y-75512555D01*
X120686739Y-75512556D01*
X120680603Y-75513114D01*
X120482972Y-75571280D01*
X120300402Y-75666726D01*
X120295601Y-75670586D01*
X120295598Y-75670588D01*
X120285371Y-75678811D01*
X120139847Y-75795815D01*
X120007424Y-75953630D01*
X120004456Y-75959028D01*
X120004453Y-75959033D01*
X119916446Y-76119119D01*
X119908176Y-76134162D01*
X119845884Y-76330532D01*
X119845198Y-76336649D01*
X119845197Y-76336653D01*
X119823607Y-76529137D01*
X119822920Y-76535262D01*
X118274938Y-76535262D01*
X118256280Y-76344970D01*
X118196735Y-76147749D01*
X118100018Y-75965849D01*
X118026659Y-75875902D01*
X117973706Y-75810975D01*
X117973703Y-75810972D01*
X117969811Y-75806200D01*
X117952586Y-75791950D01*
X117815825Y-75678811D01*
X117815821Y-75678809D01*
X117811075Y-75674882D01*
X117629855Y-75576897D01*
X117433054Y-75515977D01*
X117426929Y-75515333D01*
X117426928Y-75515333D01*
X117234298Y-75495087D01*
X117234296Y-75495087D01*
X117228169Y-75494443D01*
X117141329Y-75502346D01*
X117029142Y-75512555D01*
X117029139Y-75512556D01*
X117023003Y-75513114D01*
X116825372Y-75571280D01*
X116642802Y-75666726D01*
X116638001Y-75670586D01*
X116637998Y-75670588D01*
X116627771Y-75678811D01*
X116482247Y-75795815D01*
X116349824Y-75953630D01*
X116340116Y-75971290D01*
X116274456Y-76090725D01*
X116224111Y-76140783D01*
X116154694Y-76155677D01*
X116088245Y-76130676D01*
X116074946Y-76119119D01*
X114835574Y-74879748D01*
X116170300Y-74879748D01*
X116181933Y-74938231D01*
X116226248Y-75004552D01*
X116292569Y-75048867D01*
X116304738Y-75051288D01*
X116304739Y-75051288D01*
X116344984Y-75059293D01*
X116351052Y-75060500D01*
X118090548Y-75060500D01*
X118096616Y-75059293D01*
X118136861Y-75051288D01*
X118136862Y-75051288D01*
X118149031Y-75048867D01*
X118215352Y-75004552D01*
X118259667Y-74938231D01*
X118271300Y-74879748D01*
X119827900Y-74879748D01*
X119839533Y-74938231D01*
X119883848Y-75004552D01*
X119950169Y-75048867D01*
X119962338Y-75051288D01*
X119962339Y-75051288D01*
X120002584Y-75059293D01*
X120008652Y-75060500D01*
X121748148Y-75060500D01*
X121754216Y-75059293D01*
X121794461Y-75051288D01*
X121794462Y-75051288D01*
X121806631Y-75048867D01*
X121872952Y-75004552D01*
X121917267Y-74938231D01*
X121928900Y-74879748D01*
X121928900Y-73140252D01*
X121917267Y-73081769D01*
X121872952Y-73015448D01*
X121806631Y-72971133D01*
X121794462Y-72968712D01*
X121794461Y-72968712D01*
X121754216Y-72960707D01*
X121748148Y-72959500D01*
X120008652Y-72959500D01*
X120002584Y-72960707D01*
X119962339Y-72968712D01*
X119962338Y-72968712D01*
X119950169Y-72971133D01*
X119883848Y-73015448D01*
X119839533Y-73081769D01*
X119827900Y-73140252D01*
X119827900Y-74879748D01*
X118271300Y-74879748D01*
X118271300Y-73140252D01*
X118259667Y-73081769D01*
X118215352Y-73015448D01*
X118149031Y-72971133D01*
X118136862Y-72968712D01*
X118136861Y-72968712D01*
X118096616Y-72960707D01*
X118090548Y-72959500D01*
X116351052Y-72959500D01*
X116344984Y-72960707D01*
X116304739Y-72968712D01*
X116304738Y-72968712D01*
X116292569Y-72971133D01*
X116226248Y-73015448D01*
X116181933Y-73081769D01*
X116170300Y-73140252D01*
X116170300Y-74879748D01*
X114835574Y-74879748D01*
X114650605Y-74694779D01*
X114616580Y-74632467D01*
X114613700Y-74605684D01*
X114613700Y-73140252D01*
X114602067Y-73081769D01*
X114557752Y-73015448D01*
X114491431Y-72971133D01*
X114479262Y-72968712D01*
X114479261Y-72968712D01*
X114439016Y-72960707D01*
X114432948Y-72959500D01*
X112693452Y-72959500D01*
X112687384Y-72960707D01*
X112647139Y-72968712D01*
X112647138Y-72968712D01*
X112634969Y-72971133D01*
X112568648Y-73015448D01*
X112524333Y-73081769D01*
X112512700Y-73140252D01*
X112512700Y-74879748D01*
X112524333Y-74938231D01*
X112568648Y-75004552D01*
X112634969Y-75048867D01*
X112647138Y-75051288D01*
X112647139Y-75051288D01*
X112687384Y-75059293D01*
X112693452Y-75060500D01*
X114043484Y-75060500D01*
X114111605Y-75080502D01*
X114132579Y-75097405D01*
X115801395Y-76766222D01*
X115808821Y-76774325D01*
X115833045Y-76803194D01*
X115842588Y-76808704D01*
X115842592Y-76808707D01*
X115865679Y-76822036D01*
X115874948Y-76827940D01*
X115905816Y-76849554D01*
X115916464Y-76852407D01*
X115919635Y-76853886D01*
X115922911Y-76855078D01*
X115932455Y-76860588D01*
X115969576Y-76867134D01*
X115980283Y-76869508D01*
X116016693Y-76879263D01*
X116027668Y-76878303D01*
X116027670Y-76878303D01*
X116054231Y-76875979D01*
X116065212Y-76875500D01*
X116130011Y-76875500D01*
X116198132Y-76895502D01*
X116242078Y-76943906D01*
X116333512Y-77121818D01*
X116461477Y-77283270D01*
X116618364Y-77416791D01*
X116798198Y-77517297D01*
X116804055Y-77519200D01*
X116808241Y-77520560D01*
X116866845Y-77560636D01*
X116894479Y-77626034D01*
X116895300Y-77640392D01*
X116895300Y-84374190D01*
X116894820Y-84385172D01*
X116891536Y-84422707D01*
X116895808Y-84438649D01*
X116901291Y-84459110D01*
X116903670Y-84469842D01*
X116910212Y-84506945D01*
X116915723Y-84516490D01*
X116916915Y-84519766D01*
X116918392Y-84522934D01*
X116921246Y-84533584D01*
X116927570Y-84542615D01*
X116942855Y-84564444D01*
X116948761Y-84573715D01*
X116962093Y-84596806D01*
X116967606Y-84606355D01*
X116992448Y-84627200D01*
X116996482Y-84630585D01*
X117004585Y-84638011D01*
X118260095Y-85893521D01*
X118294121Y-85955833D01*
X118297000Y-85982616D01*
X118297000Y-86340083D01*
X118276998Y-86408204D01*
X118260095Y-86429178D01*
X116433961Y-88255313D01*
X114695562Y-89993712D01*
X114633250Y-90027738D01*
X114562435Y-90022673D01*
X114505599Y-89980126D01*
X114480788Y-89913606D01*
X114481545Y-89888171D01*
X114497604Y-89766188D01*
X114498682Y-89758000D01*
X114478044Y-89601238D01*
X114417536Y-89455159D01*
X114321282Y-89329718D01*
X114195841Y-89233464D01*
X114049762Y-89172956D01*
X113896654Y-89152799D01*
X113831727Y-89124077D01*
X113792635Y-89064811D01*
X113787100Y-89027877D01*
X113787100Y-78015548D01*
X113807102Y-77947427D01*
X113810715Y-77942520D01*
X113816394Y-77937755D01*
X113821907Y-77928206D01*
X113835239Y-77905115D01*
X113841145Y-77895844D01*
X113862754Y-77864984D01*
X113865608Y-77854333D01*
X113867088Y-77851160D01*
X113868279Y-77847888D01*
X113873788Y-77838345D01*
X113880334Y-77801224D01*
X113882708Y-77790517D01*
X113892463Y-77754107D01*
X113889179Y-77716569D01*
X113888700Y-77705588D01*
X113888700Y-77640062D01*
X113908702Y-77571941D01*
X113957890Y-77527596D01*
X114123313Y-77444035D01*
X114123316Y-77444033D01*
X114128810Y-77441258D01*
X114291151Y-77314424D01*
X114425764Y-77158472D01*
X114446587Y-77121818D01*
X114524476Y-76984707D01*
X114527523Y-76979344D01*
X114592551Y-76783863D01*
X114618371Y-76579474D01*
X114618783Y-76550000D01*
X114598680Y-76344970D01*
X114539135Y-76147749D01*
X114442418Y-75965849D01*
X114369059Y-75875902D01*
X114316106Y-75810975D01*
X114316103Y-75810972D01*
X114312211Y-75806200D01*
X114294986Y-75791950D01*
X114158225Y-75678811D01*
X114158221Y-75678809D01*
X114153475Y-75674882D01*
X113972255Y-75576897D01*
X113775454Y-75515977D01*
X113769329Y-75515333D01*
X113769328Y-75515333D01*
X113576698Y-75495087D01*
X113576696Y-75495087D01*
X113570569Y-75494443D01*
X113483729Y-75502346D01*
X113371542Y-75512555D01*
X113371539Y-75512556D01*
X113365403Y-75513114D01*
X113167772Y-75571280D01*
X112985202Y-75666726D01*
X112980401Y-75670586D01*
X112980398Y-75670588D01*
X112970171Y-75678811D01*
X112824647Y-75795815D01*
X112692224Y-75953630D01*
X112689256Y-75959028D01*
X112689253Y-75959033D01*
X112601246Y-76119119D01*
X112592976Y-76134162D01*
X112530684Y-76330532D01*
X112529998Y-76336649D01*
X112529997Y-76336653D01*
X112508407Y-76529137D01*
X112507720Y-76535262D01*
X112524959Y-76740553D01*
X112526658Y-76746478D01*
X112563916Y-76876411D01*
X112581744Y-76938586D01*
X112584559Y-76944063D01*
X112584560Y-76944066D01*
X112605447Y-76984707D01*
X112675912Y-77121818D01*
X112803877Y-77283270D01*
X112960764Y-77416791D01*
X113098415Y-77493721D01*
X113119935Y-77505749D01*
X113169640Y-77556443D01*
X113184048Y-77625962D01*
X113172659Y-77668987D01*
X113168370Y-77678185D01*
X113162046Y-77687216D01*
X113159192Y-77697866D01*
X113157715Y-77701034D01*
X113156523Y-77704310D01*
X113151012Y-77713855D01*
X113145850Y-77743130D01*
X113144470Y-77750958D01*
X113142092Y-77761685D01*
X113132336Y-77798093D01*
X113133297Y-77809078D01*
X113133297Y-77809080D01*
X113135620Y-77835628D01*
X113136100Y-77846610D01*
X113136100Y-89306890D01*
X113135620Y-89317872D01*
X113134584Y-89329718D01*
X113132336Y-89355407D01*
X113142091Y-89391810D01*
X113144470Y-89402542D01*
X113144773Y-89404258D01*
X113151012Y-89439645D01*
X113156523Y-89449190D01*
X113157715Y-89452466D01*
X113159192Y-89455634D01*
X113162046Y-89466284D01*
X113168370Y-89475315D01*
X113183655Y-89497144D01*
X113189561Y-89506415D01*
X113201495Y-89527084D01*
X113208406Y-89539055D01*
X113226306Y-89554075D01*
X113237282Y-89563285D01*
X113245385Y-89570711D01*
X113260291Y-89585617D01*
X113294317Y-89647929D01*
X113296118Y-89691157D01*
X113287318Y-89758000D01*
X113307956Y-89914762D01*
X113311116Y-89922391D01*
X113336338Y-89983282D01*
X113343927Y-90053872D01*
X113312148Y-90117359D01*
X113251090Y-90153586D01*
X113219929Y-90157500D01*
X112502310Y-90157500D01*
X112491328Y-90157020D01*
X112464775Y-90154697D01*
X112464770Y-90154697D01*
X112453793Y-90153737D01*
X112417383Y-90163492D01*
X112406676Y-90165866D01*
X112369555Y-90172412D01*
X112360011Y-90177922D01*
X112356735Y-90179114D01*
X112353564Y-90180593D01*
X112342916Y-90183446D01*
X112333887Y-90189768D01*
X112312049Y-90205059D01*
X112302779Y-90210964D01*
X112279692Y-90224293D01*
X112279688Y-90224296D01*
X112270145Y-90229806D01*
X112263060Y-90238250D01*
X112245920Y-90258676D01*
X112238494Y-90266779D01*
X110779684Y-91725590D01*
X110771581Y-91733016D01*
X110742706Y-91757245D01*
X110737193Y-91766794D01*
X110723861Y-91789885D01*
X110717955Y-91799156D01*
X110696346Y-91830016D01*
X110693492Y-91840666D01*
X110692015Y-91843834D01*
X110690823Y-91847110D01*
X110685312Y-91856655D01*
X110681288Y-91879477D01*
X110678770Y-91893758D01*
X110676392Y-91904485D01*
X110666636Y-91940893D01*
X110667597Y-91951878D01*
X110667597Y-91951880D01*
X110669920Y-91978428D01*
X110670400Y-91989410D01*
X110670400Y-93512622D01*
X110660809Y-93560840D01*
X110604116Y-93697709D01*
X110600956Y-93705338D01*
X110580318Y-93862100D01*
X87655200Y-93862100D01*
X87655200Y-92348800D01*
X102238718Y-92348800D01*
X102259356Y-92505562D01*
X102319864Y-92651641D01*
X102416118Y-92777082D01*
X102422664Y-92782105D01*
X102435984Y-92792326D01*
X102541559Y-92873336D01*
X102687638Y-92933844D01*
X102844400Y-92954482D01*
X102852588Y-92953404D01*
X102992974Y-92934922D01*
X103001162Y-92933844D01*
X103147241Y-92873336D01*
X103252816Y-92792326D01*
X103266136Y-92782105D01*
X103272682Y-92777082D01*
X103368936Y-92651641D01*
X103429444Y-92505562D01*
X103450082Y-92348800D01*
X103429444Y-92192038D01*
X103368936Y-92045959D01*
X103272682Y-91920518D01*
X103219196Y-91879477D01*
X103177329Y-91822139D01*
X103169900Y-91779514D01*
X103169900Y-91164216D01*
X103189902Y-91096095D01*
X103206805Y-91075121D01*
X104212422Y-90069504D01*
X104274734Y-90035478D01*
X104301517Y-90032599D01*
X106085013Y-90032599D01*
X106153134Y-90052601D01*
X106184976Y-90081895D01*
X106226017Y-90135381D01*
X106351458Y-90231635D01*
X106497537Y-90292143D01*
X106654299Y-90312781D01*
X106662487Y-90311703D01*
X106690068Y-90308072D01*
X106811061Y-90292143D01*
X106957140Y-90231635D01*
X107082581Y-90135381D01*
X107178835Y-90009940D01*
X107239343Y-89863861D01*
X107259981Y-89707099D01*
X107241631Y-89567715D01*
X107240421Y-89558525D01*
X107239343Y-89550337D01*
X107178835Y-89404258D01*
X107082581Y-89278817D01*
X106957140Y-89182563D01*
X106811061Y-89122055D01*
X106654299Y-89101417D01*
X106497537Y-89122055D01*
X106351458Y-89182563D01*
X106226017Y-89278817D01*
X106186960Y-89329718D01*
X106184976Y-89332303D01*
X106127638Y-89374170D01*
X106085013Y-89381599D01*
X104134211Y-89381599D01*
X104123229Y-89381119D01*
X104096681Y-89378796D01*
X104096679Y-89378796D01*
X104085694Y-89377835D01*
X104049286Y-89387591D01*
X104038559Y-89389969D01*
X104035200Y-89390561D01*
X104001456Y-89396511D01*
X103991911Y-89402022D01*
X103988635Y-89403214D01*
X103985467Y-89404691D01*
X103974817Y-89407545D01*
X103965786Y-89413869D01*
X103943957Y-89429154D01*
X103934686Y-89435060D01*
X103911595Y-89448392D01*
X103902046Y-89453905D01*
X103891659Y-89466284D01*
X103877816Y-89482781D01*
X103870390Y-89490884D01*
X102628185Y-90733089D01*
X102620081Y-90740516D01*
X102591206Y-90764745D01*
X102585693Y-90774294D01*
X102572361Y-90797385D01*
X102566455Y-90806656D01*
X102544846Y-90837516D01*
X102541992Y-90848166D01*
X102540515Y-90851334D01*
X102539323Y-90854610D01*
X102533812Y-90864155D01*
X102527862Y-90897899D01*
X102527270Y-90901258D01*
X102524892Y-90911985D01*
X102515136Y-90948393D01*
X102516097Y-90959378D01*
X102516097Y-90959380D01*
X102518420Y-90985928D01*
X102518900Y-90996910D01*
X102518900Y-91779514D01*
X102498898Y-91847635D01*
X102469604Y-91879477D01*
X102416118Y-91920518D01*
X102319864Y-92045959D01*
X102259356Y-92192038D01*
X102238718Y-92348800D01*
X87655200Y-92348800D01*
X87655200Y-88945200D01*
X95837918Y-88945200D01*
X95858556Y-89101962D01*
X95919064Y-89248041D01*
X96015318Y-89373482D01*
X96140759Y-89469736D01*
X96286838Y-89530244D01*
X96295026Y-89531322D01*
X96365219Y-89540563D01*
X96443600Y-89550882D01*
X96451788Y-89549804D01*
X96479612Y-89546141D01*
X96521981Y-89540563D01*
X96592174Y-89531322D01*
X96600362Y-89530244D01*
X96746441Y-89469736D01*
X96871882Y-89373482D01*
X96968136Y-89248041D01*
X97028644Y-89101962D01*
X97049282Y-88945200D01*
X97040482Y-88878357D01*
X97051421Y-88808210D01*
X97076309Y-88772817D01*
X97389153Y-88459973D01*
X97397257Y-88452546D01*
X97417687Y-88435403D01*
X97426132Y-88428317D01*
X97432375Y-88417504D01*
X97444977Y-88395677D01*
X97450883Y-88386406D01*
X97466168Y-88364577D01*
X97472492Y-88355546D01*
X97475346Y-88344896D01*
X97476823Y-88341728D01*
X97478015Y-88338452D01*
X97483526Y-88328907D01*
X97490068Y-88291804D01*
X97492447Y-88281072D01*
X97502202Y-88244669D01*
X97498917Y-88207119D01*
X97498438Y-88196138D01*
X97498438Y-85357272D01*
X97518440Y-85289151D01*
X97547734Y-85257309D01*
X97594674Y-85221291D01*
X97601220Y-85216268D01*
X97606733Y-85209084D01*
X97685710Y-85106158D01*
X97697474Y-85090827D01*
X97757982Y-84944748D01*
X97778620Y-84787986D01*
X97757982Y-84631224D01*
X97697474Y-84485145D01*
X97613079Y-84375159D01*
X97606243Y-84366250D01*
X97601220Y-84359704D01*
X97475779Y-84263450D01*
X97329700Y-84202942D01*
X97172938Y-84182304D01*
X97016176Y-84202942D01*
X96870097Y-84263450D01*
X96744656Y-84359704D01*
X96739633Y-84366250D01*
X96732797Y-84375159D01*
X96648402Y-84485145D01*
X96587894Y-84631224D01*
X96567256Y-84787986D01*
X96587894Y-84944748D01*
X96648402Y-85090827D01*
X96660166Y-85106158D01*
X96739144Y-85209084D01*
X96744656Y-85216268D01*
X96751202Y-85221291D01*
X96798142Y-85257309D01*
X96840009Y-85314647D01*
X96847438Y-85357272D01*
X96847438Y-88028846D01*
X96827436Y-88096967D01*
X96810533Y-88117941D01*
X96615983Y-88312491D01*
X96553671Y-88346517D01*
X96510443Y-88348318D01*
X96443600Y-88339518D01*
X96390437Y-88346517D01*
X96321855Y-88355546D01*
X96286838Y-88360156D01*
X96140759Y-88420664D01*
X96015318Y-88516918D01*
X95919064Y-88642359D01*
X95858556Y-88788438D01*
X95837918Y-88945200D01*
X87655200Y-88945200D01*
X87655200Y-83154000D01*
X101883118Y-83154000D01*
X101903756Y-83310762D01*
X101964264Y-83456841D01*
X102060518Y-83582282D01*
X102185959Y-83678536D01*
X102288719Y-83721100D01*
X102343999Y-83765648D01*
X102366500Y-83837509D01*
X102366500Y-85581914D01*
X102346498Y-85650035D01*
X102317204Y-85681877D01*
X102263718Y-85722918D01*
X102167464Y-85848359D01*
X102106956Y-85994438D01*
X102086318Y-86151200D01*
X102106956Y-86307962D01*
X102167464Y-86454041D01*
X102263718Y-86579482D01*
X102270264Y-86584505D01*
X102287348Y-86597614D01*
X102389159Y-86675736D01*
X102535238Y-86736244D01*
X102543426Y-86737322D01*
X102613619Y-86746563D01*
X102692000Y-86756882D01*
X102700188Y-86755804D01*
X102840574Y-86737322D01*
X102848762Y-86736244D01*
X102994841Y-86675736D01*
X103096652Y-86597614D01*
X103113736Y-86584505D01*
X103120282Y-86579482D01*
X103216536Y-86454041D01*
X103277044Y-86307962D01*
X103297682Y-86151200D01*
X103277044Y-85994438D01*
X103216536Y-85848359D01*
X103120282Y-85722918D01*
X103066796Y-85681877D01*
X103024929Y-85624539D01*
X103017500Y-85581914D01*
X103017500Y-84678000D01*
X107521918Y-84678000D01*
X107542556Y-84834762D01*
X107603064Y-84980841D01*
X107699318Y-85106282D01*
X107824759Y-85202536D01*
X107898021Y-85232882D01*
X107956993Y-85257309D01*
X107970838Y-85263044D01*
X108127600Y-85283682D01*
X108135788Y-85282604D01*
X108276174Y-85264122D01*
X108284362Y-85263044D01*
X108298208Y-85257309D01*
X108357179Y-85232882D01*
X108430441Y-85202536D01*
X108555882Y-85106282D01*
X108596923Y-85052796D01*
X108654261Y-85010929D01*
X108696886Y-85003500D01*
X111458094Y-85003500D01*
X111526215Y-85023502D01*
X111548415Y-85043926D01*
X111549250Y-85043091D01*
X111555095Y-85048936D01*
X111560118Y-85055482D01*
X111685559Y-85151736D01*
X111831638Y-85212244D01*
X111988400Y-85232882D01*
X111996588Y-85231804D01*
X112136974Y-85213322D01*
X112145162Y-85212244D01*
X112291241Y-85151736D01*
X112416682Y-85055482D01*
X112512936Y-84930041D01*
X112573444Y-84783962D01*
X112594082Y-84627200D01*
X112578250Y-84506945D01*
X112574522Y-84478626D01*
X112573444Y-84470438D01*
X112512936Y-84324359D01*
X112422795Y-84206884D01*
X112421705Y-84205464D01*
X112416682Y-84198918D01*
X112291241Y-84102664D01*
X112145162Y-84042156D01*
X111988400Y-84021518D01*
X111831638Y-84042156D01*
X111685559Y-84102664D01*
X111560118Y-84198918D01*
X111555095Y-84205464D01*
X111480097Y-84303204D01*
X111422759Y-84345071D01*
X111380134Y-84352500D01*
X108696886Y-84352500D01*
X108628765Y-84332498D01*
X108596923Y-84303204D01*
X108560905Y-84256264D01*
X108555882Y-84249718D01*
X108430441Y-84153464D01*
X108284362Y-84092956D01*
X108127600Y-84072318D01*
X107970838Y-84092956D01*
X107824759Y-84153464D01*
X107699318Y-84249718D01*
X107603064Y-84375159D01*
X107542556Y-84521238D01*
X107521918Y-84678000D01*
X103017500Y-84678000D01*
X103017500Y-83471851D01*
X103027091Y-83423633D01*
X103070684Y-83318391D01*
X103073844Y-83310762D01*
X103094482Y-83154000D01*
X103073844Y-82997238D01*
X103013336Y-82851159D01*
X102917082Y-82725718D01*
X102791641Y-82629464D01*
X102645562Y-82568956D01*
X102488800Y-82548318D01*
X102332038Y-82568956D01*
X102185959Y-82629464D01*
X102060518Y-82725718D01*
X101964264Y-82851159D01*
X101903756Y-82997238D01*
X101883118Y-83154000D01*
X87655200Y-83154000D01*
X87655200Y-80106000D01*
X102252018Y-80106000D01*
X102272656Y-80262762D01*
X102333164Y-80408841D01*
X102429418Y-80534282D01*
X102554859Y-80630536D01*
X102700938Y-80691044D01*
X102857700Y-80711682D01*
X102865888Y-80710604D01*
X103006274Y-80692122D01*
X103014462Y-80691044D01*
X103160541Y-80630536D01*
X103285982Y-80534282D01*
X103327023Y-80480796D01*
X103384361Y-80438929D01*
X103426986Y-80431500D01*
X111308290Y-80431500D01*
X111319272Y-80431980D01*
X111345820Y-80434303D01*
X111345822Y-80434303D01*
X111356807Y-80435264D01*
X111393215Y-80425508D01*
X111403942Y-80423130D01*
X111407301Y-80422538D01*
X111441045Y-80416588D01*
X111450590Y-80411077D01*
X111453866Y-80409885D01*
X111457033Y-80408408D01*
X111467684Y-80405554D01*
X111470015Y-80403922D01*
X111534695Y-80393966D01*
X111632800Y-80406882D01*
X111640988Y-80405804D01*
X111649420Y-80404694D01*
X111789562Y-80386244D01*
X111935641Y-80325736D01*
X112061082Y-80229482D01*
X112157336Y-80104041D01*
X112217844Y-79957962D01*
X112238482Y-79801200D01*
X112217844Y-79644438D01*
X112157336Y-79498359D01*
X112061082Y-79372918D01*
X111935641Y-79276664D01*
X111789562Y-79216156D01*
X111632800Y-79195518D01*
X111476038Y-79216156D01*
X111329959Y-79276664D01*
X111204518Y-79372918D01*
X111108264Y-79498359D01*
X111047756Y-79644438D01*
X111046678Y-79652626D01*
X111044266Y-79670947D01*
X111015543Y-79735874D01*
X110956278Y-79774965D01*
X110919344Y-79780500D01*
X103426986Y-79780500D01*
X103358865Y-79760498D01*
X103327023Y-79731204D01*
X103291005Y-79684264D01*
X103285982Y-79677718D01*
X103160541Y-79581464D01*
X103014462Y-79520956D01*
X102857700Y-79500318D01*
X102700938Y-79520956D01*
X102554859Y-79581464D01*
X102429418Y-79677718D01*
X102333164Y-79803159D01*
X102272656Y-79949238D01*
X102252018Y-80106000D01*
X87655200Y-80106000D01*
X87655200Y-72283000D01*
X87675202Y-72214879D01*
X87728858Y-72168386D01*
X87781200Y-72157000D01*
X127288200Y-72157000D01*
X127356321Y-72177002D01*
G37*
%TD.AperFunction*%
%TD*%
%TA.AperFunction,Conductor*%
%TO.N,GND1*%
G36*
X83787321Y-72177002D02*
G01*
X83833814Y-72230658D01*
X83845200Y-72283000D01*
X83845200Y-97020749D01*
X83825198Y-97088870D01*
X83771542Y-97135363D01*
X83719266Y-97146749D01*
X81087860Y-97148102D01*
X75665618Y-97150891D01*
X75597487Y-97130924D01*
X75550966Y-97077292D01*
X75540826Y-97007023D01*
X75570328Y-96942379D01*
X75571090Y-96941500D01*
X75577843Y-96941500D01*
X75577843Y-93750500D01*
X66712557Y-93750500D01*
X66712557Y-96941500D01*
X66717876Y-96941500D01*
X66718885Y-96944938D01*
X66750442Y-96994040D01*
X66750442Y-97065036D01*
X66712059Y-97124763D01*
X66647479Y-97154256D01*
X66629611Y-97155539D01*
X65862265Y-97155934D01*
X65794134Y-97135967D01*
X65747613Y-97082335D01*
X65736200Y-97029934D01*
X65736200Y-90345607D01*
X70765136Y-90345607D01*
X70767990Y-90356256D01*
X70774891Y-90382010D01*
X70777270Y-90392742D01*
X70783812Y-90429845D01*
X70789323Y-90439390D01*
X70790515Y-90442666D01*
X70791992Y-90445834D01*
X70794846Y-90456484D01*
X70801170Y-90465515D01*
X70816455Y-90487344D01*
X70822361Y-90496615D01*
X70829669Y-90509272D01*
X70841206Y-90529255D01*
X70870082Y-90553485D01*
X70878185Y-90560911D01*
X71020491Y-90703217D01*
X71054517Y-90765529D01*
X71056318Y-90808757D01*
X71047518Y-90875600D01*
X71068156Y-91032362D01*
X71128664Y-91178441D01*
X71224918Y-91303882D01*
X71350359Y-91400136D01*
X71496438Y-91460644D01*
X71653200Y-91481282D01*
X71661388Y-91480204D01*
X71801774Y-91461722D01*
X71809962Y-91460644D01*
X71956041Y-91400136D01*
X72081482Y-91303882D01*
X72177736Y-91178441D01*
X72238244Y-91032362D01*
X72258882Y-90875600D01*
X72238244Y-90718838D01*
X72177736Y-90572759D01*
X72081482Y-90447318D01*
X71956041Y-90351064D01*
X71809962Y-90290556D01*
X71653200Y-90269918D01*
X71586357Y-90278718D01*
X71516210Y-90267779D01*
X71480817Y-90242891D01*
X71456805Y-90218879D01*
X71422779Y-90156567D01*
X71419900Y-90129784D01*
X71419900Y-89057105D01*
X71754231Y-89057105D01*
X71756005Y-89064492D01*
X71756005Y-89064496D01*
X71773104Y-89135716D01*
X71793812Y-89221968D01*
X71797293Y-89228712D01*
X71797294Y-89228715D01*
X71831557Y-89295098D01*
X71871575Y-89372631D01*
X71876567Y-89378353D01*
X71876568Y-89378355D01*
X71898686Y-89403709D01*
X71983031Y-89500396D01*
X71989245Y-89504763D01*
X72115530Y-89593518D01*
X72115532Y-89593519D01*
X72121747Y-89597887D01*
X72279713Y-89659476D01*
X72287246Y-89660468D01*
X72287247Y-89660468D01*
X72404939Y-89675962D01*
X72409026Y-89676500D01*
X73597716Y-89676500D01*
X73723520Y-89661276D01*
X73882123Y-89601345D01*
X74021851Y-89505312D01*
X74036559Y-89488804D01*
X74129588Y-89384392D01*
X74129590Y-89384388D01*
X74134640Y-89378721D01*
X74141438Y-89365883D01*
X74184731Y-89284116D01*
X74213976Y-89228881D01*
X74255281Y-89064441D01*
X74255349Y-89051576D01*
X74256129Y-88902495D01*
X74256169Y-88894895D01*
X74253602Y-88884200D01*
X74218361Y-88737417D01*
X74216588Y-88730032D01*
X74138825Y-88579369D01*
X74133513Y-88573279D01*
X74032363Y-88457329D01*
X74027369Y-88451604D01*
X73968849Y-88410475D01*
X73894870Y-88358482D01*
X73894868Y-88358481D01*
X73888653Y-88354113D01*
X73730687Y-88292524D01*
X73723154Y-88291532D01*
X73723153Y-88291532D01*
X73605461Y-88276038D01*
X73605460Y-88276038D01*
X73601374Y-88275500D01*
X72840682Y-88275500D01*
X72772561Y-88255498D01*
X72726068Y-88201842D01*
X72715964Y-88131568D01*
X72745458Y-88066988D01*
X72766277Y-88049798D01*
X72765433Y-88048698D01*
X72879101Y-87961477D01*
X72885651Y-87956451D01*
X72977898Y-87836233D01*
X73035887Y-87696236D01*
X73055666Y-87546000D01*
X73035887Y-87395764D01*
X72977898Y-87255767D01*
X72885651Y-87135549D01*
X72765433Y-87043302D01*
X72625436Y-86985313D01*
X72512920Y-86970500D01*
X72437480Y-86970500D01*
X72324964Y-86985313D01*
X72184967Y-87043302D01*
X72064749Y-87135549D01*
X71972502Y-87255767D01*
X71914513Y-87395764D01*
X71894734Y-87546000D01*
X71914513Y-87696236D01*
X71972502Y-87836233D01*
X72064749Y-87956451D01*
X72184967Y-88048698D01*
X72245128Y-88073617D01*
X72300407Y-88118166D01*
X72322828Y-88185529D01*
X72305269Y-88254321D01*
X72253307Y-88302699D01*
X72241445Y-88307892D01*
X72128277Y-88350655D01*
X71988549Y-88446688D01*
X71983497Y-88452358D01*
X71983496Y-88452359D01*
X71880812Y-88567608D01*
X71880810Y-88567612D01*
X71875760Y-88573279D01*
X71872208Y-88579988D01*
X71872207Y-88579989D01*
X71839946Y-88640920D01*
X71796424Y-88723119D01*
X71755119Y-88887559D01*
X71755079Y-88895157D01*
X71755079Y-88895159D01*
X71754675Y-88972332D01*
X71754231Y-89057105D01*
X71419900Y-89057105D01*
X71419900Y-84763416D01*
X71439902Y-84695295D01*
X71456805Y-84674321D01*
X72090417Y-84040709D01*
X72152729Y-84006683D01*
X72195957Y-84004882D01*
X72262800Y-84013682D01*
X72270988Y-84012604D01*
X72411374Y-83994122D01*
X72419562Y-83993044D01*
X72565641Y-83932536D01*
X72691082Y-83836282D01*
X72787336Y-83710841D01*
X72847844Y-83564762D01*
X72868482Y-83408000D01*
X72847844Y-83251238D01*
X72787336Y-83105159D01*
X72691082Y-82979718D01*
X72565641Y-82883464D01*
X72419562Y-82822956D01*
X72262800Y-82802318D01*
X72106038Y-82822956D01*
X71959959Y-82883464D01*
X71834518Y-82979718D01*
X71738264Y-83105159D01*
X71677756Y-83251238D01*
X71657118Y-83408000D01*
X71658196Y-83416188D01*
X71665918Y-83474842D01*
X71654979Y-83544990D01*
X71630091Y-83580383D01*
X70878185Y-84332289D01*
X70870081Y-84339716D01*
X70841206Y-84363945D01*
X70835693Y-84373494D01*
X70822361Y-84396585D01*
X70816455Y-84405856D01*
X70794846Y-84436716D01*
X70791992Y-84447366D01*
X70790515Y-84450534D01*
X70789323Y-84453810D01*
X70783812Y-84463355D01*
X70777862Y-84497099D01*
X70777270Y-84500458D01*
X70774892Y-84511185D01*
X70765136Y-84547593D01*
X70766097Y-84558578D01*
X70766097Y-84558580D01*
X70768420Y-84585128D01*
X70768900Y-84596110D01*
X70768900Y-90297090D01*
X70768420Y-90308072D01*
X70765136Y-90345607D01*
X65736200Y-90345607D01*
X65736200Y-89057105D01*
X67824231Y-89057105D01*
X67826005Y-89064492D01*
X67826005Y-89064496D01*
X67843104Y-89135716D01*
X67863812Y-89221968D01*
X67867293Y-89228712D01*
X67867294Y-89228715D01*
X67901557Y-89295098D01*
X67941575Y-89372631D01*
X67946567Y-89378353D01*
X67946568Y-89378355D01*
X67968686Y-89403709D01*
X68053031Y-89500396D01*
X68059245Y-89504763D01*
X68185530Y-89593518D01*
X68185532Y-89593519D01*
X68191747Y-89597887D01*
X68349713Y-89659476D01*
X68357246Y-89660468D01*
X68357247Y-89660468D01*
X68474939Y-89675962D01*
X68479026Y-89676500D01*
X69167716Y-89676500D01*
X69293520Y-89661276D01*
X69452123Y-89601345D01*
X69591851Y-89505312D01*
X69606559Y-89488804D01*
X69699588Y-89384392D01*
X69699590Y-89384388D01*
X69704640Y-89378721D01*
X69711438Y-89365883D01*
X69754731Y-89284116D01*
X69783976Y-89228881D01*
X69825281Y-89064441D01*
X69825349Y-89051576D01*
X69826129Y-88902495D01*
X69826169Y-88894895D01*
X69823602Y-88884200D01*
X69788361Y-88737417D01*
X69786588Y-88730032D01*
X69708825Y-88579369D01*
X69703513Y-88573279D01*
X69602363Y-88457329D01*
X69597369Y-88451604D01*
X69538849Y-88410475D01*
X69464870Y-88358482D01*
X69464868Y-88358481D01*
X69458653Y-88354113D01*
X69300687Y-88292524D01*
X69293154Y-88291532D01*
X69293153Y-88291532D01*
X69175461Y-88276038D01*
X69175460Y-88276038D01*
X69171374Y-88275500D01*
X68482684Y-88275500D01*
X68356880Y-88290724D01*
X68198277Y-88350655D01*
X68058549Y-88446688D01*
X68053497Y-88452358D01*
X68053496Y-88452359D01*
X67950812Y-88567608D01*
X67950810Y-88567612D01*
X67945760Y-88573279D01*
X67942208Y-88579988D01*
X67942207Y-88579989D01*
X67909946Y-88640920D01*
X67866424Y-88723119D01*
X67825119Y-88887559D01*
X67825079Y-88895157D01*
X67825079Y-88895159D01*
X67824675Y-88972332D01*
X67824231Y-89057105D01*
X65736200Y-89057105D01*
X65736200Y-80417105D01*
X67824231Y-80417105D01*
X67826005Y-80424492D01*
X67826005Y-80424496D01*
X67860420Y-80567838D01*
X67863812Y-80581968D01*
X67867293Y-80588712D01*
X67867294Y-80588715D01*
X67892272Y-80637109D01*
X67941575Y-80732631D01*
X67946567Y-80738353D01*
X67946568Y-80738355D01*
X67951837Y-80744395D01*
X68053031Y-80860396D01*
X68059245Y-80864763D01*
X68185530Y-80953518D01*
X68185532Y-80953519D01*
X68191747Y-80957887D01*
X68349713Y-81019476D01*
X68357246Y-81020468D01*
X68357247Y-81020468D01*
X68464882Y-81034638D01*
X68479026Y-81036500D01*
X69167716Y-81036500D01*
X69293520Y-81021276D01*
X69452123Y-80961345D01*
X69591851Y-80865312D01*
X69646860Y-80803572D01*
X69699588Y-80744392D01*
X69699590Y-80744388D01*
X69704640Y-80738721D01*
X69711438Y-80725883D01*
X69758441Y-80637109D01*
X69783976Y-80588881D01*
X69825281Y-80424441D01*
X69825319Y-80417105D01*
X71754231Y-80417105D01*
X71756005Y-80424492D01*
X71756005Y-80424496D01*
X71790420Y-80567838D01*
X71793812Y-80581968D01*
X71797293Y-80588712D01*
X71797294Y-80588715D01*
X71822272Y-80637109D01*
X71871575Y-80732631D01*
X71876567Y-80738353D01*
X71876568Y-80738355D01*
X71881837Y-80744395D01*
X71983031Y-80860396D01*
X71989245Y-80864763D01*
X72115530Y-80953518D01*
X72115532Y-80953519D01*
X72121747Y-80957887D01*
X72128823Y-80960646D01*
X72128827Y-80960648D01*
X72242112Y-81004816D01*
X72298314Y-81048197D01*
X72322140Y-81115076D01*
X72306026Y-81184220D01*
X72255089Y-81233676D01*
X72244567Y-81238615D01*
X72184967Y-81263302D01*
X72064749Y-81355549D01*
X71972502Y-81475767D01*
X71914513Y-81615764D01*
X71894734Y-81766000D01*
X71914513Y-81916236D01*
X71972502Y-82056233D01*
X72064749Y-82176451D01*
X72184967Y-82268698D01*
X72324964Y-82326687D01*
X72437480Y-82341500D01*
X72512920Y-82341500D01*
X72625436Y-82326687D01*
X72765433Y-82268698D01*
X72885651Y-82176451D01*
X72977898Y-82056233D01*
X73035887Y-81916236D01*
X73055666Y-81766000D01*
X73035887Y-81615764D01*
X72977898Y-81475767D01*
X72885651Y-81355549D01*
X72765433Y-81263302D01*
X72767359Y-81260792D01*
X72728690Y-81220239D01*
X72715252Y-81150526D01*
X72741638Y-81084614D01*
X72799469Y-81043431D01*
X72840682Y-81036500D01*
X73597716Y-81036500D01*
X73723520Y-81021276D01*
X73882123Y-80961345D01*
X74021851Y-80865312D01*
X74134640Y-80738721D01*
X74138194Y-80732009D01*
X74138437Y-80731659D01*
X74193741Y-80687139D01*
X74264335Y-80679585D01*
X74327805Y-80711397D01*
X74364002Y-80772473D01*
X74367900Y-80803572D01*
X74367900Y-85290490D01*
X74367420Y-85301472D01*
X74364136Y-85339007D01*
X74366990Y-85349656D01*
X74373891Y-85375410D01*
X74376270Y-85386142D01*
X74382812Y-85423245D01*
X74388323Y-85432790D01*
X74389515Y-85436066D01*
X74390992Y-85439234D01*
X74393846Y-85449884D01*
X74415455Y-85480744D01*
X74421361Y-85490015D01*
X74423280Y-85493338D01*
X74440206Y-85522655D01*
X74448651Y-85529741D01*
X74469082Y-85546885D01*
X74477185Y-85554311D01*
X77634691Y-88711818D01*
X77668717Y-88774130D01*
X77670518Y-88817358D01*
X77661718Y-88884200D01*
X77682356Y-89040962D01*
X77742864Y-89187041D01*
X77839118Y-89312482D01*
X77964559Y-89408736D01*
X78110638Y-89469244D01*
X78267400Y-89489882D01*
X78275588Y-89488804D01*
X78415974Y-89470322D01*
X78424162Y-89469244D01*
X78570241Y-89408736D01*
X78695682Y-89312482D01*
X78791936Y-89187041D01*
X78825150Y-89106856D01*
X78869697Y-89051576D01*
X78937060Y-89029155D01*
X79005852Y-89046713D01*
X79030653Y-89065979D01*
X79186191Y-89221518D01*
X79337996Y-89373323D01*
X79372021Y-89435635D01*
X79374900Y-89462418D01*
X79374900Y-90330984D01*
X79354898Y-90399105D01*
X79337995Y-90420079D01*
X77028883Y-92729191D01*
X76966571Y-92763217D01*
X76923343Y-92765018D01*
X76856500Y-92756218D01*
X76699738Y-92776856D01*
X76553659Y-92837364D01*
X76428218Y-92933618D01*
X76331964Y-93059059D01*
X76271456Y-93205138D01*
X76250818Y-93361900D01*
X76271456Y-93518662D01*
X76331964Y-93664741D01*
X76428218Y-93790182D01*
X76553659Y-93886436D01*
X76699738Y-93946944D01*
X76856500Y-93967582D01*
X76864688Y-93966504D01*
X77005074Y-93948022D01*
X77013262Y-93946944D01*
X77159341Y-93886436D01*
X77284782Y-93790182D01*
X77381036Y-93664741D01*
X77441544Y-93518662D01*
X77462182Y-93361900D01*
X77453382Y-93295057D01*
X77464321Y-93224910D01*
X77489209Y-93189517D01*
X79916615Y-90762111D01*
X79924719Y-90754684D01*
X79945149Y-90737541D01*
X79953594Y-90730455D01*
X79960301Y-90718838D01*
X79972439Y-90697815D01*
X79978345Y-90688544D01*
X79993630Y-90666715D01*
X79999954Y-90657684D01*
X80002808Y-90647034D01*
X80004285Y-90643866D01*
X80005477Y-90640590D01*
X80010988Y-90631045D01*
X80017530Y-90593942D01*
X80019909Y-90583210D01*
X80020665Y-90580389D01*
X80029664Y-90546807D01*
X80028129Y-90529255D01*
X80026380Y-90509272D01*
X80025900Y-90498290D01*
X80025900Y-89295098D01*
X80026380Y-89284116D01*
X80028702Y-89257580D01*
X80028702Y-89257578D01*
X80029663Y-89246593D01*
X80026715Y-89235589D01*
X80019912Y-89210204D01*
X80017532Y-89199469D01*
X80012902Y-89173212D01*
X80010988Y-89162355D01*
X80005476Y-89152807D01*
X80004283Y-89149530D01*
X80002806Y-89146362D01*
X79999953Y-89135716D01*
X79978342Y-89104852D01*
X79972438Y-89095584D01*
X79953594Y-89062945D01*
X79924731Y-89038726D01*
X79916627Y-89031300D01*
X76707809Y-85822483D01*
X76673783Y-85760171D01*
X76671982Y-85716942D01*
X76679704Y-85658288D01*
X76680782Y-85650100D01*
X76664004Y-85522655D01*
X76661222Y-85501526D01*
X76660144Y-85493338D01*
X76656796Y-85485254D01*
X76649781Y-85468320D01*
X76599636Y-85347259D01*
X76503382Y-85221818D01*
X76490951Y-85212279D01*
X76442855Y-85175374D01*
X76377941Y-85125564D01*
X76231862Y-85065056D01*
X76075100Y-85044418D01*
X75918338Y-85065056D01*
X75772259Y-85125564D01*
X75707345Y-85175374D01*
X75659250Y-85212279D01*
X75646818Y-85221818D01*
X75550564Y-85347259D01*
X75547404Y-85354888D01*
X75547401Y-85354893D01*
X75517349Y-85427444D01*
X75472801Y-85482725D01*
X75405437Y-85505145D01*
X75336646Y-85487586D01*
X75311846Y-85468320D01*
X75055805Y-85212279D01*
X75021779Y-85149967D01*
X75018900Y-85123184D01*
X75018900Y-82194759D01*
X75038902Y-82126638D01*
X75092558Y-82080145D01*
X75162832Y-82070041D01*
X75221604Y-82094796D01*
X75299459Y-82154536D01*
X75445538Y-82215044D01*
X75602300Y-82235682D01*
X75610488Y-82234604D01*
X75750874Y-82216122D01*
X75759062Y-82215044D01*
X75905141Y-82154536D01*
X76030582Y-82058282D01*
X76126836Y-81932841D01*
X76187344Y-81786762D01*
X76207982Y-81630000D01*
X76187344Y-81473238D01*
X76184184Y-81465610D01*
X76184183Y-81465605D01*
X76177223Y-81448802D01*
X76169634Y-81378212D01*
X76204537Y-81311490D01*
X76878918Y-80637109D01*
X76941230Y-80603083D01*
X76984458Y-80601282D01*
X77051300Y-80610082D01*
X77059488Y-80609004D01*
X77199874Y-80590522D01*
X77208062Y-80589444D01*
X77354141Y-80528936D01*
X77479582Y-80432682D01*
X77575836Y-80307241D01*
X77636344Y-80161162D01*
X77656982Y-80004400D01*
X77636344Y-79847638D01*
X77575836Y-79701559D01*
X77479582Y-79576118D01*
X77354141Y-79479864D01*
X77208062Y-79419356D01*
X77051300Y-79398718D01*
X76894538Y-79419356D01*
X76748459Y-79479864D01*
X76623018Y-79576118D01*
X76526764Y-79701559D01*
X76466256Y-79847638D01*
X76445618Y-80004400D01*
X76454418Y-80071241D01*
X76443479Y-80141388D01*
X76418592Y-80176781D01*
X75596563Y-80998811D01*
X75534250Y-81032836D01*
X75523917Y-81034637D01*
X75465481Y-81042330D01*
X75457122Y-81043431D01*
X75445538Y-81044956D01*
X75437909Y-81048116D01*
X75427247Y-81052532D01*
X75299459Y-81105464D01*
X75240733Y-81150526D01*
X75221604Y-81165204D01*
X75155383Y-81190804D01*
X75085835Y-81176539D01*
X75035039Y-81126938D01*
X75018900Y-81065241D01*
X75018900Y-77710016D01*
X75038902Y-77641895D01*
X75055805Y-77620921D01*
X77559022Y-75117705D01*
X77567126Y-75110278D01*
X77587549Y-75093141D01*
X77595994Y-75086055D01*
X77614839Y-75053415D01*
X77620743Y-75044147D01*
X77636031Y-75022313D01*
X77642353Y-75013284D01*
X77645206Y-75002638D01*
X77646683Y-74999470D01*
X77647876Y-74996193D01*
X77653388Y-74986645D01*
X77659932Y-74949531D01*
X77662312Y-74938796D01*
X77669210Y-74913054D01*
X77672063Y-74902407D01*
X77668779Y-74864869D01*
X77668300Y-74853888D01*
X77668300Y-74223686D01*
X77688302Y-74155565D01*
X77717596Y-74123723D01*
X77764536Y-74087705D01*
X77771082Y-74082682D01*
X77867336Y-73957241D01*
X77927844Y-73811162D01*
X77948482Y-73654400D01*
X77927844Y-73497638D01*
X77867336Y-73351559D01*
X77771082Y-73226118D01*
X77645641Y-73129864D01*
X77499562Y-73069356D01*
X77342800Y-73048718D01*
X77186038Y-73069356D01*
X77039959Y-73129864D01*
X76914518Y-73226118D01*
X76818264Y-73351559D01*
X76757756Y-73497638D01*
X76737118Y-73654400D01*
X76757756Y-73811162D01*
X76818264Y-73957241D01*
X76914518Y-74082682D01*
X76921064Y-74087705D01*
X76968004Y-74123723D01*
X77009871Y-74181061D01*
X77017300Y-74223686D01*
X77017300Y-74686583D01*
X76997298Y-74754704D01*
X76980395Y-74775678D01*
X74477184Y-77278890D01*
X74469081Y-77286316D01*
X74440206Y-77310545D01*
X74434693Y-77320094D01*
X74421361Y-77343185D01*
X74415455Y-77352456D01*
X74393846Y-77383316D01*
X74390992Y-77393966D01*
X74389515Y-77397134D01*
X74388323Y-77400410D01*
X74382812Y-77409955D01*
X74376862Y-77443699D01*
X74376270Y-77447058D01*
X74373892Y-77457785D01*
X74364136Y-77494193D01*
X74365097Y-77505178D01*
X74365097Y-77505180D01*
X74367420Y-77531728D01*
X74367900Y-77542710D01*
X74367900Y-79868497D01*
X74347898Y-79936618D01*
X74294242Y-79983111D01*
X74223968Y-79993215D01*
X74159388Y-79963721D01*
X74140337Y-79942299D01*
X74138825Y-79939369D01*
X74027369Y-79811604D01*
X73968849Y-79770475D01*
X73894870Y-79718482D01*
X73894868Y-79718481D01*
X73888653Y-79714113D01*
X73730687Y-79652524D01*
X73723154Y-79651532D01*
X73723153Y-79651532D01*
X73605461Y-79636038D01*
X73605460Y-79636038D01*
X73601374Y-79635500D01*
X72412684Y-79635500D01*
X72286880Y-79650724D01*
X72128277Y-79710655D01*
X71988549Y-79806688D01*
X71983497Y-79812358D01*
X71983496Y-79812359D01*
X71880812Y-79927608D01*
X71880810Y-79927612D01*
X71875760Y-79933279D01*
X71872208Y-79939988D01*
X71872207Y-79939989D01*
X71859642Y-79963721D01*
X71796424Y-80083119D01*
X71755119Y-80247559D01*
X71754231Y-80417105D01*
X69825319Y-80417105D01*
X69826169Y-80254895D01*
X69801700Y-80152974D01*
X69788361Y-80097417D01*
X69786588Y-80090032D01*
X69776889Y-80071239D01*
X69712308Y-79946117D01*
X69712308Y-79946116D01*
X69708825Y-79939369D01*
X69703513Y-79933279D01*
X69602363Y-79817329D01*
X69597369Y-79811604D01*
X69538849Y-79770475D01*
X69464870Y-79718482D01*
X69464868Y-79718481D01*
X69458653Y-79714113D01*
X69300687Y-79652524D01*
X69293154Y-79651532D01*
X69293153Y-79651532D01*
X69175461Y-79636038D01*
X69175460Y-79636038D01*
X69171374Y-79635500D01*
X68482684Y-79635500D01*
X68356880Y-79650724D01*
X68198277Y-79710655D01*
X68058549Y-79806688D01*
X68053497Y-79812358D01*
X68053496Y-79812359D01*
X67950812Y-79927608D01*
X67950810Y-79927612D01*
X67945760Y-79933279D01*
X67942208Y-79939988D01*
X67942207Y-79939989D01*
X67929642Y-79963721D01*
X67866424Y-80083119D01*
X67825119Y-80247559D01*
X67824231Y-80417105D01*
X65736200Y-80417105D01*
X65736200Y-72283000D01*
X65756202Y-72214879D01*
X65809858Y-72168386D01*
X65862200Y-72157000D01*
X83719200Y-72157000D01*
X83787321Y-72177002D01*
G37*
%TD.AperFunction*%
%TD*%
%TA.AperFunction,Conductor*%
%TO.N,GND2*%
G36*
X127356321Y-102677002D02*
G01*
X127402814Y-102730658D01*
X127414200Y-102783000D01*
X127414200Y-127498335D01*
X127394198Y-127566456D01*
X127340542Y-127612949D01*
X127288266Y-127624335D01*
X103851905Y-127636392D01*
X87781265Y-127644659D01*
X87713134Y-127624692D01*
X87666613Y-127571060D01*
X87655200Y-127518659D01*
X87655200Y-124362100D01*
X110580318Y-124362100D01*
X110600956Y-124518862D01*
X110661464Y-124664941D01*
X110757718Y-124790382D01*
X110883159Y-124886636D01*
X111029238Y-124947144D01*
X111186000Y-124967782D01*
X111194188Y-124966704D01*
X111334574Y-124948222D01*
X111342762Y-124947144D01*
X111488841Y-124886636D01*
X111614282Y-124790382D01*
X111710536Y-124664941D01*
X111771044Y-124518862D01*
X111791682Y-124362100D01*
X111771044Y-124205338D01*
X111767884Y-124197709D01*
X111765746Y-124189730D01*
X111768200Y-124189073D01*
X111761971Y-124131182D01*
X111793745Y-124067692D01*
X111854800Y-124031460D01*
X111869525Y-124028621D01*
X111889862Y-124025944D01*
X112035941Y-123965436D01*
X112161382Y-123869182D01*
X112257636Y-123743741D01*
X112318144Y-123597662D01*
X112338782Y-123440900D01*
X112318144Y-123284138D01*
X112312121Y-123269596D01*
X112265975Y-123158192D01*
X112257636Y-123138059D01*
X112161382Y-123012618D01*
X112152187Y-123005562D01*
X112107896Y-122971577D01*
X112066029Y-122914239D01*
X112058600Y-122871614D01*
X112058600Y-122833916D01*
X112078602Y-122765795D01*
X112095505Y-122744821D01*
X113001221Y-121839105D01*
X113063533Y-121805079D01*
X113090316Y-121802200D01*
X115836529Y-121802200D01*
X115904650Y-121822202D01*
X115951143Y-121875858D01*
X115961247Y-121946132D01*
X115952938Y-121976418D01*
X115924556Y-122044938D01*
X115923478Y-122053126D01*
X115916265Y-122107918D01*
X115903918Y-122201700D01*
X115924556Y-122358462D01*
X115985064Y-122504541D01*
X116081318Y-122629982D01*
X116087864Y-122635005D01*
X116134804Y-122671023D01*
X116176671Y-122728361D01*
X116184100Y-122770986D01*
X116184100Y-123017382D01*
X116164098Y-123085503D01*
X116147196Y-123106477D01*
X115873678Y-123379996D01*
X115865574Y-123387422D01*
X115836706Y-123411645D01*
X115831193Y-123421194D01*
X115817861Y-123444285D01*
X115811955Y-123453556D01*
X115790346Y-123484416D01*
X115787492Y-123495066D01*
X115786015Y-123498234D01*
X115784823Y-123501510D01*
X115779312Y-123511055D01*
X115773362Y-123544799D01*
X115772770Y-123548158D01*
X115770392Y-123558885D01*
X115760636Y-123595293D01*
X115761597Y-123606278D01*
X115761597Y-123606280D01*
X115763920Y-123632828D01*
X115764400Y-123643810D01*
X115764400Y-124057514D01*
X115744398Y-124125635D01*
X115715104Y-124157477D01*
X115661618Y-124198518D01*
X115565364Y-124323959D01*
X115504856Y-124470038D01*
X115484218Y-124626800D01*
X115504856Y-124783562D01*
X115565364Y-124929641D01*
X115661618Y-125055082D01*
X115787059Y-125151336D01*
X115933138Y-125211844D01*
X116089900Y-125232482D01*
X116098088Y-125231404D01*
X116238474Y-125212922D01*
X116246662Y-125211844D01*
X116392741Y-125151336D01*
X116518182Y-125055082D01*
X116614436Y-124929641D01*
X116674944Y-124783562D01*
X116695582Y-124626800D01*
X116674944Y-124470038D01*
X116614436Y-124323959D01*
X116518182Y-124198518D01*
X116464696Y-124157477D01*
X116422829Y-124100139D01*
X116415400Y-124057514D01*
X116415400Y-123811117D01*
X116435402Y-123742996D01*
X116452305Y-123722021D01*
X116576665Y-123597662D01*
X116725828Y-123448499D01*
X116733932Y-123441073D01*
X116734138Y-123440900D01*
X116762794Y-123416855D01*
X116781639Y-123384215D01*
X116787543Y-123374947D01*
X116802831Y-123353113D01*
X116809153Y-123344084D01*
X116812006Y-123333438D01*
X116813483Y-123330270D01*
X116814676Y-123326993D01*
X116820188Y-123317445D01*
X116826732Y-123280331D01*
X116829112Y-123269596D01*
X116836010Y-123243854D01*
X116838863Y-123233207D01*
X116835579Y-123195669D01*
X116835100Y-123184688D01*
X116835100Y-122770986D01*
X116855102Y-122702865D01*
X116884396Y-122671023D01*
X116931336Y-122635005D01*
X116937882Y-122629982D01*
X117034136Y-122504541D01*
X117094644Y-122358462D01*
X117115282Y-122201700D01*
X117102935Y-122107918D01*
X117095722Y-122053126D01*
X117094644Y-122044938D01*
X117066262Y-121976418D01*
X117058673Y-121905828D01*
X117090452Y-121842341D01*
X117151510Y-121806114D01*
X117182671Y-121802200D01*
X117693683Y-121802200D01*
X117761804Y-121822202D01*
X117782779Y-121839105D01*
X118043501Y-122099828D01*
X118050927Y-122107931D01*
X118075145Y-122136794D01*
X118107784Y-122155638D01*
X118117052Y-122161542D01*
X118147916Y-122183153D01*
X118158562Y-122186006D01*
X118161730Y-122187483D01*
X118165007Y-122188676D01*
X118174555Y-122194188D01*
X118204108Y-122199399D01*
X118211669Y-122200732D01*
X118222403Y-122203112D01*
X118258793Y-122212863D01*
X118269769Y-122211903D01*
X118269772Y-122211903D01*
X118296331Y-122209579D01*
X118307312Y-122209100D01*
X124770290Y-122209100D01*
X124781272Y-122209580D01*
X124807820Y-122211903D01*
X124807822Y-122211903D01*
X124818807Y-122212864D01*
X124855215Y-122203108D01*
X124865942Y-122200730D01*
X124869301Y-122200138D01*
X124903045Y-122194188D01*
X124912590Y-122188677D01*
X124915866Y-122187485D01*
X124919034Y-122186008D01*
X124929684Y-122183154D01*
X124960547Y-122161543D01*
X124969815Y-122155639D01*
X124992906Y-122142307D01*
X125002455Y-122136794D01*
X125026685Y-122107917D01*
X125034111Y-122099815D01*
X126073015Y-121060911D01*
X126081119Y-121053484D01*
X126101549Y-121036341D01*
X126109994Y-121029255D01*
X126122688Y-121007268D01*
X126128839Y-120996615D01*
X126134745Y-120987344D01*
X126150030Y-120965515D01*
X126156354Y-120956484D01*
X126159208Y-120945834D01*
X126160685Y-120942666D01*
X126161877Y-120939390D01*
X126167388Y-120929845D01*
X126173930Y-120892742D01*
X126176309Y-120882010D01*
X126183210Y-120856256D01*
X126186064Y-120845607D01*
X126182780Y-120808072D01*
X126182300Y-120797090D01*
X126182300Y-115404510D01*
X126182780Y-115393528D01*
X126185103Y-115366980D01*
X126185103Y-115366978D01*
X126186064Y-115355993D01*
X126176308Y-115319585D01*
X126173930Y-115308858D01*
X126170885Y-115291591D01*
X126167388Y-115271755D01*
X126161877Y-115262210D01*
X126160685Y-115258934D01*
X126159208Y-115255766D01*
X126156354Y-115245116D01*
X126134745Y-115214256D01*
X126128839Y-115204985D01*
X126115507Y-115181894D01*
X126109994Y-115172345D01*
X126081117Y-115148115D01*
X126073015Y-115140689D01*
X124529311Y-113596985D01*
X124495285Y-113534673D01*
X124500350Y-113463858D01*
X124505449Y-113452063D01*
X124542848Y-113376391D01*
X124574215Y-113312925D01*
X124628428Y-113134491D01*
X124639659Y-113097527D01*
X124639660Y-113097521D01*
X124641163Y-113092575D01*
X124671222Y-112864249D01*
X124672900Y-112795600D01*
X124654030Y-112566078D01*
X124597926Y-112342720D01*
X124506096Y-112131524D01*
X124381005Y-111938163D01*
X124360374Y-111915489D01*
X124229490Y-111771651D01*
X124229489Y-111771650D01*
X124226012Y-111767829D01*
X124221961Y-111764630D01*
X124221957Y-111764626D01*
X124049335Y-111628297D01*
X124049330Y-111628293D01*
X124045281Y-111625096D01*
X124040765Y-111622603D01*
X124040762Y-111622601D01*
X123848189Y-111516295D01*
X123848185Y-111516293D01*
X123843665Y-111513798D01*
X123838796Y-111512074D01*
X123838792Y-111512072D01*
X123631453Y-111438649D01*
X123631449Y-111438648D01*
X123626578Y-111436923D01*
X123621485Y-111436016D01*
X123621482Y-111436015D01*
X123525307Y-111418884D01*
X123399850Y-111396537D01*
X123313402Y-111395481D01*
X123174741Y-111393786D01*
X123174739Y-111393786D01*
X123169571Y-111393723D01*
X122941925Y-111428558D01*
X122723024Y-111500106D01*
X122518749Y-111606445D01*
X122334584Y-111744719D01*
X122175477Y-111911216D01*
X122045699Y-112101463D01*
X122043523Y-112106152D01*
X122043519Y-112106158D01*
X122031745Y-112131524D01*
X121948736Y-112310352D01*
X121887192Y-112532273D01*
X121862719Y-112761265D01*
X121863016Y-112766417D01*
X121863016Y-112766421D01*
X121868464Y-112860896D01*
X121875976Y-112991180D01*
X121877113Y-112996226D01*
X121877114Y-112996232D01*
X121898826Y-113092575D01*
X121926606Y-113215842D01*
X121928548Y-113220624D01*
X121928549Y-113220628D01*
X122011305Y-113424431D01*
X122013249Y-113429218D01*
X122133579Y-113625578D01*
X122284363Y-113799648D01*
X122461553Y-113946754D01*
X122660390Y-114062945D01*
X122875534Y-114145101D01*
X122880600Y-114146132D01*
X122880601Y-114146132D01*
X122981297Y-114166618D01*
X123101207Y-114191014D01*
X123230952Y-114195772D01*
X123326185Y-114199264D01*
X123326189Y-114199264D01*
X123331349Y-114199453D01*
X123336469Y-114198797D01*
X123336471Y-114198797D01*
X123405872Y-114189907D01*
X123559778Y-114170191D01*
X123564726Y-114168706D01*
X123564733Y-114168705D01*
X123775411Y-114105498D01*
X123775410Y-114105498D01*
X123780361Y-114104013D01*
X123924569Y-114033366D01*
X123994542Y-114021359D01*
X124059900Y-114049089D01*
X124069096Y-114057422D01*
X125494395Y-115482721D01*
X125528421Y-115545033D01*
X125531300Y-115571816D01*
X125531300Y-120629784D01*
X125511298Y-120697905D01*
X125494395Y-120718879D01*
X125190695Y-121022579D01*
X125128383Y-121056605D01*
X125057568Y-121051540D01*
X125000732Y-121008993D01*
X124975921Y-120942473D01*
X124975600Y-120933484D01*
X124975600Y-120067715D01*
X124971125Y-120052476D01*
X124969735Y-120051271D01*
X124962052Y-120049600D01*
X121577716Y-120049600D01*
X121562477Y-120054075D01*
X121561272Y-120055465D01*
X121559601Y-120063148D01*
X121559601Y-121040269D01*
X121559971Y-121047090D01*
X121565495Y-121097952D01*
X121569121Y-121113204D01*
X121614276Y-121233654D01*
X121622811Y-121249244D01*
X121703221Y-121356535D01*
X121728068Y-121423042D01*
X121713015Y-121492424D01*
X121662840Y-121542654D01*
X121602394Y-121558100D01*
X118474618Y-121558100D01*
X118406497Y-121538098D01*
X118385523Y-121521196D01*
X118124804Y-121260478D01*
X118117377Y-121252373D01*
X118093155Y-121223506D01*
X118083606Y-121217993D01*
X118060515Y-121204661D01*
X118051244Y-121198755D01*
X118029415Y-121183470D01*
X118020384Y-121177146D01*
X118009734Y-121174292D01*
X118006566Y-121172815D01*
X118003290Y-121171623D01*
X117993745Y-121166112D01*
X117960001Y-121160162D01*
X117956642Y-121159570D01*
X117945915Y-121157192D01*
X117909507Y-121147436D01*
X117898522Y-121148397D01*
X117898520Y-121148397D01*
X117871972Y-121150720D01*
X117860990Y-121151200D01*
X115262916Y-121151200D01*
X115194795Y-121131198D01*
X115148302Y-121077542D01*
X115138198Y-121007268D01*
X115167692Y-120942688D01*
X115173821Y-120936105D01*
X116586442Y-119523485D01*
X121559600Y-119523485D01*
X121564075Y-119538724D01*
X121565465Y-119539929D01*
X121573148Y-119541600D01*
X122995485Y-119541600D01*
X123010724Y-119537125D01*
X123011929Y-119535735D01*
X123013600Y-119528052D01*
X123013600Y-119523485D01*
X123521600Y-119523485D01*
X123526075Y-119538724D01*
X123527465Y-119539929D01*
X123535148Y-119541600D01*
X124957484Y-119541600D01*
X124972723Y-119537125D01*
X124973928Y-119535735D01*
X124975599Y-119528052D01*
X124975599Y-118550931D01*
X124975229Y-118544110D01*
X124969705Y-118493248D01*
X124966079Y-118477996D01*
X124920924Y-118357546D01*
X124912386Y-118341951D01*
X124835885Y-118239876D01*
X124823324Y-118227315D01*
X124721249Y-118150814D01*
X124705654Y-118142276D01*
X124585206Y-118097122D01*
X124569951Y-118093495D01*
X124519086Y-118087969D01*
X124512272Y-118087600D01*
X123539715Y-118087600D01*
X123524476Y-118092075D01*
X123523271Y-118093465D01*
X123521600Y-118101148D01*
X123521600Y-119523485D01*
X123013600Y-119523485D01*
X123013600Y-118105716D01*
X123009125Y-118090477D01*
X123007735Y-118089272D01*
X123000052Y-118087601D01*
X122022931Y-118087601D01*
X122016110Y-118087971D01*
X121965248Y-118093495D01*
X121949996Y-118097121D01*
X121829546Y-118142276D01*
X121813951Y-118150814D01*
X121711876Y-118227315D01*
X121699315Y-118239876D01*
X121622814Y-118341951D01*
X121614276Y-118357546D01*
X121569122Y-118477994D01*
X121565495Y-118493249D01*
X121559969Y-118544114D01*
X121559600Y-118550928D01*
X121559600Y-119523485D01*
X116586442Y-119523485D01*
X116959938Y-119149989D01*
X118838722Y-117271205D01*
X118846826Y-117263778D01*
X118867249Y-117246641D01*
X118875694Y-117239555D01*
X118894539Y-117206915D01*
X118900443Y-117197647D01*
X118915731Y-117175813D01*
X118922053Y-117166784D01*
X118924906Y-117156138D01*
X118926383Y-117152970D01*
X118927576Y-117149693D01*
X118933088Y-117140145D01*
X118939632Y-117103031D01*
X118942012Y-117092296D01*
X118948910Y-117066554D01*
X118951763Y-117055907D01*
X118948479Y-117018369D01*
X118948000Y-117007388D01*
X118948000Y-116747100D01*
X118968002Y-116678979D01*
X119021658Y-116632486D01*
X119074000Y-116621100D01*
X121804804Y-116621100D01*
X121872925Y-116641102D01*
X121919418Y-116694758D01*
X121925040Y-116709427D01*
X121925469Y-116710795D01*
X121926606Y-116715842D01*
X121928549Y-116720628D01*
X121928550Y-116720630D01*
X121960687Y-116799774D01*
X122013249Y-116929218D01*
X122133579Y-117125578D01*
X122284363Y-117299648D01*
X122461553Y-117446754D01*
X122660390Y-117562945D01*
X122875534Y-117645101D01*
X122880600Y-117646132D01*
X122880601Y-117646132D01*
X122981297Y-117666618D01*
X123101207Y-117691014D01*
X123230952Y-117695772D01*
X123326185Y-117699264D01*
X123326189Y-117699264D01*
X123331349Y-117699453D01*
X123336469Y-117698797D01*
X123336471Y-117698797D01*
X123405872Y-117689907D01*
X123559778Y-117670191D01*
X123564726Y-117668706D01*
X123564733Y-117668705D01*
X123775411Y-117605498D01*
X123775410Y-117605498D01*
X123780361Y-117604013D01*
X123987174Y-117502696D01*
X124174662Y-117368963D01*
X124337790Y-117206403D01*
X124359827Y-117175736D01*
X124469159Y-117023583D01*
X124472177Y-117019383D01*
X124478106Y-117007388D01*
X124534999Y-116892273D01*
X124574215Y-116812925D01*
X124603711Y-116715842D01*
X124639659Y-116597527D01*
X124639660Y-116597521D01*
X124641163Y-116592575D01*
X124662510Y-116430426D01*
X124670785Y-116367571D01*
X124670785Y-116367565D01*
X124671222Y-116364249D01*
X124672900Y-116295600D01*
X124654030Y-116066078D01*
X124597926Y-115842720D01*
X124534787Y-115697509D01*
X124508156Y-115636261D01*
X124508154Y-115636258D01*
X124506096Y-115631524D01*
X124429564Y-115513224D01*
X124383815Y-115442506D01*
X124383813Y-115442503D01*
X124381005Y-115438163D01*
X124360374Y-115415489D01*
X124229490Y-115271651D01*
X124229489Y-115271650D01*
X124226012Y-115267829D01*
X124221961Y-115264630D01*
X124221957Y-115264626D01*
X124049335Y-115128297D01*
X124049330Y-115128293D01*
X124045281Y-115125096D01*
X124040765Y-115122603D01*
X124040762Y-115122601D01*
X123848189Y-115016295D01*
X123848185Y-115016293D01*
X123843665Y-115013798D01*
X123838796Y-115012074D01*
X123838792Y-115012072D01*
X123631453Y-114938649D01*
X123631449Y-114938648D01*
X123626578Y-114936923D01*
X123621485Y-114936016D01*
X123621482Y-114936015D01*
X123525307Y-114918884D01*
X123399850Y-114896537D01*
X123313402Y-114895481D01*
X123174741Y-114893786D01*
X123174739Y-114893786D01*
X123169571Y-114893723D01*
X122941925Y-114928558D01*
X122723024Y-115000106D01*
X122518749Y-115106445D01*
X122334584Y-115244719D01*
X122175477Y-115411216D01*
X122172563Y-115415488D01*
X122172562Y-115415489D01*
X122085518Y-115543091D01*
X122045699Y-115601463D01*
X122043523Y-115606152D01*
X122043519Y-115606158D01*
X121958577Y-115789151D01*
X121948736Y-115810352D01*
X121930038Y-115877775D01*
X121892561Y-115938070D01*
X121828432Y-115968533D01*
X121808622Y-115970100D01*
X118809516Y-115970100D01*
X118741395Y-115950098D01*
X118720421Y-115933195D01*
X117583205Y-114795979D01*
X117549179Y-114733667D01*
X117546300Y-114706884D01*
X117546300Y-108140062D01*
X117566302Y-108071941D01*
X117615490Y-108027596D01*
X117780913Y-107944035D01*
X117780916Y-107944033D01*
X117786410Y-107941258D01*
X117948751Y-107814424D01*
X118083364Y-107658472D01*
X118104187Y-107621818D01*
X118182076Y-107484707D01*
X118185123Y-107479344D01*
X118250151Y-107283863D01*
X118275971Y-107079474D01*
X118276383Y-107050000D01*
X118274938Y-107035262D01*
X119822920Y-107035262D01*
X119840159Y-107240553D01*
X119841858Y-107246478D01*
X119879116Y-107376411D01*
X119896944Y-107438586D01*
X119899759Y-107444063D01*
X119899760Y-107444066D01*
X119920647Y-107484707D01*
X119991112Y-107621818D01*
X120119077Y-107783270D01*
X120275964Y-107916791D01*
X120455798Y-108017297D01*
X120550638Y-108048113D01*
X120645871Y-108079056D01*
X120645875Y-108079057D01*
X120651729Y-108080959D01*
X120856294Y-108105351D01*
X120862429Y-108104879D01*
X120862431Y-108104879D01*
X120918439Y-108100569D01*
X121061700Y-108089546D01*
X121067630Y-108087890D01*
X121067632Y-108087890D01*
X121254197Y-108035800D01*
X121254196Y-108035800D01*
X121260125Y-108034145D01*
X121265614Y-108031372D01*
X121265620Y-108031370D01*
X121438516Y-107944033D01*
X121444010Y-107941258D01*
X121606351Y-107814424D01*
X121740964Y-107658472D01*
X121761787Y-107621818D01*
X121839676Y-107484707D01*
X121842723Y-107479344D01*
X121907751Y-107283863D01*
X121933571Y-107079474D01*
X121933983Y-107050000D01*
X121913880Y-106844970D01*
X121854335Y-106647749D01*
X121757618Y-106465849D01*
X121684259Y-106375902D01*
X121631306Y-106310975D01*
X121631303Y-106310972D01*
X121627411Y-106306200D01*
X121610186Y-106291950D01*
X121473425Y-106178811D01*
X121473421Y-106178809D01*
X121468675Y-106174882D01*
X121287455Y-106076897D01*
X121090654Y-106015977D01*
X121084529Y-106015333D01*
X121084528Y-106015333D01*
X120891898Y-105995087D01*
X120891896Y-105995087D01*
X120885769Y-105994443D01*
X120798929Y-106002346D01*
X120686742Y-106012555D01*
X120686739Y-106012556D01*
X120680603Y-106013114D01*
X120482972Y-106071280D01*
X120300402Y-106166726D01*
X120295601Y-106170586D01*
X120295598Y-106170588D01*
X120285371Y-106178811D01*
X120139847Y-106295815D01*
X120007424Y-106453630D01*
X120004456Y-106459028D01*
X120004453Y-106459033D01*
X119916446Y-106619119D01*
X119908176Y-106634162D01*
X119845884Y-106830532D01*
X119845198Y-106836649D01*
X119845197Y-106836653D01*
X119823607Y-107029137D01*
X119822920Y-107035262D01*
X118274938Y-107035262D01*
X118256280Y-106844970D01*
X118196735Y-106647749D01*
X118100018Y-106465849D01*
X118026659Y-106375902D01*
X117973706Y-106310975D01*
X117973703Y-106310972D01*
X117969811Y-106306200D01*
X117952586Y-106291950D01*
X117815825Y-106178811D01*
X117815821Y-106178809D01*
X117811075Y-106174882D01*
X117629855Y-106076897D01*
X117433054Y-106015977D01*
X117426929Y-106015333D01*
X117426928Y-106015333D01*
X117234298Y-105995087D01*
X117234296Y-105995087D01*
X117228169Y-105994443D01*
X117141329Y-106002346D01*
X117029142Y-106012555D01*
X117029139Y-106012556D01*
X117023003Y-106013114D01*
X116825372Y-106071280D01*
X116642802Y-106166726D01*
X116638001Y-106170586D01*
X116637998Y-106170588D01*
X116627771Y-106178811D01*
X116482247Y-106295815D01*
X116349824Y-106453630D01*
X116340116Y-106471290D01*
X116274456Y-106590725D01*
X116224111Y-106640783D01*
X116154694Y-106655677D01*
X116088245Y-106630676D01*
X116074946Y-106619119D01*
X114835574Y-105379748D01*
X116170300Y-105379748D01*
X116181933Y-105438231D01*
X116226248Y-105504552D01*
X116292569Y-105548867D01*
X116304738Y-105551288D01*
X116304739Y-105551288D01*
X116344984Y-105559293D01*
X116351052Y-105560500D01*
X118090548Y-105560500D01*
X118096616Y-105559293D01*
X118136861Y-105551288D01*
X118136862Y-105551288D01*
X118149031Y-105548867D01*
X118215352Y-105504552D01*
X118259667Y-105438231D01*
X118271300Y-105379748D01*
X119827900Y-105379748D01*
X119839533Y-105438231D01*
X119883848Y-105504552D01*
X119950169Y-105548867D01*
X119962338Y-105551288D01*
X119962339Y-105551288D01*
X120002584Y-105559293D01*
X120008652Y-105560500D01*
X121748148Y-105560500D01*
X121754216Y-105559293D01*
X121794461Y-105551288D01*
X121794462Y-105551288D01*
X121806631Y-105548867D01*
X121872952Y-105504552D01*
X121917267Y-105438231D01*
X121928900Y-105379748D01*
X121928900Y-103640252D01*
X121917267Y-103581769D01*
X121872952Y-103515448D01*
X121806631Y-103471133D01*
X121794462Y-103468712D01*
X121794461Y-103468712D01*
X121754216Y-103460707D01*
X121748148Y-103459500D01*
X120008652Y-103459500D01*
X120002584Y-103460707D01*
X119962339Y-103468712D01*
X119962338Y-103468712D01*
X119950169Y-103471133D01*
X119883848Y-103515448D01*
X119839533Y-103581769D01*
X119827900Y-103640252D01*
X119827900Y-105379748D01*
X118271300Y-105379748D01*
X118271300Y-103640252D01*
X118259667Y-103581769D01*
X118215352Y-103515448D01*
X118149031Y-103471133D01*
X118136862Y-103468712D01*
X118136861Y-103468712D01*
X118096616Y-103460707D01*
X118090548Y-103459500D01*
X116351052Y-103459500D01*
X116344984Y-103460707D01*
X116304739Y-103468712D01*
X116304738Y-103468712D01*
X116292569Y-103471133D01*
X116226248Y-103515448D01*
X116181933Y-103581769D01*
X116170300Y-103640252D01*
X116170300Y-105379748D01*
X114835574Y-105379748D01*
X114650605Y-105194779D01*
X114616580Y-105132467D01*
X114613700Y-105105684D01*
X114613700Y-103640252D01*
X114602067Y-103581769D01*
X114557752Y-103515448D01*
X114491431Y-103471133D01*
X114479262Y-103468712D01*
X114479261Y-103468712D01*
X114439016Y-103460707D01*
X114432948Y-103459500D01*
X112693452Y-103459500D01*
X112687384Y-103460707D01*
X112647139Y-103468712D01*
X112647138Y-103468712D01*
X112634969Y-103471133D01*
X112568648Y-103515448D01*
X112524333Y-103581769D01*
X112512700Y-103640252D01*
X112512700Y-105379748D01*
X112524333Y-105438231D01*
X112568648Y-105504552D01*
X112634969Y-105548867D01*
X112647138Y-105551288D01*
X112647139Y-105551288D01*
X112687384Y-105559293D01*
X112693452Y-105560500D01*
X114043484Y-105560500D01*
X114111605Y-105580502D01*
X114132579Y-105597405D01*
X115801395Y-107266222D01*
X115808821Y-107274325D01*
X115833045Y-107303194D01*
X115842588Y-107308704D01*
X115842592Y-107308707D01*
X115865679Y-107322036D01*
X115874948Y-107327940D01*
X115905816Y-107349554D01*
X115916464Y-107352407D01*
X115919635Y-107353886D01*
X115922911Y-107355078D01*
X115932455Y-107360588D01*
X115969576Y-107367134D01*
X115980283Y-107369508D01*
X116016693Y-107379263D01*
X116027668Y-107378303D01*
X116027670Y-107378303D01*
X116054231Y-107375979D01*
X116065212Y-107375500D01*
X116130011Y-107375500D01*
X116198132Y-107395502D01*
X116242078Y-107443906D01*
X116333512Y-107621818D01*
X116461477Y-107783270D01*
X116618364Y-107916791D01*
X116798198Y-108017297D01*
X116804055Y-108019200D01*
X116808241Y-108020560D01*
X116866845Y-108060636D01*
X116894479Y-108126034D01*
X116895300Y-108140392D01*
X116895300Y-114874190D01*
X116894820Y-114885172D01*
X116891536Y-114922707D01*
X116895808Y-114938649D01*
X116901291Y-114959110D01*
X116903670Y-114969842D01*
X116910212Y-115006945D01*
X116915723Y-115016490D01*
X116916915Y-115019766D01*
X116918392Y-115022934D01*
X116921246Y-115033584D01*
X116927570Y-115042615D01*
X116942855Y-115064444D01*
X116948761Y-115073715D01*
X116962093Y-115096806D01*
X116967606Y-115106355D01*
X116992448Y-115127200D01*
X116996482Y-115130585D01*
X117004585Y-115138011D01*
X118260095Y-116393521D01*
X118294121Y-116455833D01*
X118297000Y-116482616D01*
X118297000Y-116840083D01*
X118276998Y-116908204D01*
X118260095Y-116929178D01*
X116433961Y-118755313D01*
X114695562Y-120493712D01*
X114633250Y-120527738D01*
X114562435Y-120522673D01*
X114505599Y-120480126D01*
X114480788Y-120413606D01*
X114481545Y-120388171D01*
X114497604Y-120266188D01*
X114498682Y-120258000D01*
X114478044Y-120101238D01*
X114417536Y-119955159D01*
X114321282Y-119829718D01*
X114195841Y-119733464D01*
X114049762Y-119672956D01*
X113896654Y-119652799D01*
X113831727Y-119624077D01*
X113792635Y-119564811D01*
X113787100Y-119527877D01*
X113787100Y-108515548D01*
X113807102Y-108447427D01*
X113810715Y-108442520D01*
X113816394Y-108437755D01*
X113821907Y-108428206D01*
X113835239Y-108405115D01*
X113841145Y-108395844D01*
X113862754Y-108364984D01*
X113865608Y-108354333D01*
X113867088Y-108351160D01*
X113868279Y-108347888D01*
X113873788Y-108338345D01*
X113880334Y-108301224D01*
X113882708Y-108290517D01*
X113892463Y-108254107D01*
X113889179Y-108216569D01*
X113888700Y-108205588D01*
X113888700Y-108140062D01*
X113908702Y-108071941D01*
X113957890Y-108027596D01*
X114123313Y-107944035D01*
X114123316Y-107944033D01*
X114128810Y-107941258D01*
X114291151Y-107814424D01*
X114425764Y-107658472D01*
X114446587Y-107621818D01*
X114524476Y-107484707D01*
X114527523Y-107479344D01*
X114592551Y-107283863D01*
X114618371Y-107079474D01*
X114618783Y-107050000D01*
X114598680Y-106844970D01*
X114539135Y-106647749D01*
X114442418Y-106465849D01*
X114369059Y-106375902D01*
X114316106Y-106310975D01*
X114316103Y-106310972D01*
X114312211Y-106306200D01*
X114294986Y-106291950D01*
X114158225Y-106178811D01*
X114158221Y-106178809D01*
X114153475Y-106174882D01*
X113972255Y-106076897D01*
X113775454Y-106015977D01*
X113769329Y-106015333D01*
X113769328Y-106015333D01*
X113576698Y-105995087D01*
X113576696Y-105995087D01*
X113570569Y-105994443D01*
X113483729Y-106002346D01*
X113371542Y-106012555D01*
X113371539Y-106012556D01*
X113365403Y-106013114D01*
X113167772Y-106071280D01*
X112985202Y-106166726D01*
X112980401Y-106170586D01*
X112980398Y-106170588D01*
X112970171Y-106178811D01*
X112824647Y-106295815D01*
X112692224Y-106453630D01*
X112689256Y-106459028D01*
X112689253Y-106459033D01*
X112601246Y-106619119D01*
X112592976Y-106634162D01*
X112530684Y-106830532D01*
X112529998Y-106836649D01*
X112529997Y-106836653D01*
X112508407Y-107029137D01*
X112507720Y-107035262D01*
X112524959Y-107240553D01*
X112526658Y-107246478D01*
X112563916Y-107376411D01*
X112581744Y-107438586D01*
X112584559Y-107444063D01*
X112584560Y-107444066D01*
X112605447Y-107484707D01*
X112675912Y-107621818D01*
X112803877Y-107783270D01*
X112960764Y-107916791D01*
X113098415Y-107993721D01*
X113119935Y-108005749D01*
X113169640Y-108056443D01*
X113184048Y-108125962D01*
X113172659Y-108168987D01*
X113168370Y-108178185D01*
X113162046Y-108187216D01*
X113159192Y-108197866D01*
X113157715Y-108201034D01*
X113156523Y-108204310D01*
X113151012Y-108213855D01*
X113145850Y-108243130D01*
X113144470Y-108250958D01*
X113142092Y-108261685D01*
X113132336Y-108298093D01*
X113133297Y-108309078D01*
X113133297Y-108309080D01*
X113135620Y-108335628D01*
X113136100Y-108346610D01*
X113136100Y-119806890D01*
X113135620Y-119817872D01*
X113134584Y-119829718D01*
X113132336Y-119855407D01*
X113142091Y-119891810D01*
X113144470Y-119902542D01*
X113144773Y-119904258D01*
X113151012Y-119939645D01*
X113156523Y-119949190D01*
X113157715Y-119952466D01*
X113159192Y-119955634D01*
X113162046Y-119966284D01*
X113168370Y-119975315D01*
X113183655Y-119997144D01*
X113189561Y-120006415D01*
X113201495Y-120027084D01*
X113208406Y-120039055D01*
X113226306Y-120054075D01*
X113237282Y-120063285D01*
X113245385Y-120070711D01*
X113260291Y-120085617D01*
X113294317Y-120147929D01*
X113296118Y-120191157D01*
X113287318Y-120258000D01*
X113307956Y-120414762D01*
X113311116Y-120422391D01*
X113336338Y-120483282D01*
X113343927Y-120553872D01*
X113312148Y-120617359D01*
X113251090Y-120653586D01*
X113219929Y-120657500D01*
X112502310Y-120657500D01*
X112491328Y-120657020D01*
X112464775Y-120654697D01*
X112464770Y-120654697D01*
X112453793Y-120653737D01*
X112417383Y-120663492D01*
X112406676Y-120665866D01*
X112369555Y-120672412D01*
X112360011Y-120677922D01*
X112356735Y-120679114D01*
X112353564Y-120680593D01*
X112342916Y-120683446D01*
X112333887Y-120689768D01*
X112312049Y-120705059D01*
X112302779Y-120710964D01*
X112279692Y-120724293D01*
X112279688Y-120724296D01*
X112270145Y-120729806D01*
X112263060Y-120738250D01*
X112245920Y-120758676D01*
X112238494Y-120766779D01*
X110779684Y-122225590D01*
X110771581Y-122233016D01*
X110742706Y-122257245D01*
X110737193Y-122266794D01*
X110723861Y-122289885D01*
X110717955Y-122299156D01*
X110696346Y-122330016D01*
X110693492Y-122340666D01*
X110692015Y-122343834D01*
X110690823Y-122347110D01*
X110685312Y-122356655D01*
X110681288Y-122379477D01*
X110678770Y-122393758D01*
X110676392Y-122404485D01*
X110666636Y-122440893D01*
X110667597Y-122451878D01*
X110667597Y-122451880D01*
X110669920Y-122478428D01*
X110670400Y-122489410D01*
X110670400Y-124012622D01*
X110660809Y-124060840D01*
X110604116Y-124197709D01*
X110600956Y-124205338D01*
X110580318Y-124362100D01*
X87655200Y-124362100D01*
X87655200Y-122848800D01*
X102238718Y-122848800D01*
X102259356Y-123005562D01*
X102319864Y-123151641D01*
X102416118Y-123277082D01*
X102422664Y-123282105D01*
X102435984Y-123292326D01*
X102541559Y-123373336D01*
X102687638Y-123433844D01*
X102844400Y-123454482D01*
X102852588Y-123453404D01*
X102992974Y-123434922D01*
X103001162Y-123433844D01*
X103147241Y-123373336D01*
X103252816Y-123292326D01*
X103266136Y-123282105D01*
X103272682Y-123277082D01*
X103368936Y-123151641D01*
X103429444Y-123005562D01*
X103450082Y-122848800D01*
X103429444Y-122692038D01*
X103368936Y-122545959D01*
X103272682Y-122420518D01*
X103219196Y-122379477D01*
X103177329Y-122322139D01*
X103169900Y-122279514D01*
X103169900Y-121664216D01*
X103189902Y-121596095D01*
X103206805Y-121575121D01*
X104212422Y-120569504D01*
X104274734Y-120535478D01*
X104301517Y-120532599D01*
X106085013Y-120532599D01*
X106153134Y-120552601D01*
X106184976Y-120581895D01*
X106226017Y-120635381D01*
X106351458Y-120731635D01*
X106497537Y-120792143D01*
X106654299Y-120812781D01*
X106662487Y-120811703D01*
X106690068Y-120808072D01*
X106811061Y-120792143D01*
X106957140Y-120731635D01*
X107082581Y-120635381D01*
X107178835Y-120509940D01*
X107239343Y-120363861D01*
X107259981Y-120207099D01*
X107241631Y-120067715D01*
X107240421Y-120058525D01*
X107239343Y-120050337D01*
X107178835Y-119904258D01*
X107082581Y-119778817D01*
X106957140Y-119682563D01*
X106811061Y-119622055D01*
X106654299Y-119601417D01*
X106497537Y-119622055D01*
X106351458Y-119682563D01*
X106226017Y-119778817D01*
X106186960Y-119829718D01*
X106184976Y-119832303D01*
X106127638Y-119874170D01*
X106085013Y-119881599D01*
X104134211Y-119881599D01*
X104123229Y-119881119D01*
X104096681Y-119878796D01*
X104096679Y-119878796D01*
X104085694Y-119877835D01*
X104049286Y-119887591D01*
X104038559Y-119889969D01*
X104035200Y-119890561D01*
X104001456Y-119896511D01*
X103991911Y-119902022D01*
X103988635Y-119903214D01*
X103985467Y-119904691D01*
X103974817Y-119907545D01*
X103965786Y-119913869D01*
X103943957Y-119929154D01*
X103934686Y-119935060D01*
X103911595Y-119948392D01*
X103902046Y-119953905D01*
X103891659Y-119966284D01*
X103877816Y-119982781D01*
X103870390Y-119990884D01*
X102628185Y-121233089D01*
X102620081Y-121240516D01*
X102591206Y-121264745D01*
X102585693Y-121274294D01*
X102572361Y-121297385D01*
X102566455Y-121306656D01*
X102544846Y-121337516D01*
X102541992Y-121348166D01*
X102540515Y-121351334D01*
X102539323Y-121354610D01*
X102533812Y-121364155D01*
X102527862Y-121397899D01*
X102527270Y-121401258D01*
X102524892Y-121411985D01*
X102515136Y-121448393D01*
X102516097Y-121459378D01*
X102516097Y-121459380D01*
X102518420Y-121485928D01*
X102518900Y-121496910D01*
X102518900Y-122279514D01*
X102498898Y-122347635D01*
X102469604Y-122379477D01*
X102416118Y-122420518D01*
X102319864Y-122545959D01*
X102259356Y-122692038D01*
X102238718Y-122848800D01*
X87655200Y-122848800D01*
X87655200Y-119445200D01*
X95837918Y-119445200D01*
X95858556Y-119601962D01*
X95919064Y-119748041D01*
X96015318Y-119873482D01*
X96140759Y-119969736D01*
X96286838Y-120030244D01*
X96295026Y-120031322D01*
X96365219Y-120040563D01*
X96443600Y-120050882D01*
X96451788Y-120049804D01*
X96479612Y-120046141D01*
X96521981Y-120040563D01*
X96592174Y-120031322D01*
X96600362Y-120030244D01*
X96746441Y-119969736D01*
X96871882Y-119873482D01*
X96968136Y-119748041D01*
X97028644Y-119601962D01*
X97049282Y-119445200D01*
X97040482Y-119378357D01*
X97051421Y-119308210D01*
X97076309Y-119272817D01*
X97389153Y-118959973D01*
X97397257Y-118952546D01*
X97417687Y-118935403D01*
X97426132Y-118928317D01*
X97432375Y-118917504D01*
X97444977Y-118895677D01*
X97450883Y-118886406D01*
X97466168Y-118864577D01*
X97472492Y-118855546D01*
X97475346Y-118844896D01*
X97476823Y-118841728D01*
X97478015Y-118838452D01*
X97483526Y-118828907D01*
X97490068Y-118791804D01*
X97492447Y-118781072D01*
X97502202Y-118744669D01*
X97498917Y-118707119D01*
X97498438Y-118696138D01*
X97498438Y-115857272D01*
X97518440Y-115789151D01*
X97547734Y-115757309D01*
X97594674Y-115721291D01*
X97601220Y-115716268D01*
X97606733Y-115709084D01*
X97685710Y-115606158D01*
X97697474Y-115590827D01*
X97757982Y-115444748D01*
X97778620Y-115287986D01*
X97757982Y-115131224D01*
X97697474Y-114985145D01*
X97613079Y-114875159D01*
X97606243Y-114866250D01*
X97601220Y-114859704D01*
X97475779Y-114763450D01*
X97329700Y-114702942D01*
X97172938Y-114682304D01*
X97016176Y-114702942D01*
X96870097Y-114763450D01*
X96744656Y-114859704D01*
X96739633Y-114866250D01*
X96732797Y-114875159D01*
X96648402Y-114985145D01*
X96587894Y-115131224D01*
X96567256Y-115287986D01*
X96587894Y-115444748D01*
X96648402Y-115590827D01*
X96660166Y-115606158D01*
X96739144Y-115709084D01*
X96744656Y-115716268D01*
X96751202Y-115721291D01*
X96798142Y-115757309D01*
X96840009Y-115814647D01*
X96847438Y-115857272D01*
X96847438Y-118528846D01*
X96827436Y-118596967D01*
X96810533Y-118617941D01*
X96615983Y-118812491D01*
X96553671Y-118846517D01*
X96510443Y-118848318D01*
X96443600Y-118839518D01*
X96390437Y-118846517D01*
X96321855Y-118855546D01*
X96286838Y-118860156D01*
X96140759Y-118920664D01*
X96015318Y-119016918D01*
X95919064Y-119142359D01*
X95858556Y-119288438D01*
X95837918Y-119445200D01*
X87655200Y-119445200D01*
X87655200Y-113654000D01*
X101883118Y-113654000D01*
X101903756Y-113810762D01*
X101964264Y-113956841D01*
X102060518Y-114082282D01*
X102185959Y-114178536D01*
X102288719Y-114221100D01*
X102343999Y-114265648D01*
X102366500Y-114337509D01*
X102366500Y-116081914D01*
X102346498Y-116150035D01*
X102317204Y-116181877D01*
X102263718Y-116222918D01*
X102167464Y-116348359D01*
X102106956Y-116494438D01*
X102086318Y-116651200D01*
X102106956Y-116807962D01*
X102167464Y-116954041D01*
X102263718Y-117079482D01*
X102270264Y-117084505D01*
X102287348Y-117097614D01*
X102389159Y-117175736D01*
X102535238Y-117236244D01*
X102543426Y-117237322D01*
X102613619Y-117246563D01*
X102692000Y-117256882D01*
X102700188Y-117255804D01*
X102840574Y-117237322D01*
X102848762Y-117236244D01*
X102994841Y-117175736D01*
X103096652Y-117097614D01*
X103113736Y-117084505D01*
X103120282Y-117079482D01*
X103216536Y-116954041D01*
X103277044Y-116807962D01*
X103297682Y-116651200D01*
X103277044Y-116494438D01*
X103216536Y-116348359D01*
X103120282Y-116222918D01*
X103066796Y-116181877D01*
X103024929Y-116124539D01*
X103017500Y-116081914D01*
X103017500Y-115178000D01*
X107521918Y-115178000D01*
X107542556Y-115334762D01*
X107603064Y-115480841D01*
X107699318Y-115606282D01*
X107824759Y-115702536D01*
X107898021Y-115732882D01*
X107956993Y-115757309D01*
X107970838Y-115763044D01*
X108127600Y-115783682D01*
X108135788Y-115782604D01*
X108276174Y-115764122D01*
X108284362Y-115763044D01*
X108298208Y-115757309D01*
X108357179Y-115732882D01*
X108430441Y-115702536D01*
X108555882Y-115606282D01*
X108596923Y-115552796D01*
X108654261Y-115510929D01*
X108696886Y-115503500D01*
X111458094Y-115503500D01*
X111526215Y-115523502D01*
X111548415Y-115543926D01*
X111549250Y-115543091D01*
X111555095Y-115548936D01*
X111560118Y-115555482D01*
X111685559Y-115651736D01*
X111831638Y-115712244D01*
X111988400Y-115732882D01*
X111996588Y-115731804D01*
X112136974Y-115713322D01*
X112145162Y-115712244D01*
X112291241Y-115651736D01*
X112416682Y-115555482D01*
X112512936Y-115430041D01*
X112573444Y-115283962D01*
X112594082Y-115127200D01*
X112578250Y-115006945D01*
X112574522Y-114978626D01*
X112573444Y-114970438D01*
X112512936Y-114824359D01*
X112422795Y-114706884D01*
X112421705Y-114705464D01*
X112416682Y-114698918D01*
X112291241Y-114602664D01*
X112145162Y-114542156D01*
X111988400Y-114521518D01*
X111831638Y-114542156D01*
X111685559Y-114602664D01*
X111560118Y-114698918D01*
X111555095Y-114705464D01*
X111480097Y-114803204D01*
X111422759Y-114845071D01*
X111380134Y-114852500D01*
X108696886Y-114852500D01*
X108628765Y-114832498D01*
X108596923Y-114803204D01*
X108560905Y-114756264D01*
X108555882Y-114749718D01*
X108430441Y-114653464D01*
X108284362Y-114592956D01*
X108127600Y-114572318D01*
X107970838Y-114592956D01*
X107824759Y-114653464D01*
X107699318Y-114749718D01*
X107603064Y-114875159D01*
X107542556Y-115021238D01*
X107521918Y-115178000D01*
X103017500Y-115178000D01*
X103017500Y-113971851D01*
X103027091Y-113923633D01*
X103070684Y-113818391D01*
X103073844Y-113810762D01*
X103094482Y-113654000D01*
X103073844Y-113497238D01*
X103013336Y-113351159D01*
X102917082Y-113225718D01*
X102791641Y-113129464D01*
X102645562Y-113068956D01*
X102488800Y-113048318D01*
X102332038Y-113068956D01*
X102185959Y-113129464D01*
X102060518Y-113225718D01*
X101964264Y-113351159D01*
X101903756Y-113497238D01*
X101883118Y-113654000D01*
X87655200Y-113654000D01*
X87655200Y-110606000D01*
X102252018Y-110606000D01*
X102272656Y-110762762D01*
X102333164Y-110908841D01*
X102429418Y-111034282D01*
X102554859Y-111130536D01*
X102700938Y-111191044D01*
X102857700Y-111211682D01*
X102865888Y-111210604D01*
X103006274Y-111192122D01*
X103014462Y-111191044D01*
X103160541Y-111130536D01*
X103285982Y-111034282D01*
X103327023Y-110980796D01*
X103384361Y-110938929D01*
X103426986Y-110931500D01*
X111308290Y-110931500D01*
X111319272Y-110931980D01*
X111345820Y-110934303D01*
X111345822Y-110934303D01*
X111356807Y-110935264D01*
X111393215Y-110925508D01*
X111403942Y-110923130D01*
X111407301Y-110922538D01*
X111441045Y-110916588D01*
X111450590Y-110911077D01*
X111453866Y-110909885D01*
X111457033Y-110908408D01*
X111467684Y-110905554D01*
X111470015Y-110903922D01*
X111534695Y-110893966D01*
X111632800Y-110906882D01*
X111640988Y-110905804D01*
X111649420Y-110904694D01*
X111789562Y-110886244D01*
X111935641Y-110825736D01*
X112061082Y-110729482D01*
X112157336Y-110604041D01*
X112217844Y-110457962D01*
X112238482Y-110301200D01*
X112217844Y-110144438D01*
X112157336Y-109998359D01*
X112061082Y-109872918D01*
X111935641Y-109776664D01*
X111789562Y-109716156D01*
X111632800Y-109695518D01*
X111476038Y-109716156D01*
X111329959Y-109776664D01*
X111204518Y-109872918D01*
X111108264Y-109998359D01*
X111047756Y-110144438D01*
X111046678Y-110152626D01*
X111044266Y-110170947D01*
X111015543Y-110235874D01*
X110956278Y-110274965D01*
X110919344Y-110280500D01*
X103426986Y-110280500D01*
X103358865Y-110260498D01*
X103327023Y-110231204D01*
X103291005Y-110184264D01*
X103285982Y-110177718D01*
X103160541Y-110081464D01*
X103014462Y-110020956D01*
X102857700Y-110000318D01*
X102700938Y-110020956D01*
X102554859Y-110081464D01*
X102429418Y-110177718D01*
X102333164Y-110303159D01*
X102272656Y-110449238D01*
X102252018Y-110606000D01*
X87655200Y-110606000D01*
X87655200Y-102783000D01*
X87675202Y-102714879D01*
X87728858Y-102668386D01*
X87781200Y-102657000D01*
X127288200Y-102657000D01*
X127356321Y-102677002D01*
G37*
%TD.AperFunction*%
%TD*%
%TA.AperFunction,Conductor*%
%TO.N,GND1*%
G36*
X83787321Y-102677002D02*
G01*
X83833814Y-102730658D01*
X83845200Y-102783000D01*
X83845200Y-127520749D01*
X83825198Y-127588870D01*
X83771542Y-127635363D01*
X83719266Y-127646749D01*
X81087860Y-127648102D01*
X75665618Y-127650891D01*
X75597487Y-127630924D01*
X75550966Y-127577292D01*
X75540826Y-127507023D01*
X75570328Y-127442379D01*
X75571090Y-127441500D01*
X75577843Y-127441500D01*
X75577843Y-124250500D01*
X66712557Y-124250500D01*
X66712557Y-127441500D01*
X66717876Y-127441500D01*
X66718885Y-127444938D01*
X66750442Y-127494040D01*
X66750442Y-127565036D01*
X66712059Y-127624763D01*
X66647479Y-127654256D01*
X66629611Y-127655539D01*
X65862265Y-127655934D01*
X65794134Y-127635967D01*
X65747613Y-127582335D01*
X65736200Y-127529934D01*
X65736200Y-120845607D01*
X70765136Y-120845607D01*
X70767990Y-120856256D01*
X70774891Y-120882010D01*
X70777270Y-120892742D01*
X70783812Y-120929845D01*
X70789323Y-120939390D01*
X70790515Y-120942666D01*
X70791992Y-120945834D01*
X70794846Y-120956484D01*
X70801170Y-120965515D01*
X70816455Y-120987344D01*
X70822361Y-120996615D01*
X70829669Y-121009272D01*
X70841206Y-121029255D01*
X70870082Y-121053485D01*
X70878185Y-121060911D01*
X71020491Y-121203217D01*
X71054517Y-121265529D01*
X71056318Y-121308757D01*
X71047518Y-121375600D01*
X71068156Y-121532362D01*
X71128664Y-121678441D01*
X71224918Y-121803882D01*
X71350359Y-121900136D01*
X71496438Y-121960644D01*
X71653200Y-121981282D01*
X71661388Y-121980204D01*
X71801774Y-121961722D01*
X71809962Y-121960644D01*
X71956041Y-121900136D01*
X72081482Y-121803882D01*
X72177736Y-121678441D01*
X72238244Y-121532362D01*
X72258882Y-121375600D01*
X72238244Y-121218838D01*
X72177736Y-121072759D01*
X72081482Y-120947318D01*
X71956041Y-120851064D01*
X71809962Y-120790556D01*
X71653200Y-120769918D01*
X71586357Y-120778718D01*
X71516210Y-120767779D01*
X71480817Y-120742891D01*
X71456805Y-120718879D01*
X71422779Y-120656567D01*
X71419900Y-120629784D01*
X71419900Y-119557105D01*
X71754231Y-119557105D01*
X71756005Y-119564492D01*
X71756005Y-119564496D01*
X71773104Y-119635716D01*
X71793812Y-119721968D01*
X71797293Y-119728712D01*
X71797294Y-119728715D01*
X71831557Y-119795098D01*
X71871575Y-119872631D01*
X71876567Y-119878353D01*
X71876568Y-119878355D01*
X71898686Y-119903709D01*
X71983031Y-120000396D01*
X71989245Y-120004763D01*
X72115530Y-120093518D01*
X72115532Y-120093519D01*
X72121747Y-120097887D01*
X72279713Y-120159476D01*
X72287246Y-120160468D01*
X72287247Y-120160468D01*
X72404939Y-120175962D01*
X72409026Y-120176500D01*
X73597716Y-120176500D01*
X73723520Y-120161276D01*
X73882123Y-120101345D01*
X74021851Y-120005312D01*
X74036559Y-119988804D01*
X74129588Y-119884392D01*
X74129590Y-119884388D01*
X74134640Y-119878721D01*
X74141438Y-119865883D01*
X74184731Y-119784116D01*
X74213976Y-119728881D01*
X74255281Y-119564441D01*
X74255349Y-119551576D01*
X74256129Y-119402495D01*
X74256169Y-119394895D01*
X74253602Y-119384200D01*
X74218361Y-119237417D01*
X74216588Y-119230032D01*
X74138825Y-119079369D01*
X74133513Y-119073279D01*
X74032363Y-118957329D01*
X74027369Y-118951604D01*
X73968849Y-118910475D01*
X73894870Y-118858482D01*
X73894868Y-118858481D01*
X73888653Y-118854113D01*
X73730687Y-118792524D01*
X73723154Y-118791532D01*
X73723153Y-118791532D01*
X73605461Y-118776038D01*
X73605460Y-118776038D01*
X73601374Y-118775500D01*
X72840682Y-118775500D01*
X72772561Y-118755498D01*
X72726068Y-118701842D01*
X72715964Y-118631568D01*
X72745458Y-118566988D01*
X72766277Y-118549798D01*
X72765433Y-118548698D01*
X72879101Y-118461477D01*
X72885651Y-118456451D01*
X72977898Y-118336233D01*
X73035887Y-118196236D01*
X73055666Y-118046000D01*
X73035887Y-117895764D01*
X72977898Y-117755767D01*
X72885651Y-117635549D01*
X72765433Y-117543302D01*
X72625436Y-117485313D01*
X72512920Y-117470500D01*
X72437480Y-117470500D01*
X72324964Y-117485313D01*
X72184967Y-117543302D01*
X72064749Y-117635549D01*
X71972502Y-117755767D01*
X71914513Y-117895764D01*
X71894734Y-118046000D01*
X71914513Y-118196236D01*
X71972502Y-118336233D01*
X72064749Y-118456451D01*
X72184967Y-118548698D01*
X72245128Y-118573617D01*
X72300407Y-118618166D01*
X72322828Y-118685529D01*
X72305269Y-118754321D01*
X72253307Y-118802699D01*
X72241445Y-118807892D01*
X72128277Y-118850655D01*
X71988549Y-118946688D01*
X71983497Y-118952358D01*
X71983496Y-118952359D01*
X71880812Y-119067608D01*
X71880810Y-119067612D01*
X71875760Y-119073279D01*
X71872208Y-119079988D01*
X71872207Y-119079989D01*
X71839946Y-119140920D01*
X71796424Y-119223119D01*
X71755119Y-119387559D01*
X71755079Y-119395157D01*
X71755079Y-119395159D01*
X71754675Y-119472332D01*
X71754231Y-119557105D01*
X71419900Y-119557105D01*
X71419900Y-115263416D01*
X71439902Y-115195295D01*
X71456805Y-115174321D01*
X72090417Y-114540709D01*
X72152729Y-114506683D01*
X72195957Y-114504882D01*
X72262800Y-114513682D01*
X72270988Y-114512604D01*
X72411374Y-114494122D01*
X72419562Y-114493044D01*
X72565641Y-114432536D01*
X72691082Y-114336282D01*
X72787336Y-114210841D01*
X72847844Y-114064762D01*
X72868482Y-113908000D01*
X72847844Y-113751238D01*
X72787336Y-113605159D01*
X72691082Y-113479718D01*
X72565641Y-113383464D01*
X72419562Y-113322956D01*
X72262800Y-113302318D01*
X72106038Y-113322956D01*
X71959959Y-113383464D01*
X71834518Y-113479718D01*
X71738264Y-113605159D01*
X71677756Y-113751238D01*
X71657118Y-113908000D01*
X71658196Y-113916188D01*
X71665918Y-113974842D01*
X71654979Y-114044990D01*
X71630091Y-114080383D01*
X70878185Y-114832289D01*
X70870081Y-114839716D01*
X70841206Y-114863945D01*
X70835693Y-114873494D01*
X70822361Y-114896585D01*
X70816455Y-114905856D01*
X70794846Y-114936716D01*
X70791992Y-114947366D01*
X70790515Y-114950534D01*
X70789323Y-114953810D01*
X70783812Y-114963355D01*
X70777862Y-114997099D01*
X70777270Y-115000458D01*
X70774892Y-115011185D01*
X70765136Y-115047593D01*
X70766097Y-115058578D01*
X70766097Y-115058580D01*
X70768420Y-115085128D01*
X70768900Y-115096110D01*
X70768900Y-120797090D01*
X70768420Y-120808072D01*
X70765136Y-120845607D01*
X65736200Y-120845607D01*
X65736200Y-119557105D01*
X67824231Y-119557105D01*
X67826005Y-119564492D01*
X67826005Y-119564496D01*
X67843104Y-119635716D01*
X67863812Y-119721968D01*
X67867293Y-119728712D01*
X67867294Y-119728715D01*
X67901557Y-119795098D01*
X67941575Y-119872631D01*
X67946567Y-119878353D01*
X67946568Y-119878355D01*
X67968686Y-119903709D01*
X68053031Y-120000396D01*
X68059245Y-120004763D01*
X68185530Y-120093518D01*
X68185532Y-120093519D01*
X68191747Y-120097887D01*
X68349713Y-120159476D01*
X68357246Y-120160468D01*
X68357247Y-120160468D01*
X68474939Y-120175962D01*
X68479026Y-120176500D01*
X69167716Y-120176500D01*
X69293520Y-120161276D01*
X69452123Y-120101345D01*
X69591851Y-120005312D01*
X69606559Y-119988804D01*
X69699588Y-119884392D01*
X69699590Y-119884388D01*
X69704640Y-119878721D01*
X69711438Y-119865883D01*
X69754731Y-119784116D01*
X69783976Y-119728881D01*
X69825281Y-119564441D01*
X69825349Y-119551576D01*
X69826129Y-119402495D01*
X69826169Y-119394895D01*
X69823602Y-119384200D01*
X69788361Y-119237417D01*
X69786588Y-119230032D01*
X69708825Y-119079369D01*
X69703513Y-119073279D01*
X69602363Y-118957329D01*
X69597369Y-118951604D01*
X69538849Y-118910475D01*
X69464870Y-118858482D01*
X69464868Y-118858481D01*
X69458653Y-118854113D01*
X69300687Y-118792524D01*
X69293154Y-118791532D01*
X69293153Y-118791532D01*
X69175461Y-118776038D01*
X69175460Y-118776038D01*
X69171374Y-118775500D01*
X68482684Y-118775500D01*
X68356880Y-118790724D01*
X68198277Y-118850655D01*
X68058549Y-118946688D01*
X68053497Y-118952358D01*
X68053496Y-118952359D01*
X67950812Y-119067608D01*
X67950810Y-119067612D01*
X67945760Y-119073279D01*
X67942208Y-119079988D01*
X67942207Y-119079989D01*
X67909946Y-119140920D01*
X67866424Y-119223119D01*
X67825119Y-119387559D01*
X67825079Y-119395157D01*
X67825079Y-119395159D01*
X67824675Y-119472332D01*
X67824231Y-119557105D01*
X65736200Y-119557105D01*
X65736200Y-110917105D01*
X67824231Y-110917105D01*
X67826005Y-110924492D01*
X67826005Y-110924496D01*
X67860420Y-111067838D01*
X67863812Y-111081968D01*
X67867293Y-111088712D01*
X67867294Y-111088715D01*
X67892272Y-111137109D01*
X67941575Y-111232631D01*
X67946567Y-111238353D01*
X67946568Y-111238355D01*
X67951837Y-111244395D01*
X68053031Y-111360396D01*
X68059245Y-111364763D01*
X68185530Y-111453518D01*
X68185532Y-111453519D01*
X68191747Y-111457887D01*
X68349713Y-111519476D01*
X68357246Y-111520468D01*
X68357247Y-111520468D01*
X68464882Y-111534638D01*
X68479026Y-111536500D01*
X69167716Y-111536500D01*
X69293520Y-111521276D01*
X69452123Y-111461345D01*
X69591851Y-111365312D01*
X69646860Y-111303572D01*
X69699588Y-111244392D01*
X69699590Y-111244388D01*
X69704640Y-111238721D01*
X69711438Y-111225883D01*
X69758441Y-111137109D01*
X69783976Y-111088881D01*
X69825281Y-110924441D01*
X69825319Y-110917105D01*
X71754231Y-110917105D01*
X71756005Y-110924492D01*
X71756005Y-110924496D01*
X71790420Y-111067838D01*
X71793812Y-111081968D01*
X71797293Y-111088712D01*
X71797294Y-111088715D01*
X71822272Y-111137109D01*
X71871575Y-111232631D01*
X71876567Y-111238353D01*
X71876568Y-111238355D01*
X71881837Y-111244395D01*
X71983031Y-111360396D01*
X71989245Y-111364763D01*
X72115530Y-111453518D01*
X72115532Y-111453519D01*
X72121747Y-111457887D01*
X72128823Y-111460646D01*
X72128827Y-111460648D01*
X72242112Y-111504816D01*
X72298314Y-111548197D01*
X72322140Y-111615076D01*
X72306026Y-111684220D01*
X72255089Y-111733676D01*
X72244567Y-111738615D01*
X72184967Y-111763302D01*
X72064749Y-111855549D01*
X71972502Y-111975767D01*
X71914513Y-112115764D01*
X71894734Y-112266000D01*
X71914513Y-112416236D01*
X71972502Y-112556233D01*
X72064749Y-112676451D01*
X72184967Y-112768698D01*
X72324964Y-112826687D01*
X72437480Y-112841500D01*
X72512920Y-112841500D01*
X72625436Y-112826687D01*
X72765433Y-112768698D01*
X72885651Y-112676451D01*
X72977898Y-112556233D01*
X73035887Y-112416236D01*
X73055666Y-112266000D01*
X73035887Y-112115764D01*
X72977898Y-111975767D01*
X72885651Y-111855549D01*
X72765433Y-111763302D01*
X72767359Y-111760792D01*
X72728690Y-111720239D01*
X72715252Y-111650526D01*
X72741638Y-111584614D01*
X72799469Y-111543431D01*
X72840682Y-111536500D01*
X73597716Y-111536500D01*
X73723520Y-111521276D01*
X73882123Y-111461345D01*
X74021851Y-111365312D01*
X74134640Y-111238721D01*
X74138194Y-111232009D01*
X74138437Y-111231659D01*
X74193741Y-111187139D01*
X74264335Y-111179585D01*
X74327805Y-111211397D01*
X74364002Y-111272473D01*
X74367900Y-111303572D01*
X74367900Y-115790490D01*
X74367420Y-115801472D01*
X74364136Y-115839007D01*
X74366990Y-115849656D01*
X74373891Y-115875410D01*
X74376270Y-115886142D01*
X74382812Y-115923245D01*
X74388323Y-115932790D01*
X74389515Y-115936066D01*
X74390992Y-115939234D01*
X74393846Y-115949884D01*
X74415455Y-115980744D01*
X74421361Y-115990015D01*
X74423280Y-115993338D01*
X74440206Y-116022655D01*
X74448651Y-116029741D01*
X74469082Y-116046885D01*
X74477185Y-116054311D01*
X77634691Y-119211818D01*
X77668717Y-119274130D01*
X77670518Y-119317358D01*
X77661718Y-119384200D01*
X77682356Y-119540962D01*
X77742864Y-119687041D01*
X77839118Y-119812482D01*
X77964559Y-119908736D01*
X78110638Y-119969244D01*
X78267400Y-119989882D01*
X78275588Y-119988804D01*
X78415974Y-119970322D01*
X78424162Y-119969244D01*
X78570241Y-119908736D01*
X78695682Y-119812482D01*
X78791936Y-119687041D01*
X78825150Y-119606856D01*
X78869697Y-119551576D01*
X78937060Y-119529155D01*
X79005852Y-119546713D01*
X79030653Y-119565979D01*
X79186191Y-119721518D01*
X79337996Y-119873323D01*
X79372021Y-119935635D01*
X79374900Y-119962418D01*
X79374900Y-120830984D01*
X79354898Y-120899105D01*
X79337995Y-120920079D01*
X77028883Y-123229191D01*
X76966571Y-123263217D01*
X76923343Y-123265018D01*
X76856500Y-123256218D01*
X76699738Y-123276856D01*
X76553659Y-123337364D01*
X76428218Y-123433618D01*
X76331964Y-123559059D01*
X76271456Y-123705138D01*
X76250818Y-123861900D01*
X76271456Y-124018662D01*
X76331964Y-124164741D01*
X76428218Y-124290182D01*
X76553659Y-124386436D01*
X76699738Y-124446944D01*
X76856500Y-124467582D01*
X76864688Y-124466504D01*
X77005074Y-124448022D01*
X77013262Y-124446944D01*
X77159341Y-124386436D01*
X77284782Y-124290182D01*
X77381036Y-124164741D01*
X77441544Y-124018662D01*
X77462182Y-123861900D01*
X77453382Y-123795057D01*
X77464321Y-123724910D01*
X77489209Y-123689517D01*
X79916615Y-121262111D01*
X79924719Y-121254684D01*
X79945149Y-121237541D01*
X79953594Y-121230455D01*
X79960301Y-121218838D01*
X79972439Y-121197815D01*
X79978345Y-121188544D01*
X79993630Y-121166715D01*
X79999954Y-121157684D01*
X80002808Y-121147034D01*
X80004285Y-121143866D01*
X80005477Y-121140590D01*
X80010988Y-121131045D01*
X80017530Y-121093942D01*
X80019909Y-121083210D01*
X80020665Y-121080389D01*
X80029664Y-121046807D01*
X80028129Y-121029255D01*
X80026380Y-121009272D01*
X80025900Y-120998290D01*
X80025900Y-119795098D01*
X80026380Y-119784116D01*
X80028702Y-119757580D01*
X80028702Y-119757578D01*
X80029663Y-119746593D01*
X80026715Y-119735589D01*
X80019912Y-119710204D01*
X80017532Y-119699469D01*
X80012902Y-119673212D01*
X80010988Y-119662355D01*
X80005476Y-119652807D01*
X80004283Y-119649530D01*
X80002806Y-119646362D01*
X79999953Y-119635716D01*
X79978342Y-119604852D01*
X79972438Y-119595584D01*
X79953594Y-119562945D01*
X79924731Y-119538726D01*
X79916627Y-119531300D01*
X76707809Y-116322483D01*
X76673783Y-116260171D01*
X76671982Y-116216942D01*
X76679704Y-116158288D01*
X76680782Y-116150100D01*
X76664004Y-116022655D01*
X76661222Y-116001526D01*
X76660144Y-115993338D01*
X76656796Y-115985254D01*
X76649781Y-115968320D01*
X76599636Y-115847259D01*
X76503382Y-115721818D01*
X76490951Y-115712279D01*
X76442855Y-115675374D01*
X76377941Y-115625564D01*
X76231862Y-115565056D01*
X76075100Y-115544418D01*
X75918338Y-115565056D01*
X75772259Y-115625564D01*
X75707345Y-115675374D01*
X75659250Y-115712279D01*
X75646818Y-115721818D01*
X75550564Y-115847259D01*
X75547404Y-115854888D01*
X75547401Y-115854893D01*
X75517349Y-115927444D01*
X75472801Y-115982725D01*
X75405437Y-116005145D01*
X75336646Y-115987586D01*
X75311846Y-115968320D01*
X75055805Y-115712279D01*
X75021779Y-115649967D01*
X75018900Y-115623184D01*
X75018900Y-112694759D01*
X75038902Y-112626638D01*
X75092558Y-112580145D01*
X75162832Y-112570041D01*
X75221604Y-112594796D01*
X75299459Y-112654536D01*
X75445538Y-112715044D01*
X75602300Y-112735682D01*
X75610488Y-112734604D01*
X75750874Y-112716122D01*
X75759062Y-112715044D01*
X75905141Y-112654536D01*
X76030582Y-112558282D01*
X76126836Y-112432841D01*
X76187344Y-112286762D01*
X76207982Y-112130000D01*
X76187344Y-111973238D01*
X76184184Y-111965610D01*
X76184183Y-111965605D01*
X76177223Y-111948802D01*
X76169634Y-111878212D01*
X76204537Y-111811490D01*
X76878918Y-111137109D01*
X76941230Y-111103083D01*
X76984458Y-111101282D01*
X77051300Y-111110082D01*
X77059488Y-111109004D01*
X77199874Y-111090522D01*
X77208062Y-111089444D01*
X77354141Y-111028936D01*
X77479582Y-110932682D01*
X77575836Y-110807241D01*
X77636344Y-110661162D01*
X77656982Y-110504400D01*
X77636344Y-110347638D01*
X77575836Y-110201559D01*
X77479582Y-110076118D01*
X77354141Y-109979864D01*
X77208062Y-109919356D01*
X77051300Y-109898718D01*
X76894538Y-109919356D01*
X76748459Y-109979864D01*
X76623018Y-110076118D01*
X76526764Y-110201559D01*
X76466256Y-110347638D01*
X76445618Y-110504400D01*
X76454418Y-110571241D01*
X76443479Y-110641388D01*
X76418592Y-110676781D01*
X75596563Y-111498811D01*
X75534250Y-111532836D01*
X75523917Y-111534637D01*
X75465481Y-111542330D01*
X75457122Y-111543431D01*
X75445538Y-111544956D01*
X75437909Y-111548116D01*
X75427247Y-111552532D01*
X75299459Y-111605464D01*
X75240733Y-111650526D01*
X75221604Y-111665204D01*
X75155383Y-111690804D01*
X75085835Y-111676539D01*
X75035039Y-111626938D01*
X75018900Y-111565241D01*
X75018900Y-108210016D01*
X75038902Y-108141895D01*
X75055805Y-108120921D01*
X77559022Y-105617705D01*
X77567126Y-105610278D01*
X77587549Y-105593141D01*
X77595994Y-105586055D01*
X77614839Y-105553415D01*
X77620743Y-105544147D01*
X77636031Y-105522313D01*
X77642353Y-105513284D01*
X77645206Y-105502638D01*
X77646683Y-105499470D01*
X77647876Y-105496193D01*
X77653388Y-105486645D01*
X77659932Y-105449531D01*
X77662312Y-105438796D01*
X77669210Y-105413054D01*
X77672063Y-105402407D01*
X77668779Y-105364869D01*
X77668300Y-105353888D01*
X77668300Y-104723686D01*
X77688302Y-104655565D01*
X77717596Y-104623723D01*
X77764536Y-104587705D01*
X77771082Y-104582682D01*
X77867336Y-104457241D01*
X77927844Y-104311162D01*
X77948482Y-104154400D01*
X77927844Y-103997638D01*
X77867336Y-103851559D01*
X77771082Y-103726118D01*
X77645641Y-103629864D01*
X77499562Y-103569356D01*
X77342800Y-103548718D01*
X77186038Y-103569356D01*
X77039959Y-103629864D01*
X76914518Y-103726118D01*
X76818264Y-103851559D01*
X76757756Y-103997638D01*
X76737118Y-104154400D01*
X76757756Y-104311162D01*
X76818264Y-104457241D01*
X76914518Y-104582682D01*
X76921064Y-104587705D01*
X76968004Y-104623723D01*
X77009871Y-104681061D01*
X77017300Y-104723686D01*
X77017300Y-105186583D01*
X76997298Y-105254704D01*
X76980395Y-105275678D01*
X74477184Y-107778890D01*
X74469081Y-107786316D01*
X74440206Y-107810545D01*
X74434693Y-107820094D01*
X74421361Y-107843185D01*
X74415455Y-107852456D01*
X74393846Y-107883316D01*
X74390992Y-107893966D01*
X74389515Y-107897134D01*
X74388323Y-107900410D01*
X74382812Y-107909955D01*
X74376862Y-107943699D01*
X74376270Y-107947058D01*
X74373892Y-107957785D01*
X74364136Y-107994193D01*
X74365097Y-108005178D01*
X74365097Y-108005180D01*
X74367420Y-108031728D01*
X74367900Y-108042710D01*
X74367900Y-110368497D01*
X74347898Y-110436618D01*
X74294242Y-110483111D01*
X74223968Y-110493215D01*
X74159388Y-110463721D01*
X74140337Y-110442299D01*
X74138825Y-110439369D01*
X74027369Y-110311604D01*
X73968849Y-110270475D01*
X73894870Y-110218482D01*
X73894868Y-110218481D01*
X73888653Y-110214113D01*
X73730687Y-110152524D01*
X73723154Y-110151532D01*
X73723153Y-110151532D01*
X73605461Y-110136038D01*
X73605460Y-110136038D01*
X73601374Y-110135500D01*
X72412684Y-110135500D01*
X72286880Y-110150724D01*
X72128277Y-110210655D01*
X71988549Y-110306688D01*
X71983497Y-110312358D01*
X71983496Y-110312359D01*
X71880812Y-110427608D01*
X71880810Y-110427612D01*
X71875760Y-110433279D01*
X71872208Y-110439988D01*
X71872207Y-110439989D01*
X71859642Y-110463721D01*
X71796424Y-110583119D01*
X71755119Y-110747559D01*
X71754231Y-110917105D01*
X69825319Y-110917105D01*
X69826169Y-110754895D01*
X69801700Y-110652974D01*
X69788361Y-110597417D01*
X69786588Y-110590032D01*
X69776889Y-110571239D01*
X69712308Y-110446117D01*
X69712308Y-110446116D01*
X69708825Y-110439369D01*
X69703513Y-110433279D01*
X69602363Y-110317329D01*
X69597369Y-110311604D01*
X69538849Y-110270475D01*
X69464870Y-110218482D01*
X69464868Y-110218481D01*
X69458653Y-110214113D01*
X69300687Y-110152524D01*
X69293154Y-110151532D01*
X69293153Y-110151532D01*
X69175461Y-110136038D01*
X69175460Y-110136038D01*
X69171374Y-110135500D01*
X68482684Y-110135500D01*
X68356880Y-110150724D01*
X68198277Y-110210655D01*
X68058549Y-110306688D01*
X68053497Y-110312358D01*
X68053496Y-110312359D01*
X67950812Y-110427608D01*
X67950810Y-110427612D01*
X67945760Y-110433279D01*
X67942208Y-110439988D01*
X67942207Y-110439989D01*
X67929642Y-110463721D01*
X67866424Y-110583119D01*
X67825119Y-110747559D01*
X67824231Y-110917105D01*
X65736200Y-110917105D01*
X65736200Y-102783000D01*
X65756202Y-102714879D01*
X65809858Y-102668386D01*
X65862200Y-102657000D01*
X83719200Y-102657000D01*
X83787321Y-102677002D01*
G37*
%TD.AperFunction*%
%TD*%
M02*
