%TF.GenerationSoftware,KiCad,Pcbnew,6.0.11-2627ca5db0~126~ubuntu20.04.1*%
%TF.CreationDate,2024-02-25T19:14:14-05:00*%
%TF.ProjectId,,58585858-5858-4585-9858-585858585858,rev?*%
%TF.SameCoordinates,Original*%
%TF.FileFunction,Legend,Top*%
%TF.FilePolarity,Positive*%
%FSLAX46Y46*%
G04 Gerber Fmt 4.6, Leading zero omitted, Abs format (unit mm)*
G04 Created by KiCad (PCBNEW 6.0.11-2627ca5db0~126~ubuntu20.04.1) date 2024-02-25 19:14:14*
%MOMM*%
%LPD*%
G01*
G04 APERTURE LIST*
%ADD10C,0.300000*%
%ADD11C,0.250000*%
%TA.AperFunction,Profile*%
%ADD12C,0.100000*%
%TD*%
%ADD13C,0.150000*%
%ADD14C,0.120000*%
G04 APERTURE END LIST*
D10*
X118934457Y-119254000D02*
X118791600Y-119182571D01*
X118577314Y-119182571D01*
X118363028Y-119254000D01*
X118220171Y-119396857D01*
X118148742Y-119539714D01*
X118077314Y-119825428D01*
X118077314Y-120039714D01*
X118148742Y-120325428D01*
X118220171Y-120468285D01*
X118363028Y-120611142D01*
X118577314Y-120682571D01*
X118720171Y-120682571D01*
X118934457Y-120611142D01*
X119005885Y-120539714D01*
X119005885Y-120039714D01*
X118720171Y-120039714D01*
X118648742Y-112683257D02*
X118863028Y-112754685D01*
X118934457Y-112826114D01*
X119005885Y-112968971D01*
X119005885Y-113183257D01*
X118934457Y-113326114D01*
X118863028Y-113397542D01*
X118720171Y-113468971D01*
X118148742Y-113468971D01*
X118148742Y-111968971D01*
X118648742Y-111968971D01*
X118791600Y-112040400D01*
X118863028Y-112111828D01*
X118934457Y-112254685D01*
X118934457Y-112397542D01*
X118863028Y-112540400D01*
X118791600Y-112611828D01*
X118648742Y-112683257D01*
X118148742Y-112683257D01*
D11*
X67395200Y-126524571D02*
X67395200Y-125024571D01*
X67395200Y-125738857D02*
X68252342Y-125738857D01*
X68252342Y-126524571D02*
X68252342Y-125024571D01*
X68966628Y-126524571D02*
X68966628Y-125024571D01*
X70395200Y-126524571D02*
X69680914Y-126524571D01*
X69680914Y-125024571D01*
X70895200Y-125953142D02*
X72038057Y-125953142D01*
X73038057Y-125024571D02*
X73180914Y-125024571D01*
X73323771Y-125096000D01*
X73395200Y-125167428D01*
X73466628Y-125310285D01*
X73538057Y-125596000D01*
X73538057Y-125953142D01*
X73466628Y-126238857D01*
X73395200Y-126381714D01*
X73323771Y-126453142D01*
X73180914Y-126524571D01*
X73038057Y-126524571D01*
X72895200Y-126453142D01*
X72823771Y-126381714D01*
X72752342Y-126238857D01*
X72680914Y-125953142D01*
X72680914Y-125596000D01*
X72752342Y-125310285D01*
X72823771Y-125167428D01*
X72895200Y-125096000D01*
X73038057Y-125024571D01*
X74966628Y-126524571D02*
X74109485Y-126524571D01*
X74538057Y-126524571D02*
X74538057Y-125024571D01*
X74395200Y-125238857D01*
X74252342Y-125381714D01*
X74109485Y-125453142D01*
D10*
X118184457Y-116494800D02*
X118898742Y-116494800D01*
X118041600Y-116923371D02*
X118541600Y-115423371D01*
X119041600Y-116923371D01*
D12*
X65735200Y-102656000D02*
X127415200Y-102656000D01*
X127415200Y-133156000D02*
X127415200Y-102656000D01*
X65735200Y-102656000D02*
X65735200Y-133156000D01*
X65735200Y-133156000D02*
X127415200Y-133156000D01*
D13*
X65885200Y-127656000D02*
X127215200Y-127656000D01*
D10*
X118934457Y-88754000D02*
X118791600Y-88682571D01*
X118577314Y-88682571D01*
X118363028Y-88754000D01*
X118220171Y-88896857D01*
X118148742Y-89039714D01*
X118077314Y-89325428D01*
X118077314Y-89539714D01*
X118148742Y-89825428D01*
X118220171Y-89968285D01*
X118363028Y-90111142D01*
X118577314Y-90182571D01*
X118720171Y-90182571D01*
X118934457Y-90111142D01*
X119005885Y-90039714D01*
X119005885Y-89539714D01*
X118720171Y-89539714D01*
X118648742Y-82183257D02*
X118863028Y-82254685D01*
X118934457Y-82326114D01*
X119005885Y-82468971D01*
X119005885Y-82683257D01*
X118934457Y-82826114D01*
X118863028Y-82897542D01*
X118720171Y-82968971D01*
X118148742Y-82968971D01*
X118148742Y-81468971D01*
X118648742Y-81468971D01*
X118791600Y-81540400D01*
X118863028Y-81611828D01*
X118934457Y-81754685D01*
X118934457Y-81897542D01*
X118863028Y-82040400D01*
X118791600Y-82111828D01*
X118648742Y-82183257D01*
X118148742Y-82183257D01*
D11*
X67395200Y-96024571D02*
X67395200Y-94524571D01*
X67395200Y-95238857D02*
X68252342Y-95238857D01*
X68252342Y-96024571D02*
X68252342Y-94524571D01*
X68966628Y-96024571D02*
X68966628Y-94524571D01*
X70395200Y-96024571D02*
X69680914Y-96024571D01*
X69680914Y-94524571D01*
X70895200Y-95453142D02*
X72038057Y-95453142D01*
X73038057Y-94524571D02*
X73180914Y-94524571D01*
X73323771Y-94596000D01*
X73395200Y-94667428D01*
X73466628Y-94810285D01*
X73538057Y-95096000D01*
X73538057Y-95453142D01*
X73466628Y-95738857D01*
X73395200Y-95881714D01*
X73323771Y-95953142D01*
X73180914Y-96024571D01*
X73038057Y-96024571D01*
X72895200Y-95953142D01*
X72823771Y-95881714D01*
X72752342Y-95738857D01*
X72680914Y-95453142D01*
X72680914Y-95096000D01*
X72752342Y-94810285D01*
X72823771Y-94667428D01*
X72895200Y-94596000D01*
X73038057Y-94524571D01*
X74966628Y-96024571D02*
X74109485Y-96024571D01*
X74538057Y-96024571D02*
X74538057Y-94524571D01*
X74395200Y-94738857D01*
X74252342Y-94881714D01*
X74109485Y-94953142D01*
D10*
X118184457Y-85994800D02*
X118898742Y-85994800D01*
X118041600Y-86423371D02*
X118541600Y-84923371D01*
X119041600Y-86423371D01*
D12*
X65735200Y-72156000D02*
X127415200Y-72156000D01*
X127415200Y-102656000D02*
X127415200Y-72156000D01*
X65735200Y-72156000D02*
X65735200Y-102656000D01*
X65735200Y-102656000D02*
X127415200Y-102656000D01*
D13*
X65885200Y-97156000D02*
X127215200Y-97156000D01*
X65885200Y-66656000D02*
X127215200Y-66656000D01*
D12*
X65735200Y-72156000D02*
X127415200Y-72156000D01*
X65735200Y-41656000D02*
X65735200Y-72156000D01*
X127415200Y-72156000D02*
X127415200Y-41656000D01*
X65735200Y-41656000D02*
X127415200Y-41656000D01*
D10*
X118184457Y-55494800D02*
X118898742Y-55494800D01*
X118041600Y-55923371D02*
X118541600Y-54423371D01*
X119041600Y-55923371D01*
D11*
X67395200Y-65524571D02*
X67395200Y-64024571D01*
X67395200Y-64738857D02*
X68252342Y-64738857D01*
X68252342Y-65524571D02*
X68252342Y-64024571D01*
X68966628Y-65524571D02*
X68966628Y-64024571D01*
X70395200Y-65524571D02*
X69680914Y-65524571D01*
X69680914Y-64024571D01*
X70895200Y-64953142D02*
X72038057Y-64953142D01*
X73038057Y-64024571D02*
X73180914Y-64024571D01*
X73323771Y-64096000D01*
X73395200Y-64167428D01*
X73466628Y-64310285D01*
X73538057Y-64596000D01*
X73538057Y-64953142D01*
X73466628Y-65238857D01*
X73395200Y-65381714D01*
X73323771Y-65453142D01*
X73180914Y-65524571D01*
X73038057Y-65524571D01*
X72895200Y-65453142D01*
X72823771Y-65381714D01*
X72752342Y-65238857D01*
X72680914Y-64953142D01*
X72680914Y-64596000D01*
X72752342Y-64310285D01*
X72823771Y-64167428D01*
X72895200Y-64096000D01*
X73038057Y-64024571D01*
X74966628Y-65524571D02*
X74109485Y-65524571D01*
X74538057Y-65524571D02*
X74538057Y-64024571D01*
X74395200Y-64238857D01*
X74252342Y-64381714D01*
X74109485Y-64453142D01*
D10*
X118648742Y-51683257D02*
X118863028Y-51754685D01*
X118934457Y-51826114D01*
X119005885Y-51968971D01*
X119005885Y-52183257D01*
X118934457Y-52326114D01*
X118863028Y-52397542D01*
X118720171Y-52468971D01*
X118148742Y-52468971D01*
X118148742Y-50968971D01*
X118648742Y-50968971D01*
X118791600Y-51040400D01*
X118863028Y-51111828D01*
X118934457Y-51254685D01*
X118934457Y-51397542D01*
X118863028Y-51540400D01*
X118791600Y-51611828D01*
X118648742Y-51683257D01*
X118148742Y-51683257D01*
X118934457Y-58254000D02*
X118791600Y-58182571D01*
X118577314Y-58182571D01*
X118363028Y-58254000D01*
X118220171Y-58396857D01*
X118148742Y-58539714D01*
X118077314Y-58825428D01*
X118077314Y-59039714D01*
X118148742Y-59325428D01*
X118220171Y-59468285D01*
X118363028Y-59611142D01*
X118577314Y-59682571D01*
X118720171Y-59682571D01*
X118934457Y-59611142D01*
X119005885Y-59539714D01*
X119005885Y-59039714D01*
X118720171Y-59039714D01*
D13*
%TO.C,JP3*%
X119892666Y-108991580D02*
X119892666Y-109705866D01*
X119845047Y-109848723D01*
X119749809Y-109943961D01*
X119606952Y-109991580D01*
X119511714Y-109991580D01*
X120368857Y-109991580D02*
X120368857Y-108991580D01*
X120749809Y-108991580D01*
X120845047Y-109039200D01*
X120892666Y-109086819D01*
X120940285Y-109182057D01*
X120940285Y-109324914D01*
X120892666Y-109420152D01*
X120845047Y-109467771D01*
X120749809Y-109515390D01*
X120368857Y-109515390D01*
X121273619Y-108991580D02*
X121892666Y-108991580D01*
X121559333Y-109372533D01*
X121702190Y-109372533D01*
X121797428Y-109420152D01*
X121845047Y-109467771D01*
X121892666Y-109563009D01*
X121892666Y-109801104D01*
X121845047Y-109896342D01*
X121797428Y-109943961D01*
X121702190Y-109991580D01*
X121416476Y-109991580D01*
X121321238Y-109943961D01*
X121273619Y-109896342D01*
%TO.C,U2*%
X107111695Y-119202380D02*
X107111695Y-120011904D01*
X107159314Y-120107142D01*
X107206933Y-120154761D01*
X107302171Y-120202380D01*
X107492647Y-120202380D01*
X107587885Y-120154761D01*
X107635504Y-120107142D01*
X107683123Y-120011904D01*
X107683123Y-119202380D01*
X108111695Y-119297619D02*
X108159314Y-119250000D01*
X108254552Y-119202380D01*
X108492647Y-119202380D01*
X108587885Y-119250000D01*
X108635504Y-119297619D01*
X108683123Y-119392857D01*
X108683123Y-119488095D01*
X108635504Y-119630952D01*
X108064076Y-120202380D01*
X108683123Y-120202380D01*
%TO.C,D3*%
X111961504Y-119694780D02*
X111961504Y-118694780D01*
X112199600Y-118694780D01*
X112342457Y-118742400D01*
X112437695Y-118837638D01*
X112485314Y-118932876D01*
X112532933Y-119123352D01*
X112532933Y-119266209D01*
X112485314Y-119456685D01*
X112437695Y-119551923D01*
X112342457Y-119647161D01*
X112199600Y-119694780D01*
X111961504Y-119694780D01*
X112866266Y-118694780D02*
X113485314Y-118694780D01*
X113151980Y-119075733D01*
X113294838Y-119075733D01*
X113390076Y-119123352D01*
X113437695Y-119170971D01*
X113485314Y-119266209D01*
X113485314Y-119504304D01*
X113437695Y-119599542D01*
X113390076Y-119647161D01*
X113294838Y-119694780D01*
X113009123Y-119694780D01*
X112913885Y-119647161D01*
X112866266Y-119599542D01*
%TO.C,C9*%
X113824433Y-121373542D02*
X113776814Y-121421161D01*
X113633957Y-121468780D01*
X113538719Y-121468780D01*
X113395861Y-121421161D01*
X113300623Y-121325923D01*
X113253004Y-121230685D01*
X113205385Y-121040209D01*
X113205385Y-120897352D01*
X113253004Y-120706876D01*
X113300623Y-120611638D01*
X113395861Y-120516400D01*
X113538719Y-120468780D01*
X113633957Y-120468780D01*
X113776814Y-120516400D01*
X113824433Y-120564019D01*
X114300623Y-121468780D02*
X114491100Y-121468780D01*
X114586338Y-121421161D01*
X114633957Y-121373542D01*
X114729195Y-121230685D01*
X114776814Y-121040209D01*
X114776814Y-120659257D01*
X114729195Y-120564019D01*
X114681576Y-120516400D01*
X114586338Y-120468780D01*
X114395861Y-120468780D01*
X114300623Y-120516400D01*
X114253004Y-120564019D01*
X114205385Y-120659257D01*
X114205385Y-120897352D01*
X114253004Y-120992590D01*
X114300623Y-121040209D01*
X114395861Y-121087828D01*
X114586338Y-121087828D01*
X114681576Y-121040209D01*
X114729195Y-120992590D01*
X114776814Y-120897352D01*
%TO.C,R8*%
X112634533Y-111745180D02*
X112301200Y-111268990D01*
X112063104Y-111745180D02*
X112063104Y-110745180D01*
X112444057Y-110745180D01*
X112539295Y-110792800D01*
X112586914Y-110840419D01*
X112634533Y-110935657D01*
X112634533Y-111078514D01*
X112586914Y-111173752D01*
X112539295Y-111221371D01*
X112444057Y-111268990D01*
X112063104Y-111268990D01*
X113205961Y-111173752D02*
X113110723Y-111126133D01*
X113063104Y-111078514D01*
X113015485Y-110983276D01*
X113015485Y-110935657D01*
X113063104Y-110840419D01*
X113110723Y-110792800D01*
X113205961Y-110745180D01*
X113396438Y-110745180D01*
X113491676Y-110792800D01*
X113539295Y-110840419D01*
X113586914Y-110935657D01*
X113586914Y-110983276D01*
X113539295Y-111078514D01*
X113491676Y-111126133D01*
X113396438Y-111173752D01*
X113205961Y-111173752D01*
X113110723Y-111221371D01*
X113063104Y-111268990D01*
X113015485Y-111364228D01*
X113015485Y-111554704D01*
X113063104Y-111649942D01*
X113110723Y-111697561D01*
X113205961Y-111745180D01*
X113396438Y-111745180D01*
X113491676Y-111697561D01*
X113539295Y-111649942D01*
X113586914Y-111554704D01*
X113586914Y-111364228D01*
X113539295Y-111268990D01*
X113491676Y-111221371D01*
X113396438Y-111173752D01*
%TO.C,C6*%
X104455733Y-105019542D02*
X104408114Y-105067161D01*
X104265257Y-105114780D01*
X104170019Y-105114780D01*
X104027161Y-105067161D01*
X103931923Y-104971923D01*
X103884304Y-104876685D01*
X103836685Y-104686209D01*
X103836685Y-104543352D01*
X103884304Y-104352876D01*
X103931923Y-104257638D01*
X104027161Y-104162400D01*
X104170019Y-104114780D01*
X104265257Y-104114780D01*
X104408114Y-104162400D01*
X104455733Y-104210019D01*
X105312876Y-104114780D02*
X105122400Y-104114780D01*
X105027161Y-104162400D01*
X104979542Y-104210019D01*
X104884304Y-104352876D01*
X104836685Y-104543352D01*
X104836685Y-104924304D01*
X104884304Y-105019542D01*
X104931923Y-105067161D01*
X105027161Y-105114780D01*
X105217638Y-105114780D01*
X105312876Y-105067161D01*
X105360495Y-105019542D01*
X105408114Y-104924304D01*
X105408114Y-104686209D01*
X105360495Y-104590971D01*
X105312876Y-104543352D01*
X105217638Y-104495733D01*
X105027161Y-104495733D01*
X104931923Y-104543352D01*
X104884304Y-104590971D01*
X104836685Y-104686209D01*
%TO.C,R9*%
X112685333Y-117053180D02*
X112352000Y-116576990D01*
X112113904Y-117053180D02*
X112113904Y-116053180D01*
X112494857Y-116053180D01*
X112590095Y-116100800D01*
X112637714Y-116148419D01*
X112685333Y-116243657D01*
X112685333Y-116386514D01*
X112637714Y-116481752D01*
X112590095Y-116529371D01*
X112494857Y-116576990D01*
X112113904Y-116576990D01*
X113161523Y-117053180D02*
X113352000Y-117053180D01*
X113447238Y-117005561D01*
X113494857Y-116957942D01*
X113590095Y-116815085D01*
X113637714Y-116624609D01*
X113637714Y-116243657D01*
X113590095Y-116148419D01*
X113542476Y-116100800D01*
X113447238Y-116053180D01*
X113256761Y-116053180D01*
X113161523Y-116100800D01*
X113113904Y-116148419D01*
X113066285Y-116243657D01*
X113066285Y-116481752D01*
X113113904Y-116576990D01*
X113161523Y-116624609D01*
X113256761Y-116672228D01*
X113447238Y-116672228D01*
X113542476Y-116624609D01*
X113590095Y-116576990D01*
X113637714Y-116481752D01*
%TO.C,R11*%
X113326742Y-126958780D02*
X112993409Y-126482590D01*
X112755314Y-126958780D02*
X112755314Y-125958780D01*
X113136266Y-125958780D01*
X113231504Y-126006400D01*
X113279123Y-126054019D01*
X113326742Y-126149257D01*
X113326742Y-126292114D01*
X113279123Y-126387352D01*
X113231504Y-126434971D01*
X113136266Y-126482590D01*
X112755314Y-126482590D01*
X114279123Y-126958780D02*
X113707695Y-126958780D01*
X113993409Y-126958780D02*
X113993409Y-125958780D01*
X113898171Y-126101638D01*
X113802933Y-126196876D01*
X113707695Y-126244495D01*
X115231504Y-126958780D02*
X114660076Y-126958780D01*
X114945790Y-126958780D02*
X114945790Y-125958780D01*
X114850552Y-126101638D01*
X114755314Y-126196876D01*
X114660076Y-126244495D01*
%TO.C,PS1*%
X89996914Y-105216380D02*
X89996914Y-104216380D01*
X90377866Y-104216380D01*
X90473104Y-104264000D01*
X90520723Y-104311619D01*
X90568342Y-104406857D01*
X90568342Y-104549714D01*
X90520723Y-104644952D01*
X90473104Y-104692571D01*
X90377866Y-104740190D01*
X89996914Y-104740190D01*
X90949295Y-105168761D02*
X91092152Y-105216380D01*
X91330247Y-105216380D01*
X91425485Y-105168761D01*
X91473104Y-105121142D01*
X91520723Y-105025904D01*
X91520723Y-104930666D01*
X91473104Y-104835428D01*
X91425485Y-104787809D01*
X91330247Y-104740190D01*
X91139771Y-104692571D01*
X91044533Y-104644952D01*
X90996914Y-104597333D01*
X90949295Y-104502095D01*
X90949295Y-104406857D01*
X90996914Y-104311619D01*
X91044533Y-104264000D01*
X91139771Y-104216380D01*
X91377866Y-104216380D01*
X91520723Y-104264000D01*
X92473104Y-105216380D02*
X91901676Y-105216380D01*
X92187390Y-105216380D02*
X92187390Y-104216380D01*
X92092152Y-104359238D01*
X91996914Y-104454476D01*
X91901676Y-104502095D01*
%TO.C,C7*%
X99172533Y-104496142D02*
X99124914Y-104543761D01*
X98982057Y-104591380D01*
X98886819Y-104591380D01*
X98743961Y-104543761D01*
X98648723Y-104448523D01*
X98601104Y-104353285D01*
X98553485Y-104162809D01*
X98553485Y-104019952D01*
X98601104Y-103829476D01*
X98648723Y-103734238D01*
X98743961Y-103639000D01*
X98886819Y-103591380D01*
X98982057Y-103591380D01*
X99124914Y-103639000D01*
X99172533Y-103686619D01*
X99505866Y-103591380D02*
X100172533Y-103591380D01*
X99743961Y-104591380D01*
%TO.C,R4*%
X77368533Y-127303380D02*
X77035200Y-126827190D01*
X76797104Y-127303380D02*
X76797104Y-126303380D01*
X77178057Y-126303380D01*
X77273295Y-126351000D01*
X77320914Y-126398619D01*
X77368533Y-126493857D01*
X77368533Y-126636714D01*
X77320914Y-126731952D01*
X77273295Y-126779571D01*
X77178057Y-126827190D01*
X76797104Y-126827190D01*
X78225676Y-126636714D02*
X78225676Y-127303380D01*
X77987580Y-126255761D02*
X77749485Y-126970047D01*
X78368533Y-126970047D01*
%TO.C,C8*%
X99172533Y-126574142D02*
X99124914Y-126621761D01*
X98982057Y-126669380D01*
X98886819Y-126669380D01*
X98743961Y-126621761D01*
X98648723Y-126526523D01*
X98601104Y-126431285D01*
X98553485Y-126240809D01*
X98553485Y-126097952D01*
X98601104Y-125907476D01*
X98648723Y-125812238D01*
X98743961Y-125717000D01*
X98886819Y-125669380D01*
X98982057Y-125669380D01*
X99124914Y-125717000D01*
X99172533Y-125764619D01*
X99743961Y-126097952D02*
X99648723Y-126050333D01*
X99601104Y-126002714D01*
X99553485Y-125907476D01*
X99553485Y-125859857D01*
X99601104Y-125764619D01*
X99648723Y-125717000D01*
X99743961Y-125669380D01*
X99934438Y-125669380D01*
X100029676Y-125717000D01*
X100077295Y-125764619D01*
X100124914Y-125859857D01*
X100124914Y-125907476D01*
X100077295Y-126002714D01*
X100029676Y-126050333D01*
X99934438Y-126097952D01*
X99743961Y-126097952D01*
X99648723Y-126145571D01*
X99601104Y-126193190D01*
X99553485Y-126288428D01*
X99553485Y-126478904D01*
X99601104Y-126574142D01*
X99648723Y-126621761D01*
X99743961Y-126669380D01*
X99934438Y-126669380D01*
X100029676Y-126621761D01*
X100077295Y-126574142D01*
X100124914Y-126478904D01*
X100124914Y-126288428D01*
X100077295Y-126193190D01*
X100029676Y-126145571D01*
X99934438Y-126097952D01*
%TO.C,C3*%
X93838533Y-123409142D02*
X93790914Y-123456761D01*
X93648057Y-123504380D01*
X93552819Y-123504380D01*
X93409961Y-123456761D01*
X93314723Y-123361523D01*
X93267104Y-123266285D01*
X93219485Y-123075809D01*
X93219485Y-122932952D01*
X93267104Y-122742476D01*
X93314723Y-122647238D01*
X93409961Y-122552000D01*
X93552819Y-122504380D01*
X93648057Y-122504380D01*
X93790914Y-122552000D01*
X93838533Y-122599619D01*
X94171866Y-122504380D02*
X94790914Y-122504380D01*
X94457580Y-122885333D01*
X94600438Y-122885333D01*
X94695676Y-122932952D01*
X94743295Y-122980571D01*
X94790914Y-123075809D01*
X94790914Y-123313904D01*
X94743295Y-123409142D01*
X94695676Y-123456761D01*
X94600438Y-123504380D01*
X94314723Y-123504380D01*
X94219485Y-123456761D01*
X94171866Y-123409142D01*
%TO.C,JP2*%
X116336666Y-108991580D02*
X116336666Y-109705866D01*
X116289047Y-109848723D01*
X116193809Y-109943961D01*
X116050952Y-109991580D01*
X115955714Y-109991580D01*
X116812857Y-109991580D02*
X116812857Y-108991580D01*
X117193809Y-108991580D01*
X117289047Y-109039200D01*
X117336666Y-109086819D01*
X117384285Y-109182057D01*
X117384285Y-109324914D01*
X117336666Y-109420152D01*
X117289047Y-109467771D01*
X117193809Y-109515390D01*
X116812857Y-109515390D01*
X117765238Y-109086819D02*
X117812857Y-109039200D01*
X117908095Y-108991580D01*
X118146190Y-108991580D01*
X118241428Y-109039200D01*
X118289047Y-109086819D01*
X118336666Y-109182057D01*
X118336666Y-109277295D01*
X118289047Y-109420152D01*
X117717619Y-109991580D01*
X118336666Y-109991580D01*
%TO.C,JP1*%
X112831466Y-108991580D02*
X112831466Y-109705866D01*
X112783847Y-109848723D01*
X112688609Y-109943961D01*
X112545752Y-109991580D01*
X112450514Y-109991580D01*
X113307657Y-109991580D02*
X113307657Y-108991580D01*
X113688609Y-108991580D01*
X113783847Y-109039200D01*
X113831466Y-109086819D01*
X113879085Y-109182057D01*
X113879085Y-109324914D01*
X113831466Y-109420152D01*
X113783847Y-109467771D01*
X113688609Y-109515390D01*
X113307657Y-109515390D01*
X114831466Y-109991580D02*
X114260038Y-109991580D01*
X114545752Y-109991580D02*
X114545752Y-108991580D01*
X114450514Y-109134438D01*
X114355276Y-109229676D01*
X114260038Y-109277295D01*
%TO.C,J1*%
X72081866Y-121488380D02*
X72081866Y-122202666D01*
X72034247Y-122345523D01*
X71939009Y-122440761D01*
X71796152Y-122488380D01*
X71700914Y-122488380D01*
X73081866Y-122488380D02*
X72510438Y-122488380D01*
X72796152Y-122488380D02*
X72796152Y-121488380D01*
X72700914Y-121631238D01*
X72605676Y-121726476D01*
X72510438Y-121774095D01*
%TO.C,R12*%
X121708742Y-126552380D02*
X121375409Y-126076190D01*
X121137314Y-126552380D02*
X121137314Y-125552380D01*
X121518266Y-125552380D01*
X121613504Y-125600000D01*
X121661123Y-125647619D01*
X121708742Y-125742857D01*
X121708742Y-125885714D01*
X121661123Y-125980952D01*
X121613504Y-126028571D01*
X121518266Y-126076190D01*
X121137314Y-126076190D01*
X122661123Y-126552380D02*
X122089695Y-126552380D01*
X122375409Y-126552380D02*
X122375409Y-125552380D01*
X122280171Y-125695238D01*
X122184933Y-125790476D01*
X122089695Y-125838095D01*
X123042076Y-125647619D02*
X123089695Y-125600000D01*
X123184933Y-125552380D01*
X123423028Y-125552380D01*
X123518266Y-125600000D01*
X123565885Y-125647619D01*
X123613504Y-125742857D01*
X123613504Y-125838095D01*
X123565885Y-125980952D01*
X122994457Y-126552380D01*
X123613504Y-126552380D01*
%TO.C,R2*%
X71232533Y-109180380D02*
X70899200Y-108704190D01*
X70661104Y-109180380D02*
X70661104Y-108180380D01*
X71042057Y-108180380D01*
X71137295Y-108228000D01*
X71184914Y-108275619D01*
X71232533Y-108370857D01*
X71232533Y-108513714D01*
X71184914Y-108608952D01*
X71137295Y-108656571D01*
X71042057Y-108704190D01*
X70661104Y-108704190D01*
X71613485Y-108275619D02*
X71661104Y-108228000D01*
X71756342Y-108180380D01*
X71994438Y-108180380D01*
X72089676Y-108228000D01*
X72137295Y-108275619D01*
X72184914Y-108370857D01*
X72184914Y-108466095D01*
X72137295Y-108608952D01*
X71565866Y-109180380D01*
X72184914Y-109180380D01*
%TO.C,Y1*%
X96323009Y-122012190D02*
X96323009Y-122488380D01*
X95989676Y-121488380D02*
X96323009Y-122012190D01*
X96656342Y-121488380D01*
X97513485Y-122488380D02*
X96942057Y-122488380D01*
X97227771Y-122488380D02*
X97227771Y-121488380D01*
X97132533Y-121631238D01*
X97037295Y-121726476D01*
X96942057Y-121774095D01*
%TO.C,C4*%
X93768533Y-106613142D02*
X93720914Y-106660761D01*
X93578057Y-106708380D01*
X93482819Y-106708380D01*
X93339961Y-106660761D01*
X93244723Y-106565523D01*
X93197104Y-106470285D01*
X93149485Y-106279809D01*
X93149485Y-106136952D01*
X93197104Y-105946476D01*
X93244723Y-105851238D01*
X93339961Y-105756000D01*
X93482819Y-105708380D01*
X93578057Y-105708380D01*
X93720914Y-105756000D01*
X93768533Y-105803619D01*
X94625676Y-106041714D02*
X94625676Y-106708380D01*
X94387580Y-105660761D02*
X94149485Y-106375047D01*
X94768533Y-106375047D01*
%TO.C,R3*%
X77328533Y-123504380D02*
X76995200Y-123028190D01*
X76757104Y-123504380D02*
X76757104Y-122504380D01*
X77138057Y-122504380D01*
X77233295Y-122552000D01*
X77280914Y-122599619D01*
X77328533Y-122694857D01*
X77328533Y-122837714D01*
X77280914Y-122932952D01*
X77233295Y-122980571D01*
X77138057Y-123028190D01*
X76757104Y-123028190D01*
X77661866Y-122504380D02*
X78280914Y-122504380D01*
X77947580Y-122885333D01*
X78090438Y-122885333D01*
X78185676Y-122932952D01*
X78233295Y-122980571D01*
X78280914Y-123075809D01*
X78280914Y-123313904D01*
X78233295Y-123409142D01*
X78185676Y-123456761D01*
X78090438Y-123504380D01*
X77804723Y-123504380D01*
X77709485Y-123456761D01*
X77661866Y-123409142D01*
%TO.C,R1*%
X77328533Y-119948380D02*
X76995200Y-119472190D01*
X76757104Y-119948380D02*
X76757104Y-118948380D01*
X77138057Y-118948380D01*
X77233295Y-118996000D01*
X77280914Y-119043619D01*
X77328533Y-119138857D01*
X77328533Y-119281714D01*
X77280914Y-119376952D01*
X77233295Y-119424571D01*
X77138057Y-119472190D01*
X76757104Y-119472190D01*
X78280914Y-119948380D02*
X77709485Y-119948380D01*
X77995200Y-119948380D02*
X77995200Y-118948380D01*
X77899961Y-119091238D01*
X77804723Y-119186476D01*
X77709485Y-119234095D01*
%TO.C,D2*%
X111961504Y-114462380D02*
X111961504Y-113462380D01*
X112199600Y-113462380D01*
X112342457Y-113510000D01*
X112437695Y-113605238D01*
X112485314Y-113700476D01*
X112532933Y-113890952D01*
X112532933Y-114033809D01*
X112485314Y-114224285D01*
X112437695Y-114319523D01*
X112342457Y-114414761D01*
X112199600Y-114462380D01*
X111961504Y-114462380D01*
X112913885Y-113557619D02*
X112961504Y-113510000D01*
X113056742Y-113462380D01*
X113294838Y-113462380D01*
X113390076Y-113510000D01*
X113437695Y-113557619D01*
X113485314Y-113652857D01*
X113485314Y-113748095D01*
X113437695Y-113890952D01*
X112866266Y-114462380D01*
X113485314Y-114462380D01*
%TO.C,C1*%
X71232533Y-106813142D02*
X71184914Y-106860761D01*
X71042057Y-106908380D01*
X70946819Y-106908380D01*
X70803961Y-106860761D01*
X70708723Y-106765523D01*
X70661104Y-106670285D01*
X70613485Y-106479809D01*
X70613485Y-106336952D01*
X70661104Y-106146476D01*
X70708723Y-106051238D01*
X70803961Y-105956000D01*
X70946819Y-105908380D01*
X71042057Y-105908380D01*
X71184914Y-105956000D01*
X71232533Y-106003619D01*
X72184914Y-106908380D02*
X71613485Y-106908380D01*
X71899200Y-106908380D02*
X71899200Y-105908380D01*
X71803961Y-106051238D01*
X71708723Y-106146476D01*
X71613485Y-106194095D01*
%TO.C,C2*%
X71232533Y-104513142D02*
X71184914Y-104560761D01*
X71042057Y-104608380D01*
X70946819Y-104608380D01*
X70803961Y-104560761D01*
X70708723Y-104465523D01*
X70661104Y-104370285D01*
X70613485Y-104179809D01*
X70613485Y-104036952D01*
X70661104Y-103846476D01*
X70708723Y-103751238D01*
X70803961Y-103656000D01*
X70946819Y-103608380D01*
X71042057Y-103608380D01*
X71184914Y-103656000D01*
X71232533Y-103703619D01*
X71613485Y-103703619D02*
X71661104Y-103656000D01*
X71756342Y-103608380D01*
X71994438Y-103608380D01*
X72089676Y-103656000D01*
X72137295Y-103703619D01*
X72184914Y-103798857D01*
X72184914Y-103894095D01*
X72137295Y-104036952D01*
X71565866Y-104608380D01*
X72184914Y-104608380D01*
%TO.C,J2*%
X125574266Y-108686780D02*
X125574266Y-109401066D01*
X125526647Y-109543923D01*
X125431409Y-109639161D01*
X125288552Y-109686780D01*
X125193314Y-109686780D01*
X126002838Y-108782019D02*
X126050457Y-108734400D01*
X126145695Y-108686780D01*
X126383790Y-108686780D01*
X126479028Y-108734400D01*
X126526647Y-108782019D01*
X126574266Y-108877257D01*
X126574266Y-108972495D01*
X126526647Y-109115352D01*
X125955219Y-109686780D01*
X126574266Y-109686780D01*
%TO.C,R10*%
X121708742Y-124113980D02*
X121375409Y-123637790D01*
X121137314Y-124113980D02*
X121137314Y-123113980D01*
X121518266Y-123113980D01*
X121613504Y-123161600D01*
X121661123Y-123209219D01*
X121708742Y-123304457D01*
X121708742Y-123447314D01*
X121661123Y-123542552D01*
X121613504Y-123590171D01*
X121518266Y-123637790D01*
X121137314Y-123637790D01*
X122661123Y-124113980D02*
X122089695Y-124113980D01*
X122375409Y-124113980D02*
X122375409Y-123113980D01*
X122280171Y-123256838D01*
X122184933Y-123352076D01*
X122089695Y-123399695D01*
X123280171Y-123113980D02*
X123375409Y-123113980D01*
X123470647Y-123161600D01*
X123518266Y-123209219D01*
X123565885Y-123304457D01*
X123613504Y-123494933D01*
X123613504Y-123733028D01*
X123565885Y-123923504D01*
X123518266Y-124018742D01*
X123470647Y-124066361D01*
X123375409Y-124113980D01*
X123280171Y-124113980D01*
X123184933Y-124066361D01*
X123137314Y-124018742D01*
X123089695Y-123923504D01*
X123042076Y-123733028D01*
X123042076Y-123494933D01*
X123089695Y-123304457D01*
X123137314Y-123209219D01*
X123184933Y-123161600D01*
X123280171Y-123113980D01*
%TO.C,R6*%
X93838533Y-125336380D02*
X93505200Y-124860190D01*
X93267104Y-125336380D02*
X93267104Y-124336380D01*
X93648057Y-124336380D01*
X93743295Y-124384000D01*
X93790914Y-124431619D01*
X93838533Y-124526857D01*
X93838533Y-124669714D01*
X93790914Y-124764952D01*
X93743295Y-124812571D01*
X93648057Y-124860190D01*
X93267104Y-124860190D01*
X94695676Y-124336380D02*
X94505200Y-124336380D01*
X94409961Y-124384000D01*
X94362342Y-124431619D01*
X94267104Y-124574476D01*
X94219485Y-124764952D01*
X94219485Y-125145904D01*
X94267104Y-125241142D01*
X94314723Y-125288761D01*
X94409961Y-125336380D01*
X94600438Y-125336380D01*
X94695676Y-125288761D01*
X94743295Y-125241142D01*
X94790914Y-125145904D01*
X94790914Y-124907809D01*
X94743295Y-124812571D01*
X94695676Y-124764952D01*
X94600438Y-124717333D01*
X94409961Y-124717333D01*
X94314723Y-124764952D01*
X94267104Y-124812571D01*
X94219485Y-124907809D01*
%TO.C,R7*%
X93768533Y-104008380D02*
X93435200Y-103532190D01*
X93197104Y-104008380D02*
X93197104Y-103008380D01*
X93578057Y-103008380D01*
X93673295Y-103056000D01*
X93720914Y-103103619D01*
X93768533Y-103198857D01*
X93768533Y-103341714D01*
X93720914Y-103436952D01*
X93673295Y-103484571D01*
X93578057Y-103532190D01*
X93197104Y-103532190D01*
X94101866Y-103008380D02*
X94768533Y-103008380D01*
X94339961Y-104008380D01*
%TO.C,U1*%
X89433295Y-115392380D02*
X89433295Y-116201904D01*
X89480914Y-116297142D01*
X89528533Y-116344761D01*
X89623771Y-116392380D01*
X89814247Y-116392380D01*
X89909485Y-116344761D01*
X89957104Y-116297142D01*
X90004723Y-116201904D01*
X90004723Y-115392380D01*
X91004723Y-116392380D02*
X90433295Y-116392380D01*
X90719009Y-116392380D02*
X90719009Y-115392380D01*
X90623771Y-115535238D01*
X90528533Y-115630476D01*
X90433295Y-115678095D01*
%TO.C,U3*%
X106400495Y-107460380D02*
X106400495Y-108269904D01*
X106448114Y-108365142D01*
X106495733Y-108412761D01*
X106590971Y-108460380D01*
X106781447Y-108460380D01*
X106876685Y-108412761D01*
X106924304Y-108365142D01*
X106971923Y-108269904D01*
X106971923Y-107460380D01*
X107352876Y-107460380D02*
X107971923Y-107460380D01*
X107638590Y-107841333D01*
X107781447Y-107841333D01*
X107876685Y-107888952D01*
X107924304Y-107936571D01*
X107971923Y-108031809D01*
X107971923Y-108269904D01*
X107924304Y-108365142D01*
X107876685Y-108412761D01*
X107781447Y-108460380D01*
X107495733Y-108460380D01*
X107400495Y-108412761D01*
X107352876Y-108365142D01*
%TO.C,R5*%
X93838533Y-127060380D02*
X93505200Y-126584190D01*
X93267104Y-127060380D02*
X93267104Y-126060380D01*
X93648057Y-126060380D01*
X93743295Y-126108000D01*
X93790914Y-126155619D01*
X93838533Y-126250857D01*
X93838533Y-126393714D01*
X93790914Y-126488952D01*
X93743295Y-126536571D01*
X93648057Y-126584190D01*
X93267104Y-126584190D01*
X94743295Y-126060380D02*
X94267104Y-126060380D01*
X94219485Y-126536571D01*
X94267104Y-126488952D01*
X94362342Y-126441333D01*
X94600438Y-126441333D01*
X94695676Y-126488952D01*
X94743295Y-126536571D01*
X94790914Y-126631809D01*
X94790914Y-126869904D01*
X94743295Y-126965142D01*
X94695676Y-127012761D01*
X94600438Y-127060380D01*
X94362342Y-127060380D01*
X94267104Y-127012761D01*
X94219485Y-126965142D01*
%TO.C,D1*%
X93197104Y-105308380D02*
X93197104Y-104308380D01*
X93435200Y-104308380D01*
X93578057Y-104356000D01*
X93673295Y-104451238D01*
X93720914Y-104546476D01*
X93768533Y-104736952D01*
X93768533Y-104879809D01*
X93720914Y-105070285D01*
X93673295Y-105165523D01*
X93578057Y-105260761D01*
X93435200Y-105308380D01*
X93197104Y-105308380D01*
X94720914Y-105308380D02*
X94149485Y-105308380D01*
X94435200Y-105308380D02*
X94435200Y-104308380D01*
X94339961Y-104451238D01*
X94244723Y-104546476D01*
X94149485Y-104594095D01*
%TO.C,C5*%
X108570533Y-105070342D02*
X108522914Y-105117961D01*
X108380057Y-105165580D01*
X108284819Y-105165580D01*
X108141961Y-105117961D01*
X108046723Y-105022723D01*
X107999104Y-104927485D01*
X107951485Y-104737009D01*
X107951485Y-104594152D01*
X107999104Y-104403676D01*
X108046723Y-104308438D01*
X108141961Y-104213200D01*
X108284819Y-104165580D01*
X108380057Y-104165580D01*
X108522914Y-104213200D01*
X108570533Y-104260819D01*
X109475295Y-104165580D02*
X108999104Y-104165580D01*
X108951485Y-104641771D01*
X108999104Y-104594152D01*
X109094342Y-104546533D01*
X109332438Y-104546533D01*
X109427676Y-104594152D01*
X109475295Y-104641771D01*
X109522914Y-104737009D01*
X109522914Y-104975104D01*
X109475295Y-105070342D01*
X109427676Y-105117961D01*
X109332438Y-105165580D01*
X109094342Y-105165580D01*
X108999104Y-105117961D01*
X108951485Y-105070342D01*
%TO.C,JP3*%
X119892666Y-78491580D02*
X119892666Y-79205866D01*
X119845047Y-79348723D01*
X119749809Y-79443961D01*
X119606952Y-79491580D01*
X119511714Y-79491580D01*
X120368857Y-79491580D02*
X120368857Y-78491580D01*
X120749809Y-78491580D01*
X120845047Y-78539200D01*
X120892666Y-78586819D01*
X120940285Y-78682057D01*
X120940285Y-78824914D01*
X120892666Y-78920152D01*
X120845047Y-78967771D01*
X120749809Y-79015390D01*
X120368857Y-79015390D01*
X121273619Y-78491580D02*
X121892666Y-78491580D01*
X121559333Y-78872533D01*
X121702190Y-78872533D01*
X121797428Y-78920152D01*
X121845047Y-78967771D01*
X121892666Y-79063009D01*
X121892666Y-79301104D01*
X121845047Y-79396342D01*
X121797428Y-79443961D01*
X121702190Y-79491580D01*
X121416476Y-79491580D01*
X121321238Y-79443961D01*
X121273619Y-79396342D01*
%TO.C,U2*%
X107111695Y-88702380D02*
X107111695Y-89511904D01*
X107159314Y-89607142D01*
X107206933Y-89654761D01*
X107302171Y-89702380D01*
X107492647Y-89702380D01*
X107587885Y-89654761D01*
X107635504Y-89607142D01*
X107683123Y-89511904D01*
X107683123Y-88702380D01*
X108111695Y-88797619D02*
X108159314Y-88750000D01*
X108254552Y-88702380D01*
X108492647Y-88702380D01*
X108587885Y-88750000D01*
X108635504Y-88797619D01*
X108683123Y-88892857D01*
X108683123Y-88988095D01*
X108635504Y-89130952D01*
X108064076Y-89702380D01*
X108683123Y-89702380D01*
%TO.C,D3*%
X111961504Y-89194780D02*
X111961504Y-88194780D01*
X112199600Y-88194780D01*
X112342457Y-88242400D01*
X112437695Y-88337638D01*
X112485314Y-88432876D01*
X112532933Y-88623352D01*
X112532933Y-88766209D01*
X112485314Y-88956685D01*
X112437695Y-89051923D01*
X112342457Y-89147161D01*
X112199600Y-89194780D01*
X111961504Y-89194780D01*
X112866266Y-88194780D02*
X113485314Y-88194780D01*
X113151980Y-88575733D01*
X113294838Y-88575733D01*
X113390076Y-88623352D01*
X113437695Y-88670971D01*
X113485314Y-88766209D01*
X113485314Y-89004304D01*
X113437695Y-89099542D01*
X113390076Y-89147161D01*
X113294838Y-89194780D01*
X113009123Y-89194780D01*
X112913885Y-89147161D01*
X112866266Y-89099542D01*
%TO.C,C9*%
X113824433Y-90873542D02*
X113776814Y-90921161D01*
X113633957Y-90968780D01*
X113538719Y-90968780D01*
X113395861Y-90921161D01*
X113300623Y-90825923D01*
X113253004Y-90730685D01*
X113205385Y-90540209D01*
X113205385Y-90397352D01*
X113253004Y-90206876D01*
X113300623Y-90111638D01*
X113395861Y-90016400D01*
X113538719Y-89968780D01*
X113633957Y-89968780D01*
X113776814Y-90016400D01*
X113824433Y-90064019D01*
X114300623Y-90968780D02*
X114491100Y-90968780D01*
X114586338Y-90921161D01*
X114633957Y-90873542D01*
X114729195Y-90730685D01*
X114776814Y-90540209D01*
X114776814Y-90159257D01*
X114729195Y-90064019D01*
X114681576Y-90016400D01*
X114586338Y-89968780D01*
X114395861Y-89968780D01*
X114300623Y-90016400D01*
X114253004Y-90064019D01*
X114205385Y-90159257D01*
X114205385Y-90397352D01*
X114253004Y-90492590D01*
X114300623Y-90540209D01*
X114395861Y-90587828D01*
X114586338Y-90587828D01*
X114681576Y-90540209D01*
X114729195Y-90492590D01*
X114776814Y-90397352D01*
%TO.C,R8*%
X112634533Y-81245180D02*
X112301200Y-80768990D01*
X112063104Y-81245180D02*
X112063104Y-80245180D01*
X112444057Y-80245180D01*
X112539295Y-80292800D01*
X112586914Y-80340419D01*
X112634533Y-80435657D01*
X112634533Y-80578514D01*
X112586914Y-80673752D01*
X112539295Y-80721371D01*
X112444057Y-80768990D01*
X112063104Y-80768990D01*
X113205961Y-80673752D02*
X113110723Y-80626133D01*
X113063104Y-80578514D01*
X113015485Y-80483276D01*
X113015485Y-80435657D01*
X113063104Y-80340419D01*
X113110723Y-80292800D01*
X113205961Y-80245180D01*
X113396438Y-80245180D01*
X113491676Y-80292800D01*
X113539295Y-80340419D01*
X113586914Y-80435657D01*
X113586914Y-80483276D01*
X113539295Y-80578514D01*
X113491676Y-80626133D01*
X113396438Y-80673752D01*
X113205961Y-80673752D01*
X113110723Y-80721371D01*
X113063104Y-80768990D01*
X113015485Y-80864228D01*
X113015485Y-81054704D01*
X113063104Y-81149942D01*
X113110723Y-81197561D01*
X113205961Y-81245180D01*
X113396438Y-81245180D01*
X113491676Y-81197561D01*
X113539295Y-81149942D01*
X113586914Y-81054704D01*
X113586914Y-80864228D01*
X113539295Y-80768990D01*
X113491676Y-80721371D01*
X113396438Y-80673752D01*
%TO.C,C6*%
X104455733Y-74519542D02*
X104408114Y-74567161D01*
X104265257Y-74614780D01*
X104170019Y-74614780D01*
X104027161Y-74567161D01*
X103931923Y-74471923D01*
X103884304Y-74376685D01*
X103836685Y-74186209D01*
X103836685Y-74043352D01*
X103884304Y-73852876D01*
X103931923Y-73757638D01*
X104027161Y-73662400D01*
X104170019Y-73614780D01*
X104265257Y-73614780D01*
X104408114Y-73662400D01*
X104455733Y-73710019D01*
X105312876Y-73614780D02*
X105122400Y-73614780D01*
X105027161Y-73662400D01*
X104979542Y-73710019D01*
X104884304Y-73852876D01*
X104836685Y-74043352D01*
X104836685Y-74424304D01*
X104884304Y-74519542D01*
X104931923Y-74567161D01*
X105027161Y-74614780D01*
X105217638Y-74614780D01*
X105312876Y-74567161D01*
X105360495Y-74519542D01*
X105408114Y-74424304D01*
X105408114Y-74186209D01*
X105360495Y-74090971D01*
X105312876Y-74043352D01*
X105217638Y-73995733D01*
X105027161Y-73995733D01*
X104931923Y-74043352D01*
X104884304Y-74090971D01*
X104836685Y-74186209D01*
%TO.C,R9*%
X112685333Y-86553180D02*
X112352000Y-86076990D01*
X112113904Y-86553180D02*
X112113904Y-85553180D01*
X112494857Y-85553180D01*
X112590095Y-85600800D01*
X112637714Y-85648419D01*
X112685333Y-85743657D01*
X112685333Y-85886514D01*
X112637714Y-85981752D01*
X112590095Y-86029371D01*
X112494857Y-86076990D01*
X112113904Y-86076990D01*
X113161523Y-86553180D02*
X113352000Y-86553180D01*
X113447238Y-86505561D01*
X113494857Y-86457942D01*
X113590095Y-86315085D01*
X113637714Y-86124609D01*
X113637714Y-85743657D01*
X113590095Y-85648419D01*
X113542476Y-85600800D01*
X113447238Y-85553180D01*
X113256761Y-85553180D01*
X113161523Y-85600800D01*
X113113904Y-85648419D01*
X113066285Y-85743657D01*
X113066285Y-85981752D01*
X113113904Y-86076990D01*
X113161523Y-86124609D01*
X113256761Y-86172228D01*
X113447238Y-86172228D01*
X113542476Y-86124609D01*
X113590095Y-86076990D01*
X113637714Y-85981752D01*
%TO.C,R11*%
X113326742Y-96458780D02*
X112993409Y-95982590D01*
X112755314Y-96458780D02*
X112755314Y-95458780D01*
X113136266Y-95458780D01*
X113231504Y-95506400D01*
X113279123Y-95554019D01*
X113326742Y-95649257D01*
X113326742Y-95792114D01*
X113279123Y-95887352D01*
X113231504Y-95934971D01*
X113136266Y-95982590D01*
X112755314Y-95982590D01*
X114279123Y-96458780D02*
X113707695Y-96458780D01*
X113993409Y-96458780D02*
X113993409Y-95458780D01*
X113898171Y-95601638D01*
X113802933Y-95696876D01*
X113707695Y-95744495D01*
X115231504Y-96458780D02*
X114660076Y-96458780D01*
X114945790Y-96458780D02*
X114945790Y-95458780D01*
X114850552Y-95601638D01*
X114755314Y-95696876D01*
X114660076Y-95744495D01*
%TO.C,PS1*%
X89996914Y-74716380D02*
X89996914Y-73716380D01*
X90377866Y-73716380D01*
X90473104Y-73764000D01*
X90520723Y-73811619D01*
X90568342Y-73906857D01*
X90568342Y-74049714D01*
X90520723Y-74144952D01*
X90473104Y-74192571D01*
X90377866Y-74240190D01*
X89996914Y-74240190D01*
X90949295Y-74668761D02*
X91092152Y-74716380D01*
X91330247Y-74716380D01*
X91425485Y-74668761D01*
X91473104Y-74621142D01*
X91520723Y-74525904D01*
X91520723Y-74430666D01*
X91473104Y-74335428D01*
X91425485Y-74287809D01*
X91330247Y-74240190D01*
X91139771Y-74192571D01*
X91044533Y-74144952D01*
X90996914Y-74097333D01*
X90949295Y-74002095D01*
X90949295Y-73906857D01*
X90996914Y-73811619D01*
X91044533Y-73764000D01*
X91139771Y-73716380D01*
X91377866Y-73716380D01*
X91520723Y-73764000D01*
X92473104Y-74716380D02*
X91901676Y-74716380D01*
X92187390Y-74716380D02*
X92187390Y-73716380D01*
X92092152Y-73859238D01*
X91996914Y-73954476D01*
X91901676Y-74002095D01*
%TO.C,C7*%
X99172533Y-73996142D02*
X99124914Y-74043761D01*
X98982057Y-74091380D01*
X98886819Y-74091380D01*
X98743961Y-74043761D01*
X98648723Y-73948523D01*
X98601104Y-73853285D01*
X98553485Y-73662809D01*
X98553485Y-73519952D01*
X98601104Y-73329476D01*
X98648723Y-73234238D01*
X98743961Y-73139000D01*
X98886819Y-73091380D01*
X98982057Y-73091380D01*
X99124914Y-73139000D01*
X99172533Y-73186619D01*
X99505866Y-73091380D02*
X100172533Y-73091380D01*
X99743961Y-74091380D01*
%TO.C,R4*%
X77368533Y-96803380D02*
X77035200Y-96327190D01*
X76797104Y-96803380D02*
X76797104Y-95803380D01*
X77178057Y-95803380D01*
X77273295Y-95851000D01*
X77320914Y-95898619D01*
X77368533Y-95993857D01*
X77368533Y-96136714D01*
X77320914Y-96231952D01*
X77273295Y-96279571D01*
X77178057Y-96327190D01*
X76797104Y-96327190D01*
X78225676Y-96136714D02*
X78225676Y-96803380D01*
X77987580Y-95755761D02*
X77749485Y-96470047D01*
X78368533Y-96470047D01*
%TO.C,C8*%
X99172533Y-96074142D02*
X99124914Y-96121761D01*
X98982057Y-96169380D01*
X98886819Y-96169380D01*
X98743961Y-96121761D01*
X98648723Y-96026523D01*
X98601104Y-95931285D01*
X98553485Y-95740809D01*
X98553485Y-95597952D01*
X98601104Y-95407476D01*
X98648723Y-95312238D01*
X98743961Y-95217000D01*
X98886819Y-95169380D01*
X98982057Y-95169380D01*
X99124914Y-95217000D01*
X99172533Y-95264619D01*
X99743961Y-95597952D02*
X99648723Y-95550333D01*
X99601104Y-95502714D01*
X99553485Y-95407476D01*
X99553485Y-95359857D01*
X99601104Y-95264619D01*
X99648723Y-95217000D01*
X99743961Y-95169380D01*
X99934438Y-95169380D01*
X100029676Y-95217000D01*
X100077295Y-95264619D01*
X100124914Y-95359857D01*
X100124914Y-95407476D01*
X100077295Y-95502714D01*
X100029676Y-95550333D01*
X99934438Y-95597952D01*
X99743961Y-95597952D01*
X99648723Y-95645571D01*
X99601104Y-95693190D01*
X99553485Y-95788428D01*
X99553485Y-95978904D01*
X99601104Y-96074142D01*
X99648723Y-96121761D01*
X99743961Y-96169380D01*
X99934438Y-96169380D01*
X100029676Y-96121761D01*
X100077295Y-96074142D01*
X100124914Y-95978904D01*
X100124914Y-95788428D01*
X100077295Y-95693190D01*
X100029676Y-95645571D01*
X99934438Y-95597952D01*
%TO.C,C3*%
X93838533Y-92909142D02*
X93790914Y-92956761D01*
X93648057Y-93004380D01*
X93552819Y-93004380D01*
X93409961Y-92956761D01*
X93314723Y-92861523D01*
X93267104Y-92766285D01*
X93219485Y-92575809D01*
X93219485Y-92432952D01*
X93267104Y-92242476D01*
X93314723Y-92147238D01*
X93409961Y-92052000D01*
X93552819Y-92004380D01*
X93648057Y-92004380D01*
X93790914Y-92052000D01*
X93838533Y-92099619D01*
X94171866Y-92004380D02*
X94790914Y-92004380D01*
X94457580Y-92385333D01*
X94600438Y-92385333D01*
X94695676Y-92432952D01*
X94743295Y-92480571D01*
X94790914Y-92575809D01*
X94790914Y-92813904D01*
X94743295Y-92909142D01*
X94695676Y-92956761D01*
X94600438Y-93004380D01*
X94314723Y-93004380D01*
X94219485Y-92956761D01*
X94171866Y-92909142D01*
%TO.C,JP2*%
X116336666Y-78491580D02*
X116336666Y-79205866D01*
X116289047Y-79348723D01*
X116193809Y-79443961D01*
X116050952Y-79491580D01*
X115955714Y-79491580D01*
X116812857Y-79491580D02*
X116812857Y-78491580D01*
X117193809Y-78491580D01*
X117289047Y-78539200D01*
X117336666Y-78586819D01*
X117384285Y-78682057D01*
X117384285Y-78824914D01*
X117336666Y-78920152D01*
X117289047Y-78967771D01*
X117193809Y-79015390D01*
X116812857Y-79015390D01*
X117765238Y-78586819D02*
X117812857Y-78539200D01*
X117908095Y-78491580D01*
X118146190Y-78491580D01*
X118241428Y-78539200D01*
X118289047Y-78586819D01*
X118336666Y-78682057D01*
X118336666Y-78777295D01*
X118289047Y-78920152D01*
X117717619Y-79491580D01*
X118336666Y-79491580D01*
%TO.C,JP1*%
X112831466Y-78491580D02*
X112831466Y-79205866D01*
X112783847Y-79348723D01*
X112688609Y-79443961D01*
X112545752Y-79491580D01*
X112450514Y-79491580D01*
X113307657Y-79491580D02*
X113307657Y-78491580D01*
X113688609Y-78491580D01*
X113783847Y-78539200D01*
X113831466Y-78586819D01*
X113879085Y-78682057D01*
X113879085Y-78824914D01*
X113831466Y-78920152D01*
X113783847Y-78967771D01*
X113688609Y-79015390D01*
X113307657Y-79015390D01*
X114831466Y-79491580D02*
X114260038Y-79491580D01*
X114545752Y-79491580D02*
X114545752Y-78491580D01*
X114450514Y-78634438D01*
X114355276Y-78729676D01*
X114260038Y-78777295D01*
%TO.C,J1*%
X72081866Y-90988380D02*
X72081866Y-91702666D01*
X72034247Y-91845523D01*
X71939009Y-91940761D01*
X71796152Y-91988380D01*
X71700914Y-91988380D01*
X73081866Y-91988380D02*
X72510438Y-91988380D01*
X72796152Y-91988380D02*
X72796152Y-90988380D01*
X72700914Y-91131238D01*
X72605676Y-91226476D01*
X72510438Y-91274095D01*
%TO.C,R12*%
X121708742Y-96052380D02*
X121375409Y-95576190D01*
X121137314Y-96052380D02*
X121137314Y-95052380D01*
X121518266Y-95052380D01*
X121613504Y-95100000D01*
X121661123Y-95147619D01*
X121708742Y-95242857D01*
X121708742Y-95385714D01*
X121661123Y-95480952D01*
X121613504Y-95528571D01*
X121518266Y-95576190D01*
X121137314Y-95576190D01*
X122661123Y-96052380D02*
X122089695Y-96052380D01*
X122375409Y-96052380D02*
X122375409Y-95052380D01*
X122280171Y-95195238D01*
X122184933Y-95290476D01*
X122089695Y-95338095D01*
X123042076Y-95147619D02*
X123089695Y-95100000D01*
X123184933Y-95052380D01*
X123423028Y-95052380D01*
X123518266Y-95100000D01*
X123565885Y-95147619D01*
X123613504Y-95242857D01*
X123613504Y-95338095D01*
X123565885Y-95480952D01*
X122994457Y-96052380D01*
X123613504Y-96052380D01*
%TO.C,R2*%
X71232533Y-78680380D02*
X70899200Y-78204190D01*
X70661104Y-78680380D02*
X70661104Y-77680380D01*
X71042057Y-77680380D01*
X71137295Y-77728000D01*
X71184914Y-77775619D01*
X71232533Y-77870857D01*
X71232533Y-78013714D01*
X71184914Y-78108952D01*
X71137295Y-78156571D01*
X71042057Y-78204190D01*
X70661104Y-78204190D01*
X71613485Y-77775619D02*
X71661104Y-77728000D01*
X71756342Y-77680380D01*
X71994438Y-77680380D01*
X72089676Y-77728000D01*
X72137295Y-77775619D01*
X72184914Y-77870857D01*
X72184914Y-77966095D01*
X72137295Y-78108952D01*
X71565866Y-78680380D01*
X72184914Y-78680380D01*
%TO.C,Y1*%
X96323009Y-91512190D02*
X96323009Y-91988380D01*
X95989676Y-90988380D02*
X96323009Y-91512190D01*
X96656342Y-90988380D01*
X97513485Y-91988380D02*
X96942057Y-91988380D01*
X97227771Y-91988380D02*
X97227771Y-90988380D01*
X97132533Y-91131238D01*
X97037295Y-91226476D01*
X96942057Y-91274095D01*
%TO.C,C4*%
X93768533Y-76113142D02*
X93720914Y-76160761D01*
X93578057Y-76208380D01*
X93482819Y-76208380D01*
X93339961Y-76160761D01*
X93244723Y-76065523D01*
X93197104Y-75970285D01*
X93149485Y-75779809D01*
X93149485Y-75636952D01*
X93197104Y-75446476D01*
X93244723Y-75351238D01*
X93339961Y-75256000D01*
X93482819Y-75208380D01*
X93578057Y-75208380D01*
X93720914Y-75256000D01*
X93768533Y-75303619D01*
X94625676Y-75541714D02*
X94625676Y-76208380D01*
X94387580Y-75160761D02*
X94149485Y-75875047D01*
X94768533Y-75875047D01*
%TO.C,R3*%
X77328533Y-93004380D02*
X76995200Y-92528190D01*
X76757104Y-93004380D02*
X76757104Y-92004380D01*
X77138057Y-92004380D01*
X77233295Y-92052000D01*
X77280914Y-92099619D01*
X77328533Y-92194857D01*
X77328533Y-92337714D01*
X77280914Y-92432952D01*
X77233295Y-92480571D01*
X77138057Y-92528190D01*
X76757104Y-92528190D01*
X77661866Y-92004380D02*
X78280914Y-92004380D01*
X77947580Y-92385333D01*
X78090438Y-92385333D01*
X78185676Y-92432952D01*
X78233295Y-92480571D01*
X78280914Y-92575809D01*
X78280914Y-92813904D01*
X78233295Y-92909142D01*
X78185676Y-92956761D01*
X78090438Y-93004380D01*
X77804723Y-93004380D01*
X77709485Y-92956761D01*
X77661866Y-92909142D01*
%TO.C,R1*%
X77328533Y-89448380D02*
X76995200Y-88972190D01*
X76757104Y-89448380D02*
X76757104Y-88448380D01*
X77138057Y-88448380D01*
X77233295Y-88496000D01*
X77280914Y-88543619D01*
X77328533Y-88638857D01*
X77328533Y-88781714D01*
X77280914Y-88876952D01*
X77233295Y-88924571D01*
X77138057Y-88972190D01*
X76757104Y-88972190D01*
X78280914Y-89448380D02*
X77709485Y-89448380D01*
X77995200Y-89448380D02*
X77995200Y-88448380D01*
X77899961Y-88591238D01*
X77804723Y-88686476D01*
X77709485Y-88734095D01*
%TO.C,D2*%
X111961504Y-83962380D02*
X111961504Y-82962380D01*
X112199600Y-82962380D01*
X112342457Y-83010000D01*
X112437695Y-83105238D01*
X112485314Y-83200476D01*
X112532933Y-83390952D01*
X112532933Y-83533809D01*
X112485314Y-83724285D01*
X112437695Y-83819523D01*
X112342457Y-83914761D01*
X112199600Y-83962380D01*
X111961504Y-83962380D01*
X112913885Y-83057619D02*
X112961504Y-83010000D01*
X113056742Y-82962380D01*
X113294838Y-82962380D01*
X113390076Y-83010000D01*
X113437695Y-83057619D01*
X113485314Y-83152857D01*
X113485314Y-83248095D01*
X113437695Y-83390952D01*
X112866266Y-83962380D01*
X113485314Y-83962380D01*
%TO.C,C1*%
X71232533Y-76313142D02*
X71184914Y-76360761D01*
X71042057Y-76408380D01*
X70946819Y-76408380D01*
X70803961Y-76360761D01*
X70708723Y-76265523D01*
X70661104Y-76170285D01*
X70613485Y-75979809D01*
X70613485Y-75836952D01*
X70661104Y-75646476D01*
X70708723Y-75551238D01*
X70803961Y-75456000D01*
X70946819Y-75408380D01*
X71042057Y-75408380D01*
X71184914Y-75456000D01*
X71232533Y-75503619D01*
X72184914Y-76408380D02*
X71613485Y-76408380D01*
X71899200Y-76408380D02*
X71899200Y-75408380D01*
X71803961Y-75551238D01*
X71708723Y-75646476D01*
X71613485Y-75694095D01*
%TO.C,C2*%
X71232533Y-74013142D02*
X71184914Y-74060761D01*
X71042057Y-74108380D01*
X70946819Y-74108380D01*
X70803961Y-74060761D01*
X70708723Y-73965523D01*
X70661104Y-73870285D01*
X70613485Y-73679809D01*
X70613485Y-73536952D01*
X70661104Y-73346476D01*
X70708723Y-73251238D01*
X70803961Y-73156000D01*
X70946819Y-73108380D01*
X71042057Y-73108380D01*
X71184914Y-73156000D01*
X71232533Y-73203619D01*
X71613485Y-73203619D02*
X71661104Y-73156000D01*
X71756342Y-73108380D01*
X71994438Y-73108380D01*
X72089676Y-73156000D01*
X72137295Y-73203619D01*
X72184914Y-73298857D01*
X72184914Y-73394095D01*
X72137295Y-73536952D01*
X71565866Y-74108380D01*
X72184914Y-74108380D01*
%TO.C,J2*%
X125574266Y-78186780D02*
X125574266Y-78901066D01*
X125526647Y-79043923D01*
X125431409Y-79139161D01*
X125288552Y-79186780D01*
X125193314Y-79186780D01*
X126002838Y-78282019D02*
X126050457Y-78234400D01*
X126145695Y-78186780D01*
X126383790Y-78186780D01*
X126479028Y-78234400D01*
X126526647Y-78282019D01*
X126574266Y-78377257D01*
X126574266Y-78472495D01*
X126526647Y-78615352D01*
X125955219Y-79186780D01*
X126574266Y-79186780D01*
%TO.C,R10*%
X121708742Y-93613980D02*
X121375409Y-93137790D01*
X121137314Y-93613980D02*
X121137314Y-92613980D01*
X121518266Y-92613980D01*
X121613504Y-92661600D01*
X121661123Y-92709219D01*
X121708742Y-92804457D01*
X121708742Y-92947314D01*
X121661123Y-93042552D01*
X121613504Y-93090171D01*
X121518266Y-93137790D01*
X121137314Y-93137790D01*
X122661123Y-93613980D02*
X122089695Y-93613980D01*
X122375409Y-93613980D02*
X122375409Y-92613980D01*
X122280171Y-92756838D01*
X122184933Y-92852076D01*
X122089695Y-92899695D01*
X123280171Y-92613980D02*
X123375409Y-92613980D01*
X123470647Y-92661600D01*
X123518266Y-92709219D01*
X123565885Y-92804457D01*
X123613504Y-92994933D01*
X123613504Y-93233028D01*
X123565885Y-93423504D01*
X123518266Y-93518742D01*
X123470647Y-93566361D01*
X123375409Y-93613980D01*
X123280171Y-93613980D01*
X123184933Y-93566361D01*
X123137314Y-93518742D01*
X123089695Y-93423504D01*
X123042076Y-93233028D01*
X123042076Y-92994933D01*
X123089695Y-92804457D01*
X123137314Y-92709219D01*
X123184933Y-92661600D01*
X123280171Y-92613980D01*
%TO.C,R6*%
X93838533Y-94836380D02*
X93505200Y-94360190D01*
X93267104Y-94836380D02*
X93267104Y-93836380D01*
X93648057Y-93836380D01*
X93743295Y-93884000D01*
X93790914Y-93931619D01*
X93838533Y-94026857D01*
X93838533Y-94169714D01*
X93790914Y-94264952D01*
X93743295Y-94312571D01*
X93648057Y-94360190D01*
X93267104Y-94360190D01*
X94695676Y-93836380D02*
X94505200Y-93836380D01*
X94409961Y-93884000D01*
X94362342Y-93931619D01*
X94267104Y-94074476D01*
X94219485Y-94264952D01*
X94219485Y-94645904D01*
X94267104Y-94741142D01*
X94314723Y-94788761D01*
X94409961Y-94836380D01*
X94600438Y-94836380D01*
X94695676Y-94788761D01*
X94743295Y-94741142D01*
X94790914Y-94645904D01*
X94790914Y-94407809D01*
X94743295Y-94312571D01*
X94695676Y-94264952D01*
X94600438Y-94217333D01*
X94409961Y-94217333D01*
X94314723Y-94264952D01*
X94267104Y-94312571D01*
X94219485Y-94407809D01*
%TO.C,R7*%
X93768533Y-73508380D02*
X93435200Y-73032190D01*
X93197104Y-73508380D02*
X93197104Y-72508380D01*
X93578057Y-72508380D01*
X93673295Y-72556000D01*
X93720914Y-72603619D01*
X93768533Y-72698857D01*
X93768533Y-72841714D01*
X93720914Y-72936952D01*
X93673295Y-72984571D01*
X93578057Y-73032190D01*
X93197104Y-73032190D01*
X94101866Y-72508380D02*
X94768533Y-72508380D01*
X94339961Y-73508380D01*
%TO.C,U1*%
X89433295Y-84892380D02*
X89433295Y-85701904D01*
X89480914Y-85797142D01*
X89528533Y-85844761D01*
X89623771Y-85892380D01*
X89814247Y-85892380D01*
X89909485Y-85844761D01*
X89957104Y-85797142D01*
X90004723Y-85701904D01*
X90004723Y-84892380D01*
X91004723Y-85892380D02*
X90433295Y-85892380D01*
X90719009Y-85892380D02*
X90719009Y-84892380D01*
X90623771Y-85035238D01*
X90528533Y-85130476D01*
X90433295Y-85178095D01*
%TO.C,U3*%
X106400495Y-76960380D02*
X106400495Y-77769904D01*
X106448114Y-77865142D01*
X106495733Y-77912761D01*
X106590971Y-77960380D01*
X106781447Y-77960380D01*
X106876685Y-77912761D01*
X106924304Y-77865142D01*
X106971923Y-77769904D01*
X106971923Y-76960380D01*
X107352876Y-76960380D02*
X107971923Y-76960380D01*
X107638590Y-77341333D01*
X107781447Y-77341333D01*
X107876685Y-77388952D01*
X107924304Y-77436571D01*
X107971923Y-77531809D01*
X107971923Y-77769904D01*
X107924304Y-77865142D01*
X107876685Y-77912761D01*
X107781447Y-77960380D01*
X107495733Y-77960380D01*
X107400495Y-77912761D01*
X107352876Y-77865142D01*
%TO.C,R5*%
X93838533Y-96560380D02*
X93505200Y-96084190D01*
X93267104Y-96560380D02*
X93267104Y-95560380D01*
X93648057Y-95560380D01*
X93743295Y-95608000D01*
X93790914Y-95655619D01*
X93838533Y-95750857D01*
X93838533Y-95893714D01*
X93790914Y-95988952D01*
X93743295Y-96036571D01*
X93648057Y-96084190D01*
X93267104Y-96084190D01*
X94743295Y-95560380D02*
X94267104Y-95560380D01*
X94219485Y-96036571D01*
X94267104Y-95988952D01*
X94362342Y-95941333D01*
X94600438Y-95941333D01*
X94695676Y-95988952D01*
X94743295Y-96036571D01*
X94790914Y-96131809D01*
X94790914Y-96369904D01*
X94743295Y-96465142D01*
X94695676Y-96512761D01*
X94600438Y-96560380D01*
X94362342Y-96560380D01*
X94267104Y-96512761D01*
X94219485Y-96465142D01*
%TO.C,D1*%
X93197104Y-74808380D02*
X93197104Y-73808380D01*
X93435200Y-73808380D01*
X93578057Y-73856000D01*
X93673295Y-73951238D01*
X93720914Y-74046476D01*
X93768533Y-74236952D01*
X93768533Y-74379809D01*
X93720914Y-74570285D01*
X93673295Y-74665523D01*
X93578057Y-74760761D01*
X93435200Y-74808380D01*
X93197104Y-74808380D01*
X94720914Y-74808380D02*
X94149485Y-74808380D01*
X94435200Y-74808380D02*
X94435200Y-73808380D01*
X94339961Y-73951238D01*
X94244723Y-74046476D01*
X94149485Y-74094095D01*
%TO.C,C5*%
X108570533Y-74570342D02*
X108522914Y-74617961D01*
X108380057Y-74665580D01*
X108284819Y-74665580D01*
X108141961Y-74617961D01*
X108046723Y-74522723D01*
X107999104Y-74427485D01*
X107951485Y-74237009D01*
X107951485Y-74094152D01*
X107999104Y-73903676D01*
X108046723Y-73808438D01*
X108141961Y-73713200D01*
X108284819Y-73665580D01*
X108380057Y-73665580D01*
X108522914Y-73713200D01*
X108570533Y-73760819D01*
X109475295Y-73665580D02*
X108999104Y-73665580D01*
X108951485Y-74141771D01*
X108999104Y-74094152D01*
X109094342Y-74046533D01*
X109332438Y-74046533D01*
X109427676Y-74094152D01*
X109475295Y-74141771D01*
X109522914Y-74237009D01*
X109522914Y-74475104D01*
X109475295Y-74570342D01*
X109427676Y-74617961D01*
X109332438Y-74665580D01*
X109094342Y-74665580D01*
X108999104Y-74617961D01*
X108951485Y-74570342D01*
%TO.C,R6*%
X93838533Y-64336380D02*
X93505200Y-63860190D01*
X93267104Y-64336380D02*
X93267104Y-63336380D01*
X93648057Y-63336380D01*
X93743295Y-63384000D01*
X93790914Y-63431619D01*
X93838533Y-63526857D01*
X93838533Y-63669714D01*
X93790914Y-63764952D01*
X93743295Y-63812571D01*
X93648057Y-63860190D01*
X93267104Y-63860190D01*
X94695676Y-63336380D02*
X94505200Y-63336380D01*
X94409961Y-63384000D01*
X94362342Y-63431619D01*
X94267104Y-63574476D01*
X94219485Y-63764952D01*
X94219485Y-64145904D01*
X94267104Y-64241142D01*
X94314723Y-64288761D01*
X94409961Y-64336380D01*
X94600438Y-64336380D01*
X94695676Y-64288761D01*
X94743295Y-64241142D01*
X94790914Y-64145904D01*
X94790914Y-63907809D01*
X94743295Y-63812571D01*
X94695676Y-63764952D01*
X94600438Y-63717333D01*
X94409961Y-63717333D01*
X94314723Y-63764952D01*
X94267104Y-63812571D01*
X94219485Y-63907809D01*
%TO.C,R7*%
X93768533Y-43008380D02*
X93435200Y-42532190D01*
X93197104Y-43008380D02*
X93197104Y-42008380D01*
X93578057Y-42008380D01*
X93673295Y-42056000D01*
X93720914Y-42103619D01*
X93768533Y-42198857D01*
X93768533Y-42341714D01*
X93720914Y-42436952D01*
X93673295Y-42484571D01*
X93578057Y-42532190D01*
X93197104Y-42532190D01*
X94101866Y-42008380D02*
X94768533Y-42008380D01*
X94339961Y-43008380D01*
%TO.C,R5*%
X93838533Y-66060380D02*
X93505200Y-65584190D01*
X93267104Y-66060380D02*
X93267104Y-65060380D01*
X93648057Y-65060380D01*
X93743295Y-65108000D01*
X93790914Y-65155619D01*
X93838533Y-65250857D01*
X93838533Y-65393714D01*
X93790914Y-65488952D01*
X93743295Y-65536571D01*
X93648057Y-65584190D01*
X93267104Y-65584190D01*
X94743295Y-65060380D02*
X94267104Y-65060380D01*
X94219485Y-65536571D01*
X94267104Y-65488952D01*
X94362342Y-65441333D01*
X94600438Y-65441333D01*
X94695676Y-65488952D01*
X94743295Y-65536571D01*
X94790914Y-65631809D01*
X94790914Y-65869904D01*
X94743295Y-65965142D01*
X94695676Y-66012761D01*
X94600438Y-66060380D01*
X94362342Y-66060380D01*
X94267104Y-66012761D01*
X94219485Y-65965142D01*
%TO.C,C4*%
X93768533Y-45613142D02*
X93720914Y-45660761D01*
X93578057Y-45708380D01*
X93482819Y-45708380D01*
X93339961Y-45660761D01*
X93244723Y-45565523D01*
X93197104Y-45470285D01*
X93149485Y-45279809D01*
X93149485Y-45136952D01*
X93197104Y-44946476D01*
X93244723Y-44851238D01*
X93339961Y-44756000D01*
X93482819Y-44708380D01*
X93578057Y-44708380D01*
X93720914Y-44756000D01*
X93768533Y-44803619D01*
X94625676Y-45041714D02*
X94625676Y-45708380D01*
X94387580Y-44660761D02*
X94149485Y-45375047D01*
X94768533Y-45375047D01*
%TO.C,D2*%
X111961504Y-53462380D02*
X111961504Y-52462380D01*
X112199600Y-52462380D01*
X112342457Y-52510000D01*
X112437695Y-52605238D01*
X112485314Y-52700476D01*
X112532933Y-52890952D01*
X112532933Y-53033809D01*
X112485314Y-53224285D01*
X112437695Y-53319523D01*
X112342457Y-53414761D01*
X112199600Y-53462380D01*
X111961504Y-53462380D01*
X112913885Y-52557619D02*
X112961504Y-52510000D01*
X113056742Y-52462380D01*
X113294838Y-52462380D01*
X113390076Y-52510000D01*
X113437695Y-52557619D01*
X113485314Y-52652857D01*
X113485314Y-52748095D01*
X113437695Y-52890952D01*
X112866266Y-53462380D01*
X113485314Y-53462380D01*
%TO.C,Y1*%
X96323009Y-61012190D02*
X96323009Y-61488380D01*
X95989676Y-60488380D02*
X96323009Y-61012190D01*
X96656342Y-60488380D01*
X97513485Y-61488380D02*
X96942057Y-61488380D01*
X97227771Y-61488380D02*
X97227771Y-60488380D01*
X97132533Y-60631238D01*
X97037295Y-60726476D01*
X96942057Y-60774095D01*
%TO.C,R3*%
X77328533Y-62504380D02*
X76995200Y-62028190D01*
X76757104Y-62504380D02*
X76757104Y-61504380D01*
X77138057Y-61504380D01*
X77233295Y-61552000D01*
X77280914Y-61599619D01*
X77328533Y-61694857D01*
X77328533Y-61837714D01*
X77280914Y-61932952D01*
X77233295Y-61980571D01*
X77138057Y-62028190D01*
X76757104Y-62028190D01*
X77661866Y-61504380D02*
X78280914Y-61504380D01*
X77947580Y-61885333D01*
X78090438Y-61885333D01*
X78185676Y-61932952D01*
X78233295Y-61980571D01*
X78280914Y-62075809D01*
X78280914Y-62313904D01*
X78233295Y-62409142D01*
X78185676Y-62456761D01*
X78090438Y-62504380D01*
X77804723Y-62504380D01*
X77709485Y-62456761D01*
X77661866Y-62409142D01*
%TO.C,J2*%
X125574266Y-47686780D02*
X125574266Y-48401066D01*
X125526647Y-48543923D01*
X125431409Y-48639161D01*
X125288552Y-48686780D01*
X125193314Y-48686780D01*
X126002838Y-47782019D02*
X126050457Y-47734400D01*
X126145695Y-47686780D01*
X126383790Y-47686780D01*
X126479028Y-47734400D01*
X126526647Y-47782019D01*
X126574266Y-47877257D01*
X126574266Y-47972495D01*
X126526647Y-48115352D01*
X125955219Y-48686780D01*
X126574266Y-48686780D01*
%TO.C,R1*%
X77328533Y-58948380D02*
X76995200Y-58472190D01*
X76757104Y-58948380D02*
X76757104Y-57948380D01*
X77138057Y-57948380D01*
X77233295Y-57996000D01*
X77280914Y-58043619D01*
X77328533Y-58138857D01*
X77328533Y-58281714D01*
X77280914Y-58376952D01*
X77233295Y-58424571D01*
X77138057Y-58472190D01*
X76757104Y-58472190D01*
X78280914Y-58948380D02*
X77709485Y-58948380D01*
X77995200Y-58948380D02*
X77995200Y-57948380D01*
X77899961Y-58091238D01*
X77804723Y-58186476D01*
X77709485Y-58234095D01*
%TO.C,U1*%
X89433295Y-54392380D02*
X89433295Y-55201904D01*
X89480914Y-55297142D01*
X89528533Y-55344761D01*
X89623771Y-55392380D01*
X89814247Y-55392380D01*
X89909485Y-55344761D01*
X89957104Y-55297142D01*
X90004723Y-55201904D01*
X90004723Y-54392380D01*
X91004723Y-55392380D02*
X90433295Y-55392380D01*
X90719009Y-55392380D02*
X90719009Y-54392380D01*
X90623771Y-54535238D01*
X90528533Y-54630476D01*
X90433295Y-54678095D01*
%TO.C,C1*%
X71232533Y-45813142D02*
X71184914Y-45860761D01*
X71042057Y-45908380D01*
X70946819Y-45908380D01*
X70803961Y-45860761D01*
X70708723Y-45765523D01*
X70661104Y-45670285D01*
X70613485Y-45479809D01*
X70613485Y-45336952D01*
X70661104Y-45146476D01*
X70708723Y-45051238D01*
X70803961Y-44956000D01*
X70946819Y-44908380D01*
X71042057Y-44908380D01*
X71184914Y-44956000D01*
X71232533Y-45003619D01*
X72184914Y-45908380D02*
X71613485Y-45908380D01*
X71899200Y-45908380D02*
X71899200Y-44908380D01*
X71803961Y-45051238D01*
X71708723Y-45146476D01*
X71613485Y-45194095D01*
%TO.C,J1*%
X72081866Y-60488380D02*
X72081866Y-61202666D01*
X72034247Y-61345523D01*
X71939009Y-61440761D01*
X71796152Y-61488380D01*
X71700914Y-61488380D01*
X73081866Y-61488380D02*
X72510438Y-61488380D01*
X72796152Y-61488380D02*
X72796152Y-60488380D01*
X72700914Y-60631238D01*
X72605676Y-60726476D01*
X72510438Y-60774095D01*
%TO.C,C2*%
X71232533Y-43513142D02*
X71184914Y-43560761D01*
X71042057Y-43608380D01*
X70946819Y-43608380D01*
X70803961Y-43560761D01*
X70708723Y-43465523D01*
X70661104Y-43370285D01*
X70613485Y-43179809D01*
X70613485Y-43036952D01*
X70661104Y-42846476D01*
X70708723Y-42751238D01*
X70803961Y-42656000D01*
X70946819Y-42608380D01*
X71042057Y-42608380D01*
X71184914Y-42656000D01*
X71232533Y-42703619D01*
X71613485Y-42703619D02*
X71661104Y-42656000D01*
X71756342Y-42608380D01*
X71994438Y-42608380D01*
X72089676Y-42656000D01*
X72137295Y-42703619D01*
X72184914Y-42798857D01*
X72184914Y-42894095D01*
X72137295Y-43036952D01*
X71565866Y-43608380D01*
X72184914Y-43608380D01*
%TO.C,D1*%
X93197104Y-44308380D02*
X93197104Y-43308380D01*
X93435200Y-43308380D01*
X93578057Y-43356000D01*
X93673295Y-43451238D01*
X93720914Y-43546476D01*
X93768533Y-43736952D01*
X93768533Y-43879809D01*
X93720914Y-44070285D01*
X93673295Y-44165523D01*
X93578057Y-44260761D01*
X93435200Y-44308380D01*
X93197104Y-44308380D01*
X94720914Y-44308380D02*
X94149485Y-44308380D01*
X94435200Y-44308380D02*
X94435200Y-43308380D01*
X94339961Y-43451238D01*
X94244723Y-43546476D01*
X94149485Y-43594095D01*
%TO.C,R10*%
X121708742Y-63113980D02*
X121375409Y-62637790D01*
X121137314Y-63113980D02*
X121137314Y-62113980D01*
X121518266Y-62113980D01*
X121613504Y-62161600D01*
X121661123Y-62209219D01*
X121708742Y-62304457D01*
X121708742Y-62447314D01*
X121661123Y-62542552D01*
X121613504Y-62590171D01*
X121518266Y-62637790D01*
X121137314Y-62637790D01*
X122661123Y-63113980D02*
X122089695Y-63113980D01*
X122375409Y-63113980D02*
X122375409Y-62113980D01*
X122280171Y-62256838D01*
X122184933Y-62352076D01*
X122089695Y-62399695D01*
X123280171Y-62113980D02*
X123375409Y-62113980D01*
X123470647Y-62161600D01*
X123518266Y-62209219D01*
X123565885Y-62304457D01*
X123613504Y-62494933D01*
X123613504Y-62733028D01*
X123565885Y-62923504D01*
X123518266Y-63018742D01*
X123470647Y-63066361D01*
X123375409Y-63113980D01*
X123280171Y-63113980D01*
X123184933Y-63066361D01*
X123137314Y-63018742D01*
X123089695Y-62923504D01*
X123042076Y-62733028D01*
X123042076Y-62494933D01*
X123089695Y-62304457D01*
X123137314Y-62209219D01*
X123184933Y-62161600D01*
X123280171Y-62113980D01*
%TO.C,C5*%
X108570533Y-44070342D02*
X108522914Y-44117961D01*
X108380057Y-44165580D01*
X108284819Y-44165580D01*
X108141961Y-44117961D01*
X108046723Y-44022723D01*
X107999104Y-43927485D01*
X107951485Y-43737009D01*
X107951485Y-43594152D01*
X107999104Y-43403676D01*
X108046723Y-43308438D01*
X108141961Y-43213200D01*
X108284819Y-43165580D01*
X108380057Y-43165580D01*
X108522914Y-43213200D01*
X108570533Y-43260819D01*
X109475295Y-43165580D02*
X108999104Y-43165580D01*
X108951485Y-43641771D01*
X108999104Y-43594152D01*
X109094342Y-43546533D01*
X109332438Y-43546533D01*
X109427676Y-43594152D01*
X109475295Y-43641771D01*
X109522914Y-43737009D01*
X109522914Y-43975104D01*
X109475295Y-44070342D01*
X109427676Y-44117961D01*
X109332438Y-44165580D01*
X109094342Y-44165580D01*
X108999104Y-44117961D01*
X108951485Y-44070342D01*
%TO.C,U3*%
X106400495Y-46460380D02*
X106400495Y-47269904D01*
X106448114Y-47365142D01*
X106495733Y-47412761D01*
X106590971Y-47460380D01*
X106781447Y-47460380D01*
X106876685Y-47412761D01*
X106924304Y-47365142D01*
X106971923Y-47269904D01*
X106971923Y-46460380D01*
X107352876Y-46460380D02*
X107971923Y-46460380D01*
X107638590Y-46841333D01*
X107781447Y-46841333D01*
X107876685Y-46888952D01*
X107924304Y-46936571D01*
X107971923Y-47031809D01*
X107971923Y-47269904D01*
X107924304Y-47365142D01*
X107876685Y-47412761D01*
X107781447Y-47460380D01*
X107495733Y-47460380D01*
X107400495Y-47412761D01*
X107352876Y-47365142D01*
%TO.C,R2*%
X71232533Y-48180380D02*
X70899200Y-47704190D01*
X70661104Y-48180380D02*
X70661104Y-47180380D01*
X71042057Y-47180380D01*
X71137295Y-47228000D01*
X71184914Y-47275619D01*
X71232533Y-47370857D01*
X71232533Y-47513714D01*
X71184914Y-47608952D01*
X71137295Y-47656571D01*
X71042057Y-47704190D01*
X70661104Y-47704190D01*
X71613485Y-47275619D02*
X71661104Y-47228000D01*
X71756342Y-47180380D01*
X71994438Y-47180380D01*
X72089676Y-47228000D01*
X72137295Y-47275619D01*
X72184914Y-47370857D01*
X72184914Y-47466095D01*
X72137295Y-47608952D01*
X71565866Y-48180380D01*
X72184914Y-48180380D01*
%TO.C,R12*%
X121708742Y-65552380D02*
X121375409Y-65076190D01*
X121137314Y-65552380D02*
X121137314Y-64552380D01*
X121518266Y-64552380D01*
X121613504Y-64600000D01*
X121661123Y-64647619D01*
X121708742Y-64742857D01*
X121708742Y-64885714D01*
X121661123Y-64980952D01*
X121613504Y-65028571D01*
X121518266Y-65076190D01*
X121137314Y-65076190D01*
X122661123Y-65552380D02*
X122089695Y-65552380D01*
X122375409Y-65552380D02*
X122375409Y-64552380D01*
X122280171Y-64695238D01*
X122184933Y-64790476D01*
X122089695Y-64838095D01*
X123042076Y-64647619D02*
X123089695Y-64600000D01*
X123184933Y-64552380D01*
X123423028Y-64552380D01*
X123518266Y-64600000D01*
X123565885Y-64647619D01*
X123613504Y-64742857D01*
X123613504Y-64838095D01*
X123565885Y-64980952D01*
X122994457Y-65552380D01*
X123613504Y-65552380D01*
%TO.C,JP1*%
X112831466Y-47991580D02*
X112831466Y-48705866D01*
X112783847Y-48848723D01*
X112688609Y-48943961D01*
X112545752Y-48991580D01*
X112450514Y-48991580D01*
X113307657Y-48991580D02*
X113307657Y-47991580D01*
X113688609Y-47991580D01*
X113783847Y-48039200D01*
X113831466Y-48086819D01*
X113879085Y-48182057D01*
X113879085Y-48324914D01*
X113831466Y-48420152D01*
X113783847Y-48467771D01*
X113688609Y-48515390D01*
X113307657Y-48515390D01*
X114831466Y-48991580D02*
X114260038Y-48991580D01*
X114545752Y-48991580D02*
X114545752Y-47991580D01*
X114450514Y-48134438D01*
X114355276Y-48229676D01*
X114260038Y-48277295D01*
%TO.C,JP2*%
X116336666Y-47991580D02*
X116336666Y-48705866D01*
X116289047Y-48848723D01*
X116193809Y-48943961D01*
X116050952Y-48991580D01*
X115955714Y-48991580D01*
X116812857Y-48991580D02*
X116812857Y-47991580D01*
X117193809Y-47991580D01*
X117289047Y-48039200D01*
X117336666Y-48086819D01*
X117384285Y-48182057D01*
X117384285Y-48324914D01*
X117336666Y-48420152D01*
X117289047Y-48467771D01*
X117193809Y-48515390D01*
X116812857Y-48515390D01*
X117765238Y-48086819D02*
X117812857Y-48039200D01*
X117908095Y-47991580D01*
X118146190Y-47991580D01*
X118241428Y-48039200D01*
X118289047Y-48086819D01*
X118336666Y-48182057D01*
X118336666Y-48277295D01*
X118289047Y-48420152D01*
X117717619Y-48991580D01*
X118336666Y-48991580D01*
%TO.C,C3*%
X93838533Y-62409142D02*
X93790914Y-62456761D01*
X93648057Y-62504380D01*
X93552819Y-62504380D01*
X93409961Y-62456761D01*
X93314723Y-62361523D01*
X93267104Y-62266285D01*
X93219485Y-62075809D01*
X93219485Y-61932952D01*
X93267104Y-61742476D01*
X93314723Y-61647238D01*
X93409961Y-61552000D01*
X93552819Y-61504380D01*
X93648057Y-61504380D01*
X93790914Y-61552000D01*
X93838533Y-61599619D01*
X94171866Y-61504380D02*
X94790914Y-61504380D01*
X94457580Y-61885333D01*
X94600438Y-61885333D01*
X94695676Y-61932952D01*
X94743295Y-61980571D01*
X94790914Y-62075809D01*
X94790914Y-62313904D01*
X94743295Y-62409142D01*
X94695676Y-62456761D01*
X94600438Y-62504380D01*
X94314723Y-62504380D01*
X94219485Y-62456761D01*
X94171866Y-62409142D01*
%TO.C,C8*%
X99172533Y-65574142D02*
X99124914Y-65621761D01*
X98982057Y-65669380D01*
X98886819Y-65669380D01*
X98743961Y-65621761D01*
X98648723Y-65526523D01*
X98601104Y-65431285D01*
X98553485Y-65240809D01*
X98553485Y-65097952D01*
X98601104Y-64907476D01*
X98648723Y-64812238D01*
X98743961Y-64717000D01*
X98886819Y-64669380D01*
X98982057Y-64669380D01*
X99124914Y-64717000D01*
X99172533Y-64764619D01*
X99743961Y-65097952D02*
X99648723Y-65050333D01*
X99601104Y-65002714D01*
X99553485Y-64907476D01*
X99553485Y-64859857D01*
X99601104Y-64764619D01*
X99648723Y-64717000D01*
X99743961Y-64669380D01*
X99934438Y-64669380D01*
X100029676Y-64717000D01*
X100077295Y-64764619D01*
X100124914Y-64859857D01*
X100124914Y-64907476D01*
X100077295Y-65002714D01*
X100029676Y-65050333D01*
X99934438Y-65097952D01*
X99743961Y-65097952D01*
X99648723Y-65145571D01*
X99601104Y-65193190D01*
X99553485Y-65288428D01*
X99553485Y-65478904D01*
X99601104Y-65574142D01*
X99648723Y-65621761D01*
X99743961Y-65669380D01*
X99934438Y-65669380D01*
X100029676Y-65621761D01*
X100077295Y-65574142D01*
X100124914Y-65478904D01*
X100124914Y-65288428D01*
X100077295Y-65193190D01*
X100029676Y-65145571D01*
X99934438Y-65097952D01*
%TO.C,R4*%
X77368533Y-66303380D02*
X77035200Y-65827190D01*
X76797104Y-66303380D02*
X76797104Y-65303380D01*
X77178057Y-65303380D01*
X77273295Y-65351000D01*
X77320914Y-65398619D01*
X77368533Y-65493857D01*
X77368533Y-65636714D01*
X77320914Y-65731952D01*
X77273295Y-65779571D01*
X77178057Y-65827190D01*
X76797104Y-65827190D01*
X78225676Y-65636714D02*
X78225676Y-66303380D01*
X77987580Y-65255761D02*
X77749485Y-65970047D01*
X78368533Y-65970047D01*
%TO.C,C7*%
X99172533Y-43496142D02*
X99124914Y-43543761D01*
X98982057Y-43591380D01*
X98886819Y-43591380D01*
X98743961Y-43543761D01*
X98648723Y-43448523D01*
X98601104Y-43353285D01*
X98553485Y-43162809D01*
X98553485Y-43019952D01*
X98601104Y-42829476D01*
X98648723Y-42734238D01*
X98743961Y-42639000D01*
X98886819Y-42591380D01*
X98982057Y-42591380D01*
X99124914Y-42639000D01*
X99172533Y-42686619D01*
X99505866Y-42591380D02*
X100172533Y-42591380D01*
X99743961Y-43591380D01*
%TO.C,PS1*%
X89996914Y-44216380D02*
X89996914Y-43216380D01*
X90377866Y-43216380D01*
X90473104Y-43264000D01*
X90520723Y-43311619D01*
X90568342Y-43406857D01*
X90568342Y-43549714D01*
X90520723Y-43644952D01*
X90473104Y-43692571D01*
X90377866Y-43740190D01*
X89996914Y-43740190D01*
X90949295Y-44168761D02*
X91092152Y-44216380D01*
X91330247Y-44216380D01*
X91425485Y-44168761D01*
X91473104Y-44121142D01*
X91520723Y-44025904D01*
X91520723Y-43930666D01*
X91473104Y-43835428D01*
X91425485Y-43787809D01*
X91330247Y-43740190D01*
X91139771Y-43692571D01*
X91044533Y-43644952D01*
X90996914Y-43597333D01*
X90949295Y-43502095D01*
X90949295Y-43406857D01*
X90996914Y-43311619D01*
X91044533Y-43264000D01*
X91139771Y-43216380D01*
X91377866Y-43216380D01*
X91520723Y-43264000D01*
X92473104Y-44216380D02*
X91901676Y-44216380D01*
X92187390Y-44216380D02*
X92187390Y-43216380D01*
X92092152Y-43359238D01*
X91996914Y-43454476D01*
X91901676Y-43502095D01*
%TO.C,R11*%
X113326742Y-65958780D02*
X112993409Y-65482590D01*
X112755314Y-65958780D02*
X112755314Y-64958780D01*
X113136266Y-64958780D01*
X113231504Y-65006400D01*
X113279123Y-65054019D01*
X113326742Y-65149257D01*
X113326742Y-65292114D01*
X113279123Y-65387352D01*
X113231504Y-65434971D01*
X113136266Y-65482590D01*
X112755314Y-65482590D01*
X114279123Y-65958780D02*
X113707695Y-65958780D01*
X113993409Y-65958780D02*
X113993409Y-64958780D01*
X113898171Y-65101638D01*
X113802933Y-65196876D01*
X113707695Y-65244495D01*
X115231504Y-65958780D02*
X114660076Y-65958780D01*
X114945790Y-65958780D02*
X114945790Y-64958780D01*
X114850552Y-65101638D01*
X114755314Y-65196876D01*
X114660076Y-65244495D01*
%TO.C,R9*%
X112685333Y-56053180D02*
X112352000Y-55576990D01*
X112113904Y-56053180D02*
X112113904Y-55053180D01*
X112494857Y-55053180D01*
X112590095Y-55100800D01*
X112637714Y-55148419D01*
X112685333Y-55243657D01*
X112685333Y-55386514D01*
X112637714Y-55481752D01*
X112590095Y-55529371D01*
X112494857Y-55576990D01*
X112113904Y-55576990D01*
X113161523Y-56053180D02*
X113352000Y-56053180D01*
X113447238Y-56005561D01*
X113494857Y-55957942D01*
X113590095Y-55815085D01*
X113637714Y-55624609D01*
X113637714Y-55243657D01*
X113590095Y-55148419D01*
X113542476Y-55100800D01*
X113447238Y-55053180D01*
X113256761Y-55053180D01*
X113161523Y-55100800D01*
X113113904Y-55148419D01*
X113066285Y-55243657D01*
X113066285Y-55481752D01*
X113113904Y-55576990D01*
X113161523Y-55624609D01*
X113256761Y-55672228D01*
X113447238Y-55672228D01*
X113542476Y-55624609D01*
X113590095Y-55576990D01*
X113637714Y-55481752D01*
%TO.C,C6*%
X104455733Y-44019542D02*
X104408114Y-44067161D01*
X104265257Y-44114780D01*
X104170019Y-44114780D01*
X104027161Y-44067161D01*
X103931923Y-43971923D01*
X103884304Y-43876685D01*
X103836685Y-43686209D01*
X103836685Y-43543352D01*
X103884304Y-43352876D01*
X103931923Y-43257638D01*
X104027161Y-43162400D01*
X104170019Y-43114780D01*
X104265257Y-43114780D01*
X104408114Y-43162400D01*
X104455733Y-43210019D01*
X105312876Y-43114780D02*
X105122400Y-43114780D01*
X105027161Y-43162400D01*
X104979542Y-43210019D01*
X104884304Y-43352876D01*
X104836685Y-43543352D01*
X104836685Y-43924304D01*
X104884304Y-44019542D01*
X104931923Y-44067161D01*
X105027161Y-44114780D01*
X105217638Y-44114780D01*
X105312876Y-44067161D01*
X105360495Y-44019542D01*
X105408114Y-43924304D01*
X105408114Y-43686209D01*
X105360495Y-43590971D01*
X105312876Y-43543352D01*
X105217638Y-43495733D01*
X105027161Y-43495733D01*
X104931923Y-43543352D01*
X104884304Y-43590971D01*
X104836685Y-43686209D01*
%TO.C,R8*%
X112634533Y-50745180D02*
X112301200Y-50268990D01*
X112063104Y-50745180D02*
X112063104Y-49745180D01*
X112444057Y-49745180D01*
X112539295Y-49792800D01*
X112586914Y-49840419D01*
X112634533Y-49935657D01*
X112634533Y-50078514D01*
X112586914Y-50173752D01*
X112539295Y-50221371D01*
X112444057Y-50268990D01*
X112063104Y-50268990D01*
X113205961Y-50173752D02*
X113110723Y-50126133D01*
X113063104Y-50078514D01*
X113015485Y-49983276D01*
X113015485Y-49935657D01*
X113063104Y-49840419D01*
X113110723Y-49792800D01*
X113205961Y-49745180D01*
X113396438Y-49745180D01*
X113491676Y-49792800D01*
X113539295Y-49840419D01*
X113586914Y-49935657D01*
X113586914Y-49983276D01*
X113539295Y-50078514D01*
X113491676Y-50126133D01*
X113396438Y-50173752D01*
X113205961Y-50173752D01*
X113110723Y-50221371D01*
X113063104Y-50268990D01*
X113015485Y-50364228D01*
X113015485Y-50554704D01*
X113063104Y-50649942D01*
X113110723Y-50697561D01*
X113205961Y-50745180D01*
X113396438Y-50745180D01*
X113491676Y-50697561D01*
X113539295Y-50649942D01*
X113586914Y-50554704D01*
X113586914Y-50364228D01*
X113539295Y-50268990D01*
X113491676Y-50221371D01*
X113396438Y-50173752D01*
%TO.C,C9*%
X113824433Y-60373542D02*
X113776814Y-60421161D01*
X113633957Y-60468780D01*
X113538719Y-60468780D01*
X113395861Y-60421161D01*
X113300623Y-60325923D01*
X113253004Y-60230685D01*
X113205385Y-60040209D01*
X113205385Y-59897352D01*
X113253004Y-59706876D01*
X113300623Y-59611638D01*
X113395861Y-59516400D01*
X113538719Y-59468780D01*
X113633957Y-59468780D01*
X113776814Y-59516400D01*
X113824433Y-59564019D01*
X114300623Y-60468780D02*
X114491100Y-60468780D01*
X114586338Y-60421161D01*
X114633957Y-60373542D01*
X114729195Y-60230685D01*
X114776814Y-60040209D01*
X114776814Y-59659257D01*
X114729195Y-59564019D01*
X114681576Y-59516400D01*
X114586338Y-59468780D01*
X114395861Y-59468780D01*
X114300623Y-59516400D01*
X114253004Y-59564019D01*
X114205385Y-59659257D01*
X114205385Y-59897352D01*
X114253004Y-59992590D01*
X114300623Y-60040209D01*
X114395861Y-60087828D01*
X114586338Y-60087828D01*
X114681576Y-60040209D01*
X114729195Y-59992590D01*
X114776814Y-59897352D01*
%TO.C,D3*%
X111961504Y-58694780D02*
X111961504Y-57694780D01*
X112199600Y-57694780D01*
X112342457Y-57742400D01*
X112437695Y-57837638D01*
X112485314Y-57932876D01*
X112532933Y-58123352D01*
X112532933Y-58266209D01*
X112485314Y-58456685D01*
X112437695Y-58551923D01*
X112342457Y-58647161D01*
X112199600Y-58694780D01*
X111961504Y-58694780D01*
X112866266Y-57694780D02*
X113485314Y-57694780D01*
X113151980Y-58075733D01*
X113294838Y-58075733D01*
X113390076Y-58123352D01*
X113437695Y-58170971D01*
X113485314Y-58266209D01*
X113485314Y-58504304D01*
X113437695Y-58599542D01*
X113390076Y-58647161D01*
X113294838Y-58694780D01*
X113009123Y-58694780D01*
X112913885Y-58647161D01*
X112866266Y-58599542D01*
%TO.C,U2*%
X107111695Y-58202380D02*
X107111695Y-59011904D01*
X107159314Y-59107142D01*
X107206933Y-59154761D01*
X107302171Y-59202380D01*
X107492647Y-59202380D01*
X107587885Y-59154761D01*
X107635504Y-59107142D01*
X107683123Y-59011904D01*
X107683123Y-58202380D01*
X108111695Y-58297619D02*
X108159314Y-58250000D01*
X108254552Y-58202380D01*
X108492647Y-58202380D01*
X108587885Y-58250000D01*
X108635504Y-58297619D01*
X108683123Y-58392857D01*
X108683123Y-58488095D01*
X108635504Y-58630952D01*
X108064076Y-59202380D01*
X108683123Y-59202380D01*
%TO.C,JP3*%
X119892666Y-47991580D02*
X119892666Y-48705866D01*
X119845047Y-48848723D01*
X119749809Y-48943961D01*
X119606952Y-48991580D01*
X119511714Y-48991580D01*
X120368857Y-48991580D02*
X120368857Y-47991580D01*
X120749809Y-47991580D01*
X120845047Y-48039200D01*
X120892666Y-48086819D01*
X120940285Y-48182057D01*
X120940285Y-48324914D01*
X120892666Y-48420152D01*
X120845047Y-48467771D01*
X120749809Y-48515390D01*
X120368857Y-48515390D01*
X121273619Y-47991580D02*
X121892666Y-47991580D01*
X121559333Y-48372533D01*
X121702190Y-48372533D01*
X121797428Y-48420152D01*
X121845047Y-48467771D01*
X121892666Y-48563009D01*
X121892666Y-48801104D01*
X121845047Y-48896342D01*
X121797428Y-48943961D01*
X121702190Y-48991580D01*
X121416476Y-48991580D01*
X121321238Y-48943961D01*
X121273619Y-48896342D01*
D14*
X119548400Y-105780000D02*
X119548400Y-108380000D01*
X119548400Y-103180000D02*
X120878400Y-103180000D01*
X122208400Y-105780000D02*
X122208400Y-108380000D01*
X119548400Y-104510000D02*
X119548400Y-103180000D01*
X119548400Y-105780000D02*
X122208400Y-105780000D01*
X119548400Y-108380000D02*
X122208400Y-108380000D01*
%TO.C,U2*%
X107213200Y-120593600D02*
X109163200Y-120593600D01*
X107213200Y-120593600D02*
X103763200Y-120593600D01*
X107213200Y-125713600D02*
X109163200Y-125713600D01*
X107213200Y-125713600D02*
X105263200Y-125713600D01*
%TO.C,D3*%
X114798400Y-119694000D02*
X117658400Y-119694000D01*
X117658400Y-117774000D02*
X114798400Y-117774000D01*
X117658400Y-119694000D02*
X117658400Y-117774000D01*
%TO.C,C9*%
X113729848Y-123431400D02*
X114252352Y-123431400D01*
X113729848Y-121961400D02*
X114252352Y-121961400D01*
%TO.C,R8*%
X116025464Y-111645800D02*
X115571336Y-111645800D01*
X116025464Y-110175800D02*
X115571336Y-110175800D01*
%TO.C,C6*%
X104310348Y-105603800D02*
X104832852Y-105603800D01*
X104310348Y-107073800D02*
X104832852Y-107073800D01*
%TO.C,R9*%
X115571336Y-115399000D02*
X116025464Y-115399000D01*
X115571336Y-116869000D02*
X116025464Y-116869000D01*
%TO.C,R11*%
X113742536Y-125565000D02*
X114196664Y-125565000D01*
X113742536Y-124095000D02*
X114196664Y-124095000D01*
%TO.C,PS1*%
X91235200Y-112831000D02*
X91235200Y-106881000D01*
X77735200Y-115956000D02*
X77735200Y-105881000D01*
%TO.C,C7*%
X99600452Y-106398000D02*
X99077948Y-106398000D01*
X99600452Y-104928000D02*
X99077948Y-104928000D01*
%TO.C,R4*%
X77762264Y-124466000D02*
X77308136Y-124466000D01*
X77762264Y-125936000D02*
X77308136Y-125936000D01*
%TO.C,C8*%
X99600452Y-123958000D02*
X99077948Y-123958000D01*
X99600452Y-125428000D02*
X99077948Y-125428000D01*
%TO.C,C3*%
X93997948Y-114931000D02*
X94520452Y-114931000D01*
X93997948Y-116401000D02*
X94520452Y-116401000D01*
%TO.C,JP2*%
X115890800Y-104510000D02*
X115890800Y-103180000D01*
X115890800Y-105780000D02*
X115890800Y-108380000D01*
X115890800Y-105780000D02*
X118550800Y-105780000D01*
X115890800Y-103180000D02*
X117220800Y-103180000D01*
X115890800Y-108380000D02*
X118550800Y-108380000D01*
X118550800Y-105780000D02*
X118550800Y-108380000D01*
%TO.C,JP1*%
X112233200Y-104510000D02*
X112233200Y-103180000D01*
X112233200Y-105780000D02*
X112233200Y-108380000D01*
X112233200Y-108380000D02*
X114893200Y-108380000D01*
X112233200Y-103180000D02*
X113563200Y-103180000D01*
X114893200Y-105780000D02*
X114893200Y-108380000D01*
X112233200Y-105780000D02*
X114893200Y-105780000D01*
%TO.C,J1*%
X67875200Y-119856000D02*
X65975200Y-119856000D01*
X71775200Y-119856000D02*
X69775200Y-119856000D01*
X65975200Y-110456000D02*
X65975200Y-119856000D01*
X67875200Y-110456000D02*
X65975200Y-110456000D01*
X71775200Y-110456000D02*
X69775200Y-110456000D01*
%TO.C,R12*%
X118720936Y-125212600D02*
X119175064Y-125212600D01*
X118720936Y-126682600D02*
X119175064Y-126682600D01*
%TO.C,R2*%
X75182264Y-109463000D02*
X74728136Y-109463000D01*
X75182264Y-107993000D02*
X74728136Y-107993000D01*
%TO.C,Y1*%
X96789200Y-107506000D02*
X96789200Y-121106000D01*
X101889200Y-107506000D02*
X96789200Y-107506000D01*
X101889200Y-121106000D02*
X101889200Y-107506000D01*
%TO.C,C4*%
X93997948Y-112411000D02*
X94520452Y-112411000D01*
X93997948Y-113881000D02*
X94520452Y-113881000D01*
%TO.C,R3*%
X77722264Y-122146000D02*
X77268136Y-122146000D01*
X77722264Y-120676000D02*
X77268136Y-120676000D01*
%TO.C,R1*%
X77268136Y-118199000D02*
X77722264Y-118199000D01*
X77268136Y-116729000D02*
X77722264Y-116729000D01*
%TO.C,D2*%
X117658400Y-112574000D02*
X114798400Y-112574000D01*
X117658400Y-114494000D02*
X117658400Y-112574000D01*
X114798400Y-114494000D02*
X117658400Y-114494000D01*
%TO.C,C1*%
X75216452Y-107191000D02*
X74693948Y-107191000D01*
X75216452Y-105721000D02*
X74693948Y-105721000D01*
%TO.C,C2*%
X75216452Y-104891000D02*
X74693948Y-104891000D01*
X75216452Y-103421000D02*
X74693948Y-103421000D01*
%TO.C,J2*%
X125427600Y-122195600D02*
X127167600Y-122195600D01*
X119807600Y-110635600D02*
X126927600Y-110635600D01*
X126927600Y-121955600D02*
X126927600Y-110635600D01*
X119807600Y-121955600D02*
X126927600Y-121955600D01*
X127167600Y-122195600D02*
X127167600Y-120695600D01*
X119807600Y-121955600D02*
X119807600Y-110635600D01*
X125367600Y-121955600D02*
X125367600Y-110635600D01*
X123875600Y-118363600D02*
G75*
G03*
X122659858Y-118363491I-607999J-1432003D01*
G01*
X124699600Y-120403600D02*
G75*
G03*
X124823093Y-119768589I-1431988J607998D01*
G01*
X121835600Y-119187600D02*
G75*
G03*
X121835491Y-120403342I1432000J-608000D01*
G01*
X124822600Y-119795600D02*
G75*
G03*
X124698985Y-119188013I-1555000J0D01*
G01*
X122659600Y-121227600D02*
G75*
G03*
X123875342Y-121227709I608000J1432000D01*
G01*
X124822600Y-112795600D02*
G75*
G03*
X124822600Y-112795600I-1555000J0D01*
G01*
X124822600Y-116295600D02*
G75*
G03*
X124822600Y-116295600I-1555000J0D01*
G01*
%TO.C,R10*%
X118670136Y-124295000D02*
X119124264Y-124295000D01*
X118670136Y-122825000D02*
X119124264Y-122825000D01*
%TO.C,R6*%
X94486264Y-118961000D02*
X94032136Y-118961000D01*
X94486264Y-117491000D02*
X94032136Y-117491000D01*
%TO.C,R7*%
X94470264Y-107331000D02*
X94016136Y-107331000D01*
X94470264Y-108801000D02*
X94016136Y-108801000D01*
%TO.C,U1*%
X81875200Y-117151000D02*
X80060200Y-117151000D01*
X85735200Y-116896000D02*
X81875200Y-116896000D01*
X81875200Y-127416000D02*
X81875200Y-127161000D01*
X89595200Y-127416000D02*
X89595200Y-127161000D01*
X81875200Y-116896000D02*
X81875200Y-117151000D01*
X85735200Y-127416000D02*
X81875200Y-127416000D01*
X89595200Y-116896000D02*
X89595200Y-117151000D01*
X85735200Y-127416000D02*
X89595200Y-127416000D01*
X85735200Y-116896000D02*
X89595200Y-116896000D01*
%TO.C,U3*%
X107162400Y-108848000D02*
X109112400Y-108848000D01*
X107162400Y-108848000D02*
X103712400Y-108848000D01*
X107162400Y-118968000D02*
X105212400Y-118968000D01*
X107162400Y-118968000D02*
X109112400Y-118968000D01*
%TO.C,R5*%
X94486264Y-121247000D02*
X94032136Y-121247000D01*
X94486264Y-119777000D02*
X94032136Y-119777000D01*
%TO.C,D1*%
X96103200Y-111566000D02*
X96103200Y-109646000D01*
X96103200Y-109646000D02*
X93243200Y-109646000D01*
X93243200Y-111566000D02*
X96103200Y-111566000D01*
%TO.C,C5*%
X109100052Y-105603800D02*
X108577548Y-105603800D01*
X109100052Y-107073800D02*
X108577548Y-107073800D01*
%TO.C,JP3*%
X119548400Y-75280000D02*
X119548400Y-77880000D01*
X119548400Y-72680000D02*
X120878400Y-72680000D01*
X122208400Y-75280000D02*
X122208400Y-77880000D01*
X119548400Y-74010000D02*
X119548400Y-72680000D01*
X119548400Y-75280000D02*
X122208400Y-75280000D01*
X119548400Y-77880000D02*
X122208400Y-77880000D01*
%TO.C,U2*%
X107213200Y-90093600D02*
X109163200Y-90093600D01*
X107213200Y-90093600D02*
X103763200Y-90093600D01*
X107213200Y-95213600D02*
X109163200Y-95213600D01*
X107213200Y-95213600D02*
X105263200Y-95213600D01*
%TO.C,D3*%
X114798400Y-89194000D02*
X117658400Y-89194000D01*
X117658400Y-87274000D02*
X114798400Y-87274000D01*
X117658400Y-89194000D02*
X117658400Y-87274000D01*
%TO.C,C9*%
X113729848Y-92931400D02*
X114252352Y-92931400D01*
X113729848Y-91461400D02*
X114252352Y-91461400D01*
%TO.C,R8*%
X116025464Y-81145800D02*
X115571336Y-81145800D01*
X116025464Y-79675800D02*
X115571336Y-79675800D01*
%TO.C,C6*%
X104310348Y-75103800D02*
X104832852Y-75103800D01*
X104310348Y-76573800D02*
X104832852Y-76573800D01*
%TO.C,R9*%
X115571336Y-84899000D02*
X116025464Y-84899000D01*
X115571336Y-86369000D02*
X116025464Y-86369000D01*
%TO.C,R11*%
X113742536Y-95065000D02*
X114196664Y-95065000D01*
X113742536Y-93595000D02*
X114196664Y-93595000D01*
%TO.C,PS1*%
X91235200Y-82331000D02*
X91235200Y-76381000D01*
X77735200Y-85456000D02*
X77735200Y-75381000D01*
%TO.C,C7*%
X99600452Y-75898000D02*
X99077948Y-75898000D01*
X99600452Y-74428000D02*
X99077948Y-74428000D01*
%TO.C,R4*%
X77762264Y-93966000D02*
X77308136Y-93966000D01*
X77762264Y-95436000D02*
X77308136Y-95436000D01*
%TO.C,C8*%
X99600452Y-93458000D02*
X99077948Y-93458000D01*
X99600452Y-94928000D02*
X99077948Y-94928000D01*
%TO.C,C3*%
X93997948Y-84431000D02*
X94520452Y-84431000D01*
X93997948Y-85901000D02*
X94520452Y-85901000D01*
%TO.C,JP2*%
X115890800Y-74010000D02*
X115890800Y-72680000D01*
X115890800Y-75280000D02*
X115890800Y-77880000D01*
X115890800Y-75280000D02*
X118550800Y-75280000D01*
X115890800Y-72680000D02*
X117220800Y-72680000D01*
X115890800Y-77880000D02*
X118550800Y-77880000D01*
X118550800Y-75280000D02*
X118550800Y-77880000D01*
%TO.C,JP1*%
X112233200Y-74010000D02*
X112233200Y-72680000D01*
X112233200Y-75280000D02*
X112233200Y-77880000D01*
X112233200Y-77880000D02*
X114893200Y-77880000D01*
X112233200Y-72680000D02*
X113563200Y-72680000D01*
X114893200Y-75280000D02*
X114893200Y-77880000D01*
X112233200Y-75280000D02*
X114893200Y-75280000D01*
%TO.C,J1*%
X67875200Y-89356000D02*
X65975200Y-89356000D01*
X71775200Y-89356000D02*
X69775200Y-89356000D01*
X65975200Y-79956000D02*
X65975200Y-89356000D01*
X67875200Y-79956000D02*
X65975200Y-79956000D01*
X71775200Y-79956000D02*
X69775200Y-79956000D01*
%TO.C,R12*%
X118720936Y-94712600D02*
X119175064Y-94712600D01*
X118720936Y-96182600D02*
X119175064Y-96182600D01*
%TO.C,R2*%
X75182264Y-78963000D02*
X74728136Y-78963000D01*
X75182264Y-77493000D02*
X74728136Y-77493000D01*
%TO.C,Y1*%
X96789200Y-77006000D02*
X96789200Y-90606000D01*
X101889200Y-77006000D02*
X96789200Y-77006000D01*
X101889200Y-90606000D02*
X101889200Y-77006000D01*
%TO.C,C4*%
X93997948Y-81911000D02*
X94520452Y-81911000D01*
X93997948Y-83381000D02*
X94520452Y-83381000D01*
%TO.C,R3*%
X77722264Y-91646000D02*
X77268136Y-91646000D01*
X77722264Y-90176000D02*
X77268136Y-90176000D01*
%TO.C,R1*%
X77268136Y-87699000D02*
X77722264Y-87699000D01*
X77268136Y-86229000D02*
X77722264Y-86229000D01*
%TO.C,D2*%
X117658400Y-82074000D02*
X114798400Y-82074000D01*
X117658400Y-83994000D02*
X117658400Y-82074000D01*
X114798400Y-83994000D02*
X117658400Y-83994000D01*
%TO.C,C1*%
X75216452Y-76691000D02*
X74693948Y-76691000D01*
X75216452Y-75221000D02*
X74693948Y-75221000D01*
%TO.C,C2*%
X75216452Y-74391000D02*
X74693948Y-74391000D01*
X75216452Y-72921000D02*
X74693948Y-72921000D01*
%TO.C,J2*%
X125427600Y-91695600D02*
X127167600Y-91695600D01*
X119807600Y-80135600D02*
X126927600Y-80135600D01*
X126927600Y-91455600D02*
X126927600Y-80135600D01*
X119807600Y-91455600D02*
X126927600Y-91455600D01*
X127167600Y-91695600D02*
X127167600Y-90195600D01*
X119807600Y-91455600D02*
X119807600Y-80135600D01*
X125367600Y-91455600D02*
X125367600Y-80135600D01*
X123875600Y-87863600D02*
G75*
G03*
X122659858Y-87863491I-607999J-1432003D01*
G01*
X124699600Y-89903600D02*
G75*
G03*
X124823093Y-89268589I-1431988J607998D01*
G01*
X121835600Y-88687600D02*
G75*
G03*
X121835491Y-89903342I1432000J-608000D01*
G01*
X124822600Y-89295600D02*
G75*
G03*
X124698985Y-88688013I-1555000J0D01*
G01*
X122659600Y-90727600D02*
G75*
G03*
X123875342Y-90727709I608000J1432000D01*
G01*
X124822600Y-82295600D02*
G75*
G03*
X124822600Y-82295600I-1555000J0D01*
G01*
X124822600Y-85795600D02*
G75*
G03*
X124822600Y-85795600I-1555000J0D01*
G01*
%TO.C,R10*%
X118670136Y-93795000D02*
X119124264Y-93795000D01*
X118670136Y-92325000D02*
X119124264Y-92325000D01*
%TO.C,R6*%
X94486264Y-88461000D02*
X94032136Y-88461000D01*
X94486264Y-86991000D02*
X94032136Y-86991000D01*
%TO.C,R7*%
X94470264Y-76831000D02*
X94016136Y-76831000D01*
X94470264Y-78301000D02*
X94016136Y-78301000D01*
%TO.C,U1*%
X81875200Y-86651000D02*
X80060200Y-86651000D01*
X85735200Y-86396000D02*
X81875200Y-86396000D01*
X81875200Y-96916000D02*
X81875200Y-96661000D01*
X89595200Y-96916000D02*
X89595200Y-96661000D01*
X81875200Y-86396000D02*
X81875200Y-86651000D01*
X85735200Y-96916000D02*
X81875200Y-96916000D01*
X89595200Y-86396000D02*
X89595200Y-86651000D01*
X85735200Y-96916000D02*
X89595200Y-96916000D01*
X85735200Y-86396000D02*
X89595200Y-86396000D01*
%TO.C,U3*%
X107162400Y-78348000D02*
X109112400Y-78348000D01*
X107162400Y-78348000D02*
X103712400Y-78348000D01*
X107162400Y-88468000D02*
X105212400Y-88468000D01*
X107162400Y-88468000D02*
X109112400Y-88468000D01*
%TO.C,R5*%
X94486264Y-90747000D02*
X94032136Y-90747000D01*
X94486264Y-89277000D02*
X94032136Y-89277000D01*
%TO.C,D1*%
X96103200Y-81066000D02*
X96103200Y-79146000D01*
X96103200Y-79146000D02*
X93243200Y-79146000D01*
X93243200Y-81066000D02*
X96103200Y-81066000D01*
%TO.C,C5*%
X109100052Y-75103800D02*
X108577548Y-75103800D01*
X109100052Y-76573800D02*
X108577548Y-76573800D01*
%TO.C,R6*%
X94486264Y-57961000D02*
X94032136Y-57961000D01*
X94486264Y-56491000D02*
X94032136Y-56491000D01*
%TO.C,R7*%
X94470264Y-46331000D02*
X94016136Y-46331000D01*
X94470264Y-47801000D02*
X94016136Y-47801000D01*
%TO.C,R5*%
X94486264Y-60247000D02*
X94032136Y-60247000D01*
X94486264Y-58777000D02*
X94032136Y-58777000D01*
%TO.C,C4*%
X93997948Y-51411000D02*
X94520452Y-51411000D01*
X93997948Y-52881000D02*
X94520452Y-52881000D01*
%TO.C,D2*%
X117658400Y-51574000D02*
X114798400Y-51574000D01*
X117658400Y-53494000D02*
X117658400Y-51574000D01*
X114798400Y-53494000D02*
X117658400Y-53494000D01*
%TO.C,Y1*%
X96789200Y-46506000D02*
X96789200Y-60106000D01*
X101889200Y-46506000D02*
X96789200Y-46506000D01*
X101889200Y-60106000D02*
X101889200Y-46506000D01*
%TO.C,R3*%
X77722264Y-61146000D02*
X77268136Y-61146000D01*
X77722264Y-59676000D02*
X77268136Y-59676000D01*
%TO.C,J2*%
X125427600Y-61195600D02*
X127167600Y-61195600D01*
X119807600Y-49635600D02*
X126927600Y-49635600D01*
X126927600Y-60955600D02*
X126927600Y-49635600D01*
X119807600Y-60955600D02*
X126927600Y-60955600D01*
X127167600Y-61195600D02*
X127167600Y-59695600D01*
X119807600Y-60955600D02*
X119807600Y-49635600D01*
X125367600Y-60955600D02*
X125367600Y-49635600D01*
X123875600Y-57363600D02*
G75*
G03*
X122659858Y-57363491I-607999J-1432003D01*
G01*
X124699600Y-59403600D02*
G75*
G03*
X124823093Y-58768589I-1431988J607998D01*
G01*
X121835600Y-58187600D02*
G75*
G03*
X121835491Y-59403342I1432000J-608000D01*
G01*
X124822600Y-58795600D02*
G75*
G03*
X124698985Y-58188013I-1555000J0D01*
G01*
X122659600Y-60227600D02*
G75*
G03*
X123875342Y-60227709I608000J1432000D01*
G01*
X124822600Y-51795600D02*
G75*
G03*
X124822600Y-51795600I-1555000J0D01*
G01*
X124822600Y-55295600D02*
G75*
G03*
X124822600Y-55295600I-1555000J0D01*
G01*
%TO.C,R1*%
X77268136Y-57199000D02*
X77722264Y-57199000D01*
X77268136Y-55729000D02*
X77722264Y-55729000D01*
%TO.C,U1*%
X81875200Y-56151000D02*
X80060200Y-56151000D01*
X85735200Y-55896000D02*
X81875200Y-55896000D01*
X81875200Y-66416000D02*
X81875200Y-66161000D01*
X89595200Y-66416000D02*
X89595200Y-66161000D01*
X81875200Y-55896000D02*
X81875200Y-56151000D01*
X85735200Y-66416000D02*
X81875200Y-66416000D01*
X89595200Y-55896000D02*
X89595200Y-56151000D01*
X85735200Y-66416000D02*
X89595200Y-66416000D01*
X85735200Y-55896000D02*
X89595200Y-55896000D01*
%TO.C,C1*%
X75216452Y-46191000D02*
X74693948Y-46191000D01*
X75216452Y-44721000D02*
X74693948Y-44721000D01*
%TO.C,J1*%
X67875200Y-58856000D02*
X65975200Y-58856000D01*
X71775200Y-58856000D02*
X69775200Y-58856000D01*
X65975200Y-49456000D02*
X65975200Y-58856000D01*
X67875200Y-49456000D02*
X65975200Y-49456000D01*
X71775200Y-49456000D02*
X69775200Y-49456000D01*
%TO.C,C2*%
X75216452Y-43891000D02*
X74693948Y-43891000D01*
X75216452Y-42421000D02*
X74693948Y-42421000D01*
%TO.C,D1*%
X96103200Y-50566000D02*
X96103200Y-48646000D01*
X96103200Y-48646000D02*
X93243200Y-48646000D01*
X93243200Y-50566000D02*
X96103200Y-50566000D01*
%TO.C,R10*%
X118670136Y-63295000D02*
X119124264Y-63295000D01*
X118670136Y-61825000D02*
X119124264Y-61825000D01*
%TO.C,C5*%
X109100052Y-44603800D02*
X108577548Y-44603800D01*
X109100052Y-46073800D02*
X108577548Y-46073800D01*
%TO.C,U3*%
X107162400Y-47848000D02*
X109112400Y-47848000D01*
X107162400Y-47848000D02*
X103712400Y-47848000D01*
X107162400Y-57968000D02*
X105212400Y-57968000D01*
X107162400Y-57968000D02*
X109112400Y-57968000D01*
%TO.C,R2*%
X75182264Y-48463000D02*
X74728136Y-48463000D01*
X75182264Y-46993000D02*
X74728136Y-46993000D01*
%TO.C,R12*%
X118720936Y-64212600D02*
X119175064Y-64212600D01*
X118720936Y-65682600D02*
X119175064Y-65682600D01*
%TO.C,JP1*%
X112233200Y-43510000D02*
X112233200Y-42180000D01*
X112233200Y-44780000D02*
X112233200Y-47380000D01*
X112233200Y-47380000D02*
X114893200Y-47380000D01*
X112233200Y-42180000D02*
X113563200Y-42180000D01*
X114893200Y-44780000D02*
X114893200Y-47380000D01*
X112233200Y-44780000D02*
X114893200Y-44780000D01*
%TO.C,JP2*%
X115890800Y-43510000D02*
X115890800Y-42180000D01*
X115890800Y-44780000D02*
X115890800Y-47380000D01*
X115890800Y-44780000D02*
X118550800Y-44780000D01*
X115890800Y-42180000D02*
X117220800Y-42180000D01*
X115890800Y-47380000D02*
X118550800Y-47380000D01*
X118550800Y-44780000D02*
X118550800Y-47380000D01*
%TO.C,C3*%
X93997948Y-53931000D02*
X94520452Y-53931000D01*
X93997948Y-55401000D02*
X94520452Y-55401000D01*
%TO.C,C8*%
X99600452Y-62958000D02*
X99077948Y-62958000D01*
X99600452Y-64428000D02*
X99077948Y-64428000D01*
%TO.C,R4*%
X77762264Y-63466000D02*
X77308136Y-63466000D01*
X77762264Y-64936000D02*
X77308136Y-64936000D01*
%TO.C,C7*%
X99600452Y-45398000D02*
X99077948Y-45398000D01*
X99600452Y-43928000D02*
X99077948Y-43928000D01*
%TO.C,PS1*%
X91235200Y-51831000D02*
X91235200Y-45881000D01*
X77735200Y-54956000D02*
X77735200Y-44881000D01*
%TO.C,R11*%
X113742536Y-64565000D02*
X114196664Y-64565000D01*
X113742536Y-63095000D02*
X114196664Y-63095000D01*
%TO.C,R9*%
X115571336Y-54399000D02*
X116025464Y-54399000D01*
X115571336Y-55869000D02*
X116025464Y-55869000D01*
%TO.C,C6*%
X104310348Y-44603800D02*
X104832852Y-44603800D01*
X104310348Y-46073800D02*
X104832852Y-46073800D01*
%TO.C,R8*%
X116025464Y-50645800D02*
X115571336Y-50645800D01*
X116025464Y-49175800D02*
X115571336Y-49175800D01*
%TO.C,C9*%
X113729848Y-62431400D02*
X114252352Y-62431400D01*
X113729848Y-60961400D02*
X114252352Y-60961400D01*
%TO.C,D3*%
X114798400Y-58694000D02*
X117658400Y-58694000D01*
X117658400Y-56774000D02*
X114798400Y-56774000D01*
X117658400Y-58694000D02*
X117658400Y-56774000D01*
%TO.C,U2*%
X107213200Y-59593600D02*
X109163200Y-59593600D01*
X107213200Y-59593600D02*
X103763200Y-59593600D01*
X107213200Y-64713600D02*
X109163200Y-64713600D01*
X107213200Y-64713600D02*
X105263200Y-64713600D01*
%TO.C,JP3*%
X119548400Y-44780000D02*
X119548400Y-47380000D01*
X119548400Y-42180000D02*
X120878400Y-42180000D01*
X122208400Y-44780000D02*
X122208400Y-47380000D01*
X119548400Y-43510000D02*
X119548400Y-42180000D01*
X119548400Y-44780000D02*
X122208400Y-44780000D01*
X119548400Y-47380000D02*
X122208400Y-47380000D01*
%TD*%
M02*
