%TF.GenerationSoftware,KiCad,Pcbnew,7.0.11+dfsg-1build4*%
%TF.CreationDate,2026-07-31T16:45:02-05:00*%
%TF.ProjectId,,58585858-5858-4585-9858-585858585858,rev?*%
%TF.SameCoordinates,Original*%
%TF.FileFunction,Legend,Bot*%
%TF.FilePolarity,Positive*%
%FSLAX46Y46*%
G04 Gerber Fmt 4.6, Leading zero omitted, Abs format (unit mm)*
G04 Created by KiCad (PCBNEW 7.0.11+dfsg-1build4) date 2026-07-31 16:45:02*
%MOMM*%
%LPD*%
G01*
G04 APERTURE LIST*
%ADD10C,0.150000*%
%TA.AperFunction,Profile*%
%ADD11C,0.050000*%
%TD*%
G04 APERTURE END LIST*
D10*
X107273220Y-110029819D02*
X107273220Y-109029819D01*
X107273220Y-109029819D02*
X107035125Y-109029819D01*
X107035125Y-109029819D02*
X106892268Y-109077438D01*
X106892268Y-109077438D02*
X106797030Y-109172676D01*
X106797030Y-109172676D02*
X106749411Y-109267914D01*
X106749411Y-109267914D02*
X106701792Y-109458390D01*
X106701792Y-109458390D02*
X106701792Y-109601247D01*
X106701792Y-109601247D02*
X106749411Y-109791723D01*
X106749411Y-109791723D02*
X106797030Y-109886961D01*
X106797030Y-109886961D02*
X106892268Y-109982200D01*
X106892268Y-109982200D02*
X107035125Y-110029819D01*
X107035125Y-110029819D02*
X107273220Y-110029819D01*
X106082744Y-109029819D02*
X105987506Y-109029819D01*
X105987506Y-109029819D02*
X105892268Y-109077438D01*
X105892268Y-109077438D02*
X105844649Y-109125057D01*
X105844649Y-109125057D02*
X105797030Y-109220295D01*
X105797030Y-109220295D02*
X105749411Y-109410771D01*
X105749411Y-109410771D02*
X105749411Y-109648866D01*
X105749411Y-109648866D02*
X105797030Y-109839342D01*
X105797030Y-109839342D02*
X105844649Y-109934580D01*
X105844649Y-109934580D02*
X105892268Y-109982200D01*
X105892268Y-109982200D02*
X105987506Y-110029819D01*
X105987506Y-110029819D02*
X106082744Y-110029819D01*
X106082744Y-110029819D02*
X106177982Y-109982200D01*
X106177982Y-109982200D02*
X106225601Y-109934580D01*
X106225601Y-109934580D02*
X106273220Y-109839342D01*
X106273220Y-109839342D02*
X106320839Y-109648866D01*
X106320839Y-109648866D02*
X106320839Y-109410771D01*
X106320839Y-109410771D02*
X106273220Y-109220295D01*
X106273220Y-109220295D02*
X106225601Y-109125057D01*
X106225601Y-109125057D02*
X106177982Y-109077438D01*
X106177982Y-109077438D02*
X106082744Y-109029819D01*
X105416077Y-109029819D02*
X104797030Y-109029819D01*
X104797030Y-109029819D02*
X105130363Y-109410771D01*
X105130363Y-109410771D02*
X104987506Y-109410771D01*
X104987506Y-109410771D02*
X104892268Y-109458390D01*
X104892268Y-109458390D02*
X104844649Y-109506009D01*
X104844649Y-109506009D02*
X104797030Y-109601247D01*
X104797030Y-109601247D02*
X104797030Y-109839342D01*
X104797030Y-109839342D02*
X104844649Y-109934580D01*
X104844649Y-109934580D02*
X104892268Y-109982200D01*
X104892268Y-109982200D02*
X104987506Y-110029819D01*
X104987506Y-110029819D02*
X105273220Y-110029819D01*
X105273220Y-110029819D02*
X105368458Y-109982200D01*
X105368458Y-109982200D02*
X105416077Y-109934580D01*
X104606554Y-110125057D02*
X103844649Y-110125057D01*
X103606553Y-110029819D02*
X103606553Y-109029819D01*
X103177982Y-110029819D02*
X103177982Y-109506009D01*
X103177982Y-109506009D02*
X103225601Y-109410771D01*
X103225601Y-109410771D02*
X103320839Y-109363152D01*
X103320839Y-109363152D02*
X103463696Y-109363152D01*
X103463696Y-109363152D02*
X103558934Y-109410771D01*
X103558934Y-109410771D02*
X103606553Y-109458390D01*
X102701791Y-110029819D02*
X102701791Y-109363152D01*
X102701791Y-109029819D02*
X102749410Y-109077438D01*
X102749410Y-109077438D02*
X102701791Y-109125057D01*
X102701791Y-109125057D02*
X102654172Y-109077438D01*
X102654172Y-109077438D02*
X102701791Y-109029819D01*
X102701791Y-109029819D02*
X102701791Y-109125057D01*
X102082744Y-110029819D02*
X102177982Y-109982200D01*
X102177982Y-109982200D02*
X102225601Y-109886961D01*
X102225601Y-109886961D02*
X102225601Y-109029819D01*
X101939887Y-110125057D02*
X101177982Y-110125057D01*
X101082743Y-109363152D02*
X100701791Y-109363152D01*
X100939886Y-110029819D02*
X100939886Y-109172676D01*
X100939886Y-109172676D02*
X100892267Y-109077438D01*
X100892267Y-109077438D02*
X100797029Y-109029819D01*
X100797029Y-109029819D02*
X100701791Y-109029819D01*
X99939886Y-110029819D02*
X99939886Y-109506009D01*
X99939886Y-109506009D02*
X99987505Y-109410771D01*
X99987505Y-109410771D02*
X100082743Y-109363152D01*
X100082743Y-109363152D02*
X100273219Y-109363152D01*
X100273219Y-109363152D02*
X100368457Y-109410771D01*
X99939886Y-109982200D02*
X100035124Y-110029819D01*
X100035124Y-110029819D02*
X100273219Y-110029819D01*
X100273219Y-110029819D02*
X100368457Y-109982200D01*
X100368457Y-109982200D02*
X100416076Y-109886961D01*
X100416076Y-109886961D02*
X100416076Y-109791723D01*
X100416076Y-109791723D02*
X100368457Y-109696485D01*
X100368457Y-109696485D02*
X100273219Y-109648866D01*
X100273219Y-109648866D02*
X100035124Y-109648866D01*
X100035124Y-109648866D02*
X99939886Y-109601247D01*
X99035124Y-109982200D02*
X99130362Y-110029819D01*
X99130362Y-110029819D02*
X99320838Y-110029819D01*
X99320838Y-110029819D02*
X99416076Y-109982200D01*
X99416076Y-109982200D02*
X99463695Y-109934580D01*
X99463695Y-109934580D02*
X99511314Y-109839342D01*
X99511314Y-109839342D02*
X99511314Y-109553628D01*
X99511314Y-109553628D02*
X99463695Y-109458390D01*
X99463695Y-109458390D02*
X99416076Y-109410771D01*
X99416076Y-109410771D02*
X99320838Y-109363152D01*
X99320838Y-109363152D02*
X99130362Y-109363152D01*
X99130362Y-109363152D02*
X99035124Y-109410771D01*
X98225600Y-109982200D02*
X98320838Y-110029819D01*
X98320838Y-110029819D02*
X98511314Y-110029819D01*
X98511314Y-110029819D02*
X98606552Y-109982200D01*
X98606552Y-109982200D02*
X98654171Y-109886961D01*
X98654171Y-109886961D02*
X98654171Y-109506009D01*
X98654171Y-109506009D02*
X98606552Y-109410771D01*
X98606552Y-109410771D02*
X98511314Y-109363152D01*
X98511314Y-109363152D02*
X98320838Y-109363152D01*
X98320838Y-109363152D02*
X98225600Y-109410771D01*
X98225600Y-109410771D02*
X98177981Y-109506009D01*
X98177981Y-109506009D02*
X98177981Y-109601247D01*
X98177981Y-109601247D02*
X98654171Y-109696485D01*
X97749409Y-109363152D02*
X97749409Y-110363152D01*
X97749409Y-109410771D02*
X97654171Y-109363152D01*
X97654171Y-109363152D02*
X97463695Y-109363152D01*
X97463695Y-109363152D02*
X97368457Y-109410771D01*
X97368457Y-109410771D02*
X97320838Y-109458390D01*
X97320838Y-109458390D02*
X97273219Y-109553628D01*
X97273219Y-109553628D02*
X97273219Y-109839342D01*
X97273219Y-109839342D02*
X97320838Y-109934580D01*
X97320838Y-109934580D02*
X97368457Y-109982200D01*
X97368457Y-109982200D02*
X97463695Y-110029819D01*
X97463695Y-110029819D02*
X97654171Y-110029819D01*
X97654171Y-110029819D02*
X97749409Y-109982200D01*
X96701790Y-110029819D02*
X96797028Y-109982200D01*
X96797028Y-109982200D02*
X96844647Y-109886961D01*
X96844647Y-109886961D02*
X96844647Y-109029819D01*
X95892266Y-110029819D02*
X95892266Y-109506009D01*
X95892266Y-109506009D02*
X95939885Y-109410771D01*
X95939885Y-109410771D02*
X96035123Y-109363152D01*
X96035123Y-109363152D02*
X96225599Y-109363152D01*
X96225599Y-109363152D02*
X96320837Y-109410771D01*
X95892266Y-109982200D02*
X95987504Y-110029819D01*
X95987504Y-110029819D02*
X96225599Y-110029819D01*
X96225599Y-110029819D02*
X96320837Y-109982200D01*
X96320837Y-109982200D02*
X96368456Y-109886961D01*
X96368456Y-109886961D02*
X96368456Y-109791723D01*
X96368456Y-109791723D02*
X96320837Y-109696485D01*
X96320837Y-109696485D02*
X96225599Y-109648866D01*
X96225599Y-109648866D02*
X95987504Y-109648866D01*
X95987504Y-109648866D02*
X95892266Y-109601247D01*
X95558932Y-109363152D02*
X95177980Y-109363152D01*
X95416075Y-109029819D02*
X95416075Y-109886961D01*
X95416075Y-109886961D02*
X95368456Y-109982200D01*
X95368456Y-109982200D02*
X95273218Y-110029819D01*
X95273218Y-110029819D02*
X95177980Y-110029819D01*
X94463694Y-109982200D02*
X94558932Y-110029819D01*
X94558932Y-110029819D02*
X94749408Y-110029819D01*
X94749408Y-110029819D02*
X94844646Y-109982200D01*
X94844646Y-109982200D02*
X94892265Y-109886961D01*
X94892265Y-109886961D02*
X94892265Y-109506009D01*
X94892265Y-109506009D02*
X94844646Y-109410771D01*
X94844646Y-109410771D02*
X94749408Y-109363152D01*
X94749408Y-109363152D02*
X94558932Y-109363152D01*
X94558932Y-109363152D02*
X94463694Y-109410771D01*
X94463694Y-109410771D02*
X94416075Y-109506009D01*
X94416075Y-109506009D02*
X94416075Y-109601247D01*
X94416075Y-109601247D02*
X94892265Y-109696485D01*
X59773220Y-110029819D02*
X59773220Y-109029819D01*
X59773220Y-109029819D02*
X59535125Y-109029819D01*
X59535125Y-109029819D02*
X59392268Y-109077438D01*
X59392268Y-109077438D02*
X59297030Y-109172676D01*
X59297030Y-109172676D02*
X59249411Y-109267914D01*
X59249411Y-109267914D02*
X59201792Y-109458390D01*
X59201792Y-109458390D02*
X59201792Y-109601247D01*
X59201792Y-109601247D02*
X59249411Y-109791723D01*
X59249411Y-109791723D02*
X59297030Y-109886961D01*
X59297030Y-109886961D02*
X59392268Y-109982200D01*
X59392268Y-109982200D02*
X59535125Y-110029819D01*
X59535125Y-110029819D02*
X59773220Y-110029819D01*
X58582744Y-109029819D02*
X58487506Y-109029819D01*
X58487506Y-109029819D02*
X58392268Y-109077438D01*
X58392268Y-109077438D02*
X58344649Y-109125057D01*
X58344649Y-109125057D02*
X58297030Y-109220295D01*
X58297030Y-109220295D02*
X58249411Y-109410771D01*
X58249411Y-109410771D02*
X58249411Y-109648866D01*
X58249411Y-109648866D02*
X58297030Y-109839342D01*
X58297030Y-109839342D02*
X58344649Y-109934580D01*
X58344649Y-109934580D02*
X58392268Y-109982200D01*
X58392268Y-109982200D02*
X58487506Y-110029819D01*
X58487506Y-110029819D02*
X58582744Y-110029819D01*
X58582744Y-110029819D02*
X58677982Y-109982200D01*
X58677982Y-109982200D02*
X58725601Y-109934580D01*
X58725601Y-109934580D02*
X58773220Y-109839342D01*
X58773220Y-109839342D02*
X58820839Y-109648866D01*
X58820839Y-109648866D02*
X58820839Y-109410771D01*
X58820839Y-109410771D02*
X58773220Y-109220295D01*
X58773220Y-109220295D02*
X58725601Y-109125057D01*
X58725601Y-109125057D02*
X58677982Y-109077438D01*
X58677982Y-109077438D02*
X58582744Y-109029819D01*
X57916077Y-109029819D02*
X57297030Y-109029819D01*
X57297030Y-109029819D02*
X57630363Y-109410771D01*
X57630363Y-109410771D02*
X57487506Y-109410771D01*
X57487506Y-109410771D02*
X57392268Y-109458390D01*
X57392268Y-109458390D02*
X57344649Y-109506009D01*
X57344649Y-109506009D02*
X57297030Y-109601247D01*
X57297030Y-109601247D02*
X57297030Y-109839342D01*
X57297030Y-109839342D02*
X57344649Y-109934580D01*
X57344649Y-109934580D02*
X57392268Y-109982200D01*
X57392268Y-109982200D02*
X57487506Y-110029819D01*
X57487506Y-110029819D02*
X57773220Y-110029819D01*
X57773220Y-110029819D02*
X57868458Y-109982200D01*
X57868458Y-109982200D02*
X57916077Y-109934580D01*
X57106554Y-110125057D02*
X56344649Y-110125057D01*
X56106553Y-110029819D02*
X56106553Y-109029819D01*
X55677982Y-110029819D02*
X55677982Y-109506009D01*
X55677982Y-109506009D02*
X55725601Y-109410771D01*
X55725601Y-109410771D02*
X55820839Y-109363152D01*
X55820839Y-109363152D02*
X55963696Y-109363152D01*
X55963696Y-109363152D02*
X56058934Y-109410771D01*
X56058934Y-109410771D02*
X56106553Y-109458390D01*
X55201791Y-110029819D02*
X55201791Y-109363152D01*
X55201791Y-109029819D02*
X55249410Y-109077438D01*
X55249410Y-109077438D02*
X55201791Y-109125057D01*
X55201791Y-109125057D02*
X55154172Y-109077438D01*
X55154172Y-109077438D02*
X55201791Y-109029819D01*
X55201791Y-109029819D02*
X55201791Y-109125057D01*
X54582744Y-110029819D02*
X54677982Y-109982200D01*
X54677982Y-109982200D02*
X54725601Y-109886961D01*
X54725601Y-109886961D02*
X54725601Y-109029819D01*
X54439887Y-110125057D02*
X53677982Y-110125057D01*
X53582743Y-109363152D02*
X53201791Y-109363152D01*
X53439886Y-110029819D02*
X53439886Y-109172676D01*
X53439886Y-109172676D02*
X53392267Y-109077438D01*
X53392267Y-109077438D02*
X53297029Y-109029819D01*
X53297029Y-109029819D02*
X53201791Y-109029819D01*
X52439886Y-110029819D02*
X52439886Y-109506009D01*
X52439886Y-109506009D02*
X52487505Y-109410771D01*
X52487505Y-109410771D02*
X52582743Y-109363152D01*
X52582743Y-109363152D02*
X52773219Y-109363152D01*
X52773219Y-109363152D02*
X52868457Y-109410771D01*
X52439886Y-109982200D02*
X52535124Y-110029819D01*
X52535124Y-110029819D02*
X52773219Y-110029819D01*
X52773219Y-110029819D02*
X52868457Y-109982200D01*
X52868457Y-109982200D02*
X52916076Y-109886961D01*
X52916076Y-109886961D02*
X52916076Y-109791723D01*
X52916076Y-109791723D02*
X52868457Y-109696485D01*
X52868457Y-109696485D02*
X52773219Y-109648866D01*
X52773219Y-109648866D02*
X52535124Y-109648866D01*
X52535124Y-109648866D02*
X52439886Y-109601247D01*
X51535124Y-109982200D02*
X51630362Y-110029819D01*
X51630362Y-110029819D02*
X51820838Y-110029819D01*
X51820838Y-110029819D02*
X51916076Y-109982200D01*
X51916076Y-109982200D02*
X51963695Y-109934580D01*
X51963695Y-109934580D02*
X52011314Y-109839342D01*
X52011314Y-109839342D02*
X52011314Y-109553628D01*
X52011314Y-109553628D02*
X51963695Y-109458390D01*
X51963695Y-109458390D02*
X51916076Y-109410771D01*
X51916076Y-109410771D02*
X51820838Y-109363152D01*
X51820838Y-109363152D02*
X51630362Y-109363152D01*
X51630362Y-109363152D02*
X51535124Y-109410771D01*
X50725600Y-109982200D02*
X50820838Y-110029819D01*
X50820838Y-110029819D02*
X51011314Y-110029819D01*
X51011314Y-110029819D02*
X51106552Y-109982200D01*
X51106552Y-109982200D02*
X51154171Y-109886961D01*
X51154171Y-109886961D02*
X51154171Y-109506009D01*
X51154171Y-109506009D02*
X51106552Y-109410771D01*
X51106552Y-109410771D02*
X51011314Y-109363152D01*
X51011314Y-109363152D02*
X50820838Y-109363152D01*
X50820838Y-109363152D02*
X50725600Y-109410771D01*
X50725600Y-109410771D02*
X50677981Y-109506009D01*
X50677981Y-109506009D02*
X50677981Y-109601247D01*
X50677981Y-109601247D02*
X51154171Y-109696485D01*
X50249409Y-109363152D02*
X50249409Y-110363152D01*
X50249409Y-109410771D02*
X50154171Y-109363152D01*
X50154171Y-109363152D02*
X49963695Y-109363152D01*
X49963695Y-109363152D02*
X49868457Y-109410771D01*
X49868457Y-109410771D02*
X49820838Y-109458390D01*
X49820838Y-109458390D02*
X49773219Y-109553628D01*
X49773219Y-109553628D02*
X49773219Y-109839342D01*
X49773219Y-109839342D02*
X49820838Y-109934580D01*
X49820838Y-109934580D02*
X49868457Y-109982200D01*
X49868457Y-109982200D02*
X49963695Y-110029819D01*
X49963695Y-110029819D02*
X50154171Y-110029819D01*
X50154171Y-110029819D02*
X50249409Y-109982200D01*
X49201790Y-110029819D02*
X49297028Y-109982200D01*
X49297028Y-109982200D02*
X49344647Y-109886961D01*
X49344647Y-109886961D02*
X49344647Y-109029819D01*
X48392266Y-110029819D02*
X48392266Y-109506009D01*
X48392266Y-109506009D02*
X48439885Y-109410771D01*
X48439885Y-109410771D02*
X48535123Y-109363152D01*
X48535123Y-109363152D02*
X48725599Y-109363152D01*
X48725599Y-109363152D02*
X48820837Y-109410771D01*
X48392266Y-109982200D02*
X48487504Y-110029819D01*
X48487504Y-110029819D02*
X48725599Y-110029819D01*
X48725599Y-110029819D02*
X48820837Y-109982200D01*
X48820837Y-109982200D02*
X48868456Y-109886961D01*
X48868456Y-109886961D02*
X48868456Y-109791723D01*
X48868456Y-109791723D02*
X48820837Y-109696485D01*
X48820837Y-109696485D02*
X48725599Y-109648866D01*
X48725599Y-109648866D02*
X48487504Y-109648866D01*
X48487504Y-109648866D02*
X48392266Y-109601247D01*
X48058932Y-109363152D02*
X47677980Y-109363152D01*
X47916075Y-109029819D02*
X47916075Y-109886961D01*
X47916075Y-109886961D02*
X47868456Y-109982200D01*
X47868456Y-109982200D02*
X47773218Y-110029819D01*
X47773218Y-110029819D02*
X47677980Y-110029819D01*
X46963694Y-109982200D02*
X47058932Y-110029819D01*
X47058932Y-110029819D02*
X47249408Y-110029819D01*
X47249408Y-110029819D02*
X47344646Y-109982200D01*
X47344646Y-109982200D02*
X47392265Y-109886961D01*
X47392265Y-109886961D02*
X47392265Y-109506009D01*
X47392265Y-109506009D02*
X47344646Y-109410771D01*
X47344646Y-109410771D02*
X47249408Y-109363152D01*
X47249408Y-109363152D02*
X47058932Y-109363152D01*
X47058932Y-109363152D02*
X46963694Y-109410771D01*
X46963694Y-109410771D02*
X46916075Y-109506009D01*
X46916075Y-109506009D02*
X46916075Y-109601247D01*
X46916075Y-109601247D02*
X47392265Y-109696485D01*
D11*
X89500000Y-47600000D02*
X137000000Y-47600000D01*
X137000000Y-111600000D01*
X89500000Y-111600000D01*
X89500000Y-47600000D01*
X42000000Y-47600000D02*
X89500000Y-47600000D01*
X89500000Y-111600000D01*
X42000000Y-111600000D01*
X42000000Y-47600000D01*
M02*
