M48
; DRILL file {KiCad 7.0.11+dfsg-1build4} date vie 31 jul 2026 16:44:58
; FORMAT={-:-/ absolute / metric / decimal}
; #@! TF.CreationDate,2026-07-31T16:44:58-05:00
; #@! TF.GenerationSoftware,Kicad,Pcbnew,7.0.11+dfsg-1build4
; #@! TF.FileFunction,Plated,1,2,PTH
FMAT,2
METRIC
; #@! TA.AperFunction,Plated,PTH,ViaDrill
T1C0.300
; #@! TA.AperFunction,Plated,PTH,ComponentDrill
T2C1.150
; #@! TA.AperFunction,Plated,PTH,ComponentDrill
T3C3.200
%
G90
G05
T1
X44.235Y-66.98
X44.235Y-93.65
X65.75Y-52.4
X65.75Y-66.98
X65.75Y-106.8
X87.593Y-66.98
X87.593Y-93.65
X91.735Y-66.98
X91.735Y-93.65
X113.25Y-52.4
X113.25Y-66.98
X113.25Y-106.8
X135.093Y-66.98
X135.093Y-93.65
T2
X44.15Y-56.6
X44.15Y-81.7
X44.15Y-106.8
X45.65Y-52.4
X45.65Y-77.5
X45.65Y-102.6
X85.85Y-56.6
X85.85Y-81.7
X85.85Y-106.8
X87.35Y-52.4
X87.35Y-77.5
X87.35Y-102.6
X91.65Y-56.6
X91.65Y-81.7
X91.65Y-106.8
X93.15Y-52.4
X93.15Y-77.5
X93.15Y-102.6
X133.35Y-56.6
X133.35Y-81.7
X133.35Y-106.8
X134.85Y-52.4
X134.85Y-77.5
X134.85Y-102.6
T3
X56.25Y-75.6
X75.25Y-99.6
X103.75Y-75.6
X122.75Y-99.6
M30
