%TF.GenerationSoftware,KiCad,Pcbnew,6.0.11-2627ca5db0~126~ubuntu20.04.1*%
%TF.CreationDate,2024-08-16T09:41:27-05:00*%
%TF.ProjectId,,58585858-5858-4585-9858-585858585858,rev?*%
%TF.SameCoordinates,Original*%
%TF.FileFunction,Legend,Bot*%
%TF.FilePolarity,Positive*%
%FSLAX46Y46*%
G04 Gerber Fmt 4.6, Leading zero omitted, Abs format (unit mm)*
G04 Created by KiCad (PCBNEW 6.0.11-2627ca5db0~126~ubuntu20.04.1) date 2024-08-16 09:41:27*
%MOMM*%
%LPD*%
G01*
G04 APERTURE LIST*
%ADD10C,0.150000*%
%ADD11C,0.120000*%
G04 APERTURE END LIST*
D10*
X153057285Y-170475142D02*
X153104904Y-170522761D01*
X153247761Y-170570380D01*
X153343000Y-170570380D01*
X153485857Y-170522761D01*
X153581095Y-170427523D01*
X153628714Y-170332285D01*
X153676333Y-170141809D01*
X153676333Y-169998952D01*
X153628714Y-169808476D01*
X153581095Y-169713238D01*
X153485857Y-169618000D01*
X153343000Y-169570380D01*
X153247761Y-169570380D01*
X153104904Y-169618000D01*
X153057285Y-169665619D01*
X152438238Y-169570380D02*
X152343000Y-169570380D01*
X152247761Y-169618000D01*
X152200142Y-169665619D01*
X152152523Y-169760857D01*
X152104904Y-169951333D01*
X152104904Y-170189428D01*
X152152523Y-170379904D01*
X152200142Y-170475142D01*
X152247761Y-170522761D01*
X152343000Y-170570380D01*
X152438238Y-170570380D01*
X152533476Y-170522761D01*
X152581095Y-170475142D01*
X152628714Y-170379904D01*
X152676333Y-170189428D01*
X152676333Y-169951333D01*
X152628714Y-169760857D01*
X152581095Y-169665619D01*
X152533476Y-169618000D01*
X152438238Y-169570380D01*
X151485857Y-169570380D02*
X151390619Y-169570380D01*
X151295380Y-169618000D01*
X151247761Y-169665619D01*
X151200142Y-169760857D01*
X151152523Y-169951333D01*
X151152523Y-170189428D01*
X151200142Y-170379904D01*
X151247761Y-170475142D01*
X151295380Y-170522761D01*
X151390619Y-170570380D01*
X151485857Y-170570380D01*
X151581095Y-170522761D01*
X151628714Y-170475142D01*
X151676333Y-170379904D01*
X151723952Y-170189428D01*
X151723952Y-169951333D01*
X151676333Y-169760857D01*
X151628714Y-169665619D01*
X151581095Y-169618000D01*
X151485857Y-169570380D01*
X150962047Y-170665619D02*
X150200142Y-170665619D01*
X149962047Y-170570380D02*
X149962047Y-169570380D01*
X149533476Y-170570380D02*
X149533476Y-170046571D01*
X149581095Y-169951333D01*
X149676333Y-169903714D01*
X149819190Y-169903714D01*
X149914428Y-169951333D01*
X149962047Y-169998952D01*
X149057285Y-170570380D02*
X149057285Y-169903714D01*
X149057285Y-169570380D02*
X149104904Y-169618000D01*
X149057285Y-169665619D01*
X149009666Y-169618000D01*
X149057285Y-169570380D01*
X149057285Y-169665619D01*
X148438238Y-170570380D02*
X148533476Y-170522761D01*
X148581095Y-170427523D01*
X148581095Y-169570380D01*
X147914428Y-170570380D02*
X148009666Y-170522761D01*
X148057285Y-170427523D01*
X148057285Y-169570380D01*
X147104904Y-170570380D02*
X147104904Y-170046571D01*
X147152523Y-169951333D01*
X147247761Y-169903714D01*
X147438238Y-169903714D01*
X147533476Y-169951333D01*
X147104904Y-170522761D02*
X147200142Y-170570380D01*
X147438238Y-170570380D01*
X147533476Y-170522761D01*
X147581095Y-170427523D01*
X147581095Y-170332285D01*
X147533476Y-170237047D01*
X147438238Y-170189428D01*
X147200142Y-170189428D01*
X147104904Y-170141809D01*
X146628714Y-170570380D02*
X146628714Y-169570380D01*
X146628714Y-169951333D02*
X146533476Y-169903714D01*
X146343000Y-169903714D01*
X146247761Y-169951333D01*
X146200142Y-169998952D01*
X146152523Y-170094190D01*
X146152523Y-170379904D01*
X146200142Y-170475142D01*
X146247761Y-170522761D01*
X146343000Y-170570380D01*
X146533476Y-170570380D01*
X146628714Y-170522761D01*
X145343000Y-170522761D02*
X145438238Y-170570380D01*
X145628714Y-170570380D01*
X145723952Y-170522761D01*
X145771571Y-170427523D01*
X145771571Y-170046571D01*
X145723952Y-169951333D01*
X145628714Y-169903714D01*
X145438238Y-169903714D01*
X145343000Y-169951333D01*
X145295380Y-170046571D01*
X145295380Y-170141809D01*
X145771571Y-170237047D01*
X144723952Y-170570380D02*
X144819190Y-170522761D01*
X144866809Y-170427523D01*
X144866809Y-169570380D01*
X144343000Y-169903714D02*
X144343000Y-170903714D01*
X144343000Y-169951333D02*
X144247761Y-169903714D01*
X144057285Y-169903714D01*
X143962047Y-169951333D01*
X143914428Y-169998952D01*
X143866809Y-170094190D01*
X143866809Y-170379904D01*
X143914428Y-170475142D01*
X143962047Y-170522761D01*
X144057285Y-170570380D01*
X144247761Y-170570380D01*
X144343000Y-170522761D01*
X143295380Y-170570380D02*
X143390619Y-170522761D01*
X143438238Y-170427523D01*
X143438238Y-169570380D01*
X142485857Y-170570380D02*
X142485857Y-170046571D01*
X142533476Y-169951333D01*
X142628714Y-169903714D01*
X142819190Y-169903714D01*
X142914428Y-169951333D01*
X142485857Y-170522761D02*
X142581095Y-170570380D01*
X142819190Y-170570380D01*
X142914428Y-170522761D01*
X142962047Y-170427523D01*
X142962047Y-170332285D01*
X142914428Y-170237047D01*
X142819190Y-170189428D01*
X142581095Y-170189428D01*
X142485857Y-170141809D01*
X142152523Y-169903714D02*
X141771571Y-169903714D01*
X142009666Y-169570380D02*
X142009666Y-170427523D01*
X141962047Y-170522761D01*
X141866809Y-170570380D01*
X141771571Y-170570380D01*
X141057285Y-170522761D02*
X141152523Y-170570380D01*
X141343000Y-170570380D01*
X141438238Y-170522761D01*
X141485857Y-170427523D01*
X141485857Y-170046571D01*
X141438238Y-169951333D01*
X141343000Y-169903714D01*
X141152523Y-169903714D01*
X141057285Y-169951333D01*
X141009666Y-170046571D01*
X141009666Y-170141809D01*
X141485857Y-170237047D01*
X110057285Y-170475142D02*
X110104904Y-170522761D01*
X110247761Y-170570380D01*
X110343000Y-170570380D01*
X110485857Y-170522761D01*
X110581095Y-170427523D01*
X110628714Y-170332285D01*
X110676333Y-170141809D01*
X110676333Y-169998952D01*
X110628714Y-169808476D01*
X110581095Y-169713238D01*
X110485857Y-169618000D01*
X110343000Y-169570380D01*
X110247761Y-169570380D01*
X110104904Y-169618000D01*
X110057285Y-169665619D01*
X109438238Y-169570380D02*
X109343000Y-169570380D01*
X109247761Y-169618000D01*
X109200142Y-169665619D01*
X109152523Y-169760857D01*
X109104904Y-169951333D01*
X109104904Y-170189428D01*
X109152523Y-170379904D01*
X109200142Y-170475142D01*
X109247761Y-170522761D01*
X109343000Y-170570380D01*
X109438238Y-170570380D01*
X109533476Y-170522761D01*
X109581095Y-170475142D01*
X109628714Y-170379904D01*
X109676333Y-170189428D01*
X109676333Y-169951333D01*
X109628714Y-169760857D01*
X109581095Y-169665619D01*
X109533476Y-169618000D01*
X109438238Y-169570380D01*
X108485857Y-169570380D02*
X108390619Y-169570380D01*
X108295380Y-169618000D01*
X108247761Y-169665619D01*
X108200142Y-169760857D01*
X108152523Y-169951333D01*
X108152523Y-170189428D01*
X108200142Y-170379904D01*
X108247761Y-170475142D01*
X108295380Y-170522761D01*
X108390619Y-170570380D01*
X108485857Y-170570380D01*
X108581095Y-170522761D01*
X108628714Y-170475142D01*
X108676333Y-170379904D01*
X108723952Y-170189428D01*
X108723952Y-169951333D01*
X108676333Y-169760857D01*
X108628714Y-169665619D01*
X108581095Y-169618000D01*
X108485857Y-169570380D01*
X107962047Y-170665619D02*
X107200142Y-170665619D01*
X106962047Y-170570380D02*
X106962047Y-169570380D01*
X106533476Y-170570380D02*
X106533476Y-170046571D01*
X106581095Y-169951333D01*
X106676333Y-169903714D01*
X106819190Y-169903714D01*
X106914428Y-169951333D01*
X106962047Y-169998952D01*
X106057285Y-170570380D02*
X106057285Y-169903714D01*
X106057285Y-169570380D02*
X106104904Y-169618000D01*
X106057285Y-169665619D01*
X106009666Y-169618000D01*
X106057285Y-169570380D01*
X106057285Y-169665619D01*
X105438238Y-170570380D02*
X105533476Y-170522761D01*
X105581095Y-170427523D01*
X105581095Y-169570380D01*
X104914428Y-170570380D02*
X105009666Y-170522761D01*
X105057285Y-170427523D01*
X105057285Y-169570380D01*
X104104904Y-170570380D02*
X104104904Y-170046571D01*
X104152523Y-169951333D01*
X104247761Y-169903714D01*
X104438238Y-169903714D01*
X104533476Y-169951333D01*
X104104904Y-170522761D02*
X104200142Y-170570380D01*
X104438238Y-170570380D01*
X104533476Y-170522761D01*
X104581095Y-170427523D01*
X104581095Y-170332285D01*
X104533476Y-170237047D01*
X104438238Y-170189428D01*
X104200142Y-170189428D01*
X104104904Y-170141809D01*
X103628714Y-170570380D02*
X103628714Y-169570380D01*
X103628714Y-169951333D02*
X103533476Y-169903714D01*
X103343000Y-169903714D01*
X103247761Y-169951333D01*
X103200142Y-169998952D01*
X103152523Y-170094190D01*
X103152523Y-170379904D01*
X103200142Y-170475142D01*
X103247761Y-170522761D01*
X103343000Y-170570380D01*
X103533476Y-170570380D01*
X103628714Y-170522761D01*
X102343000Y-170522761D02*
X102438238Y-170570380D01*
X102628714Y-170570380D01*
X102723952Y-170522761D01*
X102771571Y-170427523D01*
X102771571Y-170046571D01*
X102723952Y-169951333D01*
X102628714Y-169903714D01*
X102438238Y-169903714D01*
X102343000Y-169951333D01*
X102295380Y-170046571D01*
X102295380Y-170141809D01*
X102771571Y-170237047D01*
X101723952Y-170570380D02*
X101819190Y-170522761D01*
X101866809Y-170427523D01*
X101866809Y-169570380D01*
X101343000Y-169903714D02*
X101343000Y-170903714D01*
X101343000Y-169951333D02*
X101247761Y-169903714D01*
X101057285Y-169903714D01*
X100962047Y-169951333D01*
X100914428Y-169998952D01*
X100866809Y-170094190D01*
X100866809Y-170379904D01*
X100914428Y-170475142D01*
X100962047Y-170522761D01*
X101057285Y-170570380D01*
X101247761Y-170570380D01*
X101343000Y-170522761D01*
X100295380Y-170570380D02*
X100390619Y-170522761D01*
X100438238Y-170427523D01*
X100438238Y-169570380D01*
X99485857Y-170570380D02*
X99485857Y-170046571D01*
X99533476Y-169951333D01*
X99628714Y-169903714D01*
X99819190Y-169903714D01*
X99914428Y-169951333D01*
X99485857Y-170522761D02*
X99581095Y-170570380D01*
X99819190Y-170570380D01*
X99914428Y-170522761D01*
X99962047Y-170427523D01*
X99962047Y-170332285D01*
X99914428Y-170237047D01*
X99819190Y-170189428D01*
X99581095Y-170189428D01*
X99485857Y-170141809D01*
X99152523Y-169903714D02*
X98771571Y-169903714D01*
X99009666Y-169570380D02*
X99009666Y-170427523D01*
X98962047Y-170522761D01*
X98866809Y-170570380D01*
X98771571Y-170570380D01*
X98057285Y-170522761D02*
X98152523Y-170570380D01*
X98343000Y-170570380D01*
X98438238Y-170522761D01*
X98485857Y-170427523D01*
X98485857Y-170046571D01*
X98438238Y-169951333D01*
X98343000Y-169903714D01*
X98152523Y-169903714D01*
X98057285Y-169951333D01*
X98009666Y-170046571D01*
X98009666Y-170141809D01*
X98485857Y-170237047D01*
X153057285Y-162475142D02*
X153104904Y-162522761D01*
X153247761Y-162570380D01*
X153343000Y-162570380D01*
X153485857Y-162522761D01*
X153581095Y-162427523D01*
X153628714Y-162332285D01*
X153676333Y-162141809D01*
X153676333Y-161998952D01*
X153628714Y-161808476D01*
X153581095Y-161713238D01*
X153485857Y-161618000D01*
X153343000Y-161570380D01*
X153247761Y-161570380D01*
X153104904Y-161618000D01*
X153057285Y-161665619D01*
X152438238Y-161570380D02*
X152343000Y-161570380D01*
X152247761Y-161618000D01*
X152200142Y-161665619D01*
X152152523Y-161760857D01*
X152104904Y-161951333D01*
X152104904Y-162189428D01*
X152152523Y-162379904D01*
X152200142Y-162475142D01*
X152247761Y-162522761D01*
X152343000Y-162570380D01*
X152438238Y-162570380D01*
X152533476Y-162522761D01*
X152581095Y-162475142D01*
X152628714Y-162379904D01*
X152676333Y-162189428D01*
X152676333Y-161951333D01*
X152628714Y-161760857D01*
X152581095Y-161665619D01*
X152533476Y-161618000D01*
X152438238Y-161570380D01*
X151485857Y-161570380D02*
X151390619Y-161570380D01*
X151295380Y-161618000D01*
X151247761Y-161665619D01*
X151200142Y-161760857D01*
X151152523Y-161951333D01*
X151152523Y-162189428D01*
X151200142Y-162379904D01*
X151247761Y-162475142D01*
X151295380Y-162522761D01*
X151390619Y-162570380D01*
X151485857Y-162570380D01*
X151581095Y-162522761D01*
X151628714Y-162475142D01*
X151676333Y-162379904D01*
X151723952Y-162189428D01*
X151723952Y-161951333D01*
X151676333Y-161760857D01*
X151628714Y-161665619D01*
X151581095Y-161618000D01*
X151485857Y-161570380D01*
X150962047Y-162665619D02*
X150200142Y-162665619D01*
X149962047Y-162570380D02*
X149962047Y-161570380D01*
X149533476Y-162570380D02*
X149533476Y-162046571D01*
X149581095Y-161951333D01*
X149676333Y-161903714D01*
X149819190Y-161903714D01*
X149914428Y-161951333D01*
X149962047Y-161998952D01*
X149057285Y-162570380D02*
X149057285Y-161903714D01*
X149057285Y-161570380D02*
X149104904Y-161618000D01*
X149057285Y-161665619D01*
X149009666Y-161618000D01*
X149057285Y-161570380D01*
X149057285Y-161665619D01*
X148438238Y-162570380D02*
X148533476Y-162522761D01*
X148581095Y-162427523D01*
X148581095Y-161570380D01*
X147914428Y-162570380D02*
X148009666Y-162522761D01*
X148057285Y-162427523D01*
X148057285Y-161570380D01*
X147104904Y-162570380D02*
X147104904Y-162046571D01*
X147152523Y-161951333D01*
X147247761Y-161903714D01*
X147438238Y-161903714D01*
X147533476Y-161951333D01*
X147104904Y-162522761D02*
X147200142Y-162570380D01*
X147438238Y-162570380D01*
X147533476Y-162522761D01*
X147581095Y-162427523D01*
X147581095Y-162332285D01*
X147533476Y-162237047D01*
X147438238Y-162189428D01*
X147200142Y-162189428D01*
X147104904Y-162141809D01*
X146628714Y-162570380D02*
X146628714Y-161570380D01*
X146628714Y-161951333D02*
X146533476Y-161903714D01*
X146343000Y-161903714D01*
X146247761Y-161951333D01*
X146200142Y-161998952D01*
X146152523Y-162094190D01*
X146152523Y-162379904D01*
X146200142Y-162475142D01*
X146247761Y-162522761D01*
X146343000Y-162570380D01*
X146533476Y-162570380D01*
X146628714Y-162522761D01*
X145343000Y-162522761D02*
X145438238Y-162570380D01*
X145628714Y-162570380D01*
X145723952Y-162522761D01*
X145771571Y-162427523D01*
X145771571Y-162046571D01*
X145723952Y-161951333D01*
X145628714Y-161903714D01*
X145438238Y-161903714D01*
X145343000Y-161951333D01*
X145295380Y-162046571D01*
X145295380Y-162141809D01*
X145771571Y-162237047D01*
X144723952Y-162570380D02*
X144819190Y-162522761D01*
X144866809Y-162427523D01*
X144866809Y-161570380D01*
X144343000Y-161903714D02*
X144343000Y-162903714D01*
X144343000Y-161951333D02*
X144247761Y-161903714D01*
X144057285Y-161903714D01*
X143962047Y-161951333D01*
X143914428Y-161998952D01*
X143866809Y-162094190D01*
X143866809Y-162379904D01*
X143914428Y-162475142D01*
X143962047Y-162522761D01*
X144057285Y-162570380D01*
X144247761Y-162570380D01*
X144343000Y-162522761D01*
X143295380Y-162570380D02*
X143390619Y-162522761D01*
X143438238Y-162427523D01*
X143438238Y-161570380D01*
X142485857Y-162570380D02*
X142485857Y-162046571D01*
X142533476Y-161951333D01*
X142628714Y-161903714D01*
X142819190Y-161903714D01*
X142914428Y-161951333D01*
X142485857Y-162522761D02*
X142581095Y-162570380D01*
X142819190Y-162570380D01*
X142914428Y-162522761D01*
X142962047Y-162427523D01*
X142962047Y-162332285D01*
X142914428Y-162237047D01*
X142819190Y-162189428D01*
X142581095Y-162189428D01*
X142485857Y-162141809D01*
X142152523Y-161903714D02*
X141771571Y-161903714D01*
X142009666Y-161570380D02*
X142009666Y-162427523D01*
X141962047Y-162522761D01*
X141866809Y-162570380D01*
X141771571Y-162570380D01*
X141057285Y-162522761D02*
X141152523Y-162570380D01*
X141343000Y-162570380D01*
X141438238Y-162522761D01*
X141485857Y-162427523D01*
X141485857Y-162046571D01*
X141438238Y-161951333D01*
X141343000Y-161903714D01*
X141152523Y-161903714D01*
X141057285Y-161951333D01*
X141009666Y-162046571D01*
X141009666Y-162141809D01*
X141485857Y-162237047D01*
X110057285Y-162475142D02*
X110104904Y-162522761D01*
X110247761Y-162570380D01*
X110343000Y-162570380D01*
X110485857Y-162522761D01*
X110581095Y-162427523D01*
X110628714Y-162332285D01*
X110676333Y-162141809D01*
X110676333Y-161998952D01*
X110628714Y-161808476D01*
X110581095Y-161713238D01*
X110485857Y-161618000D01*
X110343000Y-161570380D01*
X110247761Y-161570380D01*
X110104904Y-161618000D01*
X110057285Y-161665619D01*
X109438238Y-161570380D02*
X109343000Y-161570380D01*
X109247761Y-161618000D01*
X109200142Y-161665619D01*
X109152523Y-161760857D01*
X109104904Y-161951333D01*
X109104904Y-162189428D01*
X109152523Y-162379904D01*
X109200142Y-162475142D01*
X109247761Y-162522761D01*
X109343000Y-162570380D01*
X109438238Y-162570380D01*
X109533476Y-162522761D01*
X109581095Y-162475142D01*
X109628714Y-162379904D01*
X109676333Y-162189428D01*
X109676333Y-161951333D01*
X109628714Y-161760857D01*
X109581095Y-161665619D01*
X109533476Y-161618000D01*
X109438238Y-161570380D01*
X108485857Y-161570380D02*
X108390619Y-161570380D01*
X108295380Y-161618000D01*
X108247761Y-161665619D01*
X108200142Y-161760857D01*
X108152523Y-161951333D01*
X108152523Y-162189428D01*
X108200142Y-162379904D01*
X108247761Y-162475142D01*
X108295380Y-162522761D01*
X108390619Y-162570380D01*
X108485857Y-162570380D01*
X108581095Y-162522761D01*
X108628714Y-162475142D01*
X108676333Y-162379904D01*
X108723952Y-162189428D01*
X108723952Y-161951333D01*
X108676333Y-161760857D01*
X108628714Y-161665619D01*
X108581095Y-161618000D01*
X108485857Y-161570380D01*
X107962047Y-162665619D02*
X107200142Y-162665619D01*
X106962047Y-162570380D02*
X106962047Y-161570380D01*
X106533476Y-162570380D02*
X106533476Y-162046571D01*
X106581095Y-161951333D01*
X106676333Y-161903714D01*
X106819190Y-161903714D01*
X106914428Y-161951333D01*
X106962047Y-161998952D01*
X106057285Y-162570380D02*
X106057285Y-161903714D01*
X106057285Y-161570380D02*
X106104904Y-161618000D01*
X106057285Y-161665619D01*
X106009666Y-161618000D01*
X106057285Y-161570380D01*
X106057285Y-161665619D01*
X105438238Y-162570380D02*
X105533476Y-162522761D01*
X105581095Y-162427523D01*
X105581095Y-161570380D01*
X104914428Y-162570380D02*
X105009666Y-162522761D01*
X105057285Y-162427523D01*
X105057285Y-161570380D01*
X104104904Y-162570380D02*
X104104904Y-162046571D01*
X104152523Y-161951333D01*
X104247761Y-161903714D01*
X104438238Y-161903714D01*
X104533476Y-161951333D01*
X104104904Y-162522761D02*
X104200142Y-162570380D01*
X104438238Y-162570380D01*
X104533476Y-162522761D01*
X104581095Y-162427523D01*
X104581095Y-162332285D01*
X104533476Y-162237047D01*
X104438238Y-162189428D01*
X104200142Y-162189428D01*
X104104904Y-162141809D01*
X103628714Y-162570380D02*
X103628714Y-161570380D01*
X103628714Y-161951333D02*
X103533476Y-161903714D01*
X103343000Y-161903714D01*
X103247761Y-161951333D01*
X103200142Y-161998952D01*
X103152523Y-162094190D01*
X103152523Y-162379904D01*
X103200142Y-162475142D01*
X103247761Y-162522761D01*
X103343000Y-162570380D01*
X103533476Y-162570380D01*
X103628714Y-162522761D01*
X102343000Y-162522761D02*
X102438238Y-162570380D01*
X102628714Y-162570380D01*
X102723952Y-162522761D01*
X102771571Y-162427523D01*
X102771571Y-162046571D01*
X102723952Y-161951333D01*
X102628714Y-161903714D01*
X102438238Y-161903714D01*
X102343000Y-161951333D01*
X102295380Y-162046571D01*
X102295380Y-162141809D01*
X102771571Y-162237047D01*
X101723952Y-162570380D02*
X101819190Y-162522761D01*
X101866809Y-162427523D01*
X101866809Y-161570380D01*
X101343000Y-161903714D02*
X101343000Y-162903714D01*
X101343000Y-161951333D02*
X101247761Y-161903714D01*
X101057285Y-161903714D01*
X100962047Y-161951333D01*
X100914428Y-161998952D01*
X100866809Y-162094190D01*
X100866809Y-162379904D01*
X100914428Y-162475142D01*
X100962047Y-162522761D01*
X101057285Y-162570380D01*
X101247761Y-162570380D01*
X101343000Y-162522761D01*
X100295380Y-162570380D02*
X100390619Y-162522761D01*
X100438238Y-162427523D01*
X100438238Y-161570380D01*
X99485857Y-162570380D02*
X99485857Y-162046571D01*
X99533476Y-161951333D01*
X99628714Y-161903714D01*
X99819190Y-161903714D01*
X99914428Y-161951333D01*
X99485857Y-162522761D02*
X99581095Y-162570380D01*
X99819190Y-162570380D01*
X99914428Y-162522761D01*
X99962047Y-162427523D01*
X99962047Y-162332285D01*
X99914428Y-162237047D01*
X99819190Y-162189428D01*
X99581095Y-162189428D01*
X99485857Y-162141809D01*
X99152523Y-161903714D02*
X98771571Y-161903714D01*
X99009666Y-161570380D02*
X99009666Y-162427523D01*
X98962047Y-162522761D01*
X98866809Y-162570380D01*
X98771571Y-162570380D01*
X98057285Y-162522761D02*
X98152523Y-162570380D01*
X98343000Y-162570380D01*
X98438238Y-162522761D01*
X98485857Y-162427523D01*
X98485857Y-162046571D01*
X98438238Y-161951333D01*
X98343000Y-161903714D01*
X98152523Y-161903714D01*
X98057285Y-161951333D01*
X98009666Y-162046571D01*
X98009666Y-162141809D01*
X98485857Y-162237047D01*
X153057285Y-154475142D02*
X153104904Y-154522761D01*
X153247761Y-154570380D01*
X153343000Y-154570380D01*
X153485857Y-154522761D01*
X153581095Y-154427523D01*
X153628714Y-154332285D01*
X153676333Y-154141809D01*
X153676333Y-153998952D01*
X153628714Y-153808476D01*
X153581095Y-153713238D01*
X153485857Y-153618000D01*
X153343000Y-153570380D01*
X153247761Y-153570380D01*
X153104904Y-153618000D01*
X153057285Y-153665619D01*
X152438238Y-153570380D02*
X152343000Y-153570380D01*
X152247761Y-153618000D01*
X152200142Y-153665619D01*
X152152523Y-153760857D01*
X152104904Y-153951333D01*
X152104904Y-154189428D01*
X152152523Y-154379904D01*
X152200142Y-154475142D01*
X152247761Y-154522761D01*
X152343000Y-154570380D01*
X152438238Y-154570380D01*
X152533476Y-154522761D01*
X152581095Y-154475142D01*
X152628714Y-154379904D01*
X152676333Y-154189428D01*
X152676333Y-153951333D01*
X152628714Y-153760857D01*
X152581095Y-153665619D01*
X152533476Y-153618000D01*
X152438238Y-153570380D01*
X151485857Y-153570380D02*
X151390619Y-153570380D01*
X151295380Y-153618000D01*
X151247761Y-153665619D01*
X151200142Y-153760857D01*
X151152523Y-153951333D01*
X151152523Y-154189428D01*
X151200142Y-154379904D01*
X151247761Y-154475142D01*
X151295380Y-154522761D01*
X151390619Y-154570380D01*
X151485857Y-154570380D01*
X151581095Y-154522761D01*
X151628714Y-154475142D01*
X151676333Y-154379904D01*
X151723952Y-154189428D01*
X151723952Y-153951333D01*
X151676333Y-153760857D01*
X151628714Y-153665619D01*
X151581095Y-153618000D01*
X151485857Y-153570380D01*
X150962047Y-154665619D02*
X150200142Y-154665619D01*
X149962047Y-154570380D02*
X149962047Y-153570380D01*
X149533476Y-154570380D02*
X149533476Y-154046571D01*
X149581095Y-153951333D01*
X149676333Y-153903714D01*
X149819190Y-153903714D01*
X149914428Y-153951333D01*
X149962047Y-153998952D01*
X149057285Y-154570380D02*
X149057285Y-153903714D01*
X149057285Y-153570380D02*
X149104904Y-153618000D01*
X149057285Y-153665619D01*
X149009666Y-153618000D01*
X149057285Y-153570380D01*
X149057285Y-153665619D01*
X148438238Y-154570380D02*
X148533476Y-154522761D01*
X148581095Y-154427523D01*
X148581095Y-153570380D01*
X147914428Y-154570380D02*
X148009666Y-154522761D01*
X148057285Y-154427523D01*
X148057285Y-153570380D01*
X147104904Y-154570380D02*
X147104904Y-154046571D01*
X147152523Y-153951333D01*
X147247761Y-153903714D01*
X147438238Y-153903714D01*
X147533476Y-153951333D01*
X147104904Y-154522761D02*
X147200142Y-154570380D01*
X147438238Y-154570380D01*
X147533476Y-154522761D01*
X147581095Y-154427523D01*
X147581095Y-154332285D01*
X147533476Y-154237047D01*
X147438238Y-154189428D01*
X147200142Y-154189428D01*
X147104904Y-154141809D01*
X146628714Y-154570380D02*
X146628714Y-153570380D01*
X146628714Y-153951333D02*
X146533476Y-153903714D01*
X146343000Y-153903714D01*
X146247761Y-153951333D01*
X146200142Y-153998952D01*
X146152523Y-154094190D01*
X146152523Y-154379904D01*
X146200142Y-154475142D01*
X146247761Y-154522761D01*
X146343000Y-154570380D01*
X146533476Y-154570380D01*
X146628714Y-154522761D01*
X145343000Y-154522761D02*
X145438238Y-154570380D01*
X145628714Y-154570380D01*
X145723952Y-154522761D01*
X145771571Y-154427523D01*
X145771571Y-154046571D01*
X145723952Y-153951333D01*
X145628714Y-153903714D01*
X145438238Y-153903714D01*
X145343000Y-153951333D01*
X145295380Y-154046571D01*
X145295380Y-154141809D01*
X145771571Y-154237047D01*
X144723952Y-154570380D02*
X144819190Y-154522761D01*
X144866809Y-154427523D01*
X144866809Y-153570380D01*
X144343000Y-153903714D02*
X144343000Y-154903714D01*
X144343000Y-153951333D02*
X144247761Y-153903714D01*
X144057285Y-153903714D01*
X143962047Y-153951333D01*
X143914428Y-153998952D01*
X143866809Y-154094190D01*
X143866809Y-154379904D01*
X143914428Y-154475142D01*
X143962047Y-154522761D01*
X144057285Y-154570380D01*
X144247761Y-154570380D01*
X144343000Y-154522761D01*
X143295380Y-154570380D02*
X143390619Y-154522761D01*
X143438238Y-154427523D01*
X143438238Y-153570380D01*
X142485857Y-154570380D02*
X142485857Y-154046571D01*
X142533476Y-153951333D01*
X142628714Y-153903714D01*
X142819190Y-153903714D01*
X142914428Y-153951333D01*
X142485857Y-154522761D02*
X142581095Y-154570380D01*
X142819190Y-154570380D01*
X142914428Y-154522761D01*
X142962047Y-154427523D01*
X142962047Y-154332285D01*
X142914428Y-154237047D01*
X142819190Y-154189428D01*
X142581095Y-154189428D01*
X142485857Y-154141809D01*
X142152523Y-153903714D02*
X141771571Y-153903714D01*
X142009666Y-153570380D02*
X142009666Y-154427523D01*
X141962047Y-154522761D01*
X141866809Y-154570380D01*
X141771571Y-154570380D01*
X141057285Y-154522761D02*
X141152523Y-154570380D01*
X141343000Y-154570380D01*
X141438238Y-154522761D01*
X141485857Y-154427523D01*
X141485857Y-154046571D01*
X141438238Y-153951333D01*
X141343000Y-153903714D01*
X141152523Y-153903714D01*
X141057285Y-153951333D01*
X141009666Y-154046571D01*
X141009666Y-154141809D01*
X141485857Y-154237047D01*
X110057285Y-154475142D02*
X110104904Y-154522761D01*
X110247761Y-154570380D01*
X110343000Y-154570380D01*
X110485857Y-154522761D01*
X110581095Y-154427523D01*
X110628714Y-154332285D01*
X110676333Y-154141809D01*
X110676333Y-153998952D01*
X110628714Y-153808476D01*
X110581095Y-153713238D01*
X110485857Y-153618000D01*
X110343000Y-153570380D01*
X110247761Y-153570380D01*
X110104904Y-153618000D01*
X110057285Y-153665619D01*
X109438238Y-153570380D02*
X109343000Y-153570380D01*
X109247761Y-153618000D01*
X109200142Y-153665619D01*
X109152523Y-153760857D01*
X109104904Y-153951333D01*
X109104904Y-154189428D01*
X109152523Y-154379904D01*
X109200142Y-154475142D01*
X109247761Y-154522761D01*
X109343000Y-154570380D01*
X109438238Y-154570380D01*
X109533476Y-154522761D01*
X109581095Y-154475142D01*
X109628714Y-154379904D01*
X109676333Y-154189428D01*
X109676333Y-153951333D01*
X109628714Y-153760857D01*
X109581095Y-153665619D01*
X109533476Y-153618000D01*
X109438238Y-153570380D01*
X108485857Y-153570380D02*
X108390619Y-153570380D01*
X108295380Y-153618000D01*
X108247761Y-153665619D01*
X108200142Y-153760857D01*
X108152523Y-153951333D01*
X108152523Y-154189428D01*
X108200142Y-154379904D01*
X108247761Y-154475142D01*
X108295380Y-154522761D01*
X108390619Y-154570380D01*
X108485857Y-154570380D01*
X108581095Y-154522761D01*
X108628714Y-154475142D01*
X108676333Y-154379904D01*
X108723952Y-154189428D01*
X108723952Y-153951333D01*
X108676333Y-153760857D01*
X108628714Y-153665619D01*
X108581095Y-153618000D01*
X108485857Y-153570380D01*
X107962047Y-154665619D02*
X107200142Y-154665619D01*
X106962047Y-154570380D02*
X106962047Y-153570380D01*
X106533476Y-154570380D02*
X106533476Y-154046571D01*
X106581095Y-153951333D01*
X106676333Y-153903714D01*
X106819190Y-153903714D01*
X106914428Y-153951333D01*
X106962047Y-153998952D01*
X106057285Y-154570380D02*
X106057285Y-153903714D01*
X106057285Y-153570380D02*
X106104904Y-153618000D01*
X106057285Y-153665619D01*
X106009666Y-153618000D01*
X106057285Y-153570380D01*
X106057285Y-153665619D01*
X105438238Y-154570380D02*
X105533476Y-154522761D01*
X105581095Y-154427523D01*
X105581095Y-153570380D01*
X104914428Y-154570380D02*
X105009666Y-154522761D01*
X105057285Y-154427523D01*
X105057285Y-153570380D01*
X104104904Y-154570380D02*
X104104904Y-154046571D01*
X104152523Y-153951333D01*
X104247761Y-153903714D01*
X104438238Y-153903714D01*
X104533476Y-153951333D01*
X104104904Y-154522761D02*
X104200142Y-154570380D01*
X104438238Y-154570380D01*
X104533476Y-154522761D01*
X104581095Y-154427523D01*
X104581095Y-154332285D01*
X104533476Y-154237047D01*
X104438238Y-154189428D01*
X104200142Y-154189428D01*
X104104904Y-154141809D01*
X103628714Y-154570380D02*
X103628714Y-153570380D01*
X103628714Y-153951333D02*
X103533476Y-153903714D01*
X103343000Y-153903714D01*
X103247761Y-153951333D01*
X103200142Y-153998952D01*
X103152523Y-154094190D01*
X103152523Y-154379904D01*
X103200142Y-154475142D01*
X103247761Y-154522761D01*
X103343000Y-154570380D01*
X103533476Y-154570380D01*
X103628714Y-154522761D01*
X102343000Y-154522761D02*
X102438238Y-154570380D01*
X102628714Y-154570380D01*
X102723952Y-154522761D01*
X102771571Y-154427523D01*
X102771571Y-154046571D01*
X102723952Y-153951333D01*
X102628714Y-153903714D01*
X102438238Y-153903714D01*
X102343000Y-153951333D01*
X102295380Y-154046571D01*
X102295380Y-154141809D01*
X102771571Y-154237047D01*
X101723952Y-154570380D02*
X101819190Y-154522761D01*
X101866809Y-154427523D01*
X101866809Y-153570380D01*
X101343000Y-153903714D02*
X101343000Y-154903714D01*
X101343000Y-153951333D02*
X101247761Y-153903714D01*
X101057285Y-153903714D01*
X100962047Y-153951333D01*
X100914428Y-153998952D01*
X100866809Y-154094190D01*
X100866809Y-154379904D01*
X100914428Y-154475142D01*
X100962047Y-154522761D01*
X101057285Y-154570380D01*
X101247761Y-154570380D01*
X101343000Y-154522761D01*
X100295380Y-154570380D02*
X100390619Y-154522761D01*
X100438238Y-154427523D01*
X100438238Y-153570380D01*
X99485857Y-154570380D02*
X99485857Y-154046571D01*
X99533476Y-153951333D01*
X99628714Y-153903714D01*
X99819190Y-153903714D01*
X99914428Y-153951333D01*
X99485857Y-154522761D02*
X99581095Y-154570380D01*
X99819190Y-154570380D01*
X99914428Y-154522761D01*
X99962047Y-154427523D01*
X99962047Y-154332285D01*
X99914428Y-154237047D01*
X99819190Y-154189428D01*
X99581095Y-154189428D01*
X99485857Y-154141809D01*
X99152523Y-153903714D02*
X98771571Y-153903714D01*
X99009666Y-153570380D02*
X99009666Y-154427523D01*
X98962047Y-154522761D01*
X98866809Y-154570380D01*
X98771571Y-154570380D01*
X98057285Y-154522761D02*
X98152523Y-154570380D01*
X98343000Y-154570380D01*
X98438238Y-154522761D01*
X98485857Y-154427523D01*
X98485857Y-154046571D01*
X98438238Y-153951333D01*
X98343000Y-153903714D01*
X98152523Y-153903714D01*
X98057285Y-153951333D01*
X98009666Y-154046571D01*
X98009666Y-154141809D01*
X98485857Y-154237047D01*
X153057285Y-146475142D02*
X153104904Y-146522761D01*
X153247761Y-146570380D01*
X153343000Y-146570380D01*
X153485857Y-146522761D01*
X153581095Y-146427523D01*
X153628714Y-146332285D01*
X153676333Y-146141809D01*
X153676333Y-145998952D01*
X153628714Y-145808476D01*
X153581095Y-145713238D01*
X153485857Y-145618000D01*
X153343000Y-145570380D01*
X153247761Y-145570380D01*
X153104904Y-145618000D01*
X153057285Y-145665619D01*
X152438238Y-145570380D02*
X152343000Y-145570380D01*
X152247761Y-145618000D01*
X152200142Y-145665619D01*
X152152523Y-145760857D01*
X152104904Y-145951333D01*
X152104904Y-146189428D01*
X152152523Y-146379904D01*
X152200142Y-146475142D01*
X152247761Y-146522761D01*
X152343000Y-146570380D01*
X152438238Y-146570380D01*
X152533476Y-146522761D01*
X152581095Y-146475142D01*
X152628714Y-146379904D01*
X152676333Y-146189428D01*
X152676333Y-145951333D01*
X152628714Y-145760857D01*
X152581095Y-145665619D01*
X152533476Y-145618000D01*
X152438238Y-145570380D01*
X151485857Y-145570380D02*
X151390619Y-145570380D01*
X151295380Y-145618000D01*
X151247761Y-145665619D01*
X151200142Y-145760857D01*
X151152523Y-145951333D01*
X151152523Y-146189428D01*
X151200142Y-146379904D01*
X151247761Y-146475142D01*
X151295380Y-146522761D01*
X151390619Y-146570380D01*
X151485857Y-146570380D01*
X151581095Y-146522761D01*
X151628714Y-146475142D01*
X151676333Y-146379904D01*
X151723952Y-146189428D01*
X151723952Y-145951333D01*
X151676333Y-145760857D01*
X151628714Y-145665619D01*
X151581095Y-145618000D01*
X151485857Y-145570380D01*
X150962047Y-146665619D02*
X150200142Y-146665619D01*
X149962047Y-146570380D02*
X149962047Y-145570380D01*
X149533476Y-146570380D02*
X149533476Y-146046571D01*
X149581095Y-145951333D01*
X149676333Y-145903714D01*
X149819190Y-145903714D01*
X149914428Y-145951333D01*
X149962047Y-145998952D01*
X149057285Y-146570380D02*
X149057285Y-145903714D01*
X149057285Y-145570380D02*
X149104904Y-145618000D01*
X149057285Y-145665619D01*
X149009666Y-145618000D01*
X149057285Y-145570380D01*
X149057285Y-145665619D01*
X148438238Y-146570380D02*
X148533476Y-146522761D01*
X148581095Y-146427523D01*
X148581095Y-145570380D01*
X147914428Y-146570380D02*
X148009666Y-146522761D01*
X148057285Y-146427523D01*
X148057285Y-145570380D01*
X147104904Y-146570380D02*
X147104904Y-146046571D01*
X147152523Y-145951333D01*
X147247761Y-145903714D01*
X147438238Y-145903714D01*
X147533476Y-145951333D01*
X147104904Y-146522761D02*
X147200142Y-146570380D01*
X147438238Y-146570380D01*
X147533476Y-146522761D01*
X147581095Y-146427523D01*
X147581095Y-146332285D01*
X147533476Y-146237047D01*
X147438238Y-146189428D01*
X147200142Y-146189428D01*
X147104904Y-146141809D01*
X146628714Y-146570380D02*
X146628714Y-145570380D01*
X146628714Y-145951333D02*
X146533476Y-145903714D01*
X146343000Y-145903714D01*
X146247761Y-145951333D01*
X146200142Y-145998952D01*
X146152523Y-146094190D01*
X146152523Y-146379904D01*
X146200142Y-146475142D01*
X146247761Y-146522761D01*
X146343000Y-146570380D01*
X146533476Y-146570380D01*
X146628714Y-146522761D01*
X145343000Y-146522761D02*
X145438238Y-146570380D01*
X145628714Y-146570380D01*
X145723952Y-146522761D01*
X145771571Y-146427523D01*
X145771571Y-146046571D01*
X145723952Y-145951333D01*
X145628714Y-145903714D01*
X145438238Y-145903714D01*
X145343000Y-145951333D01*
X145295380Y-146046571D01*
X145295380Y-146141809D01*
X145771571Y-146237047D01*
X144723952Y-146570380D02*
X144819190Y-146522761D01*
X144866809Y-146427523D01*
X144866809Y-145570380D01*
X144343000Y-145903714D02*
X144343000Y-146903714D01*
X144343000Y-145951333D02*
X144247761Y-145903714D01*
X144057285Y-145903714D01*
X143962047Y-145951333D01*
X143914428Y-145998952D01*
X143866809Y-146094190D01*
X143866809Y-146379904D01*
X143914428Y-146475142D01*
X143962047Y-146522761D01*
X144057285Y-146570380D01*
X144247761Y-146570380D01*
X144343000Y-146522761D01*
X143295380Y-146570380D02*
X143390619Y-146522761D01*
X143438238Y-146427523D01*
X143438238Y-145570380D01*
X142485857Y-146570380D02*
X142485857Y-146046571D01*
X142533476Y-145951333D01*
X142628714Y-145903714D01*
X142819190Y-145903714D01*
X142914428Y-145951333D01*
X142485857Y-146522761D02*
X142581095Y-146570380D01*
X142819190Y-146570380D01*
X142914428Y-146522761D01*
X142962047Y-146427523D01*
X142962047Y-146332285D01*
X142914428Y-146237047D01*
X142819190Y-146189428D01*
X142581095Y-146189428D01*
X142485857Y-146141809D01*
X142152523Y-145903714D02*
X141771571Y-145903714D01*
X142009666Y-145570380D02*
X142009666Y-146427523D01*
X141962047Y-146522761D01*
X141866809Y-146570380D01*
X141771571Y-146570380D01*
X141057285Y-146522761D02*
X141152523Y-146570380D01*
X141343000Y-146570380D01*
X141438238Y-146522761D01*
X141485857Y-146427523D01*
X141485857Y-146046571D01*
X141438238Y-145951333D01*
X141343000Y-145903714D01*
X141152523Y-145903714D01*
X141057285Y-145951333D01*
X141009666Y-146046571D01*
X141009666Y-146141809D01*
X141485857Y-146237047D01*
X110057285Y-146475142D02*
X110104904Y-146522761D01*
X110247761Y-146570380D01*
X110343000Y-146570380D01*
X110485857Y-146522761D01*
X110581095Y-146427523D01*
X110628714Y-146332285D01*
X110676333Y-146141809D01*
X110676333Y-145998952D01*
X110628714Y-145808476D01*
X110581095Y-145713238D01*
X110485857Y-145618000D01*
X110343000Y-145570380D01*
X110247761Y-145570380D01*
X110104904Y-145618000D01*
X110057285Y-145665619D01*
X109438238Y-145570380D02*
X109343000Y-145570380D01*
X109247761Y-145618000D01*
X109200142Y-145665619D01*
X109152523Y-145760857D01*
X109104904Y-145951333D01*
X109104904Y-146189428D01*
X109152523Y-146379904D01*
X109200142Y-146475142D01*
X109247761Y-146522761D01*
X109343000Y-146570380D01*
X109438238Y-146570380D01*
X109533476Y-146522761D01*
X109581095Y-146475142D01*
X109628714Y-146379904D01*
X109676333Y-146189428D01*
X109676333Y-145951333D01*
X109628714Y-145760857D01*
X109581095Y-145665619D01*
X109533476Y-145618000D01*
X109438238Y-145570380D01*
X108485857Y-145570380D02*
X108390619Y-145570380D01*
X108295380Y-145618000D01*
X108247761Y-145665619D01*
X108200142Y-145760857D01*
X108152523Y-145951333D01*
X108152523Y-146189428D01*
X108200142Y-146379904D01*
X108247761Y-146475142D01*
X108295380Y-146522761D01*
X108390619Y-146570380D01*
X108485857Y-146570380D01*
X108581095Y-146522761D01*
X108628714Y-146475142D01*
X108676333Y-146379904D01*
X108723952Y-146189428D01*
X108723952Y-145951333D01*
X108676333Y-145760857D01*
X108628714Y-145665619D01*
X108581095Y-145618000D01*
X108485857Y-145570380D01*
X107962047Y-146665619D02*
X107200142Y-146665619D01*
X106962047Y-146570380D02*
X106962047Y-145570380D01*
X106533476Y-146570380D02*
X106533476Y-146046571D01*
X106581095Y-145951333D01*
X106676333Y-145903714D01*
X106819190Y-145903714D01*
X106914428Y-145951333D01*
X106962047Y-145998952D01*
X106057285Y-146570380D02*
X106057285Y-145903714D01*
X106057285Y-145570380D02*
X106104904Y-145618000D01*
X106057285Y-145665619D01*
X106009666Y-145618000D01*
X106057285Y-145570380D01*
X106057285Y-145665619D01*
X105438238Y-146570380D02*
X105533476Y-146522761D01*
X105581095Y-146427523D01*
X105581095Y-145570380D01*
X104914428Y-146570380D02*
X105009666Y-146522761D01*
X105057285Y-146427523D01*
X105057285Y-145570380D01*
X104104904Y-146570380D02*
X104104904Y-146046571D01*
X104152523Y-145951333D01*
X104247761Y-145903714D01*
X104438238Y-145903714D01*
X104533476Y-145951333D01*
X104104904Y-146522761D02*
X104200142Y-146570380D01*
X104438238Y-146570380D01*
X104533476Y-146522761D01*
X104581095Y-146427523D01*
X104581095Y-146332285D01*
X104533476Y-146237047D01*
X104438238Y-146189428D01*
X104200142Y-146189428D01*
X104104904Y-146141809D01*
X103628714Y-146570380D02*
X103628714Y-145570380D01*
X103628714Y-145951333D02*
X103533476Y-145903714D01*
X103343000Y-145903714D01*
X103247761Y-145951333D01*
X103200142Y-145998952D01*
X103152523Y-146094190D01*
X103152523Y-146379904D01*
X103200142Y-146475142D01*
X103247761Y-146522761D01*
X103343000Y-146570380D01*
X103533476Y-146570380D01*
X103628714Y-146522761D01*
X102343000Y-146522761D02*
X102438238Y-146570380D01*
X102628714Y-146570380D01*
X102723952Y-146522761D01*
X102771571Y-146427523D01*
X102771571Y-146046571D01*
X102723952Y-145951333D01*
X102628714Y-145903714D01*
X102438238Y-145903714D01*
X102343000Y-145951333D01*
X102295380Y-146046571D01*
X102295380Y-146141809D01*
X102771571Y-146237047D01*
X101723952Y-146570380D02*
X101819190Y-146522761D01*
X101866809Y-146427523D01*
X101866809Y-145570380D01*
X101343000Y-145903714D02*
X101343000Y-146903714D01*
X101343000Y-145951333D02*
X101247761Y-145903714D01*
X101057285Y-145903714D01*
X100962047Y-145951333D01*
X100914428Y-145998952D01*
X100866809Y-146094190D01*
X100866809Y-146379904D01*
X100914428Y-146475142D01*
X100962047Y-146522761D01*
X101057285Y-146570380D01*
X101247761Y-146570380D01*
X101343000Y-146522761D01*
X100295380Y-146570380D02*
X100390619Y-146522761D01*
X100438238Y-146427523D01*
X100438238Y-145570380D01*
X99485857Y-146570380D02*
X99485857Y-146046571D01*
X99533476Y-145951333D01*
X99628714Y-145903714D01*
X99819190Y-145903714D01*
X99914428Y-145951333D01*
X99485857Y-146522761D02*
X99581095Y-146570380D01*
X99819190Y-146570380D01*
X99914428Y-146522761D01*
X99962047Y-146427523D01*
X99962047Y-146332285D01*
X99914428Y-146237047D01*
X99819190Y-146189428D01*
X99581095Y-146189428D01*
X99485857Y-146141809D01*
X99152523Y-145903714D02*
X98771571Y-145903714D01*
X99009666Y-145570380D02*
X99009666Y-146427523D01*
X98962047Y-146522761D01*
X98866809Y-146570380D01*
X98771571Y-146570380D01*
X98057285Y-146522761D02*
X98152523Y-146570380D01*
X98343000Y-146570380D01*
X98438238Y-146522761D01*
X98485857Y-146427523D01*
X98485857Y-146046571D01*
X98438238Y-145951333D01*
X98343000Y-145903714D01*
X98152523Y-145903714D01*
X98057285Y-145951333D01*
X98009666Y-146046571D01*
X98009666Y-146141809D01*
X98485857Y-146237047D01*
X153057285Y-138475142D02*
X153104904Y-138522761D01*
X153247761Y-138570380D01*
X153343000Y-138570380D01*
X153485857Y-138522761D01*
X153581095Y-138427523D01*
X153628714Y-138332285D01*
X153676333Y-138141809D01*
X153676333Y-137998952D01*
X153628714Y-137808476D01*
X153581095Y-137713238D01*
X153485857Y-137618000D01*
X153343000Y-137570380D01*
X153247761Y-137570380D01*
X153104904Y-137618000D01*
X153057285Y-137665619D01*
X152438238Y-137570380D02*
X152343000Y-137570380D01*
X152247761Y-137618000D01*
X152200142Y-137665619D01*
X152152523Y-137760857D01*
X152104904Y-137951333D01*
X152104904Y-138189428D01*
X152152523Y-138379904D01*
X152200142Y-138475142D01*
X152247761Y-138522761D01*
X152343000Y-138570380D01*
X152438238Y-138570380D01*
X152533476Y-138522761D01*
X152581095Y-138475142D01*
X152628714Y-138379904D01*
X152676333Y-138189428D01*
X152676333Y-137951333D01*
X152628714Y-137760857D01*
X152581095Y-137665619D01*
X152533476Y-137618000D01*
X152438238Y-137570380D01*
X151485857Y-137570380D02*
X151390619Y-137570380D01*
X151295380Y-137618000D01*
X151247761Y-137665619D01*
X151200142Y-137760857D01*
X151152523Y-137951333D01*
X151152523Y-138189428D01*
X151200142Y-138379904D01*
X151247761Y-138475142D01*
X151295380Y-138522761D01*
X151390619Y-138570380D01*
X151485857Y-138570380D01*
X151581095Y-138522761D01*
X151628714Y-138475142D01*
X151676333Y-138379904D01*
X151723952Y-138189428D01*
X151723952Y-137951333D01*
X151676333Y-137760857D01*
X151628714Y-137665619D01*
X151581095Y-137618000D01*
X151485857Y-137570380D01*
X150962047Y-138665619D02*
X150200142Y-138665619D01*
X149962047Y-138570380D02*
X149962047Y-137570380D01*
X149533476Y-138570380D02*
X149533476Y-138046571D01*
X149581095Y-137951333D01*
X149676333Y-137903714D01*
X149819190Y-137903714D01*
X149914428Y-137951333D01*
X149962047Y-137998952D01*
X149057285Y-138570380D02*
X149057285Y-137903714D01*
X149057285Y-137570380D02*
X149104904Y-137618000D01*
X149057285Y-137665619D01*
X149009666Y-137618000D01*
X149057285Y-137570380D01*
X149057285Y-137665619D01*
X148438238Y-138570380D02*
X148533476Y-138522761D01*
X148581095Y-138427523D01*
X148581095Y-137570380D01*
X147914428Y-138570380D02*
X148009666Y-138522761D01*
X148057285Y-138427523D01*
X148057285Y-137570380D01*
X147104904Y-138570380D02*
X147104904Y-138046571D01*
X147152523Y-137951333D01*
X147247761Y-137903714D01*
X147438238Y-137903714D01*
X147533476Y-137951333D01*
X147104904Y-138522761D02*
X147200142Y-138570380D01*
X147438238Y-138570380D01*
X147533476Y-138522761D01*
X147581095Y-138427523D01*
X147581095Y-138332285D01*
X147533476Y-138237047D01*
X147438238Y-138189428D01*
X147200142Y-138189428D01*
X147104904Y-138141809D01*
X146628714Y-138570380D02*
X146628714Y-137570380D01*
X146628714Y-137951333D02*
X146533476Y-137903714D01*
X146343000Y-137903714D01*
X146247761Y-137951333D01*
X146200142Y-137998952D01*
X146152523Y-138094190D01*
X146152523Y-138379904D01*
X146200142Y-138475142D01*
X146247761Y-138522761D01*
X146343000Y-138570380D01*
X146533476Y-138570380D01*
X146628714Y-138522761D01*
X145343000Y-138522761D02*
X145438238Y-138570380D01*
X145628714Y-138570380D01*
X145723952Y-138522761D01*
X145771571Y-138427523D01*
X145771571Y-138046571D01*
X145723952Y-137951333D01*
X145628714Y-137903714D01*
X145438238Y-137903714D01*
X145343000Y-137951333D01*
X145295380Y-138046571D01*
X145295380Y-138141809D01*
X145771571Y-138237047D01*
X144723952Y-138570380D02*
X144819190Y-138522761D01*
X144866809Y-138427523D01*
X144866809Y-137570380D01*
X144343000Y-137903714D02*
X144343000Y-138903714D01*
X144343000Y-137951333D02*
X144247761Y-137903714D01*
X144057285Y-137903714D01*
X143962047Y-137951333D01*
X143914428Y-137998952D01*
X143866809Y-138094190D01*
X143866809Y-138379904D01*
X143914428Y-138475142D01*
X143962047Y-138522761D01*
X144057285Y-138570380D01*
X144247761Y-138570380D01*
X144343000Y-138522761D01*
X143295380Y-138570380D02*
X143390619Y-138522761D01*
X143438238Y-138427523D01*
X143438238Y-137570380D01*
X142485857Y-138570380D02*
X142485857Y-138046571D01*
X142533476Y-137951333D01*
X142628714Y-137903714D01*
X142819190Y-137903714D01*
X142914428Y-137951333D01*
X142485857Y-138522761D02*
X142581095Y-138570380D01*
X142819190Y-138570380D01*
X142914428Y-138522761D01*
X142962047Y-138427523D01*
X142962047Y-138332285D01*
X142914428Y-138237047D01*
X142819190Y-138189428D01*
X142581095Y-138189428D01*
X142485857Y-138141809D01*
X142152523Y-137903714D02*
X141771571Y-137903714D01*
X142009666Y-137570380D02*
X142009666Y-138427523D01*
X141962047Y-138522761D01*
X141866809Y-138570380D01*
X141771571Y-138570380D01*
X141057285Y-138522761D02*
X141152523Y-138570380D01*
X141343000Y-138570380D01*
X141438238Y-138522761D01*
X141485857Y-138427523D01*
X141485857Y-138046571D01*
X141438238Y-137951333D01*
X141343000Y-137903714D01*
X141152523Y-137903714D01*
X141057285Y-137951333D01*
X141009666Y-138046571D01*
X141009666Y-138141809D01*
X141485857Y-138237047D01*
X110057285Y-138475142D02*
X110104904Y-138522761D01*
X110247761Y-138570380D01*
X110343000Y-138570380D01*
X110485857Y-138522761D01*
X110581095Y-138427523D01*
X110628714Y-138332285D01*
X110676333Y-138141809D01*
X110676333Y-137998952D01*
X110628714Y-137808476D01*
X110581095Y-137713238D01*
X110485857Y-137618000D01*
X110343000Y-137570380D01*
X110247761Y-137570380D01*
X110104904Y-137618000D01*
X110057285Y-137665619D01*
X109438238Y-137570380D02*
X109343000Y-137570380D01*
X109247761Y-137618000D01*
X109200142Y-137665619D01*
X109152523Y-137760857D01*
X109104904Y-137951333D01*
X109104904Y-138189428D01*
X109152523Y-138379904D01*
X109200142Y-138475142D01*
X109247761Y-138522761D01*
X109343000Y-138570380D01*
X109438238Y-138570380D01*
X109533476Y-138522761D01*
X109581095Y-138475142D01*
X109628714Y-138379904D01*
X109676333Y-138189428D01*
X109676333Y-137951333D01*
X109628714Y-137760857D01*
X109581095Y-137665619D01*
X109533476Y-137618000D01*
X109438238Y-137570380D01*
X108485857Y-137570380D02*
X108390619Y-137570380D01*
X108295380Y-137618000D01*
X108247761Y-137665619D01*
X108200142Y-137760857D01*
X108152523Y-137951333D01*
X108152523Y-138189428D01*
X108200142Y-138379904D01*
X108247761Y-138475142D01*
X108295380Y-138522761D01*
X108390619Y-138570380D01*
X108485857Y-138570380D01*
X108581095Y-138522761D01*
X108628714Y-138475142D01*
X108676333Y-138379904D01*
X108723952Y-138189428D01*
X108723952Y-137951333D01*
X108676333Y-137760857D01*
X108628714Y-137665619D01*
X108581095Y-137618000D01*
X108485857Y-137570380D01*
X107962047Y-138665619D02*
X107200142Y-138665619D01*
X106962047Y-138570380D02*
X106962047Y-137570380D01*
X106533476Y-138570380D02*
X106533476Y-138046571D01*
X106581095Y-137951333D01*
X106676333Y-137903714D01*
X106819190Y-137903714D01*
X106914428Y-137951333D01*
X106962047Y-137998952D01*
X106057285Y-138570380D02*
X106057285Y-137903714D01*
X106057285Y-137570380D02*
X106104904Y-137618000D01*
X106057285Y-137665619D01*
X106009666Y-137618000D01*
X106057285Y-137570380D01*
X106057285Y-137665619D01*
X105438238Y-138570380D02*
X105533476Y-138522761D01*
X105581095Y-138427523D01*
X105581095Y-137570380D01*
X104914428Y-138570380D02*
X105009666Y-138522761D01*
X105057285Y-138427523D01*
X105057285Y-137570380D01*
X104104904Y-138570380D02*
X104104904Y-138046571D01*
X104152523Y-137951333D01*
X104247761Y-137903714D01*
X104438238Y-137903714D01*
X104533476Y-137951333D01*
X104104904Y-138522761D02*
X104200142Y-138570380D01*
X104438238Y-138570380D01*
X104533476Y-138522761D01*
X104581095Y-138427523D01*
X104581095Y-138332285D01*
X104533476Y-138237047D01*
X104438238Y-138189428D01*
X104200142Y-138189428D01*
X104104904Y-138141809D01*
X103628714Y-138570380D02*
X103628714Y-137570380D01*
X103628714Y-137951333D02*
X103533476Y-137903714D01*
X103343000Y-137903714D01*
X103247761Y-137951333D01*
X103200142Y-137998952D01*
X103152523Y-138094190D01*
X103152523Y-138379904D01*
X103200142Y-138475142D01*
X103247761Y-138522761D01*
X103343000Y-138570380D01*
X103533476Y-138570380D01*
X103628714Y-138522761D01*
X102343000Y-138522761D02*
X102438238Y-138570380D01*
X102628714Y-138570380D01*
X102723952Y-138522761D01*
X102771571Y-138427523D01*
X102771571Y-138046571D01*
X102723952Y-137951333D01*
X102628714Y-137903714D01*
X102438238Y-137903714D01*
X102343000Y-137951333D01*
X102295380Y-138046571D01*
X102295380Y-138141809D01*
X102771571Y-138237047D01*
X101723952Y-138570380D02*
X101819190Y-138522761D01*
X101866809Y-138427523D01*
X101866809Y-137570380D01*
X101343000Y-137903714D02*
X101343000Y-138903714D01*
X101343000Y-137951333D02*
X101247761Y-137903714D01*
X101057285Y-137903714D01*
X100962047Y-137951333D01*
X100914428Y-137998952D01*
X100866809Y-138094190D01*
X100866809Y-138379904D01*
X100914428Y-138475142D01*
X100962047Y-138522761D01*
X101057285Y-138570380D01*
X101247761Y-138570380D01*
X101343000Y-138522761D01*
X100295380Y-138570380D02*
X100390619Y-138522761D01*
X100438238Y-138427523D01*
X100438238Y-137570380D01*
X99485857Y-138570380D02*
X99485857Y-138046571D01*
X99533476Y-137951333D01*
X99628714Y-137903714D01*
X99819190Y-137903714D01*
X99914428Y-137951333D01*
X99485857Y-138522761D02*
X99581095Y-138570380D01*
X99819190Y-138570380D01*
X99914428Y-138522761D01*
X99962047Y-138427523D01*
X99962047Y-138332285D01*
X99914428Y-138237047D01*
X99819190Y-138189428D01*
X99581095Y-138189428D01*
X99485857Y-138141809D01*
X99152523Y-137903714D02*
X98771571Y-137903714D01*
X99009666Y-137570380D02*
X99009666Y-138427523D01*
X98962047Y-138522761D01*
X98866809Y-138570380D01*
X98771571Y-138570380D01*
X98057285Y-138522761D02*
X98152523Y-138570380D01*
X98343000Y-138570380D01*
X98438238Y-138522761D01*
X98485857Y-138427523D01*
X98485857Y-138046571D01*
X98438238Y-137951333D01*
X98343000Y-137903714D01*
X98152523Y-137903714D01*
X98057285Y-137951333D01*
X98009666Y-138046571D01*
X98009666Y-138141809D01*
X98485857Y-138237047D01*
X153057285Y-130475142D02*
X153104904Y-130522761D01*
X153247761Y-130570380D01*
X153343000Y-130570380D01*
X153485857Y-130522761D01*
X153581095Y-130427523D01*
X153628714Y-130332285D01*
X153676333Y-130141809D01*
X153676333Y-129998952D01*
X153628714Y-129808476D01*
X153581095Y-129713238D01*
X153485857Y-129618000D01*
X153343000Y-129570380D01*
X153247761Y-129570380D01*
X153104904Y-129618000D01*
X153057285Y-129665619D01*
X152438238Y-129570380D02*
X152343000Y-129570380D01*
X152247761Y-129618000D01*
X152200142Y-129665619D01*
X152152523Y-129760857D01*
X152104904Y-129951333D01*
X152104904Y-130189428D01*
X152152523Y-130379904D01*
X152200142Y-130475142D01*
X152247761Y-130522761D01*
X152343000Y-130570380D01*
X152438238Y-130570380D01*
X152533476Y-130522761D01*
X152581095Y-130475142D01*
X152628714Y-130379904D01*
X152676333Y-130189428D01*
X152676333Y-129951333D01*
X152628714Y-129760857D01*
X152581095Y-129665619D01*
X152533476Y-129618000D01*
X152438238Y-129570380D01*
X151485857Y-129570380D02*
X151390619Y-129570380D01*
X151295380Y-129618000D01*
X151247761Y-129665619D01*
X151200142Y-129760857D01*
X151152523Y-129951333D01*
X151152523Y-130189428D01*
X151200142Y-130379904D01*
X151247761Y-130475142D01*
X151295380Y-130522761D01*
X151390619Y-130570380D01*
X151485857Y-130570380D01*
X151581095Y-130522761D01*
X151628714Y-130475142D01*
X151676333Y-130379904D01*
X151723952Y-130189428D01*
X151723952Y-129951333D01*
X151676333Y-129760857D01*
X151628714Y-129665619D01*
X151581095Y-129618000D01*
X151485857Y-129570380D01*
X150962047Y-130665619D02*
X150200142Y-130665619D01*
X149962047Y-130570380D02*
X149962047Y-129570380D01*
X149533476Y-130570380D02*
X149533476Y-130046571D01*
X149581095Y-129951333D01*
X149676333Y-129903714D01*
X149819190Y-129903714D01*
X149914428Y-129951333D01*
X149962047Y-129998952D01*
X149057285Y-130570380D02*
X149057285Y-129903714D01*
X149057285Y-129570380D02*
X149104904Y-129618000D01*
X149057285Y-129665619D01*
X149009666Y-129618000D01*
X149057285Y-129570380D01*
X149057285Y-129665619D01*
X148438238Y-130570380D02*
X148533476Y-130522761D01*
X148581095Y-130427523D01*
X148581095Y-129570380D01*
X147914428Y-130570380D02*
X148009666Y-130522761D01*
X148057285Y-130427523D01*
X148057285Y-129570380D01*
X147104904Y-130570380D02*
X147104904Y-130046571D01*
X147152523Y-129951333D01*
X147247761Y-129903714D01*
X147438238Y-129903714D01*
X147533476Y-129951333D01*
X147104904Y-130522761D02*
X147200142Y-130570380D01*
X147438238Y-130570380D01*
X147533476Y-130522761D01*
X147581095Y-130427523D01*
X147581095Y-130332285D01*
X147533476Y-130237047D01*
X147438238Y-130189428D01*
X147200142Y-130189428D01*
X147104904Y-130141809D01*
X146628714Y-130570380D02*
X146628714Y-129570380D01*
X146628714Y-129951333D02*
X146533476Y-129903714D01*
X146343000Y-129903714D01*
X146247761Y-129951333D01*
X146200142Y-129998952D01*
X146152523Y-130094190D01*
X146152523Y-130379904D01*
X146200142Y-130475142D01*
X146247761Y-130522761D01*
X146343000Y-130570380D01*
X146533476Y-130570380D01*
X146628714Y-130522761D01*
X145343000Y-130522761D02*
X145438238Y-130570380D01*
X145628714Y-130570380D01*
X145723952Y-130522761D01*
X145771571Y-130427523D01*
X145771571Y-130046571D01*
X145723952Y-129951333D01*
X145628714Y-129903714D01*
X145438238Y-129903714D01*
X145343000Y-129951333D01*
X145295380Y-130046571D01*
X145295380Y-130141809D01*
X145771571Y-130237047D01*
X144723952Y-130570380D02*
X144819190Y-130522761D01*
X144866809Y-130427523D01*
X144866809Y-129570380D01*
X144343000Y-129903714D02*
X144343000Y-130903714D01*
X144343000Y-129951333D02*
X144247761Y-129903714D01*
X144057285Y-129903714D01*
X143962047Y-129951333D01*
X143914428Y-129998952D01*
X143866809Y-130094190D01*
X143866809Y-130379904D01*
X143914428Y-130475142D01*
X143962047Y-130522761D01*
X144057285Y-130570380D01*
X144247761Y-130570380D01*
X144343000Y-130522761D01*
X143295380Y-130570380D02*
X143390619Y-130522761D01*
X143438238Y-130427523D01*
X143438238Y-129570380D01*
X142485857Y-130570380D02*
X142485857Y-130046571D01*
X142533476Y-129951333D01*
X142628714Y-129903714D01*
X142819190Y-129903714D01*
X142914428Y-129951333D01*
X142485857Y-130522761D02*
X142581095Y-130570380D01*
X142819190Y-130570380D01*
X142914428Y-130522761D01*
X142962047Y-130427523D01*
X142962047Y-130332285D01*
X142914428Y-130237047D01*
X142819190Y-130189428D01*
X142581095Y-130189428D01*
X142485857Y-130141809D01*
X142152523Y-129903714D02*
X141771571Y-129903714D01*
X142009666Y-129570380D02*
X142009666Y-130427523D01*
X141962047Y-130522761D01*
X141866809Y-130570380D01*
X141771571Y-130570380D01*
X141057285Y-130522761D02*
X141152523Y-130570380D01*
X141343000Y-130570380D01*
X141438238Y-130522761D01*
X141485857Y-130427523D01*
X141485857Y-130046571D01*
X141438238Y-129951333D01*
X141343000Y-129903714D01*
X141152523Y-129903714D01*
X141057285Y-129951333D01*
X141009666Y-130046571D01*
X141009666Y-130141809D01*
X141485857Y-130237047D01*
X110057285Y-130475142D02*
X110104904Y-130522761D01*
X110247761Y-130570380D01*
X110343000Y-130570380D01*
X110485857Y-130522761D01*
X110581095Y-130427523D01*
X110628714Y-130332285D01*
X110676333Y-130141809D01*
X110676333Y-129998952D01*
X110628714Y-129808476D01*
X110581095Y-129713238D01*
X110485857Y-129618000D01*
X110343000Y-129570380D01*
X110247761Y-129570380D01*
X110104904Y-129618000D01*
X110057285Y-129665619D01*
X109438238Y-129570380D02*
X109343000Y-129570380D01*
X109247761Y-129618000D01*
X109200142Y-129665619D01*
X109152523Y-129760857D01*
X109104904Y-129951333D01*
X109104904Y-130189428D01*
X109152523Y-130379904D01*
X109200142Y-130475142D01*
X109247761Y-130522761D01*
X109343000Y-130570380D01*
X109438238Y-130570380D01*
X109533476Y-130522761D01*
X109581095Y-130475142D01*
X109628714Y-130379904D01*
X109676333Y-130189428D01*
X109676333Y-129951333D01*
X109628714Y-129760857D01*
X109581095Y-129665619D01*
X109533476Y-129618000D01*
X109438238Y-129570380D01*
X108485857Y-129570380D02*
X108390619Y-129570380D01*
X108295380Y-129618000D01*
X108247761Y-129665619D01*
X108200142Y-129760857D01*
X108152523Y-129951333D01*
X108152523Y-130189428D01*
X108200142Y-130379904D01*
X108247761Y-130475142D01*
X108295380Y-130522761D01*
X108390619Y-130570380D01*
X108485857Y-130570380D01*
X108581095Y-130522761D01*
X108628714Y-130475142D01*
X108676333Y-130379904D01*
X108723952Y-130189428D01*
X108723952Y-129951333D01*
X108676333Y-129760857D01*
X108628714Y-129665619D01*
X108581095Y-129618000D01*
X108485857Y-129570380D01*
X107962047Y-130665619D02*
X107200142Y-130665619D01*
X106962047Y-130570380D02*
X106962047Y-129570380D01*
X106533476Y-130570380D02*
X106533476Y-130046571D01*
X106581095Y-129951333D01*
X106676333Y-129903714D01*
X106819190Y-129903714D01*
X106914428Y-129951333D01*
X106962047Y-129998952D01*
X106057285Y-130570380D02*
X106057285Y-129903714D01*
X106057285Y-129570380D02*
X106104904Y-129618000D01*
X106057285Y-129665619D01*
X106009666Y-129618000D01*
X106057285Y-129570380D01*
X106057285Y-129665619D01*
X105438238Y-130570380D02*
X105533476Y-130522761D01*
X105581095Y-130427523D01*
X105581095Y-129570380D01*
X104914428Y-130570380D02*
X105009666Y-130522761D01*
X105057285Y-130427523D01*
X105057285Y-129570380D01*
X104104904Y-130570380D02*
X104104904Y-130046571D01*
X104152523Y-129951333D01*
X104247761Y-129903714D01*
X104438238Y-129903714D01*
X104533476Y-129951333D01*
X104104904Y-130522761D02*
X104200142Y-130570380D01*
X104438238Y-130570380D01*
X104533476Y-130522761D01*
X104581095Y-130427523D01*
X104581095Y-130332285D01*
X104533476Y-130237047D01*
X104438238Y-130189428D01*
X104200142Y-130189428D01*
X104104904Y-130141809D01*
X103628714Y-130570380D02*
X103628714Y-129570380D01*
X103628714Y-129951333D02*
X103533476Y-129903714D01*
X103343000Y-129903714D01*
X103247761Y-129951333D01*
X103200142Y-129998952D01*
X103152523Y-130094190D01*
X103152523Y-130379904D01*
X103200142Y-130475142D01*
X103247761Y-130522761D01*
X103343000Y-130570380D01*
X103533476Y-130570380D01*
X103628714Y-130522761D01*
X102343000Y-130522761D02*
X102438238Y-130570380D01*
X102628714Y-130570380D01*
X102723952Y-130522761D01*
X102771571Y-130427523D01*
X102771571Y-130046571D01*
X102723952Y-129951333D01*
X102628714Y-129903714D01*
X102438238Y-129903714D01*
X102343000Y-129951333D01*
X102295380Y-130046571D01*
X102295380Y-130141809D01*
X102771571Y-130237047D01*
X101723952Y-130570380D02*
X101819190Y-130522761D01*
X101866809Y-130427523D01*
X101866809Y-129570380D01*
X101343000Y-129903714D02*
X101343000Y-130903714D01*
X101343000Y-129951333D02*
X101247761Y-129903714D01*
X101057285Y-129903714D01*
X100962047Y-129951333D01*
X100914428Y-129998952D01*
X100866809Y-130094190D01*
X100866809Y-130379904D01*
X100914428Y-130475142D01*
X100962047Y-130522761D01*
X101057285Y-130570380D01*
X101247761Y-130570380D01*
X101343000Y-130522761D01*
X100295380Y-130570380D02*
X100390619Y-130522761D01*
X100438238Y-130427523D01*
X100438238Y-129570380D01*
X99485857Y-130570380D02*
X99485857Y-130046571D01*
X99533476Y-129951333D01*
X99628714Y-129903714D01*
X99819190Y-129903714D01*
X99914428Y-129951333D01*
X99485857Y-130522761D02*
X99581095Y-130570380D01*
X99819190Y-130570380D01*
X99914428Y-130522761D01*
X99962047Y-130427523D01*
X99962047Y-130332285D01*
X99914428Y-130237047D01*
X99819190Y-130189428D01*
X99581095Y-130189428D01*
X99485857Y-130141809D01*
X99152523Y-129903714D02*
X98771571Y-129903714D01*
X99009666Y-129570380D02*
X99009666Y-130427523D01*
X98962047Y-130522761D01*
X98866809Y-130570380D01*
X98771571Y-130570380D01*
X98057285Y-130522761D02*
X98152523Y-130570380D01*
X98343000Y-130570380D01*
X98438238Y-130522761D01*
X98485857Y-130427523D01*
X98485857Y-130046571D01*
X98438238Y-129951333D01*
X98343000Y-129903714D01*
X98152523Y-129903714D01*
X98057285Y-129951333D01*
X98009666Y-130046571D01*
X98009666Y-130141809D01*
X98485857Y-130237047D01*
X153057285Y-122475142D02*
X153104904Y-122522761D01*
X153247761Y-122570380D01*
X153343000Y-122570380D01*
X153485857Y-122522761D01*
X153581095Y-122427523D01*
X153628714Y-122332285D01*
X153676333Y-122141809D01*
X153676333Y-121998952D01*
X153628714Y-121808476D01*
X153581095Y-121713238D01*
X153485857Y-121618000D01*
X153343000Y-121570380D01*
X153247761Y-121570380D01*
X153104904Y-121618000D01*
X153057285Y-121665619D01*
X152438238Y-121570380D02*
X152343000Y-121570380D01*
X152247761Y-121618000D01*
X152200142Y-121665619D01*
X152152523Y-121760857D01*
X152104904Y-121951333D01*
X152104904Y-122189428D01*
X152152523Y-122379904D01*
X152200142Y-122475142D01*
X152247761Y-122522761D01*
X152343000Y-122570380D01*
X152438238Y-122570380D01*
X152533476Y-122522761D01*
X152581095Y-122475142D01*
X152628714Y-122379904D01*
X152676333Y-122189428D01*
X152676333Y-121951333D01*
X152628714Y-121760857D01*
X152581095Y-121665619D01*
X152533476Y-121618000D01*
X152438238Y-121570380D01*
X151485857Y-121570380D02*
X151390619Y-121570380D01*
X151295380Y-121618000D01*
X151247761Y-121665619D01*
X151200142Y-121760857D01*
X151152523Y-121951333D01*
X151152523Y-122189428D01*
X151200142Y-122379904D01*
X151247761Y-122475142D01*
X151295380Y-122522761D01*
X151390619Y-122570380D01*
X151485857Y-122570380D01*
X151581095Y-122522761D01*
X151628714Y-122475142D01*
X151676333Y-122379904D01*
X151723952Y-122189428D01*
X151723952Y-121951333D01*
X151676333Y-121760857D01*
X151628714Y-121665619D01*
X151581095Y-121618000D01*
X151485857Y-121570380D01*
X150962047Y-122665619D02*
X150200142Y-122665619D01*
X149962047Y-122570380D02*
X149962047Y-121570380D01*
X149533476Y-122570380D02*
X149533476Y-122046571D01*
X149581095Y-121951333D01*
X149676333Y-121903714D01*
X149819190Y-121903714D01*
X149914428Y-121951333D01*
X149962047Y-121998952D01*
X149057285Y-122570380D02*
X149057285Y-121903714D01*
X149057285Y-121570380D02*
X149104904Y-121618000D01*
X149057285Y-121665619D01*
X149009666Y-121618000D01*
X149057285Y-121570380D01*
X149057285Y-121665619D01*
X148438238Y-122570380D02*
X148533476Y-122522761D01*
X148581095Y-122427523D01*
X148581095Y-121570380D01*
X147914428Y-122570380D02*
X148009666Y-122522761D01*
X148057285Y-122427523D01*
X148057285Y-121570380D01*
X147104904Y-122570380D02*
X147104904Y-122046571D01*
X147152523Y-121951333D01*
X147247761Y-121903714D01*
X147438238Y-121903714D01*
X147533476Y-121951333D01*
X147104904Y-122522761D02*
X147200142Y-122570380D01*
X147438238Y-122570380D01*
X147533476Y-122522761D01*
X147581095Y-122427523D01*
X147581095Y-122332285D01*
X147533476Y-122237047D01*
X147438238Y-122189428D01*
X147200142Y-122189428D01*
X147104904Y-122141809D01*
X146628714Y-122570380D02*
X146628714Y-121570380D01*
X146628714Y-121951333D02*
X146533476Y-121903714D01*
X146343000Y-121903714D01*
X146247761Y-121951333D01*
X146200142Y-121998952D01*
X146152523Y-122094190D01*
X146152523Y-122379904D01*
X146200142Y-122475142D01*
X146247761Y-122522761D01*
X146343000Y-122570380D01*
X146533476Y-122570380D01*
X146628714Y-122522761D01*
X145343000Y-122522761D02*
X145438238Y-122570380D01*
X145628714Y-122570380D01*
X145723952Y-122522761D01*
X145771571Y-122427523D01*
X145771571Y-122046571D01*
X145723952Y-121951333D01*
X145628714Y-121903714D01*
X145438238Y-121903714D01*
X145343000Y-121951333D01*
X145295380Y-122046571D01*
X145295380Y-122141809D01*
X145771571Y-122237047D01*
X144723952Y-122570380D02*
X144819190Y-122522761D01*
X144866809Y-122427523D01*
X144866809Y-121570380D01*
X144343000Y-121903714D02*
X144343000Y-122903714D01*
X144343000Y-121951333D02*
X144247761Y-121903714D01*
X144057285Y-121903714D01*
X143962047Y-121951333D01*
X143914428Y-121998952D01*
X143866809Y-122094190D01*
X143866809Y-122379904D01*
X143914428Y-122475142D01*
X143962047Y-122522761D01*
X144057285Y-122570380D01*
X144247761Y-122570380D01*
X144343000Y-122522761D01*
X143295380Y-122570380D02*
X143390619Y-122522761D01*
X143438238Y-122427523D01*
X143438238Y-121570380D01*
X142485857Y-122570380D02*
X142485857Y-122046571D01*
X142533476Y-121951333D01*
X142628714Y-121903714D01*
X142819190Y-121903714D01*
X142914428Y-121951333D01*
X142485857Y-122522761D02*
X142581095Y-122570380D01*
X142819190Y-122570380D01*
X142914428Y-122522761D01*
X142962047Y-122427523D01*
X142962047Y-122332285D01*
X142914428Y-122237047D01*
X142819190Y-122189428D01*
X142581095Y-122189428D01*
X142485857Y-122141809D01*
X142152523Y-121903714D02*
X141771571Y-121903714D01*
X142009666Y-121570380D02*
X142009666Y-122427523D01*
X141962047Y-122522761D01*
X141866809Y-122570380D01*
X141771571Y-122570380D01*
X141057285Y-122522761D02*
X141152523Y-122570380D01*
X141343000Y-122570380D01*
X141438238Y-122522761D01*
X141485857Y-122427523D01*
X141485857Y-122046571D01*
X141438238Y-121951333D01*
X141343000Y-121903714D01*
X141152523Y-121903714D01*
X141057285Y-121951333D01*
X141009666Y-122046571D01*
X141009666Y-122141809D01*
X141485857Y-122237047D01*
X110057285Y-122475142D02*
X110104904Y-122522761D01*
X110247761Y-122570380D01*
X110343000Y-122570380D01*
X110485857Y-122522761D01*
X110581095Y-122427523D01*
X110628714Y-122332285D01*
X110676333Y-122141809D01*
X110676333Y-121998952D01*
X110628714Y-121808476D01*
X110581095Y-121713238D01*
X110485857Y-121618000D01*
X110343000Y-121570380D01*
X110247761Y-121570380D01*
X110104904Y-121618000D01*
X110057285Y-121665619D01*
X109438238Y-121570380D02*
X109343000Y-121570380D01*
X109247761Y-121618000D01*
X109200142Y-121665619D01*
X109152523Y-121760857D01*
X109104904Y-121951333D01*
X109104904Y-122189428D01*
X109152523Y-122379904D01*
X109200142Y-122475142D01*
X109247761Y-122522761D01*
X109343000Y-122570380D01*
X109438238Y-122570380D01*
X109533476Y-122522761D01*
X109581095Y-122475142D01*
X109628714Y-122379904D01*
X109676333Y-122189428D01*
X109676333Y-121951333D01*
X109628714Y-121760857D01*
X109581095Y-121665619D01*
X109533476Y-121618000D01*
X109438238Y-121570380D01*
X108485857Y-121570380D02*
X108390619Y-121570380D01*
X108295380Y-121618000D01*
X108247761Y-121665619D01*
X108200142Y-121760857D01*
X108152523Y-121951333D01*
X108152523Y-122189428D01*
X108200142Y-122379904D01*
X108247761Y-122475142D01*
X108295380Y-122522761D01*
X108390619Y-122570380D01*
X108485857Y-122570380D01*
X108581095Y-122522761D01*
X108628714Y-122475142D01*
X108676333Y-122379904D01*
X108723952Y-122189428D01*
X108723952Y-121951333D01*
X108676333Y-121760857D01*
X108628714Y-121665619D01*
X108581095Y-121618000D01*
X108485857Y-121570380D01*
X107962047Y-122665619D02*
X107200142Y-122665619D01*
X106962047Y-122570380D02*
X106962047Y-121570380D01*
X106533476Y-122570380D02*
X106533476Y-122046571D01*
X106581095Y-121951333D01*
X106676333Y-121903714D01*
X106819190Y-121903714D01*
X106914428Y-121951333D01*
X106962047Y-121998952D01*
X106057285Y-122570380D02*
X106057285Y-121903714D01*
X106057285Y-121570380D02*
X106104904Y-121618000D01*
X106057285Y-121665619D01*
X106009666Y-121618000D01*
X106057285Y-121570380D01*
X106057285Y-121665619D01*
X105438238Y-122570380D02*
X105533476Y-122522761D01*
X105581095Y-122427523D01*
X105581095Y-121570380D01*
X104914428Y-122570380D02*
X105009666Y-122522761D01*
X105057285Y-122427523D01*
X105057285Y-121570380D01*
X104104904Y-122570380D02*
X104104904Y-122046571D01*
X104152523Y-121951333D01*
X104247761Y-121903714D01*
X104438238Y-121903714D01*
X104533476Y-121951333D01*
X104104904Y-122522761D02*
X104200142Y-122570380D01*
X104438238Y-122570380D01*
X104533476Y-122522761D01*
X104581095Y-122427523D01*
X104581095Y-122332285D01*
X104533476Y-122237047D01*
X104438238Y-122189428D01*
X104200142Y-122189428D01*
X104104904Y-122141809D01*
X103628714Y-122570380D02*
X103628714Y-121570380D01*
X103628714Y-121951333D02*
X103533476Y-121903714D01*
X103343000Y-121903714D01*
X103247761Y-121951333D01*
X103200142Y-121998952D01*
X103152523Y-122094190D01*
X103152523Y-122379904D01*
X103200142Y-122475142D01*
X103247761Y-122522761D01*
X103343000Y-122570380D01*
X103533476Y-122570380D01*
X103628714Y-122522761D01*
X102343000Y-122522761D02*
X102438238Y-122570380D01*
X102628714Y-122570380D01*
X102723952Y-122522761D01*
X102771571Y-122427523D01*
X102771571Y-122046571D01*
X102723952Y-121951333D01*
X102628714Y-121903714D01*
X102438238Y-121903714D01*
X102343000Y-121951333D01*
X102295380Y-122046571D01*
X102295380Y-122141809D01*
X102771571Y-122237047D01*
X101723952Y-122570380D02*
X101819190Y-122522761D01*
X101866809Y-122427523D01*
X101866809Y-121570380D01*
X101343000Y-121903714D02*
X101343000Y-122903714D01*
X101343000Y-121951333D02*
X101247761Y-121903714D01*
X101057285Y-121903714D01*
X100962047Y-121951333D01*
X100914428Y-121998952D01*
X100866809Y-122094190D01*
X100866809Y-122379904D01*
X100914428Y-122475142D01*
X100962047Y-122522761D01*
X101057285Y-122570380D01*
X101247761Y-122570380D01*
X101343000Y-122522761D01*
X100295380Y-122570380D02*
X100390619Y-122522761D01*
X100438238Y-122427523D01*
X100438238Y-121570380D01*
X99485857Y-122570380D02*
X99485857Y-122046571D01*
X99533476Y-121951333D01*
X99628714Y-121903714D01*
X99819190Y-121903714D01*
X99914428Y-121951333D01*
X99485857Y-122522761D02*
X99581095Y-122570380D01*
X99819190Y-122570380D01*
X99914428Y-122522761D01*
X99962047Y-122427523D01*
X99962047Y-122332285D01*
X99914428Y-122237047D01*
X99819190Y-122189428D01*
X99581095Y-122189428D01*
X99485857Y-122141809D01*
X99152523Y-121903714D02*
X98771571Y-121903714D01*
X99009666Y-121570380D02*
X99009666Y-122427523D01*
X98962047Y-122522761D01*
X98866809Y-122570380D01*
X98771571Y-122570380D01*
X98057285Y-122522761D02*
X98152523Y-122570380D01*
X98343000Y-122570380D01*
X98438238Y-122522761D01*
X98485857Y-122427523D01*
X98485857Y-122046571D01*
X98438238Y-121951333D01*
X98343000Y-121903714D01*
X98152523Y-121903714D01*
X98057285Y-121951333D01*
X98009666Y-122046571D01*
X98009666Y-122141809D01*
X98485857Y-122237047D01*
X153057285Y-114475142D02*
X153104904Y-114522761D01*
X153247761Y-114570380D01*
X153343000Y-114570380D01*
X153485857Y-114522761D01*
X153581095Y-114427523D01*
X153628714Y-114332285D01*
X153676333Y-114141809D01*
X153676333Y-113998952D01*
X153628714Y-113808476D01*
X153581095Y-113713238D01*
X153485857Y-113618000D01*
X153343000Y-113570380D01*
X153247761Y-113570380D01*
X153104904Y-113618000D01*
X153057285Y-113665619D01*
X152438238Y-113570380D02*
X152343000Y-113570380D01*
X152247761Y-113618000D01*
X152200142Y-113665619D01*
X152152523Y-113760857D01*
X152104904Y-113951333D01*
X152104904Y-114189428D01*
X152152523Y-114379904D01*
X152200142Y-114475142D01*
X152247761Y-114522761D01*
X152343000Y-114570380D01*
X152438238Y-114570380D01*
X152533476Y-114522761D01*
X152581095Y-114475142D01*
X152628714Y-114379904D01*
X152676333Y-114189428D01*
X152676333Y-113951333D01*
X152628714Y-113760857D01*
X152581095Y-113665619D01*
X152533476Y-113618000D01*
X152438238Y-113570380D01*
X151485857Y-113570380D02*
X151390619Y-113570380D01*
X151295380Y-113618000D01*
X151247761Y-113665619D01*
X151200142Y-113760857D01*
X151152523Y-113951333D01*
X151152523Y-114189428D01*
X151200142Y-114379904D01*
X151247761Y-114475142D01*
X151295380Y-114522761D01*
X151390619Y-114570380D01*
X151485857Y-114570380D01*
X151581095Y-114522761D01*
X151628714Y-114475142D01*
X151676333Y-114379904D01*
X151723952Y-114189428D01*
X151723952Y-113951333D01*
X151676333Y-113760857D01*
X151628714Y-113665619D01*
X151581095Y-113618000D01*
X151485857Y-113570380D01*
X150962047Y-114665619D02*
X150200142Y-114665619D01*
X149962047Y-114570380D02*
X149962047Y-113570380D01*
X149533476Y-114570380D02*
X149533476Y-114046571D01*
X149581095Y-113951333D01*
X149676333Y-113903714D01*
X149819190Y-113903714D01*
X149914428Y-113951333D01*
X149962047Y-113998952D01*
X149057285Y-114570380D02*
X149057285Y-113903714D01*
X149057285Y-113570380D02*
X149104904Y-113618000D01*
X149057285Y-113665619D01*
X149009666Y-113618000D01*
X149057285Y-113570380D01*
X149057285Y-113665619D01*
X148438238Y-114570380D02*
X148533476Y-114522761D01*
X148581095Y-114427523D01*
X148581095Y-113570380D01*
X147914428Y-114570380D02*
X148009666Y-114522761D01*
X148057285Y-114427523D01*
X148057285Y-113570380D01*
X147104904Y-114570380D02*
X147104904Y-114046571D01*
X147152523Y-113951333D01*
X147247761Y-113903714D01*
X147438238Y-113903714D01*
X147533476Y-113951333D01*
X147104904Y-114522761D02*
X147200142Y-114570380D01*
X147438238Y-114570380D01*
X147533476Y-114522761D01*
X147581095Y-114427523D01*
X147581095Y-114332285D01*
X147533476Y-114237047D01*
X147438238Y-114189428D01*
X147200142Y-114189428D01*
X147104904Y-114141809D01*
X146628714Y-114570380D02*
X146628714Y-113570380D01*
X146628714Y-113951333D02*
X146533476Y-113903714D01*
X146343000Y-113903714D01*
X146247761Y-113951333D01*
X146200142Y-113998952D01*
X146152523Y-114094190D01*
X146152523Y-114379904D01*
X146200142Y-114475142D01*
X146247761Y-114522761D01*
X146343000Y-114570380D01*
X146533476Y-114570380D01*
X146628714Y-114522761D01*
X145343000Y-114522761D02*
X145438238Y-114570380D01*
X145628714Y-114570380D01*
X145723952Y-114522761D01*
X145771571Y-114427523D01*
X145771571Y-114046571D01*
X145723952Y-113951333D01*
X145628714Y-113903714D01*
X145438238Y-113903714D01*
X145343000Y-113951333D01*
X145295380Y-114046571D01*
X145295380Y-114141809D01*
X145771571Y-114237047D01*
X144723952Y-114570380D02*
X144819190Y-114522761D01*
X144866809Y-114427523D01*
X144866809Y-113570380D01*
X144343000Y-113903714D02*
X144343000Y-114903714D01*
X144343000Y-113951333D02*
X144247761Y-113903714D01*
X144057285Y-113903714D01*
X143962047Y-113951333D01*
X143914428Y-113998952D01*
X143866809Y-114094190D01*
X143866809Y-114379904D01*
X143914428Y-114475142D01*
X143962047Y-114522761D01*
X144057285Y-114570380D01*
X144247761Y-114570380D01*
X144343000Y-114522761D01*
X143295380Y-114570380D02*
X143390619Y-114522761D01*
X143438238Y-114427523D01*
X143438238Y-113570380D01*
X142485857Y-114570380D02*
X142485857Y-114046571D01*
X142533476Y-113951333D01*
X142628714Y-113903714D01*
X142819190Y-113903714D01*
X142914428Y-113951333D01*
X142485857Y-114522761D02*
X142581095Y-114570380D01*
X142819190Y-114570380D01*
X142914428Y-114522761D01*
X142962047Y-114427523D01*
X142962047Y-114332285D01*
X142914428Y-114237047D01*
X142819190Y-114189428D01*
X142581095Y-114189428D01*
X142485857Y-114141809D01*
X142152523Y-113903714D02*
X141771571Y-113903714D01*
X142009666Y-113570380D02*
X142009666Y-114427523D01*
X141962047Y-114522761D01*
X141866809Y-114570380D01*
X141771571Y-114570380D01*
X141057285Y-114522761D02*
X141152523Y-114570380D01*
X141343000Y-114570380D01*
X141438238Y-114522761D01*
X141485857Y-114427523D01*
X141485857Y-114046571D01*
X141438238Y-113951333D01*
X141343000Y-113903714D01*
X141152523Y-113903714D01*
X141057285Y-113951333D01*
X141009666Y-114046571D01*
X141009666Y-114141809D01*
X141485857Y-114237047D01*
X110057285Y-114475142D02*
X110104904Y-114522761D01*
X110247761Y-114570380D01*
X110343000Y-114570380D01*
X110485857Y-114522761D01*
X110581095Y-114427523D01*
X110628714Y-114332285D01*
X110676333Y-114141809D01*
X110676333Y-113998952D01*
X110628714Y-113808476D01*
X110581095Y-113713238D01*
X110485857Y-113618000D01*
X110343000Y-113570380D01*
X110247761Y-113570380D01*
X110104904Y-113618000D01*
X110057285Y-113665619D01*
X109438238Y-113570380D02*
X109343000Y-113570380D01*
X109247761Y-113618000D01*
X109200142Y-113665619D01*
X109152523Y-113760857D01*
X109104904Y-113951333D01*
X109104904Y-114189428D01*
X109152523Y-114379904D01*
X109200142Y-114475142D01*
X109247761Y-114522761D01*
X109343000Y-114570380D01*
X109438238Y-114570380D01*
X109533476Y-114522761D01*
X109581095Y-114475142D01*
X109628714Y-114379904D01*
X109676333Y-114189428D01*
X109676333Y-113951333D01*
X109628714Y-113760857D01*
X109581095Y-113665619D01*
X109533476Y-113618000D01*
X109438238Y-113570380D01*
X108485857Y-113570380D02*
X108390619Y-113570380D01*
X108295380Y-113618000D01*
X108247761Y-113665619D01*
X108200142Y-113760857D01*
X108152523Y-113951333D01*
X108152523Y-114189428D01*
X108200142Y-114379904D01*
X108247761Y-114475142D01*
X108295380Y-114522761D01*
X108390619Y-114570380D01*
X108485857Y-114570380D01*
X108581095Y-114522761D01*
X108628714Y-114475142D01*
X108676333Y-114379904D01*
X108723952Y-114189428D01*
X108723952Y-113951333D01*
X108676333Y-113760857D01*
X108628714Y-113665619D01*
X108581095Y-113618000D01*
X108485857Y-113570380D01*
X107962047Y-114665619D02*
X107200142Y-114665619D01*
X106962047Y-114570380D02*
X106962047Y-113570380D01*
X106533476Y-114570380D02*
X106533476Y-114046571D01*
X106581095Y-113951333D01*
X106676333Y-113903714D01*
X106819190Y-113903714D01*
X106914428Y-113951333D01*
X106962047Y-113998952D01*
X106057285Y-114570380D02*
X106057285Y-113903714D01*
X106057285Y-113570380D02*
X106104904Y-113618000D01*
X106057285Y-113665619D01*
X106009666Y-113618000D01*
X106057285Y-113570380D01*
X106057285Y-113665619D01*
X105438238Y-114570380D02*
X105533476Y-114522761D01*
X105581095Y-114427523D01*
X105581095Y-113570380D01*
X104914428Y-114570380D02*
X105009666Y-114522761D01*
X105057285Y-114427523D01*
X105057285Y-113570380D01*
X104104904Y-114570380D02*
X104104904Y-114046571D01*
X104152523Y-113951333D01*
X104247761Y-113903714D01*
X104438238Y-113903714D01*
X104533476Y-113951333D01*
X104104904Y-114522761D02*
X104200142Y-114570380D01*
X104438238Y-114570380D01*
X104533476Y-114522761D01*
X104581095Y-114427523D01*
X104581095Y-114332285D01*
X104533476Y-114237047D01*
X104438238Y-114189428D01*
X104200142Y-114189428D01*
X104104904Y-114141809D01*
X103628714Y-114570380D02*
X103628714Y-113570380D01*
X103628714Y-113951333D02*
X103533476Y-113903714D01*
X103343000Y-113903714D01*
X103247761Y-113951333D01*
X103200142Y-113998952D01*
X103152523Y-114094190D01*
X103152523Y-114379904D01*
X103200142Y-114475142D01*
X103247761Y-114522761D01*
X103343000Y-114570380D01*
X103533476Y-114570380D01*
X103628714Y-114522761D01*
X102343000Y-114522761D02*
X102438238Y-114570380D01*
X102628714Y-114570380D01*
X102723952Y-114522761D01*
X102771571Y-114427523D01*
X102771571Y-114046571D01*
X102723952Y-113951333D01*
X102628714Y-113903714D01*
X102438238Y-113903714D01*
X102343000Y-113951333D01*
X102295380Y-114046571D01*
X102295380Y-114141809D01*
X102771571Y-114237047D01*
X101723952Y-114570380D02*
X101819190Y-114522761D01*
X101866809Y-114427523D01*
X101866809Y-113570380D01*
X101343000Y-113903714D02*
X101343000Y-114903714D01*
X101343000Y-113951333D02*
X101247761Y-113903714D01*
X101057285Y-113903714D01*
X100962047Y-113951333D01*
X100914428Y-113998952D01*
X100866809Y-114094190D01*
X100866809Y-114379904D01*
X100914428Y-114475142D01*
X100962047Y-114522761D01*
X101057285Y-114570380D01*
X101247761Y-114570380D01*
X101343000Y-114522761D01*
X100295380Y-114570380D02*
X100390619Y-114522761D01*
X100438238Y-114427523D01*
X100438238Y-113570380D01*
X99485857Y-114570380D02*
X99485857Y-114046571D01*
X99533476Y-113951333D01*
X99628714Y-113903714D01*
X99819190Y-113903714D01*
X99914428Y-113951333D01*
X99485857Y-114522761D02*
X99581095Y-114570380D01*
X99819190Y-114570380D01*
X99914428Y-114522761D01*
X99962047Y-114427523D01*
X99962047Y-114332285D01*
X99914428Y-114237047D01*
X99819190Y-114189428D01*
X99581095Y-114189428D01*
X99485857Y-114141809D01*
X99152523Y-113903714D02*
X98771571Y-113903714D01*
X99009666Y-113570380D02*
X99009666Y-114427523D01*
X98962047Y-114522761D01*
X98866809Y-114570380D01*
X98771571Y-114570380D01*
X98057285Y-114522761D02*
X98152523Y-114570380D01*
X98343000Y-114570380D01*
X98438238Y-114522761D01*
X98485857Y-114427523D01*
X98485857Y-114046571D01*
X98438238Y-113951333D01*
X98343000Y-113903714D01*
X98152523Y-113903714D01*
X98057285Y-113951333D01*
X98009666Y-114046571D01*
X98009666Y-114141809D01*
X98485857Y-114237047D01*
X153057285Y-106475142D02*
X153104904Y-106522761D01*
X153247761Y-106570380D01*
X153343000Y-106570380D01*
X153485857Y-106522761D01*
X153581095Y-106427523D01*
X153628714Y-106332285D01*
X153676333Y-106141809D01*
X153676333Y-105998952D01*
X153628714Y-105808476D01*
X153581095Y-105713238D01*
X153485857Y-105618000D01*
X153343000Y-105570380D01*
X153247761Y-105570380D01*
X153104904Y-105618000D01*
X153057285Y-105665619D01*
X152438238Y-105570380D02*
X152343000Y-105570380D01*
X152247761Y-105618000D01*
X152200142Y-105665619D01*
X152152523Y-105760857D01*
X152104904Y-105951333D01*
X152104904Y-106189428D01*
X152152523Y-106379904D01*
X152200142Y-106475142D01*
X152247761Y-106522761D01*
X152343000Y-106570380D01*
X152438238Y-106570380D01*
X152533476Y-106522761D01*
X152581095Y-106475142D01*
X152628714Y-106379904D01*
X152676333Y-106189428D01*
X152676333Y-105951333D01*
X152628714Y-105760857D01*
X152581095Y-105665619D01*
X152533476Y-105618000D01*
X152438238Y-105570380D01*
X151485857Y-105570380D02*
X151390619Y-105570380D01*
X151295380Y-105618000D01*
X151247761Y-105665619D01*
X151200142Y-105760857D01*
X151152523Y-105951333D01*
X151152523Y-106189428D01*
X151200142Y-106379904D01*
X151247761Y-106475142D01*
X151295380Y-106522761D01*
X151390619Y-106570380D01*
X151485857Y-106570380D01*
X151581095Y-106522761D01*
X151628714Y-106475142D01*
X151676333Y-106379904D01*
X151723952Y-106189428D01*
X151723952Y-105951333D01*
X151676333Y-105760857D01*
X151628714Y-105665619D01*
X151581095Y-105618000D01*
X151485857Y-105570380D01*
X150962047Y-106665619D02*
X150200142Y-106665619D01*
X149962047Y-106570380D02*
X149962047Y-105570380D01*
X149533476Y-106570380D02*
X149533476Y-106046571D01*
X149581095Y-105951333D01*
X149676333Y-105903714D01*
X149819190Y-105903714D01*
X149914428Y-105951333D01*
X149962047Y-105998952D01*
X149057285Y-106570380D02*
X149057285Y-105903714D01*
X149057285Y-105570380D02*
X149104904Y-105618000D01*
X149057285Y-105665619D01*
X149009666Y-105618000D01*
X149057285Y-105570380D01*
X149057285Y-105665619D01*
X148438238Y-106570380D02*
X148533476Y-106522761D01*
X148581095Y-106427523D01*
X148581095Y-105570380D01*
X147914428Y-106570380D02*
X148009666Y-106522761D01*
X148057285Y-106427523D01*
X148057285Y-105570380D01*
X147104904Y-106570380D02*
X147104904Y-106046571D01*
X147152523Y-105951333D01*
X147247761Y-105903714D01*
X147438238Y-105903714D01*
X147533476Y-105951333D01*
X147104904Y-106522761D02*
X147200142Y-106570380D01*
X147438238Y-106570380D01*
X147533476Y-106522761D01*
X147581095Y-106427523D01*
X147581095Y-106332285D01*
X147533476Y-106237047D01*
X147438238Y-106189428D01*
X147200142Y-106189428D01*
X147104904Y-106141809D01*
X146628714Y-106570380D02*
X146628714Y-105570380D01*
X146628714Y-105951333D02*
X146533476Y-105903714D01*
X146343000Y-105903714D01*
X146247761Y-105951333D01*
X146200142Y-105998952D01*
X146152523Y-106094190D01*
X146152523Y-106379904D01*
X146200142Y-106475142D01*
X146247761Y-106522761D01*
X146343000Y-106570380D01*
X146533476Y-106570380D01*
X146628714Y-106522761D01*
X145343000Y-106522761D02*
X145438238Y-106570380D01*
X145628714Y-106570380D01*
X145723952Y-106522761D01*
X145771571Y-106427523D01*
X145771571Y-106046571D01*
X145723952Y-105951333D01*
X145628714Y-105903714D01*
X145438238Y-105903714D01*
X145343000Y-105951333D01*
X145295380Y-106046571D01*
X145295380Y-106141809D01*
X145771571Y-106237047D01*
X144723952Y-106570380D02*
X144819190Y-106522761D01*
X144866809Y-106427523D01*
X144866809Y-105570380D01*
X144343000Y-105903714D02*
X144343000Y-106903714D01*
X144343000Y-105951333D02*
X144247761Y-105903714D01*
X144057285Y-105903714D01*
X143962047Y-105951333D01*
X143914428Y-105998952D01*
X143866809Y-106094190D01*
X143866809Y-106379904D01*
X143914428Y-106475142D01*
X143962047Y-106522761D01*
X144057285Y-106570380D01*
X144247761Y-106570380D01*
X144343000Y-106522761D01*
X143295380Y-106570380D02*
X143390619Y-106522761D01*
X143438238Y-106427523D01*
X143438238Y-105570380D01*
X142485857Y-106570380D02*
X142485857Y-106046571D01*
X142533476Y-105951333D01*
X142628714Y-105903714D01*
X142819190Y-105903714D01*
X142914428Y-105951333D01*
X142485857Y-106522761D02*
X142581095Y-106570380D01*
X142819190Y-106570380D01*
X142914428Y-106522761D01*
X142962047Y-106427523D01*
X142962047Y-106332285D01*
X142914428Y-106237047D01*
X142819190Y-106189428D01*
X142581095Y-106189428D01*
X142485857Y-106141809D01*
X142152523Y-105903714D02*
X141771571Y-105903714D01*
X142009666Y-105570380D02*
X142009666Y-106427523D01*
X141962047Y-106522761D01*
X141866809Y-106570380D01*
X141771571Y-106570380D01*
X141057285Y-106522761D02*
X141152523Y-106570380D01*
X141343000Y-106570380D01*
X141438238Y-106522761D01*
X141485857Y-106427523D01*
X141485857Y-106046571D01*
X141438238Y-105951333D01*
X141343000Y-105903714D01*
X141152523Y-105903714D01*
X141057285Y-105951333D01*
X141009666Y-106046571D01*
X141009666Y-106141809D01*
X141485857Y-106237047D01*
X110057285Y-106475142D02*
X110104904Y-106522761D01*
X110247761Y-106570380D01*
X110343000Y-106570380D01*
X110485857Y-106522761D01*
X110581095Y-106427523D01*
X110628714Y-106332285D01*
X110676333Y-106141809D01*
X110676333Y-105998952D01*
X110628714Y-105808476D01*
X110581095Y-105713238D01*
X110485857Y-105618000D01*
X110343000Y-105570380D01*
X110247761Y-105570380D01*
X110104904Y-105618000D01*
X110057285Y-105665619D01*
X109438238Y-105570380D02*
X109343000Y-105570380D01*
X109247761Y-105618000D01*
X109200142Y-105665619D01*
X109152523Y-105760857D01*
X109104904Y-105951333D01*
X109104904Y-106189428D01*
X109152523Y-106379904D01*
X109200142Y-106475142D01*
X109247761Y-106522761D01*
X109343000Y-106570380D01*
X109438238Y-106570380D01*
X109533476Y-106522761D01*
X109581095Y-106475142D01*
X109628714Y-106379904D01*
X109676333Y-106189428D01*
X109676333Y-105951333D01*
X109628714Y-105760857D01*
X109581095Y-105665619D01*
X109533476Y-105618000D01*
X109438238Y-105570380D01*
X108485857Y-105570380D02*
X108390619Y-105570380D01*
X108295380Y-105618000D01*
X108247761Y-105665619D01*
X108200142Y-105760857D01*
X108152523Y-105951333D01*
X108152523Y-106189428D01*
X108200142Y-106379904D01*
X108247761Y-106475142D01*
X108295380Y-106522761D01*
X108390619Y-106570380D01*
X108485857Y-106570380D01*
X108581095Y-106522761D01*
X108628714Y-106475142D01*
X108676333Y-106379904D01*
X108723952Y-106189428D01*
X108723952Y-105951333D01*
X108676333Y-105760857D01*
X108628714Y-105665619D01*
X108581095Y-105618000D01*
X108485857Y-105570380D01*
X107962047Y-106665619D02*
X107200142Y-106665619D01*
X106962047Y-106570380D02*
X106962047Y-105570380D01*
X106533476Y-106570380D02*
X106533476Y-106046571D01*
X106581095Y-105951333D01*
X106676333Y-105903714D01*
X106819190Y-105903714D01*
X106914428Y-105951333D01*
X106962047Y-105998952D01*
X106057285Y-106570380D02*
X106057285Y-105903714D01*
X106057285Y-105570380D02*
X106104904Y-105618000D01*
X106057285Y-105665619D01*
X106009666Y-105618000D01*
X106057285Y-105570380D01*
X106057285Y-105665619D01*
X105438238Y-106570380D02*
X105533476Y-106522761D01*
X105581095Y-106427523D01*
X105581095Y-105570380D01*
X104914428Y-106570380D02*
X105009666Y-106522761D01*
X105057285Y-106427523D01*
X105057285Y-105570380D01*
X104104904Y-106570380D02*
X104104904Y-106046571D01*
X104152523Y-105951333D01*
X104247761Y-105903714D01*
X104438238Y-105903714D01*
X104533476Y-105951333D01*
X104104904Y-106522761D02*
X104200142Y-106570380D01*
X104438238Y-106570380D01*
X104533476Y-106522761D01*
X104581095Y-106427523D01*
X104581095Y-106332285D01*
X104533476Y-106237047D01*
X104438238Y-106189428D01*
X104200142Y-106189428D01*
X104104904Y-106141809D01*
X103628714Y-106570380D02*
X103628714Y-105570380D01*
X103628714Y-105951333D02*
X103533476Y-105903714D01*
X103343000Y-105903714D01*
X103247761Y-105951333D01*
X103200142Y-105998952D01*
X103152523Y-106094190D01*
X103152523Y-106379904D01*
X103200142Y-106475142D01*
X103247761Y-106522761D01*
X103343000Y-106570380D01*
X103533476Y-106570380D01*
X103628714Y-106522761D01*
X102343000Y-106522761D02*
X102438238Y-106570380D01*
X102628714Y-106570380D01*
X102723952Y-106522761D01*
X102771571Y-106427523D01*
X102771571Y-106046571D01*
X102723952Y-105951333D01*
X102628714Y-105903714D01*
X102438238Y-105903714D01*
X102343000Y-105951333D01*
X102295380Y-106046571D01*
X102295380Y-106141809D01*
X102771571Y-106237047D01*
X101723952Y-106570380D02*
X101819190Y-106522761D01*
X101866809Y-106427523D01*
X101866809Y-105570380D01*
X101343000Y-105903714D02*
X101343000Y-106903714D01*
X101343000Y-105951333D02*
X101247761Y-105903714D01*
X101057285Y-105903714D01*
X100962047Y-105951333D01*
X100914428Y-105998952D01*
X100866809Y-106094190D01*
X100866809Y-106379904D01*
X100914428Y-106475142D01*
X100962047Y-106522761D01*
X101057285Y-106570380D01*
X101247761Y-106570380D01*
X101343000Y-106522761D01*
X100295380Y-106570380D02*
X100390619Y-106522761D01*
X100438238Y-106427523D01*
X100438238Y-105570380D01*
X99485857Y-106570380D02*
X99485857Y-106046571D01*
X99533476Y-105951333D01*
X99628714Y-105903714D01*
X99819190Y-105903714D01*
X99914428Y-105951333D01*
X99485857Y-106522761D02*
X99581095Y-106570380D01*
X99819190Y-106570380D01*
X99914428Y-106522761D01*
X99962047Y-106427523D01*
X99962047Y-106332285D01*
X99914428Y-106237047D01*
X99819190Y-106189428D01*
X99581095Y-106189428D01*
X99485857Y-106141809D01*
X99152523Y-105903714D02*
X98771571Y-105903714D01*
X99009666Y-105570380D02*
X99009666Y-106427523D01*
X98962047Y-106522761D01*
X98866809Y-106570380D01*
X98771571Y-106570380D01*
X98057285Y-106522761D02*
X98152523Y-106570380D01*
X98343000Y-106570380D01*
X98438238Y-106522761D01*
X98485857Y-106427523D01*
X98485857Y-106046571D01*
X98438238Y-105951333D01*
X98343000Y-105903714D01*
X98152523Y-105903714D01*
X98057285Y-105951333D01*
X98009666Y-106046571D01*
X98009666Y-106141809D01*
X98485857Y-106237047D01*
X153057285Y-98475142D02*
X153104904Y-98522761D01*
X153247761Y-98570380D01*
X153343000Y-98570380D01*
X153485857Y-98522761D01*
X153581095Y-98427523D01*
X153628714Y-98332285D01*
X153676333Y-98141809D01*
X153676333Y-97998952D01*
X153628714Y-97808476D01*
X153581095Y-97713238D01*
X153485857Y-97618000D01*
X153343000Y-97570380D01*
X153247761Y-97570380D01*
X153104904Y-97618000D01*
X153057285Y-97665619D01*
X152438238Y-97570380D02*
X152343000Y-97570380D01*
X152247761Y-97618000D01*
X152200142Y-97665619D01*
X152152523Y-97760857D01*
X152104904Y-97951333D01*
X152104904Y-98189428D01*
X152152523Y-98379904D01*
X152200142Y-98475142D01*
X152247761Y-98522761D01*
X152343000Y-98570380D01*
X152438238Y-98570380D01*
X152533476Y-98522761D01*
X152581095Y-98475142D01*
X152628714Y-98379904D01*
X152676333Y-98189428D01*
X152676333Y-97951333D01*
X152628714Y-97760857D01*
X152581095Y-97665619D01*
X152533476Y-97618000D01*
X152438238Y-97570380D01*
X151485857Y-97570380D02*
X151390619Y-97570380D01*
X151295380Y-97618000D01*
X151247761Y-97665619D01*
X151200142Y-97760857D01*
X151152523Y-97951333D01*
X151152523Y-98189428D01*
X151200142Y-98379904D01*
X151247761Y-98475142D01*
X151295380Y-98522761D01*
X151390619Y-98570380D01*
X151485857Y-98570380D01*
X151581095Y-98522761D01*
X151628714Y-98475142D01*
X151676333Y-98379904D01*
X151723952Y-98189428D01*
X151723952Y-97951333D01*
X151676333Y-97760857D01*
X151628714Y-97665619D01*
X151581095Y-97618000D01*
X151485857Y-97570380D01*
X150962047Y-98665619D02*
X150200142Y-98665619D01*
X149962047Y-98570380D02*
X149962047Y-97570380D01*
X149533476Y-98570380D02*
X149533476Y-98046571D01*
X149581095Y-97951333D01*
X149676333Y-97903714D01*
X149819190Y-97903714D01*
X149914428Y-97951333D01*
X149962047Y-97998952D01*
X149057285Y-98570380D02*
X149057285Y-97903714D01*
X149057285Y-97570380D02*
X149104904Y-97618000D01*
X149057285Y-97665619D01*
X149009666Y-97618000D01*
X149057285Y-97570380D01*
X149057285Y-97665619D01*
X148438238Y-98570380D02*
X148533476Y-98522761D01*
X148581095Y-98427523D01*
X148581095Y-97570380D01*
X147914428Y-98570380D02*
X148009666Y-98522761D01*
X148057285Y-98427523D01*
X148057285Y-97570380D01*
X147104904Y-98570380D02*
X147104904Y-98046571D01*
X147152523Y-97951333D01*
X147247761Y-97903714D01*
X147438238Y-97903714D01*
X147533476Y-97951333D01*
X147104904Y-98522761D02*
X147200142Y-98570380D01*
X147438238Y-98570380D01*
X147533476Y-98522761D01*
X147581095Y-98427523D01*
X147581095Y-98332285D01*
X147533476Y-98237047D01*
X147438238Y-98189428D01*
X147200142Y-98189428D01*
X147104904Y-98141809D01*
X146628714Y-98570380D02*
X146628714Y-97570380D01*
X146628714Y-97951333D02*
X146533476Y-97903714D01*
X146343000Y-97903714D01*
X146247761Y-97951333D01*
X146200142Y-97998952D01*
X146152523Y-98094190D01*
X146152523Y-98379904D01*
X146200142Y-98475142D01*
X146247761Y-98522761D01*
X146343000Y-98570380D01*
X146533476Y-98570380D01*
X146628714Y-98522761D01*
X145343000Y-98522761D02*
X145438238Y-98570380D01*
X145628714Y-98570380D01*
X145723952Y-98522761D01*
X145771571Y-98427523D01*
X145771571Y-98046571D01*
X145723952Y-97951333D01*
X145628714Y-97903714D01*
X145438238Y-97903714D01*
X145343000Y-97951333D01*
X145295380Y-98046571D01*
X145295380Y-98141809D01*
X145771571Y-98237047D01*
X144723952Y-98570380D02*
X144819190Y-98522761D01*
X144866809Y-98427523D01*
X144866809Y-97570380D01*
X144343000Y-97903714D02*
X144343000Y-98903714D01*
X144343000Y-97951333D02*
X144247761Y-97903714D01*
X144057285Y-97903714D01*
X143962047Y-97951333D01*
X143914428Y-97998952D01*
X143866809Y-98094190D01*
X143866809Y-98379904D01*
X143914428Y-98475142D01*
X143962047Y-98522761D01*
X144057285Y-98570380D01*
X144247761Y-98570380D01*
X144343000Y-98522761D01*
X143295380Y-98570380D02*
X143390619Y-98522761D01*
X143438238Y-98427523D01*
X143438238Y-97570380D01*
X142485857Y-98570380D02*
X142485857Y-98046571D01*
X142533476Y-97951333D01*
X142628714Y-97903714D01*
X142819190Y-97903714D01*
X142914428Y-97951333D01*
X142485857Y-98522761D02*
X142581095Y-98570380D01*
X142819190Y-98570380D01*
X142914428Y-98522761D01*
X142962047Y-98427523D01*
X142962047Y-98332285D01*
X142914428Y-98237047D01*
X142819190Y-98189428D01*
X142581095Y-98189428D01*
X142485857Y-98141809D01*
X142152523Y-97903714D02*
X141771571Y-97903714D01*
X142009666Y-97570380D02*
X142009666Y-98427523D01*
X141962047Y-98522761D01*
X141866809Y-98570380D01*
X141771571Y-98570380D01*
X141057285Y-98522761D02*
X141152523Y-98570380D01*
X141343000Y-98570380D01*
X141438238Y-98522761D01*
X141485857Y-98427523D01*
X141485857Y-98046571D01*
X141438238Y-97951333D01*
X141343000Y-97903714D01*
X141152523Y-97903714D01*
X141057285Y-97951333D01*
X141009666Y-98046571D01*
X141009666Y-98141809D01*
X141485857Y-98237047D01*
X110057285Y-98475142D02*
X110104904Y-98522761D01*
X110247761Y-98570380D01*
X110343000Y-98570380D01*
X110485857Y-98522761D01*
X110581095Y-98427523D01*
X110628714Y-98332285D01*
X110676333Y-98141809D01*
X110676333Y-97998952D01*
X110628714Y-97808476D01*
X110581095Y-97713238D01*
X110485857Y-97618000D01*
X110343000Y-97570380D01*
X110247761Y-97570380D01*
X110104904Y-97618000D01*
X110057285Y-97665619D01*
X109438238Y-97570380D02*
X109343000Y-97570380D01*
X109247761Y-97618000D01*
X109200142Y-97665619D01*
X109152523Y-97760857D01*
X109104904Y-97951333D01*
X109104904Y-98189428D01*
X109152523Y-98379904D01*
X109200142Y-98475142D01*
X109247761Y-98522761D01*
X109343000Y-98570380D01*
X109438238Y-98570380D01*
X109533476Y-98522761D01*
X109581095Y-98475142D01*
X109628714Y-98379904D01*
X109676333Y-98189428D01*
X109676333Y-97951333D01*
X109628714Y-97760857D01*
X109581095Y-97665619D01*
X109533476Y-97618000D01*
X109438238Y-97570380D01*
X108485857Y-97570380D02*
X108390619Y-97570380D01*
X108295380Y-97618000D01*
X108247761Y-97665619D01*
X108200142Y-97760857D01*
X108152523Y-97951333D01*
X108152523Y-98189428D01*
X108200142Y-98379904D01*
X108247761Y-98475142D01*
X108295380Y-98522761D01*
X108390619Y-98570380D01*
X108485857Y-98570380D01*
X108581095Y-98522761D01*
X108628714Y-98475142D01*
X108676333Y-98379904D01*
X108723952Y-98189428D01*
X108723952Y-97951333D01*
X108676333Y-97760857D01*
X108628714Y-97665619D01*
X108581095Y-97618000D01*
X108485857Y-97570380D01*
X107962047Y-98665619D02*
X107200142Y-98665619D01*
X106962047Y-98570380D02*
X106962047Y-97570380D01*
X106533476Y-98570380D02*
X106533476Y-98046571D01*
X106581095Y-97951333D01*
X106676333Y-97903714D01*
X106819190Y-97903714D01*
X106914428Y-97951333D01*
X106962047Y-97998952D01*
X106057285Y-98570380D02*
X106057285Y-97903714D01*
X106057285Y-97570380D02*
X106104904Y-97618000D01*
X106057285Y-97665619D01*
X106009666Y-97618000D01*
X106057285Y-97570380D01*
X106057285Y-97665619D01*
X105438238Y-98570380D02*
X105533476Y-98522761D01*
X105581095Y-98427523D01*
X105581095Y-97570380D01*
X104914428Y-98570380D02*
X105009666Y-98522761D01*
X105057285Y-98427523D01*
X105057285Y-97570380D01*
X104104904Y-98570380D02*
X104104904Y-98046571D01*
X104152523Y-97951333D01*
X104247761Y-97903714D01*
X104438238Y-97903714D01*
X104533476Y-97951333D01*
X104104904Y-98522761D02*
X104200142Y-98570380D01*
X104438238Y-98570380D01*
X104533476Y-98522761D01*
X104581095Y-98427523D01*
X104581095Y-98332285D01*
X104533476Y-98237047D01*
X104438238Y-98189428D01*
X104200142Y-98189428D01*
X104104904Y-98141809D01*
X103628714Y-98570380D02*
X103628714Y-97570380D01*
X103628714Y-97951333D02*
X103533476Y-97903714D01*
X103343000Y-97903714D01*
X103247761Y-97951333D01*
X103200142Y-97998952D01*
X103152523Y-98094190D01*
X103152523Y-98379904D01*
X103200142Y-98475142D01*
X103247761Y-98522761D01*
X103343000Y-98570380D01*
X103533476Y-98570380D01*
X103628714Y-98522761D01*
X102343000Y-98522761D02*
X102438238Y-98570380D01*
X102628714Y-98570380D01*
X102723952Y-98522761D01*
X102771571Y-98427523D01*
X102771571Y-98046571D01*
X102723952Y-97951333D01*
X102628714Y-97903714D01*
X102438238Y-97903714D01*
X102343000Y-97951333D01*
X102295380Y-98046571D01*
X102295380Y-98141809D01*
X102771571Y-98237047D01*
X101723952Y-98570380D02*
X101819190Y-98522761D01*
X101866809Y-98427523D01*
X101866809Y-97570380D01*
X101343000Y-97903714D02*
X101343000Y-98903714D01*
X101343000Y-97951333D02*
X101247761Y-97903714D01*
X101057285Y-97903714D01*
X100962047Y-97951333D01*
X100914428Y-97998952D01*
X100866809Y-98094190D01*
X100866809Y-98379904D01*
X100914428Y-98475142D01*
X100962047Y-98522761D01*
X101057285Y-98570380D01*
X101247761Y-98570380D01*
X101343000Y-98522761D01*
X100295380Y-98570380D02*
X100390619Y-98522761D01*
X100438238Y-98427523D01*
X100438238Y-97570380D01*
X99485857Y-98570380D02*
X99485857Y-98046571D01*
X99533476Y-97951333D01*
X99628714Y-97903714D01*
X99819190Y-97903714D01*
X99914428Y-97951333D01*
X99485857Y-98522761D02*
X99581095Y-98570380D01*
X99819190Y-98570380D01*
X99914428Y-98522761D01*
X99962047Y-98427523D01*
X99962047Y-98332285D01*
X99914428Y-98237047D01*
X99819190Y-98189428D01*
X99581095Y-98189428D01*
X99485857Y-98141809D01*
X99152523Y-97903714D02*
X98771571Y-97903714D01*
X99009666Y-97570380D02*
X99009666Y-98427523D01*
X98962047Y-98522761D01*
X98866809Y-98570380D01*
X98771571Y-98570380D01*
X98057285Y-98522761D02*
X98152523Y-98570380D01*
X98343000Y-98570380D01*
X98438238Y-98522761D01*
X98485857Y-98427523D01*
X98485857Y-98046571D01*
X98438238Y-97951333D01*
X98343000Y-97903714D01*
X98152523Y-97903714D01*
X98057285Y-97951333D01*
X98009666Y-98046571D01*
X98009666Y-98141809D01*
X98485857Y-98237047D01*
X153057285Y-90475142D02*
X153104904Y-90522761D01*
X153247761Y-90570380D01*
X153343000Y-90570380D01*
X153485857Y-90522761D01*
X153581095Y-90427523D01*
X153628714Y-90332285D01*
X153676333Y-90141809D01*
X153676333Y-89998952D01*
X153628714Y-89808476D01*
X153581095Y-89713238D01*
X153485857Y-89618000D01*
X153343000Y-89570380D01*
X153247761Y-89570380D01*
X153104904Y-89618000D01*
X153057285Y-89665619D01*
X152438238Y-89570380D02*
X152343000Y-89570380D01*
X152247761Y-89618000D01*
X152200142Y-89665619D01*
X152152523Y-89760857D01*
X152104904Y-89951333D01*
X152104904Y-90189428D01*
X152152523Y-90379904D01*
X152200142Y-90475142D01*
X152247761Y-90522761D01*
X152343000Y-90570380D01*
X152438238Y-90570380D01*
X152533476Y-90522761D01*
X152581095Y-90475142D01*
X152628714Y-90379904D01*
X152676333Y-90189428D01*
X152676333Y-89951333D01*
X152628714Y-89760857D01*
X152581095Y-89665619D01*
X152533476Y-89618000D01*
X152438238Y-89570380D01*
X151485857Y-89570380D02*
X151390619Y-89570380D01*
X151295380Y-89618000D01*
X151247761Y-89665619D01*
X151200142Y-89760857D01*
X151152523Y-89951333D01*
X151152523Y-90189428D01*
X151200142Y-90379904D01*
X151247761Y-90475142D01*
X151295380Y-90522761D01*
X151390619Y-90570380D01*
X151485857Y-90570380D01*
X151581095Y-90522761D01*
X151628714Y-90475142D01*
X151676333Y-90379904D01*
X151723952Y-90189428D01*
X151723952Y-89951333D01*
X151676333Y-89760857D01*
X151628714Y-89665619D01*
X151581095Y-89618000D01*
X151485857Y-89570380D01*
X150962047Y-90665619D02*
X150200142Y-90665619D01*
X149962047Y-90570380D02*
X149962047Y-89570380D01*
X149533476Y-90570380D02*
X149533476Y-90046571D01*
X149581095Y-89951333D01*
X149676333Y-89903714D01*
X149819190Y-89903714D01*
X149914428Y-89951333D01*
X149962047Y-89998952D01*
X149057285Y-90570380D02*
X149057285Y-89903714D01*
X149057285Y-89570380D02*
X149104904Y-89618000D01*
X149057285Y-89665619D01*
X149009666Y-89618000D01*
X149057285Y-89570380D01*
X149057285Y-89665619D01*
X148438238Y-90570380D02*
X148533476Y-90522761D01*
X148581095Y-90427523D01*
X148581095Y-89570380D01*
X147914428Y-90570380D02*
X148009666Y-90522761D01*
X148057285Y-90427523D01*
X148057285Y-89570380D01*
X147104904Y-90570380D02*
X147104904Y-90046571D01*
X147152523Y-89951333D01*
X147247761Y-89903714D01*
X147438238Y-89903714D01*
X147533476Y-89951333D01*
X147104904Y-90522761D02*
X147200142Y-90570380D01*
X147438238Y-90570380D01*
X147533476Y-90522761D01*
X147581095Y-90427523D01*
X147581095Y-90332285D01*
X147533476Y-90237047D01*
X147438238Y-90189428D01*
X147200142Y-90189428D01*
X147104904Y-90141809D01*
X146628714Y-90570380D02*
X146628714Y-89570380D01*
X146628714Y-89951333D02*
X146533476Y-89903714D01*
X146343000Y-89903714D01*
X146247761Y-89951333D01*
X146200142Y-89998952D01*
X146152523Y-90094190D01*
X146152523Y-90379904D01*
X146200142Y-90475142D01*
X146247761Y-90522761D01*
X146343000Y-90570380D01*
X146533476Y-90570380D01*
X146628714Y-90522761D01*
X145343000Y-90522761D02*
X145438238Y-90570380D01*
X145628714Y-90570380D01*
X145723952Y-90522761D01*
X145771571Y-90427523D01*
X145771571Y-90046571D01*
X145723952Y-89951333D01*
X145628714Y-89903714D01*
X145438238Y-89903714D01*
X145343000Y-89951333D01*
X145295380Y-90046571D01*
X145295380Y-90141809D01*
X145771571Y-90237047D01*
X144723952Y-90570380D02*
X144819190Y-90522761D01*
X144866809Y-90427523D01*
X144866809Y-89570380D01*
X144343000Y-89903714D02*
X144343000Y-90903714D01*
X144343000Y-89951333D02*
X144247761Y-89903714D01*
X144057285Y-89903714D01*
X143962047Y-89951333D01*
X143914428Y-89998952D01*
X143866809Y-90094190D01*
X143866809Y-90379904D01*
X143914428Y-90475142D01*
X143962047Y-90522761D01*
X144057285Y-90570380D01*
X144247761Y-90570380D01*
X144343000Y-90522761D01*
X143295380Y-90570380D02*
X143390619Y-90522761D01*
X143438238Y-90427523D01*
X143438238Y-89570380D01*
X142485857Y-90570380D02*
X142485857Y-90046571D01*
X142533476Y-89951333D01*
X142628714Y-89903714D01*
X142819190Y-89903714D01*
X142914428Y-89951333D01*
X142485857Y-90522761D02*
X142581095Y-90570380D01*
X142819190Y-90570380D01*
X142914428Y-90522761D01*
X142962047Y-90427523D01*
X142962047Y-90332285D01*
X142914428Y-90237047D01*
X142819190Y-90189428D01*
X142581095Y-90189428D01*
X142485857Y-90141809D01*
X142152523Y-89903714D02*
X141771571Y-89903714D01*
X142009666Y-89570380D02*
X142009666Y-90427523D01*
X141962047Y-90522761D01*
X141866809Y-90570380D01*
X141771571Y-90570380D01*
X141057285Y-90522761D02*
X141152523Y-90570380D01*
X141343000Y-90570380D01*
X141438238Y-90522761D01*
X141485857Y-90427523D01*
X141485857Y-90046571D01*
X141438238Y-89951333D01*
X141343000Y-89903714D01*
X141152523Y-89903714D01*
X141057285Y-89951333D01*
X141009666Y-90046571D01*
X141009666Y-90141809D01*
X141485857Y-90237047D01*
X110057285Y-90475142D02*
X110104904Y-90522761D01*
X110247761Y-90570380D01*
X110343000Y-90570380D01*
X110485857Y-90522761D01*
X110581095Y-90427523D01*
X110628714Y-90332285D01*
X110676333Y-90141809D01*
X110676333Y-89998952D01*
X110628714Y-89808476D01*
X110581095Y-89713238D01*
X110485857Y-89618000D01*
X110343000Y-89570380D01*
X110247761Y-89570380D01*
X110104904Y-89618000D01*
X110057285Y-89665619D01*
X109438238Y-89570380D02*
X109343000Y-89570380D01*
X109247761Y-89618000D01*
X109200142Y-89665619D01*
X109152523Y-89760857D01*
X109104904Y-89951333D01*
X109104904Y-90189428D01*
X109152523Y-90379904D01*
X109200142Y-90475142D01*
X109247761Y-90522761D01*
X109343000Y-90570380D01*
X109438238Y-90570380D01*
X109533476Y-90522761D01*
X109581095Y-90475142D01*
X109628714Y-90379904D01*
X109676333Y-90189428D01*
X109676333Y-89951333D01*
X109628714Y-89760857D01*
X109581095Y-89665619D01*
X109533476Y-89618000D01*
X109438238Y-89570380D01*
X108485857Y-89570380D02*
X108390619Y-89570380D01*
X108295380Y-89618000D01*
X108247761Y-89665619D01*
X108200142Y-89760857D01*
X108152523Y-89951333D01*
X108152523Y-90189428D01*
X108200142Y-90379904D01*
X108247761Y-90475142D01*
X108295380Y-90522761D01*
X108390619Y-90570380D01*
X108485857Y-90570380D01*
X108581095Y-90522761D01*
X108628714Y-90475142D01*
X108676333Y-90379904D01*
X108723952Y-90189428D01*
X108723952Y-89951333D01*
X108676333Y-89760857D01*
X108628714Y-89665619D01*
X108581095Y-89618000D01*
X108485857Y-89570380D01*
X107962047Y-90665619D02*
X107200142Y-90665619D01*
X106962047Y-90570380D02*
X106962047Y-89570380D01*
X106533476Y-90570380D02*
X106533476Y-90046571D01*
X106581095Y-89951333D01*
X106676333Y-89903714D01*
X106819190Y-89903714D01*
X106914428Y-89951333D01*
X106962047Y-89998952D01*
X106057285Y-90570380D02*
X106057285Y-89903714D01*
X106057285Y-89570380D02*
X106104904Y-89618000D01*
X106057285Y-89665619D01*
X106009666Y-89618000D01*
X106057285Y-89570380D01*
X106057285Y-89665619D01*
X105438238Y-90570380D02*
X105533476Y-90522761D01*
X105581095Y-90427523D01*
X105581095Y-89570380D01*
X104914428Y-90570380D02*
X105009666Y-90522761D01*
X105057285Y-90427523D01*
X105057285Y-89570380D01*
X104104904Y-90570380D02*
X104104904Y-90046571D01*
X104152523Y-89951333D01*
X104247761Y-89903714D01*
X104438238Y-89903714D01*
X104533476Y-89951333D01*
X104104904Y-90522761D02*
X104200142Y-90570380D01*
X104438238Y-90570380D01*
X104533476Y-90522761D01*
X104581095Y-90427523D01*
X104581095Y-90332285D01*
X104533476Y-90237047D01*
X104438238Y-90189428D01*
X104200142Y-90189428D01*
X104104904Y-90141809D01*
X103628714Y-90570380D02*
X103628714Y-89570380D01*
X103628714Y-89951333D02*
X103533476Y-89903714D01*
X103343000Y-89903714D01*
X103247761Y-89951333D01*
X103200142Y-89998952D01*
X103152523Y-90094190D01*
X103152523Y-90379904D01*
X103200142Y-90475142D01*
X103247761Y-90522761D01*
X103343000Y-90570380D01*
X103533476Y-90570380D01*
X103628714Y-90522761D01*
X102343000Y-90522761D02*
X102438238Y-90570380D01*
X102628714Y-90570380D01*
X102723952Y-90522761D01*
X102771571Y-90427523D01*
X102771571Y-90046571D01*
X102723952Y-89951333D01*
X102628714Y-89903714D01*
X102438238Y-89903714D01*
X102343000Y-89951333D01*
X102295380Y-90046571D01*
X102295380Y-90141809D01*
X102771571Y-90237047D01*
X101723952Y-90570380D02*
X101819190Y-90522761D01*
X101866809Y-90427523D01*
X101866809Y-89570380D01*
X101343000Y-89903714D02*
X101343000Y-90903714D01*
X101343000Y-89951333D02*
X101247761Y-89903714D01*
X101057285Y-89903714D01*
X100962047Y-89951333D01*
X100914428Y-89998952D01*
X100866809Y-90094190D01*
X100866809Y-90379904D01*
X100914428Y-90475142D01*
X100962047Y-90522761D01*
X101057285Y-90570380D01*
X101247761Y-90570380D01*
X101343000Y-90522761D01*
X100295380Y-90570380D02*
X100390619Y-90522761D01*
X100438238Y-90427523D01*
X100438238Y-89570380D01*
X99485857Y-90570380D02*
X99485857Y-90046571D01*
X99533476Y-89951333D01*
X99628714Y-89903714D01*
X99819190Y-89903714D01*
X99914428Y-89951333D01*
X99485857Y-90522761D02*
X99581095Y-90570380D01*
X99819190Y-90570380D01*
X99914428Y-90522761D01*
X99962047Y-90427523D01*
X99962047Y-90332285D01*
X99914428Y-90237047D01*
X99819190Y-90189428D01*
X99581095Y-90189428D01*
X99485857Y-90141809D01*
X99152523Y-89903714D02*
X98771571Y-89903714D01*
X99009666Y-89570380D02*
X99009666Y-90427523D01*
X98962047Y-90522761D01*
X98866809Y-90570380D01*
X98771571Y-90570380D01*
X98057285Y-90522761D02*
X98152523Y-90570380D01*
X98343000Y-90570380D01*
X98438238Y-90522761D01*
X98485857Y-90427523D01*
X98485857Y-90046571D01*
X98438238Y-89951333D01*
X98343000Y-89903714D01*
X98152523Y-89903714D01*
X98057285Y-89951333D01*
X98009666Y-90046571D01*
X98009666Y-90141809D01*
X98485857Y-90237047D01*
X153057285Y-82475142D02*
X153104904Y-82522761D01*
X153247761Y-82570380D01*
X153343000Y-82570380D01*
X153485857Y-82522761D01*
X153581095Y-82427523D01*
X153628714Y-82332285D01*
X153676333Y-82141809D01*
X153676333Y-81998952D01*
X153628714Y-81808476D01*
X153581095Y-81713238D01*
X153485857Y-81618000D01*
X153343000Y-81570380D01*
X153247761Y-81570380D01*
X153104904Y-81618000D01*
X153057285Y-81665619D01*
X152438238Y-81570380D02*
X152343000Y-81570380D01*
X152247761Y-81618000D01*
X152200142Y-81665619D01*
X152152523Y-81760857D01*
X152104904Y-81951333D01*
X152104904Y-82189428D01*
X152152523Y-82379904D01*
X152200142Y-82475142D01*
X152247761Y-82522761D01*
X152343000Y-82570380D01*
X152438238Y-82570380D01*
X152533476Y-82522761D01*
X152581095Y-82475142D01*
X152628714Y-82379904D01*
X152676333Y-82189428D01*
X152676333Y-81951333D01*
X152628714Y-81760857D01*
X152581095Y-81665619D01*
X152533476Y-81618000D01*
X152438238Y-81570380D01*
X151485857Y-81570380D02*
X151390619Y-81570380D01*
X151295380Y-81618000D01*
X151247761Y-81665619D01*
X151200142Y-81760857D01*
X151152523Y-81951333D01*
X151152523Y-82189428D01*
X151200142Y-82379904D01*
X151247761Y-82475142D01*
X151295380Y-82522761D01*
X151390619Y-82570380D01*
X151485857Y-82570380D01*
X151581095Y-82522761D01*
X151628714Y-82475142D01*
X151676333Y-82379904D01*
X151723952Y-82189428D01*
X151723952Y-81951333D01*
X151676333Y-81760857D01*
X151628714Y-81665619D01*
X151581095Y-81618000D01*
X151485857Y-81570380D01*
X150962047Y-82665619D02*
X150200142Y-82665619D01*
X149962047Y-82570380D02*
X149962047Y-81570380D01*
X149533476Y-82570380D02*
X149533476Y-82046571D01*
X149581095Y-81951333D01*
X149676333Y-81903714D01*
X149819190Y-81903714D01*
X149914428Y-81951333D01*
X149962047Y-81998952D01*
X149057285Y-82570380D02*
X149057285Y-81903714D01*
X149057285Y-81570380D02*
X149104904Y-81618000D01*
X149057285Y-81665619D01*
X149009666Y-81618000D01*
X149057285Y-81570380D01*
X149057285Y-81665619D01*
X148438238Y-82570380D02*
X148533476Y-82522761D01*
X148581095Y-82427523D01*
X148581095Y-81570380D01*
X147914428Y-82570380D02*
X148009666Y-82522761D01*
X148057285Y-82427523D01*
X148057285Y-81570380D01*
X147104904Y-82570380D02*
X147104904Y-82046571D01*
X147152523Y-81951333D01*
X147247761Y-81903714D01*
X147438238Y-81903714D01*
X147533476Y-81951333D01*
X147104904Y-82522761D02*
X147200142Y-82570380D01*
X147438238Y-82570380D01*
X147533476Y-82522761D01*
X147581095Y-82427523D01*
X147581095Y-82332285D01*
X147533476Y-82237047D01*
X147438238Y-82189428D01*
X147200142Y-82189428D01*
X147104904Y-82141809D01*
X146628714Y-82570380D02*
X146628714Y-81570380D01*
X146628714Y-81951333D02*
X146533476Y-81903714D01*
X146343000Y-81903714D01*
X146247761Y-81951333D01*
X146200142Y-81998952D01*
X146152523Y-82094190D01*
X146152523Y-82379904D01*
X146200142Y-82475142D01*
X146247761Y-82522761D01*
X146343000Y-82570380D01*
X146533476Y-82570380D01*
X146628714Y-82522761D01*
X145343000Y-82522761D02*
X145438238Y-82570380D01*
X145628714Y-82570380D01*
X145723952Y-82522761D01*
X145771571Y-82427523D01*
X145771571Y-82046571D01*
X145723952Y-81951333D01*
X145628714Y-81903714D01*
X145438238Y-81903714D01*
X145343000Y-81951333D01*
X145295380Y-82046571D01*
X145295380Y-82141809D01*
X145771571Y-82237047D01*
X144723952Y-82570380D02*
X144819190Y-82522761D01*
X144866809Y-82427523D01*
X144866809Y-81570380D01*
X144343000Y-81903714D02*
X144343000Y-82903714D01*
X144343000Y-81951333D02*
X144247761Y-81903714D01*
X144057285Y-81903714D01*
X143962047Y-81951333D01*
X143914428Y-81998952D01*
X143866809Y-82094190D01*
X143866809Y-82379904D01*
X143914428Y-82475142D01*
X143962047Y-82522761D01*
X144057285Y-82570380D01*
X144247761Y-82570380D01*
X144343000Y-82522761D01*
X143295380Y-82570380D02*
X143390619Y-82522761D01*
X143438238Y-82427523D01*
X143438238Y-81570380D01*
X142485857Y-82570380D02*
X142485857Y-82046571D01*
X142533476Y-81951333D01*
X142628714Y-81903714D01*
X142819190Y-81903714D01*
X142914428Y-81951333D01*
X142485857Y-82522761D02*
X142581095Y-82570380D01*
X142819190Y-82570380D01*
X142914428Y-82522761D01*
X142962047Y-82427523D01*
X142962047Y-82332285D01*
X142914428Y-82237047D01*
X142819190Y-82189428D01*
X142581095Y-82189428D01*
X142485857Y-82141809D01*
X142152523Y-81903714D02*
X141771571Y-81903714D01*
X142009666Y-81570380D02*
X142009666Y-82427523D01*
X141962047Y-82522761D01*
X141866809Y-82570380D01*
X141771571Y-82570380D01*
X141057285Y-82522761D02*
X141152523Y-82570380D01*
X141343000Y-82570380D01*
X141438238Y-82522761D01*
X141485857Y-82427523D01*
X141485857Y-82046571D01*
X141438238Y-81951333D01*
X141343000Y-81903714D01*
X141152523Y-81903714D01*
X141057285Y-81951333D01*
X141009666Y-82046571D01*
X141009666Y-82141809D01*
X141485857Y-82237047D01*
X110057285Y-82475142D02*
X110104904Y-82522761D01*
X110247761Y-82570380D01*
X110343000Y-82570380D01*
X110485857Y-82522761D01*
X110581095Y-82427523D01*
X110628714Y-82332285D01*
X110676333Y-82141809D01*
X110676333Y-81998952D01*
X110628714Y-81808476D01*
X110581095Y-81713238D01*
X110485857Y-81618000D01*
X110343000Y-81570380D01*
X110247761Y-81570380D01*
X110104904Y-81618000D01*
X110057285Y-81665619D01*
X109438238Y-81570380D02*
X109343000Y-81570380D01*
X109247761Y-81618000D01*
X109200142Y-81665619D01*
X109152523Y-81760857D01*
X109104904Y-81951333D01*
X109104904Y-82189428D01*
X109152523Y-82379904D01*
X109200142Y-82475142D01*
X109247761Y-82522761D01*
X109343000Y-82570380D01*
X109438238Y-82570380D01*
X109533476Y-82522761D01*
X109581095Y-82475142D01*
X109628714Y-82379904D01*
X109676333Y-82189428D01*
X109676333Y-81951333D01*
X109628714Y-81760857D01*
X109581095Y-81665619D01*
X109533476Y-81618000D01*
X109438238Y-81570380D01*
X108485857Y-81570380D02*
X108390619Y-81570380D01*
X108295380Y-81618000D01*
X108247761Y-81665619D01*
X108200142Y-81760857D01*
X108152523Y-81951333D01*
X108152523Y-82189428D01*
X108200142Y-82379904D01*
X108247761Y-82475142D01*
X108295380Y-82522761D01*
X108390619Y-82570380D01*
X108485857Y-82570380D01*
X108581095Y-82522761D01*
X108628714Y-82475142D01*
X108676333Y-82379904D01*
X108723952Y-82189428D01*
X108723952Y-81951333D01*
X108676333Y-81760857D01*
X108628714Y-81665619D01*
X108581095Y-81618000D01*
X108485857Y-81570380D01*
X107962047Y-82665619D02*
X107200142Y-82665619D01*
X106962047Y-82570380D02*
X106962047Y-81570380D01*
X106533476Y-82570380D02*
X106533476Y-82046571D01*
X106581095Y-81951333D01*
X106676333Y-81903714D01*
X106819190Y-81903714D01*
X106914428Y-81951333D01*
X106962047Y-81998952D01*
X106057285Y-82570380D02*
X106057285Y-81903714D01*
X106057285Y-81570380D02*
X106104904Y-81618000D01*
X106057285Y-81665619D01*
X106009666Y-81618000D01*
X106057285Y-81570380D01*
X106057285Y-81665619D01*
X105438238Y-82570380D02*
X105533476Y-82522761D01*
X105581095Y-82427523D01*
X105581095Y-81570380D01*
X104914428Y-82570380D02*
X105009666Y-82522761D01*
X105057285Y-82427523D01*
X105057285Y-81570380D01*
X104104904Y-82570380D02*
X104104904Y-82046571D01*
X104152523Y-81951333D01*
X104247761Y-81903714D01*
X104438238Y-81903714D01*
X104533476Y-81951333D01*
X104104904Y-82522761D02*
X104200142Y-82570380D01*
X104438238Y-82570380D01*
X104533476Y-82522761D01*
X104581095Y-82427523D01*
X104581095Y-82332285D01*
X104533476Y-82237047D01*
X104438238Y-82189428D01*
X104200142Y-82189428D01*
X104104904Y-82141809D01*
X103628714Y-82570380D02*
X103628714Y-81570380D01*
X103628714Y-81951333D02*
X103533476Y-81903714D01*
X103343000Y-81903714D01*
X103247761Y-81951333D01*
X103200142Y-81998952D01*
X103152523Y-82094190D01*
X103152523Y-82379904D01*
X103200142Y-82475142D01*
X103247761Y-82522761D01*
X103343000Y-82570380D01*
X103533476Y-82570380D01*
X103628714Y-82522761D01*
X102343000Y-82522761D02*
X102438238Y-82570380D01*
X102628714Y-82570380D01*
X102723952Y-82522761D01*
X102771571Y-82427523D01*
X102771571Y-82046571D01*
X102723952Y-81951333D01*
X102628714Y-81903714D01*
X102438238Y-81903714D01*
X102343000Y-81951333D01*
X102295380Y-82046571D01*
X102295380Y-82141809D01*
X102771571Y-82237047D01*
X101723952Y-82570380D02*
X101819190Y-82522761D01*
X101866809Y-82427523D01*
X101866809Y-81570380D01*
X101343000Y-81903714D02*
X101343000Y-82903714D01*
X101343000Y-81951333D02*
X101247761Y-81903714D01*
X101057285Y-81903714D01*
X100962047Y-81951333D01*
X100914428Y-81998952D01*
X100866809Y-82094190D01*
X100866809Y-82379904D01*
X100914428Y-82475142D01*
X100962047Y-82522761D01*
X101057285Y-82570380D01*
X101247761Y-82570380D01*
X101343000Y-82522761D01*
X100295380Y-82570380D02*
X100390619Y-82522761D01*
X100438238Y-82427523D01*
X100438238Y-81570380D01*
X99485857Y-82570380D02*
X99485857Y-82046571D01*
X99533476Y-81951333D01*
X99628714Y-81903714D01*
X99819190Y-81903714D01*
X99914428Y-81951333D01*
X99485857Y-82522761D02*
X99581095Y-82570380D01*
X99819190Y-82570380D01*
X99914428Y-82522761D01*
X99962047Y-82427523D01*
X99962047Y-82332285D01*
X99914428Y-82237047D01*
X99819190Y-82189428D01*
X99581095Y-82189428D01*
X99485857Y-82141809D01*
X99152523Y-81903714D02*
X98771571Y-81903714D01*
X99009666Y-81570380D02*
X99009666Y-82427523D01*
X98962047Y-82522761D01*
X98866809Y-82570380D01*
X98771571Y-82570380D01*
X98057285Y-82522761D02*
X98152523Y-82570380D01*
X98343000Y-82570380D01*
X98438238Y-82522761D01*
X98485857Y-82427523D01*
X98485857Y-82046571D01*
X98438238Y-81951333D01*
X98343000Y-81903714D01*
X98152523Y-81903714D01*
X98057285Y-81951333D01*
X98009666Y-82046571D01*
X98009666Y-82141809D01*
X98485857Y-82237047D01*
D11*
%TO.C,TP48*%
X156066000Y-170711000D02*
X156066000Y-169311000D01*
X154666000Y-169311000D02*
X154666000Y-170711000D01*
X154666000Y-170711000D02*
X156066000Y-170711000D01*
X156066000Y-169311000D02*
X154666000Y-169311000D01*
%TO.C,TP47*%
X116066000Y-163911000D02*
X114666000Y-163911000D01*
X114666000Y-165311000D02*
X116066000Y-165311000D01*
X114666000Y-163911000D02*
X114666000Y-165311000D01*
X116066000Y-165311000D02*
X116066000Y-163911000D01*
%TO.C,TP46*%
X113066000Y-170711000D02*
X113066000Y-169311000D01*
X111666000Y-169311000D02*
X111666000Y-170711000D01*
X111666000Y-170711000D02*
X113066000Y-170711000D01*
X113066000Y-169311000D02*
X111666000Y-169311000D01*
%TO.C,TP45*%
X73066000Y-163911000D02*
X71666000Y-163911000D01*
X71666000Y-165311000D02*
X73066000Y-165311000D01*
X71666000Y-163911000D02*
X71666000Y-165311000D01*
X73066000Y-165311000D02*
X73066000Y-163911000D01*
%TO.C,TP44*%
X156066000Y-162711000D02*
X156066000Y-161311000D01*
X154666000Y-161311000D02*
X154666000Y-162711000D01*
X154666000Y-162711000D02*
X156066000Y-162711000D01*
X156066000Y-161311000D02*
X154666000Y-161311000D01*
%TO.C,TP43*%
X116066000Y-155911000D02*
X114666000Y-155911000D01*
X114666000Y-157311000D02*
X116066000Y-157311000D01*
X114666000Y-155911000D02*
X114666000Y-157311000D01*
X116066000Y-157311000D02*
X116066000Y-155911000D01*
%TO.C,TP42*%
X113066000Y-162711000D02*
X113066000Y-161311000D01*
X111666000Y-161311000D02*
X111666000Y-162711000D01*
X111666000Y-162711000D02*
X113066000Y-162711000D01*
X113066000Y-161311000D02*
X111666000Y-161311000D01*
%TO.C,TP41*%
X73066000Y-155911000D02*
X71666000Y-155911000D01*
X71666000Y-157311000D02*
X73066000Y-157311000D01*
X71666000Y-155911000D02*
X71666000Y-157311000D01*
X73066000Y-157311000D02*
X73066000Y-155911000D01*
%TO.C,TP40*%
X156066000Y-154711000D02*
X156066000Y-153311000D01*
X154666000Y-153311000D02*
X154666000Y-154711000D01*
X154666000Y-154711000D02*
X156066000Y-154711000D01*
X156066000Y-153311000D02*
X154666000Y-153311000D01*
%TO.C,TP39*%
X116066000Y-147911000D02*
X114666000Y-147911000D01*
X114666000Y-149311000D02*
X116066000Y-149311000D01*
X114666000Y-147911000D02*
X114666000Y-149311000D01*
X116066000Y-149311000D02*
X116066000Y-147911000D01*
%TO.C,TP38*%
X113066000Y-154711000D02*
X113066000Y-153311000D01*
X111666000Y-153311000D02*
X111666000Y-154711000D01*
X111666000Y-154711000D02*
X113066000Y-154711000D01*
X113066000Y-153311000D02*
X111666000Y-153311000D01*
%TO.C,TP37*%
X73066000Y-147911000D02*
X71666000Y-147911000D01*
X71666000Y-149311000D02*
X73066000Y-149311000D01*
X71666000Y-147911000D02*
X71666000Y-149311000D01*
X73066000Y-149311000D02*
X73066000Y-147911000D01*
%TO.C,TP36*%
X156066000Y-146711000D02*
X156066000Y-145311000D01*
X154666000Y-145311000D02*
X154666000Y-146711000D01*
X154666000Y-146711000D02*
X156066000Y-146711000D01*
X156066000Y-145311000D02*
X154666000Y-145311000D01*
%TO.C,TP35*%
X116066000Y-139911000D02*
X114666000Y-139911000D01*
X114666000Y-141311000D02*
X116066000Y-141311000D01*
X114666000Y-139911000D02*
X114666000Y-141311000D01*
X116066000Y-141311000D02*
X116066000Y-139911000D01*
%TO.C,TP34*%
X113066000Y-146711000D02*
X113066000Y-145311000D01*
X111666000Y-145311000D02*
X111666000Y-146711000D01*
X111666000Y-146711000D02*
X113066000Y-146711000D01*
X113066000Y-145311000D02*
X111666000Y-145311000D01*
%TO.C,TP33*%
X73066000Y-139911000D02*
X71666000Y-139911000D01*
X71666000Y-141311000D02*
X73066000Y-141311000D01*
X71666000Y-139911000D02*
X71666000Y-141311000D01*
X73066000Y-141311000D02*
X73066000Y-139911000D01*
%TO.C,TP32*%
X156066000Y-138711000D02*
X156066000Y-137311000D01*
X154666000Y-137311000D02*
X154666000Y-138711000D01*
X154666000Y-138711000D02*
X156066000Y-138711000D01*
X156066000Y-137311000D02*
X154666000Y-137311000D01*
%TO.C,TP31*%
X116066000Y-131911000D02*
X114666000Y-131911000D01*
X114666000Y-133311000D02*
X116066000Y-133311000D01*
X114666000Y-131911000D02*
X114666000Y-133311000D01*
X116066000Y-133311000D02*
X116066000Y-131911000D01*
%TO.C,TP30*%
X113066000Y-138711000D02*
X113066000Y-137311000D01*
X111666000Y-137311000D02*
X111666000Y-138711000D01*
X111666000Y-138711000D02*
X113066000Y-138711000D01*
X113066000Y-137311000D02*
X111666000Y-137311000D01*
%TO.C,TP29*%
X73066000Y-131911000D02*
X71666000Y-131911000D01*
X71666000Y-133311000D02*
X73066000Y-133311000D01*
X71666000Y-131911000D02*
X71666000Y-133311000D01*
X73066000Y-133311000D02*
X73066000Y-131911000D01*
%TO.C,TP28*%
X156066000Y-130711000D02*
X156066000Y-129311000D01*
X154666000Y-129311000D02*
X154666000Y-130711000D01*
X154666000Y-130711000D02*
X156066000Y-130711000D01*
X156066000Y-129311000D02*
X154666000Y-129311000D01*
%TO.C,TP27*%
X116066000Y-123911000D02*
X114666000Y-123911000D01*
X114666000Y-125311000D02*
X116066000Y-125311000D01*
X114666000Y-123911000D02*
X114666000Y-125311000D01*
X116066000Y-125311000D02*
X116066000Y-123911000D01*
%TO.C,TP26*%
X113066000Y-130711000D02*
X113066000Y-129311000D01*
X111666000Y-129311000D02*
X111666000Y-130711000D01*
X111666000Y-130711000D02*
X113066000Y-130711000D01*
X113066000Y-129311000D02*
X111666000Y-129311000D01*
%TO.C,TP25*%
X73066000Y-123911000D02*
X71666000Y-123911000D01*
X71666000Y-125311000D02*
X73066000Y-125311000D01*
X71666000Y-123911000D02*
X71666000Y-125311000D01*
X73066000Y-125311000D02*
X73066000Y-123911000D01*
%TO.C,TP24*%
X156066000Y-122711000D02*
X156066000Y-121311000D01*
X154666000Y-121311000D02*
X154666000Y-122711000D01*
X154666000Y-122711000D02*
X156066000Y-122711000D01*
X156066000Y-121311000D02*
X154666000Y-121311000D01*
%TO.C,TP23*%
X116066000Y-115911000D02*
X114666000Y-115911000D01*
X114666000Y-117311000D02*
X116066000Y-117311000D01*
X114666000Y-115911000D02*
X114666000Y-117311000D01*
X116066000Y-117311000D02*
X116066000Y-115911000D01*
%TO.C,TP22*%
X113066000Y-122711000D02*
X113066000Y-121311000D01*
X111666000Y-121311000D02*
X111666000Y-122711000D01*
X111666000Y-122711000D02*
X113066000Y-122711000D01*
X113066000Y-121311000D02*
X111666000Y-121311000D01*
%TO.C,TP21*%
X73066000Y-115911000D02*
X71666000Y-115911000D01*
X71666000Y-117311000D02*
X73066000Y-117311000D01*
X71666000Y-115911000D02*
X71666000Y-117311000D01*
X73066000Y-117311000D02*
X73066000Y-115911000D01*
%TO.C,TP20*%
X156066000Y-114711000D02*
X156066000Y-113311000D01*
X154666000Y-113311000D02*
X154666000Y-114711000D01*
X154666000Y-114711000D02*
X156066000Y-114711000D01*
X156066000Y-113311000D02*
X154666000Y-113311000D01*
%TO.C,TP19*%
X116066000Y-107911000D02*
X114666000Y-107911000D01*
X114666000Y-109311000D02*
X116066000Y-109311000D01*
X114666000Y-107911000D02*
X114666000Y-109311000D01*
X116066000Y-109311000D02*
X116066000Y-107911000D01*
%TO.C,TP18*%
X113066000Y-114711000D02*
X113066000Y-113311000D01*
X111666000Y-113311000D02*
X111666000Y-114711000D01*
X111666000Y-114711000D02*
X113066000Y-114711000D01*
X113066000Y-113311000D02*
X111666000Y-113311000D01*
%TO.C,TP17*%
X73066000Y-107911000D02*
X71666000Y-107911000D01*
X71666000Y-109311000D02*
X73066000Y-109311000D01*
X71666000Y-107911000D02*
X71666000Y-109311000D01*
X73066000Y-109311000D02*
X73066000Y-107911000D01*
%TO.C,TP16*%
X156066000Y-106711000D02*
X156066000Y-105311000D01*
X154666000Y-105311000D02*
X154666000Y-106711000D01*
X154666000Y-106711000D02*
X156066000Y-106711000D01*
X156066000Y-105311000D02*
X154666000Y-105311000D01*
%TO.C,TP15*%
X116066000Y-99911000D02*
X114666000Y-99911000D01*
X114666000Y-101311000D02*
X116066000Y-101311000D01*
X114666000Y-99911000D02*
X114666000Y-101311000D01*
X116066000Y-101311000D02*
X116066000Y-99911000D01*
%TO.C,TP14*%
X113066000Y-106711000D02*
X113066000Y-105311000D01*
X111666000Y-105311000D02*
X111666000Y-106711000D01*
X111666000Y-106711000D02*
X113066000Y-106711000D01*
X113066000Y-105311000D02*
X111666000Y-105311000D01*
%TO.C,TP13*%
X73066000Y-99911000D02*
X71666000Y-99911000D01*
X71666000Y-101311000D02*
X73066000Y-101311000D01*
X71666000Y-99911000D02*
X71666000Y-101311000D01*
X73066000Y-101311000D02*
X73066000Y-99911000D01*
%TO.C,TP12*%
X156066000Y-98711000D02*
X156066000Y-97311000D01*
X154666000Y-97311000D02*
X154666000Y-98711000D01*
X154666000Y-98711000D02*
X156066000Y-98711000D01*
X156066000Y-97311000D02*
X154666000Y-97311000D01*
%TO.C,TP11*%
X116066000Y-91911000D02*
X114666000Y-91911000D01*
X114666000Y-93311000D02*
X116066000Y-93311000D01*
X114666000Y-91911000D02*
X114666000Y-93311000D01*
X116066000Y-93311000D02*
X116066000Y-91911000D01*
%TO.C,TP10*%
X113066000Y-98711000D02*
X113066000Y-97311000D01*
X111666000Y-97311000D02*
X111666000Y-98711000D01*
X111666000Y-98711000D02*
X113066000Y-98711000D01*
X113066000Y-97311000D02*
X111666000Y-97311000D01*
%TO.C,TP9*%
X73066000Y-91911000D02*
X71666000Y-91911000D01*
X71666000Y-93311000D02*
X73066000Y-93311000D01*
X71666000Y-91911000D02*
X71666000Y-93311000D01*
X73066000Y-93311000D02*
X73066000Y-91911000D01*
%TO.C,TP8*%
X156066000Y-90711000D02*
X156066000Y-89311000D01*
X154666000Y-89311000D02*
X154666000Y-90711000D01*
X154666000Y-90711000D02*
X156066000Y-90711000D01*
X156066000Y-89311000D02*
X154666000Y-89311000D01*
%TO.C,TP7*%
X116066000Y-83911000D02*
X114666000Y-83911000D01*
X114666000Y-85311000D02*
X116066000Y-85311000D01*
X114666000Y-83911000D02*
X114666000Y-85311000D01*
X116066000Y-85311000D02*
X116066000Y-83911000D01*
%TO.C,TP6*%
X113066000Y-90711000D02*
X113066000Y-89311000D01*
X111666000Y-89311000D02*
X111666000Y-90711000D01*
X111666000Y-90711000D02*
X113066000Y-90711000D01*
X113066000Y-89311000D02*
X111666000Y-89311000D01*
%TO.C,TP5*%
X73066000Y-83911000D02*
X71666000Y-83911000D01*
X71666000Y-85311000D02*
X73066000Y-85311000D01*
X71666000Y-83911000D02*
X71666000Y-85311000D01*
X73066000Y-85311000D02*
X73066000Y-83911000D01*
%TO.C,TP4*%
X156066000Y-82711000D02*
X156066000Y-81311000D01*
X154666000Y-81311000D02*
X154666000Y-82711000D01*
X154666000Y-82711000D02*
X156066000Y-82711000D01*
X156066000Y-81311000D02*
X154666000Y-81311000D01*
%TO.C,TP3*%
X116066000Y-75911000D02*
X114666000Y-75911000D01*
X114666000Y-77311000D02*
X116066000Y-77311000D01*
X114666000Y-75911000D02*
X114666000Y-77311000D01*
X116066000Y-77311000D02*
X116066000Y-75911000D01*
%TO.C,TP2*%
X113066000Y-82711000D02*
X113066000Y-81311000D01*
X111666000Y-81311000D02*
X111666000Y-82711000D01*
X111666000Y-82711000D02*
X113066000Y-82711000D01*
X113066000Y-81311000D02*
X111666000Y-81311000D01*
%TO.C,TP1*%
X73066000Y-75911000D02*
X71666000Y-75911000D01*
X71666000Y-77311000D02*
X73066000Y-77311000D01*
X71666000Y-75911000D02*
X71666000Y-77311000D01*
X73066000Y-77311000D02*
X73066000Y-75911000D01*
%TD*%
M02*
