%TF.GenerationSoftware,KiCad,Pcbnew,6.0.11-2627ca5db0~126~ubuntu20.04.1*%
%TF.CreationDate,2024-08-16T09:41:27-05:00*%
%TF.ProjectId,,58585858-5858-4585-9858-585858585858,rev?*%
%TF.SameCoordinates,Original*%
%TF.FileFunction,Copper,L1,Top*%
%TF.FilePolarity,Positive*%
%FSLAX46Y46*%
G04 Gerber Fmt 4.6, Leading zero omitted, Abs format (unit mm)*
G04 Created by KiCad (PCBNEW 6.0.11-2627ca5db0~126~ubuntu20.04.1) date 2024-08-16 09:41:27*
%MOMM*%
%LPD*%
G01*
G04 APERTURE LIST*
%TA.AperFunction,ViaPad*%
%ADD10C,0.800000*%
%TD*%
G04 APERTURE END LIST*
D10*
%TO.N,GND*%
X115366000Y-170011000D03*
X155366000Y-164611000D03*
X72366000Y-170011000D03*
X112366000Y-164611000D03*
X115366000Y-162011000D03*
X155366000Y-156611000D03*
X72366000Y-162011000D03*
X112366000Y-156611000D03*
X115366000Y-154011000D03*
X155366000Y-148611000D03*
X72366000Y-154011000D03*
X112366000Y-148611000D03*
X115366000Y-146011000D03*
X155366000Y-140611000D03*
X72366000Y-146011000D03*
X112366000Y-140611000D03*
X115366000Y-138011000D03*
X155366000Y-132611000D03*
X72366000Y-138011000D03*
X112366000Y-132611000D03*
X115366000Y-130011000D03*
X155366000Y-124611000D03*
X72366000Y-130011000D03*
X112366000Y-124611000D03*
X115366000Y-122011000D03*
X155366000Y-116611000D03*
X72366000Y-122011000D03*
X112366000Y-116611000D03*
X115366000Y-114011000D03*
X155366000Y-108611000D03*
X72366000Y-114011000D03*
X112366000Y-108611000D03*
X115366000Y-106011000D03*
X155366000Y-100611000D03*
X72366000Y-106011000D03*
X112366000Y-100611000D03*
X115366000Y-98011000D03*
X155366000Y-92611000D03*
X72366000Y-98011000D03*
X112366000Y-92611000D03*
X115366000Y-90011000D03*
X155366000Y-84611000D03*
X72366000Y-90011000D03*
X112366000Y-84611000D03*
X115366000Y-82011000D03*
X155366000Y-76611000D03*
X112366000Y-76611000D03*
X72366000Y-82011000D03*
%TD*%
%TA.AperFunction,Conductor*%
%TO.N,GND*%
G36*
X113299621Y-75839502D02*
G01*
X113346114Y-75893158D01*
X113357500Y-75945500D01*
X113357500Y-78576842D01*
X113337498Y-78644963D01*
X113283842Y-78691456D01*
X113213568Y-78701560D01*
X113148988Y-78672066D01*
X113133304Y-78655795D01*
X113093892Y-78606776D01*
X113090032Y-78601975D01*
X113083727Y-78596684D01*
X113060080Y-78576842D01*
X112938526Y-78474846D01*
X112933128Y-78471879D01*
X112933123Y-78471875D01*
X112770608Y-78382533D01*
X112770609Y-78382533D01*
X112765213Y-78379567D01*
X112759346Y-78377706D01*
X112759344Y-78377705D01*
X112582564Y-78321627D01*
X112582563Y-78321627D01*
X112576694Y-78319765D01*
X112422773Y-78302500D01*
X112316231Y-78302500D01*
X112313175Y-78302800D01*
X112313168Y-78302800D01*
X112254660Y-78308537D01*
X112169167Y-78316920D01*
X112163266Y-78318702D01*
X112163264Y-78318702D01*
X112089947Y-78340838D01*
X111979831Y-78374084D01*
X111805204Y-78466934D01*
X111718938Y-78537291D01*
X111656713Y-78588040D01*
X111656710Y-78588043D01*
X111651938Y-78591935D01*
X111648011Y-78596682D01*
X111648009Y-78596684D01*
X111529799Y-78739575D01*
X111529797Y-78739579D01*
X111525870Y-78744325D01*
X111431802Y-78918299D01*
X111373318Y-79107232D01*
X111352645Y-79303925D01*
X111370570Y-79500888D01*
X111372308Y-79506794D01*
X111372309Y-79506798D01*
X111376387Y-79520653D01*
X111426410Y-79690619D01*
X111429263Y-79696077D01*
X111429265Y-79696081D01*
X111476720Y-79786853D01*
X111518040Y-79865890D01*
X111641968Y-80020025D01*
X111646692Y-80023989D01*
X111653933Y-80030065D01*
X111793474Y-80147154D01*
X111798872Y-80150121D01*
X111798877Y-80150125D01*
X111942180Y-80228905D01*
X111966787Y-80242433D01*
X111972654Y-80244294D01*
X111972656Y-80244295D01*
X112149436Y-80300373D01*
X112155306Y-80302235D01*
X112309227Y-80319500D01*
X112415769Y-80319500D01*
X112418825Y-80319200D01*
X112418832Y-80319200D01*
X112477340Y-80313463D01*
X112562833Y-80305080D01*
X112568734Y-80303298D01*
X112568736Y-80303298D01*
X112642053Y-80281162D01*
X112752169Y-80247916D01*
X112926796Y-80155066D01*
X113013062Y-80084709D01*
X113075287Y-80033960D01*
X113075290Y-80033957D01*
X113080062Y-80030065D01*
X113132892Y-79966205D01*
X113134416Y-79964363D01*
X113193249Y-79924625D01*
X113264227Y-79923004D01*
X113324815Y-79960013D01*
X113355775Y-80023903D01*
X113357500Y-80044679D01*
X113357500Y-82676500D01*
X113337498Y-82744621D01*
X113283842Y-82791114D01*
X113231500Y-82802500D01*
X71500500Y-82802500D01*
X71432379Y-82782498D01*
X71385886Y-82728842D01*
X71374500Y-82676500D01*
X71374500Y-80045158D01*
X71394502Y-79977037D01*
X71448158Y-79930544D01*
X71518432Y-79920440D01*
X71583012Y-79949934D01*
X71598693Y-79966202D01*
X71641968Y-80020025D01*
X71646692Y-80023989D01*
X71653933Y-80030065D01*
X71793474Y-80147154D01*
X71798872Y-80150121D01*
X71798877Y-80150125D01*
X71942180Y-80228905D01*
X71966787Y-80242433D01*
X71972654Y-80244294D01*
X71972656Y-80244295D01*
X72149436Y-80300373D01*
X72155306Y-80302235D01*
X72309227Y-80319500D01*
X72415769Y-80319500D01*
X72418825Y-80319200D01*
X72418832Y-80319200D01*
X72477340Y-80313463D01*
X72562833Y-80305080D01*
X72568734Y-80303298D01*
X72568736Y-80303298D01*
X72642053Y-80281162D01*
X72752169Y-80247916D01*
X72926796Y-80155066D01*
X73013062Y-80084709D01*
X73075287Y-80033960D01*
X73075290Y-80033957D01*
X73080062Y-80030065D01*
X73132892Y-79966205D01*
X73202201Y-79882425D01*
X73202203Y-79882421D01*
X73206130Y-79877675D01*
X73300198Y-79703701D01*
X73358682Y-79514768D01*
X73379355Y-79318075D01*
X73361430Y-79121112D01*
X73356222Y-79103414D01*
X73307330Y-78937294D01*
X73305590Y-78931381D01*
X73295919Y-78912881D01*
X73216813Y-78761568D01*
X73213960Y-78756110D01*
X73090032Y-78601975D01*
X73083727Y-78596684D01*
X73060080Y-78576842D01*
X72938526Y-78474846D01*
X72933128Y-78471879D01*
X72933123Y-78471875D01*
X72770608Y-78382533D01*
X72770609Y-78382533D01*
X72765213Y-78379567D01*
X72759346Y-78377706D01*
X72759344Y-78377705D01*
X72582564Y-78321627D01*
X72582563Y-78321627D01*
X72576694Y-78319765D01*
X72422773Y-78302500D01*
X72316231Y-78302500D01*
X72313175Y-78302800D01*
X72313168Y-78302800D01*
X72254660Y-78308537D01*
X72169167Y-78316920D01*
X72163266Y-78318702D01*
X72163264Y-78318702D01*
X72089947Y-78340838D01*
X71979831Y-78374084D01*
X71805204Y-78466934D01*
X71718938Y-78537291D01*
X71656713Y-78588040D01*
X71656710Y-78588043D01*
X71651938Y-78591935D01*
X71648011Y-78596682D01*
X71648008Y-78596685D01*
X71597584Y-78657637D01*
X71538751Y-78697375D01*
X71467773Y-78698996D01*
X71407185Y-78661987D01*
X71376225Y-78598097D01*
X71374500Y-78577321D01*
X71374500Y-75945500D01*
X71394502Y-75877379D01*
X71448158Y-75830886D01*
X71500500Y-75819500D01*
X113231500Y-75819500D01*
X113299621Y-75839502D01*
G37*
%TD.AperFunction*%
%TD*%
%TA.AperFunction,Conductor*%
%TO.N,GND*%
G36*
X156299621Y-75839502D02*
G01*
X156346114Y-75893158D01*
X156357500Y-75945500D01*
X156357500Y-78576842D01*
X156337498Y-78644963D01*
X156283842Y-78691456D01*
X156213568Y-78701560D01*
X156148988Y-78672066D01*
X156133304Y-78655795D01*
X156093892Y-78606776D01*
X156090032Y-78601975D01*
X156083727Y-78596684D01*
X156060080Y-78576842D01*
X155938526Y-78474846D01*
X155933128Y-78471879D01*
X155933123Y-78471875D01*
X155770608Y-78382533D01*
X155770609Y-78382533D01*
X155765213Y-78379567D01*
X155759346Y-78377706D01*
X155759344Y-78377705D01*
X155582564Y-78321627D01*
X155582563Y-78321627D01*
X155576694Y-78319765D01*
X155422773Y-78302500D01*
X155316231Y-78302500D01*
X155313175Y-78302800D01*
X155313168Y-78302800D01*
X155254660Y-78308537D01*
X155169167Y-78316920D01*
X155163266Y-78318702D01*
X155163264Y-78318702D01*
X155089947Y-78340838D01*
X154979831Y-78374084D01*
X154805204Y-78466934D01*
X154718938Y-78537291D01*
X154656713Y-78588040D01*
X154656710Y-78588043D01*
X154651938Y-78591935D01*
X154648011Y-78596682D01*
X154648009Y-78596684D01*
X154529799Y-78739575D01*
X154529797Y-78739579D01*
X154525870Y-78744325D01*
X154431802Y-78918299D01*
X154373318Y-79107232D01*
X154352645Y-79303925D01*
X154370570Y-79500888D01*
X154372308Y-79506794D01*
X154372309Y-79506798D01*
X154376387Y-79520653D01*
X154426410Y-79690619D01*
X154429263Y-79696077D01*
X154429265Y-79696081D01*
X154476720Y-79786853D01*
X154518040Y-79865890D01*
X154641968Y-80020025D01*
X154646692Y-80023989D01*
X154653933Y-80030065D01*
X154793474Y-80147154D01*
X154798872Y-80150121D01*
X154798877Y-80150125D01*
X154942180Y-80228905D01*
X154966787Y-80242433D01*
X154972654Y-80244294D01*
X154972656Y-80244295D01*
X155149436Y-80300373D01*
X155155306Y-80302235D01*
X155309227Y-80319500D01*
X155415769Y-80319500D01*
X155418825Y-80319200D01*
X155418832Y-80319200D01*
X155477340Y-80313463D01*
X155562833Y-80305080D01*
X155568734Y-80303298D01*
X155568736Y-80303298D01*
X155642053Y-80281162D01*
X155752169Y-80247916D01*
X155926796Y-80155066D01*
X156013062Y-80084709D01*
X156075287Y-80033960D01*
X156075290Y-80033957D01*
X156080062Y-80030065D01*
X156132892Y-79966205D01*
X156134416Y-79964363D01*
X156193249Y-79924625D01*
X156264227Y-79923004D01*
X156324815Y-79960013D01*
X156355775Y-80023903D01*
X156357500Y-80044679D01*
X156357500Y-82676500D01*
X156337498Y-82744621D01*
X156283842Y-82791114D01*
X156231500Y-82802500D01*
X114500500Y-82802500D01*
X114432379Y-82782498D01*
X114385886Y-82728842D01*
X114374500Y-82676500D01*
X114374500Y-80045158D01*
X114394502Y-79977037D01*
X114448158Y-79930544D01*
X114518432Y-79920440D01*
X114583012Y-79949934D01*
X114598693Y-79966202D01*
X114641968Y-80020025D01*
X114646692Y-80023989D01*
X114653933Y-80030065D01*
X114793474Y-80147154D01*
X114798872Y-80150121D01*
X114798877Y-80150125D01*
X114942180Y-80228905D01*
X114966787Y-80242433D01*
X114972654Y-80244294D01*
X114972656Y-80244295D01*
X115149436Y-80300373D01*
X115155306Y-80302235D01*
X115309227Y-80319500D01*
X115415769Y-80319500D01*
X115418825Y-80319200D01*
X115418832Y-80319200D01*
X115477340Y-80313463D01*
X115562833Y-80305080D01*
X115568734Y-80303298D01*
X115568736Y-80303298D01*
X115642053Y-80281162D01*
X115752169Y-80247916D01*
X115926796Y-80155066D01*
X116013062Y-80084709D01*
X116075287Y-80033960D01*
X116075290Y-80033957D01*
X116080062Y-80030065D01*
X116132892Y-79966205D01*
X116202201Y-79882425D01*
X116202203Y-79882421D01*
X116206130Y-79877675D01*
X116300198Y-79703701D01*
X116358682Y-79514768D01*
X116379355Y-79318075D01*
X116361430Y-79121112D01*
X116356222Y-79103414D01*
X116307330Y-78937294D01*
X116305590Y-78931381D01*
X116295919Y-78912881D01*
X116216813Y-78761568D01*
X116213960Y-78756110D01*
X116090032Y-78601975D01*
X116083727Y-78596684D01*
X116060080Y-78576842D01*
X115938526Y-78474846D01*
X115933128Y-78471879D01*
X115933123Y-78471875D01*
X115770608Y-78382533D01*
X115770609Y-78382533D01*
X115765213Y-78379567D01*
X115759346Y-78377706D01*
X115759344Y-78377705D01*
X115582564Y-78321627D01*
X115582563Y-78321627D01*
X115576694Y-78319765D01*
X115422773Y-78302500D01*
X115316231Y-78302500D01*
X115313175Y-78302800D01*
X115313168Y-78302800D01*
X115254660Y-78308537D01*
X115169167Y-78316920D01*
X115163266Y-78318702D01*
X115163264Y-78318702D01*
X115089947Y-78340838D01*
X114979831Y-78374084D01*
X114805204Y-78466934D01*
X114718938Y-78537291D01*
X114656713Y-78588040D01*
X114656710Y-78588043D01*
X114651938Y-78591935D01*
X114648011Y-78596682D01*
X114648008Y-78596685D01*
X114597584Y-78657637D01*
X114538751Y-78697375D01*
X114467773Y-78698996D01*
X114407185Y-78661987D01*
X114376225Y-78598097D01*
X114374500Y-78577321D01*
X114374500Y-75945500D01*
X114394502Y-75877379D01*
X114448158Y-75830886D01*
X114500500Y-75819500D01*
X156231500Y-75819500D01*
X156299621Y-75839502D01*
G37*
%TD.AperFunction*%
%TD*%
%TA.AperFunction,Conductor*%
%TO.N,GND*%
G36*
X113299621Y-83839502D02*
G01*
X113346114Y-83893158D01*
X113357500Y-83945500D01*
X113357500Y-86576842D01*
X113337498Y-86644963D01*
X113283842Y-86691456D01*
X113213568Y-86701560D01*
X113148988Y-86672066D01*
X113133304Y-86655795D01*
X113093892Y-86606776D01*
X113090032Y-86601975D01*
X113083727Y-86596684D01*
X113060080Y-86576842D01*
X112938526Y-86474846D01*
X112933128Y-86471879D01*
X112933123Y-86471875D01*
X112770608Y-86382533D01*
X112770609Y-86382533D01*
X112765213Y-86379567D01*
X112759346Y-86377706D01*
X112759344Y-86377705D01*
X112582564Y-86321627D01*
X112582563Y-86321627D01*
X112576694Y-86319765D01*
X112422773Y-86302500D01*
X112316231Y-86302500D01*
X112313175Y-86302800D01*
X112313168Y-86302800D01*
X112254660Y-86308537D01*
X112169167Y-86316920D01*
X112163266Y-86318702D01*
X112163264Y-86318702D01*
X112089947Y-86340838D01*
X111979831Y-86374084D01*
X111805204Y-86466934D01*
X111718938Y-86537291D01*
X111656713Y-86588040D01*
X111656710Y-86588043D01*
X111651938Y-86591935D01*
X111648011Y-86596682D01*
X111648009Y-86596684D01*
X111529799Y-86739575D01*
X111529797Y-86739579D01*
X111525870Y-86744325D01*
X111431802Y-86918299D01*
X111373318Y-87107232D01*
X111352645Y-87303925D01*
X111370570Y-87500888D01*
X111372308Y-87506794D01*
X111372309Y-87506798D01*
X111376387Y-87520653D01*
X111426410Y-87690619D01*
X111429263Y-87696077D01*
X111429265Y-87696081D01*
X111476720Y-87786853D01*
X111518040Y-87865890D01*
X111641968Y-88020025D01*
X111646692Y-88023989D01*
X111653933Y-88030065D01*
X111793474Y-88147154D01*
X111798872Y-88150121D01*
X111798877Y-88150125D01*
X111942180Y-88228905D01*
X111966787Y-88242433D01*
X111972654Y-88244294D01*
X111972656Y-88244295D01*
X112149436Y-88300373D01*
X112155306Y-88302235D01*
X112309227Y-88319500D01*
X112415769Y-88319500D01*
X112418825Y-88319200D01*
X112418832Y-88319200D01*
X112477340Y-88313463D01*
X112562833Y-88305080D01*
X112568734Y-88303298D01*
X112568736Y-88303298D01*
X112642053Y-88281162D01*
X112752169Y-88247916D01*
X112926796Y-88155066D01*
X113013062Y-88084709D01*
X113075287Y-88033960D01*
X113075290Y-88033957D01*
X113080062Y-88030065D01*
X113132892Y-87966205D01*
X113134416Y-87964363D01*
X113193249Y-87924625D01*
X113264227Y-87923004D01*
X113324815Y-87960013D01*
X113355775Y-88023903D01*
X113357500Y-88044679D01*
X113357500Y-90676500D01*
X113337498Y-90744621D01*
X113283842Y-90791114D01*
X113231500Y-90802500D01*
X71500500Y-90802500D01*
X71432379Y-90782498D01*
X71385886Y-90728842D01*
X71374500Y-90676500D01*
X71374500Y-88045158D01*
X71394502Y-87977037D01*
X71448158Y-87930544D01*
X71518432Y-87920440D01*
X71583012Y-87949934D01*
X71598693Y-87966202D01*
X71641968Y-88020025D01*
X71646692Y-88023989D01*
X71653933Y-88030065D01*
X71793474Y-88147154D01*
X71798872Y-88150121D01*
X71798877Y-88150125D01*
X71942180Y-88228905D01*
X71966787Y-88242433D01*
X71972654Y-88244294D01*
X71972656Y-88244295D01*
X72149436Y-88300373D01*
X72155306Y-88302235D01*
X72309227Y-88319500D01*
X72415769Y-88319500D01*
X72418825Y-88319200D01*
X72418832Y-88319200D01*
X72477340Y-88313463D01*
X72562833Y-88305080D01*
X72568734Y-88303298D01*
X72568736Y-88303298D01*
X72642053Y-88281162D01*
X72752169Y-88247916D01*
X72926796Y-88155066D01*
X73013062Y-88084709D01*
X73075287Y-88033960D01*
X73075290Y-88033957D01*
X73080062Y-88030065D01*
X73132892Y-87966205D01*
X73202201Y-87882425D01*
X73202203Y-87882421D01*
X73206130Y-87877675D01*
X73300198Y-87703701D01*
X73358682Y-87514768D01*
X73379355Y-87318075D01*
X73361430Y-87121112D01*
X73356222Y-87103414D01*
X73307330Y-86937294D01*
X73305590Y-86931381D01*
X73295919Y-86912881D01*
X73216813Y-86761568D01*
X73213960Y-86756110D01*
X73090032Y-86601975D01*
X73083727Y-86596684D01*
X73060080Y-86576842D01*
X72938526Y-86474846D01*
X72933128Y-86471879D01*
X72933123Y-86471875D01*
X72770608Y-86382533D01*
X72770609Y-86382533D01*
X72765213Y-86379567D01*
X72759346Y-86377706D01*
X72759344Y-86377705D01*
X72582564Y-86321627D01*
X72582563Y-86321627D01*
X72576694Y-86319765D01*
X72422773Y-86302500D01*
X72316231Y-86302500D01*
X72313175Y-86302800D01*
X72313168Y-86302800D01*
X72254660Y-86308537D01*
X72169167Y-86316920D01*
X72163266Y-86318702D01*
X72163264Y-86318702D01*
X72089947Y-86340838D01*
X71979831Y-86374084D01*
X71805204Y-86466934D01*
X71718938Y-86537291D01*
X71656713Y-86588040D01*
X71656710Y-86588043D01*
X71651938Y-86591935D01*
X71648011Y-86596682D01*
X71648008Y-86596685D01*
X71597584Y-86657637D01*
X71538751Y-86697375D01*
X71467773Y-86698996D01*
X71407185Y-86661987D01*
X71376225Y-86598097D01*
X71374500Y-86577321D01*
X71374500Y-83945500D01*
X71394502Y-83877379D01*
X71448158Y-83830886D01*
X71500500Y-83819500D01*
X113231500Y-83819500D01*
X113299621Y-83839502D01*
G37*
%TD.AperFunction*%
%TD*%
%TA.AperFunction,Conductor*%
%TO.N,GND*%
G36*
X156299621Y-83839502D02*
G01*
X156346114Y-83893158D01*
X156357500Y-83945500D01*
X156357500Y-86576842D01*
X156337498Y-86644963D01*
X156283842Y-86691456D01*
X156213568Y-86701560D01*
X156148988Y-86672066D01*
X156133304Y-86655795D01*
X156093892Y-86606776D01*
X156090032Y-86601975D01*
X156083727Y-86596684D01*
X156060080Y-86576842D01*
X155938526Y-86474846D01*
X155933128Y-86471879D01*
X155933123Y-86471875D01*
X155770608Y-86382533D01*
X155770609Y-86382533D01*
X155765213Y-86379567D01*
X155759346Y-86377706D01*
X155759344Y-86377705D01*
X155582564Y-86321627D01*
X155582563Y-86321627D01*
X155576694Y-86319765D01*
X155422773Y-86302500D01*
X155316231Y-86302500D01*
X155313175Y-86302800D01*
X155313168Y-86302800D01*
X155254660Y-86308537D01*
X155169167Y-86316920D01*
X155163266Y-86318702D01*
X155163264Y-86318702D01*
X155089947Y-86340838D01*
X154979831Y-86374084D01*
X154805204Y-86466934D01*
X154718938Y-86537291D01*
X154656713Y-86588040D01*
X154656710Y-86588043D01*
X154651938Y-86591935D01*
X154648011Y-86596682D01*
X154648009Y-86596684D01*
X154529799Y-86739575D01*
X154529797Y-86739579D01*
X154525870Y-86744325D01*
X154431802Y-86918299D01*
X154373318Y-87107232D01*
X154352645Y-87303925D01*
X154370570Y-87500888D01*
X154372308Y-87506794D01*
X154372309Y-87506798D01*
X154376387Y-87520653D01*
X154426410Y-87690619D01*
X154429263Y-87696077D01*
X154429265Y-87696081D01*
X154476720Y-87786853D01*
X154518040Y-87865890D01*
X154641968Y-88020025D01*
X154646692Y-88023989D01*
X154653933Y-88030065D01*
X154793474Y-88147154D01*
X154798872Y-88150121D01*
X154798877Y-88150125D01*
X154942180Y-88228905D01*
X154966787Y-88242433D01*
X154972654Y-88244294D01*
X154972656Y-88244295D01*
X155149436Y-88300373D01*
X155155306Y-88302235D01*
X155309227Y-88319500D01*
X155415769Y-88319500D01*
X155418825Y-88319200D01*
X155418832Y-88319200D01*
X155477340Y-88313463D01*
X155562833Y-88305080D01*
X155568734Y-88303298D01*
X155568736Y-88303298D01*
X155642053Y-88281162D01*
X155752169Y-88247916D01*
X155926796Y-88155066D01*
X156013062Y-88084709D01*
X156075287Y-88033960D01*
X156075290Y-88033957D01*
X156080062Y-88030065D01*
X156132892Y-87966205D01*
X156134416Y-87964363D01*
X156193249Y-87924625D01*
X156264227Y-87923004D01*
X156324815Y-87960013D01*
X156355775Y-88023903D01*
X156357500Y-88044679D01*
X156357500Y-90676500D01*
X156337498Y-90744621D01*
X156283842Y-90791114D01*
X156231500Y-90802500D01*
X114500500Y-90802500D01*
X114432379Y-90782498D01*
X114385886Y-90728842D01*
X114374500Y-90676500D01*
X114374500Y-88045158D01*
X114394502Y-87977037D01*
X114448158Y-87930544D01*
X114518432Y-87920440D01*
X114583012Y-87949934D01*
X114598693Y-87966202D01*
X114641968Y-88020025D01*
X114646692Y-88023989D01*
X114653933Y-88030065D01*
X114793474Y-88147154D01*
X114798872Y-88150121D01*
X114798877Y-88150125D01*
X114942180Y-88228905D01*
X114966787Y-88242433D01*
X114972654Y-88244294D01*
X114972656Y-88244295D01*
X115149436Y-88300373D01*
X115155306Y-88302235D01*
X115309227Y-88319500D01*
X115415769Y-88319500D01*
X115418825Y-88319200D01*
X115418832Y-88319200D01*
X115477340Y-88313463D01*
X115562833Y-88305080D01*
X115568734Y-88303298D01*
X115568736Y-88303298D01*
X115642053Y-88281162D01*
X115752169Y-88247916D01*
X115926796Y-88155066D01*
X116013062Y-88084709D01*
X116075287Y-88033960D01*
X116075290Y-88033957D01*
X116080062Y-88030065D01*
X116132892Y-87966205D01*
X116202201Y-87882425D01*
X116202203Y-87882421D01*
X116206130Y-87877675D01*
X116300198Y-87703701D01*
X116358682Y-87514768D01*
X116379355Y-87318075D01*
X116361430Y-87121112D01*
X116356222Y-87103414D01*
X116307330Y-86937294D01*
X116305590Y-86931381D01*
X116295919Y-86912881D01*
X116216813Y-86761568D01*
X116213960Y-86756110D01*
X116090032Y-86601975D01*
X116083727Y-86596684D01*
X116060080Y-86576842D01*
X115938526Y-86474846D01*
X115933128Y-86471879D01*
X115933123Y-86471875D01*
X115770608Y-86382533D01*
X115770609Y-86382533D01*
X115765213Y-86379567D01*
X115759346Y-86377706D01*
X115759344Y-86377705D01*
X115582564Y-86321627D01*
X115582563Y-86321627D01*
X115576694Y-86319765D01*
X115422773Y-86302500D01*
X115316231Y-86302500D01*
X115313175Y-86302800D01*
X115313168Y-86302800D01*
X115254660Y-86308537D01*
X115169167Y-86316920D01*
X115163266Y-86318702D01*
X115163264Y-86318702D01*
X115089947Y-86340838D01*
X114979831Y-86374084D01*
X114805204Y-86466934D01*
X114718938Y-86537291D01*
X114656713Y-86588040D01*
X114656710Y-86588043D01*
X114651938Y-86591935D01*
X114648011Y-86596682D01*
X114648008Y-86596685D01*
X114597584Y-86657637D01*
X114538751Y-86697375D01*
X114467773Y-86698996D01*
X114407185Y-86661987D01*
X114376225Y-86598097D01*
X114374500Y-86577321D01*
X114374500Y-83945500D01*
X114394502Y-83877379D01*
X114448158Y-83830886D01*
X114500500Y-83819500D01*
X156231500Y-83819500D01*
X156299621Y-83839502D01*
G37*
%TD.AperFunction*%
%TD*%
%TA.AperFunction,Conductor*%
%TO.N,GND*%
G36*
X113299621Y-91839502D02*
G01*
X113346114Y-91893158D01*
X113357500Y-91945500D01*
X113357500Y-94576842D01*
X113337498Y-94644963D01*
X113283842Y-94691456D01*
X113213568Y-94701560D01*
X113148988Y-94672066D01*
X113133304Y-94655795D01*
X113093892Y-94606776D01*
X113090032Y-94601975D01*
X113083727Y-94596684D01*
X113060080Y-94576842D01*
X112938526Y-94474846D01*
X112933128Y-94471879D01*
X112933123Y-94471875D01*
X112770608Y-94382533D01*
X112770609Y-94382533D01*
X112765213Y-94379567D01*
X112759346Y-94377706D01*
X112759344Y-94377705D01*
X112582564Y-94321627D01*
X112582563Y-94321627D01*
X112576694Y-94319765D01*
X112422773Y-94302500D01*
X112316231Y-94302500D01*
X112313175Y-94302800D01*
X112313168Y-94302800D01*
X112254660Y-94308537D01*
X112169167Y-94316920D01*
X112163266Y-94318702D01*
X112163264Y-94318702D01*
X112089947Y-94340838D01*
X111979831Y-94374084D01*
X111805204Y-94466934D01*
X111718938Y-94537291D01*
X111656713Y-94588040D01*
X111656710Y-94588043D01*
X111651938Y-94591935D01*
X111648011Y-94596682D01*
X111648009Y-94596684D01*
X111529799Y-94739575D01*
X111529797Y-94739579D01*
X111525870Y-94744325D01*
X111431802Y-94918299D01*
X111373318Y-95107232D01*
X111352645Y-95303925D01*
X111370570Y-95500888D01*
X111372308Y-95506794D01*
X111372309Y-95506798D01*
X111376387Y-95520653D01*
X111426410Y-95690619D01*
X111429263Y-95696077D01*
X111429265Y-95696081D01*
X111476720Y-95786853D01*
X111518040Y-95865890D01*
X111641968Y-96020025D01*
X111646692Y-96023989D01*
X111653933Y-96030065D01*
X111793474Y-96147154D01*
X111798872Y-96150121D01*
X111798877Y-96150125D01*
X111942180Y-96228905D01*
X111966787Y-96242433D01*
X111972654Y-96244294D01*
X111972656Y-96244295D01*
X112149436Y-96300373D01*
X112155306Y-96302235D01*
X112309227Y-96319500D01*
X112415769Y-96319500D01*
X112418825Y-96319200D01*
X112418832Y-96319200D01*
X112477340Y-96313463D01*
X112562833Y-96305080D01*
X112568734Y-96303298D01*
X112568736Y-96303298D01*
X112642053Y-96281162D01*
X112752169Y-96247916D01*
X112926796Y-96155066D01*
X113013062Y-96084709D01*
X113075287Y-96033960D01*
X113075290Y-96033957D01*
X113080062Y-96030065D01*
X113132892Y-95966205D01*
X113134416Y-95964363D01*
X113193249Y-95924625D01*
X113264227Y-95923004D01*
X113324815Y-95960013D01*
X113355775Y-96023903D01*
X113357500Y-96044679D01*
X113357500Y-98676500D01*
X113337498Y-98744621D01*
X113283842Y-98791114D01*
X113231500Y-98802500D01*
X71500500Y-98802500D01*
X71432379Y-98782498D01*
X71385886Y-98728842D01*
X71374500Y-98676500D01*
X71374500Y-96045158D01*
X71394502Y-95977037D01*
X71448158Y-95930544D01*
X71518432Y-95920440D01*
X71583012Y-95949934D01*
X71598693Y-95966202D01*
X71641968Y-96020025D01*
X71646692Y-96023989D01*
X71653933Y-96030065D01*
X71793474Y-96147154D01*
X71798872Y-96150121D01*
X71798877Y-96150125D01*
X71942180Y-96228905D01*
X71966787Y-96242433D01*
X71972654Y-96244294D01*
X71972656Y-96244295D01*
X72149436Y-96300373D01*
X72155306Y-96302235D01*
X72309227Y-96319500D01*
X72415769Y-96319500D01*
X72418825Y-96319200D01*
X72418832Y-96319200D01*
X72477340Y-96313463D01*
X72562833Y-96305080D01*
X72568734Y-96303298D01*
X72568736Y-96303298D01*
X72642053Y-96281162D01*
X72752169Y-96247916D01*
X72926796Y-96155066D01*
X73013062Y-96084709D01*
X73075287Y-96033960D01*
X73075290Y-96033957D01*
X73080062Y-96030065D01*
X73132892Y-95966205D01*
X73202201Y-95882425D01*
X73202203Y-95882421D01*
X73206130Y-95877675D01*
X73300198Y-95703701D01*
X73358682Y-95514768D01*
X73379355Y-95318075D01*
X73361430Y-95121112D01*
X73356222Y-95103414D01*
X73307330Y-94937294D01*
X73305590Y-94931381D01*
X73295919Y-94912881D01*
X73216813Y-94761568D01*
X73213960Y-94756110D01*
X73090032Y-94601975D01*
X73083727Y-94596684D01*
X73060080Y-94576842D01*
X72938526Y-94474846D01*
X72933128Y-94471879D01*
X72933123Y-94471875D01*
X72770608Y-94382533D01*
X72770609Y-94382533D01*
X72765213Y-94379567D01*
X72759346Y-94377706D01*
X72759344Y-94377705D01*
X72582564Y-94321627D01*
X72582563Y-94321627D01*
X72576694Y-94319765D01*
X72422773Y-94302500D01*
X72316231Y-94302500D01*
X72313175Y-94302800D01*
X72313168Y-94302800D01*
X72254660Y-94308537D01*
X72169167Y-94316920D01*
X72163266Y-94318702D01*
X72163264Y-94318702D01*
X72089947Y-94340838D01*
X71979831Y-94374084D01*
X71805204Y-94466934D01*
X71718938Y-94537291D01*
X71656713Y-94588040D01*
X71656710Y-94588043D01*
X71651938Y-94591935D01*
X71648011Y-94596682D01*
X71648008Y-94596685D01*
X71597584Y-94657637D01*
X71538751Y-94697375D01*
X71467773Y-94698996D01*
X71407185Y-94661987D01*
X71376225Y-94598097D01*
X71374500Y-94577321D01*
X71374500Y-91945500D01*
X71394502Y-91877379D01*
X71448158Y-91830886D01*
X71500500Y-91819500D01*
X113231500Y-91819500D01*
X113299621Y-91839502D01*
G37*
%TD.AperFunction*%
%TD*%
%TA.AperFunction,Conductor*%
%TO.N,GND*%
G36*
X156299621Y-91839502D02*
G01*
X156346114Y-91893158D01*
X156357500Y-91945500D01*
X156357500Y-94576842D01*
X156337498Y-94644963D01*
X156283842Y-94691456D01*
X156213568Y-94701560D01*
X156148988Y-94672066D01*
X156133304Y-94655795D01*
X156093892Y-94606776D01*
X156090032Y-94601975D01*
X156083727Y-94596684D01*
X156060080Y-94576842D01*
X155938526Y-94474846D01*
X155933128Y-94471879D01*
X155933123Y-94471875D01*
X155770608Y-94382533D01*
X155770609Y-94382533D01*
X155765213Y-94379567D01*
X155759346Y-94377706D01*
X155759344Y-94377705D01*
X155582564Y-94321627D01*
X155582563Y-94321627D01*
X155576694Y-94319765D01*
X155422773Y-94302500D01*
X155316231Y-94302500D01*
X155313175Y-94302800D01*
X155313168Y-94302800D01*
X155254660Y-94308537D01*
X155169167Y-94316920D01*
X155163266Y-94318702D01*
X155163264Y-94318702D01*
X155089947Y-94340838D01*
X154979831Y-94374084D01*
X154805204Y-94466934D01*
X154718938Y-94537291D01*
X154656713Y-94588040D01*
X154656710Y-94588043D01*
X154651938Y-94591935D01*
X154648011Y-94596682D01*
X154648009Y-94596684D01*
X154529799Y-94739575D01*
X154529797Y-94739579D01*
X154525870Y-94744325D01*
X154431802Y-94918299D01*
X154373318Y-95107232D01*
X154352645Y-95303925D01*
X154370570Y-95500888D01*
X154372308Y-95506794D01*
X154372309Y-95506798D01*
X154376387Y-95520653D01*
X154426410Y-95690619D01*
X154429263Y-95696077D01*
X154429265Y-95696081D01*
X154476720Y-95786853D01*
X154518040Y-95865890D01*
X154641968Y-96020025D01*
X154646692Y-96023989D01*
X154653933Y-96030065D01*
X154793474Y-96147154D01*
X154798872Y-96150121D01*
X154798877Y-96150125D01*
X154942180Y-96228905D01*
X154966787Y-96242433D01*
X154972654Y-96244294D01*
X154972656Y-96244295D01*
X155149436Y-96300373D01*
X155155306Y-96302235D01*
X155309227Y-96319500D01*
X155415769Y-96319500D01*
X155418825Y-96319200D01*
X155418832Y-96319200D01*
X155477340Y-96313463D01*
X155562833Y-96305080D01*
X155568734Y-96303298D01*
X155568736Y-96303298D01*
X155642053Y-96281162D01*
X155752169Y-96247916D01*
X155926796Y-96155066D01*
X156013062Y-96084709D01*
X156075287Y-96033960D01*
X156075290Y-96033957D01*
X156080062Y-96030065D01*
X156132892Y-95966205D01*
X156134416Y-95964363D01*
X156193249Y-95924625D01*
X156264227Y-95923004D01*
X156324815Y-95960013D01*
X156355775Y-96023903D01*
X156357500Y-96044679D01*
X156357500Y-98676500D01*
X156337498Y-98744621D01*
X156283842Y-98791114D01*
X156231500Y-98802500D01*
X114500500Y-98802500D01*
X114432379Y-98782498D01*
X114385886Y-98728842D01*
X114374500Y-98676500D01*
X114374500Y-96045158D01*
X114394502Y-95977037D01*
X114448158Y-95930544D01*
X114518432Y-95920440D01*
X114583012Y-95949934D01*
X114598693Y-95966202D01*
X114641968Y-96020025D01*
X114646692Y-96023989D01*
X114653933Y-96030065D01*
X114793474Y-96147154D01*
X114798872Y-96150121D01*
X114798877Y-96150125D01*
X114942180Y-96228905D01*
X114966787Y-96242433D01*
X114972654Y-96244294D01*
X114972656Y-96244295D01*
X115149436Y-96300373D01*
X115155306Y-96302235D01*
X115309227Y-96319500D01*
X115415769Y-96319500D01*
X115418825Y-96319200D01*
X115418832Y-96319200D01*
X115477340Y-96313463D01*
X115562833Y-96305080D01*
X115568734Y-96303298D01*
X115568736Y-96303298D01*
X115642053Y-96281162D01*
X115752169Y-96247916D01*
X115926796Y-96155066D01*
X116013062Y-96084709D01*
X116075287Y-96033960D01*
X116075290Y-96033957D01*
X116080062Y-96030065D01*
X116132892Y-95966205D01*
X116202201Y-95882425D01*
X116202203Y-95882421D01*
X116206130Y-95877675D01*
X116300198Y-95703701D01*
X116358682Y-95514768D01*
X116379355Y-95318075D01*
X116361430Y-95121112D01*
X116356222Y-95103414D01*
X116307330Y-94937294D01*
X116305590Y-94931381D01*
X116295919Y-94912881D01*
X116216813Y-94761568D01*
X116213960Y-94756110D01*
X116090032Y-94601975D01*
X116083727Y-94596684D01*
X116060080Y-94576842D01*
X115938526Y-94474846D01*
X115933128Y-94471879D01*
X115933123Y-94471875D01*
X115770608Y-94382533D01*
X115770609Y-94382533D01*
X115765213Y-94379567D01*
X115759346Y-94377706D01*
X115759344Y-94377705D01*
X115582564Y-94321627D01*
X115582563Y-94321627D01*
X115576694Y-94319765D01*
X115422773Y-94302500D01*
X115316231Y-94302500D01*
X115313175Y-94302800D01*
X115313168Y-94302800D01*
X115254660Y-94308537D01*
X115169167Y-94316920D01*
X115163266Y-94318702D01*
X115163264Y-94318702D01*
X115089947Y-94340838D01*
X114979831Y-94374084D01*
X114805204Y-94466934D01*
X114718938Y-94537291D01*
X114656713Y-94588040D01*
X114656710Y-94588043D01*
X114651938Y-94591935D01*
X114648011Y-94596682D01*
X114648008Y-94596685D01*
X114597584Y-94657637D01*
X114538751Y-94697375D01*
X114467773Y-94698996D01*
X114407185Y-94661987D01*
X114376225Y-94598097D01*
X114374500Y-94577321D01*
X114374500Y-91945500D01*
X114394502Y-91877379D01*
X114448158Y-91830886D01*
X114500500Y-91819500D01*
X156231500Y-91819500D01*
X156299621Y-91839502D01*
G37*
%TD.AperFunction*%
%TD*%
%TA.AperFunction,Conductor*%
%TO.N,GND*%
G36*
X113299621Y-99839502D02*
G01*
X113346114Y-99893158D01*
X113357500Y-99945500D01*
X113357500Y-102576842D01*
X113337498Y-102644963D01*
X113283842Y-102691456D01*
X113213568Y-102701560D01*
X113148988Y-102672066D01*
X113133304Y-102655795D01*
X113093892Y-102606776D01*
X113090032Y-102601975D01*
X113083727Y-102596684D01*
X113060080Y-102576842D01*
X112938526Y-102474846D01*
X112933128Y-102471879D01*
X112933123Y-102471875D01*
X112770608Y-102382533D01*
X112770609Y-102382533D01*
X112765213Y-102379567D01*
X112759346Y-102377706D01*
X112759344Y-102377705D01*
X112582564Y-102321627D01*
X112582563Y-102321627D01*
X112576694Y-102319765D01*
X112422773Y-102302500D01*
X112316231Y-102302500D01*
X112313175Y-102302800D01*
X112313168Y-102302800D01*
X112254660Y-102308537D01*
X112169167Y-102316920D01*
X112163266Y-102318702D01*
X112163264Y-102318702D01*
X112089947Y-102340838D01*
X111979831Y-102374084D01*
X111805204Y-102466934D01*
X111718938Y-102537291D01*
X111656713Y-102588040D01*
X111656710Y-102588043D01*
X111651938Y-102591935D01*
X111648011Y-102596682D01*
X111648009Y-102596684D01*
X111529799Y-102739575D01*
X111529797Y-102739579D01*
X111525870Y-102744325D01*
X111431802Y-102918299D01*
X111373318Y-103107232D01*
X111352645Y-103303925D01*
X111370570Y-103500888D01*
X111372308Y-103506794D01*
X111372309Y-103506798D01*
X111376387Y-103520653D01*
X111426410Y-103690619D01*
X111429263Y-103696077D01*
X111429265Y-103696081D01*
X111476720Y-103786853D01*
X111518040Y-103865890D01*
X111641968Y-104020025D01*
X111646692Y-104023989D01*
X111653933Y-104030065D01*
X111793474Y-104147154D01*
X111798872Y-104150121D01*
X111798877Y-104150125D01*
X111942180Y-104228905D01*
X111966787Y-104242433D01*
X111972654Y-104244294D01*
X111972656Y-104244295D01*
X112149436Y-104300373D01*
X112155306Y-104302235D01*
X112309227Y-104319500D01*
X112415769Y-104319500D01*
X112418825Y-104319200D01*
X112418832Y-104319200D01*
X112477340Y-104313463D01*
X112562833Y-104305080D01*
X112568734Y-104303298D01*
X112568736Y-104303298D01*
X112642053Y-104281162D01*
X112752169Y-104247916D01*
X112926796Y-104155066D01*
X113013062Y-104084709D01*
X113075287Y-104033960D01*
X113075290Y-104033957D01*
X113080062Y-104030065D01*
X113132892Y-103966205D01*
X113134416Y-103964363D01*
X113193249Y-103924625D01*
X113264227Y-103923004D01*
X113324815Y-103960013D01*
X113355775Y-104023903D01*
X113357500Y-104044679D01*
X113357500Y-106676500D01*
X113337498Y-106744621D01*
X113283842Y-106791114D01*
X113231500Y-106802500D01*
X71500500Y-106802500D01*
X71432379Y-106782498D01*
X71385886Y-106728842D01*
X71374500Y-106676500D01*
X71374500Y-104045158D01*
X71394502Y-103977037D01*
X71448158Y-103930544D01*
X71518432Y-103920440D01*
X71583012Y-103949934D01*
X71598693Y-103966202D01*
X71641968Y-104020025D01*
X71646692Y-104023989D01*
X71653933Y-104030065D01*
X71793474Y-104147154D01*
X71798872Y-104150121D01*
X71798877Y-104150125D01*
X71942180Y-104228905D01*
X71966787Y-104242433D01*
X71972654Y-104244294D01*
X71972656Y-104244295D01*
X72149436Y-104300373D01*
X72155306Y-104302235D01*
X72309227Y-104319500D01*
X72415769Y-104319500D01*
X72418825Y-104319200D01*
X72418832Y-104319200D01*
X72477340Y-104313463D01*
X72562833Y-104305080D01*
X72568734Y-104303298D01*
X72568736Y-104303298D01*
X72642053Y-104281162D01*
X72752169Y-104247916D01*
X72926796Y-104155066D01*
X73013062Y-104084709D01*
X73075287Y-104033960D01*
X73075290Y-104033957D01*
X73080062Y-104030065D01*
X73132892Y-103966205D01*
X73202201Y-103882425D01*
X73202203Y-103882421D01*
X73206130Y-103877675D01*
X73300198Y-103703701D01*
X73358682Y-103514768D01*
X73379355Y-103318075D01*
X73361430Y-103121112D01*
X73356222Y-103103414D01*
X73307330Y-102937294D01*
X73305590Y-102931381D01*
X73295919Y-102912881D01*
X73216813Y-102761568D01*
X73213960Y-102756110D01*
X73090032Y-102601975D01*
X73083727Y-102596684D01*
X73060080Y-102576842D01*
X72938526Y-102474846D01*
X72933128Y-102471879D01*
X72933123Y-102471875D01*
X72770608Y-102382533D01*
X72770609Y-102382533D01*
X72765213Y-102379567D01*
X72759346Y-102377706D01*
X72759344Y-102377705D01*
X72582564Y-102321627D01*
X72582563Y-102321627D01*
X72576694Y-102319765D01*
X72422773Y-102302500D01*
X72316231Y-102302500D01*
X72313175Y-102302800D01*
X72313168Y-102302800D01*
X72254660Y-102308537D01*
X72169167Y-102316920D01*
X72163266Y-102318702D01*
X72163264Y-102318702D01*
X72089947Y-102340838D01*
X71979831Y-102374084D01*
X71805204Y-102466934D01*
X71718938Y-102537291D01*
X71656713Y-102588040D01*
X71656710Y-102588043D01*
X71651938Y-102591935D01*
X71648011Y-102596682D01*
X71648008Y-102596685D01*
X71597584Y-102657637D01*
X71538751Y-102697375D01*
X71467773Y-102698996D01*
X71407185Y-102661987D01*
X71376225Y-102598097D01*
X71374500Y-102577321D01*
X71374500Y-99945500D01*
X71394502Y-99877379D01*
X71448158Y-99830886D01*
X71500500Y-99819500D01*
X113231500Y-99819500D01*
X113299621Y-99839502D01*
G37*
%TD.AperFunction*%
%TD*%
%TA.AperFunction,Conductor*%
%TO.N,GND*%
G36*
X156299621Y-99839502D02*
G01*
X156346114Y-99893158D01*
X156357500Y-99945500D01*
X156357500Y-102576842D01*
X156337498Y-102644963D01*
X156283842Y-102691456D01*
X156213568Y-102701560D01*
X156148988Y-102672066D01*
X156133304Y-102655795D01*
X156093892Y-102606776D01*
X156090032Y-102601975D01*
X156083727Y-102596684D01*
X156060080Y-102576842D01*
X155938526Y-102474846D01*
X155933128Y-102471879D01*
X155933123Y-102471875D01*
X155770608Y-102382533D01*
X155770609Y-102382533D01*
X155765213Y-102379567D01*
X155759346Y-102377706D01*
X155759344Y-102377705D01*
X155582564Y-102321627D01*
X155582563Y-102321627D01*
X155576694Y-102319765D01*
X155422773Y-102302500D01*
X155316231Y-102302500D01*
X155313175Y-102302800D01*
X155313168Y-102302800D01*
X155254660Y-102308537D01*
X155169167Y-102316920D01*
X155163266Y-102318702D01*
X155163264Y-102318702D01*
X155089947Y-102340838D01*
X154979831Y-102374084D01*
X154805204Y-102466934D01*
X154718938Y-102537291D01*
X154656713Y-102588040D01*
X154656710Y-102588043D01*
X154651938Y-102591935D01*
X154648011Y-102596682D01*
X154648009Y-102596684D01*
X154529799Y-102739575D01*
X154529797Y-102739579D01*
X154525870Y-102744325D01*
X154431802Y-102918299D01*
X154373318Y-103107232D01*
X154352645Y-103303925D01*
X154370570Y-103500888D01*
X154372308Y-103506794D01*
X154372309Y-103506798D01*
X154376387Y-103520653D01*
X154426410Y-103690619D01*
X154429263Y-103696077D01*
X154429265Y-103696081D01*
X154476720Y-103786853D01*
X154518040Y-103865890D01*
X154641968Y-104020025D01*
X154646692Y-104023989D01*
X154653933Y-104030065D01*
X154793474Y-104147154D01*
X154798872Y-104150121D01*
X154798877Y-104150125D01*
X154942180Y-104228905D01*
X154966787Y-104242433D01*
X154972654Y-104244294D01*
X154972656Y-104244295D01*
X155149436Y-104300373D01*
X155155306Y-104302235D01*
X155309227Y-104319500D01*
X155415769Y-104319500D01*
X155418825Y-104319200D01*
X155418832Y-104319200D01*
X155477340Y-104313463D01*
X155562833Y-104305080D01*
X155568734Y-104303298D01*
X155568736Y-104303298D01*
X155642053Y-104281162D01*
X155752169Y-104247916D01*
X155926796Y-104155066D01*
X156013062Y-104084709D01*
X156075287Y-104033960D01*
X156075290Y-104033957D01*
X156080062Y-104030065D01*
X156132892Y-103966205D01*
X156134416Y-103964363D01*
X156193249Y-103924625D01*
X156264227Y-103923004D01*
X156324815Y-103960013D01*
X156355775Y-104023903D01*
X156357500Y-104044679D01*
X156357500Y-106676500D01*
X156337498Y-106744621D01*
X156283842Y-106791114D01*
X156231500Y-106802500D01*
X114500500Y-106802500D01*
X114432379Y-106782498D01*
X114385886Y-106728842D01*
X114374500Y-106676500D01*
X114374500Y-104045158D01*
X114394502Y-103977037D01*
X114448158Y-103930544D01*
X114518432Y-103920440D01*
X114583012Y-103949934D01*
X114598693Y-103966202D01*
X114641968Y-104020025D01*
X114646692Y-104023989D01*
X114653933Y-104030065D01*
X114793474Y-104147154D01*
X114798872Y-104150121D01*
X114798877Y-104150125D01*
X114942180Y-104228905D01*
X114966787Y-104242433D01*
X114972654Y-104244294D01*
X114972656Y-104244295D01*
X115149436Y-104300373D01*
X115155306Y-104302235D01*
X115309227Y-104319500D01*
X115415769Y-104319500D01*
X115418825Y-104319200D01*
X115418832Y-104319200D01*
X115477340Y-104313463D01*
X115562833Y-104305080D01*
X115568734Y-104303298D01*
X115568736Y-104303298D01*
X115642053Y-104281162D01*
X115752169Y-104247916D01*
X115926796Y-104155066D01*
X116013062Y-104084709D01*
X116075287Y-104033960D01*
X116075290Y-104033957D01*
X116080062Y-104030065D01*
X116132892Y-103966205D01*
X116202201Y-103882425D01*
X116202203Y-103882421D01*
X116206130Y-103877675D01*
X116300198Y-103703701D01*
X116358682Y-103514768D01*
X116379355Y-103318075D01*
X116361430Y-103121112D01*
X116356222Y-103103414D01*
X116307330Y-102937294D01*
X116305590Y-102931381D01*
X116295919Y-102912881D01*
X116216813Y-102761568D01*
X116213960Y-102756110D01*
X116090032Y-102601975D01*
X116083727Y-102596684D01*
X116060080Y-102576842D01*
X115938526Y-102474846D01*
X115933128Y-102471879D01*
X115933123Y-102471875D01*
X115770608Y-102382533D01*
X115770609Y-102382533D01*
X115765213Y-102379567D01*
X115759346Y-102377706D01*
X115759344Y-102377705D01*
X115582564Y-102321627D01*
X115582563Y-102321627D01*
X115576694Y-102319765D01*
X115422773Y-102302500D01*
X115316231Y-102302500D01*
X115313175Y-102302800D01*
X115313168Y-102302800D01*
X115254660Y-102308537D01*
X115169167Y-102316920D01*
X115163266Y-102318702D01*
X115163264Y-102318702D01*
X115089947Y-102340838D01*
X114979831Y-102374084D01*
X114805204Y-102466934D01*
X114718938Y-102537291D01*
X114656713Y-102588040D01*
X114656710Y-102588043D01*
X114651938Y-102591935D01*
X114648011Y-102596682D01*
X114648008Y-102596685D01*
X114597584Y-102657637D01*
X114538751Y-102697375D01*
X114467773Y-102698996D01*
X114407185Y-102661987D01*
X114376225Y-102598097D01*
X114374500Y-102577321D01*
X114374500Y-99945500D01*
X114394502Y-99877379D01*
X114448158Y-99830886D01*
X114500500Y-99819500D01*
X156231500Y-99819500D01*
X156299621Y-99839502D01*
G37*
%TD.AperFunction*%
%TD*%
%TA.AperFunction,Conductor*%
%TO.N,GND*%
G36*
X113299621Y-107839502D02*
G01*
X113346114Y-107893158D01*
X113357500Y-107945500D01*
X113357500Y-110576842D01*
X113337498Y-110644963D01*
X113283842Y-110691456D01*
X113213568Y-110701560D01*
X113148988Y-110672066D01*
X113133304Y-110655795D01*
X113093892Y-110606776D01*
X113090032Y-110601975D01*
X113083727Y-110596684D01*
X113060080Y-110576842D01*
X112938526Y-110474846D01*
X112933128Y-110471879D01*
X112933123Y-110471875D01*
X112770608Y-110382533D01*
X112770609Y-110382533D01*
X112765213Y-110379567D01*
X112759346Y-110377706D01*
X112759344Y-110377705D01*
X112582564Y-110321627D01*
X112582563Y-110321627D01*
X112576694Y-110319765D01*
X112422773Y-110302500D01*
X112316231Y-110302500D01*
X112313175Y-110302800D01*
X112313168Y-110302800D01*
X112254660Y-110308537D01*
X112169167Y-110316920D01*
X112163266Y-110318702D01*
X112163264Y-110318702D01*
X112089947Y-110340838D01*
X111979831Y-110374084D01*
X111805204Y-110466934D01*
X111718938Y-110537291D01*
X111656713Y-110588040D01*
X111656710Y-110588043D01*
X111651938Y-110591935D01*
X111648011Y-110596682D01*
X111648009Y-110596684D01*
X111529799Y-110739575D01*
X111529797Y-110739579D01*
X111525870Y-110744325D01*
X111431802Y-110918299D01*
X111373318Y-111107232D01*
X111352645Y-111303925D01*
X111370570Y-111500888D01*
X111372308Y-111506794D01*
X111372309Y-111506798D01*
X111376387Y-111520653D01*
X111426410Y-111690619D01*
X111429263Y-111696077D01*
X111429265Y-111696081D01*
X111476720Y-111786853D01*
X111518040Y-111865890D01*
X111641968Y-112020025D01*
X111646692Y-112023989D01*
X111653933Y-112030065D01*
X111793474Y-112147154D01*
X111798872Y-112150121D01*
X111798877Y-112150125D01*
X111942180Y-112228905D01*
X111966787Y-112242433D01*
X111972654Y-112244294D01*
X111972656Y-112244295D01*
X112149436Y-112300373D01*
X112155306Y-112302235D01*
X112309227Y-112319500D01*
X112415769Y-112319500D01*
X112418825Y-112319200D01*
X112418832Y-112319200D01*
X112477340Y-112313463D01*
X112562833Y-112305080D01*
X112568734Y-112303298D01*
X112568736Y-112303298D01*
X112642053Y-112281162D01*
X112752169Y-112247916D01*
X112926796Y-112155066D01*
X113013062Y-112084709D01*
X113075287Y-112033960D01*
X113075290Y-112033957D01*
X113080062Y-112030065D01*
X113132892Y-111966205D01*
X113134416Y-111964363D01*
X113193249Y-111924625D01*
X113264227Y-111923004D01*
X113324815Y-111960013D01*
X113355775Y-112023903D01*
X113357500Y-112044679D01*
X113357500Y-114676500D01*
X113337498Y-114744621D01*
X113283842Y-114791114D01*
X113231500Y-114802500D01*
X71500500Y-114802500D01*
X71432379Y-114782498D01*
X71385886Y-114728842D01*
X71374500Y-114676500D01*
X71374500Y-112045158D01*
X71394502Y-111977037D01*
X71448158Y-111930544D01*
X71518432Y-111920440D01*
X71583012Y-111949934D01*
X71598693Y-111966202D01*
X71641968Y-112020025D01*
X71646692Y-112023989D01*
X71653933Y-112030065D01*
X71793474Y-112147154D01*
X71798872Y-112150121D01*
X71798877Y-112150125D01*
X71942180Y-112228905D01*
X71966787Y-112242433D01*
X71972654Y-112244294D01*
X71972656Y-112244295D01*
X72149436Y-112300373D01*
X72155306Y-112302235D01*
X72309227Y-112319500D01*
X72415769Y-112319500D01*
X72418825Y-112319200D01*
X72418832Y-112319200D01*
X72477340Y-112313463D01*
X72562833Y-112305080D01*
X72568734Y-112303298D01*
X72568736Y-112303298D01*
X72642053Y-112281162D01*
X72752169Y-112247916D01*
X72926796Y-112155066D01*
X73013062Y-112084709D01*
X73075287Y-112033960D01*
X73075290Y-112033957D01*
X73080062Y-112030065D01*
X73132892Y-111966205D01*
X73202201Y-111882425D01*
X73202203Y-111882421D01*
X73206130Y-111877675D01*
X73300198Y-111703701D01*
X73358682Y-111514768D01*
X73379355Y-111318075D01*
X73361430Y-111121112D01*
X73356222Y-111103414D01*
X73307330Y-110937294D01*
X73305590Y-110931381D01*
X73295919Y-110912881D01*
X73216813Y-110761568D01*
X73213960Y-110756110D01*
X73090032Y-110601975D01*
X73083727Y-110596684D01*
X73060080Y-110576842D01*
X72938526Y-110474846D01*
X72933128Y-110471879D01*
X72933123Y-110471875D01*
X72770608Y-110382533D01*
X72770609Y-110382533D01*
X72765213Y-110379567D01*
X72759346Y-110377706D01*
X72759344Y-110377705D01*
X72582564Y-110321627D01*
X72582563Y-110321627D01*
X72576694Y-110319765D01*
X72422773Y-110302500D01*
X72316231Y-110302500D01*
X72313175Y-110302800D01*
X72313168Y-110302800D01*
X72254660Y-110308537D01*
X72169167Y-110316920D01*
X72163266Y-110318702D01*
X72163264Y-110318702D01*
X72089947Y-110340838D01*
X71979831Y-110374084D01*
X71805204Y-110466934D01*
X71718938Y-110537291D01*
X71656713Y-110588040D01*
X71656710Y-110588043D01*
X71651938Y-110591935D01*
X71648011Y-110596682D01*
X71648008Y-110596685D01*
X71597584Y-110657637D01*
X71538751Y-110697375D01*
X71467773Y-110698996D01*
X71407185Y-110661987D01*
X71376225Y-110598097D01*
X71374500Y-110577321D01*
X71374500Y-107945500D01*
X71394502Y-107877379D01*
X71448158Y-107830886D01*
X71500500Y-107819500D01*
X113231500Y-107819500D01*
X113299621Y-107839502D01*
G37*
%TD.AperFunction*%
%TD*%
%TA.AperFunction,Conductor*%
%TO.N,GND*%
G36*
X156299621Y-107839502D02*
G01*
X156346114Y-107893158D01*
X156357500Y-107945500D01*
X156357500Y-110576842D01*
X156337498Y-110644963D01*
X156283842Y-110691456D01*
X156213568Y-110701560D01*
X156148988Y-110672066D01*
X156133304Y-110655795D01*
X156093892Y-110606776D01*
X156090032Y-110601975D01*
X156083727Y-110596684D01*
X156060080Y-110576842D01*
X155938526Y-110474846D01*
X155933128Y-110471879D01*
X155933123Y-110471875D01*
X155770608Y-110382533D01*
X155770609Y-110382533D01*
X155765213Y-110379567D01*
X155759346Y-110377706D01*
X155759344Y-110377705D01*
X155582564Y-110321627D01*
X155582563Y-110321627D01*
X155576694Y-110319765D01*
X155422773Y-110302500D01*
X155316231Y-110302500D01*
X155313175Y-110302800D01*
X155313168Y-110302800D01*
X155254660Y-110308537D01*
X155169167Y-110316920D01*
X155163266Y-110318702D01*
X155163264Y-110318702D01*
X155089947Y-110340838D01*
X154979831Y-110374084D01*
X154805204Y-110466934D01*
X154718938Y-110537291D01*
X154656713Y-110588040D01*
X154656710Y-110588043D01*
X154651938Y-110591935D01*
X154648011Y-110596682D01*
X154648009Y-110596684D01*
X154529799Y-110739575D01*
X154529797Y-110739579D01*
X154525870Y-110744325D01*
X154431802Y-110918299D01*
X154373318Y-111107232D01*
X154352645Y-111303925D01*
X154370570Y-111500888D01*
X154372308Y-111506794D01*
X154372309Y-111506798D01*
X154376387Y-111520653D01*
X154426410Y-111690619D01*
X154429263Y-111696077D01*
X154429265Y-111696081D01*
X154476720Y-111786853D01*
X154518040Y-111865890D01*
X154641968Y-112020025D01*
X154646692Y-112023989D01*
X154653933Y-112030065D01*
X154793474Y-112147154D01*
X154798872Y-112150121D01*
X154798877Y-112150125D01*
X154942180Y-112228905D01*
X154966787Y-112242433D01*
X154972654Y-112244294D01*
X154972656Y-112244295D01*
X155149436Y-112300373D01*
X155155306Y-112302235D01*
X155309227Y-112319500D01*
X155415769Y-112319500D01*
X155418825Y-112319200D01*
X155418832Y-112319200D01*
X155477340Y-112313463D01*
X155562833Y-112305080D01*
X155568734Y-112303298D01*
X155568736Y-112303298D01*
X155642053Y-112281162D01*
X155752169Y-112247916D01*
X155926796Y-112155066D01*
X156013062Y-112084709D01*
X156075287Y-112033960D01*
X156075290Y-112033957D01*
X156080062Y-112030065D01*
X156132892Y-111966205D01*
X156134416Y-111964363D01*
X156193249Y-111924625D01*
X156264227Y-111923004D01*
X156324815Y-111960013D01*
X156355775Y-112023903D01*
X156357500Y-112044679D01*
X156357500Y-114676500D01*
X156337498Y-114744621D01*
X156283842Y-114791114D01*
X156231500Y-114802500D01*
X114500500Y-114802500D01*
X114432379Y-114782498D01*
X114385886Y-114728842D01*
X114374500Y-114676500D01*
X114374500Y-112045158D01*
X114394502Y-111977037D01*
X114448158Y-111930544D01*
X114518432Y-111920440D01*
X114583012Y-111949934D01*
X114598693Y-111966202D01*
X114641968Y-112020025D01*
X114646692Y-112023989D01*
X114653933Y-112030065D01*
X114793474Y-112147154D01*
X114798872Y-112150121D01*
X114798877Y-112150125D01*
X114942180Y-112228905D01*
X114966787Y-112242433D01*
X114972654Y-112244294D01*
X114972656Y-112244295D01*
X115149436Y-112300373D01*
X115155306Y-112302235D01*
X115309227Y-112319500D01*
X115415769Y-112319500D01*
X115418825Y-112319200D01*
X115418832Y-112319200D01*
X115477340Y-112313463D01*
X115562833Y-112305080D01*
X115568734Y-112303298D01*
X115568736Y-112303298D01*
X115642053Y-112281162D01*
X115752169Y-112247916D01*
X115926796Y-112155066D01*
X116013062Y-112084709D01*
X116075287Y-112033960D01*
X116075290Y-112033957D01*
X116080062Y-112030065D01*
X116132892Y-111966205D01*
X116202201Y-111882425D01*
X116202203Y-111882421D01*
X116206130Y-111877675D01*
X116300198Y-111703701D01*
X116358682Y-111514768D01*
X116379355Y-111318075D01*
X116361430Y-111121112D01*
X116356222Y-111103414D01*
X116307330Y-110937294D01*
X116305590Y-110931381D01*
X116295919Y-110912881D01*
X116216813Y-110761568D01*
X116213960Y-110756110D01*
X116090032Y-110601975D01*
X116083727Y-110596684D01*
X116060080Y-110576842D01*
X115938526Y-110474846D01*
X115933128Y-110471879D01*
X115933123Y-110471875D01*
X115770608Y-110382533D01*
X115770609Y-110382533D01*
X115765213Y-110379567D01*
X115759346Y-110377706D01*
X115759344Y-110377705D01*
X115582564Y-110321627D01*
X115582563Y-110321627D01*
X115576694Y-110319765D01*
X115422773Y-110302500D01*
X115316231Y-110302500D01*
X115313175Y-110302800D01*
X115313168Y-110302800D01*
X115254660Y-110308537D01*
X115169167Y-110316920D01*
X115163266Y-110318702D01*
X115163264Y-110318702D01*
X115089947Y-110340838D01*
X114979831Y-110374084D01*
X114805204Y-110466934D01*
X114718938Y-110537291D01*
X114656713Y-110588040D01*
X114656710Y-110588043D01*
X114651938Y-110591935D01*
X114648011Y-110596682D01*
X114648008Y-110596685D01*
X114597584Y-110657637D01*
X114538751Y-110697375D01*
X114467773Y-110698996D01*
X114407185Y-110661987D01*
X114376225Y-110598097D01*
X114374500Y-110577321D01*
X114374500Y-107945500D01*
X114394502Y-107877379D01*
X114448158Y-107830886D01*
X114500500Y-107819500D01*
X156231500Y-107819500D01*
X156299621Y-107839502D01*
G37*
%TD.AperFunction*%
%TD*%
%TA.AperFunction,Conductor*%
%TO.N,GND*%
G36*
X113299621Y-115839502D02*
G01*
X113346114Y-115893158D01*
X113357500Y-115945500D01*
X113357500Y-118576842D01*
X113337498Y-118644963D01*
X113283842Y-118691456D01*
X113213568Y-118701560D01*
X113148988Y-118672066D01*
X113133304Y-118655795D01*
X113093892Y-118606776D01*
X113090032Y-118601975D01*
X113083727Y-118596684D01*
X113060080Y-118576842D01*
X112938526Y-118474846D01*
X112933128Y-118471879D01*
X112933123Y-118471875D01*
X112770608Y-118382533D01*
X112770609Y-118382533D01*
X112765213Y-118379567D01*
X112759346Y-118377706D01*
X112759344Y-118377705D01*
X112582564Y-118321627D01*
X112582563Y-118321627D01*
X112576694Y-118319765D01*
X112422773Y-118302500D01*
X112316231Y-118302500D01*
X112313175Y-118302800D01*
X112313168Y-118302800D01*
X112254660Y-118308537D01*
X112169167Y-118316920D01*
X112163266Y-118318702D01*
X112163264Y-118318702D01*
X112089947Y-118340838D01*
X111979831Y-118374084D01*
X111805204Y-118466934D01*
X111718938Y-118537291D01*
X111656713Y-118588040D01*
X111656710Y-118588043D01*
X111651938Y-118591935D01*
X111648011Y-118596682D01*
X111648009Y-118596684D01*
X111529799Y-118739575D01*
X111529797Y-118739579D01*
X111525870Y-118744325D01*
X111431802Y-118918299D01*
X111373318Y-119107232D01*
X111352645Y-119303925D01*
X111370570Y-119500888D01*
X111372308Y-119506794D01*
X111372309Y-119506798D01*
X111376387Y-119520653D01*
X111426410Y-119690619D01*
X111429263Y-119696077D01*
X111429265Y-119696081D01*
X111476720Y-119786853D01*
X111518040Y-119865890D01*
X111641968Y-120020025D01*
X111646692Y-120023989D01*
X111653933Y-120030065D01*
X111793474Y-120147154D01*
X111798872Y-120150121D01*
X111798877Y-120150125D01*
X111942180Y-120228905D01*
X111966787Y-120242433D01*
X111972654Y-120244294D01*
X111972656Y-120244295D01*
X112149436Y-120300373D01*
X112155306Y-120302235D01*
X112309227Y-120319500D01*
X112415769Y-120319500D01*
X112418825Y-120319200D01*
X112418832Y-120319200D01*
X112477340Y-120313463D01*
X112562833Y-120305080D01*
X112568734Y-120303298D01*
X112568736Y-120303298D01*
X112642053Y-120281162D01*
X112752169Y-120247916D01*
X112926796Y-120155066D01*
X113013062Y-120084709D01*
X113075287Y-120033960D01*
X113075290Y-120033957D01*
X113080062Y-120030065D01*
X113132892Y-119966205D01*
X113134416Y-119964363D01*
X113193249Y-119924625D01*
X113264227Y-119923004D01*
X113324815Y-119960013D01*
X113355775Y-120023903D01*
X113357500Y-120044679D01*
X113357500Y-122676500D01*
X113337498Y-122744621D01*
X113283842Y-122791114D01*
X113231500Y-122802500D01*
X71500500Y-122802500D01*
X71432379Y-122782498D01*
X71385886Y-122728842D01*
X71374500Y-122676500D01*
X71374500Y-120045158D01*
X71394502Y-119977037D01*
X71448158Y-119930544D01*
X71518432Y-119920440D01*
X71583012Y-119949934D01*
X71598693Y-119966202D01*
X71641968Y-120020025D01*
X71646692Y-120023989D01*
X71653933Y-120030065D01*
X71793474Y-120147154D01*
X71798872Y-120150121D01*
X71798877Y-120150125D01*
X71942180Y-120228905D01*
X71966787Y-120242433D01*
X71972654Y-120244294D01*
X71972656Y-120244295D01*
X72149436Y-120300373D01*
X72155306Y-120302235D01*
X72309227Y-120319500D01*
X72415769Y-120319500D01*
X72418825Y-120319200D01*
X72418832Y-120319200D01*
X72477340Y-120313463D01*
X72562833Y-120305080D01*
X72568734Y-120303298D01*
X72568736Y-120303298D01*
X72642053Y-120281162D01*
X72752169Y-120247916D01*
X72926796Y-120155066D01*
X73013062Y-120084709D01*
X73075287Y-120033960D01*
X73075290Y-120033957D01*
X73080062Y-120030065D01*
X73132892Y-119966205D01*
X73202201Y-119882425D01*
X73202203Y-119882421D01*
X73206130Y-119877675D01*
X73300198Y-119703701D01*
X73358682Y-119514768D01*
X73379355Y-119318075D01*
X73361430Y-119121112D01*
X73356222Y-119103414D01*
X73307330Y-118937294D01*
X73305590Y-118931381D01*
X73295919Y-118912881D01*
X73216813Y-118761568D01*
X73213960Y-118756110D01*
X73090032Y-118601975D01*
X73083727Y-118596684D01*
X73060080Y-118576842D01*
X72938526Y-118474846D01*
X72933128Y-118471879D01*
X72933123Y-118471875D01*
X72770608Y-118382533D01*
X72770609Y-118382533D01*
X72765213Y-118379567D01*
X72759346Y-118377706D01*
X72759344Y-118377705D01*
X72582564Y-118321627D01*
X72582563Y-118321627D01*
X72576694Y-118319765D01*
X72422773Y-118302500D01*
X72316231Y-118302500D01*
X72313175Y-118302800D01*
X72313168Y-118302800D01*
X72254660Y-118308537D01*
X72169167Y-118316920D01*
X72163266Y-118318702D01*
X72163264Y-118318702D01*
X72089947Y-118340838D01*
X71979831Y-118374084D01*
X71805204Y-118466934D01*
X71718938Y-118537291D01*
X71656713Y-118588040D01*
X71656710Y-118588043D01*
X71651938Y-118591935D01*
X71648011Y-118596682D01*
X71648008Y-118596685D01*
X71597584Y-118657637D01*
X71538751Y-118697375D01*
X71467773Y-118698996D01*
X71407185Y-118661987D01*
X71376225Y-118598097D01*
X71374500Y-118577321D01*
X71374500Y-115945500D01*
X71394502Y-115877379D01*
X71448158Y-115830886D01*
X71500500Y-115819500D01*
X113231500Y-115819500D01*
X113299621Y-115839502D01*
G37*
%TD.AperFunction*%
%TD*%
%TA.AperFunction,Conductor*%
%TO.N,GND*%
G36*
X156299621Y-115839502D02*
G01*
X156346114Y-115893158D01*
X156357500Y-115945500D01*
X156357500Y-118576842D01*
X156337498Y-118644963D01*
X156283842Y-118691456D01*
X156213568Y-118701560D01*
X156148988Y-118672066D01*
X156133304Y-118655795D01*
X156093892Y-118606776D01*
X156090032Y-118601975D01*
X156083727Y-118596684D01*
X156060080Y-118576842D01*
X155938526Y-118474846D01*
X155933128Y-118471879D01*
X155933123Y-118471875D01*
X155770608Y-118382533D01*
X155770609Y-118382533D01*
X155765213Y-118379567D01*
X155759346Y-118377706D01*
X155759344Y-118377705D01*
X155582564Y-118321627D01*
X155582563Y-118321627D01*
X155576694Y-118319765D01*
X155422773Y-118302500D01*
X155316231Y-118302500D01*
X155313175Y-118302800D01*
X155313168Y-118302800D01*
X155254660Y-118308537D01*
X155169167Y-118316920D01*
X155163266Y-118318702D01*
X155163264Y-118318702D01*
X155089947Y-118340838D01*
X154979831Y-118374084D01*
X154805204Y-118466934D01*
X154718938Y-118537291D01*
X154656713Y-118588040D01*
X154656710Y-118588043D01*
X154651938Y-118591935D01*
X154648011Y-118596682D01*
X154648009Y-118596684D01*
X154529799Y-118739575D01*
X154529797Y-118739579D01*
X154525870Y-118744325D01*
X154431802Y-118918299D01*
X154373318Y-119107232D01*
X154352645Y-119303925D01*
X154370570Y-119500888D01*
X154372308Y-119506794D01*
X154372309Y-119506798D01*
X154376387Y-119520653D01*
X154426410Y-119690619D01*
X154429263Y-119696077D01*
X154429265Y-119696081D01*
X154476720Y-119786853D01*
X154518040Y-119865890D01*
X154641968Y-120020025D01*
X154646692Y-120023989D01*
X154653933Y-120030065D01*
X154793474Y-120147154D01*
X154798872Y-120150121D01*
X154798877Y-120150125D01*
X154942180Y-120228905D01*
X154966787Y-120242433D01*
X154972654Y-120244294D01*
X154972656Y-120244295D01*
X155149436Y-120300373D01*
X155155306Y-120302235D01*
X155309227Y-120319500D01*
X155415769Y-120319500D01*
X155418825Y-120319200D01*
X155418832Y-120319200D01*
X155477340Y-120313463D01*
X155562833Y-120305080D01*
X155568734Y-120303298D01*
X155568736Y-120303298D01*
X155642053Y-120281162D01*
X155752169Y-120247916D01*
X155926796Y-120155066D01*
X156013062Y-120084709D01*
X156075287Y-120033960D01*
X156075290Y-120033957D01*
X156080062Y-120030065D01*
X156132892Y-119966205D01*
X156134416Y-119964363D01*
X156193249Y-119924625D01*
X156264227Y-119923004D01*
X156324815Y-119960013D01*
X156355775Y-120023903D01*
X156357500Y-120044679D01*
X156357500Y-122676500D01*
X156337498Y-122744621D01*
X156283842Y-122791114D01*
X156231500Y-122802500D01*
X114500500Y-122802500D01*
X114432379Y-122782498D01*
X114385886Y-122728842D01*
X114374500Y-122676500D01*
X114374500Y-120045158D01*
X114394502Y-119977037D01*
X114448158Y-119930544D01*
X114518432Y-119920440D01*
X114583012Y-119949934D01*
X114598693Y-119966202D01*
X114641968Y-120020025D01*
X114646692Y-120023989D01*
X114653933Y-120030065D01*
X114793474Y-120147154D01*
X114798872Y-120150121D01*
X114798877Y-120150125D01*
X114942180Y-120228905D01*
X114966787Y-120242433D01*
X114972654Y-120244294D01*
X114972656Y-120244295D01*
X115149436Y-120300373D01*
X115155306Y-120302235D01*
X115309227Y-120319500D01*
X115415769Y-120319500D01*
X115418825Y-120319200D01*
X115418832Y-120319200D01*
X115477340Y-120313463D01*
X115562833Y-120305080D01*
X115568734Y-120303298D01*
X115568736Y-120303298D01*
X115642053Y-120281162D01*
X115752169Y-120247916D01*
X115926796Y-120155066D01*
X116013062Y-120084709D01*
X116075287Y-120033960D01*
X116075290Y-120033957D01*
X116080062Y-120030065D01*
X116132892Y-119966205D01*
X116202201Y-119882425D01*
X116202203Y-119882421D01*
X116206130Y-119877675D01*
X116300198Y-119703701D01*
X116358682Y-119514768D01*
X116379355Y-119318075D01*
X116361430Y-119121112D01*
X116356222Y-119103414D01*
X116307330Y-118937294D01*
X116305590Y-118931381D01*
X116295919Y-118912881D01*
X116216813Y-118761568D01*
X116213960Y-118756110D01*
X116090032Y-118601975D01*
X116083727Y-118596684D01*
X116060080Y-118576842D01*
X115938526Y-118474846D01*
X115933128Y-118471879D01*
X115933123Y-118471875D01*
X115770608Y-118382533D01*
X115770609Y-118382533D01*
X115765213Y-118379567D01*
X115759346Y-118377706D01*
X115759344Y-118377705D01*
X115582564Y-118321627D01*
X115582563Y-118321627D01*
X115576694Y-118319765D01*
X115422773Y-118302500D01*
X115316231Y-118302500D01*
X115313175Y-118302800D01*
X115313168Y-118302800D01*
X115254660Y-118308537D01*
X115169167Y-118316920D01*
X115163266Y-118318702D01*
X115163264Y-118318702D01*
X115089947Y-118340838D01*
X114979831Y-118374084D01*
X114805204Y-118466934D01*
X114718938Y-118537291D01*
X114656713Y-118588040D01*
X114656710Y-118588043D01*
X114651938Y-118591935D01*
X114648011Y-118596682D01*
X114648008Y-118596685D01*
X114597584Y-118657637D01*
X114538751Y-118697375D01*
X114467773Y-118698996D01*
X114407185Y-118661987D01*
X114376225Y-118598097D01*
X114374500Y-118577321D01*
X114374500Y-115945500D01*
X114394502Y-115877379D01*
X114448158Y-115830886D01*
X114500500Y-115819500D01*
X156231500Y-115819500D01*
X156299621Y-115839502D01*
G37*
%TD.AperFunction*%
%TD*%
%TA.AperFunction,Conductor*%
%TO.N,GND*%
G36*
X113299621Y-123839502D02*
G01*
X113346114Y-123893158D01*
X113357500Y-123945500D01*
X113357500Y-126576842D01*
X113337498Y-126644963D01*
X113283842Y-126691456D01*
X113213568Y-126701560D01*
X113148988Y-126672066D01*
X113133304Y-126655795D01*
X113093892Y-126606776D01*
X113090032Y-126601975D01*
X113083727Y-126596684D01*
X113060080Y-126576842D01*
X112938526Y-126474846D01*
X112933128Y-126471879D01*
X112933123Y-126471875D01*
X112770608Y-126382533D01*
X112770609Y-126382533D01*
X112765213Y-126379567D01*
X112759346Y-126377706D01*
X112759344Y-126377705D01*
X112582564Y-126321627D01*
X112582563Y-126321627D01*
X112576694Y-126319765D01*
X112422773Y-126302500D01*
X112316231Y-126302500D01*
X112313175Y-126302800D01*
X112313168Y-126302800D01*
X112254660Y-126308537D01*
X112169167Y-126316920D01*
X112163266Y-126318702D01*
X112163264Y-126318702D01*
X112089947Y-126340838D01*
X111979831Y-126374084D01*
X111805204Y-126466934D01*
X111718938Y-126537291D01*
X111656713Y-126588040D01*
X111656710Y-126588043D01*
X111651938Y-126591935D01*
X111648011Y-126596682D01*
X111648009Y-126596684D01*
X111529799Y-126739575D01*
X111529797Y-126739579D01*
X111525870Y-126744325D01*
X111431802Y-126918299D01*
X111373318Y-127107232D01*
X111352645Y-127303925D01*
X111370570Y-127500888D01*
X111372308Y-127506794D01*
X111372309Y-127506798D01*
X111376387Y-127520653D01*
X111426410Y-127690619D01*
X111429263Y-127696077D01*
X111429265Y-127696081D01*
X111476720Y-127786853D01*
X111518040Y-127865890D01*
X111641968Y-128020025D01*
X111646692Y-128023989D01*
X111653933Y-128030065D01*
X111793474Y-128147154D01*
X111798872Y-128150121D01*
X111798877Y-128150125D01*
X111942180Y-128228905D01*
X111966787Y-128242433D01*
X111972654Y-128244294D01*
X111972656Y-128244295D01*
X112149436Y-128300373D01*
X112155306Y-128302235D01*
X112309227Y-128319500D01*
X112415769Y-128319500D01*
X112418825Y-128319200D01*
X112418832Y-128319200D01*
X112477340Y-128313463D01*
X112562833Y-128305080D01*
X112568734Y-128303298D01*
X112568736Y-128303298D01*
X112642053Y-128281162D01*
X112752169Y-128247916D01*
X112926796Y-128155066D01*
X113013062Y-128084709D01*
X113075287Y-128033960D01*
X113075290Y-128033957D01*
X113080062Y-128030065D01*
X113132892Y-127966205D01*
X113134416Y-127964363D01*
X113193249Y-127924625D01*
X113264227Y-127923004D01*
X113324815Y-127960013D01*
X113355775Y-128023903D01*
X113357500Y-128044679D01*
X113357500Y-130676500D01*
X113337498Y-130744621D01*
X113283842Y-130791114D01*
X113231500Y-130802500D01*
X71500500Y-130802500D01*
X71432379Y-130782498D01*
X71385886Y-130728842D01*
X71374500Y-130676500D01*
X71374500Y-128045158D01*
X71394502Y-127977037D01*
X71448158Y-127930544D01*
X71518432Y-127920440D01*
X71583012Y-127949934D01*
X71598693Y-127966202D01*
X71641968Y-128020025D01*
X71646692Y-128023989D01*
X71653933Y-128030065D01*
X71793474Y-128147154D01*
X71798872Y-128150121D01*
X71798877Y-128150125D01*
X71942180Y-128228905D01*
X71966787Y-128242433D01*
X71972654Y-128244294D01*
X71972656Y-128244295D01*
X72149436Y-128300373D01*
X72155306Y-128302235D01*
X72309227Y-128319500D01*
X72415769Y-128319500D01*
X72418825Y-128319200D01*
X72418832Y-128319200D01*
X72477340Y-128313463D01*
X72562833Y-128305080D01*
X72568734Y-128303298D01*
X72568736Y-128303298D01*
X72642053Y-128281162D01*
X72752169Y-128247916D01*
X72926796Y-128155066D01*
X73013062Y-128084709D01*
X73075287Y-128033960D01*
X73075290Y-128033957D01*
X73080062Y-128030065D01*
X73132892Y-127966205D01*
X73202201Y-127882425D01*
X73202203Y-127882421D01*
X73206130Y-127877675D01*
X73300198Y-127703701D01*
X73358682Y-127514768D01*
X73379355Y-127318075D01*
X73361430Y-127121112D01*
X73356222Y-127103414D01*
X73307330Y-126937294D01*
X73305590Y-126931381D01*
X73295919Y-126912881D01*
X73216813Y-126761568D01*
X73213960Y-126756110D01*
X73090032Y-126601975D01*
X73083727Y-126596684D01*
X73060080Y-126576842D01*
X72938526Y-126474846D01*
X72933128Y-126471879D01*
X72933123Y-126471875D01*
X72770608Y-126382533D01*
X72770609Y-126382533D01*
X72765213Y-126379567D01*
X72759346Y-126377706D01*
X72759344Y-126377705D01*
X72582564Y-126321627D01*
X72582563Y-126321627D01*
X72576694Y-126319765D01*
X72422773Y-126302500D01*
X72316231Y-126302500D01*
X72313175Y-126302800D01*
X72313168Y-126302800D01*
X72254660Y-126308537D01*
X72169167Y-126316920D01*
X72163266Y-126318702D01*
X72163264Y-126318702D01*
X72089947Y-126340838D01*
X71979831Y-126374084D01*
X71805204Y-126466934D01*
X71718938Y-126537291D01*
X71656713Y-126588040D01*
X71656710Y-126588043D01*
X71651938Y-126591935D01*
X71648011Y-126596682D01*
X71648008Y-126596685D01*
X71597584Y-126657637D01*
X71538751Y-126697375D01*
X71467773Y-126698996D01*
X71407185Y-126661987D01*
X71376225Y-126598097D01*
X71374500Y-126577321D01*
X71374500Y-123945500D01*
X71394502Y-123877379D01*
X71448158Y-123830886D01*
X71500500Y-123819500D01*
X113231500Y-123819500D01*
X113299621Y-123839502D01*
G37*
%TD.AperFunction*%
%TD*%
%TA.AperFunction,Conductor*%
%TO.N,GND*%
G36*
X156299621Y-123839502D02*
G01*
X156346114Y-123893158D01*
X156357500Y-123945500D01*
X156357500Y-126576842D01*
X156337498Y-126644963D01*
X156283842Y-126691456D01*
X156213568Y-126701560D01*
X156148988Y-126672066D01*
X156133304Y-126655795D01*
X156093892Y-126606776D01*
X156090032Y-126601975D01*
X156083727Y-126596684D01*
X156060080Y-126576842D01*
X155938526Y-126474846D01*
X155933128Y-126471879D01*
X155933123Y-126471875D01*
X155770608Y-126382533D01*
X155770609Y-126382533D01*
X155765213Y-126379567D01*
X155759346Y-126377706D01*
X155759344Y-126377705D01*
X155582564Y-126321627D01*
X155582563Y-126321627D01*
X155576694Y-126319765D01*
X155422773Y-126302500D01*
X155316231Y-126302500D01*
X155313175Y-126302800D01*
X155313168Y-126302800D01*
X155254660Y-126308537D01*
X155169167Y-126316920D01*
X155163266Y-126318702D01*
X155163264Y-126318702D01*
X155089947Y-126340838D01*
X154979831Y-126374084D01*
X154805204Y-126466934D01*
X154718938Y-126537291D01*
X154656713Y-126588040D01*
X154656710Y-126588043D01*
X154651938Y-126591935D01*
X154648011Y-126596682D01*
X154648009Y-126596684D01*
X154529799Y-126739575D01*
X154529797Y-126739579D01*
X154525870Y-126744325D01*
X154431802Y-126918299D01*
X154373318Y-127107232D01*
X154352645Y-127303925D01*
X154370570Y-127500888D01*
X154372308Y-127506794D01*
X154372309Y-127506798D01*
X154376387Y-127520653D01*
X154426410Y-127690619D01*
X154429263Y-127696077D01*
X154429265Y-127696081D01*
X154476720Y-127786853D01*
X154518040Y-127865890D01*
X154641968Y-128020025D01*
X154646692Y-128023989D01*
X154653933Y-128030065D01*
X154793474Y-128147154D01*
X154798872Y-128150121D01*
X154798877Y-128150125D01*
X154942180Y-128228905D01*
X154966787Y-128242433D01*
X154972654Y-128244294D01*
X154972656Y-128244295D01*
X155149436Y-128300373D01*
X155155306Y-128302235D01*
X155309227Y-128319500D01*
X155415769Y-128319500D01*
X155418825Y-128319200D01*
X155418832Y-128319200D01*
X155477340Y-128313463D01*
X155562833Y-128305080D01*
X155568734Y-128303298D01*
X155568736Y-128303298D01*
X155642053Y-128281162D01*
X155752169Y-128247916D01*
X155926796Y-128155066D01*
X156013062Y-128084709D01*
X156075287Y-128033960D01*
X156075290Y-128033957D01*
X156080062Y-128030065D01*
X156132892Y-127966205D01*
X156134416Y-127964363D01*
X156193249Y-127924625D01*
X156264227Y-127923004D01*
X156324815Y-127960013D01*
X156355775Y-128023903D01*
X156357500Y-128044679D01*
X156357500Y-130676500D01*
X156337498Y-130744621D01*
X156283842Y-130791114D01*
X156231500Y-130802500D01*
X114500500Y-130802500D01*
X114432379Y-130782498D01*
X114385886Y-130728842D01*
X114374500Y-130676500D01*
X114374500Y-128045158D01*
X114394502Y-127977037D01*
X114448158Y-127930544D01*
X114518432Y-127920440D01*
X114583012Y-127949934D01*
X114598693Y-127966202D01*
X114641968Y-128020025D01*
X114646692Y-128023989D01*
X114653933Y-128030065D01*
X114793474Y-128147154D01*
X114798872Y-128150121D01*
X114798877Y-128150125D01*
X114942180Y-128228905D01*
X114966787Y-128242433D01*
X114972654Y-128244294D01*
X114972656Y-128244295D01*
X115149436Y-128300373D01*
X115155306Y-128302235D01*
X115309227Y-128319500D01*
X115415769Y-128319500D01*
X115418825Y-128319200D01*
X115418832Y-128319200D01*
X115477340Y-128313463D01*
X115562833Y-128305080D01*
X115568734Y-128303298D01*
X115568736Y-128303298D01*
X115642053Y-128281162D01*
X115752169Y-128247916D01*
X115926796Y-128155066D01*
X116013062Y-128084709D01*
X116075287Y-128033960D01*
X116075290Y-128033957D01*
X116080062Y-128030065D01*
X116132892Y-127966205D01*
X116202201Y-127882425D01*
X116202203Y-127882421D01*
X116206130Y-127877675D01*
X116300198Y-127703701D01*
X116358682Y-127514768D01*
X116379355Y-127318075D01*
X116361430Y-127121112D01*
X116356222Y-127103414D01*
X116307330Y-126937294D01*
X116305590Y-126931381D01*
X116295919Y-126912881D01*
X116216813Y-126761568D01*
X116213960Y-126756110D01*
X116090032Y-126601975D01*
X116083727Y-126596684D01*
X116060080Y-126576842D01*
X115938526Y-126474846D01*
X115933128Y-126471879D01*
X115933123Y-126471875D01*
X115770608Y-126382533D01*
X115770609Y-126382533D01*
X115765213Y-126379567D01*
X115759346Y-126377706D01*
X115759344Y-126377705D01*
X115582564Y-126321627D01*
X115582563Y-126321627D01*
X115576694Y-126319765D01*
X115422773Y-126302500D01*
X115316231Y-126302500D01*
X115313175Y-126302800D01*
X115313168Y-126302800D01*
X115254660Y-126308537D01*
X115169167Y-126316920D01*
X115163266Y-126318702D01*
X115163264Y-126318702D01*
X115089947Y-126340838D01*
X114979831Y-126374084D01*
X114805204Y-126466934D01*
X114718938Y-126537291D01*
X114656713Y-126588040D01*
X114656710Y-126588043D01*
X114651938Y-126591935D01*
X114648011Y-126596682D01*
X114648008Y-126596685D01*
X114597584Y-126657637D01*
X114538751Y-126697375D01*
X114467773Y-126698996D01*
X114407185Y-126661987D01*
X114376225Y-126598097D01*
X114374500Y-126577321D01*
X114374500Y-123945500D01*
X114394502Y-123877379D01*
X114448158Y-123830886D01*
X114500500Y-123819500D01*
X156231500Y-123819500D01*
X156299621Y-123839502D01*
G37*
%TD.AperFunction*%
%TD*%
%TA.AperFunction,Conductor*%
%TO.N,GND*%
G36*
X113299621Y-131839502D02*
G01*
X113346114Y-131893158D01*
X113357500Y-131945500D01*
X113357500Y-134576842D01*
X113337498Y-134644963D01*
X113283842Y-134691456D01*
X113213568Y-134701560D01*
X113148988Y-134672066D01*
X113133304Y-134655795D01*
X113093892Y-134606776D01*
X113090032Y-134601975D01*
X113083727Y-134596684D01*
X113060080Y-134576842D01*
X112938526Y-134474846D01*
X112933128Y-134471879D01*
X112933123Y-134471875D01*
X112770608Y-134382533D01*
X112770609Y-134382533D01*
X112765213Y-134379567D01*
X112759346Y-134377706D01*
X112759344Y-134377705D01*
X112582564Y-134321627D01*
X112582563Y-134321627D01*
X112576694Y-134319765D01*
X112422773Y-134302500D01*
X112316231Y-134302500D01*
X112313175Y-134302800D01*
X112313168Y-134302800D01*
X112254660Y-134308537D01*
X112169167Y-134316920D01*
X112163266Y-134318702D01*
X112163264Y-134318702D01*
X112089947Y-134340838D01*
X111979831Y-134374084D01*
X111805204Y-134466934D01*
X111718938Y-134537291D01*
X111656713Y-134588040D01*
X111656710Y-134588043D01*
X111651938Y-134591935D01*
X111648011Y-134596682D01*
X111648009Y-134596684D01*
X111529799Y-134739575D01*
X111529797Y-134739579D01*
X111525870Y-134744325D01*
X111431802Y-134918299D01*
X111373318Y-135107232D01*
X111352645Y-135303925D01*
X111370570Y-135500888D01*
X111372308Y-135506794D01*
X111372309Y-135506798D01*
X111376387Y-135520653D01*
X111426410Y-135690619D01*
X111429263Y-135696077D01*
X111429265Y-135696081D01*
X111476720Y-135786853D01*
X111518040Y-135865890D01*
X111641968Y-136020025D01*
X111646692Y-136023989D01*
X111653933Y-136030065D01*
X111793474Y-136147154D01*
X111798872Y-136150121D01*
X111798877Y-136150125D01*
X111942180Y-136228905D01*
X111966787Y-136242433D01*
X111972654Y-136244294D01*
X111972656Y-136244295D01*
X112149436Y-136300373D01*
X112155306Y-136302235D01*
X112309227Y-136319500D01*
X112415769Y-136319500D01*
X112418825Y-136319200D01*
X112418832Y-136319200D01*
X112477340Y-136313463D01*
X112562833Y-136305080D01*
X112568734Y-136303298D01*
X112568736Y-136303298D01*
X112642053Y-136281162D01*
X112752169Y-136247916D01*
X112926796Y-136155066D01*
X113013062Y-136084709D01*
X113075287Y-136033960D01*
X113075290Y-136033957D01*
X113080062Y-136030065D01*
X113132892Y-135966205D01*
X113134416Y-135964363D01*
X113193249Y-135924625D01*
X113264227Y-135923004D01*
X113324815Y-135960013D01*
X113355775Y-136023903D01*
X113357500Y-136044679D01*
X113357500Y-138676500D01*
X113337498Y-138744621D01*
X113283842Y-138791114D01*
X113231500Y-138802500D01*
X71500500Y-138802500D01*
X71432379Y-138782498D01*
X71385886Y-138728842D01*
X71374500Y-138676500D01*
X71374500Y-136045158D01*
X71394502Y-135977037D01*
X71448158Y-135930544D01*
X71518432Y-135920440D01*
X71583012Y-135949934D01*
X71598693Y-135966202D01*
X71641968Y-136020025D01*
X71646692Y-136023989D01*
X71653933Y-136030065D01*
X71793474Y-136147154D01*
X71798872Y-136150121D01*
X71798877Y-136150125D01*
X71942180Y-136228905D01*
X71966787Y-136242433D01*
X71972654Y-136244294D01*
X71972656Y-136244295D01*
X72149436Y-136300373D01*
X72155306Y-136302235D01*
X72309227Y-136319500D01*
X72415769Y-136319500D01*
X72418825Y-136319200D01*
X72418832Y-136319200D01*
X72477340Y-136313463D01*
X72562833Y-136305080D01*
X72568734Y-136303298D01*
X72568736Y-136303298D01*
X72642053Y-136281162D01*
X72752169Y-136247916D01*
X72926796Y-136155066D01*
X73013062Y-136084709D01*
X73075287Y-136033960D01*
X73075290Y-136033957D01*
X73080062Y-136030065D01*
X73132892Y-135966205D01*
X73202201Y-135882425D01*
X73202203Y-135882421D01*
X73206130Y-135877675D01*
X73300198Y-135703701D01*
X73358682Y-135514768D01*
X73379355Y-135318075D01*
X73361430Y-135121112D01*
X73356222Y-135103414D01*
X73307330Y-134937294D01*
X73305590Y-134931381D01*
X73295919Y-134912881D01*
X73216813Y-134761568D01*
X73213960Y-134756110D01*
X73090032Y-134601975D01*
X73083727Y-134596684D01*
X73060080Y-134576842D01*
X72938526Y-134474846D01*
X72933128Y-134471879D01*
X72933123Y-134471875D01*
X72770608Y-134382533D01*
X72770609Y-134382533D01*
X72765213Y-134379567D01*
X72759346Y-134377706D01*
X72759344Y-134377705D01*
X72582564Y-134321627D01*
X72582563Y-134321627D01*
X72576694Y-134319765D01*
X72422773Y-134302500D01*
X72316231Y-134302500D01*
X72313175Y-134302800D01*
X72313168Y-134302800D01*
X72254660Y-134308537D01*
X72169167Y-134316920D01*
X72163266Y-134318702D01*
X72163264Y-134318702D01*
X72089947Y-134340838D01*
X71979831Y-134374084D01*
X71805204Y-134466934D01*
X71718938Y-134537291D01*
X71656713Y-134588040D01*
X71656710Y-134588043D01*
X71651938Y-134591935D01*
X71648011Y-134596682D01*
X71648008Y-134596685D01*
X71597584Y-134657637D01*
X71538751Y-134697375D01*
X71467773Y-134698996D01*
X71407185Y-134661987D01*
X71376225Y-134598097D01*
X71374500Y-134577321D01*
X71374500Y-131945500D01*
X71394502Y-131877379D01*
X71448158Y-131830886D01*
X71500500Y-131819500D01*
X113231500Y-131819500D01*
X113299621Y-131839502D01*
G37*
%TD.AperFunction*%
%TD*%
%TA.AperFunction,Conductor*%
%TO.N,GND*%
G36*
X156299621Y-131839502D02*
G01*
X156346114Y-131893158D01*
X156357500Y-131945500D01*
X156357500Y-134576842D01*
X156337498Y-134644963D01*
X156283842Y-134691456D01*
X156213568Y-134701560D01*
X156148988Y-134672066D01*
X156133304Y-134655795D01*
X156093892Y-134606776D01*
X156090032Y-134601975D01*
X156083727Y-134596684D01*
X156060080Y-134576842D01*
X155938526Y-134474846D01*
X155933128Y-134471879D01*
X155933123Y-134471875D01*
X155770608Y-134382533D01*
X155770609Y-134382533D01*
X155765213Y-134379567D01*
X155759346Y-134377706D01*
X155759344Y-134377705D01*
X155582564Y-134321627D01*
X155582563Y-134321627D01*
X155576694Y-134319765D01*
X155422773Y-134302500D01*
X155316231Y-134302500D01*
X155313175Y-134302800D01*
X155313168Y-134302800D01*
X155254660Y-134308537D01*
X155169167Y-134316920D01*
X155163266Y-134318702D01*
X155163264Y-134318702D01*
X155089947Y-134340838D01*
X154979831Y-134374084D01*
X154805204Y-134466934D01*
X154718938Y-134537291D01*
X154656713Y-134588040D01*
X154656710Y-134588043D01*
X154651938Y-134591935D01*
X154648011Y-134596682D01*
X154648009Y-134596684D01*
X154529799Y-134739575D01*
X154529797Y-134739579D01*
X154525870Y-134744325D01*
X154431802Y-134918299D01*
X154373318Y-135107232D01*
X154352645Y-135303925D01*
X154370570Y-135500888D01*
X154372308Y-135506794D01*
X154372309Y-135506798D01*
X154376387Y-135520653D01*
X154426410Y-135690619D01*
X154429263Y-135696077D01*
X154429265Y-135696081D01*
X154476720Y-135786853D01*
X154518040Y-135865890D01*
X154641968Y-136020025D01*
X154646692Y-136023989D01*
X154653933Y-136030065D01*
X154793474Y-136147154D01*
X154798872Y-136150121D01*
X154798877Y-136150125D01*
X154942180Y-136228905D01*
X154966787Y-136242433D01*
X154972654Y-136244294D01*
X154972656Y-136244295D01*
X155149436Y-136300373D01*
X155155306Y-136302235D01*
X155309227Y-136319500D01*
X155415769Y-136319500D01*
X155418825Y-136319200D01*
X155418832Y-136319200D01*
X155477340Y-136313463D01*
X155562833Y-136305080D01*
X155568734Y-136303298D01*
X155568736Y-136303298D01*
X155642053Y-136281162D01*
X155752169Y-136247916D01*
X155926796Y-136155066D01*
X156013062Y-136084709D01*
X156075287Y-136033960D01*
X156075290Y-136033957D01*
X156080062Y-136030065D01*
X156132892Y-135966205D01*
X156134416Y-135964363D01*
X156193249Y-135924625D01*
X156264227Y-135923004D01*
X156324815Y-135960013D01*
X156355775Y-136023903D01*
X156357500Y-136044679D01*
X156357500Y-138676500D01*
X156337498Y-138744621D01*
X156283842Y-138791114D01*
X156231500Y-138802500D01*
X114500500Y-138802500D01*
X114432379Y-138782498D01*
X114385886Y-138728842D01*
X114374500Y-138676500D01*
X114374500Y-136045158D01*
X114394502Y-135977037D01*
X114448158Y-135930544D01*
X114518432Y-135920440D01*
X114583012Y-135949934D01*
X114598693Y-135966202D01*
X114641968Y-136020025D01*
X114646692Y-136023989D01*
X114653933Y-136030065D01*
X114793474Y-136147154D01*
X114798872Y-136150121D01*
X114798877Y-136150125D01*
X114942180Y-136228905D01*
X114966787Y-136242433D01*
X114972654Y-136244294D01*
X114972656Y-136244295D01*
X115149436Y-136300373D01*
X115155306Y-136302235D01*
X115309227Y-136319500D01*
X115415769Y-136319500D01*
X115418825Y-136319200D01*
X115418832Y-136319200D01*
X115477340Y-136313463D01*
X115562833Y-136305080D01*
X115568734Y-136303298D01*
X115568736Y-136303298D01*
X115642053Y-136281162D01*
X115752169Y-136247916D01*
X115926796Y-136155066D01*
X116013062Y-136084709D01*
X116075287Y-136033960D01*
X116075290Y-136033957D01*
X116080062Y-136030065D01*
X116132892Y-135966205D01*
X116202201Y-135882425D01*
X116202203Y-135882421D01*
X116206130Y-135877675D01*
X116300198Y-135703701D01*
X116358682Y-135514768D01*
X116379355Y-135318075D01*
X116361430Y-135121112D01*
X116356222Y-135103414D01*
X116307330Y-134937294D01*
X116305590Y-134931381D01*
X116295919Y-134912881D01*
X116216813Y-134761568D01*
X116213960Y-134756110D01*
X116090032Y-134601975D01*
X116083727Y-134596684D01*
X116060080Y-134576842D01*
X115938526Y-134474846D01*
X115933128Y-134471879D01*
X115933123Y-134471875D01*
X115770608Y-134382533D01*
X115770609Y-134382533D01*
X115765213Y-134379567D01*
X115759346Y-134377706D01*
X115759344Y-134377705D01*
X115582564Y-134321627D01*
X115582563Y-134321627D01*
X115576694Y-134319765D01*
X115422773Y-134302500D01*
X115316231Y-134302500D01*
X115313175Y-134302800D01*
X115313168Y-134302800D01*
X115254660Y-134308537D01*
X115169167Y-134316920D01*
X115163266Y-134318702D01*
X115163264Y-134318702D01*
X115089947Y-134340838D01*
X114979831Y-134374084D01*
X114805204Y-134466934D01*
X114718938Y-134537291D01*
X114656713Y-134588040D01*
X114656710Y-134588043D01*
X114651938Y-134591935D01*
X114648011Y-134596682D01*
X114648008Y-134596685D01*
X114597584Y-134657637D01*
X114538751Y-134697375D01*
X114467773Y-134698996D01*
X114407185Y-134661987D01*
X114376225Y-134598097D01*
X114374500Y-134577321D01*
X114374500Y-131945500D01*
X114394502Y-131877379D01*
X114448158Y-131830886D01*
X114500500Y-131819500D01*
X156231500Y-131819500D01*
X156299621Y-131839502D01*
G37*
%TD.AperFunction*%
%TD*%
%TA.AperFunction,Conductor*%
%TO.N,GND*%
G36*
X113299621Y-139839502D02*
G01*
X113346114Y-139893158D01*
X113357500Y-139945500D01*
X113357500Y-142576842D01*
X113337498Y-142644963D01*
X113283842Y-142691456D01*
X113213568Y-142701560D01*
X113148988Y-142672066D01*
X113133304Y-142655795D01*
X113093892Y-142606776D01*
X113090032Y-142601975D01*
X113083727Y-142596684D01*
X113060080Y-142576842D01*
X112938526Y-142474846D01*
X112933128Y-142471879D01*
X112933123Y-142471875D01*
X112770608Y-142382533D01*
X112770609Y-142382533D01*
X112765213Y-142379567D01*
X112759346Y-142377706D01*
X112759344Y-142377705D01*
X112582564Y-142321627D01*
X112582563Y-142321627D01*
X112576694Y-142319765D01*
X112422773Y-142302500D01*
X112316231Y-142302500D01*
X112313175Y-142302800D01*
X112313168Y-142302800D01*
X112254660Y-142308537D01*
X112169167Y-142316920D01*
X112163266Y-142318702D01*
X112163264Y-142318702D01*
X112089947Y-142340838D01*
X111979831Y-142374084D01*
X111805204Y-142466934D01*
X111718938Y-142537291D01*
X111656713Y-142588040D01*
X111656710Y-142588043D01*
X111651938Y-142591935D01*
X111648011Y-142596682D01*
X111648009Y-142596684D01*
X111529799Y-142739575D01*
X111529797Y-142739579D01*
X111525870Y-142744325D01*
X111431802Y-142918299D01*
X111373318Y-143107232D01*
X111352645Y-143303925D01*
X111370570Y-143500888D01*
X111372308Y-143506794D01*
X111372309Y-143506798D01*
X111376387Y-143520653D01*
X111426410Y-143690619D01*
X111429263Y-143696077D01*
X111429265Y-143696081D01*
X111476720Y-143786853D01*
X111518040Y-143865890D01*
X111641968Y-144020025D01*
X111646692Y-144023989D01*
X111653933Y-144030065D01*
X111793474Y-144147154D01*
X111798872Y-144150121D01*
X111798877Y-144150125D01*
X111942180Y-144228905D01*
X111966787Y-144242433D01*
X111972654Y-144244294D01*
X111972656Y-144244295D01*
X112149436Y-144300373D01*
X112155306Y-144302235D01*
X112309227Y-144319500D01*
X112415769Y-144319500D01*
X112418825Y-144319200D01*
X112418832Y-144319200D01*
X112477340Y-144313463D01*
X112562833Y-144305080D01*
X112568734Y-144303298D01*
X112568736Y-144303298D01*
X112642053Y-144281162D01*
X112752169Y-144247916D01*
X112926796Y-144155066D01*
X113013062Y-144084709D01*
X113075287Y-144033960D01*
X113075290Y-144033957D01*
X113080062Y-144030065D01*
X113132892Y-143966205D01*
X113134416Y-143964363D01*
X113193249Y-143924625D01*
X113264227Y-143923004D01*
X113324815Y-143960013D01*
X113355775Y-144023903D01*
X113357500Y-144044679D01*
X113357500Y-146676500D01*
X113337498Y-146744621D01*
X113283842Y-146791114D01*
X113231500Y-146802500D01*
X71500500Y-146802500D01*
X71432379Y-146782498D01*
X71385886Y-146728842D01*
X71374500Y-146676500D01*
X71374500Y-144045158D01*
X71394502Y-143977037D01*
X71448158Y-143930544D01*
X71518432Y-143920440D01*
X71583012Y-143949934D01*
X71598693Y-143966202D01*
X71641968Y-144020025D01*
X71646692Y-144023989D01*
X71653933Y-144030065D01*
X71793474Y-144147154D01*
X71798872Y-144150121D01*
X71798877Y-144150125D01*
X71942180Y-144228905D01*
X71966787Y-144242433D01*
X71972654Y-144244294D01*
X71972656Y-144244295D01*
X72149436Y-144300373D01*
X72155306Y-144302235D01*
X72309227Y-144319500D01*
X72415769Y-144319500D01*
X72418825Y-144319200D01*
X72418832Y-144319200D01*
X72477340Y-144313463D01*
X72562833Y-144305080D01*
X72568734Y-144303298D01*
X72568736Y-144303298D01*
X72642053Y-144281162D01*
X72752169Y-144247916D01*
X72926796Y-144155066D01*
X73013062Y-144084709D01*
X73075287Y-144033960D01*
X73075290Y-144033957D01*
X73080062Y-144030065D01*
X73132892Y-143966205D01*
X73202201Y-143882425D01*
X73202203Y-143882421D01*
X73206130Y-143877675D01*
X73300198Y-143703701D01*
X73358682Y-143514768D01*
X73379355Y-143318075D01*
X73361430Y-143121112D01*
X73356222Y-143103414D01*
X73307330Y-142937294D01*
X73305590Y-142931381D01*
X73295919Y-142912881D01*
X73216813Y-142761568D01*
X73213960Y-142756110D01*
X73090032Y-142601975D01*
X73083727Y-142596684D01*
X73060080Y-142576842D01*
X72938526Y-142474846D01*
X72933128Y-142471879D01*
X72933123Y-142471875D01*
X72770608Y-142382533D01*
X72770609Y-142382533D01*
X72765213Y-142379567D01*
X72759346Y-142377706D01*
X72759344Y-142377705D01*
X72582564Y-142321627D01*
X72582563Y-142321627D01*
X72576694Y-142319765D01*
X72422773Y-142302500D01*
X72316231Y-142302500D01*
X72313175Y-142302800D01*
X72313168Y-142302800D01*
X72254660Y-142308537D01*
X72169167Y-142316920D01*
X72163266Y-142318702D01*
X72163264Y-142318702D01*
X72089947Y-142340838D01*
X71979831Y-142374084D01*
X71805204Y-142466934D01*
X71718938Y-142537291D01*
X71656713Y-142588040D01*
X71656710Y-142588043D01*
X71651938Y-142591935D01*
X71648011Y-142596682D01*
X71648008Y-142596685D01*
X71597584Y-142657637D01*
X71538751Y-142697375D01*
X71467773Y-142698996D01*
X71407185Y-142661987D01*
X71376225Y-142598097D01*
X71374500Y-142577321D01*
X71374500Y-139945500D01*
X71394502Y-139877379D01*
X71448158Y-139830886D01*
X71500500Y-139819500D01*
X113231500Y-139819500D01*
X113299621Y-139839502D01*
G37*
%TD.AperFunction*%
%TD*%
%TA.AperFunction,Conductor*%
%TO.N,GND*%
G36*
X156299621Y-139839502D02*
G01*
X156346114Y-139893158D01*
X156357500Y-139945500D01*
X156357500Y-142576842D01*
X156337498Y-142644963D01*
X156283842Y-142691456D01*
X156213568Y-142701560D01*
X156148988Y-142672066D01*
X156133304Y-142655795D01*
X156093892Y-142606776D01*
X156090032Y-142601975D01*
X156083727Y-142596684D01*
X156060080Y-142576842D01*
X155938526Y-142474846D01*
X155933128Y-142471879D01*
X155933123Y-142471875D01*
X155770608Y-142382533D01*
X155770609Y-142382533D01*
X155765213Y-142379567D01*
X155759346Y-142377706D01*
X155759344Y-142377705D01*
X155582564Y-142321627D01*
X155582563Y-142321627D01*
X155576694Y-142319765D01*
X155422773Y-142302500D01*
X155316231Y-142302500D01*
X155313175Y-142302800D01*
X155313168Y-142302800D01*
X155254660Y-142308537D01*
X155169167Y-142316920D01*
X155163266Y-142318702D01*
X155163264Y-142318702D01*
X155089947Y-142340838D01*
X154979831Y-142374084D01*
X154805204Y-142466934D01*
X154718938Y-142537291D01*
X154656713Y-142588040D01*
X154656710Y-142588043D01*
X154651938Y-142591935D01*
X154648011Y-142596682D01*
X154648009Y-142596684D01*
X154529799Y-142739575D01*
X154529797Y-142739579D01*
X154525870Y-142744325D01*
X154431802Y-142918299D01*
X154373318Y-143107232D01*
X154352645Y-143303925D01*
X154370570Y-143500888D01*
X154372308Y-143506794D01*
X154372309Y-143506798D01*
X154376387Y-143520653D01*
X154426410Y-143690619D01*
X154429263Y-143696077D01*
X154429265Y-143696081D01*
X154476720Y-143786853D01*
X154518040Y-143865890D01*
X154641968Y-144020025D01*
X154646692Y-144023989D01*
X154653933Y-144030065D01*
X154793474Y-144147154D01*
X154798872Y-144150121D01*
X154798877Y-144150125D01*
X154942180Y-144228905D01*
X154966787Y-144242433D01*
X154972654Y-144244294D01*
X154972656Y-144244295D01*
X155149436Y-144300373D01*
X155155306Y-144302235D01*
X155309227Y-144319500D01*
X155415769Y-144319500D01*
X155418825Y-144319200D01*
X155418832Y-144319200D01*
X155477340Y-144313463D01*
X155562833Y-144305080D01*
X155568734Y-144303298D01*
X155568736Y-144303298D01*
X155642053Y-144281162D01*
X155752169Y-144247916D01*
X155926796Y-144155066D01*
X156013062Y-144084709D01*
X156075287Y-144033960D01*
X156075290Y-144033957D01*
X156080062Y-144030065D01*
X156132892Y-143966205D01*
X156134416Y-143964363D01*
X156193249Y-143924625D01*
X156264227Y-143923004D01*
X156324815Y-143960013D01*
X156355775Y-144023903D01*
X156357500Y-144044679D01*
X156357500Y-146676500D01*
X156337498Y-146744621D01*
X156283842Y-146791114D01*
X156231500Y-146802500D01*
X114500500Y-146802500D01*
X114432379Y-146782498D01*
X114385886Y-146728842D01*
X114374500Y-146676500D01*
X114374500Y-144045158D01*
X114394502Y-143977037D01*
X114448158Y-143930544D01*
X114518432Y-143920440D01*
X114583012Y-143949934D01*
X114598693Y-143966202D01*
X114641968Y-144020025D01*
X114646692Y-144023989D01*
X114653933Y-144030065D01*
X114793474Y-144147154D01*
X114798872Y-144150121D01*
X114798877Y-144150125D01*
X114942180Y-144228905D01*
X114966787Y-144242433D01*
X114972654Y-144244294D01*
X114972656Y-144244295D01*
X115149436Y-144300373D01*
X115155306Y-144302235D01*
X115309227Y-144319500D01*
X115415769Y-144319500D01*
X115418825Y-144319200D01*
X115418832Y-144319200D01*
X115477340Y-144313463D01*
X115562833Y-144305080D01*
X115568734Y-144303298D01*
X115568736Y-144303298D01*
X115642053Y-144281162D01*
X115752169Y-144247916D01*
X115926796Y-144155066D01*
X116013062Y-144084709D01*
X116075287Y-144033960D01*
X116075290Y-144033957D01*
X116080062Y-144030065D01*
X116132892Y-143966205D01*
X116202201Y-143882425D01*
X116202203Y-143882421D01*
X116206130Y-143877675D01*
X116300198Y-143703701D01*
X116358682Y-143514768D01*
X116379355Y-143318075D01*
X116361430Y-143121112D01*
X116356222Y-143103414D01*
X116307330Y-142937294D01*
X116305590Y-142931381D01*
X116295919Y-142912881D01*
X116216813Y-142761568D01*
X116213960Y-142756110D01*
X116090032Y-142601975D01*
X116083727Y-142596684D01*
X116060080Y-142576842D01*
X115938526Y-142474846D01*
X115933128Y-142471879D01*
X115933123Y-142471875D01*
X115770608Y-142382533D01*
X115770609Y-142382533D01*
X115765213Y-142379567D01*
X115759346Y-142377706D01*
X115759344Y-142377705D01*
X115582564Y-142321627D01*
X115582563Y-142321627D01*
X115576694Y-142319765D01*
X115422773Y-142302500D01*
X115316231Y-142302500D01*
X115313175Y-142302800D01*
X115313168Y-142302800D01*
X115254660Y-142308537D01*
X115169167Y-142316920D01*
X115163266Y-142318702D01*
X115163264Y-142318702D01*
X115089947Y-142340838D01*
X114979831Y-142374084D01*
X114805204Y-142466934D01*
X114718938Y-142537291D01*
X114656713Y-142588040D01*
X114656710Y-142588043D01*
X114651938Y-142591935D01*
X114648011Y-142596682D01*
X114648008Y-142596685D01*
X114597584Y-142657637D01*
X114538751Y-142697375D01*
X114467773Y-142698996D01*
X114407185Y-142661987D01*
X114376225Y-142598097D01*
X114374500Y-142577321D01*
X114374500Y-139945500D01*
X114394502Y-139877379D01*
X114448158Y-139830886D01*
X114500500Y-139819500D01*
X156231500Y-139819500D01*
X156299621Y-139839502D01*
G37*
%TD.AperFunction*%
%TD*%
%TA.AperFunction,Conductor*%
%TO.N,GND*%
G36*
X113299621Y-147839502D02*
G01*
X113346114Y-147893158D01*
X113357500Y-147945500D01*
X113357500Y-150576842D01*
X113337498Y-150644963D01*
X113283842Y-150691456D01*
X113213568Y-150701560D01*
X113148988Y-150672066D01*
X113133304Y-150655795D01*
X113093892Y-150606776D01*
X113090032Y-150601975D01*
X113083727Y-150596684D01*
X113060080Y-150576842D01*
X112938526Y-150474846D01*
X112933128Y-150471879D01*
X112933123Y-150471875D01*
X112770608Y-150382533D01*
X112770609Y-150382533D01*
X112765213Y-150379567D01*
X112759346Y-150377706D01*
X112759344Y-150377705D01*
X112582564Y-150321627D01*
X112582563Y-150321627D01*
X112576694Y-150319765D01*
X112422773Y-150302500D01*
X112316231Y-150302500D01*
X112313175Y-150302800D01*
X112313168Y-150302800D01*
X112254660Y-150308537D01*
X112169167Y-150316920D01*
X112163266Y-150318702D01*
X112163264Y-150318702D01*
X112089947Y-150340838D01*
X111979831Y-150374084D01*
X111805204Y-150466934D01*
X111718938Y-150537291D01*
X111656713Y-150588040D01*
X111656710Y-150588043D01*
X111651938Y-150591935D01*
X111648011Y-150596682D01*
X111648009Y-150596684D01*
X111529799Y-150739575D01*
X111529797Y-150739579D01*
X111525870Y-150744325D01*
X111431802Y-150918299D01*
X111373318Y-151107232D01*
X111352645Y-151303925D01*
X111370570Y-151500888D01*
X111372308Y-151506794D01*
X111372309Y-151506798D01*
X111376387Y-151520653D01*
X111426410Y-151690619D01*
X111429263Y-151696077D01*
X111429265Y-151696081D01*
X111476720Y-151786853D01*
X111518040Y-151865890D01*
X111641968Y-152020025D01*
X111646692Y-152023989D01*
X111653933Y-152030065D01*
X111793474Y-152147154D01*
X111798872Y-152150121D01*
X111798877Y-152150125D01*
X111942180Y-152228905D01*
X111966787Y-152242433D01*
X111972654Y-152244294D01*
X111972656Y-152244295D01*
X112149436Y-152300373D01*
X112155306Y-152302235D01*
X112309227Y-152319500D01*
X112415769Y-152319500D01*
X112418825Y-152319200D01*
X112418832Y-152319200D01*
X112477340Y-152313463D01*
X112562833Y-152305080D01*
X112568734Y-152303298D01*
X112568736Y-152303298D01*
X112642053Y-152281162D01*
X112752169Y-152247916D01*
X112926796Y-152155066D01*
X113013062Y-152084709D01*
X113075287Y-152033960D01*
X113075290Y-152033957D01*
X113080062Y-152030065D01*
X113132892Y-151966205D01*
X113134416Y-151964363D01*
X113193249Y-151924625D01*
X113264227Y-151923004D01*
X113324815Y-151960013D01*
X113355775Y-152023903D01*
X113357500Y-152044679D01*
X113357500Y-154676500D01*
X113337498Y-154744621D01*
X113283842Y-154791114D01*
X113231500Y-154802500D01*
X71500500Y-154802500D01*
X71432379Y-154782498D01*
X71385886Y-154728842D01*
X71374500Y-154676500D01*
X71374500Y-152045158D01*
X71394502Y-151977037D01*
X71448158Y-151930544D01*
X71518432Y-151920440D01*
X71583012Y-151949934D01*
X71598693Y-151966202D01*
X71641968Y-152020025D01*
X71646692Y-152023989D01*
X71653933Y-152030065D01*
X71793474Y-152147154D01*
X71798872Y-152150121D01*
X71798877Y-152150125D01*
X71942180Y-152228905D01*
X71966787Y-152242433D01*
X71972654Y-152244294D01*
X71972656Y-152244295D01*
X72149436Y-152300373D01*
X72155306Y-152302235D01*
X72309227Y-152319500D01*
X72415769Y-152319500D01*
X72418825Y-152319200D01*
X72418832Y-152319200D01*
X72477340Y-152313463D01*
X72562833Y-152305080D01*
X72568734Y-152303298D01*
X72568736Y-152303298D01*
X72642053Y-152281162D01*
X72752169Y-152247916D01*
X72926796Y-152155066D01*
X73013062Y-152084709D01*
X73075287Y-152033960D01*
X73075290Y-152033957D01*
X73080062Y-152030065D01*
X73132892Y-151966205D01*
X73202201Y-151882425D01*
X73202203Y-151882421D01*
X73206130Y-151877675D01*
X73300198Y-151703701D01*
X73358682Y-151514768D01*
X73379355Y-151318075D01*
X73361430Y-151121112D01*
X73356222Y-151103414D01*
X73307330Y-150937294D01*
X73305590Y-150931381D01*
X73295919Y-150912881D01*
X73216813Y-150761568D01*
X73213960Y-150756110D01*
X73090032Y-150601975D01*
X73083727Y-150596684D01*
X73060080Y-150576842D01*
X72938526Y-150474846D01*
X72933128Y-150471879D01*
X72933123Y-150471875D01*
X72770608Y-150382533D01*
X72770609Y-150382533D01*
X72765213Y-150379567D01*
X72759346Y-150377706D01*
X72759344Y-150377705D01*
X72582564Y-150321627D01*
X72582563Y-150321627D01*
X72576694Y-150319765D01*
X72422773Y-150302500D01*
X72316231Y-150302500D01*
X72313175Y-150302800D01*
X72313168Y-150302800D01*
X72254660Y-150308537D01*
X72169167Y-150316920D01*
X72163266Y-150318702D01*
X72163264Y-150318702D01*
X72089947Y-150340838D01*
X71979831Y-150374084D01*
X71805204Y-150466934D01*
X71718938Y-150537291D01*
X71656713Y-150588040D01*
X71656710Y-150588043D01*
X71651938Y-150591935D01*
X71648011Y-150596682D01*
X71648008Y-150596685D01*
X71597584Y-150657637D01*
X71538751Y-150697375D01*
X71467773Y-150698996D01*
X71407185Y-150661987D01*
X71376225Y-150598097D01*
X71374500Y-150577321D01*
X71374500Y-147945500D01*
X71394502Y-147877379D01*
X71448158Y-147830886D01*
X71500500Y-147819500D01*
X113231500Y-147819500D01*
X113299621Y-147839502D01*
G37*
%TD.AperFunction*%
%TD*%
%TA.AperFunction,Conductor*%
%TO.N,GND*%
G36*
X156299621Y-147839502D02*
G01*
X156346114Y-147893158D01*
X156357500Y-147945500D01*
X156357500Y-150576842D01*
X156337498Y-150644963D01*
X156283842Y-150691456D01*
X156213568Y-150701560D01*
X156148988Y-150672066D01*
X156133304Y-150655795D01*
X156093892Y-150606776D01*
X156090032Y-150601975D01*
X156083727Y-150596684D01*
X156060080Y-150576842D01*
X155938526Y-150474846D01*
X155933128Y-150471879D01*
X155933123Y-150471875D01*
X155770608Y-150382533D01*
X155770609Y-150382533D01*
X155765213Y-150379567D01*
X155759346Y-150377706D01*
X155759344Y-150377705D01*
X155582564Y-150321627D01*
X155582563Y-150321627D01*
X155576694Y-150319765D01*
X155422773Y-150302500D01*
X155316231Y-150302500D01*
X155313175Y-150302800D01*
X155313168Y-150302800D01*
X155254660Y-150308537D01*
X155169167Y-150316920D01*
X155163266Y-150318702D01*
X155163264Y-150318702D01*
X155089947Y-150340838D01*
X154979831Y-150374084D01*
X154805204Y-150466934D01*
X154718938Y-150537291D01*
X154656713Y-150588040D01*
X154656710Y-150588043D01*
X154651938Y-150591935D01*
X154648011Y-150596682D01*
X154648009Y-150596684D01*
X154529799Y-150739575D01*
X154529797Y-150739579D01*
X154525870Y-150744325D01*
X154431802Y-150918299D01*
X154373318Y-151107232D01*
X154352645Y-151303925D01*
X154370570Y-151500888D01*
X154372308Y-151506794D01*
X154372309Y-151506798D01*
X154376387Y-151520653D01*
X154426410Y-151690619D01*
X154429263Y-151696077D01*
X154429265Y-151696081D01*
X154476720Y-151786853D01*
X154518040Y-151865890D01*
X154641968Y-152020025D01*
X154646692Y-152023989D01*
X154653933Y-152030065D01*
X154793474Y-152147154D01*
X154798872Y-152150121D01*
X154798877Y-152150125D01*
X154942180Y-152228905D01*
X154966787Y-152242433D01*
X154972654Y-152244294D01*
X154972656Y-152244295D01*
X155149436Y-152300373D01*
X155155306Y-152302235D01*
X155309227Y-152319500D01*
X155415769Y-152319500D01*
X155418825Y-152319200D01*
X155418832Y-152319200D01*
X155477340Y-152313463D01*
X155562833Y-152305080D01*
X155568734Y-152303298D01*
X155568736Y-152303298D01*
X155642053Y-152281162D01*
X155752169Y-152247916D01*
X155926796Y-152155066D01*
X156013062Y-152084709D01*
X156075287Y-152033960D01*
X156075290Y-152033957D01*
X156080062Y-152030065D01*
X156132892Y-151966205D01*
X156134416Y-151964363D01*
X156193249Y-151924625D01*
X156264227Y-151923004D01*
X156324815Y-151960013D01*
X156355775Y-152023903D01*
X156357500Y-152044679D01*
X156357500Y-154676500D01*
X156337498Y-154744621D01*
X156283842Y-154791114D01*
X156231500Y-154802500D01*
X114500500Y-154802500D01*
X114432379Y-154782498D01*
X114385886Y-154728842D01*
X114374500Y-154676500D01*
X114374500Y-152045158D01*
X114394502Y-151977037D01*
X114448158Y-151930544D01*
X114518432Y-151920440D01*
X114583012Y-151949934D01*
X114598693Y-151966202D01*
X114641968Y-152020025D01*
X114646692Y-152023989D01*
X114653933Y-152030065D01*
X114793474Y-152147154D01*
X114798872Y-152150121D01*
X114798877Y-152150125D01*
X114942180Y-152228905D01*
X114966787Y-152242433D01*
X114972654Y-152244294D01*
X114972656Y-152244295D01*
X115149436Y-152300373D01*
X115155306Y-152302235D01*
X115309227Y-152319500D01*
X115415769Y-152319500D01*
X115418825Y-152319200D01*
X115418832Y-152319200D01*
X115477340Y-152313463D01*
X115562833Y-152305080D01*
X115568734Y-152303298D01*
X115568736Y-152303298D01*
X115642053Y-152281162D01*
X115752169Y-152247916D01*
X115926796Y-152155066D01*
X116013062Y-152084709D01*
X116075287Y-152033960D01*
X116075290Y-152033957D01*
X116080062Y-152030065D01*
X116132892Y-151966205D01*
X116202201Y-151882425D01*
X116202203Y-151882421D01*
X116206130Y-151877675D01*
X116300198Y-151703701D01*
X116358682Y-151514768D01*
X116379355Y-151318075D01*
X116361430Y-151121112D01*
X116356222Y-151103414D01*
X116307330Y-150937294D01*
X116305590Y-150931381D01*
X116295919Y-150912881D01*
X116216813Y-150761568D01*
X116213960Y-150756110D01*
X116090032Y-150601975D01*
X116083727Y-150596684D01*
X116060080Y-150576842D01*
X115938526Y-150474846D01*
X115933128Y-150471879D01*
X115933123Y-150471875D01*
X115770608Y-150382533D01*
X115770609Y-150382533D01*
X115765213Y-150379567D01*
X115759346Y-150377706D01*
X115759344Y-150377705D01*
X115582564Y-150321627D01*
X115582563Y-150321627D01*
X115576694Y-150319765D01*
X115422773Y-150302500D01*
X115316231Y-150302500D01*
X115313175Y-150302800D01*
X115313168Y-150302800D01*
X115254660Y-150308537D01*
X115169167Y-150316920D01*
X115163266Y-150318702D01*
X115163264Y-150318702D01*
X115089947Y-150340838D01*
X114979831Y-150374084D01*
X114805204Y-150466934D01*
X114718938Y-150537291D01*
X114656713Y-150588040D01*
X114656710Y-150588043D01*
X114651938Y-150591935D01*
X114648011Y-150596682D01*
X114648008Y-150596685D01*
X114597584Y-150657637D01*
X114538751Y-150697375D01*
X114467773Y-150698996D01*
X114407185Y-150661987D01*
X114376225Y-150598097D01*
X114374500Y-150577321D01*
X114374500Y-147945500D01*
X114394502Y-147877379D01*
X114448158Y-147830886D01*
X114500500Y-147819500D01*
X156231500Y-147819500D01*
X156299621Y-147839502D01*
G37*
%TD.AperFunction*%
%TD*%
%TA.AperFunction,Conductor*%
%TO.N,GND*%
G36*
X113299621Y-155839502D02*
G01*
X113346114Y-155893158D01*
X113357500Y-155945500D01*
X113357500Y-158576842D01*
X113337498Y-158644963D01*
X113283842Y-158691456D01*
X113213568Y-158701560D01*
X113148988Y-158672066D01*
X113133304Y-158655795D01*
X113093892Y-158606776D01*
X113090032Y-158601975D01*
X113083727Y-158596684D01*
X113060080Y-158576842D01*
X112938526Y-158474846D01*
X112933128Y-158471879D01*
X112933123Y-158471875D01*
X112770608Y-158382533D01*
X112770609Y-158382533D01*
X112765213Y-158379567D01*
X112759346Y-158377706D01*
X112759344Y-158377705D01*
X112582564Y-158321627D01*
X112582563Y-158321627D01*
X112576694Y-158319765D01*
X112422773Y-158302500D01*
X112316231Y-158302500D01*
X112313175Y-158302800D01*
X112313168Y-158302800D01*
X112254660Y-158308537D01*
X112169167Y-158316920D01*
X112163266Y-158318702D01*
X112163264Y-158318702D01*
X112089947Y-158340838D01*
X111979831Y-158374084D01*
X111805204Y-158466934D01*
X111718938Y-158537291D01*
X111656713Y-158588040D01*
X111656710Y-158588043D01*
X111651938Y-158591935D01*
X111648011Y-158596682D01*
X111648009Y-158596684D01*
X111529799Y-158739575D01*
X111529797Y-158739579D01*
X111525870Y-158744325D01*
X111431802Y-158918299D01*
X111373318Y-159107232D01*
X111352645Y-159303925D01*
X111370570Y-159500888D01*
X111372308Y-159506794D01*
X111372309Y-159506798D01*
X111376387Y-159520653D01*
X111426410Y-159690619D01*
X111429263Y-159696077D01*
X111429265Y-159696081D01*
X111476720Y-159786853D01*
X111518040Y-159865890D01*
X111641968Y-160020025D01*
X111646692Y-160023989D01*
X111653933Y-160030065D01*
X111793474Y-160147154D01*
X111798872Y-160150121D01*
X111798877Y-160150125D01*
X111942180Y-160228905D01*
X111966787Y-160242433D01*
X111972654Y-160244294D01*
X111972656Y-160244295D01*
X112149436Y-160300373D01*
X112155306Y-160302235D01*
X112309227Y-160319500D01*
X112415769Y-160319500D01*
X112418825Y-160319200D01*
X112418832Y-160319200D01*
X112477340Y-160313463D01*
X112562833Y-160305080D01*
X112568734Y-160303298D01*
X112568736Y-160303298D01*
X112642053Y-160281162D01*
X112752169Y-160247916D01*
X112926796Y-160155066D01*
X113013062Y-160084709D01*
X113075287Y-160033960D01*
X113075290Y-160033957D01*
X113080062Y-160030065D01*
X113132892Y-159966205D01*
X113134416Y-159964363D01*
X113193249Y-159924625D01*
X113264227Y-159923004D01*
X113324815Y-159960013D01*
X113355775Y-160023903D01*
X113357500Y-160044679D01*
X113357500Y-162676500D01*
X113337498Y-162744621D01*
X113283842Y-162791114D01*
X113231500Y-162802500D01*
X71500500Y-162802500D01*
X71432379Y-162782498D01*
X71385886Y-162728842D01*
X71374500Y-162676500D01*
X71374500Y-160045158D01*
X71394502Y-159977037D01*
X71448158Y-159930544D01*
X71518432Y-159920440D01*
X71583012Y-159949934D01*
X71598693Y-159966202D01*
X71641968Y-160020025D01*
X71646692Y-160023989D01*
X71653933Y-160030065D01*
X71793474Y-160147154D01*
X71798872Y-160150121D01*
X71798877Y-160150125D01*
X71942180Y-160228905D01*
X71966787Y-160242433D01*
X71972654Y-160244294D01*
X71972656Y-160244295D01*
X72149436Y-160300373D01*
X72155306Y-160302235D01*
X72309227Y-160319500D01*
X72415769Y-160319500D01*
X72418825Y-160319200D01*
X72418832Y-160319200D01*
X72477340Y-160313463D01*
X72562833Y-160305080D01*
X72568734Y-160303298D01*
X72568736Y-160303298D01*
X72642053Y-160281162D01*
X72752169Y-160247916D01*
X72926796Y-160155066D01*
X73013062Y-160084709D01*
X73075287Y-160033960D01*
X73075290Y-160033957D01*
X73080062Y-160030065D01*
X73132892Y-159966205D01*
X73202201Y-159882425D01*
X73202203Y-159882421D01*
X73206130Y-159877675D01*
X73300198Y-159703701D01*
X73358682Y-159514768D01*
X73379355Y-159318075D01*
X73361430Y-159121112D01*
X73356222Y-159103414D01*
X73307330Y-158937294D01*
X73305590Y-158931381D01*
X73295919Y-158912881D01*
X73216813Y-158761568D01*
X73213960Y-158756110D01*
X73090032Y-158601975D01*
X73083727Y-158596684D01*
X73060080Y-158576842D01*
X72938526Y-158474846D01*
X72933128Y-158471879D01*
X72933123Y-158471875D01*
X72770608Y-158382533D01*
X72770609Y-158382533D01*
X72765213Y-158379567D01*
X72759346Y-158377706D01*
X72759344Y-158377705D01*
X72582564Y-158321627D01*
X72582563Y-158321627D01*
X72576694Y-158319765D01*
X72422773Y-158302500D01*
X72316231Y-158302500D01*
X72313175Y-158302800D01*
X72313168Y-158302800D01*
X72254660Y-158308537D01*
X72169167Y-158316920D01*
X72163266Y-158318702D01*
X72163264Y-158318702D01*
X72089947Y-158340838D01*
X71979831Y-158374084D01*
X71805204Y-158466934D01*
X71718938Y-158537291D01*
X71656713Y-158588040D01*
X71656710Y-158588043D01*
X71651938Y-158591935D01*
X71648011Y-158596682D01*
X71648008Y-158596685D01*
X71597584Y-158657637D01*
X71538751Y-158697375D01*
X71467773Y-158698996D01*
X71407185Y-158661987D01*
X71376225Y-158598097D01*
X71374500Y-158577321D01*
X71374500Y-155945500D01*
X71394502Y-155877379D01*
X71448158Y-155830886D01*
X71500500Y-155819500D01*
X113231500Y-155819500D01*
X113299621Y-155839502D01*
G37*
%TD.AperFunction*%
%TD*%
%TA.AperFunction,Conductor*%
%TO.N,GND*%
G36*
X156299621Y-155839502D02*
G01*
X156346114Y-155893158D01*
X156357500Y-155945500D01*
X156357500Y-158576842D01*
X156337498Y-158644963D01*
X156283842Y-158691456D01*
X156213568Y-158701560D01*
X156148988Y-158672066D01*
X156133304Y-158655795D01*
X156093892Y-158606776D01*
X156090032Y-158601975D01*
X156083727Y-158596684D01*
X156060080Y-158576842D01*
X155938526Y-158474846D01*
X155933128Y-158471879D01*
X155933123Y-158471875D01*
X155770608Y-158382533D01*
X155770609Y-158382533D01*
X155765213Y-158379567D01*
X155759346Y-158377706D01*
X155759344Y-158377705D01*
X155582564Y-158321627D01*
X155582563Y-158321627D01*
X155576694Y-158319765D01*
X155422773Y-158302500D01*
X155316231Y-158302500D01*
X155313175Y-158302800D01*
X155313168Y-158302800D01*
X155254660Y-158308537D01*
X155169167Y-158316920D01*
X155163266Y-158318702D01*
X155163264Y-158318702D01*
X155089947Y-158340838D01*
X154979831Y-158374084D01*
X154805204Y-158466934D01*
X154718938Y-158537291D01*
X154656713Y-158588040D01*
X154656710Y-158588043D01*
X154651938Y-158591935D01*
X154648011Y-158596682D01*
X154648009Y-158596684D01*
X154529799Y-158739575D01*
X154529797Y-158739579D01*
X154525870Y-158744325D01*
X154431802Y-158918299D01*
X154373318Y-159107232D01*
X154352645Y-159303925D01*
X154370570Y-159500888D01*
X154372308Y-159506794D01*
X154372309Y-159506798D01*
X154376387Y-159520653D01*
X154426410Y-159690619D01*
X154429263Y-159696077D01*
X154429265Y-159696081D01*
X154476720Y-159786853D01*
X154518040Y-159865890D01*
X154641968Y-160020025D01*
X154646692Y-160023989D01*
X154653933Y-160030065D01*
X154793474Y-160147154D01*
X154798872Y-160150121D01*
X154798877Y-160150125D01*
X154942180Y-160228905D01*
X154966787Y-160242433D01*
X154972654Y-160244294D01*
X154972656Y-160244295D01*
X155149436Y-160300373D01*
X155155306Y-160302235D01*
X155309227Y-160319500D01*
X155415769Y-160319500D01*
X155418825Y-160319200D01*
X155418832Y-160319200D01*
X155477340Y-160313463D01*
X155562833Y-160305080D01*
X155568734Y-160303298D01*
X155568736Y-160303298D01*
X155642053Y-160281162D01*
X155752169Y-160247916D01*
X155926796Y-160155066D01*
X156013062Y-160084709D01*
X156075287Y-160033960D01*
X156075290Y-160033957D01*
X156080062Y-160030065D01*
X156132892Y-159966205D01*
X156134416Y-159964363D01*
X156193249Y-159924625D01*
X156264227Y-159923004D01*
X156324815Y-159960013D01*
X156355775Y-160023903D01*
X156357500Y-160044679D01*
X156357500Y-162676500D01*
X156337498Y-162744621D01*
X156283842Y-162791114D01*
X156231500Y-162802500D01*
X114500500Y-162802500D01*
X114432379Y-162782498D01*
X114385886Y-162728842D01*
X114374500Y-162676500D01*
X114374500Y-160045158D01*
X114394502Y-159977037D01*
X114448158Y-159930544D01*
X114518432Y-159920440D01*
X114583012Y-159949934D01*
X114598693Y-159966202D01*
X114641968Y-160020025D01*
X114646692Y-160023989D01*
X114653933Y-160030065D01*
X114793474Y-160147154D01*
X114798872Y-160150121D01*
X114798877Y-160150125D01*
X114942180Y-160228905D01*
X114966787Y-160242433D01*
X114972654Y-160244294D01*
X114972656Y-160244295D01*
X115149436Y-160300373D01*
X115155306Y-160302235D01*
X115309227Y-160319500D01*
X115415769Y-160319500D01*
X115418825Y-160319200D01*
X115418832Y-160319200D01*
X115477340Y-160313463D01*
X115562833Y-160305080D01*
X115568734Y-160303298D01*
X115568736Y-160303298D01*
X115642053Y-160281162D01*
X115752169Y-160247916D01*
X115926796Y-160155066D01*
X116013062Y-160084709D01*
X116075287Y-160033960D01*
X116075290Y-160033957D01*
X116080062Y-160030065D01*
X116132892Y-159966205D01*
X116202201Y-159882425D01*
X116202203Y-159882421D01*
X116206130Y-159877675D01*
X116300198Y-159703701D01*
X116358682Y-159514768D01*
X116379355Y-159318075D01*
X116361430Y-159121112D01*
X116356222Y-159103414D01*
X116307330Y-158937294D01*
X116305590Y-158931381D01*
X116295919Y-158912881D01*
X116216813Y-158761568D01*
X116213960Y-158756110D01*
X116090032Y-158601975D01*
X116083727Y-158596684D01*
X116060080Y-158576842D01*
X115938526Y-158474846D01*
X115933128Y-158471879D01*
X115933123Y-158471875D01*
X115770608Y-158382533D01*
X115770609Y-158382533D01*
X115765213Y-158379567D01*
X115759346Y-158377706D01*
X115759344Y-158377705D01*
X115582564Y-158321627D01*
X115582563Y-158321627D01*
X115576694Y-158319765D01*
X115422773Y-158302500D01*
X115316231Y-158302500D01*
X115313175Y-158302800D01*
X115313168Y-158302800D01*
X115254660Y-158308537D01*
X115169167Y-158316920D01*
X115163266Y-158318702D01*
X115163264Y-158318702D01*
X115089947Y-158340838D01*
X114979831Y-158374084D01*
X114805204Y-158466934D01*
X114718938Y-158537291D01*
X114656713Y-158588040D01*
X114656710Y-158588043D01*
X114651938Y-158591935D01*
X114648011Y-158596682D01*
X114648008Y-158596685D01*
X114597584Y-158657637D01*
X114538751Y-158697375D01*
X114467773Y-158698996D01*
X114407185Y-158661987D01*
X114376225Y-158598097D01*
X114374500Y-158577321D01*
X114374500Y-155945500D01*
X114394502Y-155877379D01*
X114448158Y-155830886D01*
X114500500Y-155819500D01*
X156231500Y-155819500D01*
X156299621Y-155839502D01*
G37*
%TD.AperFunction*%
%TD*%
%TA.AperFunction,Conductor*%
%TO.N,GND*%
G36*
X113299621Y-163839502D02*
G01*
X113346114Y-163893158D01*
X113357500Y-163945500D01*
X113357500Y-166576842D01*
X113337498Y-166644963D01*
X113283842Y-166691456D01*
X113213568Y-166701560D01*
X113148988Y-166672066D01*
X113133304Y-166655795D01*
X113093892Y-166606776D01*
X113090032Y-166601975D01*
X113083727Y-166596684D01*
X113060080Y-166576842D01*
X112938526Y-166474846D01*
X112933128Y-166471879D01*
X112933123Y-166471875D01*
X112770608Y-166382533D01*
X112770609Y-166382533D01*
X112765213Y-166379567D01*
X112759346Y-166377706D01*
X112759344Y-166377705D01*
X112582564Y-166321627D01*
X112582563Y-166321627D01*
X112576694Y-166319765D01*
X112422773Y-166302500D01*
X112316231Y-166302500D01*
X112313175Y-166302800D01*
X112313168Y-166302800D01*
X112254660Y-166308537D01*
X112169167Y-166316920D01*
X112163266Y-166318702D01*
X112163264Y-166318702D01*
X112089947Y-166340838D01*
X111979831Y-166374084D01*
X111805204Y-166466934D01*
X111718938Y-166537291D01*
X111656713Y-166588040D01*
X111656710Y-166588043D01*
X111651938Y-166591935D01*
X111648011Y-166596682D01*
X111648009Y-166596684D01*
X111529799Y-166739575D01*
X111529797Y-166739579D01*
X111525870Y-166744325D01*
X111431802Y-166918299D01*
X111373318Y-167107232D01*
X111352645Y-167303925D01*
X111370570Y-167500888D01*
X111372308Y-167506794D01*
X111372309Y-167506798D01*
X111376387Y-167520653D01*
X111426410Y-167690619D01*
X111429263Y-167696077D01*
X111429265Y-167696081D01*
X111476720Y-167786853D01*
X111518040Y-167865890D01*
X111641968Y-168020025D01*
X111646692Y-168023989D01*
X111653933Y-168030065D01*
X111793474Y-168147154D01*
X111798872Y-168150121D01*
X111798877Y-168150125D01*
X111942180Y-168228905D01*
X111966787Y-168242433D01*
X111972654Y-168244294D01*
X111972656Y-168244295D01*
X112149436Y-168300373D01*
X112155306Y-168302235D01*
X112309227Y-168319500D01*
X112415769Y-168319500D01*
X112418825Y-168319200D01*
X112418832Y-168319200D01*
X112477340Y-168313463D01*
X112562833Y-168305080D01*
X112568734Y-168303298D01*
X112568736Y-168303298D01*
X112642053Y-168281162D01*
X112752169Y-168247916D01*
X112926796Y-168155066D01*
X113013062Y-168084709D01*
X113075287Y-168033960D01*
X113075290Y-168033957D01*
X113080062Y-168030065D01*
X113132892Y-167966205D01*
X113134416Y-167964363D01*
X113193249Y-167924625D01*
X113264227Y-167923004D01*
X113324815Y-167960013D01*
X113355775Y-168023903D01*
X113357500Y-168044679D01*
X113357500Y-170676500D01*
X113337498Y-170744621D01*
X113283842Y-170791114D01*
X113231500Y-170802500D01*
X71500500Y-170802500D01*
X71432379Y-170782498D01*
X71385886Y-170728842D01*
X71374500Y-170676500D01*
X71374500Y-168045158D01*
X71394502Y-167977037D01*
X71448158Y-167930544D01*
X71518432Y-167920440D01*
X71583012Y-167949934D01*
X71598693Y-167966202D01*
X71641968Y-168020025D01*
X71646692Y-168023989D01*
X71653933Y-168030065D01*
X71793474Y-168147154D01*
X71798872Y-168150121D01*
X71798877Y-168150125D01*
X71942180Y-168228905D01*
X71966787Y-168242433D01*
X71972654Y-168244294D01*
X71972656Y-168244295D01*
X72149436Y-168300373D01*
X72155306Y-168302235D01*
X72309227Y-168319500D01*
X72415769Y-168319500D01*
X72418825Y-168319200D01*
X72418832Y-168319200D01*
X72477340Y-168313463D01*
X72562833Y-168305080D01*
X72568734Y-168303298D01*
X72568736Y-168303298D01*
X72642053Y-168281162D01*
X72752169Y-168247916D01*
X72926796Y-168155066D01*
X73013062Y-168084709D01*
X73075287Y-168033960D01*
X73075290Y-168033957D01*
X73080062Y-168030065D01*
X73132892Y-167966205D01*
X73202201Y-167882425D01*
X73202203Y-167882421D01*
X73206130Y-167877675D01*
X73300198Y-167703701D01*
X73358682Y-167514768D01*
X73379355Y-167318075D01*
X73361430Y-167121112D01*
X73356222Y-167103414D01*
X73307330Y-166937294D01*
X73305590Y-166931381D01*
X73295919Y-166912881D01*
X73216813Y-166761568D01*
X73213960Y-166756110D01*
X73090032Y-166601975D01*
X73083727Y-166596684D01*
X73060080Y-166576842D01*
X72938526Y-166474846D01*
X72933128Y-166471879D01*
X72933123Y-166471875D01*
X72770608Y-166382533D01*
X72770609Y-166382533D01*
X72765213Y-166379567D01*
X72759346Y-166377706D01*
X72759344Y-166377705D01*
X72582564Y-166321627D01*
X72582563Y-166321627D01*
X72576694Y-166319765D01*
X72422773Y-166302500D01*
X72316231Y-166302500D01*
X72313175Y-166302800D01*
X72313168Y-166302800D01*
X72254660Y-166308537D01*
X72169167Y-166316920D01*
X72163266Y-166318702D01*
X72163264Y-166318702D01*
X72089947Y-166340838D01*
X71979831Y-166374084D01*
X71805204Y-166466934D01*
X71718938Y-166537291D01*
X71656713Y-166588040D01*
X71656710Y-166588043D01*
X71651938Y-166591935D01*
X71648011Y-166596682D01*
X71648008Y-166596685D01*
X71597584Y-166657637D01*
X71538751Y-166697375D01*
X71467773Y-166698996D01*
X71407185Y-166661987D01*
X71376225Y-166598097D01*
X71374500Y-166577321D01*
X71374500Y-163945500D01*
X71394502Y-163877379D01*
X71448158Y-163830886D01*
X71500500Y-163819500D01*
X113231500Y-163819500D01*
X113299621Y-163839502D01*
G37*
%TD.AperFunction*%
%TD*%
%TA.AperFunction,Conductor*%
%TO.N,GND*%
G36*
X156299621Y-163839502D02*
G01*
X156346114Y-163893158D01*
X156357500Y-163945500D01*
X156357500Y-166576842D01*
X156337498Y-166644963D01*
X156283842Y-166691456D01*
X156213568Y-166701560D01*
X156148988Y-166672066D01*
X156133304Y-166655795D01*
X156093892Y-166606776D01*
X156090032Y-166601975D01*
X156083727Y-166596684D01*
X156060080Y-166576842D01*
X155938526Y-166474846D01*
X155933128Y-166471879D01*
X155933123Y-166471875D01*
X155770608Y-166382533D01*
X155770609Y-166382533D01*
X155765213Y-166379567D01*
X155759346Y-166377706D01*
X155759344Y-166377705D01*
X155582564Y-166321627D01*
X155582563Y-166321627D01*
X155576694Y-166319765D01*
X155422773Y-166302500D01*
X155316231Y-166302500D01*
X155313175Y-166302800D01*
X155313168Y-166302800D01*
X155254660Y-166308537D01*
X155169167Y-166316920D01*
X155163266Y-166318702D01*
X155163264Y-166318702D01*
X155089947Y-166340838D01*
X154979831Y-166374084D01*
X154805204Y-166466934D01*
X154718938Y-166537291D01*
X154656713Y-166588040D01*
X154656710Y-166588043D01*
X154651938Y-166591935D01*
X154648011Y-166596682D01*
X154648009Y-166596684D01*
X154529799Y-166739575D01*
X154529797Y-166739579D01*
X154525870Y-166744325D01*
X154431802Y-166918299D01*
X154373318Y-167107232D01*
X154352645Y-167303925D01*
X154370570Y-167500888D01*
X154372308Y-167506794D01*
X154372309Y-167506798D01*
X154376387Y-167520653D01*
X154426410Y-167690619D01*
X154429263Y-167696077D01*
X154429265Y-167696081D01*
X154476720Y-167786853D01*
X154518040Y-167865890D01*
X154641968Y-168020025D01*
X154646692Y-168023989D01*
X154653933Y-168030065D01*
X154793474Y-168147154D01*
X154798872Y-168150121D01*
X154798877Y-168150125D01*
X154942180Y-168228905D01*
X154966787Y-168242433D01*
X154972654Y-168244294D01*
X154972656Y-168244295D01*
X155149436Y-168300373D01*
X155155306Y-168302235D01*
X155309227Y-168319500D01*
X155415769Y-168319500D01*
X155418825Y-168319200D01*
X155418832Y-168319200D01*
X155477340Y-168313463D01*
X155562833Y-168305080D01*
X155568734Y-168303298D01*
X155568736Y-168303298D01*
X155642053Y-168281162D01*
X155752169Y-168247916D01*
X155926796Y-168155066D01*
X156013062Y-168084709D01*
X156075287Y-168033960D01*
X156075290Y-168033957D01*
X156080062Y-168030065D01*
X156132892Y-167966205D01*
X156134416Y-167964363D01*
X156193249Y-167924625D01*
X156264227Y-167923004D01*
X156324815Y-167960013D01*
X156355775Y-168023903D01*
X156357500Y-168044679D01*
X156357500Y-170676500D01*
X156337498Y-170744621D01*
X156283842Y-170791114D01*
X156231500Y-170802500D01*
X114500500Y-170802500D01*
X114432379Y-170782498D01*
X114385886Y-170728842D01*
X114374500Y-170676500D01*
X114374500Y-168045158D01*
X114394502Y-167977037D01*
X114448158Y-167930544D01*
X114518432Y-167920440D01*
X114583012Y-167949934D01*
X114598693Y-167966202D01*
X114641968Y-168020025D01*
X114646692Y-168023989D01*
X114653933Y-168030065D01*
X114793474Y-168147154D01*
X114798872Y-168150121D01*
X114798877Y-168150125D01*
X114942180Y-168228905D01*
X114966787Y-168242433D01*
X114972654Y-168244294D01*
X114972656Y-168244295D01*
X115149436Y-168300373D01*
X115155306Y-168302235D01*
X115309227Y-168319500D01*
X115415769Y-168319500D01*
X115418825Y-168319200D01*
X115418832Y-168319200D01*
X115477340Y-168313463D01*
X115562833Y-168305080D01*
X115568734Y-168303298D01*
X115568736Y-168303298D01*
X115642053Y-168281162D01*
X115752169Y-168247916D01*
X115926796Y-168155066D01*
X116013062Y-168084709D01*
X116075287Y-168033960D01*
X116075290Y-168033957D01*
X116080062Y-168030065D01*
X116132892Y-167966205D01*
X116202201Y-167882425D01*
X116202203Y-167882421D01*
X116206130Y-167877675D01*
X116300198Y-167703701D01*
X116358682Y-167514768D01*
X116379355Y-167318075D01*
X116361430Y-167121112D01*
X116356222Y-167103414D01*
X116307330Y-166937294D01*
X116305590Y-166931381D01*
X116295919Y-166912881D01*
X116216813Y-166761568D01*
X116213960Y-166756110D01*
X116090032Y-166601975D01*
X116083727Y-166596684D01*
X116060080Y-166576842D01*
X115938526Y-166474846D01*
X115933128Y-166471879D01*
X115933123Y-166471875D01*
X115770608Y-166382533D01*
X115770609Y-166382533D01*
X115765213Y-166379567D01*
X115759346Y-166377706D01*
X115759344Y-166377705D01*
X115582564Y-166321627D01*
X115582563Y-166321627D01*
X115576694Y-166319765D01*
X115422773Y-166302500D01*
X115316231Y-166302500D01*
X115313175Y-166302800D01*
X115313168Y-166302800D01*
X115254660Y-166308537D01*
X115169167Y-166316920D01*
X115163266Y-166318702D01*
X115163264Y-166318702D01*
X115089947Y-166340838D01*
X114979831Y-166374084D01*
X114805204Y-166466934D01*
X114718938Y-166537291D01*
X114656713Y-166588040D01*
X114656710Y-166588043D01*
X114651938Y-166591935D01*
X114648011Y-166596682D01*
X114648008Y-166596685D01*
X114597584Y-166657637D01*
X114538751Y-166697375D01*
X114467773Y-166698996D01*
X114407185Y-166661987D01*
X114376225Y-166598097D01*
X114374500Y-166577321D01*
X114374500Y-163945500D01*
X114394502Y-163877379D01*
X114448158Y-163830886D01*
X114500500Y-163819500D01*
X156231500Y-163819500D01*
X156299621Y-163839502D01*
G37*
%TD.AperFunction*%
%TD*%
M02*
