M48
; DRILL file {KiCad 6.0.11-2627ca5db0~126~ubuntu20.04.1} date vie 16 ago 2024 09:41:23
; FORMAT={-:-/ absolute / metric / decimal}
; #@! TF.CreationDate,2024-08-16T09:41:23-05:00
; #@! TF.GenerationSoftware,Kicad,Pcbnew,6.0.11-2627ca5db0~126~ubuntu20.04.1
; #@! TF.FileFunction,Plated,1,2,PTH
FMAT,2
METRIC
; #@! TA.AperFunction,Plated,PTH,ViaDrill
T1C0.400
%
G90
G05
T1
X72.366Y-82.011
X72.366Y-90.011
X72.366Y-98.011
X72.366Y-106.011
X72.366Y-114.011
X72.366Y-122.011
X72.366Y-130.011
X72.366Y-138.011
X72.366Y-146.011
X72.366Y-154.011
X72.366Y-162.011
X72.366Y-170.011
X112.366Y-76.611
X112.366Y-84.611
X112.366Y-92.611
X112.366Y-100.611
X112.366Y-108.611
X112.366Y-116.611
X112.366Y-124.611
X112.366Y-132.611
X112.366Y-140.611
X112.366Y-148.611
X112.366Y-156.611
X112.366Y-164.611
X115.366Y-82.011
X115.366Y-90.011
X115.366Y-98.011
X115.366Y-106.011
X115.366Y-114.011
X115.366Y-122.011
X115.366Y-130.011
X115.366Y-138.011
X115.366Y-146.011
X115.366Y-154.011
X115.366Y-162.011
X115.366Y-170.011
X155.366Y-76.611
X155.366Y-84.611
X155.366Y-92.611
X155.366Y-100.611
X155.366Y-108.611
X155.366Y-116.611
X155.366Y-124.611
X155.366Y-132.611
X155.366Y-140.611
X155.366Y-148.611
X155.366Y-156.611
X155.366Y-164.611
T0
M30
