M48
; DRILL file {KiCad 6.0.11-2627ca5db0~126~ubuntu20.04.1} date lun 05 ago 2024 23:26:12
; FORMAT={-:-/ absolute / metric / decimal}
; #@! TF.CreationDate,2024-08-05T23:26:12-05:00
; #@! TF.GenerationSoftware,Kicad,Pcbnew,6.0.11-2627ca5db0~126~ubuntu20.04.1
; #@! TF.FileFunction,NonPlated,1,2,NPTH
FMAT,2
METRIC
; #@! TA.AperFunction,NonPlated,NPTH,ComponentDrill
T1C2.700
; #@! TA.AperFunction,NonPlated,NPTH,ComponentDrill
T2C3.000
%
G90
G05
T1
X51.5Y-28.0
X51.5Y-66.0
X51.5Y-104.0
X51.5Y-142.0
X111.0Y-28.0
X111.0Y-66.0
X111.0Y-104.0
X111.0Y-142.0
X170.5Y-28.0
X170.5Y-66.0
X170.5Y-104.0
X170.5Y-142.0
T2
X24.64Y-49.44
X24.64Y-59.6
X24.64Y-69.76
X24.64Y-79.92
X24.64Y-90.08
X24.64Y-100.24
X24.64Y-110.4
X24.64Y-120.56
X34.8Y-39.28
X34.8Y-49.44
X34.8Y-59.6
X34.8Y-69.76
X34.8Y-79.92
X34.8Y-90.08
X34.8Y-100.24
X34.8Y-110.4
X34.8Y-120.56
X34.8Y-130.72
X44.96Y-29.12
X44.96Y-39.28
X44.96Y-49.44
X44.96Y-59.6
X44.96Y-69.76
X44.96Y-79.92
X44.96Y-90.08
X44.96Y-100.24
X44.96Y-110.4
X44.96Y-120.56
X44.96Y-130.72
X44.96Y-140.88
X55.12Y-39.28
X55.12Y-49.44
X55.12Y-59.6
X55.12Y-69.76
X55.12Y-79.92
X55.12Y-90.08
X55.12Y-100.24
X55.12Y-110.4
X55.12Y-120.56
X55.12Y-130.72
X65.28Y-29.12
X65.28Y-39.28
X65.28Y-49.44
X65.28Y-59.6
X65.28Y-69.76
X65.28Y-79.92
X65.28Y-90.08
X65.28Y-100.24
X65.28Y-110.4
X65.28Y-120.56
X65.28Y-130.72
X65.28Y-140.88
X75.44Y-29.12
X75.44Y-39.28
X75.44Y-49.44
X75.44Y-59.6
X75.44Y-69.76
X75.44Y-79.92
X75.44Y-90.08
X75.44Y-100.24
X75.44Y-110.4
X75.44Y-120.56
X75.44Y-130.72
X75.44Y-140.88
X85.6Y-29.12
X85.6Y-39.28
X85.6Y-49.44
X85.6Y-59.6
X85.6Y-69.76
X85.6Y-79.92
X85.6Y-90.08
X85.6Y-100.24
X85.6Y-110.4
X85.6Y-120.56
X85.6Y-130.72
X85.6Y-140.88
X95.76Y-29.12
X95.76Y-39.28
X95.76Y-49.44
X95.76Y-59.6
X95.76Y-69.76
X95.76Y-79.92
X95.76Y-90.08
X95.76Y-100.24
X95.76Y-110.4
X95.76Y-120.56
X95.76Y-130.72
X95.76Y-140.88
X105.92Y-29.12
X105.92Y-39.28
X105.92Y-49.44
X105.92Y-59.6
X105.92Y-69.76
X105.92Y-79.92
X105.92Y-90.08
X105.92Y-100.24
X105.92Y-110.4
X105.92Y-120.56
X105.92Y-130.72
X105.92Y-140.88
X116.08Y-29.12
X116.08Y-39.28
X116.08Y-49.44
X116.08Y-59.6
X116.08Y-69.76
X116.08Y-79.92
X116.08Y-90.08
X116.08Y-100.24
X116.08Y-110.4
X116.08Y-120.56
X116.08Y-130.72
X116.08Y-140.88
X126.24Y-29.12
X126.24Y-39.28
X126.24Y-49.44
X126.24Y-59.6
X126.24Y-69.76
X126.24Y-79.92
X126.24Y-90.08
X126.24Y-100.24
X126.24Y-110.4
X126.24Y-120.56
X126.24Y-130.72
X126.24Y-140.88
X136.4Y-29.12
X136.4Y-39.28
X136.4Y-49.44
X136.4Y-59.6
X136.4Y-69.76
X136.4Y-79.92
X136.4Y-90.08
X136.4Y-100.24
X136.4Y-110.4
X136.4Y-120.56
X136.4Y-130.72
X136.4Y-140.88
X146.56Y-29.12
X146.56Y-39.28
X146.56Y-49.44
X146.56Y-59.6
X146.56Y-69.76
X146.56Y-79.92
X146.56Y-90.08
X146.56Y-100.24
X146.56Y-110.4
X146.56Y-120.56
X146.56Y-130.72
X146.56Y-140.88
X156.72Y-29.12
X156.72Y-39.28
X156.72Y-49.44
X156.72Y-59.6
X156.72Y-69.76
X156.72Y-79.92
X156.72Y-90.08
X156.72Y-100.24
X156.72Y-110.4
X156.72Y-120.56
X156.72Y-130.72
X156.72Y-140.88
X166.88Y-39.28
X166.88Y-49.44
X166.88Y-59.6
X166.88Y-69.76
X166.88Y-79.92
X166.88Y-90.08
X166.88Y-100.24
X166.88Y-110.4
X166.88Y-120.56
X166.88Y-130.72
X177.04Y-29.12
X177.04Y-39.28
X177.04Y-49.44
X177.04Y-59.6
X177.04Y-69.76
X177.04Y-79.92
X177.04Y-90.08
X177.04Y-100.24
X177.04Y-110.4
X177.04Y-120.56
X177.04Y-130.72
X177.04Y-140.88
X187.2Y-39.28
X187.2Y-49.44
X187.2Y-59.6
X187.2Y-69.76
X187.2Y-79.92
X187.2Y-90.08
X187.2Y-100.24
X187.2Y-110.4
X187.2Y-120.56
X187.2Y-130.72
X197.36Y-49.44
X197.36Y-59.6
X197.36Y-69.76
X197.36Y-79.92
X197.36Y-90.08
X197.36Y-100.24
X197.36Y-110.4
X197.36Y-120.56
T0
M30
