%TF.GenerationSoftware,KiCad,Pcbnew,7.0.11+dfsg-1build4*%
%TF.CreationDate,2026-09-11T20:20:41-05:00*%
%TF.ProjectId,b06,6230362e-6b69-4636-9164-5f7063625858,rev?*%
%TF.SameCoordinates,Original*%
%TF.FileFunction,Legend,Bot*%
%TF.FilePolarity,Positive*%
%FSLAX46Y46*%
G04 Gerber Fmt 4.6, Leading zero omitted, Abs format (unit mm)*
G04 Created by KiCad (PCBNEW 7.0.11+dfsg-1build4) date 2026-09-11 20:20:41*
%MOMM*%
%LPD*%
G01*
G04 APERTURE LIST*
%ADD10C,0.100000*%
%ADD11C,0.375000*%
%ADD12C,0.300000*%
%ADD13C,0.400000*%
%TA.AperFunction,Profile*%
%ADD14C,0.050000*%
%TD*%
G04 APERTURE END LIST*
D10*
X80010000Y-67310000D02*
X81110000Y-67310000D01*
X81510000Y-67310000D02*
X82610000Y-67310000D01*
X83010000Y-67310000D02*
X84110000Y-67310000D01*
X84510000Y-67310000D02*
X85610000Y-67310000D01*
X86010000Y-67310000D02*
X87110000Y-67310000D01*
X87510000Y-67310000D02*
X88610000Y-67310000D01*
X89010000Y-67310000D02*
X90110000Y-67310000D01*
X90510000Y-67310000D02*
X91610000Y-67310000D01*
X92010000Y-67310000D02*
X93110000Y-67310000D01*
X93510000Y-67310000D02*
X94610000Y-67310000D01*
X95010000Y-67310000D02*
X96110000Y-67310000D01*
X96510000Y-67310000D02*
X97610000Y-67310000D01*
X98010000Y-67310000D02*
X98425000Y-67310000D01*
X98425000Y-67310000D02*
X98425000Y-68410000D01*
X98425000Y-68810000D02*
X98425000Y-69910000D01*
X98425000Y-70310000D02*
X98425000Y-71410000D01*
X98425000Y-71810000D02*
X98425000Y-72910000D01*
X98425000Y-73310000D02*
X98425000Y-74410000D01*
X98425000Y-74810000D02*
X98425000Y-75910000D01*
X98425000Y-76310000D02*
X98425000Y-77410000D01*
X98425000Y-77810000D02*
X98425000Y-78105000D01*
X98425000Y-78105000D02*
X97325000Y-78105000D01*
X96925000Y-78105000D02*
X95825000Y-78105000D01*
X95425000Y-78105000D02*
X94325000Y-78105000D01*
X93925000Y-78105000D02*
X92825000Y-78105000D01*
X92425000Y-78105000D02*
X91325000Y-78105000D01*
X90925000Y-78105000D02*
X89825000Y-78105000D01*
X89425000Y-78105000D02*
X88325000Y-78105000D01*
X87925000Y-78105000D02*
X86825000Y-78105000D01*
X86425000Y-78105000D02*
X85325000Y-78105000D01*
X84925000Y-78105000D02*
X83825000Y-78105000D01*
X83425000Y-78105000D02*
X82325000Y-78105000D01*
X81925000Y-78105000D02*
X80825000Y-78105000D01*
X80425000Y-78105000D02*
X80010000Y-78105000D01*
X80010000Y-78105000D02*
X80010000Y-77005000D01*
X80010000Y-76605000D02*
X80010000Y-75505000D01*
X80010000Y-75105000D02*
X80010000Y-74005000D01*
X80010000Y-73605000D02*
X80010000Y-72505000D01*
X80010000Y-72105000D02*
X80010000Y-71005000D01*
X80010000Y-70605000D02*
X80010000Y-69505000D01*
X80010000Y-69105000D02*
X80010000Y-68005000D01*
X80010000Y-67605000D02*
X80010000Y-67310000D01*
X79850000Y-78000000D02*
X179670000Y-78000000D01*
X172782068Y-47299942D02*
X172839211Y-47271371D01*
X172839211Y-47271371D02*
X172924925Y-47271371D01*
X172924925Y-47271371D02*
X173010639Y-47299942D01*
X173010639Y-47299942D02*
X173067782Y-47357085D01*
X173067782Y-47357085D02*
X173096353Y-47414228D01*
X173096353Y-47414228D02*
X173124925Y-47528514D01*
X173124925Y-47528514D02*
X173124925Y-47614228D01*
X173124925Y-47614228D02*
X173096353Y-47728514D01*
X173096353Y-47728514D02*
X173067782Y-47785657D01*
X173067782Y-47785657D02*
X173010639Y-47842800D01*
X173010639Y-47842800D02*
X172924925Y-47871371D01*
X172924925Y-47871371D02*
X172867782Y-47871371D01*
X172867782Y-47871371D02*
X172782068Y-47842800D01*
X172782068Y-47842800D02*
X172753496Y-47814228D01*
X172753496Y-47814228D02*
X172753496Y-47614228D01*
X172753496Y-47614228D02*
X172867782Y-47614228D01*
X172496353Y-47871371D02*
X172496353Y-47271371D01*
X172496353Y-47271371D02*
X172153496Y-47871371D01*
X172153496Y-47871371D02*
X172153496Y-47271371D01*
X171867782Y-47871371D02*
X171867782Y-47271371D01*
X171867782Y-47271371D02*
X171724925Y-47271371D01*
X171724925Y-47271371D02*
X171639211Y-47299942D01*
X171639211Y-47299942D02*
X171582068Y-47357085D01*
X171582068Y-47357085D02*
X171553497Y-47414228D01*
X171553497Y-47414228D02*
X171524925Y-47528514D01*
X171524925Y-47528514D02*
X171524925Y-47614228D01*
X171524925Y-47614228D02*
X171553497Y-47728514D01*
X171553497Y-47728514D02*
X171582068Y-47785657D01*
X171582068Y-47785657D02*
X171639211Y-47842800D01*
X171639211Y-47842800D02*
X171724925Y-47871371D01*
X171724925Y-47871371D02*
X171867782Y-47871371D01*
D11*
X90550432Y-38936928D02*
X90264718Y-38936928D01*
X90264718Y-38936928D02*
X90121861Y-39008357D01*
X90121861Y-39008357D02*
X89979004Y-39151214D01*
X89979004Y-39151214D02*
X89907575Y-39436928D01*
X89907575Y-39436928D02*
X89907575Y-39936928D01*
X89907575Y-39936928D02*
X89979004Y-40222642D01*
X89979004Y-40222642D02*
X90121861Y-40365500D01*
X90121861Y-40365500D02*
X90264718Y-40436928D01*
X90264718Y-40436928D02*
X90550432Y-40436928D01*
X90550432Y-40436928D02*
X90693290Y-40365500D01*
X90693290Y-40365500D02*
X90836147Y-40222642D01*
X90836147Y-40222642D02*
X90907575Y-39936928D01*
X90907575Y-39936928D02*
X90907575Y-39436928D01*
X90907575Y-39436928D02*
X90836147Y-39151214D01*
X90836147Y-39151214D02*
X90693290Y-39008357D01*
X90693290Y-39008357D02*
X90550432Y-38936928D01*
X89264718Y-38936928D02*
X89264718Y-40151214D01*
X89264718Y-40151214D02*
X89193289Y-40294071D01*
X89193289Y-40294071D02*
X89121861Y-40365500D01*
X89121861Y-40365500D02*
X88979003Y-40436928D01*
X88979003Y-40436928D02*
X88693289Y-40436928D01*
X88693289Y-40436928D02*
X88550432Y-40365500D01*
X88550432Y-40365500D02*
X88479003Y-40294071D01*
X88479003Y-40294071D02*
X88407575Y-40151214D01*
X88407575Y-40151214D02*
X88407575Y-38936928D01*
X87907574Y-38936928D02*
X87050432Y-38936928D01*
X87479003Y-40436928D02*
X87479003Y-38936928D01*
X85550432Y-38936928D02*
X84621860Y-38936928D01*
X84621860Y-38936928D02*
X85121860Y-39508357D01*
X85121860Y-39508357D02*
X84907575Y-39508357D01*
X84907575Y-39508357D02*
X84764718Y-39579785D01*
X84764718Y-39579785D02*
X84693289Y-39651214D01*
X84693289Y-39651214D02*
X84621860Y-39794071D01*
X84621860Y-39794071D02*
X84621860Y-40151214D01*
X84621860Y-40151214D02*
X84693289Y-40294071D01*
X84693289Y-40294071D02*
X84764718Y-40365500D01*
X84764718Y-40365500D02*
X84907575Y-40436928D01*
X84907575Y-40436928D02*
X85336146Y-40436928D01*
X85336146Y-40436928D02*
X85479003Y-40365500D01*
X85479003Y-40365500D02*
X85550432Y-40294071D01*
X90550432Y-60526928D02*
X90264718Y-60526928D01*
X90264718Y-60526928D02*
X90121861Y-60598357D01*
X90121861Y-60598357D02*
X89979004Y-60741214D01*
X89979004Y-60741214D02*
X89907575Y-61026928D01*
X89907575Y-61026928D02*
X89907575Y-61526928D01*
X89907575Y-61526928D02*
X89979004Y-61812642D01*
X89979004Y-61812642D02*
X90121861Y-61955500D01*
X90121861Y-61955500D02*
X90264718Y-62026928D01*
X90264718Y-62026928D02*
X90550432Y-62026928D01*
X90550432Y-62026928D02*
X90693290Y-61955500D01*
X90693290Y-61955500D02*
X90836147Y-61812642D01*
X90836147Y-61812642D02*
X90907575Y-61526928D01*
X90907575Y-61526928D02*
X90907575Y-61026928D01*
X90907575Y-61026928D02*
X90836147Y-60741214D01*
X90836147Y-60741214D02*
X90693290Y-60598357D01*
X90693290Y-60598357D02*
X90550432Y-60526928D01*
X89264718Y-60526928D02*
X89264718Y-61741214D01*
X89264718Y-61741214D02*
X89193289Y-61884071D01*
X89193289Y-61884071D02*
X89121861Y-61955500D01*
X89121861Y-61955500D02*
X88979003Y-62026928D01*
X88979003Y-62026928D02*
X88693289Y-62026928D01*
X88693289Y-62026928D02*
X88550432Y-61955500D01*
X88550432Y-61955500D02*
X88479003Y-61884071D01*
X88479003Y-61884071D02*
X88407575Y-61741214D01*
X88407575Y-61741214D02*
X88407575Y-60526928D01*
X87907574Y-60526928D02*
X87050432Y-60526928D01*
X87479003Y-62026928D02*
X87479003Y-60526928D01*
X84621860Y-62026928D02*
X85479003Y-62026928D01*
X85050432Y-62026928D02*
X85050432Y-60526928D01*
X85050432Y-60526928D02*
X85193289Y-60741214D01*
X85193289Y-60741214D02*
X85336146Y-60884071D01*
X85336146Y-60884071D02*
X85479003Y-60955500D01*
D10*
X172782068Y-57939942D02*
X172839211Y-57911371D01*
X172839211Y-57911371D02*
X172924925Y-57911371D01*
X172924925Y-57911371D02*
X173010639Y-57939942D01*
X173010639Y-57939942D02*
X173067782Y-57997085D01*
X173067782Y-57997085D02*
X173096353Y-58054228D01*
X173096353Y-58054228D02*
X173124925Y-58168514D01*
X173124925Y-58168514D02*
X173124925Y-58254228D01*
X173124925Y-58254228D02*
X173096353Y-58368514D01*
X173096353Y-58368514D02*
X173067782Y-58425657D01*
X173067782Y-58425657D02*
X173010639Y-58482800D01*
X173010639Y-58482800D02*
X172924925Y-58511371D01*
X172924925Y-58511371D02*
X172867782Y-58511371D01*
X172867782Y-58511371D02*
X172782068Y-58482800D01*
X172782068Y-58482800D02*
X172753496Y-58454228D01*
X172753496Y-58454228D02*
X172753496Y-58254228D01*
X172753496Y-58254228D02*
X172867782Y-58254228D01*
X172496353Y-58511371D02*
X172496353Y-57911371D01*
X172496353Y-57911371D02*
X172153496Y-58511371D01*
X172153496Y-58511371D02*
X172153496Y-57911371D01*
X171867782Y-58511371D02*
X171867782Y-57911371D01*
X171867782Y-57911371D02*
X171724925Y-57911371D01*
X171724925Y-57911371D02*
X171639211Y-57939942D01*
X171639211Y-57939942D02*
X171582068Y-57997085D01*
X171582068Y-57997085D02*
X171553497Y-58054228D01*
X171553497Y-58054228D02*
X171524925Y-58168514D01*
X171524925Y-58168514D02*
X171524925Y-58254228D01*
X171524925Y-58254228D02*
X171553497Y-58368514D01*
X171553497Y-58368514D02*
X171582068Y-58425657D01*
X171582068Y-58425657D02*
X171639211Y-58482800D01*
X171639211Y-58482800D02*
X171724925Y-58511371D01*
X171724925Y-58511371D02*
X171867782Y-58511371D01*
X172782068Y-54549942D02*
X172839211Y-54521371D01*
X172839211Y-54521371D02*
X172924925Y-54521371D01*
X172924925Y-54521371D02*
X173010639Y-54549942D01*
X173010639Y-54549942D02*
X173067782Y-54607085D01*
X173067782Y-54607085D02*
X173096353Y-54664228D01*
X173096353Y-54664228D02*
X173124925Y-54778514D01*
X173124925Y-54778514D02*
X173124925Y-54864228D01*
X173124925Y-54864228D02*
X173096353Y-54978514D01*
X173096353Y-54978514D02*
X173067782Y-55035657D01*
X173067782Y-55035657D02*
X173010639Y-55092800D01*
X173010639Y-55092800D02*
X172924925Y-55121371D01*
X172924925Y-55121371D02*
X172867782Y-55121371D01*
X172867782Y-55121371D02*
X172782068Y-55092800D01*
X172782068Y-55092800D02*
X172753496Y-55064228D01*
X172753496Y-55064228D02*
X172753496Y-54864228D01*
X172753496Y-54864228D02*
X172867782Y-54864228D01*
X172496353Y-55121371D02*
X172496353Y-54521371D01*
X172496353Y-54521371D02*
X172153496Y-55121371D01*
X172153496Y-55121371D02*
X172153496Y-54521371D01*
X171867782Y-55121371D02*
X171867782Y-54521371D01*
X171867782Y-54521371D02*
X171724925Y-54521371D01*
X171724925Y-54521371D02*
X171639211Y-54549942D01*
X171639211Y-54549942D02*
X171582068Y-54607085D01*
X171582068Y-54607085D02*
X171553497Y-54664228D01*
X171553497Y-54664228D02*
X171524925Y-54778514D01*
X171524925Y-54778514D02*
X171524925Y-54864228D01*
X171524925Y-54864228D02*
X171553497Y-54978514D01*
X171553497Y-54978514D02*
X171582068Y-55035657D01*
X171582068Y-55035657D02*
X171639211Y-55092800D01*
X171639211Y-55092800D02*
X171724925Y-55121371D01*
X171724925Y-55121371D02*
X171867782Y-55121371D01*
X172262068Y-45366371D02*
X172147782Y-45366371D01*
X172147782Y-45366371D02*
X172090639Y-45394942D01*
X172090639Y-45394942D02*
X172033496Y-45452085D01*
X172033496Y-45452085D02*
X172004925Y-45566371D01*
X172004925Y-45566371D02*
X172004925Y-45766371D01*
X172004925Y-45766371D02*
X172033496Y-45880657D01*
X172033496Y-45880657D02*
X172090639Y-45937800D01*
X172090639Y-45937800D02*
X172147782Y-45966371D01*
X172147782Y-45966371D02*
X172262068Y-45966371D01*
X172262068Y-45966371D02*
X172319211Y-45937800D01*
X172319211Y-45937800D02*
X172376353Y-45880657D01*
X172376353Y-45880657D02*
X172404925Y-45766371D01*
X172404925Y-45766371D02*
X172404925Y-45566371D01*
X172404925Y-45566371D02*
X172376353Y-45452085D01*
X172376353Y-45452085D02*
X172319211Y-45394942D01*
X172319211Y-45394942D02*
X172262068Y-45366371D01*
X171747782Y-45366371D02*
X171747782Y-45852085D01*
X171747782Y-45852085D02*
X171719211Y-45909228D01*
X171719211Y-45909228D02*
X171690640Y-45937800D01*
X171690640Y-45937800D02*
X171633497Y-45966371D01*
X171633497Y-45966371D02*
X171519211Y-45966371D01*
X171519211Y-45966371D02*
X171462068Y-45937800D01*
X171462068Y-45937800D02*
X171433497Y-45909228D01*
X171433497Y-45909228D02*
X171404925Y-45852085D01*
X171404925Y-45852085D02*
X171404925Y-45366371D01*
X171204926Y-45366371D02*
X170862069Y-45366371D01*
X171033497Y-45966371D02*
X171033497Y-45366371D01*
X170804926Y-46023514D02*
X170347783Y-46023514D01*
X170204925Y-45966371D02*
X170204925Y-45366371D01*
X170204925Y-45366371D02*
X169976354Y-45366371D01*
X169976354Y-45366371D02*
X169919211Y-45394942D01*
X169919211Y-45394942D02*
X169890640Y-45423514D01*
X169890640Y-45423514D02*
X169862068Y-45480657D01*
X169862068Y-45480657D02*
X169862068Y-45566371D01*
X169862068Y-45566371D02*
X169890640Y-45623514D01*
X169890640Y-45623514D02*
X169919211Y-45652085D01*
X169919211Y-45652085D02*
X169976354Y-45680657D01*
X169976354Y-45680657D02*
X170204925Y-45680657D01*
X169662068Y-45366371D02*
X169519211Y-45966371D01*
X169519211Y-45966371D02*
X169404925Y-45537800D01*
X169404925Y-45537800D02*
X169290640Y-45966371D01*
X169290640Y-45966371D02*
X169147783Y-45366371D01*
X169062069Y-46023514D02*
X168604926Y-46023514D01*
X168176354Y-45966371D02*
X168462068Y-45966371D01*
X168462068Y-45966371D02*
X168462068Y-45366371D01*
X167976354Y-45652085D02*
X167776354Y-45652085D01*
X167690640Y-45966371D02*
X167976354Y-45966371D01*
X167976354Y-45966371D02*
X167976354Y-45366371D01*
X167976354Y-45366371D02*
X167690640Y-45366371D01*
X167433497Y-45966371D02*
X167433497Y-45366371D01*
X167433497Y-45366371D02*
X167290640Y-45366371D01*
X167290640Y-45366371D02*
X167204926Y-45394942D01*
X167204926Y-45394942D02*
X167147783Y-45452085D01*
X167147783Y-45452085D02*
X167119212Y-45509228D01*
X167119212Y-45509228D02*
X167090640Y-45623514D01*
X167090640Y-45623514D02*
X167090640Y-45709228D01*
X167090640Y-45709228D02*
X167119212Y-45823514D01*
X167119212Y-45823514D02*
X167147783Y-45880657D01*
X167147783Y-45880657D02*
X167204926Y-45937800D01*
X167204926Y-45937800D02*
X167290640Y-45966371D01*
X167290640Y-45966371D02*
X167433497Y-45966371D01*
X166862069Y-45423514D02*
X166833497Y-45394942D01*
X166833497Y-45394942D02*
X166776355Y-45366371D01*
X166776355Y-45366371D02*
X166633497Y-45366371D01*
X166633497Y-45366371D02*
X166576355Y-45394942D01*
X166576355Y-45394942D02*
X166547783Y-45423514D01*
X166547783Y-45423514D02*
X166519212Y-45480657D01*
X166519212Y-45480657D02*
X166519212Y-45537800D01*
X166519212Y-45537800D02*
X166547783Y-45623514D01*
X166547783Y-45623514D02*
X166890640Y-45966371D01*
X166890640Y-45966371D02*
X166519212Y-45966371D01*
X173182068Y-61411371D02*
X172982068Y-62011371D01*
X172982068Y-62011371D02*
X172782068Y-61411371D01*
X172239210Y-61954228D02*
X172267782Y-61982800D01*
X172267782Y-61982800D02*
X172353496Y-62011371D01*
X172353496Y-62011371D02*
X172410639Y-62011371D01*
X172410639Y-62011371D02*
X172496353Y-61982800D01*
X172496353Y-61982800D02*
X172553496Y-61925657D01*
X172553496Y-61925657D02*
X172582067Y-61868514D01*
X172582067Y-61868514D02*
X172610639Y-61754228D01*
X172610639Y-61754228D02*
X172610639Y-61668514D01*
X172610639Y-61668514D02*
X172582067Y-61554228D01*
X172582067Y-61554228D02*
X172553496Y-61497085D01*
X172553496Y-61497085D02*
X172496353Y-61439942D01*
X172496353Y-61439942D02*
X172410639Y-61411371D01*
X172410639Y-61411371D02*
X172353496Y-61411371D01*
X172353496Y-61411371D02*
X172267782Y-61439942D01*
X172267782Y-61439942D02*
X172239210Y-61468514D01*
X171639210Y-61954228D02*
X171667782Y-61982800D01*
X171667782Y-61982800D02*
X171753496Y-62011371D01*
X171753496Y-62011371D02*
X171810639Y-62011371D01*
X171810639Y-62011371D02*
X171896353Y-61982800D01*
X171896353Y-61982800D02*
X171953496Y-61925657D01*
X171953496Y-61925657D02*
X171982067Y-61868514D01*
X171982067Y-61868514D02*
X172010639Y-61754228D01*
X172010639Y-61754228D02*
X172010639Y-61668514D01*
X172010639Y-61668514D02*
X171982067Y-61554228D01*
X171982067Y-61554228D02*
X171953496Y-61497085D01*
X171953496Y-61497085D02*
X171896353Y-61439942D01*
X171896353Y-61439942D02*
X171810639Y-61411371D01*
X171810639Y-61411371D02*
X171753496Y-61411371D01*
X171753496Y-61411371D02*
X171667782Y-61439942D01*
X171667782Y-61439942D02*
X171639210Y-61468514D01*
X170556353Y-60261371D02*
X170556353Y-59661371D01*
X170556353Y-59661371D02*
X170413496Y-59661371D01*
X170413496Y-59661371D02*
X170327782Y-59689942D01*
X170327782Y-59689942D02*
X170270639Y-59747085D01*
X170270639Y-59747085D02*
X170242068Y-59804228D01*
X170242068Y-59804228D02*
X170213496Y-59918514D01*
X170213496Y-59918514D02*
X170213496Y-60004228D01*
X170213496Y-60004228D02*
X170242068Y-60118514D01*
X170242068Y-60118514D02*
X170270639Y-60175657D01*
X170270639Y-60175657D02*
X170327782Y-60232800D01*
X170327782Y-60232800D02*
X170413496Y-60261371D01*
X170413496Y-60261371D02*
X170556353Y-60261371D01*
X169956353Y-60261371D02*
X169956353Y-59661371D01*
X169699211Y-60232800D02*
X169613497Y-60261371D01*
X169613497Y-60261371D02*
X169470639Y-60261371D01*
X169470639Y-60261371D02*
X169413497Y-60232800D01*
X169413497Y-60232800D02*
X169384925Y-60204228D01*
X169384925Y-60204228D02*
X169356354Y-60147085D01*
X169356354Y-60147085D02*
X169356354Y-60089942D01*
X169356354Y-60089942D02*
X169384925Y-60032800D01*
X169384925Y-60032800D02*
X169413497Y-60004228D01*
X169413497Y-60004228D02*
X169470639Y-59975657D01*
X169470639Y-59975657D02*
X169584925Y-59947085D01*
X169584925Y-59947085D02*
X169642068Y-59918514D01*
X169642068Y-59918514D02*
X169670639Y-59889942D01*
X169670639Y-59889942D02*
X169699211Y-59832800D01*
X169699211Y-59832800D02*
X169699211Y-59775657D01*
X169699211Y-59775657D02*
X169670639Y-59718514D01*
X169670639Y-59718514D02*
X169642068Y-59689942D01*
X169642068Y-59689942D02*
X169584925Y-59661371D01*
X169584925Y-59661371D02*
X169442068Y-59661371D01*
X169442068Y-59661371D02*
X169356354Y-59689942D01*
X169099210Y-60261371D02*
X169099210Y-59661371D01*
X169099210Y-59661371D02*
X168870639Y-59661371D01*
X168870639Y-59661371D02*
X168813496Y-59689942D01*
X168813496Y-59689942D02*
X168784925Y-59718514D01*
X168784925Y-59718514D02*
X168756353Y-59775657D01*
X168756353Y-59775657D02*
X168756353Y-59861371D01*
X168756353Y-59861371D02*
X168784925Y-59918514D01*
X168784925Y-59918514D02*
X168813496Y-59947085D01*
X168813496Y-59947085D02*
X168870639Y-59975657D01*
X168870639Y-59975657D02*
X169099210Y-59975657D01*
X168642068Y-60318514D02*
X168184925Y-60318514D01*
X168070639Y-60232800D02*
X167984925Y-60261371D01*
X167984925Y-60261371D02*
X167842067Y-60261371D01*
X167842067Y-60261371D02*
X167784925Y-60232800D01*
X167784925Y-60232800D02*
X167756353Y-60204228D01*
X167756353Y-60204228D02*
X167727782Y-60147085D01*
X167727782Y-60147085D02*
X167727782Y-60089942D01*
X167727782Y-60089942D02*
X167756353Y-60032800D01*
X167756353Y-60032800D02*
X167784925Y-60004228D01*
X167784925Y-60004228D02*
X167842067Y-59975657D01*
X167842067Y-59975657D02*
X167956353Y-59947085D01*
X167956353Y-59947085D02*
X168013496Y-59918514D01*
X168013496Y-59918514D02*
X168042067Y-59889942D01*
X168042067Y-59889942D02*
X168070639Y-59832800D01*
X168070639Y-59832800D02*
X168070639Y-59775657D01*
X168070639Y-59775657D02*
X168042067Y-59718514D01*
X168042067Y-59718514D02*
X168013496Y-59689942D01*
X168013496Y-59689942D02*
X167956353Y-59661371D01*
X167956353Y-59661371D02*
X167813496Y-59661371D01*
X167813496Y-59661371D02*
X167727782Y-59689942D01*
X167470638Y-60261371D02*
X167470638Y-59661371D01*
X167470638Y-59661371D02*
X167327781Y-59661371D01*
X167327781Y-59661371D02*
X167242067Y-59689942D01*
X167242067Y-59689942D02*
X167184924Y-59747085D01*
X167184924Y-59747085D02*
X167156353Y-59804228D01*
X167156353Y-59804228D02*
X167127781Y-59918514D01*
X167127781Y-59918514D02*
X167127781Y-60004228D01*
X167127781Y-60004228D02*
X167156353Y-60118514D01*
X167156353Y-60118514D02*
X167184924Y-60175657D01*
X167184924Y-60175657D02*
X167242067Y-60232800D01*
X167242067Y-60232800D02*
X167327781Y-60261371D01*
X167327781Y-60261371D02*
X167470638Y-60261371D01*
X166899210Y-60089942D02*
X166613496Y-60089942D01*
X166956353Y-60261371D02*
X166756353Y-59661371D01*
X166756353Y-59661371D02*
X166556353Y-60261371D01*
X173041353Y-37421371D02*
X173041353Y-36821371D01*
X173041353Y-36821371D02*
X172812782Y-36821371D01*
X172812782Y-36821371D02*
X172755639Y-36849942D01*
X172755639Y-36849942D02*
X172727068Y-36878514D01*
X172727068Y-36878514D02*
X172698496Y-36935657D01*
X172698496Y-36935657D02*
X172698496Y-37021371D01*
X172698496Y-37021371D02*
X172727068Y-37078514D01*
X172727068Y-37078514D02*
X172755639Y-37107085D01*
X172755639Y-37107085D02*
X172812782Y-37135657D01*
X172812782Y-37135657D02*
X173041353Y-37135657D01*
X172498496Y-36821371D02*
X172355639Y-37421371D01*
X172355639Y-37421371D02*
X172241353Y-36992800D01*
X172241353Y-36992800D02*
X172127068Y-37421371D01*
X172127068Y-37421371D02*
X171984211Y-36821371D01*
X171412782Y-37421371D02*
X171612782Y-37135657D01*
X171755639Y-37421371D02*
X171755639Y-36821371D01*
X171755639Y-36821371D02*
X171527068Y-36821371D01*
X171527068Y-36821371D02*
X171469925Y-36849942D01*
X171469925Y-36849942D02*
X171441354Y-36878514D01*
X171441354Y-36878514D02*
X171412782Y-36935657D01*
X171412782Y-36935657D02*
X171412782Y-37021371D01*
X171412782Y-37021371D02*
X171441354Y-37078514D01*
X171441354Y-37078514D02*
X171469925Y-37107085D01*
X171469925Y-37107085D02*
X171527068Y-37135657D01*
X171527068Y-37135657D02*
X171755639Y-37135657D01*
X171298497Y-37478514D02*
X170841354Y-37478514D01*
X170727068Y-37392800D02*
X170641354Y-37421371D01*
X170641354Y-37421371D02*
X170498496Y-37421371D01*
X170498496Y-37421371D02*
X170441354Y-37392800D01*
X170441354Y-37392800D02*
X170412782Y-37364228D01*
X170412782Y-37364228D02*
X170384211Y-37307085D01*
X170384211Y-37307085D02*
X170384211Y-37249942D01*
X170384211Y-37249942D02*
X170412782Y-37192800D01*
X170412782Y-37192800D02*
X170441354Y-37164228D01*
X170441354Y-37164228D02*
X170498496Y-37135657D01*
X170498496Y-37135657D02*
X170612782Y-37107085D01*
X170612782Y-37107085D02*
X170669925Y-37078514D01*
X170669925Y-37078514D02*
X170698496Y-37049942D01*
X170698496Y-37049942D02*
X170727068Y-36992800D01*
X170727068Y-36992800D02*
X170727068Y-36935657D01*
X170727068Y-36935657D02*
X170698496Y-36878514D01*
X170698496Y-36878514D02*
X170669925Y-36849942D01*
X170669925Y-36849942D02*
X170612782Y-36821371D01*
X170612782Y-36821371D02*
X170469925Y-36821371D01*
X170469925Y-36821371D02*
X170384211Y-36849942D01*
X170184210Y-36821371D02*
X170041353Y-37421371D01*
X170041353Y-37421371D02*
X169927067Y-36992800D01*
X169927067Y-36992800D02*
X169812782Y-37421371D01*
X169812782Y-37421371D02*
X169669925Y-36821371D01*
X169441353Y-37421371D02*
X169441353Y-36821371D01*
X169298497Y-37478514D02*
X168841354Y-37478514D01*
X168698496Y-37421371D02*
X168698496Y-36821371D01*
X168412782Y-37421371D02*
X168412782Y-36821371D01*
X168412782Y-36821371D02*
X168069925Y-37421371D01*
X168069925Y-37421371D02*
X168069925Y-36821371D01*
X172376353Y-52947085D02*
X172176353Y-52947085D01*
X172090639Y-53261371D02*
X172376353Y-53261371D01*
X172376353Y-53261371D02*
X172376353Y-52661371D01*
X172376353Y-52661371D02*
X172090639Y-52661371D01*
X171490639Y-53261371D02*
X171690639Y-52975657D01*
X171833496Y-53261371D02*
X171833496Y-52661371D01*
X171833496Y-52661371D02*
X171604925Y-52661371D01*
X171604925Y-52661371D02*
X171547782Y-52689942D01*
X171547782Y-52689942D02*
X171519211Y-52718514D01*
X171519211Y-52718514D02*
X171490639Y-52775657D01*
X171490639Y-52775657D02*
X171490639Y-52861371D01*
X171490639Y-52861371D02*
X171519211Y-52918514D01*
X171519211Y-52918514D02*
X171547782Y-52947085D01*
X171547782Y-52947085D02*
X171604925Y-52975657D01*
X171604925Y-52975657D02*
X171833496Y-52975657D01*
X170890639Y-53261371D02*
X171090639Y-52975657D01*
X171233496Y-53261371D02*
X171233496Y-52661371D01*
X171233496Y-52661371D02*
X171004925Y-52661371D01*
X171004925Y-52661371D02*
X170947782Y-52689942D01*
X170947782Y-52689942D02*
X170919211Y-52718514D01*
X170919211Y-52718514D02*
X170890639Y-52775657D01*
X170890639Y-52775657D02*
X170890639Y-52861371D01*
X170890639Y-52861371D02*
X170919211Y-52918514D01*
X170919211Y-52918514D02*
X170947782Y-52947085D01*
X170947782Y-52947085D02*
X171004925Y-52975657D01*
X171004925Y-52975657D02*
X171233496Y-52975657D01*
X170776354Y-53318514D02*
X170319211Y-53318514D01*
X169890639Y-53261371D02*
X170176353Y-53261371D01*
X170176353Y-53261371D02*
X170176353Y-52661371D01*
X169690639Y-52947085D02*
X169490639Y-52947085D01*
X169404925Y-53261371D02*
X169690639Y-53261371D01*
X169690639Y-53261371D02*
X169690639Y-52661371D01*
X169690639Y-52661371D02*
X169404925Y-52661371D01*
X169147782Y-53261371D02*
X169147782Y-52661371D01*
X169147782Y-52661371D02*
X169004925Y-52661371D01*
X169004925Y-52661371D02*
X168919211Y-52689942D01*
X168919211Y-52689942D02*
X168862068Y-52747085D01*
X168862068Y-52747085D02*
X168833497Y-52804228D01*
X168833497Y-52804228D02*
X168804925Y-52918514D01*
X168804925Y-52918514D02*
X168804925Y-53004228D01*
X168804925Y-53004228D02*
X168833497Y-53118514D01*
X168833497Y-53118514D02*
X168862068Y-53175657D01*
X168862068Y-53175657D02*
X168919211Y-53232800D01*
X168919211Y-53232800D02*
X169004925Y-53261371D01*
X169004925Y-53261371D02*
X169147782Y-53261371D01*
X168690640Y-53318514D02*
X168233497Y-53318514D01*
X168090639Y-52947085D02*
X167890639Y-52947085D01*
X167804925Y-53261371D02*
X168090639Y-53261371D01*
X168090639Y-53261371D02*
X168090639Y-52661371D01*
X168090639Y-52661371D02*
X167804925Y-52661371D01*
X167604925Y-52661371D02*
X167204925Y-53261371D01*
X167204925Y-52661371D02*
X167604925Y-53261371D01*
X167062068Y-52661371D02*
X166719211Y-52661371D01*
X166890639Y-53261371D02*
X166890639Y-52661371D01*
X172262068Y-49176371D02*
X172147782Y-49176371D01*
X172147782Y-49176371D02*
X172090639Y-49204942D01*
X172090639Y-49204942D02*
X172033496Y-49262085D01*
X172033496Y-49262085D02*
X172004925Y-49376371D01*
X172004925Y-49376371D02*
X172004925Y-49576371D01*
X172004925Y-49576371D02*
X172033496Y-49690657D01*
X172033496Y-49690657D02*
X172090639Y-49747800D01*
X172090639Y-49747800D02*
X172147782Y-49776371D01*
X172147782Y-49776371D02*
X172262068Y-49776371D01*
X172262068Y-49776371D02*
X172319211Y-49747800D01*
X172319211Y-49747800D02*
X172376353Y-49690657D01*
X172376353Y-49690657D02*
X172404925Y-49576371D01*
X172404925Y-49576371D02*
X172404925Y-49376371D01*
X172404925Y-49376371D02*
X172376353Y-49262085D01*
X172376353Y-49262085D02*
X172319211Y-49204942D01*
X172319211Y-49204942D02*
X172262068Y-49176371D01*
X171747782Y-49176371D02*
X171747782Y-49662085D01*
X171747782Y-49662085D02*
X171719211Y-49719228D01*
X171719211Y-49719228D02*
X171690640Y-49747800D01*
X171690640Y-49747800D02*
X171633497Y-49776371D01*
X171633497Y-49776371D02*
X171519211Y-49776371D01*
X171519211Y-49776371D02*
X171462068Y-49747800D01*
X171462068Y-49747800D02*
X171433497Y-49719228D01*
X171433497Y-49719228D02*
X171404925Y-49662085D01*
X171404925Y-49662085D02*
X171404925Y-49176371D01*
X171204926Y-49176371D02*
X170862069Y-49176371D01*
X171033497Y-49776371D02*
X171033497Y-49176371D01*
X170804926Y-49833514D02*
X170347783Y-49833514D01*
X170204925Y-49776371D02*
X170204925Y-49176371D01*
X170204925Y-49176371D02*
X169976354Y-49176371D01*
X169976354Y-49176371D02*
X169919211Y-49204942D01*
X169919211Y-49204942D02*
X169890640Y-49233514D01*
X169890640Y-49233514D02*
X169862068Y-49290657D01*
X169862068Y-49290657D02*
X169862068Y-49376371D01*
X169862068Y-49376371D02*
X169890640Y-49433514D01*
X169890640Y-49433514D02*
X169919211Y-49462085D01*
X169919211Y-49462085D02*
X169976354Y-49490657D01*
X169976354Y-49490657D02*
X170204925Y-49490657D01*
X169662068Y-49176371D02*
X169519211Y-49776371D01*
X169519211Y-49776371D02*
X169404925Y-49347800D01*
X169404925Y-49347800D02*
X169290640Y-49776371D01*
X169290640Y-49776371D02*
X169147783Y-49176371D01*
X169062069Y-49833514D02*
X168604926Y-49833514D01*
X168176354Y-49776371D02*
X168462068Y-49776371D01*
X168462068Y-49776371D02*
X168462068Y-49176371D01*
X167976354Y-49462085D02*
X167776354Y-49462085D01*
X167690640Y-49776371D02*
X167976354Y-49776371D01*
X167976354Y-49776371D02*
X167976354Y-49176371D01*
X167976354Y-49176371D02*
X167690640Y-49176371D01*
X167433497Y-49776371D02*
X167433497Y-49176371D01*
X167433497Y-49176371D02*
X167290640Y-49176371D01*
X167290640Y-49176371D02*
X167204926Y-49204942D01*
X167204926Y-49204942D02*
X167147783Y-49262085D01*
X167147783Y-49262085D02*
X167119212Y-49319228D01*
X167119212Y-49319228D02*
X167090640Y-49433514D01*
X167090640Y-49433514D02*
X167090640Y-49519228D01*
X167090640Y-49519228D02*
X167119212Y-49633514D01*
X167119212Y-49633514D02*
X167147783Y-49690657D01*
X167147783Y-49690657D02*
X167204926Y-49747800D01*
X167204926Y-49747800D02*
X167290640Y-49776371D01*
X167290640Y-49776371D02*
X167433497Y-49776371D01*
X166519212Y-49776371D02*
X166862069Y-49776371D01*
X166690640Y-49776371D02*
X166690640Y-49176371D01*
X166690640Y-49176371D02*
X166747783Y-49262085D01*
X166747783Y-49262085D02*
X166804926Y-49319228D01*
X166804926Y-49319228D02*
X166862069Y-49347800D01*
X173182068Y-50911371D02*
X172982068Y-51511371D01*
X172982068Y-51511371D02*
X172782068Y-50911371D01*
X172239210Y-51454228D02*
X172267782Y-51482800D01*
X172267782Y-51482800D02*
X172353496Y-51511371D01*
X172353496Y-51511371D02*
X172410639Y-51511371D01*
X172410639Y-51511371D02*
X172496353Y-51482800D01*
X172496353Y-51482800D02*
X172553496Y-51425657D01*
X172553496Y-51425657D02*
X172582067Y-51368514D01*
X172582067Y-51368514D02*
X172610639Y-51254228D01*
X172610639Y-51254228D02*
X172610639Y-51168514D01*
X172610639Y-51168514D02*
X172582067Y-51054228D01*
X172582067Y-51054228D02*
X172553496Y-50997085D01*
X172553496Y-50997085D02*
X172496353Y-50939942D01*
X172496353Y-50939942D02*
X172410639Y-50911371D01*
X172410639Y-50911371D02*
X172353496Y-50911371D01*
X172353496Y-50911371D02*
X172267782Y-50939942D01*
X172267782Y-50939942D02*
X172239210Y-50968514D01*
X171639210Y-51454228D02*
X171667782Y-51482800D01*
X171667782Y-51482800D02*
X171753496Y-51511371D01*
X171753496Y-51511371D02*
X171810639Y-51511371D01*
X171810639Y-51511371D02*
X171896353Y-51482800D01*
X171896353Y-51482800D02*
X171953496Y-51425657D01*
X171953496Y-51425657D02*
X171982067Y-51368514D01*
X171982067Y-51368514D02*
X172010639Y-51254228D01*
X172010639Y-51254228D02*
X172010639Y-51168514D01*
X172010639Y-51168514D02*
X171982067Y-51054228D01*
X171982067Y-51054228D02*
X171953496Y-50997085D01*
X171953496Y-50997085D02*
X171896353Y-50939942D01*
X171896353Y-50939942D02*
X171810639Y-50911371D01*
X171810639Y-50911371D02*
X171753496Y-50911371D01*
X171753496Y-50911371D02*
X171667782Y-50939942D01*
X171667782Y-50939942D02*
X171639210Y-50968514D01*
D11*
X90550432Y-49731928D02*
X90264718Y-49731928D01*
X90264718Y-49731928D02*
X90121861Y-49803357D01*
X90121861Y-49803357D02*
X89979004Y-49946214D01*
X89979004Y-49946214D02*
X89907575Y-50231928D01*
X89907575Y-50231928D02*
X89907575Y-50731928D01*
X89907575Y-50731928D02*
X89979004Y-51017642D01*
X89979004Y-51017642D02*
X90121861Y-51160500D01*
X90121861Y-51160500D02*
X90264718Y-51231928D01*
X90264718Y-51231928D02*
X90550432Y-51231928D01*
X90550432Y-51231928D02*
X90693290Y-51160500D01*
X90693290Y-51160500D02*
X90836147Y-51017642D01*
X90836147Y-51017642D02*
X90907575Y-50731928D01*
X90907575Y-50731928D02*
X90907575Y-50231928D01*
X90907575Y-50231928D02*
X90836147Y-49946214D01*
X90836147Y-49946214D02*
X90693290Y-49803357D01*
X90693290Y-49803357D02*
X90550432Y-49731928D01*
X89264718Y-49731928D02*
X89264718Y-50946214D01*
X89264718Y-50946214D02*
X89193289Y-51089071D01*
X89193289Y-51089071D02*
X89121861Y-51160500D01*
X89121861Y-51160500D02*
X88979003Y-51231928D01*
X88979003Y-51231928D02*
X88693289Y-51231928D01*
X88693289Y-51231928D02*
X88550432Y-51160500D01*
X88550432Y-51160500D02*
X88479003Y-51089071D01*
X88479003Y-51089071D02*
X88407575Y-50946214D01*
X88407575Y-50946214D02*
X88407575Y-49731928D01*
X87907574Y-49731928D02*
X87050432Y-49731928D01*
X87479003Y-51231928D02*
X87479003Y-49731928D01*
X85479003Y-49874785D02*
X85407575Y-49803357D01*
X85407575Y-49803357D02*
X85264718Y-49731928D01*
X85264718Y-49731928D02*
X84907575Y-49731928D01*
X84907575Y-49731928D02*
X84764718Y-49803357D01*
X84764718Y-49803357D02*
X84693289Y-49874785D01*
X84693289Y-49874785D02*
X84621860Y-50017642D01*
X84621860Y-50017642D02*
X84621860Y-50160500D01*
X84621860Y-50160500D02*
X84693289Y-50374785D01*
X84693289Y-50374785D02*
X85550432Y-51231928D01*
X85550432Y-51231928D02*
X84621860Y-51231928D01*
D10*
X172262068Y-42191371D02*
X172147782Y-42191371D01*
X172147782Y-42191371D02*
X172090639Y-42219942D01*
X172090639Y-42219942D02*
X172033496Y-42277085D01*
X172033496Y-42277085D02*
X172004925Y-42391371D01*
X172004925Y-42391371D02*
X172004925Y-42591371D01*
X172004925Y-42591371D02*
X172033496Y-42705657D01*
X172033496Y-42705657D02*
X172090639Y-42762800D01*
X172090639Y-42762800D02*
X172147782Y-42791371D01*
X172147782Y-42791371D02*
X172262068Y-42791371D01*
X172262068Y-42791371D02*
X172319211Y-42762800D01*
X172319211Y-42762800D02*
X172376353Y-42705657D01*
X172376353Y-42705657D02*
X172404925Y-42591371D01*
X172404925Y-42591371D02*
X172404925Y-42391371D01*
X172404925Y-42391371D02*
X172376353Y-42277085D01*
X172376353Y-42277085D02*
X172319211Y-42219942D01*
X172319211Y-42219942D02*
X172262068Y-42191371D01*
X171747782Y-42191371D02*
X171747782Y-42677085D01*
X171747782Y-42677085D02*
X171719211Y-42734228D01*
X171719211Y-42734228D02*
X171690640Y-42762800D01*
X171690640Y-42762800D02*
X171633497Y-42791371D01*
X171633497Y-42791371D02*
X171519211Y-42791371D01*
X171519211Y-42791371D02*
X171462068Y-42762800D01*
X171462068Y-42762800D02*
X171433497Y-42734228D01*
X171433497Y-42734228D02*
X171404925Y-42677085D01*
X171404925Y-42677085D02*
X171404925Y-42191371D01*
X171204926Y-42191371D02*
X170862069Y-42191371D01*
X171033497Y-42791371D02*
X171033497Y-42191371D01*
X170804926Y-42848514D02*
X170347783Y-42848514D01*
X170204925Y-42791371D02*
X170204925Y-42191371D01*
X170204925Y-42191371D02*
X169976354Y-42191371D01*
X169976354Y-42191371D02*
X169919211Y-42219942D01*
X169919211Y-42219942D02*
X169890640Y-42248514D01*
X169890640Y-42248514D02*
X169862068Y-42305657D01*
X169862068Y-42305657D02*
X169862068Y-42391371D01*
X169862068Y-42391371D02*
X169890640Y-42448514D01*
X169890640Y-42448514D02*
X169919211Y-42477085D01*
X169919211Y-42477085D02*
X169976354Y-42505657D01*
X169976354Y-42505657D02*
X170204925Y-42505657D01*
X169662068Y-42191371D02*
X169519211Y-42791371D01*
X169519211Y-42791371D02*
X169404925Y-42362800D01*
X169404925Y-42362800D02*
X169290640Y-42791371D01*
X169290640Y-42791371D02*
X169147783Y-42191371D01*
X169062069Y-42848514D02*
X168604926Y-42848514D01*
X168176354Y-42791371D02*
X168462068Y-42791371D01*
X168462068Y-42791371D02*
X168462068Y-42191371D01*
X167976354Y-42477085D02*
X167776354Y-42477085D01*
X167690640Y-42791371D02*
X167976354Y-42791371D01*
X167976354Y-42791371D02*
X167976354Y-42191371D01*
X167976354Y-42191371D02*
X167690640Y-42191371D01*
X167433497Y-42791371D02*
X167433497Y-42191371D01*
X167433497Y-42191371D02*
X167290640Y-42191371D01*
X167290640Y-42191371D02*
X167204926Y-42219942D01*
X167204926Y-42219942D02*
X167147783Y-42277085D01*
X167147783Y-42277085D02*
X167119212Y-42334228D01*
X167119212Y-42334228D02*
X167090640Y-42448514D01*
X167090640Y-42448514D02*
X167090640Y-42534228D01*
X167090640Y-42534228D02*
X167119212Y-42648514D01*
X167119212Y-42648514D02*
X167147783Y-42705657D01*
X167147783Y-42705657D02*
X167204926Y-42762800D01*
X167204926Y-42762800D02*
X167290640Y-42791371D01*
X167290640Y-42791371D02*
X167433497Y-42791371D01*
X166890640Y-42191371D02*
X166519212Y-42191371D01*
X166519212Y-42191371D02*
X166719212Y-42419942D01*
X166719212Y-42419942D02*
X166633497Y-42419942D01*
X166633497Y-42419942D02*
X166576355Y-42448514D01*
X166576355Y-42448514D02*
X166547783Y-42477085D01*
X166547783Y-42477085D02*
X166519212Y-42534228D01*
X166519212Y-42534228D02*
X166519212Y-42677085D01*
X166519212Y-42677085D02*
X166547783Y-42734228D01*
X166547783Y-42734228D02*
X166576355Y-42762800D01*
X166576355Y-42762800D02*
X166633497Y-42791371D01*
X166633497Y-42791371D02*
X166804926Y-42791371D01*
X166804926Y-42791371D02*
X166862069Y-42762800D01*
X166862069Y-42762800D02*
X166890640Y-42734228D01*
X170556353Y-63761371D02*
X170556353Y-63161371D01*
X170556353Y-63161371D02*
X170413496Y-63161371D01*
X170413496Y-63161371D02*
X170327782Y-63189942D01*
X170327782Y-63189942D02*
X170270639Y-63247085D01*
X170270639Y-63247085D02*
X170242068Y-63304228D01*
X170242068Y-63304228D02*
X170213496Y-63418514D01*
X170213496Y-63418514D02*
X170213496Y-63504228D01*
X170213496Y-63504228D02*
X170242068Y-63618514D01*
X170242068Y-63618514D02*
X170270639Y-63675657D01*
X170270639Y-63675657D02*
X170327782Y-63732800D01*
X170327782Y-63732800D02*
X170413496Y-63761371D01*
X170413496Y-63761371D02*
X170556353Y-63761371D01*
X169956353Y-63761371D02*
X169956353Y-63161371D01*
X169699211Y-63732800D02*
X169613497Y-63761371D01*
X169613497Y-63761371D02*
X169470639Y-63761371D01*
X169470639Y-63761371D02*
X169413497Y-63732800D01*
X169413497Y-63732800D02*
X169384925Y-63704228D01*
X169384925Y-63704228D02*
X169356354Y-63647085D01*
X169356354Y-63647085D02*
X169356354Y-63589942D01*
X169356354Y-63589942D02*
X169384925Y-63532800D01*
X169384925Y-63532800D02*
X169413497Y-63504228D01*
X169413497Y-63504228D02*
X169470639Y-63475657D01*
X169470639Y-63475657D02*
X169584925Y-63447085D01*
X169584925Y-63447085D02*
X169642068Y-63418514D01*
X169642068Y-63418514D02*
X169670639Y-63389942D01*
X169670639Y-63389942D02*
X169699211Y-63332800D01*
X169699211Y-63332800D02*
X169699211Y-63275657D01*
X169699211Y-63275657D02*
X169670639Y-63218514D01*
X169670639Y-63218514D02*
X169642068Y-63189942D01*
X169642068Y-63189942D02*
X169584925Y-63161371D01*
X169584925Y-63161371D02*
X169442068Y-63161371D01*
X169442068Y-63161371D02*
X169356354Y-63189942D01*
X169099210Y-63761371D02*
X169099210Y-63161371D01*
X169099210Y-63161371D02*
X168870639Y-63161371D01*
X168870639Y-63161371D02*
X168813496Y-63189942D01*
X168813496Y-63189942D02*
X168784925Y-63218514D01*
X168784925Y-63218514D02*
X168756353Y-63275657D01*
X168756353Y-63275657D02*
X168756353Y-63361371D01*
X168756353Y-63361371D02*
X168784925Y-63418514D01*
X168784925Y-63418514D02*
X168813496Y-63447085D01*
X168813496Y-63447085D02*
X168870639Y-63475657D01*
X168870639Y-63475657D02*
X169099210Y-63475657D01*
X168642068Y-63818514D02*
X168184925Y-63818514D01*
X168070639Y-63732800D02*
X167984925Y-63761371D01*
X167984925Y-63761371D02*
X167842067Y-63761371D01*
X167842067Y-63761371D02*
X167784925Y-63732800D01*
X167784925Y-63732800D02*
X167756353Y-63704228D01*
X167756353Y-63704228D02*
X167727782Y-63647085D01*
X167727782Y-63647085D02*
X167727782Y-63589942D01*
X167727782Y-63589942D02*
X167756353Y-63532800D01*
X167756353Y-63532800D02*
X167784925Y-63504228D01*
X167784925Y-63504228D02*
X167842067Y-63475657D01*
X167842067Y-63475657D02*
X167956353Y-63447085D01*
X167956353Y-63447085D02*
X168013496Y-63418514D01*
X168013496Y-63418514D02*
X168042067Y-63389942D01*
X168042067Y-63389942D02*
X168070639Y-63332800D01*
X168070639Y-63332800D02*
X168070639Y-63275657D01*
X168070639Y-63275657D02*
X168042067Y-63218514D01*
X168042067Y-63218514D02*
X168013496Y-63189942D01*
X168013496Y-63189942D02*
X167956353Y-63161371D01*
X167956353Y-63161371D02*
X167813496Y-63161371D01*
X167813496Y-63161371D02*
X167727782Y-63189942D01*
X167127781Y-63704228D02*
X167156353Y-63732800D01*
X167156353Y-63732800D02*
X167242067Y-63761371D01*
X167242067Y-63761371D02*
X167299210Y-63761371D01*
X167299210Y-63761371D02*
X167384924Y-63732800D01*
X167384924Y-63732800D02*
X167442067Y-63675657D01*
X167442067Y-63675657D02*
X167470638Y-63618514D01*
X167470638Y-63618514D02*
X167499210Y-63504228D01*
X167499210Y-63504228D02*
X167499210Y-63418514D01*
X167499210Y-63418514D02*
X167470638Y-63304228D01*
X167470638Y-63304228D02*
X167442067Y-63247085D01*
X167442067Y-63247085D02*
X167384924Y-63189942D01*
X167384924Y-63189942D02*
X167299210Y-63161371D01*
X167299210Y-63161371D02*
X167242067Y-63161371D01*
X167242067Y-63161371D02*
X167156353Y-63189942D01*
X167156353Y-63189942D02*
X167127781Y-63218514D01*
X166584924Y-63761371D02*
X166870638Y-63761371D01*
X166870638Y-63761371D02*
X166870638Y-63161371D01*
X171876353Y-56761371D02*
X171876353Y-56161371D01*
X171876353Y-56161371D02*
X171733496Y-56161371D01*
X171733496Y-56161371D02*
X171647782Y-56189942D01*
X171647782Y-56189942D02*
X171590639Y-56247085D01*
X171590639Y-56247085D02*
X171562068Y-56304228D01*
X171562068Y-56304228D02*
X171533496Y-56418514D01*
X171533496Y-56418514D02*
X171533496Y-56504228D01*
X171533496Y-56504228D02*
X171562068Y-56618514D01*
X171562068Y-56618514D02*
X171590639Y-56675657D01*
X171590639Y-56675657D02*
X171647782Y-56732800D01*
X171647782Y-56732800D02*
X171733496Y-56761371D01*
X171733496Y-56761371D02*
X171876353Y-56761371D01*
X171276353Y-56447085D02*
X171076353Y-56447085D01*
X170990639Y-56761371D02*
X171276353Y-56761371D01*
X171276353Y-56761371D02*
X171276353Y-56161371D01*
X171276353Y-56161371D02*
X170990639Y-56161371D01*
X170533496Y-56447085D02*
X170733496Y-56447085D01*
X170733496Y-56761371D02*
X170733496Y-56161371D01*
X170733496Y-56161371D02*
X170447782Y-56161371D01*
X170247782Y-56589942D02*
X169962068Y-56589942D01*
X170304925Y-56761371D02*
X170104925Y-56161371D01*
X170104925Y-56161371D02*
X169904925Y-56761371D01*
X169704924Y-56161371D02*
X169704924Y-56647085D01*
X169704924Y-56647085D02*
X169676353Y-56704228D01*
X169676353Y-56704228D02*
X169647782Y-56732800D01*
X169647782Y-56732800D02*
X169590639Y-56761371D01*
X169590639Y-56761371D02*
X169476353Y-56761371D01*
X169476353Y-56761371D02*
X169419210Y-56732800D01*
X169419210Y-56732800D02*
X169390639Y-56704228D01*
X169390639Y-56704228D02*
X169362067Y-56647085D01*
X169362067Y-56647085D02*
X169362067Y-56161371D01*
X168790639Y-56761371D02*
X169076353Y-56761371D01*
X169076353Y-56761371D02*
X169076353Y-56161371D01*
X168676354Y-56161371D02*
X168333497Y-56161371D01*
X168504925Y-56761371D02*
X168504925Y-56161371D01*
X168276354Y-56818514D02*
X167819211Y-56818514D01*
X167704925Y-56732800D02*
X167619211Y-56761371D01*
X167619211Y-56761371D02*
X167476353Y-56761371D01*
X167476353Y-56761371D02*
X167419211Y-56732800D01*
X167419211Y-56732800D02*
X167390639Y-56704228D01*
X167390639Y-56704228D02*
X167362068Y-56647085D01*
X167362068Y-56647085D02*
X167362068Y-56589942D01*
X167362068Y-56589942D02*
X167390639Y-56532800D01*
X167390639Y-56532800D02*
X167419211Y-56504228D01*
X167419211Y-56504228D02*
X167476353Y-56475657D01*
X167476353Y-56475657D02*
X167590639Y-56447085D01*
X167590639Y-56447085D02*
X167647782Y-56418514D01*
X167647782Y-56418514D02*
X167676353Y-56389942D01*
X167676353Y-56389942D02*
X167704925Y-56332800D01*
X167704925Y-56332800D02*
X167704925Y-56275657D01*
X167704925Y-56275657D02*
X167676353Y-56218514D01*
X167676353Y-56218514D02*
X167647782Y-56189942D01*
X167647782Y-56189942D02*
X167590639Y-56161371D01*
X167590639Y-56161371D02*
X167447782Y-56161371D01*
X167447782Y-56161371D02*
X167362068Y-56189942D01*
X167162067Y-56161371D02*
X167019210Y-56761371D01*
X167019210Y-56761371D02*
X166904924Y-56332800D01*
X166904924Y-56332800D02*
X166790639Y-56761371D01*
X166790639Y-56761371D02*
X166647782Y-56161371D01*
X172782068Y-40949942D02*
X172839211Y-40921371D01*
X172839211Y-40921371D02*
X172924925Y-40921371D01*
X172924925Y-40921371D02*
X173010639Y-40949942D01*
X173010639Y-40949942D02*
X173067782Y-41007085D01*
X173067782Y-41007085D02*
X173096353Y-41064228D01*
X173096353Y-41064228D02*
X173124925Y-41178514D01*
X173124925Y-41178514D02*
X173124925Y-41264228D01*
X173124925Y-41264228D02*
X173096353Y-41378514D01*
X173096353Y-41378514D02*
X173067782Y-41435657D01*
X173067782Y-41435657D02*
X173010639Y-41492800D01*
X173010639Y-41492800D02*
X172924925Y-41521371D01*
X172924925Y-41521371D02*
X172867782Y-41521371D01*
X172867782Y-41521371D02*
X172782068Y-41492800D01*
X172782068Y-41492800D02*
X172753496Y-41464228D01*
X172753496Y-41464228D02*
X172753496Y-41264228D01*
X172753496Y-41264228D02*
X172867782Y-41264228D01*
X172496353Y-41521371D02*
X172496353Y-40921371D01*
X172496353Y-40921371D02*
X172153496Y-41521371D01*
X172153496Y-41521371D02*
X172153496Y-40921371D01*
X171867782Y-41521371D02*
X171867782Y-40921371D01*
X171867782Y-40921371D02*
X171724925Y-40921371D01*
X171724925Y-40921371D02*
X171639211Y-40949942D01*
X171639211Y-40949942D02*
X171582068Y-41007085D01*
X171582068Y-41007085D02*
X171553497Y-41064228D01*
X171553497Y-41064228D02*
X171524925Y-41178514D01*
X171524925Y-41178514D02*
X171524925Y-41264228D01*
X171524925Y-41264228D02*
X171553497Y-41378514D01*
X171553497Y-41378514D02*
X171582068Y-41435657D01*
X171582068Y-41435657D02*
X171639211Y-41492800D01*
X171639211Y-41492800D02*
X171724925Y-41521371D01*
X171724925Y-41521371D02*
X171867782Y-41521371D01*
X172291353Y-39421371D02*
X172291353Y-38821371D01*
X172291353Y-38821371D02*
X172062782Y-38821371D01*
X172062782Y-38821371D02*
X172005639Y-38849942D01*
X172005639Y-38849942D02*
X171977068Y-38878514D01*
X171977068Y-38878514D02*
X171948496Y-38935657D01*
X171948496Y-38935657D02*
X171948496Y-39021371D01*
X171948496Y-39021371D02*
X171977068Y-39078514D01*
X171977068Y-39078514D02*
X172005639Y-39107085D01*
X172005639Y-39107085D02*
X172062782Y-39135657D01*
X172062782Y-39135657D02*
X172291353Y-39135657D01*
X171748496Y-38821371D02*
X171605639Y-39421371D01*
X171605639Y-39421371D02*
X171491353Y-38992800D01*
X171491353Y-38992800D02*
X171377068Y-39421371D01*
X171377068Y-39421371D02*
X171234211Y-38821371D01*
X170662782Y-39421371D02*
X170862782Y-39135657D01*
X171005639Y-39421371D02*
X171005639Y-38821371D01*
X171005639Y-38821371D02*
X170777068Y-38821371D01*
X170777068Y-38821371D02*
X170719925Y-38849942D01*
X170719925Y-38849942D02*
X170691354Y-38878514D01*
X170691354Y-38878514D02*
X170662782Y-38935657D01*
X170662782Y-38935657D02*
X170662782Y-39021371D01*
X170662782Y-39021371D02*
X170691354Y-39078514D01*
X170691354Y-39078514D02*
X170719925Y-39107085D01*
X170719925Y-39107085D02*
X170777068Y-39135657D01*
X170777068Y-39135657D02*
X171005639Y-39135657D01*
X170548497Y-39478514D02*
X170091354Y-39478514D01*
X169977068Y-39392800D02*
X169891354Y-39421371D01*
X169891354Y-39421371D02*
X169748496Y-39421371D01*
X169748496Y-39421371D02*
X169691354Y-39392800D01*
X169691354Y-39392800D02*
X169662782Y-39364228D01*
X169662782Y-39364228D02*
X169634211Y-39307085D01*
X169634211Y-39307085D02*
X169634211Y-39249942D01*
X169634211Y-39249942D02*
X169662782Y-39192800D01*
X169662782Y-39192800D02*
X169691354Y-39164228D01*
X169691354Y-39164228D02*
X169748496Y-39135657D01*
X169748496Y-39135657D02*
X169862782Y-39107085D01*
X169862782Y-39107085D02*
X169919925Y-39078514D01*
X169919925Y-39078514D02*
X169948496Y-39049942D01*
X169948496Y-39049942D02*
X169977068Y-38992800D01*
X169977068Y-38992800D02*
X169977068Y-38935657D01*
X169977068Y-38935657D02*
X169948496Y-38878514D01*
X169948496Y-38878514D02*
X169919925Y-38849942D01*
X169919925Y-38849942D02*
X169862782Y-38821371D01*
X169862782Y-38821371D02*
X169719925Y-38821371D01*
X169719925Y-38821371D02*
X169634211Y-38849942D01*
X169434210Y-38821371D02*
X169291353Y-39421371D01*
X169291353Y-39421371D02*
X169177067Y-38992800D01*
X169177067Y-38992800D02*
X169062782Y-39421371D01*
X169062782Y-39421371D02*
X168919925Y-38821371D01*
X168691353Y-39421371D02*
X168691353Y-38821371D01*
X168548497Y-39478514D02*
X168091354Y-39478514D01*
X167834211Y-38821371D02*
X167719925Y-38821371D01*
X167719925Y-38821371D02*
X167662782Y-38849942D01*
X167662782Y-38849942D02*
X167605639Y-38907085D01*
X167605639Y-38907085D02*
X167577068Y-39021371D01*
X167577068Y-39021371D02*
X167577068Y-39221371D01*
X167577068Y-39221371D02*
X167605639Y-39335657D01*
X167605639Y-39335657D02*
X167662782Y-39392800D01*
X167662782Y-39392800D02*
X167719925Y-39421371D01*
X167719925Y-39421371D02*
X167834211Y-39421371D01*
X167834211Y-39421371D02*
X167891354Y-39392800D01*
X167891354Y-39392800D02*
X167948496Y-39335657D01*
X167948496Y-39335657D02*
X167977068Y-39221371D01*
X167977068Y-39221371D02*
X167977068Y-39021371D01*
X167977068Y-39021371D02*
X167948496Y-38907085D01*
X167948496Y-38907085D02*
X167891354Y-38849942D01*
X167891354Y-38849942D02*
X167834211Y-38821371D01*
X167319925Y-38821371D02*
X167319925Y-39307085D01*
X167319925Y-39307085D02*
X167291354Y-39364228D01*
X167291354Y-39364228D02*
X167262783Y-39392800D01*
X167262783Y-39392800D02*
X167205640Y-39421371D01*
X167205640Y-39421371D02*
X167091354Y-39421371D01*
X167091354Y-39421371D02*
X167034211Y-39392800D01*
X167034211Y-39392800D02*
X167005640Y-39364228D01*
X167005640Y-39364228D02*
X166977068Y-39307085D01*
X166977068Y-39307085D02*
X166977068Y-38821371D01*
X166777069Y-38821371D02*
X166434212Y-38821371D01*
X166605640Y-39421371D02*
X166605640Y-38821371D01*
D12*
X177880489Y-77270828D02*
X177880489Y-75770828D01*
X177880489Y-76485114D02*
X177023346Y-76485114D01*
X177023346Y-77270828D02*
X177023346Y-75770828D01*
X176309060Y-77270828D02*
X176309060Y-75770828D01*
X174880488Y-77270828D02*
X175594774Y-77270828D01*
X175594774Y-77270828D02*
X175594774Y-75770828D01*
X174380488Y-76699400D02*
X173237631Y-76699400D01*
X172237630Y-75770828D02*
X172094773Y-75770828D01*
X172094773Y-75770828D02*
X171951916Y-75842257D01*
X171951916Y-75842257D02*
X171880488Y-75913685D01*
X171880488Y-75913685D02*
X171809059Y-76056542D01*
X171809059Y-76056542D02*
X171737630Y-76342257D01*
X171737630Y-76342257D02*
X171737630Y-76699400D01*
X171737630Y-76699400D02*
X171809059Y-76985114D01*
X171809059Y-76985114D02*
X171880488Y-77127971D01*
X171880488Y-77127971D02*
X171951916Y-77199400D01*
X171951916Y-77199400D02*
X172094773Y-77270828D01*
X172094773Y-77270828D02*
X172237630Y-77270828D01*
X172237630Y-77270828D02*
X172380488Y-77199400D01*
X172380488Y-77199400D02*
X172451916Y-77127971D01*
X172451916Y-77127971D02*
X172523345Y-76985114D01*
X172523345Y-76985114D02*
X172594773Y-76699400D01*
X172594773Y-76699400D02*
X172594773Y-76342257D01*
X172594773Y-76342257D02*
X172523345Y-76056542D01*
X172523345Y-76056542D02*
X172451916Y-75913685D01*
X172451916Y-75913685D02*
X172380488Y-75842257D01*
X172380488Y-75842257D02*
X172237630Y-75770828D01*
X170451917Y-75770828D02*
X170737631Y-75770828D01*
X170737631Y-75770828D02*
X170880488Y-75842257D01*
X170880488Y-75842257D02*
X170951917Y-75913685D01*
X170951917Y-75913685D02*
X171094774Y-76127971D01*
X171094774Y-76127971D02*
X171166202Y-76413685D01*
X171166202Y-76413685D02*
X171166202Y-76985114D01*
X171166202Y-76985114D02*
X171094774Y-77127971D01*
X171094774Y-77127971D02*
X171023345Y-77199400D01*
X171023345Y-77199400D02*
X170880488Y-77270828D01*
X170880488Y-77270828D02*
X170594774Y-77270828D01*
X170594774Y-77270828D02*
X170451917Y-77199400D01*
X170451917Y-77199400D02*
X170380488Y-77127971D01*
X170380488Y-77127971D02*
X170309059Y-76985114D01*
X170309059Y-76985114D02*
X170309059Y-76627971D01*
X170309059Y-76627971D02*
X170380488Y-76485114D01*
X170380488Y-76485114D02*
X170451917Y-76413685D01*
X170451917Y-76413685D02*
X170594774Y-76342257D01*
X170594774Y-76342257D02*
X170880488Y-76342257D01*
X170880488Y-76342257D02*
X171023345Y-76413685D01*
X171023345Y-76413685D02*
X171094774Y-76485114D01*
X171094774Y-76485114D02*
X171166202Y-76627971D01*
D10*
X172782068Y-44124942D02*
X172839211Y-44096371D01*
X172839211Y-44096371D02*
X172924925Y-44096371D01*
X172924925Y-44096371D02*
X173010639Y-44124942D01*
X173010639Y-44124942D02*
X173067782Y-44182085D01*
X173067782Y-44182085D02*
X173096353Y-44239228D01*
X173096353Y-44239228D02*
X173124925Y-44353514D01*
X173124925Y-44353514D02*
X173124925Y-44439228D01*
X173124925Y-44439228D02*
X173096353Y-44553514D01*
X173096353Y-44553514D02*
X173067782Y-44610657D01*
X173067782Y-44610657D02*
X173010639Y-44667800D01*
X173010639Y-44667800D02*
X172924925Y-44696371D01*
X172924925Y-44696371D02*
X172867782Y-44696371D01*
X172867782Y-44696371D02*
X172782068Y-44667800D01*
X172782068Y-44667800D02*
X172753496Y-44639228D01*
X172753496Y-44639228D02*
X172753496Y-44439228D01*
X172753496Y-44439228D02*
X172867782Y-44439228D01*
X172496353Y-44696371D02*
X172496353Y-44096371D01*
X172496353Y-44096371D02*
X172153496Y-44696371D01*
X172153496Y-44696371D02*
X172153496Y-44096371D01*
X171867782Y-44696371D02*
X171867782Y-44096371D01*
X171867782Y-44096371D02*
X171724925Y-44096371D01*
X171724925Y-44096371D02*
X171639211Y-44124942D01*
X171639211Y-44124942D02*
X171582068Y-44182085D01*
X171582068Y-44182085D02*
X171553497Y-44239228D01*
X171553497Y-44239228D02*
X171524925Y-44353514D01*
X171524925Y-44353514D02*
X171524925Y-44439228D01*
X171524925Y-44439228D02*
X171553497Y-44553514D01*
X171553497Y-44553514D02*
X171582068Y-44610657D01*
X171582068Y-44610657D02*
X171639211Y-44667800D01*
X171639211Y-44667800D02*
X171724925Y-44696371D01*
X171724925Y-44696371D02*
X171867782Y-44696371D01*
D13*
X93240652Y-72079438D02*
X93240652Y-70079438D01*
X93240652Y-70079438D02*
X92478747Y-70079438D01*
X92478747Y-70079438D02*
X92288271Y-70174676D01*
X92288271Y-70174676D02*
X92193033Y-70269914D01*
X92193033Y-70269914D02*
X92097795Y-70460390D01*
X92097795Y-70460390D02*
X92097795Y-70746104D01*
X92097795Y-70746104D02*
X92193033Y-70936580D01*
X92193033Y-70936580D02*
X92288271Y-71031819D01*
X92288271Y-71031819D02*
X92478747Y-71127057D01*
X92478747Y-71127057D02*
X93240652Y-71127057D01*
X90859700Y-70079438D02*
X90478747Y-70079438D01*
X90478747Y-70079438D02*
X90288271Y-70174676D01*
X90288271Y-70174676D02*
X90097795Y-70365152D01*
X90097795Y-70365152D02*
X90002557Y-70746104D01*
X90002557Y-70746104D02*
X90002557Y-71412771D01*
X90002557Y-71412771D02*
X90097795Y-71793723D01*
X90097795Y-71793723D02*
X90288271Y-71984200D01*
X90288271Y-71984200D02*
X90478747Y-72079438D01*
X90478747Y-72079438D02*
X90859700Y-72079438D01*
X90859700Y-72079438D02*
X91050176Y-71984200D01*
X91050176Y-71984200D02*
X91240652Y-71793723D01*
X91240652Y-71793723D02*
X91335890Y-71412771D01*
X91335890Y-71412771D02*
X91335890Y-70746104D01*
X91335890Y-70746104D02*
X91240652Y-70365152D01*
X91240652Y-70365152D02*
X91050176Y-70174676D01*
X91050176Y-70174676D02*
X90859700Y-70079438D01*
X89335890Y-70079438D02*
X88859700Y-72079438D01*
X88859700Y-72079438D02*
X88478747Y-70650866D01*
X88478747Y-70650866D02*
X88097795Y-72079438D01*
X88097795Y-72079438D02*
X87621605Y-70079438D01*
X86859700Y-71031819D02*
X86193033Y-71031819D01*
X85907319Y-72079438D02*
X86859700Y-72079438D01*
X86859700Y-72079438D02*
X86859700Y-70079438D01*
X86859700Y-70079438D02*
X85907319Y-70079438D01*
X83907319Y-72079438D02*
X84573986Y-71127057D01*
X85050176Y-72079438D02*
X85050176Y-70079438D01*
X85050176Y-70079438D02*
X84288271Y-70079438D01*
X84288271Y-70079438D02*
X84097795Y-70174676D01*
X84097795Y-70174676D02*
X84002557Y-70269914D01*
X84002557Y-70269914D02*
X83907319Y-70460390D01*
X83907319Y-70460390D02*
X83907319Y-70746104D01*
X83907319Y-70746104D02*
X84002557Y-70936580D01*
X84002557Y-70936580D02*
X84097795Y-71031819D01*
X84097795Y-71031819D02*
X84288271Y-71127057D01*
X84288271Y-71127057D02*
X85050176Y-71127057D01*
X93240652Y-75299438D02*
X93240652Y-73299438D01*
X92288271Y-75299438D02*
X92288271Y-73299438D01*
X92288271Y-73299438D02*
X91145414Y-75299438D01*
X91145414Y-75299438D02*
X91145414Y-73299438D01*
X90193033Y-75299438D02*
X90193033Y-73299438D01*
X90193033Y-73299438D02*
X89431128Y-73299438D01*
X89431128Y-73299438D02*
X89240652Y-73394676D01*
X89240652Y-73394676D02*
X89145414Y-73489914D01*
X89145414Y-73489914D02*
X89050176Y-73680390D01*
X89050176Y-73680390D02*
X89050176Y-73966104D01*
X89050176Y-73966104D02*
X89145414Y-74156580D01*
X89145414Y-74156580D02*
X89240652Y-74251819D01*
X89240652Y-74251819D02*
X89431128Y-74347057D01*
X89431128Y-74347057D02*
X90193033Y-74347057D01*
X88193033Y-73299438D02*
X88193033Y-74918485D01*
X88193033Y-74918485D02*
X88097795Y-75108961D01*
X88097795Y-75108961D02*
X88002557Y-75204200D01*
X88002557Y-75204200D02*
X87812081Y-75299438D01*
X87812081Y-75299438D02*
X87431128Y-75299438D01*
X87431128Y-75299438D02*
X87240652Y-75204200D01*
X87240652Y-75204200D02*
X87145414Y-75108961D01*
X87145414Y-75108961D02*
X87050176Y-74918485D01*
X87050176Y-74918485D02*
X87050176Y-73299438D01*
X86383509Y-73299438D02*
X85240652Y-73299438D01*
X85812081Y-75299438D02*
X85812081Y-73299438D01*
D14*
X79760000Y-34500000D02*
X179760000Y-34500000D01*
X179760000Y-84500000D01*
X79760000Y-84500000D01*
X79760000Y-34500000D01*
M02*
