M48
; DRILL file {KiCad 7.0.11+dfsg-1build4} date vie 15 may 2026 19:03:09
; FORMAT={-:-/ absolute / metric / decimal}
; #@! TF.CreationDate,2026-05-15T19:03:09-05:00
; #@! TF.GenerationSoftware,Kicad,Pcbnew,7.0.11+dfsg-1build4
; #@! TF.FileFunction,Plated,1,2,PTH
FMAT,2
METRIC
; #@! TA.AperFunction,Plated,PTH,ViaDrill
T1C0.300
; #@! TA.AperFunction,Plated,PTH,ComponentDrill
T2C0.600
; #@! TA.AperFunction,Plated,PTH,ComponentDrill
T3C1.000
; #@! TA.AperFunction,Plated,PTH,ComponentDrill
T4C1.200
%
G90
G05
T1
X89.018Y-67.145
X89.128Y-44.831
X89.128Y-56.637
X89.233Y-35.309
X89.279Y-70.023
X90.17Y-74.93
X90.17Y-76.35
X91.573Y-71.755
X93.345Y-71.751
X93.87Y-37.091
X93.87Y-65.76
X93.873Y-68.687
X97.155Y-59.69
X97.628Y-42.557
X97.813Y-72.887
X97.904Y-36.726
X98.311Y-48.619
X99.169Y-47.973
X99.324Y-36.7
X99.695Y-59.69
X102.524Y-50.9
X102.524Y-61.851
X102.556Y-36.606
X102.794Y-54.491
X103.505Y-59.494
X103.517Y-55.736
X105.41Y-41.275
X109.855Y-57.15
X110.49Y-52.705
X110.49Y-73.025
X111.76Y-36.195
X111.76Y-37.465
X111.76Y-60.96
X112.395Y-49.53
X113.665Y-41.19
X113.665Y-43.18
X113.665Y-46.355
X115.57Y-38.978
X115.57Y-51.435
X118.659Y-68.358
X125.73Y-75.565
X148.192Y-68.58
X148.192Y-73.508
X151.864Y-73.6
X152.64Y-55.63
X154.923Y-74.913
X155.043Y-73.656
X155.672Y-70.444
X158.115Y-54.61
X160.02Y-74.295
X161.29Y-72.39
T3
X117.465Y-37.85
X117.465Y-40.39
X117.465Y-42.93
X117.465Y-45.47
X117.465Y-48.01
X117.465Y-50.55
X117.465Y-53.09
X117.465Y-55.63
X132.705Y-37.85
X132.705Y-40.39
X132.705Y-42.93
X132.705Y-45.47
X132.705Y-48.01
X132.705Y-50.55
X132.705Y-53.09
X132.705Y-55.63
X144.145Y-41.371
X146.685Y-41.371
X149.225Y-41.371
X151.765Y-41.371
T4
X164.17Y-38.95
X164.17Y-42.45
X164.17Y-45.95
X164.17Y-49.45
X164.17Y-52.95
X164.17Y-56.45
X164.17Y-59.95
X175.6Y-37.2
X175.6Y-40.7
X175.6Y-44.2
X175.6Y-47.7
X175.6Y-51.2
X175.6Y-54.7
X175.6Y-58.2
T2
G00X83.2Y-35.58
M15
G01X82.6Y-35.58
M16
G05
G00X83.2Y-44.22
M15
G01X82.6Y-44.22
M16
G05
G00X83.2Y-46.43
M15
G01X82.6Y-46.43
M16
G05
G00X83.2Y-55.07
M15
G01X82.6Y-55.07
M16
G05
G00X83.2Y-57.28
M15
G01X82.6Y-57.28
M16
G05
G00X83.2Y-65.92
M15
G01X82.6Y-65.92
M16
G05
G00X83.2Y-68.18
M15
G01X82.6Y-68.18
M16
G05
G00X83.2Y-76.82
M15
G01X82.6Y-76.82
M16
G05
G00X87.63Y-35.58
M15
G01X86.53Y-35.58
M16
G05
G00X87.63Y-44.22
M15
G01X86.53Y-44.22
M16
G05
G00X87.63Y-46.43
M15
G01X86.53Y-46.43
M16
G05
G00X87.63Y-55.07
M15
G01X86.53Y-55.07
M16
G05
G00X87.63Y-57.28
M15
G01X86.53Y-57.28
M16
G05
G00X87.63Y-65.92
M15
G01X86.53Y-65.92
M16
G05
G00X87.63Y-68.18
M15
G01X86.53Y-68.18
M16
G05
G00X87.63Y-76.82
M15
G01X86.53Y-76.82
M16
G05
M30
