%TF.GenerationSoftware,KiCad,Pcbnew,7.0.11+dfsg-1build4*%
%TF.CreationDate,2026-09-11T20:20:41-05:00*%
%TF.ProjectId,b06,6230362e-6b69-4636-9164-5f7063625858,rev?*%
%TF.SameCoordinates,Original*%
%TF.FileFunction,Legend,Top*%
%TF.FilePolarity,Positive*%
%FSLAX46Y46*%
G04 Gerber Fmt 4.6, Leading zero omitted, Abs format (unit mm)*
G04 Created by KiCad (PCBNEW 7.0.11+dfsg-1build4) date 2026-09-11 20:20:41*
%MOMM*%
%LPD*%
G01*
G04 APERTURE LIST*
%ADD10C,0.100000*%
%ADD11C,0.250000*%
%ADD12C,0.150000*%
%ADD13C,0.300000*%
%ADD14C,0.120000*%
%TA.AperFunction,Profile*%
%ADD15C,0.050000*%
%TD*%
G04 APERTURE END LIST*
D10*
X103250000Y-78250000D02*
X102150000Y-78250000D01*
X101750000Y-78250000D02*
X100650000Y-78250000D01*
X100250000Y-78250000D02*
X99150000Y-78250000D01*
X98750000Y-78250000D02*
X97650000Y-78250000D01*
X97250000Y-78250000D02*
X96150000Y-78250000D01*
X95750000Y-78250000D02*
X94650000Y-78250000D01*
X94250000Y-78250000D02*
X93150000Y-78250000D01*
X92750000Y-78250000D02*
X91650000Y-78250000D01*
X91250000Y-78250000D02*
X90150000Y-78250000D01*
X89750000Y-78250000D02*
X88650000Y-78250000D01*
X88250000Y-78250000D02*
X87150000Y-78250000D01*
X86750000Y-78250000D02*
X85650000Y-78250000D01*
X85250000Y-78250000D02*
X84150000Y-78250000D01*
X83750000Y-78250000D02*
X82650000Y-78250000D01*
X82250000Y-78250000D02*
X81150000Y-78250000D01*
X80750000Y-78250000D02*
X80000000Y-78250000D01*
X103250000Y-73000000D02*
X103250000Y-74100000D01*
X103250000Y-74500000D02*
X103250000Y-75600000D01*
X103250000Y-76000000D02*
X103250000Y-77100000D01*
X103250000Y-77500000D02*
X103250000Y-78000000D01*
X89500000Y-73000000D02*
X90600000Y-73000000D01*
X91000000Y-73000000D02*
X92100000Y-73000000D01*
X92500000Y-73000000D02*
X93600000Y-73000000D01*
X94000000Y-73000000D02*
X95100000Y-73000000D01*
X95500000Y-73000000D02*
X96600000Y-73000000D01*
X97000000Y-73000000D02*
X98100000Y-73000000D01*
X98500000Y-73000000D02*
X99600000Y-73000000D01*
X100000000Y-73000000D02*
X101100000Y-73000000D01*
X101500000Y-73000000D02*
X102600000Y-73000000D01*
X103000000Y-73000000D02*
X103250000Y-73000000D01*
X89500000Y-67000000D02*
X89500000Y-68100000D01*
X89500000Y-68500000D02*
X89500000Y-69600000D01*
X89500000Y-70000000D02*
X89500000Y-71100000D01*
X89500000Y-71500000D02*
X89500000Y-72600000D01*
X89500000Y-73000000D02*
X89500000Y-73000000D01*
X79750000Y-67000000D02*
X80850000Y-67000000D01*
X81250000Y-67000000D02*
X82350000Y-67000000D01*
X82750000Y-67000000D02*
X83850000Y-67000000D01*
X84250000Y-67000000D02*
X85350000Y-67000000D01*
X85750000Y-67000000D02*
X86850000Y-67000000D01*
X87250000Y-67000000D02*
X88350000Y-67000000D01*
X88750000Y-67000000D02*
X89500000Y-67000000D01*
D11*
X97902568Y-75504619D02*
X97902568Y-74504619D01*
X97902568Y-74504619D02*
X98283520Y-74504619D01*
X98283520Y-74504619D02*
X98378758Y-74552238D01*
X98378758Y-74552238D02*
X98426377Y-74599857D01*
X98426377Y-74599857D02*
X98473996Y-74695095D01*
X98473996Y-74695095D02*
X98473996Y-74837952D01*
X98473996Y-74837952D02*
X98426377Y-74933190D01*
X98426377Y-74933190D02*
X98378758Y-74980809D01*
X98378758Y-74980809D02*
X98283520Y-75028428D01*
X98283520Y-75028428D02*
X97902568Y-75028428D01*
X99093044Y-74504619D02*
X99283520Y-74504619D01*
X99283520Y-74504619D02*
X99378758Y-74552238D01*
X99378758Y-74552238D02*
X99473996Y-74647476D01*
X99473996Y-74647476D02*
X99521615Y-74837952D01*
X99521615Y-74837952D02*
X99521615Y-75171285D01*
X99521615Y-75171285D02*
X99473996Y-75361761D01*
X99473996Y-75361761D02*
X99378758Y-75457000D01*
X99378758Y-75457000D02*
X99283520Y-75504619D01*
X99283520Y-75504619D02*
X99093044Y-75504619D01*
X99093044Y-75504619D02*
X98997806Y-75457000D01*
X98997806Y-75457000D02*
X98902568Y-75361761D01*
X98902568Y-75361761D02*
X98854949Y-75171285D01*
X98854949Y-75171285D02*
X98854949Y-74837952D01*
X98854949Y-74837952D02*
X98902568Y-74647476D01*
X98902568Y-74647476D02*
X98997806Y-74552238D01*
X98997806Y-74552238D02*
X99093044Y-74504619D01*
X99854949Y-74504619D02*
X100093044Y-75504619D01*
X100093044Y-75504619D02*
X100283520Y-74790333D01*
X100283520Y-74790333D02*
X100473996Y-75504619D01*
X100473996Y-75504619D02*
X100712092Y-74504619D01*
X101093044Y-74980809D02*
X101426377Y-74980809D01*
X101569234Y-75504619D02*
X101093044Y-75504619D01*
X101093044Y-75504619D02*
X101093044Y-74504619D01*
X101093044Y-74504619D02*
X101569234Y-74504619D01*
X102569234Y-75504619D02*
X102235901Y-75028428D01*
X101997806Y-75504619D02*
X101997806Y-74504619D01*
X101997806Y-74504619D02*
X102378758Y-74504619D01*
X102378758Y-74504619D02*
X102473996Y-74552238D01*
X102473996Y-74552238D02*
X102521615Y-74599857D01*
X102521615Y-74599857D02*
X102569234Y-74695095D01*
X102569234Y-74695095D02*
X102569234Y-74837952D01*
X102569234Y-74837952D02*
X102521615Y-74933190D01*
X102521615Y-74933190D02*
X102473996Y-74980809D01*
X102473996Y-74980809D02*
X102378758Y-75028428D01*
X102378758Y-75028428D02*
X101997806Y-75028428D01*
X97902568Y-77114619D02*
X97902568Y-76114619D01*
X98378758Y-77114619D02*
X98378758Y-76114619D01*
X98378758Y-76114619D02*
X98950186Y-77114619D01*
X98950186Y-77114619D02*
X98950186Y-76114619D01*
X99426377Y-77114619D02*
X99426377Y-76114619D01*
X99426377Y-76114619D02*
X99807329Y-76114619D01*
X99807329Y-76114619D02*
X99902567Y-76162238D01*
X99902567Y-76162238D02*
X99950186Y-76209857D01*
X99950186Y-76209857D02*
X99997805Y-76305095D01*
X99997805Y-76305095D02*
X99997805Y-76447952D01*
X99997805Y-76447952D02*
X99950186Y-76543190D01*
X99950186Y-76543190D02*
X99902567Y-76590809D01*
X99902567Y-76590809D02*
X99807329Y-76638428D01*
X99807329Y-76638428D02*
X99426377Y-76638428D01*
X100426377Y-76114619D02*
X100426377Y-76924142D01*
X100426377Y-76924142D02*
X100473996Y-77019380D01*
X100473996Y-77019380D02*
X100521615Y-77067000D01*
X100521615Y-77067000D02*
X100616853Y-77114619D01*
X100616853Y-77114619D02*
X100807329Y-77114619D01*
X100807329Y-77114619D02*
X100902567Y-77067000D01*
X100902567Y-77067000D02*
X100950186Y-77019380D01*
X100950186Y-77019380D02*
X100997805Y-76924142D01*
X100997805Y-76924142D02*
X100997805Y-76114619D01*
X101331139Y-76114619D02*
X101902567Y-76114619D01*
X101616853Y-77114619D02*
X101616853Y-76114619D01*
D10*
X79850000Y-78000000D02*
X179670000Y-78000000D01*
X120223646Y-59932085D02*
X120423646Y-59932085D01*
X120509360Y-60246371D02*
X120223646Y-60246371D01*
X120223646Y-60246371D02*
X120223646Y-59646371D01*
X120223646Y-59646371D02*
X120509360Y-59646371D01*
X120737931Y-60217800D02*
X120823646Y-60246371D01*
X120823646Y-60246371D02*
X120966503Y-60246371D01*
X120966503Y-60246371D02*
X121023646Y-60217800D01*
X121023646Y-60217800D02*
X121052217Y-60189228D01*
X121052217Y-60189228D02*
X121080788Y-60132085D01*
X121080788Y-60132085D02*
X121080788Y-60074942D01*
X121080788Y-60074942D02*
X121052217Y-60017800D01*
X121052217Y-60017800D02*
X121023646Y-59989228D01*
X121023646Y-59989228D02*
X120966503Y-59960657D01*
X120966503Y-59960657D02*
X120852217Y-59932085D01*
X120852217Y-59932085D02*
X120795074Y-59903514D01*
X120795074Y-59903514D02*
X120766503Y-59874942D01*
X120766503Y-59874942D02*
X120737931Y-59817800D01*
X120737931Y-59817800D02*
X120737931Y-59760657D01*
X120737931Y-59760657D02*
X120766503Y-59703514D01*
X120766503Y-59703514D02*
X120795074Y-59674942D01*
X120795074Y-59674942D02*
X120852217Y-59646371D01*
X120852217Y-59646371D02*
X120995074Y-59646371D01*
X120995074Y-59646371D02*
X121080788Y-59674942D01*
X121337932Y-60246371D02*
X121337932Y-59646371D01*
X121337932Y-59646371D02*
X121566503Y-59646371D01*
X121566503Y-59646371D02*
X121623646Y-59674942D01*
X121623646Y-59674942D02*
X121652217Y-59703514D01*
X121652217Y-59703514D02*
X121680789Y-59760657D01*
X121680789Y-59760657D02*
X121680789Y-59846371D01*
X121680789Y-59846371D02*
X121652217Y-59903514D01*
X121652217Y-59903514D02*
X121623646Y-59932085D01*
X121623646Y-59932085D02*
X121566503Y-59960657D01*
X121566503Y-59960657D02*
X121337932Y-59960657D01*
X121880789Y-59646371D02*
X122252217Y-59646371D01*
X122252217Y-59646371D02*
X122052217Y-59874942D01*
X122052217Y-59874942D02*
X122137932Y-59874942D01*
X122137932Y-59874942D02*
X122195075Y-59903514D01*
X122195075Y-59903514D02*
X122223646Y-59932085D01*
X122223646Y-59932085D02*
X122252217Y-59989228D01*
X122252217Y-59989228D02*
X122252217Y-60132085D01*
X122252217Y-60132085D02*
X122223646Y-60189228D01*
X122223646Y-60189228D02*
X122195075Y-60217800D01*
X122195075Y-60217800D02*
X122137932Y-60246371D01*
X122137932Y-60246371D02*
X121966503Y-60246371D01*
X121966503Y-60246371D02*
X121909360Y-60217800D01*
X121909360Y-60217800D02*
X121880789Y-60189228D01*
X122480789Y-59703514D02*
X122509361Y-59674942D01*
X122509361Y-59674942D02*
X122566504Y-59646371D01*
X122566504Y-59646371D02*
X122709361Y-59646371D01*
X122709361Y-59646371D02*
X122766504Y-59674942D01*
X122766504Y-59674942D02*
X122795075Y-59703514D01*
X122795075Y-59703514D02*
X122823646Y-59760657D01*
X122823646Y-59760657D02*
X122823646Y-59817800D01*
X122823646Y-59817800D02*
X122795075Y-59903514D01*
X122795075Y-59903514D02*
X122452218Y-60246371D01*
X122452218Y-60246371D02*
X122823646Y-60246371D01*
X123080790Y-60017800D02*
X123537933Y-60017800D01*
X124166504Y-60189228D02*
X124137932Y-60217800D01*
X124137932Y-60217800D02*
X124052218Y-60246371D01*
X124052218Y-60246371D02*
X123995075Y-60246371D01*
X123995075Y-60246371D02*
X123909361Y-60217800D01*
X123909361Y-60217800D02*
X123852218Y-60160657D01*
X123852218Y-60160657D02*
X123823647Y-60103514D01*
X123823647Y-60103514D02*
X123795075Y-59989228D01*
X123795075Y-59989228D02*
X123795075Y-59903514D01*
X123795075Y-59903514D02*
X123823647Y-59789228D01*
X123823647Y-59789228D02*
X123852218Y-59732085D01*
X123852218Y-59732085D02*
X123909361Y-59674942D01*
X123909361Y-59674942D02*
X123995075Y-59646371D01*
X123995075Y-59646371D02*
X124052218Y-59646371D01*
X124052218Y-59646371D02*
X124137932Y-59674942D01*
X124137932Y-59674942D02*
X124166504Y-59703514D01*
X124366504Y-59646371D02*
X124737932Y-59646371D01*
X124737932Y-59646371D02*
X124537932Y-59874942D01*
X124537932Y-59874942D02*
X124623647Y-59874942D01*
X124623647Y-59874942D02*
X124680790Y-59903514D01*
X124680790Y-59903514D02*
X124709361Y-59932085D01*
X124709361Y-59932085D02*
X124737932Y-59989228D01*
X124737932Y-59989228D02*
X124737932Y-60132085D01*
X124737932Y-60132085D02*
X124709361Y-60189228D01*
X124709361Y-60189228D02*
X124680790Y-60217800D01*
X124680790Y-60217800D02*
X124623647Y-60246371D01*
X124623647Y-60246371D02*
X124452218Y-60246371D01*
X124452218Y-60246371D02*
X124395075Y-60217800D01*
X124395075Y-60217800D02*
X124366504Y-60189228D01*
X124995076Y-60017800D02*
X125452219Y-60017800D01*
X125709361Y-60217800D02*
X125795076Y-60246371D01*
X125795076Y-60246371D02*
X125937933Y-60246371D01*
X125937933Y-60246371D02*
X125995076Y-60217800D01*
X125995076Y-60217800D02*
X126023647Y-60189228D01*
X126023647Y-60189228D02*
X126052218Y-60132085D01*
X126052218Y-60132085D02*
X126052218Y-60074942D01*
X126052218Y-60074942D02*
X126023647Y-60017800D01*
X126023647Y-60017800D02*
X125995076Y-59989228D01*
X125995076Y-59989228D02*
X125937933Y-59960657D01*
X125937933Y-59960657D02*
X125823647Y-59932085D01*
X125823647Y-59932085D02*
X125766504Y-59903514D01*
X125766504Y-59903514D02*
X125737933Y-59874942D01*
X125737933Y-59874942D02*
X125709361Y-59817800D01*
X125709361Y-59817800D02*
X125709361Y-59760657D01*
X125709361Y-59760657D02*
X125737933Y-59703514D01*
X125737933Y-59703514D02*
X125766504Y-59674942D01*
X125766504Y-59674942D02*
X125823647Y-59646371D01*
X125823647Y-59646371D02*
X125966504Y-59646371D01*
X125966504Y-59646371D02*
X126052218Y-59674942D01*
X126309362Y-59646371D02*
X126309362Y-60132085D01*
X126309362Y-60132085D02*
X126337933Y-60189228D01*
X126337933Y-60189228D02*
X126366505Y-60217800D01*
X126366505Y-60217800D02*
X126423647Y-60246371D01*
X126423647Y-60246371D02*
X126537933Y-60246371D01*
X126537933Y-60246371D02*
X126595076Y-60217800D01*
X126595076Y-60217800D02*
X126623647Y-60189228D01*
X126623647Y-60189228D02*
X126652219Y-60132085D01*
X126652219Y-60132085D02*
X126652219Y-59646371D01*
X126937933Y-60246371D02*
X126937933Y-59646371D01*
X126937933Y-59646371D02*
X127166504Y-59646371D01*
X127166504Y-59646371D02*
X127223647Y-59674942D01*
X127223647Y-59674942D02*
X127252218Y-59703514D01*
X127252218Y-59703514D02*
X127280790Y-59760657D01*
X127280790Y-59760657D02*
X127280790Y-59846371D01*
X127280790Y-59846371D02*
X127252218Y-59903514D01*
X127252218Y-59903514D02*
X127223647Y-59932085D01*
X127223647Y-59932085D02*
X127166504Y-59960657D01*
X127166504Y-59960657D02*
X126937933Y-59960657D01*
X127537933Y-59932085D02*
X127737933Y-59932085D01*
X127823647Y-60246371D02*
X127537933Y-60246371D01*
X127537933Y-60246371D02*
X127537933Y-59646371D01*
X127537933Y-59646371D02*
X127823647Y-59646371D01*
X128423647Y-60246371D02*
X128223647Y-59960657D01*
X128080790Y-60246371D02*
X128080790Y-59646371D01*
X128080790Y-59646371D02*
X128309361Y-59646371D01*
X128309361Y-59646371D02*
X128366504Y-59674942D01*
X128366504Y-59674942D02*
X128395075Y-59703514D01*
X128395075Y-59703514D02*
X128423647Y-59760657D01*
X128423647Y-59760657D02*
X128423647Y-59846371D01*
X128423647Y-59846371D02*
X128395075Y-59903514D01*
X128395075Y-59903514D02*
X128366504Y-59932085D01*
X128366504Y-59932085D02*
X128309361Y-59960657D01*
X128309361Y-59960657D02*
X128080790Y-59960657D01*
X128680790Y-60246371D02*
X128680790Y-59646371D01*
X128680790Y-59646371D02*
X128880790Y-60074942D01*
X128880790Y-60074942D02*
X129080790Y-59646371D01*
X129080790Y-59646371D02*
X129080790Y-60246371D01*
X129366504Y-60246371D02*
X129366504Y-59646371D01*
X129652218Y-60246371D02*
X129652218Y-59646371D01*
X129652218Y-59646371D02*
X129995075Y-60246371D01*
X129995075Y-60246371D02*
X129995075Y-59646371D01*
X130280789Y-60246371D02*
X130280789Y-59646371D01*
X145547455Y-37944133D02*
X145780789Y-38644133D01*
X145780789Y-38644133D02*
X146014122Y-37944133D01*
X146647455Y-38577466D02*
X146614122Y-38610800D01*
X146614122Y-38610800D02*
X146514122Y-38644133D01*
X146514122Y-38644133D02*
X146447455Y-38644133D01*
X146447455Y-38644133D02*
X146347455Y-38610800D01*
X146347455Y-38610800D02*
X146280789Y-38544133D01*
X146280789Y-38544133D02*
X146247455Y-38477466D01*
X146247455Y-38477466D02*
X146214122Y-38344133D01*
X146214122Y-38344133D02*
X146214122Y-38244133D01*
X146214122Y-38244133D02*
X146247455Y-38110800D01*
X146247455Y-38110800D02*
X146280789Y-38044133D01*
X146280789Y-38044133D02*
X146347455Y-37977466D01*
X146347455Y-37977466D02*
X146447455Y-37944133D01*
X146447455Y-37944133D02*
X146514122Y-37944133D01*
X146514122Y-37944133D02*
X146614122Y-37977466D01*
X146614122Y-37977466D02*
X146647455Y-38010800D01*
X147347455Y-38577466D02*
X147314122Y-38610800D01*
X147314122Y-38610800D02*
X147214122Y-38644133D01*
X147214122Y-38644133D02*
X147147455Y-38644133D01*
X147147455Y-38644133D02*
X147047455Y-38610800D01*
X147047455Y-38610800D02*
X146980789Y-38544133D01*
X146980789Y-38544133D02*
X146947455Y-38477466D01*
X146947455Y-38477466D02*
X146914122Y-38344133D01*
X146914122Y-38344133D02*
X146914122Y-38244133D01*
X146914122Y-38244133D02*
X146947455Y-38110800D01*
X146947455Y-38110800D02*
X146980789Y-38044133D01*
X146980789Y-38044133D02*
X147047455Y-37977466D01*
X147047455Y-37977466D02*
X147147455Y-37944133D01*
X147147455Y-37944133D02*
X147214122Y-37944133D01*
X147214122Y-37944133D02*
X147314122Y-37977466D01*
X147314122Y-37977466D02*
X147347455Y-38010800D01*
D12*
X173520350Y-70761533D02*
X173753684Y-71461533D01*
X173753684Y-71461533D02*
X173987017Y-70761533D01*
X174620350Y-71394866D02*
X174587017Y-71428200D01*
X174587017Y-71428200D02*
X174487017Y-71461533D01*
X174487017Y-71461533D02*
X174420350Y-71461533D01*
X174420350Y-71461533D02*
X174320350Y-71428200D01*
X174320350Y-71428200D02*
X174253684Y-71361533D01*
X174253684Y-71361533D02*
X174220350Y-71294866D01*
X174220350Y-71294866D02*
X174187017Y-71161533D01*
X174187017Y-71161533D02*
X174187017Y-71061533D01*
X174187017Y-71061533D02*
X174220350Y-70928200D01*
X174220350Y-70928200D02*
X174253684Y-70861533D01*
X174253684Y-70861533D02*
X174320350Y-70794866D01*
X174320350Y-70794866D02*
X174420350Y-70761533D01*
X174420350Y-70761533D02*
X174487017Y-70761533D01*
X174487017Y-70761533D02*
X174587017Y-70794866D01*
X174587017Y-70794866D02*
X174620350Y-70828200D01*
X175320350Y-71394866D02*
X175287017Y-71428200D01*
X175287017Y-71428200D02*
X175187017Y-71461533D01*
X175187017Y-71461533D02*
X175120350Y-71461533D01*
X175120350Y-71461533D02*
X175020350Y-71428200D01*
X175020350Y-71428200D02*
X174953684Y-71361533D01*
X174953684Y-71361533D02*
X174920350Y-71294866D01*
X174920350Y-71294866D02*
X174887017Y-71161533D01*
X174887017Y-71161533D02*
X174887017Y-71061533D01*
X174887017Y-71061533D02*
X174920350Y-70928200D01*
X174920350Y-70928200D02*
X174953684Y-70861533D01*
X174953684Y-70861533D02*
X175020350Y-70794866D01*
X175020350Y-70794866D02*
X175120350Y-70761533D01*
X175120350Y-70761533D02*
X175187017Y-70761533D01*
X175187017Y-70761533D02*
X175287017Y-70794866D01*
X175287017Y-70794866D02*
X175320350Y-70828200D01*
D10*
X150694122Y-38610800D02*
X150794122Y-38644133D01*
X150794122Y-38644133D02*
X150960789Y-38644133D01*
X150960789Y-38644133D02*
X151027455Y-38610800D01*
X151027455Y-38610800D02*
X151060789Y-38577466D01*
X151060789Y-38577466D02*
X151094122Y-38510800D01*
X151094122Y-38510800D02*
X151094122Y-38444133D01*
X151094122Y-38444133D02*
X151060789Y-38377466D01*
X151060789Y-38377466D02*
X151027455Y-38344133D01*
X151027455Y-38344133D02*
X150960789Y-38310800D01*
X150960789Y-38310800D02*
X150827455Y-38277466D01*
X150827455Y-38277466D02*
X150760789Y-38244133D01*
X150760789Y-38244133D02*
X150727455Y-38210800D01*
X150727455Y-38210800D02*
X150694122Y-38144133D01*
X150694122Y-38144133D02*
X150694122Y-38077466D01*
X150694122Y-38077466D02*
X150727455Y-38010800D01*
X150727455Y-38010800D02*
X150760789Y-37977466D01*
X150760789Y-37977466D02*
X150827455Y-37944133D01*
X150827455Y-37944133D02*
X150994122Y-37944133D01*
X150994122Y-37944133D02*
X151094122Y-37977466D01*
X151394122Y-38644133D02*
X151394122Y-37944133D01*
X151394122Y-37944133D02*
X151560789Y-37944133D01*
X151560789Y-37944133D02*
X151660789Y-37977466D01*
X151660789Y-37977466D02*
X151727456Y-38044133D01*
X151727456Y-38044133D02*
X151760789Y-38110800D01*
X151760789Y-38110800D02*
X151794122Y-38244133D01*
X151794122Y-38244133D02*
X151794122Y-38344133D01*
X151794122Y-38344133D02*
X151760789Y-38477466D01*
X151760789Y-38477466D02*
X151727456Y-38544133D01*
X151727456Y-38544133D02*
X151660789Y-38610800D01*
X151660789Y-38610800D02*
X151560789Y-38644133D01*
X151560789Y-38644133D02*
X151394122Y-38644133D01*
X152060789Y-38444133D02*
X152394122Y-38444133D01*
X151994122Y-38644133D02*
X152227456Y-37944133D01*
X152227456Y-37944133D02*
X152460789Y-38644133D01*
X148154122Y-38610800D02*
X148254122Y-38644133D01*
X148254122Y-38644133D02*
X148420789Y-38644133D01*
X148420789Y-38644133D02*
X148487455Y-38610800D01*
X148487455Y-38610800D02*
X148520789Y-38577466D01*
X148520789Y-38577466D02*
X148554122Y-38510800D01*
X148554122Y-38510800D02*
X148554122Y-38444133D01*
X148554122Y-38444133D02*
X148520789Y-38377466D01*
X148520789Y-38377466D02*
X148487455Y-38344133D01*
X148487455Y-38344133D02*
X148420789Y-38310800D01*
X148420789Y-38310800D02*
X148287455Y-38277466D01*
X148287455Y-38277466D02*
X148220789Y-38244133D01*
X148220789Y-38244133D02*
X148187455Y-38210800D01*
X148187455Y-38210800D02*
X148154122Y-38144133D01*
X148154122Y-38144133D02*
X148154122Y-38077466D01*
X148154122Y-38077466D02*
X148187455Y-38010800D01*
X148187455Y-38010800D02*
X148220789Y-37977466D01*
X148220789Y-37977466D02*
X148287455Y-37944133D01*
X148287455Y-37944133D02*
X148454122Y-37944133D01*
X148454122Y-37944133D02*
X148554122Y-37977466D01*
X149254122Y-38577466D02*
X149220789Y-38610800D01*
X149220789Y-38610800D02*
X149120789Y-38644133D01*
X149120789Y-38644133D02*
X149054122Y-38644133D01*
X149054122Y-38644133D02*
X148954122Y-38610800D01*
X148954122Y-38610800D02*
X148887456Y-38544133D01*
X148887456Y-38544133D02*
X148854122Y-38477466D01*
X148854122Y-38477466D02*
X148820789Y-38344133D01*
X148820789Y-38344133D02*
X148820789Y-38244133D01*
X148820789Y-38244133D02*
X148854122Y-38110800D01*
X148854122Y-38110800D02*
X148887456Y-38044133D01*
X148887456Y-38044133D02*
X148954122Y-37977466D01*
X148954122Y-37977466D02*
X149054122Y-37944133D01*
X149054122Y-37944133D02*
X149120789Y-37944133D01*
X149120789Y-37944133D02*
X149220789Y-37977466D01*
X149220789Y-37977466D02*
X149254122Y-38010800D01*
X149887456Y-38644133D02*
X149554122Y-38644133D01*
X149554122Y-38644133D02*
X149554122Y-37944133D01*
D12*
X165420350Y-71594866D02*
X165653684Y-71594866D01*
X165753684Y-71961533D02*
X165420350Y-71961533D01*
X165420350Y-71961533D02*
X165420350Y-71261533D01*
X165420350Y-71261533D02*
X165753684Y-71261533D01*
X166453683Y-71961533D02*
X166220350Y-71628200D01*
X166053683Y-71961533D02*
X166053683Y-71261533D01*
X166053683Y-71261533D02*
X166320350Y-71261533D01*
X166320350Y-71261533D02*
X166387017Y-71294866D01*
X166387017Y-71294866D02*
X166420350Y-71328200D01*
X166420350Y-71328200D02*
X166453683Y-71394866D01*
X166453683Y-71394866D02*
X166453683Y-71494866D01*
X166453683Y-71494866D02*
X166420350Y-71561533D01*
X166420350Y-71561533D02*
X166387017Y-71594866D01*
X166387017Y-71594866D02*
X166320350Y-71628200D01*
X166320350Y-71628200D02*
X166053683Y-71628200D01*
X167153683Y-71961533D02*
X166920350Y-71628200D01*
X166753683Y-71961533D02*
X166753683Y-71261533D01*
X166753683Y-71261533D02*
X167020350Y-71261533D01*
X167020350Y-71261533D02*
X167087017Y-71294866D01*
X167087017Y-71294866D02*
X167120350Y-71328200D01*
X167120350Y-71328200D02*
X167153683Y-71394866D01*
X167153683Y-71394866D02*
X167153683Y-71494866D01*
X167153683Y-71494866D02*
X167120350Y-71561533D01*
X167120350Y-71561533D02*
X167087017Y-71594866D01*
X167087017Y-71594866D02*
X167020350Y-71628200D01*
X167020350Y-71628200D02*
X166753683Y-71628200D01*
X167287017Y-72028200D02*
X167820350Y-72028200D01*
X168320350Y-71961533D02*
X167987016Y-71961533D01*
X167987016Y-71961533D02*
X167987016Y-71261533D01*
X168553683Y-71594866D02*
X168787017Y-71594866D01*
X168887017Y-71961533D02*
X168553683Y-71961533D01*
X168553683Y-71961533D02*
X168553683Y-71261533D01*
X168553683Y-71261533D02*
X168887017Y-71261533D01*
X169187016Y-71961533D02*
X169187016Y-71261533D01*
X169187016Y-71261533D02*
X169353683Y-71261533D01*
X169353683Y-71261533D02*
X169453683Y-71294866D01*
X169453683Y-71294866D02*
X169520350Y-71361533D01*
X169520350Y-71361533D02*
X169553683Y-71428200D01*
X169553683Y-71428200D02*
X169587016Y-71561533D01*
X169587016Y-71561533D02*
X169587016Y-71661533D01*
X169587016Y-71661533D02*
X169553683Y-71794866D01*
X169553683Y-71794866D02*
X169520350Y-71861533D01*
X169520350Y-71861533D02*
X169453683Y-71928200D01*
X169453683Y-71928200D02*
X169353683Y-71961533D01*
X169353683Y-71961533D02*
X169187016Y-71961533D01*
X169720350Y-72028200D02*
X170253683Y-72028200D01*
X170420349Y-71594866D02*
X170653683Y-71594866D01*
X170753683Y-71961533D02*
X170420349Y-71961533D01*
X170420349Y-71961533D02*
X170420349Y-71261533D01*
X170420349Y-71261533D02*
X170753683Y-71261533D01*
X170987016Y-71261533D02*
X171453682Y-71961533D01*
X171453682Y-71261533D02*
X170987016Y-71961533D01*
X171620349Y-71261533D02*
X172020349Y-71261533D01*
X171820349Y-71961533D02*
X171820349Y-71261533D01*
X173987017Y-73094866D02*
X173920350Y-73061533D01*
X173920350Y-73061533D02*
X173820350Y-73061533D01*
X173820350Y-73061533D02*
X173720350Y-73094866D01*
X173720350Y-73094866D02*
X173653684Y-73161533D01*
X173653684Y-73161533D02*
X173620350Y-73228200D01*
X173620350Y-73228200D02*
X173587017Y-73361533D01*
X173587017Y-73361533D02*
X173587017Y-73461533D01*
X173587017Y-73461533D02*
X173620350Y-73594866D01*
X173620350Y-73594866D02*
X173653684Y-73661533D01*
X173653684Y-73661533D02*
X173720350Y-73728200D01*
X173720350Y-73728200D02*
X173820350Y-73761533D01*
X173820350Y-73761533D02*
X173887017Y-73761533D01*
X173887017Y-73761533D02*
X173987017Y-73728200D01*
X173987017Y-73728200D02*
X174020350Y-73694866D01*
X174020350Y-73694866D02*
X174020350Y-73461533D01*
X174020350Y-73461533D02*
X173887017Y-73461533D01*
X174320350Y-73761533D02*
X174320350Y-73061533D01*
X174320350Y-73061533D02*
X174720350Y-73761533D01*
X174720350Y-73761533D02*
X174720350Y-73061533D01*
X175053683Y-73761533D02*
X175053683Y-73061533D01*
X175053683Y-73061533D02*
X175220350Y-73061533D01*
X175220350Y-73061533D02*
X175320350Y-73094866D01*
X175320350Y-73094866D02*
X175387017Y-73161533D01*
X175387017Y-73161533D02*
X175420350Y-73228200D01*
X175420350Y-73228200D02*
X175453683Y-73361533D01*
X175453683Y-73361533D02*
X175453683Y-73461533D01*
X175453683Y-73461533D02*
X175420350Y-73594866D01*
X175420350Y-73594866D02*
X175387017Y-73661533D01*
X175387017Y-73661533D02*
X175320350Y-73728200D01*
X175320350Y-73728200D02*
X175220350Y-73761533D01*
X175220350Y-73761533D02*
X175053683Y-73761533D01*
X165420350Y-73161533D02*
X165420350Y-72461533D01*
X165420350Y-72461533D02*
X165587017Y-72461533D01*
X165587017Y-72461533D02*
X165687017Y-72494866D01*
X165687017Y-72494866D02*
X165753684Y-72561533D01*
X165753684Y-72561533D02*
X165787017Y-72628200D01*
X165787017Y-72628200D02*
X165820350Y-72761533D01*
X165820350Y-72761533D02*
X165820350Y-72861533D01*
X165820350Y-72861533D02*
X165787017Y-72994866D01*
X165787017Y-72994866D02*
X165753684Y-73061533D01*
X165753684Y-73061533D02*
X165687017Y-73128200D01*
X165687017Y-73128200D02*
X165587017Y-73161533D01*
X165587017Y-73161533D02*
X165420350Y-73161533D01*
X166120350Y-72794866D02*
X166353684Y-72794866D01*
X166453684Y-73161533D02*
X166120350Y-73161533D01*
X166120350Y-73161533D02*
X166120350Y-72461533D01*
X166120350Y-72461533D02*
X166453684Y-72461533D01*
X166987017Y-72794866D02*
X166753683Y-72794866D01*
X166753683Y-73161533D02*
X166753683Y-72461533D01*
X166753683Y-72461533D02*
X167087017Y-72461533D01*
X167320350Y-72961533D02*
X167653683Y-72961533D01*
X167253683Y-73161533D02*
X167487017Y-72461533D01*
X167487017Y-72461533D02*
X167720350Y-73161533D01*
X167953683Y-72461533D02*
X167953683Y-73028200D01*
X167953683Y-73028200D02*
X167987017Y-73094866D01*
X167987017Y-73094866D02*
X168020350Y-73128200D01*
X168020350Y-73128200D02*
X168087017Y-73161533D01*
X168087017Y-73161533D02*
X168220350Y-73161533D01*
X168220350Y-73161533D02*
X168287017Y-73128200D01*
X168287017Y-73128200D02*
X168320350Y-73094866D01*
X168320350Y-73094866D02*
X168353683Y-73028200D01*
X168353683Y-73028200D02*
X168353683Y-72461533D01*
X169020350Y-73161533D02*
X168687016Y-73161533D01*
X168687016Y-73161533D02*
X168687016Y-72461533D01*
X169153683Y-72461533D02*
X169553683Y-72461533D01*
X169353683Y-73161533D02*
X169353683Y-72461533D01*
X169620350Y-73228200D02*
X170153683Y-73228200D01*
X170287016Y-73128200D02*
X170387016Y-73161533D01*
X170387016Y-73161533D02*
X170553683Y-73161533D01*
X170553683Y-73161533D02*
X170620349Y-73128200D01*
X170620349Y-73128200D02*
X170653683Y-73094866D01*
X170653683Y-73094866D02*
X170687016Y-73028200D01*
X170687016Y-73028200D02*
X170687016Y-72961533D01*
X170687016Y-72961533D02*
X170653683Y-72894866D01*
X170653683Y-72894866D02*
X170620349Y-72861533D01*
X170620349Y-72861533D02*
X170553683Y-72828200D01*
X170553683Y-72828200D02*
X170420349Y-72794866D01*
X170420349Y-72794866D02*
X170353683Y-72761533D01*
X170353683Y-72761533D02*
X170320349Y-72728200D01*
X170320349Y-72728200D02*
X170287016Y-72661533D01*
X170287016Y-72661533D02*
X170287016Y-72594866D01*
X170287016Y-72594866D02*
X170320349Y-72528200D01*
X170320349Y-72528200D02*
X170353683Y-72494866D01*
X170353683Y-72494866D02*
X170420349Y-72461533D01*
X170420349Y-72461533D02*
X170587016Y-72461533D01*
X170587016Y-72461533D02*
X170687016Y-72494866D01*
X170920350Y-72461533D02*
X171087016Y-73161533D01*
X171087016Y-73161533D02*
X171220350Y-72661533D01*
X171220350Y-72661533D02*
X171353683Y-73161533D01*
X171353683Y-73161533D02*
X171520350Y-72461533D01*
X165553684Y-67706533D02*
X165687017Y-67706533D01*
X165687017Y-67706533D02*
X165753684Y-67739866D01*
X165753684Y-67739866D02*
X165820350Y-67806533D01*
X165820350Y-67806533D02*
X165853684Y-67939866D01*
X165853684Y-67939866D02*
X165853684Y-68173200D01*
X165853684Y-68173200D02*
X165820350Y-68306533D01*
X165820350Y-68306533D02*
X165753684Y-68373200D01*
X165753684Y-68373200D02*
X165687017Y-68406533D01*
X165687017Y-68406533D02*
X165553684Y-68406533D01*
X165553684Y-68406533D02*
X165487017Y-68373200D01*
X165487017Y-68373200D02*
X165420350Y-68306533D01*
X165420350Y-68306533D02*
X165387017Y-68173200D01*
X165387017Y-68173200D02*
X165387017Y-67939866D01*
X165387017Y-67939866D02*
X165420350Y-67806533D01*
X165420350Y-67806533D02*
X165487017Y-67739866D01*
X165487017Y-67739866D02*
X165553684Y-67706533D01*
X166153683Y-67706533D02*
X166153683Y-68273200D01*
X166153683Y-68273200D02*
X166187017Y-68339866D01*
X166187017Y-68339866D02*
X166220350Y-68373200D01*
X166220350Y-68373200D02*
X166287017Y-68406533D01*
X166287017Y-68406533D02*
X166420350Y-68406533D01*
X166420350Y-68406533D02*
X166487017Y-68373200D01*
X166487017Y-68373200D02*
X166520350Y-68339866D01*
X166520350Y-68339866D02*
X166553683Y-68273200D01*
X166553683Y-68273200D02*
X166553683Y-67706533D01*
X166787016Y-67706533D02*
X167187016Y-67706533D01*
X166987016Y-68406533D02*
X166987016Y-67706533D01*
X167253683Y-68473200D02*
X167787016Y-68473200D01*
X167953682Y-68406533D02*
X167953682Y-67706533D01*
X167953682Y-67706533D02*
X168220349Y-67706533D01*
X168220349Y-67706533D02*
X168287016Y-67739866D01*
X168287016Y-67739866D02*
X168320349Y-67773200D01*
X168320349Y-67773200D02*
X168353682Y-67839866D01*
X168353682Y-67839866D02*
X168353682Y-67939866D01*
X168353682Y-67939866D02*
X168320349Y-68006533D01*
X168320349Y-68006533D02*
X168287016Y-68039866D01*
X168287016Y-68039866D02*
X168220349Y-68073200D01*
X168220349Y-68073200D02*
X167953682Y-68073200D01*
X168587016Y-67706533D02*
X168753682Y-68406533D01*
X168753682Y-68406533D02*
X168887016Y-67906533D01*
X168887016Y-67906533D02*
X169020349Y-68406533D01*
X169020349Y-68406533D02*
X169187016Y-67706533D01*
X169287016Y-68473200D02*
X169820349Y-68473200D01*
X170320349Y-68406533D02*
X169987015Y-68406533D01*
X169987015Y-68406533D02*
X169987015Y-67706533D01*
X170553682Y-68039866D02*
X170787016Y-68039866D01*
X170887016Y-68406533D02*
X170553682Y-68406533D01*
X170553682Y-68406533D02*
X170553682Y-67706533D01*
X170553682Y-67706533D02*
X170887016Y-67706533D01*
X171187015Y-68406533D02*
X171187015Y-67706533D01*
X171187015Y-67706533D02*
X171353682Y-67706533D01*
X171353682Y-67706533D02*
X171453682Y-67739866D01*
X171453682Y-67739866D02*
X171520349Y-67806533D01*
X171520349Y-67806533D02*
X171553682Y-67873200D01*
X171553682Y-67873200D02*
X171587015Y-68006533D01*
X171587015Y-68006533D02*
X171587015Y-68106533D01*
X171587015Y-68106533D02*
X171553682Y-68239866D01*
X171553682Y-68239866D02*
X171520349Y-68306533D01*
X171520349Y-68306533D02*
X171453682Y-68373200D01*
X171453682Y-68373200D02*
X171353682Y-68406533D01*
X171353682Y-68406533D02*
X171187015Y-68406533D01*
X171853682Y-67773200D02*
X171887015Y-67739866D01*
X171887015Y-67739866D02*
X171953682Y-67706533D01*
X171953682Y-67706533D02*
X172120349Y-67706533D01*
X172120349Y-67706533D02*
X172187015Y-67739866D01*
X172187015Y-67739866D02*
X172220349Y-67773200D01*
X172220349Y-67773200D02*
X172253682Y-67839866D01*
X172253682Y-67839866D02*
X172253682Y-67906533D01*
X172253682Y-67906533D02*
X172220349Y-68006533D01*
X172220349Y-68006533D02*
X171820349Y-68406533D01*
X171820349Y-68406533D02*
X172253682Y-68406533D01*
D10*
X147528646Y-77077085D02*
X147728646Y-77077085D01*
X147814360Y-77391371D02*
X147528646Y-77391371D01*
X147528646Y-77391371D02*
X147528646Y-76791371D01*
X147528646Y-76791371D02*
X147814360Y-76791371D01*
X148414360Y-77391371D02*
X148214360Y-77105657D01*
X148071503Y-77391371D02*
X148071503Y-76791371D01*
X148071503Y-76791371D02*
X148300074Y-76791371D01*
X148300074Y-76791371D02*
X148357217Y-76819942D01*
X148357217Y-76819942D02*
X148385788Y-76848514D01*
X148385788Y-76848514D02*
X148414360Y-76905657D01*
X148414360Y-76905657D02*
X148414360Y-76991371D01*
X148414360Y-76991371D02*
X148385788Y-77048514D01*
X148385788Y-77048514D02*
X148357217Y-77077085D01*
X148357217Y-77077085D02*
X148300074Y-77105657D01*
X148300074Y-77105657D02*
X148071503Y-77105657D01*
X149014360Y-77391371D02*
X148814360Y-77105657D01*
X148671503Y-77391371D02*
X148671503Y-76791371D01*
X148671503Y-76791371D02*
X148900074Y-76791371D01*
X148900074Y-76791371D02*
X148957217Y-76819942D01*
X148957217Y-76819942D02*
X148985788Y-76848514D01*
X148985788Y-76848514D02*
X149014360Y-76905657D01*
X149014360Y-76905657D02*
X149014360Y-76991371D01*
X149014360Y-76991371D02*
X148985788Y-77048514D01*
X148985788Y-77048514D02*
X148957217Y-77077085D01*
X148957217Y-77077085D02*
X148900074Y-77105657D01*
X148900074Y-77105657D02*
X148671503Y-77105657D01*
D12*
X173987017Y-67239866D02*
X173920350Y-67206533D01*
X173920350Y-67206533D02*
X173820350Y-67206533D01*
X173820350Y-67206533D02*
X173720350Y-67239866D01*
X173720350Y-67239866D02*
X173653684Y-67306533D01*
X173653684Y-67306533D02*
X173620350Y-67373200D01*
X173620350Y-67373200D02*
X173587017Y-67506533D01*
X173587017Y-67506533D02*
X173587017Y-67606533D01*
X173587017Y-67606533D02*
X173620350Y-67739866D01*
X173620350Y-67739866D02*
X173653684Y-67806533D01*
X173653684Y-67806533D02*
X173720350Y-67873200D01*
X173720350Y-67873200D02*
X173820350Y-67906533D01*
X173820350Y-67906533D02*
X173887017Y-67906533D01*
X173887017Y-67906533D02*
X173987017Y-67873200D01*
X173987017Y-67873200D02*
X174020350Y-67839866D01*
X174020350Y-67839866D02*
X174020350Y-67606533D01*
X174020350Y-67606533D02*
X173887017Y-67606533D01*
X174320350Y-67906533D02*
X174320350Y-67206533D01*
X174320350Y-67206533D02*
X174720350Y-67906533D01*
X174720350Y-67906533D02*
X174720350Y-67206533D01*
X175053683Y-67906533D02*
X175053683Y-67206533D01*
X175053683Y-67206533D02*
X175220350Y-67206533D01*
X175220350Y-67206533D02*
X175320350Y-67239866D01*
X175320350Y-67239866D02*
X175387017Y-67306533D01*
X175387017Y-67306533D02*
X175420350Y-67373200D01*
X175420350Y-67373200D02*
X175453683Y-67506533D01*
X175453683Y-67506533D02*
X175453683Y-67606533D01*
X175453683Y-67606533D02*
X175420350Y-67739866D01*
X175420350Y-67739866D02*
X175387017Y-67806533D01*
X175387017Y-67806533D02*
X175320350Y-67873200D01*
X175320350Y-67873200D02*
X175220350Y-67906533D01*
X175220350Y-67906533D02*
X175053683Y-67906533D01*
X165420350Y-74321533D02*
X165420350Y-73621533D01*
X165420350Y-73621533D02*
X165587017Y-73621533D01*
X165587017Y-73621533D02*
X165687017Y-73654866D01*
X165687017Y-73654866D02*
X165753684Y-73721533D01*
X165753684Y-73721533D02*
X165787017Y-73788200D01*
X165787017Y-73788200D02*
X165820350Y-73921533D01*
X165820350Y-73921533D02*
X165820350Y-74021533D01*
X165820350Y-74021533D02*
X165787017Y-74154866D01*
X165787017Y-74154866D02*
X165753684Y-74221533D01*
X165753684Y-74221533D02*
X165687017Y-74288200D01*
X165687017Y-74288200D02*
X165587017Y-74321533D01*
X165587017Y-74321533D02*
X165420350Y-74321533D01*
X166120350Y-74321533D02*
X166120350Y-73621533D01*
X166420350Y-74288200D02*
X166520350Y-74321533D01*
X166520350Y-74321533D02*
X166687017Y-74321533D01*
X166687017Y-74321533D02*
X166753683Y-74288200D01*
X166753683Y-74288200D02*
X166787017Y-74254866D01*
X166787017Y-74254866D02*
X166820350Y-74188200D01*
X166820350Y-74188200D02*
X166820350Y-74121533D01*
X166820350Y-74121533D02*
X166787017Y-74054866D01*
X166787017Y-74054866D02*
X166753683Y-74021533D01*
X166753683Y-74021533D02*
X166687017Y-73988200D01*
X166687017Y-73988200D02*
X166553683Y-73954866D01*
X166553683Y-73954866D02*
X166487017Y-73921533D01*
X166487017Y-73921533D02*
X166453683Y-73888200D01*
X166453683Y-73888200D02*
X166420350Y-73821533D01*
X166420350Y-73821533D02*
X166420350Y-73754866D01*
X166420350Y-73754866D02*
X166453683Y-73688200D01*
X166453683Y-73688200D02*
X166487017Y-73654866D01*
X166487017Y-73654866D02*
X166553683Y-73621533D01*
X166553683Y-73621533D02*
X166720350Y-73621533D01*
X166720350Y-73621533D02*
X166820350Y-73654866D01*
X167120350Y-74321533D02*
X167120350Y-73621533D01*
X167120350Y-73621533D02*
X167387017Y-73621533D01*
X167387017Y-73621533D02*
X167453684Y-73654866D01*
X167453684Y-73654866D02*
X167487017Y-73688200D01*
X167487017Y-73688200D02*
X167520350Y-73754866D01*
X167520350Y-73754866D02*
X167520350Y-73854866D01*
X167520350Y-73854866D02*
X167487017Y-73921533D01*
X167487017Y-73921533D02*
X167453684Y-73954866D01*
X167453684Y-73954866D02*
X167387017Y-73988200D01*
X167387017Y-73988200D02*
X167120350Y-73988200D01*
X167653684Y-74388200D02*
X168187017Y-74388200D01*
X168320350Y-74288200D02*
X168420350Y-74321533D01*
X168420350Y-74321533D02*
X168587017Y-74321533D01*
X168587017Y-74321533D02*
X168653683Y-74288200D01*
X168653683Y-74288200D02*
X168687017Y-74254866D01*
X168687017Y-74254866D02*
X168720350Y-74188200D01*
X168720350Y-74188200D02*
X168720350Y-74121533D01*
X168720350Y-74121533D02*
X168687017Y-74054866D01*
X168687017Y-74054866D02*
X168653683Y-74021533D01*
X168653683Y-74021533D02*
X168587017Y-73988200D01*
X168587017Y-73988200D02*
X168453683Y-73954866D01*
X168453683Y-73954866D02*
X168387017Y-73921533D01*
X168387017Y-73921533D02*
X168353683Y-73888200D01*
X168353683Y-73888200D02*
X168320350Y-73821533D01*
X168320350Y-73821533D02*
X168320350Y-73754866D01*
X168320350Y-73754866D02*
X168353683Y-73688200D01*
X168353683Y-73688200D02*
X168387017Y-73654866D01*
X168387017Y-73654866D02*
X168453683Y-73621533D01*
X168453683Y-73621533D02*
X168620350Y-73621533D01*
X168620350Y-73621533D02*
X168720350Y-73654866D01*
X169020350Y-74321533D02*
X169020350Y-73621533D01*
X169020350Y-73621533D02*
X169187017Y-73621533D01*
X169187017Y-73621533D02*
X169287017Y-73654866D01*
X169287017Y-73654866D02*
X169353684Y-73721533D01*
X169353684Y-73721533D02*
X169387017Y-73788200D01*
X169387017Y-73788200D02*
X169420350Y-73921533D01*
X169420350Y-73921533D02*
X169420350Y-74021533D01*
X169420350Y-74021533D02*
X169387017Y-74154866D01*
X169387017Y-74154866D02*
X169353684Y-74221533D01*
X169353684Y-74221533D02*
X169287017Y-74288200D01*
X169287017Y-74288200D02*
X169187017Y-74321533D01*
X169187017Y-74321533D02*
X169020350Y-74321533D01*
X169687017Y-74121533D02*
X170020350Y-74121533D01*
X169620350Y-74321533D02*
X169853684Y-73621533D01*
X169853684Y-73621533D02*
X170087017Y-74321533D01*
X173620350Y-66706533D02*
X173620350Y-66006533D01*
X173620350Y-66006533D02*
X173887017Y-66006533D01*
X173887017Y-66006533D02*
X173953684Y-66039866D01*
X173953684Y-66039866D02*
X173987017Y-66073200D01*
X173987017Y-66073200D02*
X174020350Y-66139866D01*
X174020350Y-66139866D02*
X174020350Y-66239866D01*
X174020350Y-66239866D02*
X173987017Y-66306533D01*
X173987017Y-66306533D02*
X173953684Y-66339866D01*
X173953684Y-66339866D02*
X173887017Y-66373200D01*
X173887017Y-66373200D02*
X173620350Y-66373200D01*
X174287017Y-66673200D02*
X174387017Y-66706533D01*
X174387017Y-66706533D02*
X174553684Y-66706533D01*
X174553684Y-66706533D02*
X174620350Y-66673200D01*
X174620350Y-66673200D02*
X174653684Y-66639866D01*
X174653684Y-66639866D02*
X174687017Y-66573200D01*
X174687017Y-66573200D02*
X174687017Y-66506533D01*
X174687017Y-66506533D02*
X174653684Y-66439866D01*
X174653684Y-66439866D02*
X174620350Y-66406533D01*
X174620350Y-66406533D02*
X174553684Y-66373200D01*
X174553684Y-66373200D02*
X174420350Y-66339866D01*
X174420350Y-66339866D02*
X174353684Y-66306533D01*
X174353684Y-66306533D02*
X174320350Y-66273200D01*
X174320350Y-66273200D02*
X174287017Y-66206533D01*
X174287017Y-66206533D02*
X174287017Y-66139866D01*
X174287017Y-66139866D02*
X174320350Y-66073200D01*
X174320350Y-66073200D02*
X174353684Y-66039866D01*
X174353684Y-66039866D02*
X174420350Y-66006533D01*
X174420350Y-66006533D02*
X174587017Y-66006533D01*
X174587017Y-66006533D02*
X174687017Y-66039866D01*
X174920351Y-66006533D02*
X175087017Y-66706533D01*
X175087017Y-66706533D02*
X175220351Y-66206533D01*
X175220351Y-66206533D02*
X175353684Y-66706533D01*
X175353684Y-66706533D02*
X175520351Y-66006533D01*
X175787017Y-66706533D02*
X175787017Y-66006533D01*
X173987017Y-68439866D02*
X173920350Y-68406533D01*
X173920350Y-68406533D02*
X173820350Y-68406533D01*
X173820350Y-68406533D02*
X173720350Y-68439866D01*
X173720350Y-68439866D02*
X173653684Y-68506533D01*
X173653684Y-68506533D02*
X173620350Y-68573200D01*
X173620350Y-68573200D02*
X173587017Y-68706533D01*
X173587017Y-68706533D02*
X173587017Y-68806533D01*
X173587017Y-68806533D02*
X173620350Y-68939866D01*
X173620350Y-68939866D02*
X173653684Y-69006533D01*
X173653684Y-69006533D02*
X173720350Y-69073200D01*
X173720350Y-69073200D02*
X173820350Y-69106533D01*
X173820350Y-69106533D02*
X173887017Y-69106533D01*
X173887017Y-69106533D02*
X173987017Y-69073200D01*
X173987017Y-69073200D02*
X174020350Y-69039866D01*
X174020350Y-69039866D02*
X174020350Y-68806533D01*
X174020350Y-68806533D02*
X173887017Y-68806533D01*
X174320350Y-69106533D02*
X174320350Y-68406533D01*
X174320350Y-68406533D02*
X174720350Y-69106533D01*
X174720350Y-69106533D02*
X174720350Y-68406533D01*
X175053683Y-69106533D02*
X175053683Y-68406533D01*
X175053683Y-68406533D02*
X175220350Y-68406533D01*
X175220350Y-68406533D02*
X175320350Y-68439866D01*
X175320350Y-68439866D02*
X175387017Y-68506533D01*
X175387017Y-68506533D02*
X175420350Y-68573200D01*
X175420350Y-68573200D02*
X175453683Y-68706533D01*
X175453683Y-68706533D02*
X175453683Y-68806533D01*
X175453683Y-68806533D02*
X175420350Y-68939866D01*
X175420350Y-68939866D02*
X175387017Y-69006533D01*
X175387017Y-69006533D02*
X175320350Y-69073200D01*
X175320350Y-69073200D02*
X175220350Y-69106533D01*
X175220350Y-69106533D02*
X175053683Y-69106533D01*
X173987017Y-71994866D02*
X173920350Y-71961533D01*
X173920350Y-71961533D02*
X173820350Y-71961533D01*
X173820350Y-71961533D02*
X173720350Y-71994866D01*
X173720350Y-71994866D02*
X173653684Y-72061533D01*
X173653684Y-72061533D02*
X173620350Y-72128200D01*
X173620350Y-72128200D02*
X173587017Y-72261533D01*
X173587017Y-72261533D02*
X173587017Y-72361533D01*
X173587017Y-72361533D02*
X173620350Y-72494866D01*
X173620350Y-72494866D02*
X173653684Y-72561533D01*
X173653684Y-72561533D02*
X173720350Y-72628200D01*
X173720350Y-72628200D02*
X173820350Y-72661533D01*
X173820350Y-72661533D02*
X173887017Y-72661533D01*
X173887017Y-72661533D02*
X173987017Y-72628200D01*
X173987017Y-72628200D02*
X174020350Y-72594866D01*
X174020350Y-72594866D02*
X174020350Y-72361533D01*
X174020350Y-72361533D02*
X173887017Y-72361533D01*
X174320350Y-72661533D02*
X174320350Y-71961533D01*
X174320350Y-71961533D02*
X174720350Y-72661533D01*
X174720350Y-72661533D02*
X174720350Y-71961533D01*
X175053683Y-72661533D02*
X175053683Y-71961533D01*
X175053683Y-71961533D02*
X175220350Y-71961533D01*
X175220350Y-71961533D02*
X175320350Y-71994866D01*
X175320350Y-71994866D02*
X175387017Y-72061533D01*
X175387017Y-72061533D02*
X175420350Y-72128200D01*
X175420350Y-72128200D02*
X175453683Y-72261533D01*
X175453683Y-72261533D02*
X175453683Y-72361533D01*
X175453683Y-72361533D02*
X175420350Y-72494866D01*
X175420350Y-72494866D02*
X175387017Y-72561533D01*
X175387017Y-72561533D02*
X175320350Y-72628200D01*
X175320350Y-72628200D02*
X175220350Y-72661533D01*
X175220350Y-72661533D02*
X175053683Y-72661533D01*
X173520350Y-74161533D02*
X173753684Y-74861533D01*
X173753684Y-74861533D02*
X173987017Y-74161533D01*
X174620350Y-74794866D02*
X174587017Y-74828200D01*
X174587017Y-74828200D02*
X174487017Y-74861533D01*
X174487017Y-74861533D02*
X174420350Y-74861533D01*
X174420350Y-74861533D02*
X174320350Y-74828200D01*
X174320350Y-74828200D02*
X174253684Y-74761533D01*
X174253684Y-74761533D02*
X174220350Y-74694866D01*
X174220350Y-74694866D02*
X174187017Y-74561533D01*
X174187017Y-74561533D02*
X174187017Y-74461533D01*
X174187017Y-74461533D02*
X174220350Y-74328200D01*
X174220350Y-74328200D02*
X174253684Y-74261533D01*
X174253684Y-74261533D02*
X174320350Y-74194866D01*
X174320350Y-74194866D02*
X174420350Y-74161533D01*
X174420350Y-74161533D02*
X174487017Y-74161533D01*
X174487017Y-74161533D02*
X174587017Y-74194866D01*
X174587017Y-74194866D02*
X174620350Y-74228200D01*
X175320350Y-74794866D02*
X175287017Y-74828200D01*
X175287017Y-74828200D02*
X175187017Y-74861533D01*
X175187017Y-74861533D02*
X175120350Y-74861533D01*
X175120350Y-74861533D02*
X175020350Y-74828200D01*
X175020350Y-74828200D02*
X174953684Y-74761533D01*
X174953684Y-74761533D02*
X174920350Y-74694866D01*
X174920350Y-74694866D02*
X174887017Y-74561533D01*
X174887017Y-74561533D02*
X174887017Y-74461533D01*
X174887017Y-74461533D02*
X174920350Y-74328200D01*
X174920350Y-74328200D02*
X174953684Y-74261533D01*
X174953684Y-74261533D02*
X175020350Y-74194866D01*
X175020350Y-74194866D02*
X175120350Y-74161533D01*
X175120350Y-74161533D02*
X175187017Y-74161533D01*
X175187017Y-74161533D02*
X175287017Y-74194866D01*
X175287017Y-74194866D02*
X175320350Y-74228200D01*
X173987017Y-69639866D02*
X173920350Y-69606533D01*
X173920350Y-69606533D02*
X173820350Y-69606533D01*
X173820350Y-69606533D02*
X173720350Y-69639866D01*
X173720350Y-69639866D02*
X173653684Y-69706533D01*
X173653684Y-69706533D02*
X173620350Y-69773200D01*
X173620350Y-69773200D02*
X173587017Y-69906533D01*
X173587017Y-69906533D02*
X173587017Y-70006533D01*
X173587017Y-70006533D02*
X173620350Y-70139866D01*
X173620350Y-70139866D02*
X173653684Y-70206533D01*
X173653684Y-70206533D02*
X173720350Y-70273200D01*
X173720350Y-70273200D02*
X173820350Y-70306533D01*
X173820350Y-70306533D02*
X173887017Y-70306533D01*
X173887017Y-70306533D02*
X173987017Y-70273200D01*
X173987017Y-70273200D02*
X174020350Y-70239866D01*
X174020350Y-70239866D02*
X174020350Y-70006533D01*
X174020350Y-70006533D02*
X173887017Y-70006533D01*
X174320350Y-70306533D02*
X174320350Y-69606533D01*
X174320350Y-69606533D02*
X174720350Y-70306533D01*
X174720350Y-70306533D02*
X174720350Y-69606533D01*
X175053683Y-70306533D02*
X175053683Y-69606533D01*
X175053683Y-69606533D02*
X175220350Y-69606533D01*
X175220350Y-69606533D02*
X175320350Y-69639866D01*
X175320350Y-69639866D02*
X175387017Y-69706533D01*
X175387017Y-69706533D02*
X175420350Y-69773200D01*
X175420350Y-69773200D02*
X175453683Y-69906533D01*
X175453683Y-69906533D02*
X175453683Y-70006533D01*
X175453683Y-70006533D02*
X175420350Y-70139866D01*
X175420350Y-70139866D02*
X175387017Y-70206533D01*
X175387017Y-70206533D02*
X175320350Y-70273200D01*
X175320350Y-70273200D02*
X175220350Y-70306533D01*
X175220350Y-70306533D02*
X175053683Y-70306533D01*
X165465350Y-67306533D02*
X165465350Y-66606533D01*
X165465350Y-66606533D02*
X165732017Y-66606533D01*
X165732017Y-66606533D02*
X165798684Y-66639866D01*
X165798684Y-66639866D02*
X165832017Y-66673200D01*
X165832017Y-66673200D02*
X165865350Y-66739866D01*
X165865350Y-66739866D02*
X165865350Y-66839866D01*
X165865350Y-66839866D02*
X165832017Y-66906533D01*
X165832017Y-66906533D02*
X165798684Y-66939866D01*
X165798684Y-66939866D02*
X165732017Y-66973200D01*
X165732017Y-66973200D02*
X165465350Y-66973200D01*
X166132017Y-67273200D02*
X166232017Y-67306533D01*
X166232017Y-67306533D02*
X166398684Y-67306533D01*
X166398684Y-67306533D02*
X166465350Y-67273200D01*
X166465350Y-67273200D02*
X166498684Y-67239866D01*
X166498684Y-67239866D02*
X166532017Y-67173200D01*
X166532017Y-67173200D02*
X166532017Y-67106533D01*
X166532017Y-67106533D02*
X166498684Y-67039866D01*
X166498684Y-67039866D02*
X166465350Y-67006533D01*
X166465350Y-67006533D02*
X166398684Y-66973200D01*
X166398684Y-66973200D02*
X166265350Y-66939866D01*
X166265350Y-66939866D02*
X166198684Y-66906533D01*
X166198684Y-66906533D02*
X166165350Y-66873200D01*
X166165350Y-66873200D02*
X166132017Y-66806533D01*
X166132017Y-66806533D02*
X166132017Y-66739866D01*
X166132017Y-66739866D02*
X166165350Y-66673200D01*
X166165350Y-66673200D02*
X166198684Y-66639866D01*
X166198684Y-66639866D02*
X166265350Y-66606533D01*
X166265350Y-66606533D02*
X166432017Y-66606533D01*
X166432017Y-66606533D02*
X166532017Y-66639866D01*
X166765351Y-66606533D02*
X166932017Y-67306533D01*
X166932017Y-67306533D02*
X167065351Y-66806533D01*
X167065351Y-66806533D02*
X167198684Y-67306533D01*
X167198684Y-67306533D02*
X167365351Y-66606533D01*
X167765351Y-66606533D02*
X167898684Y-66606533D01*
X167898684Y-66606533D02*
X167965351Y-66639866D01*
X167965351Y-66639866D02*
X168032017Y-66706533D01*
X168032017Y-66706533D02*
X168065351Y-66839866D01*
X168065351Y-66839866D02*
X168065351Y-67073200D01*
X168065351Y-67073200D02*
X168032017Y-67206533D01*
X168032017Y-67206533D02*
X167965351Y-67273200D01*
X167965351Y-67273200D02*
X167898684Y-67306533D01*
X167898684Y-67306533D02*
X167765351Y-67306533D01*
X167765351Y-67306533D02*
X167698684Y-67273200D01*
X167698684Y-67273200D02*
X167632017Y-67206533D01*
X167632017Y-67206533D02*
X167598684Y-67073200D01*
X167598684Y-67073200D02*
X167598684Y-66839866D01*
X167598684Y-66839866D02*
X167632017Y-66706533D01*
X167632017Y-66706533D02*
X167698684Y-66639866D01*
X167698684Y-66639866D02*
X167765351Y-66606533D01*
D10*
X124033646Y-74851371D02*
X124033646Y-74251371D01*
X124033646Y-74251371D02*
X124176503Y-74251371D01*
X124176503Y-74251371D02*
X124262217Y-74279942D01*
X124262217Y-74279942D02*
X124319360Y-74337085D01*
X124319360Y-74337085D02*
X124347931Y-74394228D01*
X124347931Y-74394228D02*
X124376503Y-74508514D01*
X124376503Y-74508514D02*
X124376503Y-74594228D01*
X124376503Y-74594228D02*
X124347931Y-74708514D01*
X124347931Y-74708514D02*
X124319360Y-74765657D01*
X124319360Y-74765657D02*
X124262217Y-74822800D01*
X124262217Y-74822800D02*
X124176503Y-74851371D01*
X124176503Y-74851371D02*
X124033646Y-74851371D01*
X124633646Y-74537085D02*
X124833646Y-74537085D01*
X124919360Y-74851371D02*
X124633646Y-74851371D01*
X124633646Y-74851371D02*
X124633646Y-74251371D01*
X124633646Y-74251371D02*
X124919360Y-74251371D01*
X125376503Y-74537085D02*
X125176503Y-74537085D01*
X125176503Y-74851371D02*
X125176503Y-74251371D01*
X125176503Y-74251371D02*
X125462217Y-74251371D01*
X125662217Y-74679942D02*
X125947932Y-74679942D01*
X125605074Y-74851371D02*
X125805074Y-74251371D01*
X125805074Y-74251371D02*
X126005074Y-74851371D01*
X126205075Y-74251371D02*
X126205075Y-74737085D01*
X126205075Y-74737085D02*
X126233646Y-74794228D01*
X126233646Y-74794228D02*
X126262218Y-74822800D01*
X126262218Y-74822800D02*
X126319360Y-74851371D01*
X126319360Y-74851371D02*
X126433646Y-74851371D01*
X126433646Y-74851371D02*
X126490789Y-74822800D01*
X126490789Y-74822800D02*
X126519360Y-74794228D01*
X126519360Y-74794228D02*
X126547932Y-74737085D01*
X126547932Y-74737085D02*
X126547932Y-74251371D01*
X127119360Y-74851371D02*
X126833646Y-74851371D01*
X126833646Y-74851371D02*
X126833646Y-74251371D01*
X127233645Y-74251371D02*
X127576503Y-74251371D01*
X127405074Y-74851371D02*
X127405074Y-74251371D01*
X143474122Y-37977466D02*
X143407455Y-37944133D01*
X143407455Y-37944133D02*
X143307455Y-37944133D01*
X143307455Y-37944133D02*
X143207455Y-37977466D01*
X143207455Y-37977466D02*
X143140789Y-38044133D01*
X143140789Y-38044133D02*
X143107455Y-38110800D01*
X143107455Y-38110800D02*
X143074122Y-38244133D01*
X143074122Y-38244133D02*
X143074122Y-38344133D01*
X143074122Y-38344133D02*
X143107455Y-38477466D01*
X143107455Y-38477466D02*
X143140789Y-38544133D01*
X143140789Y-38544133D02*
X143207455Y-38610800D01*
X143207455Y-38610800D02*
X143307455Y-38644133D01*
X143307455Y-38644133D02*
X143374122Y-38644133D01*
X143374122Y-38644133D02*
X143474122Y-38610800D01*
X143474122Y-38610800D02*
X143507455Y-38577466D01*
X143507455Y-38577466D02*
X143507455Y-38344133D01*
X143507455Y-38344133D02*
X143374122Y-38344133D01*
X143807455Y-38644133D02*
X143807455Y-37944133D01*
X143807455Y-37944133D02*
X144207455Y-38644133D01*
X144207455Y-38644133D02*
X144207455Y-37944133D01*
X144540788Y-38644133D02*
X144540788Y-37944133D01*
X144540788Y-37944133D02*
X144707455Y-37944133D01*
X144707455Y-37944133D02*
X144807455Y-37977466D01*
X144807455Y-37977466D02*
X144874122Y-38044133D01*
X144874122Y-38044133D02*
X144907455Y-38110800D01*
X144907455Y-38110800D02*
X144940788Y-38244133D01*
X144940788Y-38244133D02*
X144940788Y-38344133D01*
X144940788Y-38344133D02*
X144907455Y-38477466D01*
X144907455Y-38477466D02*
X144874122Y-38544133D01*
X144874122Y-38544133D02*
X144807455Y-38610800D01*
X144807455Y-38610800D02*
X144707455Y-38644133D01*
X144707455Y-38644133D02*
X144540788Y-38644133D01*
D12*
X165420350Y-75461533D02*
X165420350Y-74761533D01*
X165420350Y-74761533D02*
X165587017Y-74761533D01*
X165587017Y-74761533D02*
X165687017Y-74794866D01*
X165687017Y-74794866D02*
X165753684Y-74861533D01*
X165753684Y-74861533D02*
X165787017Y-74928200D01*
X165787017Y-74928200D02*
X165820350Y-75061533D01*
X165820350Y-75061533D02*
X165820350Y-75161533D01*
X165820350Y-75161533D02*
X165787017Y-75294866D01*
X165787017Y-75294866D02*
X165753684Y-75361533D01*
X165753684Y-75361533D02*
X165687017Y-75428200D01*
X165687017Y-75428200D02*
X165587017Y-75461533D01*
X165587017Y-75461533D02*
X165420350Y-75461533D01*
X166120350Y-75461533D02*
X166120350Y-74761533D01*
X166420350Y-75428200D02*
X166520350Y-75461533D01*
X166520350Y-75461533D02*
X166687017Y-75461533D01*
X166687017Y-75461533D02*
X166753683Y-75428200D01*
X166753683Y-75428200D02*
X166787017Y-75394866D01*
X166787017Y-75394866D02*
X166820350Y-75328200D01*
X166820350Y-75328200D02*
X166820350Y-75261533D01*
X166820350Y-75261533D02*
X166787017Y-75194866D01*
X166787017Y-75194866D02*
X166753683Y-75161533D01*
X166753683Y-75161533D02*
X166687017Y-75128200D01*
X166687017Y-75128200D02*
X166553683Y-75094866D01*
X166553683Y-75094866D02*
X166487017Y-75061533D01*
X166487017Y-75061533D02*
X166453683Y-75028200D01*
X166453683Y-75028200D02*
X166420350Y-74961533D01*
X166420350Y-74961533D02*
X166420350Y-74894866D01*
X166420350Y-74894866D02*
X166453683Y-74828200D01*
X166453683Y-74828200D02*
X166487017Y-74794866D01*
X166487017Y-74794866D02*
X166553683Y-74761533D01*
X166553683Y-74761533D02*
X166720350Y-74761533D01*
X166720350Y-74761533D02*
X166820350Y-74794866D01*
X167120350Y-75461533D02*
X167120350Y-74761533D01*
X167120350Y-74761533D02*
X167387017Y-74761533D01*
X167387017Y-74761533D02*
X167453684Y-74794866D01*
X167453684Y-74794866D02*
X167487017Y-74828200D01*
X167487017Y-74828200D02*
X167520350Y-74894866D01*
X167520350Y-74894866D02*
X167520350Y-74994866D01*
X167520350Y-74994866D02*
X167487017Y-75061533D01*
X167487017Y-75061533D02*
X167453684Y-75094866D01*
X167453684Y-75094866D02*
X167387017Y-75128200D01*
X167387017Y-75128200D02*
X167120350Y-75128200D01*
X167653684Y-75528200D02*
X168187017Y-75528200D01*
X168320350Y-75428200D02*
X168420350Y-75461533D01*
X168420350Y-75461533D02*
X168587017Y-75461533D01*
X168587017Y-75461533D02*
X168653683Y-75428200D01*
X168653683Y-75428200D02*
X168687017Y-75394866D01*
X168687017Y-75394866D02*
X168720350Y-75328200D01*
X168720350Y-75328200D02*
X168720350Y-75261533D01*
X168720350Y-75261533D02*
X168687017Y-75194866D01*
X168687017Y-75194866D02*
X168653683Y-75161533D01*
X168653683Y-75161533D02*
X168587017Y-75128200D01*
X168587017Y-75128200D02*
X168453683Y-75094866D01*
X168453683Y-75094866D02*
X168387017Y-75061533D01*
X168387017Y-75061533D02*
X168353683Y-75028200D01*
X168353683Y-75028200D02*
X168320350Y-74961533D01*
X168320350Y-74961533D02*
X168320350Y-74894866D01*
X168320350Y-74894866D02*
X168353683Y-74828200D01*
X168353683Y-74828200D02*
X168387017Y-74794866D01*
X168387017Y-74794866D02*
X168453683Y-74761533D01*
X168453683Y-74761533D02*
X168620350Y-74761533D01*
X168620350Y-74761533D02*
X168720350Y-74794866D01*
X169420350Y-75394866D02*
X169387017Y-75428200D01*
X169387017Y-75428200D02*
X169287017Y-75461533D01*
X169287017Y-75461533D02*
X169220350Y-75461533D01*
X169220350Y-75461533D02*
X169120350Y-75428200D01*
X169120350Y-75428200D02*
X169053684Y-75361533D01*
X169053684Y-75361533D02*
X169020350Y-75294866D01*
X169020350Y-75294866D02*
X168987017Y-75161533D01*
X168987017Y-75161533D02*
X168987017Y-75061533D01*
X168987017Y-75061533D02*
X169020350Y-74928200D01*
X169020350Y-74928200D02*
X169053684Y-74861533D01*
X169053684Y-74861533D02*
X169120350Y-74794866D01*
X169120350Y-74794866D02*
X169220350Y-74761533D01*
X169220350Y-74761533D02*
X169287017Y-74761533D01*
X169287017Y-74761533D02*
X169387017Y-74794866D01*
X169387017Y-74794866D02*
X169420350Y-74828200D01*
X170053684Y-75461533D02*
X169720350Y-75461533D01*
X169720350Y-75461533D02*
X169720350Y-74761533D01*
X165553684Y-68856533D02*
X165687017Y-68856533D01*
X165687017Y-68856533D02*
X165753684Y-68889866D01*
X165753684Y-68889866D02*
X165820350Y-68956533D01*
X165820350Y-68956533D02*
X165853684Y-69089866D01*
X165853684Y-69089866D02*
X165853684Y-69323200D01*
X165853684Y-69323200D02*
X165820350Y-69456533D01*
X165820350Y-69456533D02*
X165753684Y-69523200D01*
X165753684Y-69523200D02*
X165687017Y-69556533D01*
X165687017Y-69556533D02*
X165553684Y-69556533D01*
X165553684Y-69556533D02*
X165487017Y-69523200D01*
X165487017Y-69523200D02*
X165420350Y-69456533D01*
X165420350Y-69456533D02*
X165387017Y-69323200D01*
X165387017Y-69323200D02*
X165387017Y-69089866D01*
X165387017Y-69089866D02*
X165420350Y-68956533D01*
X165420350Y-68956533D02*
X165487017Y-68889866D01*
X165487017Y-68889866D02*
X165553684Y-68856533D01*
X166153683Y-68856533D02*
X166153683Y-69423200D01*
X166153683Y-69423200D02*
X166187017Y-69489866D01*
X166187017Y-69489866D02*
X166220350Y-69523200D01*
X166220350Y-69523200D02*
X166287017Y-69556533D01*
X166287017Y-69556533D02*
X166420350Y-69556533D01*
X166420350Y-69556533D02*
X166487017Y-69523200D01*
X166487017Y-69523200D02*
X166520350Y-69489866D01*
X166520350Y-69489866D02*
X166553683Y-69423200D01*
X166553683Y-69423200D02*
X166553683Y-68856533D01*
X166787016Y-68856533D02*
X167187016Y-68856533D01*
X166987016Y-69556533D02*
X166987016Y-68856533D01*
X167253683Y-69623200D02*
X167787016Y-69623200D01*
X167953682Y-69556533D02*
X167953682Y-68856533D01*
X167953682Y-68856533D02*
X168220349Y-68856533D01*
X168220349Y-68856533D02*
X168287016Y-68889866D01*
X168287016Y-68889866D02*
X168320349Y-68923200D01*
X168320349Y-68923200D02*
X168353682Y-68989866D01*
X168353682Y-68989866D02*
X168353682Y-69089866D01*
X168353682Y-69089866D02*
X168320349Y-69156533D01*
X168320349Y-69156533D02*
X168287016Y-69189866D01*
X168287016Y-69189866D02*
X168220349Y-69223200D01*
X168220349Y-69223200D02*
X167953682Y-69223200D01*
X168587016Y-68856533D02*
X168753682Y-69556533D01*
X168753682Y-69556533D02*
X168887016Y-69056533D01*
X168887016Y-69056533D02*
X169020349Y-69556533D01*
X169020349Y-69556533D02*
X169187016Y-68856533D01*
X169287016Y-69623200D02*
X169820349Y-69623200D01*
X170320349Y-69556533D02*
X169987015Y-69556533D01*
X169987015Y-69556533D02*
X169987015Y-68856533D01*
X170553682Y-69189866D02*
X170787016Y-69189866D01*
X170887016Y-69556533D02*
X170553682Y-69556533D01*
X170553682Y-69556533D02*
X170553682Y-68856533D01*
X170553682Y-68856533D02*
X170887016Y-68856533D01*
X171187015Y-69556533D02*
X171187015Y-68856533D01*
X171187015Y-68856533D02*
X171353682Y-68856533D01*
X171353682Y-68856533D02*
X171453682Y-68889866D01*
X171453682Y-68889866D02*
X171520349Y-68956533D01*
X171520349Y-68956533D02*
X171553682Y-69023200D01*
X171553682Y-69023200D02*
X171587015Y-69156533D01*
X171587015Y-69156533D02*
X171587015Y-69256533D01*
X171587015Y-69256533D02*
X171553682Y-69389866D01*
X171553682Y-69389866D02*
X171520349Y-69456533D01*
X171520349Y-69456533D02*
X171453682Y-69523200D01*
X171453682Y-69523200D02*
X171353682Y-69556533D01*
X171353682Y-69556533D02*
X171187015Y-69556533D01*
X171853682Y-68923200D02*
X171887015Y-68889866D01*
X171887015Y-68889866D02*
X171953682Y-68856533D01*
X171953682Y-68856533D02*
X172120349Y-68856533D01*
X172120349Y-68856533D02*
X172187015Y-68889866D01*
X172187015Y-68889866D02*
X172220349Y-68923200D01*
X172220349Y-68923200D02*
X172253682Y-68989866D01*
X172253682Y-68989866D02*
X172253682Y-69056533D01*
X172253682Y-69056533D02*
X172220349Y-69156533D01*
X172220349Y-69156533D02*
X171820349Y-69556533D01*
X171820349Y-69556533D02*
X172253682Y-69556533D01*
X165553684Y-70056533D02*
X165687017Y-70056533D01*
X165687017Y-70056533D02*
X165753684Y-70089866D01*
X165753684Y-70089866D02*
X165820350Y-70156533D01*
X165820350Y-70156533D02*
X165853684Y-70289866D01*
X165853684Y-70289866D02*
X165853684Y-70523200D01*
X165853684Y-70523200D02*
X165820350Y-70656533D01*
X165820350Y-70656533D02*
X165753684Y-70723200D01*
X165753684Y-70723200D02*
X165687017Y-70756533D01*
X165687017Y-70756533D02*
X165553684Y-70756533D01*
X165553684Y-70756533D02*
X165487017Y-70723200D01*
X165487017Y-70723200D02*
X165420350Y-70656533D01*
X165420350Y-70656533D02*
X165387017Y-70523200D01*
X165387017Y-70523200D02*
X165387017Y-70289866D01*
X165387017Y-70289866D02*
X165420350Y-70156533D01*
X165420350Y-70156533D02*
X165487017Y-70089866D01*
X165487017Y-70089866D02*
X165553684Y-70056533D01*
X166153683Y-70056533D02*
X166153683Y-70623200D01*
X166153683Y-70623200D02*
X166187017Y-70689866D01*
X166187017Y-70689866D02*
X166220350Y-70723200D01*
X166220350Y-70723200D02*
X166287017Y-70756533D01*
X166287017Y-70756533D02*
X166420350Y-70756533D01*
X166420350Y-70756533D02*
X166487017Y-70723200D01*
X166487017Y-70723200D02*
X166520350Y-70689866D01*
X166520350Y-70689866D02*
X166553683Y-70623200D01*
X166553683Y-70623200D02*
X166553683Y-70056533D01*
X166787016Y-70056533D02*
X167187016Y-70056533D01*
X166987016Y-70756533D02*
X166987016Y-70056533D01*
X167253683Y-70823200D02*
X167787016Y-70823200D01*
X167953682Y-70756533D02*
X167953682Y-70056533D01*
X167953682Y-70056533D02*
X168220349Y-70056533D01*
X168220349Y-70056533D02*
X168287016Y-70089866D01*
X168287016Y-70089866D02*
X168320349Y-70123200D01*
X168320349Y-70123200D02*
X168353682Y-70189866D01*
X168353682Y-70189866D02*
X168353682Y-70289866D01*
X168353682Y-70289866D02*
X168320349Y-70356533D01*
X168320349Y-70356533D02*
X168287016Y-70389866D01*
X168287016Y-70389866D02*
X168220349Y-70423200D01*
X168220349Y-70423200D02*
X167953682Y-70423200D01*
X168587016Y-70056533D02*
X168753682Y-70756533D01*
X168753682Y-70756533D02*
X168887016Y-70256533D01*
X168887016Y-70256533D02*
X169020349Y-70756533D01*
X169020349Y-70756533D02*
X169187016Y-70056533D01*
X169287016Y-70823200D02*
X169820349Y-70823200D01*
X170320349Y-70756533D02*
X169987015Y-70756533D01*
X169987015Y-70756533D02*
X169987015Y-70056533D01*
X170553682Y-70389866D02*
X170787016Y-70389866D01*
X170887016Y-70756533D02*
X170553682Y-70756533D01*
X170553682Y-70756533D02*
X170553682Y-70056533D01*
X170553682Y-70056533D02*
X170887016Y-70056533D01*
X171187015Y-70756533D02*
X171187015Y-70056533D01*
X171187015Y-70056533D02*
X171353682Y-70056533D01*
X171353682Y-70056533D02*
X171453682Y-70089866D01*
X171453682Y-70089866D02*
X171520349Y-70156533D01*
X171520349Y-70156533D02*
X171553682Y-70223200D01*
X171553682Y-70223200D02*
X171587015Y-70356533D01*
X171587015Y-70356533D02*
X171587015Y-70456533D01*
X171587015Y-70456533D02*
X171553682Y-70589866D01*
X171553682Y-70589866D02*
X171520349Y-70656533D01*
X171520349Y-70656533D02*
X171453682Y-70723200D01*
X171453682Y-70723200D02*
X171353682Y-70756533D01*
X171353682Y-70756533D02*
X171187015Y-70756533D01*
X172253682Y-70756533D02*
X171853682Y-70756533D01*
X172053682Y-70756533D02*
X172053682Y-70056533D01*
X172053682Y-70056533D02*
X171987015Y-70156533D01*
X171987015Y-70156533D02*
X171920349Y-70223200D01*
X171920349Y-70223200D02*
X171853682Y-70256533D01*
D13*
X146304510Y-36800828D02*
X146304510Y-35300828D01*
X146304510Y-36015114D02*
X147161653Y-36015114D01*
X147161653Y-36800828D02*
X147161653Y-35300828D01*
X147875939Y-36800828D02*
X147875939Y-35300828D01*
X149304511Y-36800828D02*
X148590225Y-36800828D01*
X148590225Y-36800828D02*
X148590225Y-35300828D01*
X149804511Y-36229400D02*
X150947369Y-36229400D01*
X151947369Y-35300828D02*
X152090226Y-35300828D01*
X152090226Y-35300828D02*
X152233083Y-35372257D01*
X152233083Y-35372257D02*
X152304512Y-35443685D01*
X152304512Y-35443685D02*
X152375940Y-35586542D01*
X152375940Y-35586542D02*
X152447369Y-35872257D01*
X152447369Y-35872257D02*
X152447369Y-36229400D01*
X152447369Y-36229400D02*
X152375940Y-36515114D01*
X152375940Y-36515114D02*
X152304512Y-36657971D01*
X152304512Y-36657971D02*
X152233083Y-36729400D01*
X152233083Y-36729400D02*
X152090226Y-36800828D01*
X152090226Y-36800828D02*
X151947369Y-36800828D01*
X151947369Y-36800828D02*
X151804512Y-36729400D01*
X151804512Y-36729400D02*
X151733083Y-36657971D01*
X151733083Y-36657971D02*
X151661654Y-36515114D01*
X151661654Y-36515114D02*
X151590226Y-36229400D01*
X151590226Y-36229400D02*
X151590226Y-35872257D01*
X151590226Y-35872257D02*
X151661654Y-35586542D01*
X151661654Y-35586542D02*
X151733083Y-35443685D01*
X151733083Y-35443685D02*
X151804512Y-35372257D01*
X151804512Y-35372257D02*
X151947369Y-35300828D01*
X153733083Y-35300828D02*
X153447368Y-35300828D01*
X153447368Y-35300828D02*
X153304511Y-35372257D01*
X153304511Y-35372257D02*
X153233083Y-35443685D01*
X153233083Y-35443685D02*
X153090225Y-35657971D01*
X153090225Y-35657971D02*
X153018797Y-35943685D01*
X153018797Y-35943685D02*
X153018797Y-36515114D01*
X153018797Y-36515114D02*
X153090225Y-36657971D01*
X153090225Y-36657971D02*
X153161654Y-36729400D01*
X153161654Y-36729400D02*
X153304511Y-36800828D01*
X153304511Y-36800828D02*
X153590225Y-36800828D01*
X153590225Y-36800828D02*
X153733083Y-36729400D01*
X153733083Y-36729400D02*
X153804511Y-36657971D01*
X153804511Y-36657971D02*
X153875940Y-36515114D01*
X153875940Y-36515114D02*
X153875940Y-36157971D01*
X153875940Y-36157971D02*
X153804511Y-36015114D01*
X153804511Y-36015114D02*
X153733083Y-35943685D01*
X153733083Y-35943685D02*
X153590225Y-35872257D01*
X153590225Y-35872257D02*
X153304511Y-35872257D01*
X153304511Y-35872257D02*
X153161654Y-35943685D01*
X153161654Y-35943685D02*
X153090225Y-36015114D01*
X153090225Y-36015114D02*
X153018797Y-36157971D01*
D12*
X156567142Y-73749819D02*
X156233809Y-73273628D01*
X155995714Y-73749819D02*
X155995714Y-72749819D01*
X155995714Y-72749819D02*
X156376666Y-72749819D01*
X156376666Y-72749819D02*
X156471904Y-72797438D01*
X156471904Y-72797438D02*
X156519523Y-72845057D01*
X156519523Y-72845057D02*
X156567142Y-72940295D01*
X156567142Y-72940295D02*
X156567142Y-73083152D01*
X156567142Y-73083152D02*
X156519523Y-73178390D01*
X156519523Y-73178390D02*
X156471904Y-73226009D01*
X156471904Y-73226009D02*
X156376666Y-73273628D01*
X156376666Y-73273628D02*
X155995714Y-73273628D01*
X157519523Y-73749819D02*
X156948095Y-73749819D01*
X157233809Y-73749819D02*
X157233809Y-72749819D01*
X157233809Y-72749819D02*
X157138571Y-72892676D01*
X157138571Y-72892676D02*
X157043333Y-72987914D01*
X157043333Y-72987914D02*
X156948095Y-73035533D01*
X158138571Y-72749819D02*
X158233809Y-72749819D01*
X158233809Y-72749819D02*
X158329047Y-72797438D01*
X158329047Y-72797438D02*
X158376666Y-72845057D01*
X158376666Y-72845057D02*
X158424285Y-72940295D01*
X158424285Y-72940295D02*
X158471904Y-73130771D01*
X158471904Y-73130771D02*
X158471904Y-73368866D01*
X158471904Y-73368866D02*
X158424285Y-73559342D01*
X158424285Y-73559342D02*
X158376666Y-73654580D01*
X158376666Y-73654580D02*
X158329047Y-73702200D01*
X158329047Y-73702200D02*
X158233809Y-73749819D01*
X158233809Y-73749819D02*
X158138571Y-73749819D01*
X158138571Y-73749819D02*
X158043333Y-73702200D01*
X158043333Y-73702200D02*
X157995714Y-73654580D01*
X157995714Y-73654580D02*
X157948095Y-73559342D01*
X157948095Y-73559342D02*
X157900476Y-73368866D01*
X157900476Y-73368866D02*
X157900476Y-73130771D01*
X157900476Y-73130771D02*
X157948095Y-72940295D01*
X157948095Y-72940295D02*
X157995714Y-72845057D01*
X157995714Y-72845057D02*
X158043333Y-72797438D01*
X158043333Y-72797438D02*
X158138571Y-72749819D01*
X100163333Y-71359580D02*
X100115714Y-71407200D01*
X100115714Y-71407200D02*
X99972857Y-71454819D01*
X99972857Y-71454819D02*
X99877619Y-71454819D01*
X99877619Y-71454819D02*
X99734762Y-71407200D01*
X99734762Y-71407200D02*
X99639524Y-71311961D01*
X99639524Y-71311961D02*
X99591905Y-71216723D01*
X99591905Y-71216723D02*
X99544286Y-71026247D01*
X99544286Y-71026247D02*
X99544286Y-70883390D01*
X99544286Y-70883390D02*
X99591905Y-70692914D01*
X99591905Y-70692914D02*
X99639524Y-70597676D01*
X99639524Y-70597676D02*
X99734762Y-70502438D01*
X99734762Y-70502438D02*
X99877619Y-70454819D01*
X99877619Y-70454819D02*
X99972857Y-70454819D01*
X99972857Y-70454819D02*
X100115714Y-70502438D01*
X100115714Y-70502438D02*
X100163333Y-70550057D01*
X101020476Y-70454819D02*
X100830000Y-70454819D01*
X100830000Y-70454819D02*
X100734762Y-70502438D01*
X100734762Y-70502438D02*
X100687143Y-70550057D01*
X100687143Y-70550057D02*
X100591905Y-70692914D01*
X100591905Y-70692914D02*
X100544286Y-70883390D01*
X100544286Y-70883390D02*
X100544286Y-71264342D01*
X100544286Y-71264342D02*
X100591905Y-71359580D01*
X100591905Y-71359580D02*
X100639524Y-71407200D01*
X100639524Y-71407200D02*
X100734762Y-71454819D01*
X100734762Y-71454819D02*
X100925238Y-71454819D01*
X100925238Y-71454819D02*
X101020476Y-71407200D01*
X101020476Y-71407200D02*
X101068095Y-71359580D01*
X101068095Y-71359580D02*
X101115714Y-71264342D01*
X101115714Y-71264342D02*
X101115714Y-71026247D01*
X101115714Y-71026247D02*
X101068095Y-70931009D01*
X101068095Y-70931009D02*
X101020476Y-70883390D01*
X101020476Y-70883390D02*
X100925238Y-70835771D01*
X100925238Y-70835771D02*
X100734762Y-70835771D01*
X100734762Y-70835771D02*
X100639524Y-70883390D01*
X100639524Y-70883390D02*
X100591905Y-70931009D01*
X100591905Y-70931009D02*
X100544286Y-71026247D01*
X94514819Y-48426666D02*
X94038628Y-48759999D01*
X94514819Y-48998094D02*
X93514819Y-48998094D01*
X93514819Y-48998094D02*
X93514819Y-48617142D01*
X93514819Y-48617142D02*
X93562438Y-48521904D01*
X93562438Y-48521904D02*
X93610057Y-48474285D01*
X93610057Y-48474285D02*
X93705295Y-48426666D01*
X93705295Y-48426666D02*
X93848152Y-48426666D01*
X93848152Y-48426666D02*
X93943390Y-48474285D01*
X93943390Y-48474285D02*
X93991009Y-48521904D01*
X93991009Y-48521904D02*
X94038628Y-48617142D01*
X94038628Y-48617142D02*
X94038628Y-48998094D01*
X93514819Y-47521904D02*
X93514819Y-47998094D01*
X93514819Y-47998094D02*
X93991009Y-48045713D01*
X93991009Y-48045713D02*
X93943390Y-47998094D01*
X93943390Y-47998094D02*
X93895771Y-47902856D01*
X93895771Y-47902856D02*
X93895771Y-47664761D01*
X93895771Y-47664761D02*
X93943390Y-47569523D01*
X93943390Y-47569523D02*
X93991009Y-47521904D01*
X93991009Y-47521904D02*
X94086247Y-47474285D01*
X94086247Y-47474285D02*
X94324342Y-47474285D01*
X94324342Y-47474285D02*
X94419580Y-47521904D01*
X94419580Y-47521904D02*
X94467200Y-47569523D01*
X94467200Y-47569523D02*
X94514819Y-47664761D01*
X94514819Y-47664761D02*
X94514819Y-47902856D01*
X94514819Y-47902856D02*
X94467200Y-47998094D01*
X94467200Y-47998094D02*
X94419580Y-48045713D01*
X88354819Y-35893333D02*
X89069104Y-35893333D01*
X89069104Y-35893333D02*
X89211961Y-35940952D01*
X89211961Y-35940952D02*
X89307200Y-36036190D01*
X89307200Y-36036190D02*
X89354819Y-36179047D01*
X89354819Y-36179047D02*
X89354819Y-36274285D01*
X88688152Y-34988571D02*
X89354819Y-34988571D01*
X88307200Y-35226666D02*
X89021485Y-35464761D01*
X89021485Y-35464761D02*
X89021485Y-34845714D01*
X138422142Y-73749819D02*
X138088809Y-73273628D01*
X137850714Y-73749819D02*
X137850714Y-72749819D01*
X137850714Y-72749819D02*
X138231666Y-72749819D01*
X138231666Y-72749819D02*
X138326904Y-72797438D01*
X138326904Y-72797438D02*
X138374523Y-72845057D01*
X138374523Y-72845057D02*
X138422142Y-72940295D01*
X138422142Y-72940295D02*
X138422142Y-73083152D01*
X138422142Y-73083152D02*
X138374523Y-73178390D01*
X138374523Y-73178390D02*
X138326904Y-73226009D01*
X138326904Y-73226009D02*
X138231666Y-73273628D01*
X138231666Y-73273628D02*
X137850714Y-73273628D01*
X139374523Y-73749819D02*
X138803095Y-73749819D01*
X139088809Y-73749819D02*
X139088809Y-72749819D01*
X139088809Y-72749819D02*
X138993571Y-72892676D01*
X138993571Y-72892676D02*
X138898333Y-72987914D01*
X138898333Y-72987914D02*
X138803095Y-73035533D01*
X140231666Y-72749819D02*
X140041190Y-72749819D01*
X140041190Y-72749819D02*
X139945952Y-72797438D01*
X139945952Y-72797438D02*
X139898333Y-72845057D01*
X139898333Y-72845057D02*
X139803095Y-72987914D01*
X139803095Y-72987914D02*
X139755476Y-73178390D01*
X139755476Y-73178390D02*
X139755476Y-73559342D01*
X139755476Y-73559342D02*
X139803095Y-73654580D01*
X139803095Y-73654580D02*
X139850714Y-73702200D01*
X139850714Y-73702200D02*
X139945952Y-73749819D01*
X139945952Y-73749819D02*
X140136428Y-73749819D01*
X140136428Y-73749819D02*
X140231666Y-73702200D01*
X140231666Y-73702200D02*
X140279285Y-73654580D01*
X140279285Y-73654580D02*
X140326904Y-73559342D01*
X140326904Y-73559342D02*
X140326904Y-73321247D01*
X140326904Y-73321247D02*
X140279285Y-73226009D01*
X140279285Y-73226009D02*
X140231666Y-73178390D01*
X140231666Y-73178390D02*
X140136428Y-73130771D01*
X140136428Y-73130771D02*
X139945952Y-73130771D01*
X139945952Y-73130771D02*
X139850714Y-73178390D01*
X139850714Y-73178390D02*
X139803095Y-73226009D01*
X139803095Y-73226009D02*
X139755476Y-73321247D01*
X109688333Y-35919580D02*
X109640714Y-35967200D01*
X109640714Y-35967200D02*
X109497857Y-36014819D01*
X109497857Y-36014819D02*
X109402619Y-36014819D01*
X109402619Y-36014819D02*
X109259762Y-35967200D01*
X109259762Y-35967200D02*
X109164524Y-35871961D01*
X109164524Y-35871961D02*
X109116905Y-35776723D01*
X109116905Y-35776723D02*
X109069286Y-35586247D01*
X109069286Y-35586247D02*
X109069286Y-35443390D01*
X109069286Y-35443390D02*
X109116905Y-35252914D01*
X109116905Y-35252914D02*
X109164524Y-35157676D01*
X109164524Y-35157676D02*
X109259762Y-35062438D01*
X109259762Y-35062438D02*
X109402619Y-35014819D01*
X109402619Y-35014819D02*
X109497857Y-35014819D01*
X109497857Y-35014819D02*
X109640714Y-35062438D01*
X109640714Y-35062438D02*
X109688333Y-35110057D01*
X110640714Y-36014819D02*
X110069286Y-36014819D01*
X110355000Y-36014819D02*
X110355000Y-35014819D01*
X110355000Y-35014819D02*
X110259762Y-35157676D01*
X110259762Y-35157676D02*
X110164524Y-35252914D01*
X110164524Y-35252914D02*
X110069286Y-35300533D01*
X88354819Y-57483333D02*
X89069104Y-57483333D01*
X89069104Y-57483333D02*
X89211961Y-57530952D01*
X89211961Y-57530952D02*
X89307200Y-57626190D01*
X89307200Y-57626190D02*
X89354819Y-57769047D01*
X89354819Y-57769047D02*
X89354819Y-57864285D01*
X88450057Y-57054761D02*
X88402438Y-57007142D01*
X88402438Y-57007142D02*
X88354819Y-56911904D01*
X88354819Y-56911904D02*
X88354819Y-56673809D01*
X88354819Y-56673809D02*
X88402438Y-56578571D01*
X88402438Y-56578571D02*
X88450057Y-56530952D01*
X88450057Y-56530952D02*
X88545295Y-56483333D01*
X88545295Y-56483333D02*
X88640533Y-56483333D01*
X88640533Y-56483333D02*
X88783390Y-56530952D01*
X88783390Y-56530952D02*
X89354819Y-57102380D01*
X89354819Y-57102380D02*
X89354819Y-56483333D01*
X96512142Y-72704819D02*
X96178809Y-72228628D01*
X95940714Y-72704819D02*
X95940714Y-71704819D01*
X95940714Y-71704819D02*
X96321666Y-71704819D01*
X96321666Y-71704819D02*
X96416904Y-71752438D01*
X96416904Y-71752438D02*
X96464523Y-71800057D01*
X96464523Y-71800057D02*
X96512142Y-71895295D01*
X96512142Y-71895295D02*
X96512142Y-72038152D01*
X96512142Y-72038152D02*
X96464523Y-72133390D01*
X96464523Y-72133390D02*
X96416904Y-72181009D01*
X96416904Y-72181009D02*
X96321666Y-72228628D01*
X96321666Y-72228628D02*
X95940714Y-72228628D01*
X97464523Y-72704819D02*
X96893095Y-72704819D01*
X97178809Y-72704819D02*
X97178809Y-71704819D01*
X97178809Y-71704819D02*
X97083571Y-71847676D01*
X97083571Y-71847676D02*
X96988333Y-71942914D01*
X96988333Y-71942914D02*
X96893095Y-71990533D01*
X98416904Y-72704819D02*
X97845476Y-72704819D01*
X98131190Y-72704819D02*
X98131190Y-71704819D01*
X98131190Y-71704819D02*
X98035952Y-71847676D01*
X98035952Y-71847676D02*
X97940714Y-71942914D01*
X97940714Y-71942914D02*
X97845476Y-71990533D01*
X95718333Y-75384819D02*
X95385000Y-74908628D01*
X95146905Y-75384819D02*
X95146905Y-74384819D01*
X95146905Y-74384819D02*
X95527857Y-74384819D01*
X95527857Y-74384819D02*
X95623095Y-74432438D01*
X95623095Y-74432438D02*
X95670714Y-74480057D01*
X95670714Y-74480057D02*
X95718333Y-74575295D01*
X95718333Y-74575295D02*
X95718333Y-74718152D01*
X95718333Y-74718152D02*
X95670714Y-74813390D01*
X95670714Y-74813390D02*
X95623095Y-74861009D01*
X95623095Y-74861009D02*
X95527857Y-74908628D01*
X95527857Y-74908628D02*
X95146905Y-74908628D01*
X96051667Y-74384819D02*
X96670714Y-74384819D01*
X96670714Y-74384819D02*
X96337381Y-74765771D01*
X96337381Y-74765771D02*
X96480238Y-74765771D01*
X96480238Y-74765771D02*
X96575476Y-74813390D01*
X96575476Y-74813390D02*
X96623095Y-74861009D01*
X96623095Y-74861009D02*
X96670714Y-74956247D01*
X96670714Y-74956247D02*
X96670714Y-75194342D01*
X96670714Y-75194342D02*
X96623095Y-75289580D01*
X96623095Y-75289580D02*
X96575476Y-75337200D01*
X96575476Y-75337200D02*
X96480238Y-75384819D01*
X96480238Y-75384819D02*
X96194524Y-75384819D01*
X96194524Y-75384819D02*
X96099286Y-75337200D01*
X96099286Y-75337200D02*
X96051667Y-75289580D01*
X132458095Y-59529819D02*
X132458095Y-60339342D01*
X132458095Y-60339342D02*
X132505714Y-60434580D01*
X132505714Y-60434580D02*
X132553333Y-60482200D01*
X132553333Y-60482200D02*
X132648571Y-60529819D01*
X132648571Y-60529819D02*
X132839047Y-60529819D01*
X132839047Y-60529819D02*
X132934285Y-60482200D01*
X132934285Y-60482200D02*
X132981904Y-60434580D01*
X132981904Y-60434580D02*
X133029523Y-60339342D01*
X133029523Y-60339342D02*
X133029523Y-59529819D01*
X133934285Y-59863152D02*
X133934285Y-60529819D01*
X133696190Y-59482200D02*
X133458095Y-60196485D01*
X133458095Y-60196485D02*
X134077142Y-60196485D01*
X126346904Y-40935180D02*
X126346904Y-40125657D01*
X126346904Y-40125657D02*
X126299285Y-40030419D01*
X126299285Y-40030419D02*
X126251666Y-39982800D01*
X126251666Y-39982800D02*
X126156428Y-39935180D01*
X126156428Y-39935180D02*
X125965952Y-39935180D01*
X125965952Y-39935180D02*
X125870714Y-39982800D01*
X125870714Y-39982800D02*
X125823095Y-40030419D01*
X125823095Y-40030419D02*
X125775476Y-40125657D01*
X125775476Y-40125657D02*
X125775476Y-40935180D01*
X125346904Y-39982800D02*
X125204047Y-39935180D01*
X125204047Y-39935180D02*
X124965952Y-39935180D01*
X124965952Y-39935180D02*
X124870714Y-39982800D01*
X124870714Y-39982800D02*
X124823095Y-40030419D01*
X124823095Y-40030419D02*
X124775476Y-40125657D01*
X124775476Y-40125657D02*
X124775476Y-40220895D01*
X124775476Y-40220895D02*
X124823095Y-40316133D01*
X124823095Y-40316133D02*
X124870714Y-40363752D01*
X124870714Y-40363752D02*
X124965952Y-40411371D01*
X124965952Y-40411371D02*
X125156428Y-40458990D01*
X125156428Y-40458990D02*
X125251666Y-40506609D01*
X125251666Y-40506609D02*
X125299285Y-40554228D01*
X125299285Y-40554228D02*
X125346904Y-40649466D01*
X125346904Y-40649466D02*
X125346904Y-40744704D01*
X125346904Y-40744704D02*
X125299285Y-40839942D01*
X125299285Y-40839942D02*
X125251666Y-40887561D01*
X125251666Y-40887561D02*
X125156428Y-40935180D01*
X125156428Y-40935180D02*
X124918333Y-40935180D01*
X124918333Y-40935180D02*
X124775476Y-40887561D01*
X124013571Y-40458990D02*
X123870714Y-40411371D01*
X123870714Y-40411371D02*
X123823095Y-40363752D01*
X123823095Y-40363752D02*
X123775476Y-40268514D01*
X123775476Y-40268514D02*
X123775476Y-40125657D01*
X123775476Y-40125657D02*
X123823095Y-40030419D01*
X123823095Y-40030419D02*
X123870714Y-39982800D01*
X123870714Y-39982800D02*
X123965952Y-39935180D01*
X123965952Y-39935180D02*
X124346904Y-39935180D01*
X124346904Y-39935180D02*
X124346904Y-40935180D01*
X124346904Y-40935180D02*
X124013571Y-40935180D01*
X124013571Y-40935180D02*
X123918333Y-40887561D01*
X123918333Y-40887561D02*
X123870714Y-40839942D01*
X123870714Y-40839942D02*
X123823095Y-40744704D01*
X123823095Y-40744704D02*
X123823095Y-40649466D01*
X123823095Y-40649466D02*
X123870714Y-40554228D01*
X123870714Y-40554228D02*
X123918333Y-40506609D01*
X123918333Y-40506609D02*
X124013571Y-40458990D01*
X124013571Y-40458990D02*
X124346904Y-40458990D01*
X152233333Y-73749819D02*
X151900000Y-73273628D01*
X151661905Y-73749819D02*
X151661905Y-72749819D01*
X151661905Y-72749819D02*
X152042857Y-72749819D01*
X152042857Y-72749819D02*
X152138095Y-72797438D01*
X152138095Y-72797438D02*
X152185714Y-72845057D01*
X152185714Y-72845057D02*
X152233333Y-72940295D01*
X152233333Y-72940295D02*
X152233333Y-73083152D01*
X152233333Y-73083152D02*
X152185714Y-73178390D01*
X152185714Y-73178390D02*
X152138095Y-73226009D01*
X152138095Y-73226009D02*
X152042857Y-73273628D01*
X152042857Y-73273628D02*
X151661905Y-73273628D01*
X152709524Y-73749819D02*
X152900000Y-73749819D01*
X152900000Y-73749819D02*
X152995238Y-73702200D01*
X152995238Y-73702200D02*
X153042857Y-73654580D01*
X153042857Y-73654580D02*
X153138095Y-73511723D01*
X153138095Y-73511723D02*
X153185714Y-73321247D01*
X153185714Y-73321247D02*
X153185714Y-72940295D01*
X153185714Y-72940295D02*
X153138095Y-72845057D01*
X153138095Y-72845057D02*
X153090476Y-72797438D01*
X153090476Y-72797438D02*
X152995238Y-72749819D01*
X152995238Y-72749819D02*
X152804762Y-72749819D01*
X152804762Y-72749819D02*
X152709524Y-72797438D01*
X152709524Y-72797438D02*
X152661905Y-72845057D01*
X152661905Y-72845057D02*
X152614286Y-72940295D01*
X152614286Y-72940295D02*
X152614286Y-73178390D01*
X152614286Y-73178390D02*
X152661905Y-73273628D01*
X152661905Y-73273628D02*
X152709524Y-73321247D01*
X152709524Y-73321247D02*
X152804762Y-73368866D01*
X152804762Y-73368866D02*
X152995238Y-73368866D01*
X152995238Y-73368866D02*
X153090476Y-73321247D01*
X153090476Y-73321247D02*
X153138095Y-73273628D01*
X153138095Y-73273628D02*
X153185714Y-73178390D01*
X109688333Y-61319580D02*
X109640714Y-61367200D01*
X109640714Y-61367200D02*
X109497857Y-61414819D01*
X109497857Y-61414819D02*
X109402619Y-61414819D01*
X109402619Y-61414819D02*
X109259762Y-61367200D01*
X109259762Y-61367200D02*
X109164524Y-61271961D01*
X109164524Y-61271961D02*
X109116905Y-61176723D01*
X109116905Y-61176723D02*
X109069286Y-60986247D01*
X109069286Y-60986247D02*
X109069286Y-60843390D01*
X109069286Y-60843390D02*
X109116905Y-60652914D01*
X109116905Y-60652914D02*
X109164524Y-60557676D01*
X109164524Y-60557676D02*
X109259762Y-60462438D01*
X109259762Y-60462438D02*
X109402619Y-60414819D01*
X109402619Y-60414819D02*
X109497857Y-60414819D01*
X109497857Y-60414819D02*
X109640714Y-60462438D01*
X109640714Y-60462438D02*
X109688333Y-60510057D01*
X110593095Y-60414819D02*
X110116905Y-60414819D01*
X110116905Y-60414819D02*
X110069286Y-60891009D01*
X110069286Y-60891009D02*
X110116905Y-60843390D01*
X110116905Y-60843390D02*
X110212143Y-60795771D01*
X110212143Y-60795771D02*
X110450238Y-60795771D01*
X110450238Y-60795771D02*
X110545476Y-60843390D01*
X110545476Y-60843390D02*
X110593095Y-60891009D01*
X110593095Y-60891009D02*
X110640714Y-60986247D01*
X110640714Y-60986247D02*
X110640714Y-61224342D01*
X110640714Y-61224342D02*
X110593095Y-61319580D01*
X110593095Y-61319580D02*
X110545476Y-61367200D01*
X110545476Y-61367200D02*
X110450238Y-61414819D01*
X110450238Y-61414819D02*
X110212143Y-61414819D01*
X110212143Y-61414819D02*
X110116905Y-61367200D01*
X110116905Y-61367200D02*
X110069286Y-61319580D01*
X94434819Y-61126666D02*
X93958628Y-61459999D01*
X94434819Y-61698094D02*
X93434819Y-61698094D01*
X93434819Y-61698094D02*
X93434819Y-61317142D01*
X93434819Y-61317142D02*
X93482438Y-61221904D01*
X93482438Y-61221904D02*
X93530057Y-61174285D01*
X93530057Y-61174285D02*
X93625295Y-61126666D01*
X93625295Y-61126666D02*
X93768152Y-61126666D01*
X93768152Y-61126666D02*
X93863390Y-61174285D01*
X93863390Y-61174285D02*
X93911009Y-61221904D01*
X93911009Y-61221904D02*
X93958628Y-61317142D01*
X93958628Y-61317142D02*
X93958628Y-61698094D01*
X93863390Y-60555237D02*
X93815771Y-60650475D01*
X93815771Y-60650475D02*
X93768152Y-60698094D01*
X93768152Y-60698094D02*
X93672914Y-60745713D01*
X93672914Y-60745713D02*
X93625295Y-60745713D01*
X93625295Y-60745713D02*
X93530057Y-60698094D01*
X93530057Y-60698094D02*
X93482438Y-60650475D01*
X93482438Y-60650475D02*
X93434819Y-60555237D01*
X93434819Y-60555237D02*
X93434819Y-60364761D01*
X93434819Y-60364761D02*
X93482438Y-60269523D01*
X93482438Y-60269523D02*
X93530057Y-60221904D01*
X93530057Y-60221904D02*
X93625295Y-60174285D01*
X93625295Y-60174285D02*
X93672914Y-60174285D01*
X93672914Y-60174285D02*
X93768152Y-60221904D01*
X93768152Y-60221904D02*
X93815771Y-60269523D01*
X93815771Y-60269523D02*
X93863390Y-60364761D01*
X93863390Y-60364761D02*
X93863390Y-60555237D01*
X93863390Y-60555237D02*
X93911009Y-60650475D01*
X93911009Y-60650475D02*
X93958628Y-60698094D01*
X93958628Y-60698094D02*
X94053866Y-60745713D01*
X94053866Y-60745713D02*
X94244342Y-60745713D01*
X94244342Y-60745713D02*
X94339580Y-60698094D01*
X94339580Y-60698094D02*
X94387200Y-60650475D01*
X94387200Y-60650475D02*
X94434819Y-60555237D01*
X94434819Y-60555237D02*
X94434819Y-60364761D01*
X94434819Y-60364761D02*
X94387200Y-60269523D01*
X94387200Y-60269523D02*
X94339580Y-60221904D01*
X94339580Y-60221904D02*
X94244342Y-60174285D01*
X94244342Y-60174285D02*
X94053866Y-60174285D01*
X94053866Y-60174285D02*
X93958628Y-60221904D01*
X93958628Y-60221904D02*
X93911009Y-60269523D01*
X93911009Y-60269523D02*
X93863390Y-60364761D01*
X95718333Y-77289819D02*
X95385000Y-76813628D01*
X95146905Y-77289819D02*
X95146905Y-76289819D01*
X95146905Y-76289819D02*
X95527857Y-76289819D01*
X95527857Y-76289819D02*
X95623095Y-76337438D01*
X95623095Y-76337438D02*
X95670714Y-76385057D01*
X95670714Y-76385057D02*
X95718333Y-76480295D01*
X95718333Y-76480295D02*
X95718333Y-76623152D01*
X95718333Y-76623152D02*
X95670714Y-76718390D01*
X95670714Y-76718390D02*
X95623095Y-76766009D01*
X95623095Y-76766009D02*
X95527857Y-76813628D01*
X95527857Y-76813628D02*
X95146905Y-76813628D01*
X96099286Y-76385057D02*
X96146905Y-76337438D01*
X96146905Y-76337438D02*
X96242143Y-76289819D01*
X96242143Y-76289819D02*
X96480238Y-76289819D01*
X96480238Y-76289819D02*
X96575476Y-76337438D01*
X96575476Y-76337438D02*
X96623095Y-76385057D01*
X96623095Y-76385057D02*
X96670714Y-76480295D01*
X96670714Y-76480295D02*
X96670714Y-76575533D01*
X96670714Y-76575533D02*
X96623095Y-76718390D01*
X96623095Y-76718390D02*
X96051667Y-77289819D01*
X96051667Y-77289819D02*
X96670714Y-77289819D01*
X147176905Y-73734819D02*
X147176905Y-72734819D01*
X147176905Y-72734819D02*
X147415000Y-72734819D01*
X147415000Y-72734819D02*
X147557857Y-72782438D01*
X147557857Y-72782438D02*
X147653095Y-72877676D01*
X147653095Y-72877676D02*
X147700714Y-72972914D01*
X147700714Y-72972914D02*
X147748333Y-73163390D01*
X147748333Y-73163390D02*
X147748333Y-73306247D01*
X147748333Y-73306247D02*
X147700714Y-73496723D01*
X147700714Y-73496723D02*
X147653095Y-73591961D01*
X147653095Y-73591961D02*
X147557857Y-73687200D01*
X147557857Y-73687200D02*
X147415000Y-73734819D01*
X147415000Y-73734819D02*
X147176905Y-73734819D01*
X148081667Y-72734819D02*
X148700714Y-72734819D01*
X148700714Y-72734819D02*
X148367381Y-73115771D01*
X148367381Y-73115771D02*
X148510238Y-73115771D01*
X148510238Y-73115771D02*
X148605476Y-73163390D01*
X148605476Y-73163390D02*
X148653095Y-73211009D01*
X148653095Y-73211009D02*
X148700714Y-73306247D01*
X148700714Y-73306247D02*
X148700714Y-73544342D01*
X148700714Y-73544342D02*
X148653095Y-73639580D01*
X148653095Y-73639580D02*
X148605476Y-73687200D01*
X148605476Y-73687200D02*
X148510238Y-73734819D01*
X148510238Y-73734819D02*
X148224524Y-73734819D01*
X148224524Y-73734819D02*
X148129286Y-73687200D01*
X148129286Y-73687200D02*
X148081667Y-73639580D01*
X143232142Y-73734819D02*
X142898809Y-73258628D01*
X142660714Y-73734819D02*
X142660714Y-72734819D01*
X142660714Y-72734819D02*
X143041666Y-72734819D01*
X143041666Y-72734819D02*
X143136904Y-72782438D01*
X143136904Y-72782438D02*
X143184523Y-72830057D01*
X143184523Y-72830057D02*
X143232142Y-72925295D01*
X143232142Y-72925295D02*
X143232142Y-73068152D01*
X143232142Y-73068152D02*
X143184523Y-73163390D01*
X143184523Y-73163390D02*
X143136904Y-73211009D01*
X143136904Y-73211009D02*
X143041666Y-73258628D01*
X143041666Y-73258628D02*
X142660714Y-73258628D01*
X144184523Y-73734819D02*
X143613095Y-73734819D01*
X143898809Y-73734819D02*
X143898809Y-72734819D01*
X143898809Y-72734819D02*
X143803571Y-72877676D01*
X143803571Y-72877676D02*
X143708333Y-72972914D01*
X143708333Y-72972914D02*
X143613095Y-73020533D01*
X145089285Y-72734819D02*
X144613095Y-72734819D01*
X144613095Y-72734819D02*
X144565476Y-73211009D01*
X144565476Y-73211009D02*
X144613095Y-73163390D01*
X144613095Y-73163390D02*
X144708333Y-73115771D01*
X144708333Y-73115771D02*
X144946428Y-73115771D01*
X144946428Y-73115771D02*
X145041666Y-73163390D01*
X145041666Y-73163390D02*
X145089285Y-73211009D01*
X145089285Y-73211009D02*
X145136904Y-73306247D01*
X145136904Y-73306247D02*
X145136904Y-73544342D01*
X145136904Y-73544342D02*
X145089285Y-73639580D01*
X145089285Y-73639580D02*
X145041666Y-73687200D01*
X145041666Y-73687200D02*
X144946428Y-73734819D01*
X144946428Y-73734819D02*
X144708333Y-73734819D01*
X144708333Y-73734819D02*
X144613095Y-73687200D01*
X144613095Y-73687200D02*
X144565476Y-73639580D01*
X170594819Y-49783333D02*
X171309104Y-49783333D01*
X171309104Y-49783333D02*
X171451961Y-49830952D01*
X171451961Y-49830952D02*
X171547200Y-49926190D01*
X171547200Y-49926190D02*
X171594819Y-50069047D01*
X171594819Y-50069047D02*
X171594819Y-50164285D01*
X170594819Y-48830952D02*
X170594819Y-49307142D01*
X170594819Y-49307142D02*
X171071009Y-49354761D01*
X171071009Y-49354761D02*
X171023390Y-49307142D01*
X171023390Y-49307142D02*
X170975771Y-49211904D01*
X170975771Y-49211904D02*
X170975771Y-48973809D01*
X170975771Y-48973809D02*
X171023390Y-48878571D01*
X171023390Y-48878571D02*
X171071009Y-48830952D01*
X171071009Y-48830952D02*
X171166247Y-48783333D01*
X171166247Y-48783333D02*
X171404342Y-48783333D01*
X171404342Y-48783333D02*
X171499580Y-48830952D01*
X171499580Y-48830952D02*
X171547200Y-48878571D01*
X171547200Y-48878571D02*
X171594819Y-48973809D01*
X171594819Y-48973809D02*
X171594819Y-49211904D01*
X171594819Y-49211904D02*
X171547200Y-49307142D01*
X171547200Y-49307142D02*
X171499580Y-49354761D01*
X102743095Y-47714819D02*
X102743095Y-48524342D01*
X102743095Y-48524342D02*
X102790714Y-48619580D01*
X102790714Y-48619580D02*
X102838333Y-48667200D01*
X102838333Y-48667200D02*
X102933571Y-48714819D01*
X102933571Y-48714819D02*
X103124047Y-48714819D01*
X103124047Y-48714819D02*
X103219285Y-48667200D01*
X103219285Y-48667200D02*
X103266904Y-48619580D01*
X103266904Y-48619580D02*
X103314523Y-48524342D01*
X103314523Y-48524342D02*
X103314523Y-47714819D01*
X103743095Y-47810057D02*
X103790714Y-47762438D01*
X103790714Y-47762438D02*
X103885952Y-47714819D01*
X103885952Y-47714819D02*
X104124047Y-47714819D01*
X104124047Y-47714819D02*
X104219285Y-47762438D01*
X104219285Y-47762438D02*
X104266904Y-47810057D01*
X104266904Y-47810057D02*
X104314523Y-47905295D01*
X104314523Y-47905295D02*
X104314523Y-48000533D01*
X104314523Y-48000533D02*
X104266904Y-48143390D01*
X104266904Y-48143390D02*
X103695476Y-48714819D01*
X103695476Y-48714819D02*
X104314523Y-48714819D01*
X159566666Y-38504819D02*
X159566666Y-39219104D01*
X159566666Y-39219104D02*
X159519047Y-39361961D01*
X159519047Y-39361961D02*
X159423809Y-39457200D01*
X159423809Y-39457200D02*
X159280952Y-39504819D01*
X159280952Y-39504819D02*
X159185714Y-39504819D01*
X160042857Y-39504819D02*
X160042857Y-38504819D01*
X160042857Y-38504819D02*
X160423809Y-38504819D01*
X160423809Y-38504819D02*
X160519047Y-38552438D01*
X160519047Y-38552438D02*
X160566666Y-38600057D01*
X160566666Y-38600057D02*
X160614285Y-38695295D01*
X160614285Y-38695295D02*
X160614285Y-38838152D01*
X160614285Y-38838152D02*
X160566666Y-38933390D01*
X160566666Y-38933390D02*
X160519047Y-38981009D01*
X160519047Y-38981009D02*
X160423809Y-39028628D01*
X160423809Y-39028628D02*
X160042857Y-39028628D01*
X161566666Y-39504819D02*
X160995238Y-39504819D01*
X161280952Y-39504819D02*
X161280952Y-38504819D01*
X161280952Y-38504819D02*
X161185714Y-38647676D01*
X161185714Y-38647676D02*
X161090476Y-38742914D01*
X161090476Y-38742914D02*
X160995238Y-38790533D01*
X113596009Y-54525833D02*
X113596009Y-54859166D01*
X114119819Y-54859166D02*
X113119819Y-54859166D01*
X113119819Y-54859166D02*
X113119819Y-54382976D01*
X113215057Y-54049642D02*
X113167438Y-54002023D01*
X113167438Y-54002023D02*
X113119819Y-53906785D01*
X113119819Y-53906785D02*
X113119819Y-53668690D01*
X113119819Y-53668690D02*
X113167438Y-53573452D01*
X113167438Y-53573452D02*
X113215057Y-53525833D01*
X113215057Y-53525833D02*
X113310295Y-53478214D01*
X113310295Y-53478214D02*
X113405533Y-53478214D01*
X113405533Y-53478214D02*
X113548390Y-53525833D01*
X113548390Y-53525833D02*
X114119819Y-54097261D01*
X114119819Y-54097261D02*
X114119819Y-53478214D01*
X91432142Y-46554819D02*
X91098809Y-46078628D01*
X90860714Y-46554819D02*
X90860714Y-45554819D01*
X90860714Y-45554819D02*
X91241666Y-45554819D01*
X91241666Y-45554819D02*
X91336904Y-45602438D01*
X91336904Y-45602438D02*
X91384523Y-45650057D01*
X91384523Y-45650057D02*
X91432142Y-45745295D01*
X91432142Y-45745295D02*
X91432142Y-45888152D01*
X91432142Y-45888152D02*
X91384523Y-45983390D01*
X91384523Y-45983390D02*
X91336904Y-46031009D01*
X91336904Y-46031009D02*
X91241666Y-46078628D01*
X91241666Y-46078628D02*
X90860714Y-46078628D01*
X92384523Y-46554819D02*
X91813095Y-46554819D01*
X92098809Y-46554819D02*
X92098809Y-45554819D01*
X92098809Y-45554819D02*
X92003571Y-45697676D01*
X92003571Y-45697676D02*
X91908333Y-45792914D01*
X91908333Y-45792914D02*
X91813095Y-45840533D01*
X92765476Y-45650057D02*
X92813095Y-45602438D01*
X92813095Y-45602438D02*
X92908333Y-45554819D01*
X92908333Y-45554819D02*
X93146428Y-45554819D01*
X93146428Y-45554819D02*
X93241666Y-45602438D01*
X93241666Y-45602438D02*
X93289285Y-45650057D01*
X93289285Y-45650057D02*
X93336904Y-45745295D01*
X93336904Y-45745295D02*
X93336904Y-45840533D01*
X93336904Y-45840533D02*
X93289285Y-45983390D01*
X93289285Y-45983390D02*
X92717857Y-46554819D01*
X92717857Y-46554819D02*
X93336904Y-46554819D01*
X99591905Y-72704819D02*
X99591905Y-71704819D01*
X99591905Y-71704819D02*
X99830000Y-71704819D01*
X99830000Y-71704819D02*
X99972857Y-71752438D01*
X99972857Y-71752438D02*
X100068095Y-71847676D01*
X100068095Y-71847676D02*
X100115714Y-71942914D01*
X100115714Y-71942914D02*
X100163333Y-72133390D01*
X100163333Y-72133390D02*
X100163333Y-72276247D01*
X100163333Y-72276247D02*
X100115714Y-72466723D01*
X100115714Y-72466723D02*
X100068095Y-72561961D01*
X100068095Y-72561961D02*
X99972857Y-72657200D01*
X99972857Y-72657200D02*
X99830000Y-72704819D01*
X99830000Y-72704819D02*
X99591905Y-72704819D01*
X101020476Y-72038152D02*
X101020476Y-72704819D01*
X100782381Y-71657200D02*
X100544286Y-72371485D01*
X100544286Y-72371485D02*
X101163333Y-72371485D01*
X96353333Y-60144819D02*
X96020000Y-59668628D01*
X95781905Y-60144819D02*
X95781905Y-59144819D01*
X95781905Y-59144819D02*
X96162857Y-59144819D01*
X96162857Y-59144819D02*
X96258095Y-59192438D01*
X96258095Y-59192438D02*
X96305714Y-59240057D01*
X96305714Y-59240057D02*
X96353333Y-59335295D01*
X96353333Y-59335295D02*
X96353333Y-59478152D01*
X96353333Y-59478152D02*
X96305714Y-59573390D01*
X96305714Y-59573390D02*
X96258095Y-59621009D01*
X96258095Y-59621009D02*
X96162857Y-59668628D01*
X96162857Y-59668628D02*
X95781905Y-59668628D01*
X96686667Y-59144819D02*
X97353333Y-59144819D01*
X97353333Y-59144819D02*
X96924762Y-60144819D01*
X96333333Y-71359580D02*
X96285714Y-71407200D01*
X96285714Y-71407200D02*
X96142857Y-71454819D01*
X96142857Y-71454819D02*
X96047619Y-71454819D01*
X96047619Y-71454819D02*
X95904762Y-71407200D01*
X95904762Y-71407200D02*
X95809524Y-71311961D01*
X95809524Y-71311961D02*
X95761905Y-71216723D01*
X95761905Y-71216723D02*
X95714286Y-71026247D01*
X95714286Y-71026247D02*
X95714286Y-70883390D01*
X95714286Y-70883390D02*
X95761905Y-70692914D01*
X95761905Y-70692914D02*
X95809524Y-70597676D01*
X95809524Y-70597676D02*
X95904762Y-70502438D01*
X95904762Y-70502438D02*
X96047619Y-70454819D01*
X96047619Y-70454819D02*
X96142857Y-70454819D01*
X96142857Y-70454819D02*
X96285714Y-70502438D01*
X96285714Y-70502438D02*
X96333333Y-70550057D01*
X96809524Y-71454819D02*
X97000000Y-71454819D01*
X97000000Y-71454819D02*
X97095238Y-71407200D01*
X97095238Y-71407200D02*
X97142857Y-71359580D01*
X97142857Y-71359580D02*
X97238095Y-71216723D01*
X97238095Y-71216723D02*
X97285714Y-71026247D01*
X97285714Y-71026247D02*
X97285714Y-70645295D01*
X97285714Y-70645295D02*
X97238095Y-70550057D01*
X97238095Y-70550057D02*
X97190476Y-70502438D01*
X97190476Y-70502438D02*
X97095238Y-70454819D01*
X97095238Y-70454819D02*
X96904762Y-70454819D01*
X96904762Y-70454819D02*
X96809524Y-70502438D01*
X96809524Y-70502438D02*
X96761905Y-70550057D01*
X96761905Y-70550057D02*
X96714286Y-70645295D01*
X96714286Y-70645295D02*
X96714286Y-70883390D01*
X96714286Y-70883390D02*
X96761905Y-70978628D01*
X96761905Y-70978628D02*
X96809524Y-71026247D01*
X96809524Y-71026247D02*
X96904762Y-71073866D01*
X96904762Y-71073866D02*
X97095238Y-71073866D01*
X97095238Y-71073866D02*
X97190476Y-71026247D01*
X97190476Y-71026247D02*
X97238095Y-70978628D01*
X97238095Y-70978628D02*
X97285714Y-70883390D01*
X88354819Y-46688333D02*
X89069104Y-46688333D01*
X89069104Y-46688333D02*
X89211961Y-46735952D01*
X89211961Y-46735952D02*
X89307200Y-46831190D01*
X89307200Y-46831190D02*
X89354819Y-46974047D01*
X89354819Y-46974047D02*
X89354819Y-47069285D01*
X88354819Y-46307380D02*
X88354819Y-45688333D01*
X88354819Y-45688333D02*
X88735771Y-46021666D01*
X88735771Y-46021666D02*
X88735771Y-45878809D01*
X88735771Y-45878809D02*
X88783390Y-45783571D01*
X88783390Y-45783571D02*
X88831009Y-45735952D01*
X88831009Y-45735952D02*
X88926247Y-45688333D01*
X88926247Y-45688333D02*
X89164342Y-45688333D01*
X89164342Y-45688333D02*
X89259580Y-45735952D01*
X89259580Y-45735952D02*
X89307200Y-45783571D01*
X89307200Y-45783571D02*
X89354819Y-45878809D01*
X89354819Y-45878809D02*
X89354819Y-46164523D01*
X89354819Y-46164523D02*
X89307200Y-46259761D01*
X89307200Y-46259761D02*
X89259580Y-46307380D01*
X96353333Y-47444819D02*
X96020000Y-46968628D01*
X95781905Y-47444819D02*
X95781905Y-46444819D01*
X95781905Y-46444819D02*
X96162857Y-46444819D01*
X96162857Y-46444819D02*
X96258095Y-46492438D01*
X96258095Y-46492438D02*
X96305714Y-46540057D01*
X96305714Y-46540057D02*
X96353333Y-46635295D01*
X96353333Y-46635295D02*
X96353333Y-46778152D01*
X96353333Y-46778152D02*
X96305714Y-46873390D01*
X96305714Y-46873390D02*
X96258095Y-46921009D01*
X96258095Y-46921009D02*
X96162857Y-46968628D01*
X96162857Y-46968628D02*
X95781905Y-46968628D01*
X97210476Y-46778152D02*
X97210476Y-47444819D01*
X96972381Y-46397200D02*
X96734286Y-47111485D01*
X96734286Y-47111485D02*
X97353333Y-47111485D01*
X96353333Y-58779580D02*
X96305714Y-58827200D01*
X96305714Y-58827200D02*
X96162857Y-58874819D01*
X96162857Y-58874819D02*
X96067619Y-58874819D01*
X96067619Y-58874819D02*
X95924762Y-58827200D01*
X95924762Y-58827200D02*
X95829524Y-58731961D01*
X95829524Y-58731961D02*
X95781905Y-58636723D01*
X95781905Y-58636723D02*
X95734286Y-58446247D01*
X95734286Y-58446247D02*
X95734286Y-58303390D01*
X95734286Y-58303390D02*
X95781905Y-58112914D01*
X95781905Y-58112914D02*
X95829524Y-58017676D01*
X95829524Y-58017676D02*
X95924762Y-57922438D01*
X95924762Y-57922438D02*
X96067619Y-57874819D01*
X96067619Y-57874819D02*
X96162857Y-57874819D01*
X96162857Y-57874819D02*
X96305714Y-57922438D01*
X96305714Y-57922438D02*
X96353333Y-57970057D01*
X96924762Y-58303390D02*
X96829524Y-58255771D01*
X96829524Y-58255771D02*
X96781905Y-58208152D01*
X96781905Y-58208152D02*
X96734286Y-58112914D01*
X96734286Y-58112914D02*
X96734286Y-58065295D01*
X96734286Y-58065295D02*
X96781905Y-57970057D01*
X96781905Y-57970057D02*
X96829524Y-57922438D01*
X96829524Y-57922438D02*
X96924762Y-57874819D01*
X96924762Y-57874819D02*
X97115238Y-57874819D01*
X97115238Y-57874819D02*
X97210476Y-57922438D01*
X97210476Y-57922438D02*
X97258095Y-57970057D01*
X97258095Y-57970057D02*
X97305714Y-58065295D01*
X97305714Y-58065295D02*
X97305714Y-58112914D01*
X97305714Y-58112914D02*
X97258095Y-58208152D01*
X97258095Y-58208152D02*
X97210476Y-58255771D01*
X97210476Y-58255771D02*
X97115238Y-58303390D01*
X97115238Y-58303390D02*
X96924762Y-58303390D01*
X96924762Y-58303390D02*
X96829524Y-58351009D01*
X96829524Y-58351009D02*
X96781905Y-58398628D01*
X96781905Y-58398628D02*
X96734286Y-58493866D01*
X96734286Y-58493866D02*
X96734286Y-58684342D01*
X96734286Y-58684342D02*
X96781905Y-58779580D01*
X96781905Y-58779580D02*
X96829524Y-58827200D01*
X96829524Y-58827200D02*
X96924762Y-58874819D01*
X96924762Y-58874819D02*
X97115238Y-58874819D01*
X97115238Y-58874819D02*
X97210476Y-58827200D01*
X97210476Y-58827200D02*
X97258095Y-58779580D01*
X97258095Y-58779580D02*
X97305714Y-58684342D01*
X97305714Y-58684342D02*
X97305714Y-58493866D01*
X97305714Y-58493866D02*
X97258095Y-58398628D01*
X97258095Y-58398628D02*
X97210476Y-58351009D01*
X97210476Y-58351009D02*
X97115238Y-58303390D01*
X88354819Y-68278333D02*
X89069104Y-68278333D01*
X89069104Y-68278333D02*
X89211961Y-68325952D01*
X89211961Y-68325952D02*
X89307200Y-68421190D01*
X89307200Y-68421190D02*
X89354819Y-68564047D01*
X89354819Y-68564047D02*
X89354819Y-68659285D01*
X89354819Y-67278333D02*
X89354819Y-67849761D01*
X89354819Y-67564047D02*
X88354819Y-67564047D01*
X88354819Y-67564047D02*
X88497676Y-67659285D01*
X88497676Y-67659285D02*
X88592914Y-67754523D01*
X88592914Y-67754523D02*
X88640533Y-67849761D01*
X137668095Y-38189819D02*
X137668095Y-38999342D01*
X137668095Y-38999342D02*
X137715714Y-39094580D01*
X137715714Y-39094580D02*
X137763333Y-39142200D01*
X137763333Y-39142200D02*
X137858571Y-39189819D01*
X137858571Y-39189819D02*
X138049047Y-39189819D01*
X138049047Y-39189819D02*
X138144285Y-39142200D01*
X138144285Y-39142200D02*
X138191904Y-39094580D01*
X138191904Y-39094580D02*
X138239523Y-38999342D01*
X138239523Y-38999342D02*
X138239523Y-38189819D01*
X139191904Y-38189819D02*
X138715714Y-38189819D01*
X138715714Y-38189819D02*
X138668095Y-38666009D01*
X138668095Y-38666009D02*
X138715714Y-38618390D01*
X138715714Y-38618390D02*
X138810952Y-38570771D01*
X138810952Y-38570771D02*
X139049047Y-38570771D01*
X139049047Y-38570771D02*
X139144285Y-38618390D01*
X139144285Y-38618390D02*
X139191904Y-38666009D01*
X139191904Y-38666009D02*
X139239523Y-38761247D01*
X139239523Y-38761247D02*
X139239523Y-38999342D01*
X139239523Y-38999342D02*
X139191904Y-39094580D01*
X139191904Y-39094580D02*
X139144285Y-39142200D01*
X139144285Y-39142200D02*
X139049047Y-39189819D01*
X139049047Y-39189819D02*
X138810952Y-39189819D01*
X138810952Y-39189819D02*
X138715714Y-39142200D01*
X138715714Y-39142200D02*
X138668095Y-39094580D01*
X100163333Y-46079580D02*
X100115714Y-46127200D01*
X100115714Y-46127200D02*
X99972857Y-46174819D01*
X99972857Y-46174819D02*
X99877619Y-46174819D01*
X99877619Y-46174819D02*
X99734762Y-46127200D01*
X99734762Y-46127200D02*
X99639524Y-46031961D01*
X99639524Y-46031961D02*
X99591905Y-45936723D01*
X99591905Y-45936723D02*
X99544286Y-45746247D01*
X99544286Y-45746247D02*
X99544286Y-45603390D01*
X99544286Y-45603390D02*
X99591905Y-45412914D01*
X99591905Y-45412914D02*
X99639524Y-45317676D01*
X99639524Y-45317676D02*
X99734762Y-45222438D01*
X99734762Y-45222438D02*
X99877619Y-45174819D01*
X99877619Y-45174819D02*
X99972857Y-45174819D01*
X99972857Y-45174819D02*
X100115714Y-45222438D01*
X100115714Y-45222438D02*
X100163333Y-45270057D01*
X100544286Y-45270057D02*
X100591905Y-45222438D01*
X100591905Y-45222438D02*
X100687143Y-45174819D01*
X100687143Y-45174819D02*
X100925238Y-45174819D01*
X100925238Y-45174819D02*
X101020476Y-45222438D01*
X101020476Y-45222438D02*
X101068095Y-45270057D01*
X101068095Y-45270057D02*
X101115714Y-45365295D01*
X101115714Y-45365295D02*
X101115714Y-45460533D01*
X101115714Y-45460533D02*
X101068095Y-45603390D01*
X101068095Y-45603390D02*
X100496667Y-46174819D01*
X100496667Y-46174819D02*
X101115714Y-46174819D01*
X132279819Y-71281666D02*
X131803628Y-71614999D01*
X132279819Y-71853094D02*
X131279819Y-71853094D01*
X131279819Y-71853094D02*
X131279819Y-71472142D01*
X131279819Y-71472142D02*
X131327438Y-71376904D01*
X131327438Y-71376904D02*
X131375057Y-71329285D01*
X131375057Y-71329285D02*
X131470295Y-71281666D01*
X131470295Y-71281666D02*
X131613152Y-71281666D01*
X131613152Y-71281666D02*
X131708390Y-71329285D01*
X131708390Y-71329285D02*
X131756009Y-71376904D01*
X131756009Y-71376904D02*
X131803628Y-71472142D01*
X131803628Y-71472142D02*
X131803628Y-71853094D01*
X132279819Y-70329285D02*
X132279819Y-70900713D01*
X132279819Y-70614999D02*
X131279819Y-70614999D01*
X131279819Y-70614999D02*
X131422676Y-70710237D01*
X131422676Y-70710237D02*
X131517914Y-70805475D01*
X131517914Y-70805475D02*
X131565533Y-70900713D01*
X91067142Y-59254819D02*
X90733809Y-58778628D01*
X90495714Y-59254819D02*
X90495714Y-58254819D01*
X90495714Y-58254819D02*
X90876666Y-58254819D01*
X90876666Y-58254819D02*
X90971904Y-58302438D01*
X90971904Y-58302438D02*
X91019523Y-58350057D01*
X91019523Y-58350057D02*
X91067142Y-58445295D01*
X91067142Y-58445295D02*
X91067142Y-58588152D01*
X91067142Y-58588152D02*
X91019523Y-58683390D01*
X91019523Y-58683390D02*
X90971904Y-58731009D01*
X90971904Y-58731009D02*
X90876666Y-58778628D01*
X90876666Y-58778628D02*
X90495714Y-58778628D01*
X92019523Y-59254819D02*
X91448095Y-59254819D01*
X91733809Y-59254819D02*
X91733809Y-58254819D01*
X91733809Y-58254819D02*
X91638571Y-58397676D01*
X91638571Y-58397676D02*
X91543333Y-58492914D01*
X91543333Y-58492914D02*
X91448095Y-58540533D01*
X92352857Y-58254819D02*
X92971904Y-58254819D01*
X92971904Y-58254819D02*
X92638571Y-58635771D01*
X92638571Y-58635771D02*
X92781428Y-58635771D01*
X92781428Y-58635771D02*
X92876666Y-58683390D01*
X92876666Y-58683390D02*
X92924285Y-58731009D01*
X92924285Y-58731009D02*
X92971904Y-58826247D01*
X92971904Y-58826247D02*
X92971904Y-59064342D01*
X92971904Y-59064342D02*
X92924285Y-59159580D01*
X92924285Y-59159580D02*
X92876666Y-59207200D01*
X92876666Y-59207200D02*
X92781428Y-59254819D01*
X92781428Y-59254819D02*
X92495714Y-59254819D01*
X92495714Y-59254819D02*
X92400476Y-59207200D01*
X92400476Y-59207200D02*
X92352857Y-59159580D01*
X96120833Y-46079580D02*
X96073214Y-46127200D01*
X96073214Y-46127200D02*
X95930357Y-46174819D01*
X95930357Y-46174819D02*
X95835119Y-46174819D01*
X95835119Y-46174819D02*
X95692262Y-46127200D01*
X95692262Y-46127200D02*
X95597024Y-46031961D01*
X95597024Y-46031961D02*
X95549405Y-45936723D01*
X95549405Y-45936723D02*
X95501786Y-45746247D01*
X95501786Y-45746247D02*
X95501786Y-45603390D01*
X95501786Y-45603390D02*
X95549405Y-45412914D01*
X95549405Y-45412914D02*
X95597024Y-45317676D01*
X95597024Y-45317676D02*
X95692262Y-45222438D01*
X95692262Y-45222438D02*
X95835119Y-45174819D01*
X95835119Y-45174819D02*
X95930357Y-45174819D01*
X95930357Y-45174819D02*
X96073214Y-45222438D01*
X96073214Y-45222438D02*
X96120833Y-45270057D01*
X96454167Y-45174819D02*
X97120833Y-45174819D01*
X97120833Y-45174819D02*
X96692262Y-46174819D01*
X113596009Y-41608333D02*
X113596009Y-41941666D01*
X114119819Y-41941666D02*
X113119819Y-41941666D01*
X113119819Y-41941666D02*
X113119819Y-41465476D01*
X114119819Y-40560714D02*
X114119819Y-41132142D01*
X114119819Y-40846428D02*
X113119819Y-40846428D01*
X113119819Y-40846428D02*
X113262676Y-40941666D01*
X113262676Y-40941666D02*
X113357914Y-41036904D01*
X113357914Y-41036904D02*
X113405533Y-41132142D01*
X102743095Y-35014819D02*
X102743095Y-35824342D01*
X102743095Y-35824342D02*
X102790714Y-35919580D01*
X102790714Y-35919580D02*
X102838333Y-35967200D01*
X102838333Y-35967200D02*
X102933571Y-36014819D01*
X102933571Y-36014819D02*
X103124047Y-36014819D01*
X103124047Y-36014819D02*
X103219285Y-35967200D01*
X103219285Y-35967200D02*
X103266904Y-35919580D01*
X103266904Y-35919580D02*
X103314523Y-35824342D01*
X103314523Y-35824342D02*
X103314523Y-35014819D01*
X104314523Y-36014819D02*
X103743095Y-36014819D01*
X104028809Y-36014819D02*
X104028809Y-35014819D01*
X104028809Y-35014819D02*
X103933571Y-35157676D01*
X103933571Y-35157676D02*
X103838333Y-35252914D01*
X103838333Y-35252914D02*
X103743095Y-35300533D01*
X117576667Y-70892200D02*
X117719524Y-70939819D01*
X117719524Y-70939819D02*
X117957619Y-70939819D01*
X117957619Y-70939819D02*
X118052857Y-70892200D01*
X118052857Y-70892200D02*
X118100476Y-70844580D01*
X118100476Y-70844580D02*
X118148095Y-70749342D01*
X118148095Y-70749342D02*
X118148095Y-70654104D01*
X118148095Y-70654104D02*
X118100476Y-70558866D01*
X118100476Y-70558866D02*
X118052857Y-70511247D01*
X118052857Y-70511247D02*
X117957619Y-70463628D01*
X117957619Y-70463628D02*
X117767143Y-70416009D01*
X117767143Y-70416009D02*
X117671905Y-70368390D01*
X117671905Y-70368390D02*
X117624286Y-70320771D01*
X117624286Y-70320771D02*
X117576667Y-70225533D01*
X117576667Y-70225533D02*
X117576667Y-70130295D01*
X117576667Y-70130295D02*
X117624286Y-70035057D01*
X117624286Y-70035057D02*
X117671905Y-69987438D01*
X117671905Y-69987438D02*
X117767143Y-69939819D01*
X117767143Y-69939819D02*
X118005238Y-69939819D01*
X118005238Y-69939819D02*
X118148095Y-69987438D01*
X118481429Y-69939819D02*
X118719524Y-70939819D01*
X118719524Y-70939819D02*
X118910000Y-70225533D01*
X118910000Y-70225533D02*
X119100476Y-70939819D01*
X119100476Y-70939819D02*
X119338572Y-69939819D01*
X120243333Y-70939819D02*
X119671905Y-70939819D01*
X119957619Y-70939819D02*
X119957619Y-69939819D01*
X119957619Y-69939819D02*
X119862381Y-70082676D01*
X119862381Y-70082676D02*
X119767143Y-70177914D01*
X119767143Y-70177914D02*
X119671905Y-70225533D01*
X94514819Y-35791666D02*
X94038628Y-36124999D01*
X94514819Y-36363094D02*
X93514819Y-36363094D01*
X93514819Y-36363094D02*
X93514819Y-35982142D01*
X93514819Y-35982142D02*
X93562438Y-35886904D01*
X93562438Y-35886904D02*
X93610057Y-35839285D01*
X93610057Y-35839285D02*
X93705295Y-35791666D01*
X93705295Y-35791666D02*
X93848152Y-35791666D01*
X93848152Y-35791666D02*
X93943390Y-35839285D01*
X93943390Y-35839285D02*
X93991009Y-35886904D01*
X93991009Y-35886904D02*
X94038628Y-35982142D01*
X94038628Y-35982142D02*
X94038628Y-36363094D01*
X93514819Y-34934523D02*
X93514819Y-35124999D01*
X93514819Y-35124999D02*
X93562438Y-35220237D01*
X93562438Y-35220237D02*
X93610057Y-35267856D01*
X93610057Y-35267856D02*
X93752914Y-35363094D01*
X93752914Y-35363094D02*
X93943390Y-35410713D01*
X93943390Y-35410713D02*
X94324342Y-35410713D01*
X94324342Y-35410713D02*
X94419580Y-35363094D01*
X94419580Y-35363094D02*
X94467200Y-35315475D01*
X94467200Y-35315475D02*
X94514819Y-35220237D01*
X94514819Y-35220237D02*
X94514819Y-35029761D01*
X94514819Y-35029761D02*
X94467200Y-34934523D01*
X94467200Y-34934523D02*
X94419580Y-34886904D01*
X94419580Y-34886904D02*
X94324342Y-34839285D01*
X94324342Y-34839285D02*
X94086247Y-34839285D01*
X94086247Y-34839285D02*
X93991009Y-34886904D01*
X93991009Y-34886904D02*
X93943390Y-34934523D01*
X93943390Y-34934523D02*
X93895771Y-35029761D01*
X93895771Y-35029761D02*
X93895771Y-35220237D01*
X93895771Y-35220237D02*
X93943390Y-35315475D01*
X93943390Y-35315475D02*
X93991009Y-35363094D01*
X93991009Y-35363094D02*
X94086247Y-35410713D01*
X102613095Y-60414819D02*
X102613095Y-61224342D01*
X102613095Y-61224342D02*
X102660714Y-61319580D01*
X102660714Y-61319580D02*
X102708333Y-61367200D01*
X102708333Y-61367200D02*
X102803571Y-61414819D01*
X102803571Y-61414819D02*
X102994047Y-61414819D01*
X102994047Y-61414819D02*
X103089285Y-61367200D01*
X103089285Y-61367200D02*
X103136904Y-61319580D01*
X103136904Y-61319580D02*
X103184523Y-61224342D01*
X103184523Y-61224342D02*
X103184523Y-60414819D01*
X103565476Y-60414819D02*
X104184523Y-60414819D01*
X104184523Y-60414819D02*
X103851190Y-60795771D01*
X103851190Y-60795771D02*
X103994047Y-60795771D01*
X103994047Y-60795771D02*
X104089285Y-60843390D01*
X104089285Y-60843390D02*
X104136904Y-60891009D01*
X104136904Y-60891009D02*
X104184523Y-60986247D01*
X104184523Y-60986247D02*
X104184523Y-61224342D01*
X104184523Y-61224342D02*
X104136904Y-61319580D01*
X104136904Y-61319580D02*
X104089285Y-61367200D01*
X104089285Y-61367200D02*
X103994047Y-61414819D01*
X103994047Y-61414819D02*
X103708333Y-61414819D01*
X103708333Y-61414819D02*
X103613095Y-61367200D01*
X103613095Y-61367200D02*
X103565476Y-61319580D01*
X99836905Y-60144819D02*
X99836905Y-59144819D01*
X99836905Y-59144819D02*
X100075000Y-59144819D01*
X100075000Y-59144819D02*
X100217857Y-59192438D01*
X100217857Y-59192438D02*
X100313095Y-59287676D01*
X100313095Y-59287676D02*
X100360714Y-59382914D01*
X100360714Y-59382914D02*
X100408333Y-59573390D01*
X100408333Y-59573390D02*
X100408333Y-59716247D01*
X100408333Y-59716247D02*
X100360714Y-59906723D01*
X100360714Y-59906723D02*
X100313095Y-60001961D01*
X100313095Y-60001961D02*
X100217857Y-60097200D01*
X100217857Y-60097200D02*
X100075000Y-60144819D01*
X100075000Y-60144819D02*
X99836905Y-60144819D01*
X100789286Y-59240057D02*
X100836905Y-59192438D01*
X100836905Y-59192438D02*
X100932143Y-59144819D01*
X100932143Y-59144819D02*
X101170238Y-59144819D01*
X101170238Y-59144819D02*
X101265476Y-59192438D01*
X101265476Y-59192438D02*
X101313095Y-59240057D01*
X101313095Y-59240057D02*
X101360714Y-59335295D01*
X101360714Y-59335295D02*
X101360714Y-59430533D01*
X101360714Y-59430533D02*
X101313095Y-59573390D01*
X101313095Y-59573390D02*
X100741667Y-60144819D01*
X100741667Y-60144819D02*
X101360714Y-60144819D01*
X100163333Y-58779580D02*
X100115714Y-58827200D01*
X100115714Y-58827200D02*
X99972857Y-58874819D01*
X99972857Y-58874819D02*
X99877619Y-58874819D01*
X99877619Y-58874819D02*
X99734762Y-58827200D01*
X99734762Y-58827200D02*
X99639524Y-58731961D01*
X99639524Y-58731961D02*
X99591905Y-58636723D01*
X99591905Y-58636723D02*
X99544286Y-58446247D01*
X99544286Y-58446247D02*
X99544286Y-58303390D01*
X99544286Y-58303390D02*
X99591905Y-58112914D01*
X99591905Y-58112914D02*
X99639524Y-58017676D01*
X99639524Y-58017676D02*
X99734762Y-57922438D01*
X99734762Y-57922438D02*
X99877619Y-57874819D01*
X99877619Y-57874819D02*
X99972857Y-57874819D01*
X99972857Y-57874819D02*
X100115714Y-57922438D01*
X100115714Y-57922438D02*
X100163333Y-57970057D01*
X101020476Y-58208152D02*
X101020476Y-58874819D01*
X100782381Y-57827200D02*
X100544286Y-58541485D01*
X100544286Y-58541485D02*
X101163333Y-58541485D01*
X99591905Y-47444819D02*
X99591905Y-46444819D01*
X99591905Y-46444819D02*
X99830000Y-46444819D01*
X99830000Y-46444819D02*
X99972857Y-46492438D01*
X99972857Y-46492438D02*
X100068095Y-46587676D01*
X100068095Y-46587676D02*
X100115714Y-46682914D01*
X100115714Y-46682914D02*
X100163333Y-46873390D01*
X100163333Y-46873390D02*
X100163333Y-47016247D01*
X100163333Y-47016247D02*
X100115714Y-47206723D01*
X100115714Y-47206723D02*
X100068095Y-47301961D01*
X100068095Y-47301961D02*
X99972857Y-47397200D01*
X99972857Y-47397200D02*
X99830000Y-47444819D01*
X99830000Y-47444819D02*
X99591905Y-47444819D01*
X101115714Y-47444819D02*
X100544286Y-47444819D01*
X100830000Y-47444819D02*
X100830000Y-46444819D01*
X100830000Y-46444819D02*
X100734762Y-46587676D01*
X100734762Y-46587676D02*
X100639524Y-46682914D01*
X100639524Y-46682914D02*
X100544286Y-46730533D01*
X109688333Y-48619580D02*
X109640714Y-48667200D01*
X109640714Y-48667200D02*
X109497857Y-48714819D01*
X109497857Y-48714819D02*
X109402619Y-48714819D01*
X109402619Y-48714819D02*
X109259762Y-48667200D01*
X109259762Y-48667200D02*
X109164524Y-48571961D01*
X109164524Y-48571961D02*
X109116905Y-48476723D01*
X109116905Y-48476723D02*
X109069286Y-48286247D01*
X109069286Y-48286247D02*
X109069286Y-48143390D01*
X109069286Y-48143390D02*
X109116905Y-47952914D01*
X109116905Y-47952914D02*
X109164524Y-47857676D01*
X109164524Y-47857676D02*
X109259762Y-47762438D01*
X109259762Y-47762438D02*
X109402619Y-47714819D01*
X109402619Y-47714819D02*
X109497857Y-47714819D01*
X109497857Y-47714819D02*
X109640714Y-47762438D01*
X109640714Y-47762438D02*
X109688333Y-47810057D01*
X110021667Y-47714819D02*
X110640714Y-47714819D01*
X110640714Y-47714819D02*
X110307381Y-48095771D01*
X110307381Y-48095771D02*
X110450238Y-48095771D01*
X110450238Y-48095771D02*
X110545476Y-48143390D01*
X110545476Y-48143390D02*
X110593095Y-48191009D01*
X110593095Y-48191009D02*
X110640714Y-48286247D01*
X110640714Y-48286247D02*
X110640714Y-48524342D01*
X110640714Y-48524342D02*
X110593095Y-48619580D01*
X110593095Y-48619580D02*
X110545476Y-48667200D01*
X110545476Y-48667200D02*
X110450238Y-48714819D01*
X110450238Y-48714819D02*
X110164524Y-48714819D01*
X110164524Y-48714819D02*
X110069286Y-48667200D01*
X110069286Y-48667200D02*
X110021667Y-48619580D01*
X90797142Y-71954819D02*
X90463809Y-71478628D01*
X90225714Y-71954819D02*
X90225714Y-70954819D01*
X90225714Y-70954819D02*
X90606666Y-70954819D01*
X90606666Y-70954819D02*
X90701904Y-71002438D01*
X90701904Y-71002438D02*
X90749523Y-71050057D01*
X90749523Y-71050057D02*
X90797142Y-71145295D01*
X90797142Y-71145295D02*
X90797142Y-71288152D01*
X90797142Y-71288152D02*
X90749523Y-71383390D01*
X90749523Y-71383390D02*
X90701904Y-71431009D01*
X90701904Y-71431009D02*
X90606666Y-71478628D01*
X90606666Y-71478628D02*
X90225714Y-71478628D01*
X91749523Y-71954819D02*
X91178095Y-71954819D01*
X91463809Y-71954819D02*
X91463809Y-70954819D01*
X91463809Y-70954819D02*
X91368571Y-71097676D01*
X91368571Y-71097676D02*
X91273333Y-71192914D01*
X91273333Y-71192914D02*
X91178095Y-71240533D01*
X92606666Y-71288152D02*
X92606666Y-71954819D01*
X92368571Y-70907200D02*
X92130476Y-71621485D01*
X92130476Y-71621485D02*
X92749523Y-71621485D01*
X113596009Y-67225833D02*
X113596009Y-67559166D01*
X114119819Y-67559166D02*
X113119819Y-67559166D01*
X113119819Y-67559166D02*
X113119819Y-67082976D01*
X113119819Y-66797261D02*
X113119819Y-66178214D01*
X113119819Y-66178214D02*
X113500771Y-66511547D01*
X113500771Y-66511547D02*
X113500771Y-66368690D01*
X113500771Y-66368690D02*
X113548390Y-66273452D01*
X113548390Y-66273452D02*
X113596009Y-66225833D01*
X113596009Y-66225833D02*
X113691247Y-66178214D01*
X113691247Y-66178214D02*
X113929342Y-66178214D01*
X113929342Y-66178214D02*
X114024580Y-66225833D01*
X114024580Y-66225833D02*
X114072200Y-66273452D01*
X114072200Y-66273452D02*
X114119819Y-66368690D01*
X114119819Y-66368690D02*
X114119819Y-66654404D01*
X114119819Y-66654404D02*
X114072200Y-66749642D01*
X114072200Y-66749642D02*
X114024580Y-66797261D01*
D14*
%TO.C,R10*%
X157437064Y-75665000D02*
X156982936Y-75665000D01*
X157437064Y-74195000D02*
X156982936Y-74195000D01*
%TO.C,C6*%
X100358752Y-67410000D02*
X99836248Y-67410000D01*
X100358752Y-65940000D02*
X99836248Y-65940000D01*
%TO.C,R5*%
X93150000Y-49322936D02*
X93150000Y-53677064D01*
X89730000Y-49322936D02*
X89730000Y-53677064D01*
%TO.C,J4*%
X85850000Y-35200000D02*
X83850000Y-35200000D01*
X81950000Y-35200000D02*
X80050000Y-35200000D01*
X80050000Y-35200000D02*
X80050000Y-44600000D01*
X85850000Y-44600000D02*
X83850000Y-44600000D01*
X81950000Y-44600000D02*
X80050000Y-44600000D01*
%TO.C,R16*%
X139562064Y-75665000D02*
X139107936Y-75665000D01*
X139562064Y-74195000D02*
X139107936Y-74195000D01*
%TO.C,C1*%
X104805000Y-46765000D02*
X104805000Y-45765000D01*
X104305000Y-46265000D02*
X105305000Y-46265000D01*
X104019437Y-45525000D02*
X105805000Y-45525000D01*
X104019437Y-45525000D02*
X102955000Y-44460563D01*
X110610563Y-45525000D02*
X108825000Y-45525000D01*
X110610563Y-45525000D02*
X111675000Y-44460563D01*
X102955000Y-44460563D02*
X102955000Y-36805000D01*
X111675000Y-44460563D02*
X111675000Y-36805000D01*
X102955000Y-36805000D02*
X105805000Y-36805000D01*
X111675000Y-36805000D02*
X108825000Y-36805000D01*
%TO.C,J2*%
X85850000Y-56900000D02*
X83850000Y-56900000D01*
X81950000Y-56900000D02*
X80050000Y-56900000D01*
X80050000Y-56900000D02*
X80050000Y-66300000D01*
X85850000Y-66300000D02*
X83850000Y-66300000D01*
X81950000Y-66300000D02*
X80050000Y-66300000D01*
%TO.C,R11*%
X96022936Y-68480000D02*
X96477064Y-68480000D01*
X96022936Y-69950000D02*
X96477064Y-69950000D01*
%TO.C,R3*%
X92847936Y-73560000D02*
X93302064Y-73560000D01*
X92847936Y-75030000D02*
X93302064Y-75030000D01*
%TO.C,U4*%
X134105000Y-59060000D02*
X134105000Y-56900000D01*
X134105000Y-56900000D02*
X134105000Y-36220000D01*
X134105000Y-36220000D02*
X129715000Y-36220000D01*
X131435000Y-56900000D02*
X134105000Y-56900000D01*
X131435000Y-54360000D02*
X131435000Y-56900000D01*
X131435000Y-54360000D02*
X131435000Y-36580000D01*
X131435000Y-36580000D02*
X134105000Y-36580000D01*
X129715000Y-42480000D02*
X120455000Y-42480000D01*
X129715000Y-34920000D02*
X129715000Y-42480000D01*
X120455000Y-42480000D02*
X120455000Y-34920000D01*
X120455000Y-34920000D02*
X129715000Y-34920000D01*
X118735000Y-56900000D02*
X118735000Y-39120000D01*
X118735000Y-56900000D02*
X116065000Y-56900000D01*
D10*
X118735000Y-39120000D02*
X116065000Y-39120000D01*
D14*
X118735000Y-39120000D02*
X116065000Y-39120000D01*
X116065000Y-59060000D02*
X134105000Y-59060000D01*
X116065000Y-36220000D02*
X120455000Y-36220000D01*
X116065000Y-36220000D02*
X116065000Y-59060000D01*
%TO.C,R9*%
X152992064Y-75665000D02*
X152537936Y-75665000D01*
X152992064Y-74195000D02*
X152537936Y-74195000D01*
%TO.C,C5*%
X104805000Y-72275000D02*
X104805000Y-71275000D01*
X104305000Y-71775000D02*
X105305000Y-71775000D01*
X104019437Y-71035000D02*
X105805000Y-71035000D01*
X104019437Y-71035000D02*
X102955000Y-69970563D01*
X110610563Y-71035000D02*
X108825000Y-71035000D01*
X110610563Y-71035000D02*
X111675000Y-69970563D01*
X102955000Y-69970563D02*
X102955000Y-62315000D01*
X111675000Y-69970563D02*
X111675000Y-62315000D01*
X102955000Y-62315000D02*
X105805000Y-62315000D01*
X111675000Y-62315000D02*
X108825000Y-62315000D01*
%TO.C,R8*%
X93150000Y-62122936D02*
X93150000Y-66477064D01*
X89730000Y-62122936D02*
X89730000Y-66477064D01*
%TO.C,R2*%
X92847936Y-76100000D02*
X93302064Y-76100000D01*
X92847936Y-77570000D02*
X93302064Y-77570000D01*
%TO.C,D3*%
X146485000Y-73970000D02*
X146485000Y-75890000D01*
X146485000Y-75890000D02*
X149345000Y-75890000D01*
X149345000Y-73970000D02*
X146485000Y-73970000D01*
%TO.C,R15*%
X143647936Y-74195000D02*
X144102064Y-74195000D01*
X143647936Y-75665000D02*
X144102064Y-75665000D01*
%TO.C,J5*%
X162640000Y-65660000D02*
X171860000Y-65660000D01*
X162640000Y-65660000D02*
X162640000Y-37140000D01*
X171860000Y-65660000D02*
X171860000Y-63860000D01*
X177760000Y-64100000D02*
X179500000Y-64100000D01*
X179500000Y-64100000D02*
X179500000Y-62600000D01*
X171860000Y-63860000D02*
X179260000Y-63860000D01*
X177700000Y-63860000D02*
X177700000Y-35040000D01*
X179260000Y-63860000D02*
X179260000Y-35040000D01*
X162640000Y-37140000D02*
X171740000Y-37140000D01*
X171740000Y-37140000D02*
X171740000Y-35040000D01*
X171740000Y-35040000D02*
X179260000Y-35040000D01*
X174992000Y-63132000D02*
G75*
G03*
X176207742Y-63132109I608000J1432000D01*
G01*
X174168000Y-61092000D02*
G75*
G03*
X174167891Y-62307742I1432000J-608000D01*
G01*
X177031999Y-62308000D02*
G75*
G03*
X177155492Y-61672989I-1431987J607998D01*
G01*
X177154999Y-61700000D02*
G75*
G03*
X177031384Y-61092413I-1554999J0D01*
G01*
X176208000Y-60268000D02*
G75*
G03*
X174992258Y-60267891I-607999J-1432003D01*
G01*
X177155000Y-58200000D02*
G75*
G03*
X174045000Y-58200000I-1555000J0D01*
G01*
X174045000Y-58200000D02*
G75*
G03*
X177155000Y-58200000I1555000J0D01*
G01*
X177155000Y-54700000D02*
G75*
G03*
X174045000Y-54700000I-1555000J0D01*
G01*
X174045000Y-54700000D02*
G75*
G03*
X177155000Y-54700000I1555000J0D01*
G01*
X177155000Y-51200000D02*
G75*
G03*
X174045000Y-51200000I-1555000J0D01*
G01*
X174045000Y-51200000D02*
G75*
G03*
X177155000Y-51200000I1555000J0D01*
G01*
X177155000Y-47700000D02*
G75*
G03*
X174045000Y-47700000I-1555000J0D01*
G01*
X174045000Y-47700000D02*
G75*
G03*
X177155000Y-47700000I1555000J0D01*
G01*
X177155000Y-44200000D02*
G75*
G03*
X174045000Y-44200000I-1555000J0D01*
G01*
X174045000Y-44200000D02*
G75*
G03*
X177155000Y-44200000I1555000J0D01*
G01*
X177155000Y-40700000D02*
G75*
G03*
X174045000Y-40700000I-1555000J0D01*
G01*
X174045000Y-40700000D02*
G75*
G03*
X177155000Y-40700000I1555000J0D01*
G01*
X177155000Y-37200000D02*
G75*
G03*
X174045000Y-37200000I-1555000J0D01*
G01*
X174045000Y-37200000D02*
G75*
G03*
X177155000Y-37200000I1555000J0D01*
G01*
%TO.C,U2*%
X98360000Y-52725000D02*
X100310000Y-52725000D01*
X98360000Y-52725000D02*
X96410000Y-52725000D01*
X98360000Y-47605000D02*
X100310000Y-47605000D01*
X98360000Y-47605000D02*
X96410000Y-47605000D01*
X101300000Y-52960000D02*
X100820000Y-52960000D01*
X101060000Y-52630000D01*
X101300000Y-52960000D01*
G36*
X101300000Y-52960000D02*
G01*
X100820000Y-52960000D01*
X101060000Y-52630000D01*
X101300000Y-52960000D01*
G37*
%TO.C,JP1*%
X161800000Y-36950000D02*
X161800000Y-37550000D01*
X161100000Y-38250000D02*
X159700000Y-38250000D01*
X159700000Y-36250000D02*
X161100000Y-36250000D01*
X159000000Y-37550000D02*
X159000000Y-36950000D01*
X161100000Y-38250000D02*
G75*
G03*
X161800000Y-37550000I1J699999D01*
G01*
X161800000Y-36950000D02*
G75*
G03*
X161100000Y-36250000I-699999J1D01*
G01*
X159000000Y-37550000D02*
G75*
G03*
X159700000Y-38250000I700000J0D01*
G01*
X159700000Y-36250000D02*
G75*
G03*
X159000000Y-36950000I0J-700000D01*
G01*
%TO.C,F2*%
X112755000Y-50984564D02*
X112755000Y-49780436D01*
X114575000Y-50984564D02*
X114575000Y-49780436D01*
%TO.C,R12*%
X92302064Y-45185000D02*
X91847936Y-45185000D01*
X92302064Y-43715000D02*
X91847936Y-43715000D01*
%TO.C,D4*%
X102190000Y-70175000D02*
X102190000Y-68255000D01*
X102190000Y-68255000D02*
X99330000Y-68255000D01*
X99330000Y-70175000D02*
X102190000Y-70175000D01*
%TO.C,R7*%
X96022936Y-55780000D02*
X96477064Y-55780000D01*
X96022936Y-57250000D02*
X96477064Y-57250000D01*
%TO.C,C9*%
X95856248Y-65940000D02*
X96378752Y-65940000D01*
X95856248Y-67410000D02*
X96378752Y-67410000D01*
%TO.C,J3*%
X85850000Y-46050000D02*
X83850000Y-46050000D01*
X81950000Y-46050000D02*
X80050000Y-46050000D01*
X80050000Y-46050000D02*
X80050000Y-55450000D01*
X85850000Y-55450000D02*
X83850000Y-55450000D01*
X81950000Y-55450000D02*
X80050000Y-55450000D01*
%TO.C,R4*%
X96292936Y-43080000D02*
X96747064Y-43080000D01*
X96292936Y-44550000D02*
X96747064Y-44550000D01*
%TO.C,C8*%
X96258748Y-53240000D02*
X96781252Y-53240000D01*
X96258748Y-54710000D02*
X96781252Y-54710000D01*
%TO.C,J1*%
X85850000Y-67800000D02*
X83850000Y-67800000D01*
X81950000Y-67800000D02*
X80050000Y-67800000D01*
X80050000Y-67800000D02*
X80050000Y-77200000D01*
X85850000Y-77200000D02*
X83850000Y-77200000D01*
X81950000Y-77200000D02*
X80050000Y-77200000D01*
%TO.C,U5*%
X135455000Y-39741500D02*
X135455000Y-67001500D01*
X135455000Y-44541500D02*
X160455000Y-44541500D01*
X135455000Y-61401500D02*
X160455000Y-61401500D01*
X135455000Y-67001500D02*
X160455000Y-67001500D01*
X160455000Y-39741500D02*
X135455000Y-39741500D01*
X160455000Y-39741500D02*
X160455000Y-67001500D01*
D10*
X138955000Y-41871500D02*
G75*
G03*
X135955000Y-41871500I-1500000J0D01*
G01*
X135955000Y-41871500D02*
G75*
G03*
X138955000Y-41871500I1500000J0D01*
G01*
X138955000Y-64871500D02*
G75*
G03*
X135955000Y-64871500I-1500000J0D01*
G01*
X135955000Y-64871500D02*
G75*
G03*
X138955000Y-64871500I1500000J0D01*
G01*
X159955000Y-41871500D02*
G75*
G03*
X156955000Y-41871500I-1500000J0D01*
G01*
X156955000Y-41871500D02*
G75*
G03*
X159955000Y-41871500I1500000J0D01*
G01*
X159955000Y-64871500D02*
G75*
G03*
X156955000Y-64871500I-1500000J0D01*
G01*
X156955000Y-64871500D02*
G75*
G03*
X159955000Y-64871500I1500000J0D01*
G01*
D14*
%TO.C,C2*%
X100358752Y-42010000D02*
X99836248Y-42010000D01*
X100358752Y-40540000D02*
X99836248Y-40540000D01*
%TO.C,R1*%
X134720000Y-70527936D02*
X134720000Y-70982064D01*
X133250000Y-70527936D02*
X133250000Y-70982064D01*
%TO.C,R13*%
X91937064Y-57885000D02*
X91482936Y-57885000D01*
X91937064Y-56415000D02*
X91482936Y-56415000D01*
%TO.C,C7*%
X96026248Y-40540000D02*
X96548752Y-40540000D01*
X96026248Y-42010000D02*
X96548752Y-42010000D01*
%TO.C,F1*%
X112755000Y-38284564D02*
X112755000Y-37080436D01*
X114575000Y-38284564D02*
X114575000Y-37080436D01*
%TO.C,U1*%
X98425000Y-40025000D02*
X100375000Y-40025000D01*
X98425000Y-40025000D02*
X96475000Y-40025000D01*
X98425000Y-34905000D02*
X100375000Y-34905000D01*
X98425000Y-34905000D02*
X96475000Y-34905000D01*
X101365000Y-40260000D02*
X100885000Y-40260000D01*
X101125000Y-39930000D01*
X101365000Y-40260000D01*
G36*
X101365000Y-40260000D02*
G01*
X100885000Y-40260000D01*
X101125000Y-39930000D01*
X101365000Y-40260000D01*
G37*
%TO.C,SW1*%
X122500000Y-67600000D02*
X128960000Y-67600000D01*
X122500000Y-67630000D02*
X122500000Y-67600000D01*
X122500000Y-69530000D02*
X122500000Y-72130000D01*
X122500000Y-74060000D02*
X122500000Y-74030000D01*
X122500000Y-74060000D02*
X128960000Y-74060000D01*
X128960000Y-67600000D02*
X128960000Y-67630000D01*
X128960000Y-69530000D02*
X128960000Y-72130000D01*
X128960000Y-74060000D02*
X128960000Y-74030000D01*
%TO.C,R6*%
X93150000Y-36622936D02*
X93150000Y-40977064D01*
X89730000Y-36622936D02*
X89730000Y-40977064D01*
%TO.C,U3*%
X98360000Y-65425000D02*
X100310000Y-65425000D01*
X98360000Y-65425000D02*
X96410000Y-65425000D01*
X98360000Y-60305000D02*
X100310000Y-60305000D01*
X98360000Y-60305000D02*
X96410000Y-60305000D01*
X101300000Y-65660000D02*
X100820000Y-65660000D01*
X101060000Y-65330000D01*
X101300000Y-65660000D01*
G36*
X101300000Y-65660000D02*
G01*
X100820000Y-65660000D01*
X101060000Y-65330000D01*
X101300000Y-65660000D01*
G37*
%TO.C,D2*%
X102435000Y-57475000D02*
X102435000Y-55555000D01*
X102435000Y-55555000D02*
X99575000Y-55555000D01*
X99575000Y-57475000D02*
X102435000Y-57475000D01*
%TO.C,C4*%
X100823752Y-54710000D02*
X100301248Y-54710000D01*
X100823752Y-53240000D02*
X100301248Y-53240000D01*
%TO.C,D1*%
X102190000Y-44775000D02*
X102190000Y-42855000D01*
X102190000Y-42855000D02*
X99330000Y-42855000D01*
X99330000Y-44775000D02*
X102190000Y-44775000D01*
%TO.C,C3*%
X104805000Y-59465000D02*
X104805000Y-58465000D01*
X104305000Y-58965000D02*
X105305000Y-58965000D01*
X104019437Y-58225000D02*
X105805000Y-58225000D01*
X104019437Y-58225000D02*
X102955000Y-57160563D01*
X110610563Y-58225000D02*
X108825000Y-58225000D01*
X110610563Y-58225000D02*
X111675000Y-57160563D01*
X102955000Y-57160563D02*
X102955000Y-49505000D01*
X111675000Y-57160563D02*
X111675000Y-49505000D01*
X102955000Y-49505000D02*
X105805000Y-49505000D01*
X111675000Y-49505000D02*
X108825000Y-49505000D01*
%TO.C,R14*%
X91667064Y-70585000D02*
X91212936Y-70585000D01*
X91667064Y-69115000D02*
X91212936Y-69115000D01*
%TO.C,F3*%
X112755000Y-63684564D02*
X112755000Y-62480436D01*
X114575000Y-63684564D02*
X114575000Y-62480436D01*
%TD*%
D15*
X79760000Y-34500000D02*
X179760000Y-34500000D01*
X179760000Y-84500000D01*
X79760000Y-84500000D01*
X79760000Y-34500000D01*
M02*
