M48
; DRILL file {KiCad 7.0.11+dfsg-1build4} date jue 14 may 2026 22:12:30
; FORMAT={-:-/ absolute / metric / decimal}
; #@! TF.CreationDate,2026-05-14T22:12:30-05:00
; #@! TF.GenerationSoftware,Kicad,Pcbnew,7.0.11+dfsg-1build4
; #@! TF.FileFunction,Plated,1,2,PTH
FMAT,2
METRIC
; #@! TA.AperFunction,Plated,PTH,ViaDrill
T1C0.300
; #@! TA.AperFunction,Plated,PTH,ComponentDrill
T2C0.400
; #@! TA.AperFunction,Plated,PTH,ComponentDrill
T3C1.150
%
G90
G05
T1
X100.965Y-100.965
X104.775Y-107.315
X105.8Y-104.2
X106.68Y-100.965
X110.49Y-107.315
T2
X101.1Y-106.3
X102.15Y-105.25
X102.15Y-107.35
X102.6Y-102.1
X103.2Y-106.3
X103.65Y-101.05
X103.65Y-103.15
X104.7Y-102.1
X106.9Y-106.3
X107.95Y-105.25
X107.95Y-107.35
X108.4Y-102.1
X109.0Y-106.3
X109.45Y-101.05
X109.45Y-103.15
X110.5Y-102.1
T3
X102.15Y-106.3
X103.65Y-102.1
X107.95Y-106.3
X109.45Y-102.1
M30
