%TF.GenerationSoftware,KiCad,Pcbnew,7.0.11+dfsg-1build4*%
%TF.CreationDate,2026-05-13T16:22:14-05:00*%
%TF.ProjectId,,58585858-5858-4585-9858-585858585858,rev?*%
%TF.SameCoordinates,Original*%
%TF.FileFunction,Legend,Bot*%
%TF.FilePolarity,Positive*%
%FSLAX46Y46*%
G04 Gerber Fmt 4.6, Leading zero omitted, Abs format (unit mm)*
G04 Created by KiCad (PCBNEW 7.0.11+dfsg-1build4) date 2026-05-13 16:22:14*
%MOMM*%
%LPD*%
G01*
G04 APERTURE LIST*
%ADD10C,0.150000*%
G04 APERTURE END LIST*
D10*
X151348220Y-106384819D02*
X151348220Y-105384819D01*
X151348220Y-105384819D02*
X151110125Y-105384819D01*
X151110125Y-105384819D02*
X150967268Y-105432438D01*
X150967268Y-105432438D02*
X150872030Y-105527676D01*
X150872030Y-105527676D02*
X150824411Y-105622914D01*
X150824411Y-105622914D02*
X150776792Y-105813390D01*
X150776792Y-105813390D02*
X150776792Y-105956247D01*
X150776792Y-105956247D02*
X150824411Y-106146723D01*
X150824411Y-106146723D02*
X150872030Y-106241961D01*
X150872030Y-106241961D02*
X150967268Y-106337200D01*
X150967268Y-106337200D02*
X151110125Y-106384819D01*
X151110125Y-106384819D02*
X151348220Y-106384819D01*
X150157744Y-105384819D02*
X150062506Y-105384819D01*
X150062506Y-105384819D02*
X149967268Y-105432438D01*
X149967268Y-105432438D02*
X149919649Y-105480057D01*
X149919649Y-105480057D02*
X149872030Y-105575295D01*
X149872030Y-105575295D02*
X149824411Y-105765771D01*
X149824411Y-105765771D02*
X149824411Y-106003866D01*
X149824411Y-106003866D02*
X149872030Y-106194342D01*
X149872030Y-106194342D02*
X149919649Y-106289580D01*
X149919649Y-106289580D02*
X149967268Y-106337200D01*
X149967268Y-106337200D02*
X150062506Y-106384819D01*
X150062506Y-106384819D02*
X150157744Y-106384819D01*
X150157744Y-106384819D02*
X150252982Y-106337200D01*
X150252982Y-106337200D02*
X150300601Y-106289580D01*
X150300601Y-106289580D02*
X150348220Y-106194342D01*
X150348220Y-106194342D02*
X150395839Y-106003866D01*
X150395839Y-106003866D02*
X150395839Y-105765771D01*
X150395839Y-105765771D02*
X150348220Y-105575295D01*
X150348220Y-105575295D02*
X150300601Y-105480057D01*
X150300601Y-105480057D02*
X150252982Y-105432438D01*
X150252982Y-105432438D02*
X150157744Y-105384819D01*
X148872030Y-106384819D02*
X149443458Y-106384819D01*
X149157744Y-106384819D02*
X149157744Y-105384819D01*
X149157744Y-105384819D02*
X149252982Y-105527676D01*
X149252982Y-105527676D02*
X149348220Y-105622914D01*
X149348220Y-105622914D02*
X149443458Y-105670533D01*
X148681554Y-106480057D02*
X147919649Y-106480057D01*
X147681553Y-106384819D02*
X147681553Y-105384819D01*
X147252982Y-106384819D02*
X147252982Y-105861009D01*
X147252982Y-105861009D02*
X147300601Y-105765771D01*
X147300601Y-105765771D02*
X147395839Y-105718152D01*
X147395839Y-105718152D02*
X147538696Y-105718152D01*
X147538696Y-105718152D02*
X147633934Y-105765771D01*
X147633934Y-105765771D02*
X147681553Y-105813390D01*
X146776791Y-106384819D02*
X146776791Y-105718152D01*
X146776791Y-105384819D02*
X146824410Y-105432438D01*
X146824410Y-105432438D02*
X146776791Y-105480057D01*
X146776791Y-105480057D02*
X146729172Y-105432438D01*
X146729172Y-105432438D02*
X146776791Y-105384819D01*
X146776791Y-105384819D02*
X146776791Y-105480057D01*
X146157744Y-106384819D02*
X146252982Y-106337200D01*
X146252982Y-106337200D02*
X146300601Y-106241961D01*
X146300601Y-106241961D02*
X146300601Y-105384819D01*
X146014887Y-106480057D02*
X145252982Y-106480057D01*
X145157743Y-105718152D02*
X144776791Y-105718152D01*
X145014886Y-106384819D02*
X145014886Y-105527676D01*
X145014886Y-105527676D02*
X144967267Y-105432438D01*
X144967267Y-105432438D02*
X144872029Y-105384819D01*
X144872029Y-105384819D02*
X144776791Y-105384819D01*
X144014886Y-106384819D02*
X144014886Y-105861009D01*
X144014886Y-105861009D02*
X144062505Y-105765771D01*
X144062505Y-105765771D02*
X144157743Y-105718152D01*
X144157743Y-105718152D02*
X144348219Y-105718152D01*
X144348219Y-105718152D02*
X144443457Y-105765771D01*
X144014886Y-106337200D02*
X144110124Y-106384819D01*
X144110124Y-106384819D02*
X144348219Y-106384819D01*
X144348219Y-106384819D02*
X144443457Y-106337200D01*
X144443457Y-106337200D02*
X144491076Y-106241961D01*
X144491076Y-106241961D02*
X144491076Y-106146723D01*
X144491076Y-106146723D02*
X144443457Y-106051485D01*
X144443457Y-106051485D02*
X144348219Y-106003866D01*
X144348219Y-106003866D02*
X144110124Y-106003866D01*
X144110124Y-106003866D02*
X144014886Y-105956247D01*
X143110124Y-106337200D02*
X143205362Y-106384819D01*
X143205362Y-106384819D02*
X143395838Y-106384819D01*
X143395838Y-106384819D02*
X143491076Y-106337200D01*
X143491076Y-106337200D02*
X143538695Y-106289580D01*
X143538695Y-106289580D02*
X143586314Y-106194342D01*
X143586314Y-106194342D02*
X143586314Y-105908628D01*
X143586314Y-105908628D02*
X143538695Y-105813390D01*
X143538695Y-105813390D02*
X143491076Y-105765771D01*
X143491076Y-105765771D02*
X143395838Y-105718152D01*
X143395838Y-105718152D02*
X143205362Y-105718152D01*
X143205362Y-105718152D02*
X143110124Y-105765771D01*
X142300600Y-106337200D02*
X142395838Y-106384819D01*
X142395838Y-106384819D02*
X142586314Y-106384819D01*
X142586314Y-106384819D02*
X142681552Y-106337200D01*
X142681552Y-106337200D02*
X142729171Y-106241961D01*
X142729171Y-106241961D02*
X142729171Y-105861009D01*
X142729171Y-105861009D02*
X142681552Y-105765771D01*
X142681552Y-105765771D02*
X142586314Y-105718152D01*
X142586314Y-105718152D02*
X142395838Y-105718152D01*
X142395838Y-105718152D02*
X142300600Y-105765771D01*
X142300600Y-105765771D02*
X142252981Y-105861009D01*
X142252981Y-105861009D02*
X142252981Y-105956247D01*
X142252981Y-105956247D02*
X142729171Y-106051485D01*
X141824409Y-105718152D02*
X141824409Y-106718152D01*
X141824409Y-105765771D02*
X141729171Y-105718152D01*
X141729171Y-105718152D02*
X141538695Y-105718152D01*
X141538695Y-105718152D02*
X141443457Y-105765771D01*
X141443457Y-105765771D02*
X141395838Y-105813390D01*
X141395838Y-105813390D02*
X141348219Y-105908628D01*
X141348219Y-105908628D02*
X141348219Y-106194342D01*
X141348219Y-106194342D02*
X141395838Y-106289580D01*
X141395838Y-106289580D02*
X141443457Y-106337200D01*
X141443457Y-106337200D02*
X141538695Y-106384819D01*
X141538695Y-106384819D02*
X141729171Y-106384819D01*
X141729171Y-106384819D02*
X141824409Y-106337200D01*
X140776790Y-106384819D02*
X140872028Y-106337200D01*
X140872028Y-106337200D02*
X140919647Y-106241961D01*
X140919647Y-106241961D02*
X140919647Y-105384819D01*
X139967266Y-106384819D02*
X139967266Y-105861009D01*
X139967266Y-105861009D02*
X140014885Y-105765771D01*
X140014885Y-105765771D02*
X140110123Y-105718152D01*
X140110123Y-105718152D02*
X140300599Y-105718152D01*
X140300599Y-105718152D02*
X140395837Y-105765771D01*
X139967266Y-106337200D02*
X140062504Y-106384819D01*
X140062504Y-106384819D02*
X140300599Y-106384819D01*
X140300599Y-106384819D02*
X140395837Y-106337200D01*
X140395837Y-106337200D02*
X140443456Y-106241961D01*
X140443456Y-106241961D02*
X140443456Y-106146723D01*
X140443456Y-106146723D02*
X140395837Y-106051485D01*
X140395837Y-106051485D02*
X140300599Y-106003866D01*
X140300599Y-106003866D02*
X140062504Y-106003866D01*
X140062504Y-106003866D02*
X139967266Y-105956247D01*
X139633932Y-105718152D02*
X139252980Y-105718152D01*
X139491075Y-105384819D02*
X139491075Y-106241961D01*
X139491075Y-106241961D02*
X139443456Y-106337200D01*
X139443456Y-106337200D02*
X139348218Y-106384819D01*
X139348218Y-106384819D02*
X139252980Y-106384819D01*
X138538694Y-106337200D02*
X138633932Y-106384819D01*
X138633932Y-106384819D02*
X138824408Y-106384819D01*
X138824408Y-106384819D02*
X138919646Y-106337200D01*
X138919646Y-106337200D02*
X138967265Y-106241961D01*
X138967265Y-106241961D02*
X138967265Y-105861009D01*
X138967265Y-105861009D02*
X138919646Y-105765771D01*
X138919646Y-105765771D02*
X138824408Y-105718152D01*
X138824408Y-105718152D02*
X138633932Y-105718152D01*
X138633932Y-105718152D02*
X138538694Y-105765771D01*
X138538694Y-105765771D02*
X138491075Y-105861009D01*
X138491075Y-105861009D02*
X138491075Y-105956247D01*
X138491075Y-105956247D02*
X138967265Y-106051485D01*
X127598220Y-106384819D02*
X127598220Y-105384819D01*
X127598220Y-105384819D02*
X127360125Y-105384819D01*
X127360125Y-105384819D02*
X127217268Y-105432438D01*
X127217268Y-105432438D02*
X127122030Y-105527676D01*
X127122030Y-105527676D02*
X127074411Y-105622914D01*
X127074411Y-105622914D02*
X127026792Y-105813390D01*
X127026792Y-105813390D02*
X127026792Y-105956247D01*
X127026792Y-105956247D02*
X127074411Y-106146723D01*
X127074411Y-106146723D02*
X127122030Y-106241961D01*
X127122030Y-106241961D02*
X127217268Y-106337200D01*
X127217268Y-106337200D02*
X127360125Y-106384819D01*
X127360125Y-106384819D02*
X127598220Y-106384819D01*
X126407744Y-105384819D02*
X126312506Y-105384819D01*
X126312506Y-105384819D02*
X126217268Y-105432438D01*
X126217268Y-105432438D02*
X126169649Y-105480057D01*
X126169649Y-105480057D02*
X126122030Y-105575295D01*
X126122030Y-105575295D02*
X126074411Y-105765771D01*
X126074411Y-105765771D02*
X126074411Y-106003866D01*
X126074411Y-106003866D02*
X126122030Y-106194342D01*
X126122030Y-106194342D02*
X126169649Y-106289580D01*
X126169649Y-106289580D02*
X126217268Y-106337200D01*
X126217268Y-106337200D02*
X126312506Y-106384819D01*
X126312506Y-106384819D02*
X126407744Y-106384819D01*
X126407744Y-106384819D02*
X126502982Y-106337200D01*
X126502982Y-106337200D02*
X126550601Y-106289580D01*
X126550601Y-106289580D02*
X126598220Y-106194342D01*
X126598220Y-106194342D02*
X126645839Y-106003866D01*
X126645839Y-106003866D02*
X126645839Y-105765771D01*
X126645839Y-105765771D02*
X126598220Y-105575295D01*
X126598220Y-105575295D02*
X126550601Y-105480057D01*
X126550601Y-105480057D02*
X126502982Y-105432438D01*
X126502982Y-105432438D02*
X126407744Y-105384819D01*
X125122030Y-106384819D02*
X125693458Y-106384819D01*
X125407744Y-106384819D02*
X125407744Y-105384819D01*
X125407744Y-105384819D02*
X125502982Y-105527676D01*
X125502982Y-105527676D02*
X125598220Y-105622914D01*
X125598220Y-105622914D02*
X125693458Y-105670533D01*
X124931554Y-106480057D02*
X124169649Y-106480057D01*
X123931553Y-106384819D02*
X123931553Y-105384819D01*
X123502982Y-106384819D02*
X123502982Y-105861009D01*
X123502982Y-105861009D02*
X123550601Y-105765771D01*
X123550601Y-105765771D02*
X123645839Y-105718152D01*
X123645839Y-105718152D02*
X123788696Y-105718152D01*
X123788696Y-105718152D02*
X123883934Y-105765771D01*
X123883934Y-105765771D02*
X123931553Y-105813390D01*
X123026791Y-106384819D02*
X123026791Y-105718152D01*
X123026791Y-105384819D02*
X123074410Y-105432438D01*
X123074410Y-105432438D02*
X123026791Y-105480057D01*
X123026791Y-105480057D02*
X122979172Y-105432438D01*
X122979172Y-105432438D02*
X123026791Y-105384819D01*
X123026791Y-105384819D02*
X123026791Y-105480057D01*
X122407744Y-106384819D02*
X122502982Y-106337200D01*
X122502982Y-106337200D02*
X122550601Y-106241961D01*
X122550601Y-106241961D02*
X122550601Y-105384819D01*
X122264887Y-106480057D02*
X121502982Y-106480057D01*
X121407743Y-105718152D02*
X121026791Y-105718152D01*
X121264886Y-106384819D02*
X121264886Y-105527676D01*
X121264886Y-105527676D02*
X121217267Y-105432438D01*
X121217267Y-105432438D02*
X121122029Y-105384819D01*
X121122029Y-105384819D02*
X121026791Y-105384819D01*
X120264886Y-106384819D02*
X120264886Y-105861009D01*
X120264886Y-105861009D02*
X120312505Y-105765771D01*
X120312505Y-105765771D02*
X120407743Y-105718152D01*
X120407743Y-105718152D02*
X120598219Y-105718152D01*
X120598219Y-105718152D02*
X120693457Y-105765771D01*
X120264886Y-106337200D02*
X120360124Y-106384819D01*
X120360124Y-106384819D02*
X120598219Y-106384819D01*
X120598219Y-106384819D02*
X120693457Y-106337200D01*
X120693457Y-106337200D02*
X120741076Y-106241961D01*
X120741076Y-106241961D02*
X120741076Y-106146723D01*
X120741076Y-106146723D02*
X120693457Y-106051485D01*
X120693457Y-106051485D02*
X120598219Y-106003866D01*
X120598219Y-106003866D02*
X120360124Y-106003866D01*
X120360124Y-106003866D02*
X120264886Y-105956247D01*
X119360124Y-106337200D02*
X119455362Y-106384819D01*
X119455362Y-106384819D02*
X119645838Y-106384819D01*
X119645838Y-106384819D02*
X119741076Y-106337200D01*
X119741076Y-106337200D02*
X119788695Y-106289580D01*
X119788695Y-106289580D02*
X119836314Y-106194342D01*
X119836314Y-106194342D02*
X119836314Y-105908628D01*
X119836314Y-105908628D02*
X119788695Y-105813390D01*
X119788695Y-105813390D02*
X119741076Y-105765771D01*
X119741076Y-105765771D02*
X119645838Y-105718152D01*
X119645838Y-105718152D02*
X119455362Y-105718152D01*
X119455362Y-105718152D02*
X119360124Y-105765771D01*
X118550600Y-106337200D02*
X118645838Y-106384819D01*
X118645838Y-106384819D02*
X118836314Y-106384819D01*
X118836314Y-106384819D02*
X118931552Y-106337200D01*
X118931552Y-106337200D02*
X118979171Y-106241961D01*
X118979171Y-106241961D02*
X118979171Y-105861009D01*
X118979171Y-105861009D02*
X118931552Y-105765771D01*
X118931552Y-105765771D02*
X118836314Y-105718152D01*
X118836314Y-105718152D02*
X118645838Y-105718152D01*
X118645838Y-105718152D02*
X118550600Y-105765771D01*
X118550600Y-105765771D02*
X118502981Y-105861009D01*
X118502981Y-105861009D02*
X118502981Y-105956247D01*
X118502981Y-105956247D02*
X118979171Y-106051485D01*
X118074409Y-105718152D02*
X118074409Y-106718152D01*
X118074409Y-105765771D02*
X117979171Y-105718152D01*
X117979171Y-105718152D02*
X117788695Y-105718152D01*
X117788695Y-105718152D02*
X117693457Y-105765771D01*
X117693457Y-105765771D02*
X117645838Y-105813390D01*
X117645838Y-105813390D02*
X117598219Y-105908628D01*
X117598219Y-105908628D02*
X117598219Y-106194342D01*
X117598219Y-106194342D02*
X117645838Y-106289580D01*
X117645838Y-106289580D02*
X117693457Y-106337200D01*
X117693457Y-106337200D02*
X117788695Y-106384819D01*
X117788695Y-106384819D02*
X117979171Y-106384819D01*
X117979171Y-106384819D02*
X118074409Y-106337200D01*
X117026790Y-106384819D02*
X117122028Y-106337200D01*
X117122028Y-106337200D02*
X117169647Y-106241961D01*
X117169647Y-106241961D02*
X117169647Y-105384819D01*
X116217266Y-106384819D02*
X116217266Y-105861009D01*
X116217266Y-105861009D02*
X116264885Y-105765771D01*
X116264885Y-105765771D02*
X116360123Y-105718152D01*
X116360123Y-105718152D02*
X116550599Y-105718152D01*
X116550599Y-105718152D02*
X116645837Y-105765771D01*
X116217266Y-106337200D02*
X116312504Y-106384819D01*
X116312504Y-106384819D02*
X116550599Y-106384819D01*
X116550599Y-106384819D02*
X116645837Y-106337200D01*
X116645837Y-106337200D02*
X116693456Y-106241961D01*
X116693456Y-106241961D02*
X116693456Y-106146723D01*
X116693456Y-106146723D02*
X116645837Y-106051485D01*
X116645837Y-106051485D02*
X116550599Y-106003866D01*
X116550599Y-106003866D02*
X116312504Y-106003866D01*
X116312504Y-106003866D02*
X116217266Y-105956247D01*
X115883932Y-105718152D02*
X115502980Y-105718152D01*
X115741075Y-105384819D02*
X115741075Y-106241961D01*
X115741075Y-106241961D02*
X115693456Y-106337200D01*
X115693456Y-106337200D02*
X115598218Y-106384819D01*
X115598218Y-106384819D02*
X115502980Y-106384819D01*
X114788694Y-106337200D02*
X114883932Y-106384819D01*
X114883932Y-106384819D02*
X115074408Y-106384819D01*
X115074408Y-106384819D02*
X115169646Y-106337200D01*
X115169646Y-106337200D02*
X115217265Y-106241961D01*
X115217265Y-106241961D02*
X115217265Y-105861009D01*
X115217265Y-105861009D02*
X115169646Y-105765771D01*
X115169646Y-105765771D02*
X115074408Y-105718152D01*
X115074408Y-105718152D02*
X114883932Y-105718152D01*
X114883932Y-105718152D02*
X114788694Y-105765771D01*
X114788694Y-105765771D02*
X114741075Y-105861009D01*
X114741075Y-105861009D02*
X114741075Y-105956247D01*
X114741075Y-105956247D02*
X115217265Y-106051485D01*
X103848220Y-106384819D02*
X103848220Y-105384819D01*
X103848220Y-105384819D02*
X103610125Y-105384819D01*
X103610125Y-105384819D02*
X103467268Y-105432438D01*
X103467268Y-105432438D02*
X103372030Y-105527676D01*
X103372030Y-105527676D02*
X103324411Y-105622914D01*
X103324411Y-105622914D02*
X103276792Y-105813390D01*
X103276792Y-105813390D02*
X103276792Y-105956247D01*
X103276792Y-105956247D02*
X103324411Y-106146723D01*
X103324411Y-106146723D02*
X103372030Y-106241961D01*
X103372030Y-106241961D02*
X103467268Y-106337200D01*
X103467268Y-106337200D02*
X103610125Y-106384819D01*
X103610125Y-106384819D02*
X103848220Y-106384819D01*
X102657744Y-105384819D02*
X102562506Y-105384819D01*
X102562506Y-105384819D02*
X102467268Y-105432438D01*
X102467268Y-105432438D02*
X102419649Y-105480057D01*
X102419649Y-105480057D02*
X102372030Y-105575295D01*
X102372030Y-105575295D02*
X102324411Y-105765771D01*
X102324411Y-105765771D02*
X102324411Y-106003866D01*
X102324411Y-106003866D02*
X102372030Y-106194342D01*
X102372030Y-106194342D02*
X102419649Y-106289580D01*
X102419649Y-106289580D02*
X102467268Y-106337200D01*
X102467268Y-106337200D02*
X102562506Y-106384819D01*
X102562506Y-106384819D02*
X102657744Y-106384819D01*
X102657744Y-106384819D02*
X102752982Y-106337200D01*
X102752982Y-106337200D02*
X102800601Y-106289580D01*
X102800601Y-106289580D02*
X102848220Y-106194342D01*
X102848220Y-106194342D02*
X102895839Y-106003866D01*
X102895839Y-106003866D02*
X102895839Y-105765771D01*
X102895839Y-105765771D02*
X102848220Y-105575295D01*
X102848220Y-105575295D02*
X102800601Y-105480057D01*
X102800601Y-105480057D02*
X102752982Y-105432438D01*
X102752982Y-105432438D02*
X102657744Y-105384819D01*
X101372030Y-106384819D02*
X101943458Y-106384819D01*
X101657744Y-106384819D02*
X101657744Y-105384819D01*
X101657744Y-105384819D02*
X101752982Y-105527676D01*
X101752982Y-105527676D02*
X101848220Y-105622914D01*
X101848220Y-105622914D02*
X101943458Y-105670533D01*
X101181554Y-106480057D02*
X100419649Y-106480057D01*
X100181553Y-106384819D02*
X100181553Y-105384819D01*
X99752982Y-106384819D02*
X99752982Y-105861009D01*
X99752982Y-105861009D02*
X99800601Y-105765771D01*
X99800601Y-105765771D02*
X99895839Y-105718152D01*
X99895839Y-105718152D02*
X100038696Y-105718152D01*
X100038696Y-105718152D02*
X100133934Y-105765771D01*
X100133934Y-105765771D02*
X100181553Y-105813390D01*
X99276791Y-106384819D02*
X99276791Y-105718152D01*
X99276791Y-105384819D02*
X99324410Y-105432438D01*
X99324410Y-105432438D02*
X99276791Y-105480057D01*
X99276791Y-105480057D02*
X99229172Y-105432438D01*
X99229172Y-105432438D02*
X99276791Y-105384819D01*
X99276791Y-105384819D02*
X99276791Y-105480057D01*
X98657744Y-106384819D02*
X98752982Y-106337200D01*
X98752982Y-106337200D02*
X98800601Y-106241961D01*
X98800601Y-106241961D02*
X98800601Y-105384819D01*
X98514887Y-106480057D02*
X97752982Y-106480057D01*
X97657743Y-105718152D02*
X97276791Y-105718152D01*
X97514886Y-106384819D02*
X97514886Y-105527676D01*
X97514886Y-105527676D02*
X97467267Y-105432438D01*
X97467267Y-105432438D02*
X97372029Y-105384819D01*
X97372029Y-105384819D02*
X97276791Y-105384819D01*
X96514886Y-106384819D02*
X96514886Y-105861009D01*
X96514886Y-105861009D02*
X96562505Y-105765771D01*
X96562505Y-105765771D02*
X96657743Y-105718152D01*
X96657743Y-105718152D02*
X96848219Y-105718152D01*
X96848219Y-105718152D02*
X96943457Y-105765771D01*
X96514886Y-106337200D02*
X96610124Y-106384819D01*
X96610124Y-106384819D02*
X96848219Y-106384819D01*
X96848219Y-106384819D02*
X96943457Y-106337200D01*
X96943457Y-106337200D02*
X96991076Y-106241961D01*
X96991076Y-106241961D02*
X96991076Y-106146723D01*
X96991076Y-106146723D02*
X96943457Y-106051485D01*
X96943457Y-106051485D02*
X96848219Y-106003866D01*
X96848219Y-106003866D02*
X96610124Y-106003866D01*
X96610124Y-106003866D02*
X96514886Y-105956247D01*
X95610124Y-106337200D02*
X95705362Y-106384819D01*
X95705362Y-106384819D02*
X95895838Y-106384819D01*
X95895838Y-106384819D02*
X95991076Y-106337200D01*
X95991076Y-106337200D02*
X96038695Y-106289580D01*
X96038695Y-106289580D02*
X96086314Y-106194342D01*
X96086314Y-106194342D02*
X96086314Y-105908628D01*
X96086314Y-105908628D02*
X96038695Y-105813390D01*
X96038695Y-105813390D02*
X95991076Y-105765771D01*
X95991076Y-105765771D02*
X95895838Y-105718152D01*
X95895838Y-105718152D02*
X95705362Y-105718152D01*
X95705362Y-105718152D02*
X95610124Y-105765771D01*
X94800600Y-106337200D02*
X94895838Y-106384819D01*
X94895838Y-106384819D02*
X95086314Y-106384819D01*
X95086314Y-106384819D02*
X95181552Y-106337200D01*
X95181552Y-106337200D02*
X95229171Y-106241961D01*
X95229171Y-106241961D02*
X95229171Y-105861009D01*
X95229171Y-105861009D02*
X95181552Y-105765771D01*
X95181552Y-105765771D02*
X95086314Y-105718152D01*
X95086314Y-105718152D02*
X94895838Y-105718152D01*
X94895838Y-105718152D02*
X94800600Y-105765771D01*
X94800600Y-105765771D02*
X94752981Y-105861009D01*
X94752981Y-105861009D02*
X94752981Y-105956247D01*
X94752981Y-105956247D02*
X95229171Y-106051485D01*
X94324409Y-105718152D02*
X94324409Y-106718152D01*
X94324409Y-105765771D02*
X94229171Y-105718152D01*
X94229171Y-105718152D02*
X94038695Y-105718152D01*
X94038695Y-105718152D02*
X93943457Y-105765771D01*
X93943457Y-105765771D02*
X93895838Y-105813390D01*
X93895838Y-105813390D02*
X93848219Y-105908628D01*
X93848219Y-105908628D02*
X93848219Y-106194342D01*
X93848219Y-106194342D02*
X93895838Y-106289580D01*
X93895838Y-106289580D02*
X93943457Y-106337200D01*
X93943457Y-106337200D02*
X94038695Y-106384819D01*
X94038695Y-106384819D02*
X94229171Y-106384819D01*
X94229171Y-106384819D02*
X94324409Y-106337200D01*
X93276790Y-106384819D02*
X93372028Y-106337200D01*
X93372028Y-106337200D02*
X93419647Y-106241961D01*
X93419647Y-106241961D02*
X93419647Y-105384819D01*
X92467266Y-106384819D02*
X92467266Y-105861009D01*
X92467266Y-105861009D02*
X92514885Y-105765771D01*
X92514885Y-105765771D02*
X92610123Y-105718152D01*
X92610123Y-105718152D02*
X92800599Y-105718152D01*
X92800599Y-105718152D02*
X92895837Y-105765771D01*
X92467266Y-106337200D02*
X92562504Y-106384819D01*
X92562504Y-106384819D02*
X92800599Y-106384819D01*
X92800599Y-106384819D02*
X92895837Y-106337200D01*
X92895837Y-106337200D02*
X92943456Y-106241961D01*
X92943456Y-106241961D02*
X92943456Y-106146723D01*
X92943456Y-106146723D02*
X92895837Y-106051485D01*
X92895837Y-106051485D02*
X92800599Y-106003866D01*
X92800599Y-106003866D02*
X92562504Y-106003866D01*
X92562504Y-106003866D02*
X92467266Y-105956247D01*
X92133932Y-105718152D02*
X91752980Y-105718152D01*
X91991075Y-105384819D02*
X91991075Y-106241961D01*
X91991075Y-106241961D02*
X91943456Y-106337200D01*
X91943456Y-106337200D02*
X91848218Y-106384819D01*
X91848218Y-106384819D02*
X91752980Y-106384819D01*
X91038694Y-106337200D02*
X91133932Y-106384819D01*
X91133932Y-106384819D02*
X91324408Y-106384819D01*
X91324408Y-106384819D02*
X91419646Y-106337200D01*
X91419646Y-106337200D02*
X91467265Y-106241961D01*
X91467265Y-106241961D02*
X91467265Y-105861009D01*
X91467265Y-105861009D02*
X91419646Y-105765771D01*
X91419646Y-105765771D02*
X91324408Y-105718152D01*
X91324408Y-105718152D02*
X91133932Y-105718152D01*
X91133932Y-105718152D02*
X91038694Y-105765771D01*
X91038694Y-105765771D02*
X90991075Y-105861009D01*
X90991075Y-105861009D02*
X90991075Y-105956247D01*
X90991075Y-105956247D02*
X91467265Y-106051485D01*
X80098220Y-106384819D02*
X80098220Y-105384819D01*
X80098220Y-105384819D02*
X79860125Y-105384819D01*
X79860125Y-105384819D02*
X79717268Y-105432438D01*
X79717268Y-105432438D02*
X79622030Y-105527676D01*
X79622030Y-105527676D02*
X79574411Y-105622914D01*
X79574411Y-105622914D02*
X79526792Y-105813390D01*
X79526792Y-105813390D02*
X79526792Y-105956247D01*
X79526792Y-105956247D02*
X79574411Y-106146723D01*
X79574411Y-106146723D02*
X79622030Y-106241961D01*
X79622030Y-106241961D02*
X79717268Y-106337200D01*
X79717268Y-106337200D02*
X79860125Y-106384819D01*
X79860125Y-106384819D02*
X80098220Y-106384819D01*
X78907744Y-105384819D02*
X78812506Y-105384819D01*
X78812506Y-105384819D02*
X78717268Y-105432438D01*
X78717268Y-105432438D02*
X78669649Y-105480057D01*
X78669649Y-105480057D02*
X78622030Y-105575295D01*
X78622030Y-105575295D02*
X78574411Y-105765771D01*
X78574411Y-105765771D02*
X78574411Y-106003866D01*
X78574411Y-106003866D02*
X78622030Y-106194342D01*
X78622030Y-106194342D02*
X78669649Y-106289580D01*
X78669649Y-106289580D02*
X78717268Y-106337200D01*
X78717268Y-106337200D02*
X78812506Y-106384819D01*
X78812506Y-106384819D02*
X78907744Y-106384819D01*
X78907744Y-106384819D02*
X79002982Y-106337200D01*
X79002982Y-106337200D02*
X79050601Y-106289580D01*
X79050601Y-106289580D02*
X79098220Y-106194342D01*
X79098220Y-106194342D02*
X79145839Y-106003866D01*
X79145839Y-106003866D02*
X79145839Y-105765771D01*
X79145839Y-105765771D02*
X79098220Y-105575295D01*
X79098220Y-105575295D02*
X79050601Y-105480057D01*
X79050601Y-105480057D02*
X79002982Y-105432438D01*
X79002982Y-105432438D02*
X78907744Y-105384819D01*
X77622030Y-106384819D02*
X78193458Y-106384819D01*
X77907744Y-106384819D02*
X77907744Y-105384819D01*
X77907744Y-105384819D02*
X78002982Y-105527676D01*
X78002982Y-105527676D02*
X78098220Y-105622914D01*
X78098220Y-105622914D02*
X78193458Y-105670533D01*
X77431554Y-106480057D02*
X76669649Y-106480057D01*
X76431553Y-106384819D02*
X76431553Y-105384819D01*
X76002982Y-106384819D02*
X76002982Y-105861009D01*
X76002982Y-105861009D02*
X76050601Y-105765771D01*
X76050601Y-105765771D02*
X76145839Y-105718152D01*
X76145839Y-105718152D02*
X76288696Y-105718152D01*
X76288696Y-105718152D02*
X76383934Y-105765771D01*
X76383934Y-105765771D02*
X76431553Y-105813390D01*
X75526791Y-106384819D02*
X75526791Y-105718152D01*
X75526791Y-105384819D02*
X75574410Y-105432438D01*
X75574410Y-105432438D02*
X75526791Y-105480057D01*
X75526791Y-105480057D02*
X75479172Y-105432438D01*
X75479172Y-105432438D02*
X75526791Y-105384819D01*
X75526791Y-105384819D02*
X75526791Y-105480057D01*
X74907744Y-106384819D02*
X75002982Y-106337200D01*
X75002982Y-106337200D02*
X75050601Y-106241961D01*
X75050601Y-106241961D02*
X75050601Y-105384819D01*
X74764887Y-106480057D02*
X74002982Y-106480057D01*
X73907743Y-105718152D02*
X73526791Y-105718152D01*
X73764886Y-106384819D02*
X73764886Y-105527676D01*
X73764886Y-105527676D02*
X73717267Y-105432438D01*
X73717267Y-105432438D02*
X73622029Y-105384819D01*
X73622029Y-105384819D02*
X73526791Y-105384819D01*
X72764886Y-106384819D02*
X72764886Y-105861009D01*
X72764886Y-105861009D02*
X72812505Y-105765771D01*
X72812505Y-105765771D02*
X72907743Y-105718152D01*
X72907743Y-105718152D02*
X73098219Y-105718152D01*
X73098219Y-105718152D02*
X73193457Y-105765771D01*
X72764886Y-106337200D02*
X72860124Y-106384819D01*
X72860124Y-106384819D02*
X73098219Y-106384819D01*
X73098219Y-106384819D02*
X73193457Y-106337200D01*
X73193457Y-106337200D02*
X73241076Y-106241961D01*
X73241076Y-106241961D02*
X73241076Y-106146723D01*
X73241076Y-106146723D02*
X73193457Y-106051485D01*
X73193457Y-106051485D02*
X73098219Y-106003866D01*
X73098219Y-106003866D02*
X72860124Y-106003866D01*
X72860124Y-106003866D02*
X72764886Y-105956247D01*
X71860124Y-106337200D02*
X71955362Y-106384819D01*
X71955362Y-106384819D02*
X72145838Y-106384819D01*
X72145838Y-106384819D02*
X72241076Y-106337200D01*
X72241076Y-106337200D02*
X72288695Y-106289580D01*
X72288695Y-106289580D02*
X72336314Y-106194342D01*
X72336314Y-106194342D02*
X72336314Y-105908628D01*
X72336314Y-105908628D02*
X72288695Y-105813390D01*
X72288695Y-105813390D02*
X72241076Y-105765771D01*
X72241076Y-105765771D02*
X72145838Y-105718152D01*
X72145838Y-105718152D02*
X71955362Y-105718152D01*
X71955362Y-105718152D02*
X71860124Y-105765771D01*
X71050600Y-106337200D02*
X71145838Y-106384819D01*
X71145838Y-106384819D02*
X71336314Y-106384819D01*
X71336314Y-106384819D02*
X71431552Y-106337200D01*
X71431552Y-106337200D02*
X71479171Y-106241961D01*
X71479171Y-106241961D02*
X71479171Y-105861009D01*
X71479171Y-105861009D02*
X71431552Y-105765771D01*
X71431552Y-105765771D02*
X71336314Y-105718152D01*
X71336314Y-105718152D02*
X71145838Y-105718152D01*
X71145838Y-105718152D02*
X71050600Y-105765771D01*
X71050600Y-105765771D02*
X71002981Y-105861009D01*
X71002981Y-105861009D02*
X71002981Y-105956247D01*
X71002981Y-105956247D02*
X71479171Y-106051485D01*
X70574409Y-105718152D02*
X70574409Y-106718152D01*
X70574409Y-105765771D02*
X70479171Y-105718152D01*
X70479171Y-105718152D02*
X70288695Y-105718152D01*
X70288695Y-105718152D02*
X70193457Y-105765771D01*
X70193457Y-105765771D02*
X70145838Y-105813390D01*
X70145838Y-105813390D02*
X70098219Y-105908628D01*
X70098219Y-105908628D02*
X70098219Y-106194342D01*
X70098219Y-106194342D02*
X70145838Y-106289580D01*
X70145838Y-106289580D02*
X70193457Y-106337200D01*
X70193457Y-106337200D02*
X70288695Y-106384819D01*
X70288695Y-106384819D02*
X70479171Y-106384819D01*
X70479171Y-106384819D02*
X70574409Y-106337200D01*
X69526790Y-106384819D02*
X69622028Y-106337200D01*
X69622028Y-106337200D02*
X69669647Y-106241961D01*
X69669647Y-106241961D02*
X69669647Y-105384819D01*
X68717266Y-106384819D02*
X68717266Y-105861009D01*
X68717266Y-105861009D02*
X68764885Y-105765771D01*
X68764885Y-105765771D02*
X68860123Y-105718152D01*
X68860123Y-105718152D02*
X69050599Y-105718152D01*
X69050599Y-105718152D02*
X69145837Y-105765771D01*
X68717266Y-106337200D02*
X68812504Y-106384819D01*
X68812504Y-106384819D02*
X69050599Y-106384819D01*
X69050599Y-106384819D02*
X69145837Y-106337200D01*
X69145837Y-106337200D02*
X69193456Y-106241961D01*
X69193456Y-106241961D02*
X69193456Y-106146723D01*
X69193456Y-106146723D02*
X69145837Y-106051485D01*
X69145837Y-106051485D02*
X69050599Y-106003866D01*
X69050599Y-106003866D02*
X68812504Y-106003866D01*
X68812504Y-106003866D02*
X68717266Y-105956247D01*
X68383932Y-105718152D02*
X68002980Y-105718152D01*
X68241075Y-105384819D02*
X68241075Y-106241961D01*
X68241075Y-106241961D02*
X68193456Y-106337200D01*
X68193456Y-106337200D02*
X68098218Y-106384819D01*
X68098218Y-106384819D02*
X68002980Y-106384819D01*
X67288694Y-106337200D02*
X67383932Y-106384819D01*
X67383932Y-106384819D02*
X67574408Y-106384819D01*
X67574408Y-106384819D02*
X67669646Y-106337200D01*
X67669646Y-106337200D02*
X67717265Y-106241961D01*
X67717265Y-106241961D02*
X67717265Y-105861009D01*
X67717265Y-105861009D02*
X67669646Y-105765771D01*
X67669646Y-105765771D02*
X67574408Y-105718152D01*
X67574408Y-105718152D02*
X67383932Y-105718152D01*
X67383932Y-105718152D02*
X67288694Y-105765771D01*
X67288694Y-105765771D02*
X67241075Y-105861009D01*
X67241075Y-105861009D02*
X67241075Y-105956247D01*
X67241075Y-105956247D02*
X67717265Y-106051485D01*
M02*
