M48
; DRILL file {KiCad 7.0.11+dfsg-1build4} date mié 13 may 2026 16:22:10
; FORMAT={-:-/ absolute / metric / decimal}
; #@! TF.CreationDate,2026-05-13T16:22:10-05:00
; #@! TF.GenerationSoftware,Kicad,Pcbnew,7.0.11+dfsg-1build4
; #@! TF.FileFunction,Plated,1,2,PTH
FMAT,2
METRIC
; #@! TA.AperFunction,Plated,PTH,ViaDrill
T1C0.300
; #@! TA.AperFunction,Plated,PTH,ComponentDrill
T2C1.150
%
G90
G05
T1
X64.56Y-63.335
X64.56Y-90.005
X74.085Y-48.73
X74.085Y-63.335
X74.085Y-90.005
X74.085Y-104.61
X84.245Y-63.335
X84.245Y-90.005
X88.31Y-63.335
X88.31Y-90.005
X97.835Y-48.73
X97.835Y-63.335
X97.835Y-90.005
X97.835Y-104.61
X107.995Y-63.335
X107.995Y-90.005
X112.06Y-63.335
X112.06Y-90.005
X121.585Y-48.73
X121.585Y-63.335
X121.585Y-90.005
X121.585Y-104.61
X131.745Y-63.335
X131.745Y-90.005
X135.81Y-63.335
X135.81Y-90.005
X145.335Y-48.73
X145.335Y-63.335
X145.335Y-90.005
X145.335Y-104.61
X155.495Y-63.335
X155.495Y-90.005
T2
X64.475Y-52.955
X64.475Y-78.055
X64.475Y-103.155
X65.975Y-48.755
X65.975Y-73.855
X65.975Y-98.955
X82.425Y-52.955
X82.425Y-78.055
X82.425Y-103.155
X83.925Y-48.755
X83.925Y-73.855
X83.925Y-98.955
X88.225Y-52.955
X88.225Y-78.055
X88.225Y-103.155
X89.725Y-48.755
X89.725Y-73.855
X89.725Y-98.955
X106.175Y-52.955
X106.175Y-78.055
X106.175Y-103.155
X107.675Y-48.755
X107.675Y-73.855
X107.675Y-98.955
X111.975Y-52.955
X111.975Y-78.055
X111.975Y-103.155
X113.475Y-48.755
X113.475Y-73.855
X113.475Y-98.955
X129.925Y-52.955
X129.925Y-78.055
X129.925Y-103.155
X131.425Y-48.755
X131.425Y-73.855
X131.425Y-98.955
X135.725Y-52.955
X135.725Y-78.055
X135.725Y-103.155
X137.225Y-48.755
X137.225Y-73.855
X137.225Y-98.955
X153.675Y-52.955
X153.675Y-78.055
X153.675Y-103.155
X155.175Y-48.755
X155.175Y-73.855
X155.175Y-98.955
M30
