M48
; DRILL file {KiCad 7.0.11+dfsg-1build4} date mié 13 may 2026 15:54:45
; FORMAT={-:-/ absolute / metric / decimal}
; #@! TF.CreationDate,2026-05-13T15:54:45-05:00
; #@! TF.GenerationSoftware,Kicad,Pcbnew,7.0.11+dfsg-1build4
; #@! TF.FileFunction,Plated,1,2,PTH
FMAT,2
METRIC
; #@! TA.AperFunction,Plated,PTH,ViaDrill
T1C0.300
; #@! TA.AperFunction,Plated,PTH,ComponentDrill
T2C1.150
%
G90
G05
T1
X70.91Y-74.13
X70.91Y-100.8
X80.435Y-59.525
X80.435Y-74.13
X80.435Y-100.8
X80.435Y-115.405
X90.595Y-74.13
X90.595Y-100.8
X94.66Y-74.13
X94.66Y-100.8
X104.185Y-59.525
X104.185Y-74.13
X104.185Y-100.8
X104.185Y-115.405
X114.345Y-74.13
X114.345Y-100.8
X118.41Y-74.13
X118.41Y-100.8
X127.935Y-59.525
X127.935Y-74.13
X127.935Y-100.8
X127.935Y-115.405
X138.095Y-74.13
X138.095Y-100.8
X142.16Y-74.13
X142.16Y-100.8
X151.685Y-59.525
X151.685Y-74.13
X151.685Y-100.8
X151.685Y-115.405
X161.845Y-74.13
X161.845Y-100.8
X165.91Y-74.13
X165.91Y-100.8
X175.435Y-59.525
X175.435Y-74.13
X175.435Y-100.8
X175.435Y-115.405
X185.595Y-74.13
X185.595Y-100.8
T2
X70.825Y-63.75
X70.825Y-88.85
X70.825Y-113.95
X72.325Y-59.55
X72.325Y-84.65
X72.325Y-109.75
X88.775Y-63.75
X88.775Y-88.85
X88.775Y-113.95
X90.275Y-59.55
X90.275Y-84.65
X90.275Y-109.75
X94.575Y-63.75
X94.575Y-88.85
X94.575Y-113.95
X96.075Y-59.55
X96.075Y-84.65
X96.075Y-109.75
X112.525Y-63.75
X112.525Y-88.85
X112.525Y-113.95
X114.025Y-59.55
X114.025Y-84.65
X114.025Y-109.75
X118.325Y-63.75
X118.325Y-88.85
X118.325Y-113.95
X119.825Y-59.55
X119.825Y-84.65
X119.825Y-109.75
X136.275Y-63.75
X136.275Y-88.85
X136.275Y-113.95
X137.775Y-59.55
X137.775Y-84.65
X137.775Y-109.75
X142.075Y-63.75
X142.075Y-88.85
X142.075Y-113.95
X143.575Y-59.55
X143.575Y-84.65
X143.575Y-109.75
X160.025Y-63.75
X160.025Y-88.85
X160.025Y-113.95
X161.525Y-59.55
X161.525Y-84.65
X161.525Y-109.75
X165.825Y-63.75
X165.825Y-88.85
X165.825Y-113.95
X167.325Y-59.55
X167.325Y-84.65
X167.325Y-109.75
X183.775Y-63.75
X183.775Y-88.85
X183.775Y-113.95
X185.275Y-59.55
X185.275Y-84.65
X185.275Y-109.75
M30
