%TF.GenerationSoftware,KiCad,Pcbnew,7.0.11-7.0.11~ubuntu20.04.1*%
%TF.CreationDate,2026-04-08T14:55:23-05:00*%
%TF.ProjectId,,58585858-5858-4585-9858-585858585858,rev?*%
%TF.SameCoordinates,Original*%
%TF.FileFunction,Legend,Bot*%
%TF.FilePolarity,Positive*%
%FSLAX46Y46*%
G04 Gerber Fmt 4.6, Leading zero omitted, Abs format (unit mm)*
G04 Created by KiCad (PCBNEW 7.0.11-7.0.11~ubuntu20.04.1) date 2026-04-08 14:55:23*
%MOMM*%
%LPD*%
G01*
G04 APERTURE LIST*
%ADD10C,0.100000*%
%TA.AperFunction,Profile*%
%ADD11C,0.050000*%
%TD*%
G04 APERTURE END LIST*
D10*
X126622068Y-122749942D02*
X126679211Y-122721371D01*
X126679211Y-122721371D02*
X126764925Y-122721371D01*
X126764925Y-122721371D02*
X126850639Y-122749942D01*
X126850639Y-122749942D02*
X126907782Y-122807085D01*
X126907782Y-122807085D02*
X126936353Y-122864228D01*
X126936353Y-122864228D02*
X126964925Y-122978514D01*
X126964925Y-122978514D02*
X126964925Y-123064228D01*
X126964925Y-123064228D02*
X126936353Y-123178514D01*
X126936353Y-123178514D02*
X126907782Y-123235657D01*
X126907782Y-123235657D02*
X126850639Y-123292800D01*
X126850639Y-123292800D02*
X126764925Y-123321371D01*
X126764925Y-123321371D02*
X126707782Y-123321371D01*
X126707782Y-123321371D02*
X126622068Y-123292800D01*
X126622068Y-123292800D02*
X126593496Y-123264228D01*
X126593496Y-123264228D02*
X126593496Y-123064228D01*
X126593496Y-123064228D02*
X126707782Y-123064228D01*
X126336353Y-123321371D02*
X126336353Y-122721371D01*
X126336353Y-122721371D02*
X125993496Y-123321371D01*
X125993496Y-123321371D02*
X125993496Y-122721371D01*
X125707782Y-123321371D02*
X125707782Y-122721371D01*
X125707782Y-122721371D02*
X125564925Y-122721371D01*
X125564925Y-122721371D02*
X125479211Y-122749942D01*
X125479211Y-122749942D02*
X125422068Y-122807085D01*
X125422068Y-122807085D02*
X125393497Y-122864228D01*
X125393497Y-122864228D02*
X125364925Y-122978514D01*
X125364925Y-122978514D02*
X125364925Y-123064228D01*
X125364925Y-123064228D02*
X125393497Y-123178514D01*
X125393497Y-123178514D02*
X125422068Y-123235657D01*
X125422068Y-123235657D02*
X125479211Y-123292800D01*
X125479211Y-123292800D02*
X125564925Y-123321371D01*
X125564925Y-123321371D02*
X125707782Y-123321371D01*
X122236353Y-124757085D02*
X122150639Y-124785657D01*
X122150639Y-124785657D02*
X122122068Y-124814228D01*
X122122068Y-124814228D02*
X122093496Y-124871371D01*
X122093496Y-124871371D02*
X122093496Y-124957085D01*
X122093496Y-124957085D02*
X122122068Y-125014228D01*
X122122068Y-125014228D02*
X122150639Y-125042800D01*
X122150639Y-125042800D02*
X122207782Y-125071371D01*
X122207782Y-125071371D02*
X122436353Y-125071371D01*
X122436353Y-125071371D02*
X122436353Y-124471371D01*
X122436353Y-124471371D02*
X122236353Y-124471371D01*
X122236353Y-124471371D02*
X122179211Y-124499942D01*
X122179211Y-124499942D02*
X122150639Y-124528514D01*
X122150639Y-124528514D02*
X122122068Y-124585657D01*
X122122068Y-124585657D02*
X122122068Y-124642800D01*
X122122068Y-124642800D02*
X122150639Y-124699942D01*
X122150639Y-124699942D02*
X122179211Y-124728514D01*
X122179211Y-124728514D02*
X122236353Y-124757085D01*
X122236353Y-124757085D02*
X122436353Y-124757085D01*
X121836353Y-124471371D02*
X121836353Y-124957085D01*
X121836353Y-124957085D02*
X121807782Y-125014228D01*
X121807782Y-125014228D02*
X121779211Y-125042800D01*
X121779211Y-125042800D02*
X121722068Y-125071371D01*
X121722068Y-125071371D02*
X121607782Y-125071371D01*
X121607782Y-125071371D02*
X121550639Y-125042800D01*
X121550639Y-125042800D02*
X121522068Y-125014228D01*
X121522068Y-125014228D02*
X121493496Y-124957085D01*
X121493496Y-124957085D02*
X121493496Y-124471371D01*
X121236354Y-125042800D02*
X121150640Y-125071371D01*
X121150640Y-125071371D02*
X121007782Y-125071371D01*
X121007782Y-125071371D02*
X120950640Y-125042800D01*
X120950640Y-125042800D02*
X120922068Y-125014228D01*
X120922068Y-125014228D02*
X120893497Y-124957085D01*
X120893497Y-124957085D02*
X120893497Y-124899942D01*
X120893497Y-124899942D02*
X120922068Y-124842800D01*
X120922068Y-124842800D02*
X120950640Y-124814228D01*
X120950640Y-124814228D02*
X121007782Y-124785657D01*
X121007782Y-124785657D02*
X121122068Y-124757085D01*
X121122068Y-124757085D02*
X121179211Y-124728514D01*
X121179211Y-124728514D02*
X121207782Y-124699942D01*
X121207782Y-124699942D02*
X121236354Y-124642800D01*
X121236354Y-124642800D02*
X121236354Y-124585657D01*
X121236354Y-124585657D02*
X121207782Y-124528514D01*
X121207782Y-124528514D02*
X121179211Y-124499942D01*
X121179211Y-124499942D02*
X121122068Y-124471371D01*
X121122068Y-124471371D02*
X120979211Y-124471371D01*
X120979211Y-124471371D02*
X120893497Y-124499942D01*
X120064925Y-124471371D02*
X120007782Y-124471371D01*
X120007782Y-124471371D02*
X119950639Y-124499942D01*
X119950639Y-124499942D02*
X119922068Y-124528514D01*
X119922068Y-124528514D02*
X119893496Y-124585657D01*
X119893496Y-124585657D02*
X119864925Y-124699942D01*
X119864925Y-124699942D02*
X119864925Y-124842800D01*
X119864925Y-124842800D02*
X119893496Y-124957085D01*
X119893496Y-124957085D02*
X119922068Y-125014228D01*
X119922068Y-125014228D02*
X119950639Y-125042800D01*
X119950639Y-125042800D02*
X120007782Y-125071371D01*
X120007782Y-125071371D02*
X120064925Y-125071371D01*
X120064925Y-125071371D02*
X120122068Y-125042800D01*
X120122068Y-125042800D02*
X120150639Y-125014228D01*
X120150639Y-125014228D02*
X120179210Y-124957085D01*
X120179210Y-124957085D02*
X120207782Y-124842800D01*
X120207782Y-124842800D02*
X120207782Y-124699942D01*
X120207782Y-124699942D02*
X120179210Y-124585657D01*
X120179210Y-124585657D02*
X120150639Y-124528514D01*
X120150639Y-124528514D02*
X120122068Y-124499942D01*
X120122068Y-124499942D02*
X120064925Y-124471371D01*
X122236353Y-121257085D02*
X122150639Y-121285657D01*
X122150639Y-121285657D02*
X122122068Y-121314228D01*
X122122068Y-121314228D02*
X122093496Y-121371371D01*
X122093496Y-121371371D02*
X122093496Y-121457085D01*
X122093496Y-121457085D02*
X122122068Y-121514228D01*
X122122068Y-121514228D02*
X122150639Y-121542800D01*
X122150639Y-121542800D02*
X122207782Y-121571371D01*
X122207782Y-121571371D02*
X122436353Y-121571371D01*
X122436353Y-121571371D02*
X122436353Y-120971371D01*
X122436353Y-120971371D02*
X122236353Y-120971371D01*
X122236353Y-120971371D02*
X122179211Y-120999942D01*
X122179211Y-120999942D02*
X122150639Y-121028514D01*
X122150639Y-121028514D02*
X122122068Y-121085657D01*
X122122068Y-121085657D02*
X122122068Y-121142800D01*
X122122068Y-121142800D02*
X122150639Y-121199942D01*
X122150639Y-121199942D02*
X122179211Y-121228514D01*
X122179211Y-121228514D02*
X122236353Y-121257085D01*
X122236353Y-121257085D02*
X122436353Y-121257085D01*
X121836353Y-120971371D02*
X121836353Y-121457085D01*
X121836353Y-121457085D02*
X121807782Y-121514228D01*
X121807782Y-121514228D02*
X121779211Y-121542800D01*
X121779211Y-121542800D02*
X121722068Y-121571371D01*
X121722068Y-121571371D02*
X121607782Y-121571371D01*
X121607782Y-121571371D02*
X121550639Y-121542800D01*
X121550639Y-121542800D02*
X121522068Y-121514228D01*
X121522068Y-121514228D02*
X121493496Y-121457085D01*
X121493496Y-121457085D02*
X121493496Y-120971371D01*
X121236354Y-121542800D02*
X121150640Y-121571371D01*
X121150640Y-121571371D02*
X121007782Y-121571371D01*
X121007782Y-121571371D02*
X120950640Y-121542800D01*
X120950640Y-121542800D02*
X120922068Y-121514228D01*
X120922068Y-121514228D02*
X120893497Y-121457085D01*
X120893497Y-121457085D02*
X120893497Y-121399942D01*
X120893497Y-121399942D02*
X120922068Y-121342800D01*
X120922068Y-121342800D02*
X120950640Y-121314228D01*
X120950640Y-121314228D02*
X121007782Y-121285657D01*
X121007782Y-121285657D02*
X121122068Y-121257085D01*
X121122068Y-121257085D02*
X121179211Y-121228514D01*
X121179211Y-121228514D02*
X121207782Y-121199942D01*
X121207782Y-121199942D02*
X121236354Y-121142800D01*
X121236354Y-121142800D02*
X121236354Y-121085657D01*
X121236354Y-121085657D02*
X121207782Y-121028514D01*
X121207782Y-121028514D02*
X121179211Y-120999942D01*
X121179211Y-120999942D02*
X121122068Y-120971371D01*
X121122068Y-120971371D02*
X120979211Y-120971371D01*
X120979211Y-120971371D02*
X120893497Y-120999942D01*
X120207782Y-121028514D02*
X120179210Y-120999942D01*
X120179210Y-120999942D02*
X120122068Y-120971371D01*
X120122068Y-120971371D02*
X119979210Y-120971371D01*
X119979210Y-120971371D02*
X119922068Y-120999942D01*
X119922068Y-120999942D02*
X119893496Y-121028514D01*
X119893496Y-121028514D02*
X119864925Y-121085657D01*
X119864925Y-121085657D02*
X119864925Y-121142800D01*
X119864925Y-121142800D02*
X119893496Y-121228514D01*
X119893496Y-121228514D02*
X120236353Y-121571371D01*
X120236353Y-121571371D02*
X119864925Y-121571371D01*
X123416371Y-93048646D02*
X122816371Y-93048646D01*
X122816371Y-93048646D02*
X122816371Y-93191503D01*
X122816371Y-93191503D02*
X122844942Y-93277217D01*
X122844942Y-93277217D02*
X122902085Y-93334360D01*
X122902085Y-93334360D02*
X122959228Y-93362931D01*
X122959228Y-93362931D02*
X123073514Y-93391503D01*
X123073514Y-93391503D02*
X123159228Y-93391503D01*
X123159228Y-93391503D02*
X123273514Y-93362931D01*
X123273514Y-93362931D02*
X123330657Y-93334360D01*
X123330657Y-93334360D02*
X123387800Y-93277217D01*
X123387800Y-93277217D02*
X123416371Y-93191503D01*
X123416371Y-93191503D02*
X123416371Y-93048646D01*
X123102085Y-93648646D02*
X123102085Y-93848646D01*
X123416371Y-93934360D02*
X123416371Y-93648646D01*
X123416371Y-93648646D02*
X122816371Y-93648646D01*
X122816371Y-93648646D02*
X122816371Y-93934360D01*
X123102085Y-94391503D02*
X123102085Y-94191503D01*
X123416371Y-94191503D02*
X122816371Y-94191503D01*
X122816371Y-94191503D02*
X122816371Y-94477217D01*
X123244942Y-94677217D02*
X123244942Y-94962932D01*
X123416371Y-94620074D02*
X122816371Y-94820074D01*
X122816371Y-94820074D02*
X123416371Y-95020074D01*
X122816371Y-95220075D02*
X123302085Y-95220075D01*
X123302085Y-95220075D02*
X123359228Y-95248646D01*
X123359228Y-95248646D02*
X123387800Y-95277218D01*
X123387800Y-95277218D02*
X123416371Y-95334360D01*
X123416371Y-95334360D02*
X123416371Y-95448646D01*
X123416371Y-95448646D02*
X123387800Y-95505789D01*
X123387800Y-95505789D02*
X123359228Y-95534360D01*
X123359228Y-95534360D02*
X123302085Y-95562932D01*
X123302085Y-95562932D02*
X122816371Y-95562932D01*
X123416371Y-96134360D02*
X123416371Y-95848646D01*
X123416371Y-95848646D02*
X122816371Y-95848646D01*
X122816371Y-96248645D02*
X122816371Y-96591503D01*
X123416371Y-96420074D02*
X122816371Y-96420074D01*
X123473514Y-96648646D02*
X123473514Y-97105788D01*
X123387800Y-97220074D02*
X123416371Y-97305789D01*
X123416371Y-97305789D02*
X123416371Y-97448646D01*
X123416371Y-97448646D02*
X123387800Y-97505789D01*
X123387800Y-97505789D02*
X123359228Y-97534360D01*
X123359228Y-97534360D02*
X123302085Y-97562931D01*
X123302085Y-97562931D02*
X123244942Y-97562931D01*
X123244942Y-97562931D02*
X123187800Y-97534360D01*
X123187800Y-97534360D02*
X123159228Y-97505789D01*
X123159228Y-97505789D02*
X123130657Y-97448646D01*
X123130657Y-97448646D02*
X123102085Y-97334360D01*
X123102085Y-97334360D02*
X123073514Y-97277217D01*
X123073514Y-97277217D02*
X123044942Y-97248646D01*
X123044942Y-97248646D02*
X122987800Y-97220074D01*
X122987800Y-97220074D02*
X122930657Y-97220074D01*
X122930657Y-97220074D02*
X122873514Y-97248646D01*
X122873514Y-97248646D02*
X122844942Y-97277217D01*
X122844942Y-97277217D02*
X122816371Y-97334360D01*
X122816371Y-97334360D02*
X122816371Y-97477217D01*
X122816371Y-97477217D02*
X122844942Y-97562931D01*
X122816371Y-97762932D02*
X123416371Y-97905789D01*
X123416371Y-97905789D02*
X122987800Y-98020075D01*
X122987800Y-98020075D02*
X123416371Y-98134360D01*
X123416371Y-98134360D02*
X122816371Y-98277218D01*
X130416371Y-94368646D02*
X129816371Y-94368646D01*
X129816371Y-94368646D02*
X129816371Y-94511503D01*
X129816371Y-94511503D02*
X129844942Y-94597217D01*
X129844942Y-94597217D02*
X129902085Y-94654360D01*
X129902085Y-94654360D02*
X129959228Y-94682931D01*
X129959228Y-94682931D02*
X130073514Y-94711503D01*
X130073514Y-94711503D02*
X130159228Y-94711503D01*
X130159228Y-94711503D02*
X130273514Y-94682931D01*
X130273514Y-94682931D02*
X130330657Y-94654360D01*
X130330657Y-94654360D02*
X130387800Y-94597217D01*
X130387800Y-94597217D02*
X130416371Y-94511503D01*
X130416371Y-94511503D02*
X130416371Y-94368646D01*
X130416371Y-94968646D02*
X129816371Y-94968646D01*
X130387800Y-95225788D02*
X130416371Y-95311503D01*
X130416371Y-95311503D02*
X130416371Y-95454360D01*
X130416371Y-95454360D02*
X130387800Y-95511503D01*
X130387800Y-95511503D02*
X130359228Y-95540074D01*
X130359228Y-95540074D02*
X130302085Y-95568645D01*
X130302085Y-95568645D02*
X130244942Y-95568645D01*
X130244942Y-95568645D02*
X130187800Y-95540074D01*
X130187800Y-95540074D02*
X130159228Y-95511503D01*
X130159228Y-95511503D02*
X130130657Y-95454360D01*
X130130657Y-95454360D02*
X130102085Y-95340074D01*
X130102085Y-95340074D02*
X130073514Y-95282931D01*
X130073514Y-95282931D02*
X130044942Y-95254360D01*
X130044942Y-95254360D02*
X129987800Y-95225788D01*
X129987800Y-95225788D02*
X129930657Y-95225788D01*
X129930657Y-95225788D02*
X129873514Y-95254360D01*
X129873514Y-95254360D02*
X129844942Y-95282931D01*
X129844942Y-95282931D02*
X129816371Y-95340074D01*
X129816371Y-95340074D02*
X129816371Y-95482931D01*
X129816371Y-95482931D02*
X129844942Y-95568645D01*
X130416371Y-95825789D02*
X129816371Y-95825789D01*
X129816371Y-95825789D02*
X129816371Y-96054360D01*
X129816371Y-96054360D02*
X129844942Y-96111503D01*
X129844942Y-96111503D02*
X129873514Y-96140074D01*
X129873514Y-96140074D02*
X129930657Y-96168646D01*
X129930657Y-96168646D02*
X130016371Y-96168646D01*
X130016371Y-96168646D02*
X130073514Y-96140074D01*
X130073514Y-96140074D02*
X130102085Y-96111503D01*
X130102085Y-96111503D02*
X130130657Y-96054360D01*
X130130657Y-96054360D02*
X130130657Y-95825789D01*
X130473514Y-96282932D02*
X130473514Y-96740074D01*
X130387800Y-96854360D02*
X130416371Y-96940075D01*
X130416371Y-96940075D02*
X130416371Y-97082932D01*
X130416371Y-97082932D02*
X130387800Y-97140075D01*
X130387800Y-97140075D02*
X130359228Y-97168646D01*
X130359228Y-97168646D02*
X130302085Y-97197217D01*
X130302085Y-97197217D02*
X130244942Y-97197217D01*
X130244942Y-97197217D02*
X130187800Y-97168646D01*
X130187800Y-97168646D02*
X130159228Y-97140075D01*
X130159228Y-97140075D02*
X130130657Y-97082932D01*
X130130657Y-97082932D02*
X130102085Y-96968646D01*
X130102085Y-96968646D02*
X130073514Y-96911503D01*
X130073514Y-96911503D02*
X130044942Y-96882932D01*
X130044942Y-96882932D02*
X129987800Y-96854360D01*
X129987800Y-96854360D02*
X129930657Y-96854360D01*
X129930657Y-96854360D02*
X129873514Y-96882932D01*
X129873514Y-96882932D02*
X129844942Y-96911503D01*
X129844942Y-96911503D02*
X129816371Y-96968646D01*
X129816371Y-96968646D02*
X129816371Y-97111503D01*
X129816371Y-97111503D02*
X129844942Y-97197217D01*
X130359228Y-97797218D02*
X130387800Y-97768646D01*
X130387800Y-97768646D02*
X130416371Y-97682932D01*
X130416371Y-97682932D02*
X130416371Y-97625789D01*
X130416371Y-97625789D02*
X130387800Y-97540075D01*
X130387800Y-97540075D02*
X130330657Y-97482932D01*
X130330657Y-97482932D02*
X130273514Y-97454361D01*
X130273514Y-97454361D02*
X130159228Y-97425789D01*
X130159228Y-97425789D02*
X130073514Y-97425789D01*
X130073514Y-97425789D02*
X129959228Y-97454361D01*
X129959228Y-97454361D02*
X129902085Y-97482932D01*
X129902085Y-97482932D02*
X129844942Y-97540075D01*
X129844942Y-97540075D02*
X129816371Y-97625789D01*
X129816371Y-97625789D02*
X129816371Y-97682932D01*
X129816371Y-97682932D02*
X129844942Y-97768646D01*
X129844942Y-97768646D02*
X129873514Y-97797218D01*
X130416371Y-98340075D02*
X130416371Y-98054361D01*
X130416371Y-98054361D02*
X129816371Y-98054361D01*
X117566371Y-91742931D02*
X118166371Y-91942931D01*
X118166371Y-91942931D02*
X117566371Y-92142931D01*
X118109228Y-92685789D02*
X118137800Y-92657217D01*
X118137800Y-92657217D02*
X118166371Y-92571503D01*
X118166371Y-92571503D02*
X118166371Y-92514360D01*
X118166371Y-92514360D02*
X118137800Y-92428646D01*
X118137800Y-92428646D02*
X118080657Y-92371503D01*
X118080657Y-92371503D02*
X118023514Y-92342932D01*
X118023514Y-92342932D02*
X117909228Y-92314360D01*
X117909228Y-92314360D02*
X117823514Y-92314360D01*
X117823514Y-92314360D02*
X117709228Y-92342932D01*
X117709228Y-92342932D02*
X117652085Y-92371503D01*
X117652085Y-92371503D02*
X117594942Y-92428646D01*
X117594942Y-92428646D02*
X117566371Y-92514360D01*
X117566371Y-92514360D02*
X117566371Y-92571503D01*
X117566371Y-92571503D02*
X117594942Y-92657217D01*
X117594942Y-92657217D02*
X117623514Y-92685789D01*
X118109228Y-93285789D02*
X118137800Y-93257217D01*
X118137800Y-93257217D02*
X118166371Y-93171503D01*
X118166371Y-93171503D02*
X118166371Y-93114360D01*
X118166371Y-93114360D02*
X118137800Y-93028646D01*
X118137800Y-93028646D02*
X118080657Y-92971503D01*
X118080657Y-92971503D02*
X118023514Y-92942932D01*
X118023514Y-92942932D02*
X117909228Y-92914360D01*
X117909228Y-92914360D02*
X117823514Y-92914360D01*
X117823514Y-92914360D02*
X117709228Y-92942932D01*
X117709228Y-92942932D02*
X117652085Y-92971503D01*
X117652085Y-92971503D02*
X117594942Y-93028646D01*
X117594942Y-93028646D02*
X117566371Y-93114360D01*
X117566371Y-93114360D02*
X117566371Y-93171503D01*
X117566371Y-93171503D02*
X117594942Y-93257217D01*
X117594942Y-93257217D02*
X117623514Y-93285789D01*
X119602085Y-92548646D02*
X119602085Y-92748646D01*
X119916371Y-92834360D02*
X119916371Y-92548646D01*
X119916371Y-92548646D02*
X119316371Y-92548646D01*
X119316371Y-92548646D02*
X119316371Y-92834360D01*
X119916371Y-93434360D02*
X119630657Y-93234360D01*
X119916371Y-93091503D02*
X119316371Y-93091503D01*
X119316371Y-93091503D02*
X119316371Y-93320074D01*
X119316371Y-93320074D02*
X119344942Y-93377217D01*
X119344942Y-93377217D02*
X119373514Y-93405788D01*
X119373514Y-93405788D02*
X119430657Y-93434360D01*
X119430657Y-93434360D02*
X119516371Y-93434360D01*
X119516371Y-93434360D02*
X119573514Y-93405788D01*
X119573514Y-93405788D02*
X119602085Y-93377217D01*
X119602085Y-93377217D02*
X119630657Y-93320074D01*
X119630657Y-93320074D02*
X119630657Y-93091503D01*
X119916371Y-94034360D02*
X119630657Y-93834360D01*
X119916371Y-93691503D02*
X119316371Y-93691503D01*
X119316371Y-93691503D02*
X119316371Y-93920074D01*
X119316371Y-93920074D02*
X119344942Y-93977217D01*
X119344942Y-93977217D02*
X119373514Y-94005788D01*
X119373514Y-94005788D02*
X119430657Y-94034360D01*
X119430657Y-94034360D02*
X119516371Y-94034360D01*
X119516371Y-94034360D02*
X119573514Y-94005788D01*
X119573514Y-94005788D02*
X119602085Y-93977217D01*
X119602085Y-93977217D02*
X119630657Y-93920074D01*
X119630657Y-93920074D02*
X119630657Y-93691503D01*
X119973514Y-94148646D02*
X119973514Y-94605788D01*
X119916371Y-95034360D02*
X119916371Y-94748646D01*
X119916371Y-94748646D02*
X119316371Y-94748646D01*
X119602085Y-95234360D02*
X119602085Y-95434360D01*
X119916371Y-95520074D02*
X119916371Y-95234360D01*
X119916371Y-95234360D02*
X119316371Y-95234360D01*
X119316371Y-95234360D02*
X119316371Y-95520074D01*
X119916371Y-95777217D02*
X119316371Y-95777217D01*
X119316371Y-95777217D02*
X119316371Y-95920074D01*
X119316371Y-95920074D02*
X119344942Y-96005788D01*
X119344942Y-96005788D02*
X119402085Y-96062931D01*
X119402085Y-96062931D02*
X119459228Y-96091502D01*
X119459228Y-96091502D02*
X119573514Y-96120074D01*
X119573514Y-96120074D02*
X119659228Y-96120074D01*
X119659228Y-96120074D02*
X119773514Y-96091502D01*
X119773514Y-96091502D02*
X119830657Y-96062931D01*
X119830657Y-96062931D02*
X119887800Y-96005788D01*
X119887800Y-96005788D02*
X119916371Y-95920074D01*
X119916371Y-95920074D02*
X119916371Y-95777217D01*
X119973514Y-96234360D02*
X119973514Y-96691502D01*
X119602085Y-96834360D02*
X119602085Y-97034360D01*
X119916371Y-97120074D02*
X119916371Y-96834360D01*
X119916371Y-96834360D02*
X119316371Y-96834360D01*
X119316371Y-96834360D02*
X119316371Y-97120074D01*
X119316371Y-97320074D02*
X119916371Y-97720074D01*
X119316371Y-97720074D02*
X119916371Y-97320074D01*
X119316371Y-97862931D02*
X119316371Y-98205789D01*
X119916371Y-98034360D02*
X119316371Y-98034360D01*
X120936353Y-118071371D02*
X120936353Y-117471371D01*
X120936353Y-117471371D02*
X120593496Y-118071371D01*
X120593496Y-118071371D02*
X120593496Y-117471371D01*
X119964925Y-118014228D02*
X119993497Y-118042800D01*
X119993497Y-118042800D02*
X120079211Y-118071371D01*
X120079211Y-118071371D02*
X120136354Y-118071371D01*
X120136354Y-118071371D02*
X120222068Y-118042800D01*
X120222068Y-118042800D02*
X120279211Y-117985657D01*
X120279211Y-117985657D02*
X120307782Y-117928514D01*
X120307782Y-117928514D02*
X120336354Y-117814228D01*
X120336354Y-117814228D02*
X120336354Y-117728514D01*
X120336354Y-117728514D02*
X120307782Y-117614228D01*
X120307782Y-117614228D02*
X120279211Y-117557085D01*
X120279211Y-117557085D02*
X120222068Y-117499942D01*
X120222068Y-117499942D02*
X120136354Y-117471371D01*
X120136354Y-117471371D02*
X120079211Y-117471371D01*
X120079211Y-117471371D02*
X119993497Y-117499942D01*
X119993497Y-117499942D02*
X119964925Y-117528514D01*
X126736353Y-119507085D02*
X126650639Y-119535657D01*
X126650639Y-119535657D02*
X126622068Y-119564228D01*
X126622068Y-119564228D02*
X126593496Y-119621371D01*
X126593496Y-119621371D02*
X126593496Y-119707085D01*
X126593496Y-119707085D02*
X126622068Y-119764228D01*
X126622068Y-119764228D02*
X126650639Y-119792800D01*
X126650639Y-119792800D02*
X126707782Y-119821371D01*
X126707782Y-119821371D02*
X126936353Y-119821371D01*
X126936353Y-119821371D02*
X126936353Y-119221371D01*
X126936353Y-119221371D02*
X126736353Y-119221371D01*
X126736353Y-119221371D02*
X126679211Y-119249942D01*
X126679211Y-119249942D02*
X126650639Y-119278514D01*
X126650639Y-119278514D02*
X126622068Y-119335657D01*
X126622068Y-119335657D02*
X126622068Y-119392800D01*
X126622068Y-119392800D02*
X126650639Y-119449942D01*
X126650639Y-119449942D02*
X126679211Y-119478514D01*
X126679211Y-119478514D02*
X126736353Y-119507085D01*
X126736353Y-119507085D02*
X126936353Y-119507085D01*
X126336353Y-119221371D02*
X126336353Y-119707085D01*
X126336353Y-119707085D02*
X126307782Y-119764228D01*
X126307782Y-119764228D02*
X126279211Y-119792800D01*
X126279211Y-119792800D02*
X126222068Y-119821371D01*
X126222068Y-119821371D02*
X126107782Y-119821371D01*
X126107782Y-119821371D02*
X126050639Y-119792800D01*
X126050639Y-119792800D02*
X126022068Y-119764228D01*
X126022068Y-119764228D02*
X125993496Y-119707085D01*
X125993496Y-119707085D02*
X125993496Y-119221371D01*
X125736354Y-119792800D02*
X125650640Y-119821371D01*
X125650640Y-119821371D02*
X125507782Y-119821371D01*
X125507782Y-119821371D02*
X125450640Y-119792800D01*
X125450640Y-119792800D02*
X125422068Y-119764228D01*
X125422068Y-119764228D02*
X125393497Y-119707085D01*
X125393497Y-119707085D02*
X125393497Y-119649942D01*
X125393497Y-119649942D02*
X125422068Y-119592800D01*
X125422068Y-119592800D02*
X125450640Y-119564228D01*
X125450640Y-119564228D02*
X125507782Y-119535657D01*
X125507782Y-119535657D02*
X125622068Y-119507085D01*
X125622068Y-119507085D02*
X125679211Y-119478514D01*
X125679211Y-119478514D02*
X125707782Y-119449942D01*
X125707782Y-119449942D02*
X125736354Y-119392800D01*
X125736354Y-119392800D02*
X125736354Y-119335657D01*
X125736354Y-119335657D02*
X125707782Y-119278514D01*
X125707782Y-119278514D02*
X125679211Y-119249942D01*
X125679211Y-119249942D02*
X125622068Y-119221371D01*
X125622068Y-119221371D02*
X125479211Y-119221371D01*
X125479211Y-119221371D02*
X125393497Y-119249942D01*
X124364925Y-119821371D02*
X124707782Y-119821371D01*
X124536353Y-119821371D02*
X124536353Y-119221371D01*
X124536353Y-119221371D02*
X124593496Y-119307085D01*
X124593496Y-119307085D02*
X124650639Y-119364228D01*
X124650639Y-119364228D02*
X124707782Y-119392800D01*
X126736353Y-116007085D02*
X126650639Y-116035657D01*
X126650639Y-116035657D02*
X126622068Y-116064228D01*
X126622068Y-116064228D02*
X126593496Y-116121371D01*
X126593496Y-116121371D02*
X126593496Y-116207085D01*
X126593496Y-116207085D02*
X126622068Y-116264228D01*
X126622068Y-116264228D02*
X126650639Y-116292800D01*
X126650639Y-116292800D02*
X126707782Y-116321371D01*
X126707782Y-116321371D02*
X126936353Y-116321371D01*
X126936353Y-116321371D02*
X126936353Y-115721371D01*
X126936353Y-115721371D02*
X126736353Y-115721371D01*
X126736353Y-115721371D02*
X126679211Y-115749942D01*
X126679211Y-115749942D02*
X126650639Y-115778514D01*
X126650639Y-115778514D02*
X126622068Y-115835657D01*
X126622068Y-115835657D02*
X126622068Y-115892800D01*
X126622068Y-115892800D02*
X126650639Y-115949942D01*
X126650639Y-115949942D02*
X126679211Y-115978514D01*
X126679211Y-115978514D02*
X126736353Y-116007085D01*
X126736353Y-116007085D02*
X126936353Y-116007085D01*
X126336353Y-115721371D02*
X126336353Y-116207085D01*
X126336353Y-116207085D02*
X126307782Y-116264228D01*
X126307782Y-116264228D02*
X126279211Y-116292800D01*
X126279211Y-116292800D02*
X126222068Y-116321371D01*
X126222068Y-116321371D02*
X126107782Y-116321371D01*
X126107782Y-116321371D02*
X126050639Y-116292800D01*
X126050639Y-116292800D02*
X126022068Y-116264228D01*
X126022068Y-116264228D02*
X125993496Y-116207085D01*
X125993496Y-116207085D02*
X125993496Y-115721371D01*
X125736354Y-116292800D02*
X125650640Y-116321371D01*
X125650640Y-116321371D02*
X125507782Y-116321371D01*
X125507782Y-116321371D02*
X125450640Y-116292800D01*
X125450640Y-116292800D02*
X125422068Y-116264228D01*
X125422068Y-116264228D02*
X125393497Y-116207085D01*
X125393497Y-116207085D02*
X125393497Y-116149942D01*
X125393497Y-116149942D02*
X125422068Y-116092800D01*
X125422068Y-116092800D02*
X125450640Y-116064228D01*
X125450640Y-116064228D02*
X125507782Y-116035657D01*
X125507782Y-116035657D02*
X125622068Y-116007085D01*
X125622068Y-116007085D02*
X125679211Y-115978514D01*
X125679211Y-115978514D02*
X125707782Y-115949942D01*
X125707782Y-115949942D02*
X125736354Y-115892800D01*
X125736354Y-115892800D02*
X125736354Y-115835657D01*
X125736354Y-115835657D02*
X125707782Y-115778514D01*
X125707782Y-115778514D02*
X125679211Y-115749942D01*
X125679211Y-115749942D02*
X125622068Y-115721371D01*
X125622068Y-115721371D02*
X125479211Y-115721371D01*
X125479211Y-115721371D02*
X125393497Y-115749942D01*
X124736353Y-115721371D02*
X124364925Y-115721371D01*
X124364925Y-115721371D02*
X124564925Y-115949942D01*
X124564925Y-115949942D02*
X124479210Y-115949942D01*
X124479210Y-115949942D02*
X124422068Y-115978514D01*
X124422068Y-115978514D02*
X124393496Y-116007085D01*
X124393496Y-116007085D02*
X124364925Y-116064228D01*
X124364925Y-116064228D02*
X124364925Y-116207085D01*
X124364925Y-116207085D02*
X124393496Y-116264228D01*
X124393496Y-116264228D02*
X124422068Y-116292800D01*
X124422068Y-116292800D02*
X124479210Y-116321371D01*
X124479210Y-116321371D02*
X124650639Y-116321371D01*
X124650639Y-116321371D02*
X124707782Y-116292800D01*
X124707782Y-116292800D02*
X124736353Y-116264228D01*
X128066371Y-91742931D02*
X128666371Y-91942931D01*
X128666371Y-91942931D02*
X128066371Y-92142931D01*
X128609228Y-92685789D02*
X128637800Y-92657217D01*
X128637800Y-92657217D02*
X128666371Y-92571503D01*
X128666371Y-92571503D02*
X128666371Y-92514360D01*
X128666371Y-92514360D02*
X128637800Y-92428646D01*
X128637800Y-92428646D02*
X128580657Y-92371503D01*
X128580657Y-92371503D02*
X128523514Y-92342932D01*
X128523514Y-92342932D02*
X128409228Y-92314360D01*
X128409228Y-92314360D02*
X128323514Y-92314360D01*
X128323514Y-92314360D02*
X128209228Y-92342932D01*
X128209228Y-92342932D02*
X128152085Y-92371503D01*
X128152085Y-92371503D02*
X128094942Y-92428646D01*
X128094942Y-92428646D02*
X128066371Y-92514360D01*
X128066371Y-92514360D02*
X128066371Y-92571503D01*
X128066371Y-92571503D02*
X128094942Y-92657217D01*
X128094942Y-92657217D02*
X128123514Y-92685789D01*
X128609228Y-93285789D02*
X128637800Y-93257217D01*
X128637800Y-93257217D02*
X128666371Y-93171503D01*
X128666371Y-93171503D02*
X128666371Y-93114360D01*
X128666371Y-93114360D02*
X128637800Y-93028646D01*
X128637800Y-93028646D02*
X128580657Y-92971503D01*
X128580657Y-92971503D02*
X128523514Y-92942932D01*
X128523514Y-92942932D02*
X128409228Y-92914360D01*
X128409228Y-92914360D02*
X128323514Y-92914360D01*
X128323514Y-92914360D02*
X128209228Y-92942932D01*
X128209228Y-92942932D02*
X128152085Y-92971503D01*
X128152085Y-92971503D02*
X128094942Y-93028646D01*
X128094942Y-93028646D02*
X128066371Y-93114360D01*
X128066371Y-93114360D02*
X128066371Y-93171503D01*
X128066371Y-93171503D02*
X128094942Y-93257217D01*
X128094942Y-93257217D02*
X128123514Y-93285789D01*
X121204942Y-92142931D02*
X121176371Y-92085789D01*
X121176371Y-92085789D02*
X121176371Y-92000074D01*
X121176371Y-92000074D02*
X121204942Y-91914360D01*
X121204942Y-91914360D02*
X121262085Y-91857217D01*
X121262085Y-91857217D02*
X121319228Y-91828646D01*
X121319228Y-91828646D02*
X121433514Y-91800074D01*
X121433514Y-91800074D02*
X121519228Y-91800074D01*
X121519228Y-91800074D02*
X121633514Y-91828646D01*
X121633514Y-91828646D02*
X121690657Y-91857217D01*
X121690657Y-91857217D02*
X121747800Y-91914360D01*
X121747800Y-91914360D02*
X121776371Y-92000074D01*
X121776371Y-92000074D02*
X121776371Y-92057217D01*
X121776371Y-92057217D02*
X121747800Y-92142931D01*
X121747800Y-92142931D02*
X121719228Y-92171503D01*
X121719228Y-92171503D02*
X121519228Y-92171503D01*
X121519228Y-92171503D02*
X121519228Y-92057217D01*
X121776371Y-92428646D02*
X121176371Y-92428646D01*
X121176371Y-92428646D02*
X121776371Y-92771503D01*
X121776371Y-92771503D02*
X121176371Y-92771503D01*
X121776371Y-93057217D02*
X121176371Y-93057217D01*
X121176371Y-93057217D02*
X121176371Y-93200074D01*
X121176371Y-93200074D02*
X121204942Y-93285788D01*
X121204942Y-93285788D02*
X121262085Y-93342931D01*
X121262085Y-93342931D02*
X121319228Y-93371502D01*
X121319228Y-93371502D02*
X121433514Y-93400074D01*
X121433514Y-93400074D02*
X121519228Y-93400074D01*
X121519228Y-93400074D02*
X121633514Y-93371502D01*
X121633514Y-93371502D02*
X121690657Y-93342931D01*
X121690657Y-93342931D02*
X121747800Y-93285788D01*
X121747800Y-93285788D02*
X121776371Y-93200074D01*
X121776371Y-93200074D02*
X121776371Y-93057217D01*
X126916371Y-94368646D02*
X126316371Y-94368646D01*
X126316371Y-94368646D02*
X126316371Y-94511503D01*
X126316371Y-94511503D02*
X126344942Y-94597217D01*
X126344942Y-94597217D02*
X126402085Y-94654360D01*
X126402085Y-94654360D02*
X126459228Y-94682931D01*
X126459228Y-94682931D02*
X126573514Y-94711503D01*
X126573514Y-94711503D02*
X126659228Y-94711503D01*
X126659228Y-94711503D02*
X126773514Y-94682931D01*
X126773514Y-94682931D02*
X126830657Y-94654360D01*
X126830657Y-94654360D02*
X126887800Y-94597217D01*
X126887800Y-94597217D02*
X126916371Y-94511503D01*
X126916371Y-94511503D02*
X126916371Y-94368646D01*
X126916371Y-94968646D02*
X126316371Y-94968646D01*
X126887800Y-95225788D02*
X126916371Y-95311503D01*
X126916371Y-95311503D02*
X126916371Y-95454360D01*
X126916371Y-95454360D02*
X126887800Y-95511503D01*
X126887800Y-95511503D02*
X126859228Y-95540074D01*
X126859228Y-95540074D02*
X126802085Y-95568645D01*
X126802085Y-95568645D02*
X126744942Y-95568645D01*
X126744942Y-95568645D02*
X126687800Y-95540074D01*
X126687800Y-95540074D02*
X126659228Y-95511503D01*
X126659228Y-95511503D02*
X126630657Y-95454360D01*
X126630657Y-95454360D02*
X126602085Y-95340074D01*
X126602085Y-95340074D02*
X126573514Y-95282931D01*
X126573514Y-95282931D02*
X126544942Y-95254360D01*
X126544942Y-95254360D02*
X126487800Y-95225788D01*
X126487800Y-95225788D02*
X126430657Y-95225788D01*
X126430657Y-95225788D02*
X126373514Y-95254360D01*
X126373514Y-95254360D02*
X126344942Y-95282931D01*
X126344942Y-95282931D02*
X126316371Y-95340074D01*
X126316371Y-95340074D02*
X126316371Y-95482931D01*
X126316371Y-95482931D02*
X126344942Y-95568645D01*
X126916371Y-95825789D02*
X126316371Y-95825789D01*
X126316371Y-95825789D02*
X126316371Y-96054360D01*
X126316371Y-96054360D02*
X126344942Y-96111503D01*
X126344942Y-96111503D02*
X126373514Y-96140074D01*
X126373514Y-96140074D02*
X126430657Y-96168646D01*
X126430657Y-96168646D02*
X126516371Y-96168646D01*
X126516371Y-96168646D02*
X126573514Y-96140074D01*
X126573514Y-96140074D02*
X126602085Y-96111503D01*
X126602085Y-96111503D02*
X126630657Y-96054360D01*
X126630657Y-96054360D02*
X126630657Y-95825789D01*
X126973514Y-96282932D02*
X126973514Y-96740074D01*
X126887800Y-96854360D02*
X126916371Y-96940075D01*
X126916371Y-96940075D02*
X126916371Y-97082932D01*
X126916371Y-97082932D02*
X126887800Y-97140075D01*
X126887800Y-97140075D02*
X126859228Y-97168646D01*
X126859228Y-97168646D02*
X126802085Y-97197217D01*
X126802085Y-97197217D02*
X126744942Y-97197217D01*
X126744942Y-97197217D02*
X126687800Y-97168646D01*
X126687800Y-97168646D02*
X126659228Y-97140075D01*
X126659228Y-97140075D02*
X126630657Y-97082932D01*
X126630657Y-97082932D02*
X126602085Y-96968646D01*
X126602085Y-96968646D02*
X126573514Y-96911503D01*
X126573514Y-96911503D02*
X126544942Y-96882932D01*
X126544942Y-96882932D02*
X126487800Y-96854360D01*
X126487800Y-96854360D02*
X126430657Y-96854360D01*
X126430657Y-96854360D02*
X126373514Y-96882932D01*
X126373514Y-96882932D02*
X126344942Y-96911503D01*
X126344942Y-96911503D02*
X126316371Y-96968646D01*
X126316371Y-96968646D02*
X126316371Y-97111503D01*
X126316371Y-97111503D02*
X126344942Y-97197217D01*
X126916371Y-97454361D02*
X126316371Y-97454361D01*
X126316371Y-97454361D02*
X126316371Y-97597218D01*
X126316371Y-97597218D02*
X126344942Y-97682932D01*
X126344942Y-97682932D02*
X126402085Y-97740075D01*
X126402085Y-97740075D02*
X126459228Y-97768646D01*
X126459228Y-97768646D02*
X126573514Y-97797218D01*
X126573514Y-97797218D02*
X126659228Y-97797218D01*
X126659228Y-97797218D02*
X126773514Y-97768646D01*
X126773514Y-97768646D02*
X126830657Y-97740075D01*
X126830657Y-97740075D02*
X126887800Y-97682932D01*
X126887800Y-97682932D02*
X126916371Y-97597218D01*
X126916371Y-97597218D02*
X126916371Y-97454361D01*
X126744942Y-98025789D02*
X126744942Y-98311504D01*
X126916371Y-97968646D02*
X126316371Y-98168646D01*
X126316371Y-98168646D02*
X126916371Y-98368646D01*
X124594942Y-92142931D02*
X124566371Y-92085789D01*
X124566371Y-92085789D02*
X124566371Y-92000074D01*
X124566371Y-92000074D02*
X124594942Y-91914360D01*
X124594942Y-91914360D02*
X124652085Y-91857217D01*
X124652085Y-91857217D02*
X124709228Y-91828646D01*
X124709228Y-91828646D02*
X124823514Y-91800074D01*
X124823514Y-91800074D02*
X124909228Y-91800074D01*
X124909228Y-91800074D02*
X125023514Y-91828646D01*
X125023514Y-91828646D02*
X125080657Y-91857217D01*
X125080657Y-91857217D02*
X125137800Y-91914360D01*
X125137800Y-91914360D02*
X125166371Y-92000074D01*
X125166371Y-92000074D02*
X125166371Y-92057217D01*
X125166371Y-92057217D02*
X125137800Y-92142931D01*
X125137800Y-92142931D02*
X125109228Y-92171503D01*
X125109228Y-92171503D02*
X124909228Y-92171503D01*
X124909228Y-92171503D02*
X124909228Y-92057217D01*
X125166371Y-92428646D02*
X124566371Y-92428646D01*
X124566371Y-92428646D02*
X125166371Y-92771503D01*
X125166371Y-92771503D02*
X124566371Y-92771503D01*
X125166371Y-93057217D02*
X124566371Y-93057217D01*
X124566371Y-93057217D02*
X124566371Y-93200074D01*
X124566371Y-93200074D02*
X124594942Y-93285788D01*
X124594942Y-93285788D02*
X124652085Y-93342931D01*
X124652085Y-93342931D02*
X124709228Y-93371502D01*
X124709228Y-93371502D02*
X124823514Y-93400074D01*
X124823514Y-93400074D02*
X124909228Y-93400074D01*
X124909228Y-93400074D02*
X125023514Y-93371502D01*
X125023514Y-93371502D02*
X125080657Y-93342931D01*
X125080657Y-93342931D02*
X125137800Y-93285788D01*
X125137800Y-93285788D02*
X125166371Y-93200074D01*
X125166371Y-93200074D02*
X125166371Y-93057217D01*
X33495000Y-128000000D02*
X133315000Y-128000000D01*
X33495000Y-78000000D02*
X133315000Y-78000000D01*
X126736353Y-66007085D02*
X126650639Y-66035657D01*
X126650639Y-66035657D02*
X126622068Y-66064228D01*
X126622068Y-66064228D02*
X126593496Y-66121371D01*
X126593496Y-66121371D02*
X126593496Y-66207085D01*
X126593496Y-66207085D02*
X126622068Y-66264228D01*
X126622068Y-66264228D02*
X126650639Y-66292800D01*
X126650639Y-66292800D02*
X126707782Y-66321371D01*
X126707782Y-66321371D02*
X126936353Y-66321371D01*
X126936353Y-66321371D02*
X126936353Y-65721371D01*
X126936353Y-65721371D02*
X126736353Y-65721371D01*
X126736353Y-65721371D02*
X126679211Y-65749942D01*
X126679211Y-65749942D02*
X126650639Y-65778514D01*
X126650639Y-65778514D02*
X126622068Y-65835657D01*
X126622068Y-65835657D02*
X126622068Y-65892800D01*
X126622068Y-65892800D02*
X126650639Y-65949942D01*
X126650639Y-65949942D02*
X126679211Y-65978514D01*
X126679211Y-65978514D02*
X126736353Y-66007085D01*
X126736353Y-66007085D02*
X126936353Y-66007085D01*
X126336353Y-65721371D02*
X126336353Y-66207085D01*
X126336353Y-66207085D02*
X126307782Y-66264228D01*
X126307782Y-66264228D02*
X126279211Y-66292800D01*
X126279211Y-66292800D02*
X126222068Y-66321371D01*
X126222068Y-66321371D02*
X126107782Y-66321371D01*
X126107782Y-66321371D02*
X126050639Y-66292800D01*
X126050639Y-66292800D02*
X126022068Y-66264228D01*
X126022068Y-66264228D02*
X125993496Y-66207085D01*
X125993496Y-66207085D02*
X125993496Y-65721371D01*
X125736354Y-66292800D02*
X125650640Y-66321371D01*
X125650640Y-66321371D02*
X125507782Y-66321371D01*
X125507782Y-66321371D02*
X125450640Y-66292800D01*
X125450640Y-66292800D02*
X125422068Y-66264228D01*
X125422068Y-66264228D02*
X125393497Y-66207085D01*
X125393497Y-66207085D02*
X125393497Y-66149942D01*
X125393497Y-66149942D02*
X125422068Y-66092800D01*
X125422068Y-66092800D02*
X125450640Y-66064228D01*
X125450640Y-66064228D02*
X125507782Y-66035657D01*
X125507782Y-66035657D02*
X125622068Y-66007085D01*
X125622068Y-66007085D02*
X125679211Y-65978514D01*
X125679211Y-65978514D02*
X125707782Y-65949942D01*
X125707782Y-65949942D02*
X125736354Y-65892800D01*
X125736354Y-65892800D02*
X125736354Y-65835657D01*
X125736354Y-65835657D02*
X125707782Y-65778514D01*
X125707782Y-65778514D02*
X125679211Y-65749942D01*
X125679211Y-65749942D02*
X125622068Y-65721371D01*
X125622068Y-65721371D02*
X125479211Y-65721371D01*
X125479211Y-65721371D02*
X125393497Y-65749942D01*
X124736353Y-65721371D02*
X124364925Y-65721371D01*
X124364925Y-65721371D02*
X124564925Y-65949942D01*
X124564925Y-65949942D02*
X124479210Y-65949942D01*
X124479210Y-65949942D02*
X124422068Y-65978514D01*
X124422068Y-65978514D02*
X124393496Y-66007085D01*
X124393496Y-66007085D02*
X124364925Y-66064228D01*
X124364925Y-66064228D02*
X124364925Y-66207085D01*
X124364925Y-66207085D02*
X124393496Y-66264228D01*
X124393496Y-66264228D02*
X124422068Y-66292800D01*
X124422068Y-66292800D02*
X124479210Y-66321371D01*
X124479210Y-66321371D02*
X124650639Y-66321371D01*
X124650639Y-66321371D02*
X124707782Y-66292800D01*
X124707782Y-66292800D02*
X124736353Y-66264228D01*
X124594942Y-42142931D02*
X124566371Y-42085789D01*
X124566371Y-42085789D02*
X124566371Y-42000074D01*
X124566371Y-42000074D02*
X124594942Y-41914360D01*
X124594942Y-41914360D02*
X124652085Y-41857217D01*
X124652085Y-41857217D02*
X124709228Y-41828646D01*
X124709228Y-41828646D02*
X124823514Y-41800074D01*
X124823514Y-41800074D02*
X124909228Y-41800074D01*
X124909228Y-41800074D02*
X125023514Y-41828646D01*
X125023514Y-41828646D02*
X125080657Y-41857217D01*
X125080657Y-41857217D02*
X125137800Y-41914360D01*
X125137800Y-41914360D02*
X125166371Y-42000074D01*
X125166371Y-42000074D02*
X125166371Y-42057217D01*
X125166371Y-42057217D02*
X125137800Y-42142931D01*
X125137800Y-42142931D02*
X125109228Y-42171503D01*
X125109228Y-42171503D02*
X124909228Y-42171503D01*
X124909228Y-42171503D02*
X124909228Y-42057217D01*
X125166371Y-42428646D02*
X124566371Y-42428646D01*
X124566371Y-42428646D02*
X125166371Y-42771503D01*
X125166371Y-42771503D02*
X124566371Y-42771503D01*
X125166371Y-43057217D02*
X124566371Y-43057217D01*
X124566371Y-43057217D02*
X124566371Y-43200074D01*
X124566371Y-43200074D02*
X124594942Y-43285788D01*
X124594942Y-43285788D02*
X124652085Y-43342931D01*
X124652085Y-43342931D02*
X124709228Y-43371502D01*
X124709228Y-43371502D02*
X124823514Y-43400074D01*
X124823514Y-43400074D02*
X124909228Y-43400074D01*
X124909228Y-43400074D02*
X125023514Y-43371502D01*
X125023514Y-43371502D02*
X125080657Y-43342931D01*
X125080657Y-43342931D02*
X125137800Y-43285788D01*
X125137800Y-43285788D02*
X125166371Y-43200074D01*
X125166371Y-43200074D02*
X125166371Y-43057217D01*
X121204942Y-42142931D02*
X121176371Y-42085789D01*
X121176371Y-42085789D02*
X121176371Y-42000074D01*
X121176371Y-42000074D02*
X121204942Y-41914360D01*
X121204942Y-41914360D02*
X121262085Y-41857217D01*
X121262085Y-41857217D02*
X121319228Y-41828646D01*
X121319228Y-41828646D02*
X121433514Y-41800074D01*
X121433514Y-41800074D02*
X121519228Y-41800074D01*
X121519228Y-41800074D02*
X121633514Y-41828646D01*
X121633514Y-41828646D02*
X121690657Y-41857217D01*
X121690657Y-41857217D02*
X121747800Y-41914360D01*
X121747800Y-41914360D02*
X121776371Y-42000074D01*
X121776371Y-42000074D02*
X121776371Y-42057217D01*
X121776371Y-42057217D02*
X121747800Y-42142931D01*
X121747800Y-42142931D02*
X121719228Y-42171503D01*
X121719228Y-42171503D02*
X121519228Y-42171503D01*
X121519228Y-42171503D02*
X121519228Y-42057217D01*
X121776371Y-42428646D02*
X121176371Y-42428646D01*
X121176371Y-42428646D02*
X121776371Y-42771503D01*
X121776371Y-42771503D02*
X121176371Y-42771503D01*
X121776371Y-43057217D02*
X121176371Y-43057217D01*
X121176371Y-43057217D02*
X121176371Y-43200074D01*
X121176371Y-43200074D02*
X121204942Y-43285788D01*
X121204942Y-43285788D02*
X121262085Y-43342931D01*
X121262085Y-43342931D02*
X121319228Y-43371502D01*
X121319228Y-43371502D02*
X121433514Y-43400074D01*
X121433514Y-43400074D02*
X121519228Y-43400074D01*
X121519228Y-43400074D02*
X121633514Y-43371502D01*
X121633514Y-43371502D02*
X121690657Y-43342931D01*
X121690657Y-43342931D02*
X121747800Y-43285788D01*
X121747800Y-43285788D02*
X121776371Y-43200074D01*
X121776371Y-43200074D02*
X121776371Y-43057217D01*
X128066371Y-41742931D02*
X128666371Y-41942931D01*
X128666371Y-41942931D02*
X128066371Y-42142931D01*
X128609228Y-42685789D02*
X128637800Y-42657217D01*
X128637800Y-42657217D02*
X128666371Y-42571503D01*
X128666371Y-42571503D02*
X128666371Y-42514360D01*
X128666371Y-42514360D02*
X128637800Y-42428646D01*
X128637800Y-42428646D02*
X128580657Y-42371503D01*
X128580657Y-42371503D02*
X128523514Y-42342932D01*
X128523514Y-42342932D02*
X128409228Y-42314360D01*
X128409228Y-42314360D02*
X128323514Y-42314360D01*
X128323514Y-42314360D02*
X128209228Y-42342932D01*
X128209228Y-42342932D02*
X128152085Y-42371503D01*
X128152085Y-42371503D02*
X128094942Y-42428646D01*
X128094942Y-42428646D02*
X128066371Y-42514360D01*
X128066371Y-42514360D02*
X128066371Y-42571503D01*
X128066371Y-42571503D02*
X128094942Y-42657217D01*
X128094942Y-42657217D02*
X128123514Y-42685789D01*
X128609228Y-43285789D02*
X128637800Y-43257217D01*
X128637800Y-43257217D02*
X128666371Y-43171503D01*
X128666371Y-43171503D02*
X128666371Y-43114360D01*
X128666371Y-43114360D02*
X128637800Y-43028646D01*
X128637800Y-43028646D02*
X128580657Y-42971503D01*
X128580657Y-42971503D02*
X128523514Y-42942932D01*
X128523514Y-42942932D02*
X128409228Y-42914360D01*
X128409228Y-42914360D02*
X128323514Y-42914360D01*
X128323514Y-42914360D02*
X128209228Y-42942932D01*
X128209228Y-42942932D02*
X128152085Y-42971503D01*
X128152085Y-42971503D02*
X128094942Y-43028646D01*
X128094942Y-43028646D02*
X128066371Y-43114360D01*
X128066371Y-43114360D02*
X128066371Y-43171503D01*
X128066371Y-43171503D02*
X128094942Y-43257217D01*
X128094942Y-43257217D02*
X128123514Y-43285789D01*
X126916371Y-44368646D02*
X126316371Y-44368646D01*
X126316371Y-44368646D02*
X126316371Y-44511503D01*
X126316371Y-44511503D02*
X126344942Y-44597217D01*
X126344942Y-44597217D02*
X126402085Y-44654360D01*
X126402085Y-44654360D02*
X126459228Y-44682931D01*
X126459228Y-44682931D02*
X126573514Y-44711503D01*
X126573514Y-44711503D02*
X126659228Y-44711503D01*
X126659228Y-44711503D02*
X126773514Y-44682931D01*
X126773514Y-44682931D02*
X126830657Y-44654360D01*
X126830657Y-44654360D02*
X126887800Y-44597217D01*
X126887800Y-44597217D02*
X126916371Y-44511503D01*
X126916371Y-44511503D02*
X126916371Y-44368646D01*
X126916371Y-44968646D02*
X126316371Y-44968646D01*
X126887800Y-45225788D02*
X126916371Y-45311503D01*
X126916371Y-45311503D02*
X126916371Y-45454360D01*
X126916371Y-45454360D02*
X126887800Y-45511503D01*
X126887800Y-45511503D02*
X126859228Y-45540074D01*
X126859228Y-45540074D02*
X126802085Y-45568645D01*
X126802085Y-45568645D02*
X126744942Y-45568645D01*
X126744942Y-45568645D02*
X126687800Y-45540074D01*
X126687800Y-45540074D02*
X126659228Y-45511503D01*
X126659228Y-45511503D02*
X126630657Y-45454360D01*
X126630657Y-45454360D02*
X126602085Y-45340074D01*
X126602085Y-45340074D02*
X126573514Y-45282931D01*
X126573514Y-45282931D02*
X126544942Y-45254360D01*
X126544942Y-45254360D02*
X126487800Y-45225788D01*
X126487800Y-45225788D02*
X126430657Y-45225788D01*
X126430657Y-45225788D02*
X126373514Y-45254360D01*
X126373514Y-45254360D02*
X126344942Y-45282931D01*
X126344942Y-45282931D02*
X126316371Y-45340074D01*
X126316371Y-45340074D02*
X126316371Y-45482931D01*
X126316371Y-45482931D02*
X126344942Y-45568645D01*
X126916371Y-45825789D02*
X126316371Y-45825789D01*
X126316371Y-45825789D02*
X126316371Y-46054360D01*
X126316371Y-46054360D02*
X126344942Y-46111503D01*
X126344942Y-46111503D02*
X126373514Y-46140074D01*
X126373514Y-46140074D02*
X126430657Y-46168646D01*
X126430657Y-46168646D02*
X126516371Y-46168646D01*
X126516371Y-46168646D02*
X126573514Y-46140074D01*
X126573514Y-46140074D02*
X126602085Y-46111503D01*
X126602085Y-46111503D02*
X126630657Y-46054360D01*
X126630657Y-46054360D02*
X126630657Y-45825789D01*
X126973514Y-46282932D02*
X126973514Y-46740074D01*
X126887800Y-46854360D02*
X126916371Y-46940075D01*
X126916371Y-46940075D02*
X126916371Y-47082932D01*
X126916371Y-47082932D02*
X126887800Y-47140075D01*
X126887800Y-47140075D02*
X126859228Y-47168646D01*
X126859228Y-47168646D02*
X126802085Y-47197217D01*
X126802085Y-47197217D02*
X126744942Y-47197217D01*
X126744942Y-47197217D02*
X126687800Y-47168646D01*
X126687800Y-47168646D02*
X126659228Y-47140075D01*
X126659228Y-47140075D02*
X126630657Y-47082932D01*
X126630657Y-47082932D02*
X126602085Y-46968646D01*
X126602085Y-46968646D02*
X126573514Y-46911503D01*
X126573514Y-46911503D02*
X126544942Y-46882932D01*
X126544942Y-46882932D02*
X126487800Y-46854360D01*
X126487800Y-46854360D02*
X126430657Y-46854360D01*
X126430657Y-46854360D02*
X126373514Y-46882932D01*
X126373514Y-46882932D02*
X126344942Y-46911503D01*
X126344942Y-46911503D02*
X126316371Y-46968646D01*
X126316371Y-46968646D02*
X126316371Y-47111503D01*
X126316371Y-47111503D02*
X126344942Y-47197217D01*
X126916371Y-47454361D02*
X126316371Y-47454361D01*
X126316371Y-47454361D02*
X126316371Y-47597218D01*
X126316371Y-47597218D02*
X126344942Y-47682932D01*
X126344942Y-47682932D02*
X126402085Y-47740075D01*
X126402085Y-47740075D02*
X126459228Y-47768646D01*
X126459228Y-47768646D02*
X126573514Y-47797218D01*
X126573514Y-47797218D02*
X126659228Y-47797218D01*
X126659228Y-47797218D02*
X126773514Y-47768646D01*
X126773514Y-47768646D02*
X126830657Y-47740075D01*
X126830657Y-47740075D02*
X126887800Y-47682932D01*
X126887800Y-47682932D02*
X126916371Y-47597218D01*
X126916371Y-47597218D02*
X126916371Y-47454361D01*
X126744942Y-48025789D02*
X126744942Y-48311504D01*
X126916371Y-47968646D02*
X126316371Y-48168646D01*
X126316371Y-48168646D02*
X126916371Y-48368646D01*
X126736353Y-69507085D02*
X126650639Y-69535657D01*
X126650639Y-69535657D02*
X126622068Y-69564228D01*
X126622068Y-69564228D02*
X126593496Y-69621371D01*
X126593496Y-69621371D02*
X126593496Y-69707085D01*
X126593496Y-69707085D02*
X126622068Y-69764228D01*
X126622068Y-69764228D02*
X126650639Y-69792800D01*
X126650639Y-69792800D02*
X126707782Y-69821371D01*
X126707782Y-69821371D02*
X126936353Y-69821371D01*
X126936353Y-69821371D02*
X126936353Y-69221371D01*
X126936353Y-69221371D02*
X126736353Y-69221371D01*
X126736353Y-69221371D02*
X126679211Y-69249942D01*
X126679211Y-69249942D02*
X126650639Y-69278514D01*
X126650639Y-69278514D02*
X126622068Y-69335657D01*
X126622068Y-69335657D02*
X126622068Y-69392800D01*
X126622068Y-69392800D02*
X126650639Y-69449942D01*
X126650639Y-69449942D02*
X126679211Y-69478514D01*
X126679211Y-69478514D02*
X126736353Y-69507085D01*
X126736353Y-69507085D02*
X126936353Y-69507085D01*
X126336353Y-69221371D02*
X126336353Y-69707085D01*
X126336353Y-69707085D02*
X126307782Y-69764228D01*
X126307782Y-69764228D02*
X126279211Y-69792800D01*
X126279211Y-69792800D02*
X126222068Y-69821371D01*
X126222068Y-69821371D02*
X126107782Y-69821371D01*
X126107782Y-69821371D02*
X126050639Y-69792800D01*
X126050639Y-69792800D02*
X126022068Y-69764228D01*
X126022068Y-69764228D02*
X125993496Y-69707085D01*
X125993496Y-69707085D02*
X125993496Y-69221371D01*
X125736354Y-69792800D02*
X125650640Y-69821371D01*
X125650640Y-69821371D02*
X125507782Y-69821371D01*
X125507782Y-69821371D02*
X125450640Y-69792800D01*
X125450640Y-69792800D02*
X125422068Y-69764228D01*
X125422068Y-69764228D02*
X125393497Y-69707085D01*
X125393497Y-69707085D02*
X125393497Y-69649942D01*
X125393497Y-69649942D02*
X125422068Y-69592800D01*
X125422068Y-69592800D02*
X125450640Y-69564228D01*
X125450640Y-69564228D02*
X125507782Y-69535657D01*
X125507782Y-69535657D02*
X125622068Y-69507085D01*
X125622068Y-69507085D02*
X125679211Y-69478514D01*
X125679211Y-69478514D02*
X125707782Y-69449942D01*
X125707782Y-69449942D02*
X125736354Y-69392800D01*
X125736354Y-69392800D02*
X125736354Y-69335657D01*
X125736354Y-69335657D02*
X125707782Y-69278514D01*
X125707782Y-69278514D02*
X125679211Y-69249942D01*
X125679211Y-69249942D02*
X125622068Y-69221371D01*
X125622068Y-69221371D02*
X125479211Y-69221371D01*
X125479211Y-69221371D02*
X125393497Y-69249942D01*
X124364925Y-69821371D02*
X124707782Y-69821371D01*
X124536353Y-69821371D02*
X124536353Y-69221371D01*
X124536353Y-69221371D02*
X124593496Y-69307085D01*
X124593496Y-69307085D02*
X124650639Y-69364228D01*
X124650639Y-69364228D02*
X124707782Y-69392800D01*
X120936353Y-68071371D02*
X120936353Y-67471371D01*
X120936353Y-67471371D02*
X120593496Y-68071371D01*
X120593496Y-68071371D02*
X120593496Y-67471371D01*
X119964925Y-68014228D02*
X119993497Y-68042800D01*
X119993497Y-68042800D02*
X120079211Y-68071371D01*
X120079211Y-68071371D02*
X120136354Y-68071371D01*
X120136354Y-68071371D02*
X120222068Y-68042800D01*
X120222068Y-68042800D02*
X120279211Y-67985657D01*
X120279211Y-67985657D02*
X120307782Y-67928514D01*
X120307782Y-67928514D02*
X120336354Y-67814228D01*
X120336354Y-67814228D02*
X120336354Y-67728514D01*
X120336354Y-67728514D02*
X120307782Y-67614228D01*
X120307782Y-67614228D02*
X120279211Y-67557085D01*
X120279211Y-67557085D02*
X120222068Y-67499942D01*
X120222068Y-67499942D02*
X120136354Y-67471371D01*
X120136354Y-67471371D02*
X120079211Y-67471371D01*
X120079211Y-67471371D02*
X119993497Y-67499942D01*
X119993497Y-67499942D02*
X119964925Y-67528514D01*
X119602085Y-42548646D02*
X119602085Y-42748646D01*
X119916371Y-42834360D02*
X119916371Y-42548646D01*
X119916371Y-42548646D02*
X119316371Y-42548646D01*
X119316371Y-42548646D02*
X119316371Y-42834360D01*
X119916371Y-43434360D02*
X119630657Y-43234360D01*
X119916371Y-43091503D02*
X119316371Y-43091503D01*
X119316371Y-43091503D02*
X119316371Y-43320074D01*
X119316371Y-43320074D02*
X119344942Y-43377217D01*
X119344942Y-43377217D02*
X119373514Y-43405788D01*
X119373514Y-43405788D02*
X119430657Y-43434360D01*
X119430657Y-43434360D02*
X119516371Y-43434360D01*
X119516371Y-43434360D02*
X119573514Y-43405788D01*
X119573514Y-43405788D02*
X119602085Y-43377217D01*
X119602085Y-43377217D02*
X119630657Y-43320074D01*
X119630657Y-43320074D02*
X119630657Y-43091503D01*
X119916371Y-44034360D02*
X119630657Y-43834360D01*
X119916371Y-43691503D02*
X119316371Y-43691503D01*
X119316371Y-43691503D02*
X119316371Y-43920074D01*
X119316371Y-43920074D02*
X119344942Y-43977217D01*
X119344942Y-43977217D02*
X119373514Y-44005788D01*
X119373514Y-44005788D02*
X119430657Y-44034360D01*
X119430657Y-44034360D02*
X119516371Y-44034360D01*
X119516371Y-44034360D02*
X119573514Y-44005788D01*
X119573514Y-44005788D02*
X119602085Y-43977217D01*
X119602085Y-43977217D02*
X119630657Y-43920074D01*
X119630657Y-43920074D02*
X119630657Y-43691503D01*
X119973514Y-44148646D02*
X119973514Y-44605788D01*
X119916371Y-45034360D02*
X119916371Y-44748646D01*
X119916371Y-44748646D02*
X119316371Y-44748646D01*
X119602085Y-45234360D02*
X119602085Y-45434360D01*
X119916371Y-45520074D02*
X119916371Y-45234360D01*
X119916371Y-45234360D02*
X119316371Y-45234360D01*
X119316371Y-45234360D02*
X119316371Y-45520074D01*
X119916371Y-45777217D02*
X119316371Y-45777217D01*
X119316371Y-45777217D02*
X119316371Y-45920074D01*
X119316371Y-45920074D02*
X119344942Y-46005788D01*
X119344942Y-46005788D02*
X119402085Y-46062931D01*
X119402085Y-46062931D02*
X119459228Y-46091502D01*
X119459228Y-46091502D02*
X119573514Y-46120074D01*
X119573514Y-46120074D02*
X119659228Y-46120074D01*
X119659228Y-46120074D02*
X119773514Y-46091502D01*
X119773514Y-46091502D02*
X119830657Y-46062931D01*
X119830657Y-46062931D02*
X119887800Y-46005788D01*
X119887800Y-46005788D02*
X119916371Y-45920074D01*
X119916371Y-45920074D02*
X119916371Y-45777217D01*
X119973514Y-46234360D02*
X119973514Y-46691502D01*
X119602085Y-46834360D02*
X119602085Y-47034360D01*
X119916371Y-47120074D02*
X119916371Y-46834360D01*
X119916371Y-46834360D02*
X119316371Y-46834360D01*
X119316371Y-46834360D02*
X119316371Y-47120074D01*
X119316371Y-47320074D02*
X119916371Y-47720074D01*
X119316371Y-47720074D02*
X119916371Y-47320074D01*
X119316371Y-47862931D02*
X119316371Y-48205789D01*
X119916371Y-48034360D02*
X119316371Y-48034360D01*
X117566371Y-41742931D02*
X118166371Y-41942931D01*
X118166371Y-41942931D02*
X117566371Y-42142931D01*
X118109228Y-42685789D02*
X118137800Y-42657217D01*
X118137800Y-42657217D02*
X118166371Y-42571503D01*
X118166371Y-42571503D02*
X118166371Y-42514360D01*
X118166371Y-42514360D02*
X118137800Y-42428646D01*
X118137800Y-42428646D02*
X118080657Y-42371503D01*
X118080657Y-42371503D02*
X118023514Y-42342932D01*
X118023514Y-42342932D02*
X117909228Y-42314360D01*
X117909228Y-42314360D02*
X117823514Y-42314360D01*
X117823514Y-42314360D02*
X117709228Y-42342932D01*
X117709228Y-42342932D02*
X117652085Y-42371503D01*
X117652085Y-42371503D02*
X117594942Y-42428646D01*
X117594942Y-42428646D02*
X117566371Y-42514360D01*
X117566371Y-42514360D02*
X117566371Y-42571503D01*
X117566371Y-42571503D02*
X117594942Y-42657217D01*
X117594942Y-42657217D02*
X117623514Y-42685789D01*
X118109228Y-43285789D02*
X118137800Y-43257217D01*
X118137800Y-43257217D02*
X118166371Y-43171503D01*
X118166371Y-43171503D02*
X118166371Y-43114360D01*
X118166371Y-43114360D02*
X118137800Y-43028646D01*
X118137800Y-43028646D02*
X118080657Y-42971503D01*
X118080657Y-42971503D02*
X118023514Y-42942932D01*
X118023514Y-42942932D02*
X117909228Y-42914360D01*
X117909228Y-42914360D02*
X117823514Y-42914360D01*
X117823514Y-42914360D02*
X117709228Y-42942932D01*
X117709228Y-42942932D02*
X117652085Y-42971503D01*
X117652085Y-42971503D02*
X117594942Y-43028646D01*
X117594942Y-43028646D02*
X117566371Y-43114360D01*
X117566371Y-43114360D02*
X117566371Y-43171503D01*
X117566371Y-43171503D02*
X117594942Y-43257217D01*
X117594942Y-43257217D02*
X117623514Y-43285789D01*
X130416371Y-44368646D02*
X129816371Y-44368646D01*
X129816371Y-44368646D02*
X129816371Y-44511503D01*
X129816371Y-44511503D02*
X129844942Y-44597217D01*
X129844942Y-44597217D02*
X129902085Y-44654360D01*
X129902085Y-44654360D02*
X129959228Y-44682931D01*
X129959228Y-44682931D02*
X130073514Y-44711503D01*
X130073514Y-44711503D02*
X130159228Y-44711503D01*
X130159228Y-44711503D02*
X130273514Y-44682931D01*
X130273514Y-44682931D02*
X130330657Y-44654360D01*
X130330657Y-44654360D02*
X130387800Y-44597217D01*
X130387800Y-44597217D02*
X130416371Y-44511503D01*
X130416371Y-44511503D02*
X130416371Y-44368646D01*
X130416371Y-44968646D02*
X129816371Y-44968646D01*
X130387800Y-45225788D02*
X130416371Y-45311503D01*
X130416371Y-45311503D02*
X130416371Y-45454360D01*
X130416371Y-45454360D02*
X130387800Y-45511503D01*
X130387800Y-45511503D02*
X130359228Y-45540074D01*
X130359228Y-45540074D02*
X130302085Y-45568645D01*
X130302085Y-45568645D02*
X130244942Y-45568645D01*
X130244942Y-45568645D02*
X130187800Y-45540074D01*
X130187800Y-45540074D02*
X130159228Y-45511503D01*
X130159228Y-45511503D02*
X130130657Y-45454360D01*
X130130657Y-45454360D02*
X130102085Y-45340074D01*
X130102085Y-45340074D02*
X130073514Y-45282931D01*
X130073514Y-45282931D02*
X130044942Y-45254360D01*
X130044942Y-45254360D02*
X129987800Y-45225788D01*
X129987800Y-45225788D02*
X129930657Y-45225788D01*
X129930657Y-45225788D02*
X129873514Y-45254360D01*
X129873514Y-45254360D02*
X129844942Y-45282931D01*
X129844942Y-45282931D02*
X129816371Y-45340074D01*
X129816371Y-45340074D02*
X129816371Y-45482931D01*
X129816371Y-45482931D02*
X129844942Y-45568645D01*
X130416371Y-45825789D02*
X129816371Y-45825789D01*
X129816371Y-45825789D02*
X129816371Y-46054360D01*
X129816371Y-46054360D02*
X129844942Y-46111503D01*
X129844942Y-46111503D02*
X129873514Y-46140074D01*
X129873514Y-46140074D02*
X129930657Y-46168646D01*
X129930657Y-46168646D02*
X130016371Y-46168646D01*
X130016371Y-46168646D02*
X130073514Y-46140074D01*
X130073514Y-46140074D02*
X130102085Y-46111503D01*
X130102085Y-46111503D02*
X130130657Y-46054360D01*
X130130657Y-46054360D02*
X130130657Y-45825789D01*
X130473514Y-46282932D02*
X130473514Y-46740074D01*
X130387800Y-46854360D02*
X130416371Y-46940075D01*
X130416371Y-46940075D02*
X130416371Y-47082932D01*
X130416371Y-47082932D02*
X130387800Y-47140075D01*
X130387800Y-47140075D02*
X130359228Y-47168646D01*
X130359228Y-47168646D02*
X130302085Y-47197217D01*
X130302085Y-47197217D02*
X130244942Y-47197217D01*
X130244942Y-47197217D02*
X130187800Y-47168646D01*
X130187800Y-47168646D02*
X130159228Y-47140075D01*
X130159228Y-47140075D02*
X130130657Y-47082932D01*
X130130657Y-47082932D02*
X130102085Y-46968646D01*
X130102085Y-46968646D02*
X130073514Y-46911503D01*
X130073514Y-46911503D02*
X130044942Y-46882932D01*
X130044942Y-46882932D02*
X129987800Y-46854360D01*
X129987800Y-46854360D02*
X129930657Y-46854360D01*
X129930657Y-46854360D02*
X129873514Y-46882932D01*
X129873514Y-46882932D02*
X129844942Y-46911503D01*
X129844942Y-46911503D02*
X129816371Y-46968646D01*
X129816371Y-46968646D02*
X129816371Y-47111503D01*
X129816371Y-47111503D02*
X129844942Y-47197217D01*
X130359228Y-47797218D02*
X130387800Y-47768646D01*
X130387800Y-47768646D02*
X130416371Y-47682932D01*
X130416371Y-47682932D02*
X130416371Y-47625789D01*
X130416371Y-47625789D02*
X130387800Y-47540075D01*
X130387800Y-47540075D02*
X130330657Y-47482932D01*
X130330657Y-47482932D02*
X130273514Y-47454361D01*
X130273514Y-47454361D02*
X130159228Y-47425789D01*
X130159228Y-47425789D02*
X130073514Y-47425789D01*
X130073514Y-47425789D02*
X129959228Y-47454361D01*
X129959228Y-47454361D02*
X129902085Y-47482932D01*
X129902085Y-47482932D02*
X129844942Y-47540075D01*
X129844942Y-47540075D02*
X129816371Y-47625789D01*
X129816371Y-47625789D02*
X129816371Y-47682932D01*
X129816371Y-47682932D02*
X129844942Y-47768646D01*
X129844942Y-47768646D02*
X129873514Y-47797218D01*
X130416371Y-48340075D02*
X130416371Y-48054361D01*
X130416371Y-48054361D02*
X129816371Y-48054361D01*
X123416371Y-43048646D02*
X122816371Y-43048646D01*
X122816371Y-43048646D02*
X122816371Y-43191503D01*
X122816371Y-43191503D02*
X122844942Y-43277217D01*
X122844942Y-43277217D02*
X122902085Y-43334360D01*
X122902085Y-43334360D02*
X122959228Y-43362931D01*
X122959228Y-43362931D02*
X123073514Y-43391503D01*
X123073514Y-43391503D02*
X123159228Y-43391503D01*
X123159228Y-43391503D02*
X123273514Y-43362931D01*
X123273514Y-43362931D02*
X123330657Y-43334360D01*
X123330657Y-43334360D02*
X123387800Y-43277217D01*
X123387800Y-43277217D02*
X123416371Y-43191503D01*
X123416371Y-43191503D02*
X123416371Y-43048646D01*
X123102085Y-43648646D02*
X123102085Y-43848646D01*
X123416371Y-43934360D02*
X123416371Y-43648646D01*
X123416371Y-43648646D02*
X122816371Y-43648646D01*
X122816371Y-43648646D02*
X122816371Y-43934360D01*
X123102085Y-44391503D02*
X123102085Y-44191503D01*
X123416371Y-44191503D02*
X122816371Y-44191503D01*
X122816371Y-44191503D02*
X122816371Y-44477217D01*
X123244942Y-44677217D02*
X123244942Y-44962932D01*
X123416371Y-44620074D02*
X122816371Y-44820074D01*
X122816371Y-44820074D02*
X123416371Y-45020074D01*
X122816371Y-45220075D02*
X123302085Y-45220075D01*
X123302085Y-45220075D02*
X123359228Y-45248646D01*
X123359228Y-45248646D02*
X123387800Y-45277218D01*
X123387800Y-45277218D02*
X123416371Y-45334360D01*
X123416371Y-45334360D02*
X123416371Y-45448646D01*
X123416371Y-45448646D02*
X123387800Y-45505789D01*
X123387800Y-45505789D02*
X123359228Y-45534360D01*
X123359228Y-45534360D02*
X123302085Y-45562932D01*
X123302085Y-45562932D02*
X122816371Y-45562932D01*
X123416371Y-46134360D02*
X123416371Y-45848646D01*
X123416371Y-45848646D02*
X122816371Y-45848646D01*
X122816371Y-46248645D02*
X122816371Y-46591503D01*
X123416371Y-46420074D02*
X122816371Y-46420074D01*
X123473514Y-46648646D02*
X123473514Y-47105788D01*
X123387800Y-47220074D02*
X123416371Y-47305789D01*
X123416371Y-47305789D02*
X123416371Y-47448646D01*
X123416371Y-47448646D02*
X123387800Y-47505789D01*
X123387800Y-47505789D02*
X123359228Y-47534360D01*
X123359228Y-47534360D02*
X123302085Y-47562931D01*
X123302085Y-47562931D02*
X123244942Y-47562931D01*
X123244942Y-47562931D02*
X123187800Y-47534360D01*
X123187800Y-47534360D02*
X123159228Y-47505789D01*
X123159228Y-47505789D02*
X123130657Y-47448646D01*
X123130657Y-47448646D02*
X123102085Y-47334360D01*
X123102085Y-47334360D02*
X123073514Y-47277217D01*
X123073514Y-47277217D02*
X123044942Y-47248646D01*
X123044942Y-47248646D02*
X122987800Y-47220074D01*
X122987800Y-47220074D02*
X122930657Y-47220074D01*
X122930657Y-47220074D02*
X122873514Y-47248646D01*
X122873514Y-47248646D02*
X122844942Y-47277217D01*
X122844942Y-47277217D02*
X122816371Y-47334360D01*
X122816371Y-47334360D02*
X122816371Y-47477217D01*
X122816371Y-47477217D02*
X122844942Y-47562931D01*
X122816371Y-47762932D02*
X123416371Y-47905789D01*
X123416371Y-47905789D02*
X122987800Y-48020075D01*
X122987800Y-48020075D02*
X123416371Y-48134360D01*
X123416371Y-48134360D02*
X122816371Y-48277218D01*
X122236353Y-71257085D02*
X122150639Y-71285657D01*
X122150639Y-71285657D02*
X122122068Y-71314228D01*
X122122068Y-71314228D02*
X122093496Y-71371371D01*
X122093496Y-71371371D02*
X122093496Y-71457085D01*
X122093496Y-71457085D02*
X122122068Y-71514228D01*
X122122068Y-71514228D02*
X122150639Y-71542800D01*
X122150639Y-71542800D02*
X122207782Y-71571371D01*
X122207782Y-71571371D02*
X122436353Y-71571371D01*
X122436353Y-71571371D02*
X122436353Y-70971371D01*
X122436353Y-70971371D02*
X122236353Y-70971371D01*
X122236353Y-70971371D02*
X122179211Y-70999942D01*
X122179211Y-70999942D02*
X122150639Y-71028514D01*
X122150639Y-71028514D02*
X122122068Y-71085657D01*
X122122068Y-71085657D02*
X122122068Y-71142800D01*
X122122068Y-71142800D02*
X122150639Y-71199942D01*
X122150639Y-71199942D02*
X122179211Y-71228514D01*
X122179211Y-71228514D02*
X122236353Y-71257085D01*
X122236353Y-71257085D02*
X122436353Y-71257085D01*
X121836353Y-70971371D02*
X121836353Y-71457085D01*
X121836353Y-71457085D02*
X121807782Y-71514228D01*
X121807782Y-71514228D02*
X121779211Y-71542800D01*
X121779211Y-71542800D02*
X121722068Y-71571371D01*
X121722068Y-71571371D02*
X121607782Y-71571371D01*
X121607782Y-71571371D02*
X121550639Y-71542800D01*
X121550639Y-71542800D02*
X121522068Y-71514228D01*
X121522068Y-71514228D02*
X121493496Y-71457085D01*
X121493496Y-71457085D02*
X121493496Y-70971371D01*
X121236354Y-71542800D02*
X121150640Y-71571371D01*
X121150640Y-71571371D02*
X121007782Y-71571371D01*
X121007782Y-71571371D02*
X120950640Y-71542800D01*
X120950640Y-71542800D02*
X120922068Y-71514228D01*
X120922068Y-71514228D02*
X120893497Y-71457085D01*
X120893497Y-71457085D02*
X120893497Y-71399942D01*
X120893497Y-71399942D02*
X120922068Y-71342800D01*
X120922068Y-71342800D02*
X120950640Y-71314228D01*
X120950640Y-71314228D02*
X121007782Y-71285657D01*
X121007782Y-71285657D02*
X121122068Y-71257085D01*
X121122068Y-71257085D02*
X121179211Y-71228514D01*
X121179211Y-71228514D02*
X121207782Y-71199942D01*
X121207782Y-71199942D02*
X121236354Y-71142800D01*
X121236354Y-71142800D02*
X121236354Y-71085657D01*
X121236354Y-71085657D02*
X121207782Y-71028514D01*
X121207782Y-71028514D02*
X121179211Y-70999942D01*
X121179211Y-70999942D02*
X121122068Y-70971371D01*
X121122068Y-70971371D02*
X120979211Y-70971371D01*
X120979211Y-70971371D02*
X120893497Y-70999942D01*
X120207782Y-71028514D02*
X120179210Y-70999942D01*
X120179210Y-70999942D02*
X120122068Y-70971371D01*
X120122068Y-70971371D02*
X119979210Y-70971371D01*
X119979210Y-70971371D02*
X119922068Y-70999942D01*
X119922068Y-70999942D02*
X119893496Y-71028514D01*
X119893496Y-71028514D02*
X119864925Y-71085657D01*
X119864925Y-71085657D02*
X119864925Y-71142800D01*
X119864925Y-71142800D02*
X119893496Y-71228514D01*
X119893496Y-71228514D02*
X120236353Y-71571371D01*
X120236353Y-71571371D02*
X119864925Y-71571371D01*
X122236353Y-74757085D02*
X122150639Y-74785657D01*
X122150639Y-74785657D02*
X122122068Y-74814228D01*
X122122068Y-74814228D02*
X122093496Y-74871371D01*
X122093496Y-74871371D02*
X122093496Y-74957085D01*
X122093496Y-74957085D02*
X122122068Y-75014228D01*
X122122068Y-75014228D02*
X122150639Y-75042800D01*
X122150639Y-75042800D02*
X122207782Y-75071371D01*
X122207782Y-75071371D02*
X122436353Y-75071371D01*
X122436353Y-75071371D02*
X122436353Y-74471371D01*
X122436353Y-74471371D02*
X122236353Y-74471371D01*
X122236353Y-74471371D02*
X122179211Y-74499942D01*
X122179211Y-74499942D02*
X122150639Y-74528514D01*
X122150639Y-74528514D02*
X122122068Y-74585657D01*
X122122068Y-74585657D02*
X122122068Y-74642800D01*
X122122068Y-74642800D02*
X122150639Y-74699942D01*
X122150639Y-74699942D02*
X122179211Y-74728514D01*
X122179211Y-74728514D02*
X122236353Y-74757085D01*
X122236353Y-74757085D02*
X122436353Y-74757085D01*
X121836353Y-74471371D02*
X121836353Y-74957085D01*
X121836353Y-74957085D02*
X121807782Y-75014228D01*
X121807782Y-75014228D02*
X121779211Y-75042800D01*
X121779211Y-75042800D02*
X121722068Y-75071371D01*
X121722068Y-75071371D02*
X121607782Y-75071371D01*
X121607782Y-75071371D02*
X121550639Y-75042800D01*
X121550639Y-75042800D02*
X121522068Y-75014228D01*
X121522068Y-75014228D02*
X121493496Y-74957085D01*
X121493496Y-74957085D02*
X121493496Y-74471371D01*
X121236354Y-75042800D02*
X121150640Y-75071371D01*
X121150640Y-75071371D02*
X121007782Y-75071371D01*
X121007782Y-75071371D02*
X120950640Y-75042800D01*
X120950640Y-75042800D02*
X120922068Y-75014228D01*
X120922068Y-75014228D02*
X120893497Y-74957085D01*
X120893497Y-74957085D02*
X120893497Y-74899942D01*
X120893497Y-74899942D02*
X120922068Y-74842800D01*
X120922068Y-74842800D02*
X120950640Y-74814228D01*
X120950640Y-74814228D02*
X121007782Y-74785657D01*
X121007782Y-74785657D02*
X121122068Y-74757085D01*
X121122068Y-74757085D02*
X121179211Y-74728514D01*
X121179211Y-74728514D02*
X121207782Y-74699942D01*
X121207782Y-74699942D02*
X121236354Y-74642800D01*
X121236354Y-74642800D02*
X121236354Y-74585657D01*
X121236354Y-74585657D02*
X121207782Y-74528514D01*
X121207782Y-74528514D02*
X121179211Y-74499942D01*
X121179211Y-74499942D02*
X121122068Y-74471371D01*
X121122068Y-74471371D02*
X120979211Y-74471371D01*
X120979211Y-74471371D02*
X120893497Y-74499942D01*
X120064925Y-74471371D02*
X120007782Y-74471371D01*
X120007782Y-74471371D02*
X119950639Y-74499942D01*
X119950639Y-74499942D02*
X119922068Y-74528514D01*
X119922068Y-74528514D02*
X119893496Y-74585657D01*
X119893496Y-74585657D02*
X119864925Y-74699942D01*
X119864925Y-74699942D02*
X119864925Y-74842800D01*
X119864925Y-74842800D02*
X119893496Y-74957085D01*
X119893496Y-74957085D02*
X119922068Y-75014228D01*
X119922068Y-75014228D02*
X119950639Y-75042800D01*
X119950639Y-75042800D02*
X120007782Y-75071371D01*
X120007782Y-75071371D02*
X120064925Y-75071371D01*
X120064925Y-75071371D02*
X120122068Y-75042800D01*
X120122068Y-75042800D02*
X120150639Y-75014228D01*
X120150639Y-75014228D02*
X120179210Y-74957085D01*
X120179210Y-74957085D02*
X120207782Y-74842800D01*
X120207782Y-74842800D02*
X120207782Y-74699942D01*
X120207782Y-74699942D02*
X120179210Y-74585657D01*
X120179210Y-74585657D02*
X120150639Y-74528514D01*
X120150639Y-74528514D02*
X120122068Y-74499942D01*
X120122068Y-74499942D02*
X120064925Y-74471371D01*
X126622068Y-72749942D02*
X126679211Y-72721371D01*
X126679211Y-72721371D02*
X126764925Y-72721371D01*
X126764925Y-72721371D02*
X126850639Y-72749942D01*
X126850639Y-72749942D02*
X126907782Y-72807085D01*
X126907782Y-72807085D02*
X126936353Y-72864228D01*
X126936353Y-72864228D02*
X126964925Y-72978514D01*
X126964925Y-72978514D02*
X126964925Y-73064228D01*
X126964925Y-73064228D02*
X126936353Y-73178514D01*
X126936353Y-73178514D02*
X126907782Y-73235657D01*
X126907782Y-73235657D02*
X126850639Y-73292800D01*
X126850639Y-73292800D02*
X126764925Y-73321371D01*
X126764925Y-73321371D02*
X126707782Y-73321371D01*
X126707782Y-73321371D02*
X126622068Y-73292800D01*
X126622068Y-73292800D02*
X126593496Y-73264228D01*
X126593496Y-73264228D02*
X126593496Y-73064228D01*
X126593496Y-73064228D02*
X126707782Y-73064228D01*
X126336353Y-73321371D02*
X126336353Y-72721371D01*
X126336353Y-72721371D02*
X125993496Y-73321371D01*
X125993496Y-73321371D02*
X125993496Y-72721371D01*
X125707782Y-73321371D02*
X125707782Y-72721371D01*
X125707782Y-72721371D02*
X125564925Y-72721371D01*
X125564925Y-72721371D02*
X125479211Y-72749942D01*
X125479211Y-72749942D02*
X125422068Y-72807085D01*
X125422068Y-72807085D02*
X125393497Y-72864228D01*
X125393497Y-72864228D02*
X125364925Y-72978514D01*
X125364925Y-72978514D02*
X125364925Y-73064228D01*
X125364925Y-73064228D02*
X125393497Y-73178514D01*
X125393497Y-73178514D02*
X125422068Y-73235657D01*
X125422068Y-73235657D02*
X125479211Y-73292800D01*
X125479211Y-73292800D02*
X125564925Y-73321371D01*
X125564925Y-73321371D02*
X125707782Y-73321371D01*
D11*
X33405000Y-84500000D02*
X133405000Y-84500000D01*
X133405000Y-134500000D01*
X33405000Y-134500000D01*
X33405000Y-84500000D01*
X33405000Y-34500000D02*
X133405000Y-34500000D01*
X133405000Y-84500000D01*
X33405000Y-84500000D01*
X33405000Y-34500000D01*
M02*
