M48
; DRILL file {KiCad 7.0.11-7.0.11~ubuntu20.04.1} date mié 08 abr 2026 14:55:16
; FORMAT={-:-/ absolute / inch / decimal}
; #@! TF.CreationDate,2026-04-08T14:55:16-05:00
; #@! TF.GenerationSoftware,Kicad,Pcbnew,7.0.11-7.0.11~ubuntu20.04.1
; #@! TF.FileFunction,Plated,1,2,PTH
FMAT,2
INCH
; #@! TA.AperFunction,Plated,PTH,ViaDrill
T1C0.0118
; #@! TA.AperFunction,Plated,PTH,ComponentDrill
T2C0.0394
; #@! TA.AperFunction,Plated,PTH,ComponentDrill
T3C0.0472
%
G90
G05
T1
X1.35Y-1.425
X1.35Y-1.575
X1.35Y-1.85
X1.35Y-2.0
X1.35Y-2.3
X1.35Y-2.45
X1.35Y-2.65
X1.35Y-2.775
X1.35Y-3.3935
X1.35Y-3.5435
X1.35Y-3.8185
X1.35Y-3.9685
X1.35Y-4.2685
X1.35Y-4.4185
X1.35Y-4.6185
X1.35Y-4.7435
X1.4088Y-2.9156
X1.4088Y-4.8841
X1.425Y-1.85
X1.425Y-3.8185
X1.475Y-1.575
X1.475Y-3.5435
X1.5Y-2.4
X1.5Y-2.725
X1.5Y-4.3685
X1.5Y-4.6935
X1.675Y-1.725
X1.675Y-3.6935
X1.75Y-1.8
X1.75Y-2.65
X1.75Y-3.7685
X1.75Y-4.6185
X1.775Y-2.425
X1.775Y-4.3935
X1.925Y-1.85
X1.925Y-3.8185
X2.1269Y-1.5419
X2.1269Y-3.5104
X2.15Y-1.5
X2.15Y-1.8
X2.15Y-3.4685
X2.15Y-3.7685
X2.175Y-2.375
X2.175Y-4.3435
X2.2396Y-2.6572
X2.2396Y-4.6257
X2.275Y-1.775
X2.275Y-3.7435
X2.3Y-2.65
X2.3Y-4.6185
X2.35Y-1.95
X2.35Y-3.9185
X2.3677Y-2.6823
X2.3677Y-4.6508
X2.45Y-1.625
X2.45Y-3.5935
X2.5427Y-1.9336
X2.5427Y-3.9021
X2.5529Y-1.3971
X2.5529Y-3.3656
X2.6Y-3.025
X2.6Y-4.9935
X2.6079Y-1.9335
X2.6079Y-3.902
X2.625Y-1.575
X2.625Y-3.5435
X2.6708Y-1.7394
X2.6708Y-3.7079
X2.675Y-1.5
X2.675Y-3.4685
X2.75Y-2.275
X2.75Y-4.2435
X2.825Y-1.6
X2.825Y-3.5685
X2.925Y-1.775
X2.925Y-3.025
X2.925Y-3.7435
X2.925Y-4.9935
X3.0Y-1.75
X3.0Y-3.7185
X3.15Y-1.3898
X3.15Y-3.3583
X3.2Y-1.775
X3.2Y-3.025
X3.2Y-3.7435
X3.2Y-4.9935
X3.25Y-2.6
X3.25Y-4.5685
X3.6175Y-1.8759
X3.6175Y-3.8444
X3.675Y-1.975
X3.675Y-2.2
X3.675Y-2.425
X3.675Y-3.9435
X3.675Y-4.1685
X3.675Y-4.3935
X3.8Y-2.05
X3.8Y-4.0185
X3.825Y-2.35
X3.825Y-4.3185
X3.95Y-1.4
X3.95Y-3.3685
X3.9705Y-2.6909
X3.9705Y-4.6595
X3.975Y-2.8411
X3.975Y-3.05
X3.975Y-4.8096
X3.975Y-5.0185
X4.0Y-2.05
X4.0Y-4.0185
X4.0509Y-2.8394
X4.0509Y-4.8079
X4.0596Y-2.9508
X4.0596Y-4.9193
X4.075Y-2.7245
X4.075Y-4.693
X4.225Y-1.4
X4.225Y-3.3685
X4.25Y-2.05
X4.25Y-2.2
X4.25Y-2.45
X4.25Y-4.0185
X4.25Y-4.1685
X4.25Y-4.4185
X4.251Y-2.7084
X4.251Y-4.6769
X4.267Y-2.9134
X4.267Y-4.8819
X4.275Y-3.009
X4.275Y-4.9775
X4.2974Y-2.9617
X4.2974Y-4.9302
X4.3Y-2.425
X4.3Y-4.3935
X4.325Y-2.7
X4.325Y-4.6685
X4.3258Y-2.9
X4.3258Y-4.8685
X4.35Y-3.05
X4.35Y-5.0185
X4.375Y-2.6
X4.375Y-4.5685
X4.4Y-1.975
X4.4Y-2.275
X4.4Y-3.9435
X4.4Y-4.2435
X4.525Y-1.4
X4.525Y-3.3685
X4.55Y-3.05
X4.55Y-5.0185
X4.75Y-2.425
X4.75Y-4.3935
X4.85Y-2.275
X4.85Y-4.2435
X4.975Y-3.05
X4.975Y-5.0185
X5.2Y-1.4
X5.2Y-1.825
X5.2Y-2.275
X5.2Y-2.425
X5.2Y-3.05
X5.2Y-3.3685
X5.2Y-3.7935
X5.2Y-4.2435
X5.2Y-4.3935
X5.2Y-5.0185
T2
X1.45Y-1.4276
X1.45Y-2.0276
X1.45Y-2.225
X1.45Y-2.825
X1.45Y-3.3961
X1.45Y-3.9961
X1.45Y-4.1935
X1.45Y-4.7935
X1.55Y-1.4276
X1.55Y-2.0276
X1.55Y-2.225
X1.55Y-2.825
X1.55Y-3.3961
X1.55Y-3.9961
X1.55Y-4.1935
X1.55Y-4.7935
X1.65Y-1.4276
X1.65Y-2.0276
X1.65Y-2.225
X1.65Y-2.825
X1.65Y-3.3961
X1.65Y-3.9961
X1.65Y-4.1935
X1.65Y-4.7935
X1.75Y-1.4276
X1.75Y-2.0276
X1.75Y-2.225
X1.75Y-2.825
X1.75Y-3.3961
X1.75Y-3.9961
X1.75Y-4.1935
X1.75Y-4.7935
X1.85Y-1.4276
X1.85Y-2.0276
X1.85Y-2.225
X1.85Y-2.825
X1.85Y-3.3961
X1.85Y-3.9961
X1.85Y-4.1935
X1.85Y-4.7935
X1.95Y-1.4276
X1.95Y-2.0276
X1.95Y-2.225
X1.95Y-2.825
X1.95Y-3.3961
X1.95Y-3.9961
X1.95Y-4.1935
X1.95Y-4.7935
X2.05Y-1.4276
X2.05Y-2.0276
X2.05Y-2.225
X2.05Y-2.825
X2.05Y-3.3961
X2.05Y-3.9961
X2.05Y-4.1935
X2.05Y-4.7935
X2.15Y-1.4276
X2.15Y-2.0276
X2.15Y-2.225
X2.15Y-2.825
X2.15Y-3.3961
X2.15Y-3.9961
X2.15Y-4.1935
X2.15Y-4.7935
X2.25Y-1.4276
X2.25Y-2.0276
X2.25Y-3.3961
X2.25Y-3.9961
X2.7616Y-2.0354
X2.7616Y-4.0039
X2.8616Y-2.0354
X2.8616Y-4.0039
X2.9616Y-2.0354
X2.9616Y-4.0039
X3.0616Y-2.0354
X3.0616Y-4.0039
T3
X4.6344Y-2.6831
X4.6344Y-2.8209
X4.6344Y-2.9587
X4.6344Y-4.6516
X4.6344Y-4.7894
X4.6344Y-4.9272
X4.6553Y-1.5291
X4.6553Y-3.4976
X4.7242Y-1.9791
X4.7242Y-3.9476
X4.7931Y-1.5291
X4.7931Y-3.4976
X4.862Y-1.9791
X4.862Y-3.9476
X4.9309Y-1.5291
X4.9309Y-3.4976
X4.9998Y-1.9791
X4.9998Y-3.9476
X5.0687Y-1.5291
X5.0687Y-3.4976
X5.0844Y-2.6142
X5.0844Y-2.752
X5.0844Y-2.8898
X5.0844Y-4.5827
X5.0844Y-4.7205
X5.0844Y-4.8583
X5.1376Y-1.9791
X5.1376Y-3.9476
M30
