%TF.GenerationSoftware,KiCad,Pcbnew,6.0.11-2627ca5db0~126~ubuntu20.04.1*%
%TF.CreationDate,2024-02-24T22:47:20-05:00*%
%TF.ProjectId,,58585858-5858-4585-9858-585858585858,rev?*%
%TF.SameCoordinates,Original*%
%TF.FileFunction,Soldermask,Bot*%
%TF.FilePolarity,Negative*%
%FSLAX46Y46*%
G04 Gerber Fmt 4.6, Leading zero omitted, Abs format (unit mm)*
G04 Created by KiCad (PCBNEW 6.0.11-2627ca5db0~126~ubuntu20.04.1) date 2024-02-24 22:47:20*
%MOMM*%
%LPD*%
G01*
G04 APERTURE LIST*
%TA.AperFunction,Profile*%
%ADD10C,0.100000*%
%TD*%
%ADD11C,3.200000*%
%ADD12R,1.700000X1.700000*%
%ADD13O,1.700000X1.700000*%
%ADD14R,2.400000X2.400000*%
%ADD15C,2.400000*%
%ADD16C,0.650000*%
%ADD17O,1.600000X1.000000*%
%ADD18O,2.100000X1.000000*%
G04 APERTURE END LIST*
D10*
X49377600Y-91886400D02*
X131377600Y-91886400D01*
X131377600Y-122386400D02*
X131377600Y-91886400D01*
X49377600Y-91886400D02*
X49377600Y-122386400D01*
X49377600Y-122386400D02*
X131377600Y-122386400D01*
X49377600Y-61386400D02*
X131377600Y-61386400D01*
X131377600Y-91886400D02*
X131377600Y-61386400D01*
X49377600Y-61386400D02*
X49377600Y-91886400D01*
X49377600Y-91886400D02*
X131377600Y-91886400D01*
X49377600Y-61386400D02*
X131377600Y-61386400D01*
X49377600Y-30886400D02*
X49377600Y-61386400D01*
X131377600Y-61386400D02*
X131377600Y-30886400D01*
X49377600Y-30886400D02*
X131377600Y-30886400D01*
D11*
%TO.C,REF\u002A\u002A5*%
X75577600Y-120386400D03*
%TD*%
%TO.C,REF\u002A\u002A1*%
X116217600Y-120386400D03*
%TD*%
D12*
%TO.C,RJ1*%
X106806800Y-93481400D03*
D13*
X106806800Y-96021400D03*
%TD*%
D12*
%TO.C,RJ2*%
X101828400Y-93435600D03*
D13*
X101828400Y-95975600D03*
%TD*%
D12*
%TO.C,RJ3*%
X96900800Y-93430600D03*
D13*
X96900800Y-95970600D03*
%TD*%
D11*
%TO.C,REF\u002A\u002A4*%
X85737600Y-120386400D03*
%TD*%
%TO.C,REF\u002A\u002A6*%
X65417600Y-120386400D03*
%TD*%
%TO.C,REF\u002A\u002A7*%
X55257600Y-120386400D03*
%TD*%
D14*
%TO.C,J2*%
X128396800Y-99836400D03*
D15*
X124896800Y-99836400D03*
X121396800Y-99836400D03*
X117896800Y-99836400D03*
X114396800Y-99836400D03*
%TD*%
D11*
%TO.C,REF\u002A\u002A*%
X126377600Y-120386400D03*
%TD*%
D16*
%TO.C,J1*%
X56117600Y-101496400D03*
X56117600Y-107276400D03*
D17*
X52467600Y-100066400D03*
D18*
X56647600Y-100066400D03*
X56647600Y-108706400D03*
D17*
X52467600Y-108706400D03*
%TD*%
D14*
%TO.C,J3*%
X114396800Y-108118400D03*
D15*
X117896800Y-108118400D03*
X121396800Y-108118400D03*
X124896800Y-108118400D03*
X128396800Y-108118400D03*
%TD*%
D11*
%TO.C,REF\u002A\u002A2*%
X106057600Y-120386400D03*
%TD*%
%TO.C,REF\u002A\u002A3*%
X95897600Y-120386400D03*
%TD*%
%TO.C,REF\u002A\u002A5*%
X75577600Y-89886400D03*
%TD*%
%TO.C,REF\u002A\u002A1*%
X116217600Y-89886400D03*
%TD*%
D12*
%TO.C,RJ1*%
X106806800Y-62981400D03*
D13*
X106806800Y-65521400D03*
%TD*%
D12*
%TO.C,RJ2*%
X101828400Y-62935600D03*
D13*
X101828400Y-65475600D03*
%TD*%
D12*
%TO.C,RJ3*%
X96900800Y-62930600D03*
D13*
X96900800Y-65470600D03*
%TD*%
D11*
%TO.C,REF\u002A\u002A4*%
X85737600Y-89886400D03*
%TD*%
%TO.C,REF\u002A\u002A6*%
X65417600Y-89886400D03*
%TD*%
%TO.C,REF\u002A\u002A7*%
X55257600Y-89886400D03*
%TD*%
D14*
%TO.C,J2*%
X128396800Y-69336400D03*
D15*
X124896800Y-69336400D03*
X121396800Y-69336400D03*
X117896800Y-69336400D03*
X114396800Y-69336400D03*
%TD*%
D11*
%TO.C,REF\u002A\u002A*%
X126377600Y-89886400D03*
%TD*%
D16*
%TO.C,J1*%
X56117600Y-70996400D03*
X56117600Y-76776400D03*
D17*
X52467600Y-69566400D03*
D18*
X56647600Y-69566400D03*
X56647600Y-78206400D03*
D17*
X52467600Y-78206400D03*
%TD*%
D14*
%TO.C,J3*%
X114396800Y-77618400D03*
D15*
X117896800Y-77618400D03*
X121396800Y-77618400D03*
X124896800Y-77618400D03*
X128396800Y-77618400D03*
%TD*%
D11*
%TO.C,REF\u002A\u002A2*%
X106057600Y-89886400D03*
%TD*%
%TO.C,REF\u002A\u002A3*%
X95897600Y-89886400D03*
%TD*%
%TO.C,REF\u002A\u002A2*%
X106057600Y-59386400D03*
%TD*%
%TO.C,REF\u002A\u002A3*%
X95897600Y-59386400D03*
%TD*%
D16*
%TO.C,J1*%
X56117600Y-40496400D03*
X56117600Y-46276400D03*
D17*
X52467600Y-39066400D03*
D18*
X56647600Y-39066400D03*
X56647600Y-47706400D03*
D17*
X52467600Y-47706400D03*
%TD*%
D14*
%TO.C,J3*%
X114396800Y-47118400D03*
D15*
X117896800Y-47118400D03*
X121396800Y-47118400D03*
X124896800Y-47118400D03*
X128396800Y-47118400D03*
%TD*%
D11*
%TO.C,REF\u002A\u002A*%
X126377600Y-59386400D03*
%TD*%
D14*
%TO.C,J2*%
X128396800Y-38836400D03*
D15*
X124896800Y-38836400D03*
X121396800Y-38836400D03*
X117896800Y-38836400D03*
X114396800Y-38836400D03*
%TD*%
D11*
%TO.C,REF\u002A\u002A7*%
X55257600Y-59386400D03*
%TD*%
%TO.C,REF\u002A\u002A6*%
X65417600Y-59386400D03*
%TD*%
%TO.C,REF\u002A\u002A4*%
X85737600Y-59386400D03*
%TD*%
D12*
%TO.C,RJ3*%
X96900800Y-32430600D03*
D13*
X96900800Y-34970600D03*
%TD*%
D12*
%TO.C,RJ2*%
X101828400Y-32435600D03*
D13*
X101828400Y-34975600D03*
%TD*%
D12*
%TO.C,RJ1*%
X106806800Y-32481400D03*
D13*
X106806800Y-35021400D03*
%TD*%
D11*
%TO.C,REF\u002A\u002A1*%
X116217600Y-59386400D03*
%TD*%
%TO.C,REF\u002A\u002A5*%
X75577600Y-59386400D03*
%TD*%
M02*
